G04 #@! TF.GenerationSoftware,KiCad,Pcbnew,7.0.8*
G04 #@! TF.CreationDate,2023-10-21T22:23:38-07:00*
G04 #@! TF.ProjectId,Seismos_5-Key,53656973-6d6f-4735-9f35-2d4b65792e6b,rev?*
G04 #@! TF.SameCoordinates,Original*
G04 #@! TF.FileFunction,Copper,L2,Bot*
G04 #@! TF.FilePolarity,Positive*
%FSLAX46Y46*%
G04 Gerber Fmt 4.6, Leading zero omitted, Abs format (unit mm)*
G04 Created by KiCad (PCBNEW 7.0.8) date 2023-10-21 22:23:38*
%MOMM*%
%LPD*%
G01*
G04 APERTURE LIST*
G04 Aperture macros list*
%AMRoundRect*
0 Rectangle with rounded corners*
0 $1 Rounding radius*
0 $2 $3 $4 $5 $6 $7 $8 $9 X,Y pos of 4 corners*
0 Add a 4 corners polygon primitive as box body*
4,1,4,$2,$3,$4,$5,$6,$7,$8,$9,$2,$3,0*
0 Add four circle primitives for the rounded corners*
1,1,$1+$1,$2,$3*
1,1,$1+$1,$4,$5*
1,1,$1+$1,$6,$7*
1,1,$1+$1,$8,$9*
0 Add four rect primitives between the rounded corners*
20,1,$1+$1,$2,$3,$4,$5,0*
20,1,$1+$1,$4,$5,$6,$7,0*
20,1,$1+$1,$6,$7,$8,$9,0*
20,1,$1+$1,$8,$9,$2,$3,0*%
G04 Aperture macros list end*
G04 #@! TA.AperFunction,SMDPad,CuDef*
%ADD10R,1.750000X0.812800*%
G04 #@! TD*
G04 #@! TA.AperFunction,SMDPad,CuDef*
%ADD11R,2.300000X2.600000*%
G04 #@! TD*
G04 #@! TA.AperFunction,SMDPad,CuDef*
%ADD12R,3.500000X3.500000*%
G04 #@! TD*
G04 #@! TA.AperFunction,SMDPad,CuDef*
%ADD13R,2.400000X2.600000*%
G04 #@! TD*
G04 #@! TA.AperFunction,SMDPad,CuDef*
%ADD14RoundRect,0.225000X-0.375000X0.225000X-0.375000X-0.225000X0.375000X-0.225000X0.375000X0.225000X0*%
G04 #@! TD*
G04 #@! TA.AperFunction,ViaPad*
%ADD15C,0.800000*%
G04 #@! TD*
G04 #@! TA.AperFunction,ViaPad*
%ADD16C,0.400000*%
G04 #@! TD*
G04 #@! TA.AperFunction,Conductor*
%ADD17C,0.254000*%
G04 #@! TD*
G04 #@! TA.AperFunction,Conductor*
%ADD18C,0.381000*%
G04 #@! TD*
G04 APERTURE END LIST*
D10*
X49378000Y-54754900D03*
D11*
X38660000Y-63800000D03*
X50560000Y-65900000D03*
D10*
X44348100Y-54754900D03*
X49378000Y-56253500D03*
X44348100Y-56253500D03*
D12*
X40910000Y-65515000D03*
D13*
X53860000Y-62540000D03*
D10*
X49378000Y-35754900D03*
D11*
X38660000Y-44800000D03*
X50560000Y-46900000D03*
D10*
X44348100Y-35754900D03*
X49378000Y-37253500D03*
X44348100Y-37253500D03*
D12*
X40910000Y-46515000D03*
D13*
X53860000Y-43540000D03*
D10*
X49378000Y-73754900D03*
D11*
X38660000Y-82800000D03*
X50560000Y-84900000D03*
D10*
X44348100Y-73754900D03*
X49378000Y-75253500D03*
X44348100Y-75253500D03*
D12*
X40910000Y-84515000D03*
D13*
X53860000Y-81540000D03*
D10*
X49378000Y-92754900D03*
D11*
X38660000Y-101800000D03*
X50560000Y-103900000D03*
D10*
X44348100Y-92754900D03*
X49378000Y-94253500D03*
X44348100Y-94253500D03*
D12*
X40910000Y-103515000D03*
D13*
X53860000Y-100540000D03*
D10*
X49378000Y-111754900D03*
D11*
X38660000Y-120800000D03*
X50560000Y-122900000D03*
D10*
X44348100Y-111754900D03*
X49378000Y-113253500D03*
X44348100Y-113253500D03*
D12*
X40910000Y-122515000D03*
D13*
X53860000Y-119540000D03*
D14*
X39500000Y-54350000D03*
X39500000Y-57650000D03*
X39500000Y-92350000D03*
X39500000Y-95650000D03*
X39500000Y-35350000D03*
X39500000Y-38650000D03*
X39500000Y-111350000D03*
X39500000Y-114650000D03*
X39500000Y-73350000D03*
X39500000Y-76650000D03*
D15*
X39500000Y-113000000D03*
X51400000Y-52100000D03*
X51400000Y-109100000D03*
X47500000Y-33500000D03*
X47000000Y-26810000D03*
X51400000Y-71100000D03*
X51400000Y-90100000D03*
X39400000Y-42600000D03*
X39400000Y-61600000D03*
X39400000Y-80600000D03*
X39326500Y-99400000D03*
D16*
X46500000Y-32700000D03*
X44800000Y-53000000D03*
X40200000Y-71300000D03*
X40500000Y-90100000D03*
D15*
X48400000Y-34300000D03*
D16*
X50800000Y-38800000D03*
D15*
X53160500Y-90200000D03*
X52200000Y-35800000D03*
X53160500Y-52200000D03*
X53160500Y-71400000D03*
X53160500Y-109200000D03*
X53160500Y-110600000D03*
D16*
X39500000Y-109100000D03*
D17*
X38600000Y-39550000D02*
X38600000Y-44205000D01*
X39500000Y-38650000D02*
X38600000Y-39550000D01*
X38600000Y-44205000D02*
X40910000Y-46515000D01*
X38600000Y-58550000D02*
X38600000Y-63205000D01*
X38600000Y-63205000D02*
X40910000Y-65515000D01*
X39500000Y-57650000D02*
X38600000Y-58550000D01*
X39500000Y-76650000D02*
X38600000Y-77550000D01*
X38600000Y-77550000D02*
X38600000Y-82205000D01*
X38600000Y-82205000D02*
X40910000Y-84515000D01*
X38600000Y-101205000D02*
X40910000Y-103515000D01*
X38600000Y-96550000D02*
X38600000Y-101205000D01*
X39500000Y-95650000D02*
X38600000Y-96550000D01*
X49378000Y-42172000D02*
X48877000Y-42673000D01*
X49378000Y-37253500D02*
X49378000Y-42172000D01*
X44348100Y-54348500D02*
X44348100Y-54754900D01*
X48877000Y-42673000D02*
X48877000Y-49819600D01*
X48877000Y-49819600D02*
X44348100Y-54348500D01*
D18*
X41050000Y-77025000D02*
X39400000Y-78675000D01*
X44100000Y-33500000D02*
X42500000Y-35100000D01*
X44348100Y-37851900D02*
X43175000Y-39025000D01*
X39326500Y-97748500D02*
X41050000Y-96025000D01*
X43175000Y-39025000D02*
X41050000Y-39025000D01*
X39400000Y-59675000D02*
X39400000Y-61400000D01*
X39326500Y-99400000D02*
X39326500Y-97748500D01*
X41050000Y-58025000D02*
X39400000Y-59675000D01*
X42576600Y-58025000D02*
X41050000Y-58025000D01*
X44348100Y-37253500D02*
X44348100Y-37851900D01*
X42500000Y-35100000D02*
X42500000Y-36280400D01*
X42500000Y-36280400D02*
X43473100Y-37253500D01*
X43473100Y-37253500D02*
X44348100Y-37253500D01*
X42576600Y-77025000D02*
X41050000Y-77025000D01*
X41050000Y-96025000D02*
X42576600Y-96025000D01*
X39400000Y-78675000D02*
X39400000Y-80400000D01*
X39400000Y-40675000D02*
X39400000Y-42400000D01*
X44348100Y-56253500D02*
X42576600Y-58025000D01*
X41050000Y-39025000D02*
X39400000Y-40675000D01*
X47500000Y-33500000D02*
X44100000Y-33500000D01*
X44348100Y-75253500D02*
X42576600Y-77025000D01*
X42576600Y-96025000D02*
X44348100Y-94253500D01*
D17*
X44348100Y-73348500D02*
X44348100Y-73754900D01*
X49378000Y-56253500D02*
X49378000Y-61172000D01*
X49378000Y-61172000D02*
X48877000Y-61673000D01*
X48877000Y-61673000D02*
X48877000Y-68819600D01*
X48877000Y-68819600D02*
X44348100Y-73348500D01*
X44348100Y-92348500D02*
X44348100Y-92754900D01*
X48877000Y-80673000D02*
X48877000Y-87819600D01*
X48877000Y-87819600D02*
X44348100Y-92348500D01*
X49378000Y-80172000D02*
X48877000Y-80673000D01*
X49378000Y-75253500D02*
X49378000Y-80172000D01*
X42150000Y-32700000D02*
X39500000Y-35350000D01*
X46500000Y-32700000D02*
X42150000Y-32700000D01*
X39500000Y-54350000D02*
X40850000Y-53000000D01*
X40850000Y-53000000D02*
X44800000Y-53000000D01*
X39500000Y-72000000D02*
X40200000Y-71300000D01*
X39500000Y-73350000D02*
X39500000Y-72000000D01*
X40500000Y-90750000D02*
X39500000Y-91750000D01*
X39500000Y-91750000D02*
X39500000Y-92350000D01*
X40500000Y-90100000D02*
X40500000Y-90750000D01*
D18*
X48400000Y-34300000D02*
X45396600Y-34300000D01*
X44348100Y-35348500D02*
X44348100Y-35754900D01*
X45396600Y-34300000D02*
X44348100Y-35348500D01*
D17*
X50560000Y-122840000D02*
X50560000Y-122900000D01*
X53860000Y-62540000D02*
X53860000Y-81540000D01*
X53860000Y-100600000D02*
X50560000Y-103900000D01*
X53860000Y-43540000D02*
X53860000Y-62540000D01*
X53860000Y-62600000D02*
X50560000Y-65900000D01*
X53860000Y-81600000D02*
X50560000Y-84900000D01*
X50800000Y-38800000D02*
X53000000Y-38800000D01*
X53860000Y-39660000D02*
X53860000Y-43540000D01*
X53860000Y-43600000D02*
X50560000Y-46900000D01*
X53000000Y-38800000D02*
X53860000Y-39660000D01*
X53887500Y-100567500D02*
X53887500Y-119512500D01*
X53887500Y-119512500D02*
X53860000Y-119540000D01*
X53860000Y-100540000D02*
X53860000Y-81540000D01*
X53860000Y-100540000D02*
X53860000Y-100600000D01*
X53860000Y-100540000D02*
X53887500Y-100567500D01*
X53860000Y-81540000D02*
X53860000Y-81600000D01*
X53860000Y-119540000D02*
X50560000Y-122840000D01*
D18*
X53160500Y-109200000D02*
X50560500Y-111800000D01*
X52154900Y-35754900D02*
X49378000Y-35754900D01*
X50760500Y-73800000D02*
X49400000Y-73800000D01*
X50605600Y-54754900D02*
X49378000Y-54754900D01*
X52200000Y-35800000D02*
X52154900Y-35754900D01*
X53160500Y-52200000D02*
X50605600Y-54754900D01*
X50560500Y-92800000D02*
X49400000Y-92800000D01*
X50560500Y-111800000D02*
X49400000Y-111800000D01*
X53160500Y-71400000D02*
X50760500Y-73800000D01*
X53160500Y-90200000D02*
X50560500Y-92800000D01*
X53160500Y-110600000D02*
X50507000Y-113253500D01*
X50507000Y-113253500D02*
X49378000Y-113253500D01*
D17*
X39500000Y-111350000D02*
X39500000Y-109100000D01*
X38660000Y-120800000D02*
X38660000Y-115490000D01*
X38660000Y-115490000D02*
X39500000Y-114650000D01*
X49378000Y-99172000D02*
X48877000Y-99673000D01*
X48877000Y-99673000D02*
X48877000Y-106819600D01*
X49378000Y-94253500D02*
X49378000Y-99172000D01*
X44348100Y-111348500D02*
X44348100Y-111754900D01*
X48877000Y-106819600D02*
X44348100Y-111348500D01*
G04 #@! TA.AperFunction,Conductor*
G36*
X53642539Y-25020185D02*
G01*
X53688294Y-25072989D01*
X53699500Y-25124500D01*
X53699500Y-30975467D01*
X53699416Y-30975889D01*
X53699459Y-31000001D01*
X53699500Y-31000099D01*
X53699616Y-31000382D01*
X53699618Y-31000384D01*
X53699808Y-31000462D01*
X53700000Y-31000541D01*
X53700002Y-31000539D01*
X53724616Y-31000524D01*
X53724616Y-31000528D01*
X53724760Y-31000500D01*
X56375500Y-31000500D01*
X56442539Y-31020185D01*
X56488294Y-31072989D01*
X56499500Y-31124500D01*
X56499500Y-128937121D01*
X56499342Y-128941547D01*
X56494687Y-129006603D01*
X56482856Y-129156385D01*
X56481631Y-129164692D01*
X56461691Y-129256354D01*
X56432960Y-129376020D01*
X56430762Y-129383219D01*
X56395594Y-129477504D01*
X56350781Y-129585691D01*
X56347915Y-129591682D01*
X56299029Y-129681211D01*
X56297476Y-129683892D01*
X56238121Y-129780752D01*
X56234889Y-129785515D01*
X56173121Y-129868029D01*
X56170633Y-129871140D01*
X56097464Y-129956814D01*
X56094158Y-129960390D01*
X56021035Y-130033516D01*
X56017459Y-130036822D01*
X55931794Y-130109990D01*
X55928683Y-130112479D01*
X55846152Y-130174265D01*
X55841389Y-130177498D01*
X55744564Y-130236836D01*
X55741882Y-130238389D01*
X55652335Y-130287290D01*
X55646344Y-130290156D01*
X55538171Y-130334969D01*
X55443871Y-130370146D01*
X55436672Y-130372344D01*
X55357168Y-130391436D01*
X55316997Y-130401082D01*
X55225384Y-130421015D01*
X55217061Y-130422243D01*
X55061300Y-130434511D01*
X55029511Y-130436787D01*
X55003033Y-130438682D01*
X54998624Y-130438840D01*
X39002217Y-130438840D01*
X38997791Y-130438682D01*
X38927771Y-130433673D01*
X38783790Y-130422379D01*
X38775449Y-130421150D01*
X38677521Y-130399847D01*
X38564251Y-130372652D01*
X38557058Y-130370456D01*
X38499058Y-130348823D01*
X38458702Y-130333770D01*
X38354636Y-130290663D01*
X38348645Y-130287796D01*
X38258165Y-130238389D01*
X38256031Y-130237223D01*
X38253359Y-130235677D01*
X38159647Y-130178247D01*
X38154885Y-130175016D01*
X38069847Y-130111355D01*
X38066735Y-130108866D01*
X37983620Y-130037875D01*
X37980045Y-130034570D01*
X37927288Y-129981813D01*
X37904770Y-129959295D01*
X37901491Y-129955746D01*
X37830479Y-129872599D01*
X37828024Y-129869530D01*
X37764339Y-129784452D01*
X37761114Y-129779697D01*
X37703669Y-129685949D01*
X37702163Y-129683349D01*
X37651572Y-129590691D01*
X37648710Y-129584711D01*
X37605610Y-129480648D01*
X37599791Y-129465046D01*
X37568923Y-129382277D01*
X37566729Y-129375089D01*
X37539534Y-129261796D01*
X37518231Y-129163853D01*
X37517008Y-129155552D01*
X37506142Y-129017438D01*
X37500658Y-128940707D01*
X37500500Y-128936285D01*
X37500500Y-127567763D01*
X38645787Y-127567763D01*
X38675413Y-127837013D01*
X38675415Y-127837024D01*
X38743926Y-128099082D01*
X38743928Y-128099088D01*
X38849870Y-128348390D01*
X38921998Y-128466575D01*
X38990979Y-128579605D01*
X38990986Y-128579615D01*
X39164253Y-128787819D01*
X39164259Y-128787824D01*
X39365998Y-128968582D01*
X39591910Y-129118044D01*
X39837176Y-129233020D01*
X39837183Y-129233022D01*
X39837185Y-129233023D01*
X40096557Y-129311057D01*
X40096564Y-129311058D01*
X40096569Y-129311060D01*
X40364561Y-129350500D01*
X40364566Y-129350500D01*
X40567636Y-129350500D01*
X40619133Y-129346730D01*
X40770156Y-129335677D01*
X40882758Y-129310593D01*
X41034546Y-129276782D01*
X41034548Y-129276781D01*
X41034553Y-129276780D01*
X41287558Y-129180014D01*
X41523777Y-129047441D01*
X41738177Y-128881888D01*
X41926186Y-128686881D01*
X42083799Y-128466579D01*
X42157787Y-128322669D01*
X42207649Y-128225690D01*
X42207651Y-128225684D01*
X42207656Y-128225675D01*
X42295118Y-127969305D01*
X42344319Y-127702933D01*
X42349259Y-127567763D01*
X51645787Y-127567763D01*
X51675413Y-127837013D01*
X51675415Y-127837024D01*
X51743926Y-128099082D01*
X51743928Y-128099088D01*
X51849870Y-128348390D01*
X51921998Y-128466575D01*
X51990979Y-128579605D01*
X51990986Y-128579615D01*
X52164253Y-128787819D01*
X52164259Y-128787824D01*
X52365998Y-128968582D01*
X52591910Y-129118044D01*
X52837176Y-129233020D01*
X52837183Y-129233022D01*
X52837185Y-129233023D01*
X53096557Y-129311057D01*
X53096564Y-129311058D01*
X53096569Y-129311060D01*
X53364561Y-129350500D01*
X53364566Y-129350500D01*
X53567636Y-129350500D01*
X53619133Y-129346730D01*
X53770156Y-129335677D01*
X53882758Y-129310593D01*
X54034546Y-129276782D01*
X54034548Y-129276781D01*
X54034553Y-129276780D01*
X54287558Y-129180014D01*
X54523777Y-129047441D01*
X54738177Y-128881888D01*
X54926186Y-128686881D01*
X55083799Y-128466579D01*
X55157787Y-128322669D01*
X55207649Y-128225690D01*
X55207651Y-128225684D01*
X55207656Y-128225675D01*
X55295118Y-127969305D01*
X55344319Y-127702933D01*
X55354212Y-127432235D01*
X55324586Y-127162982D01*
X55256072Y-126900912D01*
X55150130Y-126651610D01*
X55009018Y-126420390D01*
X54919747Y-126313119D01*
X54835746Y-126212180D01*
X54835740Y-126212175D01*
X54634002Y-126031418D01*
X54408092Y-125881957D01*
X54408090Y-125881956D01*
X54162824Y-125766980D01*
X54162819Y-125766978D01*
X54162814Y-125766976D01*
X53903442Y-125688942D01*
X53903428Y-125688939D01*
X53787791Y-125671921D01*
X53635439Y-125649500D01*
X53432369Y-125649500D01*
X53432364Y-125649500D01*
X53229844Y-125664323D01*
X53229831Y-125664325D01*
X52965453Y-125723217D01*
X52965446Y-125723220D01*
X52712439Y-125819987D01*
X52476226Y-125952557D01*
X52261822Y-126118112D01*
X52073822Y-126313109D01*
X52073816Y-126313116D01*
X51916202Y-126533419D01*
X51916199Y-126533424D01*
X51792350Y-126774309D01*
X51792343Y-126774327D01*
X51704884Y-127030685D01*
X51704881Y-127030699D01*
X51655681Y-127297068D01*
X51655680Y-127297075D01*
X51645787Y-127567763D01*
X42349259Y-127567763D01*
X42354212Y-127432235D01*
X42324586Y-127162982D01*
X42256072Y-126900912D01*
X42150130Y-126651610D01*
X42009018Y-126420390D01*
X41919747Y-126313119D01*
X41835746Y-126212180D01*
X41835740Y-126212175D01*
X41634002Y-126031418D01*
X41408092Y-125881957D01*
X41408090Y-125881956D01*
X41162824Y-125766980D01*
X41162819Y-125766978D01*
X41162814Y-125766976D01*
X40903442Y-125688942D01*
X40903428Y-125688939D01*
X40787791Y-125671921D01*
X40635439Y-125649500D01*
X40432369Y-125649500D01*
X40432364Y-125649500D01*
X40229844Y-125664323D01*
X40229831Y-125664325D01*
X39965453Y-125723217D01*
X39965446Y-125723220D01*
X39712439Y-125819987D01*
X39476226Y-125952557D01*
X39261822Y-126118112D01*
X39073822Y-126313109D01*
X39073816Y-126313116D01*
X38916202Y-126533419D01*
X38916199Y-126533424D01*
X38792350Y-126774309D01*
X38792343Y-126774327D01*
X38704884Y-127030685D01*
X38704881Y-127030699D01*
X38655681Y-127297068D01*
X38655680Y-127297075D01*
X38645787Y-127567763D01*
X37500500Y-127567763D01*
X37500500Y-122732500D01*
X37520185Y-122665461D01*
X37572989Y-122619706D01*
X37624500Y-122608500D01*
X38527500Y-122608500D01*
X38594539Y-122628185D01*
X38640294Y-122680989D01*
X38651500Y-122732500D01*
X38651500Y-124313654D01*
X38658011Y-124374202D01*
X38658011Y-124374204D01*
X38698057Y-124481567D01*
X38709111Y-124511204D01*
X38796739Y-124628261D01*
X38913796Y-124715889D01*
X39050799Y-124766989D01*
X39078050Y-124769918D01*
X39111345Y-124773499D01*
X39111362Y-124773500D01*
X42708638Y-124773500D01*
X42708654Y-124773499D01*
X42735692Y-124770591D01*
X42769201Y-124766989D01*
X42906204Y-124715889D01*
X43023261Y-124628261D01*
X43110889Y-124511204D01*
X43161989Y-124374201D01*
X43165591Y-124340692D01*
X43168499Y-124313654D01*
X43168500Y-124313637D01*
X43168500Y-123546524D01*
X43188185Y-123479485D01*
X43240989Y-123433730D01*
X43310147Y-123423786D01*
X43369810Y-123449575D01*
X43471143Y-123530386D01*
X43698357Y-123661568D01*
X43942584Y-123757420D01*
X44198370Y-123815802D01*
X44198376Y-123815802D01*
X44198379Y-123815803D01*
X44394500Y-123830500D01*
X44394506Y-123830500D01*
X44525500Y-123830500D01*
X44721620Y-123815803D01*
X44721622Y-123815802D01*
X44721630Y-123815802D01*
X44977416Y-123757420D01*
X45221643Y-123661568D01*
X45221646Y-123661566D01*
X45221647Y-123661566D01*
X45264118Y-123637045D01*
X45332018Y-123620571D01*
X45398045Y-123643423D01*
X45437839Y-123690630D01*
X45479767Y-123777695D01*
X45479768Y-123777697D01*
X45479770Y-123777700D01*
X45479772Y-123777704D01*
X45505747Y-123815802D01*
X45627567Y-123994479D01*
X45806014Y-124186801D01*
X45806018Y-124186804D01*
X45806019Y-124186805D01*
X46011143Y-124350386D01*
X46238357Y-124481568D01*
X46482584Y-124577420D01*
X46738370Y-124635802D01*
X46738376Y-124635802D01*
X46738379Y-124635803D01*
X46934500Y-124650500D01*
X46934506Y-124650500D01*
X47065500Y-124650500D01*
X47261620Y-124635803D01*
X47261622Y-124635802D01*
X47261630Y-124635802D01*
X47517416Y-124577420D01*
X47761643Y-124481568D01*
X47988857Y-124350386D01*
X48193981Y-124186805D01*
X48372433Y-123994479D01*
X48520228Y-123777704D01*
X48634063Y-123541323D01*
X48659010Y-123460446D01*
X48697579Y-123402189D01*
X48761524Y-123374032D01*
X48830541Y-123384915D01*
X48882717Y-123431383D01*
X48901500Y-123496998D01*
X48901500Y-124248654D01*
X48908011Y-124309202D01*
X48908011Y-124309204D01*
X48932255Y-124374202D01*
X48959111Y-124446204D01*
X49046739Y-124563261D01*
X49163796Y-124650889D01*
X49300799Y-124701989D01*
X49328050Y-124704918D01*
X49361345Y-124708499D01*
X49361362Y-124708500D01*
X51758638Y-124708500D01*
X51758654Y-124708499D01*
X51785692Y-124705591D01*
X51819201Y-124701989D01*
X51956204Y-124650889D01*
X52073261Y-124563261D01*
X52160889Y-124446204D01*
X52210334Y-124313638D01*
X52211988Y-124309204D01*
X52211988Y-124309203D01*
X52211989Y-124309201D01*
X52215591Y-124275692D01*
X52218499Y-124248654D01*
X52218500Y-124248637D01*
X52218500Y-123281182D01*
X52226726Y-123236770D01*
X52749758Y-121873335D01*
X52792148Y-121817794D01*
X52823444Y-121801109D01*
X54057476Y-121355859D01*
X54099561Y-121348500D01*
X55108638Y-121348500D01*
X55108654Y-121348499D01*
X55135692Y-121345591D01*
X55169201Y-121341989D01*
X55306204Y-121290889D01*
X55423261Y-121203261D01*
X55510889Y-121086204D01*
X55561989Y-120949201D01*
X55565591Y-120915692D01*
X55568499Y-120888654D01*
X55568500Y-120888637D01*
X55568500Y-118191362D01*
X55568499Y-118191345D01*
X55565157Y-118160270D01*
X55561989Y-118130799D01*
X55510889Y-117993796D01*
X55423261Y-117876739D01*
X55306204Y-117789111D01*
X55169204Y-117738011D01*
X55164802Y-117737538D01*
X55100252Y-117710798D01*
X55084099Y-117695162D01*
X54553037Y-117078450D01*
X54524208Y-117014805D01*
X54523000Y-116997537D01*
X54523000Y-103082461D01*
X54542685Y-103015422D01*
X54553033Y-103001552D01*
X55084099Y-102384836D01*
X55142758Y-102346882D01*
X55164811Y-102342461D01*
X55169202Y-102341989D01*
X55237702Y-102316439D01*
X55306204Y-102290889D01*
X55423261Y-102203261D01*
X55510889Y-102086204D01*
X55561989Y-101949201D01*
X55565591Y-101915692D01*
X55568499Y-101888654D01*
X55568500Y-101888637D01*
X55568500Y-99191362D01*
X55568499Y-99191345D01*
X55565157Y-99160270D01*
X55561989Y-99130799D01*
X55510889Y-98993796D01*
X55423261Y-98876739D01*
X55306204Y-98789111D01*
X55169203Y-98738011D01*
X55144838Y-98735391D01*
X55080287Y-98708651D01*
X55064684Y-98693651D01*
X54526088Y-98076702D01*
X54496828Y-98013254D01*
X54495500Y-97995153D01*
X54495500Y-84084845D01*
X54515185Y-84017806D01*
X54526088Y-84003296D01*
X54602701Y-83915538D01*
X55064684Y-83386346D01*
X55123600Y-83348792D01*
X55144831Y-83344608D01*
X55169201Y-83341989D01*
X55306204Y-83290889D01*
X55423261Y-83203261D01*
X55510889Y-83086204D01*
X55561989Y-82949201D01*
X55565591Y-82915692D01*
X55568499Y-82888654D01*
X55568500Y-82888637D01*
X55568500Y-80191362D01*
X55568499Y-80191345D01*
X55565157Y-80160270D01*
X55561989Y-80130799D01*
X55510889Y-79993796D01*
X55423261Y-79876739D01*
X55306204Y-79789111D01*
X55169203Y-79738011D01*
X55144838Y-79735391D01*
X55080287Y-79708651D01*
X55064684Y-79693651D01*
X54526088Y-79076702D01*
X54496828Y-79013254D01*
X54495500Y-78995153D01*
X54495500Y-65084845D01*
X54515185Y-65017806D01*
X54526088Y-65003296D01*
X54602701Y-64915538D01*
X55064684Y-64386346D01*
X55123600Y-64348792D01*
X55144831Y-64344608D01*
X55169201Y-64341989D01*
X55306204Y-64290889D01*
X55423261Y-64203261D01*
X55510889Y-64086204D01*
X55561989Y-63949201D01*
X55565591Y-63915692D01*
X55568499Y-63888654D01*
X55568500Y-63888637D01*
X55568500Y-61191362D01*
X55568499Y-61191345D01*
X55565157Y-61160270D01*
X55561989Y-61130799D01*
X55510889Y-60993796D01*
X55423261Y-60876739D01*
X55306204Y-60789111D01*
X55169203Y-60738011D01*
X55144838Y-60735391D01*
X55080287Y-60708651D01*
X55064684Y-60693651D01*
X54526088Y-60076702D01*
X54496828Y-60013254D01*
X54495500Y-59995153D01*
X54495500Y-46084845D01*
X54515185Y-46017806D01*
X54526088Y-46003296D01*
X54602701Y-45915538D01*
X55064684Y-45386346D01*
X55123600Y-45348792D01*
X55144831Y-45344608D01*
X55169201Y-45341989D01*
X55306204Y-45290889D01*
X55423261Y-45203261D01*
X55510889Y-45086204D01*
X55561989Y-44949201D01*
X55565591Y-44915692D01*
X55568499Y-44888654D01*
X55568500Y-44888637D01*
X55568500Y-42191362D01*
X55568499Y-42191345D01*
X55565157Y-42160270D01*
X55561989Y-42130799D01*
X55510889Y-41993796D01*
X55423261Y-41876739D01*
X55306204Y-41789111D01*
X55169203Y-41738011D01*
X55144838Y-41735391D01*
X55080287Y-41708651D01*
X55064684Y-41693651D01*
X54526088Y-41076702D01*
X54496828Y-41013254D01*
X54495500Y-40995153D01*
X54495500Y-39743851D01*
X54497242Y-39728069D01*
X54496975Y-39728044D01*
X54497707Y-39720288D01*
X54497709Y-39720281D01*
X54495500Y-39649996D01*
X54495500Y-39620017D01*
X54494610Y-39612982D01*
X54494153Y-39607164D01*
X54492665Y-39559795D01*
X54486941Y-39540093D01*
X54482997Y-39521049D01*
X54480427Y-39500701D01*
X54462973Y-39456618D01*
X54461098Y-39451142D01*
X54447869Y-39405607D01*
X54447868Y-39405606D01*
X54447868Y-39405604D01*
X54437428Y-39387952D01*
X54428869Y-39370482D01*
X54421319Y-39351412D01*
X54393468Y-39313080D01*
X54390261Y-39308197D01*
X54369609Y-39273277D01*
X54366135Y-39267402D01*
X54366133Y-39267400D01*
X54366128Y-39267394D01*
X54351633Y-39252899D01*
X54338995Y-39238103D01*
X54333006Y-39229860D01*
X54326942Y-39221513D01*
X54290422Y-39191301D01*
X54286100Y-39187367D01*
X53508658Y-38409925D01*
X53498732Y-38397535D01*
X53498525Y-38397707D01*
X53493552Y-38391696D01*
X53442306Y-38343573D01*
X53421097Y-38322363D01*
X53415492Y-38318015D01*
X53411046Y-38314218D01*
X53376509Y-38281785D01*
X53376501Y-38281780D01*
X53358540Y-38271906D01*
X53342274Y-38261222D01*
X53326064Y-38248648D01*
X53282571Y-38229827D01*
X53277323Y-38227256D01*
X53235805Y-38204432D01*
X53235804Y-38204431D01*
X53235803Y-38204431D01*
X53215937Y-38199330D01*
X53197538Y-38193030D01*
X53178709Y-38184883D01*
X53178708Y-38184882D01*
X53131902Y-38177469D01*
X53126181Y-38176284D01*
X53080283Y-38164500D01*
X53080282Y-38164500D01*
X53059774Y-38164500D01*
X53040376Y-38162973D01*
X53029769Y-38161293D01*
X53020122Y-38159765D01*
X53020121Y-38159764D01*
X52972939Y-38164225D01*
X52967101Y-38164500D01*
X52803083Y-38164500D01*
X52736044Y-38144815D01*
X52690289Y-38092011D01*
X52680345Y-38022853D01*
X52709370Y-37959297D01*
X52712889Y-37955406D01*
X52826089Y-37835421D01*
X52826088Y-37835421D01*
X52826092Y-37835418D01*
X52913812Y-37683481D01*
X52964130Y-37515410D01*
X52974331Y-37340265D01*
X52943865Y-37167489D01*
X52874377Y-37006396D01*
X52769610Y-36865670D01*
X52769609Y-36865669D01*
X52663458Y-36776597D01*
X52624756Y-36718426D01*
X52623648Y-36648565D01*
X52660485Y-36589195D01*
X52670279Y-36581290D01*
X52748359Y-36524561D01*
X52811253Y-36478866D01*
X52939040Y-36336944D01*
X53034527Y-36171556D01*
X53093542Y-35989928D01*
X53113504Y-35800000D01*
X53093542Y-35610072D01*
X53034527Y-35428444D01*
X52939040Y-35263056D01*
X52811253Y-35121134D01*
X52656752Y-35008882D01*
X52482288Y-34931206D01*
X52482286Y-34931205D01*
X52295487Y-34891500D01*
X52104513Y-34891500D01*
X51917713Y-34931205D01*
X51911533Y-34933213D01*
X51911356Y-34932668D01*
X51897692Y-34937083D01*
X51344428Y-35053254D01*
X51318947Y-35055900D01*
X50827637Y-35055900D01*
X50769462Y-35041406D01*
X50508669Y-34902859D01*
X50507009Y-34901806D01*
X50506982Y-34901857D01*
X50497251Y-34896545D01*
X50494215Y-34895180D01*
X50491308Y-34893636D01*
X50475526Y-34885931D01*
X50466065Y-34881705D01*
X50380685Y-34852273D01*
X50377537Y-34851580D01*
X50369196Y-34849119D01*
X50362202Y-34846511D01*
X50301638Y-34840000D01*
X50262861Y-34840000D01*
X50256607Y-34839683D01*
X50246645Y-34838672D01*
X50235273Y-34837518D01*
X50226330Y-34837892D01*
X50226329Y-34837892D01*
X50217430Y-34838742D01*
X50207202Y-34839719D01*
X50201308Y-34840000D01*
X49350468Y-34840000D01*
X49283429Y-34820315D01*
X49237674Y-34767511D01*
X49227730Y-34698353D01*
X49232537Y-34677682D01*
X49251835Y-34618285D01*
X49293542Y-34489928D01*
X49313504Y-34300000D01*
X49293542Y-34110072D01*
X49234527Y-33928444D01*
X49139040Y-33763056D01*
X49011253Y-33621134D01*
X48856752Y-33508882D01*
X48682288Y-33431206D01*
X48682286Y-33431205D01*
X48495487Y-33391500D01*
X48304513Y-33391500D01*
X48117713Y-33431205D01*
X48117700Y-33431210D01*
X48113081Y-33433266D01*
X48095740Y-33439486D01*
X47583308Y-33581315D01*
X47528417Y-33596507D01*
X47495342Y-33601000D01*
X46810940Y-33601000D01*
X46743901Y-33581315D01*
X46698146Y-33528511D01*
X46688202Y-33459353D01*
X46717227Y-33395797D01*
X46753311Y-33367205D01*
X46905430Y-33287367D01*
X47034215Y-33173273D01*
X47131954Y-33031675D01*
X47192965Y-32870801D01*
X47213704Y-32700000D01*
X47192965Y-32529199D01*
X47131954Y-32368325D01*
X47034215Y-32226727D01*
X47034213Y-32226725D01*
X47034210Y-32226722D01*
X46905432Y-32112634D01*
X46753079Y-32032673D01*
X46586028Y-31991500D01*
X46413972Y-31991500D01*
X46413968Y-31991500D01*
X46386643Y-31998235D01*
X46381136Y-31999592D01*
X46377438Y-32000385D01*
X46037170Y-32062485D01*
X46014907Y-32064500D01*
X42233852Y-32064500D01*
X42218069Y-32062757D01*
X42218044Y-32063025D01*
X42210282Y-32062291D01*
X42210281Y-32062291D01*
X42139997Y-32064500D01*
X42110017Y-32064500D01*
X42110014Y-32064500D01*
X42109999Y-32064501D01*
X42102981Y-32065387D01*
X42097164Y-32065845D01*
X42049800Y-32067334D01*
X42049794Y-32067335D01*
X42030093Y-32073058D01*
X42011054Y-32077000D01*
X41990711Y-32079571D01*
X41990703Y-32079572D01*
X41990701Y-32079573D01*
X41990699Y-32079573D01*
X41990693Y-32079575D01*
X41946645Y-32097014D01*
X41941122Y-32098905D01*
X41895609Y-32112130D01*
X41895607Y-32112130D01*
X41895607Y-32112131D01*
X41877948Y-32122573D01*
X41860483Y-32131129D01*
X41841415Y-32138678D01*
X41841414Y-32138679D01*
X41803070Y-32166537D01*
X41798188Y-32169743D01*
X41757398Y-32193868D01*
X41742902Y-32208364D01*
X41728112Y-32220996D01*
X41711515Y-32233054D01*
X41711513Y-32233057D01*
X41681297Y-32269580D01*
X41677365Y-32273901D01*
X39895960Y-34055305D01*
X39860478Y-34080102D01*
X39214308Y-34379978D01*
X39162109Y-34391500D01*
X39076120Y-34391500D01*
X38975663Y-34401764D01*
X38812901Y-34455697D01*
X38812890Y-34455702D01*
X38666963Y-34545712D01*
X38666959Y-34545715D01*
X38545715Y-34666959D01*
X38545712Y-34666963D01*
X38455702Y-34812890D01*
X38455697Y-34812901D01*
X38401764Y-34975663D01*
X38391500Y-35076120D01*
X38391500Y-35623879D01*
X38401764Y-35724336D01*
X38455697Y-35887098D01*
X38455702Y-35887109D01*
X38545712Y-36033036D01*
X38545715Y-36033040D01*
X38666959Y-36154284D01*
X38666963Y-36154287D01*
X38812890Y-36244297D01*
X38812893Y-36244298D01*
X38812899Y-36244302D01*
X38975664Y-36298236D01*
X39076128Y-36308500D01*
X39076133Y-36308500D01*
X39923867Y-36308500D01*
X39923872Y-36308500D01*
X40024336Y-36298236D01*
X40187101Y-36244302D01*
X40333040Y-36154285D01*
X40454285Y-36033040D01*
X40544302Y-35887101D01*
X40598236Y-35724336D01*
X40608500Y-35623872D01*
X40608500Y-35508923D01*
X40615448Y-35467999D01*
X40695407Y-35239297D01*
X40786035Y-34980079D01*
X40815402Y-34933328D01*
X42376914Y-33371819D01*
X42438237Y-33338334D01*
X42464595Y-33335500D01*
X46014914Y-33335500D01*
X46037177Y-33337515D01*
X46133066Y-33355015D01*
X46195482Y-33386416D01*
X46231013Y-33446576D01*
X46228378Y-33516396D01*
X46188414Y-33573708D01*
X46123809Y-33600316D01*
X46110803Y-33601000D01*
X45419600Y-33601000D01*
X45415856Y-33600887D01*
X45354087Y-33597150D01*
X45354083Y-33597151D01*
X45293224Y-33608304D01*
X45289522Y-33608867D01*
X45228088Y-33616327D01*
X45228084Y-33616328D01*
X45218648Y-33619906D01*
X45197052Y-33625927D01*
X45187123Y-33627747D01*
X45187118Y-33627748D01*
X45187118Y-33627749D01*
X45169483Y-33635685D01*
X45130693Y-33653143D01*
X45127234Y-33654576D01*
X45069373Y-33676519D01*
X45069370Y-33676521D01*
X45061062Y-33682256D01*
X45041520Y-33693277D01*
X45032325Y-33697416D01*
X45032323Y-33697417D01*
X45032322Y-33697418D01*
X44983616Y-33735575D01*
X44980601Y-33737794D01*
X44929673Y-33772947D01*
X44929671Y-33772950D01*
X44888644Y-33819258D01*
X44886077Y-33821985D01*
X43904382Y-34803681D01*
X43843059Y-34837166D01*
X43816701Y-34840000D01*
X43424445Y-34840000D01*
X43363897Y-34846511D01*
X43363895Y-34846511D01*
X43226895Y-34897611D01*
X43109839Y-34985239D01*
X43022211Y-35102295D01*
X42971111Y-35239295D01*
X42971111Y-35239297D01*
X42964600Y-35299845D01*
X42964600Y-36209954D01*
X42971111Y-36270502D01*
X42971111Y-36270504D01*
X43022211Y-36407504D01*
X43044276Y-36436979D01*
X43068693Y-36502443D01*
X43053842Y-36570716D01*
X43044278Y-36585598D01*
X43029748Y-36605008D01*
X43029745Y-36605013D01*
X42979503Y-36739720D01*
X42979501Y-36739727D01*
X42973100Y-36799255D01*
X42973100Y-37003500D01*
X44474100Y-37003500D01*
X44541139Y-37023185D01*
X44586894Y-37075989D01*
X44598100Y-37127500D01*
X44598100Y-38159900D01*
X45270928Y-38159900D01*
X45270944Y-38159899D01*
X45330472Y-38153498D01*
X45330479Y-38153496D01*
X45465186Y-38103254D01*
X45465188Y-38103252D01*
X45575555Y-38020633D01*
X45641019Y-37996216D01*
X45649866Y-37995900D01*
X48062052Y-37995900D01*
X48129091Y-38015585D01*
X48136363Y-38020633D01*
X48139737Y-38023159D01*
X48139739Y-38023161D01*
X48256796Y-38110789D01*
X48371297Y-38153496D01*
X48388463Y-38159899D01*
X48393799Y-38161889D01*
X48418086Y-38164500D01*
X48454345Y-38168399D01*
X48454362Y-38168400D01*
X48618500Y-38168400D01*
X48685539Y-38188085D01*
X48731294Y-38240889D01*
X48742500Y-38292400D01*
X48742500Y-39257914D01*
X48722815Y-39324953D01*
X48670011Y-39370708D01*
X48600853Y-39380652D01*
X48537297Y-39351627D01*
X48529368Y-39344120D01*
X48512981Y-39327177D01*
X48492127Y-39310709D01*
X48437287Y-39267402D01*
X48276521Y-39140446D01*
X48276517Y-39140443D01*
X48276515Y-39140442D01*
X48017270Y-38986891D01*
X47739872Y-38869264D01*
X47739863Y-38869261D01*
X47449272Y-38789660D01*
X47374616Y-38779620D01*
X47150653Y-38749500D01*
X46924756Y-38749500D01*
X46924748Y-38749500D01*
X46699368Y-38764587D01*
X46699359Y-38764589D01*
X46404094Y-38824604D01*
X46119464Y-38923439D01*
X46119459Y-38923441D01*
X45850546Y-39059328D01*
X45602125Y-39229860D01*
X45378665Y-39431969D01*
X45184132Y-39662064D01*
X45022006Y-39916030D01*
X45022005Y-39916032D01*
X44906842Y-40164205D01*
X44895177Y-40189342D01*
X44895176Y-40189346D01*
X44805907Y-40477118D01*
X44787133Y-40588419D01*
X44755791Y-40774230D01*
X44746249Y-41059654D01*
X44745723Y-41075373D01*
X44775881Y-41375160D01*
X44775882Y-41375162D01*
X44845728Y-41668252D01*
X44845733Y-41668266D01*
X44954020Y-41949427D01*
X44954024Y-41949436D01*
X45098825Y-42213665D01*
X45098829Y-42213671D01*
X45200593Y-42351786D01*
X45277554Y-42456238D01*
X45487020Y-42672824D01*
X45509139Y-42690291D01*
X45723478Y-42859553D01*
X45723480Y-42859554D01*
X45723485Y-42859558D01*
X45982730Y-43013109D01*
X46260128Y-43130736D01*
X46550729Y-43210340D01*
X46849347Y-43250500D01*
X46849351Y-43250500D01*
X47075252Y-43250500D01*
X47239164Y-43239526D01*
X47300634Y-43235412D01*
X47595903Y-43175396D01*
X47880537Y-43076560D01*
X48011404Y-43010430D01*
X48061575Y-42985078D01*
X48130287Y-42972411D01*
X48194939Y-42998904D01*
X48235005Y-43056144D01*
X48241500Y-43095750D01*
X48241500Y-45393601D01*
X48221815Y-45460640D01*
X48169011Y-45506395D01*
X48099853Y-45516339D01*
X48040188Y-45490549D01*
X47988856Y-45449613D01*
X47761643Y-45318432D01*
X47517421Y-45222582D01*
X47517416Y-45222580D01*
X47517411Y-45222578D01*
X47517402Y-45222576D01*
X47299818Y-45172914D01*
X47261630Y-45164198D01*
X47261629Y-45164197D01*
X47261625Y-45164197D01*
X47261620Y-45164196D01*
X47065500Y-45149500D01*
X47065494Y-45149500D01*
X46934506Y-45149500D01*
X46934500Y-45149500D01*
X46738379Y-45164196D01*
X46738374Y-45164197D01*
X46482597Y-45222576D01*
X46482578Y-45222582D01*
X46238363Y-45318429D01*
X46238357Y-45318432D01*
X46195877Y-45342957D01*
X46127977Y-45359427D01*
X46061951Y-45336574D01*
X46022160Y-45289369D01*
X45980232Y-45202303D01*
X45980231Y-45202302D01*
X45980230Y-45202301D01*
X45980228Y-45202296D01*
X45832433Y-44985521D01*
X45742554Y-44888654D01*
X45653985Y-44793198D01*
X45614533Y-44761736D01*
X45448857Y-44629614D01*
X45221643Y-44498432D01*
X44977416Y-44402580D01*
X44977411Y-44402578D01*
X44977402Y-44402576D01*
X44759818Y-44352914D01*
X44721630Y-44344198D01*
X44721629Y-44344197D01*
X44721625Y-44344197D01*
X44721620Y-44344196D01*
X44525500Y-44329500D01*
X44525494Y-44329500D01*
X44394506Y-44329500D01*
X44394500Y-44329500D01*
X44198379Y-44344196D01*
X44198374Y-44344197D01*
X43942585Y-44402579D01*
X43858890Y-44435426D01*
X43789293Y-44441593D01*
X43727410Y-44409155D01*
X43695098Y-44356547D01*
X43676826Y-44297311D01*
X43634063Y-44158677D01*
X43594461Y-44076442D01*
X43520232Y-43922303D01*
X43520231Y-43922302D01*
X43520230Y-43922301D01*
X43520228Y-43922296D01*
X43372433Y-43705521D01*
X43362441Y-43694753D01*
X43193985Y-43513198D01*
X43116445Y-43451362D01*
X42988857Y-43349614D01*
X42761643Y-43218432D01*
X42517416Y-43122580D01*
X42517411Y-43122578D01*
X42517402Y-43122576D01*
X42299818Y-43072914D01*
X42261630Y-43064198D01*
X42261629Y-43064197D01*
X42261625Y-43064197D01*
X42261620Y-43064196D01*
X42065500Y-43049500D01*
X42065494Y-43049500D01*
X41934506Y-43049500D01*
X41934500Y-43049500D01*
X41738379Y-43064196D01*
X41738374Y-43064197D01*
X41482597Y-43122576D01*
X41482578Y-43122582D01*
X41238356Y-43218432D01*
X41011143Y-43349614D01*
X40806014Y-43513198D01*
X40627567Y-43705520D01*
X40592578Y-43756841D01*
X40544952Y-43826694D01*
X40490925Y-43870995D01*
X40421521Y-43879054D01*
X40358779Y-43848311D01*
X40322617Y-43788527D01*
X40318500Y-43756841D01*
X40318500Y-43451362D01*
X40318499Y-43451345D01*
X40315157Y-43420270D01*
X40311989Y-43390799D01*
X40260889Y-43253796D01*
X40173261Y-43136739D01*
X40102921Y-43084083D01*
X40056206Y-43049112D01*
X40056204Y-43049111D01*
X39919201Y-42998011D01*
X39919196Y-42998010D01*
X39919194Y-42998010D01*
X39907012Y-42996700D01*
X39842461Y-42969961D01*
X39828075Y-42956333D01*
X39741237Y-42859784D01*
X39717011Y-42834624D01*
X39598704Y-42748821D01*
X39598699Y-42748818D01*
X39598695Y-42748815D01*
X39597377Y-42748121D01*
X39591523Y-42745038D01*
X39560017Y-42729796D01*
X39560013Y-42729795D01*
X39419296Y-42690291D01*
X39416919Y-42689978D01*
X39416184Y-42689652D01*
X39414961Y-42689402D01*
X39415015Y-42689135D01*
X39353026Y-42661705D01*
X39314560Y-42603376D01*
X39309140Y-42564675D01*
X39309331Y-42554660D01*
X39305265Y-42534289D01*
X39280719Y-42411329D01*
X39277734Y-42402886D01*
X39277729Y-42402873D01*
X39277729Y-42402872D01*
X39256673Y-42352136D01*
X39256671Y-42352132D01*
X39256440Y-42351786D01*
X39256374Y-42351576D01*
X39253796Y-42346760D01*
X39254709Y-42346271D01*
X39235521Y-42285122D01*
X39235500Y-42282832D01*
X39235500Y-40940346D01*
X40295702Y-40940346D01*
X40305819Y-41178528D01*
X40305819Y-41178532D01*
X40356045Y-41411580D01*
X40440877Y-41622689D01*
X40444936Y-41632790D01*
X40569931Y-41835795D01*
X40727436Y-42014755D01*
X40912920Y-42164523D01*
X41121046Y-42280790D01*
X41306375Y-42346271D01*
X41345829Y-42360211D01*
X41580790Y-42400499D01*
X41580798Y-42400499D01*
X41580800Y-42400500D01*
X41580801Y-42400500D01*
X41759502Y-42400500D01*
X41937536Y-42385347D01*
X41937539Y-42385346D01*
X41937541Y-42385346D01*
X42168249Y-42325275D01*
X42311894Y-42260343D01*
X42385480Y-42227080D01*
X42385481Y-42227078D01*
X42385486Y-42227077D01*
X42583003Y-42093579D01*
X42755118Y-41928621D01*
X42896879Y-41736947D01*
X43004207Y-41524074D01*
X43074016Y-41296123D01*
X43104298Y-41059654D01*
X43094180Y-40821468D01*
X43083999Y-40774230D01*
X43043954Y-40588419D01*
X42955064Y-40367211D01*
X42955064Y-40367210D01*
X42830069Y-40164205D01*
X42672564Y-39985245D01*
X42487080Y-39835477D01*
X42373130Y-39771820D01*
X42278955Y-39719210D01*
X42054170Y-39639788D01*
X41819209Y-39599500D01*
X41819200Y-39599500D01*
X41640503Y-39599500D01*
X41640498Y-39599500D01*
X41462463Y-39614652D01*
X41231751Y-39674724D01*
X41014519Y-39772919D01*
X41014511Y-39772924D01*
X40817006Y-39906413D01*
X40816997Y-39906421D01*
X40644881Y-40071379D01*
X40503123Y-40263050D01*
X40503120Y-40263054D01*
X40395796Y-40475920D01*
X40395793Y-40475926D01*
X40325983Y-40703878D01*
X40295702Y-40940346D01*
X39235500Y-40940346D01*
X39235500Y-39954509D01*
X39255185Y-39887470D01*
X39307299Y-39842032D01*
X39785688Y-39620021D01*
X39837887Y-39608500D01*
X39923867Y-39608500D01*
X39923872Y-39608500D01*
X40024336Y-39598236D01*
X40187101Y-39544302D01*
X40333040Y-39454285D01*
X40454285Y-39333040D01*
X40544302Y-39187101D01*
X40598236Y-39024336D01*
X40608500Y-38923872D01*
X40608500Y-38376128D01*
X40598236Y-38275664D01*
X40544302Y-38112899D01*
X40544298Y-38112893D01*
X40544297Y-38112890D01*
X40454287Y-37966963D01*
X40454284Y-37966959D01*
X40333040Y-37845715D01*
X40333036Y-37845712D01*
X40187109Y-37755702D01*
X40187103Y-37755699D01*
X40187101Y-37755698D01*
X40024336Y-37701764D01*
X39923879Y-37691500D01*
X39923872Y-37691500D01*
X39076128Y-37691500D01*
X39076120Y-37691500D01*
X38975663Y-37701764D01*
X38812901Y-37755697D01*
X38812890Y-37755702D01*
X38666963Y-37845712D01*
X38666959Y-37845715D01*
X38545715Y-37966959D01*
X38545712Y-37966963D01*
X38455702Y-38112890D01*
X38455697Y-38112901D01*
X38401764Y-38275663D01*
X38391500Y-38376120D01*
X38391500Y-38491071D01*
X38384552Y-38531995D01*
X38215495Y-39015533D01*
X38188836Y-39059492D01*
X38143573Y-39107693D01*
X38122366Y-39128900D01*
X38122363Y-39128902D01*
X38118008Y-39134516D01*
X38114218Y-39138953D01*
X38081782Y-39173494D01*
X38081781Y-39173496D01*
X38071900Y-39191468D01*
X38061225Y-39207719D01*
X38048652Y-39223929D01*
X38048649Y-39223933D01*
X38029827Y-39267428D01*
X38027257Y-39272674D01*
X38004430Y-39314197D01*
X37999329Y-39334064D01*
X37993030Y-39352462D01*
X37984884Y-39371287D01*
X37984881Y-39371296D01*
X37977469Y-39418098D01*
X37976284Y-39423820D01*
X37964500Y-39469711D01*
X37964500Y-39490225D01*
X37962972Y-39509624D01*
X37959765Y-39529879D01*
X37962593Y-39559795D01*
X37964225Y-39577059D01*
X37964500Y-39582897D01*
X37964500Y-42260343D01*
X37944815Y-42327382D01*
X37935108Y-42340501D01*
X37719108Y-42595439D01*
X37660753Y-42633863D01*
X37590887Y-42634638D01*
X37531694Y-42597518D01*
X37501965Y-42534289D01*
X37500500Y-42515281D01*
X37500500Y-37428133D01*
X41025668Y-37428133D01*
X41041058Y-37515410D01*
X41056135Y-37600911D01*
X41125623Y-37762004D01*
X41125624Y-37762006D01*
X41125626Y-37762009D01*
X41229836Y-37901986D01*
X41230390Y-37902730D01*
X41364786Y-38015502D01*
X41442488Y-38054525D01*
X41521562Y-38094238D01*
X41521563Y-38094238D01*
X41521567Y-38094240D01*
X41692279Y-38134700D01*
X41692282Y-38134700D01*
X41823701Y-38134700D01*
X41823709Y-38134700D01*
X41954255Y-38119441D01*
X42119117Y-38059437D01*
X42265696Y-37963030D01*
X42386092Y-37835418D01*
X42473812Y-37683481D01*
X42524130Y-37515410D01*
X42524824Y-37503500D01*
X42973100Y-37503500D01*
X42973100Y-37707744D01*
X42979501Y-37767272D01*
X42979503Y-37767279D01*
X43029745Y-37901986D01*
X43029749Y-37901993D01*
X43115909Y-38017087D01*
X43115912Y-38017090D01*
X43231006Y-38103250D01*
X43231013Y-38103254D01*
X43365720Y-38153496D01*
X43365727Y-38153498D01*
X43425255Y-38159899D01*
X43425272Y-38159900D01*
X44098100Y-38159900D01*
X44098100Y-37503500D01*
X42973100Y-37503500D01*
X42524824Y-37503500D01*
X42534331Y-37340265D01*
X42503865Y-37167489D01*
X42434377Y-37006396D01*
X42329610Y-36865670D01*
X42257747Y-36805370D01*
X42195214Y-36752898D01*
X42195212Y-36752897D01*
X42038437Y-36674161D01*
X42028319Y-36671763D01*
X41867721Y-36633700D01*
X41736291Y-36633700D01*
X41631854Y-36645907D01*
X41605743Y-36648959D01*
X41605740Y-36648960D01*
X41440884Y-36708962D01*
X41440880Y-36708964D01*
X41294306Y-36805367D01*
X41294305Y-36805368D01*
X41173910Y-36932978D01*
X41086188Y-37084918D01*
X41035870Y-37252989D01*
X41035869Y-37252994D01*
X41025668Y-37428133D01*
X37500500Y-37428133D01*
X37500500Y-31124500D01*
X37520185Y-31057461D01*
X37572989Y-31011706D01*
X37624500Y-31000500D01*
X40275240Y-31000500D01*
X40275383Y-31000528D01*
X40275384Y-31000524D01*
X40299997Y-31000539D01*
X40300000Y-31000541D01*
X40300383Y-31000383D01*
X40300500Y-31000099D01*
X40300541Y-31000000D01*
X40300540Y-30999997D01*
X40300583Y-30975889D01*
X40300500Y-30975467D01*
X40300500Y-25124500D01*
X40320185Y-25057461D01*
X40372989Y-25011706D01*
X40424500Y-25000500D01*
X53575500Y-25000500D01*
X53642539Y-25020185D01*
G37*
G04 #@! TD.AperFunction*
G04 #@! TA.AperFunction,Conductor*
G36*
X38594539Y-103628185D02*
G01*
X38640294Y-103680989D01*
X38651500Y-103732500D01*
X38651500Y-105313654D01*
X38658011Y-105374202D01*
X38658011Y-105374204D01*
X38698057Y-105481567D01*
X38709111Y-105511204D01*
X38796739Y-105628261D01*
X38913796Y-105715889D01*
X39050799Y-105766989D01*
X39078050Y-105769918D01*
X39111345Y-105773499D01*
X39111362Y-105773500D01*
X42708638Y-105773500D01*
X42708654Y-105773499D01*
X42735692Y-105770591D01*
X42769201Y-105766989D01*
X42906204Y-105715889D01*
X43023261Y-105628261D01*
X43110889Y-105511204D01*
X43161989Y-105374201D01*
X43165591Y-105340692D01*
X43168499Y-105313654D01*
X43168500Y-105313637D01*
X43168500Y-104546524D01*
X43188185Y-104479485D01*
X43240989Y-104433730D01*
X43310147Y-104423786D01*
X43369810Y-104449575D01*
X43471143Y-104530386D01*
X43698357Y-104661568D01*
X43942584Y-104757420D01*
X44198370Y-104815802D01*
X44198376Y-104815802D01*
X44198379Y-104815803D01*
X44394500Y-104830500D01*
X44394506Y-104830500D01*
X44525500Y-104830500D01*
X44721620Y-104815803D01*
X44721622Y-104815802D01*
X44721630Y-104815802D01*
X44977416Y-104757420D01*
X45221643Y-104661568D01*
X45221646Y-104661566D01*
X45221647Y-104661566D01*
X45264118Y-104637045D01*
X45332018Y-104620571D01*
X45398045Y-104643423D01*
X45437839Y-104690630D01*
X45479767Y-104777695D01*
X45479768Y-104777697D01*
X45479770Y-104777700D01*
X45479772Y-104777704D01*
X45505747Y-104815802D01*
X45627567Y-104994479D01*
X45806014Y-105186801D01*
X45806018Y-105186804D01*
X45806019Y-105186805D01*
X46011143Y-105350386D01*
X46238357Y-105481568D01*
X46482584Y-105577420D01*
X46738370Y-105635802D01*
X46738376Y-105635802D01*
X46738379Y-105635803D01*
X46934500Y-105650500D01*
X46934506Y-105650500D01*
X47065500Y-105650500D01*
X47261620Y-105635803D01*
X47261622Y-105635802D01*
X47261630Y-105635802D01*
X47517416Y-105577420D01*
X47761643Y-105481568D01*
X47988857Y-105350386D01*
X48040188Y-105309450D01*
X48104873Y-105283043D01*
X48173569Y-105295798D01*
X48224463Y-105343669D01*
X48241500Y-105406398D01*
X48241500Y-106505005D01*
X48221815Y-106572044D01*
X48205181Y-106592686D01*
X43994186Y-110803681D01*
X43932863Y-110837166D01*
X43906505Y-110840000D01*
X43424445Y-110840000D01*
X43363897Y-110846511D01*
X43363895Y-110846511D01*
X43226895Y-110897611D01*
X43109839Y-110985239D01*
X43022211Y-111102295D01*
X42971111Y-111239295D01*
X42971111Y-111239297D01*
X42964600Y-111299845D01*
X42964600Y-112209954D01*
X42971111Y-112270502D01*
X42971111Y-112270504D01*
X43022210Y-112407500D01*
X43022212Y-112407506D01*
X43038970Y-112429892D01*
X43063385Y-112495356D01*
X43048532Y-112563629D01*
X43038970Y-112578508D01*
X43022212Y-112600893D01*
X43022210Y-112600899D01*
X42971111Y-112737895D01*
X42971111Y-112737897D01*
X42964600Y-112798445D01*
X42964600Y-113708554D01*
X42971111Y-113769102D01*
X42971111Y-113769104D01*
X43019532Y-113898921D01*
X43022211Y-113906104D01*
X43109839Y-114023161D01*
X43226896Y-114110789D01*
X43363899Y-114161889D01*
X43391150Y-114164818D01*
X43424445Y-114168399D01*
X43424462Y-114168400D01*
X45271738Y-114168400D01*
X45271754Y-114168399D01*
X45298792Y-114165491D01*
X45332301Y-114161889D01*
X45469304Y-114110789D01*
X45586361Y-114023161D01*
X45586362Y-114023159D01*
X45589737Y-114020633D01*
X45655201Y-113996216D01*
X45664048Y-113995900D01*
X48062052Y-113995900D01*
X48129091Y-114015585D01*
X48136363Y-114020633D01*
X48139737Y-114023159D01*
X48139739Y-114023161D01*
X48256796Y-114110789D01*
X48393799Y-114161889D01*
X48421050Y-114164818D01*
X48454345Y-114168399D01*
X48454362Y-114168400D01*
X50301638Y-114168400D01*
X50301654Y-114168399D01*
X50328692Y-114165491D01*
X50362201Y-114161889D01*
X50499204Y-114110789D01*
X50616261Y-114023161D01*
X50656819Y-113968980D01*
X50709844Y-113929285D01*
X50709640Y-113928831D01*
X50711675Y-113927914D01*
X50712752Y-113927109D01*
X50715721Y-113926093D01*
X50716479Y-113925751D01*
X50716483Y-113925751D01*
X50772925Y-113900347D01*
X50776338Y-113898933D01*
X50834227Y-113876980D01*
X50842533Y-113871245D01*
X50862078Y-113860222D01*
X50871275Y-113856084D01*
X50919999Y-113817910D01*
X50922991Y-113815709D01*
X50973927Y-113780552D01*
X51014987Y-113734203D01*
X51017506Y-113731528D01*
X51275537Y-113473497D01*
X51336858Y-113440014D01*
X51406550Y-113444998D01*
X51462483Y-113486870D01*
X51485332Y-113539647D01*
X51496135Y-113600911D01*
X51565623Y-113762004D01*
X51565624Y-113762006D01*
X51565626Y-113762009D01*
X51667554Y-113898921D01*
X51670390Y-113902730D01*
X51804786Y-114015502D01*
X51882488Y-114054525D01*
X51961562Y-114094238D01*
X51961563Y-114094238D01*
X51961567Y-114094240D01*
X52132279Y-114134700D01*
X52132282Y-114134700D01*
X52263701Y-114134700D01*
X52263709Y-114134700D01*
X52394255Y-114119441D01*
X52559117Y-114059437D01*
X52705696Y-113963030D01*
X52826092Y-113835418D01*
X52913812Y-113683481D01*
X52964130Y-113515410D01*
X52974331Y-113340265D01*
X52943865Y-113167489D01*
X52874377Y-113006396D01*
X52769610Y-112865670D01*
X52697747Y-112805370D01*
X52635214Y-112752898D01*
X52635212Y-112752897D01*
X52478433Y-112674159D01*
X52368380Y-112648076D01*
X52307687Y-112613462D01*
X52275344Y-112551529D01*
X52281617Y-112481942D01*
X52309294Y-112439740D01*
X53015083Y-111733951D01*
X53041645Y-111713743D01*
X53066885Y-111699446D01*
X53134918Y-111683532D01*
X53200755Y-111706926D01*
X53243493Y-111762201D01*
X53252000Y-111807339D01*
X53252000Y-115716299D01*
X53232315Y-115783338D01*
X53179511Y-115829093D01*
X53110353Y-115839037D01*
X53067526Y-115824553D01*
X52878957Y-115719211D01*
X52654170Y-115639788D01*
X52419209Y-115599500D01*
X52419200Y-115599500D01*
X52240503Y-115599500D01*
X52240498Y-115599500D01*
X52062463Y-115614652D01*
X51831751Y-115674724D01*
X51614519Y-115772919D01*
X51614511Y-115772924D01*
X51417006Y-115906413D01*
X51416997Y-115906421D01*
X51244881Y-116071379D01*
X51103123Y-116263050D01*
X51103120Y-116263054D01*
X50995796Y-116475920D01*
X50995793Y-116475926D01*
X50925983Y-116703878D01*
X50895702Y-116940346D01*
X50905819Y-117178528D01*
X50905819Y-117178532D01*
X50956046Y-117411582D01*
X50956046Y-117411583D01*
X51040876Y-117622689D01*
X51047607Y-117692233D01*
X51015671Y-117754377D01*
X50955207Y-117789390D01*
X50916552Y-117792576D01*
X50875500Y-117789500D01*
X50875494Y-117789500D01*
X50744506Y-117789500D01*
X50744500Y-117789500D01*
X50548379Y-117804196D01*
X50548374Y-117804197D01*
X50292597Y-117862576D01*
X50292578Y-117862582D01*
X50048356Y-117958432D01*
X49821143Y-118089614D01*
X49616014Y-118253198D01*
X49437567Y-118445520D01*
X49289768Y-118662302D01*
X49289767Y-118662303D01*
X49175938Y-118898673D01*
X49098606Y-119149376D01*
X49098605Y-119149381D01*
X49098604Y-119149385D01*
X49088197Y-119218432D01*
X49059500Y-119408812D01*
X49059500Y-119671187D01*
X49072411Y-119756841D01*
X49098604Y-119930615D01*
X49098605Y-119930617D01*
X49098606Y-119930623D01*
X49175938Y-120181326D01*
X49289767Y-120417696D01*
X49289768Y-120417697D01*
X49289770Y-120417700D01*
X49289772Y-120417704D01*
X49338126Y-120488626D01*
X49437567Y-120634479D01*
X49616014Y-120826801D01*
X49616018Y-120826804D01*
X49616019Y-120826805D01*
X49670878Y-120870554D01*
X49711018Y-120927741D01*
X49713868Y-120997553D01*
X49678523Y-121057823D01*
X49616204Y-121089416D01*
X49593565Y-121091500D01*
X49361345Y-121091500D01*
X49300797Y-121098011D01*
X49300795Y-121098011D01*
X49163795Y-121149111D01*
X49046739Y-121236739D01*
X48959111Y-121353795D01*
X48908011Y-121490795D01*
X48908011Y-121490797D01*
X48901500Y-121551345D01*
X48901500Y-122303001D01*
X48881815Y-122370040D01*
X48829011Y-122415795D01*
X48759853Y-122425739D01*
X48696297Y-122396714D01*
X48659009Y-122339551D01*
X48647735Y-122303001D01*
X48634063Y-122258677D01*
X48581071Y-122148638D01*
X48520232Y-122022303D01*
X48520231Y-122022302D01*
X48520230Y-122022301D01*
X48520228Y-122022296D01*
X48372433Y-121805521D01*
X48362441Y-121794753D01*
X48193985Y-121613198D01*
X48116445Y-121551362D01*
X47988857Y-121449614D01*
X47761643Y-121318432D01*
X47517416Y-121222580D01*
X47517411Y-121222578D01*
X47517402Y-121222576D01*
X47299818Y-121172914D01*
X47261630Y-121164198D01*
X47261629Y-121164197D01*
X47261625Y-121164197D01*
X47261620Y-121164196D01*
X47065500Y-121149500D01*
X47065494Y-121149500D01*
X46934506Y-121149500D01*
X46934500Y-121149500D01*
X46738379Y-121164196D01*
X46738374Y-121164197D01*
X46482597Y-121222576D01*
X46482578Y-121222582D01*
X46238363Y-121318429D01*
X46238357Y-121318432D01*
X46195877Y-121342957D01*
X46127977Y-121359427D01*
X46061951Y-121336574D01*
X46022160Y-121289369D01*
X45980232Y-121202303D01*
X45980231Y-121202302D01*
X45980230Y-121202301D01*
X45980228Y-121202296D01*
X45832433Y-120985521D01*
X45742554Y-120888654D01*
X45653985Y-120793198D01*
X45614533Y-120761736D01*
X45448857Y-120629614D01*
X45221643Y-120498432D01*
X44977416Y-120402580D01*
X44977411Y-120402578D01*
X44977402Y-120402576D01*
X44759818Y-120352914D01*
X44721630Y-120344198D01*
X44721629Y-120344197D01*
X44721625Y-120344197D01*
X44721620Y-120344196D01*
X44525500Y-120329500D01*
X44525494Y-120329500D01*
X44394506Y-120329500D01*
X44394500Y-120329500D01*
X44198379Y-120344196D01*
X44198374Y-120344197D01*
X43942585Y-120402579D01*
X43858890Y-120435426D01*
X43789293Y-120441593D01*
X43727410Y-120409155D01*
X43695098Y-120356547D01*
X43641048Y-120181323D01*
X43634063Y-120158677D01*
X43622121Y-120133880D01*
X43520232Y-119922303D01*
X43520231Y-119922302D01*
X43520230Y-119922301D01*
X43520228Y-119922296D01*
X43372433Y-119705521D01*
X43340571Y-119671182D01*
X43193985Y-119513198D01*
X43116445Y-119451362D01*
X42988857Y-119349614D01*
X42761643Y-119218432D01*
X42517416Y-119122580D01*
X42517411Y-119122578D01*
X42517402Y-119122576D01*
X42299818Y-119072914D01*
X42261630Y-119064198D01*
X42261629Y-119064197D01*
X42261625Y-119064197D01*
X42261620Y-119064196D01*
X42065500Y-119049500D01*
X42065494Y-119049500D01*
X41934506Y-119049500D01*
X41934500Y-119049500D01*
X41738379Y-119064196D01*
X41738374Y-119064197D01*
X41482597Y-119122576D01*
X41482578Y-119122582D01*
X41238356Y-119218432D01*
X41011143Y-119349614D01*
X40806014Y-119513198D01*
X40627567Y-119705520D01*
X40592578Y-119756841D01*
X40544952Y-119826694D01*
X40490925Y-119870995D01*
X40421521Y-119879054D01*
X40358779Y-119848311D01*
X40322617Y-119788527D01*
X40318500Y-119756841D01*
X40318500Y-119451362D01*
X40318499Y-119451345D01*
X40313926Y-119408818D01*
X40311989Y-119390799D01*
X40260889Y-119253796D01*
X40173261Y-119136739D01*
X40102921Y-119084083D01*
X40056206Y-119049112D01*
X40056204Y-119049111D01*
X39925207Y-119000251D01*
X39875133Y-118965621D01*
X39530895Y-118571304D01*
X39326088Y-118336702D01*
X39296828Y-118273254D01*
X39295500Y-118255153D01*
X39295500Y-116940346D01*
X40295702Y-116940346D01*
X40305819Y-117178528D01*
X40305819Y-117178532D01*
X40356045Y-117411580D01*
X40440877Y-117622689D01*
X40444936Y-117632790D01*
X40569931Y-117835795D01*
X40727436Y-118014755D01*
X40912920Y-118164523D01*
X41121046Y-118280790D01*
X41238225Y-118322192D01*
X41345829Y-118360211D01*
X41580790Y-118400499D01*
X41580798Y-118400499D01*
X41580800Y-118400500D01*
X41580801Y-118400500D01*
X41759502Y-118400500D01*
X41937536Y-118385347D01*
X41937539Y-118385346D01*
X41937541Y-118385346D01*
X42168249Y-118325275D01*
X42327707Y-118253195D01*
X42385480Y-118227080D01*
X42385481Y-118227078D01*
X42385486Y-118227077D01*
X42583003Y-118093579D01*
X42755118Y-117928621D01*
X42896879Y-117736947D01*
X43004207Y-117524074D01*
X43074016Y-117296123D01*
X43102285Y-117075373D01*
X44745723Y-117075373D01*
X44775881Y-117375160D01*
X44775882Y-117375162D01*
X44845728Y-117668252D01*
X44845733Y-117668266D01*
X44954020Y-117949427D01*
X44954024Y-117949436D01*
X45098825Y-118213665D01*
X45098829Y-118213671D01*
X45206801Y-118360211D01*
X45277554Y-118456238D01*
X45277561Y-118456245D01*
X45487019Y-118672823D01*
X45723478Y-118859553D01*
X45723480Y-118859554D01*
X45723485Y-118859558D01*
X45982730Y-119013109D01*
X46260128Y-119130736D01*
X46550729Y-119210340D01*
X46849347Y-119250500D01*
X46849351Y-119250500D01*
X47075252Y-119250500D01*
X47239164Y-119239526D01*
X47300634Y-119235412D01*
X47595903Y-119175396D01*
X47880537Y-119076560D01*
X48149459Y-118940668D01*
X48397869Y-118770144D01*
X48621333Y-118568032D01*
X48815865Y-118337939D01*
X48977993Y-118083970D01*
X49104823Y-117810658D01*
X49194093Y-117522879D01*
X49244209Y-117225770D01*
X49254277Y-116924631D01*
X49224118Y-116624838D01*
X49154269Y-116331739D01*
X49045977Y-116050566D01*
X48901175Y-115786335D01*
X48722446Y-115543762D01*
X48512980Y-115327176D01*
X48492866Y-115311292D01*
X48276521Y-115140446D01*
X48276517Y-115140443D01*
X48276515Y-115140442D01*
X48017270Y-114986891D01*
X47739872Y-114869264D01*
X47739863Y-114869261D01*
X47449272Y-114789660D01*
X47374616Y-114779620D01*
X47150653Y-114749500D01*
X46924756Y-114749500D01*
X46924748Y-114749500D01*
X46699368Y-114764587D01*
X46699359Y-114764589D01*
X46404094Y-114824604D01*
X46119464Y-114923439D01*
X46119459Y-114923441D01*
X45850546Y-115059328D01*
X45602125Y-115229860D01*
X45378665Y-115431969D01*
X45184132Y-115662064D01*
X45022006Y-115916030D01*
X45022005Y-115916032D01*
X44906842Y-116164205D01*
X44895177Y-116189342D01*
X44895176Y-116189346D01*
X44805907Y-116477118D01*
X44787133Y-116588419D01*
X44755791Y-116774230D01*
X44746249Y-117059654D01*
X44745723Y-117075373D01*
X43102285Y-117075373D01*
X43104298Y-117059654D01*
X43094180Y-116821468D01*
X43083999Y-116774230D01*
X43043954Y-116588419D01*
X42955064Y-116367211D01*
X42955064Y-116367210D01*
X42830069Y-116164205D01*
X42672564Y-115985245D01*
X42487080Y-115835477D01*
X42373130Y-115771820D01*
X42278955Y-115719210D01*
X42054170Y-115639788D01*
X41819209Y-115599500D01*
X41819200Y-115599500D01*
X41640503Y-115599500D01*
X41640498Y-115599500D01*
X41462463Y-115614652D01*
X41231751Y-115674724D01*
X41014519Y-115772919D01*
X41014511Y-115772924D01*
X40817006Y-115906413D01*
X40816997Y-115906421D01*
X40644881Y-116071379D01*
X40503123Y-116263050D01*
X40503120Y-116263054D01*
X40395796Y-116475920D01*
X40395793Y-116475926D01*
X40325983Y-116703878D01*
X40295702Y-116940346D01*
X39295500Y-116940346D01*
X39295500Y-115926664D01*
X39315185Y-115859625D01*
X39367299Y-115814187D01*
X39785688Y-115620021D01*
X39837887Y-115608500D01*
X39923867Y-115608500D01*
X39923872Y-115608500D01*
X40024336Y-115598236D01*
X40187101Y-115544302D01*
X40333040Y-115454285D01*
X40454285Y-115333040D01*
X40544302Y-115187101D01*
X40598236Y-115024336D01*
X40608500Y-114923872D01*
X40608500Y-114376128D01*
X40598236Y-114275664D01*
X40544302Y-114112899D01*
X40544298Y-114112893D01*
X40544297Y-114112890D01*
X40454287Y-113966963D01*
X40454284Y-113966959D01*
X40333040Y-113845715D01*
X40333036Y-113845712D01*
X40187109Y-113755702D01*
X40187103Y-113755699D01*
X40187101Y-113755698D01*
X40024336Y-113701764D01*
X39923879Y-113691500D01*
X39923872Y-113691500D01*
X39076128Y-113691500D01*
X39076120Y-113691500D01*
X38975663Y-113701764D01*
X38812901Y-113755697D01*
X38812890Y-113755702D01*
X38666963Y-113845712D01*
X38666959Y-113845715D01*
X38545715Y-113966959D01*
X38545712Y-113966963D01*
X38455702Y-114112890D01*
X38455697Y-114112901D01*
X38401764Y-114275663D01*
X38391500Y-114376120D01*
X38391500Y-114491071D01*
X38384552Y-114531995D01*
X38213963Y-115019916D01*
X38184601Y-115066664D01*
X38182363Y-115068902D01*
X38178008Y-115074516D01*
X38174218Y-115078953D01*
X38141782Y-115113494D01*
X38141781Y-115113496D01*
X38131900Y-115131468D01*
X38121225Y-115147719D01*
X38108652Y-115163929D01*
X38108649Y-115163933D01*
X38089827Y-115207428D01*
X38087257Y-115212674D01*
X38064430Y-115254197D01*
X38059329Y-115274064D01*
X38053030Y-115292462D01*
X38044884Y-115311287D01*
X38044881Y-115311296D01*
X38037469Y-115358098D01*
X38036284Y-115363820D01*
X38024500Y-115409711D01*
X38024500Y-115430225D01*
X38022973Y-115449624D01*
X38019765Y-115469877D01*
X38024225Y-115517059D01*
X38024500Y-115522897D01*
X38024500Y-118255153D01*
X38004815Y-118322192D01*
X37993912Y-118336702D01*
X37717912Y-118652853D01*
X37658995Y-118690410D01*
X37589125Y-118690151D01*
X37530487Y-118652160D01*
X37501698Y-118588497D01*
X37500500Y-118571304D01*
X37500500Y-113428133D01*
X41025668Y-113428133D01*
X41041058Y-113515410D01*
X41056135Y-113600911D01*
X41125623Y-113762004D01*
X41125624Y-113762006D01*
X41125626Y-113762009D01*
X41227554Y-113898921D01*
X41230390Y-113902730D01*
X41364786Y-114015502D01*
X41442488Y-114054525D01*
X41521562Y-114094238D01*
X41521563Y-114094238D01*
X41521567Y-114094240D01*
X41692279Y-114134700D01*
X41692282Y-114134700D01*
X41823701Y-114134700D01*
X41823709Y-114134700D01*
X41954255Y-114119441D01*
X42119117Y-114059437D01*
X42265696Y-113963030D01*
X42386092Y-113835418D01*
X42473812Y-113683481D01*
X42524130Y-113515410D01*
X42534331Y-113340265D01*
X42503865Y-113167489D01*
X42434377Y-113006396D01*
X42329610Y-112865670D01*
X42257747Y-112805370D01*
X42195214Y-112752898D01*
X42195212Y-112752897D01*
X42038437Y-112674161D01*
X42038429Y-112674159D01*
X41867721Y-112633700D01*
X41736291Y-112633700D01*
X41631854Y-112645907D01*
X41605743Y-112648959D01*
X41605740Y-112648960D01*
X41440884Y-112708962D01*
X41440880Y-112708964D01*
X41294306Y-112805367D01*
X41294305Y-112805368D01*
X41173910Y-112932978D01*
X41086188Y-113084918D01*
X41035870Y-113252989D01*
X41035869Y-113252994D01*
X41025668Y-113428133D01*
X37500500Y-113428133D01*
X37500500Y-111623879D01*
X38391500Y-111623879D01*
X38401764Y-111724336D01*
X38455697Y-111887098D01*
X38455702Y-111887109D01*
X38545712Y-112033036D01*
X38545715Y-112033040D01*
X38666959Y-112154284D01*
X38666963Y-112154287D01*
X38812890Y-112244297D01*
X38812893Y-112244298D01*
X38812899Y-112244302D01*
X38975664Y-112298236D01*
X39076128Y-112308500D01*
X39076133Y-112308500D01*
X39923867Y-112308500D01*
X39923872Y-112308500D01*
X40024336Y-112298236D01*
X40187101Y-112244302D01*
X40333040Y-112154285D01*
X40454285Y-112033040D01*
X40544302Y-111887101D01*
X40598236Y-111724336D01*
X40608500Y-111623872D01*
X40608500Y-111076128D01*
X40598236Y-110975664D01*
X40544302Y-110812899D01*
X40544298Y-110812893D01*
X40544297Y-110812890D01*
X40454287Y-110666963D01*
X40454286Y-110666962D01*
X40454285Y-110666960D01*
X40333040Y-110545715D01*
X40333039Y-110545714D01*
X40333038Y-110545713D01*
X40330042Y-110543865D01*
X40293309Y-110509080D01*
X40157664Y-110313835D01*
X40135580Y-110247547D01*
X40135500Y-110243085D01*
X40135500Y-109585094D01*
X40137515Y-109562833D01*
X40140811Y-109544769D01*
X40186780Y-109292877D01*
X40192824Y-109271172D01*
X40192965Y-109270801D01*
X40197025Y-109237355D01*
X40197580Y-109233703D01*
X40204673Y-109194841D01*
X40207742Y-109172519D01*
X40208976Y-109159263D01*
X40208902Y-109143588D01*
X40209354Y-109135818D01*
X40213704Y-109100000D01*
X40192965Y-108929199D01*
X40131954Y-108768325D01*
X40034215Y-108626727D01*
X40034213Y-108626725D01*
X40034210Y-108626722D01*
X39905432Y-108512634D01*
X39753079Y-108432673D01*
X39586028Y-108391500D01*
X39413972Y-108391500D01*
X39246920Y-108432673D01*
X39094567Y-108512634D01*
X38965789Y-108626722D01*
X38965786Y-108626725D01*
X38868045Y-108768326D01*
X38807034Y-108929198D01*
X38786296Y-109099999D01*
X38786296Y-109100001D01*
X38796221Y-109181751D01*
X38796629Y-109186885D01*
X38797348Y-109205915D01*
X38802417Y-109233693D01*
X38802972Y-109237347D01*
X38807033Y-109270795D01*
X38807034Y-109270799D01*
X38807035Y-109270801D01*
X38807180Y-109271184D01*
X38813218Y-109292877D01*
X38862485Y-109562827D01*
X38864500Y-109585090D01*
X38864500Y-110243087D01*
X38844815Y-110310126D01*
X38842335Y-110313837D01*
X38706688Y-110509082D01*
X38669958Y-110543865D01*
X38666966Y-110545710D01*
X38666957Y-110545717D01*
X38545715Y-110666959D01*
X38545712Y-110666963D01*
X38455702Y-110812890D01*
X38455697Y-110812901D01*
X38401764Y-110975663D01*
X38391500Y-111076120D01*
X38391500Y-111623879D01*
X37500500Y-111623879D01*
X37500500Y-103732500D01*
X37520185Y-103665461D01*
X37572989Y-103619706D01*
X37624500Y-103608500D01*
X38527500Y-103608500D01*
X38594539Y-103628185D01*
G37*
G04 #@! TD.AperFunction*
G04 #@! TA.AperFunction,Conductor*
G36*
X53064457Y-102828853D02*
G01*
X53070805Y-102835511D01*
X53220857Y-103005057D01*
X53250546Y-103068305D01*
X53252000Y-103087237D01*
X53252000Y-108167500D01*
X53232315Y-108234539D01*
X53179511Y-108280294D01*
X53128000Y-108291500D01*
X53065013Y-108291500D01*
X52878214Y-108331205D01*
X52703746Y-108408883D01*
X52549245Y-108521135D01*
X52421458Y-108663057D01*
X52421456Y-108663060D01*
X52347884Y-108790490D01*
X52343239Y-108797415D01*
X52339066Y-108802812D01*
X52339065Y-108802815D01*
X52046749Y-109318861D01*
X52026537Y-109345426D01*
X50537453Y-110834510D01*
X50476130Y-110867995D01*
X50406439Y-110863011D01*
X50362198Y-110846510D01*
X50362199Y-110846510D01*
X50301654Y-110840000D01*
X50301638Y-110840000D01*
X50250128Y-110840000D01*
X50243906Y-110839687D01*
X50232725Y-110838560D01*
X50232722Y-110838560D01*
X50232721Y-110838560D01*
X50223776Y-110838939D01*
X50223767Y-110838939D01*
X50223763Y-110838940D01*
X50223765Y-110838940D01*
X50215724Y-110839714D01*
X50209777Y-110840000D01*
X48454345Y-110840000D01*
X48393797Y-110846511D01*
X48393795Y-110846511D01*
X48256795Y-110897611D01*
X48207145Y-110934779D01*
X48142238Y-110983367D01*
X48076777Y-111007784D01*
X48067930Y-111008100D01*
X45886594Y-111008100D01*
X45819555Y-110988415D01*
X45773800Y-110935611D01*
X45763856Y-110866453D01*
X45792881Y-110802897D01*
X45798913Y-110796419D01*
X47495334Y-109099998D01*
X49267075Y-107328256D01*
X49279458Y-107318338D01*
X49279286Y-107318130D01*
X49285292Y-107313159D01*
X49285303Y-107313153D01*
X49333426Y-107261906D01*
X49354639Y-107240694D01*
X49358993Y-107235079D01*
X49362768Y-107230658D01*
X49395217Y-107196106D01*
X49405094Y-107178137D01*
X49415779Y-107161872D01*
X49428350Y-107145667D01*
X49447183Y-107102143D01*
X49449732Y-107096941D01*
X49472569Y-107055403D01*
X49477670Y-107035530D01*
X49483969Y-107017134D01*
X49492117Y-106998308D01*
X49496995Y-106967503D01*
X49499530Y-106951502D01*
X49500715Y-106945778D01*
X49501137Y-106944131D01*
X49512500Y-106899882D01*
X49512500Y-106879374D01*
X49514027Y-106859974D01*
X49517235Y-106839721D01*
X49512775Y-106792539D01*
X49512500Y-106786701D01*
X49512500Y-105832500D01*
X49532185Y-105765461D01*
X49584989Y-105719706D01*
X49636500Y-105708500D01*
X51758638Y-105708500D01*
X51758654Y-105708499D01*
X51785692Y-105705591D01*
X51819201Y-105701989D01*
X51956204Y-105650889D01*
X52073261Y-105563261D01*
X52160889Y-105446204D01*
X52210334Y-105313638D01*
X52211988Y-105309204D01*
X52211988Y-105309203D01*
X52211989Y-105309201D01*
X52215591Y-105275692D01*
X52218499Y-105248654D01*
X52218500Y-105248637D01*
X52218500Y-104297522D01*
X52227064Y-104252240D01*
X52751417Y-102915532D01*
X52794221Y-102860315D01*
X52821965Y-102845228D01*
X52933078Y-102802094D01*
X53002694Y-102796185D01*
X53064457Y-102828853D01*
G37*
G04 #@! TD.AperFunction*
G04 #@! TA.AperFunction,Conductor*
G36*
X38594539Y-84628185D02*
G01*
X38640294Y-84680989D01*
X38651500Y-84732500D01*
X38651500Y-86313654D01*
X38658011Y-86374202D01*
X38658011Y-86374204D01*
X38698057Y-86481567D01*
X38709111Y-86511204D01*
X38796739Y-86628261D01*
X38913796Y-86715889D01*
X39050799Y-86766989D01*
X39078050Y-86769918D01*
X39111345Y-86773499D01*
X39111362Y-86773500D01*
X42708638Y-86773500D01*
X42708654Y-86773499D01*
X42735692Y-86770591D01*
X42769201Y-86766989D01*
X42906204Y-86715889D01*
X43023261Y-86628261D01*
X43110889Y-86511204D01*
X43161989Y-86374201D01*
X43165591Y-86340692D01*
X43168499Y-86313654D01*
X43168500Y-86313637D01*
X43168500Y-85546524D01*
X43188185Y-85479485D01*
X43240989Y-85433730D01*
X43310147Y-85423786D01*
X43369810Y-85449575D01*
X43471143Y-85530386D01*
X43698357Y-85661568D01*
X43942584Y-85757420D01*
X44198370Y-85815802D01*
X44198376Y-85815802D01*
X44198379Y-85815803D01*
X44394500Y-85830500D01*
X44394506Y-85830500D01*
X44525500Y-85830500D01*
X44721620Y-85815803D01*
X44721622Y-85815802D01*
X44721630Y-85815802D01*
X44977416Y-85757420D01*
X45221643Y-85661568D01*
X45221646Y-85661566D01*
X45221647Y-85661566D01*
X45264118Y-85637045D01*
X45332018Y-85620571D01*
X45398045Y-85643423D01*
X45437839Y-85690630D01*
X45479767Y-85777695D01*
X45479768Y-85777697D01*
X45479770Y-85777700D01*
X45479772Y-85777704D01*
X45505747Y-85815802D01*
X45627567Y-85994479D01*
X45806014Y-86186801D01*
X45806018Y-86186804D01*
X45806019Y-86186805D01*
X46011143Y-86350386D01*
X46238357Y-86481568D01*
X46482584Y-86577420D01*
X46738370Y-86635802D01*
X46738376Y-86635802D01*
X46738379Y-86635803D01*
X46934500Y-86650500D01*
X46934506Y-86650500D01*
X47065500Y-86650500D01*
X47261620Y-86635803D01*
X47261622Y-86635802D01*
X47261630Y-86635802D01*
X47517416Y-86577420D01*
X47761643Y-86481568D01*
X47988857Y-86350386D01*
X48040188Y-86309450D01*
X48104873Y-86283043D01*
X48173569Y-86295798D01*
X48224463Y-86343669D01*
X48241500Y-86406398D01*
X48241500Y-87505005D01*
X48221815Y-87572044D01*
X48205181Y-87592686D01*
X43994186Y-91803681D01*
X43932863Y-91837166D01*
X43906505Y-91840000D01*
X43424445Y-91840000D01*
X43363897Y-91846511D01*
X43363895Y-91846511D01*
X43226895Y-91897611D01*
X43109839Y-91985239D01*
X43022211Y-92102295D01*
X42971111Y-92239295D01*
X42971111Y-92239297D01*
X42964600Y-92299845D01*
X42964600Y-93209954D01*
X42971111Y-93270502D01*
X42971111Y-93270504D01*
X43022211Y-93407504D01*
X43044276Y-93436979D01*
X43068693Y-93502443D01*
X43053842Y-93570716D01*
X43044278Y-93585598D01*
X43029748Y-93605008D01*
X43029745Y-93605013D01*
X42979503Y-93739720D01*
X42979501Y-93739727D01*
X42973100Y-93799255D01*
X42973100Y-94003500D01*
X44474100Y-94003500D01*
X44541139Y-94023185D01*
X44586894Y-94075989D01*
X44598100Y-94127500D01*
X44598100Y-95159900D01*
X45270928Y-95159900D01*
X45270944Y-95159899D01*
X45330472Y-95153498D01*
X45330479Y-95153496D01*
X45465186Y-95103254D01*
X45465188Y-95103252D01*
X45575555Y-95020633D01*
X45641019Y-94996216D01*
X45649866Y-94995900D01*
X48062052Y-94995900D01*
X48129091Y-95015585D01*
X48136363Y-95020633D01*
X48139737Y-95023159D01*
X48139739Y-95023161D01*
X48256796Y-95110789D01*
X48371297Y-95153496D01*
X48388463Y-95159899D01*
X48393799Y-95161889D01*
X48421050Y-95164818D01*
X48454345Y-95168399D01*
X48454362Y-95168400D01*
X48618500Y-95168400D01*
X48685539Y-95188085D01*
X48731294Y-95240889D01*
X48742500Y-95292400D01*
X48742500Y-96257914D01*
X48722815Y-96324953D01*
X48670011Y-96370708D01*
X48600853Y-96380652D01*
X48537297Y-96351627D01*
X48529368Y-96344120D01*
X48512981Y-96327177D01*
X48276521Y-96140446D01*
X48276517Y-96140443D01*
X48276515Y-96140442D01*
X48017270Y-95986891D01*
X47739872Y-95869264D01*
X47739863Y-95869261D01*
X47449272Y-95789660D01*
X47374616Y-95779620D01*
X47150653Y-95749500D01*
X46924756Y-95749500D01*
X46924748Y-95749500D01*
X46699368Y-95764587D01*
X46699359Y-95764589D01*
X46404094Y-95824604D01*
X46119464Y-95923439D01*
X46119459Y-95923441D01*
X45850546Y-96059328D01*
X45602125Y-96229860D01*
X45378665Y-96431969D01*
X45184132Y-96662064D01*
X45022006Y-96916030D01*
X45022005Y-96916032D01*
X44906842Y-97164205D01*
X44895177Y-97189342D01*
X44895176Y-97189346D01*
X44805907Y-97477118D01*
X44787133Y-97588419D01*
X44755791Y-97774230D01*
X44746249Y-98059654D01*
X44745723Y-98075373D01*
X44775881Y-98375160D01*
X44775882Y-98375162D01*
X44845728Y-98668252D01*
X44845733Y-98668266D01*
X44954020Y-98949427D01*
X44954024Y-98949436D01*
X45098825Y-99213665D01*
X45098829Y-99213671D01*
X45219940Y-99378044D01*
X45277554Y-99456238D01*
X45381250Y-99563459D01*
X45487019Y-99672823D01*
X45723478Y-99859553D01*
X45723480Y-99859554D01*
X45723485Y-99859558D01*
X45982730Y-100013109D01*
X46260128Y-100130736D01*
X46550729Y-100210340D01*
X46849347Y-100250500D01*
X46849351Y-100250500D01*
X47075252Y-100250500D01*
X47239164Y-100239526D01*
X47300634Y-100235412D01*
X47595903Y-100175396D01*
X47880537Y-100076560D01*
X48011404Y-100010430D01*
X48061575Y-99985078D01*
X48130287Y-99972411D01*
X48194939Y-99998904D01*
X48235005Y-100056144D01*
X48241500Y-100095750D01*
X48241500Y-102393601D01*
X48221815Y-102460640D01*
X48169011Y-102506395D01*
X48099853Y-102516339D01*
X48040188Y-102490549D01*
X47988856Y-102449613D01*
X47761643Y-102318432D01*
X47517421Y-102222582D01*
X47517416Y-102222580D01*
X47517411Y-102222578D01*
X47517402Y-102222576D01*
X47299818Y-102172914D01*
X47261630Y-102164198D01*
X47261629Y-102164197D01*
X47261625Y-102164197D01*
X47261620Y-102164196D01*
X47065500Y-102149500D01*
X47065494Y-102149500D01*
X46934506Y-102149500D01*
X46934500Y-102149500D01*
X46738379Y-102164196D01*
X46738374Y-102164197D01*
X46482597Y-102222576D01*
X46482578Y-102222582D01*
X46238363Y-102318429D01*
X46238357Y-102318432D01*
X46195877Y-102342957D01*
X46127977Y-102359427D01*
X46061951Y-102336574D01*
X46022160Y-102289369D01*
X45980232Y-102202303D01*
X45980231Y-102202302D01*
X45980230Y-102202301D01*
X45980228Y-102202296D01*
X45832433Y-101985521D01*
X45742554Y-101888654D01*
X45653985Y-101793198D01*
X45614533Y-101761736D01*
X45448857Y-101629614D01*
X45221643Y-101498432D01*
X44977416Y-101402580D01*
X44977411Y-101402578D01*
X44977402Y-101402576D01*
X44759818Y-101352914D01*
X44721630Y-101344198D01*
X44721629Y-101344197D01*
X44721625Y-101344197D01*
X44721620Y-101344196D01*
X44525500Y-101329500D01*
X44525494Y-101329500D01*
X44394506Y-101329500D01*
X44394500Y-101329500D01*
X44198379Y-101344196D01*
X44198374Y-101344197D01*
X43942585Y-101402579D01*
X43858890Y-101435426D01*
X43789293Y-101441593D01*
X43727410Y-101409155D01*
X43695098Y-101356547D01*
X43676826Y-101297311D01*
X43634063Y-101158677D01*
X43594461Y-101076442D01*
X43520232Y-100922303D01*
X43520231Y-100922302D01*
X43520230Y-100922301D01*
X43520228Y-100922296D01*
X43372433Y-100705521D01*
X43362441Y-100694753D01*
X43193985Y-100513198D01*
X43116445Y-100451362D01*
X42988857Y-100349614D01*
X42761643Y-100218432D01*
X42517416Y-100122580D01*
X42517411Y-100122578D01*
X42517402Y-100122576D01*
X42299818Y-100072914D01*
X42261630Y-100064198D01*
X42261629Y-100064197D01*
X42261625Y-100064197D01*
X42261620Y-100064196D01*
X42065500Y-100049500D01*
X42065494Y-100049500D01*
X41934506Y-100049500D01*
X41934500Y-100049500D01*
X41738379Y-100064196D01*
X41738374Y-100064197D01*
X41482597Y-100122576D01*
X41482578Y-100122582D01*
X41238356Y-100218432D01*
X41011143Y-100349614D01*
X40806014Y-100513198D01*
X40627567Y-100705520D01*
X40592578Y-100756841D01*
X40544952Y-100826694D01*
X40490925Y-100870995D01*
X40421521Y-100879054D01*
X40358779Y-100848311D01*
X40322617Y-100788527D01*
X40318500Y-100756841D01*
X40318500Y-100451362D01*
X40318499Y-100451345D01*
X40315157Y-100420270D01*
X40311989Y-100390799D01*
X40260889Y-100253796D01*
X40173261Y-100136739D01*
X40102921Y-100084083D01*
X40056206Y-100049112D01*
X40056204Y-100049111D01*
X39919201Y-99998011D01*
X39919196Y-99998010D01*
X39919194Y-99998010D01*
X39907012Y-99996700D01*
X39842461Y-99969961D01*
X39828075Y-99956333D01*
X39542973Y-99639347D01*
X39542964Y-99639338D01*
X39457642Y-99563459D01*
X39457631Y-99563450D01*
X39453421Y-99560473D01*
X39453416Y-99560470D01*
X39405952Y-99534289D01*
X39353466Y-99505338D01*
X39342243Y-99500689D01*
X39312045Y-99488180D01*
X39257643Y-99444338D01*
X39235579Y-99378044D01*
X39235500Y-99373620D01*
X39235500Y-97940346D01*
X40295702Y-97940346D01*
X40305819Y-98178528D01*
X40305819Y-98178532D01*
X40356045Y-98411580D01*
X40440877Y-98622689D01*
X40444936Y-98632790D01*
X40569931Y-98835795D01*
X40727436Y-99014755D01*
X40912920Y-99164523D01*
X41121046Y-99280790D01*
X41345829Y-99360211D01*
X41580790Y-99400499D01*
X41580798Y-99400499D01*
X41580800Y-99400500D01*
X41580801Y-99400500D01*
X41759502Y-99400500D01*
X41937536Y-99385347D01*
X41937539Y-99385346D01*
X41937541Y-99385346D01*
X42168249Y-99325275D01*
X42311894Y-99260343D01*
X42385480Y-99227080D01*
X42385481Y-99227078D01*
X42385486Y-99227077D01*
X42583003Y-99093579D01*
X42755118Y-98928621D01*
X42896879Y-98736947D01*
X43004207Y-98524074D01*
X43074016Y-98296123D01*
X43104298Y-98059654D01*
X43094180Y-97821468D01*
X43083999Y-97774230D01*
X43043954Y-97588419D01*
X42955064Y-97367211D01*
X42955064Y-97367210D01*
X42830069Y-97164205D01*
X42672564Y-96985245D01*
X42487080Y-96835477D01*
X42366247Y-96767975D01*
X42278955Y-96719210D01*
X42054170Y-96639788D01*
X41819209Y-96599500D01*
X41819200Y-96599500D01*
X41640503Y-96599500D01*
X41640498Y-96599500D01*
X41462463Y-96614652D01*
X41231751Y-96674724D01*
X41014519Y-96772919D01*
X41014511Y-96772924D01*
X40817006Y-96906413D01*
X40816997Y-96906421D01*
X40644881Y-97071379D01*
X40503123Y-97263050D01*
X40503120Y-97263054D01*
X40395796Y-97475920D01*
X40395793Y-97475926D01*
X40325983Y-97703878D01*
X40295702Y-97940346D01*
X39235500Y-97940346D01*
X39235500Y-96954509D01*
X39255185Y-96887470D01*
X39307299Y-96842032D01*
X39785688Y-96620021D01*
X39837887Y-96608500D01*
X39923867Y-96608500D01*
X39923872Y-96608500D01*
X40024336Y-96598236D01*
X40187101Y-96544302D01*
X40333040Y-96454285D01*
X40454285Y-96333040D01*
X40544302Y-96187101D01*
X40598236Y-96024336D01*
X40608500Y-95923872D01*
X40608500Y-95376128D01*
X40598236Y-95275664D01*
X40544302Y-95112899D01*
X40544298Y-95112893D01*
X40544297Y-95112890D01*
X40454287Y-94966963D01*
X40454284Y-94966959D01*
X40333040Y-94845715D01*
X40333036Y-94845712D01*
X40187109Y-94755702D01*
X40187103Y-94755699D01*
X40187101Y-94755698D01*
X40024336Y-94701764D01*
X39923879Y-94691500D01*
X39923872Y-94691500D01*
X39076128Y-94691500D01*
X39076120Y-94691500D01*
X38975663Y-94701764D01*
X38812901Y-94755697D01*
X38812890Y-94755702D01*
X38666963Y-94845712D01*
X38666959Y-94845715D01*
X38545715Y-94966959D01*
X38545712Y-94966963D01*
X38455702Y-95112890D01*
X38455697Y-95112901D01*
X38401764Y-95275663D01*
X38391500Y-95376120D01*
X38391500Y-95491071D01*
X38384552Y-95531995D01*
X38215495Y-96015533D01*
X38188836Y-96059492D01*
X38143573Y-96107693D01*
X38122366Y-96128900D01*
X38122363Y-96128902D01*
X38118008Y-96134516D01*
X38114218Y-96138953D01*
X38081782Y-96173494D01*
X38081781Y-96173496D01*
X38071900Y-96191468D01*
X38061225Y-96207719D01*
X38048652Y-96223929D01*
X38048649Y-96223933D01*
X38029827Y-96267428D01*
X38027257Y-96272674D01*
X38004430Y-96314197D01*
X37999329Y-96334064D01*
X37993030Y-96352462D01*
X37984884Y-96371287D01*
X37984881Y-96371296D01*
X37977469Y-96418098D01*
X37976284Y-96423820D01*
X37964500Y-96469711D01*
X37964500Y-96490225D01*
X37962972Y-96509624D01*
X37959765Y-96529879D01*
X37963650Y-96570979D01*
X37964225Y-96577059D01*
X37964500Y-96582897D01*
X37964500Y-99260343D01*
X37944815Y-99327382D01*
X37935108Y-99340501D01*
X37719108Y-99595439D01*
X37660753Y-99633863D01*
X37590887Y-99634638D01*
X37531694Y-99597518D01*
X37501965Y-99534289D01*
X37500500Y-99515281D01*
X37500500Y-94428133D01*
X41025668Y-94428133D01*
X41041058Y-94515410D01*
X41056135Y-94600911D01*
X41125623Y-94762004D01*
X41125624Y-94762006D01*
X41125626Y-94762009D01*
X41229836Y-94901986D01*
X41230390Y-94902730D01*
X41364786Y-95015502D01*
X41442488Y-95054525D01*
X41521562Y-95094238D01*
X41521563Y-95094238D01*
X41521567Y-95094240D01*
X41692279Y-95134700D01*
X41692282Y-95134700D01*
X41823701Y-95134700D01*
X41823709Y-95134700D01*
X41954255Y-95119441D01*
X42119117Y-95059437D01*
X42265696Y-94963030D01*
X42386092Y-94835418D01*
X42473812Y-94683481D01*
X42524130Y-94515410D01*
X42524824Y-94503500D01*
X42973100Y-94503500D01*
X42973100Y-94707744D01*
X42979501Y-94767272D01*
X42979503Y-94767279D01*
X43029745Y-94901986D01*
X43029749Y-94901993D01*
X43115909Y-95017087D01*
X43115912Y-95017090D01*
X43231006Y-95103250D01*
X43231013Y-95103254D01*
X43365720Y-95153496D01*
X43365727Y-95153498D01*
X43425255Y-95159899D01*
X43425272Y-95159900D01*
X44098100Y-95159900D01*
X44098100Y-94503500D01*
X42973100Y-94503500D01*
X42524824Y-94503500D01*
X42534331Y-94340265D01*
X42503865Y-94167489D01*
X42434377Y-94006396D01*
X42329610Y-93865670D01*
X42257747Y-93805370D01*
X42195214Y-93752898D01*
X42195212Y-93752897D01*
X42038437Y-93674161D01*
X42038433Y-93674160D01*
X41867721Y-93633700D01*
X41736291Y-93633700D01*
X41631854Y-93645907D01*
X41605743Y-93648959D01*
X41605740Y-93648960D01*
X41440884Y-93708962D01*
X41440880Y-93708964D01*
X41294306Y-93805367D01*
X41294305Y-93805368D01*
X41173910Y-93932978D01*
X41086188Y-94084918D01*
X41035870Y-94252989D01*
X41035869Y-94252994D01*
X41025668Y-94428133D01*
X37500500Y-94428133D01*
X37500500Y-92623879D01*
X38391500Y-92623879D01*
X38401764Y-92724336D01*
X38455697Y-92887098D01*
X38455702Y-92887109D01*
X38545712Y-93033036D01*
X38545715Y-93033040D01*
X38666959Y-93154284D01*
X38666963Y-93154287D01*
X38812890Y-93244297D01*
X38812893Y-93244298D01*
X38812899Y-93244302D01*
X38975664Y-93298236D01*
X39076128Y-93308500D01*
X39076133Y-93308500D01*
X39923867Y-93308500D01*
X39923872Y-93308500D01*
X40024336Y-93298236D01*
X40187101Y-93244302D01*
X40333040Y-93154285D01*
X40454285Y-93033040D01*
X40544302Y-92887101D01*
X40598236Y-92724336D01*
X40608500Y-92623872D01*
X40608500Y-92076128D01*
X40598236Y-91975664D01*
X40544302Y-91812899D01*
X40544301Y-91812897D01*
X40544300Y-91812894D01*
X40516244Y-91767411D01*
X40497802Y-91700019D01*
X40518723Y-91633355D01*
X40534095Y-91614636D01*
X40890075Y-91258656D01*
X40902458Y-91248738D01*
X40902286Y-91248530D01*
X40908292Y-91243559D01*
X40908303Y-91243553D01*
X40956426Y-91192306D01*
X40977639Y-91171094D01*
X40981983Y-91165492D01*
X40985770Y-91161057D01*
X41018217Y-91126506D01*
X41028099Y-91108529D01*
X41038771Y-91092282D01*
X41051350Y-91076066D01*
X41070174Y-91032563D01*
X41072739Y-91027329D01*
X41095566Y-90985809D01*
X41095566Y-90985807D01*
X41095569Y-90985803D01*
X41100669Y-90965935D01*
X41106967Y-90947538D01*
X41115117Y-90928707D01*
X41122530Y-90881901D01*
X41123715Y-90876177D01*
X41135500Y-90830282D01*
X41135500Y-90809773D01*
X41137027Y-90790373D01*
X41140235Y-90770120D01*
X41135775Y-90722938D01*
X41135500Y-90717100D01*
X41135500Y-90585094D01*
X41137515Y-90562833D01*
X41147936Y-90505728D01*
X41186780Y-90292877D01*
X41192824Y-90271172D01*
X41192965Y-90270801D01*
X41197025Y-90237355D01*
X41197580Y-90233703D01*
X41204673Y-90194841D01*
X41207742Y-90172519D01*
X41208976Y-90159263D01*
X41208902Y-90143588D01*
X41209354Y-90135818D01*
X41213704Y-90100000D01*
X41192965Y-89929199D01*
X41131954Y-89768325D01*
X41034215Y-89626727D01*
X41034213Y-89626725D01*
X41034210Y-89626722D01*
X40905432Y-89512634D01*
X40753079Y-89432673D01*
X40586028Y-89391500D01*
X40413972Y-89391500D01*
X40246920Y-89432673D01*
X40094567Y-89512634D01*
X39965789Y-89626722D01*
X39965786Y-89626725D01*
X39868045Y-89768326D01*
X39807034Y-89929198D01*
X39786296Y-90099999D01*
X39786296Y-90100001D01*
X39796221Y-90181751D01*
X39796629Y-90186885D01*
X39797348Y-90205915D01*
X39802417Y-90233693D01*
X39802972Y-90237347D01*
X39807033Y-90270795D01*
X39807034Y-90270799D01*
X39807035Y-90270801D01*
X39807180Y-90271184D01*
X39813218Y-90292878D01*
X39839382Y-90436244D01*
X39832053Y-90505728D01*
X39805078Y-90546187D01*
X39291088Y-91060177D01*
X39275743Y-91073211D01*
X39258218Y-91085797D01*
X38925448Y-91405646D01*
X38878525Y-91433952D01*
X38812899Y-91455698D01*
X38812890Y-91455702D01*
X38666963Y-91545712D01*
X38666959Y-91545715D01*
X38545715Y-91666959D01*
X38545712Y-91666963D01*
X38455702Y-91812890D01*
X38455697Y-91812901D01*
X38401764Y-91975663D01*
X38391500Y-92076120D01*
X38391500Y-92623879D01*
X37500500Y-92623879D01*
X37500500Y-84732500D01*
X37520185Y-84665461D01*
X37572989Y-84619706D01*
X37624500Y-84608500D01*
X38527500Y-84608500D01*
X38594539Y-84628185D01*
G37*
G04 #@! TD.AperFunction*
G04 #@! TA.AperFunction,Conductor*
G36*
X53046999Y-83835630D02*
G01*
X53053900Y-83842917D01*
X53069090Y-83860317D01*
X53193912Y-84003296D01*
X53223172Y-84066744D01*
X53224500Y-84084845D01*
X53224500Y-89167500D01*
X53204815Y-89234539D01*
X53152011Y-89280294D01*
X53100500Y-89291500D01*
X53065013Y-89291500D01*
X52878214Y-89331205D01*
X52703746Y-89408883D01*
X52549245Y-89521135D01*
X52421458Y-89663057D01*
X52421456Y-89663060D01*
X52347884Y-89790490D01*
X52343239Y-89797415D01*
X52339066Y-89802812D01*
X52339065Y-89802815D01*
X52046749Y-90318861D01*
X52026537Y-90345426D01*
X50537453Y-91834510D01*
X50476130Y-91867995D01*
X50406439Y-91863011D01*
X50362198Y-91846510D01*
X50362199Y-91846510D01*
X50301654Y-91840000D01*
X50301638Y-91840000D01*
X50250128Y-91840000D01*
X50243906Y-91839687D01*
X50232725Y-91838560D01*
X50232722Y-91838560D01*
X50232721Y-91838560D01*
X50223776Y-91838939D01*
X50223767Y-91838939D01*
X50223763Y-91838940D01*
X50223765Y-91838940D01*
X50215724Y-91839714D01*
X50209777Y-91840000D01*
X48454345Y-91840000D01*
X48393797Y-91846511D01*
X48393795Y-91846511D01*
X48256795Y-91897611D01*
X48207145Y-91934779D01*
X48142238Y-91983367D01*
X48076777Y-92007784D01*
X48067930Y-92008100D01*
X45886594Y-92008100D01*
X45819555Y-91988415D01*
X45773800Y-91935611D01*
X45763856Y-91866453D01*
X45792881Y-91802897D01*
X45798913Y-91796419D01*
X47495334Y-90099998D01*
X49267075Y-88328256D01*
X49279458Y-88318338D01*
X49279286Y-88318130D01*
X49285292Y-88313159D01*
X49285303Y-88313153D01*
X49333426Y-88261906D01*
X49354639Y-88240694D01*
X49358993Y-88235079D01*
X49362768Y-88230658D01*
X49395217Y-88196106D01*
X49405094Y-88178137D01*
X49415779Y-88161872D01*
X49428350Y-88145667D01*
X49447183Y-88102143D01*
X49449732Y-88096941D01*
X49472569Y-88055403D01*
X49477670Y-88035530D01*
X49483969Y-88017134D01*
X49492117Y-87998308D01*
X49496995Y-87967503D01*
X49499530Y-87951502D01*
X49500715Y-87945778D01*
X49501137Y-87944131D01*
X49512500Y-87899882D01*
X49512500Y-87879374D01*
X49514027Y-87859974D01*
X49517235Y-87839721D01*
X49512775Y-87792539D01*
X49512500Y-87786701D01*
X49512500Y-86832500D01*
X49532185Y-86765461D01*
X49584989Y-86719706D01*
X49636500Y-86708500D01*
X51758638Y-86708500D01*
X51758654Y-86708499D01*
X51785692Y-86705591D01*
X51819201Y-86701989D01*
X51956204Y-86650889D01*
X52073261Y-86563261D01*
X52160889Y-86446204D01*
X52210334Y-86313638D01*
X52211988Y-86309204D01*
X52211988Y-86309203D01*
X52211989Y-86309201D01*
X52215591Y-86275692D01*
X52218499Y-86248654D01*
X52218500Y-86248637D01*
X52218500Y-85297522D01*
X52227064Y-85252240D01*
X52457241Y-84665461D01*
X52751415Y-83915536D01*
X52794221Y-83860317D01*
X52821977Y-83845225D01*
X52915617Y-83808874D01*
X52985236Y-83802963D01*
X53046999Y-83835630D01*
G37*
G04 #@! TD.AperFunction*
G04 #@! TA.AperFunction,Conductor*
G36*
X38594539Y-65628185D02*
G01*
X38640294Y-65680989D01*
X38651500Y-65732500D01*
X38651500Y-67313654D01*
X38658011Y-67374202D01*
X38658011Y-67374204D01*
X38698057Y-67481567D01*
X38709111Y-67511204D01*
X38796739Y-67628261D01*
X38913796Y-67715889D01*
X39050799Y-67766989D01*
X39078050Y-67769918D01*
X39111345Y-67773499D01*
X39111362Y-67773500D01*
X42708638Y-67773500D01*
X42708654Y-67773499D01*
X42735692Y-67770591D01*
X42769201Y-67766989D01*
X42906204Y-67715889D01*
X43023261Y-67628261D01*
X43110889Y-67511204D01*
X43161989Y-67374201D01*
X43165591Y-67340692D01*
X43168499Y-67313654D01*
X43168500Y-67313637D01*
X43168500Y-66546524D01*
X43188185Y-66479485D01*
X43240989Y-66433730D01*
X43310147Y-66423786D01*
X43369810Y-66449575D01*
X43471143Y-66530386D01*
X43698357Y-66661568D01*
X43942584Y-66757420D01*
X44198370Y-66815802D01*
X44198376Y-66815802D01*
X44198379Y-66815803D01*
X44394500Y-66830500D01*
X44394506Y-66830500D01*
X44525500Y-66830500D01*
X44721620Y-66815803D01*
X44721622Y-66815802D01*
X44721630Y-66815802D01*
X44977416Y-66757420D01*
X45221643Y-66661568D01*
X45221646Y-66661566D01*
X45221647Y-66661566D01*
X45264118Y-66637045D01*
X45332018Y-66620571D01*
X45398045Y-66643423D01*
X45437839Y-66690630D01*
X45479767Y-66777695D01*
X45479768Y-66777697D01*
X45479770Y-66777700D01*
X45479772Y-66777704D01*
X45505747Y-66815802D01*
X45627567Y-66994479D01*
X45806014Y-67186801D01*
X45806018Y-67186804D01*
X45806019Y-67186805D01*
X46011143Y-67350386D01*
X46238357Y-67481568D01*
X46482584Y-67577420D01*
X46738370Y-67635802D01*
X46738376Y-67635802D01*
X46738379Y-67635803D01*
X46934500Y-67650500D01*
X46934506Y-67650500D01*
X47065500Y-67650500D01*
X47261620Y-67635803D01*
X47261622Y-67635802D01*
X47261630Y-67635802D01*
X47517416Y-67577420D01*
X47761643Y-67481568D01*
X47988857Y-67350386D01*
X48040188Y-67309450D01*
X48104873Y-67283043D01*
X48173569Y-67295798D01*
X48224463Y-67343669D01*
X48241500Y-67406398D01*
X48241500Y-68505005D01*
X48221815Y-68572044D01*
X48205181Y-68592686D01*
X43994186Y-72803681D01*
X43932863Y-72837166D01*
X43906505Y-72840000D01*
X43424445Y-72840000D01*
X43363897Y-72846511D01*
X43363895Y-72846511D01*
X43226895Y-72897611D01*
X43109839Y-72985239D01*
X43022211Y-73102295D01*
X42971111Y-73239295D01*
X42971111Y-73239297D01*
X42964600Y-73299845D01*
X42964600Y-74209954D01*
X42971111Y-74270502D01*
X42971111Y-74270504D01*
X43022211Y-74407504D01*
X43044276Y-74436979D01*
X43068693Y-74502443D01*
X43053842Y-74570716D01*
X43044278Y-74585598D01*
X43029748Y-74605008D01*
X43029745Y-74605013D01*
X42979503Y-74739720D01*
X42979501Y-74739727D01*
X42973100Y-74799255D01*
X42973100Y-75003500D01*
X44474100Y-75003500D01*
X44541139Y-75023185D01*
X44586894Y-75075989D01*
X44598100Y-75127500D01*
X44598100Y-76159900D01*
X45270928Y-76159900D01*
X45270944Y-76159899D01*
X45330472Y-76153498D01*
X45330479Y-76153496D01*
X45465186Y-76103254D01*
X45465188Y-76103252D01*
X45575555Y-76020633D01*
X45641019Y-75996216D01*
X45649866Y-75995900D01*
X48062052Y-75995900D01*
X48129091Y-76015585D01*
X48136363Y-76020633D01*
X48139737Y-76023159D01*
X48139739Y-76023161D01*
X48256796Y-76110789D01*
X48371297Y-76153496D01*
X48388463Y-76159899D01*
X48393799Y-76161889D01*
X48421050Y-76164818D01*
X48454345Y-76168399D01*
X48454362Y-76168400D01*
X48618500Y-76168400D01*
X48685539Y-76188085D01*
X48731294Y-76240889D01*
X48742500Y-76292400D01*
X48742500Y-77257914D01*
X48722815Y-77324953D01*
X48670011Y-77370708D01*
X48600853Y-77380652D01*
X48537297Y-77351627D01*
X48529368Y-77344120D01*
X48512981Y-77327177D01*
X48276521Y-77140446D01*
X48276517Y-77140443D01*
X48276515Y-77140442D01*
X48017270Y-76986891D01*
X47739872Y-76869264D01*
X47739863Y-76869261D01*
X47449272Y-76789660D01*
X47374616Y-76779620D01*
X47150653Y-76749500D01*
X46924756Y-76749500D01*
X46924748Y-76749500D01*
X46699368Y-76764587D01*
X46699359Y-76764589D01*
X46404094Y-76824604D01*
X46119464Y-76923439D01*
X46119459Y-76923441D01*
X45850546Y-77059328D01*
X45602125Y-77229860D01*
X45378665Y-77431969D01*
X45184132Y-77662064D01*
X45022006Y-77916030D01*
X45022005Y-77916032D01*
X44906842Y-78164205D01*
X44895177Y-78189342D01*
X44895176Y-78189346D01*
X44805907Y-78477118D01*
X44787133Y-78588419D01*
X44755791Y-78774230D01*
X44746249Y-79059654D01*
X44745723Y-79075373D01*
X44775881Y-79375160D01*
X44775882Y-79375162D01*
X44845728Y-79668252D01*
X44845733Y-79668266D01*
X44954020Y-79949427D01*
X44954024Y-79949436D01*
X45098825Y-80213665D01*
X45098829Y-80213671D01*
X45200593Y-80351786D01*
X45277554Y-80456238D01*
X45487020Y-80672824D01*
X45509139Y-80690291D01*
X45723478Y-80859553D01*
X45723480Y-80859554D01*
X45723485Y-80859558D01*
X45982730Y-81013109D01*
X46260128Y-81130736D01*
X46550729Y-81210340D01*
X46849347Y-81250500D01*
X46849351Y-81250500D01*
X47075252Y-81250500D01*
X47239164Y-81239526D01*
X47300634Y-81235412D01*
X47595903Y-81175396D01*
X47880537Y-81076560D01*
X48011404Y-81010430D01*
X48061575Y-80985078D01*
X48130287Y-80972411D01*
X48194939Y-80998904D01*
X48235005Y-81056144D01*
X48241500Y-81095750D01*
X48241500Y-83393601D01*
X48221815Y-83460640D01*
X48169011Y-83506395D01*
X48099853Y-83516339D01*
X48040188Y-83490549D01*
X47988856Y-83449613D01*
X47761643Y-83318432D01*
X47517421Y-83222582D01*
X47517416Y-83222580D01*
X47517411Y-83222578D01*
X47517402Y-83222576D01*
X47299818Y-83172914D01*
X47261630Y-83164198D01*
X47261629Y-83164197D01*
X47261625Y-83164197D01*
X47261620Y-83164196D01*
X47065500Y-83149500D01*
X47065494Y-83149500D01*
X46934506Y-83149500D01*
X46934500Y-83149500D01*
X46738379Y-83164196D01*
X46738374Y-83164197D01*
X46482597Y-83222576D01*
X46482578Y-83222582D01*
X46238363Y-83318429D01*
X46238357Y-83318432D01*
X46195877Y-83342957D01*
X46127977Y-83359427D01*
X46061951Y-83336574D01*
X46022160Y-83289369D01*
X45980232Y-83202303D01*
X45980231Y-83202302D01*
X45980230Y-83202301D01*
X45980228Y-83202296D01*
X45832433Y-82985521D01*
X45742554Y-82888654D01*
X45653985Y-82793198D01*
X45614533Y-82761736D01*
X45448857Y-82629614D01*
X45221643Y-82498432D01*
X44977416Y-82402580D01*
X44977411Y-82402578D01*
X44977402Y-82402576D01*
X44759818Y-82352914D01*
X44721630Y-82344198D01*
X44721629Y-82344197D01*
X44721625Y-82344197D01*
X44721620Y-82344196D01*
X44525500Y-82329500D01*
X44525494Y-82329500D01*
X44394506Y-82329500D01*
X44394500Y-82329500D01*
X44198379Y-82344196D01*
X44198374Y-82344197D01*
X43942585Y-82402579D01*
X43858890Y-82435426D01*
X43789293Y-82441593D01*
X43727410Y-82409155D01*
X43695098Y-82356547D01*
X43676826Y-82297311D01*
X43634063Y-82158677D01*
X43594461Y-82076442D01*
X43520232Y-81922303D01*
X43520231Y-81922302D01*
X43520230Y-81922301D01*
X43520228Y-81922296D01*
X43372433Y-81705521D01*
X43362441Y-81694753D01*
X43193985Y-81513198D01*
X43116445Y-81451362D01*
X42988857Y-81349614D01*
X42761643Y-81218432D01*
X42517416Y-81122580D01*
X42517411Y-81122578D01*
X42517402Y-81122576D01*
X42299818Y-81072914D01*
X42261630Y-81064198D01*
X42261629Y-81064197D01*
X42261625Y-81064197D01*
X42261620Y-81064196D01*
X42065500Y-81049500D01*
X42065494Y-81049500D01*
X41934506Y-81049500D01*
X41934500Y-81049500D01*
X41738379Y-81064196D01*
X41738374Y-81064197D01*
X41482597Y-81122576D01*
X41482578Y-81122582D01*
X41238356Y-81218432D01*
X41011143Y-81349614D01*
X40806014Y-81513198D01*
X40627567Y-81705520D01*
X40592578Y-81756841D01*
X40544952Y-81826694D01*
X40490925Y-81870995D01*
X40421521Y-81879054D01*
X40358779Y-81848311D01*
X40322617Y-81788527D01*
X40318500Y-81756841D01*
X40318500Y-81451362D01*
X40318499Y-81451345D01*
X40315157Y-81420270D01*
X40311989Y-81390799D01*
X40260889Y-81253796D01*
X40173261Y-81136739D01*
X40102921Y-81084083D01*
X40056206Y-81049112D01*
X40056204Y-81049111D01*
X39919201Y-80998011D01*
X39919196Y-80998010D01*
X39919194Y-80998010D01*
X39907012Y-80996700D01*
X39842461Y-80969961D01*
X39828075Y-80956333D01*
X39741237Y-80859784D01*
X39717011Y-80834624D01*
X39598704Y-80748821D01*
X39598699Y-80748818D01*
X39598695Y-80748815D01*
X39597377Y-80748121D01*
X39591523Y-80745038D01*
X39560017Y-80729796D01*
X39560013Y-80729795D01*
X39419296Y-80690291D01*
X39416919Y-80689978D01*
X39416184Y-80689652D01*
X39414961Y-80689402D01*
X39415015Y-80689135D01*
X39353026Y-80661705D01*
X39314560Y-80603376D01*
X39309140Y-80564675D01*
X39309331Y-80554660D01*
X39305265Y-80534289D01*
X39280719Y-80411329D01*
X39277734Y-80402886D01*
X39277729Y-80402873D01*
X39277729Y-80402872D01*
X39256673Y-80352136D01*
X39256671Y-80352132D01*
X39256440Y-80351786D01*
X39256374Y-80351576D01*
X39253796Y-80346760D01*
X39254709Y-80346271D01*
X39235521Y-80285122D01*
X39235500Y-80282832D01*
X39235500Y-78940346D01*
X40295702Y-78940346D01*
X40305819Y-79178528D01*
X40305819Y-79178532D01*
X40356045Y-79411580D01*
X40440877Y-79622689D01*
X40444936Y-79632790D01*
X40569931Y-79835795D01*
X40727436Y-80014755D01*
X40912920Y-80164523D01*
X41121046Y-80280790D01*
X41306375Y-80346271D01*
X41345829Y-80360211D01*
X41580790Y-80400499D01*
X41580798Y-80400499D01*
X41580800Y-80400500D01*
X41580801Y-80400500D01*
X41759502Y-80400500D01*
X41937536Y-80385347D01*
X41937539Y-80385346D01*
X41937541Y-80385346D01*
X42168249Y-80325275D01*
X42311894Y-80260343D01*
X42385480Y-80227080D01*
X42385481Y-80227078D01*
X42385486Y-80227077D01*
X42583003Y-80093579D01*
X42755118Y-79928621D01*
X42896879Y-79736947D01*
X43004207Y-79524074D01*
X43074016Y-79296123D01*
X43104298Y-79059654D01*
X43094180Y-78821468D01*
X43083999Y-78774230D01*
X43043954Y-78588419D01*
X42955064Y-78367211D01*
X42955064Y-78367210D01*
X42830069Y-78164205D01*
X42672564Y-77985245D01*
X42487080Y-77835477D01*
X42366247Y-77767975D01*
X42278955Y-77719210D01*
X42054170Y-77639788D01*
X41819209Y-77599500D01*
X41819200Y-77599500D01*
X41640503Y-77599500D01*
X41640498Y-77599500D01*
X41462463Y-77614652D01*
X41231751Y-77674724D01*
X41014519Y-77772919D01*
X41014511Y-77772924D01*
X40817006Y-77906413D01*
X40816997Y-77906421D01*
X40644881Y-78071379D01*
X40503123Y-78263050D01*
X40503120Y-78263054D01*
X40395796Y-78475920D01*
X40395793Y-78475926D01*
X40325983Y-78703878D01*
X40295702Y-78940346D01*
X39235500Y-78940346D01*
X39235500Y-77954509D01*
X39255185Y-77887470D01*
X39307299Y-77842032D01*
X39785688Y-77620021D01*
X39837887Y-77608500D01*
X39923867Y-77608500D01*
X39923872Y-77608500D01*
X40024336Y-77598236D01*
X40187101Y-77544302D01*
X40333040Y-77454285D01*
X40454285Y-77333040D01*
X40544302Y-77187101D01*
X40598236Y-77024336D01*
X40608500Y-76923872D01*
X40608500Y-76376128D01*
X40598236Y-76275664D01*
X40544302Y-76112899D01*
X40544298Y-76112893D01*
X40544297Y-76112890D01*
X40454287Y-75966963D01*
X40454284Y-75966959D01*
X40333040Y-75845715D01*
X40333036Y-75845712D01*
X40187109Y-75755702D01*
X40187103Y-75755699D01*
X40187101Y-75755698D01*
X40024336Y-75701764D01*
X39923879Y-75691500D01*
X39923872Y-75691500D01*
X39076128Y-75691500D01*
X39076120Y-75691500D01*
X38975663Y-75701764D01*
X38812901Y-75755697D01*
X38812890Y-75755702D01*
X38666963Y-75845712D01*
X38666959Y-75845715D01*
X38545715Y-75966959D01*
X38545712Y-75966963D01*
X38455702Y-76112890D01*
X38455697Y-76112901D01*
X38401764Y-76275663D01*
X38391500Y-76376120D01*
X38391500Y-76491071D01*
X38384552Y-76531995D01*
X38215495Y-77015533D01*
X38188836Y-77059492D01*
X38143573Y-77107693D01*
X38122366Y-77128900D01*
X38122363Y-77128902D01*
X38118008Y-77134516D01*
X38114218Y-77138953D01*
X38081782Y-77173494D01*
X38081781Y-77173496D01*
X38071900Y-77191468D01*
X38061225Y-77207719D01*
X38048652Y-77223929D01*
X38048649Y-77223933D01*
X38029827Y-77267428D01*
X38027257Y-77272674D01*
X38004430Y-77314197D01*
X37999329Y-77334064D01*
X37993030Y-77352462D01*
X37984884Y-77371287D01*
X37984881Y-77371296D01*
X37977469Y-77418098D01*
X37976284Y-77423820D01*
X37964500Y-77469711D01*
X37964500Y-77490225D01*
X37962972Y-77509624D01*
X37959765Y-77529879D01*
X37963650Y-77570979D01*
X37964225Y-77577059D01*
X37964500Y-77582897D01*
X37964500Y-80260343D01*
X37944815Y-80327382D01*
X37935108Y-80340501D01*
X37719108Y-80595439D01*
X37660753Y-80633863D01*
X37590887Y-80634638D01*
X37531694Y-80597518D01*
X37501965Y-80534289D01*
X37500500Y-80515281D01*
X37500500Y-75428133D01*
X41025668Y-75428133D01*
X41041058Y-75515410D01*
X41056135Y-75600911D01*
X41125623Y-75762004D01*
X41125624Y-75762006D01*
X41125626Y-75762009D01*
X41229836Y-75901986D01*
X41230390Y-75902730D01*
X41364786Y-76015502D01*
X41442488Y-76054525D01*
X41521562Y-76094238D01*
X41521563Y-76094238D01*
X41521567Y-76094240D01*
X41692279Y-76134700D01*
X41692282Y-76134700D01*
X41823701Y-76134700D01*
X41823709Y-76134700D01*
X41954255Y-76119441D01*
X42119117Y-76059437D01*
X42265696Y-75963030D01*
X42386092Y-75835418D01*
X42473812Y-75683481D01*
X42524130Y-75515410D01*
X42524824Y-75503500D01*
X42973100Y-75503500D01*
X42973100Y-75707744D01*
X42979501Y-75767272D01*
X42979503Y-75767279D01*
X43029745Y-75901986D01*
X43029749Y-75901993D01*
X43115909Y-76017087D01*
X43115912Y-76017090D01*
X43231006Y-76103250D01*
X43231013Y-76103254D01*
X43365720Y-76153496D01*
X43365727Y-76153498D01*
X43425255Y-76159899D01*
X43425272Y-76159900D01*
X44098100Y-76159900D01*
X44098100Y-75503500D01*
X42973100Y-75503500D01*
X42524824Y-75503500D01*
X42534331Y-75340265D01*
X42503865Y-75167489D01*
X42434377Y-75006396D01*
X42329610Y-74865670D01*
X42257747Y-74805370D01*
X42195214Y-74752898D01*
X42195212Y-74752897D01*
X42038437Y-74674161D01*
X42038433Y-74674160D01*
X41867721Y-74633700D01*
X41736291Y-74633700D01*
X41631854Y-74645907D01*
X41605743Y-74648959D01*
X41605740Y-74648960D01*
X41440884Y-74708962D01*
X41440880Y-74708964D01*
X41294306Y-74805367D01*
X41294305Y-74805368D01*
X41173910Y-74932978D01*
X41086188Y-75084918D01*
X41035870Y-75252989D01*
X41035869Y-75252994D01*
X41025668Y-75428133D01*
X37500500Y-75428133D01*
X37500500Y-73623879D01*
X38391500Y-73623879D01*
X38401764Y-73724336D01*
X38455697Y-73887098D01*
X38455702Y-73887109D01*
X38545712Y-74033036D01*
X38545715Y-74033040D01*
X38666959Y-74154284D01*
X38666963Y-74154287D01*
X38812890Y-74244297D01*
X38812893Y-74244298D01*
X38812899Y-74244302D01*
X38975664Y-74298236D01*
X39076128Y-74308500D01*
X39076133Y-74308500D01*
X39923867Y-74308500D01*
X39923872Y-74308500D01*
X40024336Y-74298236D01*
X40187101Y-74244302D01*
X40333040Y-74154285D01*
X40454285Y-74033040D01*
X40544302Y-73887101D01*
X40598236Y-73724336D01*
X40608500Y-73623872D01*
X40608500Y-73076128D01*
X40598236Y-72975664D01*
X40544302Y-72812899D01*
X40544298Y-72812893D01*
X40544297Y-72812890D01*
X40454287Y-72666963D01*
X40454286Y-72666962D01*
X40454285Y-72666960D01*
X40333040Y-72545715D01*
X40333039Y-72545714D01*
X40333038Y-72545713D01*
X40330042Y-72543865D01*
X40293309Y-72509080D01*
X40288897Y-72502730D01*
X40186978Y-72356029D01*
X40164894Y-72289741D01*
X40182154Y-72222036D01*
X40201126Y-72197605D01*
X40306365Y-72092365D01*
X40323513Y-72078064D01*
X40577108Y-71902745D01*
X40583540Y-71898854D01*
X40605430Y-71887367D01*
X40624283Y-71870663D01*
X40630133Y-71866088D01*
X40631209Y-71865345D01*
X40649148Y-71851744D01*
X40659390Y-71843247D01*
X40687849Y-71814522D01*
X40690761Y-71811770D01*
X40702262Y-71801579D01*
X40734215Y-71773273D01*
X40831954Y-71631675D01*
X40892965Y-71470801D01*
X40913704Y-71300000D01*
X40892965Y-71129199D01*
X40831954Y-70968325D01*
X40734215Y-70826727D01*
X40734213Y-70826725D01*
X40734210Y-70826722D01*
X40605432Y-70712634D01*
X40453079Y-70632673D01*
X40286028Y-70591500D01*
X40113972Y-70591500D01*
X39946920Y-70632673D01*
X39794567Y-70712634D01*
X39794566Y-70712635D01*
X39736456Y-70764115D01*
X39731719Y-70767915D01*
X39727639Y-70770870D01*
X39727623Y-70770884D01*
X39724191Y-70774585D01*
X39719850Y-70778828D01*
X39665782Y-70826729D01*
X39641553Y-70861830D01*
X39630445Y-70875684D01*
X39628257Y-70878043D01*
X39628246Y-70878057D01*
X39421936Y-71176480D01*
X39407619Y-71193646D01*
X39109921Y-71491344D01*
X39097531Y-71501272D01*
X39097702Y-71501479D01*
X39091696Y-71506447D01*
X39080040Y-71518860D01*
X39043573Y-71557693D01*
X39036503Y-71564763D01*
X39022365Y-71578900D01*
X39022363Y-71578902D01*
X39018008Y-71584516D01*
X39014218Y-71588953D01*
X38981782Y-71623494D01*
X38981781Y-71623496D01*
X38971900Y-71641468D01*
X38961225Y-71657719D01*
X38948652Y-71673929D01*
X38948649Y-71673933D01*
X38929827Y-71717428D01*
X38927257Y-71722674D01*
X38904430Y-71764197D01*
X38899329Y-71784064D01*
X38893030Y-71802462D01*
X38884884Y-71821287D01*
X38884881Y-71821296D01*
X38877469Y-71868098D01*
X38876284Y-71873820D01*
X38864500Y-71919711D01*
X38864500Y-71940225D01*
X38862973Y-71959624D01*
X38859765Y-71979877D01*
X38864225Y-72027059D01*
X38864500Y-72032897D01*
X38864500Y-72243087D01*
X38844815Y-72310126D01*
X38842335Y-72313837D01*
X38706688Y-72509082D01*
X38669958Y-72543865D01*
X38666966Y-72545710D01*
X38666957Y-72545717D01*
X38545715Y-72666959D01*
X38545712Y-72666963D01*
X38455702Y-72812890D01*
X38455697Y-72812901D01*
X38401764Y-72975663D01*
X38391500Y-73076120D01*
X38391500Y-73623879D01*
X37500500Y-73623879D01*
X37500500Y-65732500D01*
X37520185Y-65665461D01*
X37572989Y-65619706D01*
X37624500Y-65608500D01*
X38527500Y-65608500D01*
X38594539Y-65628185D01*
G37*
G04 #@! TD.AperFunction*
G04 #@! TA.AperFunction,Conductor*
G36*
X53046999Y-64835630D02*
G01*
X53053900Y-64842917D01*
X53069090Y-64860317D01*
X53193912Y-65003296D01*
X53223172Y-65066744D01*
X53224500Y-65084845D01*
X53224500Y-70367500D01*
X53204815Y-70434539D01*
X53152011Y-70480294D01*
X53100500Y-70491500D01*
X53065013Y-70491500D01*
X52878214Y-70531205D01*
X52703746Y-70608883D01*
X52549245Y-70721135D01*
X52421458Y-70863057D01*
X52421456Y-70863060D01*
X52347884Y-70990490D01*
X52343239Y-70997415D01*
X52339066Y-71002812D01*
X52339065Y-71002815D01*
X52046749Y-71518860D01*
X52026537Y-71545425D01*
X50675345Y-72896617D01*
X50614022Y-72930102D01*
X50544330Y-72925118D01*
X50513353Y-72908203D01*
X50499204Y-72897611D01*
X50362203Y-72846511D01*
X50301654Y-72840000D01*
X50301638Y-72840000D01*
X48454362Y-72840000D01*
X48454345Y-72840000D01*
X48393797Y-72846511D01*
X48393795Y-72846511D01*
X48256795Y-72897611D01*
X48220051Y-72925118D01*
X48142238Y-72983367D01*
X48076777Y-73007784D01*
X48067930Y-73008100D01*
X45886594Y-73008100D01*
X45819555Y-72988415D01*
X45773800Y-72935611D01*
X45763856Y-72866453D01*
X45792881Y-72802897D01*
X45798913Y-72796419D01*
X47466134Y-71129198D01*
X49267075Y-69328256D01*
X49279458Y-69318338D01*
X49279286Y-69318130D01*
X49285292Y-69313159D01*
X49285303Y-69313153D01*
X49333426Y-69261906D01*
X49354639Y-69240694D01*
X49358993Y-69235079D01*
X49362768Y-69230658D01*
X49395217Y-69196106D01*
X49405094Y-69178137D01*
X49415779Y-69161872D01*
X49428350Y-69145667D01*
X49447183Y-69102143D01*
X49449732Y-69096941D01*
X49472569Y-69055403D01*
X49477670Y-69035530D01*
X49483969Y-69017134D01*
X49492117Y-68998308D01*
X49496995Y-68967503D01*
X49499530Y-68951502D01*
X49500715Y-68945778D01*
X49501137Y-68944131D01*
X49512500Y-68899882D01*
X49512500Y-68879374D01*
X49514027Y-68859974D01*
X49517235Y-68839721D01*
X49512775Y-68792539D01*
X49512500Y-68786701D01*
X49512500Y-67832500D01*
X49532185Y-67765461D01*
X49584989Y-67719706D01*
X49636500Y-67708500D01*
X51758638Y-67708500D01*
X51758654Y-67708499D01*
X51785692Y-67705591D01*
X51819201Y-67701989D01*
X51956204Y-67650889D01*
X52073261Y-67563261D01*
X52160889Y-67446204D01*
X52210334Y-67313638D01*
X52211988Y-67309204D01*
X52211988Y-67309203D01*
X52211989Y-67309201D01*
X52215591Y-67275692D01*
X52218499Y-67248654D01*
X52218500Y-67248637D01*
X52218500Y-66297522D01*
X52227064Y-66252240D01*
X52457241Y-65665461D01*
X52751415Y-64915536D01*
X52794221Y-64860317D01*
X52821977Y-64845225D01*
X52915617Y-64808874D01*
X52985236Y-64802963D01*
X53046999Y-64835630D01*
G37*
G04 #@! TD.AperFunction*
G04 #@! TA.AperFunction,Conductor*
G36*
X38594539Y-46628185D02*
G01*
X38640294Y-46680989D01*
X38651500Y-46732500D01*
X38651500Y-48313654D01*
X38658011Y-48374202D01*
X38658011Y-48374204D01*
X38698057Y-48481567D01*
X38709111Y-48511204D01*
X38796739Y-48628261D01*
X38913796Y-48715889D01*
X39050799Y-48766989D01*
X39078050Y-48769918D01*
X39111345Y-48773499D01*
X39111362Y-48773500D01*
X42708638Y-48773500D01*
X42708654Y-48773499D01*
X42735692Y-48770591D01*
X42769201Y-48766989D01*
X42906204Y-48715889D01*
X43023261Y-48628261D01*
X43110889Y-48511204D01*
X43161989Y-48374201D01*
X43165591Y-48340692D01*
X43168499Y-48313654D01*
X43168500Y-48313637D01*
X43168500Y-47546524D01*
X43188185Y-47479485D01*
X43240989Y-47433730D01*
X43310147Y-47423786D01*
X43369810Y-47449575D01*
X43471143Y-47530386D01*
X43698357Y-47661568D01*
X43942584Y-47757420D01*
X44198370Y-47815802D01*
X44198376Y-47815802D01*
X44198379Y-47815803D01*
X44394500Y-47830500D01*
X44394506Y-47830500D01*
X44525500Y-47830500D01*
X44721620Y-47815803D01*
X44721622Y-47815802D01*
X44721630Y-47815802D01*
X44977416Y-47757420D01*
X45221643Y-47661568D01*
X45221646Y-47661566D01*
X45221647Y-47661566D01*
X45264118Y-47637045D01*
X45332018Y-47620571D01*
X45398045Y-47643423D01*
X45437839Y-47690630D01*
X45479767Y-47777695D01*
X45479768Y-47777697D01*
X45479770Y-47777700D01*
X45479772Y-47777704D01*
X45505747Y-47815802D01*
X45627567Y-47994479D01*
X45806014Y-48186801D01*
X45806018Y-48186804D01*
X45806019Y-48186805D01*
X46011143Y-48350386D01*
X46238357Y-48481568D01*
X46482584Y-48577420D01*
X46738370Y-48635802D01*
X46738376Y-48635802D01*
X46738379Y-48635803D01*
X46934500Y-48650500D01*
X46934506Y-48650500D01*
X47065500Y-48650500D01*
X47261620Y-48635803D01*
X47261622Y-48635802D01*
X47261630Y-48635802D01*
X47517416Y-48577420D01*
X47761643Y-48481568D01*
X47988857Y-48350386D01*
X48040188Y-48309450D01*
X48104873Y-48283043D01*
X48173569Y-48295798D01*
X48224463Y-48343669D01*
X48241500Y-48406398D01*
X48241500Y-49505005D01*
X48221815Y-49572044D01*
X48205181Y-49592686D01*
X45383307Y-52414559D01*
X45321984Y-52448044D01*
X45252292Y-52443060D01*
X45213399Y-52419693D01*
X45205430Y-52412633D01*
X45053083Y-52332675D01*
X45053082Y-52332674D01*
X45053079Y-52332673D01*
X44886028Y-52291500D01*
X44713972Y-52291500D01*
X44713968Y-52291500D01*
X44686643Y-52298235D01*
X44681136Y-52299592D01*
X44677438Y-52300385D01*
X44430648Y-52345425D01*
X44338228Y-52362292D01*
X44337170Y-52362485D01*
X44314907Y-52364500D01*
X40933851Y-52364500D01*
X40918076Y-52362758D01*
X40918051Y-52363026D01*
X40910283Y-52362291D01*
X40840029Y-52364500D01*
X40810014Y-52364500D01*
X40802976Y-52365388D01*
X40797159Y-52365846D01*
X40749796Y-52367335D01*
X40730098Y-52373058D01*
X40711051Y-52377002D01*
X40690701Y-52379573D01*
X40690699Y-52379573D01*
X40690697Y-52379574D01*
X40646629Y-52397021D01*
X40641102Y-52398913D01*
X40595609Y-52412130D01*
X40595607Y-52412130D01*
X40595607Y-52412131D01*
X40577950Y-52422573D01*
X40560483Y-52431129D01*
X40541415Y-52438678D01*
X40541411Y-52438681D01*
X40503072Y-52466534D01*
X40498192Y-52469740D01*
X40457400Y-52493865D01*
X40442898Y-52508368D01*
X40428108Y-52521000D01*
X40411515Y-52533055D01*
X40411512Y-52533058D01*
X40381301Y-52569576D01*
X40377369Y-52573897D01*
X39895960Y-53055305D01*
X39860478Y-53080102D01*
X39214308Y-53379978D01*
X39162109Y-53391500D01*
X39076120Y-53391500D01*
X38975663Y-53401764D01*
X38812901Y-53455697D01*
X38812890Y-53455702D01*
X38666963Y-53545712D01*
X38666959Y-53545715D01*
X38545715Y-53666959D01*
X38545712Y-53666963D01*
X38455702Y-53812890D01*
X38455697Y-53812901D01*
X38401764Y-53975663D01*
X38391500Y-54076120D01*
X38391500Y-54623879D01*
X38401764Y-54724336D01*
X38455697Y-54887098D01*
X38455702Y-54887109D01*
X38545712Y-55033036D01*
X38545715Y-55033040D01*
X38666959Y-55154284D01*
X38666963Y-55154287D01*
X38812890Y-55244297D01*
X38812893Y-55244298D01*
X38812899Y-55244302D01*
X38975664Y-55298236D01*
X39076128Y-55308500D01*
X39076133Y-55308500D01*
X39923867Y-55308500D01*
X39923872Y-55308500D01*
X40024336Y-55298236D01*
X40187101Y-55244302D01*
X40333040Y-55154285D01*
X40454285Y-55033040D01*
X40544302Y-54887101D01*
X40598236Y-54724336D01*
X40608500Y-54623872D01*
X40608500Y-54508923D01*
X40615448Y-54467999D01*
X40786036Y-53980078D01*
X40815401Y-53933329D01*
X41076914Y-53671816D01*
X41138236Y-53638334D01*
X41164594Y-53635500D01*
X43242356Y-53635500D01*
X43309395Y-53655185D01*
X43355150Y-53707989D01*
X43365094Y-53777147D01*
X43336069Y-53840703D01*
X43285691Y-53875681D01*
X43226895Y-53897611D01*
X43109839Y-53985239D01*
X43022211Y-54102295D01*
X42971111Y-54239295D01*
X42971111Y-54239297D01*
X42964600Y-54299845D01*
X42964600Y-55209954D01*
X42971111Y-55270502D01*
X42971111Y-55270504D01*
X43022211Y-55407504D01*
X43044276Y-55436979D01*
X43068693Y-55502443D01*
X43053842Y-55570716D01*
X43044278Y-55585598D01*
X43029748Y-55605008D01*
X43029745Y-55605013D01*
X42979503Y-55739720D01*
X42979501Y-55739727D01*
X42973100Y-55799255D01*
X42973100Y-56003500D01*
X44474100Y-56003500D01*
X44541139Y-56023185D01*
X44586894Y-56075989D01*
X44598100Y-56127500D01*
X44598100Y-57159900D01*
X45270928Y-57159900D01*
X45270944Y-57159899D01*
X45330472Y-57153498D01*
X45330479Y-57153496D01*
X45465186Y-57103254D01*
X45465188Y-57103252D01*
X45575555Y-57020633D01*
X45641019Y-56996216D01*
X45649866Y-56995900D01*
X48062052Y-56995900D01*
X48129091Y-57015585D01*
X48136363Y-57020633D01*
X48139737Y-57023159D01*
X48139739Y-57023161D01*
X48256796Y-57110789D01*
X48371297Y-57153496D01*
X48388463Y-57159899D01*
X48393799Y-57161889D01*
X48421050Y-57164818D01*
X48454345Y-57168399D01*
X48454362Y-57168400D01*
X48618500Y-57168400D01*
X48685539Y-57188085D01*
X48731294Y-57240889D01*
X48742500Y-57292400D01*
X48742500Y-58257914D01*
X48722815Y-58324953D01*
X48670011Y-58370708D01*
X48600853Y-58380652D01*
X48537297Y-58351627D01*
X48529368Y-58344120D01*
X48512981Y-58327177D01*
X48276521Y-58140446D01*
X48276517Y-58140443D01*
X48276515Y-58140442D01*
X48017270Y-57986891D01*
X47739872Y-57869264D01*
X47739863Y-57869261D01*
X47449272Y-57789660D01*
X47374616Y-57779620D01*
X47150653Y-57749500D01*
X46924756Y-57749500D01*
X46924748Y-57749500D01*
X46699368Y-57764587D01*
X46699359Y-57764589D01*
X46404094Y-57824604D01*
X46119464Y-57923439D01*
X46119459Y-57923441D01*
X45850546Y-58059328D01*
X45602125Y-58229860D01*
X45378665Y-58431969D01*
X45184132Y-58662064D01*
X45022006Y-58916030D01*
X45022005Y-58916032D01*
X44906842Y-59164205D01*
X44895177Y-59189342D01*
X44895176Y-59189346D01*
X44805907Y-59477118D01*
X44787133Y-59588419D01*
X44755791Y-59774230D01*
X44746249Y-60059654D01*
X44745723Y-60075373D01*
X44775881Y-60375160D01*
X44775882Y-60375162D01*
X44845728Y-60668252D01*
X44845733Y-60668266D01*
X44954020Y-60949427D01*
X44954024Y-60949436D01*
X45098825Y-61213665D01*
X45098829Y-61213671D01*
X45200593Y-61351786D01*
X45277554Y-61456238D01*
X45487020Y-61672824D01*
X45509139Y-61690291D01*
X45723478Y-61859553D01*
X45723480Y-61859554D01*
X45723485Y-61859558D01*
X45982730Y-62013109D01*
X46260128Y-62130736D01*
X46550729Y-62210340D01*
X46849347Y-62250500D01*
X46849351Y-62250500D01*
X47075252Y-62250500D01*
X47239164Y-62239526D01*
X47300634Y-62235412D01*
X47595903Y-62175396D01*
X47880537Y-62076560D01*
X48011404Y-62010430D01*
X48061575Y-61985078D01*
X48130287Y-61972411D01*
X48194939Y-61998904D01*
X48235005Y-62056144D01*
X48241500Y-62095750D01*
X48241500Y-64393601D01*
X48221815Y-64460640D01*
X48169011Y-64506395D01*
X48099853Y-64516339D01*
X48040188Y-64490549D01*
X47988856Y-64449613D01*
X47761643Y-64318432D01*
X47517421Y-64222582D01*
X47517416Y-64222580D01*
X47517411Y-64222578D01*
X47517402Y-64222576D01*
X47299818Y-64172914D01*
X47261630Y-64164198D01*
X47261629Y-64164197D01*
X47261625Y-64164197D01*
X47261620Y-64164196D01*
X47065500Y-64149500D01*
X47065494Y-64149500D01*
X46934506Y-64149500D01*
X46934500Y-64149500D01*
X46738379Y-64164196D01*
X46738374Y-64164197D01*
X46482597Y-64222576D01*
X46482578Y-64222582D01*
X46238363Y-64318429D01*
X46238357Y-64318432D01*
X46195877Y-64342957D01*
X46127977Y-64359427D01*
X46061951Y-64336574D01*
X46022160Y-64289369D01*
X45980232Y-64202303D01*
X45980231Y-64202302D01*
X45980230Y-64202301D01*
X45980228Y-64202296D01*
X45832433Y-63985521D01*
X45742554Y-63888654D01*
X45653985Y-63793198D01*
X45614533Y-63761736D01*
X45448857Y-63629614D01*
X45221643Y-63498432D01*
X44977416Y-63402580D01*
X44977411Y-63402578D01*
X44977402Y-63402576D01*
X44759818Y-63352914D01*
X44721630Y-63344198D01*
X44721629Y-63344197D01*
X44721625Y-63344197D01*
X44721620Y-63344196D01*
X44525500Y-63329500D01*
X44525494Y-63329500D01*
X44394506Y-63329500D01*
X44394500Y-63329500D01*
X44198379Y-63344196D01*
X44198374Y-63344197D01*
X43942585Y-63402579D01*
X43858890Y-63435426D01*
X43789293Y-63441593D01*
X43727410Y-63409155D01*
X43695098Y-63356547D01*
X43676826Y-63297311D01*
X43634063Y-63158677D01*
X43594461Y-63076442D01*
X43520232Y-62922303D01*
X43520231Y-62922302D01*
X43520230Y-62922301D01*
X43520228Y-62922296D01*
X43372433Y-62705521D01*
X43362441Y-62694753D01*
X43193985Y-62513198D01*
X43116445Y-62451362D01*
X42988857Y-62349614D01*
X42761643Y-62218432D01*
X42517416Y-62122580D01*
X42517411Y-62122578D01*
X42517402Y-62122576D01*
X42299818Y-62072914D01*
X42261630Y-62064198D01*
X42261629Y-62064197D01*
X42261625Y-62064197D01*
X42261620Y-62064196D01*
X42065500Y-62049500D01*
X42065494Y-62049500D01*
X41934506Y-62049500D01*
X41934500Y-62049500D01*
X41738379Y-62064196D01*
X41738374Y-62064197D01*
X41482597Y-62122576D01*
X41482578Y-62122582D01*
X41238356Y-62218432D01*
X41011143Y-62349614D01*
X40806014Y-62513198D01*
X40627567Y-62705520D01*
X40592578Y-62756841D01*
X40544952Y-62826694D01*
X40490925Y-62870995D01*
X40421521Y-62879054D01*
X40358779Y-62848311D01*
X40322617Y-62788527D01*
X40318500Y-62756841D01*
X40318500Y-62451362D01*
X40318499Y-62451345D01*
X40315157Y-62420270D01*
X40311989Y-62390799D01*
X40260889Y-62253796D01*
X40173261Y-62136739D01*
X40102921Y-62084083D01*
X40056206Y-62049112D01*
X40056204Y-62049111D01*
X39919201Y-61998011D01*
X39919196Y-61998010D01*
X39919194Y-61998010D01*
X39907012Y-61996700D01*
X39842461Y-61969961D01*
X39828075Y-61956333D01*
X39741237Y-61859784D01*
X39717011Y-61834624D01*
X39598704Y-61748821D01*
X39598699Y-61748818D01*
X39598695Y-61748815D01*
X39597377Y-61748121D01*
X39591523Y-61745038D01*
X39560017Y-61729796D01*
X39560013Y-61729795D01*
X39419296Y-61690291D01*
X39416919Y-61689978D01*
X39416184Y-61689652D01*
X39414961Y-61689402D01*
X39415015Y-61689135D01*
X39353026Y-61661705D01*
X39314560Y-61603376D01*
X39309140Y-61564675D01*
X39309331Y-61554660D01*
X39305265Y-61534289D01*
X39280719Y-61411329D01*
X39277734Y-61402886D01*
X39277729Y-61402873D01*
X39277729Y-61402872D01*
X39256673Y-61352136D01*
X39256671Y-61352132D01*
X39256440Y-61351786D01*
X39256374Y-61351576D01*
X39253796Y-61346760D01*
X39254709Y-61346271D01*
X39235521Y-61285122D01*
X39235500Y-61282832D01*
X39235500Y-59940346D01*
X40295702Y-59940346D01*
X40305819Y-60178528D01*
X40305819Y-60178532D01*
X40356045Y-60411580D01*
X40440877Y-60622689D01*
X40444936Y-60632790D01*
X40569931Y-60835795D01*
X40727436Y-61014755D01*
X40912920Y-61164523D01*
X41121046Y-61280790D01*
X41306375Y-61346271D01*
X41345829Y-61360211D01*
X41580790Y-61400499D01*
X41580798Y-61400499D01*
X41580800Y-61400500D01*
X41580801Y-61400500D01*
X41759502Y-61400500D01*
X41937536Y-61385347D01*
X41937539Y-61385346D01*
X41937541Y-61385346D01*
X42168249Y-61325275D01*
X42311894Y-61260343D01*
X42385480Y-61227080D01*
X42385481Y-61227078D01*
X42385486Y-61227077D01*
X42583003Y-61093579D01*
X42755118Y-60928621D01*
X42896879Y-60736947D01*
X43004207Y-60524074D01*
X43074016Y-60296123D01*
X43104298Y-60059654D01*
X43094180Y-59821468D01*
X43083999Y-59774230D01*
X43043954Y-59588419D01*
X42955064Y-59367211D01*
X42955064Y-59367210D01*
X42830069Y-59164205D01*
X42672564Y-58985245D01*
X42487080Y-58835477D01*
X42366247Y-58767975D01*
X42278955Y-58719210D01*
X42054170Y-58639788D01*
X41819209Y-58599500D01*
X41819200Y-58599500D01*
X41640503Y-58599500D01*
X41640498Y-58599500D01*
X41462463Y-58614652D01*
X41231751Y-58674724D01*
X41014519Y-58772919D01*
X41014511Y-58772924D01*
X40817006Y-58906413D01*
X40816997Y-58906421D01*
X40644881Y-59071379D01*
X40503123Y-59263050D01*
X40503120Y-59263054D01*
X40395796Y-59475920D01*
X40395793Y-59475926D01*
X40325983Y-59703878D01*
X40295702Y-59940346D01*
X39235500Y-59940346D01*
X39235500Y-58954509D01*
X39255185Y-58887470D01*
X39307299Y-58842032D01*
X39785688Y-58620021D01*
X39837887Y-58608500D01*
X39923867Y-58608500D01*
X39923872Y-58608500D01*
X40024336Y-58598236D01*
X40187101Y-58544302D01*
X40333040Y-58454285D01*
X40454285Y-58333040D01*
X40544302Y-58187101D01*
X40598236Y-58024336D01*
X40608500Y-57923872D01*
X40608500Y-57376128D01*
X40598236Y-57275664D01*
X40544302Y-57112899D01*
X40544298Y-57112893D01*
X40544297Y-57112890D01*
X40454287Y-56966963D01*
X40454284Y-56966959D01*
X40333040Y-56845715D01*
X40333036Y-56845712D01*
X40187109Y-56755702D01*
X40187103Y-56755699D01*
X40187101Y-56755698D01*
X40024336Y-56701764D01*
X39923879Y-56691500D01*
X39923872Y-56691500D01*
X39076128Y-56691500D01*
X39076120Y-56691500D01*
X38975663Y-56701764D01*
X38812901Y-56755697D01*
X38812890Y-56755702D01*
X38666963Y-56845712D01*
X38666959Y-56845715D01*
X38545715Y-56966959D01*
X38545712Y-56966963D01*
X38455702Y-57112890D01*
X38455697Y-57112901D01*
X38401764Y-57275663D01*
X38391500Y-57376120D01*
X38391500Y-57491071D01*
X38384552Y-57531995D01*
X38215495Y-58015533D01*
X38188836Y-58059492D01*
X38143573Y-58107693D01*
X38122366Y-58128900D01*
X38122363Y-58128902D01*
X38118008Y-58134516D01*
X38114218Y-58138953D01*
X38081782Y-58173494D01*
X38081781Y-58173496D01*
X38071900Y-58191468D01*
X38061225Y-58207719D01*
X38048652Y-58223929D01*
X38048649Y-58223933D01*
X38029827Y-58267428D01*
X38027257Y-58272674D01*
X38004430Y-58314197D01*
X37999329Y-58334064D01*
X37993030Y-58352462D01*
X37984884Y-58371287D01*
X37984881Y-58371296D01*
X37977469Y-58418098D01*
X37976284Y-58423820D01*
X37964500Y-58469711D01*
X37964500Y-58490225D01*
X37962972Y-58509624D01*
X37959765Y-58529879D01*
X37963650Y-58570979D01*
X37964225Y-58577059D01*
X37964500Y-58582897D01*
X37964500Y-61260343D01*
X37944815Y-61327382D01*
X37935108Y-61340501D01*
X37719108Y-61595439D01*
X37660753Y-61633863D01*
X37590887Y-61634638D01*
X37531694Y-61597518D01*
X37501965Y-61534289D01*
X37500500Y-61515281D01*
X37500500Y-56428133D01*
X41025668Y-56428133D01*
X41041058Y-56515410D01*
X41056135Y-56600911D01*
X41125623Y-56762004D01*
X41125624Y-56762006D01*
X41125626Y-56762009D01*
X41229836Y-56901986D01*
X41230390Y-56902730D01*
X41364786Y-57015502D01*
X41442488Y-57054525D01*
X41521562Y-57094238D01*
X41521563Y-57094238D01*
X41521567Y-57094240D01*
X41692279Y-57134700D01*
X41692282Y-57134700D01*
X41823701Y-57134700D01*
X41823709Y-57134700D01*
X41954255Y-57119441D01*
X42119117Y-57059437D01*
X42265696Y-56963030D01*
X42386092Y-56835418D01*
X42473812Y-56683481D01*
X42524130Y-56515410D01*
X42524824Y-56503500D01*
X42973100Y-56503500D01*
X42973100Y-56707744D01*
X42979501Y-56767272D01*
X42979503Y-56767279D01*
X43029745Y-56901986D01*
X43029749Y-56901993D01*
X43115909Y-57017087D01*
X43115912Y-57017090D01*
X43231006Y-57103250D01*
X43231013Y-57103254D01*
X43365720Y-57153496D01*
X43365727Y-57153498D01*
X43425255Y-57159899D01*
X43425272Y-57159900D01*
X44098100Y-57159900D01*
X44098100Y-56503500D01*
X42973100Y-56503500D01*
X42524824Y-56503500D01*
X42534331Y-56340265D01*
X42503865Y-56167489D01*
X42434377Y-56006396D01*
X42329610Y-55865670D01*
X42257747Y-55805370D01*
X42195214Y-55752898D01*
X42195212Y-55752897D01*
X42038437Y-55674161D01*
X42038433Y-55674160D01*
X41867721Y-55633700D01*
X41736291Y-55633700D01*
X41631854Y-55645907D01*
X41605743Y-55648959D01*
X41605740Y-55648960D01*
X41440884Y-55708962D01*
X41440880Y-55708964D01*
X41294306Y-55805367D01*
X41294305Y-55805368D01*
X41173910Y-55932978D01*
X41086188Y-56084918D01*
X41035870Y-56252989D01*
X41035869Y-56252994D01*
X41025668Y-56428133D01*
X37500500Y-56428133D01*
X37500500Y-46732500D01*
X37520185Y-46665461D01*
X37572989Y-46619706D01*
X37624500Y-46608500D01*
X38527500Y-46608500D01*
X38594539Y-46628185D01*
G37*
G04 #@! TD.AperFunction*
G04 #@! TA.AperFunction,Conductor*
G36*
X53046999Y-45835630D02*
G01*
X53053900Y-45842917D01*
X53069090Y-45860317D01*
X53193912Y-46003296D01*
X53223172Y-46066744D01*
X53224500Y-46084845D01*
X53224500Y-51167500D01*
X53204815Y-51234539D01*
X53152011Y-51280294D01*
X53100500Y-51291500D01*
X53065013Y-51291500D01*
X52878214Y-51331205D01*
X52703746Y-51408883D01*
X52549245Y-51521135D01*
X52421458Y-51663057D01*
X52421456Y-51663060D01*
X52347884Y-51790490D01*
X52343239Y-51797415D01*
X52339066Y-51802812D01*
X52339065Y-51802815D01*
X52046749Y-52318860D01*
X52026537Y-52345425D01*
X50537453Y-53834510D01*
X50476130Y-53867995D01*
X50406439Y-53863011D01*
X50362198Y-53846510D01*
X50362199Y-53846510D01*
X50301654Y-53840000D01*
X50301638Y-53840000D01*
X50252491Y-53840000D01*
X50246270Y-53839687D01*
X50233143Y-53838364D01*
X50233140Y-53838364D01*
X50224196Y-53838743D01*
X50224187Y-53838743D01*
X50224183Y-53838744D01*
X50224186Y-53838744D01*
X50214109Y-53839714D01*
X50208162Y-53840000D01*
X48454345Y-53840000D01*
X48393797Y-53846511D01*
X48393795Y-53846511D01*
X48256795Y-53897611D01*
X48209089Y-53933324D01*
X48142238Y-53983367D01*
X48076777Y-54007784D01*
X48067930Y-54008100D01*
X45886594Y-54008100D01*
X45819555Y-53988415D01*
X45773800Y-53935611D01*
X45763856Y-53866453D01*
X45792881Y-53802897D01*
X45798913Y-53796419D01*
X47303832Y-52291500D01*
X49267075Y-50328256D01*
X49279458Y-50318338D01*
X49279286Y-50318130D01*
X49285292Y-50313159D01*
X49285303Y-50313153D01*
X49333426Y-50261906D01*
X49354639Y-50240694D01*
X49358993Y-50235079D01*
X49362768Y-50230658D01*
X49395217Y-50196106D01*
X49405094Y-50178137D01*
X49415779Y-50161872D01*
X49428350Y-50145667D01*
X49447183Y-50102143D01*
X49449732Y-50096941D01*
X49472569Y-50055403D01*
X49477670Y-50035530D01*
X49483969Y-50017134D01*
X49492117Y-49998308D01*
X49496995Y-49967503D01*
X49499530Y-49951502D01*
X49500715Y-49945778D01*
X49501137Y-49944131D01*
X49512500Y-49899882D01*
X49512500Y-49879374D01*
X49514027Y-49859974D01*
X49517235Y-49839721D01*
X49512775Y-49792539D01*
X49512500Y-49786701D01*
X49512500Y-48832500D01*
X49532185Y-48765461D01*
X49584989Y-48719706D01*
X49636500Y-48708500D01*
X51758638Y-48708500D01*
X51758654Y-48708499D01*
X51785692Y-48705591D01*
X51819201Y-48701989D01*
X51956204Y-48650889D01*
X52073261Y-48563261D01*
X52160889Y-48446204D01*
X52210334Y-48313638D01*
X52211988Y-48309204D01*
X52211988Y-48309203D01*
X52211989Y-48309201D01*
X52215591Y-48275692D01*
X52218499Y-48248654D01*
X52218500Y-48248637D01*
X52218500Y-47297522D01*
X52227064Y-47252240D01*
X52457241Y-46665461D01*
X52751415Y-45915536D01*
X52794221Y-45860317D01*
X52821977Y-45845225D01*
X52915617Y-45808874D01*
X52985236Y-45802963D01*
X53046999Y-45835630D01*
G37*
G04 #@! TD.AperFunction*
G04 #@! TA.AperFunction,Conductor*
G36*
X39493380Y-76648857D02*
G01*
X39501434Y-76652768D01*
X39503503Y-76656079D01*
X39682129Y-77089644D01*
X39682112Y-77098599D01*
X39676236Y-77104714D01*
X38841464Y-77492115D01*
X38832517Y-77492489D01*
X38828266Y-77489775D01*
X38659639Y-77321148D01*
X38656212Y-77312875D01*
X38656867Y-77309017D01*
X38897083Y-76621945D01*
X38903048Y-76615267D01*
X38908820Y-76614128D01*
X39493380Y-76648857D01*
G37*
G04 #@! TD.AperFunction*
G04 #@! TA.AperFunction,Conductor*
G36*
X38789955Y-118503427D02*
G01*
X38790496Y-118504005D01*
X39653694Y-119492777D01*
X39656553Y-119501264D01*
X39654156Y-119507602D01*
X38669276Y-120788931D01*
X38661518Y-120793402D01*
X38652870Y-120791077D01*
X38650724Y-120788931D01*
X37665843Y-119507602D01*
X37663518Y-119498954D01*
X37666304Y-119492778D01*
X38529504Y-118504005D01*
X38537526Y-118500027D01*
X38538318Y-118500000D01*
X38781682Y-118500000D01*
X38789955Y-118503427D01*
G37*
G04 #@! TD.AperFunction*
G04 #@! TA.AperFunction,Conductor*
G36*
X38730060Y-61503427D02*
G01*
X38730486Y-61503876D01*
X38793601Y-61574050D01*
X38796586Y-61582493D01*
X38796502Y-61583400D01*
X38794318Y-61599998D01*
X38794318Y-61599999D01*
X38814955Y-61756759D01*
X38814958Y-61756768D01*
X38875459Y-61902832D01*
X38875463Y-61902838D01*
X38875464Y-61902841D01*
X38971718Y-62028282D01*
X39097159Y-62124536D01*
X39097163Y-62124537D01*
X39097167Y-62124540D01*
X39224573Y-62177312D01*
X39243238Y-62185044D01*
X39352274Y-62199398D01*
X39359445Y-62203174D01*
X39620014Y-62492883D01*
X39622999Y-62501326D01*
X39620707Y-62507684D01*
X38669077Y-63788779D01*
X38661393Y-63793377D01*
X38652708Y-63791194D01*
X38650526Y-63789083D01*
X37631710Y-62507515D01*
X37629246Y-62498908D01*
X37631942Y-62492675D01*
X38469495Y-61504137D01*
X38477458Y-61500040D01*
X38478422Y-61500000D01*
X38721787Y-61500000D01*
X38730060Y-61503427D01*
G37*
G04 #@! TD.AperFunction*
G04 #@! TA.AperFunction,Conductor*
G36*
X50258788Y-111354387D02*
G01*
X50495730Y-111595364D01*
X50754081Y-111853715D01*
X50757508Y-111861988D01*
X50754081Y-111870261D01*
X50751413Y-111872258D01*
X50258070Y-112141476D01*
X50249166Y-112142431D01*
X50247719Y-112141900D01*
X49400832Y-111766053D01*
X49394660Y-111759565D01*
X49394884Y-111750613D01*
X49400643Y-111744751D01*
X50245514Y-111351979D01*
X50254459Y-111351600D01*
X50258788Y-111354387D01*
G37*
G04 #@! TD.AperFunction*
G04 #@! TA.AperFunction,Conductor*
G36*
X40066918Y-71167089D02*
G01*
X40068497Y-71168399D01*
X40200707Y-71299293D01*
X40331600Y-71431502D01*
X40334986Y-71439793D01*
X40331518Y-71448048D01*
X40329939Y-71449358D01*
X40014987Y-71667095D01*
X40006233Y-71668981D01*
X40000061Y-71665744D01*
X39834255Y-71499938D01*
X39830828Y-71491665D01*
X39832902Y-71485015D01*
X40050642Y-71170059D01*
X40058164Y-71165203D01*
X40066918Y-71167089D01*
G37*
G04 #@! TD.AperFunction*
G04 #@! TA.AperFunction,Conductor*
G36*
X39809078Y-82394998D02*
G01*
X39814572Y-82400451D01*
X40603270Y-84024811D01*
X40603801Y-84033750D01*
X40601018Y-84038194D01*
X40431061Y-84208151D01*
X40422788Y-84211578D01*
X40422004Y-84211552D01*
X38772062Y-84100677D01*
X38764037Y-84096703D01*
X38761182Y-84089925D01*
X38659999Y-82808239D01*
X38662764Y-82799723D01*
X38667750Y-82796292D01*
X39800137Y-82394534D01*
X39809078Y-82394998D01*
G37*
G04 #@! TD.AperFunction*
G04 #@! TA.AperFunction,Conductor*
G36*
X39493380Y-95648857D02*
G01*
X39501434Y-95652768D01*
X39503503Y-95656079D01*
X39682129Y-96089644D01*
X39682112Y-96098599D01*
X39676236Y-96104714D01*
X38841464Y-96492115D01*
X38832517Y-96492489D01*
X38828266Y-96489775D01*
X38659639Y-96321148D01*
X38656212Y-96312875D01*
X38656867Y-96309017D01*
X38897083Y-95621945D01*
X38903048Y-95615267D01*
X38908820Y-95614128D01*
X39493380Y-95648857D01*
G37*
G04 #@! TD.AperFunction*
G04 #@! TA.AperFunction,Conductor*
G36*
X53867203Y-100548868D02*
G01*
X53869366Y-100550998D01*
X54869715Y-101832436D01*
X54872104Y-101841066D01*
X54869358Y-101847271D01*
X54018000Y-102835935D01*
X54010005Y-102839968D01*
X54009134Y-102840000D01*
X53765769Y-102840000D01*
X53757496Y-102836573D01*
X53757008Y-102836054D01*
X52881826Y-101847174D01*
X52878909Y-101838708D01*
X52881255Y-101832363D01*
X53850815Y-100551136D01*
X53858538Y-100546609D01*
X53867203Y-100548868D01*
G37*
G04 #@! TD.AperFunction*
G04 #@! TA.AperFunction,Conductor*
G36*
X44795022Y-52804391D02*
G01*
X44799879Y-52811914D01*
X44800069Y-52813956D01*
X44801000Y-53000000D01*
X44800069Y-53186043D01*
X44796601Y-53194298D01*
X44788310Y-53197684D01*
X44786268Y-53197494D01*
X44409599Y-53128751D01*
X44402076Y-53123894D01*
X44400000Y-53117241D01*
X44400000Y-52882758D01*
X44403427Y-52874485D01*
X44409598Y-52871248D01*
X44786270Y-52802505D01*
X44795022Y-52804391D01*
G37*
G04 #@! TD.AperFunction*
G04 #@! TA.AperFunction,Conductor*
G36*
X52329331Y-63956016D02*
G01*
X52332470Y-63958257D01*
X52501493Y-64127280D01*
X52504920Y-64135553D01*
X52504112Y-64139826D01*
X51713680Y-66154832D01*
X51707469Y-66161282D01*
X51700176Y-66161964D01*
X50567596Y-65902608D01*
X50560297Y-65897421D01*
X50558552Y-65892220D01*
X50446580Y-64609105D01*
X50449275Y-64600568D01*
X50454431Y-64597027D01*
X52320395Y-63955466D01*
X52329331Y-63956016D01*
G37*
G04 #@! TD.AperFunction*
G04 #@! TA.AperFunction,Conductor*
G36*
X49386263Y-37260783D02*
G01*
X49386283Y-37260803D01*
X49777535Y-37653018D01*
X49780952Y-37661295D01*
X49778893Y-37667909D01*
X49508487Y-38061228D01*
X49500976Y-38066104D01*
X49498846Y-38066300D01*
X49257154Y-38066300D01*
X49248881Y-38062873D01*
X49247513Y-38061228D01*
X48977106Y-37667909D01*
X48975243Y-37659151D01*
X48978462Y-37653020D01*
X49369717Y-37260802D01*
X49377986Y-37257366D01*
X49386263Y-37260783D01*
G37*
G04 #@! TD.AperFunction*
G04 #@! TA.AperFunction,Conductor*
G36*
X53851874Y-100537835D02*
G01*
X53859479Y-100542563D01*
X53861609Y-100548200D01*
X53991583Y-101831137D01*
X53989008Y-101839713D01*
X53984177Y-101843223D01*
X52049808Y-102594148D01*
X52040856Y-102593947D01*
X52037301Y-102591514D01*
X51868463Y-102422676D01*
X51865036Y-102414403D01*
X51865812Y-102410214D01*
X52149451Y-101671257D01*
X52151788Y-101667505D01*
X52182433Y-101634479D01*
X52330228Y-101417704D01*
X52444063Y-101181323D01*
X52521396Y-100930615D01*
X52532683Y-100855731D01*
X52560499Y-100671192D01*
X52560500Y-100671180D01*
X52560500Y-100602530D01*
X52561276Y-100598339D01*
X52656582Y-100350041D01*
X52662746Y-100343547D01*
X52669410Y-100342691D01*
X53851874Y-100537835D01*
G37*
G04 #@! TD.AperFunction*
G04 #@! TA.AperFunction,Conductor*
G36*
X53867130Y-43548922D02*
G01*
X53869276Y-43551068D01*
X54854156Y-44832397D01*
X54856481Y-44841045D01*
X54853694Y-44847222D01*
X53990496Y-45835995D01*
X53982474Y-45839973D01*
X53981682Y-45840000D01*
X53738318Y-45840000D01*
X53730045Y-45836573D01*
X53729504Y-45835995D01*
X52866305Y-44847222D01*
X52863446Y-44838735D01*
X52865842Y-44832399D01*
X53850724Y-43551067D01*
X53858482Y-43546597D01*
X53867130Y-43548922D01*
G37*
G04 #@! TD.AperFunction*
G04 #@! TA.AperFunction,Conductor*
G36*
X49386263Y-75260783D02*
G01*
X49386283Y-75260803D01*
X49777535Y-75653018D01*
X49780952Y-75661295D01*
X49778893Y-75667909D01*
X49508487Y-76061228D01*
X49500976Y-76066104D01*
X49498846Y-76066300D01*
X49257154Y-76066300D01*
X49248881Y-76062873D01*
X49247513Y-76061228D01*
X48977106Y-75667909D01*
X48975243Y-75659151D01*
X48978462Y-75653020D01*
X49369717Y-75260802D01*
X49377986Y-75257366D01*
X49386263Y-75260783D01*
G37*
G04 #@! TD.AperFunction*
G04 #@! TA.AperFunction,Conductor*
G36*
X50258754Y-54353753D02*
G01*
X50508842Y-54582065D01*
X50509034Y-54582249D01*
X50767242Y-54840457D01*
X50770669Y-54848730D01*
X50767242Y-54857003D01*
X50764531Y-54859024D01*
X50258001Y-55132698D01*
X50249093Y-55133615D01*
X50247784Y-55133138D01*
X49401189Y-54765970D01*
X49394962Y-54759534D01*
X49395110Y-54750581D01*
X49400910Y-54744627D01*
X50245936Y-54351783D01*
X50254880Y-54351404D01*
X50258754Y-54353753D01*
G37*
G04 #@! TD.AperFunction*
G04 #@! TA.AperFunction,Conductor*
G36*
X54017407Y-117243427D02*
G01*
X54018000Y-117244065D01*
X54869358Y-118232728D01*
X54872160Y-118241234D01*
X54869715Y-118247563D01*
X53869366Y-119529001D01*
X53861573Y-119533413D01*
X53852943Y-119531024D01*
X53850816Y-119528864D01*
X52905070Y-118279106D01*
X52902812Y-118270443D01*
X52907341Y-118262718D01*
X52909574Y-118261391D01*
X52972985Y-118232728D01*
X52985478Y-118227081D01*
X52985479Y-118227080D01*
X52985486Y-118227077D01*
X53183003Y-118093579D01*
X53355118Y-117928621D01*
X53496879Y-117736947D01*
X53604207Y-117524074D01*
X53653796Y-117362147D01*
X53656213Y-117357834D01*
X53745763Y-117256651D01*
X53757008Y-117243946D01*
X53765057Y-117240022D01*
X53765769Y-117240000D01*
X54009134Y-117240000D01*
X54017407Y-117243427D01*
G37*
G04 #@! TD.AperFunction*
G04 #@! TA.AperFunction,Conductor*
G36*
X38729080Y-81997785D02*
G01*
X38781723Y-82018689D01*
X40250431Y-82601918D01*
X40256854Y-82608155D01*
X40257681Y-82614535D01*
X40249500Y-82668807D01*
X40249500Y-82931192D01*
X40288602Y-83190607D01*
X40288604Y-83190615D01*
X40365937Y-83441323D01*
X40365939Y-83441328D01*
X40365941Y-83441332D01*
X40479770Y-83677701D01*
X40479772Y-83677704D01*
X40627567Y-83894479D01*
X40790974Y-84070590D01*
X40806018Y-84086804D01*
X40850852Y-84122558D01*
X40855141Y-84130058D01*
X40907565Y-84498872D01*
X40905336Y-84507546D01*
X40897628Y-84512103D01*
X40893197Y-84511883D01*
X39166304Y-84088765D01*
X39159084Y-84083468D01*
X39157973Y-84081054D01*
X38478046Y-82012312D01*
X38478718Y-82003383D01*
X38485508Y-81997544D01*
X38489161Y-81996959D01*
X38724762Y-81996959D01*
X38729080Y-81997785D01*
G37*
G04 #@! TD.AperFunction*
G04 #@! TA.AperFunction,Conductor*
G36*
X50258130Y-35351225D02*
G01*
X50653189Y-35561100D01*
X50658888Y-35568007D01*
X50659400Y-35571432D01*
X50659400Y-35938367D01*
X50655973Y-35946640D01*
X50653189Y-35948699D01*
X50258136Y-36158571D01*
X50249222Y-36159427D01*
X50247723Y-36158852D01*
X49399875Y-35765512D01*
X49393813Y-35758923D01*
X49394187Y-35749976D01*
X49399876Y-35744287D01*
X50247725Y-35350946D01*
X50256670Y-35350573D01*
X50258130Y-35351225D01*
G37*
G04 #@! TD.AperFunction*
G04 #@! TA.AperFunction,Conductor*
G36*
X38729080Y-100997785D02*
G01*
X38781723Y-101018689D01*
X40250431Y-101601918D01*
X40256854Y-101608155D01*
X40257681Y-101614535D01*
X40249500Y-101668807D01*
X40249500Y-101931192D01*
X40288602Y-102190607D01*
X40288604Y-102190615D01*
X40365937Y-102441323D01*
X40365939Y-102441328D01*
X40365941Y-102441332D01*
X40479770Y-102677701D01*
X40479772Y-102677704D01*
X40627567Y-102894479D01*
X40790974Y-103070590D01*
X40806018Y-103086804D01*
X40850852Y-103122558D01*
X40855141Y-103130058D01*
X40907565Y-103498872D01*
X40905336Y-103507546D01*
X40897628Y-103512103D01*
X40893197Y-103511883D01*
X39166304Y-103088765D01*
X39159084Y-103083468D01*
X39157973Y-103081054D01*
X38478046Y-101012312D01*
X38478718Y-101003383D01*
X38485508Y-100997544D01*
X38489161Y-100996959D01*
X38724762Y-100996959D01*
X38729080Y-100997785D01*
G37*
G04 #@! TD.AperFunction*
G04 #@! TA.AperFunction,Conductor*
G36*
X53989955Y-79243427D02*
G01*
X53990496Y-79244005D01*
X54853694Y-80232777D01*
X54856553Y-80241264D01*
X54854156Y-80247602D01*
X53869275Y-81528931D01*
X53861517Y-81533402D01*
X53852869Y-81531077D01*
X53850723Y-81528931D01*
X52893983Y-80284212D01*
X52891659Y-80275566D01*
X52896130Y-80267808D01*
X52898433Y-80266427D01*
X52962893Y-80237289D01*
X52985478Y-80227081D01*
X52985479Y-80227080D01*
X52985486Y-80227077D01*
X53183003Y-80093579D01*
X53355118Y-79928621D01*
X53496879Y-79736947D01*
X53604207Y-79524074D01*
X53667889Y-79316129D01*
X53670255Y-79311872D01*
X53729504Y-79244005D01*
X53737527Y-79240027D01*
X53738318Y-79240000D01*
X53981682Y-79240000D01*
X53989955Y-79243427D01*
G37*
G04 #@! TD.AperFunction*
G04 #@! TA.AperFunction,Conductor*
G36*
X40686043Y-90099930D02*
G01*
X40694298Y-90103398D01*
X40697684Y-90111689D01*
X40697494Y-90113731D01*
X40628752Y-90490401D01*
X40623895Y-90497924D01*
X40617242Y-90500000D01*
X40382758Y-90500000D01*
X40374485Y-90496573D01*
X40371248Y-90490401D01*
X40302505Y-90113728D01*
X40304391Y-90104977D01*
X40311914Y-90100120D01*
X40313953Y-90099930D01*
X40500000Y-90099000D01*
X40686043Y-90099930D01*
G37*
G04 #@! TD.AperFunction*
G04 #@! TA.AperFunction,Conductor*
G36*
X38730060Y-99503427D02*
G01*
X38730487Y-99503877D01*
X38732753Y-99506397D01*
X38735653Y-99512693D01*
X38741455Y-99556763D01*
X38741456Y-99556764D01*
X38801959Y-99702832D01*
X38801963Y-99702838D01*
X38801964Y-99702841D01*
X38898218Y-99828282D01*
X39023659Y-99924536D01*
X39023663Y-99924537D01*
X39023667Y-99924540D01*
X39080334Y-99948011D01*
X39156960Y-99979751D01*
X39161176Y-99982732D01*
X39619825Y-100492673D01*
X39620014Y-100492883D01*
X39622999Y-100501326D01*
X39620707Y-100507684D01*
X38669077Y-101788779D01*
X38661393Y-101793377D01*
X38652708Y-101791194D01*
X38650526Y-101789083D01*
X37631710Y-100507515D01*
X37629246Y-100498908D01*
X37631942Y-100492675D01*
X38469495Y-99504137D01*
X38477458Y-99500040D01*
X38478422Y-99500000D01*
X38721787Y-99500000D01*
X38730060Y-99503427D01*
G37*
G04 #@! TD.AperFunction*
G04 #@! TA.AperFunction,Conductor*
G36*
X50258043Y-73381915D02*
G01*
X50653471Y-73606138D01*
X50658977Y-73613200D01*
X50659400Y-73616316D01*
X50659400Y-73982726D01*
X50655973Y-73990999D01*
X50652233Y-73993512D01*
X50257766Y-74159296D01*
X50248811Y-74159342D01*
X50248309Y-74159123D01*
X49400776Y-73765930D01*
X49394713Y-73759340D01*
X49395087Y-73750393D01*
X49401085Y-73744566D01*
X50247667Y-73381343D01*
X50256618Y-73381231D01*
X50258043Y-73381915D01*
G37*
G04 #@! TD.AperFunction*
G04 #@! TA.AperFunction,Conductor*
G36*
X52329211Y-120896036D02*
G01*
X52332615Y-120898402D01*
X52501537Y-121067324D01*
X52504964Y-121075597D01*
X52504188Y-121079788D01*
X51713594Y-123140698D01*
X51707431Y-123147194D01*
X51700192Y-123147942D01*
X50567595Y-122902506D01*
X50560235Y-122897404D01*
X50558433Y-122892257D01*
X50427954Y-121608994D01*
X50430526Y-121600418D01*
X50435511Y-121596848D01*
X52320266Y-120895709D01*
X52329211Y-120896036D01*
G37*
G04 #@! TD.AperFunction*
G04 #@! TA.AperFunction,Conductor*
G36*
X48245867Y-33934297D02*
G01*
X48250899Y-33939975D01*
X48399123Y-34295498D01*
X48399144Y-34304452D01*
X48399123Y-34304502D01*
X48250899Y-34660024D01*
X48244552Y-34666342D01*
X48236979Y-34666798D01*
X47608579Y-34492874D01*
X47601520Y-34487365D01*
X47600000Y-34481598D01*
X47600000Y-34118401D01*
X47603427Y-34110128D01*
X47608577Y-34107126D01*
X48236979Y-33933201D01*
X48245867Y-33934297D01*
G37*
G04 #@! TD.AperFunction*
G04 #@! TA.AperFunction,Conductor*
G36*
X53851874Y-81537835D02*
G01*
X53859479Y-81542563D01*
X53861609Y-81548200D01*
X53991583Y-82831137D01*
X53989008Y-82839713D01*
X53984177Y-82843223D01*
X52049808Y-83594148D01*
X52040856Y-83593947D01*
X52037301Y-83591514D01*
X51868463Y-83422676D01*
X51865036Y-83414403D01*
X51865812Y-83410214D01*
X52149451Y-82671257D01*
X52151788Y-82667505D01*
X52182433Y-82634479D01*
X52330228Y-82417704D01*
X52444063Y-82181323D01*
X52521396Y-81930615D01*
X52532683Y-81855731D01*
X52560499Y-81671192D01*
X52560500Y-81671180D01*
X52560500Y-81602530D01*
X52561276Y-81598339D01*
X52656582Y-81350041D01*
X52662746Y-81343547D01*
X52669410Y-81342691D01*
X53851874Y-81537835D01*
G37*
G04 #@! TD.AperFunction*
G04 #@! TA.AperFunction,Conductor*
G36*
X38730060Y-80503427D02*
G01*
X38730486Y-80503876D01*
X38793601Y-80574050D01*
X38796586Y-80582493D01*
X38796502Y-80583400D01*
X38794318Y-80599998D01*
X38794318Y-80599999D01*
X38814955Y-80756759D01*
X38814958Y-80756768D01*
X38875459Y-80902832D01*
X38875463Y-80902838D01*
X38875464Y-80902841D01*
X38971718Y-81028282D01*
X39097159Y-81124536D01*
X39097163Y-81124537D01*
X39097167Y-81124540D01*
X39224573Y-81177312D01*
X39243238Y-81185044D01*
X39352274Y-81199398D01*
X39359445Y-81203174D01*
X39620014Y-81492883D01*
X39622999Y-81501326D01*
X39620707Y-81507684D01*
X38669077Y-82788779D01*
X38661393Y-82793377D01*
X38652708Y-82791194D01*
X38650526Y-82789083D01*
X37631710Y-81507515D01*
X37629246Y-81498908D01*
X37631942Y-81492675D01*
X38469495Y-80504137D01*
X38477458Y-80500040D01*
X38478422Y-80500000D01*
X38721787Y-80500000D01*
X38730060Y-80503427D01*
G37*
G04 #@! TD.AperFunction*
G04 #@! TA.AperFunction,Conductor*
G36*
X52329331Y-82956016D02*
G01*
X52332470Y-82958257D01*
X52501493Y-83127280D01*
X52504920Y-83135553D01*
X52504112Y-83139826D01*
X51713680Y-85154832D01*
X51707469Y-85161282D01*
X51700176Y-85161964D01*
X50567596Y-84902608D01*
X50560297Y-84897421D01*
X50558552Y-84892220D01*
X50446580Y-83609105D01*
X50449275Y-83600568D01*
X50454431Y-83597027D01*
X52320395Y-82955466D01*
X52329331Y-82956016D01*
G37*
G04 #@! TD.AperFunction*
G04 #@! TA.AperFunction,Conductor*
G36*
X52800490Y-71250853D02*
G01*
X53156695Y-71397436D01*
X53163042Y-71403754D01*
X53163063Y-71403804D01*
X53309645Y-71760007D01*
X53309624Y-71768961D01*
X53304592Y-71774639D01*
X52737264Y-72096001D01*
X52728376Y-72097097D01*
X52723224Y-72094094D01*
X52466405Y-71837275D01*
X52462978Y-71829002D01*
X52464497Y-71823237D01*
X52785862Y-71255905D01*
X52792919Y-71250398D01*
X52800490Y-71250853D01*
G37*
G04 #@! TD.AperFunction*
G04 #@! TA.AperFunction,Conductor*
G36*
X53989955Y-41243427D02*
G01*
X53990496Y-41244005D01*
X54853694Y-42232777D01*
X54856553Y-42241264D01*
X54854156Y-42247602D01*
X53869275Y-43528931D01*
X53861517Y-43533402D01*
X53852869Y-43531077D01*
X53850723Y-43528931D01*
X52893983Y-42284212D01*
X52891659Y-42275566D01*
X52896130Y-42267808D01*
X52898433Y-42266427D01*
X52962893Y-42237289D01*
X52985478Y-42227081D01*
X52985479Y-42227080D01*
X52985486Y-42227077D01*
X53183003Y-42093579D01*
X53355118Y-41928621D01*
X53496879Y-41736947D01*
X53604207Y-41524074D01*
X53667889Y-41316129D01*
X53670255Y-41311872D01*
X53729504Y-41244005D01*
X53737527Y-41240027D01*
X53738318Y-41240000D01*
X53981682Y-41240000D01*
X53989955Y-41243427D01*
G37*
G04 #@! TD.AperFunction*
G04 #@! TA.AperFunction,Conductor*
G36*
X39809078Y-101394998D02*
G01*
X39814572Y-101400451D01*
X40603270Y-103024811D01*
X40603801Y-103033750D01*
X40601018Y-103038194D01*
X40431061Y-103208151D01*
X40422788Y-103211578D01*
X40422004Y-103211552D01*
X38772062Y-103100677D01*
X38764037Y-103096703D01*
X38761182Y-103089925D01*
X38659999Y-101808239D01*
X38662764Y-101799723D01*
X38667750Y-101796292D01*
X39800137Y-101394534D01*
X39809078Y-101394998D01*
G37*
G04 #@! TD.AperFunction*
G04 #@! TA.AperFunction,Conductor*
G36*
X38730060Y-42503427D02*
G01*
X38730486Y-42503876D01*
X38793601Y-42574050D01*
X38796586Y-42582493D01*
X38796502Y-42583400D01*
X38794318Y-42599998D01*
X38794318Y-42599999D01*
X38814955Y-42756759D01*
X38814958Y-42756768D01*
X38875459Y-42902832D01*
X38875463Y-42902838D01*
X38875464Y-42902841D01*
X38971718Y-43028282D01*
X39097159Y-43124536D01*
X39097163Y-43124537D01*
X39097167Y-43124540D01*
X39224573Y-43177312D01*
X39243238Y-43185044D01*
X39352274Y-43199398D01*
X39359445Y-43203174D01*
X39620014Y-43492883D01*
X39622999Y-43501326D01*
X39620707Y-43507684D01*
X38669077Y-44788779D01*
X38661393Y-44793377D01*
X38652708Y-44791194D01*
X38650526Y-44789083D01*
X37631710Y-43507515D01*
X37629246Y-43498908D01*
X37631942Y-43492675D01*
X38469495Y-42504137D01*
X38477458Y-42500040D01*
X38478422Y-42500000D01*
X38721787Y-42500000D01*
X38730060Y-42503427D01*
G37*
G04 #@! TD.AperFunction*
G04 #@! TA.AperFunction,Conductor*
G36*
X50258788Y-92354387D02*
G01*
X50495730Y-92595364D01*
X50754081Y-92853715D01*
X50757508Y-92861988D01*
X50754081Y-92870261D01*
X50751413Y-92872258D01*
X50258070Y-93141476D01*
X50249166Y-93142431D01*
X50247719Y-93141900D01*
X49400832Y-92766053D01*
X49394660Y-92759565D01*
X49394884Y-92750613D01*
X49400643Y-92744751D01*
X50245514Y-92351979D01*
X50254459Y-92351600D01*
X50258788Y-92354387D01*
G37*
G04 #@! TD.AperFunction*
G04 #@! TA.AperFunction,Conductor*
G36*
X39629154Y-72453427D02*
G01*
X39630490Y-72455024D01*
X39944329Y-72906756D01*
X39946235Y-72915506D01*
X39942862Y-72921834D01*
X39508142Y-73343109D01*
X39499816Y-73346406D01*
X39491858Y-73343109D01*
X39057137Y-72921834D01*
X39053580Y-72913616D01*
X39055669Y-72906757D01*
X39369510Y-72455024D01*
X39377045Y-72450185D01*
X39379119Y-72450000D01*
X39620881Y-72450000D01*
X39629154Y-72453427D01*
G37*
G04 #@! TD.AperFunction*
G04 #@! TA.AperFunction,Conductor*
G36*
X39809078Y-44394998D02*
G01*
X39814572Y-44400451D01*
X40603270Y-46024811D01*
X40603801Y-46033750D01*
X40601018Y-46038194D01*
X40431061Y-46208151D01*
X40422788Y-46211578D01*
X40422004Y-46211552D01*
X38772062Y-46100677D01*
X38764037Y-46096703D01*
X38761182Y-46089925D01*
X38659999Y-44808239D01*
X38662764Y-44799723D01*
X38667750Y-44796292D01*
X39800137Y-44394534D01*
X39809078Y-44394998D01*
G37*
G04 #@! TD.AperFunction*
G04 #@! TA.AperFunction,Conductor*
G36*
X53989955Y-60243427D02*
G01*
X53990496Y-60244005D01*
X54853694Y-61232777D01*
X54856553Y-61241264D01*
X54854156Y-61247602D01*
X53869275Y-62528931D01*
X53861517Y-62533402D01*
X53852869Y-62531077D01*
X53850723Y-62528931D01*
X52893983Y-61284212D01*
X52891659Y-61275566D01*
X52896130Y-61267808D01*
X52898433Y-61266427D01*
X52962893Y-61237289D01*
X52985478Y-61227081D01*
X52985479Y-61227080D01*
X52985486Y-61227077D01*
X53183003Y-61093579D01*
X53355118Y-60928621D01*
X53496879Y-60736947D01*
X53604207Y-60524074D01*
X53667889Y-60316129D01*
X53670255Y-60311872D01*
X53729504Y-60244005D01*
X53737527Y-60240027D01*
X53738318Y-60240000D01*
X53981682Y-60240000D01*
X53989955Y-60243427D01*
G37*
G04 #@! TD.AperFunction*
G04 #@! TA.AperFunction,Conductor*
G36*
X38729080Y-43997785D02*
G01*
X38781723Y-44018689D01*
X40250431Y-44601918D01*
X40256854Y-44608155D01*
X40257681Y-44614535D01*
X40249500Y-44668807D01*
X40249500Y-44931192D01*
X40288602Y-45190607D01*
X40288604Y-45190615D01*
X40365937Y-45441323D01*
X40365939Y-45441328D01*
X40365941Y-45441332D01*
X40479770Y-45677701D01*
X40479772Y-45677704D01*
X40627567Y-45894479D01*
X40790974Y-46070590D01*
X40806018Y-46086804D01*
X40850852Y-46122558D01*
X40855141Y-46130058D01*
X40907565Y-46498872D01*
X40905336Y-46507546D01*
X40897628Y-46512103D01*
X40893197Y-46511883D01*
X39166304Y-46088765D01*
X39159084Y-46083468D01*
X39157973Y-46081054D01*
X38478046Y-44012312D01*
X38478718Y-44003383D01*
X38485508Y-43997544D01*
X38489161Y-43996959D01*
X38724762Y-43996959D01*
X38729080Y-43997785D01*
G37*
G04 #@! TD.AperFunction*
G04 #@! TA.AperFunction,Conductor*
G36*
X53989955Y-98243427D02*
G01*
X53990496Y-98244005D01*
X54853694Y-99232777D01*
X54856553Y-99241264D01*
X54854156Y-99247602D01*
X53869275Y-100528931D01*
X53861517Y-100533402D01*
X53852869Y-100531077D01*
X53850723Y-100528931D01*
X52893983Y-99284212D01*
X52891659Y-99275566D01*
X52896130Y-99267808D01*
X52898433Y-99266427D01*
X52962893Y-99237289D01*
X52985478Y-99227081D01*
X52985479Y-99227080D01*
X52985486Y-99227077D01*
X53183003Y-99093579D01*
X53355118Y-98928621D01*
X53496879Y-98736947D01*
X53604207Y-98524074D01*
X53667889Y-98316129D01*
X53670255Y-98311872D01*
X53729504Y-98244005D01*
X53737527Y-98240027D01*
X53738318Y-98240000D01*
X53981682Y-98240000D01*
X53989955Y-98243427D01*
G37*
G04 #@! TD.AperFunction*
G04 #@! TA.AperFunction,Conductor*
G36*
X39630439Y-91456176D02*
G01*
X39801171Y-91626908D01*
X39802544Y-91628560D01*
X39994566Y-91908308D01*
X40027623Y-91956466D01*
X40029480Y-91965226D01*
X40024810Y-91972584D01*
X39508485Y-92344093D01*
X39499768Y-92346143D01*
X39492383Y-92341736D01*
X39202378Y-91965226D01*
X39158536Y-91908307D01*
X39156203Y-91899662D01*
X39159697Y-91892734D01*
X39614061Y-91456012D01*
X39622398Y-91452751D01*
X39630439Y-91456176D01*
G37*
G04 #@! TD.AperFunction*
G04 #@! TA.AperFunction,Conductor*
G36*
X39686043Y-109099930D02*
G01*
X39694298Y-109103398D01*
X39697684Y-109111689D01*
X39697494Y-109113731D01*
X39628752Y-109490401D01*
X39623895Y-109497924D01*
X39617242Y-109500000D01*
X39382758Y-109500000D01*
X39374485Y-109496573D01*
X39371248Y-109490401D01*
X39302505Y-109113728D01*
X39304391Y-109104977D01*
X39311914Y-109100120D01*
X39313953Y-109099930D01*
X39500000Y-109099000D01*
X39686043Y-109099930D01*
G37*
G04 #@! TD.AperFunction*
G04 #@! TA.AperFunction,Conductor*
G36*
X46495022Y-32504391D02*
G01*
X46499879Y-32511914D01*
X46500069Y-32513956D01*
X46501000Y-32700000D01*
X46500069Y-32886043D01*
X46496601Y-32894298D01*
X46488310Y-32897684D01*
X46486268Y-32897494D01*
X46109599Y-32828751D01*
X46102076Y-32823894D01*
X46100000Y-32817241D01*
X46100000Y-32582758D01*
X46103427Y-32574485D01*
X46109598Y-32571248D01*
X46486270Y-32502505D01*
X46495022Y-32504391D01*
G37*
G04 #@! TD.AperFunction*
G04 #@! TA.AperFunction,Conductor*
G36*
X53867130Y-81548922D02*
G01*
X53869276Y-81551068D01*
X54854156Y-82832397D01*
X54856481Y-82841045D01*
X54853694Y-82847222D01*
X53990496Y-83835995D01*
X53982474Y-83839973D01*
X53981682Y-83840000D01*
X53738318Y-83840000D01*
X53730045Y-83836573D01*
X53729504Y-83835995D01*
X52866305Y-82847222D01*
X52863446Y-82838735D01*
X52865842Y-82832399D01*
X53850724Y-81551067D01*
X53858482Y-81546597D01*
X53867130Y-81548922D01*
G37*
G04 #@! TD.AperFunction*
G04 #@! TA.AperFunction,Conductor*
G36*
X40171733Y-53510224D02*
G01*
X40340360Y-53678851D01*
X40343787Y-53687124D01*
X40343131Y-53690985D01*
X40102916Y-54378053D01*
X40096951Y-54384732D01*
X40091178Y-54385871D01*
X39506620Y-54351142D01*
X39498565Y-54347231D01*
X39496498Y-54343923D01*
X39317870Y-53910354D01*
X39317887Y-53901400D01*
X39323762Y-53895285D01*
X40158537Y-53507883D01*
X40167482Y-53507510D01*
X40171733Y-53510224D01*
G37*
G04 #@! TD.AperFunction*
G04 #@! TA.AperFunction,Conductor*
G36*
X53851878Y-119537723D02*
G01*
X53859424Y-119542545D01*
X53861486Y-119548225D01*
X53973431Y-120831032D01*
X53970736Y-120839572D01*
X53965746Y-120843055D01*
X52049685Y-121534387D01*
X52040740Y-121533971D01*
X52037441Y-121531654D01*
X51868506Y-121362719D01*
X51865079Y-121354446D01*
X51865885Y-121350179D01*
X52119610Y-120703373D01*
X52121920Y-120699696D01*
X52182433Y-120634479D01*
X52330228Y-120417704D01*
X52444063Y-120181323D01*
X52521396Y-119930615D01*
X52532683Y-119855731D01*
X52560499Y-119671192D01*
X52560500Y-119671180D01*
X52560500Y-119581649D01*
X52561308Y-119577376D01*
X52572744Y-119548225D01*
X52656499Y-119334710D01*
X52662710Y-119328261D01*
X52669437Y-119327465D01*
X53851878Y-119537723D01*
G37*
G04 #@! TD.AperFunction*
G04 #@! TA.AperFunction,Conductor*
G36*
X52329331Y-101956016D02*
G01*
X52332470Y-101958257D01*
X52501493Y-102127280D01*
X52504920Y-102135553D01*
X52504112Y-102139826D01*
X51713680Y-104154832D01*
X51707469Y-104161282D01*
X51700176Y-104161964D01*
X50567596Y-103902608D01*
X50560297Y-103897421D01*
X50558552Y-103892220D01*
X50446580Y-102609105D01*
X50449275Y-102600568D01*
X50454431Y-102597027D01*
X52320395Y-101955466D01*
X52329331Y-101956016D01*
G37*
G04 #@! TD.AperFunction*
G04 #@! TA.AperFunction,Conductor*
G36*
X52800490Y-109050853D02*
G01*
X53156695Y-109197436D01*
X53163042Y-109203754D01*
X53163063Y-109203804D01*
X53309645Y-109560007D01*
X53309624Y-109568961D01*
X53304592Y-109574639D01*
X52737264Y-109896001D01*
X52728376Y-109897097D01*
X52723224Y-109894094D01*
X52466405Y-109637275D01*
X52462978Y-109629002D01*
X52464497Y-109623237D01*
X52785862Y-109055905D01*
X52792919Y-109050398D01*
X52800490Y-109050853D01*
G37*
G04 #@! TD.AperFunction*
G04 #@! TA.AperFunction,Conductor*
G36*
X53867130Y-62548922D02*
G01*
X53869276Y-62551068D01*
X54854156Y-63832397D01*
X54856481Y-63841045D01*
X54853694Y-63847222D01*
X53990496Y-64835995D01*
X53982474Y-64839973D01*
X53981682Y-64840000D01*
X53738318Y-64840000D01*
X53730045Y-64836573D01*
X53729504Y-64835995D01*
X52866305Y-63847222D01*
X52863446Y-63838735D01*
X52865842Y-63832399D01*
X53850724Y-62551067D01*
X53858482Y-62546597D01*
X53867130Y-62548922D01*
G37*
G04 #@! TD.AperFunction*
G04 #@! TA.AperFunction,Conductor*
G36*
X40171733Y-34510224D02*
G01*
X40340360Y-34678851D01*
X40343787Y-34687124D01*
X40343131Y-34690985D01*
X40102916Y-35378053D01*
X40096951Y-35384732D01*
X40091178Y-35385871D01*
X39506620Y-35351142D01*
X39498565Y-35347231D01*
X39496498Y-35343923D01*
X39317870Y-34910354D01*
X39317887Y-34901400D01*
X39323762Y-34895285D01*
X40158537Y-34507883D01*
X40167482Y-34507510D01*
X40171733Y-34510224D01*
G37*
G04 #@! TD.AperFunction*
G04 #@! TA.AperFunction,Conductor*
G36*
X52329331Y-44956016D02*
G01*
X52332470Y-44958257D01*
X52501493Y-45127280D01*
X52504920Y-45135553D01*
X52504112Y-45139826D01*
X51713680Y-47154832D01*
X51707469Y-47161282D01*
X51700176Y-47161964D01*
X50567596Y-46902608D01*
X50560297Y-46897421D01*
X50558552Y-46892220D01*
X50446580Y-45609105D01*
X50449275Y-45600568D01*
X50454431Y-45597027D01*
X52320395Y-44955466D01*
X52329331Y-44956016D01*
G37*
G04 #@! TD.AperFunction*
G04 #@! TA.AperFunction,Conductor*
G36*
X39493380Y-114648857D02*
G01*
X39501434Y-114652768D01*
X39503503Y-114656079D01*
X39682129Y-115089644D01*
X39682112Y-115098599D01*
X39676236Y-115104714D01*
X38841464Y-115492115D01*
X38832517Y-115492489D01*
X38828266Y-115489775D01*
X38659639Y-115321148D01*
X38656212Y-115312875D01*
X38656867Y-115309017D01*
X38897083Y-114621945D01*
X38903048Y-114615267D01*
X38908820Y-114614128D01*
X39493380Y-114648857D01*
G37*
G04 #@! TD.AperFunction*
G04 #@! TA.AperFunction,Conductor*
G36*
X49386263Y-56260783D02*
G01*
X49386283Y-56260803D01*
X49777535Y-56653018D01*
X49780952Y-56661295D01*
X49778893Y-56667909D01*
X49508487Y-57061228D01*
X49500976Y-57066104D01*
X49498846Y-57066300D01*
X49257154Y-57066300D01*
X49248881Y-57062873D01*
X49247513Y-57061228D01*
X48977106Y-56667909D01*
X48975243Y-56659151D01*
X48978462Y-56653020D01*
X49369717Y-56260802D01*
X49377986Y-56257366D01*
X49386263Y-56260783D01*
G37*
G04 #@! TD.AperFunction*
G04 #@! TA.AperFunction,Conductor*
G36*
X52800490Y-90050853D02*
G01*
X53156695Y-90197436D01*
X53163042Y-90203754D01*
X53163063Y-90203804D01*
X53309645Y-90560007D01*
X53309624Y-90568961D01*
X53304592Y-90574639D01*
X52737264Y-90896001D01*
X52728376Y-90897097D01*
X52723224Y-90894094D01*
X52466405Y-90637275D01*
X52462978Y-90629002D01*
X52464497Y-90623237D01*
X52785862Y-90055905D01*
X52792919Y-90050398D01*
X52800490Y-90050853D01*
G37*
G04 #@! TD.AperFunction*
G04 #@! TA.AperFunction,Conductor*
G36*
X52800490Y-52050853D02*
G01*
X53156695Y-52197436D01*
X53163042Y-52203754D01*
X53163063Y-52203804D01*
X53309645Y-52560007D01*
X53309624Y-52568961D01*
X53304592Y-52574639D01*
X52737264Y-52896001D01*
X52728376Y-52897097D01*
X52723224Y-52894094D01*
X52466405Y-52637275D01*
X52462978Y-52629002D01*
X52464497Y-52623237D01*
X52785862Y-52055905D01*
X52792919Y-52050398D01*
X52800490Y-52050853D01*
G37*
G04 #@! TD.AperFunction*
G04 #@! TA.AperFunction,Conductor*
G36*
X50258561Y-112851115D02*
G01*
X50479301Y-113010486D01*
X50480725Y-113011699D01*
X50738983Y-113269957D01*
X50742410Y-113278230D01*
X50738983Y-113286503D01*
X50736834Y-113288199D01*
X50257892Y-113582399D01*
X50249049Y-113583810D01*
X50247629Y-113583373D01*
X49403294Y-113264040D01*
X49396768Y-113257909D01*
X49396490Y-113248958D01*
X49402499Y-113242488D01*
X50246781Y-112849990D01*
X50255726Y-112849611D01*
X50258561Y-112851115D01*
G37*
G04 #@! TD.AperFunction*
G04 #@! TA.AperFunction,Conductor*
G36*
X39493380Y-38648857D02*
G01*
X39501434Y-38652768D01*
X39503503Y-38656079D01*
X39682129Y-39089644D01*
X39682112Y-39098599D01*
X39676236Y-39104714D01*
X38841464Y-39492115D01*
X38832517Y-39492489D01*
X38828266Y-39489775D01*
X38659639Y-39321148D01*
X38656212Y-39312875D01*
X38656867Y-39309017D01*
X38897083Y-38621945D01*
X38903048Y-38615267D01*
X38908820Y-38614128D01*
X39493380Y-38648857D01*
G37*
G04 #@! TD.AperFunction*
G04 #@! TA.AperFunction,Conductor*
G36*
X53851874Y-43537835D02*
G01*
X53859479Y-43542563D01*
X53861609Y-43548200D01*
X53991583Y-44831137D01*
X53989008Y-44839713D01*
X53984177Y-44843223D01*
X52049808Y-45594148D01*
X52040856Y-45593947D01*
X52037301Y-45591514D01*
X51868463Y-45422676D01*
X51865036Y-45414403D01*
X51865812Y-45410214D01*
X52149451Y-44671257D01*
X52151788Y-44667505D01*
X52182433Y-44634479D01*
X52330228Y-44417704D01*
X52444063Y-44181323D01*
X52521396Y-43930615D01*
X52532683Y-43855731D01*
X52560499Y-43671192D01*
X52560500Y-43671180D01*
X52560500Y-43602530D01*
X52561276Y-43598339D01*
X52656582Y-43350041D01*
X52662746Y-43343547D01*
X52669410Y-43342691D01*
X53851874Y-43537835D01*
G37*
G04 #@! TD.AperFunction*
G04 #@! TA.AperFunction,Conductor*
G36*
X53851874Y-62537835D02*
G01*
X53859479Y-62542563D01*
X53861609Y-62548200D01*
X53991583Y-63831137D01*
X53989008Y-63839713D01*
X53984177Y-63843223D01*
X52049808Y-64594148D01*
X52040856Y-64593947D01*
X52037301Y-64591514D01*
X51868463Y-64422676D01*
X51865036Y-64414403D01*
X51865812Y-64410214D01*
X52149451Y-63671257D01*
X52151788Y-63667505D01*
X52182433Y-63634479D01*
X52330228Y-63417704D01*
X52444063Y-63181323D01*
X52521396Y-62930615D01*
X52532683Y-62855731D01*
X52560499Y-62671192D01*
X52560500Y-62671180D01*
X52560500Y-62602530D01*
X52561276Y-62598339D01*
X52656582Y-62350041D01*
X52662746Y-62343547D01*
X52669410Y-62342691D01*
X53851874Y-62537835D01*
G37*
G04 #@! TD.AperFunction*
G04 #@! TA.AperFunction,Conductor*
G36*
X39629154Y-110453427D02*
G01*
X39630490Y-110455024D01*
X39944329Y-110906756D01*
X39946235Y-110915506D01*
X39942862Y-110921834D01*
X39508142Y-111343109D01*
X39499816Y-111346406D01*
X39491858Y-111343109D01*
X39057137Y-110921834D01*
X39053580Y-110913616D01*
X39055669Y-110906757D01*
X39369510Y-110455024D01*
X39377045Y-110450185D01*
X39379119Y-110450000D01*
X39620881Y-110450000D01*
X39629154Y-110453427D01*
G37*
G04 #@! TD.AperFunction*
G04 #@! TA.AperFunction,Conductor*
G36*
X49386263Y-94260783D02*
G01*
X49386283Y-94260803D01*
X49777535Y-94653018D01*
X49780952Y-94661295D01*
X49778893Y-94667909D01*
X49508487Y-95061228D01*
X49500976Y-95066104D01*
X49498846Y-95066300D01*
X49257154Y-95066300D01*
X49248881Y-95062873D01*
X49247513Y-95061228D01*
X48977106Y-94667909D01*
X48975243Y-94659151D01*
X48978462Y-94653020D01*
X49369717Y-94260802D01*
X49377986Y-94257366D01*
X49386263Y-94260783D01*
G37*
G04 #@! TD.AperFunction*
G04 #@! TA.AperFunction,Conductor*
G36*
X39493380Y-57648857D02*
G01*
X39501434Y-57652768D01*
X39503503Y-57656079D01*
X39682129Y-58089644D01*
X39682112Y-58098599D01*
X39676236Y-58104714D01*
X38841464Y-58492115D01*
X38832517Y-58492489D01*
X38828266Y-58489775D01*
X38659639Y-58321148D01*
X38656212Y-58312875D01*
X38656867Y-58309017D01*
X38897083Y-57621945D01*
X38903048Y-57615267D01*
X38908820Y-57614128D01*
X39493380Y-57648857D01*
G37*
G04 #@! TD.AperFunction*
G04 #@! TA.AperFunction,Conductor*
G36*
X50813720Y-38602504D02*
G01*
X51190401Y-38671248D01*
X51197924Y-38676105D01*
X51200000Y-38682758D01*
X51200000Y-38917241D01*
X51196573Y-38925514D01*
X51190401Y-38928751D01*
X50813731Y-38997494D01*
X50804977Y-38995608D01*
X50800120Y-38988085D01*
X50799930Y-38986043D01*
X50799627Y-38925514D01*
X50799000Y-38800000D01*
X50799930Y-38613955D01*
X50803398Y-38605701D01*
X50811689Y-38602315D01*
X50813720Y-38602504D01*
G37*
G04 #@! TD.AperFunction*
G04 #@! TA.AperFunction,Conductor*
G36*
X52800490Y-110450853D02*
G01*
X53156695Y-110597436D01*
X53163042Y-110603754D01*
X53163063Y-110603804D01*
X53309645Y-110960007D01*
X53309624Y-110968961D01*
X53304592Y-110974639D01*
X52737264Y-111296001D01*
X52728376Y-111297097D01*
X52723224Y-111294094D01*
X52466405Y-111037275D01*
X52462978Y-111029002D01*
X52464497Y-111023237D01*
X52785862Y-110455905D01*
X52792919Y-110450398D01*
X52800490Y-110450853D01*
G37*
G04 #@! TD.AperFunction*
G04 #@! TA.AperFunction,Conductor*
G36*
X38729080Y-62997785D02*
G01*
X38781723Y-63018689D01*
X40250431Y-63601918D01*
X40256854Y-63608155D01*
X40257681Y-63614535D01*
X40249500Y-63668807D01*
X40249500Y-63931192D01*
X40288602Y-64190607D01*
X40288604Y-64190615D01*
X40365937Y-64441323D01*
X40365939Y-64441328D01*
X40365941Y-64441332D01*
X40479770Y-64677701D01*
X40479772Y-64677704D01*
X40627567Y-64894479D01*
X40790974Y-65070590D01*
X40806018Y-65086804D01*
X40850852Y-65122558D01*
X40855141Y-65130058D01*
X40907565Y-65498872D01*
X40905336Y-65507546D01*
X40897628Y-65512103D01*
X40893197Y-65511883D01*
X39166304Y-65088765D01*
X39159084Y-65083468D01*
X39157973Y-65081054D01*
X38478046Y-63012312D01*
X38478718Y-63003383D01*
X38485508Y-62997544D01*
X38489161Y-62996959D01*
X38724762Y-62996959D01*
X38729080Y-62997785D01*
G37*
G04 #@! TD.AperFunction*
G04 #@! TA.AperFunction,Conductor*
G36*
X39809078Y-63394998D02*
G01*
X39814572Y-63400451D01*
X40603270Y-65024811D01*
X40603801Y-65033750D01*
X40601018Y-65038194D01*
X40431061Y-65208151D01*
X40422788Y-65211578D01*
X40422004Y-65211552D01*
X38772062Y-65100677D01*
X38764037Y-65096703D01*
X38761182Y-65089925D01*
X38659999Y-63808239D01*
X38662764Y-63799723D01*
X38667750Y-63796292D01*
X39800137Y-63394534D01*
X39809078Y-63394998D01*
G37*
G04 #@! TD.AperFunction*
G04 #@! TA.AperFunction,Conductor*
G36*
X52046251Y-35434090D02*
G01*
X52050653Y-35439385D01*
X52199123Y-35795498D01*
X52199144Y-35804452D01*
X52199123Y-35804502D01*
X52051179Y-36159353D01*
X52044832Y-36165671D01*
X52036502Y-36165889D01*
X51416793Y-35948148D01*
X51410123Y-35942173D01*
X51408971Y-35937110D01*
X51408971Y-35573898D01*
X51412398Y-35565625D01*
X51418266Y-35562448D01*
X52037452Y-35432437D01*
X52046251Y-35434090D01*
G37*
G04 #@! TD.AperFunction*
M02*
