M48
; DRILL file {KiCad 7.0.8} date Sat 21 Oct 2023 10:23:41 PM PDT
; FORMAT={-:-/ absolute / metric / decimal}
; #@! TF.CreationDate,2023-10-21T22:23:41-07:00
; #@! TF.GenerationSoftware,Kicad,Pcbnew,7.0.8
; #@! TF.FileFunction,Plated,1,2,PTH
FMAT,2
METRIC
; #@! TA.AperFunction,Plated,PTH,ViaDrill
T1C0.300
; #@! TA.AperFunction,Plated,PTH,ViaDrill
T2C0.400
%
G90
G05
T1
X39.5Y-109.1
X40.2Y-71.3
X40.5Y-90.1
X44.8Y-53.0
X46.5Y-32.7
X50.8Y-38.8
T2
X39.326Y-99.4
X39.4Y-42.6
X39.4Y-61.6
X39.4Y-80.6
X39.5Y-113.0
X47.0Y-26.81
X47.5Y-33.5
X48.4Y-34.3
X51.4Y-52.1
X51.4Y-71.1
X51.4Y-90.1
X51.4Y-109.1
X52.2Y-35.8
X53.16Y-52.2
X53.16Y-71.4
X53.16Y-90.2
X53.16Y-109.2
X53.16Y-110.6
T0
M30
