G04 #@! TF.GenerationSoftware,KiCad,Pcbnew,7.0.8*
G04 #@! TF.CreationDate,2023-11-08T21:38:18-08:00*
G04 #@! TF.ProjectId,(OLD) Seismos_CoreStencil,284f4c44-2920-4536-9569-736d6f735f43,rev?*
G04 #@! TF.SameCoordinates,Original*
G04 #@! TF.FileFunction,Paste,Bot*
G04 #@! TF.FilePolarity,Positive*
%FSLAX46Y46*%
G04 Gerber Fmt 4.6, Leading zero omitted, Abs format (unit mm)*
G04 Created by KiCad (PCBNEW 7.0.8) date 2023-11-08 21:38:18*
%MOMM*%
%LPD*%
G01*
G04 APERTURE LIST*
G04 Aperture macros list*
%AMRoundRect*
0 Rectangle with rounded corners*
0 $1 Rounding radius*
0 $2 $3 $4 $5 $6 $7 $8 $9 X,Y pos of 4 corners*
0 Add a 4 corners polygon primitive as box body*
4,1,4,$2,$3,$4,$5,$6,$7,$8,$9,$2,$3,0*
0 Add four circle primitives for the rounded corners*
1,1,$1+$1,$2,$3*
1,1,$1+$1,$4,$5*
1,1,$1+$1,$6,$7*
1,1,$1+$1,$8,$9*
0 Add four rect primitives between the rounded corners*
20,1,$1+$1,$2,$3,$4,$5,0*
20,1,$1+$1,$4,$5,$6,$7,0*
20,1,$1+$1,$6,$7,$8,$9,0*
20,1,$1+$1,$8,$9,$2,$3,0*%
G04 Aperture macros list end*
%ADD10R,0.600000X1.550000*%
%ADD11R,1.200000X1.800000*%
%ADD12C,3.200000*%
%ADD13RoundRect,0.225000X-0.375000X0.225000X-0.375000X-0.225000X0.375000X-0.225000X0.375000X0.225000X0*%
%ADD14R,1.750000X0.812800*%
%ADD15R,2.300000X2.600000*%
%ADD16R,3.500000X3.500000*%
%ADD17R,2.400000X2.600000*%
%ADD18RoundRect,0.225000X0.375000X-0.225000X0.375000X0.225000X-0.375000X0.225000X-0.375000X-0.225000X0*%
%ADD19R,1.550000X1.000000*%
G04 APERTURE END LIST*
D10*
X169500000Y-91125000D03*
X168500000Y-91125000D03*
X167500000Y-91125000D03*
X166500000Y-91125000D03*
X165500000Y-91125000D03*
X164500000Y-91125000D03*
X163500000Y-91125000D03*
X162500000Y-91125000D03*
X161500000Y-91125000D03*
D11*
X170800000Y-95000000D03*
X160200000Y-95000000D03*
D10*
X35650000Y-25375000D03*
X36650000Y-25375000D03*
X37650000Y-25375000D03*
X38650000Y-25375000D03*
X39650000Y-25375000D03*
X40650000Y-25375000D03*
X41650000Y-25375000D03*
X42650000Y-25375000D03*
X43650000Y-25375000D03*
D11*
X34350000Y-21500000D03*
X44950000Y-21500000D03*
D10*
X54950000Y-25375000D03*
X55950000Y-25375000D03*
X56950000Y-25375000D03*
X57950000Y-25375000D03*
X58950000Y-25375000D03*
X59950000Y-25375000D03*
X60950000Y-25375000D03*
X61950000Y-25375000D03*
X62950000Y-25375000D03*
D11*
X53650000Y-21500000D03*
X64250000Y-21500000D03*
D10*
X74250000Y-25375000D03*
X75250000Y-25375000D03*
X76250000Y-25375000D03*
X77250000Y-25375000D03*
X78250000Y-25375000D03*
X79250000Y-25375000D03*
X80250000Y-25375000D03*
X81250000Y-25375000D03*
X82250000Y-25375000D03*
D11*
X72950000Y-21500000D03*
X83550000Y-21500000D03*
D10*
X93550000Y-25375000D03*
X94550000Y-25375000D03*
X95550000Y-25375000D03*
X96550000Y-25375000D03*
X97550000Y-25375000D03*
X98550000Y-25375000D03*
X99550000Y-25375000D03*
X100550000Y-25375000D03*
X101550000Y-25375000D03*
D11*
X92250000Y-21500000D03*
X102850000Y-21500000D03*
D10*
X112850000Y-25375000D03*
X113850000Y-25375000D03*
X114850000Y-25375000D03*
X115850000Y-25375000D03*
X116850000Y-25375000D03*
X117850000Y-25375000D03*
X118850000Y-25375000D03*
X119850000Y-25375000D03*
X120850000Y-25375000D03*
D11*
X111550000Y-21500000D03*
X122150000Y-21500000D03*
D10*
X132150000Y-25375000D03*
X133150000Y-25375000D03*
X134150000Y-25375000D03*
X135150000Y-25375000D03*
X136150000Y-25375000D03*
X137150000Y-25375000D03*
X138150000Y-25375000D03*
X139150000Y-25375000D03*
X140150000Y-25375000D03*
D11*
X130850000Y-21500000D03*
X141450000Y-21500000D03*
D12*
X142650000Y-122600000D03*
X33150000Y-122600000D03*
X87900000Y-22000000D03*
X87900000Y-26000000D03*
X49300000Y-26000000D03*
X126500000Y-26000000D03*
X49300000Y-22000000D03*
X181500000Y-50900000D03*
X149500000Y-50900000D03*
X126500000Y-22000000D03*
D13*
X70750000Y-106450000D03*
X70750000Y-109750000D03*
D14*
X42028000Y-30854900D03*
D15*
X31310000Y-39900000D03*
X43210000Y-42000000D03*
D14*
X36998100Y-30854900D03*
X42028000Y-32353500D03*
X36998100Y-32353500D03*
D16*
X33560000Y-41615000D03*
D17*
X46510000Y-38640000D03*
D13*
X51450000Y-30450000D03*
X51450000Y-33750000D03*
X51450000Y-87450000D03*
X51450000Y-90750000D03*
X128650000Y-87450000D03*
X128650000Y-90750000D03*
X70750000Y-30450000D03*
X70750000Y-33750000D03*
D18*
X182500000Y-86050000D03*
X182500000Y-82750000D03*
D13*
X90050000Y-49450000D03*
X90050000Y-52750000D03*
D14*
X138528000Y-49854900D03*
D15*
X127810000Y-58900000D03*
X139710000Y-61000000D03*
D14*
X133498100Y-49854900D03*
X138528000Y-51353500D03*
X133498100Y-51353500D03*
D16*
X130060000Y-60615000D03*
D17*
X143010000Y-57640000D03*
D14*
X42028000Y-106854900D03*
D15*
X31310000Y-115900000D03*
X43210000Y-118000000D03*
D14*
X36998100Y-106854900D03*
X42028000Y-108353500D03*
X36998100Y-108353500D03*
D16*
X33560000Y-117615000D03*
D17*
X46510000Y-114640000D03*
D14*
X80628000Y-68854900D03*
D15*
X69910000Y-77900000D03*
X81810000Y-80000000D03*
D14*
X75598100Y-68854900D03*
X80628000Y-70353500D03*
X75598100Y-70353500D03*
D16*
X72160000Y-79615000D03*
D17*
X85110000Y-76640000D03*
D14*
X119228000Y-68854900D03*
D15*
X108510000Y-77900000D03*
X120410000Y-80000000D03*
D14*
X114198100Y-68854900D03*
X119228000Y-70353500D03*
X114198100Y-70353500D03*
D16*
X110760000Y-79615000D03*
D17*
X123710000Y-76640000D03*
D13*
X128650000Y-106450000D03*
X128650000Y-109750000D03*
D14*
X61328000Y-49854900D03*
D15*
X50610000Y-58900000D03*
X62510000Y-61000000D03*
D14*
X56298100Y-49854900D03*
X61328000Y-51353500D03*
X56298100Y-51353500D03*
D16*
X52860000Y-60615000D03*
D17*
X65810000Y-57640000D03*
D13*
X32150000Y-68450000D03*
X32150000Y-71750000D03*
X51450000Y-49450000D03*
X51450000Y-52750000D03*
X109350000Y-106450000D03*
X109350000Y-109750000D03*
X109350000Y-68450000D03*
X109350000Y-71750000D03*
X32150000Y-49450000D03*
X32150000Y-52750000D03*
D14*
X99928000Y-49854900D03*
D15*
X89210000Y-58900000D03*
X101110000Y-61000000D03*
D14*
X94898100Y-49854900D03*
X99928000Y-51353500D03*
X94898100Y-51353500D03*
D16*
X91460000Y-60615000D03*
D17*
X104410000Y-57640000D03*
D14*
X99928000Y-106854900D03*
D15*
X89210000Y-115900000D03*
X101110000Y-118000000D03*
D14*
X94898100Y-106854900D03*
X99928000Y-108353500D03*
X94898100Y-108353500D03*
D16*
X91460000Y-117615000D03*
D17*
X104410000Y-114640000D03*
D13*
X90050000Y-106450000D03*
X90050000Y-109750000D03*
D14*
X80628000Y-30854900D03*
D15*
X69910000Y-39900000D03*
X81810000Y-42000000D03*
D14*
X75598100Y-30854900D03*
X80628000Y-32353500D03*
X75598100Y-32353500D03*
D16*
X72160000Y-41615000D03*
D17*
X85110000Y-38640000D03*
D13*
X128650000Y-30450000D03*
X128650000Y-33750000D03*
D14*
X61328000Y-30854900D03*
D15*
X50610000Y-39900000D03*
X62510000Y-42000000D03*
D14*
X56298100Y-30854900D03*
X61328000Y-32353500D03*
X56298100Y-32353500D03*
D16*
X52860000Y-41615000D03*
D17*
X65810000Y-38640000D03*
D14*
X99928000Y-30854900D03*
D15*
X89210000Y-39900000D03*
X101110000Y-42000000D03*
D14*
X94898100Y-30854900D03*
X99928000Y-32353500D03*
X94898100Y-32353500D03*
D16*
X91460000Y-41615000D03*
D17*
X104410000Y-38640000D03*
D14*
X119228000Y-106854900D03*
D15*
X108510000Y-115900000D03*
X120410000Y-118000000D03*
D14*
X114198100Y-106854900D03*
X119228000Y-108353500D03*
X114198100Y-108353500D03*
D16*
X110760000Y-117615000D03*
D17*
X123710000Y-114640000D03*
D14*
X153622000Y-66645100D03*
D15*
X164340000Y-57600000D03*
X152440000Y-55500000D03*
D14*
X158651900Y-66645100D03*
X153622000Y-65146500D03*
X158651900Y-65146500D03*
D16*
X162090000Y-55885000D03*
D17*
X149140000Y-58860000D03*
D14*
X80628000Y-87854900D03*
D15*
X69910000Y-96900000D03*
X81810000Y-99000000D03*
D14*
X75598100Y-87854900D03*
X80628000Y-89353500D03*
X75598100Y-89353500D03*
D16*
X72160000Y-98615000D03*
D17*
X85110000Y-95640000D03*
D13*
X70750000Y-87450000D03*
X70750000Y-90750000D03*
D14*
X119228000Y-30854900D03*
D15*
X108510000Y-39900000D03*
X120410000Y-42000000D03*
D14*
X114198100Y-30854900D03*
X119228000Y-32353500D03*
X114198100Y-32353500D03*
D16*
X110760000Y-41615000D03*
D17*
X123710000Y-38640000D03*
D13*
X70750000Y-49450000D03*
X70750000Y-52750000D03*
D14*
X119228000Y-49854900D03*
D15*
X108510000Y-58900000D03*
X120410000Y-61000000D03*
D14*
X114198100Y-49854900D03*
X119228000Y-51353500D03*
X114198100Y-51353500D03*
D16*
X110760000Y-60615000D03*
D17*
X123710000Y-57640000D03*
D13*
X32150000Y-87450000D03*
X32150000Y-90750000D03*
D14*
X119228000Y-87854900D03*
D15*
X108510000Y-96900000D03*
X120410000Y-99000000D03*
D14*
X114198100Y-87854900D03*
X119228000Y-89353500D03*
X114198100Y-89353500D03*
D16*
X110760000Y-98615000D03*
D17*
X123710000Y-95640000D03*
D14*
X61328000Y-87854900D03*
D15*
X50610000Y-96900000D03*
X62510000Y-99000000D03*
D14*
X56298100Y-87854900D03*
X61328000Y-89353500D03*
X56298100Y-89353500D03*
D16*
X52860000Y-98615000D03*
D17*
X65810000Y-95640000D03*
D13*
X90050000Y-30450000D03*
X90050000Y-33750000D03*
D19*
X153887500Y-23899500D03*
X153887500Y-22199500D03*
X148687500Y-23899500D03*
X148687500Y-22199500D03*
D13*
X51450000Y-68450000D03*
X51450000Y-71750000D03*
D14*
X153622000Y-85645100D03*
D15*
X164340000Y-76600000D03*
X152440000Y-74500000D03*
D14*
X158651900Y-85645100D03*
X153622000Y-84146500D03*
X158651900Y-84146500D03*
D16*
X162090000Y-74885000D03*
D17*
X149140000Y-77860000D03*
D18*
X163500000Y-86050000D03*
X163500000Y-82750000D03*
D14*
X99928000Y-68854900D03*
D15*
X89210000Y-77900000D03*
X101110000Y-80000000D03*
D14*
X94898100Y-68854900D03*
X99928000Y-70353500D03*
X94898100Y-70353500D03*
D16*
X91460000Y-79615000D03*
D17*
X104410000Y-76640000D03*
D14*
X42028000Y-87854900D03*
D15*
X31310000Y-96900000D03*
X43210000Y-99000000D03*
D14*
X36998100Y-87854900D03*
X42028000Y-89353500D03*
X36998100Y-89353500D03*
D16*
X33560000Y-98615000D03*
D17*
X46510000Y-95640000D03*
D14*
X99928000Y-87854900D03*
D15*
X89210000Y-96900000D03*
X101110000Y-99000000D03*
D14*
X94898100Y-87854900D03*
X99928000Y-89353500D03*
X94898100Y-89353500D03*
D16*
X91460000Y-98615000D03*
D17*
X104410000Y-95640000D03*
D13*
X90050000Y-68450000D03*
X90050000Y-71750000D03*
D18*
X163500000Y-67050000D03*
X163500000Y-63750000D03*
D13*
X90050000Y-87450000D03*
X90050000Y-90750000D03*
D14*
X138528000Y-68854900D03*
D15*
X127810000Y-77900000D03*
X139710000Y-80000000D03*
D14*
X133498100Y-68854900D03*
X138528000Y-70353500D03*
X133498100Y-70353500D03*
D16*
X130060000Y-79615000D03*
D17*
X143010000Y-76640000D03*
D14*
X42028000Y-68854900D03*
D15*
X31310000Y-77900000D03*
X43210000Y-80000000D03*
D14*
X36998100Y-68854900D03*
X42028000Y-70353500D03*
X36998100Y-70353500D03*
D16*
X33560000Y-79615000D03*
D17*
X46510000Y-76640000D03*
D14*
X42028000Y-49854900D03*
D15*
X31310000Y-58900000D03*
X43210000Y-61000000D03*
D14*
X36998100Y-49854900D03*
X42028000Y-51353500D03*
X36998100Y-51353500D03*
D16*
X33560000Y-60615000D03*
D17*
X46510000Y-57640000D03*
D14*
X61328000Y-68854900D03*
D15*
X50610000Y-77900000D03*
X62510000Y-80000000D03*
D14*
X56298100Y-68854900D03*
X61328000Y-70353500D03*
X56298100Y-70353500D03*
D16*
X52860000Y-79615000D03*
D17*
X65810000Y-76640000D03*
D14*
X80628000Y-106854900D03*
D15*
X69910000Y-115900000D03*
X81810000Y-118000000D03*
D14*
X75598100Y-106854900D03*
X80628000Y-108353500D03*
X75598100Y-108353500D03*
D16*
X72160000Y-117615000D03*
D17*
X85110000Y-114640000D03*
D13*
X32150000Y-30450000D03*
X32150000Y-33750000D03*
X109350000Y-87450000D03*
X109350000Y-90750000D03*
D14*
X138528000Y-30854900D03*
D15*
X127810000Y-39900000D03*
X139710000Y-42000000D03*
D14*
X133498100Y-30854900D03*
X138528000Y-32353500D03*
X133498100Y-32353500D03*
D16*
X130060000Y-41615000D03*
D17*
X143010000Y-38640000D03*
D14*
X80628000Y-49854900D03*
D15*
X69910000Y-58900000D03*
X81810000Y-61000000D03*
D14*
X75598100Y-49854900D03*
X80628000Y-51353500D03*
X75598100Y-51353500D03*
D16*
X72160000Y-60615000D03*
D17*
X85110000Y-57640000D03*
D13*
X109350000Y-30450000D03*
X109350000Y-33750000D03*
D14*
X61328000Y-106854900D03*
D15*
X50610000Y-115900000D03*
X62510000Y-118000000D03*
D14*
X56298100Y-106854900D03*
X61328000Y-108353500D03*
X56298100Y-108353500D03*
D16*
X52860000Y-117615000D03*
D17*
X65810000Y-114640000D03*
D14*
X138528000Y-87854900D03*
D15*
X127810000Y-96900000D03*
X139710000Y-99000000D03*
D14*
X133498100Y-87854900D03*
X138528000Y-89353500D03*
X133498100Y-89353500D03*
D16*
X130060000Y-98615000D03*
D17*
X143010000Y-95640000D03*
D13*
X128650000Y-49450000D03*
X128650000Y-52750000D03*
D14*
X138528000Y-106854900D03*
D15*
X127810000Y-115900000D03*
X139710000Y-118000000D03*
D14*
X133498100Y-106854900D03*
X138528000Y-108353500D03*
X133498100Y-108353500D03*
D16*
X130060000Y-117615000D03*
D17*
X143010000Y-114640000D03*
D13*
X51450000Y-106450000D03*
X51450000Y-109750000D03*
D18*
X182500000Y-67050000D03*
X182500000Y-63750000D03*
D14*
X172622000Y-66645100D03*
D15*
X183340000Y-57600000D03*
X171440000Y-55500000D03*
D14*
X177651900Y-66645100D03*
X172622000Y-65146500D03*
X177651900Y-65146500D03*
D16*
X181090000Y-55885000D03*
D17*
X168140000Y-58860000D03*
D13*
X32150000Y-106450000D03*
X32150000Y-109750000D03*
D14*
X172622000Y-85645100D03*
D15*
X183340000Y-76600000D03*
X171440000Y-74500000D03*
D14*
X177651900Y-85645100D03*
X172622000Y-84146500D03*
X177651900Y-84146500D03*
D16*
X181090000Y-74885000D03*
D17*
X168140000Y-77860000D03*
D13*
X128650000Y-68450000D03*
X128650000Y-71750000D03*
X70750000Y-68450000D03*
X70750000Y-71750000D03*
X109350000Y-49450000D03*
X109350000Y-52750000D03*
M02*
