G04 #@! TF.GenerationSoftware,KiCad,Pcbnew,7.0.8*
G04 #@! TF.CreationDate,2023-12-05T05:18:07-08:00*
G04 #@! TF.ProjectId,Seismos_5CoreR,53656973-6d6f-4735-9f35-436f7265522e,rev?*
G04 #@! TF.SameCoordinates,Original*
G04 #@! TF.FileFunction,Soldermask,Bot*
G04 #@! TF.FilePolarity,Negative*
%FSLAX46Y46*%
G04 Gerber Fmt 4.6, Leading zero omitted, Abs format (unit mm)*
G04 Created by KiCad (PCBNEW 7.0.8) date 2023-12-05 05:18:07*
%MOMM*%
%LPD*%
G01*
G04 APERTURE LIST*
G04 Aperture macros list*
%AMFreePoly0*
4,1,6,0.600000,0.200000,0.000000,-0.400000,-0.600000,0.200000,-0.600000,0.400000,0.600000,0.400000,0.600000,0.200000,0.600000,0.200000,$1*%
%AMFreePoly1*
4,1,6,0.600000,-0.250000,-0.600000,-0.250000,-0.600000,1.000000,0.000000,0.400000,0.600000,1.000000,0.600000,-0.250000,0.600000,-0.250000,$1*%
G04 Aperture macros list end*
%ADD10C,0.250000*%
%ADD11C,0.100000*%
%ADD12C,3.200000*%
%ADD13C,2.000000*%
%ADD14R,3.200000X2.000000*%
%ADD15C,1.200000*%
%ADD16O,2.500000X1.700000*%
%ADD17R,1.700000X1.700000*%
%ADD18O,1.700000X1.700000*%
%ADD19C,0.900000*%
%ADD20C,1.400000*%
%ADD21C,1.600000*%
%ADD22R,1.600000X1.600000*%
%ADD23FreePoly0,270.000000*%
%ADD24FreePoly0,90.000000*%
%ADD25FreePoly1,90.000000*%
%ADD26FreePoly1,270.000000*%
%ADD27R,0.600000X1.700000*%
%ADD28R,1.200000X1.800000*%
%ADD29R,1.550000X1.000000*%
G04 APERTURE END LIST*
D10*
X42237000Y-22286000D02*
G75*
G03*
X42237000Y-22286000I-125000J0D01*
G01*
X40713000Y-22286000D02*
G75*
G03*
X40713000Y-22286000I-125000J0D01*
G01*
X42237000Y-24826000D02*
G75*
G03*
X42237000Y-24826000I-125000J0D01*
G01*
X40713000Y-24826000D02*
G75*
G03*
X40713000Y-24826000I-125000J0D01*
G01*
X42237000Y-27366000D02*
G75*
G03*
X42237000Y-27366000I-125000J0D01*
G01*
X40713000Y-27366000D02*
G75*
G03*
X40713000Y-27366000I-125000J0D01*
G01*
X42237000Y-29906000D02*
G75*
G03*
X42237000Y-29906000I-125000J0D01*
G01*
X40713000Y-29906000D02*
G75*
G03*
X40713000Y-29906000I-125000J0D01*
G01*
X42237000Y-32446000D02*
G75*
G03*
X42237000Y-32446000I-125000J0D01*
G01*
X40713000Y-32446000D02*
G75*
G03*
X40713000Y-32446000I-125000J0D01*
G01*
X42237000Y-34986000D02*
G75*
G03*
X42237000Y-34986000I-125000J0D01*
G01*
X40713000Y-34986000D02*
G75*
G03*
X40713000Y-34986000I-125000J0D01*
G01*
X42237000Y-37526000D02*
G75*
G03*
X42237000Y-37526000I-125000J0D01*
G01*
X40713000Y-37526000D02*
G75*
G03*
X40713000Y-37526000I-125000J0D01*
G01*
X42237000Y-40066000D02*
G75*
G03*
X42237000Y-40066000I-125000J0D01*
G01*
X40713000Y-40066000D02*
G75*
G03*
X40713000Y-40066000I-125000J0D01*
G01*
X42237000Y-42606000D02*
G75*
G03*
X42237000Y-42606000I-125000J0D01*
G01*
X40713000Y-42606000D02*
G75*
G03*
X40713000Y-42606000I-125000J0D01*
G01*
X42237000Y-45146000D02*
G75*
G03*
X42237000Y-45146000I-125000J0D01*
G01*
X40713000Y-45146000D02*
G75*
G03*
X40713000Y-45146000I-125000J0D01*
G01*
X42237000Y-47686000D02*
G75*
G03*
X42237000Y-47686000I-125000J0D01*
G01*
X40713000Y-47686000D02*
G75*
G03*
X40713000Y-47686000I-125000J0D01*
G01*
X42237000Y-50226000D02*
G75*
G03*
X42237000Y-50226000I-125000J0D01*
G01*
X40713000Y-50226000D02*
G75*
G03*
X40713000Y-50226000I-125000J0D01*
G01*
D11*
X36270000Y-22794000D02*
X35254000Y-22794000D01*
X35254000Y-21778000D01*
X36270000Y-21778000D01*
X36270000Y-22794000D01*
G36*
X36270000Y-22794000D02*
G01*
X35254000Y-22794000D01*
X35254000Y-21778000D01*
X36270000Y-21778000D01*
X36270000Y-22794000D01*
G37*
X47446000Y-22794000D02*
X46430000Y-22794000D01*
X46430000Y-21778000D01*
X47446000Y-21778000D01*
X47446000Y-22794000D01*
G36*
X47446000Y-22794000D02*
G01*
X46430000Y-22794000D01*
X46430000Y-21778000D01*
X47446000Y-21778000D01*
X47446000Y-22794000D01*
G37*
X36270000Y-25334000D02*
X35254000Y-25334000D01*
X35254000Y-24318000D01*
X36270000Y-24318000D01*
X36270000Y-25334000D01*
G36*
X36270000Y-25334000D02*
G01*
X35254000Y-25334000D01*
X35254000Y-24318000D01*
X36270000Y-24318000D01*
X36270000Y-25334000D01*
G37*
X47446000Y-25334000D02*
X46430000Y-25334000D01*
X46430000Y-24318000D01*
X47446000Y-24318000D01*
X47446000Y-25334000D01*
G36*
X47446000Y-25334000D02*
G01*
X46430000Y-25334000D01*
X46430000Y-24318000D01*
X47446000Y-24318000D01*
X47446000Y-25334000D01*
G37*
X36270000Y-27874000D02*
X35254000Y-27874000D01*
X35254000Y-26858000D01*
X36270000Y-26858000D01*
X36270000Y-27874000D01*
G36*
X36270000Y-27874000D02*
G01*
X35254000Y-27874000D01*
X35254000Y-26858000D01*
X36270000Y-26858000D01*
X36270000Y-27874000D01*
G37*
X47446000Y-27874000D02*
X46430000Y-27874000D01*
X46430000Y-26858000D01*
X47446000Y-26858000D01*
X47446000Y-27874000D01*
G36*
X47446000Y-27874000D02*
G01*
X46430000Y-27874000D01*
X46430000Y-26858000D01*
X47446000Y-26858000D01*
X47446000Y-27874000D01*
G37*
X36270000Y-30414000D02*
X35254000Y-30414000D01*
X35254000Y-29398000D01*
X36270000Y-29398000D01*
X36270000Y-30414000D01*
G36*
X36270000Y-30414000D02*
G01*
X35254000Y-30414000D01*
X35254000Y-29398000D01*
X36270000Y-29398000D01*
X36270000Y-30414000D01*
G37*
X47446000Y-30414000D02*
X46430000Y-30414000D01*
X46430000Y-29398000D01*
X47446000Y-29398000D01*
X47446000Y-30414000D01*
G36*
X47446000Y-30414000D02*
G01*
X46430000Y-30414000D01*
X46430000Y-29398000D01*
X47446000Y-29398000D01*
X47446000Y-30414000D01*
G37*
X36270000Y-32954000D02*
X35254000Y-32954000D01*
X35254000Y-31938000D01*
X36270000Y-31938000D01*
X36270000Y-32954000D01*
G36*
X36270000Y-32954000D02*
G01*
X35254000Y-32954000D01*
X35254000Y-31938000D01*
X36270000Y-31938000D01*
X36270000Y-32954000D01*
G37*
X47446000Y-32954000D02*
X46430000Y-32954000D01*
X46430000Y-31938000D01*
X47446000Y-31938000D01*
X47446000Y-32954000D01*
G36*
X47446000Y-32954000D02*
G01*
X46430000Y-32954000D01*
X46430000Y-31938000D01*
X47446000Y-31938000D01*
X47446000Y-32954000D01*
G37*
X36270000Y-35494000D02*
X35254000Y-35494000D01*
X35254000Y-34478000D01*
X36270000Y-34478000D01*
X36270000Y-35494000D01*
G36*
X36270000Y-35494000D02*
G01*
X35254000Y-35494000D01*
X35254000Y-34478000D01*
X36270000Y-34478000D01*
X36270000Y-35494000D01*
G37*
X47446000Y-35494000D02*
X46430000Y-35494000D01*
X46430000Y-34478000D01*
X47446000Y-34478000D01*
X47446000Y-35494000D01*
G36*
X47446000Y-35494000D02*
G01*
X46430000Y-35494000D01*
X46430000Y-34478000D01*
X47446000Y-34478000D01*
X47446000Y-35494000D01*
G37*
X36270000Y-38034000D02*
X35254000Y-38034000D01*
X35254000Y-37018000D01*
X36270000Y-37018000D01*
X36270000Y-38034000D01*
G36*
X36270000Y-38034000D02*
G01*
X35254000Y-38034000D01*
X35254000Y-37018000D01*
X36270000Y-37018000D01*
X36270000Y-38034000D01*
G37*
X47446000Y-38034000D02*
X46430000Y-38034000D01*
X46430000Y-37018000D01*
X47446000Y-37018000D01*
X47446000Y-38034000D01*
G36*
X47446000Y-38034000D02*
G01*
X46430000Y-38034000D01*
X46430000Y-37018000D01*
X47446000Y-37018000D01*
X47446000Y-38034000D01*
G37*
X36270000Y-40574000D02*
X35254000Y-40574000D01*
X35254000Y-39558000D01*
X36270000Y-39558000D01*
X36270000Y-40574000D01*
G36*
X36270000Y-40574000D02*
G01*
X35254000Y-40574000D01*
X35254000Y-39558000D01*
X36270000Y-39558000D01*
X36270000Y-40574000D01*
G37*
X47446000Y-40574000D02*
X46430000Y-40574000D01*
X46430000Y-39558000D01*
X47446000Y-39558000D01*
X47446000Y-40574000D01*
G36*
X47446000Y-40574000D02*
G01*
X46430000Y-40574000D01*
X46430000Y-39558000D01*
X47446000Y-39558000D01*
X47446000Y-40574000D01*
G37*
X36270000Y-43114000D02*
X35254000Y-43114000D01*
X35254000Y-42098000D01*
X36270000Y-42098000D01*
X36270000Y-43114000D01*
G36*
X36270000Y-43114000D02*
G01*
X35254000Y-43114000D01*
X35254000Y-42098000D01*
X36270000Y-42098000D01*
X36270000Y-43114000D01*
G37*
X47446000Y-43114000D02*
X46430000Y-43114000D01*
X46430000Y-42098000D01*
X47446000Y-42098000D01*
X47446000Y-43114000D01*
G36*
X47446000Y-43114000D02*
G01*
X46430000Y-43114000D01*
X46430000Y-42098000D01*
X47446000Y-42098000D01*
X47446000Y-43114000D01*
G37*
X36270000Y-45654000D02*
X35254000Y-45654000D01*
X35254000Y-44638000D01*
X36270000Y-44638000D01*
X36270000Y-45654000D01*
G36*
X36270000Y-45654000D02*
G01*
X35254000Y-45654000D01*
X35254000Y-44638000D01*
X36270000Y-44638000D01*
X36270000Y-45654000D01*
G37*
X47446000Y-45654000D02*
X46430000Y-45654000D01*
X46430000Y-44638000D01*
X47446000Y-44638000D01*
X47446000Y-45654000D01*
G36*
X47446000Y-45654000D02*
G01*
X46430000Y-45654000D01*
X46430000Y-44638000D01*
X47446000Y-44638000D01*
X47446000Y-45654000D01*
G37*
X36270000Y-48194000D02*
X35254000Y-48194000D01*
X35254000Y-47178000D01*
X36270000Y-47178000D01*
X36270000Y-48194000D01*
G36*
X36270000Y-48194000D02*
G01*
X35254000Y-48194000D01*
X35254000Y-47178000D01*
X36270000Y-47178000D01*
X36270000Y-48194000D01*
G37*
X47446000Y-48194000D02*
X46430000Y-48194000D01*
X46430000Y-47178000D01*
X47446000Y-47178000D01*
X47446000Y-48194000D01*
G36*
X47446000Y-48194000D02*
G01*
X46430000Y-48194000D01*
X46430000Y-47178000D01*
X47446000Y-47178000D01*
X47446000Y-48194000D01*
G37*
X36270000Y-50734000D02*
X35254000Y-50734000D01*
X35254000Y-49718000D01*
X36270000Y-49718000D01*
X36270000Y-50734000D01*
G36*
X36270000Y-50734000D02*
G01*
X35254000Y-50734000D01*
X35254000Y-49718000D01*
X36270000Y-49718000D01*
X36270000Y-50734000D01*
G37*
X47446000Y-50734000D02*
X46430000Y-50734000D01*
X46430000Y-49718000D01*
X47446000Y-49718000D01*
X47446000Y-50734000D01*
G36*
X47446000Y-50734000D02*
G01*
X46430000Y-50734000D01*
X46430000Y-49718000D01*
X47446000Y-49718000D01*
X47446000Y-50734000D01*
G37*
D12*
X51000000Y-64750000D03*
D13*
X33610000Y-78460000D03*
X33610000Y-83460000D03*
X33610000Y-80960000D03*
D14*
X41110000Y-75360000D03*
X41110000Y-86560000D03*
D13*
X48110000Y-83460000D03*
X48110000Y-78460000D03*
D15*
X33670000Y-70775000D03*
X40670000Y-70775000D03*
X33670000Y-69025000D03*
X40670000Y-69025000D03*
D16*
X42470000Y-66925000D03*
X38470000Y-66925000D03*
X35470000Y-66925000D03*
X43470000Y-71125000D03*
D17*
X36284000Y-53766000D03*
D18*
X38824000Y-53766000D03*
X41364000Y-53766000D03*
X43904000Y-53766000D03*
X46444000Y-53766000D03*
D19*
X32200000Y-58632000D03*
X32200000Y-61632000D03*
D20*
X38949500Y-60632000D03*
X38949500Y-58632000D03*
D12*
X80500000Y-26000000D03*
D21*
X48970000Y-22286000D03*
D22*
X48970000Y-22286000D03*
D23*
X47192000Y-22286000D03*
D24*
X35508000Y-22286000D03*
D21*
X33730000Y-22286000D03*
X48970000Y-24826000D03*
D23*
X47192000Y-24826000D03*
D24*
X35508000Y-24826000D03*
D21*
X33730000Y-24826000D03*
X48970000Y-27366000D03*
D23*
X47192000Y-27366000D03*
D24*
X35508000Y-27366000D03*
D21*
X33730000Y-27366000D03*
X48970000Y-29906000D03*
D23*
X47192000Y-29906000D03*
D24*
X35508000Y-29906000D03*
D21*
X33730000Y-29906000D03*
X48970000Y-32446000D03*
D23*
X47192000Y-32446000D03*
D24*
X35508000Y-32446000D03*
D21*
X33730000Y-32446000D03*
X48970000Y-34986000D03*
D23*
X47192000Y-34986000D03*
D24*
X35508000Y-34986000D03*
D21*
X33730000Y-34986000D03*
X48970000Y-37526000D03*
D23*
X47192000Y-37526000D03*
D24*
X35508000Y-37526000D03*
D21*
X33730000Y-37526000D03*
X48970000Y-40066000D03*
D23*
X47192000Y-40066000D03*
D24*
X35508000Y-40066000D03*
D21*
X33730000Y-40066000D03*
X48970000Y-42606000D03*
D23*
X47192000Y-42606000D03*
D24*
X35508000Y-42606000D03*
D21*
X33730000Y-42606000D03*
X48970000Y-45146000D03*
D23*
X47192000Y-45146000D03*
D24*
X35508000Y-45146000D03*
D21*
X33730000Y-45146000D03*
X48970000Y-47686000D03*
D23*
X47192000Y-47686000D03*
D24*
X35508000Y-47686000D03*
D21*
X33730000Y-47686000D03*
X48970000Y-50226000D03*
D23*
X47192000Y-50226000D03*
D24*
X35508000Y-50226000D03*
D21*
X33730000Y-50226000D03*
D25*
X36524000Y-22286000D03*
X36524000Y-24826000D03*
X36524000Y-27366000D03*
X36524000Y-29906000D03*
X36524000Y-32446000D03*
X36524000Y-34986000D03*
X36524000Y-37526000D03*
X36524000Y-40066000D03*
X36524000Y-42606000D03*
X36524000Y-45146000D03*
X36524000Y-47686000D03*
X36524000Y-50226000D03*
D26*
X46176000Y-50226000D03*
X46176000Y-47686000D03*
X46176000Y-45146000D03*
X46176000Y-42606000D03*
X46176000Y-40066000D03*
X46176000Y-37526000D03*
X46176000Y-34986000D03*
X46176000Y-32446000D03*
X46176000Y-29906000D03*
X46176000Y-27366000D03*
X46176000Y-24826000D03*
X46176000Y-22286000D03*
D12*
X157700000Y-26500000D03*
X52500000Y-92500000D03*
X119100000Y-26000000D03*
D27*
X66350000Y-25386000D03*
X67350000Y-25386000D03*
X68350000Y-25385000D03*
X69350000Y-25385000D03*
X70350000Y-25385000D03*
X71350000Y-25385000D03*
X72350000Y-25385000D03*
X73350000Y-25385000D03*
X74350000Y-25385000D03*
X75350000Y-25385000D03*
D28*
X65050000Y-21510000D03*
X76650000Y-21510000D03*
D27*
X85650000Y-25386000D03*
X86650000Y-25386000D03*
X87650000Y-25385000D03*
X88650000Y-25385000D03*
X89650000Y-25385000D03*
X90650000Y-25385000D03*
X91650000Y-25385000D03*
X92650000Y-25385000D03*
X93650000Y-25385000D03*
X94650000Y-25385000D03*
D28*
X84350000Y-21510000D03*
X95950000Y-21510000D03*
D19*
X55712500Y-24449500D03*
X55712500Y-21649500D03*
D29*
X58312500Y-23899500D03*
X58312500Y-22199500D03*
X53112500Y-23899500D03*
X53112500Y-22199500D03*
D27*
X46000000Y-91114000D03*
X45000000Y-91114000D03*
X44000000Y-91115000D03*
X43000000Y-91115000D03*
X42000000Y-91115000D03*
X41000000Y-91115000D03*
X40000000Y-91115000D03*
X39000000Y-91115000D03*
X38000000Y-91115000D03*
X37000000Y-91115000D03*
D28*
X47300000Y-94990000D03*
X35700000Y-94990000D03*
D27*
X162850000Y-25386000D03*
X163850000Y-25386000D03*
X164850000Y-25385000D03*
X165850000Y-25385000D03*
X166850000Y-25385000D03*
X167850000Y-25385000D03*
X168850000Y-25385000D03*
X169850000Y-25385000D03*
X170850000Y-25385000D03*
X171850000Y-25385000D03*
D28*
X161550000Y-21510000D03*
X173150000Y-21510000D03*
D27*
X124250000Y-25386000D03*
X125250000Y-25386000D03*
X126250000Y-25385000D03*
X127250000Y-25385000D03*
X128250000Y-25385000D03*
X129250000Y-25385000D03*
X130250000Y-25385000D03*
X131250000Y-25385000D03*
X132250000Y-25385000D03*
X133250000Y-25385000D03*
D28*
X122950000Y-21510000D03*
X134550000Y-21510000D03*
D27*
X104950000Y-25386000D03*
X105950000Y-25386000D03*
X106950000Y-25385000D03*
X107950000Y-25385000D03*
X108950000Y-25385000D03*
X109950000Y-25385000D03*
X110950000Y-25385000D03*
X111950000Y-25385000D03*
X112950000Y-25385000D03*
X113950000Y-25385000D03*
D28*
X103650000Y-21510000D03*
X115250000Y-21510000D03*
D27*
X143550000Y-25386000D03*
X144550000Y-25386000D03*
X145550000Y-25385000D03*
X146550000Y-25385000D03*
X147550000Y-25385000D03*
X148550000Y-25385000D03*
X149550000Y-25385000D03*
X150550000Y-25385000D03*
X151550000Y-25385000D03*
X152550000Y-25385000D03*
D28*
X142250000Y-21510000D03*
X153850000Y-21510000D03*
M02*
