G04 #@! TF.GenerationSoftware,KiCad,Pcbnew,7.0.5*
G04 #@! TF.CreationDate,2023-12-27T01:06:36-08:00*
G04 #@! TF.ProjectId,Seismos_5CoreR,53656973-6d6f-4735-9f35-436f7265522e,rev?*
G04 #@! TF.SameCoordinates,Original*
G04 #@! TF.FileFunction,Legend,Bot*
G04 #@! TF.FilePolarity,Positive*
%FSLAX46Y46*%
G04 Gerber Fmt 4.6, Leading zero omitted, Abs format (unit mm)*
G04 Created by KiCad (PCBNEW 7.0.5) date 2023-12-27 01:06:36*
%MOMM*%
%LPD*%
G01*
G04 APERTURE LIST*
G04 Aperture macros list*
%AMRoundRect*
0 Rectangle with rounded corners*
0 $1 Rounding radius*
0 $2 $3 $4 $5 $6 $7 $8 $9 X,Y pos of 4 corners*
0 Add a 4 corners polygon primitive as box body*
4,1,4,$2,$3,$4,$5,$6,$7,$8,$9,$2,$3,0*
0 Add four circle primitives for the rounded corners*
1,1,$1+$1,$2,$3*
1,1,$1+$1,$4,$5*
1,1,$1+$1,$6,$7*
1,1,$1+$1,$8,$9*
0 Add four rect primitives between the rounded corners*
20,1,$1+$1,$2,$3,$4,$5,0*
20,1,$1+$1,$4,$5,$6,$7,0*
20,1,$1+$1,$6,$7,$8,$9,0*
20,1,$1+$1,$8,$9,$2,$3,0*%
%AMFreePoly0*
4,1,6,0.600000,0.200000,0.000000,-0.400000,-0.600000,0.200000,-0.600000,0.400000,0.600000,0.400000,0.600000,0.200000,0.600000,0.200000,$1*%
%AMFreePoly1*
4,1,6,0.600000,-0.250000,-0.600000,-0.250000,-0.600000,1.000000,0.000000,0.400000,0.600000,1.000000,0.600000,-0.250000,0.600000,-0.250000,$1*%
%AMFreePoly2*
4,1,6,1.000000,0.000000,0.500000,-0.750000,-0.500000,-0.750000,-0.500000,0.750000,0.500000,0.750000,1.000000,0.000000,1.000000,0.000000,$1*%
%AMFreePoly3*
4,1,6,0.500000,-0.750000,-0.650000,-0.750000,-0.150000,0.000000,-0.650000,0.750000,0.500000,0.750000,0.500000,-0.750000,0.500000,-0.750000,$1*%
G04 Aperture macros list end*
%ADD10C,0.150000*%
%ADD11C,0.120000*%
%ADD12C,0.254000*%
%ADD13C,0.250000*%
%ADD14C,0.100000*%
%ADD15C,3.200000*%
%ADD16C,2.000000*%
%ADD17R,3.200000X2.000000*%
%ADD18C,1.200000*%
%ADD19O,2.500000X1.700000*%
%ADD20R,1.700000X1.700000*%
%ADD21O,1.700000X1.700000*%
%ADD22C,0.900000*%
%ADD23C,1.400000*%
%ADD24C,1.600000*%
%ADD25R,1.600000X1.600000*%
%ADD26FreePoly0,270.000000*%
%ADD27FreePoly0,90.000000*%
%ADD28FreePoly1,90.000000*%
%ADD29FreePoly1,270.000000*%
%ADD30R,0.600000X1.700000*%
%ADD31R,1.200000X1.800000*%
%ADD32RoundRect,0.237500X0.250000X0.237500X-0.250000X0.237500X-0.250000X-0.237500X0.250000X-0.237500X0*%
%ADD33FreePoly2,0.000000*%
%ADD34FreePoly3,0.000000*%
%ADD35R,1.550000X1.000000*%
G04 APERTURE END LIST*
D10*
X53319819Y-75876190D02*
X52843628Y-75542857D01*
X53319819Y-75304762D02*
X52319819Y-75304762D01*
X52319819Y-75304762D02*
X52319819Y-75685714D01*
X52319819Y-75685714D02*
X52367438Y-75780952D01*
X52367438Y-75780952D02*
X52415057Y-75828571D01*
X52415057Y-75828571D02*
X52510295Y-75876190D01*
X52510295Y-75876190D02*
X52653152Y-75876190D01*
X52653152Y-75876190D02*
X52748390Y-75828571D01*
X52748390Y-75828571D02*
X52796009Y-75780952D01*
X52796009Y-75780952D02*
X52843628Y-75685714D01*
X52843628Y-75685714D02*
X52843628Y-75304762D01*
X53272200Y-76685714D02*
X53319819Y-76590476D01*
X53319819Y-76590476D02*
X53319819Y-76400000D01*
X53319819Y-76400000D02*
X53272200Y-76304762D01*
X53272200Y-76304762D02*
X53176961Y-76257143D01*
X53176961Y-76257143D02*
X52796009Y-76257143D01*
X52796009Y-76257143D02*
X52700771Y-76304762D01*
X52700771Y-76304762D02*
X52653152Y-76400000D01*
X52653152Y-76400000D02*
X52653152Y-76590476D01*
X52653152Y-76590476D02*
X52700771Y-76685714D01*
X52700771Y-76685714D02*
X52796009Y-76733333D01*
X52796009Y-76733333D02*
X52891247Y-76733333D01*
X52891247Y-76733333D02*
X52986485Y-76257143D01*
X52653152Y-77066667D02*
X53319819Y-77304762D01*
X53319819Y-77304762D02*
X52653152Y-77542857D01*
X53224580Y-77923810D02*
X53272200Y-77971429D01*
X53272200Y-77971429D02*
X53319819Y-77923810D01*
X53319819Y-77923810D02*
X53272200Y-77876191D01*
X53272200Y-77876191D02*
X53224580Y-77923810D01*
X53224580Y-77923810D02*
X53319819Y-77923810D01*
X53319819Y-79685714D02*
X53319819Y-79114286D01*
X53319819Y-79400000D02*
X52319819Y-79400000D01*
X52319819Y-79400000D02*
X52462676Y-79304762D01*
X52462676Y-79304762D02*
X52557914Y-79209524D01*
X52557914Y-79209524D02*
X52605533Y-79114286D01*
X53224580Y-80114286D02*
X53272200Y-80161905D01*
X53272200Y-80161905D02*
X53319819Y-80114286D01*
X53319819Y-80114286D02*
X53272200Y-80066667D01*
X53272200Y-80066667D02*
X53224580Y-80114286D01*
X53224580Y-80114286D02*
X53319819Y-80114286D01*
X53319819Y-81114285D02*
X53319819Y-80542857D01*
X53319819Y-80828571D02*
X52319819Y-80828571D01*
X52319819Y-80828571D02*
X52462676Y-80733333D01*
X52462676Y-80733333D02*
X52557914Y-80638095D01*
X52557914Y-80638095D02*
X52605533Y-80542857D01*
X53224580Y-81542857D02*
X53272200Y-81590476D01*
X53272200Y-81590476D02*
X53319819Y-81542857D01*
X53319819Y-81542857D02*
X53272200Y-81495238D01*
X53272200Y-81495238D02*
X53224580Y-81542857D01*
X53224580Y-81542857D02*
X53319819Y-81542857D01*
X52415057Y-81971428D02*
X52367438Y-82019047D01*
X52367438Y-82019047D02*
X52319819Y-82114285D01*
X52319819Y-82114285D02*
X52319819Y-82352380D01*
X52319819Y-82352380D02*
X52367438Y-82447618D01*
X52367438Y-82447618D02*
X52415057Y-82495237D01*
X52415057Y-82495237D02*
X52510295Y-82542856D01*
X52510295Y-82542856D02*
X52605533Y-82542856D01*
X52605533Y-82542856D02*
X52748390Y-82495237D01*
X52748390Y-82495237D02*
X53319819Y-81923809D01*
X53319819Y-81923809D02*
X53319819Y-82542856D01*
X71969047Y-32954819D02*
X72445237Y-32954819D01*
X72445237Y-32954819D02*
X72445237Y-31954819D01*
X71635713Y-32431009D02*
X71302380Y-32431009D01*
X71159523Y-32954819D02*
X71635713Y-32954819D01*
X71635713Y-32954819D02*
X71635713Y-31954819D01*
X71635713Y-31954819D02*
X71159523Y-31954819D01*
X70730951Y-32954819D02*
X70730951Y-31954819D01*
X70730951Y-31954819D02*
X70492856Y-31954819D01*
X70492856Y-31954819D02*
X70349999Y-32002438D01*
X70349999Y-32002438D02*
X70254761Y-32097676D01*
X70254761Y-32097676D02*
X70207142Y-32192914D01*
X70207142Y-32192914D02*
X70159523Y-32383390D01*
X70159523Y-32383390D02*
X70159523Y-32526247D01*
X70159523Y-32526247D02*
X70207142Y-32716723D01*
X70207142Y-32716723D02*
X70254761Y-32811961D01*
X70254761Y-32811961D02*
X70349999Y-32907200D01*
X70349999Y-32907200D02*
X70492856Y-32954819D01*
X70492856Y-32954819D02*
X70730951Y-32954819D01*
X69302380Y-31954819D02*
X69492856Y-31954819D01*
X69492856Y-31954819D02*
X69588094Y-32002438D01*
X69588094Y-32002438D02*
X69635713Y-32050057D01*
X69635713Y-32050057D02*
X69730951Y-32192914D01*
X69730951Y-32192914D02*
X69778570Y-32383390D01*
X69778570Y-32383390D02*
X69778570Y-32764342D01*
X69778570Y-32764342D02*
X69730951Y-32859580D01*
X69730951Y-32859580D02*
X69683332Y-32907200D01*
X69683332Y-32907200D02*
X69588094Y-32954819D01*
X69588094Y-32954819D02*
X69397618Y-32954819D01*
X69397618Y-32954819D02*
X69302380Y-32907200D01*
X69302380Y-32907200D02*
X69254761Y-32859580D01*
X69254761Y-32859580D02*
X69207142Y-32764342D01*
X69207142Y-32764342D02*
X69207142Y-32526247D01*
X69207142Y-32526247D02*
X69254761Y-32431009D01*
X69254761Y-32431009D02*
X69302380Y-32383390D01*
X69302380Y-32383390D02*
X69397618Y-32335771D01*
X69397618Y-32335771D02*
X69588094Y-32335771D01*
X69588094Y-32335771D02*
X69683332Y-32383390D01*
X69683332Y-32383390D02*
X69730951Y-32431009D01*
X69730951Y-32431009D02*
X69778570Y-32526247D01*
X168469047Y-32954819D02*
X168945237Y-32954819D01*
X168945237Y-32954819D02*
X168945237Y-31954819D01*
X168135713Y-32431009D02*
X167802380Y-32431009D01*
X167659523Y-32954819D02*
X168135713Y-32954819D01*
X168135713Y-32954819D02*
X168135713Y-31954819D01*
X168135713Y-31954819D02*
X167659523Y-31954819D01*
X167230951Y-32954819D02*
X167230951Y-31954819D01*
X167230951Y-31954819D02*
X166992856Y-31954819D01*
X166992856Y-31954819D02*
X166849999Y-32002438D01*
X166849999Y-32002438D02*
X166754761Y-32097676D01*
X166754761Y-32097676D02*
X166707142Y-32192914D01*
X166707142Y-32192914D02*
X166659523Y-32383390D01*
X166659523Y-32383390D02*
X166659523Y-32526247D01*
X166659523Y-32526247D02*
X166707142Y-32716723D01*
X166707142Y-32716723D02*
X166754761Y-32811961D01*
X166754761Y-32811961D02*
X166849999Y-32907200D01*
X166849999Y-32907200D02*
X166992856Y-32954819D01*
X166992856Y-32954819D02*
X167230951Y-32954819D01*
X165707142Y-32954819D02*
X166278570Y-32954819D01*
X165992856Y-32954819D02*
X165992856Y-31954819D01*
X165992856Y-31954819D02*
X166088094Y-32097676D01*
X166088094Y-32097676D02*
X166183332Y-32192914D01*
X166183332Y-32192914D02*
X166278570Y-32240533D01*
X129869047Y-32954819D02*
X130345237Y-32954819D01*
X130345237Y-32954819D02*
X130345237Y-31954819D01*
X129535713Y-32431009D02*
X129202380Y-32431009D01*
X129059523Y-32954819D02*
X129535713Y-32954819D01*
X129535713Y-32954819D02*
X129535713Y-31954819D01*
X129535713Y-31954819D02*
X129059523Y-31954819D01*
X128630951Y-32954819D02*
X128630951Y-31954819D01*
X128630951Y-31954819D02*
X128392856Y-31954819D01*
X128392856Y-31954819D02*
X128249999Y-32002438D01*
X128249999Y-32002438D02*
X128154761Y-32097676D01*
X128154761Y-32097676D02*
X128107142Y-32192914D01*
X128107142Y-32192914D02*
X128059523Y-32383390D01*
X128059523Y-32383390D02*
X128059523Y-32526247D01*
X128059523Y-32526247D02*
X128107142Y-32716723D01*
X128107142Y-32716723D02*
X128154761Y-32811961D01*
X128154761Y-32811961D02*
X128249999Y-32907200D01*
X128249999Y-32907200D02*
X128392856Y-32954819D01*
X128392856Y-32954819D02*
X128630951Y-32954819D01*
X127726189Y-31954819D02*
X127107142Y-31954819D01*
X127107142Y-31954819D02*
X127440475Y-32335771D01*
X127440475Y-32335771D02*
X127297618Y-32335771D01*
X127297618Y-32335771D02*
X127202380Y-32383390D01*
X127202380Y-32383390D02*
X127154761Y-32431009D01*
X127154761Y-32431009D02*
X127107142Y-32526247D01*
X127107142Y-32526247D02*
X127107142Y-32764342D01*
X127107142Y-32764342D02*
X127154761Y-32859580D01*
X127154761Y-32859580D02*
X127202380Y-32907200D01*
X127202380Y-32907200D02*
X127297618Y-32954819D01*
X127297618Y-32954819D02*
X127583332Y-32954819D01*
X127583332Y-32954819D02*
X127678570Y-32907200D01*
X127678570Y-32907200D02*
X127726189Y-32859580D01*
X110569047Y-32954819D02*
X111045237Y-32954819D01*
X111045237Y-32954819D02*
X111045237Y-31954819D01*
X110235713Y-32431009D02*
X109902380Y-32431009D01*
X109759523Y-32954819D02*
X110235713Y-32954819D01*
X110235713Y-32954819D02*
X110235713Y-31954819D01*
X110235713Y-31954819D02*
X109759523Y-31954819D01*
X109330951Y-32954819D02*
X109330951Y-31954819D01*
X109330951Y-31954819D02*
X109092856Y-31954819D01*
X109092856Y-31954819D02*
X108949999Y-32002438D01*
X108949999Y-32002438D02*
X108854761Y-32097676D01*
X108854761Y-32097676D02*
X108807142Y-32192914D01*
X108807142Y-32192914D02*
X108759523Y-32383390D01*
X108759523Y-32383390D02*
X108759523Y-32526247D01*
X108759523Y-32526247D02*
X108807142Y-32716723D01*
X108807142Y-32716723D02*
X108854761Y-32811961D01*
X108854761Y-32811961D02*
X108949999Y-32907200D01*
X108949999Y-32907200D02*
X109092856Y-32954819D01*
X109092856Y-32954819D02*
X109330951Y-32954819D01*
X107902380Y-32288152D02*
X107902380Y-32954819D01*
X108140475Y-31907200D02*
X108378570Y-32621485D01*
X108378570Y-32621485D02*
X107759523Y-32621485D01*
X33307433Y-59363941D02*
X34116956Y-59363941D01*
X34116956Y-59363941D02*
X34212194Y-59411560D01*
X34212194Y-59411560D02*
X34259814Y-59459179D01*
X34259814Y-59459179D02*
X34307433Y-59554417D01*
X34307433Y-59554417D02*
X34307433Y-59744893D01*
X34307433Y-59744893D02*
X34259814Y-59840131D01*
X34259814Y-59840131D02*
X34212194Y-59887750D01*
X34212194Y-59887750D02*
X34116956Y-59935369D01*
X34116956Y-59935369D02*
X33307433Y-59935369D01*
X33402671Y-60363941D02*
X33355052Y-60411560D01*
X33355052Y-60411560D02*
X33307433Y-60506798D01*
X33307433Y-60506798D02*
X33307433Y-60744893D01*
X33307433Y-60744893D02*
X33355052Y-60840131D01*
X33355052Y-60840131D02*
X33402671Y-60887750D01*
X33402671Y-60887750D02*
X33497909Y-60935369D01*
X33497909Y-60935369D02*
X33593147Y-60935369D01*
X33593147Y-60935369D02*
X33736004Y-60887750D01*
X33736004Y-60887750D02*
X34307433Y-60316322D01*
X34307433Y-60316322D02*
X34307433Y-60935369D01*
X149169047Y-32954819D02*
X149645237Y-32954819D01*
X149645237Y-32954819D02*
X149645237Y-31954819D01*
X148835713Y-32431009D02*
X148502380Y-32431009D01*
X148359523Y-32954819D02*
X148835713Y-32954819D01*
X148835713Y-32954819D02*
X148835713Y-31954819D01*
X148835713Y-31954819D02*
X148359523Y-31954819D01*
X147930951Y-32954819D02*
X147930951Y-31954819D01*
X147930951Y-31954819D02*
X147692856Y-31954819D01*
X147692856Y-31954819D02*
X147549999Y-32002438D01*
X147549999Y-32002438D02*
X147454761Y-32097676D01*
X147454761Y-32097676D02*
X147407142Y-32192914D01*
X147407142Y-32192914D02*
X147359523Y-32383390D01*
X147359523Y-32383390D02*
X147359523Y-32526247D01*
X147359523Y-32526247D02*
X147407142Y-32716723D01*
X147407142Y-32716723D02*
X147454761Y-32811961D01*
X147454761Y-32811961D02*
X147549999Y-32907200D01*
X147549999Y-32907200D02*
X147692856Y-32954819D01*
X147692856Y-32954819D02*
X147930951Y-32954819D01*
X146978570Y-32050057D02*
X146930951Y-32002438D01*
X146930951Y-32002438D02*
X146835713Y-31954819D01*
X146835713Y-31954819D02*
X146597618Y-31954819D01*
X146597618Y-31954819D02*
X146502380Y-32002438D01*
X146502380Y-32002438D02*
X146454761Y-32050057D01*
X146454761Y-32050057D02*
X146407142Y-32145295D01*
X146407142Y-32145295D02*
X146407142Y-32240533D01*
X146407142Y-32240533D02*
X146454761Y-32383390D01*
X146454761Y-32383390D02*
X147026189Y-32954819D01*
X147026189Y-32954819D02*
X146407142Y-32954819D01*
X91269047Y-32954819D02*
X91745237Y-32954819D01*
X91745237Y-32954819D02*
X91745237Y-31954819D01*
X90935713Y-32431009D02*
X90602380Y-32431009D01*
X90459523Y-32954819D02*
X90935713Y-32954819D01*
X90935713Y-32954819D02*
X90935713Y-31954819D01*
X90935713Y-31954819D02*
X90459523Y-31954819D01*
X90030951Y-32954819D02*
X90030951Y-31954819D01*
X90030951Y-31954819D02*
X89792856Y-31954819D01*
X89792856Y-31954819D02*
X89649999Y-32002438D01*
X89649999Y-32002438D02*
X89554761Y-32097676D01*
X89554761Y-32097676D02*
X89507142Y-32192914D01*
X89507142Y-32192914D02*
X89459523Y-32383390D01*
X89459523Y-32383390D02*
X89459523Y-32526247D01*
X89459523Y-32526247D02*
X89507142Y-32716723D01*
X89507142Y-32716723D02*
X89554761Y-32811961D01*
X89554761Y-32811961D02*
X89649999Y-32907200D01*
X89649999Y-32907200D02*
X89792856Y-32954819D01*
X89792856Y-32954819D02*
X90030951Y-32954819D01*
X88554761Y-31954819D02*
X89030951Y-31954819D01*
X89030951Y-31954819D02*
X89078570Y-32431009D01*
X89078570Y-32431009D02*
X89030951Y-32383390D01*
X89030951Y-32383390D02*
X88935713Y-32335771D01*
X88935713Y-32335771D02*
X88697618Y-32335771D01*
X88697618Y-32335771D02*
X88602380Y-32383390D01*
X88602380Y-32383390D02*
X88554761Y-32431009D01*
X88554761Y-32431009D02*
X88507142Y-32526247D01*
X88507142Y-32526247D02*
X88507142Y-32764342D01*
X88507142Y-32764342D02*
X88554761Y-32859580D01*
X88554761Y-32859580D02*
X88602380Y-32907200D01*
X88602380Y-32907200D02*
X88697618Y-32954819D01*
X88697618Y-32954819D02*
X88935713Y-32954819D01*
X88935713Y-32954819D02*
X89030951Y-32907200D01*
X89030951Y-32907200D02*
X89078570Y-32859580D01*
X71183333Y-21954819D02*
X71183333Y-22669104D01*
X71183333Y-22669104D02*
X71230952Y-22811961D01*
X71230952Y-22811961D02*
X71326190Y-22907200D01*
X71326190Y-22907200D02*
X71469047Y-22954819D01*
X71469047Y-22954819D02*
X71564285Y-22954819D01*
X70278571Y-21954819D02*
X70469047Y-21954819D01*
X70469047Y-21954819D02*
X70564285Y-22002438D01*
X70564285Y-22002438D02*
X70611904Y-22050057D01*
X70611904Y-22050057D02*
X70707142Y-22192914D01*
X70707142Y-22192914D02*
X70754761Y-22383390D01*
X70754761Y-22383390D02*
X70754761Y-22764342D01*
X70754761Y-22764342D02*
X70707142Y-22859580D01*
X70707142Y-22859580D02*
X70659523Y-22907200D01*
X70659523Y-22907200D02*
X70564285Y-22954819D01*
X70564285Y-22954819D02*
X70373809Y-22954819D01*
X70373809Y-22954819D02*
X70278571Y-22907200D01*
X70278571Y-22907200D02*
X70230952Y-22859580D01*
X70230952Y-22859580D02*
X70183333Y-22764342D01*
X70183333Y-22764342D02*
X70183333Y-22526247D01*
X70183333Y-22526247D02*
X70230952Y-22431009D01*
X70230952Y-22431009D02*
X70278571Y-22383390D01*
X70278571Y-22383390D02*
X70373809Y-22335771D01*
X70373809Y-22335771D02*
X70564285Y-22335771D01*
X70564285Y-22335771D02*
X70659523Y-22383390D01*
X70659523Y-22383390D02*
X70707142Y-22431009D01*
X70707142Y-22431009D02*
X70754761Y-22526247D01*
X43466666Y-65054819D02*
X43799999Y-64578628D01*
X44038094Y-65054819D02*
X44038094Y-64054819D01*
X44038094Y-64054819D02*
X43657142Y-64054819D01*
X43657142Y-64054819D02*
X43561904Y-64102438D01*
X43561904Y-64102438D02*
X43514285Y-64150057D01*
X43514285Y-64150057D02*
X43466666Y-64245295D01*
X43466666Y-64245295D02*
X43466666Y-64388152D01*
X43466666Y-64388152D02*
X43514285Y-64483390D01*
X43514285Y-64483390D02*
X43561904Y-64531009D01*
X43561904Y-64531009D02*
X43657142Y-64578628D01*
X43657142Y-64578628D02*
X44038094Y-64578628D01*
X43085713Y-64150057D02*
X43038094Y-64102438D01*
X43038094Y-64102438D02*
X42942856Y-64054819D01*
X42942856Y-64054819D02*
X42704761Y-64054819D01*
X42704761Y-64054819D02*
X42609523Y-64102438D01*
X42609523Y-64102438D02*
X42561904Y-64150057D01*
X42561904Y-64150057D02*
X42514285Y-64245295D01*
X42514285Y-64245295D02*
X42514285Y-64340533D01*
X42514285Y-64340533D02*
X42561904Y-64483390D01*
X42561904Y-64483390D02*
X43133332Y-65054819D01*
X43133332Y-65054819D02*
X42514285Y-65054819D01*
X45008333Y-68154819D02*
X45008333Y-68869104D01*
X45008333Y-68869104D02*
X45055952Y-69011961D01*
X45055952Y-69011961D02*
X45151190Y-69107200D01*
X45151190Y-69107200D02*
X45294047Y-69154819D01*
X45294047Y-69154819D02*
X45389285Y-69154819D01*
X44532142Y-69154819D02*
X44532142Y-68154819D01*
X44532142Y-68154819D02*
X44151190Y-68154819D01*
X44151190Y-68154819D02*
X44055952Y-68202438D01*
X44055952Y-68202438D02*
X44008333Y-68250057D01*
X44008333Y-68250057D02*
X43960714Y-68345295D01*
X43960714Y-68345295D02*
X43960714Y-68488152D01*
X43960714Y-68488152D02*
X44008333Y-68583390D01*
X44008333Y-68583390D02*
X44055952Y-68631009D01*
X44055952Y-68631009D02*
X44151190Y-68678628D01*
X44151190Y-68678628D02*
X44532142Y-68678628D01*
X43008333Y-69154819D02*
X43579761Y-69154819D01*
X43294047Y-69154819D02*
X43294047Y-68154819D01*
X43294047Y-68154819D02*
X43389285Y-68297676D01*
X43389285Y-68297676D02*
X43484523Y-68392914D01*
X43484523Y-68392914D02*
X43579761Y-68440533D01*
X90483333Y-21954819D02*
X90483333Y-22669104D01*
X90483333Y-22669104D02*
X90530952Y-22811961D01*
X90530952Y-22811961D02*
X90626190Y-22907200D01*
X90626190Y-22907200D02*
X90769047Y-22954819D01*
X90769047Y-22954819D02*
X90864285Y-22954819D01*
X89530952Y-21954819D02*
X90007142Y-21954819D01*
X90007142Y-21954819D02*
X90054761Y-22431009D01*
X90054761Y-22431009D02*
X90007142Y-22383390D01*
X90007142Y-22383390D02*
X89911904Y-22335771D01*
X89911904Y-22335771D02*
X89673809Y-22335771D01*
X89673809Y-22335771D02*
X89578571Y-22383390D01*
X89578571Y-22383390D02*
X89530952Y-22431009D01*
X89530952Y-22431009D02*
X89483333Y-22526247D01*
X89483333Y-22526247D02*
X89483333Y-22764342D01*
X89483333Y-22764342D02*
X89530952Y-22859580D01*
X89530952Y-22859580D02*
X89578571Y-22907200D01*
X89578571Y-22907200D02*
X89673809Y-22954819D01*
X89673809Y-22954819D02*
X89911904Y-22954819D01*
X89911904Y-22954819D02*
X90007142Y-22907200D01*
X90007142Y-22907200D02*
X90054761Y-22859580D01*
X43366666Y-63054819D02*
X43699999Y-62578628D01*
X43938094Y-63054819D02*
X43938094Y-62054819D01*
X43938094Y-62054819D02*
X43557142Y-62054819D01*
X43557142Y-62054819D02*
X43461904Y-62102438D01*
X43461904Y-62102438D02*
X43414285Y-62150057D01*
X43414285Y-62150057D02*
X43366666Y-62245295D01*
X43366666Y-62245295D02*
X43366666Y-62388152D01*
X43366666Y-62388152D02*
X43414285Y-62483390D01*
X43414285Y-62483390D02*
X43461904Y-62531009D01*
X43461904Y-62531009D02*
X43557142Y-62578628D01*
X43557142Y-62578628D02*
X43938094Y-62578628D01*
X42414285Y-63054819D02*
X42985713Y-63054819D01*
X42699999Y-63054819D02*
X42699999Y-62054819D01*
X42699999Y-62054819D02*
X42795237Y-62197676D01*
X42795237Y-62197676D02*
X42890475Y-62292914D01*
X42890475Y-62292914D02*
X42985713Y-62340533D01*
X57045832Y-26456700D02*
X56902975Y-26504319D01*
X56902975Y-26504319D02*
X56664880Y-26504319D01*
X56664880Y-26504319D02*
X56569642Y-26456700D01*
X56569642Y-26456700D02*
X56522023Y-26409080D01*
X56522023Y-26409080D02*
X56474404Y-26313842D01*
X56474404Y-26313842D02*
X56474404Y-26218604D01*
X56474404Y-26218604D02*
X56522023Y-26123366D01*
X56522023Y-26123366D02*
X56569642Y-26075747D01*
X56569642Y-26075747D02*
X56664880Y-26028128D01*
X56664880Y-26028128D02*
X56855356Y-25980509D01*
X56855356Y-25980509D02*
X56950594Y-25932890D01*
X56950594Y-25932890D02*
X56998213Y-25885271D01*
X56998213Y-25885271D02*
X57045832Y-25790033D01*
X57045832Y-25790033D02*
X57045832Y-25694795D01*
X57045832Y-25694795D02*
X56998213Y-25599557D01*
X56998213Y-25599557D02*
X56950594Y-25551938D01*
X56950594Y-25551938D02*
X56855356Y-25504319D01*
X56855356Y-25504319D02*
X56617261Y-25504319D01*
X56617261Y-25504319D02*
X56474404Y-25551938D01*
X56141070Y-25504319D02*
X55902975Y-26504319D01*
X55902975Y-26504319D02*
X55712499Y-25790033D01*
X55712499Y-25790033D02*
X55522023Y-26504319D01*
X55522023Y-26504319D02*
X55283928Y-25504319D01*
X54998213Y-25504319D02*
X54379166Y-25504319D01*
X54379166Y-25504319D02*
X54712499Y-25885271D01*
X54712499Y-25885271D02*
X54569642Y-25885271D01*
X54569642Y-25885271D02*
X54474404Y-25932890D01*
X54474404Y-25932890D02*
X54426785Y-25980509D01*
X54426785Y-25980509D02*
X54379166Y-26075747D01*
X54379166Y-26075747D02*
X54379166Y-26313842D01*
X54379166Y-26313842D02*
X54426785Y-26409080D01*
X54426785Y-26409080D02*
X54474404Y-26456700D01*
X54474404Y-26456700D02*
X54569642Y-26504319D01*
X54569642Y-26504319D02*
X54855356Y-26504319D01*
X54855356Y-26504319D02*
X54950594Y-26456700D01*
X54950594Y-26456700D02*
X54998213Y-26409080D01*
X41833333Y-93454819D02*
X41833333Y-94169104D01*
X41833333Y-94169104D02*
X41880952Y-94311961D01*
X41880952Y-94311961D02*
X41976190Y-94407200D01*
X41976190Y-94407200D02*
X42119047Y-94454819D01*
X42119047Y-94454819D02*
X42214285Y-94454819D01*
X41452380Y-93454819D02*
X40785714Y-93454819D01*
X40785714Y-93454819D02*
X41214285Y-94454819D01*
X167683333Y-21954819D02*
X167683333Y-22669104D01*
X167683333Y-22669104D02*
X167730952Y-22811961D01*
X167730952Y-22811961D02*
X167826190Y-22907200D01*
X167826190Y-22907200D02*
X167969047Y-22954819D01*
X167969047Y-22954819D02*
X168064285Y-22954819D01*
X166683333Y-22954819D02*
X167254761Y-22954819D01*
X166969047Y-22954819D02*
X166969047Y-21954819D01*
X166969047Y-21954819D02*
X167064285Y-22097676D01*
X167064285Y-22097676D02*
X167159523Y-22192914D01*
X167159523Y-22192914D02*
X167254761Y-22240533D01*
X129083333Y-21954819D02*
X129083333Y-22669104D01*
X129083333Y-22669104D02*
X129130952Y-22811961D01*
X129130952Y-22811961D02*
X129226190Y-22907200D01*
X129226190Y-22907200D02*
X129369047Y-22954819D01*
X129369047Y-22954819D02*
X129464285Y-22954819D01*
X128702380Y-21954819D02*
X128083333Y-21954819D01*
X128083333Y-21954819D02*
X128416666Y-22335771D01*
X128416666Y-22335771D02*
X128273809Y-22335771D01*
X128273809Y-22335771D02*
X128178571Y-22383390D01*
X128178571Y-22383390D02*
X128130952Y-22431009D01*
X128130952Y-22431009D02*
X128083333Y-22526247D01*
X128083333Y-22526247D02*
X128083333Y-22764342D01*
X128083333Y-22764342D02*
X128130952Y-22859580D01*
X128130952Y-22859580D02*
X128178571Y-22907200D01*
X128178571Y-22907200D02*
X128273809Y-22954819D01*
X128273809Y-22954819D02*
X128559523Y-22954819D01*
X128559523Y-22954819D02*
X128654761Y-22907200D01*
X128654761Y-22907200D02*
X128702380Y-22859580D01*
X109783333Y-21954819D02*
X109783333Y-22669104D01*
X109783333Y-22669104D02*
X109830952Y-22811961D01*
X109830952Y-22811961D02*
X109926190Y-22907200D01*
X109926190Y-22907200D02*
X110069047Y-22954819D01*
X110069047Y-22954819D02*
X110164285Y-22954819D01*
X108878571Y-22288152D02*
X108878571Y-22954819D01*
X109116666Y-21907200D02*
X109354761Y-22621485D01*
X109354761Y-22621485D02*
X108735714Y-22621485D01*
X148383333Y-21954819D02*
X148383333Y-22669104D01*
X148383333Y-22669104D02*
X148430952Y-22811961D01*
X148430952Y-22811961D02*
X148526190Y-22907200D01*
X148526190Y-22907200D02*
X148669047Y-22954819D01*
X148669047Y-22954819D02*
X148764285Y-22954819D01*
X147954761Y-22050057D02*
X147907142Y-22002438D01*
X147907142Y-22002438D02*
X147811904Y-21954819D01*
X147811904Y-21954819D02*
X147573809Y-21954819D01*
X147573809Y-21954819D02*
X147478571Y-22002438D01*
X147478571Y-22002438D02*
X147430952Y-22050057D01*
X147430952Y-22050057D02*
X147383333Y-22145295D01*
X147383333Y-22145295D02*
X147383333Y-22240533D01*
X147383333Y-22240533D02*
X147430952Y-22383390D01*
X147430952Y-22383390D02*
X148002380Y-22954819D01*
X148002380Y-22954819D02*
X147383333Y-22954819D01*
D11*
X35010000Y-75060000D02*
X35010000Y-86860000D01*
X39110000Y-75060000D02*
X35010000Y-75060000D01*
X39110000Y-86860000D02*
X35010000Y-86860000D01*
X40610000Y-80960000D02*
X41610000Y-80960000D01*
X41110000Y-80460000D02*
X41110000Y-81460000D01*
X43110000Y-75060000D02*
X47210000Y-75060000D01*
X47210000Y-75060000D02*
X47210000Y-77460000D01*
X47210000Y-79660000D02*
X47210000Y-82260000D01*
X47210000Y-84460000D02*
X47210000Y-86860000D01*
X47210000Y-86860000D02*
X43110000Y-86860000D01*
X44110000Y-80960000D02*
G75*
G03*
X44110000Y-80960000I-3000000J0D01*
G01*
D10*
X50240000Y-21016000D02*
X50240000Y-51496000D01*
X32460000Y-21016000D02*
X50240000Y-21016000D01*
X32460000Y-21016000D02*
X32460000Y-51496000D01*
X50240000Y-51496000D02*
X32460000Y-51496000D01*
D12*
X64650000Y-22538000D02*
X64650000Y-25078000D01*
X64650000Y-25078000D02*
X65819000Y-25078000D01*
X75881000Y-25078000D02*
X76990000Y-25078000D01*
X75958000Y-20400000D02*
X65742000Y-20400000D01*
X76990000Y-25078000D02*
X76990000Y-22641000D01*
X65475000Y-24760000D02*
G75*
G03*
X65475000Y-24760000I-125000J0D01*
G01*
D11*
X40754724Y-65122500D02*
X40245276Y-65122500D01*
X40754724Y-64077500D02*
X40245276Y-64077500D01*
X42775000Y-65900000D02*
X42775000Y-67900000D01*
X42775000Y-67900000D02*
X45575000Y-67900000D01*
X45575000Y-65900000D02*
X42775000Y-65900000D01*
X45575000Y-67900000D02*
X45575000Y-65900000D01*
D12*
X83950000Y-22538000D02*
X83950000Y-25078000D01*
X83950000Y-25078000D02*
X85119000Y-25078000D01*
X95181000Y-25078000D02*
X96290000Y-25078000D01*
X95258000Y-20400000D02*
X85042000Y-20400000D01*
X96290000Y-25078000D02*
X96290000Y-22641000D01*
X84775000Y-24760000D02*
G75*
G03*
X84775000Y-24760000I-125000J0D01*
G01*
D11*
X40754724Y-63122500D02*
X40245276Y-63122500D01*
X40754724Y-62077500D02*
X40245276Y-62077500D01*
D12*
X53362500Y-24799500D02*
X53362500Y-24630500D01*
X55173500Y-24799500D02*
X53426500Y-24799500D01*
X58062500Y-24799500D02*
X56251500Y-24799500D01*
X58062500Y-24630500D02*
X58062500Y-24799500D01*
X54696500Y-23811500D02*
X56728500Y-23811500D01*
X56728500Y-23811500D02*
X56728500Y-22541500D01*
X55077500Y-23430500D02*
X56347500Y-23430500D01*
X56347500Y-23430500D02*
X56347500Y-22541500D01*
X53362500Y-23168500D02*
X53362500Y-22930500D01*
X55331500Y-23049500D02*
X56093500Y-23049500D01*
X58062500Y-22930500D02*
X58062500Y-23168500D01*
X55331500Y-22668500D02*
X56093500Y-22668500D01*
X54696500Y-22541500D02*
X54696500Y-23811500D01*
X54696500Y-22541500D02*
X55077500Y-22541500D01*
X55077500Y-22541500D02*
X55077500Y-23430500D01*
X56347500Y-22541500D02*
X56728500Y-22541500D01*
X53362500Y-21468500D02*
X53362500Y-21299500D01*
X55173500Y-21299500D02*
X53362500Y-21299500D01*
X58062500Y-21299500D02*
X58062500Y-21468500D01*
X58062500Y-21299500D02*
X56251500Y-21299500D01*
X54412500Y-20763500D02*
X57012500Y-20763500D01*
X54621500Y-20763500D02*
X54621500Y-21299500D01*
X55283500Y-20763500D02*
X55283500Y-21299500D01*
X56138500Y-20763500D02*
X56138500Y-21299500D01*
X56706500Y-20763500D02*
X56706500Y-21299500D01*
X54412500Y-20299500D02*
X54412500Y-20763500D01*
X54412500Y-20299500D02*
X57012500Y-20299500D01*
X57012500Y-20299500D02*
X57012500Y-20763500D01*
X47700000Y-93962000D02*
X47700000Y-91422000D01*
X47700000Y-91422000D02*
X46531000Y-91422000D01*
X36469000Y-91422000D02*
X35360000Y-91422000D01*
X36392000Y-96100000D02*
X46608000Y-96100000D01*
X35360000Y-91422000D02*
X35360000Y-93859000D01*
X47125000Y-91740000D02*
G75*
G03*
X47125000Y-91740000I-125000J0D01*
G01*
X161150000Y-22538000D02*
X161150000Y-25078000D01*
X161150000Y-25078000D02*
X162319000Y-25078000D01*
X172381000Y-25078000D02*
X173490000Y-25078000D01*
X172458000Y-20400000D02*
X162242000Y-20400000D01*
X173490000Y-25078000D02*
X173490000Y-22641000D01*
X161975000Y-24760000D02*
G75*
G03*
X161975000Y-24760000I-125000J0D01*
G01*
X122550000Y-22538000D02*
X122550000Y-25078000D01*
X122550000Y-25078000D02*
X123719000Y-25078000D01*
X133781000Y-25078000D02*
X134890000Y-25078000D01*
X133858000Y-20400000D02*
X123642000Y-20400000D01*
X134890000Y-25078000D02*
X134890000Y-22641000D01*
X123375000Y-24760000D02*
G75*
G03*
X123375000Y-24760000I-125000J0D01*
G01*
X103250000Y-22538000D02*
X103250000Y-25078000D01*
X103250000Y-25078000D02*
X104419000Y-25078000D01*
X114481000Y-25078000D02*
X115590000Y-25078000D01*
X114558000Y-20400000D02*
X104342000Y-20400000D01*
X115590000Y-25078000D02*
X115590000Y-22641000D01*
X104075000Y-24760000D02*
G75*
G03*
X104075000Y-24760000I-125000J0D01*
G01*
X141850000Y-22538000D02*
X141850000Y-25078000D01*
X141850000Y-25078000D02*
X143019000Y-25078000D01*
X153081000Y-25078000D02*
X154190000Y-25078000D01*
X153158000Y-20400000D02*
X142942000Y-20400000D01*
X154190000Y-25078000D02*
X154190000Y-22641000D01*
X142675000Y-24760000D02*
G75*
G03*
X142675000Y-24760000I-125000J0D01*
G01*
%LPC*%
D13*
X42237000Y-22286000D02*
G75*
G03*
X42237000Y-22286000I-125000J0D01*
G01*
X40713000Y-22286000D02*
G75*
G03*
X40713000Y-22286000I-125000J0D01*
G01*
X42237000Y-24826000D02*
G75*
G03*
X42237000Y-24826000I-125000J0D01*
G01*
X40713000Y-24826000D02*
G75*
G03*
X40713000Y-24826000I-125000J0D01*
G01*
X42237000Y-27366000D02*
G75*
G03*
X42237000Y-27366000I-125000J0D01*
G01*
X40713000Y-27366000D02*
G75*
G03*
X40713000Y-27366000I-125000J0D01*
G01*
X42237000Y-29906000D02*
G75*
G03*
X42237000Y-29906000I-125000J0D01*
G01*
X40713000Y-29906000D02*
G75*
G03*
X40713000Y-29906000I-125000J0D01*
G01*
X42237000Y-32446000D02*
G75*
G03*
X42237000Y-32446000I-125000J0D01*
G01*
X40713000Y-32446000D02*
G75*
G03*
X40713000Y-32446000I-125000J0D01*
G01*
X42237000Y-34986000D02*
G75*
G03*
X42237000Y-34986000I-125000J0D01*
G01*
X40713000Y-34986000D02*
G75*
G03*
X40713000Y-34986000I-125000J0D01*
G01*
X42237000Y-37526000D02*
G75*
G03*
X42237000Y-37526000I-125000J0D01*
G01*
X40713000Y-37526000D02*
G75*
G03*
X40713000Y-37526000I-125000J0D01*
G01*
X42237000Y-40066000D02*
G75*
G03*
X42237000Y-40066000I-125000J0D01*
G01*
X40713000Y-40066000D02*
G75*
G03*
X40713000Y-40066000I-125000J0D01*
G01*
X42237000Y-42606000D02*
G75*
G03*
X42237000Y-42606000I-125000J0D01*
G01*
X40713000Y-42606000D02*
G75*
G03*
X40713000Y-42606000I-125000J0D01*
G01*
X42237000Y-45146000D02*
G75*
G03*
X42237000Y-45146000I-125000J0D01*
G01*
X40713000Y-45146000D02*
G75*
G03*
X40713000Y-45146000I-125000J0D01*
G01*
X42237000Y-47686000D02*
G75*
G03*
X42237000Y-47686000I-125000J0D01*
G01*
X40713000Y-47686000D02*
G75*
G03*
X40713000Y-47686000I-125000J0D01*
G01*
X42237000Y-50226000D02*
G75*
G03*
X42237000Y-50226000I-125000J0D01*
G01*
X40713000Y-50226000D02*
G75*
G03*
X40713000Y-50226000I-125000J0D01*
G01*
D14*
X36270000Y-22794000D02*
X35254000Y-22794000D01*
X35254000Y-21778000D01*
X36270000Y-21778000D01*
X36270000Y-22794000D01*
G36*
X36270000Y-22794000D02*
G01*
X35254000Y-22794000D01*
X35254000Y-21778000D01*
X36270000Y-21778000D01*
X36270000Y-22794000D01*
G37*
X47446000Y-22794000D02*
X46430000Y-22794000D01*
X46430000Y-21778000D01*
X47446000Y-21778000D01*
X47446000Y-22794000D01*
G36*
X47446000Y-22794000D02*
G01*
X46430000Y-22794000D01*
X46430000Y-21778000D01*
X47446000Y-21778000D01*
X47446000Y-22794000D01*
G37*
X36270000Y-25334000D02*
X35254000Y-25334000D01*
X35254000Y-24318000D01*
X36270000Y-24318000D01*
X36270000Y-25334000D01*
G36*
X36270000Y-25334000D02*
G01*
X35254000Y-25334000D01*
X35254000Y-24318000D01*
X36270000Y-24318000D01*
X36270000Y-25334000D01*
G37*
X47446000Y-25334000D02*
X46430000Y-25334000D01*
X46430000Y-24318000D01*
X47446000Y-24318000D01*
X47446000Y-25334000D01*
G36*
X47446000Y-25334000D02*
G01*
X46430000Y-25334000D01*
X46430000Y-24318000D01*
X47446000Y-24318000D01*
X47446000Y-25334000D01*
G37*
X36270000Y-27874000D02*
X35254000Y-27874000D01*
X35254000Y-26858000D01*
X36270000Y-26858000D01*
X36270000Y-27874000D01*
G36*
X36270000Y-27874000D02*
G01*
X35254000Y-27874000D01*
X35254000Y-26858000D01*
X36270000Y-26858000D01*
X36270000Y-27874000D01*
G37*
X47446000Y-27874000D02*
X46430000Y-27874000D01*
X46430000Y-26858000D01*
X47446000Y-26858000D01*
X47446000Y-27874000D01*
G36*
X47446000Y-27874000D02*
G01*
X46430000Y-27874000D01*
X46430000Y-26858000D01*
X47446000Y-26858000D01*
X47446000Y-27874000D01*
G37*
X36270000Y-30414000D02*
X35254000Y-30414000D01*
X35254000Y-29398000D01*
X36270000Y-29398000D01*
X36270000Y-30414000D01*
G36*
X36270000Y-30414000D02*
G01*
X35254000Y-30414000D01*
X35254000Y-29398000D01*
X36270000Y-29398000D01*
X36270000Y-30414000D01*
G37*
X47446000Y-30414000D02*
X46430000Y-30414000D01*
X46430000Y-29398000D01*
X47446000Y-29398000D01*
X47446000Y-30414000D01*
G36*
X47446000Y-30414000D02*
G01*
X46430000Y-30414000D01*
X46430000Y-29398000D01*
X47446000Y-29398000D01*
X47446000Y-30414000D01*
G37*
X36270000Y-32954000D02*
X35254000Y-32954000D01*
X35254000Y-31938000D01*
X36270000Y-31938000D01*
X36270000Y-32954000D01*
G36*
X36270000Y-32954000D02*
G01*
X35254000Y-32954000D01*
X35254000Y-31938000D01*
X36270000Y-31938000D01*
X36270000Y-32954000D01*
G37*
X47446000Y-32954000D02*
X46430000Y-32954000D01*
X46430000Y-31938000D01*
X47446000Y-31938000D01*
X47446000Y-32954000D01*
G36*
X47446000Y-32954000D02*
G01*
X46430000Y-32954000D01*
X46430000Y-31938000D01*
X47446000Y-31938000D01*
X47446000Y-32954000D01*
G37*
X36270000Y-35494000D02*
X35254000Y-35494000D01*
X35254000Y-34478000D01*
X36270000Y-34478000D01*
X36270000Y-35494000D01*
G36*
X36270000Y-35494000D02*
G01*
X35254000Y-35494000D01*
X35254000Y-34478000D01*
X36270000Y-34478000D01*
X36270000Y-35494000D01*
G37*
X47446000Y-35494000D02*
X46430000Y-35494000D01*
X46430000Y-34478000D01*
X47446000Y-34478000D01*
X47446000Y-35494000D01*
G36*
X47446000Y-35494000D02*
G01*
X46430000Y-35494000D01*
X46430000Y-34478000D01*
X47446000Y-34478000D01*
X47446000Y-35494000D01*
G37*
X36270000Y-38034000D02*
X35254000Y-38034000D01*
X35254000Y-37018000D01*
X36270000Y-37018000D01*
X36270000Y-38034000D01*
G36*
X36270000Y-38034000D02*
G01*
X35254000Y-38034000D01*
X35254000Y-37018000D01*
X36270000Y-37018000D01*
X36270000Y-38034000D01*
G37*
X47446000Y-38034000D02*
X46430000Y-38034000D01*
X46430000Y-37018000D01*
X47446000Y-37018000D01*
X47446000Y-38034000D01*
G36*
X47446000Y-38034000D02*
G01*
X46430000Y-38034000D01*
X46430000Y-37018000D01*
X47446000Y-37018000D01*
X47446000Y-38034000D01*
G37*
X36270000Y-40574000D02*
X35254000Y-40574000D01*
X35254000Y-39558000D01*
X36270000Y-39558000D01*
X36270000Y-40574000D01*
G36*
X36270000Y-40574000D02*
G01*
X35254000Y-40574000D01*
X35254000Y-39558000D01*
X36270000Y-39558000D01*
X36270000Y-40574000D01*
G37*
X47446000Y-40574000D02*
X46430000Y-40574000D01*
X46430000Y-39558000D01*
X47446000Y-39558000D01*
X47446000Y-40574000D01*
G36*
X47446000Y-40574000D02*
G01*
X46430000Y-40574000D01*
X46430000Y-39558000D01*
X47446000Y-39558000D01*
X47446000Y-40574000D01*
G37*
X36270000Y-43114000D02*
X35254000Y-43114000D01*
X35254000Y-42098000D01*
X36270000Y-42098000D01*
X36270000Y-43114000D01*
G36*
X36270000Y-43114000D02*
G01*
X35254000Y-43114000D01*
X35254000Y-42098000D01*
X36270000Y-42098000D01*
X36270000Y-43114000D01*
G37*
X47446000Y-43114000D02*
X46430000Y-43114000D01*
X46430000Y-42098000D01*
X47446000Y-42098000D01*
X47446000Y-43114000D01*
G36*
X47446000Y-43114000D02*
G01*
X46430000Y-43114000D01*
X46430000Y-42098000D01*
X47446000Y-42098000D01*
X47446000Y-43114000D01*
G37*
X36270000Y-45654000D02*
X35254000Y-45654000D01*
X35254000Y-44638000D01*
X36270000Y-44638000D01*
X36270000Y-45654000D01*
G36*
X36270000Y-45654000D02*
G01*
X35254000Y-45654000D01*
X35254000Y-44638000D01*
X36270000Y-44638000D01*
X36270000Y-45654000D01*
G37*
X47446000Y-45654000D02*
X46430000Y-45654000D01*
X46430000Y-44638000D01*
X47446000Y-44638000D01*
X47446000Y-45654000D01*
G36*
X47446000Y-45654000D02*
G01*
X46430000Y-45654000D01*
X46430000Y-44638000D01*
X47446000Y-44638000D01*
X47446000Y-45654000D01*
G37*
X36270000Y-48194000D02*
X35254000Y-48194000D01*
X35254000Y-47178000D01*
X36270000Y-47178000D01*
X36270000Y-48194000D01*
G36*
X36270000Y-48194000D02*
G01*
X35254000Y-48194000D01*
X35254000Y-47178000D01*
X36270000Y-47178000D01*
X36270000Y-48194000D01*
G37*
X47446000Y-48194000D02*
X46430000Y-48194000D01*
X46430000Y-47178000D01*
X47446000Y-47178000D01*
X47446000Y-48194000D01*
G36*
X47446000Y-48194000D02*
G01*
X46430000Y-48194000D01*
X46430000Y-47178000D01*
X47446000Y-47178000D01*
X47446000Y-48194000D01*
G37*
X36270000Y-50734000D02*
X35254000Y-50734000D01*
X35254000Y-49718000D01*
X36270000Y-49718000D01*
X36270000Y-50734000D01*
G36*
X36270000Y-50734000D02*
G01*
X35254000Y-50734000D01*
X35254000Y-49718000D01*
X36270000Y-49718000D01*
X36270000Y-50734000D01*
G37*
X47446000Y-50734000D02*
X46430000Y-50734000D01*
X46430000Y-49718000D01*
X47446000Y-49718000D01*
X47446000Y-50734000D01*
G36*
X47446000Y-50734000D02*
G01*
X46430000Y-50734000D01*
X46430000Y-49718000D01*
X47446000Y-49718000D01*
X47446000Y-50734000D01*
G37*
D15*
X51000000Y-64750000D03*
D16*
X33610000Y-78460000D03*
X33610000Y-83460000D03*
X33610000Y-80960000D03*
D17*
X41110000Y-75360000D03*
X41110000Y-86560000D03*
D16*
X48110000Y-83460000D03*
X48110000Y-78460000D03*
D18*
X33670000Y-70775000D03*
X40670000Y-70775000D03*
X33670000Y-69025000D03*
X40670000Y-69025000D03*
D19*
X42470000Y-66925000D03*
X38470000Y-66925000D03*
X35470000Y-66925000D03*
X43470000Y-71125000D03*
D20*
X36284000Y-53766000D03*
D21*
X38824000Y-53766000D03*
X41364000Y-53766000D03*
X43904000Y-53766000D03*
X46444000Y-53766000D03*
D22*
X32200000Y-58632000D03*
X32200000Y-61632000D03*
D23*
X38949500Y-60632000D03*
X38949500Y-58632000D03*
D15*
X80500000Y-26000000D03*
D24*
X48970000Y-22286000D03*
D25*
X48970000Y-22286000D03*
D26*
X47192000Y-22286000D03*
D27*
X35508000Y-22286000D03*
D24*
X33730000Y-22286000D03*
X48970000Y-24826000D03*
D26*
X47192000Y-24826000D03*
D27*
X35508000Y-24826000D03*
D24*
X33730000Y-24826000D03*
X48970000Y-27366000D03*
D26*
X47192000Y-27366000D03*
D27*
X35508000Y-27366000D03*
D24*
X33730000Y-27366000D03*
X48970000Y-29906000D03*
D26*
X47192000Y-29906000D03*
D27*
X35508000Y-29906000D03*
D24*
X33730000Y-29906000D03*
X48970000Y-32446000D03*
D26*
X47192000Y-32446000D03*
D27*
X35508000Y-32446000D03*
D24*
X33730000Y-32446000D03*
X48970000Y-34986000D03*
D26*
X47192000Y-34986000D03*
D27*
X35508000Y-34986000D03*
D24*
X33730000Y-34986000D03*
X48970000Y-37526000D03*
D26*
X47192000Y-37526000D03*
D27*
X35508000Y-37526000D03*
D24*
X33730000Y-37526000D03*
X48970000Y-40066000D03*
D26*
X47192000Y-40066000D03*
D27*
X35508000Y-40066000D03*
D24*
X33730000Y-40066000D03*
X48970000Y-42606000D03*
D26*
X47192000Y-42606000D03*
D27*
X35508000Y-42606000D03*
D24*
X33730000Y-42606000D03*
X48970000Y-45146000D03*
D26*
X47192000Y-45146000D03*
D27*
X35508000Y-45146000D03*
D24*
X33730000Y-45146000D03*
X48970000Y-47686000D03*
D26*
X47192000Y-47686000D03*
D27*
X35508000Y-47686000D03*
D24*
X33730000Y-47686000D03*
X48970000Y-50226000D03*
D26*
X47192000Y-50226000D03*
D27*
X35508000Y-50226000D03*
D24*
X33730000Y-50226000D03*
D28*
X36524000Y-22286000D03*
X36524000Y-24826000D03*
X36524000Y-27366000D03*
X36524000Y-29906000D03*
X36524000Y-32446000D03*
X36524000Y-34986000D03*
X36524000Y-37526000D03*
X36524000Y-40066000D03*
X36524000Y-42606000D03*
X36524000Y-45146000D03*
X36524000Y-47686000D03*
X36524000Y-50226000D03*
D29*
X46176000Y-50226000D03*
X46176000Y-47686000D03*
X46176000Y-45146000D03*
X46176000Y-42606000D03*
X46176000Y-40066000D03*
X46176000Y-37526000D03*
X46176000Y-34986000D03*
X46176000Y-32446000D03*
X46176000Y-29906000D03*
X46176000Y-27366000D03*
X46176000Y-24826000D03*
X46176000Y-22286000D03*
D15*
X157700000Y-26500000D03*
X52500000Y-92500000D03*
X119100000Y-26000000D03*
D30*
X66350000Y-25386000D03*
X67350000Y-25386000D03*
X68350000Y-25385000D03*
X69350000Y-25385000D03*
X70350000Y-25385000D03*
X71350000Y-25385000D03*
X72350000Y-25385000D03*
X73350000Y-25385000D03*
X74350000Y-25385000D03*
X75350000Y-25385000D03*
D31*
X65050000Y-21510000D03*
X76650000Y-21510000D03*
D32*
X41412500Y-64600000D03*
X39587500Y-64600000D03*
D33*
X43450000Y-66900000D03*
D34*
X44900000Y-66900000D03*
D30*
X85650000Y-25386000D03*
X86650000Y-25386000D03*
X87650000Y-25385000D03*
X88650000Y-25385000D03*
X89650000Y-25385000D03*
X90650000Y-25385000D03*
X91650000Y-25385000D03*
X92650000Y-25385000D03*
X93650000Y-25385000D03*
X94650000Y-25385000D03*
D31*
X84350000Y-21510000D03*
X95950000Y-21510000D03*
D32*
X41412500Y-62600000D03*
X39587500Y-62600000D03*
D22*
X55712500Y-24449500D03*
X55712500Y-21649500D03*
D35*
X58312500Y-23899500D03*
X58312500Y-22199500D03*
X53112500Y-23899500D03*
X53112500Y-22199500D03*
D30*
X46000000Y-91114000D03*
X45000000Y-91114000D03*
X44000000Y-91115000D03*
X43000000Y-91115000D03*
X42000000Y-91115000D03*
X41000000Y-91115000D03*
X40000000Y-91115000D03*
X39000000Y-91115000D03*
X38000000Y-91115000D03*
X37000000Y-91115000D03*
D31*
X47300000Y-94990000D03*
X35700000Y-94990000D03*
D30*
X162850000Y-25386000D03*
X163850000Y-25386000D03*
X164850000Y-25385000D03*
X165850000Y-25385000D03*
X166850000Y-25385000D03*
X167850000Y-25385000D03*
X168850000Y-25385000D03*
X169850000Y-25385000D03*
X170850000Y-25385000D03*
X171850000Y-25385000D03*
D31*
X161550000Y-21510000D03*
X173150000Y-21510000D03*
D30*
X124250000Y-25386000D03*
X125250000Y-25386000D03*
X126250000Y-25385000D03*
X127250000Y-25385000D03*
X128250000Y-25385000D03*
X129250000Y-25385000D03*
X130250000Y-25385000D03*
X131250000Y-25385000D03*
X132250000Y-25385000D03*
X133250000Y-25385000D03*
D31*
X122950000Y-21510000D03*
X134550000Y-21510000D03*
D30*
X104950000Y-25386000D03*
X105950000Y-25386000D03*
X106950000Y-25385000D03*
X107950000Y-25385000D03*
X108950000Y-25385000D03*
X109950000Y-25385000D03*
X110950000Y-25385000D03*
X111950000Y-25385000D03*
X112950000Y-25385000D03*
X113950000Y-25385000D03*
D31*
X103650000Y-21510000D03*
X115250000Y-21510000D03*
D30*
X143550000Y-25386000D03*
X144550000Y-25386000D03*
X145550000Y-25385000D03*
X146550000Y-25385000D03*
X147550000Y-25385000D03*
X148550000Y-25385000D03*
X149550000Y-25385000D03*
X150550000Y-25385000D03*
X151550000Y-25385000D03*
X152550000Y-25385000D03*
D31*
X142250000Y-21510000D03*
X153850000Y-21510000D03*
%LPD*%
M02*
