%TF.GenerationSoftware,KiCad,Pcbnew,7.0.5*%
%TF.CreationDate,2023-12-27T01:06:38-08:00*%
%TF.ProjectId,Seismos_5CoreR,53656973-6d6f-4735-9f35-436f7265522e,rev?*%
%TF.SameCoordinates,Original*%
%TF.FileFunction,Drillmap*%
%TF.FilePolarity,Positive*%
%FSLAX45Y45*%
G04 Gerber Fmt 4.5, Leading zero omitted, Abs format (unit mm)*
G04 Created by KiCad (PCBNEW 7.0.5) date 2023-12-27 01:06:38*
%MOMM*%
%LPD*%
G01*
G04 APERTURE LIST*
%ADD10C,0.100000*%
%ADD11C,0.200000*%
%ADD12C,0.090000*%
%ADD13C,0.120000*%
%ADD14C,0.320000*%
G04 APERTURE END LIST*
D10*
X5736600Y-9650000D02*
X5736600Y-4281000D01*
X5586600Y-9800000D02*
X3150000Y-9800000D01*
X3000000Y-9650000D02*
X3000000Y-2150000D01*
X3150000Y-2000000D02*
G75*
G03*
X3000000Y-2150000I0J-150000D01*
G01*
X5586600Y-9800000D02*
G75*
G03*
X5736600Y-9650000I0J150000D01*
G01*
X17550000Y-3900000D02*
X6117600Y-3900000D01*
X17550000Y-3900000D02*
G75*
G03*
X17700000Y-3750000I0J150000D01*
G01*
X17700000Y-2150000D02*
G75*
G03*
X17550000Y-2000000I-150000J0D01*
G01*
X3000000Y-9650000D02*
G75*
G03*
X3150000Y-9800000I150000J0D01*
G01*
X6117600Y-3900000D02*
G75*
G03*
X5736600Y-4281000I0J-381000D01*
G01*
X3150000Y-2000000D02*
X17550000Y-2000000D01*
X17700000Y-2150000D02*
X17700000Y-3750000D01*
D11*
D12*
X3175000Y-5818200D02*
X3265000Y-5908200D01*
X3265000Y-5818200D02*
X3175000Y-5908200D01*
X3175000Y-6118200D02*
X3265000Y-6208200D01*
X3265000Y-6118200D02*
X3175000Y-6208200D01*
X5526250Y-2119950D02*
X5616250Y-2209950D01*
X5616250Y-2119950D02*
X5526250Y-2209950D01*
X5526250Y-2399950D02*
X5616250Y-2489950D01*
X5616250Y-2399950D02*
X5526250Y-2489950D01*
D13*
X3427000Y-6902500D02*
G75*
G03*
X3427000Y-6902500I-60000J0D01*
G01*
X3427000Y-7077500D02*
G75*
G03*
X3427000Y-7077500I-60000J0D01*
G01*
X4127000Y-6902500D02*
G75*
G03*
X4127000Y-6902500I-60000J0D01*
G01*
X4127000Y-7077500D02*
G75*
G03*
X4127000Y-7077500I-60000J0D01*
G01*
D14*
X5100000Y-6315000D02*
X5100000Y-6635000D01*
X4940000Y-6475000D02*
X5260000Y-6475000D01*
X5250000Y-9090000D02*
X5250000Y-9410000D01*
X5090000Y-9250000D02*
X5410000Y-9250000D01*
X8050000Y-2440000D02*
X8050000Y-2760000D01*
X7890000Y-2600000D02*
X8210000Y-2600000D01*
X11910000Y-2440000D02*
X11910000Y-2760000D01*
X11750000Y-2600000D02*
X12070000Y-2600000D01*
X15770000Y-2490000D02*
X15770000Y-2810000D01*
X15610000Y-2650000D02*
X15930000Y-2650000D01*
D11*
X3255777Y-10116484D02*
X3255777Y-9916484D01*
X3255777Y-9916484D02*
X3303396Y-9916484D01*
X3303396Y-9916484D02*
X3331967Y-9926008D01*
X3331967Y-9926008D02*
X3351015Y-9945055D01*
X3351015Y-9945055D02*
X3360539Y-9964103D01*
X3360539Y-9964103D02*
X3370062Y-10002198D01*
X3370062Y-10002198D02*
X3370062Y-10030770D01*
X3370062Y-10030770D02*
X3360539Y-10068865D01*
X3360539Y-10068865D02*
X3351015Y-10087912D01*
X3351015Y-10087912D02*
X3331967Y-10106960D01*
X3331967Y-10106960D02*
X3303396Y-10116484D01*
X3303396Y-10116484D02*
X3255777Y-10116484D01*
X3455777Y-10116484D02*
X3455777Y-9983150D01*
X3455777Y-10021246D02*
X3465301Y-10002198D01*
X3465301Y-10002198D02*
X3474824Y-9992674D01*
X3474824Y-9992674D02*
X3493872Y-9983150D01*
X3493872Y-9983150D02*
X3512920Y-9983150D01*
X3579586Y-10116484D02*
X3579586Y-9983150D01*
X3579586Y-9916484D02*
X3570062Y-9926008D01*
X3570062Y-9926008D02*
X3579586Y-9935531D01*
X3579586Y-9935531D02*
X3589110Y-9926008D01*
X3589110Y-9926008D02*
X3579586Y-9916484D01*
X3579586Y-9916484D02*
X3579586Y-9935531D01*
X3703396Y-10116484D02*
X3684348Y-10106960D01*
X3684348Y-10106960D02*
X3674824Y-10087912D01*
X3674824Y-10087912D02*
X3674824Y-9916484D01*
X3808158Y-10116484D02*
X3789110Y-10106960D01*
X3789110Y-10106960D02*
X3779586Y-10087912D01*
X3779586Y-10087912D02*
X3779586Y-9916484D01*
X4036729Y-10116484D02*
X4036729Y-9916484D01*
X4036729Y-9916484D02*
X4103396Y-10059341D01*
X4103396Y-10059341D02*
X4170062Y-9916484D01*
X4170062Y-9916484D02*
X4170062Y-10116484D01*
X4351015Y-10116484D02*
X4351015Y-10011722D01*
X4351015Y-10011722D02*
X4341491Y-9992674D01*
X4341491Y-9992674D02*
X4322444Y-9983150D01*
X4322444Y-9983150D02*
X4284348Y-9983150D01*
X4284348Y-9983150D02*
X4265301Y-9992674D01*
X4351015Y-10106960D02*
X4331967Y-10116484D01*
X4331967Y-10116484D02*
X4284348Y-10116484D01*
X4284348Y-10116484D02*
X4265301Y-10106960D01*
X4265301Y-10106960D02*
X4255777Y-10087912D01*
X4255777Y-10087912D02*
X4255777Y-10068865D01*
X4255777Y-10068865D02*
X4265301Y-10049817D01*
X4265301Y-10049817D02*
X4284348Y-10040293D01*
X4284348Y-10040293D02*
X4331967Y-10040293D01*
X4331967Y-10040293D02*
X4351015Y-10030770D01*
X4446253Y-9983150D02*
X4446253Y-10183150D01*
X4446253Y-9992674D02*
X4465301Y-9983150D01*
X4465301Y-9983150D02*
X4503396Y-9983150D01*
X4503396Y-9983150D02*
X4522444Y-9992674D01*
X4522444Y-9992674D02*
X4531967Y-10002198D01*
X4531967Y-10002198D02*
X4541491Y-10021246D01*
X4541491Y-10021246D02*
X4541491Y-10078389D01*
X4541491Y-10078389D02*
X4531967Y-10097436D01*
X4531967Y-10097436D02*
X4522444Y-10106960D01*
X4522444Y-10106960D02*
X4503396Y-10116484D01*
X4503396Y-10116484D02*
X4465301Y-10116484D01*
X4465301Y-10116484D02*
X4446253Y-10106960D01*
X4627205Y-10097436D02*
X4636729Y-10106960D01*
X4636729Y-10106960D02*
X4627205Y-10116484D01*
X4627205Y-10116484D02*
X4617682Y-10106960D01*
X4617682Y-10106960D02*
X4627205Y-10097436D01*
X4627205Y-10097436D02*
X4627205Y-10116484D01*
X4627205Y-9992674D02*
X4636729Y-10002198D01*
X4636729Y-10002198D02*
X4627205Y-10011722D01*
X4627205Y-10011722D02*
X4617682Y-10002198D01*
X4617682Y-10002198D02*
X4627205Y-9992674D01*
X4627205Y-9992674D02*
X4627205Y-10011722D01*
D12*
X2905000Y-10400000D02*
X2995000Y-10490000D01*
X2995000Y-10400000D02*
X2905000Y-10490000D01*
D11*
X3293872Y-10336484D02*
X3312920Y-10336484D01*
X3312920Y-10336484D02*
X3331967Y-10346008D01*
X3331967Y-10346008D02*
X3341491Y-10355531D01*
X3341491Y-10355531D02*
X3351015Y-10374579D01*
X3351015Y-10374579D02*
X3360539Y-10412674D01*
X3360539Y-10412674D02*
X3360539Y-10460293D01*
X3360539Y-10460293D02*
X3351015Y-10498389D01*
X3351015Y-10498389D02*
X3341491Y-10517436D01*
X3341491Y-10517436D02*
X3331967Y-10526960D01*
X3331967Y-10526960D02*
X3312920Y-10536484D01*
X3312920Y-10536484D02*
X3293872Y-10536484D01*
X3293872Y-10536484D02*
X3274824Y-10526960D01*
X3274824Y-10526960D02*
X3265301Y-10517436D01*
X3265301Y-10517436D02*
X3255777Y-10498389D01*
X3255777Y-10498389D02*
X3246253Y-10460293D01*
X3246253Y-10460293D02*
X3246253Y-10412674D01*
X3246253Y-10412674D02*
X3255777Y-10374579D01*
X3255777Y-10374579D02*
X3265301Y-10355531D01*
X3265301Y-10355531D02*
X3274824Y-10346008D01*
X3274824Y-10346008D02*
X3293872Y-10336484D01*
X3446253Y-10517436D02*
X3455777Y-10526960D01*
X3455777Y-10526960D02*
X3446253Y-10536484D01*
X3446253Y-10536484D02*
X3436729Y-10526960D01*
X3436729Y-10526960D02*
X3446253Y-10517436D01*
X3446253Y-10517436D02*
X3446253Y-10536484D01*
X3551015Y-10536484D02*
X3589110Y-10536484D01*
X3589110Y-10536484D02*
X3608158Y-10526960D01*
X3608158Y-10526960D02*
X3617682Y-10517436D01*
X3617682Y-10517436D02*
X3636729Y-10488865D01*
X3636729Y-10488865D02*
X3646253Y-10450770D01*
X3646253Y-10450770D02*
X3646253Y-10374579D01*
X3646253Y-10374579D02*
X3636729Y-10355531D01*
X3636729Y-10355531D02*
X3627205Y-10346008D01*
X3627205Y-10346008D02*
X3608158Y-10336484D01*
X3608158Y-10336484D02*
X3570062Y-10336484D01*
X3570062Y-10336484D02*
X3551015Y-10346008D01*
X3551015Y-10346008D02*
X3541491Y-10355531D01*
X3541491Y-10355531D02*
X3531967Y-10374579D01*
X3531967Y-10374579D02*
X3531967Y-10422198D01*
X3531967Y-10422198D02*
X3541491Y-10441246D01*
X3541491Y-10441246D02*
X3551015Y-10450770D01*
X3551015Y-10450770D02*
X3570062Y-10460293D01*
X3570062Y-10460293D02*
X3608158Y-10460293D01*
X3608158Y-10460293D02*
X3627205Y-10450770D01*
X3627205Y-10450770D02*
X3636729Y-10441246D01*
X3636729Y-10441246D02*
X3646253Y-10422198D01*
X3770062Y-10336484D02*
X3789110Y-10336484D01*
X3789110Y-10336484D02*
X3808158Y-10346008D01*
X3808158Y-10346008D02*
X3817682Y-10355531D01*
X3817682Y-10355531D02*
X3827205Y-10374579D01*
X3827205Y-10374579D02*
X3836729Y-10412674D01*
X3836729Y-10412674D02*
X3836729Y-10460293D01*
X3836729Y-10460293D02*
X3827205Y-10498389D01*
X3827205Y-10498389D02*
X3817682Y-10517436D01*
X3817682Y-10517436D02*
X3808158Y-10526960D01*
X3808158Y-10526960D02*
X3789110Y-10536484D01*
X3789110Y-10536484D02*
X3770062Y-10536484D01*
X3770062Y-10536484D02*
X3751015Y-10526960D01*
X3751015Y-10526960D02*
X3741491Y-10517436D01*
X3741491Y-10517436D02*
X3731967Y-10498389D01*
X3731967Y-10498389D02*
X3722443Y-10460293D01*
X3722443Y-10460293D02*
X3722443Y-10412674D01*
X3722443Y-10412674D02*
X3731967Y-10374579D01*
X3731967Y-10374579D02*
X3741491Y-10355531D01*
X3741491Y-10355531D02*
X3751015Y-10346008D01*
X3751015Y-10346008D02*
X3770062Y-10336484D01*
X3960539Y-10336484D02*
X3979586Y-10336484D01*
X3979586Y-10336484D02*
X3998634Y-10346008D01*
X3998634Y-10346008D02*
X4008158Y-10355531D01*
X4008158Y-10355531D02*
X4017682Y-10374579D01*
X4017682Y-10374579D02*
X4027205Y-10412674D01*
X4027205Y-10412674D02*
X4027205Y-10460293D01*
X4027205Y-10460293D02*
X4017682Y-10498389D01*
X4017682Y-10498389D02*
X4008158Y-10517436D01*
X4008158Y-10517436D02*
X3998634Y-10526960D01*
X3998634Y-10526960D02*
X3979586Y-10536484D01*
X3979586Y-10536484D02*
X3960539Y-10536484D01*
X3960539Y-10536484D02*
X3941491Y-10526960D01*
X3941491Y-10526960D02*
X3931967Y-10517436D01*
X3931967Y-10517436D02*
X3922443Y-10498389D01*
X3922443Y-10498389D02*
X3912920Y-10460293D01*
X3912920Y-10460293D02*
X3912920Y-10412674D01*
X3912920Y-10412674D02*
X3922443Y-10374579D01*
X3922443Y-10374579D02*
X3931967Y-10355531D01*
X3931967Y-10355531D02*
X3941491Y-10346008D01*
X3941491Y-10346008D02*
X3960539Y-10336484D01*
X4112920Y-10536484D02*
X4112920Y-10403150D01*
X4112920Y-10422198D02*
X4122443Y-10412674D01*
X4122443Y-10412674D02*
X4141491Y-10403150D01*
X4141491Y-10403150D02*
X4170063Y-10403150D01*
X4170063Y-10403150D02*
X4189110Y-10412674D01*
X4189110Y-10412674D02*
X4198634Y-10431722D01*
X4198634Y-10431722D02*
X4198634Y-10536484D01*
X4198634Y-10431722D02*
X4208158Y-10412674D01*
X4208158Y-10412674D02*
X4227205Y-10403150D01*
X4227205Y-10403150D02*
X4255777Y-10403150D01*
X4255777Y-10403150D02*
X4274825Y-10412674D01*
X4274825Y-10412674D02*
X4284348Y-10431722D01*
X4284348Y-10431722D02*
X4284348Y-10536484D01*
X4379586Y-10536484D02*
X4379586Y-10403150D01*
X4379586Y-10422198D02*
X4389110Y-10412674D01*
X4389110Y-10412674D02*
X4408158Y-10403150D01*
X4408158Y-10403150D02*
X4436729Y-10403150D01*
X4436729Y-10403150D02*
X4455777Y-10412674D01*
X4455777Y-10412674D02*
X4465301Y-10431722D01*
X4465301Y-10431722D02*
X4465301Y-10536484D01*
X4465301Y-10431722D02*
X4474825Y-10412674D01*
X4474825Y-10412674D02*
X4493872Y-10403150D01*
X4493872Y-10403150D02*
X4522444Y-10403150D01*
X4522444Y-10403150D02*
X4541491Y-10412674D01*
X4541491Y-10412674D02*
X4551015Y-10431722D01*
X4551015Y-10431722D02*
X4551015Y-10536484D01*
X4941491Y-10326960D02*
X4770063Y-10584103D01*
X5198634Y-10336484D02*
X5217682Y-10336484D01*
X5217682Y-10336484D02*
X5236729Y-10346008D01*
X5236729Y-10346008D02*
X5246253Y-10355531D01*
X5246253Y-10355531D02*
X5255777Y-10374579D01*
X5255777Y-10374579D02*
X5265301Y-10412674D01*
X5265301Y-10412674D02*
X5265301Y-10460293D01*
X5265301Y-10460293D02*
X5255777Y-10498389D01*
X5255777Y-10498389D02*
X5246253Y-10517436D01*
X5246253Y-10517436D02*
X5236729Y-10526960D01*
X5236729Y-10526960D02*
X5217682Y-10536484D01*
X5217682Y-10536484D02*
X5198634Y-10536484D01*
X5198634Y-10536484D02*
X5179587Y-10526960D01*
X5179587Y-10526960D02*
X5170063Y-10517436D01*
X5170063Y-10517436D02*
X5160539Y-10498389D01*
X5160539Y-10498389D02*
X5151015Y-10460293D01*
X5151015Y-10460293D02*
X5151015Y-10412674D01*
X5151015Y-10412674D02*
X5160539Y-10374579D01*
X5160539Y-10374579D02*
X5170063Y-10355531D01*
X5170063Y-10355531D02*
X5179587Y-10346008D01*
X5179587Y-10346008D02*
X5198634Y-10336484D01*
X5351015Y-10517436D02*
X5360539Y-10526960D01*
X5360539Y-10526960D02*
X5351015Y-10536484D01*
X5351015Y-10536484D02*
X5341491Y-10526960D01*
X5341491Y-10526960D02*
X5351015Y-10517436D01*
X5351015Y-10517436D02*
X5351015Y-10536484D01*
X5484348Y-10336484D02*
X5503396Y-10336484D01*
X5503396Y-10336484D02*
X5522444Y-10346008D01*
X5522444Y-10346008D02*
X5531968Y-10355531D01*
X5531968Y-10355531D02*
X5541491Y-10374579D01*
X5541491Y-10374579D02*
X5551015Y-10412674D01*
X5551015Y-10412674D02*
X5551015Y-10460293D01*
X5551015Y-10460293D02*
X5541491Y-10498389D01*
X5541491Y-10498389D02*
X5531968Y-10517436D01*
X5531968Y-10517436D02*
X5522444Y-10526960D01*
X5522444Y-10526960D02*
X5503396Y-10536484D01*
X5503396Y-10536484D02*
X5484348Y-10536484D01*
X5484348Y-10536484D02*
X5465301Y-10526960D01*
X5465301Y-10526960D02*
X5455777Y-10517436D01*
X5455777Y-10517436D02*
X5446253Y-10498389D01*
X5446253Y-10498389D02*
X5436729Y-10460293D01*
X5436729Y-10460293D02*
X5436729Y-10412674D01*
X5436729Y-10412674D02*
X5446253Y-10374579D01*
X5446253Y-10374579D02*
X5455777Y-10355531D01*
X5455777Y-10355531D02*
X5465301Y-10346008D01*
X5465301Y-10346008D02*
X5484348Y-10336484D01*
X5617682Y-10336484D02*
X5741491Y-10336484D01*
X5741491Y-10336484D02*
X5674825Y-10412674D01*
X5674825Y-10412674D02*
X5703396Y-10412674D01*
X5703396Y-10412674D02*
X5722444Y-10422198D01*
X5722444Y-10422198D02*
X5731967Y-10431722D01*
X5731967Y-10431722D02*
X5741491Y-10450770D01*
X5741491Y-10450770D02*
X5741491Y-10498389D01*
X5741491Y-10498389D02*
X5731967Y-10517436D01*
X5731967Y-10517436D02*
X5722444Y-10526960D01*
X5722444Y-10526960D02*
X5703396Y-10536484D01*
X5703396Y-10536484D02*
X5646253Y-10536484D01*
X5646253Y-10536484D02*
X5627206Y-10526960D01*
X5627206Y-10526960D02*
X5617682Y-10517436D01*
X5922444Y-10336484D02*
X5827206Y-10336484D01*
X5827206Y-10336484D02*
X5817682Y-10431722D01*
X5817682Y-10431722D02*
X5827206Y-10422198D01*
X5827206Y-10422198D02*
X5846253Y-10412674D01*
X5846253Y-10412674D02*
X5893872Y-10412674D01*
X5893872Y-10412674D02*
X5912920Y-10422198D01*
X5912920Y-10422198D02*
X5922444Y-10431722D01*
X5922444Y-10431722D02*
X5931967Y-10450770D01*
X5931967Y-10450770D02*
X5931967Y-10498389D01*
X5931967Y-10498389D02*
X5922444Y-10517436D01*
X5922444Y-10517436D02*
X5912920Y-10526960D01*
X5912920Y-10526960D02*
X5893872Y-10536484D01*
X5893872Y-10536484D02*
X5846253Y-10536484D01*
X5846253Y-10536484D02*
X5827206Y-10526960D01*
X5827206Y-10526960D02*
X5817682Y-10517436D01*
X6103396Y-10403150D02*
X6103396Y-10536484D01*
X6055777Y-10326960D02*
X6008158Y-10469817D01*
X6008158Y-10469817D02*
X6131967Y-10469817D01*
X6198634Y-10336484D02*
X6198634Y-10374579D01*
X6274825Y-10336484D02*
X6274825Y-10374579D01*
X6570063Y-10612674D02*
X6560539Y-10603150D01*
X6560539Y-10603150D02*
X6541491Y-10574579D01*
X6541491Y-10574579D02*
X6531968Y-10555531D01*
X6531968Y-10555531D02*
X6522444Y-10526960D01*
X6522444Y-10526960D02*
X6512920Y-10479341D01*
X6512920Y-10479341D02*
X6512920Y-10441246D01*
X6512920Y-10441246D02*
X6522444Y-10393627D01*
X6522444Y-10393627D02*
X6531968Y-10365055D01*
X6531968Y-10365055D02*
X6541491Y-10346008D01*
X6541491Y-10346008D02*
X6560539Y-10317436D01*
X6560539Y-10317436D02*
X6570063Y-10307912D01*
X6731968Y-10403150D02*
X6731968Y-10536484D01*
X6684348Y-10326960D02*
X6636729Y-10469817D01*
X6636729Y-10469817D02*
X6760539Y-10469817D01*
X6989110Y-10536484D02*
X6989110Y-10336484D01*
X7074825Y-10536484D02*
X7074825Y-10431722D01*
X7074825Y-10431722D02*
X7065301Y-10412674D01*
X7065301Y-10412674D02*
X7046253Y-10403150D01*
X7046253Y-10403150D02*
X7017682Y-10403150D01*
X7017682Y-10403150D02*
X6998634Y-10412674D01*
X6998634Y-10412674D02*
X6989110Y-10422198D01*
X7198634Y-10536484D02*
X7179587Y-10526960D01*
X7179587Y-10526960D02*
X7170063Y-10517436D01*
X7170063Y-10517436D02*
X7160539Y-10498389D01*
X7160539Y-10498389D02*
X7160539Y-10441246D01*
X7160539Y-10441246D02*
X7170063Y-10422198D01*
X7170063Y-10422198D02*
X7179587Y-10412674D01*
X7179587Y-10412674D02*
X7198634Y-10403150D01*
X7198634Y-10403150D02*
X7227206Y-10403150D01*
X7227206Y-10403150D02*
X7246253Y-10412674D01*
X7246253Y-10412674D02*
X7255777Y-10422198D01*
X7255777Y-10422198D02*
X7265301Y-10441246D01*
X7265301Y-10441246D02*
X7265301Y-10498389D01*
X7265301Y-10498389D02*
X7255777Y-10517436D01*
X7255777Y-10517436D02*
X7246253Y-10526960D01*
X7246253Y-10526960D02*
X7227206Y-10536484D01*
X7227206Y-10536484D02*
X7198634Y-10536484D01*
X7379587Y-10536484D02*
X7360539Y-10526960D01*
X7360539Y-10526960D02*
X7351015Y-10507912D01*
X7351015Y-10507912D02*
X7351015Y-10336484D01*
X7531968Y-10526960D02*
X7512920Y-10536484D01*
X7512920Y-10536484D02*
X7474825Y-10536484D01*
X7474825Y-10536484D02*
X7455777Y-10526960D01*
X7455777Y-10526960D02*
X7446253Y-10507912D01*
X7446253Y-10507912D02*
X7446253Y-10431722D01*
X7446253Y-10431722D02*
X7455777Y-10412674D01*
X7455777Y-10412674D02*
X7474825Y-10403150D01*
X7474825Y-10403150D02*
X7512920Y-10403150D01*
X7512920Y-10403150D02*
X7531968Y-10412674D01*
X7531968Y-10412674D02*
X7541491Y-10431722D01*
X7541491Y-10431722D02*
X7541491Y-10450770D01*
X7541491Y-10450770D02*
X7446253Y-10469817D01*
X7617682Y-10526960D02*
X7636730Y-10536484D01*
X7636730Y-10536484D02*
X7674825Y-10536484D01*
X7674825Y-10536484D02*
X7693872Y-10526960D01*
X7693872Y-10526960D02*
X7703396Y-10507912D01*
X7703396Y-10507912D02*
X7703396Y-10498389D01*
X7703396Y-10498389D02*
X7693872Y-10479341D01*
X7693872Y-10479341D02*
X7674825Y-10469817D01*
X7674825Y-10469817D02*
X7646253Y-10469817D01*
X7646253Y-10469817D02*
X7627206Y-10460293D01*
X7627206Y-10460293D02*
X7617682Y-10441246D01*
X7617682Y-10441246D02*
X7617682Y-10431722D01*
X7617682Y-10431722D02*
X7627206Y-10412674D01*
X7627206Y-10412674D02*
X7646253Y-10403150D01*
X7646253Y-10403150D02*
X7674825Y-10403150D01*
X7674825Y-10403150D02*
X7693872Y-10412674D01*
X7770063Y-10612674D02*
X7779587Y-10603150D01*
X7779587Y-10603150D02*
X7798634Y-10574579D01*
X7798634Y-10574579D02*
X7808158Y-10555531D01*
X7808158Y-10555531D02*
X7817682Y-10526960D01*
X7817682Y-10526960D02*
X7827206Y-10479341D01*
X7827206Y-10479341D02*
X7827206Y-10441246D01*
X7827206Y-10441246D02*
X7817682Y-10393627D01*
X7817682Y-10393627D02*
X7808158Y-10365055D01*
X7808158Y-10365055D02*
X7798634Y-10346008D01*
X7798634Y-10346008D02*
X7779587Y-10317436D01*
X7779587Y-10317436D02*
X7770063Y-10307912D01*
X8131968Y-10612674D02*
X8122444Y-10603150D01*
X8122444Y-10603150D02*
X8103396Y-10574579D01*
X8103396Y-10574579D02*
X8093872Y-10555531D01*
X8093872Y-10555531D02*
X8084349Y-10526960D01*
X8084349Y-10526960D02*
X8074825Y-10479341D01*
X8074825Y-10479341D02*
X8074825Y-10441246D01*
X8074825Y-10441246D02*
X8084349Y-10393627D01*
X8084349Y-10393627D02*
X8093872Y-10365055D01*
X8093872Y-10365055D02*
X8103396Y-10346008D01*
X8103396Y-10346008D02*
X8122444Y-10317436D01*
X8122444Y-10317436D02*
X8131968Y-10307912D01*
X8208158Y-10403150D02*
X8208158Y-10536484D01*
X8208158Y-10422198D02*
X8217682Y-10412674D01*
X8217682Y-10412674D02*
X8236730Y-10403150D01*
X8236730Y-10403150D02*
X8265301Y-10403150D01*
X8265301Y-10403150D02*
X8284349Y-10412674D01*
X8284349Y-10412674D02*
X8293872Y-10431722D01*
X8293872Y-10431722D02*
X8293872Y-10536484D01*
X8417682Y-10536484D02*
X8398634Y-10526960D01*
X8398634Y-10526960D02*
X8389111Y-10517436D01*
X8389111Y-10517436D02*
X8379587Y-10498389D01*
X8379587Y-10498389D02*
X8379587Y-10441246D01*
X8379587Y-10441246D02*
X8389111Y-10422198D01*
X8389111Y-10422198D02*
X8398634Y-10412674D01*
X8398634Y-10412674D02*
X8417682Y-10403150D01*
X8417682Y-10403150D02*
X8446254Y-10403150D01*
X8446254Y-10403150D02*
X8465301Y-10412674D01*
X8465301Y-10412674D02*
X8474825Y-10422198D01*
X8474825Y-10422198D02*
X8484349Y-10441246D01*
X8484349Y-10441246D02*
X8484349Y-10498389D01*
X8484349Y-10498389D02*
X8474825Y-10517436D01*
X8474825Y-10517436D02*
X8465301Y-10526960D01*
X8465301Y-10526960D02*
X8446254Y-10536484D01*
X8446254Y-10536484D02*
X8417682Y-10536484D01*
X8541492Y-10403150D02*
X8617682Y-10403150D01*
X8570063Y-10336484D02*
X8570063Y-10507912D01*
X8570063Y-10507912D02*
X8579587Y-10526960D01*
X8579587Y-10526960D02*
X8598634Y-10536484D01*
X8598634Y-10536484D02*
X8617682Y-10536484D01*
X8836730Y-10403150D02*
X8836730Y-10603150D01*
X8836730Y-10412674D02*
X8855777Y-10403150D01*
X8855777Y-10403150D02*
X8893873Y-10403150D01*
X8893873Y-10403150D02*
X8912920Y-10412674D01*
X8912920Y-10412674D02*
X8922444Y-10422198D01*
X8922444Y-10422198D02*
X8931968Y-10441246D01*
X8931968Y-10441246D02*
X8931968Y-10498389D01*
X8931968Y-10498389D02*
X8922444Y-10517436D01*
X8922444Y-10517436D02*
X8912920Y-10526960D01*
X8912920Y-10526960D02*
X8893873Y-10536484D01*
X8893873Y-10536484D02*
X8855777Y-10536484D01*
X8855777Y-10536484D02*
X8836730Y-10526960D01*
X9046254Y-10536484D02*
X9027206Y-10526960D01*
X9027206Y-10526960D02*
X9017682Y-10507912D01*
X9017682Y-10507912D02*
X9017682Y-10336484D01*
X9208158Y-10536484D02*
X9208158Y-10431722D01*
X9208158Y-10431722D02*
X9198635Y-10412674D01*
X9198635Y-10412674D02*
X9179587Y-10403150D01*
X9179587Y-10403150D02*
X9141492Y-10403150D01*
X9141492Y-10403150D02*
X9122444Y-10412674D01*
X9208158Y-10526960D02*
X9189111Y-10536484D01*
X9189111Y-10536484D02*
X9141492Y-10536484D01*
X9141492Y-10536484D02*
X9122444Y-10526960D01*
X9122444Y-10526960D02*
X9112920Y-10507912D01*
X9112920Y-10507912D02*
X9112920Y-10488865D01*
X9112920Y-10488865D02*
X9122444Y-10469817D01*
X9122444Y-10469817D02*
X9141492Y-10460293D01*
X9141492Y-10460293D02*
X9189111Y-10460293D01*
X9189111Y-10460293D02*
X9208158Y-10450770D01*
X9274825Y-10403150D02*
X9351015Y-10403150D01*
X9303396Y-10336484D02*
X9303396Y-10507912D01*
X9303396Y-10507912D02*
X9312920Y-10526960D01*
X9312920Y-10526960D02*
X9331968Y-10536484D01*
X9331968Y-10536484D02*
X9351015Y-10536484D01*
X9493873Y-10526960D02*
X9474825Y-10536484D01*
X9474825Y-10536484D02*
X9436730Y-10536484D01*
X9436730Y-10536484D02*
X9417682Y-10526960D01*
X9417682Y-10526960D02*
X9408158Y-10507912D01*
X9408158Y-10507912D02*
X9408158Y-10431722D01*
X9408158Y-10431722D02*
X9417682Y-10412674D01*
X9417682Y-10412674D02*
X9436730Y-10403150D01*
X9436730Y-10403150D02*
X9474825Y-10403150D01*
X9474825Y-10403150D02*
X9493873Y-10412674D01*
X9493873Y-10412674D02*
X9503396Y-10431722D01*
X9503396Y-10431722D02*
X9503396Y-10450770D01*
X9503396Y-10450770D02*
X9408158Y-10469817D01*
X9674825Y-10536484D02*
X9674825Y-10336484D01*
X9674825Y-10526960D02*
X9655777Y-10536484D01*
X9655777Y-10536484D02*
X9617682Y-10536484D01*
X9617682Y-10536484D02*
X9598635Y-10526960D01*
X9598635Y-10526960D02*
X9589111Y-10517436D01*
X9589111Y-10517436D02*
X9579587Y-10498389D01*
X9579587Y-10498389D02*
X9579587Y-10441246D01*
X9579587Y-10441246D02*
X9589111Y-10422198D01*
X9589111Y-10422198D02*
X9598635Y-10412674D01*
X9598635Y-10412674D02*
X9617682Y-10403150D01*
X9617682Y-10403150D02*
X9655777Y-10403150D01*
X9655777Y-10403150D02*
X9674825Y-10412674D01*
X9751016Y-10612674D02*
X9760539Y-10603150D01*
X9760539Y-10603150D02*
X9779587Y-10574579D01*
X9779587Y-10574579D02*
X9789111Y-10555531D01*
X9789111Y-10555531D02*
X9798635Y-10526960D01*
X9798635Y-10526960D02*
X9808158Y-10479341D01*
X9808158Y-10479341D02*
X9808158Y-10441246D01*
X9808158Y-10441246D02*
X9798635Y-10393627D01*
X9798635Y-10393627D02*
X9789111Y-10365055D01*
X9789111Y-10365055D02*
X9779587Y-10346008D01*
X9779587Y-10346008D02*
X9760539Y-10317436D01*
X9760539Y-10317436D02*
X9751016Y-10307912D01*
D13*
X2995000Y-10709000D02*
G75*
G03*
X2995000Y-10709000I-60000J0D01*
G01*
D11*
X3360539Y-10800484D02*
X3246253Y-10800484D01*
X3303396Y-10800484D02*
X3303396Y-10600484D01*
X3303396Y-10600484D02*
X3284348Y-10629055D01*
X3284348Y-10629055D02*
X3265301Y-10648103D01*
X3265301Y-10648103D02*
X3246253Y-10657627D01*
X3446253Y-10781436D02*
X3455777Y-10790960D01*
X3455777Y-10790960D02*
X3446253Y-10800484D01*
X3446253Y-10800484D02*
X3436729Y-10790960D01*
X3436729Y-10790960D02*
X3446253Y-10781436D01*
X3446253Y-10781436D02*
X3446253Y-10800484D01*
X3531967Y-10619531D02*
X3541491Y-10610008D01*
X3541491Y-10610008D02*
X3560539Y-10600484D01*
X3560539Y-10600484D02*
X3608158Y-10600484D01*
X3608158Y-10600484D02*
X3627205Y-10610008D01*
X3627205Y-10610008D02*
X3636729Y-10619531D01*
X3636729Y-10619531D02*
X3646253Y-10638579D01*
X3646253Y-10638579D02*
X3646253Y-10657627D01*
X3646253Y-10657627D02*
X3636729Y-10686198D01*
X3636729Y-10686198D02*
X3522443Y-10800484D01*
X3522443Y-10800484D02*
X3646253Y-10800484D01*
X3770062Y-10600484D02*
X3789110Y-10600484D01*
X3789110Y-10600484D02*
X3808158Y-10610008D01*
X3808158Y-10610008D02*
X3817682Y-10619531D01*
X3817682Y-10619531D02*
X3827205Y-10638579D01*
X3827205Y-10638579D02*
X3836729Y-10676674D01*
X3836729Y-10676674D02*
X3836729Y-10724293D01*
X3836729Y-10724293D02*
X3827205Y-10762389D01*
X3827205Y-10762389D02*
X3817682Y-10781436D01*
X3817682Y-10781436D02*
X3808158Y-10790960D01*
X3808158Y-10790960D02*
X3789110Y-10800484D01*
X3789110Y-10800484D02*
X3770062Y-10800484D01*
X3770062Y-10800484D02*
X3751015Y-10790960D01*
X3751015Y-10790960D02*
X3741491Y-10781436D01*
X3741491Y-10781436D02*
X3731967Y-10762389D01*
X3731967Y-10762389D02*
X3722443Y-10724293D01*
X3722443Y-10724293D02*
X3722443Y-10676674D01*
X3722443Y-10676674D02*
X3731967Y-10638579D01*
X3731967Y-10638579D02*
X3741491Y-10619531D01*
X3741491Y-10619531D02*
X3751015Y-10610008D01*
X3751015Y-10610008D02*
X3770062Y-10600484D01*
X3960539Y-10600484D02*
X3979586Y-10600484D01*
X3979586Y-10600484D02*
X3998634Y-10610008D01*
X3998634Y-10610008D02*
X4008158Y-10619531D01*
X4008158Y-10619531D02*
X4017682Y-10638579D01*
X4017682Y-10638579D02*
X4027205Y-10676674D01*
X4027205Y-10676674D02*
X4027205Y-10724293D01*
X4027205Y-10724293D02*
X4017682Y-10762389D01*
X4017682Y-10762389D02*
X4008158Y-10781436D01*
X4008158Y-10781436D02*
X3998634Y-10790960D01*
X3998634Y-10790960D02*
X3979586Y-10800484D01*
X3979586Y-10800484D02*
X3960539Y-10800484D01*
X3960539Y-10800484D02*
X3941491Y-10790960D01*
X3941491Y-10790960D02*
X3931967Y-10781436D01*
X3931967Y-10781436D02*
X3922443Y-10762389D01*
X3922443Y-10762389D02*
X3912920Y-10724293D01*
X3912920Y-10724293D02*
X3912920Y-10676674D01*
X3912920Y-10676674D02*
X3922443Y-10638579D01*
X3922443Y-10638579D02*
X3931967Y-10619531D01*
X3931967Y-10619531D02*
X3941491Y-10610008D01*
X3941491Y-10610008D02*
X3960539Y-10600484D01*
X4112920Y-10800484D02*
X4112920Y-10667150D01*
X4112920Y-10686198D02*
X4122443Y-10676674D01*
X4122443Y-10676674D02*
X4141491Y-10667150D01*
X4141491Y-10667150D02*
X4170063Y-10667150D01*
X4170063Y-10667150D02*
X4189110Y-10676674D01*
X4189110Y-10676674D02*
X4198634Y-10695722D01*
X4198634Y-10695722D02*
X4198634Y-10800484D01*
X4198634Y-10695722D02*
X4208158Y-10676674D01*
X4208158Y-10676674D02*
X4227205Y-10667150D01*
X4227205Y-10667150D02*
X4255777Y-10667150D01*
X4255777Y-10667150D02*
X4274825Y-10676674D01*
X4274825Y-10676674D02*
X4284348Y-10695722D01*
X4284348Y-10695722D02*
X4284348Y-10800484D01*
X4379586Y-10800484D02*
X4379586Y-10667150D01*
X4379586Y-10686198D02*
X4389110Y-10676674D01*
X4389110Y-10676674D02*
X4408158Y-10667150D01*
X4408158Y-10667150D02*
X4436729Y-10667150D01*
X4436729Y-10667150D02*
X4455777Y-10676674D01*
X4455777Y-10676674D02*
X4465301Y-10695722D01*
X4465301Y-10695722D02*
X4465301Y-10800484D01*
X4465301Y-10695722D02*
X4474825Y-10676674D01*
X4474825Y-10676674D02*
X4493872Y-10667150D01*
X4493872Y-10667150D02*
X4522444Y-10667150D01*
X4522444Y-10667150D02*
X4541491Y-10676674D01*
X4541491Y-10676674D02*
X4551015Y-10695722D01*
X4551015Y-10695722D02*
X4551015Y-10800484D01*
X4941491Y-10590960D02*
X4770063Y-10848103D01*
X5198634Y-10600484D02*
X5217682Y-10600484D01*
X5217682Y-10600484D02*
X5236729Y-10610008D01*
X5236729Y-10610008D02*
X5246253Y-10619531D01*
X5246253Y-10619531D02*
X5255777Y-10638579D01*
X5255777Y-10638579D02*
X5265301Y-10676674D01*
X5265301Y-10676674D02*
X5265301Y-10724293D01*
X5265301Y-10724293D02*
X5255777Y-10762389D01*
X5255777Y-10762389D02*
X5246253Y-10781436D01*
X5246253Y-10781436D02*
X5236729Y-10790960D01*
X5236729Y-10790960D02*
X5217682Y-10800484D01*
X5217682Y-10800484D02*
X5198634Y-10800484D01*
X5198634Y-10800484D02*
X5179587Y-10790960D01*
X5179587Y-10790960D02*
X5170063Y-10781436D01*
X5170063Y-10781436D02*
X5160539Y-10762389D01*
X5160539Y-10762389D02*
X5151015Y-10724293D01*
X5151015Y-10724293D02*
X5151015Y-10676674D01*
X5151015Y-10676674D02*
X5160539Y-10638579D01*
X5160539Y-10638579D02*
X5170063Y-10619531D01*
X5170063Y-10619531D02*
X5179587Y-10610008D01*
X5179587Y-10610008D02*
X5198634Y-10600484D01*
X5351015Y-10781436D02*
X5360539Y-10790960D01*
X5360539Y-10790960D02*
X5351015Y-10800484D01*
X5351015Y-10800484D02*
X5341491Y-10790960D01*
X5341491Y-10790960D02*
X5351015Y-10781436D01*
X5351015Y-10781436D02*
X5351015Y-10800484D01*
X5484348Y-10600484D02*
X5503396Y-10600484D01*
X5503396Y-10600484D02*
X5522444Y-10610008D01*
X5522444Y-10610008D02*
X5531968Y-10619531D01*
X5531968Y-10619531D02*
X5541491Y-10638579D01*
X5541491Y-10638579D02*
X5551015Y-10676674D01*
X5551015Y-10676674D02*
X5551015Y-10724293D01*
X5551015Y-10724293D02*
X5541491Y-10762389D01*
X5541491Y-10762389D02*
X5531968Y-10781436D01*
X5531968Y-10781436D02*
X5522444Y-10790960D01*
X5522444Y-10790960D02*
X5503396Y-10800484D01*
X5503396Y-10800484D02*
X5484348Y-10800484D01*
X5484348Y-10800484D02*
X5465301Y-10790960D01*
X5465301Y-10790960D02*
X5455777Y-10781436D01*
X5455777Y-10781436D02*
X5446253Y-10762389D01*
X5446253Y-10762389D02*
X5436729Y-10724293D01*
X5436729Y-10724293D02*
X5436729Y-10676674D01*
X5436729Y-10676674D02*
X5446253Y-10638579D01*
X5446253Y-10638579D02*
X5455777Y-10619531D01*
X5455777Y-10619531D02*
X5465301Y-10610008D01*
X5465301Y-10610008D02*
X5484348Y-10600484D01*
X5722444Y-10667150D02*
X5722444Y-10800484D01*
X5674825Y-10590960D02*
X5627206Y-10733817D01*
X5627206Y-10733817D02*
X5751015Y-10733817D01*
X5808158Y-10600484D02*
X5941491Y-10600484D01*
X5941491Y-10600484D02*
X5855777Y-10800484D01*
X6008158Y-10619531D02*
X6017682Y-10610008D01*
X6017682Y-10610008D02*
X6036729Y-10600484D01*
X6036729Y-10600484D02*
X6084348Y-10600484D01*
X6084348Y-10600484D02*
X6103396Y-10610008D01*
X6103396Y-10610008D02*
X6112920Y-10619531D01*
X6112920Y-10619531D02*
X6122444Y-10638579D01*
X6122444Y-10638579D02*
X6122444Y-10657627D01*
X6122444Y-10657627D02*
X6112920Y-10686198D01*
X6112920Y-10686198D02*
X5998634Y-10800484D01*
X5998634Y-10800484D02*
X6122444Y-10800484D01*
X6198634Y-10600484D02*
X6198634Y-10638579D01*
X6274825Y-10600484D02*
X6274825Y-10638579D01*
X6570063Y-10876674D02*
X6560539Y-10867150D01*
X6560539Y-10867150D02*
X6541491Y-10838579D01*
X6541491Y-10838579D02*
X6531968Y-10819531D01*
X6531968Y-10819531D02*
X6522444Y-10790960D01*
X6522444Y-10790960D02*
X6512920Y-10743341D01*
X6512920Y-10743341D02*
X6512920Y-10705246D01*
X6512920Y-10705246D02*
X6522444Y-10657627D01*
X6522444Y-10657627D02*
X6531968Y-10629055D01*
X6531968Y-10629055D02*
X6541491Y-10610008D01*
X6541491Y-10610008D02*
X6560539Y-10581436D01*
X6560539Y-10581436D02*
X6570063Y-10571912D01*
X6731968Y-10667150D02*
X6731968Y-10800484D01*
X6684348Y-10590960D02*
X6636729Y-10733817D01*
X6636729Y-10733817D02*
X6760539Y-10733817D01*
X6989110Y-10800484D02*
X6989110Y-10600484D01*
X7074825Y-10800484D02*
X7074825Y-10695722D01*
X7074825Y-10695722D02*
X7065301Y-10676674D01*
X7065301Y-10676674D02*
X7046253Y-10667150D01*
X7046253Y-10667150D02*
X7017682Y-10667150D01*
X7017682Y-10667150D02*
X6998634Y-10676674D01*
X6998634Y-10676674D02*
X6989110Y-10686198D01*
X7198634Y-10800484D02*
X7179587Y-10790960D01*
X7179587Y-10790960D02*
X7170063Y-10781436D01*
X7170063Y-10781436D02*
X7160539Y-10762389D01*
X7160539Y-10762389D02*
X7160539Y-10705246D01*
X7160539Y-10705246D02*
X7170063Y-10686198D01*
X7170063Y-10686198D02*
X7179587Y-10676674D01*
X7179587Y-10676674D02*
X7198634Y-10667150D01*
X7198634Y-10667150D02*
X7227206Y-10667150D01*
X7227206Y-10667150D02*
X7246253Y-10676674D01*
X7246253Y-10676674D02*
X7255777Y-10686198D01*
X7255777Y-10686198D02*
X7265301Y-10705246D01*
X7265301Y-10705246D02*
X7265301Y-10762389D01*
X7265301Y-10762389D02*
X7255777Y-10781436D01*
X7255777Y-10781436D02*
X7246253Y-10790960D01*
X7246253Y-10790960D02*
X7227206Y-10800484D01*
X7227206Y-10800484D02*
X7198634Y-10800484D01*
X7379587Y-10800484D02*
X7360539Y-10790960D01*
X7360539Y-10790960D02*
X7351015Y-10771912D01*
X7351015Y-10771912D02*
X7351015Y-10600484D01*
X7531968Y-10790960D02*
X7512920Y-10800484D01*
X7512920Y-10800484D02*
X7474825Y-10800484D01*
X7474825Y-10800484D02*
X7455777Y-10790960D01*
X7455777Y-10790960D02*
X7446253Y-10771912D01*
X7446253Y-10771912D02*
X7446253Y-10695722D01*
X7446253Y-10695722D02*
X7455777Y-10676674D01*
X7455777Y-10676674D02*
X7474825Y-10667150D01*
X7474825Y-10667150D02*
X7512920Y-10667150D01*
X7512920Y-10667150D02*
X7531968Y-10676674D01*
X7531968Y-10676674D02*
X7541491Y-10695722D01*
X7541491Y-10695722D02*
X7541491Y-10714770D01*
X7541491Y-10714770D02*
X7446253Y-10733817D01*
X7617682Y-10790960D02*
X7636730Y-10800484D01*
X7636730Y-10800484D02*
X7674825Y-10800484D01*
X7674825Y-10800484D02*
X7693872Y-10790960D01*
X7693872Y-10790960D02*
X7703396Y-10771912D01*
X7703396Y-10771912D02*
X7703396Y-10762389D01*
X7703396Y-10762389D02*
X7693872Y-10743341D01*
X7693872Y-10743341D02*
X7674825Y-10733817D01*
X7674825Y-10733817D02*
X7646253Y-10733817D01*
X7646253Y-10733817D02*
X7627206Y-10724293D01*
X7627206Y-10724293D02*
X7617682Y-10705246D01*
X7617682Y-10705246D02*
X7617682Y-10695722D01*
X7617682Y-10695722D02*
X7627206Y-10676674D01*
X7627206Y-10676674D02*
X7646253Y-10667150D01*
X7646253Y-10667150D02*
X7674825Y-10667150D01*
X7674825Y-10667150D02*
X7693872Y-10676674D01*
X7770063Y-10876674D02*
X7779587Y-10867150D01*
X7779587Y-10867150D02*
X7798634Y-10838579D01*
X7798634Y-10838579D02*
X7808158Y-10819531D01*
X7808158Y-10819531D02*
X7817682Y-10790960D01*
X7817682Y-10790960D02*
X7827206Y-10743341D01*
X7827206Y-10743341D02*
X7827206Y-10705246D01*
X7827206Y-10705246D02*
X7817682Y-10657627D01*
X7817682Y-10657627D02*
X7808158Y-10629055D01*
X7808158Y-10629055D02*
X7798634Y-10610008D01*
X7798634Y-10610008D02*
X7779587Y-10581436D01*
X7779587Y-10581436D02*
X7770063Y-10571912D01*
X8131968Y-10876674D02*
X8122444Y-10867150D01*
X8122444Y-10867150D02*
X8103396Y-10838579D01*
X8103396Y-10838579D02*
X8093872Y-10819531D01*
X8093872Y-10819531D02*
X8084349Y-10790960D01*
X8084349Y-10790960D02*
X8074825Y-10743341D01*
X8074825Y-10743341D02*
X8074825Y-10705246D01*
X8074825Y-10705246D02*
X8084349Y-10657627D01*
X8084349Y-10657627D02*
X8093872Y-10629055D01*
X8093872Y-10629055D02*
X8103396Y-10610008D01*
X8103396Y-10610008D02*
X8122444Y-10581436D01*
X8122444Y-10581436D02*
X8131968Y-10571912D01*
X8208158Y-10667150D02*
X8208158Y-10800484D01*
X8208158Y-10686198D02*
X8217682Y-10676674D01*
X8217682Y-10676674D02*
X8236730Y-10667150D01*
X8236730Y-10667150D02*
X8265301Y-10667150D01*
X8265301Y-10667150D02*
X8284349Y-10676674D01*
X8284349Y-10676674D02*
X8293872Y-10695722D01*
X8293872Y-10695722D02*
X8293872Y-10800484D01*
X8417682Y-10800484D02*
X8398634Y-10790960D01*
X8398634Y-10790960D02*
X8389111Y-10781436D01*
X8389111Y-10781436D02*
X8379587Y-10762389D01*
X8379587Y-10762389D02*
X8379587Y-10705246D01*
X8379587Y-10705246D02*
X8389111Y-10686198D01*
X8389111Y-10686198D02*
X8398634Y-10676674D01*
X8398634Y-10676674D02*
X8417682Y-10667150D01*
X8417682Y-10667150D02*
X8446254Y-10667150D01*
X8446254Y-10667150D02*
X8465301Y-10676674D01*
X8465301Y-10676674D02*
X8474825Y-10686198D01*
X8474825Y-10686198D02*
X8484349Y-10705246D01*
X8484349Y-10705246D02*
X8484349Y-10762389D01*
X8484349Y-10762389D02*
X8474825Y-10781436D01*
X8474825Y-10781436D02*
X8465301Y-10790960D01*
X8465301Y-10790960D02*
X8446254Y-10800484D01*
X8446254Y-10800484D02*
X8417682Y-10800484D01*
X8541492Y-10667150D02*
X8617682Y-10667150D01*
X8570063Y-10600484D02*
X8570063Y-10771912D01*
X8570063Y-10771912D02*
X8579587Y-10790960D01*
X8579587Y-10790960D02*
X8598634Y-10800484D01*
X8598634Y-10800484D02*
X8617682Y-10800484D01*
X8836730Y-10667150D02*
X8836730Y-10867150D01*
X8836730Y-10676674D02*
X8855777Y-10667150D01*
X8855777Y-10667150D02*
X8893873Y-10667150D01*
X8893873Y-10667150D02*
X8912920Y-10676674D01*
X8912920Y-10676674D02*
X8922444Y-10686198D01*
X8922444Y-10686198D02*
X8931968Y-10705246D01*
X8931968Y-10705246D02*
X8931968Y-10762389D01*
X8931968Y-10762389D02*
X8922444Y-10781436D01*
X8922444Y-10781436D02*
X8912920Y-10790960D01*
X8912920Y-10790960D02*
X8893873Y-10800484D01*
X8893873Y-10800484D02*
X8855777Y-10800484D01*
X8855777Y-10800484D02*
X8836730Y-10790960D01*
X9046254Y-10800484D02*
X9027206Y-10790960D01*
X9027206Y-10790960D02*
X9017682Y-10771912D01*
X9017682Y-10771912D02*
X9017682Y-10600484D01*
X9208158Y-10800484D02*
X9208158Y-10695722D01*
X9208158Y-10695722D02*
X9198635Y-10676674D01*
X9198635Y-10676674D02*
X9179587Y-10667150D01*
X9179587Y-10667150D02*
X9141492Y-10667150D01*
X9141492Y-10667150D02*
X9122444Y-10676674D01*
X9208158Y-10790960D02*
X9189111Y-10800484D01*
X9189111Y-10800484D02*
X9141492Y-10800484D01*
X9141492Y-10800484D02*
X9122444Y-10790960D01*
X9122444Y-10790960D02*
X9112920Y-10771912D01*
X9112920Y-10771912D02*
X9112920Y-10752865D01*
X9112920Y-10752865D02*
X9122444Y-10733817D01*
X9122444Y-10733817D02*
X9141492Y-10724293D01*
X9141492Y-10724293D02*
X9189111Y-10724293D01*
X9189111Y-10724293D02*
X9208158Y-10714770D01*
X9274825Y-10667150D02*
X9351015Y-10667150D01*
X9303396Y-10600484D02*
X9303396Y-10771912D01*
X9303396Y-10771912D02*
X9312920Y-10790960D01*
X9312920Y-10790960D02*
X9331968Y-10800484D01*
X9331968Y-10800484D02*
X9351015Y-10800484D01*
X9493873Y-10790960D02*
X9474825Y-10800484D01*
X9474825Y-10800484D02*
X9436730Y-10800484D01*
X9436730Y-10800484D02*
X9417682Y-10790960D01*
X9417682Y-10790960D02*
X9408158Y-10771912D01*
X9408158Y-10771912D02*
X9408158Y-10695722D01*
X9408158Y-10695722D02*
X9417682Y-10676674D01*
X9417682Y-10676674D02*
X9436730Y-10667150D01*
X9436730Y-10667150D02*
X9474825Y-10667150D01*
X9474825Y-10667150D02*
X9493873Y-10676674D01*
X9493873Y-10676674D02*
X9503396Y-10695722D01*
X9503396Y-10695722D02*
X9503396Y-10714770D01*
X9503396Y-10714770D02*
X9408158Y-10733817D01*
X9674825Y-10800484D02*
X9674825Y-10600484D01*
X9674825Y-10790960D02*
X9655777Y-10800484D01*
X9655777Y-10800484D02*
X9617682Y-10800484D01*
X9617682Y-10800484D02*
X9598635Y-10790960D01*
X9598635Y-10790960D02*
X9589111Y-10781436D01*
X9589111Y-10781436D02*
X9579587Y-10762389D01*
X9579587Y-10762389D02*
X9579587Y-10705246D01*
X9579587Y-10705246D02*
X9589111Y-10686198D01*
X9589111Y-10686198D02*
X9598635Y-10676674D01*
X9598635Y-10676674D02*
X9617682Y-10667150D01*
X9617682Y-10667150D02*
X9655777Y-10667150D01*
X9655777Y-10667150D02*
X9674825Y-10676674D01*
X9751016Y-10876674D02*
X9760539Y-10867150D01*
X9760539Y-10867150D02*
X9779587Y-10838579D01*
X9779587Y-10838579D02*
X9789111Y-10819531D01*
X9789111Y-10819531D02*
X9798635Y-10790960D01*
X9798635Y-10790960D02*
X9808158Y-10743341D01*
X9808158Y-10743341D02*
X9808158Y-10705246D01*
X9808158Y-10705246D02*
X9798635Y-10657627D01*
X9798635Y-10657627D02*
X9789111Y-10629055D01*
X9789111Y-10629055D02*
X9779587Y-10610008D01*
X9779587Y-10610008D02*
X9760539Y-10581436D01*
X9760539Y-10581436D02*
X9751016Y-10571912D01*
X2895000Y-10873000D02*
X2895000Y-11073000D01*
X2795000Y-10973000D02*
X2995000Y-10973000D01*
X3236729Y-10864484D02*
X3360539Y-10864484D01*
X3360539Y-10864484D02*
X3293872Y-10940674D01*
X3293872Y-10940674D02*
X3322443Y-10940674D01*
X3322443Y-10940674D02*
X3341491Y-10950198D01*
X3341491Y-10950198D02*
X3351015Y-10959722D01*
X3351015Y-10959722D02*
X3360539Y-10978770D01*
X3360539Y-10978770D02*
X3360539Y-11026389D01*
X3360539Y-11026389D02*
X3351015Y-11045436D01*
X3351015Y-11045436D02*
X3341491Y-11054960D01*
X3341491Y-11054960D02*
X3322443Y-11064484D01*
X3322443Y-11064484D02*
X3265301Y-11064484D01*
X3265301Y-11064484D02*
X3246253Y-11054960D01*
X3246253Y-11054960D02*
X3236729Y-11045436D01*
X3446253Y-11045436D02*
X3455777Y-11054960D01*
X3455777Y-11054960D02*
X3446253Y-11064484D01*
X3446253Y-11064484D02*
X3436729Y-11054960D01*
X3436729Y-11054960D02*
X3446253Y-11045436D01*
X3446253Y-11045436D02*
X3446253Y-11064484D01*
X3531967Y-10883531D02*
X3541491Y-10874008D01*
X3541491Y-10874008D02*
X3560539Y-10864484D01*
X3560539Y-10864484D02*
X3608158Y-10864484D01*
X3608158Y-10864484D02*
X3627205Y-10874008D01*
X3627205Y-10874008D02*
X3636729Y-10883531D01*
X3636729Y-10883531D02*
X3646253Y-10902579D01*
X3646253Y-10902579D02*
X3646253Y-10921627D01*
X3646253Y-10921627D02*
X3636729Y-10950198D01*
X3636729Y-10950198D02*
X3522443Y-11064484D01*
X3522443Y-11064484D02*
X3646253Y-11064484D01*
X3770062Y-10864484D02*
X3789110Y-10864484D01*
X3789110Y-10864484D02*
X3808158Y-10874008D01*
X3808158Y-10874008D02*
X3817682Y-10883531D01*
X3817682Y-10883531D02*
X3827205Y-10902579D01*
X3827205Y-10902579D02*
X3836729Y-10940674D01*
X3836729Y-10940674D02*
X3836729Y-10988293D01*
X3836729Y-10988293D02*
X3827205Y-11026389D01*
X3827205Y-11026389D02*
X3817682Y-11045436D01*
X3817682Y-11045436D02*
X3808158Y-11054960D01*
X3808158Y-11054960D02*
X3789110Y-11064484D01*
X3789110Y-11064484D02*
X3770062Y-11064484D01*
X3770062Y-11064484D02*
X3751015Y-11054960D01*
X3751015Y-11054960D02*
X3741491Y-11045436D01*
X3741491Y-11045436D02*
X3731967Y-11026389D01*
X3731967Y-11026389D02*
X3722443Y-10988293D01*
X3722443Y-10988293D02*
X3722443Y-10940674D01*
X3722443Y-10940674D02*
X3731967Y-10902579D01*
X3731967Y-10902579D02*
X3741491Y-10883531D01*
X3741491Y-10883531D02*
X3751015Y-10874008D01*
X3751015Y-10874008D02*
X3770062Y-10864484D01*
X3960539Y-10864484D02*
X3979586Y-10864484D01*
X3979586Y-10864484D02*
X3998634Y-10874008D01*
X3998634Y-10874008D02*
X4008158Y-10883531D01*
X4008158Y-10883531D02*
X4017682Y-10902579D01*
X4017682Y-10902579D02*
X4027205Y-10940674D01*
X4027205Y-10940674D02*
X4027205Y-10988293D01*
X4027205Y-10988293D02*
X4017682Y-11026389D01*
X4017682Y-11026389D02*
X4008158Y-11045436D01*
X4008158Y-11045436D02*
X3998634Y-11054960D01*
X3998634Y-11054960D02*
X3979586Y-11064484D01*
X3979586Y-11064484D02*
X3960539Y-11064484D01*
X3960539Y-11064484D02*
X3941491Y-11054960D01*
X3941491Y-11054960D02*
X3931967Y-11045436D01*
X3931967Y-11045436D02*
X3922443Y-11026389D01*
X3922443Y-11026389D02*
X3912920Y-10988293D01*
X3912920Y-10988293D02*
X3912920Y-10940674D01*
X3912920Y-10940674D02*
X3922443Y-10902579D01*
X3922443Y-10902579D02*
X3931967Y-10883531D01*
X3931967Y-10883531D02*
X3941491Y-10874008D01*
X3941491Y-10874008D02*
X3960539Y-10864484D01*
X4112920Y-11064484D02*
X4112920Y-10931150D01*
X4112920Y-10950198D02*
X4122443Y-10940674D01*
X4122443Y-10940674D02*
X4141491Y-10931150D01*
X4141491Y-10931150D02*
X4170063Y-10931150D01*
X4170063Y-10931150D02*
X4189110Y-10940674D01*
X4189110Y-10940674D02*
X4198634Y-10959722D01*
X4198634Y-10959722D02*
X4198634Y-11064484D01*
X4198634Y-10959722D02*
X4208158Y-10940674D01*
X4208158Y-10940674D02*
X4227205Y-10931150D01*
X4227205Y-10931150D02*
X4255777Y-10931150D01*
X4255777Y-10931150D02*
X4274825Y-10940674D01*
X4274825Y-10940674D02*
X4284348Y-10959722D01*
X4284348Y-10959722D02*
X4284348Y-11064484D01*
X4379586Y-11064484D02*
X4379586Y-10931150D01*
X4379586Y-10950198D02*
X4389110Y-10940674D01*
X4389110Y-10940674D02*
X4408158Y-10931150D01*
X4408158Y-10931150D02*
X4436729Y-10931150D01*
X4436729Y-10931150D02*
X4455777Y-10940674D01*
X4455777Y-10940674D02*
X4465301Y-10959722D01*
X4465301Y-10959722D02*
X4465301Y-11064484D01*
X4465301Y-10959722D02*
X4474825Y-10940674D01*
X4474825Y-10940674D02*
X4493872Y-10931150D01*
X4493872Y-10931150D02*
X4522444Y-10931150D01*
X4522444Y-10931150D02*
X4541491Y-10940674D01*
X4541491Y-10940674D02*
X4551015Y-10959722D01*
X4551015Y-10959722D02*
X4551015Y-11064484D01*
X4941491Y-10854960D02*
X4770063Y-11112103D01*
X5198634Y-10864484D02*
X5217682Y-10864484D01*
X5217682Y-10864484D02*
X5236729Y-10874008D01*
X5236729Y-10874008D02*
X5246253Y-10883531D01*
X5246253Y-10883531D02*
X5255777Y-10902579D01*
X5255777Y-10902579D02*
X5265301Y-10940674D01*
X5265301Y-10940674D02*
X5265301Y-10988293D01*
X5265301Y-10988293D02*
X5255777Y-11026389D01*
X5255777Y-11026389D02*
X5246253Y-11045436D01*
X5246253Y-11045436D02*
X5236729Y-11054960D01*
X5236729Y-11054960D02*
X5217682Y-11064484D01*
X5217682Y-11064484D02*
X5198634Y-11064484D01*
X5198634Y-11064484D02*
X5179587Y-11054960D01*
X5179587Y-11054960D02*
X5170063Y-11045436D01*
X5170063Y-11045436D02*
X5160539Y-11026389D01*
X5160539Y-11026389D02*
X5151015Y-10988293D01*
X5151015Y-10988293D02*
X5151015Y-10940674D01*
X5151015Y-10940674D02*
X5160539Y-10902579D01*
X5160539Y-10902579D02*
X5170063Y-10883531D01*
X5170063Y-10883531D02*
X5179587Y-10874008D01*
X5179587Y-10874008D02*
X5198634Y-10864484D01*
X5351015Y-11045436D02*
X5360539Y-11054960D01*
X5360539Y-11054960D02*
X5351015Y-11064484D01*
X5351015Y-11064484D02*
X5341491Y-11054960D01*
X5341491Y-11054960D02*
X5351015Y-11045436D01*
X5351015Y-11045436D02*
X5351015Y-11064484D01*
X5551015Y-11064484D02*
X5436729Y-11064484D01*
X5493872Y-11064484D02*
X5493872Y-10864484D01*
X5493872Y-10864484D02*
X5474825Y-10893055D01*
X5474825Y-10893055D02*
X5455777Y-10912103D01*
X5455777Y-10912103D02*
X5436729Y-10921627D01*
X5627206Y-10883531D02*
X5636729Y-10874008D01*
X5636729Y-10874008D02*
X5655777Y-10864484D01*
X5655777Y-10864484D02*
X5703396Y-10864484D01*
X5703396Y-10864484D02*
X5722444Y-10874008D01*
X5722444Y-10874008D02*
X5731967Y-10883531D01*
X5731967Y-10883531D02*
X5741491Y-10902579D01*
X5741491Y-10902579D02*
X5741491Y-10921627D01*
X5741491Y-10921627D02*
X5731967Y-10950198D01*
X5731967Y-10950198D02*
X5617682Y-11064484D01*
X5617682Y-11064484D02*
X5741491Y-11064484D01*
X5912920Y-10864484D02*
X5874825Y-10864484D01*
X5874825Y-10864484D02*
X5855777Y-10874008D01*
X5855777Y-10874008D02*
X5846253Y-10883531D01*
X5846253Y-10883531D02*
X5827206Y-10912103D01*
X5827206Y-10912103D02*
X5817682Y-10950198D01*
X5817682Y-10950198D02*
X5817682Y-11026389D01*
X5817682Y-11026389D02*
X5827206Y-11045436D01*
X5827206Y-11045436D02*
X5836729Y-11054960D01*
X5836729Y-11054960D02*
X5855777Y-11064484D01*
X5855777Y-11064484D02*
X5893872Y-11064484D01*
X5893872Y-11064484D02*
X5912920Y-11054960D01*
X5912920Y-11054960D02*
X5922444Y-11045436D01*
X5922444Y-11045436D02*
X5931967Y-11026389D01*
X5931967Y-11026389D02*
X5931967Y-10978770D01*
X5931967Y-10978770D02*
X5922444Y-10959722D01*
X5922444Y-10959722D02*
X5912920Y-10950198D01*
X5912920Y-10950198D02*
X5893872Y-10940674D01*
X5893872Y-10940674D02*
X5855777Y-10940674D01*
X5855777Y-10940674D02*
X5836729Y-10950198D01*
X5836729Y-10950198D02*
X5827206Y-10959722D01*
X5827206Y-10959722D02*
X5817682Y-10978770D01*
X6055777Y-10864484D02*
X6074825Y-10864484D01*
X6074825Y-10864484D02*
X6093872Y-10874008D01*
X6093872Y-10874008D02*
X6103396Y-10883531D01*
X6103396Y-10883531D02*
X6112920Y-10902579D01*
X6112920Y-10902579D02*
X6122444Y-10940674D01*
X6122444Y-10940674D02*
X6122444Y-10988293D01*
X6122444Y-10988293D02*
X6112920Y-11026389D01*
X6112920Y-11026389D02*
X6103396Y-11045436D01*
X6103396Y-11045436D02*
X6093872Y-11054960D01*
X6093872Y-11054960D02*
X6074825Y-11064484D01*
X6074825Y-11064484D02*
X6055777Y-11064484D01*
X6055777Y-11064484D02*
X6036729Y-11054960D01*
X6036729Y-11054960D02*
X6027206Y-11045436D01*
X6027206Y-11045436D02*
X6017682Y-11026389D01*
X6017682Y-11026389D02*
X6008158Y-10988293D01*
X6008158Y-10988293D02*
X6008158Y-10940674D01*
X6008158Y-10940674D02*
X6017682Y-10902579D01*
X6017682Y-10902579D02*
X6027206Y-10883531D01*
X6027206Y-10883531D02*
X6036729Y-10874008D01*
X6036729Y-10874008D02*
X6055777Y-10864484D01*
X6198634Y-10864484D02*
X6198634Y-10902579D01*
X6274825Y-10864484D02*
X6274825Y-10902579D01*
X6570063Y-11140674D02*
X6560539Y-11131150D01*
X6560539Y-11131150D02*
X6541491Y-11102579D01*
X6541491Y-11102579D02*
X6531968Y-11083531D01*
X6531968Y-11083531D02*
X6522444Y-11054960D01*
X6522444Y-11054960D02*
X6512920Y-11007341D01*
X6512920Y-11007341D02*
X6512920Y-10969246D01*
X6512920Y-10969246D02*
X6522444Y-10921627D01*
X6522444Y-10921627D02*
X6531968Y-10893055D01*
X6531968Y-10893055D02*
X6541491Y-10874008D01*
X6541491Y-10874008D02*
X6560539Y-10845436D01*
X6560539Y-10845436D02*
X6570063Y-10835912D01*
X6741491Y-10864484D02*
X6646253Y-10864484D01*
X6646253Y-10864484D02*
X6636729Y-10959722D01*
X6636729Y-10959722D02*
X6646253Y-10950198D01*
X6646253Y-10950198D02*
X6665301Y-10940674D01*
X6665301Y-10940674D02*
X6712920Y-10940674D01*
X6712920Y-10940674D02*
X6731968Y-10950198D01*
X6731968Y-10950198D02*
X6741491Y-10959722D01*
X6741491Y-10959722D02*
X6751015Y-10978770D01*
X6751015Y-10978770D02*
X6751015Y-11026389D01*
X6751015Y-11026389D02*
X6741491Y-11045436D01*
X6741491Y-11045436D02*
X6731968Y-11054960D01*
X6731968Y-11054960D02*
X6712920Y-11064484D01*
X6712920Y-11064484D02*
X6665301Y-11064484D01*
X6665301Y-11064484D02*
X6646253Y-11054960D01*
X6646253Y-11054960D02*
X6636729Y-11045436D01*
X6989110Y-11064484D02*
X6989110Y-10864484D01*
X7074825Y-11064484D02*
X7074825Y-10959722D01*
X7074825Y-10959722D02*
X7065301Y-10940674D01*
X7065301Y-10940674D02*
X7046253Y-10931150D01*
X7046253Y-10931150D02*
X7017682Y-10931150D01*
X7017682Y-10931150D02*
X6998634Y-10940674D01*
X6998634Y-10940674D02*
X6989110Y-10950198D01*
X7198634Y-11064484D02*
X7179587Y-11054960D01*
X7179587Y-11054960D02*
X7170063Y-11045436D01*
X7170063Y-11045436D02*
X7160539Y-11026389D01*
X7160539Y-11026389D02*
X7160539Y-10969246D01*
X7160539Y-10969246D02*
X7170063Y-10950198D01*
X7170063Y-10950198D02*
X7179587Y-10940674D01*
X7179587Y-10940674D02*
X7198634Y-10931150D01*
X7198634Y-10931150D02*
X7227206Y-10931150D01*
X7227206Y-10931150D02*
X7246253Y-10940674D01*
X7246253Y-10940674D02*
X7255777Y-10950198D01*
X7255777Y-10950198D02*
X7265301Y-10969246D01*
X7265301Y-10969246D02*
X7265301Y-11026389D01*
X7265301Y-11026389D02*
X7255777Y-11045436D01*
X7255777Y-11045436D02*
X7246253Y-11054960D01*
X7246253Y-11054960D02*
X7227206Y-11064484D01*
X7227206Y-11064484D02*
X7198634Y-11064484D01*
X7379587Y-11064484D02*
X7360539Y-11054960D01*
X7360539Y-11054960D02*
X7351015Y-11035912D01*
X7351015Y-11035912D02*
X7351015Y-10864484D01*
X7531968Y-11054960D02*
X7512920Y-11064484D01*
X7512920Y-11064484D02*
X7474825Y-11064484D01*
X7474825Y-11064484D02*
X7455777Y-11054960D01*
X7455777Y-11054960D02*
X7446253Y-11035912D01*
X7446253Y-11035912D02*
X7446253Y-10959722D01*
X7446253Y-10959722D02*
X7455777Y-10940674D01*
X7455777Y-10940674D02*
X7474825Y-10931150D01*
X7474825Y-10931150D02*
X7512920Y-10931150D01*
X7512920Y-10931150D02*
X7531968Y-10940674D01*
X7531968Y-10940674D02*
X7541491Y-10959722D01*
X7541491Y-10959722D02*
X7541491Y-10978770D01*
X7541491Y-10978770D02*
X7446253Y-10997817D01*
X7617682Y-11054960D02*
X7636730Y-11064484D01*
X7636730Y-11064484D02*
X7674825Y-11064484D01*
X7674825Y-11064484D02*
X7693872Y-11054960D01*
X7693872Y-11054960D02*
X7703396Y-11035912D01*
X7703396Y-11035912D02*
X7703396Y-11026389D01*
X7703396Y-11026389D02*
X7693872Y-11007341D01*
X7693872Y-11007341D02*
X7674825Y-10997817D01*
X7674825Y-10997817D02*
X7646253Y-10997817D01*
X7646253Y-10997817D02*
X7627206Y-10988293D01*
X7627206Y-10988293D02*
X7617682Y-10969246D01*
X7617682Y-10969246D02*
X7617682Y-10959722D01*
X7617682Y-10959722D02*
X7627206Y-10940674D01*
X7627206Y-10940674D02*
X7646253Y-10931150D01*
X7646253Y-10931150D02*
X7674825Y-10931150D01*
X7674825Y-10931150D02*
X7693872Y-10940674D01*
X7770063Y-11140674D02*
X7779587Y-11131150D01*
X7779587Y-11131150D02*
X7798634Y-11102579D01*
X7798634Y-11102579D02*
X7808158Y-11083531D01*
X7808158Y-11083531D02*
X7817682Y-11054960D01*
X7817682Y-11054960D02*
X7827206Y-11007341D01*
X7827206Y-11007341D02*
X7827206Y-10969246D01*
X7827206Y-10969246D02*
X7817682Y-10921627D01*
X7817682Y-10921627D02*
X7808158Y-10893055D01*
X7808158Y-10893055D02*
X7798634Y-10874008D01*
X7798634Y-10874008D02*
X7779587Y-10845436D01*
X7779587Y-10845436D02*
X7770063Y-10835912D01*
X8131968Y-11140674D02*
X8122444Y-11131150D01*
X8122444Y-11131150D02*
X8103396Y-11102579D01*
X8103396Y-11102579D02*
X8093872Y-11083531D01*
X8093872Y-11083531D02*
X8084349Y-11054960D01*
X8084349Y-11054960D02*
X8074825Y-11007341D01*
X8074825Y-11007341D02*
X8074825Y-10969246D01*
X8074825Y-10969246D02*
X8084349Y-10921627D01*
X8084349Y-10921627D02*
X8093872Y-10893055D01*
X8093872Y-10893055D02*
X8103396Y-10874008D01*
X8103396Y-10874008D02*
X8122444Y-10845436D01*
X8122444Y-10845436D02*
X8131968Y-10835912D01*
X8208158Y-10931150D02*
X8208158Y-11064484D01*
X8208158Y-10950198D02*
X8217682Y-10940674D01*
X8217682Y-10940674D02*
X8236730Y-10931150D01*
X8236730Y-10931150D02*
X8265301Y-10931150D01*
X8265301Y-10931150D02*
X8284349Y-10940674D01*
X8284349Y-10940674D02*
X8293872Y-10959722D01*
X8293872Y-10959722D02*
X8293872Y-11064484D01*
X8417682Y-11064484D02*
X8398634Y-11054960D01*
X8398634Y-11054960D02*
X8389111Y-11045436D01*
X8389111Y-11045436D02*
X8379587Y-11026389D01*
X8379587Y-11026389D02*
X8379587Y-10969246D01*
X8379587Y-10969246D02*
X8389111Y-10950198D01*
X8389111Y-10950198D02*
X8398634Y-10940674D01*
X8398634Y-10940674D02*
X8417682Y-10931150D01*
X8417682Y-10931150D02*
X8446254Y-10931150D01*
X8446254Y-10931150D02*
X8465301Y-10940674D01*
X8465301Y-10940674D02*
X8474825Y-10950198D01*
X8474825Y-10950198D02*
X8484349Y-10969246D01*
X8484349Y-10969246D02*
X8484349Y-11026389D01*
X8484349Y-11026389D02*
X8474825Y-11045436D01*
X8474825Y-11045436D02*
X8465301Y-11054960D01*
X8465301Y-11054960D02*
X8446254Y-11064484D01*
X8446254Y-11064484D02*
X8417682Y-11064484D01*
X8541492Y-10931150D02*
X8617682Y-10931150D01*
X8570063Y-10864484D02*
X8570063Y-11035912D01*
X8570063Y-11035912D02*
X8579587Y-11054960D01*
X8579587Y-11054960D02*
X8598634Y-11064484D01*
X8598634Y-11064484D02*
X8617682Y-11064484D01*
X8836730Y-10931150D02*
X8836730Y-11131150D01*
X8836730Y-10940674D02*
X8855777Y-10931150D01*
X8855777Y-10931150D02*
X8893873Y-10931150D01*
X8893873Y-10931150D02*
X8912920Y-10940674D01*
X8912920Y-10940674D02*
X8922444Y-10950198D01*
X8922444Y-10950198D02*
X8931968Y-10969246D01*
X8931968Y-10969246D02*
X8931968Y-11026389D01*
X8931968Y-11026389D02*
X8922444Y-11045436D01*
X8922444Y-11045436D02*
X8912920Y-11054960D01*
X8912920Y-11054960D02*
X8893873Y-11064484D01*
X8893873Y-11064484D02*
X8855777Y-11064484D01*
X8855777Y-11064484D02*
X8836730Y-11054960D01*
X9046254Y-11064484D02*
X9027206Y-11054960D01*
X9027206Y-11054960D02*
X9017682Y-11035912D01*
X9017682Y-11035912D02*
X9017682Y-10864484D01*
X9208158Y-11064484D02*
X9208158Y-10959722D01*
X9208158Y-10959722D02*
X9198635Y-10940674D01*
X9198635Y-10940674D02*
X9179587Y-10931150D01*
X9179587Y-10931150D02*
X9141492Y-10931150D01*
X9141492Y-10931150D02*
X9122444Y-10940674D01*
X9208158Y-11054960D02*
X9189111Y-11064484D01*
X9189111Y-11064484D02*
X9141492Y-11064484D01*
X9141492Y-11064484D02*
X9122444Y-11054960D01*
X9122444Y-11054960D02*
X9112920Y-11035912D01*
X9112920Y-11035912D02*
X9112920Y-11016865D01*
X9112920Y-11016865D02*
X9122444Y-10997817D01*
X9122444Y-10997817D02*
X9141492Y-10988293D01*
X9141492Y-10988293D02*
X9189111Y-10988293D01*
X9189111Y-10988293D02*
X9208158Y-10978770D01*
X9274825Y-10931150D02*
X9351015Y-10931150D01*
X9303396Y-10864484D02*
X9303396Y-11035912D01*
X9303396Y-11035912D02*
X9312920Y-11054960D01*
X9312920Y-11054960D02*
X9331968Y-11064484D01*
X9331968Y-11064484D02*
X9351015Y-11064484D01*
X9493873Y-11054960D02*
X9474825Y-11064484D01*
X9474825Y-11064484D02*
X9436730Y-11064484D01*
X9436730Y-11064484D02*
X9417682Y-11054960D01*
X9417682Y-11054960D02*
X9408158Y-11035912D01*
X9408158Y-11035912D02*
X9408158Y-10959722D01*
X9408158Y-10959722D02*
X9417682Y-10940674D01*
X9417682Y-10940674D02*
X9436730Y-10931150D01*
X9436730Y-10931150D02*
X9474825Y-10931150D01*
X9474825Y-10931150D02*
X9493873Y-10940674D01*
X9493873Y-10940674D02*
X9503396Y-10959722D01*
X9503396Y-10959722D02*
X9503396Y-10978770D01*
X9503396Y-10978770D02*
X9408158Y-10997817D01*
X9674825Y-11064484D02*
X9674825Y-10864484D01*
X9674825Y-11054960D02*
X9655777Y-11064484D01*
X9655777Y-11064484D02*
X9617682Y-11064484D01*
X9617682Y-11064484D02*
X9598635Y-11054960D01*
X9598635Y-11054960D02*
X9589111Y-11045436D01*
X9589111Y-11045436D02*
X9579587Y-11026389D01*
X9579587Y-11026389D02*
X9579587Y-10969246D01*
X9579587Y-10969246D02*
X9589111Y-10950198D01*
X9589111Y-10950198D02*
X9598635Y-10940674D01*
X9598635Y-10940674D02*
X9617682Y-10931150D01*
X9617682Y-10931150D02*
X9655777Y-10931150D01*
X9655777Y-10931150D02*
X9674825Y-10940674D01*
X9751016Y-11140674D02*
X9760539Y-11131150D01*
X9760539Y-11131150D02*
X9779587Y-11102579D01*
X9779587Y-11102579D02*
X9789111Y-11083531D01*
X9789111Y-11083531D02*
X9798635Y-11054960D01*
X9798635Y-11054960D02*
X9808158Y-11007341D01*
X9808158Y-11007341D02*
X9808158Y-10969246D01*
X9808158Y-10969246D02*
X9798635Y-10921627D01*
X9798635Y-10921627D02*
X9789111Y-10893055D01*
X9789111Y-10893055D02*
X9779587Y-10874008D01*
X9779587Y-10874008D02*
X9760539Y-10845436D01*
X9760539Y-10845436D02*
X9751016Y-10835912D01*
M02*
