G04 #@! TF.GenerationSoftware,KiCad,Pcbnew,7.0.8*
G04 #@! TF.CreationDate,2023-12-09T01:27:44-08:00*
G04 #@! TF.ProjectId,Seismos_5CoreR,53656973-6d6f-4735-9f35-436f7265522e,rev?*
G04 #@! TF.SameCoordinates,Original*
G04 #@! TF.FileFunction,Paste,Bot*
G04 #@! TF.FilePolarity,Positive*
%FSLAX46Y46*%
G04 Gerber Fmt 4.6, Leading zero omitted, Abs format (unit mm)*
G04 Created by KiCad (PCBNEW 7.0.8) date 2023-12-09 01:27:44*
%MOMM*%
%LPD*%
G01*
G04 APERTURE LIST*
G04 Aperture macros list*
%AMRoundRect*
0 Rectangle with rounded corners*
0 $1 Rounding radius*
0 $2 $3 $4 $5 $6 $7 $8 $9 X,Y pos of 4 corners*
0 Add a 4 corners polygon primitive as box body*
4,1,4,$2,$3,$4,$5,$6,$7,$8,$9,$2,$3,0*
0 Add four circle primitives for the rounded corners*
1,1,$1+$1,$2,$3*
1,1,$1+$1,$4,$5*
1,1,$1+$1,$6,$7*
1,1,$1+$1,$8,$9*
0 Add four rect primitives between the rounded corners*
20,1,$1+$1,$2,$3,$4,$5,0*
20,1,$1+$1,$4,$5,$6,$7,0*
20,1,$1+$1,$6,$7,$8,$9,0*
20,1,$1+$1,$8,$9,$2,$3,0*%
G04 Aperture macros list end*
%ADD10RoundRect,0.237500X0.250000X0.237500X-0.250000X0.237500X-0.250000X-0.237500X0.250000X-0.237500X0*%
%ADD11R,0.600000X1.700000*%
%ADD12R,1.200000X1.800000*%
%ADD13R,1.550000X1.000000*%
G04 APERTURE END LIST*
D10*
X41412500Y-64600000D03*
X39587500Y-64600000D03*
X39587500Y-62600000D03*
X41412500Y-62600000D03*
D11*
X66350000Y-25386000D03*
X67350000Y-25386000D03*
X68350000Y-25385000D03*
X69350000Y-25385000D03*
X70350000Y-25385000D03*
X71350000Y-25385000D03*
X72350000Y-25385000D03*
X73350000Y-25385000D03*
X74350000Y-25385000D03*
X75350000Y-25385000D03*
D12*
X65050000Y-21510000D03*
X76650000Y-21510000D03*
D11*
X85650000Y-25386000D03*
X86650000Y-25386000D03*
X87650000Y-25385000D03*
X88650000Y-25385000D03*
X89650000Y-25385000D03*
X90650000Y-25385000D03*
X91650000Y-25385000D03*
X92650000Y-25385000D03*
X93650000Y-25385000D03*
X94650000Y-25385000D03*
D12*
X84350000Y-21510000D03*
X95950000Y-21510000D03*
D13*
X58312500Y-23899500D03*
X58312500Y-22199500D03*
X53112500Y-23899500D03*
X53112500Y-22199500D03*
D11*
X46000000Y-91114000D03*
X45000000Y-91114000D03*
X44000000Y-91115000D03*
X43000000Y-91115000D03*
X42000000Y-91115000D03*
X41000000Y-91115000D03*
X40000000Y-91115000D03*
X39000000Y-91115000D03*
X38000000Y-91115000D03*
X37000000Y-91115000D03*
D12*
X47300000Y-94990000D03*
X35700000Y-94990000D03*
D11*
X162850000Y-25386000D03*
X163850000Y-25386000D03*
X164850000Y-25385000D03*
X165850000Y-25385000D03*
X166850000Y-25385000D03*
X167850000Y-25385000D03*
X168850000Y-25385000D03*
X169850000Y-25385000D03*
X170850000Y-25385000D03*
X171850000Y-25385000D03*
D12*
X161550000Y-21510000D03*
X173150000Y-21510000D03*
D11*
X124250000Y-25386000D03*
X125250000Y-25386000D03*
X126250000Y-25385000D03*
X127250000Y-25385000D03*
X128250000Y-25385000D03*
X129250000Y-25385000D03*
X130250000Y-25385000D03*
X131250000Y-25385000D03*
X132250000Y-25385000D03*
X133250000Y-25385000D03*
D12*
X122950000Y-21510000D03*
X134550000Y-21510000D03*
D11*
X104950000Y-25386000D03*
X105950000Y-25386000D03*
X106950000Y-25385000D03*
X107950000Y-25385000D03*
X108950000Y-25385000D03*
X109950000Y-25385000D03*
X110950000Y-25385000D03*
X111950000Y-25385000D03*
X112950000Y-25385000D03*
X113950000Y-25385000D03*
D12*
X103650000Y-21510000D03*
X115250000Y-21510000D03*
D11*
X143550000Y-25386000D03*
X144550000Y-25386000D03*
X145550000Y-25385000D03*
X146550000Y-25385000D03*
X147550000Y-25385000D03*
X148550000Y-25385000D03*
X149550000Y-25385000D03*
X150550000Y-25385000D03*
X151550000Y-25385000D03*
X152550000Y-25385000D03*
D12*
X142250000Y-21510000D03*
X153850000Y-21510000D03*
M02*
