%TF.GenerationSoftware,KiCad,Pcbnew,7.0.5*%
%TF.CreationDate,2024-01-21T06:01:14-08:00*%
%TF.ProjectId,Seismos_5CoreR,53656973-6d6f-4735-9f35-436f7265522e,rev?*%
%TF.SameCoordinates,Original*%
%TF.FileFunction,Drillmap*%
%TF.FilePolarity,Positive*%
%FSLAX45Y45*%
G04 Gerber Fmt 4.5, Leading zero omitted, Abs format (unit mm)*
G04 Created by KiCad (PCBNEW 7.0.5) date 2024-01-21 06:01:14*
%MOMM*%
%LPD*%
G01*
G04 APERTURE LIST*
%ADD10C,0.100000*%
%ADD11C,0.200000*%
%ADD12C,0.030000*%
%ADD13C,0.040000*%
%ADD14C,0.090000*%
%ADD15C,0.110000*%
%ADD16C,0.150000*%
G04 APERTURE END LIST*
D10*
X5736600Y-9650000D02*
X5736600Y-4281000D01*
X5586600Y-9800000D02*
X3150000Y-9800000D01*
X3000000Y-9650000D02*
X3000000Y-2150000D01*
X3150000Y-2000000D02*
G75*
G03*
X3000000Y-2150000I0J-150000D01*
G01*
X5586600Y-9800000D02*
G75*
G03*
X5736600Y-9650000I0J150000D01*
G01*
X17550000Y-3900000D02*
X6117600Y-3900000D01*
X17550000Y-3900000D02*
G75*
G03*
X17700000Y-3750000I0J150000D01*
G01*
X17700000Y-2150000D02*
G75*
G03*
X17550000Y-2000000I-150000J0D01*
G01*
X3000000Y-9650000D02*
G75*
G03*
X3150000Y-9800000I150000J0D01*
G01*
X6117600Y-3900000D02*
G75*
G03*
X5736600Y-4281000I0J-381000D01*
G01*
X3150000Y-2000000D02*
X17550000Y-2000000D01*
X17700000Y-2150000D02*
X17700000Y-3750000D01*
D11*
D12*
X4215000Y-8205000D02*
X4245000Y-8235000D01*
X4245000Y-8205000D02*
X4215000Y-8235000D01*
X4585000Y-8785000D02*
X4615000Y-8815000D01*
X4615000Y-8785000D02*
X4585000Y-8815000D01*
X5325000Y-3172350D02*
X5355000Y-3202350D01*
X5355000Y-3172350D02*
X5325000Y-3202350D01*
X5377650Y-3225000D02*
X5407650Y-3255000D01*
X5407650Y-3225000D02*
X5377650Y-3255000D01*
X5377650Y-3351400D02*
X5407650Y-3381400D01*
X5407650Y-3351400D02*
X5377650Y-3381400D01*
X6145149Y-3029189D02*
X6175149Y-3059189D01*
X6175149Y-3029189D02*
X6145149Y-3059189D01*
X6205099Y-3029189D02*
X6235099Y-3059189D01*
X6235099Y-3029189D02*
X6205099Y-3059189D01*
X6265050Y-3029189D02*
X6295050Y-3059189D01*
X6295050Y-3029189D02*
X6265050Y-3059189D01*
X6325000Y-3029189D02*
X6355000Y-3059189D01*
X6355000Y-3029189D02*
X6325000Y-3059189D01*
X6437594Y-2978550D02*
X6467594Y-3008550D01*
X6467594Y-2978550D02*
X6437594Y-3008550D01*
X6460000Y-2715000D02*
X6490000Y-2745000D01*
X6490000Y-2715000D02*
X6460000Y-2745000D01*
X6466483Y-2926019D02*
X6496483Y-2956019D01*
X6496483Y-2926019D02*
X6466483Y-2956019D01*
X6490958Y-2767650D02*
X6520958Y-2797650D01*
X6520958Y-2767650D02*
X6490958Y-2797650D01*
X6499687Y-2876104D02*
X6529687Y-2906104D01*
X6529687Y-2876104D02*
X6499687Y-2906104D01*
X6518735Y-2573735D02*
X6548735Y-2603735D01*
X6548735Y-2573735D02*
X6518735Y-2603735D01*
X6526897Y-2820300D02*
X6556897Y-2850300D01*
X6556897Y-2820300D02*
X6526897Y-2850300D01*
X6646467Y-2381852D02*
X6676467Y-2411852D01*
X6676467Y-2381852D02*
X6646467Y-2411852D01*
X6784912Y-2380088D02*
X6814912Y-2410088D01*
X6814912Y-2380088D02*
X6784912Y-2410088D01*
X6840150Y-2349850D02*
X6870150Y-2379850D01*
X6870150Y-2349850D02*
X6840150Y-2379850D01*
X6897555Y-2324700D02*
X6927555Y-2354700D01*
X6927555Y-2324700D02*
X6897555Y-2354700D01*
X7320000Y-2710000D02*
X7350000Y-2740000D01*
X7350000Y-2710000D02*
X7320000Y-2740000D01*
X8550000Y-2334600D02*
X8580000Y-2364600D01*
X8580000Y-2334600D02*
X8550000Y-2364600D01*
X8650000Y-2281950D02*
X8680000Y-2311950D01*
X8680000Y-2281950D02*
X8650000Y-2311950D01*
X8750000Y-2229300D02*
X8780000Y-2259300D01*
X8780000Y-2229300D02*
X8750000Y-2259300D01*
X8850000Y-2176650D02*
X8880000Y-2206650D01*
X8880000Y-2176650D02*
X8850000Y-2206650D01*
X8950000Y-2124000D02*
X8980000Y-2154000D01*
X8980000Y-2124000D02*
X8950000Y-2154000D01*
X9250000Y-2645000D02*
X9280000Y-2675000D01*
X9280000Y-2645000D02*
X9250000Y-2675000D01*
X10480000Y-2334600D02*
X10510000Y-2364600D01*
X10510000Y-2334600D02*
X10480000Y-2364600D01*
X10580000Y-2281950D02*
X10610000Y-2311950D01*
X10610000Y-2281950D02*
X10580000Y-2311950D01*
X10680000Y-2229300D02*
X10710000Y-2259300D01*
X10710000Y-2229300D02*
X10680000Y-2259300D01*
X10780000Y-2176650D02*
X10810000Y-2206650D01*
X10810000Y-2176650D02*
X10780000Y-2206650D01*
X10880000Y-2124000D02*
X10910000Y-2154000D01*
X10910000Y-2124000D02*
X10880000Y-2154000D01*
X11180000Y-2645000D02*
X11210000Y-2675000D01*
X11210000Y-2645000D02*
X11180000Y-2675000D01*
X12410000Y-2334600D02*
X12440000Y-2364600D01*
X12440000Y-2334600D02*
X12410000Y-2364600D01*
X12510000Y-2281950D02*
X12540000Y-2311950D01*
X12540000Y-2281950D02*
X12510000Y-2311950D01*
X12610000Y-2229300D02*
X12640000Y-2259300D01*
X12640000Y-2229300D02*
X12610000Y-2259300D01*
X12710000Y-2176650D02*
X12740000Y-2206650D01*
X12740000Y-2176650D02*
X12710000Y-2206650D01*
X12810000Y-2124000D02*
X12840000Y-2154000D01*
X12840000Y-2124000D02*
X12810000Y-2154000D01*
X13110000Y-2650000D02*
X13140000Y-2680000D01*
X13140000Y-2650000D02*
X13110000Y-2680000D01*
X14340000Y-2334600D02*
X14370000Y-2364600D01*
X14370000Y-2334600D02*
X14340000Y-2364600D01*
X14440000Y-2281950D02*
X14470000Y-2311950D01*
X14470000Y-2281950D02*
X14440000Y-2311950D01*
X14540000Y-2229300D02*
X14570000Y-2259300D01*
X14570000Y-2229300D02*
X14540000Y-2259300D01*
X14640000Y-2176650D02*
X14670000Y-2206650D01*
X14670000Y-2176650D02*
X14640000Y-2206650D01*
X14740000Y-2124000D02*
X14770000Y-2154000D01*
X14770000Y-2124000D02*
X14740000Y-2154000D01*
X15040000Y-2655000D02*
X15070000Y-2685000D01*
X15070000Y-2655000D02*
X15040000Y-2685000D01*
X16270000Y-2334600D02*
X16300000Y-2364600D01*
X16300000Y-2334600D02*
X16270000Y-2364600D01*
X16370000Y-2281950D02*
X16400000Y-2311950D01*
X16400000Y-2281950D02*
X16370000Y-2311950D01*
X16470000Y-2229300D02*
X16500000Y-2259300D01*
X16500000Y-2229300D02*
X16470000Y-2259300D01*
X16570000Y-2176650D02*
X16600000Y-2206650D01*
X16600000Y-2176650D02*
X16570000Y-2206650D01*
X16670000Y-2124000D02*
X16700000Y-2154000D01*
X16700000Y-2124000D02*
X16670000Y-2154000D01*
X16970000Y-2665000D02*
X17000000Y-2695000D01*
X17000000Y-2665000D02*
X16970000Y-2695000D01*
D13*
X3460000Y-5940000D02*
G75*
G03*
X3460000Y-5940000I-20000J0D01*
G01*
X4020000Y-9275000D02*
G75*
G03*
X4020000Y-9275000I-20000J0D01*
G01*
X4547863Y-5592135D02*
G75*
G03*
X4547863Y-5592135I-20000J0D01*
G01*
X4620465Y-5519486D02*
G75*
G03*
X4620465Y-5519486I-20000J0D01*
G01*
X5590000Y-2997500D02*
G75*
G03*
X5590000Y-2997500I-20000J0D01*
G01*
X6225000Y-2345000D02*
G75*
G03*
X6225000Y-2345000I-20000J0D01*
G01*
X6410000Y-3330000D02*
G75*
G03*
X6410000Y-3330000I-20000J0D01*
G01*
X6610000Y-3180000D02*
G75*
G03*
X6610000Y-3180000I-20000J0D01*
G01*
X7025000Y-2250000D02*
G75*
G03*
X7025000Y-2250000I-20000J0D01*
G01*
X7250000Y-2255000D02*
G75*
G03*
X7250000Y-2255000I-20000J0D01*
G01*
X7550000Y-3320000D02*
G75*
G03*
X7550000Y-3320000I-20000J0D01*
G01*
X7680000Y-3180000D02*
G75*
G03*
X7680000Y-3180000I-20000J0D01*
G01*
X8610000Y-3320000D02*
G75*
G03*
X8610000Y-3320000I-20000J0D01*
G01*
X9480000Y-3320000D02*
G75*
G03*
X9480000Y-3320000I-20000J0D01*
G01*
X9610000Y-3180000D02*
G75*
G03*
X9610000Y-3180000I-20000J0D01*
G01*
X9750000Y-3030000D02*
G75*
G03*
X9750000Y-3030000I-20000J0D01*
G01*
X10540000Y-3320000D02*
G75*
G03*
X10540000Y-3320000I-20000J0D01*
G01*
X11410000Y-3320000D02*
G75*
G03*
X11410000Y-3320000I-20000J0D01*
G01*
X11540000Y-3180000D02*
G75*
G03*
X11540000Y-3180000I-20000J0D01*
G01*
X11680000Y-3030000D02*
G75*
G03*
X11680000Y-3030000I-20000J0D01*
G01*
X12470000Y-3320000D02*
G75*
G03*
X12470000Y-3320000I-20000J0D01*
G01*
X13340000Y-3320000D02*
G75*
G03*
X13340000Y-3320000I-20000J0D01*
G01*
X13470000Y-3180000D02*
G75*
G03*
X13470000Y-3180000I-20000J0D01*
G01*
X13610000Y-3030000D02*
G75*
G03*
X13610000Y-3030000I-20000J0D01*
G01*
X14400000Y-3320000D02*
G75*
G03*
X14400000Y-3320000I-20000J0D01*
G01*
X15270000Y-3320000D02*
G75*
G03*
X15270000Y-3320000I-20000J0D01*
G01*
X15400000Y-3180000D02*
G75*
G03*
X15400000Y-3180000I-20000J0D01*
G01*
X15540000Y-3030000D02*
G75*
G03*
X15540000Y-3030000I-20000J0D01*
G01*
X16180000Y-3330000D02*
G75*
G03*
X16180000Y-3330000I-20000J0D01*
G01*
X17200000Y-3320000D02*
G75*
G03*
X17200000Y-3320000I-20000J0D01*
G01*
X17330000Y-3180000D02*
G75*
G03*
X17330000Y-3180000I-20000J0D01*
G01*
X4058800Y-2208600D02*
X4058800Y-2248600D01*
X4038800Y-2228600D02*
X4078800Y-2228600D01*
X4058800Y-2462600D02*
X4058800Y-2502600D01*
X4038800Y-2482600D02*
X4078800Y-2482600D01*
X4058800Y-2716600D02*
X4058800Y-2756600D01*
X4038800Y-2736600D02*
X4078800Y-2736600D01*
X4058800Y-2970600D02*
X4058800Y-3010600D01*
X4038800Y-2990600D02*
X4078800Y-2990600D01*
X4058800Y-3224600D02*
X4058800Y-3264600D01*
X4038800Y-3244600D02*
X4078800Y-3244600D01*
X4058800Y-3478600D02*
X4058800Y-3518600D01*
X4038800Y-3498600D02*
X4078800Y-3498600D01*
X4058800Y-3732600D02*
X4058800Y-3772600D01*
X4038800Y-3752600D02*
X4078800Y-3752600D01*
X4058800Y-3986600D02*
X4058800Y-4026600D01*
X4038800Y-4006600D02*
X4078800Y-4006600D01*
X4058800Y-4240600D02*
X4058800Y-4280600D01*
X4038800Y-4260600D02*
X4078800Y-4260600D01*
X4058800Y-4494600D02*
X4058800Y-4534600D01*
X4038800Y-4514600D02*
X4078800Y-4514600D01*
X4058800Y-4748600D02*
X4058800Y-4788600D01*
X4038800Y-4768600D02*
X4078800Y-4768600D01*
X4058800Y-5002600D02*
X4058800Y-5042600D01*
X4038800Y-5022600D02*
X4078800Y-5022600D01*
X4211200Y-2208600D02*
X4211200Y-2248600D01*
X4191200Y-2228600D02*
X4231200Y-2228600D01*
X4211200Y-2462600D02*
X4211200Y-2502600D01*
X4191200Y-2482600D02*
X4231200Y-2482600D01*
X4211200Y-2716600D02*
X4211200Y-2756600D01*
X4191200Y-2736600D02*
X4231200Y-2736600D01*
X4211200Y-2970600D02*
X4211200Y-3010600D01*
X4191200Y-2990600D02*
X4231200Y-2990600D01*
X4211200Y-3224600D02*
X4211200Y-3264600D01*
X4191200Y-3244600D02*
X4231200Y-3244600D01*
X4211200Y-3478600D02*
X4211200Y-3518600D01*
X4191200Y-3498600D02*
X4231200Y-3498600D01*
X4211200Y-3732600D02*
X4211200Y-3772600D01*
X4191200Y-3752600D02*
X4231200Y-3752600D01*
X4211200Y-3986600D02*
X4211200Y-4026600D01*
X4191200Y-4006600D02*
X4231200Y-4006600D01*
X4211200Y-4240600D02*
X4211200Y-4280600D01*
X4191200Y-4260600D02*
X4231200Y-4260600D01*
X4211200Y-4494600D02*
X4211200Y-4534600D01*
X4191200Y-4514600D02*
X4231200Y-4514600D01*
X4211200Y-4748600D02*
X4211200Y-4788600D01*
X4191200Y-4768600D02*
X4231200Y-4768600D01*
X4211200Y-5002600D02*
X4211200Y-5042600D01*
X4191200Y-5022600D02*
X4231200Y-5022600D01*
D14*
X3926770Y-5895020D02*
X3926770Y-5831380D01*
X3863130Y-5831380D01*
X3863130Y-5895020D01*
X3926770Y-5895020D01*
X3926770Y-6095020D02*
X3926770Y-6031380D01*
X3863130Y-6031380D01*
X3863130Y-6095020D01*
X3926770Y-6095020D01*
D10*
X3361000Y-7896000D02*
X3411000Y-7846000D01*
X3361000Y-7796000D01*
X3311000Y-7846000D01*
X3361000Y-7896000D01*
X3361000Y-8146000D02*
X3411000Y-8096000D01*
X3361000Y-8046000D01*
X3311000Y-8096000D01*
X3361000Y-8146000D01*
X3361000Y-8396000D02*
X3411000Y-8346000D01*
X3361000Y-8296000D01*
X3311000Y-8346000D01*
X3361000Y-8396000D01*
X3547000Y-6742500D02*
X3597000Y-6692500D01*
X3547000Y-6642500D01*
X3497000Y-6692500D01*
X3547000Y-6742500D01*
D11*
X3522000Y-6742500D02*
X3572000Y-6742500D01*
X3572000Y-6742500D02*
G75*
G03*
X3572000Y-6642500I0J50000D01*
G01*
X3572000Y-6642500D02*
X3522000Y-6642500D01*
X3522000Y-6642500D02*
G75*
G03*
X3522000Y-6742500I0J-50000D01*
G01*
D10*
X3628400Y-5426600D02*
X3678400Y-5376600D01*
X3628400Y-5326600D01*
X3578400Y-5376600D01*
X3628400Y-5426600D01*
X3847000Y-6742500D02*
X3897000Y-6692500D01*
X3847000Y-6642500D01*
X3797000Y-6692500D01*
X3847000Y-6742500D01*
D11*
X3822000Y-6742500D02*
X3872000Y-6742500D01*
X3872000Y-6742500D02*
G75*
G03*
X3872000Y-6642500I0J50000D01*
G01*
X3872000Y-6642500D02*
X3822000Y-6642500D01*
X3822000Y-6642500D02*
G75*
G03*
X3822000Y-6742500I0J-50000D01*
G01*
D10*
X3882400Y-5426600D02*
X3932400Y-5376600D01*
X3882400Y-5326600D01*
X3832400Y-5376600D01*
X3882400Y-5426600D01*
X4136400Y-5426600D02*
X4186400Y-5376600D01*
X4136400Y-5326600D01*
X4086400Y-5376600D01*
X4136400Y-5426600D01*
X4247000Y-6742500D02*
X4297000Y-6692500D01*
X4247000Y-6642500D01*
X4197000Y-6692500D01*
X4247000Y-6742500D01*
D11*
X4222000Y-6742500D02*
X4272000Y-6742500D01*
X4272000Y-6742500D02*
G75*
G03*
X4272000Y-6642500I0J50000D01*
G01*
X4272000Y-6642500D02*
X4222000Y-6642500D01*
X4222000Y-6642500D02*
G75*
G03*
X4222000Y-6742500I0J-50000D01*
G01*
D10*
X4347000Y-7162500D02*
X4397000Y-7112500D01*
X4347000Y-7062500D01*
X4297000Y-7112500D01*
X4347000Y-7162500D01*
D11*
X4322000Y-7162500D02*
X4372000Y-7162500D01*
X4372000Y-7162500D02*
G75*
G03*
X4372000Y-7062500I0J50000D01*
G01*
X4372000Y-7062500D02*
X4322000Y-7062500D01*
X4322000Y-7062500D02*
G75*
G03*
X4322000Y-7162500I0J-50000D01*
G01*
D10*
X4390400Y-5426600D02*
X4440400Y-5376600D01*
X4390400Y-5326600D01*
X4340400Y-5376600D01*
X4390400Y-5426600D01*
X4644400Y-5426600D02*
X4694400Y-5376600D01*
X4644400Y-5326600D01*
X4594400Y-5376600D01*
X4644400Y-5426600D01*
X4811000Y-7896000D02*
X4861000Y-7846000D01*
X4811000Y-7796000D01*
X4761000Y-7846000D01*
X4811000Y-7896000D01*
X4811000Y-8396000D02*
X4861000Y-8346000D01*
X4811000Y-8296000D01*
X4761000Y-8346000D01*
X4811000Y-8396000D01*
D15*
X3318000Y-2173600D02*
X3428000Y-2283600D01*
X3428000Y-2173600D02*
X3318000Y-2283600D01*
X3428000Y-2228600D02*
G75*
G03*
X3428000Y-2228600I-55000J0D01*
G01*
X3318000Y-2173600D02*
X3428000Y-2283600D01*
X3428000Y-2173600D02*
X3318000Y-2283600D01*
X3428000Y-2228600D02*
G75*
G03*
X3428000Y-2228600I-55000J0D01*
G01*
X3318000Y-2173600D02*
X3428000Y-2283600D01*
X3428000Y-2173600D02*
X3318000Y-2283600D01*
X3428000Y-2228600D02*
G75*
G03*
X3428000Y-2228600I-55000J0D01*
G01*
X3318000Y-2427600D02*
X3428000Y-2537600D01*
X3428000Y-2427600D02*
X3318000Y-2537600D01*
X3428000Y-2482600D02*
G75*
G03*
X3428000Y-2482600I-55000J0D01*
G01*
X3318000Y-2681600D02*
X3428000Y-2791600D01*
X3428000Y-2681600D02*
X3318000Y-2791600D01*
X3428000Y-2736600D02*
G75*
G03*
X3428000Y-2736600I-55000J0D01*
G01*
X3318000Y-2935600D02*
X3428000Y-3045600D01*
X3428000Y-2935600D02*
X3318000Y-3045600D01*
X3428000Y-2990600D02*
G75*
G03*
X3428000Y-2990600I-55000J0D01*
G01*
X3318000Y-3189600D02*
X3428000Y-3299600D01*
X3428000Y-3189600D02*
X3318000Y-3299600D01*
X3428000Y-3244600D02*
G75*
G03*
X3428000Y-3244600I-55000J0D01*
G01*
X3318000Y-3443600D02*
X3428000Y-3553600D01*
X3428000Y-3443600D02*
X3318000Y-3553600D01*
X3428000Y-3498600D02*
G75*
G03*
X3428000Y-3498600I-55000J0D01*
G01*
X3318000Y-3697600D02*
X3428000Y-3807600D01*
X3428000Y-3697600D02*
X3318000Y-3807600D01*
X3428000Y-3752600D02*
G75*
G03*
X3428000Y-3752600I-55000J0D01*
G01*
X3318000Y-3951600D02*
X3428000Y-4061600D01*
X3428000Y-3951600D02*
X3318000Y-4061600D01*
X3428000Y-4006600D02*
G75*
G03*
X3428000Y-4006600I-55000J0D01*
G01*
X3318000Y-4205600D02*
X3428000Y-4315600D01*
X3428000Y-4205600D02*
X3318000Y-4315600D01*
X3428000Y-4260600D02*
G75*
G03*
X3428000Y-4260600I-55000J0D01*
G01*
X3318000Y-4459600D02*
X3428000Y-4569600D01*
X3428000Y-4459600D02*
X3318000Y-4569600D01*
X3428000Y-4514600D02*
G75*
G03*
X3428000Y-4514600I-55000J0D01*
G01*
X3318000Y-4713600D02*
X3428000Y-4823600D01*
X3428000Y-4713600D02*
X3318000Y-4823600D01*
X3428000Y-4768600D02*
G75*
G03*
X3428000Y-4768600I-55000J0D01*
G01*
X3318000Y-4967600D02*
X3428000Y-5077600D01*
X3428000Y-4967600D02*
X3318000Y-5077600D01*
X3428000Y-5022600D02*
G75*
G03*
X3428000Y-5022600I-55000J0D01*
G01*
X4842000Y-2173600D02*
X4952000Y-2283600D01*
X4952000Y-2173600D02*
X4842000Y-2283600D01*
X4952000Y-2228600D02*
G75*
G03*
X4952000Y-2228600I-55000J0D01*
G01*
X4842000Y-2427600D02*
X4952000Y-2537600D01*
X4952000Y-2427600D02*
X4842000Y-2537600D01*
X4952000Y-2482600D02*
G75*
G03*
X4952000Y-2482600I-55000J0D01*
G01*
X4842000Y-2681600D02*
X4952000Y-2791600D01*
X4952000Y-2681600D02*
X4842000Y-2791600D01*
X4952000Y-2736600D02*
G75*
G03*
X4952000Y-2736600I-55000J0D01*
G01*
X4842000Y-2935600D02*
X4952000Y-3045600D01*
X4952000Y-2935600D02*
X4842000Y-3045600D01*
X4952000Y-2990600D02*
G75*
G03*
X4952000Y-2990600I-55000J0D01*
G01*
X4842000Y-3189600D02*
X4952000Y-3299600D01*
X4952000Y-3189600D02*
X4842000Y-3299600D01*
X4952000Y-3244600D02*
G75*
G03*
X4952000Y-3244600I-55000J0D01*
G01*
X4842000Y-3443600D02*
X4952000Y-3553600D01*
X4952000Y-3443600D02*
X4842000Y-3553600D01*
X4952000Y-3498600D02*
G75*
G03*
X4952000Y-3498600I-55000J0D01*
G01*
X4842000Y-3697600D02*
X4952000Y-3807600D01*
X4952000Y-3697600D02*
X4842000Y-3807600D01*
X4952000Y-3752600D02*
G75*
G03*
X4952000Y-3752600I-55000J0D01*
G01*
X4842000Y-3951600D02*
X4952000Y-4061600D01*
X4952000Y-3951600D02*
X4842000Y-4061600D01*
X4952000Y-4006600D02*
G75*
G03*
X4952000Y-4006600I-55000J0D01*
G01*
X4842000Y-4205600D02*
X4952000Y-4315600D01*
X4952000Y-4205600D02*
X4842000Y-4315600D01*
X4952000Y-4260600D02*
G75*
G03*
X4952000Y-4260600I-55000J0D01*
G01*
X4842000Y-4459600D02*
X4952000Y-4569600D01*
X4952000Y-4459600D02*
X4842000Y-4569600D01*
X4952000Y-4514600D02*
G75*
G03*
X4952000Y-4514600I-55000J0D01*
G01*
X4842000Y-4713600D02*
X4952000Y-4823600D01*
X4952000Y-4713600D02*
X4842000Y-4823600D01*
X4952000Y-4768600D02*
G75*
G03*
X4952000Y-4768600I-55000J0D01*
G01*
X4842000Y-4967600D02*
X4952000Y-5077600D01*
X4952000Y-4967600D02*
X4842000Y-5077600D01*
X4952000Y-5022600D02*
G75*
G03*
X4952000Y-5022600I-55000J0D01*
G01*
D16*
X4036000Y-7461000D02*
X4186000Y-7611000D01*
X4186000Y-7461000D02*
X4036000Y-7611000D01*
X4111000Y-7461000D02*
X4111000Y-7611000D01*
X4036000Y-7536000D02*
X4186000Y-7536000D01*
D11*
X4046000Y-7611000D02*
X4176000Y-7611000D01*
X4176000Y-7611000D02*
G75*
G03*
X4176000Y-7461000I0J75000D01*
G01*
X4176000Y-7461000D02*
X4046000Y-7461000D01*
X4046000Y-7461000D02*
G75*
G03*
X4046000Y-7611000I0J-75000D01*
G01*
D16*
X4036000Y-8581000D02*
X4186000Y-8731000D01*
X4186000Y-8581000D02*
X4036000Y-8731000D01*
X4111000Y-8581000D02*
X4111000Y-8731000D01*
X4036000Y-8656000D02*
X4186000Y-8656000D01*
D11*
X4046000Y-8731000D02*
X4176000Y-8731000D01*
X4176000Y-8731000D02*
G75*
G03*
X4176000Y-8581000I0J75000D01*
G01*
X4176000Y-8581000D02*
X4046000Y-8581000D01*
X4046000Y-8581000D02*
G75*
G03*
X4046000Y-8731000I0J-75000D01*
G01*
X3255777Y-10116484D02*
X3255777Y-9916484D01*
X3255777Y-9916484D02*
X3303396Y-9916484D01*
X3303396Y-9916484D02*
X3331967Y-9926008D01*
X3331967Y-9926008D02*
X3351015Y-9945055D01*
X3351015Y-9945055D02*
X3360539Y-9964103D01*
X3360539Y-9964103D02*
X3370062Y-10002198D01*
X3370062Y-10002198D02*
X3370062Y-10030770D01*
X3370062Y-10030770D02*
X3360539Y-10068865D01*
X3360539Y-10068865D02*
X3351015Y-10087912D01*
X3351015Y-10087912D02*
X3331967Y-10106960D01*
X3331967Y-10106960D02*
X3303396Y-10116484D01*
X3303396Y-10116484D02*
X3255777Y-10116484D01*
X3455777Y-10116484D02*
X3455777Y-9983150D01*
X3455777Y-10021246D02*
X3465301Y-10002198D01*
X3465301Y-10002198D02*
X3474824Y-9992674D01*
X3474824Y-9992674D02*
X3493872Y-9983150D01*
X3493872Y-9983150D02*
X3512920Y-9983150D01*
X3579586Y-10116484D02*
X3579586Y-9983150D01*
X3579586Y-9916484D02*
X3570062Y-9926008D01*
X3570062Y-9926008D02*
X3579586Y-9935531D01*
X3579586Y-9935531D02*
X3589110Y-9926008D01*
X3589110Y-9926008D02*
X3579586Y-9916484D01*
X3579586Y-9916484D02*
X3579586Y-9935531D01*
X3703396Y-10116484D02*
X3684348Y-10106960D01*
X3684348Y-10106960D02*
X3674824Y-10087912D01*
X3674824Y-10087912D02*
X3674824Y-9916484D01*
X3808158Y-10116484D02*
X3789110Y-10106960D01*
X3789110Y-10106960D02*
X3779586Y-10087912D01*
X3779586Y-10087912D02*
X3779586Y-9916484D01*
X4036729Y-10116484D02*
X4036729Y-9916484D01*
X4036729Y-9916484D02*
X4103396Y-10059341D01*
X4103396Y-10059341D02*
X4170062Y-9916484D01*
X4170062Y-9916484D02*
X4170062Y-10116484D01*
X4351015Y-10116484D02*
X4351015Y-10011722D01*
X4351015Y-10011722D02*
X4341491Y-9992674D01*
X4341491Y-9992674D02*
X4322444Y-9983150D01*
X4322444Y-9983150D02*
X4284348Y-9983150D01*
X4284348Y-9983150D02*
X4265301Y-9992674D01*
X4351015Y-10106960D02*
X4331967Y-10116484D01*
X4331967Y-10116484D02*
X4284348Y-10116484D01*
X4284348Y-10116484D02*
X4265301Y-10106960D01*
X4265301Y-10106960D02*
X4255777Y-10087912D01*
X4255777Y-10087912D02*
X4255777Y-10068865D01*
X4255777Y-10068865D02*
X4265301Y-10049817D01*
X4265301Y-10049817D02*
X4284348Y-10040293D01*
X4284348Y-10040293D02*
X4331967Y-10040293D01*
X4331967Y-10040293D02*
X4351015Y-10030770D01*
X4446253Y-9983150D02*
X4446253Y-10183150D01*
X4446253Y-9992674D02*
X4465301Y-9983150D01*
X4465301Y-9983150D02*
X4503396Y-9983150D01*
X4503396Y-9983150D02*
X4522444Y-9992674D01*
X4522444Y-9992674D02*
X4531967Y-10002198D01*
X4531967Y-10002198D02*
X4541491Y-10021246D01*
X4541491Y-10021246D02*
X4541491Y-10078389D01*
X4541491Y-10078389D02*
X4531967Y-10097436D01*
X4531967Y-10097436D02*
X4522444Y-10106960D01*
X4522444Y-10106960D02*
X4503396Y-10116484D01*
X4503396Y-10116484D02*
X4465301Y-10116484D01*
X4465301Y-10116484D02*
X4446253Y-10106960D01*
X4627205Y-10097436D02*
X4636729Y-10106960D01*
X4636729Y-10106960D02*
X4627205Y-10116484D01*
X4627205Y-10116484D02*
X4617682Y-10106960D01*
X4617682Y-10106960D02*
X4627205Y-10097436D01*
X4627205Y-10097436D02*
X4627205Y-10116484D01*
X4627205Y-9992674D02*
X4636729Y-10002198D01*
X4636729Y-10002198D02*
X4627205Y-10011722D01*
X4627205Y-10011722D02*
X4617682Y-10002198D01*
X4617682Y-10002198D02*
X4627205Y-9992674D01*
X4627205Y-9992674D02*
X4627205Y-10011722D01*
D12*
X2965000Y-10430000D02*
X2995000Y-10460000D01*
X2995000Y-10430000D02*
X2965000Y-10460000D01*
D11*
X3293872Y-10336484D02*
X3312920Y-10336484D01*
X3312920Y-10336484D02*
X3331967Y-10346008D01*
X3331967Y-10346008D02*
X3341491Y-10355531D01*
X3341491Y-10355531D02*
X3351015Y-10374579D01*
X3351015Y-10374579D02*
X3360539Y-10412674D01*
X3360539Y-10412674D02*
X3360539Y-10460293D01*
X3360539Y-10460293D02*
X3351015Y-10498389D01*
X3351015Y-10498389D02*
X3341491Y-10517436D01*
X3341491Y-10517436D02*
X3331967Y-10526960D01*
X3331967Y-10526960D02*
X3312920Y-10536484D01*
X3312920Y-10536484D02*
X3293872Y-10536484D01*
X3293872Y-10536484D02*
X3274824Y-10526960D01*
X3274824Y-10526960D02*
X3265301Y-10517436D01*
X3265301Y-10517436D02*
X3255777Y-10498389D01*
X3255777Y-10498389D02*
X3246253Y-10460293D01*
X3246253Y-10460293D02*
X3246253Y-10412674D01*
X3246253Y-10412674D02*
X3255777Y-10374579D01*
X3255777Y-10374579D02*
X3265301Y-10355531D01*
X3265301Y-10355531D02*
X3274824Y-10346008D01*
X3274824Y-10346008D02*
X3293872Y-10336484D01*
X3446253Y-10517436D02*
X3455777Y-10526960D01*
X3455777Y-10526960D02*
X3446253Y-10536484D01*
X3446253Y-10536484D02*
X3436729Y-10526960D01*
X3436729Y-10526960D02*
X3446253Y-10517436D01*
X3446253Y-10517436D02*
X3446253Y-10536484D01*
X3522443Y-10336484D02*
X3646253Y-10336484D01*
X3646253Y-10336484D02*
X3579586Y-10412674D01*
X3579586Y-10412674D02*
X3608158Y-10412674D01*
X3608158Y-10412674D02*
X3627205Y-10422198D01*
X3627205Y-10422198D02*
X3636729Y-10431722D01*
X3636729Y-10431722D02*
X3646253Y-10450770D01*
X3646253Y-10450770D02*
X3646253Y-10498389D01*
X3646253Y-10498389D02*
X3636729Y-10517436D01*
X3636729Y-10517436D02*
X3627205Y-10526960D01*
X3627205Y-10526960D02*
X3608158Y-10536484D01*
X3608158Y-10536484D02*
X3551015Y-10536484D01*
X3551015Y-10536484D02*
X3531967Y-10526960D01*
X3531967Y-10526960D02*
X3522443Y-10517436D01*
X3770062Y-10336484D02*
X3789110Y-10336484D01*
X3789110Y-10336484D02*
X3808158Y-10346008D01*
X3808158Y-10346008D02*
X3817682Y-10355531D01*
X3817682Y-10355531D02*
X3827205Y-10374579D01*
X3827205Y-10374579D02*
X3836729Y-10412674D01*
X3836729Y-10412674D02*
X3836729Y-10460293D01*
X3836729Y-10460293D02*
X3827205Y-10498389D01*
X3827205Y-10498389D02*
X3817682Y-10517436D01*
X3817682Y-10517436D02*
X3808158Y-10526960D01*
X3808158Y-10526960D02*
X3789110Y-10536484D01*
X3789110Y-10536484D02*
X3770062Y-10536484D01*
X3770062Y-10536484D02*
X3751015Y-10526960D01*
X3751015Y-10526960D02*
X3741491Y-10517436D01*
X3741491Y-10517436D02*
X3731967Y-10498389D01*
X3731967Y-10498389D02*
X3722443Y-10460293D01*
X3722443Y-10460293D02*
X3722443Y-10412674D01*
X3722443Y-10412674D02*
X3731967Y-10374579D01*
X3731967Y-10374579D02*
X3741491Y-10355531D01*
X3741491Y-10355531D02*
X3751015Y-10346008D01*
X3751015Y-10346008D02*
X3770062Y-10336484D01*
X3960539Y-10336484D02*
X3979586Y-10336484D01*
X3979586Y-10336484D02*
X3998634Y-10346008D01*
X3998634Y-10346008D02*
X4008158Y-10355531D01*
X4008158Y-10355531D02*
X4017682Y-10374579D01*
X4017682Y-10374579D02*
X4027205Y-10412674D01*
X4027205Y-10412674D02*
X4027205Y-10460293D01*
X4027205Y-10460293D02*
X4017682Y-10498389D01*
X4017682Y-10498389D02*
X4008158Y-10517436D01*
X4008158Y-10517436D02*
X3998634Y-10526960D01*
X3998634Y-10526960D02*
X3979586Y-10536484D01*
X3979586Y-10536484D02*
X3960539Y-10536484D01*
X3960539Y-10536484D02*
X3941491Y-10526960D01*
X3941491Y-10526960D02*
X3931967Y-10517436D01*
X3931967Y-10517436D02*
X3922443Y-10498389D01*
X3922443Y-10498389D02*
X3912920Y-10460293D01*
X3912920Y-10460293D02*
X3912920Y-10412674D01*
X3912920Y-10412674D02*
X3922443Y-10374579D01*
X3922443Y-10374579D02*
X3931967Y-10355531D01*
X3931967Y-10355531D02*
X3941491Y-10346008D01*
X3941491Y-10346008D02*
X3960539Y-10336484D01*
X4112920Y-10536484D02*
X4112920Y-10403150D01*
X4112920Y-10422198D02*
X4122443Y-10412674D01*
X4122443Y-10412674D02*
X4141491Y-10403150D01*
X4141491Y-10403150D02*
X4170063Y-10403150D01*
X4170063Y-10403150D02*
X4189110Y-10412674D01*
X4189110Y-10412674D02*
X4198634Y-10431722D01*
X4198634Y-10431722D02*
X4198634Y-10536484D01*
X4198634Y-10431722D02*
X4208158Y-10412674D01*
X4208158Y-10412674D02*
X4227205Y-10403150D01*
X4227205Y-10403150D02*
X4255777Y-10403150D01*
X4255777Y-10403150D02*
X4274825Y-10412674D01*
X4274825Y-10412674D02*
X4284348Y-10431722D01*
X4284348Y-10431722D02*
X4284348Y-10536484D01*
X4379586Y-10536484D02*
X4379586Y-10403150D01*
X4379586Y-10422198D02*
X4389110Y-10412674D01*
X4389110Y-10412674D02*
X4408158Y-10403150D01*
X4408158Y-10403150D02*
X4436729Y-10403150D01*
X4436729Y-10403150D02*
X4455777Y-10412674D01*
X4455777Y-10412674D02*
X4465301Y-10431722D01*
X4465301Y-10431722D02*
X4465301Y-10536484D01*
X4465301Y-10431722D02*
X4474825Y-10412674D01*
X4474825Y-10412674D02*
X4493872Y-10403150D01*
X4493872Y-10403150D02*
X4522444Y-10403150D01*
X4522444Y-10403150D02*
X4541491Y-10412674D01*
X4541491Y-10412674D02*
X4551015Y-10431722D01*
X4551015Y-10431722D02*
X4551015Y-10536484D01*
X4941491Y-10326960D02*
X4770063Y-10584103D01*
X5198634Y-10336484D02*
X5217682Y-10336484D01*
X5217682Y-10336484D02*
X5236729Y-10346008D01*
X5236729Y-10346008D02*
X5246253Y-10355531D01*
X5246253Y-10355531D02*
X5255777Y-10374579D01*
X5255777Y-10374579D02*
X5265301Y-10412674D01*
X5265301Y-10412674D02*
X5265301Y-10460293D01*
X5265301Y-10460293D02*
X5255777Y-10498389D01*
X5255777Y-10498389D02*
X5246253Y-10517436D01*
X5246253Y-10517436D02*
X5236729Y-10526960D01*
X5236729Y-10526960D02*
X5217682Y-10536484D01*
X5217682Y-10536484D02*
X5198634Y-10536484D01*
X5198634Y-10536484D02*
X5179587Y-10526960D01*
X5179587Y-10526960D02*
X5170063Y-10517436D01*
X5170063Y-10517436D02*
X5160539Y-10498389D01*
X5160539Y-10498389D02*
X5151015Y-10460293D01*
X5151015Y-10460293D02*
X5151015Y-10412674D01*
X5151015Y-10412674D02*
X5160539Y-10374579D01*
X5160539Y-10374579D02*
X5170063Y-10355531D01*
X5170063Y-10355531D02*
X5179587Y-10346008D01*
X5179587Y-10346008D02*
X5198634Y-10336484D01*
X5351015Y-10517436D02*
X5360539Y-10526960D01*
X5360539Y-10526960D02*
X5351015Y-10536484D01*
X5351015Y-10536484D02*
X5341491Y-10526960D01*
X5341491Y-10526960D02*
X5351015Y-10517436D01*
X5351015Y-10517436D02*
X5351015Y-10536484D01*
X5484348Y-10336484D02*
X5503396Y-10336484D01*
X5503396Y-10336484D02*
X5522444Y-10346008D01*
X5522444Y-10346008D02*
X5531968Y-10355531D01*
X5531968Y-10355531D02*
X5541491Y-10374579D01*
X5541491Y-10374579D02*
X5551015Y-10412674D01*
X5551015Y-10412674D02*
X5551015Y-10460293D01*
X5551015Y-10460293D02*
X5541491Y-10498389D01*
X5541491Y-10498389D02*
X5531968Y-10517436D01*
X5531968Y-10517436D02*
X5522444Y-10526960D01*
X5522444Y-10526960D02*
X5503396Y-10536484D01*
X5503396Y-10536484D02*
X5484348Y-10536484D01*
X5484348Y-10536484D02*
X5465301Y-10526960D01*
X5465301Y-10526960D02*
X5455777Y-10517436D01*
X5455777Y-10517436D02*
X5446253Y-10498389D01*
X5446253Y-10498389D02*
X5436729Y-10460293D01*
X5436729Y-10460293D02*
X5436729Y-10412674D01*
X5436729Y-10412674D02*
X5446253Y-10374579D01*
X5446253Y-10374579D02*
X5455777Y-10355531D01*
X5455777Y-10355531D02*
X5465301Y-10346008D01*
X5465301Y-10346008D02*
X5484348Y-10336484D01*
X5741491Y-10536484D02*
X5627206Y-10536484D01*
X5684348Y-10536484D02*
X5684348Y-10336484D01*
X5684348Y-10336484D02*
X5665301Y-10365055D01*
X5665301Y-10365055D02*
X5646253Y-10384103D01*
X5646253Y-10384103D02*
X5627206Y-10393627D01*
X5931967Y-10536484D02*
X5817682Y-10536484D01*
X5874825Y-10536484D02*
X5874825Y-10336484D01*
X5874825Y-10336484D02*
X5855777Y-10365055D01*
X5855777Y-10365055D02*
X5836729Y-10384103D01*
X5836729Y-10384103D02*
X5817682Y-10393627D01*
X6046253Y-10422198D02*
X6027206Y-10412674D01*
X6027206Y-10412674D02*
X6017682Y-10403150D01*
X6017682Y-10403150D02*
X6008158Y-10384103D01*
X6008158Y-10384103D02*
X6008158Y-10374579D01*
X6008158Y-10374579D02*
X6017682Y-10355531D01*
X6017682Y-10355531D02*
X6027206Y-10346008D01*
X6027206Y-10346008D02*
X6046253Y-10336484D01*
X6046253Y-10336484D02*
X6084348Y-10336484D01*
X6084348Y-10336484D02*
X6103396Y-10346008D01*
X6103396Y-10346008D02*
X6112920Y-10355531D01*
X6112920Y-10355531D02*
X6122444Y-10374579D01*
X6122444Y-10374579D02*
X6122444Y-10384103D01*
X6122444Y-10384103D02*
X6112920Y-10403150D01*
X6112920Y-10403150D02*
X6103396Y-10412674D01*
X6103396Y-10412674D02*
X6084348Y-10422198D01*
X6084348Y-10422198D02*
X6046253Y-10422198D01*
X6046253Y-10422198D02*
X6027206Y-10431722D01*
X6027206Y-10431722D02*
X6017682Y-10441246D01*
X6017682Y-10441246D02*
X6008158Y-10460293D01*
X6008158Y-10460293D02*
X6008158Y-10498389D01*
X6008158Y-10498389D02*
X6017682Y-10517436D01*
X6017682Y-10517436D02*
X6027206Y-10526960D01*
X6027206Y-10526960D02*
X6046253Y-10536484D01*
X6046253Y-10536484D02*
X6084348Y-10536484D01*
X6084348Y-10536484D02*
X6103396Y-10526960D01*
X6103396Y-10526960D02*
X6112920Y-10517436D01*
X6112920Y-10517436D02*
X6122444Y-10498389D01*
X6122444Y-10498389D02*
X6122444Y-10460293D01*
X6122444Y-10460293D02*
X6112920Y-10441246D01*
X6112920Y-10441246D02*
X6103396Y-10431722D01*
X6103396Y-10431722D02*
X6084348Y-10422198D01*
X6198634Y-10336484D02*
X6198634Y-10374579D01*
X6274825Y-10336484D02*
X6274825Y-10374579D01*
X6570063Y-10612674D02*
X6560539Y-10603150D01*
X6560539Y-10603150D02*
X6541491Y-10574579D01*
X6541491Y-10574579D02*
X6531968Y-10555531D01*
X6531968Y-10555531D02*
X6522444Y-10526960D01*
X6522444Y-10526960D02*
X6512920Y-10479341D01*
X6512920Y-10479341D02*
X6512920Y-10441246D01*
X6512920Y-10441246D02*
X6522444Y-10393627D01*
X6522444Y-10393627D02*
X6531968Y-10365055D01*
X6531968Y-10365055D02*
X6541491Y-10346008D01*
X6541491Y-10346008D02*
X6560539Y-10317436D01*
X6560539Y-10317436D02*
X6570063Y-10307912D01*
X6741491Y-10336484D02*
X6646253Y-10336484D01*
X6646253Y-10336484D02*
X6636729Y-10431722D01*
X6636729Y-10431722D02*
X6646253Y-10422198D01*
X6646253Y-10422198D02*
X6665301Y-10412674D01*
X6665301Y-10412674D02*
X6712920Y-10412674D01*
X6712920Y-10412674D02*
X6731968Y-10422198D01*
X6731968Y-10422198D02*
X6741491Y-10431722D01*
X6741491Y-10431722D02*
X6751015Y-10450770D01*
X6751015Y-10450770D02*
X6751015Y-10498389D01*
X6751015Y-10498389D02*
X6741491Y-10517436D01*
X6741491Y-10517436D02*
X6731968Y-10526960D01*
X6731968Y-10526960D02*
X6712920Y-10536484D01*
X6712920Y-10536484D02*
X6665301Y-10536484D01*
X6665301Y-10536484D02*
X6646253Y-10526960D01*
X6646253Y-10526960D02*
X6636729Y-10517436D01*
X6941491Y-10536484D02*
X6827206Y-10536484D01*
X6884348Y-10536484D02*
X6884348Y-10336484D01*
X6884348Y-10336484D02*
X6865301Y-10365055D01*
X6865301Y-10365055D02*
X6846253Y-10384103D01*
X6846253Y-10384103D02*
X6827206Y-10393627D01*
X7179587Y-10536484D02*
X7179587Y-10336484D01*
X7265301Y-10536484D02*
X7265301Y-10431722D01*
X7265301Y-10431722D02*
X7255777Y-10412674D01*
X7255777Y-10412674D02*
X7236730Y-10403150D01*
X7236730Y-10403150D02*
X7208158Y-10403150D01*
X7208158Y-10403150D02*
X7189110Y-10412674D01*
X7189110Y-10412674D02*
X7179587Y-10422198D01*
X7389110Y-10536484D02*
X7370063Y-10526960D01*
X7370063Y-10526960D02*
X7360539Y-10517436D01*
X7360539Y-10517436D02*
X7351015Y-10498389D01*
X7351015Y-10498389D02*
X7351015Y-10441246D01*
X7351015Y-10441246D02*
X7360539Y-10422198D01*
X7360539Y-10422198D02*
X7370063Y-10412674D01*
X7370063Y-10412674D02*
X7389110Y-10403150D01*
X7389110Y-10403150D02*
X7417682Y-10403150D01*
X7417682Y-10403150D02*
X7436730Y-10412674D01*
X7436730Y-10412674D02*
X7446253Y-10422198D01*
X7446253Y-10422198D02*
X7455777Y-10441246D01*
X7455777Y-10441246D02*
X7455777Y-10498389D01*
X7455777Y-10498389D02*
X7446253Y-10517436D01*
X7446253Y-10517436D02*
X7436730Y-10526960D01*
X7436730Y-10526960D02*
X7417682Y-10536484D01*
X7417682Y-10536484D02*
X7389110Y-10536484D01*
X7570063Y-10536484D02*
X7551015Y-10526960D01*
X7551015Y-10526960D02*
X7541491Y-10507912D01*
X7541491Y-10507912D02*
X7541491Y-10336484D01*
X7722444Y-10526960D02*
X7703396Y-10536484D01*
X7703396Y-10536484D02*
X7665301Y-10536484D01*
X7665301Y-10536484D02*
X7646253Y-10526960D01*
X7646253Y-10526960D02*
X7636730Y-10507912D01*
X7636730Y-10507912D02*
X7636730Y-10431722D01*
X7636730Y-10431722D02*
X7646253Y-10412674D01*
X7646253Y-10412674D02*
X7665301Y-10403150D01*
X7665301Y-10403150D02*
X7703396Y-10403150D01*
X7703396Y-10403150D02*
X7722444Y-10412674D01*
X7722444Y-10412674D02*
X7731968Y-10431722D01*
X7731968Y-10431722D02*
X7731968Y-10450770D01*
X7731968Y-10450770D02*
X7636730Y-10469817D01*
X7808158Y-10526960D02*
X7827206Y-10536484D01*
X7827206Y-10536484D02*
X7865301Y-10536484D01*
X7865301Y-10536484D02*
X7884349Y-10526960D01*
X7884349Y-10526960D02*
X7893872Y-10507912D01*
X7893872Y-10507912D02*
X7893872Y-10498389D01*
X7893872Y-10498389D02*
X7884349Y-10479341D01*
X7884349Y-10479341D02*
X7865301Y-10469817D01*
X7865301Y-10469817D02*
X7836730Y-10469817D01*
X7836730Y-10469817D02*
X7817682Y-10460293D01*
X7817682Y-10460293D02*
X7808158Y-10441246D01*
X7808158Y-10441246D02*
X7808158Y-10431722D01*
X7808158Y-10431722D02*
X7817682Y-10412674D01*
X7817682Y-10412674D02*
X7836730Y-10403150D01*
X7836730Y-10403150D02*
X7865301Y-10403150D01*
X7865301Y-10403150D02*
X7884349Y-10412674D01*
X7960539Y-10612674D02*
X7970063Y-10603150D01*
X7970063Y-10603150D02*
X7989111Y-10574579D01*
X7989111Y-10574579D02*
X7998634Y-10555531D01*
X7998634Y-10555531D02*
X8008158Y-10526960D01*
X8008158Y-10526960D02*
X8017682Y-10479341D01*
X8017682Y-10479341D02*
X8017682Y-10441246D01*
X8017682Y-10441246D02*
X8008158Y-10393627D01*
X8008158Y-10393627D02*
X7998634Y-10365055D01*
X7998634Y-10365055D02*
X7989111Y-10346008D01*
X7989111Y-10346008D02*
X7970063Y-10317436D01*
X7970063Y-10317436D02*
X7960539Y-10307912D01*
D13*
X2995000Y-10709000D02*
G75*
G03*
X2995000Y-10709000I-20000J0D01*
G01*
D11*
X3293872Y-10600484D02*
X3312920Y-10600484D01*
X3312920Y-10600484D02*
X3331967Y-10610008D01*
X3331967Y-10610008D02*
X3341491Y-10619531D01*
X3341491Y-10619531D02*
X3351015Y-10638579D01*
X3351015Y-10638579D02*
X3360539Y-10676674D01*
X3360539Y-10676674D02*
X3360539Y-10724293D01*
X3360539Y-10724293D02*
X3351015Y-10762389D01*
X3351015Y-10762389D02*
X3341491Y-10781436D01*
X3341491Y-10781436D02*
X3331967Y-10790960D01*
X3331967Y-10790960D02*
X3312920Y-10800484D01*
X3312920Y-10800484D02*
X3293872Y-10800484D01*
X3293872Y-10800484D02*
X3274824Y-10790960D01*
X3274824Y-10790960D02*
X3265301Y-10781436D01*
X3265301Y-10781436D02*
X3255777Y-10762389D01*
X3255777Y-10762389D02*
X3246253Y-10724293D01*
X3246253Y-10724293D02*
X3246253Y-10676674D01*
X3246253Y-10676674D02*
X3255777Y-10638579D01*
X3255777Y-10638579D02*
X3265301Y-10619531D01*
X3265301Y-10619531D02*
X3274824Y-10610008D01*
X3274824Y-10610008D02*
X3293872Y-10600484D01*
X3446253Y-10781436D02*
X3455777Y-10790960D01*
X3455777Y-10790960D02*
X3446253Y-10800484D01*
X3446253Y-10800484D02*
X3436729Y-10790960D01*
X3436729Y-10790960D02*
X3446253Y-10781436D01*
X3446253Y-10781436D02*
X3446253Y-10800484D01*
X3627205Y-10667150D02*
X3627205Y-10800484D01*
X3579586Y-10590960D02*
X3531967Y-10733817D01*
X3531967Y-10733817D02*
X3655777Y-10733817D01*
X3770062Y-10600484D02*
X3789110Y-10600484D01*
X3789110Y-10600484D02*
X3808158Y-10610008D01*
X3808158Y-10610008D02*
X3817682Y-10619531D01*
X3817682Y-10619531D02*
X3827205Y-10638579D01*
X3827205Y-10638579D02*
X3836729Y-10676674D01*
X3836729Y-10676674D02*
X3836729Y-10724293D01*
X3836729Y-10724293D02*
X3827205Y-10762389D01*
X3827205Y-10762389D02*
X3817682Y-10781436D01*
X3817682Y-10781436D02*
X3808158Y-10790960D01*
X3808158Y-10790960D02*
X3789110Y-10800484D01*
X3789110Y-10800484D02*
X3770062Y-10800484D01*
X3770062Y-10800484D02*
X3751015Y-10790960D01*
X3751015Y-10790960D02*
X3741491Y-10781436D01*
X3741491Y-10781436D02*
X3731967Y-10762389D01*
X3731967Y-10762389D02*
X3722443Y-10724293D01*
X3722443Y-10724293D02*
X3722443Y-10676674D01*
X3722443Y-10676674D02*
X3731967Y-10638579D01*
X3731967Y-10638579D02*
X3741491Y-10619531D01*
X3741491Y-10619531D02*
X3751015Y-10610008D01*
X3751015Y-10610008D02*
X3770062Y-10600484D01*
X3960539Y-10600484D02*
X3979586Y-10600484D01*
X3979586Y-10600484D02*
X3998634Y-10610008D01*
X3998634Y-10610008D02*
X4008158Y-10619531D01*
X4008158Y-10619531D02*
X4017682Y-10638579D01*
X4017682Y-10638579D02*
X4027205Y-10676674D01*
X4027205Y-10676674D02*
X4027205Y-10724293D01*
X4027205Y-10724293D02*
X4017682Y-10762389D01*
X4017682Y-10762389D02*
X4008158Y-10781436D01*
X4008158Y-10781436D02*
X3998634Y-10790960D01*
X3998634Y-10790960D02*
X3979586Y-10800484D01*
X3979586Y-10800484D02*
X3960539Y-10800484D01*
X3960539Y-10800484D02*
X3941491Y-10790960D01*
X3941491Y-10790960D02*
X3931967Y-10781436D01*
X3931967Y-10781436D02*
X3922443Y-10762389D01*
X3922443Y-10762389D02*
X3912920Y-10724293D01*
X3912920Y-10724293D02*
X3912920Y-10676674D01*
X3912920Y-10676674D02*
X3922443Y-10638579D01*
X3922443Y-10638579D02*
X3931967Y-10619531D01*
X3931967Y-10619531D02*
X3941491Y-10610008D01*
X3941491Y-10610008D02*
X3960539Y-10600484D01*
X4112920Y-10800484D02*
X4112920Y-10667150D01*
X4112920Y-10686198D02*
X4122443Y-10676674D01*
X4122443Y-10676674D02*
X4141491Y-10667150D01*
X4141491Y-10667150D02*
X4170063Y-10667150D01*
X4170063Y-10667150D02*
X4189110Y-10676674D01*
X4189110Y-10676674D02*
X4198634Y-10695722D01*
X4198634Y-10695722D02*
X4198634Y-10800484D01*
X4198634Y-10695722D02*
X4208158Y-10676674D01*
X4208158Y-10676674D02*
X4227205Y-10667150D01*
X4227205Y-10667150D02*
X4255777Y-10667150D01*
X4255777Y-10667150D02*
X4274825Y-10676674D01*
X4274825Y-10676674D02*
X4284348Y-10695722D01*
X4284348Y-10695722D02*
X4284348Y-10800484D01*
X4379586Y-10800484D02*
X4379586Y-10667150D01*
X4379586Y-10686198D02*
X4389110Y-10676674D01*
X4389110Y-10676674D02*
X4408158Y-10667150D01*
X4408158Y-10667150D02*
X4436729Y-10667150D01*
X4436729Y-10667150D02*
X4455777Y-10676674D01*
X4455777Y-10676674D02*
X4465301Y-10695722D01*
X4465301Y-10695722D02*
X4465301Y-10800484D01*
X4465301Y-10695722D02*
X4474825Y-10676674D01*
X4474825Y-10676674D02*
X4493872Y-10667150D01*
X4493872Y-10667150D02*
X4522444Y-10667150D01*
X4522444Y-10667150D02*
X4541491Y-10676674D01*
X4541491Y-10676674D02*
X4551015Y-10695722D01*
X4551015Y-10695722D02*
X4551015Y-10800484D01*
X4941491Y-10590960D02*
X4770063Y-10848103D01*
X5198634Y-10600484D02*
X5217682Y-10600484D01*
X5217682Y-10600484D02*
X5236729Y-10610008D01*
X5236729Y-10610008D02*
X5246253Y-10619531D01*
X5246253Y-10619531D02*
X5255777Y-10638579D01*
X5255777Y-10638579D02*
X5265301Y-10676674D01*
X5265301Y-10676674D02*
X5265301Y-10724293D01*
X5265301Y-10724293D02*
X5255777Y-10762389D01*
X5255777Y-10762389D02*
X5246253Y-10781436D01*
X5246253Y-10781436D02*
X5236729Y-10790960D01*
X5236729Y-10790960D02*
X5217682Y-10800484D01*
X5217682Y-10800484D02*
X5198634Y-10800484D01*
X5198634Y-10800484D02*
X5179587Y-10790960D01*
X5179587Y-10790960D02*
X5170063Y-10781436D01*
X5170063Y-10781436D02*
X5160539Y-10762389D01*
X5160539Y-10762389D02*
X5151015Y-10724293D01*
X5151015Y-10724293D02*
X5151015Y-10676674D01*
X5151015Y-10676674D02*
X5160539Y-10638579D01*
X5160539Y-10638579D02*
X5170063Y-10619531D01*
X5170063Y-10619531D02*
X5179587Y-10610008D01*
X5179587Y-10610008D02*
X5198634Y-10600484D01*
X5351015Y-10781436D02*
X5360539Y-10790960D01*
X5360539Y-10790960D02*
X5351015Y-10800484D01*
X5351015Y-10800484D02*
X5341491Y-10790960D01*
X5341491Y-10790960D02*
X5351015Y-10781436D01*
X5351015Y-10781436D02*
X5351015Y-10800484D01*
X5484348Y-10600484D02*
X5503396Y-10600484D01*
X5503396Y-10600484D02*
X5522444Y-10610008D01*
X5522444Y-10610008D02*
X5531968Y-10619531D01*
X5531968Y-10619531D02*
X5541491Y-10638579D01*
X5541491Y-10638579D02*
X5551015Y-10676674D01*
X5551015Y-10676674D02*
X5551015Y-10724293D01*
X5551015Y-10724293D02*
X5541491Y-10762389D01*
X5541491Y-10762389D02*
X5531968Y-10781436D01*
X5531968Y-10781436D02*
X5522444Y-10790960D01*
X5522444Y-10790960D02*
X5503396Y-10800484D01*
X5503396Y-10800484D02*
X5484348Y-10800484D01*
X5484348Y-10800484D02*
X5465301Y-10790960D01*
X5465301Y-10790960D02*
X5455777Y-10781436D01*
X5455777Y-10781436D02*
X5446253Y-10762389D01*
X5446253Y-10762389D02*
X5436729Y-10724293D01*
X5436729Y-10724293D02*
X5436729Y-10676674D01*
X5436729Y-10676674D02*
X5446253Y-10638579D01*
X5446253Y-10638579D02*
X5455777Y-10619531D01*
X5455777Y-10619531D02*
X5465301Y-10610008D01*
X5465301Y-10610008D02*
X5484348Y-10600484D01*
X5741491Y-10800484D02*
X5627206Y-10800484D01*
X5684348Y-10800484D02*
X5684348Y-10600484D01*
X5684348Y-10600484D02*
X5665301Y-10629055D01*
X5665301Y-10629055D02*
X5646253Y-10648103D01*
X5646253Y-10648103D02*
X5627206Y-10657627D01*
X5922444Y-10600484D02*
X5827206Y-10600484D01*
X5827206Y-10600484D02*
X5817682Y-10695722D01*
X5817682Y-10695722D02*
X5827206Y-10686198D01*
X5827206Y-10686198D02*
X5846253Y-10676674D01*
X5846253Y-10676674D02*
X5893872Y-10676674D01*
X5893872Y-10676674D02*
X5912920Y-10686198D01*
X5912920Y-10686198D02*
X5922444Y-10695722D01*
X5922444Y-10695722D02*
X5931967Y-10714770D01*
X5931967Y-10714770D02*
X5931967Y-10762389D01*
X5931967Y-10762389D02*
X5922444Y-10781436D01*
X5922444Y-10781436D02*
X5912920Y-10790960D01*
X5912920Y-10790960D02*
X5893872Y-10800484D01*
X5893872Y-10800484D02*
X5846253Y-10800484D01*
X5846253Y-10800484D02*
X5827206Y-10790960D01*
X5827206Y-10790960D02*
X5817682Y-10781436D01*
X5998634Y-10600484D02*
X6131967Y-10600484D01*
X6131967Y-10600484D02*
X6046253Y-10800484D01*
X6198634Y-10600484D02*
X6198634Y-10638579D01*
X6274825Y-10600484D02*
X6274825Y-10638579D01*
X6570063Y-10876674D02*
X6560539Y-10867150D01*
X6560539Y-10867150D02*
X6541491Y-10838579D01*
X6541491Y-10838579D02*
X6531968Y-10819531D01*
X6531968Y-10819531D02*
X6522444Y-10790960D01*
X6522444Y-10790960D02*
X6512920Y-10743341D01*
X6512920Y-10743341D02*
X6512920Y-10705246D01*
X6512920Y-10705246D02*
X6522444Y-10657627D01*
X6522444Y-10657627D02*
X6531968Y-10629055D01*
X6531968Y-10629055D02*
X6541491Y-10610008D01*
X6541491Y-10610008D02*
X6560539Y-10581436D01*
X6560539Y-10581436D02*
X6570063Y-10571912D01*
X6627206Y-10600484D02*
X6751015Y-10600484D01*
X6751015Y-10600484D02*
X6684348Y-10676674D01*
X6684348Y-10676674D02*
X6712920Y-10676674D01*
X6712920Y-10676674D02*
X6731968Y-10686198D01*
X6731968Y-10686198D02*
X6741491Y-10695722D01*
X6741491Y-10695722D02*
X6751015Y-10714770D01*
X6751015Y-10714770D02*
X6751015Y-10762389D01*
X6751015Y-10762389D02*
X6741491Y-10781436D01*
X6741491Y-10781436D02*
X6731968Y-10790960D01*
X6731968Y-10790960D02*
X6712920Y-10800484D01*
X6712920Y-10800484D02*
X6655777Y-10800484D01*
X6655777Y-10800484D02*
X6636729Y-10790960D01*
X6636729Y-10790960D02*
X6627206Y-10781436D01*
X6941491Y-10800484D02*
X6827206Y-10800484D01*
X6884348Y-10800484D02*
X6884348Y-10600484D01*
X6884348Y-10600484D02*
X6865301Y-10629055D01*
X6865301Y-10629055D02*
X6846253Y-10648103D01*
X6846253Y-10648103D02*
X6827206Y-10657627D01*
X7179587Y-10800484D02*
X7179587Y-10600484D01*
X7265301Y-10800484D02*
X7265301Y-10695722D01*
X7265301Y-10695722D02*
X7255777Y-10676674D01*
X7255777Y-10676674D02*
X7236730Y-10667150D01*
X7236730Y-10667150D02*
X7208158Y-10667150D01*
X7208158Y-10667150D02*
X7189110Y-10676674D01*
X7189110Y-10676674D02*
X7179587Y-10686198D01*
X7389110Y-10800484D02*
X7370063Y-10790960D01*
X7370063Y-10790960D02*
X7360539Y-10781436D01*
X7360539Y-10781436D02*
X7351015Y-10762389D01*
X7351015Y-10762389D02*
X7351015Y-10705246D01*
X7351015Y-10705246D02*
X7360539Y-10686198D01*
X7360539Y-10686198D02*
X7370063Y-10676674D01*
X7370063Y-10676674D02*
X7389110Y-10667150D01*
X7389110Y-10667150D02*
X7417682Y-10667150D01*
X7417682Y-10667150D02*
X7436730Y-10676674D01*
X7436730Y-10676674D02*
X7446253Y-10686198D01*
X7446253Y-10686198D02*
X7455777Y-10705246D01*
X7455777Y-10705246D02*
X7455777Y-10762389D01*
X7455777Y-10762389D02*
X7446253Y-10781436D01*
X7446253Y-10781436D02*
X7436730Y-10790960D01*
X7436730Y-10790960D02*
X7417682Y-10800484D01*
X7417682Y-10800484D02*
X7389110Y-10800484D01*
X7570063Y-10800484D02*
X7551015Y-10790960D01*
X7551015Y-10790960D02*
X7541491Y-10771912D01*
X7541491Y-10771912D02*
X7541491Y-10600484D01*
X7722444Y-10790960D02*
X7703396Y-10800484D01*
X7703396Y-10800484D02*
X7665301Y-10800484D01*
X7665301Y-10800484D02*
X7646253Y-10790960D01*
X7646253Y-10790960D02*
X7636730Y-10771912D01*
X7636730Y-10771912D02*
X7636730Y-10695722D01*
X7636730Y-10695722D02*
X7646253Y-10676674D01*
X7646253Y-10676674D02*
X7665301Y-10667150D01*
X7665301Y-10667150D02*
X7703396Y-10667150D01*
X7703396Y-10667150D02*
X7722444Y-10676674D01*
X7722444Y-10676674D02*
X7731968Y-10695722D01*
X7731968Y-10695722D02*
X7731968Y-10714770D01*
X7731968Y-10714770D02*
X7636730Y-10733817D01*
X7808158Y-10790960D02*
X7827206Y-10800484D01*
X7827206Y-10800484D02*
X7865301Y-10800484D01*
X7865301Y-10800484D02*
X7884349Y-10790960D01*
X7884349Y-10790960D02*
X7893872Y-10771912D01*
X7893872Y-10771912D02*
X7893872Y-10762389D01*
X7893872Y-10762389D02*
X7884349Y-10743341D01*
X7884349Y-10743341D02*
X7865301Y-10733817D01*
X7865301Y-10733817D02*
X7836730Y-10733817D01*
X7836730Y-10733817D02*
X7817682Y-10724293D01*
X7817682Y-10724293D02*
X7808158Y-10705246D01*
X7808158Y-10705246D02*
X7808158Y-10695722D01*
X7808158Y-10695722D02*
X7817682Y-10676674D01*
X7817682Y-10676674D02*
X7836730Y-10667150D01*
X7836730Y-10667150D02*
X7865301Y-10667150D01*
X7865301Y-10667150D02*
X7884349Y-10676674D01*
X7960539Y-10876674D02*
X7970063Y-10867150D01*
X7970063Y-10867150D02*
X7989111Y-10838579D01*
X7989111Y-10838579D02*
X7998634Y-10819531D01*
X7998634Y-10819531D02*
X8008158Y-10790960D01*
X8008158Y-10790960D02*
X8017682Y-10743341D01*
X8017682Y-10743341D02*
X8017682Y-10705246D01*
X8017682Y-10705246D02*
X8008158Y-10657627D01*
X8008158Y-10657627D02*
X7998634Y-10629055D01*
X7998634Y-10629055D02*
X7989111Y-10610008D01*
X7989111Y-10610008D02*
X7970063Y-10581436D01*
X7970063Y-10581436D02*
X7960539Y-10571912D01*
D13*
X2975000Y-10953000D02*
X2975000Y-10993000D01*
X2955000Y-10973000D02*
X2995000Y-10973000D01*
D11*
X3293872Y-10864484D02*
X3312920Y-10864484D01*
X3312920Y-10864484D02*
X3331967Y-10874008D01*
X3331967Y-10874008D02*
X3341491Y-10883531D01*
X3341491Y-10883531D02*
X3351015Y-10902579D01*
X3351015Y-10902579D02*
X3360539Y-10940674D01*
X3360539Y-10940674D02*
X3360539Y-10988293D01*
X3360539Y-10988293D02*
X3351015Y-11026389D01*
X3351015Y-11026389D02*
X3341491Y-11045436D01*
X3341491Y-11045436D02*
X3331967Y-11054960D01*
X3331967Y-11054960D02*
X3312920Y-11064484D01*
X3312920Y-11064484D02*
X3293872Y-11064484D01*
X3293872Y-11064484D02*
X3274824Y-11054960D01*
X3274824Y-11054960D02*
X3265301Y-11045436D01*
X3265301Y-11045436D02*
X3255777Y-11026389D01*
X3255777Y-11026389D02*
X3246253Y-10988293D01*
X3246253Y-10988293D02*
X3246253Y-10940674D01*
X3246253Y-10940674D02*
X3255777Y-10902579D01*
X3255777Y-10902579D02*
X3265301Y-10883531D01*
X3265301Y-10883531D02*
X3274824Y-10874008D01*
X3274824Y-10874008D02*
X3293872Y-10864484D01*
X3446253Y-11045436D02*
X3455777Y-11054960D01*
X3455777Y-11054960D02*
X3446253Y-11064484D01*
X3446253Y-11064484D02*
X3436729Y-11054960D01*
X3436729Y-11054960D02*
X3446253Y-11045436D01*
X3446253Y-11045436D02*
X3446253Y-11064484D01*
X3627205Y-10931150D02*
X3627205Y-11064484D01*
X3579586Y-10854960D02*
X3531967Y-10997817D01*
X3531967Y-10997817D02*
X3655777Y-10997817D01*
X3770062Y-10864484D02*
X3789110Y-10864484D01*
X3789110Y-10864484D02*
X3808158Y-10874008D01*
X3808158Y-10874008D02*
X3817682Y-10883531D01*
X3817682Y-10883531D02*
X3827205Y-10902579D01*
X3827205Y-10902579D02*
X3836729Y-10940674D01*
X3836729Y-10940674D02*
X3836729Y-10988293D01*
X3836729Y-10988293D02*
X3827205Y-11026389D01*
X3827205Y-11026389D02*
X3817682Y-11045436D01*
X3817682Y-11045436D02*
X3808158Y-11054960D01*
X3808158Y-11054960D02*
X3789110Y-11064484D01*
X3789110Y-11064484D02*
X3770062Y-11064484D01*
X3770062Y-11064484D02*
X3751015Y-11054960D01*
X3751015Y-11054960D02*
X3741491Y-11045436D01*
X3741491Y-11045436D02*
X3731967Y-11026389D01*
X3731967Y-11026389D02*
X3722443Y-10988293D01*
X3722443Y-10988293D02*
X3722443Y-10940674D01*
X3722443Y-10940674D02*
X3731967Y-10902579D01*
X3731967Y-10902579D02*
X3741491Y-10883531D01*
X3741491Y-10883531D02*
X3751015Y-10874008D01*
X3751015Y-10874008D02*
X3770062Y-10864484D01*
X3960539Y-10864484D02*
X3979586Y-10864484D01*
X3979586Y-10864484D02*
X3998634Y-10874008D01*
X3998634Y-10874008D02*
X4008158Y-10883531D01*
X4008158Y-10883531D02*
X4017682Y-10902579D01*
X4017682Y-10902579D02*
X4027205Y-10940674D01*
X4027205Y-10940674D02*
X4027205Y-10988293D01*
X4027205Y-10988293D02*
X4017682Y-11026389D01*
X4017682Y-11026389D02*
X4008158Y-11045436D01*
X4008158Y-11045436D02*
X3998634Y-11054960D01*
X3998634Y-11054960D02*
X3979586Y-11064484D01*
X3979586Y-11064484D02*
X3960539Y-11064484D01*
X3960539Y-11064484D02*
X3941491Y-11054960D01*
X3941491Y-11054960D02*
X3931967Y-11045436D01*
X3931967Y-11045436D02*
X3922443Y-11026389D01*
X3922443Y-11026389D02*
X3912920Y-10988293D01*
X3912920Y-10988293D02*
X3912920Y-10940674D01*
X3912920Y-10940674D02*
X3922443Y-10902579D01*
X3922443Y-10902579D02*
X3931967Y-10883531D01*
X3931967Y-10883531D02*
X3941491Y-10874008D01*
X3941491Y-10874008D02*
X3960539Y-10864484D01*
X4112920Y-11064484D02*
X4112920Y-10931150D01*
X4112920Y-10950198D02*
X4122443Y-10940674D01*
X4122443Y-10940674D02*
X4141491Y-10931150D01*
X4141491Y-10931150D02*
X4170063Y-10931150D01*
X4170063Y-10931150D02*
X4189110Y-10940674D01*
X4189110Y-10940674D02*
X4198634Y-10959722D01*
X4198634Y-10959722D02*
X4198634Y-11064484D01*
X4198634Y-10959722D02*
X4208158Y-10940674D01*
X4208158Y-10940674D02*
X4227205Y-10931150D01*
X4227205Y-10931150D02*
X4255777Y-10931150D01*
X4255777Y-10931150D02*
X4274825Y-10940674D01*
X4274825Y-10940674D02*
X4284348Y-10959722D01*
X4284348Y-10959722D02*
X4284348Y-11064484D01*
X4379586Y-11064484D02*
X4379586Y-10931150D01*
X4379586Y-10950198D02*
X4389110Y-10940674D01*
X4389110Y-10940674D02*
X4408158Y-10931150D01*
X4408158Y-10931150D02*
X4436729Y-10931150D01*
X4436729Y-10931150D02*
X4455777Y-10940674D01*
X4455777Y-10940674D02*
X4465301Y-10959722D01*
X4465301Y-10959722D02*
X4465301Y-11064484D01*
X4465301Y-10959722D02*
X4474825Y-10940674D01*
X4474825Y-10940674D02*
X4493872Y-10931150D01*
X4493872Y-10931150D02*
X4522444Y-10931150D01*
X4522444Y-10931150D02*
X4541491Y-10940674D01*
X4541491Y-10940674D02*
X4551015Y-10959722D01*
X4551015Y-10959722D02*
X4551015Y-11064484D01*
X4941491Y-10854960D02*
X4770063Y-11112103D01*
X5198634Y-10864484D02*
X5217682Y-10864484D01*
X5217682Y-10864484D02*
X5236729Y-10874008D01*
X5236729Y-10874008D02*
X5246253Y-10883531D01*
X5246253Y-10883531D02*
X5255777Y-10902579D01*
X5255777Y-10902579D02*
X5265301Y-10940674D01*
X5265301Y-10940674D02*
X5265301Y-10988293D01*
X5265301Y-10988293D02*
X5255777Y-11026389D01*
X5255777Y-11026389D02*
X5246253Y-11045436D01*
X5246253Y-11045436D02*
X5236729Y-11054960D01*
X5236729Y-11054960D02*
X5217682Y-11064484D01*
X5217682Y-11064484D02*
X5198634Y-11064484D01*
X5198634Y-11064484D02*
X5179587Y-11054960D01*
X5179587Y-11054960D02*
X5170063Y-11045436D01*
X5170063Y-11045436D02*
X5160539Y-11026389D01*
X5160539Y-11026389D02*
X5151015Y-10988293D01*
X5151015Y-10988293D02*
X5151015Y-10940674D01*
X5151015Y-10940674D02*
X5160539Y-10902579D01*
X5160539Y-10902579D02*
X5170063Y-10883531D01*
X5170063Y-10883531D02*
X5179587Y-10874008D01*
X5179587Y-10874008D02*
X5198634Y-10864484D01*
X5351015Y-11045436D02*
X5360539Y-11054960D01*
X5360539Y-11054960D02*
X5351015Y-11064484D01*
X5351015Y-11064484D02*
X5341491Y-11054960D01*
X5341491Y-11054960D02*
X5351015Y-11045436D01*
X5351015Y-11045436D02*
X5351015Y-11064484D01*
X5484348Y-10864484D02*
X5503396Y-10864484D01*
X5503396Y-10864484D02*
X5522444Y-10874008D01*
X5522444Y-10874008D02*
X5531968Y-10883531D01*
X5531968Y-10883531D02*
X5541491Y-10902579D01*
X5541491Y-10902579D02*
X5551015Y-10940674D01*
X5551015Y-10940674D02*
X5551015Y-10988293D01*
X5551015Y-10988293D02*
X5541491Y-11026389D01*
X5541491Y-11026389D02*
X5531968Y-11045436D01*
X5531968Y-11045436D02*
X5522444Y-11054960D01*
X5522444Y-11054960D02*
X5503396Y-11064484D01*
X5503396Y-11064484D02*
X5484348Y-11064484D01*
X5484348Y-11064484D02*
X5465301Y-11054960D01*
X5465301Y-11054960D02*
X5455777Y-11045436D01*
X5455777Y-11045436D02*
X5446253Y-11026389D01*
X5446253Y-11026389D02*
X5436729Y-10988293D01*
X5436729Y-10988293D02*
X5436729Y-10940674D01*
X5436729Y-10940674D02*
X5446253Y-10902579D01*
X5446253Y-10902579D02*
X5455777Y-10883531D01*
X5455777Y-10883531D02*
X5465301Y-10874008D01*
X5465301Y-10874008D02*
X5484348Y-10864484D01*
X5741491Y-11064484D02*
X5627206Y-11064484D01*
X5684348Y-11064484D02*
X5684348Y-10864484D01*
X5684348Y-10864484D02*
X5665301Y-10893055D01*
X5665301Y-10893055D02*
X5646253Y-10912103D01*
X5646253Y-10912103D02*
X5627206Y-10921627D01*
X5922444Y-10864484D02*
X5827206Y-10864484D01*
X5827206Y-10864484D02*
X5817682Y-10959722D01*
X5817682Y-10959722D02*
X5827206Y-10950198D01*
X5827206Y-10950198D02*
X5846253Y-10940674D01*
X5846253Y-10940674D02*
X5893872Y-10940674D01*
X5893872Y-10940674D02*
X5912920Y-10950198D01*
X5912920Y-10950198D02*
X5922444Y-10959722D01*
X5922444Y-10959722D02*
X5931967Y-10978770D01*
X5931967Y-10978770D02*
X5931967Y-11026389D01*
X5931967Y-11026389D02*
X5922444Y-11045436D01*
X5922444Y-11045436D02*
X5912920Y-11054960D01*
X5912920Y-11054960D02*
X5893872Y-11064484D01*
X5893872Y-11064484D02*
X5846253Y-11064484D01*
X5846253Y-11064484D02*
X5827206Y-11054960D01*
X5827206Y-11054960D02*
X5817682Y-11045436D01*
X5998634Y-10864484D02*
X6131967Y-10864484D01*
X6131967Y-10864484D02*
X6046253Y-11064484D01*
X6198634Y-10864484D02*
X6198634Y-10902579D01*
X6274825Y-10864484D02*
X6274825Y-10902579D01*
X6570063Y-11140674D02*
X6560539Y-11131150D01*
X6560539Y-11131150D02*
X6541491Y-11102579D01*
X6541491Y-11102579D02*
X6531968Y-11083531D01*
X6531968Y-11083531D02*
X6522444Y-11054960D01*
X6522444Y-11054960D02*
X6512920Y-11007341D01*
X6512920Y-11007341D02*
X6512920Y-10969246D01*
X6512920Y-10969246D02*
X6522444Y-10921627D01*
X6522444Y-10921627D02*
X6531968Y-10893055D01*
X6531968Y-10893055D02*
X6541491Y-10874008D01*
X6541491Y-10874008D02*
X6560539Y-10845436D01*
X6560539Y-10845436D02*
X6570063Y-10835912D01*
X6636729Y-10883531D02*
X6646253Y-10874008D01*
X6646253Y-10874008D02*
X6665301Y-10864484D01*
X6665301Y-10864484D02*
X6712920Y-10864484D01*
X6712920Y-10864484D02*
X6731968Y-10874008D01*
X6731968Y-10874008D02*
X6741491Y-10883531D01*
X6741491Y-10883531D02*
X6751015Y-10902579D01*
X6751015Y-10902579D02*
X6751015Y-10921627D01*
X6751015Y-10921627D02*
X6741491Y-10950198D01*
X6741491Y-10950198D02*
X6627206Y-11064484D01*
X6627206Y-11064484D02*
X6751015Y-11064484D01*
X6922444Y-10931150D02*
X6922444Y-11064484D01*
X6874825Y-10854960D02*
X6827206Y-10997817D01*
X6827206Y-10997817D02*
X6951015Y-10997817D01*
X7179587Y-11064484D02*
X7179587Y-10864484D01*
X7265301Y-11064484D02*
X7265301Y-10959722D01*
X7265301Y-10959722D02*
X7255777Y-10940674D01*
X7255777Y-10940674D02*
X7236730Y-10931150D01*
X7236730Y-10931150D02*
X7208158Y-10931150D01*
X7208158Y-10931150D02*
X7189110Y-10940674D01*
X7189110Y-10940674D02*
X7179587Y-10950198D01*
X7389110Y-11064484D02*
X7370063Y-11054960D01*
X7370063Y-11054960D02*
X7360539Y-11045436D01*
X7360539Y-11045436D02*
X7351015Y-11026389D01*
X7351015Y-11026389D02*
X7351015Y-10969246D01*
X7351015Y-10969246D02*
X7360539Y-10950198D01*
X7360539Y-10950198D02*
X7370063Y-10940674D01*
X7370063Y-10940674D02*
X7389110Y-10931150D01*
X7389110Y-10931150D02*
X7417682Y-10931150D01*
X7417682Y-10931150D02*
X7436730Y-10940674D01*
X7436730Y-10940674D02*
X7446253Y-10950198D01*
X7446253Y-10950198D02*
X7455777Y-10969246D01*
X7455777Y-10969246D02*
X7455777Y-11026389D01*
X7455777Y-11026389D02*
X7446253Y-11045436D01*
X7446253Y-11045436D02*
X7436730Y-11054960D01*
X7436730Y-11054960D02*
X7417682Y-11064484D01*
X7417682Y-11064484D02*
X7389110Y-11064484D01*
X7570063Y-11064484D02*
X7551015Y-11054960D01*
X7551015Y-11054960D02*
X7541491Y-11035912D01*
X7541491Y-11035912D02*
X7541491Y-10864484D01*
X7722444Y-11054960D02*
X7703396Y-11064484D01*
X7703396Y-11064484D02*
X7665301Y-11064484D01*
X7665301Y-11064484D02*
X7646253Y-11054960D01*
X7646253Y-11054960D02*
X7636730Y-11035912D01*
X7636730Y-11035912D02*
X7636730Y-10959722D01*
X7636730Y-10959722D02*
X7646253Y-10940674D01*
X7646253Y-10940674D02*
X7665301Y-10931150D01*
X7665301Y-10931150D02*
X7703396Y-10931150D01*
X7703396Y-10931150D02*
X7722444Y-10940674D01*
X7722444Y-10940674D02*
X7731968Y-10959722D01*
X7731968Y-10959722D02*
X7731968Y-10978770D01*
X7731968Y-10978770D02*
X7636730Y-10997817D01*
X7808158Y-11054960D02*
X7827206Y-11064484D01*
X7827206Y-11064484D02*
X7865301Y-11064484D01*
X7865301Y-11064484D02*
X7884349Y-11054960D01*
X7884349Y-11054960D02*
X7893872Y-11035912D01*
X7893872Y-11035912D02*
X7893872Y-11026389D01*
X7893872Y-11026389D02*
X7884349Y-11007341D01*
X7884349Y-11007341D02*
X7865301Y-10997817D01*
X7865301Y-10997817D02*
X7836730Y-10997817D01*
X7836730Y-10997817D02*
X7817682Y-10988293D01*
X7817682Y-10988293D02*
X7808158Y-10969246D01*
X7808158Y-10969246D02*
X7808158Y-10959722D01*
X7808158Y-10959722D02*
X7817682Y-10940674D01*
X7817682Y-10940674D02*
X7836730Y-10931150D01*
X7836730Y-10931150D02*
X7865301Y-10931150D01*
X7865301Y-10931150D02*
X7884349Y-10940674D01*
X7960539Y-11140674D02*
X7970063Y-11131150D01*
X7970063Y-11131150D02*
X7989111Y-11102579D01*
X7989111Y-11102579D02*
X7998634Y-11083531D01*
X7998634Y-11083531D02*
X8008158Y-11054960D01*
X8008158Y-11054960D02*
X8017682Y-11007341D01*
X8017682Y-11007341D02*
X8017682Y-10969246D01*
X8017682Y-10969246D02*
X8008158Y-10921627D01*
X8008158Y-10921627D02*
X7998634Y-10893055D01*
X7998634Y-10893055D02*
X7989111Y-10874008D01*
X7989111Y-10874008D02*
X7970063Y-10845436D01*
X7970063Y-10845436D02*
X7960539Y-10835912D01*
D14*
X2981820Y-11268820D02*
X2981820Y-11205180D01*
X2918180Y-11205180D01*
X2918180Y-11268820D01*
X2981820Y-11268820D01*
D11*
X3293872Y-11128484D02*
X3312920Y-11128484D01*
X3312920Y-11128484D02*
X3331967Y-11138008D01*
X3331967Y-11138008D02*
X3341491Y-11147531D01*
X3341491Y-11147531D02*
X3351015Y-11166579D01*
X3351015Y-11166579D02*
X3360539Y-11204674D01*
X3360539Y-11204674D02*
X3360539Y-11252293D01*
X3360539Y-11252293D02*
X3351015Y-11290388D01*
X3351015Y-11290388D02*
X3341491Y-11309436D01*
X3341491Y-11309436D02*
X3331967Y-11318960D01*
X3331967Y-11318960D02*
X3312920Y-11328484D01*
X3312920Y-11328484D02*
X3293872Y-11328484D01*
X3293872Y-11328484D02*
X3274824Y-11318960D01*
X3274824Y-11318960D02*
X3265301Y-11309436D01*
X3265301Y-11309436D02*
X3255777Y-11290388D01*
X3255777Y-11290388D02*
X3246253Y-11252293D01*
X3246253Y-11252293D02*
X3246253Y-11204674D01*
X3246253Y-11204674D02*
X3255777Y-11166579D01*
X3255777Y-11166579D02*
X3265301Y-11147531D01*
X3265301Y-11147531D02*
X3274824Y-11138008D01*
X3274824Y-11138008D02*
X3293872Y-11128484D01*
X3446253Y-11309436D02*
X3455777Y-11318960D01*
X3455777Y-11318960D02*
X3446253Y-11328484D01*
X3446253Y-11328484D02*
X3436729Y-11318960D01*
X3436729Y-11318960D02*
X3446253Y-11309436D01*
X3446253Y-11309436D02*
X3446253Y-11328484D01*
X3551015Y-11328484D02*
X3589110Y-11328484D01*
X3589110Y-11328484D02*
X3608158Y-11318960D01*
X3608158Y-11318960D02*
X3617682Y-11309436D01*
X3617682Y-11309436D02*
X3636729Y-11280865D01*
X3636729Y-11280865D02*
X3646253Y-11242769D01*
X3646253Y-11242769D02*
X3646253Y-11166579D01*
X3646253Y-11166579D02*
X3636729Y-11147531D01*
X3636729Y-11147531D02*
X3627205Y-11138008D01*
X3627205Y-11138008D02*
X3608158Y-11128484D01*
X3608158Y-11128484D02*
X3570062Y-11128484D01*
X3570062Y-11128484D02*
X3551015Y-11138008D01*
X3551015Y-11138008D02*
X3541491Y-11147531D01*
X3541491Y-11147531D02*
X3531967Y-11166579D01*
X3531967Y-11166579D02*
X3531967Y-11214198D01*
X3531967Y-11214198D02*
X3541491Y-11233246D01*
X3541491Y-11233246D02*
X3551015Y-11242769D01*
X3551015Y-11242769D02*
X3570062Y-11252293D01*
X3570062Y-11252293D02*
X3608158Y-11252293D01*
X3608158Y-11252293D02*
X3627205Y-11242769D01*
X3627205Y-11242769D02*
X3636729Y-11233246D01*
X3636729Y-11233246D02*
X3646253Y-11214198D01*
X3770062Y-11128484D02*
X3789110Y-11128484D01*
X3789110Y-11128484D02*
X3808158Y-11138008D01*
X3808158Y-11138008D02*
X3817682Y-11147531D01*
X3817682Y-11147531D02*
X3827205Y-11166579D01*
X3827205Y-11166579D02*
X3836729Y-11204674D01*
X3836729Y-11204674D02*
X3836729Y-11252293D01*
X3836729Y-11252293D02*
X3827205Y-11290388D01*
X3827205Y-11290388D02*
X3817682Y-11309436D01*
X3817682Y-11309436D02*
X3808158Y-11318960D01*
X3808158Y-11318960D02*
X3789110Y-11328484D01*
X3789110Y-11328484D02*
X3770062Y-11328484D01*
X3770062Y-11328484D02*
X3751015Y-11318960D01*
X3751015Y-11318960D02*
X3741491Y-11309436D01*
X3741491Y-11309436D02*
X3731967Y-11290388D01*
X3731967Y-11290388D02*
X3722443Y-11252293D01*
X3722443Y-11252293D02*
X3722443Y-11204674D01*
X3722443Y-11204674D02*
X3731967Y-11166579D01*
X3731967Y-11166579D02*
X3741491Y-11147531D01*
X3741491Y-11147531D02*
X3751015Y-11138008D01*
X3751015Y-11138008D02*
X3770062Y-11128484D01*
X3960539Y-11128484D02*
X3979586Y-11128484D01*
X3979586Y-11128484D02*
X3998634Y-11138008D01*
X3998634Y-11138008D02*
X4008158Y-11147531D01*
X4008158Y-11147531D02*
X4017682Y-11166579D01*
X4017682Y-11166579D02*
X4027205Y-11204674D01*
X4027205Y-11204674D02*
X4027205Y-11252293D01*
X4027205Y-11252293D02*
X4017682Y-11290388D01*
X4017682Y-11290388D02*
X4008158Y-11309436D01*
X4008158Y-11309436D02*
X3998634Y-11318960D01*
X3998634Y-11318960D02*
X3979586Y-11328484D01*
X3979586Y-11328484D02*
X3960539Y-11328484D01*
X3960539Y-11328484D02*
X3941491Y-11318960D01*
X3941491Y-11318960D02*
X3931967Y-11309436D01*
X3931967Y-11309436D02*
X3922443Y-11290388D01*
X3922443Y-11290388D02*
X3912920Y-11252293D01*
X3912920Y-11252293D02*
X3912920Y-11204674D01*
X3912920Y-11204674D02*
X3922443Y-11166579D01*
X3922443Y-11166579D02*
X3931967Y-11147531D01*
X3931967Y-11147531D02*
X3941491Y-11138008D01*
X3941491Y-11138008D02*
X3960539Y-11128484D01*
X4112920Y-11328484D02*
X4112920Y-11195150D01*
X4112920Y-11214198D02*
X4122443Y-11204674D01*
X4122443Y-11204674D02*
X4141491Y-11195150D01*
X4141491Y-11195150D02*
X4170063Y-11195150D01*
X4170063Y-11195150D02*
X4189110Y-11204674D01*
X4189110Y-11204674D02*
X4198634Y-11223722D01*
X4198634Y-11223722D02*
X4198634Y-11328484D01*
X4198634Y-11223722D02*
X4208158Y-11204674D01*
X4208158Y-11204674D02*
X4227205Y-11195150D01*
X4227205Y-11195150D02*
X4255777Y-11195150D01*
X4255777Y-11195150D02*
X4274825Y-11204674D01*
X4274825Y-11204674D02*
X4284348Y-11223722D01*
X4284348Y-11223722D02*
X4284348Y-11328484D01*
X4379586Y-11328484D02*
X4379586Y-11195150D01*
X4379586Y-11214198D02*
X4389110Y-11204674D01*
X4389110Y-11204674D02*
X4408158Y-11195150D01*
X4408158Y-11195150D02*
X4436729Y-11195150D01*
X4436729Y-11195150D02*
X4455777Y-11204674D01*
X4455777Y-11204674D02*
X4465301Y-11223722D01*
X4465301Y-11223722D02*
X4465301Y-11328484D01*
X4465301Y-11223722D02*
X4474825Y-11204674D01*
X4474825Y-11204674D02*
X4493872Y-11195150D01*
X4493872Y-11195150D02*
X4522444Y-11195150D01*
X4522444Y-11195150D02*
X4541491Y-11204674D01*
X4541491Y-11204674D02*
X4551015Y-11223722D01*
X4551015Y-11223722D02*
X4551015Y-11328484D01*
X4941491Y-11118960D02*
X4770063Y-11376103D01*
X5198634Y-11128484D02*
X5217682Y-11128484D01*
X5217682Y-11128484D02*
X5236729Y-11138008D01*
X5236729Y-11138008D02*
X5246253Y-11147531D01*
X5246253Y-11147531D02*
X5255777Y-11166579D01*
X5255777Y-11166579D02*
X5265301Y-11204674D01*
X5265301Y-11204674D02*
X5265301Y-11252293D01*
X5265301Y-11252293D02*
X5255777Y-11290388D01*
X5255777Y-11290388D02*
X5246253Y-11309436D01*
X5246253Y-11309436D02*
X5236729Y-11318960D01*
X5236729Y-11318960D02*
X5217682Y-11328484D01*
X5217682Y-11328484D02*
X5198634Y-11328484D01*
X5198634Y-11328484D02*
X5179587Y-11318960D01*
X5179587Y-11318960D02*
X5170063Y-11309436D01*
X5170063Y-11309436D02*
X5160539Y-11290388D01*
X5160539Y-11290388D02*
X5151015Y-11252293D01*
X5151015Y-11252293D02*
X5151015Y-11204674D01*
X5151015Y-11204674D02*
X5160539Y-11166579D01*
X5160539Y-11166579D02*
X5170063Y-11147531D01*
X5170063Y-11147531D02*
X5179587Y-11138008D01*
X5179587Y-11138008D02*
X5198634Y-11128484D01*
X5351015Y-11309436D02*
X5360539Y-11318960D01*
X5360539Y-11318960D02*
X5351015Y-11328484D01*
X5351015Y-11328484D02*
X5341491Y-11318960D01*
X5341491Y-11318960D02*
X5351015Y-11309436D01*
X5351015Y-11309436D02*
X5351015Y-11328484D01*
X5484348Y-11128484D02*
X5503396Y-11128484D01*
X5503396Y-11128484D02*
X5522444Y-11138008D01*
X5522444Y-11138008D02*
X5531968Y-11147531D01*
X5531968Y-11147531D02*
X5541491Y-11166579D01*
X5541491Y-11166579D02*
X5551015Y-11204674D01*
X5551015Y-11204674D02*
X5551015Y-11252293D01*
X5551015Y-11252293D02*
X5541491Y-11290388D01*
X5541491Y-11290388D02*
X5531968Y-11309436D01*
X5531968Y-11309436D02*
X5522444Y-11318960D01*
X5522444Y-11318960D02*
X5503396Y-11328484D01*
X5503396Y-11328484D02*
X5484348Y-11328484D01*
X5484348Y-11328484D02*
X5465301Y-11318960D01*
X5465301Y-11318960D02*
X5455777Y-11309436D01*
X5455777Y-11309436D02*
X5446253Y-11290388D01*
X5446253Y-11290388D02*
X5436729Y-11252293D01*
X5436729Y-11252293D02*
X5436729Y-11204674D01*
X5436729Y-11204674D02*
X5446253Y-11166579D01*
X5446253Y-11166579D02*
X5455777Y-11147531D01*
X5455777Y-11147531D02*
X5465301Y-11138008D01*
X5465301Y-11138008D02*
X5484348Y-11128484D01*
X5617682Y-11128484D02*
X5741491Y-11128484D01*
X5741491Y-11128484D02*
X5674825Y-11204674D01*
X5674825Y-11204674D02*
X5703396Y-11204674D01*
X5703396Y-11204674D02*
X5722444Y-11214198D01*
X5722444Y-11214198D02*
X5731967Y-11223722D01*
X5731967Y-11223722D02*
X5741491Y-11242769D01*
X5741491Y-11242769D02*
X5741491Y-11290388D01*
X5741491Y-11290388D02*
X5731967Y-11309436D01*
X5731967Y-11309436D02*
X5722444Y-11318960D01*
X5722444Y-11318960D02*
X5703396Y-11328484D01*
X5703396Y-11328484D02*
X5646253Y-11328484D01*
X5646253Y-11328484D02*
X5627206Y-11318960D01*
X5627206Y-11318960D02*
X5617682Y-11309436D01*
X5922444Y-11128484D02*
X5827206Y-11128484D01*
X5827206Y-11128484D02*
X5817682Y-11223722D01*
X5817682Y-11223722D02*
X5827206Y-11214198D01*
X5827206Y-11214198D02*
X5846253Y-11204674D01*
X5846253Y-11204674D02*
X5893872Y-11204674D01*
X5893872Y-11204674D02*
X5912920Y-11214198D01*
X5912920Y-11214198D02*
X5922444Y-11223722D01*
X5922444Y-11223722D02*
X5931967Y-11242769D01*
X5931967Y-11242769D02*
X5931967Y-11290388D01*
X5931967Y-11290388D02*
X5922444Y-11309436D01*
X5922444Y-11309436D02*
X5912920Y-11318960D01*
X5912920Y-11318960D02*
X5893872Y-11328484D01*
X5893872Y-11328484D02*
X5846253Y-11328484D01*
X5846253Y-11328484D02*
X5827206Y-11318960D01*
X5827206Y-11318960D02*
X5817682Y-11309436D01*
X6103396Y-11195150D02*
X6103396Y-11328484D01*
X6055777Y-11118960D02*
X6008158Y-11261817D01*
X6008158Y-11261817D02*
X6131967Y-11261817D01*
X6198634Y-11128484D02*
X6198634Y-11166579D01*
X6274825Y-11128484D02*
X6274825Y-11166579D01*
X6570063Y-11404674D02*
X6560539Y-11395150D01*
X6560539Y-11395150D02*
X6541491Y-11366579D01*
X6541491Y-11366579D02*
X6531968Y-11347531D01*
X6531968Y-11347531D02*
X6522444Y-11318960D01*
X6522444Y-11318960D02*
X6512920Y-11271341D01*
X6512920Y-11271341D02*
X6512920Y-11233246D01*
X6512920Y-11233246D02*
X6522444Y-11185627D01*
X6522444Y-11185627D02*
X6531968Y-11157055D01*
X6531968Y-11157055D02*
X6541491Y-11138008D01*
X6541491Y-11138008D02*
X6560539Y-11109436D01*
X6560539Y-11109436D02*
X6570063Y-11099912D01*
X6636729Y-11147531D02*
X6646253Y-11138008D01*
X6646253Y-11138008D02*
X6665301Y-11128484D01*
X6665301Y-11128484D02*
X6712920Y-11128484D01*
X6712920Y-11128484D02*
X6731968Y-11138008D01*
X6731968Y-11138008D02*
X6741491Y-11147531D01*
X6741491Y-11147531D02*
X6751015Y-11166579D01*
X6751015Y-11166579D02*
X6751015Y-11185627D01*
X6751015Y-11185627D02*
X6741491Y-11214198D01*
X6741491Y-11214198D02*
X6627206Y-11328484D01*
X6627206Y-11328484D02*
X6751015Y-11328484D01*
X6989110Y-11328484D02*
X6989110Y-11128484D01*
X7074825Y-11328484D02*
X7074825Y-11223722D01*
X7074825Y-11223722D02*
X7065301Y-11204674D01*
X7065301Y-11204674D02*
X7046253Y-11195150D01*
X7046253Y-11195150D02*
X7017682Y-11195150D01*
X7017682Y-11195150D02*
X6998634Y-11204674D01*
X6998634Y-11204674D02*
X6989110Y-11214198D01*
X7198634Y-11328484D02*
X7179587Y-11318960D01*
X7179587Y-11318960D02*
X7170063Y-11309436D01*
X7170063Y-11309436D02*
X7160539Y-11290388D01*
X7160539Y-11290388D02*
X7160539Y-11233246D01*
X7160539Y-11233246D02*
X7170063Y-11214198D01*
X7170063Y-11214198D02*
X7179587Y-11204674D01*
X7179587Y-11204674D02*
X7198634Y-11195150D01*
X7198634Y-11195150D02*
X7227206Y-11195150D01*
X7227206Y-11195150D02*
X7246253Y-11204674D01*
X7246253Y-11204674D02*
X7255777Y-11214198D01*
X7255777Y-11214198D02*
X7265301Y-11233246D01*
X7265301Y-11233246D02*
X7265301Y-11290388D01*
X7265301Y-11290388D02*
X7255777Y-11309436D01*
X7255777Y-11309436D02*
X7246253Y-11318960D01*
X7246253Y-11318960D02*
X7227206Y-11328484D01*
X7227206Y-11328484D02*
X7198634Y-11328484D01*
X7379587Y-11328484D02*
X7360539Y-11318960D01*
X7360539Y-11318960D02*
X7351015Y-11299912D01*
X7351015Y-11299912D02*
X7351015Y-11128484D01*
X7531968Y-11318960D02*
X7512920Y-11328484D01*
X7512920Y-11328484D02*
X7474825Y-11328484D01*
X7474825Y-11328484D02*
X7455777Y-11318960D01*
X7455777Y-11318960D02*
X7446253Y-11299912D01*
X7446253Y-11299912D02*
X7446253Y-11223722D01*
X7446253Y-11223722D02*
X7455777Y-11204674D01*
X7455777Y-11204674D02*
X7474825Y-11195150D01*
X7474825Y-11195150D02*
X7512920Y-11195150D01*
X7512920Y-11195150D02*
X7531968Y-11204674D01*
X7531968Y-11204674D02*
X7541491Y-11223722D01*
X7541491Y-11223722D02*
X7541491Y-11242769D01*
X7541491Y-11242769D02*
X7446253Y-11261817D01*
X7617682Y-11318960D02*
X7636730Y-11328484D01*
X7636730Y-11328484D02*
X7674825Y-11328484D01*
X7674825Y-11328484D02*
X7693872Y-11318960D01*
X7693872Y-11318960D02*
X7703396Y-11299912D01*
X7703396Y-11299912D02*
X7703396Y-11290388D01*
X7703396Y-11290388D02*
X7693872Y-11271341D01*
X7693872Y-11271341D02*
X7674825Y-11261817D01*
X7674825Y-11261817D02*
X7646253Y-11261817D01*
X7646253Y-11261817D02*
X7627206Y-11252293D01*
X7627206Y-11252293D02*
X7617682Y-11233246D01*
X7617682Y-11233246D02*
X7617682Y-11223722D01*
X7617682Y-11223722D02*
X7627206Y-11204674D01*
X7627206Y-11204674D02*
X7646253Y-11195150D01*
X7646253Y-11195150D02*
X7674825Y-11195150D01*
X7674825Y-11195150D02*
X7693872Y-11204674D01*
X7770063Y-11404674D02*
X7779587Y-11395150D01*
X7779587Y-11395150D02*
X7798634Y-11366579D01*
X7798634Y-11366579D02*
X7808158Y-11347531D01*
X7808158Y-11347531D02*
X7817682Y-11318960D01*
X7817682Y-11318960D02*
X7827206Y-11271341D01*
X7827206Y-11271341D02*
X7827206Y-11233246D01*
X7827206Y-11233246D02*
X7817682Y-11185627D01*
X7817682Y-11185627D02*
X7808158Y-11157055D01*
X7808158Y-11157055D02*
X7798634Y-11138008D01*
X7798634Y-11138008D02*
X7779587Y-11109436D01*
X7779587Y-11109436D02*
X7770063Y-11099912D01*
D10*
X2945000Y-11551000D02*
X2995000Y-11501000D01*
X2945000Y-11451000D01*
X2895000Y-11501000D01*
X2945000Y-11551000D01*
D11*
X3360539Y-11592484D02*
X3246253Y-11592484D01*
X3303396Y-11592484D02*
X3303396Y-11392484D01*
X3303396Y-11392484D02*
X3284348Y-11421055D01*
X3284348Y-11421055D02*
X3265301Y-11440103D01*
X3265301Y-11440103D02*
X3246253Y-11449627D01*
X3446253Y-11573436D02*
X3455777Y-11582960D01*
X3455777Y-11582960D02*
X3446253Y-11592484D01*
X3446253Y-11592484D02*
X3436729Y-11582960D01*
X3436729Y-11582960D02*
X3446253Y-11573436D01*
X3446253Y-11573436D02*
X3446253Y-11592484D01*
X3579586Y-11392484D02*
X3598634Y-11392484D01*
X3598634Y-11392484D02*
X3617682Y-11402008D01*
X3617682Y-11402008D02*
X3627205Y-11411531D01*
X3627205Y-11411531D02*
X3636729Y-11430579D01*
X3636729Y-11430579D02*
X3646253Y-11468674D01*
X3646253Y-11468674D02*
X3646253Y-11516293D01*
X3646253Y-11516293D02*
X3636729Y-11554388D01*
X3636729Y-11554388D02*
X3627205Y-11573436D01*
X3627205Y-11573436D02*
X3617682Y-11582960D01*
X3617682Y-11582960D02*
X3598634Y-11592484D01*
X3598634Y-11592484D02*
X3579586Y-11592484D01*
X3579586Y-11592484D02*
X3560539Y-11582960D01*
X3560539Y-11582960D02*
X3551015Y-11573436D01*
X3551015Y-11573436D02*
X3541491Y-11554388D01*
X3541491Y-11554388D02*
X3531967Y-11516293D01*
X3531967Y-11516293D02*
X3531967Y-11468674D01*
X3531967Y-11468674D02*
X3541491Y-11430579D01*
X3541491Y-11430579D02*
X3551015Y-11411531D01*
X3551015Y-11411531D02*
X3560539Y-11402008D01*
X3560539Y-11402008D02*
X3579586Y-11392484D01*
X3770062Y-11392484D02*
X3789110Y-11392484D01*
X3789110Y-11392484D02*
X3808158Y-11402008D01*
X3808158Y-11402008D02*
X3817682Y-11411531D01*
X3817682Y-11411531D02*
X3827205Y-11430579D01*
X3827205Y-11430579D02*
X3836729Y-11468674D01*
X3836729Y-11468674D02*
X3836729Y-11516293D01*
X3836729Y-11516293D02*
X3827205Y-11554388D01*
X3827205Y-11554388D02*
X3817682Y-11573436D01*
X3817682Y-11573436D02*
X3808158Y-11582960D01*
X3808158Y-11582960D02*
X3789110Y-11592484D01*
X3789110Y-11592484D02*
X3770062Y-11592484D01*
X3770062Y-11592484D02*
X3751015Y-11582960D01*
X3751015Y-11582960D02*
X3741491Y-11573436D01*
X3741491Y-11573436D02*
X3731967Y-11554388D01*
X3731967Y-11554388D02*
X3722443Y-11516293D01*
X3722443Y-11516293D02*
X3722443Y-11468674D01*
X3722443Y-11468674D02*
X3731967Y-11430579D01*
X3731967Y-11430579D02*
X3741491Y-11411531D01*
X3741491Y-11411531D02*
X3751015Y-11402008D01*
X3751015Y-11402008D02*
X3770062Y-11392484D01*
X3960539Y-11392484D02*
X3979586Y-11392484D01*
X3979586Y-11392484D02*
X3998634Y-11402008D01*
X3998634Y-11402008D02*
X4008158Y-11411531D01*
X4008158Y-11411531D02*
X4017682Y-11430579D01*
X4017682Y-11430579D02*
X4027205Y-11468674D01*
X4027205Y-11468674D02*
X4027205Y-11516293D01*
X4027205Y-11516293D02*
X4017682Y-11554388D01*
X4017682Y-11554388D02*
X4008158Y-11573436D01*
X4008158Y-11573436D02*
X3998634Y-11582960D01*
X3998634Y-11582960D02*
X3979586Y-11592484D01*
X3979586Y-11592484D02*
X3960539Y-11592484D01*
X3960539Y-11592484D02*
X3941491Y-11582960D01*
X3941491Y-11582960D02*
X3931967Y-11573436D01*
X3931967Y-11573436D02*
X3922443Y-11554388D01*
X3922443Y-11554388D02*
X3912920Y-11516293D01*
X3912920Y-11516293D02*
X3912920Y-11468674D01*
X3912920Y-11468674D02*
X3922443Y-11430579D01*
X3922443Y-11430579D02*
X3931967Y-11411531D01*
X3931967Y-11411531D02*
X3941491Y-11402008D01*
X3941491Y-11402008D02*
X3960539Y-11392484D01*
X4112920Y-11592484D02*
X4112920Y-11459150D01*
X4112920Y-11478198D02*
X4122443Y-11468674D01*
X4122443Y-11468674D02*
X4141491Y-11459150D01*
X4141491Y-11459150D02*
X4170063Y-11459150D01*
X4170063Y-11459150D02*
X4189110Y-11468674D01*
X4189110Y-11468674D02*
X4198634Y-11487722D01*
X4198634Y-11487722D02*
X4198634Y-11592484D01*
X4198634Y-11487722D02*
X4208158Y-11468674D01*
X4208158Y-11468674D02*
X4227205Y-11459150D01*
X4227205Y-11459150D02*
X4255777Y-11459150D01*
X4255777Y-11459150D02*
X4274825Y-11468674D01*
X4274825Y-11468674D02*
X4284348Y-11487722D01*
X4284348Y-11487722D02*
X4284348Y-11592484D01*
X4379586Y-11592484D02*
X4379586Y-11459150D01*
X4379586Y-11478198D02*
X4389110Y-11468674D01*
X4389110Y-11468674D02*
X4408158Y-11459150D01*
X4408158Y-11459150D02*
X4436729Y-11459150D01*
X4436729Y-11459150D02*
X4455777Y-11468674D01*
X4455777Y-11468674D02*
X4465301Y-11487722D01*
X4465301Y-11487722D02*
X4465301Y-11592484D01*
X4465301Y-11487722D02*
X4474825Y-11468674D01*
X4474825Y-11468674D02*
X4493872Y-11459150D01*
X4493872Y-11459150D02*
X4522444Y-11459150D01*
X4522444Y-11459150D02*
X4541491Y-11468674D01*
X4541491Y-11468674D02*
X4551015Y-11487722D01*
X4551015Y-11487722D02*
X4551015Y-11592484D01*
X4941491Y-11382960D02*
X4770063Y-11640103D01*
X5198634Y-11392484D02*
X5217682Y-11392484D01*
X5217682Y-11392484D02*
X5236729Y-11402008D01*
X5236729Y-11402008D02*
X5246253Y-11411531D01*
X5246253Y-11411531D02*
X5255777Y-11430579D01*
X5255777Y-11430579D02*
X5265301Y-11468674D01*
X5265301Y-11468674D02*
X5265301Y-11516293D01*
X5265301Y-11516293D02*
X5255777Y-11554388D01*
X5255777Y-11554388D02*
X5246253Y-11573436D01*
X5246253Y-11573436D02*
X5236729Y-11582960D01*
X5236729Y-11582960D02*
X5217682Y-11592484D01*
X5217682Y-11592484D02*
X5198634Y-11592484D01*
X5198634Y-11592484D02*
X5179587Y-11582960D01*
X5179587Y-11582960D02*
X5170063Y-11573436D01*
X5170063Y-11573436D02*
X5160539Y-11554388D01*
X5160539Y-11554388D02*
X5151015Y-11516293D01*
X5151015Y-11516293D02*
X5151015Y-11468674D01*
X5151015Y-11468674D02*
X5160539Y-11430579D01*
X5160539Y-11430579D02*
X5170063Y-11411531D01*
X5170063Y-11411531D02*
X5179587Y-11402008D01*
X5179587Y-11402008D02*
X5198634Y-11392484D01*
X5351015Y-11573436D02*
X5360539Y-11582960D01*
X5360539Y-11582960D02*
X5351015Y-11592484D01*
X5351015Y-11592484D02*
X5341491Y-11582960D01*
X5341491Y-11582960D02*
X5351015Y-11573436D01*
X5351015Y-11573436D02*
X5351015Y-11592484D01*
X5484348Y-11392484D02*
X5503396Y-11392484D01*
X5503396Y-11392484D02*
X5522444Y-11402008D01*
X5522444Y-11402008D02*
X5531968Y-11411531D01*
X5531968Y-11411531D02*
X5541491Y-11430579D01*
X5541491Y-11430579D02*
X5551015Y-11468674D01*
X5551015Y-11468674D02*
X5551015Y-11516293D01*
X5551015Y-11516293D02*
X5541491Y-11554388D01*
X5541491Y-11554388D02*
X5531968Y-11573436D01*
X5531968Y-11573436D02*
X5522444Y-11582960D01*
X5522444Y-11582960D02*
X5503396Y-11592484D01*
X5503396Y-11592484D02*
X5484348Y-11592484D01*
X5484348Y-11592484D02*
X5465301Y-11582960D01*
X5465301Y-11582960D02*
X5455777Y-11573436D01*
X5455777Y-11573436D02*
X5446253Y-11554388D01*
X5446253Y-11554388D02*
X5436729Y-11516293D01*
X5436729Y-11516293D02*
X5436729Y-11468674D01*
X5436729Y-11468674D02*
X5446253Y-11430579D01*
X5446253Y-11430579D02*
X5455777Y-11411531D01*
X5455777Y-11411531D02*
X5465301Y-11402008D01*
X5465301Y-11402008D02*
X5484348Y-11392484D01*
X5617682Y-11392484D02*
X5741491Y-11392484D01*
X5741491Y-11392484D02*
X5674825Y-11468674D01*
X5674825Y-11468674D02*
X5703396Y-11468674D01*
X5703396Y-11468674D02*
X5722444Y-11478198D01*
X5722444Y-11478198D02*
X5731967Y-11487722D01*
X5731967Y-11487722D02*
X5741491Y-11506769D01*
X5741491Y-11506769D02*
X5741491Y-11554388D01*
X5741491Y-11554388D02*
X5731967Y-11573436D01*
X5731967Y-11573436D02*
X5722444Y-11582960D01*
X5722444Y-11582960D02*
X5703396Y-11592484D01*
X5703396Y-11592484D02*
X5646253Y-11592484D01*
X5646253Y-11592484D02*
X5627206Y-11582960D01*
X5627206Y-11582960D02*
X5617682Y-11573436D01*
X5836729Y-11592484D02*
X5874825Y-11592484D01*
X5874825Y-11592484D02*
X5893872Y-11582960D01*
X5893872Y-11582960D02*
X5903396Y-11573436D01*
X5903396Y-11573436D02*
X5922444Y-11544865D01*
X5922444Y-11544865D02*
X5931967Y-11506769D01*
X5931967Y-11506769D02*
X5931967Y-11430579D01*
X5931967Y-11430579D02*
X5922444Y-11411531D01*
X5922444Y-11411531D02*
X5912920Y-11402008D01*
X5912920Y-11402008D02*
X5893872Y-11392484D01*
X5893872Y-11392484D02*
X5855777Y-11392484D01*
X5855777Y-11392484D02*
X5836729Y-11402008D01*
X5836729Y-11402008D02*
X5827206Y-11411531D01*
X5827206Y-11411531D02*
X5817682Y-11430579D01*
X5817682Y-11430579D02*
X5817682Y-11478198D01*
X5817682Y-11478198D02*
X5827206Y-11497246D01*
X5827206Y-11497246D02*
X5836729Y-11506769D01*
X5836729Y-11506769D02*
X5855777Y-11516293D01*
X5855777Y-11516293D02*
X5893872Y-11516293D01*
X5893872Y-11516293D02*
X5912920Y-11506769D01*
X5912920Y-11506769D02*
X5922444Y-11497246D01*
X5922444Y-11497246D02*
X5931967Y-11478198D01*
X6103396Y-11459150D02*
X6103396Y-11592484D01*
X6055777Y-11382960D02*
X6008158Y-11525817D01*
X6008158Y-11525817D02*
X6131967Y-11525817D01*
X6198634Y-11392484D02*
X6198634Y-11430579D01*
X6274825Y-11392484D02*
X6274825Y-11430579D01*
X6570063Y-11668674D02*
X6560539Y-11659150D01*
X6560539Y-11659150D02*
X6541491Y-11630579D01*
X6541491Y-11630579D02*
X6531968Y-11611531D01*
X6531968Y-11611531D02*
X6522444Y-11582960D01*
X6522444Y-11582960D02*
X6512920Y-11535341D01*
X6512920Y-11535341D02*
X6512920Y-11497246D01*
X6512920Y-11497246D02*
X6522444Y-11449627D01*
X6522444Y-11449627D02*
X6531968Y-11421055D01*
X6531968Y-11421055D02*
X6541491Y-11402008D01*
X6541491Y-11402008D02*
X6560539Y-11373436D01*
X6560539Y-11373436D02*
X6570063Y-11363912D01*
X6751015Y-11592484D02*
X6636729Y-11592484D01*
X6693872Y-11592484D02*
X6693872Y-11392484D01*
X6693872Y-11392484D02*
X6674825Y-11421055D01*
X6674825Y-11421055D02*
X6655777Y-11440103D01*
X6655777Y-11440103D02*
X6636729Y-11449627D01*
X6874825Y-11392484D02*
X6893872Y-11392484D01*
X6893872Y-11392484D02*
X6912920Y-11402008D01*
X6912920Y-11402008D02*
X6922444Y-11411531D01*
X6922444Y-11411531D02*
X6931968Y-11430579D01*
X6931968Y-11430579D02*
X6941491Y-11468674D01*
X6941491Y-11468674D02*
X6941491Y-11516293D01*
X6941491Y-11516293D02*
X6931968Y-11554388D01*
X6931968Y-11554388D02*
X6922444Y-11573436D01*
X6922444Y-11573436D02*
X6912920Y-11582960D01*
X6912920Y-11582960D02*
X6893872Y-11592484D01*
X6893872Y-11592484D02*
X6874825Y-11592484D01*
X6874825Y-11592484D02*
X6855777Y-11582960D01*
X6855777Y-11582960D02*
X6846253Y-11573436D01*
X6846253Y-11573436D02*
X6836729Y-11554388D01*
X6836729Y-11554388D02*
X6827206Y-11516293D01*
X6827206Y-11516293D02*
X6827206Y-11468674D01*
X6827206Y-11468674D02*
X6836729Y-11430579D01*
X6836729Y-11430579D02*
X6846253Y-11411531D01*
X6846253Y-11411531D02*
X6855777Y-11402008D01*
X6855777Y-11402008D02*
X6874825Y-11392484D01*
X7179587Y-11592484D02*
X7179587Y-11392484D01*
X7265301Y-11592484D02*
X7265301Y-11487722D01*
X7265301Y-11487722D02*
X7255777Y-11468674D01*
X7255777Y-11468674D02*
X7236730Y-11459150D01*
X7236730Y-11459150D02*
X7208158Y-11459150D01*
X7208158Y-11459150D02*
X7189110Y-11468674D01*
X7189110Y-11468674D02*
X7179587Y-11478198D01*
X7389110Y-11592484D02*
X7370063Y-11582960D01*
X7370063Y-11582960D02*
X7360539Y-11573436D01*
X7360539Y-11573436D02*
X7351015Y-11554388D01*
X7351015Y-11554388D02*
X7351015Y-11497246D01*
X7351015Y-11497246D02*
X7360539Y-11478198D01*
X7360539Y-11478198D02*
X7370063Y-11468674D01*
X7370063Y-11468674D02*
X7389110Y-11459150D01*
X7389110Y-11459150D02*
X7417682Y-11459150D01*
X7417682Y-11459150D02*
X7436730Y-11468674D01*
X7436730Y-11468674D02*
X7446253Y-11478198D01*
X7446253Y-11478198D02*
X7455777Y-11497246D01*
X7455777Y-11497246D02*
X7455777Y-11554388D01*
X7455777Y-11554388D02*
X7446253Y-11573436D01*
X7446253Y-11573436D02*
X7436730Y-11582960D01*
X7436730Y-11582960D02*
X7417682Y-11592484D01*
X7417682Y-11592484D02*
X7389110Y-11592484D01*
X7570063Y-11592484D02*
X7551015Y-11582960D01*
X7551015Y-11582960D02*
X7541491Y-11563912D01*
X7541491Y-11563912D02*
X7541491Y-11392484D01*
X7722444Y-11582960D02*
X7703396Y-11592484D01*
X7703396Y-11592484D02*
X7665301Y-11592484D01*
X7665301Y-11592484D02*
X7646253Y-11582960D01*
X7646253Y-11582960D02*
X7636730Y-11563912D01*
X7636730Y-11563912D02*
X7636730Y-11487722D01*
X7636730Y-11487722D02*
X7646253Y-11468674D01*
X7646253Y-11468674D02*
X7665301Y-11459150D01*
X7665301Y-11459150D02*
X7703396Y-11459150D01*
X7703396Y-11459150D02*
X7722444Y-11468674D01*
X7722444Y-11468674D02*
X7731968Y-11487722D01*
X7731968Y-11487722D02*
X7731968Y-11506769D01*
X7731968Y-11506769D02*
X7636730Y-11525817D01*
X7808158Y-11582960D02*
X7827206Y-11592484D01*
X7827206Y-11592484D02*
X7865301Y-11592484D01*
X7865301Y-11592484D02*
X7884349Y-11582960D01*
X7884349Y-11582960D02*
X7893872Y-11563912D01*
X7893872Y-11563912D02*
X7893872Y-11554388D01*
X7893872Y-11554388D02*
X7884349Y-11535341D01*
X7884349Y-11535341D02*
X7865301Y-11525817D01*
X7865301Y-11525817D02*
X7836730Y-11525817D01*
X7836730Y-11525817D02*
X7817682Y-11516293D01*
X7817682Y-11516293D02*
X7808158Y-11497246D01*
X7808158Y-11497246D02*
X7808158Y-11487722D01*
X7808158Y-11487722D02*
X7817682Y-11468674D01*
X7817682Y-11468674D02*
X7836730Y-11459150D01*
X7836730Y-11459150D02*
X7865301Y-11459150D01*
X7865301Y-11459150D02*
X7884349Y-11468674D01*
X8131968Y-11516293D02*
X8284349Y-11516293D01*
X8208158Y-11592484D02*
X8208158Y-11440103D01*
X8617682Y-11459150D02*
X8617682Y-11592484D01*
X8570063Y-11382960D02*
X8522444Y-11525817D01*
X8522444Y-11525817D02*
X8646254Y-11525817D01*
X8865301Y-11582960D02*
X8884349Y-11592484D01*
X8884349Y-11592484D02*
X8922444Y-11592484D01*
X8922444Y-11592484D02*
X8941492Y-11582960D01*
X8941492Y-11582960D02*
X8951016Y-11563912D01*
X8951016Y-11563912D02*
X8951016Y-11554388D01*
X8951016Y-11554388D02*
X8941492Y-11535341D01*
X8941492Y-11535341D02*
X8922444Y-11525817D01*
X8922444Y-11525817D02*
X8893873Y-11525817D01*
X8893873Y-11525817D02*
X8874825Y-11516293D01*
X8874825Y-11516293D02*
X8865301Y-11497246D01*
X8865301Y-11497246D02*
X8865301Y-11487722D01*
X8865301Y-11487722D02*
X8874825Y-11468674D01*
X8874825Y-11468674D02*
X8893873Y-11459150D01*
X8893873Y-11459150D02*
X8922444Y-11459150D01*
X8922444Y-11459150D02*
X8941492Y-11468674D01*
X9065301Y-11592484D02*
X9046254Y-11582960D01*
X9046254Y-11582960D02*
X9036730Y-11563912D01*
X9036730Y-11563912D02*
X9036730Y-11392484D01*
X9170063Y-11592484D02*
X9151016Y-11582960D01*
X9151016Y-11582960D02*
X9141492Y-11573436D01*
X9141492Y-11573436D02*
X9131968Y-11554388D01*
X9131968Y-11554388D02*
X9131968Y-11497246D01*
X9131968Y-11497246D02*
X9141492Y-11478198D01*
X9141492Y-11478198D02*
X9151016Y-11468674D01*
X9151016Y-11468674D02*
X9170063Y-11459150D01*
X9170063Y-11459150D02*
X9198635Y-11459150D01*
X9198635Y-11459150D02*
X9217682Y-11468674D01*
X9217682Y-11468674D02*
X9227206Y-11478198D01*
X9227206Y-11478198D02*
X9236730Y-11497246D01*
X9236730Y-11497246D02*
X9236730Y-11554388D01*
X9236730Y-11554388D02*
X9227206Y-11573436D01*
X9227206Y-11573436D02*
X9217682Y-11582960D01*
X9217682Y-11582960D02*
X9198635Y-11592484D01*
X9198635Y-11592484D02*
X9170063Y-11592484D01*
X9293873Y-11459150D02*
X9370063Y-11459150D01*
X9322444Y-11392484D02*
X9322444Y-11563912D01*
X9322444Y-11563912D02*
X9331968Y-11582960D01*
X9331968Y-11582960D02*
X9351016Y-11592484D01*
X9351016Y-11592484D02*
X9370063Y-11592484D01*
X9427206Y-11582960D02*
X9446254Y-11592484D01*
X9446254Y-11592484D02*
X9484349Y-11592484D01*
X9484349Y-11592484D02*
X9503397Y-11582960D01*
X9503397Y-11582960D02*
X9512920Y-11563912D01*
X9512920Y-11563912D02*
X9512920Y-11554388D01*
X9512920Y-11554388D02*
X9503397Y-11535341D01*
X9503397Y-11535341D02*
X9484349Y-11525817D01*
X9484349Y-11525817D02*
X9455777Y-11525817D01*
X9455777Y-11525817D02*
X9436730Y-11516293D01*
X9436730Y-11516293D02*
X9427206Y-11497246D01*
X9427206Y-11497246D02*
X9427206Y-11487722D01*
X9427206Y-11487722D02*
X9436730Y-11468674D01*
X9436730Y-11468674D02*
X9455777Y-11459150D01*
X9455777Y-11459150D02*
X9484349Y-11459150D01*
X9484349Y-11459150D02*
X9503397Y-11468674D01*
X9579587Y-11668674D02*
X9589111Y-11659150D01*
X9589111Y-11659150D02*
X9608158Y-11630579D01*
X9608158Y-11630579D02*
X9617682Y-11611531D01*
X9617682Y-11611531D02*
X9627206Y-11582960D01*
X9627206Y-11582960D02*
X9636730Y-11535341D01*
X9636730Y-11535341D02*
X9636730Y-11497246D01*
X9636730Y-11497246D02*
X9627206Y-11449627D01*
X9627206Y-11449627D02*
X9617682Y-11421055D01*
X9617682Y-11421055D02*
X9608158Y-11402008D01*
X9608158Y-11402008D02*
X9589111Y-11373436D01*
X9589111Y-11373436D02*
X9579587Y-11363912D01*
D15*
X2885000Y-11710000D02*
X2995000Y-11820000D01*
X2995000Y-11710000D02*
X2885000Y-11820000D01*
X2995000Y-11765000D02*
G75*
G03*
X2995000Y-11765000I-55000J0D01*
G01*
D11*
X3360539Y-11856484D02*
X3246253Y-11856484D01*
X3303396Y-11856484D02*
X3303396Y-11656484D01*
X3303396Y-11656484D02*
X3284348Y-11685055D01*
X3284348Y-11685055D02*
X3265301Y-11704103D01*
X3265301Y-11704103D02*
X3246253Y-11713627D01*
X3446253Y-11837436D02*
X3455777Y-11846960D01*
X3455777Y-11846960D02*
X3446253Y-11856484D01*
X3446253Y-11856484D02*
X3436729Y-11846960D01*
X3436729Y-11846960D02*
X3446253Y-11837436D01*
X3446253Y-11837436D02*
X3446253Y-11856484D01*
X3646253Y-11856484D02*
X3531967Y-11856484D01*
X3589110Y-11856484D02*
X3589110Y-11656484D01*
X3589110Y-11656484D02*
X3570062Y-11685055D01*
X3570062Y-11685055D02*
X3551015Y-11704103D01*
X3551015Y-11704103D02*
X3531967Y-11713627D01*
X3770062Y-11656484D02*
X3789110Y-11656484D01*
X3789110Y-11656484D02*
X3808158Y-11666008D01*
X3808158Y-11666008D02*
X3817682Y-11675531D01*
X3817682Y-11675531D02*
X3827205Y-11694579D01*
X3827205Y-11694579D02*
X3836729Y-11732674D01*
X3836729Y-11732674D02*
X3836729Y-11780293D01*
X3836729Y-11780293D02*
X3827205Y-11818388D01*
X3827205Y-11818388D02*
X3817682Y-11837436D01*
X3817682Y-11837436D02*
X3808158Y-11846960D01*
X3808158Y-11846960D02*
X3789110Y-11856484D01*
X3789110Y-11856484D02*
X3770062Y-11856484D01*
X3770062Y-11856484D02*
X3751015Y-11846960D01*
X3751015Y-11846960D02*
X3741491Y-11837436D01*
X3741491Y-11837436D02*
X3731967Y-11818388D01*
X3731967Y-11818388D02*
X3722443Y-11780293D01*
X3722443Y-11780293D02*
X3722443Y-11732674D01*
X3722443Y-11732674D02*
X3731967Y-11694579D01*
X3731967Y-11694579D02*
X3741491Y-11675531D01*
X3741491Y-11675531D02*
X3751015Y-11666008D01*
X3751015Y-11666008D02*
X3770062Y-11656484D01*
X3960539Y-11656484D02*
X3979586Y-11656484D01*
X3979586Y-11656484D02*
X3998634Y-11666008D01*
X3998634Y-11666008D02*
X4008158Y-11675531D01*
X4008158Y-11675531D02*
X4017682Y-11694579D01*
X4017682Y-11694579D02*
X4027205Y-11732674D01*
X4027205Y-11732674D02*
X4027205Y-11780293D01*
X4027205Y-11780293D02*
X4017682Y-11818388D01*
X4017682Y-11818388D02*
X4008158Y-11837436D01*
X4008158Y-11837436D02*
X3998634Y-11846960D01*
X3998634Y-11846960D02*
X3979586Y-11856484D01*
X3979586Y-11856484D02*
X3960539Y-11856484D01*
X3960539Y-11856484D02*
X3941491Y-11846960D01*
X3941491Y-11846960D02*
X3931967Y-11837436D01*
X3931967Y-11837436D02*
X3922443Y-11818388D01*
X3922443Y-11818388D02*
X3912920Y-11780293D01*
X3912920Y-11780293D02*
X3912920Y-11732674D01*
X3912920Y-11732674D02*
X3922443Y-11694579D01*
X3922443Y-11694579D02*
X3931967Y-11675531D01*
X3931967Y-11675531D02*
X3941491Y-11666008D01*
X3941491Y-11666008D02*
X3960539Y-11656484D01*
X4112920Y-11856484D02*
X4112920Y-11723150D01*
X4112920Y-11742198D02*
X4122443Y-11732674D01*
X4122443Y-11732674D02*
X4141491Y-11723150D01*
X4141491Y-11723150D02*
X4170063Y-11723150D01*
X4170063Y-11723150D02*
X4189110Y-11732674D01*
X4189110Y-11732674D02*
X4198634Y-11751722D01*
X4198634Y-11751722D02*
X4198634Y-11856484D01*
X4198634Y-11751722D02*
X4208158Y-11732674D01*
X4208158Y-11732674D02*
X4227205Y-11723150D01*
X4227205Y-11723150D02*
X4255777Y-11723150D01*
X4255777Y-11723150D02*
X4274825Y-11732674D01*
X4274825Y-11732674D02*
X4284348Y-11751722D01*
X4284348Y-11751722D02*
X4284348Y-11856484D01*
X4379586Y-11856484D02*
X4379586Y-11723150D01*
X4379586Y-11742198D02*
X4389110Y-11732674D01*
X4389110Y-11732674D02*
X4408158Y-11723150D01*
X4408158Y-11723150D02*
X4436729Y-11723150D01*
X4436729Y-11723150D02*
X4455777Y-11732674D01*
X4455777Y-11732674D02*
X4465301Y-11751722D01*
X4465301Y-11751722D02*
X4465301Y-11856484D01*
X4465301Y-11751722D02*
X4474825Y-11732674D01*
X4474825Y-11732674D02*
X4493872Y-11723150D01*
X4493872Y-11723150D02*
X4522444Y-11723150D01*
X4522444Y-11723150D02*
X4541491Y-11732674D01*
X4541491Y-11732674D02*
X4551015Y-11751722D01*
X4551015Y-11751722D02*
X4551015Y-11856484D01*
X4941491Y-11646960D02*
X4770063Y-11904103D01*
X5198634Y-11656484D02*
X5217682Y-11656484D01*
X5217682Y-11656484D02*
X5236729Y-11666008D01*
X5236729Y-11666008D02*
X5246253Y-11675531D01*
X5246253Y-11675531D02*
X5255777Y-11694579D01*
X5255777Y-11694579D02*
X5265301Y-11732674D01*
X5265301Y-11732674D02*
X5265301Y-11780293D01*
X5265301Y-11780293D02*
X5255777Y-11818388D01*
X5255777Y-11818388D02*
X5246253Y-11837436D01*
X5246253Y-11837436D02*
X5236729Y-11846960D01*
X5236729Y-11846960D02*
X5217682Y-11856484D01*
X5217682Y-11856484D02*
X5198634Y-11856484D01*
X5198634Y-11856484D02*
X5179587Y-11846960D01*
X5179587Y-11846960D02*
X5170063Y-11837436D01*
X5170063Y-11837436D02*
X5160539Y-11818388D01*
X5160539Y-11818388D02*
X5151015Y-11780293D01*
X5151015Y-11780293D02*
X5151015Y-11732674D01*
X5151015Y-11732674D02*
X5160539Y-11694579D01*
X5160539Y-11694579D02*
X5170063Y-11675531D01*
X5170063Y-11675531D02*
X5179587Y-11666008D01*
X5179587Y-11666008D02*
X5198634Y-11656484D01*
X5351015Y-11837436D02*
X5360539Y-11846960D01*
X5360539Y-11846960D02*
X5351015Y-11856484D01*
X5351015Y-11856484D02*
X5341491Y-11846960D01*
X5341491Y-11846960D02*
X5351015Y-11837436D01*
X5351015Y-11837436D02*
X5351015Y-11856484D01*
X5484348Y-11656484D02*
X5503396Y-11656484D01*
X5503396Y-11656484D02*
X5522444Y-11666008D01*
X5522444Y-11666008D02*
X5531968Y-11675531D01*
X5531968Y-11675531D02*
X5541491Y-11694579D01*
X5541491Y-11694579D02*
X5551015Y-11732674D01*
X5551015Y-11732674D02*
X5551015Y-11780293D01*
X5551015Y-11780293D02*
X5541491Y-11818388D01*
X5541491Y-11818388D02*
X5531968Y-11837436D01*
X5531968Y-11837436D02*
X5522444Y-11846960D01*
X5522444Y-11846960D02*
X5503396Y-11856484D01*
X5503396Y-11856484D02*
X5484348Y-11856484D01*
X5484348Y-11856484D02*
X5465301Y-11846960D01*
X5465301Y-11846960D02*
X5455777Y-11837436D01*
X5455777Y-11837436D02*
X5446253Y-11818388D01*
X5446253Y-11818388D02*
X5436729Y-11780293D01*
X5436729Y-11780293D02*
X5436729Y-11732674D01*
X5436729Y-11732674D02*
X5446253Y-11694579D01*
X5446253Y-11694579D02*
X5455777Y-11675531D01*
X5455777Y-11675531D02*
X5465301Y-11666008D01*
X5465301Y-11666008D02*
X5484348Y-11656484D01*
X5722444Y-11723150D02*
X5722444Y-11856484D01*
X5674825Y-11646960D02*
X5627206Y-11789817D01*
X5627206Y-11789817D02*
X5751015Y-11789817D01*
X5808158Y-11656484D02*
X5931967Y-11656484D01*
X5931967Y-11656484D02*
X5865301Y-11732674D01*
X5865301Y-11732674D02*
X5893872Y-11732674D01*
X5893872Y-11732674D02*
X5912920Y-11742198D01*
X5912920Y-11742198D02*
X5922444Y-11751722D01*
X5922444Y-11751722D02*
X5931967Y-11770769D01*
X5931967Y-11770769D02*
X5931967Y-11818388D01*
X5931967Y-11818388D02*
X5922444Y-11837436D01*
X5922444Y-11837436D02*
X5912920Y-11846960D01*
X5912920Y-11846960D02*
X5893872Y-11856484D01*
X5893872Y-11856484D02*
X5836729Y-11856484D01*
X5836729Y-11856484D02*
X5817682Y-11846960D01*
X5817682Y-11846960D02*
X5808158Y-11837436D01*
X5998634Y-11656484D02*
X6122444Y-11656484D01*
X6122444Y-11656484D02*
X6055777Y-11732674D01*
X6055777Y-11732674D02*
X6084348Y-11732674D01*
X6084348Y-11732674D02*
X6103396Y-11742198D01*
X6103396Y-11742198D02*
X6112920Y-11751722D01*
X6112920Y-11751722D02*
X6122444Y-11770769D01*
X6122444Y-11770769D02*
X6122444Y-11818388D01*
X6122444Y-11818388D02*
X6112920Y-11837436D01*
X6112920Y-11837436D02*
X6103396Y-11846960D01*
X6103396Y-11846960D02*
X6084348Y-11856484D01*
X6084348Y-11856484D02*
X6027206Y-11856484D01*
X6027206Y-11856484D02*
X6008158Y-11846960D01*
X6008158Y-11846960D02*
X5998634Y-11837436D01*
X6198634Y-11656484D02*
X6198634Y-11694579D01*
X6274825Y-11656484D02*
X6274825Y-11694579D01*
X6570063Y-11932674D02*
X6560539Y-11923150D01*
X6560539Y-11923150D02*
X6541491Y-11894579D01*
X6541491Y-11894579D02*
X6531968Y-11875531D01*
X6531968Y-11875531D02*
X6522444Y-11846960D01*
X6522444Y-11846960D02*
X6512920Y-11799341D01*
X6512920Y-11799341D02*
X6512920Y-11761246D01*
X6512920Y-11761246D02*
X6522444Y-11713627D01*
X6522444Y-11713627D02*
X6531968Y-11685055D01*
X6531968Y-11685055D02*
X6541491Y-11666008D01*
X6541491Y-11666008D02*
X6560539Y-11637436D01*
X6560539Y-11637436D02*
X6570063Y-11627912D01*
X6636729Y-11675531D02*
X6646253Y-11666008D01*
X6646253Y-11666008D02*
X6665301Y-11656484D01*
X6665301Y-11656484D02*
X6712920Y-11656484D01*
X6712920Y-11656484D02*
X6731968Y-11666008D01*
X6731968Y-11666008D02*
X6741491Y-11675531D01*
X6741491Y-11675531D02*
X6751015Y-11694579D01*
X6751015Y-11694579D02*
X6751015Y-11713627D01*
X6751015Y-11713627D02*
X6741491Y-11742198D01*
X6741491Y-11742198D02*
X6627206Y-11856484D01*
X6627206Y-11856484D02*
X6751015Y-11856484D01*
X6922444Y-11656484D02*
X6884348Y-11656484D01*
X6884348Y-11656484D02*
X6865301Y-11666008D01*
X6865301Y-11666008D02*
X6855777Y-11675531D01*
X6855777Y-11675531D02*
X6836729Y-11704103D01*
X6836729Y-11704103D02*
X6827206Y-11742198D01*
X6827206Y-11742198D02*
X6827206Y-11818388D01*
X6827206Y-11818388D02*
X6836729Y-11837436D01*
X6836729Y-11837436D02*
X6846253Y-11846960D01*
X6846253Y-11846960D02*
X6865301Y-11856484D01*
X6865301Y-11856484D02*
X6903396Y-11856484D01*
X6903396Y-11856484D02*
X6922444Y-11846960D01*
X6922444Y-11846960D02*
X6931968Y-11837436D01*
X6931968Y-11837436D02*
X6941491Y-11818388D01*
X6941491Y-11818388D02*
X6941491Y-11770769D01*
X6941491Y-11770769D02*
X6931968Y-11751722D01*
X6931968Y-11751722D02*
X6922444Y-11742198D01*
X6922444Y-11742198D02*
X6903396Y-11732674D01*
X6903396Y-11732674D02*
X6865301Y-11732674D01*
X6865301Y-11732674D02*
X6846253Y-11742198D01*
X6846253Y-11742198D02*
X6836729Y-11751722D01*
X6836729Y-11751722D02*
X6827206Y-11770769D01*
X7179587Y-11856484D02*
X7179587Y-11656484D01*
X7265301Y-11856484D02*
X7265301Y-11751722D01*
X7265301Y-11751722D02*
X7255777Y-11732674D01*
X7255777Y-11732674D02*
X7236730Y-11723150D01*
X7236730Y-11723150D02*
X7208158Y-11723150D01*
X7208158Y-11723150D02*
X7189110Y-11732674D01*
X7189110Y-11732674D02*
X7179587Y-11742198D01*
X7389110Y-11856484D02*
X7370063Y-11846960D01*
X7370063Y-11846960D02*
X7360539Y-11837436D01*
X7360539Y-11837436D02*
X7351015Y-11818388D01*
X7351015Y-11818388D02*
X7351015Y-11761246D01*
X7351015Y-11761246D02*
X7360539Y-11742198D01*
X7360539Y-11742198D02*
X7370063Y-11732674D01*
X7370063Y-11732674D02*
X7389110Y-11723150D01*
X7389110Y-11723150D02*
X7417682Y-11723150D01*
X7417682Y-11723150D02*
X7436730Y-11732674D01*
X7436730Y-11732674D02*
X7446253Y-11742198D01*
X7446253Y-11742198D02*
X7455777Y-11761246D01*
X7455777Y-11761246D02*
X7455777Y-11818388D01*
X7455777Y-11818388D02*
X7446253Y-11837436D01*
X7446253Y-11837436D02*
X7436730Y-11846960D01*
X7436730Y-11846960D02*
X7417682Y-11856484D01*
X7417682Y-11856484D02*
X7389110Y-11856484D01*
X7570063Y-11856484D02*
X7551015Y-11846960D01*
X7551015Y-11846960D02*
X7541491Y-11827912D01*
X7541491Y-11827912D02*
X7541491Y-11656484D01*
X7722444Y-11846960D02*
X7703396Y-11856484D01*
X7703396Y-11856484D02*
X7665301Y-11856484D01*
X7665301Y-11856484D02*
X7646253Y-11846960D01*
X7646253Y-11846960D02*
X7636730Y-11827912D01*
X7636730Y-11827912D02*
X7636730Y-11751722D01*
X7636730Y-11751722D02*
X7646253Y-11732674D01*
X7646253Y-11732674D02*
X7665301Y-11723150D01*
X7665301Y-11723150D02*
X7703396Y-11723150D01*
X7703396Y-11723150D02*
X7722444Y-11732674D01*
X7722444Y-11732674D02*
X7731968Y-11751722D01*
X7731968Y-11751722D02*
X7731968Y-11770769D01*
X7731968Y-11770769D02*
X7636730Y-11789817D01*
X7808158Y-11846960D02*
X7827206Y-11856484D01*
X7827206Y-11856484D02*
X7865301Y-11856484D01*
X7865301Y-11856484D02*
X7884349Y-11846960D01*
X7884349Y-11846960D02*
X7893872Y-11827912D01*
X7893872Y-11827912D02*
X7893872Y-11818388D01*
X7893872Y-11818388D02*
X7884349Y-11799341D01*
X7884349Y-11799341D02*
X7865301Y-11789817D01*
X7865301Y-11789817D02*
X7836730Y-11789817D01*
X7836730Y-11789817D02*
X7817682Y-11780293D01*
X7817682Y-11780293D02*
X7808158Y-11761246D01*
X7808158Y-11761246D02*
X7808158Y-11751722D01*
X7808158Y-11751722D02*
X7817682Y-11732674D01*
X7817682Y-11732674D02*
X7836730Y-11723150D01*
X7836730Y-11723150D02*
X7865301Y-11723150D01*
X7865301Y-11723150D02*
X7884349Y-11732674D01*
X7960539Y-11932674D02*
X7970063Y-11923150D01*
X7970063Y-11923150D02*
X7989111Y-11894579D01*
X7989111Y-11894579D02*
X7998634Y-11875531D01*
X7998634Y-11875531D02*
X8008158Y-11846960D01*
X8008158Y-11846960D02*
X8017682Y-11799341D01*
X8017682Y-11799341D02*
X8017682Y-11761246D01*
X8017682Y-11761246D02*
X8008158Y-11713627D01*
X8008158Y-11713627D02*
X7998634Y-11685055D01*
X7998634Y-11685055D02*
X7989111Y-11666008D01*
X7989111Y-11666008D02*
X7970063Y-11637436D01*
X7970063Y-11637436D02*
X7960539Y-11627912D01*
D16*
X2845000Y-11954000D02*
X2995000Y-12104000D01*
X2995000Y-11954000D02*
X2845000Y-12104000D01*
X2920000Y-11954000D02*
X2920000Y-12104000D01*
X2845000Y-12029000D02*
X2995000Y-12029000D01*
D11*
X3360539Y-12120484D02*
X3246253Y-12120484D01*
X3303396Y-12120484D02*
X3303396Y-11920484D01*
X3303396Y-11920484D02*
X3284348Y-11949055D01*
X3284348Y-11949055D02*
X3265301Y-11968103D01*
X3265301Y-11968103D02*
X3246253Y-11977627D01*
X3446253Y-12101436D02*
X3455777Y-12110960D01*
X3455777Y-12110960D02*
X3446253Y-12120484D01*
X3446253Y-12120484D02*
X3436729Y-12110960D01*
X3436729Y-12110960D02*
X3446253Y-12101436D01*
X3446253Y-12101436D02*
X3446253Y-12120484D01*
X3636729Y-11920484D02*
X3541491Y-11920484D01*
X3541491Y-11920484D02*
X3531967Y-12015722D01*
X3531967Y-12015722D02*
X3541491Y-12006198D01*
X3541491Y-12006198D02*
X3560539Y-11996674D01*
X3560539Y-11996674D02*
X3608158Y-11996674D01*
X3608158Y-11996674D02*
X3627205Y-12006198D01*
X3627205Y-12006198D02*
X3636729Y-12015722D01*
X3636729Y-12015722D02*
X3646253Y-12034769D01*
X3646253Y-12034769D02*
X3646253Y-12082388D01*
X3646253Y-12082388D02*
X3636729Y-12101436D01*
X3636729Y-12101436D02*
X3627205Y-12110960D01*
X3627205Y-12110960D02*
X3608158Y-12120484D01*
X3608158Y-12120484D02*
X3560539Y-12120484D01*
X3560539Y-12120484D02*
X3541491Y-12110960D01*
X3541491Y-12110960D02*
X3531967Y-12101436D01*
X3770062Y-11920484D02*
X3789110Y-11920484D01*
X3789110Y-11920484D02*
X3808158Y-11930008D01*
X3808158Y-11930008D02*
X3817682Y-11939531D01*
X3817682Y-11939531D02*
X3827205Y-11958579D01*
X3827205Y-11958579D02*
X3836729Y-11996674D01*
X3836729Y-11996674D02*
X3836729Y-12044293D01*
X3836729Y-12044293D02*
X3827205Y-12082388D01*
X3827205Y-12082388D02*
X3817682Y-12101436D01*
X3817682Y-12101436D02*
X3808158Y-12110960D01*
X3808158Y-12110960D02*
X3789110Y-12120484D01*
X3789110Y-12120484D02*
X3770062Y-12120484D01*
X3770062Y-12120484D02*
X3751015Y-12110960D01*
X3751015Y-12110960D02*
X3741491Y-12101436D01*
X3741491Y-12101436D02*
X3731967Y-12082388D01*
X3731967Y-12082388D02*
X3722443Y-12044293D01*
X3722443Y-12044293D02*
X3722443Y-11996674D01*
X3722443Y-11996674D02*
X3731967Y-11958579D01*
X3731967Y-11958579D02*
X3741491Y-11939531D01*
X3741491Y-11939531D02*
X3751015Y-11930008D01*
X3751015Y-11930008D02*
X3770062Y-11920484D01*
X3960539Y-11920484D02*
X3979586Y-11920484D01*
X3979586Y-11920484D02*
X3998634Y-11930008D01*
X3998634Y-11930008D02*
X4008158Y-11939531D01*
X4008158Y-11939531D02*
X4017682Y-11958579D01*
X4017682Y-11958579D02*
X4027205Y-11996674D01*
X4027205Y-11996674D02*
X4027205Y-12044293D01*
X4027205Y-12044293D02*
X4017682Y-12082388D01*
X4017682Y-12082388D02*
X4008158Y-12101436D01*
X4008158Y-12101436D02*
X3998634Y-12110960D01*
X3998634Y-12110960D02*
X3979586Y-12120484D01*
X3979586Y-12120484D02*
X3960539Y-12120484D01*
X3960539Y-12120484D02*
X3941491Y-12110960D01*
X3941491Y-12110960D02*
X3931967Y-12101436D01*
X3931967Y-12101436D02*
X3922443Y-12082388D01*
X3922443Y-12082388D02*
X3912920Y-12044293D01*
X3912920Y-12044293D02*
X3912920Y-11996674D01*
X3912920Y-11996674D02*
X3922443Y-11958579D01*
X3922443Y-11958579D02*
X3931967Y-11939531D01*
X3931967Y-11939531D02*
X3941491Y-11930008D01*
X3941491Y-11930008D02*
X3960539Y-11920484D01*
X4112920Y-12120484D02*
X4112920Y-11987150D01*
X4112920Y-12006198D02*
X4122443Y-11996674D01*
X4122443Y-11996674D02*
X4141491Y-11987150D01*
X4141491Y-11987150D02*
X4170063Y-11987150D01*
X4170063Y-11987150D02*
X4189110Y-11996674D01*
X4189110Y-11996674D02*
X4198634Y-12015722D01*
X4198634Y-12015722D02*
X4198634Y-12120484D01*
X4198634Y-12015722D02*
X4208158Y-11996674D01*
X4208158Y-11996674D02*
X4227205Y-11987150D01*
X4227205Y-11987150D02*
X4255777Y-11987150D01*
X4255777Y-11987150D02*
X4274825Y-11996674D01*
X4274825Y-11996674D02*
X4284348Y-12015722D01*
X4284348Y-12015722D02*
X4284348Y-12120484D01*
X4379586Y-12120484D02*
X4379586Y-11987150D01*
X4379586Y-12006198D02*
X4389110Y-11996674D01*
X4389110Y-11996674D02*
X4408158Y-11987150D01*
X4408158Y-11987150D02*
X4436729Y-11987150D01*
X4436729Y-11987150D02*
X4455777Y-11996674D01*
X4455777Y-11996674D02*
X4465301Y-12015722D01*
X4465301Y-12015722D02*
X4465301Y-12120484D01*
X4465301Y-12015722D02*
X4474825Y-11996674D01*
X4474825Y-11996674D02*
X4493872Y-11987150D01*
X4493872Y-11987150D02*
X4522444Y-11987150D01*
X4522444Y-11987150D02*
X4541491Y-11996674D01*
X4541491Y-11996674D02*
X4551015Y-12015722D01*
X4551015Y-12015722D02*
X4551015Y-12120484D01*
X4941491Y-11910960D02*
X4770063Y-12168103D01*
X5198634Y-11920484D02*
X5217682Y-11920484D01*
X5217682Y-11920484D02*
X5236729Y-11930008D01*
X5236729Y-11930008D02*
X5246253Y-11939531D01*
X5246253Y-11939531D02*
X5255777Y-11958579D01*
X5255777Y-11958579D02*
X5265301Y-11996674D01*
X5265301Y-11996674D02*
X5265301Y-12044293D01*
X5265301Y-12044293D02*
X5255777Y-12082388D01*
X5255777Y-12082388D02*
X5246253Y-12101436D01*
X5246253Y-12101436D02*
X5236729Y-12110960D01*
X5236729Y-12110960D02*
X5217682Y-12120484D01*
X5217682Y-12120484D02*
X5198634Y-12120484D01*
X5198634Y-12120484D02*
X5179587Y-12110960D01*
X5179587Y-12110960D02*
X5170063Y-12101436D01*
X5170063Y-12101436D02*
X5160539Y-12082388D01*
X5160539Y-12082388D02*
X5151015Y-12044293D01*
X5151015Y-12044293D02*
X5151015Y-11996674D01*
X5151015Y-11996674D02*
X5160539Y-11958579D01*
X5160539Y-11958579D02*
X5170063Y-11939531D01*
X5170063Y-11939531D02*
X5179587Y-11930008D01*
X5179587Y-11930008D02*
X5198634Y-11920484D01*
X5351015Y-12101436D02*
X5360539Y-12110960D01*
X5360539Y-12110960D02*
X5351015Y-12120484D01*
X5351015Y-12120484D02*
X5341491Y-12110960D01*
X5341491Y-12110960D02*
X5351015Y-12101436D01*
X5351015Y-12101436D02*
X5351015Y-12120484D01*
X5484348Y-11920484D02*
X5503396Y-11920484D01*
X5503396Y-11920484D02*
X5522444Y-11930008D01*
X5522444Y-11930008D02*
X5531968Y-11939531D01*
X5531968Y-11939531D02*
X5541491Y-11958579D01*
X5541491Y-11958579D02*
X5551015Y-11996674D01*
X5551015Y-11996674D02*
X5551015Y-12044293D01*
X5551015Y-12044293D02*
X5541491Y-12082388D01*
X5541491Y-12082388D02*
X5531968Y-12101436D01*
X5531968Y-12101436D02*
X5522444Y-12110960D01*
X5522444Y-12110960D02*
X5503396Y-12120484D01*
X5503396Y-12120484D02*
X5484348Y-12120484D01*
X5484348Y-12120484D02*
X5465301Y-12110960D01*
X5465301Y-12110960D02*
X5455777Y-12101436D01*
X5455777Y-12101436D02*
X5446253Y-12082388D01*
X5446253Y-12082388D02*
X5436729Y-12044293D01*
X5436729Y-12044293D02*
X5436729Y-11996674D01*
X5436729Y-11996674D02*
X5446253Y-11958579D01*
X5446253Y-11958579D02*
X5455777Y-11939531D01*
X5455777Y-11939531D02*
X5465301Y-11930008D01*
X5465301Y-11930008D02*
X5484348Y-11920484D01*
X5731967Y-11920484D02*
X5636729Y-11920484D01*
X5636729Y-11920484D02*
X5627206Y-12015722D01*
X5627206Y-12015722D02*
X5636729Y-12006198D01*
X5636729Y-12006198D02*
X5655777Y-11996674D01*
X5655777Y-11996674D02*
X5703396Y-11996674D01*
X5703396Y-11996674D02*
X5722444Y-12006198D01*
X5722444Y-12006198D02*
X5731967Y-12015722D01*
X5731967Y-12015722D02*
X5741491Y-12034769D01*
X5741491Y-12034769D02*
X5741491Y-12082388D01*
X5741491Y-12082388D02*
X5731967Y-12101436D01*
X5731967Y-12101436D02*
X5722444Y-12110960D01*
X5722444Y-12110960D02*
X5703396Y-12120484D01*
X5703396Y-12120484D02*
X5655777Y-12120484D01*
X5655777Y-12120484D02*
X5636729Y-12110960D01*
X5636729Y-12110960D02*
X5627206Y-12101436D01*
X5836729Y-12120484D02*
X5874825Y-12120484D01*
X5874825Y-12120484D02*
X5893872Y-12110960D01*
X5893872Y-12110960D02*
X5903396Y-12101436D01*
X5903396Y-12101436D02*
X5922444Y-12072865D01*
X5922444Y-12072865D02*
X5931967Y-12034769D01*
X5931967Y-12034769D02*
X5931967Y-11958579D01*
X5931967Y-11958579D02*
X5922444Y-11939531D01*
X5922444Y-11939531D02*
X5912920Y-11930008D01*
X5912920Y-11930008D02*
X5893872Y-11920484D01*
X5893872Y-11920484D02*
X5855777Y-11920484D01*
X5855777Y-11920484D02*
X5836729Y-11930008D01*
X5836729Y-11930008D02*
X5827206Y-11939531D01*
X5827206Y-11939531D02*
X5817682Y-11958579D01*
X5817682Y-11958579D02*
X5817682Y-12006198D01*
X5817682Y-12006198D02*
X5827206Y-12025246D01*
X5827206Y-12025246D02*
X5836729Y-12034769D01*
X5836729Y-12034769D02*
X5855777Y-12044293D01*
X5855777Y-12044293D02*
X5893872Y-12044293D01*
X5893872Y-12044293D02*
X5912920Y-12034769D01*
X5912920Y-12034769D02*
X5922444Y-12025246D01*
X5922444Y-12025246D02*
X5931967Y-12006198D01*
X6122444Y-12120484D02*
X6008158Y-12120484D01*
X6065301Y-12120484D02*
X6065301Y-11920484D01*
X6065301Y-11920484D02*
X6046253Y-11949055D01*
X6046253Y-11949055D02*
X6027206Y-11968103D01*
X6027206Y-11968103D02*
X6008158Y-11977627D01*
X6198634Y-11920484D02*
X6198634Y-11958579D01*
X6274825Y-11920484D02*
X6274825Y-11958579D01*
X6570063Y-12196674D02*
X6560539Y-12187150D01*
X6560539Y-12187150D02*
X6541491Y-12158579D01*
X6541491Y-12158579D02*
X6531968Y-12139531D01*
X6531968Y-12139531D02*
X6522444Y-12110960D01*
X6522444Y-12110960D02*
X6512920Y-12063341D01*
X6512920Y-12063341D02*
X6512920Y-12025246D01*
X6512920Y-12025246D02*
X6522444Y-11977627D01*
X6522444Y-11977627D02*
X6531968Y-11949055D01*
X6531968Y-11949055D02*
X6541491Y-11930008D01*
X6541491Y-11930008D02*
X6560539Y-11901436D01*
X6560539Y-11901436D02*
X6570063Y-11891912D01*
X6684348Y-11920484D02*
X6703396Y-11920484D01*
X6703396Y-11920484D02*
X6722444Y-11930008D01*
X6722444Y-11930008D02*
X6731968Y-11939531D01*
X6731968Y-11939531D02*
X6741491Y-11958579D01*
X6741491Y-11958579D02*
X6751015Y-11996674D01*
X6751015Y-11996674D02*
X6751015Y-12044293D01*
X6751015Y-12044293D02*
X6741491Y-12082388D01*
X6741491Y-12082388D02*
X6731968Y-12101436D01*
X6731968Y-12101436D02*
X6722444Y-12110960D01*
X6722444Y-12110960D02*
X6703396Y-12120484D01*
X6703396Y-12120484D02*
X6684348Y-12120484D01*
X6684348Y-12120484D02*
X6665301Y-12110960D01*
X6665301Y-12110960D02*
X6655777Y-12101436D01*
X6655777Y-12101436D02*
X6646253Y-12082388D01*
X6646253Y-12082388D02*
X6636729Y-12044293D01*
X6636729Y-12044293D02*
X6636729Y-11996674D01*
X6636729Y-11996674D02*
X6646253Y-11958579D01*
X6646253Y-11958579D02*
X6655777Y-11939531D01*
X6655777Y-11939531D02*
X6665301Y-11930008D01*
X6665301Y-11930008D02*
X6684348Y-11920484D01*
X6989110Y-12120484D02*
X6989110Y-11920484D01*
X7074825Y-12120484D02*
X7074825Y-12015722D01*
X7074825Y-12015722D02*
X7065301Y-11996674D01*
X7065301Y-11996674D02*
X7046253Y-11987150D01*
X7046253Y-11987150D02*
X7017682Y-11987150D01*
X7017682Y-11987150D02*
X6998634Y-11996674D01*
X6998634Y-11996674D02*
X6989110Y-12006198D01*
X7198634Y-12120484D02*
X7179587Y-12110960D01*
X7179587Y-12110960D02*
X7170063Y-12101436D01*
X7170063Y-12101436D02*
X7160539Y-12082388D01*
X7160539Y-12082388D02*
X7160539Y-12025246D01*
X7160539Y-12025246D02*
X7170063Y-12006198D01*
X7170063Y-12006198D02*
X7179587Y-11996674D01*
X7179587Y-11996674D02*
X7198634Y-11987150D01*
X7198634Y-11987150D02*
X7227206Y-11987150D01*
X7227206Y-11987150D02*
X7246253Y-11996674D01*
X7246253Y-11996674D02*
X7255777Y-12006198D01*
X7255777Y-12006198D02*
X7265301Y-12025246D01*
X7265301Y-12025246D02*
X7265301Y-12082388D01*
X7265301Y-12082388D02*
X7255777Y-12101436D01*
X7255777Y-12101436D02*
X7246253Y-12110960D01*
X7246253Y-12110960D02*
X7227206Y-12120484D01*
X7227206Y-12120484D02*
X7198634Y-12120484D01*
X7379587Y-12120484D02*
X7360539Y-12110960D01*
X7360539Y-12110960D02*
X7351015Y-12091912D01*
X7351015Y-12091912D02*
X7351015Y-11920484D01*
X7531968Y-12110960D02*
X7512920Y-12120484D01*
X7512920Y-12120484D02*
X7474825Y-12120484D01*
X7474825Y-12120484D02*
X7455777Y-12110960D01*
X7455777Y-12110960D02*
X7446253Y-12091912D01*
X7446253Y-12091912D02*
X7446253Y-12015722D01*
X7446253Y-12015722D02*
X7455777Y-11996674D01*
X7455777Y-11996674D02*
X7474825Y-11987150D01*
X7474825Y-11987150D02*
X7512920Y-11987150D01*
X7512920Y-11987150D02*
X7531968Y-11996674D01*
X7531968Y-11996674D02*
X7541491Y-12015722D01*
X7541491Y-12015722D02*
X7541491Y-12034769D01*
X7541491Y-12034769D02*
X7446253Y-12053817D01*
X7617682Y-12110960D02*
X7636730Y-12120484D01*
X7636730Y-12120484D02*
X7674825Y-12120484D01*
X7674825Y-12120484D02*
X7693872Y-12110960D01*
X7693872Y-12110960D02*
X7703396Y-12091912D01*
X7703396Y-12091912D02*
X7703396Y-12082388D01*
X7703396Y-12082388D02*
X7693872Y-12063341D01*
X7693872Y-12063341D02*
X7674825Y-12053817D01*
X7674825Y-12053817D02*
X7646253Y-12053817D01*
X7646253Y-12053817D02*
X7627206Y-12044293D01*
X7627206Y-12044293D02*
X7617682Y-12025246D01*
X7617682Y-12025246D02*
X7617682Y-12015722D01*
X7617682Y-12015722D02*
X7627206Y-11996674D01*
X7627206Y-11996674D02*
X7646253Y-11987150D01*
X7646253Y-11987150D02*
X7674825Y-11987150D01*
X7674825Y-11987150D02*
X7693872Y-11996674D01*
X7941492Y-12044293D02*
X8093873Y-12044293D01*
X8017682Y-12120484D02*
X8017682Y-11968103D01*
X8331968Y-11939531D02*
X8341492Y-11930008D01*
X8341492Y-11930008D02*
X8360539Y-11920484D01*
X8360539Y-11920484D02*
X8408158Y-11920484D01*
X8408158Y-11920484D02*
X8427206Y-11930008D01*
X8427206Y-11930008D02*
X8436730Y-11939531D01*
X8436730Y-11939531D02*
X8446254Y-11958579D01*
X8446254Y-11958579D02*
X8446254Y-11977627D01*
X8446254Y-11977627D02*
X8436730Y-12006198D01*
X8436730Y-12006198D02*
X8322444Y-12120484D01*
X8322444Y-12120484D02*
X8446254Y-12120484D01*
X8674825Y-12110960D02*
X8693873Y-12120484D01*
X8693873Y-12120484D02*
X8731968Y-12120484D01*
X8731968Y-12120484D02*
X8751016Y-12110960D01*
X8751016Y-12110960D02*
X8760539Y-12091912D01*
X8760539Y-12091912D02*
X8760539Y-12082388D01*
X8760539Y-12082388D02*
X8751016Y-12063341D01*
X8751016Y-12063341D02*
X8731968Y-12053817D01*
X8731968Y-12053817D02*
X8703396Y-12053817D01*
X8703396Y-12053817D02*
X8684349Y-12044293D01*
X8684349Y-12044293D02*
X8674825Y-12025246D01*
X8674825Y-12025246D02*
X8674825Y-12015722D01*
X8674825Y-12015722D02*
X8684349Y-11996674D01*
X8684349Y-11996674D02*
X8703396Y-11987150D01*
X8703396Y-11987150D02*
X8731968Y-11987150D01*
X8731968Y-11987150D02*
X8751016Y-11996674D01*
X8874825Y-12120484D02*
X8855777Y-12110960D01*
X8855777Y-12110960D02*
X8846254Y-12091912D01*
X8846254Y-12091912D02*
X8846254Y-11920484D01*
X8979587Y-12120484D02*
X8960539Y-12110960D01*
X8960539Y-12110960D02*
X8951016Y-12101436D01*
X8951016Y-12101436D02*
X8941492Y-12082388D01*
X8941492Y-12082388D02*
X8941492Y-12025246D01*
X8941492Y-12025246D02*
X8951016Y-12006198D01*
X8951016Y-12006198D02*
X8960539Y-11996674D01*
X8960539Y-11996674D02*
X8979587Y-11987150D01*
X8979587Y-11987150D02*
X9008158Y-11987150D01*
X9008158Y-11987150D02*
X9027206Y-11996674D01*
X9027206Y-11996674D02*
X9036730Y-12006198D01*
X9036730Y-12006198D02*
X9046254Y-12025246D01*
X9046254Y-12025246D02*
X9046254Y-12082388D01*
X9046254Y-12082388D02*
X9036730Y-12101436D01*
X9036730Y-12101436D02*
X9027206Y-12110960D01*
X9027206Y-12110960D02*
X9008158Y-12120484D01*
X9008158Y-12120484D02*
X8979587Y-12120484D01*
X9103397Y-11987150D02*
X9179587Y-11987150D01*
X9131968Y-11920484D02*
X9131968Y-12091912D01*
X9131968Y-12091912D02*
X9141492Y-12110960D01*
X9141492Y-12110960D02*
X9160539Y-12120484D01*
X9160539Y-12120484D02*
X9179587Y-12120484D01*
X9236730Y-12110960D02*
X9255777Y-12120484D01*
X9255777Y-12120484D02*
X9293873Y-12120484D01*
X9293873Y-12120484D02*
X9312920Y-12110960D01*
X9312920Y-12110960D02*
X9322444Y-12091912D01*
X9322444Y-12091912D02*
X9322444Y-12082388D01*
X9322444Y-12082388D02*
X9312920Y-12063341D01*
X9312920Y-12063341D02*
X9293873Y-12053817D01*
X9293873Y-12053817D02*
X9265301Y-12053817D01*
X9265301Y-12053817D02*
X9246254Y-12044293D01*
X9246254Y-12044293D02*
X9236730Y-12025246D01*
X9236730Y-12025246D02*
X9236730Y-12015722D01*
X9236730Y-12015722D02*
X9246254Y-11996674D01*
X9246254Y-11996674D02*
X9265301Y-11987150D01*
X9265301Y-11987150D02*
X9293873Y-11987150D01*
X9293873Y-11987150D02*
X9312920Y-11996674D01*
X9389111Y-12196674D02*
X9398635Y-12187150D01*
X9398635Y-12187150D02*
X9417682Y-12158579D01*
X9417682Y-12158579D02*
X9427206Y-12139531D01*
X9427206Y-12139531D02*
X9436730Y-12110960D01*
X9436730Y-12110960D02*
X9446254Y-12063341D01*
X9446254Y-12063341D02*
X9446254Y-12025246D01*
X9446254Y-12025246D02*
X9436730Y-11977627D01*
X9436730Y-11977627D02*
X9427206Y-11949055D01*
X9427206Y-11949055D02*
X9417682Y-11930008D01*
X9417682Y-11930008D02*
X9398635Y-11901436D01*
X9398635Y-11901436D02*
X9389111Y-11891912D01*
M02*
