G04 #@! TF.GenerationSoftware,KiCad,Pcbnew,8.0.1-8.0.1-1~ubuntu22.04.1*
G04 #@! TF.CreationDate,2024-05-02T22:12:49-07:00*
G04 #@! TF.ProjectId,Seismos_5CoreRShift,53656973-6d6f-4735-9f35-436f72655253,rev?*
G04 #@! TF.SameCoordinates,Original*
G04 #@! TF.FileFunction,Legend,Top*
G04 #@! TF.FilePolarity,Positive*
%FSLAX46Y46*%
G04 Gerber Fmt 4.6, Leading zero omitted, Abs format (unit mm)*
G04 Created by KiCad (PCBNEW 8.0.1-8.0.1-1~ubuntu22.04.1) date 2024-05-02 22:12:49*
%MOMM*%
%LPD*%
G01*
G04 APERTURE LIST*
G04 Aperture macros list*
%AMRoundRect*
0 Rectangle with rounded corners*
0 $1 Rounding radius*
0 $2 $3 $4 $5 $6 $7 $8 $9 X,Y pos of 4 corners*
0 Add a 4 corners polygon primitive as box body*
4,1,4,$2,$3,$4,$5,$6,$7,$8,$9,$2,$3,0*
0 Add four circle primitives for the rounded corners*
1,1,$1+$1,$2,$3*
1,1,$1+$1,$4,$5*
1,1,$1+$1,$6,$7*
1,1,$1+$1,$8,$9*
0 Add four rect primitives between the rounded corners*
20,1,$1+$1,$2,$3,$4,$5,0*
20,1,$1+$1,$4,$5,$6,$7,0*
20,1,$1+$1,$6,$7,$8,$9,0*
20,1,$1+$1,$8,$9,$2,$3,0*%
%AMFreePoly0*
4,1,6,0.600000,0.200000,0.000000,-0.400000,-0.600000,0.200000,-0.600000,0.400000,0.600000,0.400000,0.600000,0.200000,0.600000,0.200000,$1*%
%AMFreePoly1*
4,1,6,0.600000,-0.250000,-0.600000,-0.250000,-0.600000,1.000000,0.000000,0.400000,0.600000,1.000000,0.600000,-0.250000,0.600000,-0.250000,$1*%
G04 Aperture macros list end*
%ADD10C,0.150000*%
%ADD11C,0.120000*%
%ADD12C,0.127000*%
%ADD13C,0.250000*%
%ADD14C,0.152400*%
%ADD15C,0.050800*%
%ADD16C,0.254000*%
%ADD17C,1.200000*%
%ADD18O,2.500000X1.700000*%
%ADD19C,0.100000*%
%ADD20C,3.200000*%
%ADD21C,2.000000*%
%ADD22R,3.200000X2.000000*%
%ADD23R,1.803400X0.812800*%
%ADD24R,1.700000X1.700000*%
%ADD25O,1.700000X1.700000*%
%ADD26C,0.900000*%
%ADD27R,1.500000X0.700000*%
%ADD28R,0.800000X1.000000*%
%ADD29RoundRect,0.102000X0.600000X-0.300000X0.600000X0.300000X-0.600000X0.300000X-0.600000X-0.300000X0*%
%ADD30C,1.400000*%
%ADD31C,1.600000*%
%ADD32FreePoly0,270.000000*%
%ADD33FreePoly0,90.000000*%
%ADD34R,1.600000X1.600000*%
%ADD35FreePoly1,270.000000*%
%ADD36FreePoly1,90.000000*%
%ADD37R,0.600000X1.700000*%
%ADD38R,1.200000X1.800000*%
%ADD39RoundRect,0.225000X-0.375000X0.225000X-0.375000X-0.225000X0.375000X-0.225000X0.375000X0.225000X0*%
G04 APERTURE END LIST*
D10*
X61200000Y-20000000D02*
X61200000Y-39000000D01*
X80500000Y-20000000D02*
X80500000Y-39000000D01*
X119100000Y-20000000D02*
X119100000Y-39000000D01*
X99800000Y-20000000D02*
X99800000Y-39000000D01*
X157700000Y-20000000D02*
X157700000Y-39000000D01*
X138400000Y-20000000D02*
X138400000Y-39000000D01*
X106616666Y-25974580D02*
X106569047Y-26022200D01*
X106569047Y-26022200D02*
X106426190Y-26069819D01*
X106426190Y-26069819D02*
X106330952Y-26069819D01*
X106330952Y-26069819D02*
X106188095Y-26022200D01*
X106188095Y-26022200D02*
X106092857Y-25926961D01*
X106092857Y-25926961D02*
X106045238Y-25831723D01*
X106045238Y-25831723D02*
X105997619Y-25641247D01*
X105997619Y-25641247D02*
X105997619Y-25498390D01*
X105997619Y-25498390D02*
X106045238Y-25307914D01*
X106045238Y-25307914D02*
X106092857Y-25212676D01*
X106092857Y-25212676D02*
X106188095Y-25117438D01*
X106188095Y-25117438D02*
X106330952Y-25069819D01*
X106330952Y-25069819D02*
X106426190Y-25069819D01*
X106426190Y-25069819D02*
X106569047Y-25117438D01*
X106569047Y-25117438D02*
X106616666Y-25165057D01*
X107188095Y-26069819D02*
X107092857Y-26022200D01*
X107092857Y-26022200D02*
X107045238Y-25974580D01*
X107045238Y-25974580D02*
X106997619Y-25879342D01*
X106997619Y-25879342D02*
X106997619Y-25593628D01*
X106997619Y-25593628D02*
X107045238Y-25498390D01*
X107045238Y-25498390D02*
X107092857Y-25450771D01*
X107092857Y-25450771D02*
X107188095Y-25403152D01*
X107188095Y-25403152D02*
X107330952Y-25403152D01*
X107330952Y-25403152D02*
X107426190Y-25450771D01*
X107426190Y-25450771D02*
X107473809Y-25498390D01*
X107473809Y-25498390D02*
X107521428Y-25593628D01*
X107521428Y-25593628D02*
X107521428Y-25879342D01*
X107521428Y-25879342D02*
X107473809Y-25974580D01*
X107473809Y-25974580D02*
X107426190Y-26022200D01*
X107426190Y-26022200D02*
X107330952Y-26069819D01*
X107330952Y-26069819D02*
X107188095Y-26069819D01*
X108092857Y-26069819D02*
X107997619Y-26022200D01*
X107997619Y-26022200D02*
X107950000Y-25926961D01*
X107950000Y-25926961D02*
X107950000Y-25069819D01*
X108902381Y-25403152D02*
X108902381Y-26069819D01*
X108473810Y-25403152D02*
X108473810Y-25926961D01*
X108473810Y-25926961D02*
X108521429Y-26022200D01*
X108521429Y-26022200D02*
X108616667Y-26069819D01*
X108616667Y-26069819D02*
X108759524Y-26069819D01*
X108759524Y-26069819D02*
X108854762Y-26022200D01*
X108854762Y-26022200D02*
X108902381Y-25974580D01*
X109378572Y-26069819D02*
X109378572Y-25403152D01*
X109378572Y-25498390D02*
X109426191Y-25450771D01*
X109426191Y-25450771D02*
X109521429Y-25403152D01*
X109521429Y-25403152D02*
X109664286Y-25403152D01*
X109664286Y-25403152D02*
X109759524Y-25450771D01*
X109759524Y-25450771D02*
X109807143Y-25546009D01*
X109807143Y-25546009D02*
X109807143Y-26069819D01*
X109807143Y-25546009D02*
X109854762Y-25450771D01*
X109854762Y-25450771D02*
X109950000Y-25403152D01*
X109950000Y-25403152D02*
X110092857Y-25403152D01*
X110092857Y-25403152D02*
X110188096Y-25450771D01*
X110188096Y-25450771D02*
X110235715Y-25546009D01*
X110235715Y-25546009D02*
X110235715Y-26069819D01*
X110711905Y-25403152D02*
X110711905Y-26069819D01*
X110711905Y-25498390D02*
X110759524Y-25450771D01*
X110759524Y-25450771D02*
X110854762Y-25403152D01*
X110854762Y-25403152D02*
X110997619Y-25403152D01*
X110997619Y-25403152D02*
X111092857Y-25450771D01*
X111092857Y-25450771D02*
X111140476Y-25546009D01*
X111140476Y-25546009D02*
X111140476Y-26069819D01*
X112807143Y-25403152D02*
X112807143Y-26069819D01*
X112569048Y-25022200D02*
X112330953Y-25736485D01*
X112330953Y-25736485D02*
X112950000Y-25736485D01*
X87316666Y-25974580D02*
X87269047Y-26022200D01*
X87269047Y-26022200D02*
X87126190Y-26069819D01*
X87126190Y-26069819D02*
X87030952Y-26069819D01*
X87030952Y-26069819D02*
X86888095Y-26022200D01*
X86888095Y-26022200D02*
X86792857Y-25926961D01*
X86792857Y-25926961D02*
X86745238Y-25831723D01*
X86745238Y-25831723D02*
X86697619Y-25641247D01*
X86697619Y-25641247D02*
X86697619Y-25498390D01*
X86697619Y-25498390D02*
X86745238Y-25307914D01*
X86745238Y-25307914D02*
X86792857Y-25212676D01*
X86792857Y-25212676D02*
X86888095Y-25117438D01*
X86888095Y-25117438D02*
X87030952Y-25069819D01*
X87030952Y-25069819D02*
X87126190Y-25069819D01*
X87126190Y-25069819D02*
X87269047Y-25117438D01*
X87269047Y-25117438D02*
X87316666Y-25165057D01*
X87888095Y-26069819D02*
X87792857Y-26022200D01*
X87792857Y-26022200D02*
X87745238Y-25974580D01*
X87745238Y-25974580D02*
X87697619Y-25879342D01*
X87697619Y-25879342D02*
X87697619Y-25593628D01*
X87697619Y-25593628D02*
X87745238Y-25498390D01*
X87745238Y-25498390D02*
X87792857Y-25450771D01*
X87792857Y-25450771D02*
X87888095Y-25403152D01*
X87888095Y-25403152D02*
X88030952Y-25403152D01*
X88030952Y-25403152D02*
X88126190Y-25450771D01*
X88126190Y-25450771D02*
X88173809Y-25498390D01*
X88173809Y-25498390D02*
X88221428Y-25593628D01*
X88221428Y-25593628D02*
X88221428Y-25879342D01*
X88221428Y-25879342D02*
X88173809Y-25974580D01*
X88173809Y-25974580D02*
X88126190Y-26022200D01*
X88126190Y-26022200D02*
X88030952Y-26069819D01*
X88030952Y-26069819D02*
X87888095Y-26069819D01*
X88792857Y-26069819D02*
X88697619Y-26022200D01*
X88697619Y-26022200D02*
X88650000Y-25926961D01*
X88650000Y-25926961D02*
X88650000Y-25069819D01*
X89602381Y-25403152D02*
X89602381Y-26069819D01*
X89173810Y-25403152D02*
X89173810Y-25926961D01*
X89173810Y-25926961D02*
X89221429Y-26022200D01*
X89221429Y-26022200D02*
X89316667Y-26069819D01*
X89316667Y-26069819D02*
X89459524Y-26069819D01*
X89459524Y-26069819D02*
X89554762Y-26022200D01*
X89554762Y-26022200D02*
X89602381Y-25974580D01*
X90078572Y-26069819D02*
X90078572Y-25403152D01*
X90078572Y-25498390D02*
X90126191Y-25450771D01*
X90126191Y-25450771D02*
X90221429Y-25403152D01*
X90221429Y-25403152D02*
X90364286Y-25403152D01*
X90364286Y-25403152D02*
X90459524Y-25450771D01*
X90459524Y-25450771D02*
X90507143Y-25546009D01*
X90507143Y-25546009D02*
X90507143Y-26069819D01*
X90507143Y-25546009D02*
X90554762Y-25450771D01*
X90554762Y-25450771D02*
X90650000Y-25403152D01*
X90650000Y-25403152D02*
X90792857Y-25403152D01*
X90792857Y-25403152D02*
X90888096Y-25450771D01*
X90888096Y-25450771D02*
X90935715Y-25546009D01*
X90935715Y-25546009D02*
X90935715Y-26069819D01*
X91411905Y-25403152D02*
X91411905Y-26069819D01*
X91411905Y-25498390D02*
X91459524Y-25450771D01*
X91459524Y-25450771D02*
X91554762Y-25403152D01*
X91554762Y-25403152D02*
X91697619Y-25403152D01*
X91697619Y-25403152D02*
X91792857Y-25450771D01*
X91792857Y-25450771D02*
X91840476Y-25546009D01*
X91840476Y-25546009D02*
X91840476Y-26069819D01*
X93554762Y-25069819D02*
X93078572Y-25069819D01*
X93078572Y-25069819D02*
X93030953Y-25546009D01*
X93030953Y-25546009D02*
X93078572Y-25498390D01*
X93078572Y-25498390D02*
X93173810Y-25450771D01*
X93173810Y-25450771D02*
X93411905Y-25450771D01*
X93411905Y-25450771D02*
X93507143Y-25498390D01*
X93507143Y-25498390D02*
X93554762Y-25546009D01*
X93554762Y-25546009D02*
X93602381Y-25641247D01*
X93602381Y-25641247D02*
X93602381Y-25879342D01*
X93602381Y-25879342D02*
X93554762Y-25974580D01*
X93554762Y-25974580D02*
X93507143Y-26022200D01*
X93507143Y-26022200D02*
X93411905Y-26069819D01*
X93411905Y-26069819D02*
X93173810Y-26069819D01*
X93173810Y-26069819D02*
X93078572Y-26022200D01*
X93078572Y-26022200D02*
X93030953Y-25974580D01*
X145216666Y-25974580D02*
X145169047Y-26022200D01*
X145169047Y-26022200D02*
X145026190Y-26069819D01*
X145026190Y-26069819D02*
X144930952Y-26069819D01*
X144930952Y-26069819D02*
X144788095Y-26022200D01*
X144788095Y-26022200D02*
X144692857Y-25926961D01*
X144692857Y-25926961D02*
X144645238Y-25831723D01*
X144645238Y-25831723D02*
X144597619Y-25641247D01*
X144597619Y-25641247D02*
X144597619Y-25498390D01*
X144597619Y-25498390D02*
X144645238Y-25307914D01*
X144645238Y-25307914D02*
X144692857Y-25212676D01*
X144692857Y-25212676D02*
X144788095Y-25117438D01*
X144788095Y-25117438D02*
X144930952Y-25069819D01*
X144930952Y-25069819D02*
X145026190Y-25069819D01*
X145026190Y-25069819D02*
X145169047Y-25117438D01*
X145169047Y-25117438D02*
X145216666Y-25165057D01*
X145788095Y-26069819D02*
X145692857Y-26022200D01*
X145692857Y-26022200D02*
X145645238Y-25974580D01*
X145645238Y-25974580D02*
X145597619Y-25879342D01*
X145597619Y-25879342D02*
X145597619Y-25593628D01*
X145597619Y-25593628D02*
X145645238Y-25498390D01*
X145645238Y-25498390D02*
X145692857Y-25450771D01*
X145692857Y-25450771D02*
X145788095Y-25403152D01*
X145788095Y-25403152D02*
X145930952Y-25403152D01*
X145930952Y-25403152D02*
X146026190Y-25450771D01*
X146026190Y-25450771D02*
X146073809Y-25498390D01*
X146073809Y-25498390D02*
X146121428Y-25593628D01*
X146121428Y-25593628D02*
X146121428Y-25879342D01*
X146121428Y-25879342D02*
X146073809Y-25974580D01*
X146073809Y-25974580D02*
X146026190Y-26022200D01*
X146026190Y-26022200D02*
X145930952Y-26069819D01*
X145930952Y-26069819D02*
X145788095Y-26069819D01*
X146692857Y-26069819D02*
X146597619Y-26022200D01*
X146597619Y-26022200D02*
X146550000Y-25926961D01*
X146550000Y-25926961D02*
X146550000Y-25069819D01*
X147502381Y-25403152D02*
X147502381Y-26069819D01*
X147073810Y-25403152D02*
X147073810Y-25926961D01*
X147073810Y-25926961D02*
X147121429Y-26022200D01*
X147121429Y-26022200D02*
X147216667Y-26069819D01*
X147216667Y-26069819D02*
X147359524Y-26069819D01*
X147359524Y-26069819D02*
X147454762Y-26022200D01*
X147454762Y-26022200D02*
X147502381Y-25974580D01*
X147978572Y-26069819D02*
X147978572Y-25403152D01*
X147978572Y-25498390D02*
X148026191Y-25450771D01*
X148026191Y-25450771D02*
X148121429Y-25403152D01*
X148121429Y-25403152D02*
X148264286Y-25403152D01*
X148264286Y-25403152D02*
X148359524Y-25450771D01*
X148359524Y-25450771D02*
X148407143Y-25546009D01*
X148407143Y-25546009D02*
X148407143Y-26069819D01*
X148407143Y-25546009D02*
X148454762Y-25450771D01*
X148454762Y-25450771D02*
X148550000Y-25403152D01*
X148550000Y-25403152D02*
X148692857Y-25403152D01*
X148692857Y-25403152D02*
X148788096Y-25450771D01*
X148788096Y-25450771D02*
X148835715Y-25546009D01*
X148835715Y-25546009D02*
X148835715Y-26069819D01*
X149311905Y-25403152D02*
X149311905Y-26069819D01*
X149311905Y-25498390D02*
X149359524Y-25450771D01*
X149359524Y-25450771D02*
X149454762Y-25403152D01*
X149454762Y-25403152D02*
X149597619Y-25403152D01*
X149597619Y-25403152D02*
X149692857Y-25450771D01*
X149692857Y-25450771D02*
X149740476Y-25546009D01*
X149740476Y-25546009D02*
X149740476Y-26069819D01*
X150930953Y-25165057D02*
X150978572Y-25117438D01*
X150978572Y-25117438D02*
X151073810Y-25069819D01*
X151073810Y-25069819D02*
X151311905Y-25069819D01*
X151311905Y-25069819D02*
X151407143Y-25117438D01*
X151407143Y-25117438D02*
X151454762Y-25165057D01*
X151454762Y-25165057D02*
X151502381Y-25260295D01*
X151502381Y-25260295D02*
X151502381Y-25355533D01*
X151502381Y-25355533D02*
X151454762Y-25498390D01*
X151454762Y-25498390D02*
X150883334Y-26069819D01*
X150883334Y-26069819D02*
X151502381Y-26069819D01*
X125916666Y-25974580D02*
X125869047Y-26022200D01*
X125869047Y-26022200D02*
X125726190Y-26069819D01*
X125726190Y-26069819D02*
X125630952Y-26069819D01*
X125630952Y-26069819D02*
X125488095Y-26022200D01*
X125488095Y-26022200D02*
X125392857Y-25926961D01*
X125392857Y-25926961D02*
X125345238Y-25831723D01*
X125345238Y-25831723D02*
X125297619Y-25641247D01*
X125297619Y-25641247D02*
X125297619Y-25498390D01*
X125297619Y-25498390D02*
X125345238Y-25307914D01*
X125345238Y-25307914D02*
X125392857Y-25212676D01*
X125392857Y-25212676D02*
X125488095Y-25117438D01*
X125488095Y-25117438D02*
X125630952Y-25069819D01*
X125630952Y-25069819D02*
X125726190Y-25069819D01*
X125726190Y-25069819D02*
X125869047Y-25117438D01*
X125869047Y-25117438D02*
X125916666Y-25165057D01*
X126488095Y-26069819D02*
X126392857Y-26022200D01*
X126392857Y-26022200D02*
X126345238Y-25974580D01*
X126345238Y-25974580D02*
X126297619Y-25879342D01*
X126297619Y-25879342D02*
X126297619Y-25593628D01*
X126297619Y-25593628D02*
X126345238Y-25498390D01*
X126345238Y-25498390D02*
X126392857Y-25450771D01*
X126392857Y-25450771D02*
X126488095Y-25403152D01*
X126488095Y-25403152D02*
X126630952Y-25403152D01*
X126630952Y-25403152D02*
X126726190Y-25450771D01*
X126726190Y-25450771D02*
X126773809Y-25498390D01*
X126773809Y-25498390D02*
X126821428Y-25593628D01*
X126821428Y-25593628D02*
X126821428Y-25879342D01*
X126821428Y-25879342D02*
X126773809Y-25974580D01*
X126773809Y-25974580D02*
X126726190Y-26022200D01*
X126726190Y-26022200D02*
X126630952Y-26069819D01*
X126630952Y-26069819D02*
X126488095Y-26069819D01*
X127392857Y-26069819D02*
X127297619Y-26022200D01*
X127297619Y-26022200D02*
X127250000Y-25926961D01*
X127250000Y-25926961D02*
X127250000Y-25069819D01*
X128202381Y-25403152D02*
X128202381Y-26069819D01*
X127773810Y-25403152D02*
X127773810Y-25926961D01*
X127773810Y-25926961D02*
X127821429Y-26022200D01*
X127821429Y-26022200D02*
X127916667Y-26069819D01*
X127916667Y-26069819D02*
X128059524Y-26069819D01*
X128059524Y-26069819D02*
X128154762Y-26022200D01*
X128154762Y-26022200D02*
X128202381Y-25974580D01*
X128678572Y-26069819D02*
X128678572Y-25403152D01*
X128678572Y-25498390D02*
X128726191Y-25450771D01*
X128726191Y-25450771D02*
X128821429Y-25403152D01*
X128821429Y-25403152D02*
X128964286Y-25403152D01*
X128964286Y-25403152D02*
X129059524Y-25450771D01*
X129059524Y-25450771D02*
X129107143Y-25546009D01*
X129107143Y-25546009D02*
X129107143Y-26069819D01*
X129107143Y-25546009D02*
X129154762Y-25450771D01*
X129154762Y-25450771D02*
X129250000Y-25403152D01*
X129250000Y-25403152D02*
X129392857Y-25403152D01*
X129392857Y-25403152D02*
X129488096Y-25450771D01*
X129488096Y-25450771D02*
X129535715Y-25546009D01*
X129535715Y-25546009D02*
X129535715Y-26069819D01*
X130011905Y-25403152D02*
X130011905Y-26069819D01*
X130011905Y-25498390D02*
X130059524Y-25450771D01*
X130059524Y-25450771D02*
X130154762Y-25403152D01*
X130154762Y-25403152D02*
X130297619Y-25403152D01*
X130297619Y-25403152D02*
X130392857Y-25450771D01*
X130392857Y-25450771D02*
X130440476Y-25546009D01*
X130440476Y-25546009D02*
X130440476Y-26069819D01*
X131583334Y-25069819D02*
X132202381Y-25069819D01*
X132202381Y-25069819D02*
X131869048Y-25450771D01*
X131869048Y-25450771D02*
X132011905Y-25450771D01*
X132011905Y-25450771D02*
X132107143Y-25498390D01*
X132107143Y-25498390D02*
X132154762Y-25546009D01*
X132154762Y-25546009D02*
X132202381Y-25641247D01*
X132202381Y-25641247D02*
X132202381Y-25879342D01*
X132202381Y-25879342D02*
X132154762Y-25974580D01*
X132154762Y-25974580D02*
X132107143Y-26022200D01*
X132107143Y-26022200D02*
X132011905Y-26069819D01*
X132011905Y-26069819D02*
X131726191Y-26069819D01*
X131726191Y-26069819D02*
X131630953Y-26022200D01*
X131630953Y-26022200D02*
X131583334Y-25974580D01*
X164516666Y-25974580D02*
X164469047Y-26022200D01*
X164469047Y-26022200D02*
X164326190Y-26069819D01*
X164326190Y-26069819D02*
X164230952Y-26069819D01*
X164230952Y-26069819D02*
X164088095Y-26022200D01*
X164088095Y-26022200D02*
X163992857Y-25926961D01*
X163992857Y-25926961D02*
X163945238Y-25831723D01*
X163945238Y-25831723D02*
X163897619Y-25641247D01*
X163897619Y-25641247D02*
X163897619Y-25498390D01*
X163897619Y-25498390D02*
X163945238Y-25307914D01*
X163945238Y-25307914D02*
X163992857Y-25212676D01*
X163992857Y-25212676D02*
X164088095Y-25117438D01*
X164088095Y-25117438D02*
X164230952Y-25069819D01*
X164230952Y-25069819D02*
X164326190Y-25069819D01*
X164326190Y-25069819D02*
X164469047Y-25117438D01*
X164469047Y-25117438D02*
X164516666Y-25165057D01*
X165088095Y-26069819D02*
X164992857Y-26022200D01*
X164992857Y-26022200D02*
X164945238Y-25974580D01*
X164945238Y-25974580D02*
X164897619Y-25879342D01*
X164897619Y-25879342D02*
X164897619Y-25593628D01*
X164897619Y-25593628D02*
X164945238Y-25498390D01*
X164945238Y-25498390D02*
X164992857Y-25450771D01*
X164992857Y-25450771D02*
X165088095Y-25403152D01*
X165088095Y-25403152D02*
X165230952Y-25403152D01*
X165230952Y-25403152D02*
X165326190Y-25450771D01*
X165326190Y-25450771D02*
X165373809Y-25498390D01*
X165373809Y-25498390D02*
X165421428Y-25593628D01*
X165421428Y-25593628D02*
X165421428Y-25879342D01*
X165421428Y-25879342D02*
X165373809Y-25974580D01*
X165373809Y-25974580D02*
X165326190Y-26022200D01*
X165326190Y-26022200D02*
X165230952Y-26069819D01*
X165230952Y-26069819D02*
X165088095Y-26069819D01*
X165992857Y-26069819D02*
X165897619Y-26022200D01*
X165897619Y-26022200D02*
X165850000Y-25926961D01*
X165850000Y-25926961D02*
X165850000Y-25069819D01*
X166802381Y-25403152D02*
X166802381Y-26069819D01*
X166373810Y-25403152D02*
X166373810Y-25926961D01*
X166373810Y-25926961D02*
X166421429Y-26022200D01*
X166421429Y-26022200D02*
X166516667Y-26069819D01*
X166516667Y-26069819D02*
X166659524Y-26069819D01*
X166659524Y-26069819D02*
X166754762Y-26022200D01*
X166754762Y-26022200D02*
X166802381Y-25974580D01*
X167278572Y-26069819D02*
X167278572Y-25403152D01*
X167278572Y-25498390D02*
X167326191Y-25450771D01*
X167326191Y-25450771D02*
X167421429Y-25403152D01*
X167421429Y-25403152D02*
X167564286Y-25403152D01*
X167564286Y-25403152D02*
X167659524Y-25450771D01*
X167659524Y-25450771D02*
X167707143Y-25546009D01*
X167707143Y-25546009D02*
X167707143Y-26069819D01*
X167707143Y-25546009D02*
X167754762Y-25450771D01*
X167754762Y-25450771D02*
X167850000Y-25403152D01*
X167850000Y-25403152D02*
X167992857Y-25403152D01*
X167992857Y-25403152D02*
X168088096Y-25450771D01*
X168088096Y-25450771D02*
X168135715Y-25546009D01*
X168135715Y-25546009D02*
X168135715Y-26069819D01*
X168611905Y-25403152D02*
X168611905Y-26069819D01*
X168611905Y-25498390D02*
X168659524Y-25450771D01*
X168659524Y-25450771D02*
X168754762Y-25403152D01*
X168754762Y-25403152D02*
X168897619Y-25403152D01*
X168897619Y-25403152D02*
X168992857Y-25450771D01*
X168992857Y-25450771D02*
X169040476Y-25546009D01*
X169040476Y-25546009D02*
X169040476Y-26069819D01*
X170802381Y-26069819D02*
X170230953Y-26069819D01*
X170516667Y-26069819D02*
X170516667Y-25069819D01*
X170516667Y-25069819D02*
X170421429Y-25212676D01*
X170421429Y-25212676D02*
X170326191Y-25307914D01*
X170326191Y-25307914D02*
X170230953Y-25355533D01*
X68016666Y-25974580D02*
X67969047Y-26022200D01*
X67969047Y-26022200D02*
X67826190Y-26069819D01*
X67826190Y-26069819D02*
X67730952Y-26069819D01*
X67730952Y-26069819D02*
X67588095Y-26022200D01*
X67588095Y-26022200D02*
X67492857Y-25926961D01*
X67492857Y-25926961D02*
X67445238Y-25831723D01*
X67445238Y-25831723D02*
X67397619Y-25641247D01*
X67397619Y-25641247D02*
X67397619Y-25498390D01*
X67397619Y-25498390D02*
X67445238Y-25307914D01*
X67445238Y-25307914D02*
X67492857Y-25212676D01*
X67492857Y-25212676D02*
X67588095Y-25117438D01*
X67588095Y-25117438D02*
X67730952Y-25069819D01*
X67730952Y-25069819D02*
X67826190Y-25069819D01*
X67826190Y-25069819D02*
X67969047Y-25117438D01*
X67969047Y-25117438D02*
X68016666Y-25165057D01*
X68588095Y-26069819D02*
X68492857Y-26022200D01*
X68492857Y-26022200D02*
X68445238Y-25974580D01*
X68445238Y-25974580D02*
X68397619Y-25879342D01*
X68397619Y-25879342D02*
X68397619Y-25593628D01*
X68397619Y-25593628D02*
X68445238Y-25498390D01*
X68445238Y-25498390D02*
X68492857Y-25450771D01*
X68492857Y-25450771D02*
X68588095Y-25403152D01*
X68588095Y-25403152D02*
X68730952Y-25403152D01*
X68730952Y-25403152D02*
X68826190Y-25450771D01*
X68826190Y-25450771D02*
X68873809Y-25498390D01*
X68873809Y-25498390D02*
X68921428Y-25593628D01*
X68921428Y-25593628D02*
X68921428Y-25879342D01*
X68921428Y-25879342D02*
X68873809Y-25974580D01*
X68873809Y-25974580D02*
X68826190Y-26022200D01*
X68826190Y-26022200D02*
X68730952Y-26069819D01*
X68730952Y-26069819D02*
X68588095Y-26069819D01*
X69492857Y-26069819D02*
X69397619Y-26022200D01*
X69397619Y-26022200D02*
X69350000Y-25926961D01*
X69350000Y-25926961D02*
X69350000Y-25069819D01*
X70302381Y-25403152D02*
X70302381Y-26069819D01*
X69873810Y-25403152D02*
X69873810Y-25926961D01*
X69873810Y-25926961D02*
X69921429Y-26022200D01*
X69921429Y-26022200D02*
X70016667Y-26069819D01*
X70016667Y-26069819D02*
X70159524Y-26069819D01*
X70159524Y-26069819D02*
X70254762Y-26022200D01*
X70254762Y-26022200D02*
X70302381Y-25974580D01*
X70778572Y-26069819D02*
X70778572Y-25403152D01*
X70778572Y-25498390D02*
X70826191Y-25450771D01*
X70826191Y-25450771D02*
X70921429Y-25403152D01*
X70921429Y-25403152D02*
X71064286Y-25403152D01*
X71064286Y-25403152D02*
X71159524Y-25450771D01*
X71159524Y-25450771D02*
X71207143Y-25546009D01*
X71207143Y-25546009D02*
X71207143Y-26069819D01*
X71207143Y-25546009D02*
X71254762Y-25450771D01*
X71254762Y-25450771D02*
X71350000Y-25403152D01*
X71350000Y-25403152D02*
X71492857Y-25403152D01*
X71492857Y-25403152D02*
X71588096Y-25450771D01*
X71588096Y-25450771D02*
X71635715Y-25546009D01*
X71635715Y-25546009D02*
X71635715Y-26069819D01*
X72111905Y-25403152D02*
X72111905Y-26069819D01*
X72111905Y-25498390D02*
X72159524Y-25450771D01*
X72159524Y-25450771D02*
X72254762Y-25403152D01*
X72254762Y-25403152D02*
X72397619Y-25403152D01*
X72397619Y-25403152D02*
X72492857Y-25450771D01*
X72492857Y-25450771D02*
X72540476Y-25546009D01*
X72540476Y-25546009D02*
X72540476Y-26069819D01*
X74207143Y-25069819D02*
X74016667Y-25069819D01*
X74016667Y-25069819D02*
X73921429Y-25117438D01*
X73921429Y-25117438D02*
X73873810Y-25165057D01*
X73873810Y-25165057D02*
X73778572Y-25307914D01*
X73778572Y-25307914D02*
X73730953Y-25498390D01*
X73730953Y-25498390D02*
X73730953Y-25879342D01*
X73730953Y-25879342D02*
X73778572Y-25974580D01*
X73778572Y-25974580D02*
X73826191Y-26022200D01*
X73826191Y-26022200D02*
X73921429Y-26069819D01*
X73921429Y-26069819D02*
X74111905Y-26069819D01*
X74111905Y-26069819D02*
X74207143Y-26022200D01*
X74207143Y-26022200D02*
X74254762Y-25974580D01*
X74254762Y-25974580D02*
X74302381Y-25879342D01*
X74302381Y-25879342D02*
X74302381Y-25641247D01*
X74302381Y-25641247D02*
X74254762Y-25546009D01*
X74254762Y-25546009D02*
X74207143Y-25498390D01*
X74207143Y-25498390D02*
X74111905Y-25450771D01*
X74111905Y-25450771D02*
X73921429Y-25450771D01*
X73921429Y-25450771D02*
X73826191Y-25498390D01*
X73826191Y-25498390D02*
X73778572Y-25546009D01*
X73778572Y-25546009D02*
X73730953Y-25641247D01*
X36490951Y-79829819D02*
X36490951Y-80544104D01*
X36490951Y-80544104D02*
X36443332Y-80686961D01*
X36443332Y-80686961D02*
X36348094Y-80782200D01*
X36348094Y-80782200D02*
X36205237Y-80829819D01*
X36205237Y-80829819D02*
X36109999Y-80829819D01*
X37443332Y-80829819D02*
X36967142Y-80829819D01*
X36967142Y-80829819D02*
X36967142Y-79829819D01*
X38348094Y-80734580D02*
X38300475Y-80782200D01*
X38300475Y-80782200D02*
X38157618Y-80829819D01*
X38157618Y-80829819D02*
X38062380Y-80829819D01*
X38062380Y-80829819D02*
X37919523Y-80782200D01*
X37919523Y-80782200D02*
X37824285Y-80686961D01*
X37824285Y-80686961D02*
X37776666Y-80591723D01*
X37776666Y-80591723D02*
X37729047Y-80401247D01*
X37729047Y-80401247D02*
X37729047Y-80258390D01*
X37729047Y-80258390D02*
X37776666Y-80067914D01*
X37776666Y-80067914D02*
X37824285Y-79972676D01*
X37824285Y-79972676D02*
X37919523Y-79877438D01*
X37919523Y-79877438D02*
X38062380Y-79829819D01*
X38062380Y-79829819D02*
X38157618Y-79829819D01*
X38157618Y-79829819D02*
X38300475Y-79877438D01*
X38300475Y-79877438D02*
X38348094Y-79925057D01*
X39062380Y-79829819D02*
X39062380Y-80544104D01*
X39062380Y-80544104D02*
X39014761Y-80686961D01*
X39014761Y-80686961D02*
X38919523Y-80782200D01*
X38919523Y-80782200D02*
X38776666Y-80829819D01*
X38776666Y-80829819D02*
X38681428Y-80829819D01*
X40014761Y-80829819D02*
X39538571Y-80829819D01*
X39538571Y-80829819D02*
X39538571Y-79829819D01*
X40919523Y-80734580D02*
X40871904Y-80782200D01*
X40871904Y-80782200D02*
X40729047Y-80829819D01*
X40729047Y-80829819D02*
X40633809Y-80829819D01*
X40633809Y-80829819D02*
X40490952Y-80782200D01*
X40490952Y-80782200D02*
X40395714Y-80686961D01*
X40395714Y-80686961D02*
X40348095Y-80591723D01*
X40348095Y-80591723D02*
X40300476Y-80401247D01*
X40300476Y-80401247D02*
X40300476Y-80258390D01*
X40300476Y-80258390D02*
X40348095Y-80067914D01*
X40348095Y-80067914D02*
X40395714Y-79972676D01*
X40395714Y-79972676D02*
X40490952Y-79877438D01*
X40490952Y-79877438D02*
X40633809Y-79829819D01*
X40633809Y-79829819D02*
X40729047Y-79829819D01*
X40729047Y-79829819D02*
X40871904Y-79877438D01*
X40871904Y-79877438D02*
X40919523Y-79925057D01*
X41633809Y-79829819D02*
X41633809Y-80544104D01*
X41633809Y-80544104D02*
X41586190Y-80686961D01*
X41586190Y-80686961D02*
X41490952Y-80782200D01*
X41490952Y-80782200D02*
X41348095Y-80829819D01*
X41348095Y-80829819D02*
X41252857Y-80829819D01*
X42586190Y-80829819D02*
X42110000Y-80829819D01*
X42110000Y-80829819D02*
X42110000Y-79829819D01*
X43490952Y-80734580D02*
X43443333Y-80782200D01*
X43443333Y-80782200D02*
X43300476Y-80829819D01*
X43300476Y-80829819D02*
X43205238Y-80829819D01*
X43205238Y-80829819D02*
X43062381Y-80782200D01*
X43062381Y-80782200D02*
X42967143Y-80686961D01*
X42967143Y-80686961D02*
X42919524Y-80591723D01*
X42919524Y-80591723D02*
X42871905Y-80401247D01*
X42871905Y-80401247D02*
X42871905Y-80258390D01*
X42871905Y-80258390D02*
X42919524Y-80067914D01*
X42919524Y-80067914D02*
X42967143Y-79972676D01*
X42967143Y-79972676D02*
X43062381Y-79877438D01*
X43062381Y-79877438D02*
X43205238Y-79829819D01*
X43205238Y-79829819D02*
X43300476Y-79829819D01*
X43300476Y-79829819D02*
X43443333Y-79877438D01*
X43443333Y-79877438D02*
X43490952Y-79925057D01*
X44205238Y-79829819D02*
X44205238Y-80544104D01*
X44205238Y-80544104D02*
X44157619Y-80686961D01*
X44157619Y-80686961D02*
X44062381Y-80782200D01*
X44062381Y-80782200D02*
X43919524Y-80829819D01*
X43919524Y-80829819D02*
X43824286Y-80829819D01*
X45157619Y-80829819D02*
X44681429Y-80829819D01*
X44681429Y-80829819D02*
X44681429Y-79829819D01*
X46062381Y-80734580D02*
X46014762Y-80782200D01*
X46014762Y-80782200D02*
X45871905Y-80829819D01*
X45871905Y-80829819D02*
X45776667Y-80829819D01*
X45776667Y-80829819D02*
X45633810Y-80782200D01*
X45633810Y-80782200D02*
X45538572Y-80686961D01*
X45538572Y-80686961D02*
X45490953Y-80591723D01*
X45490953Y-80591723D02*
X45443334Y-80401247D01*
X45443334Y-80401247D02*
X45443334Y-80258390D01*
X45443334Y-80258390D02*
X45490953Y-80067914D01*
X45490953Y-80067914D02*
X45538572Y-79972676D01*
X45538572Y-79972676D02*
X45633810Y-79877438D01*
X45633810Y-79877438D02*
X45776667Y-79829819D01*
X45776667Y-79829819D02*
X45871905Y-79829819D01*
X45871905Y-79829819D02*
X46014762Y-79877438D01*
X46014762Y-79877438D02*
X46062381Y-79925057D01*
X38074819Y-71536904D02*
X38074819Y-70965476D01*
X39074819Y-71251190D02*
X38074819Y-71251190D01*
X39074819Y-70060714D02*
X38598628Y-70394047D01*
X39074819Y-70632142D02*
X38074819Y-70632142D01*
X38074819Y-70632142D02*
X38074819Y-70251190D01*
X38074819Y-70251190D02*
X38122438Y-70155952D01*
X38122438Y-70155952D02*
X38170057Y-70108333D01*
X38170057Y-70108333D02*
X38265295Y-70060714D01*
X38265295Y-70060714D02*
X38408152Y-70060714D01*
X38408152Y-70060714D02*
X38503390Y-70108333D01*
X38503390Y-70108333D02*
X38551009Y-70155952D01*
X38551009Y-70155952D02*
X38598628Y-70251190D01*
X38598628Y-70251190D02*
X38598628Y-70632142D01*
X39074819Y-69060714D02*
X38598628Y-69394047D01*
X39074819Y-69632142D02*
X38074819Y-69632142D01*
X38074819Y-69632142D02*
X38074819Y-69251190D01*
X38074819Y-69251190D02*
X38122438Y-69155952D01*
X38122438Y-69155952D02*
X38170057Y-69108333D01*
X38170057Y-69108333D02*
X38265295Y-69060714D01*
X38265295Y-69060714D02*
X38408152Y-69060714D01*
X38408152Y-69060714D02*
X38503390Y-69108333D01*
X38503390Y-69108333D02*
X38551009Y-69155952D01*
X38551009Y-69155952D02*
X38598628Y-69251190D01*
X38598628Y-69251190D02*
X38598628Y-69632142D01*
X39027200Y-68679761D02*
X39074819Y-68536904D01*
X39074819Y-68536904D02*
X39074819Y-68298809D01*
X39074819Y-68298809D02*
X39027200Y-68203571D01*
X39027200Y-68203571D02*
X38979580Y-68155952D01*
X38979580Y-68155952D02*
X38884342Y-68108333D01*
X38884342Y-68108333D02*
X38789104Y-68108333D01*
X38789104Y-68108333D02*
X38693866Y-68155952D01*
X38693866Y-68155952D02*
X38646247Y-68203571D01*
X38646247Y-68203571D02*
X38598628Y-68298809D01*
X38598628Y-68298809D02*
X38551009Y-68489285D01*
X38551009Y-68489285D02*
X38503390Y-68584523D01*
X38503390Y-68584523D02*
X38455771Y-68632142D01*
X38455771Y-68632142D02*
X38360533Y-68679761D01*
X38360533Y-68679761D02*
X38265295Y-68679761D01*
X38265295Y-68679761D02*
X38170057Y-68632142D01*
X38170057Y-68632142D02*
X38122438Y-68584523D01*
X38122438Y-68584523D02*
X38074819Y-68489285D01*
X38074819Y-68489285D02*
X38074819Y-68251190D01*
X38074819Y-68251190D02*
X38122438Y-68108333D01*
X38074819Y-71536904D02*
X38074819Y-70965476D01*
X39074819Y-71251190D02*
X38074819Y-71251190D01*
X39074819Y-70060714D02*
X38598628Y-70394047D01*
X39074819Y-70632142D02*
X38074819Y-70632142D01*
X38074819Y-70632142D02*
X38074819Y-70251190D01*
X38074819Y-70251190D02*
X38122438Y-70155952D01*
X38122438Y-70155952D02*
X38170057Y-70108333D01*
X38170057Y-70108333D02*
X38265295Y-70060714D01*
X38265295Y-70060714D02*
X38408152Y-70060714D01*
X38408152Y-70060714D02*
X38503390Y-70108333D01*
X38503390Y-70108333D02*
X38551009Y-70155952D01*
X38551009Y-70155952D02*
X38598628Y-70251190D01*
X38598628Y-70251190D02*
X38598628Y-70632142D01*
X39074819Y-69060714D02*
X38598628Y-69394047D01*
X39074819Y-69632142D02*
X38074819Y-69632142D01*
X38074819Y-69632142D02*
X38074819Y-69251190D01*
X38074819Y-69251190D02*
X38122438Y-69155952D01*
X38122438Y-69155952D02*
X38170057Y-69108333D01*
X38170057Y-69108333D02*
X38265295Y-69060714D01*
X38265295Y-69060714D02*
X38408152Y-69060714D01*
X38408152Y-69060714D02*
X38503390Y-69108333D01*
X38503390Y-69108333D02*
X38551009Y-69155952D01*
X38551009Y-69155952D02*
X38598628Y-69251190D01*
X38598628Y-69251190D02*
X38598628Y-69632142D01*
X39027200Y-68679761D02*
X39074819Y-68536904D01*
X39074819Y-68536904D02*
X39074819Y-68298809D01*
X39074819Y-68298809D02*
X39027200Y-68203571D01*
X39027200Y-68203571D02*
X38979580Y-68155952D01*
X38979580Y-68155952D02*
X38884342Y-68108333D01*
X38884342Y-68108333D02*
X38789104Y-68108333D01*
X38789104Y-68108333D02*
X38693866Y-68155952D01*
X38693866Y-68155952D02*
X38646247Y-68203571D01*
X38646247Y-68203571D02*
X38598628Y-68298809D01*
X38598628Y-68298809D02*
X38551009Y-68489285D01*
X38551009Y-68489285D02*
X38503390Y-68584523D01*
X38503390Y-68584523D02*
X38455771Y-68632142D01*
X38455771Y-68632142D02*
X38360533Y-68679761D01*
X38360533Y-68679761D02*
X38265295Y-68679761D01*
X38265295Y-68679761D02*
X38170057Y-68632142D01*
X38170057Y-68632142D02*
X38122438Y-68584523D01*
X38122438Y-68584523D02*
X38074819Y-68489285D01*
X38074819Y-68489285D02*
X38074819Y-68251190D01*
X38074819Y-68251190D02*
X38122438Y-68108333D01*
X33408819Y-54099333D02*
X34123104Y-54099333D01*
X34123104Y-54099333D02*
X34265961Y-54146952D01*
X34265961Y-54146952D02*
X34361200Y-54242190D01*
X34361200Y-54242190D02*
X34408819Y-54385047D01*
X34408819Y-54385047D02*
X34408819Y-54480285D01*
X34408819Y-53575523D02*
X34408819Y-53385047D01*
X34408819Y-53385047D02*
X34361200Y-53289809D01*
X34361200Y-53289809D02*
X34313580Y-53242190D01*
X34313580Y-53242190D02*
X34170723Y-53146952D01*
X34170723Y-53146952D02*
X33980247Y-53099333D01*
X33980247Y-53099333D02*
X33599295Y-53099333D01*
X33599295Y-53099333D02*
X33504057Y-53146952D01*
X33504057Y-53146952D02*
X33456438Y-53194571D01*
X33456438Y-53194571D02*
X33408819Y-53289809D01*
X33408819Y-53289809D02*
X33408819Y-53480285D01*
X33408819Y-53480285D02*
X33456438Y-53575523D01*
X33456438Y-53575523D02*
X33504057Y-53623142D01*
X33504057Y-53623142D02*
X33599295Y-53670761D01*
X33599295Y-53670761D02*
X33837390Y-53670761D01*
X33837390Y-53670761D02*
X33932628Y-53623142D01*
X33932628Y-53623142D02*
X33980247Y-53575523D01*
X33980247Y-53575523D02*
X34027866Y-53480285D01*
X34027866Y-53480285D02*
X34027866Y-53289809D01*
X34027866Y-53289809D02*
X33980247Y-53194571D01*
X33980247Y-53194571D02*
X33932628Y-53146952D01*
X33932628Y-53146952D02*
X33837390Y-53099333D01*
X55154819Y-35290475D02*
X55154819Y-34623809D01*
X55154819Y-34623809D02*
X56154819Y-35052380D01*
X55488152Y-33814285D02*
X56154819Y-33814285D01*
X55107200Y-34052380D02*
X55821485Y-34290475D01*
X55821485Y-34290475D02*
X55821485Y-33671428D01*
X56154819Y-33290475D02*
X55154819Y-33290475D01*
X55631009Y-33290475D02*
X55631009Y-32719047D01*
X56154819Y-32719047D02*
X55154819Y-32719047D01*
X56059580Y-31671428D02*
X56107200Y-31719047D01*
X56107200Y-31719047D02*
X56154819Y-31861904D01*
X56154819Y-31861904D02*
X56154819Y-31957142D01*
X56154819Y-31957142D02*
X56107200Y-32099999D01*
X56107200Y-32099999D02*
X56011961Y-32195237D01*
X56011961Y-32195237D02*
X55916723Y-32242856D01*
X55916723Y-32242856D02*
X55726247Y-32290475D01*
X55726247Y-32290475D02*
X55583390Y-32290475D01*
X55583390Y-32290475D02*
X55392914Y-32242856D01*
X55392914Y-32242856D02*
X55297676Y-32195237D01*
X55297676Y-32195237D02*
X55202438Y-32099999D01*
X55202438Y-32099999D02*
X55154819Y-31957142D01*
X55154819Y-31957142D02*
X55154819Y-31861904D01*
X55154819Y-31861904D02*
X55202438Y-31719047D01*
X55202438Y-31719047D02*
X55250057Y-31671428D01*
X55154819Y-30766666D02*
X55154819Y-31242856D01*
X55154819Y-31242856D02*
X55631009Y-31290475D01*
X55631009Y-31290475D02*
X55583390Y-31242856D01*
X55583390Y-31242856D02*
X55535771Y-31147618D01*
X55535771Y-31147618D02*
X55535771Y-30909523D01*
X55535771Y-30909523D02*
X55583390Y-30814285D01*
X55583390Y-30814285D02*
X55631009Y-30766666D01*
X55631009Y-30766666D02*
X55726247Y-30719047D01*
X55726247Y-30719047D02*
X55964342Y-30719047D01*
X55964342Y-30719047D02*
X56059580Y-30766666D01*
X56059580Y-30766666D02*
X56107200Y-30814285D01*
X56107200Y-30814285D02*
X56154819Y-30909523D01*
X56154819Y-30909523D02*
X56154819Y-31147618D01*
X56154819Y-31147618D02*
X56107200Y-31242856D01*
X56107200Y-31242856D02*
X56059580Y-31290475D01*
X56154819Y-30242856D02*
X56154819Y-30052380D01*
X56154819Y-30052380D02*
X56107200Y-29957142D01*
X56107200Y-29957142D02*
X56059580Y-29909523D01*
X56059580Y-29909523D02*
X55916723Y-29814285D01*
X55916723Y-29814285D02*
X55726247Y-29766666D01*
X55726247Y-29766666D02*
X55345295Y-29766666D01*
X55345295Y-29766666D02*
X55250057Y-29814285D01*
X55250057Y-29814285D02*
X55202438Y-29861904D01*
X55202438Y-29861904D02*
X55154819Y-29957142D01*
X55154819Y-29957142D02*
X55154819Y-30147618D01*
X55154819Y-30147618D02*
X55202438Y-30242856D01*
X55202438Y-30242856D02*
X55250057Y-30290475D01*
X55250057Y-30290475D02*
X55345295Y-30338094D01*
X55345295Y-30338094D02*
X55583390Y-30338094D01*
X55583390Y-30338094D02*
X55678628Y-30290475D01*
X55678628Y-30290475D02*
X55726247Y-30242856D01*
X55726247Y-30242856D02*
X55773866Y-30147618D01*
X55773866Y-30147618D02*
X55773866Y-29957142D01*
X55773866Y-29957142D02*
X55726247Y-29861904D01*
X55726247Y-29861904D02*
X55678628Y-29814285D01*
X55678628Y-29814285D02*
X55583390Y-29766666D01*
X55154819Y-28861904D02*
X55154819Y-29338094D01*
X55154819Y-29338094D02*
X55631009Y-29385713D01*
X55631009Y-29385713D02*
X55583390Y-29338094D01*
X55583390Y-29338094D02*
X55535771Y-29242856D01*
X55535771Y-29242856D02*
X55535771Y-29004761D01*
X55535771Y-29004761D02*
X55583390Y-28909523D01*
X55583390Y-28909523D02*
X55631009Y-28861904D01*
X55631009Y-28861904D02*
X55726247Y-28814285D01*
X55726247Y-28814285D02*
X55964342Y-28814285D01*
X55964342Y-28814285D02*
X56059580Y-28861904D01*
X56059580Y-28861904D02*
X56107200Y-28909523D01*
X56107200Y-28909523D02*
X56154819Y-29004761D01*
X56154819Y-29004761D02*
X56154819Y-29242856D01*
X56154819Y-29242856D02*
X56107200Y-29338094D01*
X56107200Y-29338094D02*
X56059580Y-29385713D01*
X55869104Y-28433332D02*
X55869104Y-27957142D01*
X56154819Y-28528570D02*
X55154819Y-28195237D01*
X55154819Y-28195237D02*
X56154819Y-27861904D01*
X40904819Y-60411904D02*
X41714342Y-60411904D01*
X41714342Y-60411904D02*
X41809580Y-60364285D01*
X41809580Y-60364285D02*
X41857200Y-60316666D01*
X41857200Y-60316666D02*
X41904819Y-60221428D01*
X41904819Y-60221428D02*
X41904819Y-60030952D01*
X41904819Y-60030952D02*
X41857200Y-59935714D01*
X41857200Y-59935714D02*
X41809580Y-59888095D01*
X41809580Y-59888095D02*
X41714342Y-59840476D01*
X41714342Y-59840476D02*
X40904819Y-59840476D01*
X40904819Y-59459523D02*
X40904819Y-58840476D01*
X40904819Y-58840476D02*
X41285771Y-59173809D01*
X41285771Y-59173809D02*
X41285771Y-59030952D01*
X41285771Y-59030952D02*
X41333390Y-58935714D01*
X41333390Y-58935714D02*
X41381009Y-58888095D01*
X41381009Y-58888095D02*
X41476247Y-58840476D01*
X41476247Y-58840476D02*
X41714342Y-58840476D01*
X41714342Y-58840476D02*
X41809580Y-58888095D01*
X41809580Y-58888095D02*
X41857200Y-58935714D01*
X41857200Y-58935714D02*
X41904819Y-59030952D01*
X41904819Y-59030952D02*
X41904819Y-59316666D01*
X41904819Y-59316666D02*
X41857200Y-59411904D01*
X41857200Y-59411904D02*
X41809580Y-59459523D01*
X40690476Y-93454819D02*
X40690476Y-94169104D01*
X40690476Y-94169104D02*
X40642857Y-94311961D01*
X40642857Y-94311961D02*
X40547619Y-94407200D01*
X40547619Y-94407200D02*
X40404762Y-94454819D01*
X40404762Y-94454819D02*
X40309524Y-94454819D01*
X41690476Y-94454819D02*
X41119048Y-94454819D01*
X41404762Y-94454819D02*
X41404762Y-93454819D01*
X41404762Y-93454819D02*
X41309524Y-93597676D01*
X41309524Y-93597676D02*
X41214286Y-93692914D01*
X41214286Y-93692914D02*
X41119048Y-93740533D01*
X42309524Y-93454819D02*
X42404762Y-93454819D01*
X42404762Y-93454819D02*
X42500000Y-93502438D01*
X42500000Y-93502438D02*
X42547619Y-93550057D01*
X42547619Y-93550057D02*
X42595238Y-93645295D01*
X42595238Y-93645295D02*
X42642857Y-93835771D01*
X42642857Y-93835771D02*
X42642857Y-94073866D01*
X42642857Y-94073866D02*
X42595238Y-94264342D01*
X42595238Y-94264342D02*
X42547619Y-94359580D01*
X42547619Y-94359580D02*
X42500000Y-94407200D01*
X42500000Y-94407200D02*
X42404762Y-94454819D01*
X42404762Y-94454819D02*
X42309524Y-94454819D01*
X42309524Y-94454819D02*
X42214286Y-94407200D01*
X42214286Y-94407200D02*
X42166667Y-94359580D01*
X42166667Y-94359580D02*
X42119048Y-94264342D01*
X42119048Y-94264342D02*
X42071429Y-94073866D01*
X42071429Y-94073866D02*
X42071429Y-93835771D01*
X42071429Y-93835771D02*
X42119048Y-93645295D01*
X42119048Y-93645295D02*
X42166667Y-93550057D01*
X42166667Y-93550057D02*
X42214286Y-93502438D01*
X42214286Y-93502438D02*
X42309524Y-93454819D01*
X51954819Y-82438094D02*
X50954819Y-82438094D01*
X50954819Y-82438094D02*
X50954819Y-82199999D01*
X50954819Y-82199999D02*
X51002438Y-82057142D01*
X51002438Y-82057142D02*
X51097676Y-81961904D01*
X51097676Y-81961904D02*
X51192914Y-81914285D01*
X51192914Y-81914285D02*
X51383390Y-81866666D01*
X51383390Y-81866666D02*
X51526247Y-81866666D01*
X51526247Y-81866666D02*
X51716723Y-81914285D01*
X51716723Y-81914285D02*
X51811961Y-81961904D01*
X51811961Y-81961904D02*
X51907200Y-82057142D01*
X51907200Y-82057142D02*
X51954819Y-82199999D01*
X51954819Y-82199999D02*
X51954819Y-82438094D01*
X51954819Y-80914285D02*
X51954819Y-81485713D01*
X51954819Y-81199999D02*
X50954819Y-81199999D01*
X50954819Y-81199999D02*
X51097676Y-81295237D01*
X51097676Y-81295237D02*
X51192914Y-81390475D01*
X51192914Y-81390475D02*
X51240533Y-81485713D01*
D11*
X35010000Y-75060000D02*
X35010000Y-86860000D01*
X39110000Y-75060000D02*
X35010000Y-75060000D01*
X39110000Y-86860000D02*
X35010000Y-86860000D01*
X40610000Y-80960000D02*
X41610000Y-80960000D01*
X41110000Y-80460000D02*
X41110000Y-81460000D01*
X43110000Y-75060000D02*
X47210000Y-75060000D01*
X47210000Y-75060000D02*
X47210000Y-77460000D01*
X47210000Y-79660000D02*
X47210000Y-82260000D01*
X47210000Y-84460000D02*
X47210000Y-86860000D01*
X47210000Y-86860000D02*
X43110000Y-86860000D01*
X44110000Y-80960000D02*
G75*
G02*
X38110000Y-80960000I-3000000J0D01*
G01*
X38110000Y-80960000D02*
G75*
G02*
X44110000Y-80960000I3000000J0D01*
G01*
D10*
X32170000Y-66025000D02*
X44170000Y-66025000D01*
X32170000Y-72025000D02*
X32170000Y-66025000D01*
X43670000Y-66025000D02*
X43670000Y-72025000D01*
X44170000Y-72025000D02*
X32170000Y-72025000D01*
D11*
X69122800Y-30976000D02*
X72577200Y-30976000D01*
X72577200Y-34024000D02*
X69122800Y-34024000D01*
X75231000Y-31750000D02*
G75*
G02*
X74469000Y-31750000I-381000J0D01*
G01*
X74469000Y-31750000D02*
G75*
G02*
X75231000Y-31750000I381000J0D01*
G01*
X165622800Y-30976000D02*
X169077200Y-30976000D01*
X169077200Y-34024000D02*
X165622800Y-34024000D01*
X171731000Y-31750000D02*
G75*
G02*
X170969000Y-31750000I-381000J0D01*
G01*
X170969000Y-31750000D02*
G75*
G02*
X171731000Y-31750000I381000J0D01*
G01*
X127022800Y-30976000D02*
X130477200Y-30976000D01*
X130477200Y-34024000D02*
X127022800Y-34024000D01*
X133131000Y-31750000D02*
G75*
G02*
X132369000Y-31750000I-381000J0D01*
G01*
X132369000Y-31750000D02*
G75*
G02*
X133131000Y-31750000I381000J0D01*
G01*
X107722800Y-30976000D02*
X111177200Y-30976000D01*
X111177200Y-34024000D02*
X107722800Y-34024000D01*
X113831000Y-31750000D02*
G75*
G02*
X113069000Y-31750000I-381000J0D01*
G01*
X113069000Y-31750000D02*
G75*
G02*
X113831000Y-31750000I381000J0D01*
G01*
X34954000Y-55096000D02*
X34954000Y-53766000D01*
X36284000Y-55096000D02*
X34954000Y-55096000D01*
X37554000Y-52436000D02*
X47774000Y-52436000D01*
X37554000Y-55096000D02*
X37554000Y-52436000D01*
X37554000Y-55096000D02*
X47774000Y-55096000D01*
X47774000Y-55096000D02*
X47774000Y-52436000D01*
D12*
X30900000Y-57232000D02*
X30900000Y-63032000D01*
X31900000Y-56782000D02*
X32500000Y-56782000D01*
X32500000Y-63482000D02*
X31900000Y-63482000D01*
X33500000Y-58532000D02*
X33500000Y-60232000D01*
D13*
X34800000Y-56932000D02*
G75*
G02*
X34600000Y-56932000I-100000J0D01*
G01*
X34600000Y-56932000D02*
G75*
G02*
X34800000Y-56932000I100000J0D01*
G01*
D14*
X53744200Y-26520000D02*
X53744200Y-36680000D01*
X55065000Y-36680000D02*
X53744200Y-36680000D01*
D15*
X57300200Y-36680000D02*
X57300200Y-26520000D01*
D14*
X57655800Y-26520000D02*
X53744200Y-26520000D01*
X57655800Y-36680000D02*
X56335000Y-36680000D01*
X57655800Y-36680000D02*
X57655800Y-26520000D01*
X55065000Y-36680000D02*
G75*
G02*
X56335000Y-36680000I635000J0D01*
G01*
D16*
X37599500Y-56632000D02*
X37599500Y-57532000D01*
X37599500Y-57532000D02*
X39199500Y-57532000D01*
X37599500Y-61732000D02*
X39199500Y-61732000D01*
X37599500Y-62632000D02*
X37599500Y-61732000D01*
X37999500Y-62182000D02*
X38699500Y-62032000D01*
X38699500Y-62032000D02*
X38699500Y-62332000D01*
X38699500Y-62332000D02*
X37999500Y-62182000D01*
X39199500Y-56632000D02*
X37599500Y-56632000D01*
X39199500Y-56632000D02*
X39199500Y-57735000D01*
X39199500Y-56632000D02*
X45199500Y-56632000D01*
X39199500Y-57532000D02*
X43499500Y-57532000D01*
X39199500Y-59529000D02*
X39199500Y-59735000D01*
X39199500Y-60757000D02*
X43499500Y-60757000D01*
X39199500Y-61529000D02*
X39199500Y-62632000D01*
X39199500Y-62632000D02*
X37599500Y-62632000D01*
X40948500Y-58933000D02*
X40948500Y-60282000D01*
X40948500Y-60282000D02*
X45200500Y-60282000D01*
X41599500Y-57532000D02*
X41599500Y-58482000D01*
X41599500Y-60757000D02*
X41599500Y-61707000D01*
X43499500Y-57532000D02*
X43499500Y-58482000D01*
X43499500Y-58482000D02*
X39199500Y-58482000D01*
X43499500Y-60757000D02*
X43499500Y-61707000D01*
X43499500Y-61707000D02*
X39199500Y-61707000D01*
X45199500Y-56632000D02*
X45199500Y-62632000D01*
X45199500Y-58932000D02*
X45200500Y-58933000D01*
X45199500Y-62632000D02*
X39199500Y-62632000D01*
X45200500Y-58933000D02*
X40948500Y-58933000D01*
D10*
X32460000Y-21016000D02*
X32460000Y-51496000D01*
X32460000Y-21016000D02*
X50240000Y-21016000D01*
X50240000Y-21016000D02*
X50240000Y-51496000D01*
X50240000Y-51496000D02*
X32460000Y-51496000D01*
D16*
X35300000Y-91422000D02*
X36469000Y-91422000D01*
X35300000Y-93962000D02*
X35300000Y-91422000D01*
X46531000Y-91422000D02*
X47640000Y-91422000D01*
X46608000Y-96100000D02*
X36392000Y-96100000D01*
X47640000Y-91422000D02*
X47640000Y-93859000D01*
X36125000Y-91740000D02*
G75*
G02*
X35875000Y-91740000I-125000J0D01*
G01*
X35875000Y-91740000D02*
G75*
G02*
X36125000Y-91740000I125000J0D01*
G01*
D11*
X146322800Y-30976000D02*
X149777200Y-30976000D01*
X149777200Y-34024000D02*
X146322800Y-34024000D01*
X152431000Y-31750000D02*
G75*
G02*
X151669000Y-31750000I-381000J0D01*
G01*
X151669000Y-31750000D02*
G75*
G02*
X152431000Y-31750000I381000J0D01*
G01*
X50500000Y-79340000D02*
X50500000Y-83350000D01*
X52500000Y-79340000D02*
X50500000Y-79340000D01*
X52500000Y-79340000D02*
X52500000Y-83350000D01*
X88422800Y-30976000D02*
X91877200Y-30976000D01*
X91877200Y-34024000D02*
X88422800Y-34024000D01*
X94531000Y-31750000D02*
G75*
G02*
X93769000Y-31750000I-381000J0D01*
G01*
X93769000Y-31750000D02*
G75*
G02*
X94531000Y-31750000I381000J0D01*
G01*
D17*
X33670000Y-70775000D03*
X40670000Y-70775000D03*
X33670000Y-69025000D03*
X40670000Y-69025000D03*
D18*
X42470000Y-66925000D03*
X38470000Y-66925000D03*
X35470000Y-66925000D03*
X43470000Y-71125000D03*
%LPC*%
D13*
X40713000Y-22286000D02*
G75*
G02*
X40463000Y-22286000I-125000J0D01*
G01*
X40463000Y-22286000D02*
G75*
G02*
X40713000Y-22286000I125000J0D01*
G01*
X40713000Y-24826000D02*
G75*
G02*
X40463000Y-24826000I-125000J0D01*
G01*
X40463000Y-24826000D02*
G75*
G02*
X40713000Y-24826000I125000J0D01*
G01*
X40713000Y-27366000D02*
G75*
G02*
X40463000Y-27366000I-125000J0D01*
G01*
X40463000Y-27366000D02*
G75*
G02*
X40713000Y-27366000I125000J0D01*
G01*
X40713000Y-29906000D02*
G75*
G02*
X40463000Y-29906000I-125000J0D01*
G01*
X40463000Y-29906000D02*
G75*
G02*
X40713000Y-29906000I125000J0D01*
G01*
X40713000Y-32446000D02*
G75*
G02*
X40463000Y-32446000I-125000J0D01*
G01*
X40463000Y-32446000D02*
G75*
G02*
X40713000Y-32446000I125000J0D01*
G01*
X40713000Y-34986000D02*
G75*
G02*
X40463000Y-34986000I-125000J0D01*
G01*
X40463000Y-34986000D02*
G75*
G02*
X40713000Y-34986000I125000J0D01*
G01*
X40713000Y-37526000D02*
G75*
G02*
X40463000Y-37526000I-125000J0D01*
G01*
X40463000Y-37526000D02*
G75*
G02*
X40713000Y-37526000I125000J0D01*
G01*
X40713000Y-40066000D02*
G75*
G02*
X40463000Y-40066000I-125000J0D01*
G01*
X40463000Y-40066000D02*
G75*
G02*
X40713000Y-40066000I125000J0D01*
G01*
X40713000Y-42606000D02*
G75*
G02*
X40463000Y-42606000I-125000J0D01*
G01*
X40463000Y-42606000D02*
G75*
G02*
X40713000Y-42606000I125000J0D01*
G01*
X40713000Y-45146000D02*
G75*
G02*
X40463000Y-45146000I-125000J0D01*
G01*
X40463000Y-45146000D02*
G75*
G02*
X40713000Y-45146000I125000J0D01*
G01*
X40713000Y-47686000D02*
G75*
G02*
X40463000Y-47686000I-125000J0D01*
G01*
X40463000Y-47686000D02*
G75*
G02*
X40713000Y-47686000I125000J0D01*
G01*
X40713000Y-50226000D02*
G75*
G02*
X40463000Y-50226000I-125000J0D01*
G01*
X40463000Y-50226000D02*
G75*
G02*
X40713000Y-50226000I125000J0D01*
G01*
X42237000Y-22286000D02*
G75*
G02*
X41987000Y-22286000I-125000J0D01*
G01*
X41987000Y-22286000D02*
G75*
G02*
X42237000Y-22286000I125000J0D01*
G01*
X42237000Y-24826000D02*
G75*
G02*
X41987000Y-24826000I-125000J0D01*
G01*
X41987000Y-24826000D02*
G75*
G02*
X42237000Y-24826000I125000J0D01*
G01*
X42237000Y-27366000D02*
G75*
G02*
X41987000Y-27366000I-125000J0D01*
G01*
X41987000Y-27366000D02*
G75*
G02*
X42237000Y-27366000I125000J0D01*
G01*
X42237000Y-29906000D02*
G75*
G02*
X41987000Y-29906000I-125000J0D01*
G01*
X41987000Y-29906000D02*
G75*
G02*
X42237000Y-29906000I125000J0D01*
G01*
X42237000Y-32446000D02*
G75*
G02*
X41987000Y-32446000I-125000J0D01*
G01*
X41987000Y-32446000D02*
G75*
G02*
X42237000Y-32446000I125000J0D01*
G01*
X42237000Y-34986000D02*
G75*
G02*
X41987000Y-34986000I-125000J0D01*
G01*
X41987000Y-34986000D02*
G75*
G02*
X42237000Y-34986000I125000J0D01*
G01*
X42237000Y-37526000D02*
G75*
G02*
X41987000Y-37526000I-125000J0D01*
G01*
X41987000Y-37526000D02*
G75*
G02*
X42237000Y-37526000I125000J0D01*
G01*
X42237000Y-40066000D02*
G75*
G02*
X41987000Y-40066000I-125000J0D01*
G01*
X41987000Y-40066000D02*
G75*
G02*
X42237000Y-40066000I125000J0D01*
G01*
X42237000Y-42606000D02*
G75*
G02*
X41987000Y-42606000I-125000J0D01*
G01*
X41987000Y-42606000D02*
G75*
G02*
X42237000Y-42606000I125000J0D01*
G01*
X42237000Y-45146000D02*
G75*
G02*
X41987000Y-45146000I-125000J0D01*
G01*
X41987000Y-45146000D02*
G75*
G02*
X42237000Y-45146000I125000J0D01*
G01*
X42237000Y-47686000D02*
G75*
G02*
X41987000Y-47686000I-125000J0D01*
G01*
X41987000Y-47686000D02*
G75*
G02*
X42237000Y-47686000I125000J0D01*
G01*
X42237000Y-50226000D02*
G75*
G02*
X41987000Y-50226000I-125000J0D01*
G01*
X41987000Y-50226000D02*
G75*
G02*
X42237000Y-50226000I125000J0D01*
G01*
D19*
X36270000Y-22794000D02*
X35254000Y-22794000D01*
X35254000Y-21778000D01*
X36270000Y-21778000D01*
X36270000Y-22794000D01*
G36*
X36270000Y-22794000D02*
G01*
X35254000Y-22794000D01*
X35254000Y-21778000D01*
X36270000Y-21778000D01*
X36270000Y-22794000D01*
G37*
X36270000Y-25334000D02*
X35254000Y-25334000D01*
X35254000Y-24318000D01*
X36270000Y-24318000D01*
X36270000Y-25334000D01*
G36*
X36270000Y-25334000D02*
G01*
X35254000Y-25334000D01*
X35254000Y-24318000D01*
X36270000Y-24318000D01*
X36270000Y-25334000D01*
G37*
X36270000Y-27874000D02*
X35254000Y-27874000D01*
X35254000Y-26858000D01*
X36270000Y-26858000D01*
X36270000Y-27874000D01*
G36*
X36270000Y-27874000D02*
G01*
X35254000Y-27874000D01*
X35254000Y-26858000D01*
X36270000Y-26858000D01*
X36270000Y-27874000D01*
G37*
X36270000Y-30414000D02*
X35254000Y-30414000D01*
X35254000Y-29398000D01*
X36270000Y-29398000D01*
X36270000Y-30414000D01*
G36*
X36270000Y-30414000D02*
G01*
X35254000Y-30414000D01*
X35254000Y-29398000D01*
X36270000Y-29398000D01*
X36270000Y-30414000D01*
G37*
X36270000Y-32954000D02*
X35254000Y-32954000D01*
X35254000Y-31938000D01*
X36270000Y-31938000D01*
X36270000Y-32954000D01*
G36*
X36270000Y-32954000D02*
G01*
X35254000Y-32954000D01*
X35254000Y-31938000D01*
X36270000Y-31938000D01*
X36270000Y-32954000D01*
G37*
X36270000Y-35494000D02*
X35254000Y-35494000D01*
X35254000Y-34478000D01*
X36270000Y-34478000D01*
X36270000Y-35494000D01*
G36*
X36270000Y-35494000D02*
G01*
X35254000Y-35494000D01*
X35254000Y-34478000D01*
X36270000Y-34478000D01*
X36270000Y-35494000D01*
G37*
X36270000Y-38034000D02*
X35254000Y-38034000D01*
X35254000Y-37018000D01*
X36270000Y-37018000D01*
X36270000Y-38034000D01*
G36*
X36270000Y-38034000D02*
G01*
X35254000Y-38034000D01*
X35254000Y-37018000D01*
X36270000Y-37018000D01*
X36270000Y-38034000D01*
G37*
X36270000Y-40574000D02*
X35254000Y-40574000D01*
X35254000Y-39558000D01*
X36270000Y-39558000D01*
X36270000Y-40574000D01*
G36*
X36270000Y-40574000D02*
G01*
X35254000Y-40574000D01*
X35254000Y-39558000D01*
X36270000Y-39558000D01*
X36270000Y-40574000D01*
G37*
X36270000Y-43114000D02*
X35254000Y-43114000D01*
X35254000Y-42098000D01*
X36270000Y-42098000D01*
X36270000Y-43114000D01*
G36*
X36270000Y-43114000D02*
G01*
X35254000Y-43114000D01*
X35254000Y-42098000D01*
X36270000Y-42098000D01*
X36270000Y-43114000D01*
G37*
X36270000Y-45654000D02*
X35254000Y-45654000D01*
X35254000Y-44638000D01*
X36270000Y-44638000D01*
X36270000Y-45654000D01*
G36*
X36270000Y-45654000D02*
G01*
X35254000Y-45654000D01*
X35254000Y-44638000D01*
X36270000Y-44638000D01*
X36270000Y-45654000D01*
G37*
X36270000Y-48194000D02*
X35254000Y-48194000D01*
X35254000Y-47178000D01*
X36270000Y-47178000D01*
X36270000Y-48194000D01*
G36*
X36270000Y-48194000D02*
G01*
X35254000Y-48194000D01*
X35254000Y-47178000D01*
X36270000Y-47178000D01*
X36270000Y-48194000D01*
G37*
X36270000Y-50734000D02*
X35254000Y-50734000D01*
X35254000Y-49718000D01*
X36270000Y-49718000D01*
X36270000Y-50734000D01*
G36*
X36270000Y-50734000D02*
G01*
X35254000Y-50734000D01*
X35254000Y-49718000D01*
X36270000Y-49718000D01*
X36270000Y-50734000D01*
G37*
X47446000Y-22794000D02*
X46430000Y-22794000D01*
X46430000Y-21778000D01*
X47446000Y-21778000D01*
X47446000Y-22794000D01*
G36*
X47446000Y-22794000D02*
G01*
X46430000Y-22794000D01*
X46430000Y-21778000D01*
X47446000Y-21778000D01*
X47446000Y-22794000D01*
G37*
X47446000Y-25334000D02*
X46430000Y-25334000D01*
X46430000Y-24318000D01*
X47446000Y-24318000D01*
X47446000Y-25334000D01*
G36*
X47446000Y-25334000D02*
G01*
X46430000Y-25334000D01*
X46430000Y-24318000D01*
X47446000Y-24318000D01*
X47446000Y-25334000D01*
G37*
X47446000Y-27874000D02*
X46430000Y-27874000D01*
X46430000Y-26858000D01*
X47446000Y-26858000D01*
X47446000Y-27874000D01*
G36*
X47446000Y-27874000D02*
G01*
X46430000Y-27874000D01*
X46430000Y-26858000D01*
X47446000Y-26858000D01*
X47446000Y-27874000D01*
G37*
X47446000Y-30414000D02*
X46430000Y-30414000D01*
X46430000Y-29398000D01*
X47446000Y-29398000D01*
X47446000Y-30414000D01*
G36*
X47446000Y-30414000D02*
G01*
X46430000Y-30414000D01*
X46430000Y-29398000D01*
X47446000Y-29398000D01*
X47446000Y-30414000D01*
G37*
X47446000Y-32954000D02*
X46430000Y-32954000D01*
X46430000Y-31938000D01*
X47446000Y-31938000D01*
X47446000Y-32954000D01*
G36*
X47446000Y-32954000D02*
G01*
X46430000Y-32954000D01*
X46430000Y-31938000D01*
X47446000Y-31938000D01*
X47446000Y-32954000D01*
G37*
X47446000Y-35494000D02*
X46430000Y-35494000D01*
X46430000Y-34478000D01*
X47446000Y-34478000D01*
X47446000Y-35494000D01*
G36*
X47446000Y-35494000D02*
G01*
X46430000Y-35494000D01*
X46430000Y-34478000D01*
X47446000Y-34478000D01*
X47446000Y-35494000D01*
G37*
X47446000Y-38034000D02*
X46430000Y-38034000D01*
X46430000Y-37018000D01*
X47446000Y-37018000D01*
X47446000Y-38034000D01*
G36*
X47446000Y-38034000D02*
G01*
X46430000Y-38034000D01*
X46430000Y-37018000D01*
X47446000Y-37018000D01*
X47446000Y-38034000D01*
G37*
X47446000Y-40574000D02*
X46430000Y-40574000D01*
X46430000Y-39558000D01*
X47446000Y-39558000D01*
X47446000Y-40574000D01*
G36*
X47446000Y-40574000D02*
G01*
X46430000Y-40574000D01*
X46430000Y-39558000D01*
X47446000Y-39558000D01*
X47446000Y-40574000D01*
G37*
X47446000Y-43114000D02*
X46430000Y-43114000D01*
X46430000Y-42098000D01*
X47446000Y-42098000D01*
X47446000Y-43114000D01*
G36*
X47446000Y-43114000D02*
G01*
X46430000Y-43114000D01*
X46430000Y-42098000D01*
X47446000Y-42098000D01*
X47446000Y-43114000D01*
G37*
X47446000Y-45654000D02*
X46430000Y-45654000D01*
X46430000Y-44638000D01*
X47446000Y-44638000D01*
X47446000Y-45654000D01*
G36*
X47446000Y-45654000D02*
G01*
X46430000Y-45654000D01*
X46430000Y-44638000D01*
X47446000Y-44638000D01*
X47446000Y-45654000D01*
G37*
X47446000Y-48194000D02*
X46430000Y-48194000D01*
X46430000Y-47178000D01*
X47446000Y-47178000D01*
X47446000Y-48194000D01*
G36*
X47446000Y-48194000D02*
G01*
X46430000Y-48194000D01*
X46430000Y-47178000D01*
X47446000Y-47178000D01*
X47446000Y-48194000D01*
G37*
X47446000Y-50734000D02*
X46430000Y-50734000D01*
X46430000Y-49718000D01*
X47446000Y-49718000D01*
X47446000Y-50734000D01*
G36*
X47446000Y-50734000D02*
G01*
X46430000Y-50734000D01*
X46430000Y-49718000D01*
X47446000Y-49718000D01*
X47446000Y-50734000D01*
G37*
D20*
X51000000Y-64750000D03*
D21*
X33610000Y-78460000D03*
X33610000Y-83460000D03*
X33610000Y-80960000D03*
D22*
X41110000Y-75360000D03*
X41110000Y-86560000D03*
D21*
X48110000Y-83460000D03*
X48110000Y-78460000D03*
D17*
X33670000Y-70775000D03*
X40670000Y-70775000D03*
X33670000Y-69025000D03*
X40670000Y-69025000D03*
D18*
X42470000Y-66925000D03*
X38470000Y-66925000D03*
X35470000Y-66925000D03*
X43470000Y-71125000D03*
D23*
X68348100Y-33249300D03*
X68348100Y-31750700D03*
X73351900Y-31750700D03*
X73351900Y-33249300D03*
X164848100Y-33249300D03*
X164848100Y-31750700D03*
X169851900Y-31750700D03*
X169851900Y-33249300D03*
X126248100Y-33249300D03*
X126248100Y-31750700D03*
X131251900Y-31750700D03*
X131251900Y-33249300D03*
X106948100Y-33249300D03*
X106948100Y-31750700D03*
X111951900Y-31750700D03*
X111951900Y-33249300D03*
D24*
X36284000Y-53766000D03*
D25*
X38824000Y-53766000D03*
X41364000Y-53766000D03*
X43904000Y-53766000D03*
X46444000Y-53766000D03*
D26*
X32200000Y-58632000D03*
X32200000Y-61632000D03*
D27*
X33950000Y-60882000D03*
D28*
X33165000Y-56482000D03*
X31235000Y-56482000D03*
X33165000Y-63782000D03*
X31235000Y-63782000D03*
D27*
X33950000Y-62382000D03*
X33950000Y-57882000D03*
D29*
X58500000Y-36045000D03*
X58500000Y-34775000D03*
X58500000Y-33505000D03*
X58500000Y-32235000D03*
X58500000Y-30965000D03*
X58500000Y-29695000D03*
X58500000Y-28425000D03*
X58500000Y-27155000D03*
X52900000Y-27155000D03*
X52900000Y-28425000D03*
X52900000Y-29695000D03*
X52900000Y-30965000D03*
X52900000Y-32235000D03*
X52900000Y-33505000D03*
X52900000Y-34775000D03*
X52900000Y-36045000D03*
D30*
X38949500Y-60632000D03*
X38949500Y-58632000D03*
D20*
X80500000Y-26000000D03*
D31*
X48970000Y-22286000D03*
D32*
X47192000Y-22286000D03*
D33*
X35508000Y-22286000D03*
D31*
X33730000Y-22286000D03*
D34*
X33730000Y-22286000D03*
D31*
X48970000Y-24826000D03*
D32*
X47192000Y-24826000D03*
D33*
X35508000Y-24826000D03*
D31*
X33730000Y-24826000D03*
X48970000Y-27366000D03*
D32*
X47192000Y-27366000D03*
D33*
X35508000Y-27366000D03*
D31*
X33730000Y-27366000D03*
X48970000Y-29906000D03*
D32*
X47192000Y-29906000D03*
D33*
X35508000Y-29906000D03*
D31*
X33730000Y-29906000D03*
X48970000Y-32446000D03*
D32*
X47192000Y-32446000D03*
D33*
X35508000Y-32446000D03*
D31*
X33730000Y-32446000D03*
X48970000Y-34986000D03*
D32*
X47192000Y-34986000D03*
D33*
X35508000Y-34986000D03*
D31*
X33730000Y-34986000D03*
X48970000Y-37526000D03*
D32*
X47192000Y-37526000D03*
D33*
X35508000Y-37526000D03*
D31*
X33730000Y-37526000D03*
X48970000Y-40066000D03*
D32*
X47192000Y-40066000D03*
D33*
X35508000Y-40066000D03*
D31*
X33730000Y-40066000D03*
X48970000Y-42606000D03*
D32*
X47192000Y-42606000D03*
D33*
X35508000Y-42606000D03*
D31*
X33730000Y-42606000D03*
X48970000Y-45146000D03*
D32*
X47192000Y-45146000D03*
D33*
X35508000Y-45146000D03*
D31*
X33730000Y-45146000D03*
X48970000Y-47686000D03*
D32*
X47192000Y-47686000D03*
D33*
X35508000Y-47686000D03*
D31*
X33730000Y-47686000D03*
X48970000Y-50226000D03*
D32*
X47192000Y-50226000D03*
D33*
X35508000Y-50226000D03*
D31*
X33730000Y-50226000D03*
D35*
X46176000Y-22286000D03*
X46176000Y-24826000D03*
X46176000Y-27366000D03*
X46176000Y-29906000D03*
X46176000Y-32446000D03*
X46176000Y-34986000D03*
X46176000Y-37526000D03*
X46176000Y-40066000D03*
X46176000Y-42606000D03*
X46176000Y-45146000D03*
X46176000Y-47686000D03*
X46176000Y-50226000D03*
D36*
X36524000Y-50226000D03*
X36524000Y-47686000D03*
X36524000Y-45146000D03*
X36524000Y-42606000D03*
X36524000Y-40066000D03*
X36524000Y-37526000D03*
X36524000Y-34986000D03*
X36524000Y-32446000D03*
X36524000Y-29906000D03*
X36524000Y-27366000D03*
X36524000Y-24826000D03*
X36524000Y-22286000D03*
D37*
X37000000Y-91114000D03*
X38000000Y-91114000D03*
X39000000Y-91115000D03*
X40000000Y-91115000D03*
X41000000Y-91115000D03*
X42000000Y-91115000D03*
X43000000Y-91115000D03*
X44000000Y-91115000D03*
X45000000Y-91115000D03*
X46000000Y-91115000D03*
D38*
X35700000Y-94990000D03*
X47300000Y-94990000D03*
D23*
X145548100Y-33249300D03*
X145548100Y-31750700D03*
X150551900Y-31750700D03*
X150551900Y-33249300D03*
D20*
X157700000Y-26500000D03*
X52500000Y-92500000D03*
X119100000Y-26000000D03*
D39*
X51500000Y-80050000D03*
X51500000Y-83350000D03*
D23*
X87648100Y-33249300D03*
X87648100Y-31750700D03*
X92651900Y-31750700D03*
X92651900Y-33249300D03*
D26*
X55712500Y-24449500D03*
X55712500Y-21649500D03*
%LPD*%
M02*
