M48
; DRILL file {KiCad 7.0.5} date Sun Jan 21 06:03:09 2024
; FORMAT={-:-/ absolute / inch / decimal}
; #@! TF.CreationDate,2024-01-21T06:03:09-08:00
; #@! TF.GenerationSoftware,Kicad,Pcbnew,7.0.5
; #@! TF.FileFunction,Plated,1,2,PTH
FMAT,2
INCH
; #@! TA.AperFunction,Plated,PTH,ViaDrill
T1C0.0118
; #@! TA.AperFunction,Plated,PTH,ViaDrill
T2C0.0157
; #@! TA.AperFunction,Plated,PTH,ComponentDrill
T3C0.0157
; #@! TA.AperFunction,Plated,PTH,ComponentDrill
T4C0.0354
; #@! TA.AperFunction,Plated,PTH,ComponentDrill
T5C0.0394
; #@! TA.AperFunction,Plated,PTH,ComponentDrill
T6C0.0433
; #@! TA.AperFunction,Plated,PTH,ComponentDrill
T7C0.0591
%
G90
G05
T1
X1.378Y-1.5276
X1.5551Y-2.0157
X1.5787Y-2.2126
X1.6564Y-2.2126
X1.7037Y-3.1414
X1.7313Y-3.3031
X1.811Y-3.4646
X1.8268Y-1.8268
X1.9803Y-1.3504
X1.9843Y-1.2165
X1.999Y-1.8701
X2.0008Y-1.4134
X2.0186Y-1.2835
X2.0244Y-1.5551
X2.0404Y-1.77
X2.063Y-1.4913
X2.0837Y-1.5276
X2.1044Y-1.5794
X2.1181Y-3.0591
X2.1252Y-1.7283
X2.1459Y-1.7596
X2.3543Y-1.3701
X2.3583Y-1.2717
X2.3583Y-1.3189
X2.3937Y-1.1693
X2.3937Y-1.2205
X2.4034Y-1.3871
X2.4237Y-1.375
X2.4253Y-1.0611
X2.4432Y-1.3618
X2.4493Y-1.0664
X2.4631Y-1.3491
X2.4725Y-1.0709
X2.4843Y-1.3386
X2.4954Y-1.0766
X2.5197Y-1.0719
X2.5723Y-1.0192
X2.6226Y-0.9436
X2.6771Y-0.9429
X2.6989Y-0.931
X2.7215Y-0.9211
X2.8878Y-1.0728
X3.372Y-0.925
X3.4114Y-0.9043
X3.4508Y-0.8836
X3.4902Y-0.8629
X3.5295Y-0.8421
X3.6476Y-1.0472
X4.1319Y-0.925
X4.1713Y-0.9043
X4.2106Y-0.8836
X4.25Y-0.8629
X4.2894Y-0.8421
X4.4075Y-1.0472
X4.8917Y-0.925
X4.9311Y-0.9043
X4.9705Y-0.8836
X5.0098Y-0.8629
X5.0492Y-0.8421
X5.1673Y-1.0492
X5.6516Y-0.925
X5.6909Y-0.9043
X5.7303Y-0.8836
X5.7697Y-0.8629
X5.8091Y-0.8421
X5.9272Y-1.0512
X6.4114Y-0.925
X6.4508Y-0.9043
X6.4902Y-0.8836
X6.5295Y-0.8629
X6.5689Y-0.8421
X6.687Y-1.0551
T2
X1.3543Y-2.3386
X1.4961Y-3.5079
X1.5748Y-3.6516
X2.0197Y-1.0669
X2.1929Y-1.1801
X2.2126Y-1.4921
X2.4429Y-0.9232
X2.5157Y-1.311
X2.5945Y-1.252
X2.7579Y-0.8858
X2.8465Y-0.8878
X2.9646Y-1.3071
X3.0157Y-1.252
X3.3819Y-1.3071
X3.7244Y-1.3071
X3.7756Y-1.252
X3.8307Y-1.1929
X4.1417Y-1.3071
X4.4843Y-1.3071
X4.5354Y-1.252
X4.5906Y-1.1929
X4.9016Y-1.3071
X5.2441Y-1.3071
X5.2953Y-1.252
X5.3504Y-1.1929
X5.6614Y-1.3071
X6.0039Y-1.3071
X6.0551Y-1.252
X6.1102Y-1.1929
X6.3622Y-1.311
X6.7638Y-1.3071
X6.815Y-1.252
T3
X1.598Y-0.8774
X1.598Y-0.9774
X1.598Y-1.0774
X1.598Y-1.1774
X1.598Y-1.2774
X1.598Y-1.3774
X1.598Y-1.4774
X1.598Y-1.5774
X1.598Y-1.6774
X1.598Y-1.7774
X1.598Y-1.8774
X1.598Y-1.9774
X1.658Y-0.8774
X1.658Y-0.9774
X1.658Y-1.0774
X1.658Y-1.1774
X1.658Y-1.2774
X1.658Y-1.3774
X1.658Y-1.4774
X1.658Y-1.5774
X1.658Y-1.6774
X1.658Y-1.7774
X1.658Y-1.8774
X1.658Y-1.9774
T4
X1.5334Y-2.3083
X1.5334Y-2.3871
T5
X1.3232Y-3.089
X1.3232Y-3.1874
X1.3232Y-3.2858
X1.4285Y-2.1168
X1.5285Y-2.1168
X1.6285Y-2.1168
X1.7285Y-2.1168
X1.8285Y-2.1168
X1.8941Y-3.089
X1.8941Y-3.2858
T6
X1.328Y-0.8774
X1.328Y-0.8774
X1.328Y-0.8774
X1.328Y-0.9774
X1.328Y-1.0774
X1.328Y-1.1774
X1.328Y-1.2774
X1.328Y-1.3774
X1.328Y-1.4774
X1.328Y-1.5774
X1.328Y-1.6774
X1.328Y-1.7774
X1.328Y-1.8774
X1.328Y-1.9774
X1.928Y-0.8774
X1.928Y-0.9774
X1.928Y-1.0774
X1.928Y-1.1774
X1.928Y-1.2774
X1.928Y-1.3774
X1.928Y-1.4774
X1.928Y-1.5774
X1.928Y-1.6774
X1.928Y-1.7774
X1.928Y-1.8774
X1.928Y-1.9774
T5
G00X1.3866Y-2.6348
M15
G01X1.4063Y-2.6348
M16
G05
G00X1.5047Y-2.6348
M15
G01X1.5244Y-2.6348
M16
G05
G00X1.6622Y-2.6348
M15
G01X1.6819Y-2.6348
M16
G05
G00X1.7016Y-2.8002
M15
G01X1.7213Y-2.8002
M16
G05
T7
G00X1.5929Y-2.9669
M15
G01X1.6441Y-2.9669
M16
G05
G00X1.5929Y-3.4079
M15
G01X1.6441Y-3.4079
M16
G05
T0
M30
