G04 #@! TF.GenerationSoftware,KiCad,Pcbnew,7.0.5*
G04 #@! TF.CreationDate,2024-01-21T06:03:08-08:00*
G04 #@! TF.ProjectId,Seismos_5CoreRShift,53656973-6d6f-4735-9f35-436f72655253,rev?*
G04 #@! TF.SameCoordinates,Original*
G04 #@! TF.FileFunction,Legend,Bot*
G04 #@! TF.FilePolarity,Positive*
%FSLAX46Y46*%
G04 Gerber Fmt 4.6, Leading zero omitted, Abs format (unit mm)*
G04 Created by KiCad (PCBNEW 7.0.5) date 2024-01-21 06:03:08*
%MOMM*%
%LPD*%
G01*
G04 APERTURE LIST*
G04 Aperture macros list*
%AMRoundRect*
0 Rectangle with rounded corners*
0 $1 Rounding radius*
0 $2 $3 $4 $5 $6 $7 $8 $9 X,Y pos of 4 corners*
0 Add a 4 corners polygon primitive as box body*
4,1,4,$2,$3,$4,$5,$6,$7,$8,$9,$2,$3,0*
0 Add four circle primitives for the rounded corners*
1,1,$1+$1,$2,$3*
1,1,$1+$1,$4,$5*
1,1,$1+$1,$6,$7*
1,1,$1+$1,$8,$9*
0 Add four rect primitives between the rounded corners*
20,1,$1+$1,$2,$3,$4,$5,0*
20,1,$1+$1,$4,$5,$6,$7,0*
20,1,$1+$1,$6,$7,$8,$9,0*
20,1,$1+$1,$8,$9,$2,$3,0*%
%AMFreePoly0*
4,1,6,1.000000,0.000000,0.500000,-0.750000,-0.500000,-0.750000,-0.500000,0.750000,0.500000,0.750000,1.000000,0.000000,1.000000,0.000000,$1*%
%AMFreePoly1*
4,1,6,0.500000,-0.750000,-0.650000,-0.750000,-0.150000,0.000000,-0.650000,0.750000,0.500000,0.750000,0.500000,-0.750000,0.500000,-0.750000,$1*%
G04 Aperture macros list end*
%ADD10C,0.150000*%
%ADD11C,0.120000*%
%ADD12C,0.254000*%
%ADD13C,0.250000*%
%ADD14C,3.200000*%
%ADD15C,2.000000*%
%ADD16R,3.200000X2.000000*%
%ADD17C,1.200000*%
%ADD18O,2.500000X1.700000*%
%ADD19R,1.700000X1.700000*%
%ADD20O,1.700000X1.700000*%
%ADD21C,0.900000*%
%ADD22C,1.400000*%
%ADD23C,1.600000*%
%ADD24R,1.600000X1.600000*%
%ADD25R,0.600000X1.700000*%
%ADD26R,1.200000X1.800000*%
%ADD27RoundRect,0.237500X0.250000X0.237500X-0.250000X0.237500X-0.250000X-0.237500X0.250000X-0.237500X0*%
%ADD28FreePoly0,0.000000*%
%ADD29FreePoly1,0.000000*%
%ADD30R,1.550000X1.000000*%
G04 APERTURE END LIST*
D10*
X53319819Y-75876190D02*
X52843628Y-75542857D01*
X53319819Y-75304762D02*
X52319819Y-75304762D01*
X52319819Y-75304762D02*
X52319819Y-75685714D01*
X52319819Y-75685714D02*
X52367438Y-75780952D01*
X52367438Y-75780952D02*
X52415057Y-75828571D01*
X52415057Y-75828571D02*
X52510295Y-75876190D01*
X52510295Y-75876190D02*
X52653152Y-75876190D01*
X52653152Y-75876190D02*
X52748390Y-75828571D01*
X52748390Y-75828571D02*
X52796009Y-75780952D01*
X52796009Y-75780952D02*
X52843628Y-75685714D01*
X52843628Y-75685714D02*
X52843628Y-75304762D01*
X53272200Y-76685714D02*
X53319819Y-76590476D01*
X53319819Y-76590476D02*
X53319819Y-76400000D01*
X53319819Y-76400000D02*
X53272200Y-76304762D01*
X53272200Y-76304762D02*
X53176961Y-76257143D01*
X53176961Y-76257143D02*
X52796009Y-76257143D01*
X52796009Y-76257143D02*
X52700771Y-76304762D01*
X52700771Y-76304762D02*
X52653152Y-76400000D01*
X52653152Y-76400000D02*
X52653152Y-76590476D01*
X52653152Y-76590476D02*
X52700771Y-76685714D01*
X52700771Y-76685714D02*
X52796009Y-76733333D01*
X52796009Y-76733333D02*
X52891247Y-76733333D01*
X52891247Y-76733333D02*
X52986485Y-76257143D01*
X52653152Y-77066667D02*
X53319819Y-77304762D01*
X53319819Y-77304762D02*
X52653152Y-77542857D01*
X53224580Y-77923810D02*
X53272200Y-77971429D01*
X53272200Y-77971429D02*
X53319819Y-77923810D01*
X53319819Y-77923810D02*
X53272200Y-77876191D01*
X53272200Y-77876191D02*
X53224580Y-77923810D01*
X53224580Y-77923810D02*
X53319819Y-77923810D01*
X52415057Y-79114286D02*
X52367438Y-79161905D01*
X52367438Y-79161905D02*
X52319819Y-79257143D01*
X52319819Y-79257143D02*
X52319819Y-79495238D01*
X52319819Y-79495238D02*
X52367438Y-79590476D01*
X52367438Y-79590476D02*
X52415057Y-79638095D01*
X52415057Y-79638095D02*
X52510295Y-79685714D01*
X52510295Y-79685714D02*
X52605533Y-79685714D01*
X52605533Y-79685714D02*
X52748390Y-79638095D01*
X52748390Y-79638095D02*
X53319819Y-79066667D01*
X53319819Y-79066667D02*
X53319819Y-79685714D01*
X53224580Y-80114286D02*
X53272200Y-80161905D01*
X53272200Y-80161905D02*
X53319819Y-80114286D01*
X53319819Y-80114286D02*
X53272200Y-80066667D01*
X53272200Y-80066667D02*
X53224580Y-80114286D01*
X53224580Y-80114286D02*
X53319819Y-80114286D01*
X52319819Y-80780952D02*
X52319819Y-80876190D01*
X52319819Y-80876190D02*
X52367438Y-80971428D01*
X52367438Y-80971428D02*
X52415057Y-81019047D01*
X52415057Y-81019047D02*
X52510295Y-81066666D01*
X52510295Y-81066666D02*
X52700771Y-81114285D01*
X52700771Y-81114285D02*
X52938866Y-81114285D01*
X52938866Y-81114285D02*
X53129342Y-81066666D01*
X53129342Y-81066666D02*
X53224580Y-81019047D01*
X53224580Y-81019047D02*
X53272200Y-80971428D01*
X53272200Y-80971428D02*
X53319819Y-80876190D01*
X53319819Y-80876190D02*
X53319819Y-80780952D01*
X53319819Y-80780952D02*
X53272200Y-80685714D01*
X53272200Y-80685714D02*
X53224580Y-80638095D01*
X53224580Y-80638095D02*
X53129342Y-80590476D01*
X53129342Y-80590476D02*
X52938866Y-80542857D01*
X52938866Y-80542857D02*
X52700771Y-80542857D01*
X52700771Y-80542857D02*
X52510295Y-80590476D01*
X52510295Y-80590476D02*
X52415057Y-80638095D01*
X52415057Y-80638095D02*
X52367438Y-80685714D01*
X52367438Y-80685714D02*
X52319819Y-80780952D01*
X53224580Y-81542857D02*
X53272200Y-81590476D01*
X53272200Y-81590476D02*
X53319819Y-81542857D01*
X53319819Y-81542857D02*
X53272200Y-81495238D01*
X53272200Y-81495238D02*
X53224580Y-81542857D01*
X53224580Y-81542857D02*
X53319819Y-81542857D01*
X52319819Y-82209523D02*
X52319819Y-82304761D01*
X52319819Y-82304761D02*
X52367438Y-82399999D01*
X52367438Y-82399999D02*
X52415057Y-82447618D01*
X52415057Y-82447618D02*
X52510295Y-82495237D01*
X52510295Y-82495237D02*
X52700771Y-82542856D01*
X52700771Y-82542856D02*
X52938866Y-82542856D01*
X52938866Y-82542856D02*
X53129342Y-82495237D01*
X53129342Y-82495237D02*
X53224580Y-82447618D01*
X53224580Y-82447618D02*
X53272200Y-82399999D01*
X53272200Y-82399999D02*
X53319819Y-82304761D01*
X53319819Y-82304761D02*
X53319819Y-82209523D01*
X53319819Y-82209523D02*
X53272200Y-82114285D01*
X53272200Y-82114285D02*
X53224580Y-82066666D01*
X53224580Y-82066666D02*
X53129342Y-82019047D01*
X53129342Y-82019047D02*
X52938866Y-81971428D01*
X52938866Y-81971428D02*
X52700771Y-81971428D01*
X52700771Y-81971428D02*
X52510295Y-82019047D01*
X52510295Y-82019047D02*
X52415057Y-82066666D01*
X52415057Y-82066666D02*
X52367438Y-82114285D01*
X52367438Y-82114285D02*
X52319819Y-82209523D01*
X60008333Y-34209819D02*
X60008333Y-33209819D01*
X60008333Y-33209819D02*
X59770238Y-33209819D01*
X59770238Y-33209819D02*
X59627381Y-33257438D01*
X59627381Y-33257438D02*
X59532143Y-33352676D01*
X59532143Y-33352676D02*
X59484524Y-33447914D01*
X59484524Y-33447914D02*
X59436905Y-33638390D01*
X59436905Y-33638390D02*
X59436905Y-33781247D01*
X59436905Y-33781247D02*
X59484524Y-33971723D01*
X59484524Y-33971723D02*
X59532143Y-34066961D01*
X59532143Y-34066961D02*
X59627381Y-34162200D01*
X59627381Y-34162200D02*
X59770238Y-34209819D01*
X59770238Y-34209819D02*
X60008333Y-34209819D01*
X58627381Y-34162200D02*
X58722619Y-34209819D01*
X58722619Y-34209819D02*
X58913095Y-34209819D01*
X58913095Y-34209819D02*
X59008333Y-34162200D01*
X59008333Y-34162200D02*
X59055952Y-34066961D01*
X59055952Y-34066961D02*
X59055952Y-33686009D01*
X59055952Y-33686009D02*
X59008333Y-33590771D01*
X59008333Y-33590771D02*
X58913095Y-33543152D01*
X58913095Y-33543152D02*
X58722619Y-33543152D01*
X58722619Y-33543152D02*
X58627381Y-33590771D01*
X58627381Y-33590771D02*
X58579762Y-33686009D01*
X58579762Y-33686009D02*
X58579762Y-33781247D01*
X58579762Y-33781247D02*
X59055952Y-33876485D01*
X58198809Y-34162200D02*
X58103571Y-34209819D01*
X58103571Y-34209819D02*
X57913095Y-34209819D01*
X57913095Y-34209819D02*
X57817857Y-34162200D01*
X57817857Y-34162200D02*
X57770238Y-34066961D01*
X57770238Y-34066961D02*
X57770238Y-34019342D01*
X57770238Y-34019342D02*
X57817857Y-33924104D01*
X57817857Y-33924104D02*
X57913095Y-33876485D01*
X57913095Y-33876485D02*
X58055952Y-33876485D01*
X58055952Y-33876485D02*
X58151190Y-33828866D01*
X58151190Y-33828866D02*
X58198809Y-33733628D01*
X58198809Y-33733628D02*
X58198809Y-33686009D01*
X58198809Y-33686009D02*
X58151190Y-33590771D01*
X58151190Y-33590771D02*
X58055952Y-33543152D01*
X58055952Y-33543152D02*
X57913095Y-33543152D01*
X57913095Y-33543152D02*
X57817857Y-33590771D01*
X57341666Y-34209819D02*
X57341666Y-33543152D01*
X57341666Y-33209819D02*
X57389285Y-33257438D01*
X57389285Y-33257438D02*
X57341666Y-33305057D01*
X57341666Y-33305057D02*
X57294047Y-33257438D01*
X57294047Y-33257438D02*
X57341666Y-33209819D01*
X57341666Y-33209819D02*
X57341666Y-33305057D01*
X56436905Y-33543152D02*
X56436905Y-34352676D01*
X56436905Y-34352676D02*
X56484524Y-34447914D01*
X56484524Y-34447914D02*
X56532143Y-34495533D01*
X56532143Y-34495533D02*
X56627381Y-34543152D01*
X56627381Y-34543152D02*
X56770238Y-34543152D01*
X56770238Y-34543152D02*
X56865476Y-34495533D01*
X56436905Y-34162200D02*
X56532143Y-34209819D01*
X56532143Y-34209819D02*
X56722619Y-34209819D01*
X56722619Y-34209819D02*
X56817857Y-34162200D01*
X56817857Y-34162200D02*
X56865476Y-34114580D01*
X56865476Y-34114580D02*
X56913095Y-34019342D01*
X56913095Y-34019342D02*
X56913095Y-33733628D01*
X56913095Y-33733628D02*
X56865476Y-33638390D01*
X56865476Y-33638390D02*
X56817857Y-33590771D01*
X56817857Y-33590771D02*
X56722619Y-33543152D01*
X56722619Y-33543152D02*
X56532143Y-33543152D01*
X56532143Y-33543152D02*
X56436905Y-33590771D01*
X55960714Y-33543152D02*
X55960714Y-34209819D01*
X55960714Y-33638390D02*
X55913095Y-33590771D01*
X55913095Y-33590771D02*
X55817857Y-33543152D01*
X55817857Y-33543152D02*
X55675000Y-33543152D01*
X55675000Y-33543152D02*
X55579762Y-33590771D01*
X55579762Y-33590771D02*
X55532143Y-33686009D01*
X55532143Y-33686009D02*
X55532143Y-34209819D01*
X54675000Y-34162200D02*
X54770238Y-34209819D01*
X54770238Y-34209819D02*
X54960714Y-34209819D01*
X54960714Y-34209819D02*
X55055952Y-34162200D01*
X55055952Y-34162200D02*
X55103571Y-34066961D01*
X55103571Y-34066961D02*
X55103571Y-33686009D01*
X55103571Y-33686009D02*
X55055952Y-33590771D01*
X55055952Y-33590771D02*
X54960714Y-33543152D01*
X54960714Y-33543152D02*
X54770238Y-33543152D01*
X54770238Y-33543152D02*
X54675000Y-33590771D01*
X54675000Y-33590771D02*
X54627381Y-33686009D01*
X54627381Y-33686009D02*
X54627381Y-33781247D01*
X54627381Y-33781247D02*
X55103571Y-33876485D01*
X53770238Y-34209819D02*
X53770238Y-33209819D01*
X53770238Y-34162200D02*
X53865476Y-34209819D01*
X53865476Y-34209819D02*
X54055952Y-34209819D01*
X54055952Y-34209819D02*
X54151190Y-34162200D01*
X54151190Y-34162200D02*
X54198809Y-34114580D01*
X54198809Y-34114580D02*
X54246428Y-34019342D01*
X54246428Y-34019342D02*
X54246428Y-33733628D01*
X54246428Y-33733628D02*
X54198809Y-33638390D01*
X54198809Y-33638390D02*
X54151190Y-33590771D01*
X54151190Y-33590771D02*
X54055952Y-33543152D01*
X54055952Y-33543152D02*
X53865476Y-33543152D01*
X53865476Y-33543152D02*
X53770238Y-33590771D01*
X52532142Y-34209819D02*
X52532142Y-33209819D01*
X52532142Y-33590771D02*
X52436904Y-33543152D01*
X52436904Y-33543152D02*
X52246428Y-33543152D01*
X52246428Y-33543152D02*
X52151190Y-33590771D01*
X52151190Y-33590771D02*
X52103571Y-33638390D01*
X52103571Y-33638390D02*
X52055952Y-33733628D01*
X52055952Y-33733628D02*
X52055952Y-34019342D01*
X52055952Y-34019342D02*
X52103571Y-34114580D01*
X52103571Y-34114580D02*
X52151190Y-34162200D01*
X52151190Y-34162200D02*
X52246428Y-34209819D01*
X52246428Y-34209819D02*
X52436904Y-34209819D01*
X52436904Y-34209819D02*
X52532142Y-34162200D01*
X51722618Y-33543152D02*
X51484523Y-34209819D01*
X51246428Y-33543152D02*
X51484523Y-34209819D01*
X51484523Y-34209819D02*
X51579761Y-34447914D01*
X51579761Y-34447914D02*
X51627380Y-34495533D01*
X51627380Y-34495533D02*
X51722618Y-34543152D01*
X58579761Y-35819819D02*
X58913094Y-35343628D01*
X59151189Y-35819819D02*
X59151189Y-34819819D01*
X59151189Y-34819819D02*
X58770237Y-34819819D01*
X58770237Y-34819819D02*
X58674999Y-34867438D01*
X58674999Y-34867438D02*
X58627380Y-34915057D01*
X58627380Y-34915057D02*
X58579761Y-35010295D01*
X58579761Y-35010295D02*
X58579761Y-35153152D01*
X58579761Y-35153152D02*
X58627380Y-35248390D01*
X58627380Y-35248390D02*
X58674999Y-35296009D01*
X58674999Y-35296009D02*
X58770237Y-35343628D01*
X58770237Y-35343628D02*
X59151189Y-35343628D01*
X57770237Y-35772200D02*
X57865475Y-35819819D01*
X57865475Y-35819819D02*
X58055951Y-35819819D01*
X58055951Y-35819819D02*
X58151189Y-35772200D01*
X58151189Y-35772200D02*
X58198808Y-35676961D01*
X58198808Y-35676961D02*
X58198808Y-35296009D01*
X58198808Y-35296009D02*
X58151189Y-35200771D01*
X58151189Y-35200771D02*
X58055951Y-35153152D01*
X58055951Y-35153152D02*
X57865475Y-35153152D01*
X57865475Y-35153152D02*
X57770237Y-35200771D01*
X57770237Y-35200771D02*
X57722618Y-35296009D01*
X57722618Y-35296009D02*
X57722618Y-35391247D01*
X57722618Y-35391247D02*
X58198808Y-35486485D01*
X57341665Y-35772200D02*
X57198808Y-35819819D01*
X57198808Y-35819819D02*
X56960713Y-35819819D01*
X56960713Y-35819819D02*
X56865475Y-35772200D01*
X56865475Y-35772200D02*
X56817856Y-35724580D01*
X56817856Y-35724580D02*
X56770237Y-35629342D01*
X56770237Y-35629342D02*
X56770237Y-35534104D01*
X56770237Y-35534104D02*
X56817856Y-35438866D01*
X56817856Y-35438866D02*
X56865475Y-35391247D01*
X56865475Y-35391247D02*
X56960713Y-35343628D01*
X56960713Y-35343628D02*
X57151189Y-35296009D01*
X57151189Y-35296009D02*
X57246427Y-35248390D01*
X57246427Y-35248390D02*
X57294046Y-35200771D01*
X57294046Y-35200771D02*
X57341665Y-35105533D01*
X57341665Y-35105533D02*
X57341665Y-35010295D01*
X57341665Y-35010295D02*
X57294046Y-34915057D01*
X57294046Y-34915057D02*
X57246427Y-34867438D01*
X57246427Y-34867438D02*
X57151189Y-34819819D01*
X57151189Y-34819819D02*
X56913094Y-34819819D01*
X56913094Y-34819819D02*
X56770237Y-34867438D01*
X55913094Y-35153152D02*
X55913094Y-35819819D01*
X56341665Y-35153152D02*
X56341665Y-35676961D01*
X56341665Y-35676961D02*
X56294046Y-35772200D01*
X56294046Y-35772200D02*
X56198808Y-35819819D01*
X56198808Y-35819819D02*
X56055951Y-35819819D01*
X56055951Y-35819819D02*
X55960713Y-35772200D01*
X55960713Y-35772200D02*
X55913094Y-35724580D01*
X55436903Y-35819819D02*
X55436903Y-35153152D01*
X55436903Y-35248390D02*
X55389284Y-35200771D01*
X55389284Y-35200771D02*
X55294046Y-35153152D01*
X55294046Y-35153152D02*
X55151189Y-35153152D01*
X55151189Y-35153152D02*
X55055951Y-35200771D01*
X55055951Y-35200771D02*
X55008332Y-35296009D01*
X55008332Y-35296009D02*
X55008332Y-35819819D01*
X55008332Y-35296009D02*
X54960713Y-35200771D01*
X54960713Y-35200771D02*
X54865475Y-35153152D01*
X54865475Y-35153152D02*
X54722618Y-35153152D01*
X54722618Y-35153152D02*
X54627379Y-35200771D01*
X54627379Y-35200771D02*
X54579760Y-35296009D01*
X54579760Y-35296009D02*
X54579760Y-35819819D01*
X54103570Y-35819819D02*
X54103570Y-35153152D01*
X54103570Y-35248390D02*
X54055951Y-35200771D01*
X54055951Y-35200771D02*
X53960713Y-35153152D01*
X53960713Y-35153152D02*
X53817856Y-35153152D01*
X53817856Y-35153152D02*
X53722618Y-35200771D01*
X53722618Y-35200771D02*
X53674999Y-35296009D01*
X53674999Y-35296009D02*
X53674999Y-35819819D01*
X53674999Y-35296009D02*
X53627380Y-35200771D01*
X53627380Y-35200771D02*
X53532142Y-35153152D01*
X53532142Y-35153152D02*
X53389285Y-35153152D01*
X53389285Y-35153152D02*
X53294046Y-35200771D01*
X53294046Y-35200771D02*
X53246427Y-35296009D01*
X53246427Y-35296009D02*
X53246427Y-35819819D01*
X52770237Y-35819819D02*
X52770237Y-35153152D01*
X52770237Y-34819819D02*
X52817856Y-34867438D01*
X52817856Y-34867438D02*
X52770237Y-34915057D01*
X52770237Y-34915057D02*
X52722618Y-34867438D01*
X52722618Y-34867438D02*
X52770237Y-34819819D01*
X52770237Y-34819819D02*
X52770237Y-34915057D01*
X52436904Y-35153152D02*
X52055952Y-35153152D01*
X52294047Y-34819819D02*
X52294047Y-35676961D01*
X52294047Y-35676961D02*
X52246428Y-35772200D01*
X52246428Y-35772200D02*
X52151190Y-35819819D01*
X52151190Y-35819819D02*
X52055952Y-35819819D01*
X71969047Y-32954819D02*
X72445237Y-32954819D01*
X72445237Y-32954819D02*
X72445237Y-31954819D01*
X71635713Y-32431009D02*
X71302380Y-32431009D01*
X71159523Y-32954819D02*
X71635713Y-32954819D01*
X71635713Y-32954819D02*
X71635713Y-31954819D01*
X71635713Y-31954819D02*
X71159523Y-31954819D01*
X70730951Y-32954819D02*
X70730951Y-31954819D01*
X70730951Y-31954819D02*
X70492856Y-31954819D01*
X70492856Y-31954819D02*
X70349999Y-32002438D01*
X70349999Y-32002438D02*
X70254761Y-32097676D01*
X70254761Y-32097676D02*
X70207142Y-32192914D01*
X70207142Y-32192914D02*
X70159523Y-32383390D01*
X70159523Y-32383390D02*
X70159523Y-32526247D01*
X70159523Y-32526247D02*
X70207142Y-32716723D01*
X70207142Y-32716723D02*
X70254761Y-32811961D01*
X70254761Y-32811961D02*
X70349999Y-32907200D01*
X70349999Y-32907200D02*
X70492856Y-32954819D01*
X70492856Y-32954819D02*
X70730951Y-32954819D01*
X69302380Y-31954819D02*
X69492856Y-31954819D01*
X69492856Y-31954819D02*
X69588094Y-32002438D01*
X69588094Y-32002438D02*
X69635713Y-32050057D01*
X69635713Y-32050057D02*
X69730951Y-32192914D01*
X69730951Y-32192914D02*
X69778570Y-32383390D01*
X69778570Y-32383390D02*
X69778570Y-32764342D01*
X69778570Y-32764342D02*
X69730951Y-32859580D01*
X69730951Y-32859580D02*
X69683332Y-32907200D01*
X69683332Y-32907200D02*
X69588094Y-32954819D01*
X69588094Y-32954819D02*
X69397618Y-32954819D01*
X69397618Y-32954819D02*
X69302380Y-32907200D01*
X69302380Y-32907200D02*
X69254761Y-32859580D01*
X69254761Y-32859580D02*
X69207142Y-32764342D01*
X69207142Y-32764342D02*
X69207142Y-32526247D01*
X69207142Y-32526247D02*
X69254761Y-32431009D01*
X69254761Y-32431009D02*
X69302380Y-32383390D01*
X69302380Y-32383390D02*
X69397618Y-32335771D01*
X69397618Y-32335771D02*
X69588094Y-32335771D01*
X69588094Y-32335771D02*
X69683332Y-32383390D01*
X69683332Y-32383390D02*
X69730951Y-32431009D01*
X69730951Y-32431009D02*
X69778570Y-32526247D01*
X168469047Y-32954819D02*
X168945237Y-32954819D01*
X168945237Y-32954819D02*
X168945237Y-31954819D01*
X168135713Y-32431009D02*
X167802380Y-32431009D01*
X167659523Y-32954819D02*
X168135713Y-32954819D01*
X168135713Y-32954819D02*
X168135713Y-31954819D01*
X168135713Y-31954819D02*
X167659523Y-31954819D01*
X167230951Y-32954819D02*
X167230951Y-31954819D01*
X167230951Y-31954819D02*
X166992856Y-31954819D01*
X166992856Y-31954819D02*
X166849999Y-32002438D01*
X166849999Y-32002438D02*
X166754761Y-32097676D01*
X166754761Y-32097676D02*
X166707142Y-32192914D01*
X166707142Y-32192914D02*
X166659523Y-32383390D01*
X166659523Y-32383390D02*
X166659523Y-32526247D01*
X166659523Y-32526247D02*
X166707142Y-32716723D01*
X166707142Y-32716723D02*
X166754761Y-32811961D01*
X166754761Y-32811961D02*
X166849999Y-32907200D01*
X166849999Y-32907200D02*
X166992856Y-32954819D01*
X166992856Y-32954819D02*
X167230951Y-32954819D01*
X165707142Y-32954819D02*
X166278570Y-32954819D01*
X165992856Y-32954819D02*
X165992856Y-31954819D01*
X165992856Y-31954819D02*
X166088094Y-32097676D01*
X166088094Y-32097676D02*
X166183332Y-32192914D01*
X166183332Y-32192914D02*
X166278570Y-32240533D01*
X129869047Y-32954819D02*
X130345237Y-32954819D01*
X130345237Y-32954819D02*
X130345237Y-31954819D01*
X129535713Y-32431009D02*
X129202380Y-32431009D01*
X129059523Y-32954819D02*
X129535713Y-32954819D01*
X129535713Y-32954819D02*
X129535713Y-31954819D01*
X129535713Y-31954819D02*
X129059523Y-31954819D01*
X128630951Y-32954819D02*
X128630951Y-31954819D01*
X128630951Y-31954819D02*
X128392856Y-31954819D01*
X128392856Y-31954819D02*
X128249999Y-32002438D01*
X128249999Y-32002438D02*
X128154761Y-32097676D01*
X128154761Y-32097676D02*
X128107142Y-32192914D01*
X128107142Y-32192914D02*
X128059523Y-32383390D01*
X128059523Y-32383390D02*
X128059523Y-32526247D01*
X128059523Y-32526247D02*
X128107142Y-32716723D01*
X128107142Y-32716723D02*
X128154761Y-32811961D01*
X128154761Y-32811961D02*
X128249999Y-32907200D01*
X128249999Y-32907200D02*
X128392856Y-32954819D01*
X128392856Y-32954819D02*
X128630951Y-32954819D01*
X127726189Y-31954819D02*
X127107142Y-31954819D01*
X127107142Y-31954819D02*
X127440475Y-32335771D01*
X127440475Y-32335771D02*
X127297618Y-32335771D01*
X127297618Y-32335771D02*
X127202380Y-32383390D01*
X127202380Y-32383390D02*
X127154761Y-32431009D01*
X127154761Y-32431009D02*
X127107142Y-32526247D01*
X127107142Y-32526247D02*
X127107142Y-32764342D01*
X127107142Y-32764342D02*
X127154761Y-32859580D01*
X127154761Y-32859580D02*
X127202380Y-32907200D01*
X127202380Y-32907200D02*
X127297618Y-32954819D01*
X127297618Y-32954819D02*
X127583332Y-32954819D01*
X127583332Y-32954819D02*
X127678570Y-32907200D01*
X127678570Y-32907200D02*
X127726189Y-32859580D01*
X110569047Y-32954819D02*
X111045237Y-32954819D01*
X111045237Y-32954819D02*
X111045237Y-31954819D01*
X110235713Y-32431009D02*
X109902380Y-32431009D01*
X109759523Y-32954819D02*
X110235713Y-32954819D01*
X110235713Y-32954819D02*
X110235713Y-31954819D01*
X110235713Y-31954819D02*
X109759523Y-31954819D01*
X109330951Y-32954819D02*
X109330951Y-31954819D01*
X109330951Y-31954819D02*
X109092856Y-31954819D01*
X109092856Y-31954819D02*
X108949999Y-32002438D01*
X108949999Y-32002438D02*
X108854761Y-32097676D01*
X108854761Y-32097676D02*
X108807142Y-32192914D01*
X108807142Y-32192914D02*
X108759523Y-32383390D01*
X108759523Y-32383390D02*
X108759523Y-32526247D01*
X108759523Y-32526247D02*
X108807142Y-32716723D01*
X108807142Y-32716723D02*
X108854761Y-32811961D01*
X108854761Y-32811961D02*
X108949999Y-32907200D01*
X108949999Y-32907200D02*
X109092856Y-32954819D01*
X109092856Y-32954819D02*
X109330951Y-32954819D01*
X107902380Y-32288152D02*
X107902380Y-32954819D01*
X108140475Y-31907200D02*
X108378570Y-32621485D01*
X108378570Y-32621485D02*
X107759523Y-32621485D01*
X33307433Y-59363941D02*
X34116956Y-59363941D01*
X34116956Y-59363941D02*
X34212194Y-59411560D01*
X34212194Y-59411560D02*
X34259814Y-59459179D01*
X34259814Y-59459179D02*
X34307433Y-59554417D01*
X34307433Y-59554417D02*
X34307433Y-59744893D01*
X34307433Y-59744893D02*
X34259814Y-59840131D01*
X34259814Y-59840131D02*
X34212194Y-59887750D01*
X34212194Y-59887750D02*
X34116956Y-59935369D01*
X34116956Y-59935369D02*
X33307433Y-59935369D01*
X33402671Y-60363941D02*
X33355052Y-60411560D01*
X33355052Y-60411560D02*
X33307433Y-60506798D01*
X33307433Y-60506798D02*
X33307433Y-60744893D01*
X33307433Y-60744893D02*
X33355052Y-60840131D01*
X33355052Y-60840131D02*
X33402671Y-60887750D01*
X33402671Y-60887750D02*
X33497909Y-60935369D01*
X33497909Y-60935369D02*
X33593147Y-60935369D01*
X33593147Y-60935369D02*
X33736004Y-60887750D01*
X33736004Y-60887750D02*
X34307433Y-60316322D01*
X34307433Y-60316322D02*
X34307433Y-60935369D01*
X149169047Y-32954819D02*
X149645237Y-32954819D01*
X149645237Y-32954819D02*
X149645237Y-31954819D01*
X148835713Y-32431009D02*
X148502380Y-32431009D01*
X148359523Y-32954819D02*
X148835713Y-32954819D01*
X148835713Y-32954819D02*
X148835713Y-31954819D01*
X148835713Y-31954819D02*
X148359523Y-31954819D01*
X147930951Y-32954819D02*
X147930951Y-31954819D01*
X147930951Y-31954819D02*
X147692856Y-31954819D01*
X147692856Y-31954819D02*
X147549999Y-32002438D01*
X147549999Y-32002438D02*
X147454761Y-32097676D01*
X147454761Y-32097676D02*
X147407142Y-32192914D01*
X147407142Y-32192914D02*
X147359523Y-32383390D01*
X147359523Y-32383390D02*
X147359523Y-32526247D01*
X147359523Y-32526247D02*
X147407142Y-32716723D01*
X147407142Y-32716723D02*
X147454761Y-32811961D01*
X147454761Y-32811961D02*
X147549999Y-32907200D01*
X147549999Y-32907200D02*
X147692856Y-32954819D01*
X147692856Y-32954819D02*
X147930951Y-32954819D01*
X146978570Y-32050057D02*
X146930951Y-32002438D01*
X146930951Y-32002438D02*
X146835713Y-31954819D01*
X146835713Y-31954819D02*
X146597618Y-31954819D01*
X146597618Y-31954819D02*
X146502380Y-32002438D01*
X146502380Y-32002438D02*
X146454761Y-32050057D01*
X146454761Y-32050057D02*
X146407142Y-32145295D01*
X146407142Y-32145295D02*
X146407142Y-32240533D01*
X146407142Y-32240533D02*
X146454761Y-32383390D01*
X146454761Y-32383390D02*
X147026189Y-32954819D01*
X147026189Y-32954819D02*
X146407142Y-32954819D01*
X91269047Y-32954819D02*
X91745237Y-32954819D01*
X91745237Y-32954819D02*
X91745237Y-31954819D01*
X90935713Y-32431009D02*
X90602380Y-32431009D01*
X90459523Y-32954819D02*
X90935713Y-32954819D01*
X90935713Y-32954819D02*
X90935713Y-31954819D01*
X90935713Y-31954819D02*
X90459523Y-31954819D01*
X90030951Y-32954819D02*
X90030951Y-31954819D01*
X90030951Y-31954819D02*
X89792856Y-31954819D01*
X89792856Y-31954819D02*
X89649999Y-32002438D01*
X89649999Y-32002438D02*
X89554761Y-32097676D01*
X89554761Y-32097676D02*
X89507142Y-32192914D01*
X89507142Y-32192914D02*
X89459523Y-32383390D01*
X89459523Y-32383390D02*
X89459523Y-32526247D01*
X89459523Y-32526247D02*
X89507142Y-32716723D01*
X89507142Y-32716723D02*
X89554761Y-32811961D01*
X89554761Y-32811961D02*
X89649999Y-32907200D01*
X89649999Y-32907200D02*
X89792856Y-32954819D01*
X89792856Y-32954819D02*
X90030951Y-32954819D01*
X88554761Y-31954819D02*
X89030951Y-31954819D01*
X89030951Y-31954819D02*
X89078570Y-32431009D01*
X89078570Y-32431009D02*
X89030951Y-32383390D01*
X89030951Y-32383390D02*
X88935713Y-32335771D01*
X88935713Y-32335771D02*
X88697618Y-32335771D01*
X88697618Y-32335771D02*
X88602380Y-32383390D01*
X88602380Y-32383390D02*
X88554761Y-32431009D01*
X88554761Y-32431009D02*
X88507142Y-32526247D01*
X88507142Y-32526247D02*
X88507142Y-32764342D01*
X88507142Y-32764342D02*
X88554761Y-32859580D01*
X88554761Y-32859580D02*
X88602380Y-32907200D01*
X88602380Y-32907200D02*
X88697618Y-32954819D01*
X88697618Y-32954819D02*
X88935713Y-32954819D01*
X88935713Y-32954819D02*
X89030951Y-32907200D01*
X89030951Y-32907200D02*
X89078570Y-32859580D01*
X71183333Y-21954819D02*
X71183333Y-22669104D01*
X71183333Y-22669104D02*
X71230952Y-22811961D01*
X71230952Y-22811961D02*
X71326190Y-22907200D01*
X71326190Y-22907200D02*
X71469047Y-22954819D01*
X71469047Y-22954819D02*
X71564285Y-22954819D01*
X70278571Y-21954819D02*
X70469047Y-21954819D01*
X70469047Y-21954819D02*
X70564285Y-22002438D01*
X70564285Y-22002438D02*
X70611904Y-22050057D01*
X70611904Y-22050057D02*
X70707142Y-22192914D01*
X70707142Y-22192914D02*
X70754761Y-22383390D01*
X70754761Y-22383390D02*
X70754761Y-22764342D01*
X70754761Y-22764342D02*
X70707142Y-22859580D01*
X70707142Y-22859580D02*
X70659523Y-22907200D01*
X70659523Y-22907200D02*
X70564285Y-22954819D01*
X70564285Y-22954819D02*
X70373809Y-22954819D01*
X70373809Y-22954819D02*
X70278571Y-22907200D01*
X70278571Y-22907200D02*
X70230952Y-22859580D01*
X70230952Y-22859580D02*
X70183333Y-22764342D01*
X70183333Y-22764342D02*
X70183333Y-22526247D01*
X70183333Y-22526247D02*
X70230952Y-22431009D01*
X70230952Y-22431009D02*
X70278571Y-22383390D01*
X70278571Y-22383390D02*
X70373809Y-22335771D01*
X70373809Y-22335771D02*
X70564285Y-22335771D01*
X70564285Y-22335771D02*
X70659523Y-22383390D01*
X70659523Y-22383390D02*
X70707142Y-22431009D01*
X70707142Y-22431009D02*
X70754761Y-22526247D01*
X43466666Y-65054819D02*
X43799999Y-64578628D01*
X44038094Y-65054819D02*
X44038094Y-64054819D01*
X44038094Y-64054819D02*
X43657142Y-64054819D01*
X43657142Y-64054819D02*
X43561904Y-64102438D01*
X43561904Y-64102438D02*
X43514285Y-64150057D01*
X43514285Y-64150057D02*
X43466666Y-64245295D01*
X43466666Y-64245295D02*
X43466666Y-64388152D01*
X43466666Y-64388152D02*
X43514285Y-64483390D01*
X43514285Y-64483390D02*
X43561904Y-64531009D01*
X43561904Y-64531009D02*
X43657142Y-64578628D01*
X43657142Y-64578628D02*
X44038094Y-64578628D01*
X43085713Y-64150057D02*
X43038094Y-64102438D01*
X43038094Y-64102438D02*
X42942856Y-64054819D01*
X42942856Y-64054819D02*
X42704761Y-64054819D01*
X42704761Y-64054819D02*
X42609523Y-64102438D01*
X42609523Y-64102438D02*
X42561904Y-64150057D01*
X42561904Y-64150057D02*
X42514285Y-64245295D01*
X42514285Y-64245295D02*
X42514285Y-64340533D01*
X42514285Y-64340533D02*
X42561904Y-64483390D01*
X42561904Y-64483390D02*
X43133332Y-65054819D01*
X43133332Y-65054819D02*
X42514285Y-65054819D01*
X45008333Y-68154819D02*
X45008333Y-68869104D01*
X45008333Y-68869104D02*
X45055952Y-69011961D01*
X45055952Y-69011961D02*
X45151190Y-69107200D01*
X45151190Y-69107200D02*
X45294047Y-69154819D01*
X45294047Y-69154819D02*
X45389285Y-69154819D01*
X44532142Y-69154819D02*
X44532142Y-68154819D01*
X44532142Y-68154819D02*
X44151190Y-68154819D01*
X44151190Y-68154819D02*
X44055952Y-68202438D01*
X44055952Y-68202438D02*
X44008333Y-68250057D01*
X44008333Y-68250057D02*
X43960714Y-68345295D01*
X43960714Y-68345295D02*
X43960714Y-68488152D01*
X43960714Y-68488152D02*
X44008333Y-68583390D01*
X44008333Y-68583390D02*
X44055952Y-68631009D01*
X44055952Y-68631009D02*
X44151190Y-68678628D01*
X44151190Y-68678628D02*
X44532142Y-68678628D01*
X43008333Y-69154819D02*
X43579761Y-69154819D01*
X43294047Y-69154819D02*
X43294047Y-68154819D01*
X43294047Y-68154819D02*
X43389285Y-68297676D01*
X43389285Y-68297676D02*
X43484523Y-68392914D01*
X43484523Y-68392914D02*
X43579761Y-68440533D01*
X90483333Y-21954819D02*
X90483333Y-22669104D01*
X90483333Y-22669104D02*
X90530952Y-22811961D01*
X90530952Y-22811961D02*
X90626190Y-22907200D01*
X90626190Y-22907200D02*
X90769047Y-22954819D01*
X90769047Y-22954819D02*
X90864285Y-22954819D01*
X89530952Y-21954819D02*
X90007142Y-21954819D01*
X90007142Y-21954819D02*
X90054761Y-22431009D01*
X90054761Y-22431009D02*
X90007142Y-22383390D01*
X90007142Y-22383390D02*
X89911904Y-22335771D01*
X89911904Y-22335771D02*
X89673809Y-22335771D01*
X89673809Y-22335771D02*
X89578571Y-22383390D01*
X89578571Y-22383390D02*
X89530952Y-22431009D01*
X89530952Y-22431009D02*
X89483333Y-22526247D01*
X89483333Y-22526247D02*
X89483333Y-22764342D01*
X89483333Y-22764342D02*
X89530952Y-22859580D01*
X89530952Y-22859580D02*
X89578571Y-22907200D01*
X89578571Y-22907200D02*
X89673809Y-22954819D01*
X89673809Y-22954819D02*
X89911904Y-22954819D01*
X89911904Y-22954819D02*
X90007142Y-22907200D01*
X90007142Y-22907200D02*
X90054761Y-22859580D01*
X43366666Y-63054819D02*
X43699999Y-62578628D01*
X43938094Y-63054819D02*
X43938094Y-62054819D01*
X43938094Y-62054819D02*
X43557142Y-62054819D01*
X43557142Y-62054819D02*
X43461904Y-62102438D01*
X43461904Y-62102438D02*
X43414285Y-62150057D01*
X43414285Y-62150057D02*
X43366666Y-62245295D01*
X43366666Y-62245295D02*
X43366666Y-62388152D01*
X43366666Y-62388152D02*
X43414285Y-62483390D01*
X43414285Y-62483390D02*
X43461904Y-62531009D01*
X43461904Y-62531009D02*
X43557142Y-62578628D01*
X43557142Y-62578628D02*
X43938094Y-62578628D01*
X42414285Y-63054819D02*
X42985713Y-63054819D01*
X42699999Y-63054819D02*
X42699999Y-62054819D01*
X42699999Y-62054819D02*
X42795237Y-62197676D01*
X42795237Y-62197676D02*
X42890475Y-62292914D01*
X42890475Y-62292914D02*
X42985713Y-62340533D01*
X57045832Y-26456700D02*
X56902975Y-26504319D01*
X56902975Y-26504319D02*
X56664880Y-26504319D01*
X56664880Y-26504319D02*
X56569642Y-26456700D01*
X56569642Y-26456700D02*
X56522023Y-26409080D01*
X56522023Y-26409080D02*
X56474404Y-26313842D01*
X56474404Y-26313842D02*
X56474404Y-26218604D01*
X56474404Y-26218604D02*
X56522023Y-26123366D01*
X56522023Y-26123366D02*
X56569642Y-26075747D01*
X56569642Y-26075747D02*
X56664880Y-26028128D01*
X56664880Y-26028128D02*
X56855356Y-25980509D01*
X56855356Y-25980509D02*
X56950594Y-25932890D01*
X56950594Y-25932890D02*
X56998213Y-25885271D01*
X56998213Y-25885271D02*
X57045832Y-25790033D01*
X57045832Y-25790033D02*
X57045832Y-25694795D01*
X57045832Y-25694795D02*
X56998213Y-25599557D01*
X56998213Y-25599557D02*
X56950594Y-25551938D01*
X56950594Y-25551938D02*
X56855356Y-25504319D01*
X56855356Y-25504319D02*
X56617261Y-25504319D01*
X56617261Y-25504319D02*
X56474404Y-25551938D01*
X56141070Y-25504319D02*
X55902975Y-26504319D01*
X55902975Y-26504319D02*
X55712499Y-25790033D01*
X55712499Y-25790033D02*
X55522023Y-26504319D01*
X55522023Y-26504319D02*
X55283928Y-25504319D01*
X54998213Y-25504319D02*
X54379166Y-25504319D01*
X54379166Y-25504319D02*
X54712499Y-25885271D01*
X54712499Y-25885271D02*
X54569642Y-25885271D01*
X54569642Y-25885271D02*
X54474404Y-25932890D01*
X54474404Y-25932890D02*
X54426785Y-25980509D01*
X54426785Y-25980509D02*
X54379166Y-26075747D01*
X54379166Y-26075747D02*
X54379166Y-26313842D01*
X54379166Y-26313842D02*
X54426785Y-26409080D01*
X54426785Y-26409080D02*
X54474404Y-26456700D01*
X54474404Y-26456700D02*
X54569642Y-26504319D01*
X54569642Y-26504319D02*
X54855356Y-26504319D01*
X54855356Y-26504319D02*
X54950594Y-26456700D01*
X54950594Y-26456700D02*
X54998213Y-26409080D01*
X41833333Y-93454819D02*
X41833333Y-94169104D01*
X41833333Y-94169104D02*
X41880952Y-94311961D01*
X41880952Y-94311961D02*
X41976190Y-94407200D01*
X41976190Y-94407200D02*
X42119047Y-94454819D01*
X42119047Y-94454819D02*
X42214285Y-94454819D01*
X41452380Y-93454819D02*
X40785714Y-93454819D01*
X40785714Y-93454819D02*
X41214285Y-94454819D01*
X167683333Y-21954819D02*
X167683333Y-22669104D01*
X167683333Y-22669104D02*
X167730952Y-22811961D01*
X167730952Y-22811961D02*
X167826190Y-22907200D01*
X167826190Y-22907200D02*
X167969047Y-22954819D01*
X167969047Y-22954819D02*
X168064285Y-22954819D01*
X166683333Y-22954819D02*
X167254761Y-22954819D01*
X166969047Y-22954819D02*
X166969047Y-21954819D01*
X166969047Y-21954819D02*
X167064285Y-22097676D01*
X167064285Y-22097676D02*
X167159523Y-22192914D01*
X167159523Y-22192914D02*
X167254761Y-22240533D01*
X129083333Y-21954819D02*
X129083333Y-22669104D01*
X129083333Y-22669104D02*
X129130952Y-22811961D01*
X129130952Y-22811961D02*
X129226190Y-22907200D01*
X129226190Y-22907200D02*
X129369047Y-22954819D01*
X129369047Y-22954819D02*
X129464285Y-22954819D01*
X128702380Y-21954819D02*
X128083333Y-21954819D01*
X128083333Y-21954819D02*
X128416666Y-22335771D01*
X128416666Y-22335771D02*
X128273809Y-22335771D01*
X128273809Y-22335771D02*
X128178571Y-22383390D01*
X128178571Y-22383390D02*
X128130952Y-22431009D01*
X128130952Y-22431009D02*
X128083333Y-22526247D01*
X128083333Y-22526247D02*
X128083333Y-22764342D01*
X128083333Y-22764342D02*
X128130952Y-22859580D01*
X128130952Y-22859580D02*
X128178571Y-22907200D01*
X128178571Y-22907200D02*
X128273809Y-22954819D01*
X128273809Y-22954819D02*
X128559523Y-22954819D01*
X128559523Y-22954819D02*
X128654761Y-22907200D01*
X128654761Y-22907200D02*
X128702380Y-22859580D01*
X109783333Y-21954819D02*
X109783333Y-22669104D01*
X109783333Y-22669104D02*
X109830952Y-22811961D01*
X109830952Y-22811961D02*
X109926190Y-22907200D01*
X109926190Y-22907200D02*
X110069047Y-22954819D01*
X110069047Y-22954819D02*
X110164285Y-22954819D01*
X108878571Y-22288152D02*
X108878571Y-22954819D01*
X109116666Y-21907200D02*
X109354761Y-22621485D01*
X109354761Y-22621485D02*
X108735714Y-22621485D01*
X148383333Y-21954819D02*
X148383333Y-22669104D01*
X148383333Y-22669104D02*
X148430952Y-22811961D01*
X148430952Y-22811961D02*
X148526190Y-22907200D01*
X148526190Y-22907200D02*
X148669047Y-22954819D01*
X148669047Y-22954819D02*
X148764285Y-22954819D01*
X147954761Y-22050057D02*
X147907142Y-22002438D01*
X147907142Y-22002438D02*
X147811904Y-21954819D01*
X147811904Y-21954819D02*
X147573809Y-21954819D01*
X147573809Y-21954819D02*
X147478571Y-22002438D01*
X147478571Y-22002438D02*
X147430952Y-22050057D01*
X147430952Y-22050057D02*
X147383333Y-22145295D01*
X147383333Y-22145295D02*
X147383333Y-22240533D01*
X147383333Y-22240533D02*
X147430952Y-22383390D01*
X147430952Y-22383390D02*
X148002380Y-22954819D01*
X148002380Y-22954819D02*
X147383333Y-22954819D01*
D11*
X35010000Y-75060000D02*
X35010000Y-86860000D01*
X39110000Y-75060000D02*
X35010000Y-75060000D01*
X39110000Y-86860000D02*
X35010000Y-86860000D01*
X40610000Y-80960000D02*
X41610000Y-80960000D01*
X41110000Y-80460000D02*
X41110000Y-81460000D01*
X43110000Y-75060000D02*
X47210000Y-75060000D01*
X47210000Y-75060000D02*
X47210000Y-77460000D01*
X47210000Y-79660000D02*
X47210000Y-82260000D01*
X47210000Y-84460000D02*
X47210000Y-86860000D01*
X47210000Y-86860000D02*
X43110000Y-86860000D01*
X44110000Y-80960000D02*
G75*
G03*
X44110000Y-80960000I-3000000J0D01*
G01*
D10*
X50240000Y-21016000D02*
X50240000Y-51496000D01*
X32460000Y-21016000D02*
X50240000Y-21016000D01*
X32460000Y-21016000D02*
X32460000Y-51496000D01*
X50240000Y-51496000D02*
X32460000Y-51496000D01*
D12*
X64650000Y-22538000D02*
X64650000Y-25078000D01*
X64650000Y-25078000D02*
X65819000Y-25078000D01*
X75881000Y-25078000D02*
X76990000Y-25078000D01*
X75958000Y-20400000D02*
X65742000Y-20400000D01*
X76990000Y-25078000D02*
X76990000Y-22641000D01*
X65475000Y-24760000D02*
G75*
G03*
X65475000Y-24760000I-125000J0D01*
G01*
D11*
X40754724Y-65122500D02*
X40245276Y-65122500D01*
X40754724Y-64077500D02*
X40245276Y-64077500D01*
X42775000Y-65900000D02*
X42775000Y-67900000D01*
X42775000Y-67900000D02*
X45575000Y-67900000D01*
X45575000Y-65900000D02*
X42775000Y-65900000D01*
X45575000Y-67900000D02*
X45575000Y-65900000D01*
D12*
X83950000Y-22538000D02*
X83950000Y-25078000D01*
X83950000Y-25078000D02*
X85119000Y-25078000D01*
X95181000Y-25078000D02*
X96290000Y-25078000D01*
X95258000Y-20400000D02*
X85042000Y-20400000D01*
X96290000Y-25078000D02*
X96290000Y-22641000D01*
X84775000Y-24760000D02*
G75*
G03*
X84775000Y-24760000I-125000J0D01*
G01*
D11*
X40754724Y-63122500D02*
X40245276Y-63122500D01*
X40754724Y-62077500D02*
X40245276Y-62077500D01*
D12*
X53362500Y-24799500D02*
X53362500Y-24630500D01*
X55173500Y-24799500D02*
X53426500Y-24799500D01*
X58062500Y-24799500D02*
X56251500Y-24799500D01*
X58062500Y-24630500D02*
X58062500Y-24799500D01*
X54696500Y-23811500D02*
X56728500Y-23811500D01*
X56728500Y-23811500D02*
X56728500Y-22541500D01*
X55077500Y-23430500D02*
X56347500Y-23430500D01*
X56347500Y-23430500D02*
X56347500Y-22541500D01*
X53362500Y-23168500D02*
X53362500Y-22930500D01*
X55331500Y-23049500D02*
X56093500Y-23049500D01*
X58062500Y-22930500D02*
X58062500Y-23168500D01*
X55331500Y-22668500D02*
X56093500Y-22668500D01*
X54696500Y-22541500D02*
X54696500Y-23811500D01*
X54696500Y-22541500D02*
X55077500Y-22541500D01*
X55077500Y-22541500D02*
X55077500Y-23430500D01*
X56347500Y-22541500D02*
X56728500Y-22541500D01*
X53362500Y-21468500D02*
X53362500Y-21299500D01*
X55173500Y-21299500D02*
X53362500Y-21299500D01*
X58062500Y-21299500D02*
X58062500Y-21468500D01*
X58062500Y-21299500D02*
X56251500Y-21299500D01*
X54412500Y-20763500D02*
X57012500Y-20763500D01*
X54621500Y-20763500D02*
X54621500Y-21299500D01*
X55283500Y-20763500D02*
X55283500Y-21299500D01*
X56138500Y-20763500D02*
X56138500Y-21299500D01*
X56706500Y-20763500D02*
X56706500Y-21299500D01*
X54412500Y-20299500D02*
X54412500Y-20763500D01*
X54412500Y-20299500D02*
X57012500Y-20299500D01*
X57012500Y-20299500D02*
X57012500Y-20763500D01*
X47700000Y-93962000D02*
X47700000Y-91422000D01*
X47700000Y-91422000D02*
X46531000Y-91422000D01*
X36469000Y-91422000D02*
X35360000Y-91422000D01*
X36392000Y-96100000D02*
X46608000Y-96100000D01*
X35360000Y-91422000D02*
X35360000Y-93859000D01*
X47125000Y-91740000D02*
G75*
G03*
X47125000Y-91740000I-125000J0D01*
G01*
X161150000Y-22538000D02*
X161150000Y-25078000D01*
X161150000Y-25078000D02*
X162319000Y-25078000D01*
X172381000Y-25078000D02*
X173490000Y-25078000D01*
X172458000Y-20400000D02*
X162242000Y-20400000D01*
X173490000Y-25078000D02*
X173490000Y-22641000D01*
X161975000Y-24760000D02*
G75*
G03*
X161975000Y-24760000I-125000J0D01*
G01*
G36*
X57995770Y-29120192D02*
G01*
X57990885Y-29125077D01*
X57986000Y-29120192D01*
X57990885Y-29115307D01*
X57995770Y-29120192D01*
G37*
G36*
X57810154Y-31201038D02*
G01*
X57805270Y-31205923D01*
X57800385Y-31201038D01*
X57805270Y-31196153D01*
X57810154Y-31201038D01*
G37*
G36*
X57761308Y-28670807D02*
G01*
X57756423Y-28675692D01*
X57751539Y-28670807D01*
X57756423Y-28665923D01*
X57761308Y-28670807D01*
G37*
G36*
X57683154Y-28719653D02*
G01*
X57678270Y-28724538D01*
X57673385Y-28719653D01*
X57678270Y-28714769D01*
X57683154Y-28719653D01*
G37*
G36*
X57605000Y-31367115D02*
G01*
X57600116Y-31372000D01*
X57595231Y-31367115D01*
X57600116Y-31362230D01*
X57605000Y-31367115D01*
G37*
G36*
X57605000Y-28534038D02*
G01*
X57600116Y-28538923D01*
X57595231Y-28534038D01*
X57600116Y-28529153D01*
X57605000Y-28534038D01*
G37*
G36*
X57468231Y-28504730D02*
G01*
X57463347Y-28509615D01*
X57458462Y-28504730D01*
X57463347Y-28499846D01*
X57468231Y-28504730D01*
G37*
G36*
X57097000Y-28690346D02*
G01*
X57092116Y-28695230D01*
X57087231Y-28690346D01*
X57092116Y-28685461D01*
X57097000Y-28690346D01*
G37*
G36*
X57097000Y-28240961D02*
G01*
X57092116Y-28245846D01*
X57087231Y-28240961D01*
X57092116Y-28236077D01*
X57097000Y-28240961D01*
G37*
G36*
X57038385Y-28582884D02*
G01*
X57033500Y-28587769D01*
X57028616Y-28582884D01*
X57033500Y-28578000D01*
X57038385Y-28582884D01*
G37*
G36*
X57009077Y-31386653D02*
G01*
X57004193Y-31391538D01*
X56999308Y-31386653D01*
X57004193Y-31381769D01*
X57009077Y-31386653D01*
G37*
G36*
X56960231Y-28612192D02*
G01*
X56955347Y-28617077D01*
X56950462Y-28612192D01*
X56955347Y-28607307D01*
X56960231Y-28612192D01*
G37*
G36*
X56667154Y-28026038D02*
G01*
X56662270Y-28030923D01*
X56657385Y-28026038D01*
X56662270Y-28021153D01*
X56667154Y-28026038D01*
G37*
G36*
X55065000Y-31982577D02*
G01*
X55060116Y-31987461D01*
X55055231Y-31982577D01*
X55060116Y-31977692D01*
X55065000Y-31982577D01*
G37*
G36*
X54957539Y-28074884D02*
G01*
X54952654Y-28079769D01*
X54947770Y-28074884D01*
X54952654Y-28070000D01*
X54957539Y-28074884D01*
G37*
G36*
X54908693Y-28104192D02*
G01*
X54903808Y-28109077D01*
X54898923Y-28104192D01*
X54903808Y-28099307D01*
X54908693Y-28104192D01*
G37*
G36*
X54742616Y-31894653D02*
G01*
X54737731Y-31899538D01*
X54732847Y-31894653D01*
X54737731Y-31889769D01*
X54742616Y-31894653D01*
G37*
G36*
X54586308Y-31308500D02*
G01*
X54581423Y-31313384D01*
X54576539Y-31308500D01*
X54581423Y-31303615D01*
X54586308Y-31308500D01*
G37*
G36*
X54527693Y-28612192D02*
G01*
X54522808Y-28617077D01*
X54517923Y-28612192D01*
X54522808Y-28607307D01*
X54527693Y-28612192D01*
G37*
G36*
X54527693Y-28289807D02*
G01*
X54522808Y-28294692D01*
X54517923Y-28289807D01*
X54522808Y-28284923D01*
X54527693Y-28289807D01*
G37*
G36*
X54478847Y-28319115D02*
G01*
X54473962Y-28324000D01*
X54469077Y-28319115D01*
X54473962Y-28314230D01*
X54478847Y-28319115D01*
G37*
G36*
X54234616Y-28612192D02*
G01*
X54229731Y-28617077D01*
X54224847Y-28612192D01*
X54229731Y-28607307D01*
X54234616Y-28612192D01*
G37*
G36*
X54078308Y-28455884D02*
G01*
X54073423Y-28460769D01*
X54068539Y-28455884D01*
X54073423Y-28451000D01*
X54078308Y-28455884D01*
G37*
G36*
X54049000Y-28426577D02*
G01*
X54044116Y-28431461D01*
X54039231Y-28426577D01*
X54044116Y-28421692D01*
X54049000Y-28426577D01*
G37*
G36*
X53863385Y-31415961D02*
G01*
X53858500Y-31420846D01*
X53853616Y-31415961D01*
X53858500Y-31411077D01*
X53863385Y-31415961D01*
G37*
G36*
X53834077Y-31367115D02*
G01*
X53829193Y-31372000D01*
X53824308Y-31367115D01*
X53829193Y-31362230D01*
X53834077Y-31367115D01*
G37*
G36*
X53755923Y-28504730D02*
G01*
X53751039Y-28509615D01*
X53746154Y-28504730D01*
X53751039Y-28499846D01*
X53755923Y-28504730D01*
G37*
G36*
X53619154Y-28856423D02*
G01*
X53614270Y-28861307D01*
X53609385Y-28856423D01*
X53614270Y-28851538D01*
X53619154Y-28856423D01*
G37*
G36*
X53462847Y-30800500D02*
G01*
X53457962Y-30805384D01*
X53453077Y-30800500D01*
X53457962Y-30795615D01*
X53462847Y-30800500D01*
G37*
G36*
X53462847Y-29120192D02*
G01*
X53457962Y-29125077D01*
X53453077Y-29120192D01*
X53457962Y-29115307D01*
X53462847Y-29120192D01*
G37*
G36*
X53433539Y-30722346D02*
G01*
X53428654Y-30727230D01*
X53423770Y-30722346D01*
X53428654Y-30717461D01*
X53433539Y-30722346D01*
G37*
G36*
X58002282Y-30798871D02*
G01*
X58003811Y-30801810D01*
X57995770Y-30805384D01*
X57990598Y-30804679D01*
X57989257Y-30798871D01*
X57990689Y-30797702D01*
X58002282Y-30798871D01*
G37*
G36*
X57894821Y-31013794D02*
G01*
X57896349Y-31016733D01*
X57888308Y-31020307D01*
X57883136Y-31019602D01*
X57881795Y-31013794D01*
X57883227Y-31012625D01*
X57894821Y-31013794D01*
G37*
G36*
X57816667Y-29147871D02*
G01*
X57818195Y-29150810D01*
X57810154Y-29154384D01*
X57804982Y-29153679D01*
X57803641Y-29147871D01*
X57805073Y-29146702D01*
X57816667Y-29147871D01*
G37*
G36*
X57709206Y-28610564D02*
G01*
X57710734Y-28613502D01*
X57702693Y-28617077D01*
X57697521Y-28616371D01*
X57696180Y-28610564D01*
X57697612Y-28609394D01*
X57709206Y-28610564D01*
G37*
G36*
X57224000Y-31577153D02*
G01*
X57223295Y-31582325D01*
X57217488Y-31583666D01*
X57216318Y-31582234D01*
X57217488Y-31570641D01*
X57220426Y-31569112D01*
X57224000Y-31577153D01*
G37*
G36*
X57093744Y-31521794D02*
G01*
X57095272Y-31524733D01*
X57087231Y-31528307D01*
X57082059Y-31527602D01*
X57080718Y-31521794D01*
X57082150Y-31520625D01*
X57093744Y-31521794D01*
G37*
G36*
X56960231Y-31499000D02*
G01*
X56959526Y-31504171D01*
X56953718Y-31505512D01*
X56952549Y-31504081D01*
X56953718Y-31492487D01*
X56956657Y-31490958D01*
X56960231Y-31499000D01*
G37*
G36*
X56908129Y-31258025D02*
G01*
X56909657Y-31260964D01*
X56901616Y-31264538D01*
X56896444Y-31263833D01*
X56895103Y-31258025D01*
X56896535Y-31256856D01*
X56908129Y-31258025D01*
G37*
G36*
X56745308Y-31284077D02*
G01*
X56744603Y-31289248D01*
X56738795Y-31290589D01*
X56737626Y-31289157D01*
X56738795Y-31277564D01*
X56741734Y-31276035D01*
X56745308Y-31284077D01*
G37*
G36*
X54635154Y-31792077D02*
G01*
X54634449Y-31797248D01*
X54628641Y-31798589D01*
X54627472Y-31797157D01*
X54628641Y-31785564D01*
X54631580Y-31784035D01*
X54635154Y-31792077D01*
G37*
G36*
X54612359Y-28102564D02*
G01*
X54613888Y-28105502D01*
X54605847Y-28109077D01*
X54600675Y-28108371D01*
X54599334Y-28102564D01*
X54600766Y-28101394D01*
X54612359Y-28102564D01*
G37*
G36*
X54426744Y-28903641D02*
G01*
X54428272Y-28906579D01*
X54420231Y-28910153D01*
X54415059Y-28909448D01*
X54413718Y-28903641D01*
X54415150Y-28902471D01*
X54426744Y-28903641D01*
G37*
G36*
X54400693Y-29281384D02*
G01*
X54399988Y-29286556D01*
X54394180Y-29287897D01*
X54393011Y-29286465D01*
X54394180Y-29274871D01*
X54397118Y-29273343D01*
X54400693Y-29281384D01*
G37*
G36*
X54211821Y-31580410D02*
G01*
X54213349Y-31583348D01*
X54205308Y-31586923D01*
X54200136Y-31586218D01*
X54198795Y-31580410D01*
X54200227Y-31579241D01*
X54211821Y-31580410D01*
G37*
G36*
X54182513Y-28317487D02*
G01*
X54184042Y-28320425D01*
X54176000Y-28324000D01*
X54170829Y-28323295D01*
X54169488Y-28317487D01*
X54170919Y-28316318D01*
X54182513Y-28317487D01*
G37*
G36*
X54156462Y-28587769D02*
G01*
X54155757Y-28592941D01*
X54149949Y-28594282D01*
X54148780Y-28592850D01*
X54149949Y-28581256D01*
X54152888Y-28579728D01*
X54156462Y-28587769D01*
G37*
G36*
X53674513Y-31150564D02*
G01*
X53676042Y-31153502D01*
X53668000Y-31157077D01*
X53662829Y-31156371D01*
X53661488Y-31150564D01*
X53662919Y-31149394D01*
X53674513Y-31150564D01*
G37*
G36*
X53596359Y-28796179D02*
G01*
X53597888Y-28799117D01*
X53589847Y-28802692D01*
X53584675Y-28801987D01*
X53583334Y-28796179D01*
X53584766Y-28795010D01*
X53596359Y-28796179D01*
G37*
G36*
X53567052Y-28825487D02*
G01*
X53568580Y-28828425D01*
X53560539Y-28832000D01*
X53555367Y-28831295D01*
X53554026Y-28825487D01*
X53555458Y-28824318D01*
X53567052Y-28825487D01*
G37*
G36*
X53547513Y-28932948D02*
G01*
X53549042Y-28935887D01*
X53541000Y-28939461D01*
X53535829Y-28938756D01*
X53534488Y-28932948D01*
X53535919Y-28931779D01*
X53547513Y-28932948D01*
G37*
G36*
X53488898Y-29226025D02*
G01*
X53490426Y-29228964D01*
X53482385Y-29232538D01*
X53477213Y-29231833D01*
X53475872Y-29226025D01*
X53477304Y-29224856D01*
X53488898Y-29226025D01*
G37*
G36*
X53488898Y-29069718D02*
G01*
X53490426Y-29072656D01*
X53482385Y-29076230D01*
X53477213Y-29075525D01*
X53475872Y-29069718D01*
X53477304Y-29068548D01*
X53488898Y-29069718D01*
G37*
G36*
X57287402Y-31469533D02*
G01*
X57288370Y-31474655D01*
X57278308Y-31479461D01*
X57273375Y-31479270D01*
X57263509Y-31474655D01*
X57272172Y-31465224D01*
X57275694Y-31463897D01*
X57287402Y-31469533D01*
G37*
G36*
X57150633Y-31655148D02*
G01*
X57151600Y-31660270D01*
X57141539Y-31665077D01*
X57136606Y-31664885D01*
X57126740Y-31660271D01*
X57135402Y-31650840D01*
X57138925Y-31649512D01*
X57150633Y-31655148D01*
G37*
G36*
X57734336Y-28627130D02*
G01*
X57741770Y-28636615D01*
X57741486Y-28638950D01*
X57732000Y-28646384D01*
X57729665Y-28646100D01*
X57722231Y-28636615D01*
X57722515Y-28634280D01*
X57732000Y-28626846D01*
X57734336Y-28627130D01*
G37*
G36*
X57675644Y-28578375D02*
G01*
X57683154Y-28587769D01*
X57683042Y-28589980D01*
X57678846Y-28597538D01*
X57677279Y-28597088D01*
X57668500Y-28587769D01*
X57666974Y-28583985D01*
X57672808Y-28578000D01*
X57675644Y-28578375D01*
G37*
G36*
X57490105Y-28441514D02*
G01*
X57497539Y-28451000D01*
X57497255Y-28453335D01*
X57487770Y-28460769D01*
X57485435Y-28460485D01*
X57478000Y-28451000D01*
X57478284Y-28448664D01*
X57487770Y-28441230D01*
X57490105Y-28441514D01*
G37*
G36*
X57411951Y-28392668D02*
G01*
X57419385Y-28402153D01*
X57419101Y-28404489D01*
X57409616Y-28411923D01*
X57407281Y-28411639D01*
X57399847Y-28402153D01*
X57400130Y-28399818D01*
X57409616Y-28392384D01*
X57411951Y-28392668D01*
G37*
G36*
X57220106Y-31431065D02*
G01*
X57228885Y-31440384D01*
X57230412Y-31444168D01*
X57224577Y-31450153D01*
X57221741Y-31449778D01*
X57214231Y-31440384D01*
X57214343Y-31438173D01*
X57218539Y-31430615D01*
X57220106Y-31431065D01*
G37*
G36*
X57112645Y-31245449D02*
G01*
X57121423Y-31254769D01*
X57122950Y-31258553D01*
X57117115Y-31264538D01*
X57114280Y-31264163D01*
X57106770Y-31254769D01*
X57106882Y-31252558D01*
X57111078Y-31245000D01*
X57112645Y-31245449D01*
G37*
G36*
X57089566Y-31167130D02*
G01*
X57097000Y-31176615D01*
X57096717Y-31178950D01*
X57087231Y-31186384D01*
X57084896Y-31186100D01*
X57077462Y-31176615D01*
X57077746Y-31174280D01*
X57087231Y-31166846D01*
X57089566Y-31167130D01*
G37*
G36*
X57011412Y-28226591D02*
G01*
X57018847Y-28236077D01*
X57018563Y-28238412D01*
X57009077Y-28245846D01*
X57006742Y-28245562D01*
X56999308Y-28236077D01*
X56999592Y-28233741D01*
X57009077Y-28226307D01*
X57011412Y-28226591D01*
G37*
G36*
X56927029Y-31352911D02*
G01*
X56935808Y-31362230D01*
X56937335Y-31366015D01*
X56931500Y-31372000D01*
X56928664Y-31371624D01*
X56921154Y-31362230D01*
X56921266Y-31360019D01*
X56925462Y-31352461D01*
X56927029Y-31352911D01*
G37*
G36*
X56874567Y-31274683D02*
G01*
X56882077Y-31284077D01*
X56881965Y-31286287D01*
X56877769Y-31293846D01*
X56876202Y-31293396D01*
X56867423Y-31284077D01*
X56865897Y-31280292D01*
X56871732Y-31274307D01*
X56874567Y-31274683D01*
G37*
G36*
X56749418Y-31783074D02*
G01*
X56750193Y-31792077D01*
X56748188Y-31795000D01*
X56739847Y-31801846D01*
X56738872Y-31801592D01*
X56735539Y-31792077D01*
X56735936Y-31789399D01*
X56745885Y-31782307D01*
X56749418Y-31783074D01*
G37*
G36*
X56741414Y-28627295D02*
G01*
X56750193Y-28636615D01*
X56751719Y-28640399D01*
X56745885Y-28646384D01*
X56743049Y-28646009D01*
X56735539Y-28636615D01*
X56735651Y-28634404D01*
X56739847Y-28626846D01*
X56741414Y-28627295D01*
G37*
G36*
X56581566Y-28011668D02*
G01*
X56589000Y-28021153D01*
X56588717Y-28023489D01*
X56579231Y-28030923D01*
X56576896Y-28030639D01*
X56569462Y-28021153D01*
X56569746Y-28018818D01*
X56579231Y-28011384D01*
X56581566Y-28011668D01*
G37*
G36*
X54930566Y-31997514D02*
G01*
X54938000Y-32007000D01*
X54937717Y-32009335D01*
X54928231Y-32016769D01*
X54925896Y-32016485D01*
X54918462Y-32007000D01*
X54918746Y-32004664D01*
X54928231Y-31997230D01*
X54930566Y-31997514D01*
G37*
G36*
X54901259Y-28040976D02*
G01*
X54908693Y-28050461D01*
X54908409Y-28052796D01*
X54898923Y-28060230D01*
X54896588Y-28059946D01*
X54889154Y-28050461D01*
X54889438Y-28048126D01*
X54898923Y-28040692D01*
X54901259Y-28040976D01*
G37*
G36*
X54854187Y-27963305D02*
G01*
X54854962Y-27972307D01*
X54852957Y-27975231D01*
X54844616Y-27982077D01*
X54843641Y-27981823D01*
X54840308Y-27972307D01*
X54840706Y-27969630D01*
X54850654Y-27962538D01*
X54854187Y-27963305D01*
G37*
G36*
X54500720Y-31782591D02*
G01*
X54508154Y-31792077D01*
X54507870Y-31794412D01*
X54498385Y-31801846D01*
X54496050Y-31801562D01*
X54488616Y-31792077D01*
X54488900Y-31789741D01*
X54498385Y-31782307D01*
X54500720Y-31782591D01*
G37*
G36*
X54471412Y-28255899D02*
G01*
X54478847Y-28265384D01*
X54478563Y-28267719D01*
X54469077Y-28275153D01*
X54466742Y-28274870D01*
X54459308Y-28265384D01*
X54459592Y-28263049D01*
X54469077Y-28255615D01*
X54471412Y-28255899D01*
G37*
G36*
X54424341Y-28178228D02*
G01*
X54425116Y-28187230D01*
X54423111Y-28190154D01*
X54414770Y-28197000D01*
X54413795Y-28196746D01*
X54410462Y-28187230D01*
X54410860Y-28184553D01*
X54420808Y-28177461D01*
X54424341Y-28178228D01*
G37*
G36*
X54393183Y-31196529D02*
G01*
X54400693Y-31205923D01*
X54400581Y-31208134D01*
X54396385Y-31215692D01*
X54394818Y-31215242D01*
X54386039Y-31205923D01*
X54384512Y-31202138D01*
X54390347Y-31196153D01*
X54393183Y-31196529D01*
G37*
G36*
X54395418Y-28814114D02*
G01*
X54400693Y-28827115D01*
X54399591Y-28833856D01*
X54390923Y-28841769D01*
X54386429Y-28840116D01*
X54381154Y-28827115D01*
X54382256Y-28820374D01*
X54390923Y-28812461D01*
X54395418Y-28814114D01*
G37*
G36*
X54363875Y-28715144D02*
G01*
X54371385Y-28724538D01*
X54371273Y-28726749D01*
X54367077Y-28734307D01*
X54365510Y-28733858D01*
X54356731Y-28724538D01*
X54355205Y-28720754D01*
X54361039Y-28714769D01*
X54363875Y-28715144D01*
G37*
G36*
X54308876Y-28734757D02*
G01*
X54317654Y-28744077D01*
X54319181Y-28747861D01*
X54313346Y-28753846D01*
X54310511Y-28753470D01*
X54303000Y-28744077D01*
X54303112Y-28741866D01*
X54307308Y-28734307D01*
X54308876Y-28734757D01*
G37*
G36*
X54308876Y-28627295D02*
G01*
X54317654Y-28636615D01*
X54319181Y-28640399D01*
X54313346Y-28646384D01*
X54310511Y-28646009D01*
X54303000Y-28636615D01*
X54303112Y-28634404D01*
X54307308Y-28626846D01*
X54308876Y-28627295D01*
G37*
G36*
X54285797Y-28470822D02*
G01*
X54293231Y-28480307D01*
X54292947Y-28482642D01*
X54283462Y-28490077D01*
X54281127Y-28489793D01*
X54273693Y-28480307D01*
X54273977Y-28477972D01*
X54283462Y-28470538D01*
X54285797Y-28470822D01*
G37*
G36*
X54230722Y-28441680D02*
G01*
X54239500Y-28451000D01*
X54241027Y-28454784D01*
X54235192Y-28460769D01*
X54232357Y-28460393D01*
X54224847Y-28451000D01*
X54224959Y-28448789D01*
X54229155Y-28441230D01*
X54230722Y-28441680D01*
G37*
G36*
X54178260Y-28715144D02*
G01*
X54185770Y-28724538D01*
X54185658Y-28726749D01*
X54181462Y-28734307D01*
X54179895Y-28733858D01*
X54171116Y-28724538D01*
X54169589Y-28720754D01*
X54175424Y-28714769D01*
X54178260Y-28715144D01*
G37*
G36*
X53916341Y-31382536D02*
G01*
X53917116Y-31391538D01*
X53915111Y-31394462D01*
X53906770Y-31401307D01*
X53905795Y-31401053D01*
X53902462Y-31391538D01*
X53902860Y-31388860D01*
X53912808Y-31381769D01*
X53916341Y-31382536D01*
G37*
G36*
X53885259Y-31430899D02*
G01*
X53892693Y-31440384D01*
X53892409Y-31442719D01*
X53882923Y-31450153D01*
X53880588Y-31449870D01*
X53873154Y-31440384D01*
X53873438Y-31438049D01*
X53882923Y-31430615D01*
X53885259Y-31430899D01*
G37*
G36*
X53836412Y-31460207D02*
G01*
X53843847Y-31469692D01*
X53843563Y-31472027D01*
X53834077Y-31479461D01*
X53831742Y-31479177D01*
X53824308Y-31469692D01*
X53824592Y-31467357D01*
X53834077Y-31459923D01*
X53836412Y-31460207D01*
G37*
G36*
X53640952Y-31196529D02*
G01*
X53648462Y-31205923D01*
X53648350Y-31208134D01*
X53644154Y-31215692D01*
X53642587Y-31215242D01*
X53633808Y-31205923D01*
X53632282Y-31202138D01*
X53638116Y-31196153D01*
X53640952Y-31196529D01*
G37*
G36*
X57918450Y-29859246D02*
G01*
X57932270Y-29867538D01*
X57932529Y-29868003D01*
X57927705Y-29874706D01*
X57907847Y-29877307D01*
X57906402Y-29877298D01*
X57887280Y-29874422D01*
X57883423Y-29867538D01*
X57889386Y-29862389D01*
X57907847Y-29857769D01*
X57918450Y-29859246D01*
G37*
G36*
X55911373Y-31704215D02*
G01*
X55921515Y-31713057D01*
X55924693Y-31738346D01*
X55923703Y-31754224D01*
X55918146Y-31770145D01*
X55909909Y-31769372D01*
X55901542Y-31750557D01*
X55896343Y-31725696D01*
X55898360Y-31709017D01*
X55910039Y-31704153D01*
X55911373Y-31704215D01*
G37*
G36*
X55600852Y-32082853D02*
G01*
X55605628Y-32103639D01*
X55603989Y-32131557D01*
X55598549Y-32149125D01*
X55591342Y-32152675D01*
X55585302Y-32140493D01*
X55582770Y-32114461D01*
X55583000Y-32105707D01*
X55586153Y-32084053D01*
X55591823Y-32075384D01*
X55600852Y-32082853D01*
G37*
G36*
X57131825Y-30277852D02*
G01*
X57159495Y-30280978D01*
X57176900Y-30288477D01*
X57179406Y-30298408D01*
X57175160Y-30302379D01*
X57157267Y-30307298D01*
X57134558Y-30306856D01*
X57115053Y-30301706D01*
X57106770Y-30292500D01*
X57111351Y-30283086D01*
X57130394Y-30277846D01*
X57131825Y-30277852D01*
G37*
G36*
X56478099Y-30496856D02*
G01*
X56484473Y-30501044D01*
X56486135Y-30512774D01*
X56479516Y-30517165D01*
X56460142Y-30520206D01*
X56436567Y-30519235D01*
X56416655Y-30514794D01*
X56408270Y-30507423D01*
X56414786Y-30500503D01*
X56433759Y-30495067D01*
X56457486Y-30493454D01*
X56478099Y-30496856D01*
G37*
G36*
X56243794Y-30611524D02*
G01*
X56247077Y-30638493D01*
X56246638Y-30653226D01*
X56242196Y-30672704D01*
X56231834Y-30678384D01*
X56226368Y-30677480D01*
X56219656Y-30667317D01*
X56219622Y-30642505D01*
X56220603Y-30633727D01*
X56227300Y-30609617D01*
X56236116Y-30602058D01*
X56243794Y-30611524D01*
G37*
G36*
X55762619Y-32242057D02*
G01*
X55766878Y-32260741D01*
X55764368Y-32285444D01*
X55757922Y-32301557D01*
X55748660Y-32309846D01*
X55744767Y-32307379D01*
X55740242Y-32292222D01*
X55739443Y-32270053D01*
X55742344Y-32248836D01*
X55748916Y-32236534D01*
X55753364Y-32235003D01*
X55762619Y-32242057D01*
G37*
G36*
X53674329Y-29832548D02*
G01*
X53680704Y-29836736D01*
X53682366Y-29848466D01*
X53675747Y-29852857D01*
X53656373Y-29855898D01*
X53632798Y-29854928D01*
X53612886Y-29850486D01*
X53604500Y-29843115D01*
X53611017Y-29836195D01*
X53629990Y-29830759D01*
X53653717Y-29829146D01*
X53674329Y-29832548D01*
G37*
G36*
X58032903Y-29887736D02*
G01*
X58055368Y-29891273D01*
X58064154Y-29896846D01*
X58060858Y-29900365D01*
X58043172Y-29904858D01*
X58015308Y-29906615D01*
X57997713Y-29905956D01*
X57975248Y-29902419D01*
X57966462Y-29896846D01*
X57969758Y-29893327D01*
X57987444Y-29888834D01*
X58015308Y-29887077D01*
X58032903Y-29887736D01*
G37*
G36*
X57955177Y-30043832D02*
G01*
X57977269Y-30047327D01*
X57986000Y-30053153D01*
X57983983Y-30056073D01*
X57968257Y-30060982D01*
X57942039Y-30062923D01*
X57928901Y-30062474D01*
X57906809Y-30058980D01*
X57898077Y-30053153D01*
X57900095Y-30050234D01*
X57915821Y-30045325D01*
X57942039Y-30043384D01*
X57955177Y-30043832D01*
G37*
G36*
X57848221Y-30072941D02*
G01*
X57869872Y-30076344D01*
X57878539Y-30082461D01*
X57877542Y-30084651D01*
X57863932Y-30090064D01*
X57839462Y-30092230D01*
X57830703Y-30091981D01*
X57809052Y-30088579D01*
X57800385Y-30082461D01*
X57801381Y-30080271D01*
X57814992Y-30074859D01*
X57839462Y-30072692D01*
X57848221Y-30072941D01*
G37*
G36*
X57682144Y-30121787D02*
G01*
X57703795Y-30125190D01*
X57712462Y-30131307D01*
X57711466Y-30133497D01*
X57697855Y-30138910D01*
X57673385Y-30141077D01*
X57664626Y-30140827D01*
X57642975Y-30137425D01*
X57634308Y-30131307D01*
X57635305Y-30129117D01*
X57648915Y-30123705D01*
X57673385Y-30121538D01*
X57682144Y-30121787D01*
G37*
G36*
X57369928Y-29701644D02*
G01*
X57390565Y-29704817D01*
X57394962Y-29711230D01*
X57394299Y-29712092D01*
X57379642Y-29718411D01*
X57355308Y-29721000D01*
X57351317Y-29720931D01*
X57330270Y-29717731D01*
X57321693Y-29711230D01*
X57322794Y-29708946D01*
X57336664Y-29703598D01*
X57361346Y-29701461D01*
X57369928Y-29701644D01*
G37*
G36*
X57281606Y-29672403D02*
G01*
X57303257Y-29675805D01*
X57311923Y-29681923D01*
X57310927Y-29684113D01*
X57297317Y-29689525D01*
X57272847Y-29691692D01*
X57264087Y-29691443D01*
X57242436Y-29688040D01*
X57233770Y-29681923D01*
X57234766Y-29679733D01*
X57248377Y-29674320D01*
X57272847Y-29672153D01*
X57281606Y-29672403D01*
G37*
G36*
X57232760Y-30258556D02*
G01*
X57254411Y-30261959D01*
X57263077Y-30268077D01*
X57262081Y-30270266D01*
X57248470Y-30275679D01*
X57224000Y-30277846D01*
X57215241Y-30277597D01*
X57193590Y-30274194D01*
X57184923Y-30268077D01*
X57185920Y-30265887D01*
X57199530Y-30260474D01*
X57224000Y-30258307D01*
X57232760Y-30258556D01*
G37*
G36*
X57092482Y-30311407D02*
G01*
X57097000Y-30321807D01*
X57095774Y-30328437D01*
X57085296Y-30334719D01*
X57060366Y-30334609D01*
X57053796Y-30333906D01*
X57032373Y-30328807D01*
X57023731Y-30321807D01*
X57024325Y-30320006D01*
X57036800Y-30313261D01*
X57060366Y-30309006D01*
X57075939Y-30308247D01*
X57092482Y-30311407D01*
G37*
G36*
X56987228Y-30337332D02*
G01*
X57010014Y-30340880D01*
X57018847Y-30346230D01*
X57014057Y-30350251D01*
X56994541Y-30354394D01*
X56965116Y-30356000D01*
X56943003Y-30355129D01*
X56920218Y-30351580D01*
X56911385Y-30346230D01*
X56916175Y-30342210D01*
X56935691Y-30338067D01*
X56965116Y-30336461D01*
X56987228Y-30337332D01*
G37*
G36*
X56938382Y-29565563D02*
G01*
X56961168Y-29569111D01*
X56970000Y-29574461D01*
X56965211Y-29578482D01*
X56945694Y-29582624D01*
X56916270Y-29584230D01*
X56894157Y-29583360D01*
X56871372Y-29579811D01*
X56862539Y-29574461D01*
X56867329Y-29570441D01*
X56886845Y-29566298D01*
X56916270Y-29564692D01*
X56938382Y-29565563D01*
G37*
G36*
X56849962Y-29537552D02*
G01*
X56862340Y-29545163D01*
X56856026Y-29558179D01*
X56855585Y-29558564D01*
X56841088Y-29562905D01*
X56816949Y-29564692D01*
X56816708Y-29564692D01*
X56792197Y-29561125D01*
X56784385Y-29550038D01*
X56785094Y-29545825D01*
X56796291Y-29537804D01*
X56823462Y-29535384D01*
X56849962Y-29537552D01*
G37*
G36*
X56665211Y-29487197D02*
G01*
X56687676Y-29490734D01*
X56696462Y-29496307D01*
X56693166Y-29499826D01*
X56675480Y-29504319D01*
X56647616Y-29506077D01*
X56630021Y-29505417D01*
X56607556Y-29501880D01*
X56598770Y-29496307D01*
X56602066Y-29492788D01*
X56619752Y-29488295D01*
X56647616Y-29486538D01*
X56665211Y-29487197D01*
G37*
G36*
X56557749Y-30473890D02*
G01*
X56580214Y-30477427D01*
X56589000Y-30483000D01*
X56585704Y-30486519D01*
X56568018Y-30491012D01*
X56540154Y-30492769D01*
X56522559Y-30492110D01*
X56500094Y-30488572D01*
X56491308Y-30483000D01*
X56494604Y-30479481D01*
X56512290Y-30474988D01*
X56540154Y-30473230D01*
X56557749Y-30473890D01*
G37*
G36*
X56362374Y-30522166D02*
G01*
X56391938Y-30525114D01*
X56403248Y-30532506D01*
X56397024Y-30544720D01*
X56388970Y-30547925D01*
X56367338Y-30548761D01*
X56341255Y-30545854D01*
X56318714Y-30540253D01*
X56307708Y-30533007D01*
X56308054Y-30529728D01*
X56321967Y-30524029D01*
X56353725Y-30522077D01*
X56362374Y-30522166D01*
G37*
G36*
X56211297Y-30688152D02*
G01*
X56215945Y-30708441D01*
X56217770Y-30737576D01*
X56217135Y-30754642D01*
X56213601Y-30777066D01*
X56208000Y-30785846D01*
X56203926Y-30780867D01*
X56199821Y-30761142D01*
X56198231Y-30731538D01*
X56198820Y-30710519D01*
X56202143Y-30688300D01*
X56208000Y-30683269D01*
X56211297Y-30688152D01*
G37*
G36*
X56180883Y-30786842D02*
G01*
X56186295Y-30800453D01*
X56188462Y-30824923D01*
X56188213Y-30833682D01*
X56184810Y-30855333D01*
X56178693Y-30864000D01*
X56176503Y-30863003D01*
X56171090Y-30849393D01*
X56168923Y-30824923D01*
X56169173Y-30816163D01*
X56172575Y-30794513D01*
X56178693Y-30785846D01*
X56180883Y-30786842D01*
G37*
G36*
X56180883Y-29086996D02*
G01*
X56186295Y-29100606D01*
X56188462Y-29125077D01*
X56188213Y-29133836D01*
X56184810Y-29155487D01*
X56178693Y-29164153D01*
X56176503Y-29163157D01*
X56171090Y-29149547D01*
X56168923Y-29125077D01*
X56169173Y-29116317D01*
X56172575Y-29094666D01*
X56178693Y-29086000D01*
X56180883Y-29086996D01*
G37*
G36*
X56161923Y-28981664D02*
G01*
X56167355Y-28996667D01*
X56168923Y-29027384D01*
X56167986Y-29052896D01*
X56163485Y-29071001D01*
X56154270Y-29076230D01*
X56146616Y-29073105D01*
X56141185Y-29058102D01*
X56139616Y-29027384D01*
X56140554Y-29001872D01*
X56145054Y-28983767D01*
X56154270Y-28978538D01*
X56161923Y-28981664D01*
G37*
G36*
X56126763Y-28896094D02*
G01*
X56133508Y-28908568D01*
X56137763Y-28932134D01*
X56138522Y-28947708D01*
X56135363Y-28964250D01*
X56124962Y-28968769D01*
X56118333Y-28967542D01*
X56112050Y-28957064D01*
X56112161Y-28932134D01*
X56112863Y-28925564D01*
X56117962Y-28904141D01*
X56124962Y-28895500D01*
X56126763Y-28896094D01*
G37*
G36*
X56102729Y-31060381D02*
G01*
X56108141Y-31073991D01*
X56110308Y-31098461D01*
X56110059Y-31107221D01*
X56106656Y-31128871D01*
X56100539Y-31137538D01*
X56098349Y-31136542D01*
X56092936Y-31122931D01*
X56090770Y-31098461D01*
X56091019Y-31089702D01*
X56094421Y-31068051D01*
X56100539Y-31059384D01*
X56102729Y-31060381D01*
G37*
G36*
X56102729Y-28813458D02*
G01*
X56108141Y-28827068D01*
X56110308Y-28851538D01*
X56110059Y-28860297D01*
X56106656Y-28881948D01*
X56100539Y-28890615D01*
X56098349Y-28889619D01*
X56092936Y-28876008D01*
X56090770Y-28851538D01*
X56091019Y-28842779D01*
X56094421Y-28821128D01*
X56100539Y-28812461D01*
X56102729Y-28813458D01*
G37*
G36*
X55997098Y-28446020D02*
G01*
X56001241Y-28465536D01*
X56002847Y-28494961D01*
X56001976Y-28517074D01*
X55998427Y-28539859D01*
X55993077Y-28548692D01*
X55989057Y-28543902D01*
X55984914Y-28524386D01*
X55983308Y-28494961D01*
X55984179Y-28472849D01*
X55987727Y-28450063D01*
X55993077Y-28441230D01*
X55997098Y-28446020D01*
G37*
G36*
X55995267Y-31402304D02*
G01*
X56000680Y-31415914D01*
X56002847Y-31440384D01*
X56002597Y-31449144D01*
X55999195Y-31470794D01*
X55993077Y-31479461D01*
X55990887Y-31478465D01*
X55985475Y-31464854D01*
X55983308Y-31440384D01*
X55983557Y-31431625D01*
X55986960Y-31409974D01*
X55993077Y-31401307D01*
X55995267Y-31402304D01*
G37*
G36*
X55967289Y-31492527D02*
G01*
X55971782Y-31510213D01*
X55973539Y-31538077D01*
X55972880Y-31555672D01*
X55969342Y-31578136D01*
X55963770Y-31586923D01*
X55960251Y-31583626D01*
X55955758Y-31565940D01*
X55954000Y-31538077D01*
X55954660Y-31520481D01*
X55958197Y-31498017D01*
X55963770Y-31489230D01*
X55967289Y-31492527D01*
G37*
G36*
X55965960Y-28364073D02*
G01*
X55971372Y-28377683D01*
X55973539Y-28402153D01*
X55973290Y-28410913D01*
X55969887Y-28432564D01*
X55963770Y-28441230D01*
X55961580Y-28440234D01*
X55956167Y-28426623D01*
X55954000Y-28402153D01*
X55954250Y-28393394D01*
X55957652Y-28371743D01*
X55963770Y-28363077D01*
X55965960Y-28364073D01*
G37*
G36*
X55947000Y-31599818D02*
G01*
X55952432Y-31614821D01*
X55954000Y-31645538D01*
X55953063Y-31671050D01*
X55948562Y-31689155D01*
X55939347Y-31694384D01*
X55931693Y-31691259D01*
X55926261Y-31676256D01*
X55924693Y-31645538D01*
X55925630Y-31620026D01*
X55930131Y-31601921D01*
X55939347Y-31596692D01*
X55947000Y-31599818D01*
G37*
G36*
X55947000Y-28258741D02*
G01*
X55952432Y-28273744D01*
X55954000Y-28304461D01*
X55953063Y-28329973D01*
X55948562Y-28348078D01*
X55939347Y-28353307D01*
X55931693Y-28350182D01*
X55926261Y-28335179D01*
X55924693Y-28304461D01*
X55925630Y-28278949D01*
X55930131Y-28260844D01*
X55939347Y-28255615D01*
X55947000Y-28258741D01*
G37*
G36*
X55889135Y-31785604D02*
G01*
X55893628Y-31803289D01*
X55895385Y-31831153D01*
X55894726Y-31848749D01*
X55891189Y-31871213D01*
X55885616Y-31880000D01*
X55882097Y-31876703D01*
X55877604Y-31859017D01*
X55875847Y-31831153D01*
X55876506Y-31813558D01*
X55880043Y-31791093D01*
X55885616Y-31782307D01*
X55889135Y-31785604D01*
G37*
G36*
X55887900Y-28071101D02*
G01*
X55893248Y-28084971D01*
X55895385Y-28109653D01*
X55895202Y-28118234D01*
X55892030Y-28138872D01*
X55885616Y-28143269D01*
X55884754Y-28142606D01*
X55878435Y-28127949D01*
X55875847Y-28103615D01*
X55875916Y-28099624D01*
X55879115Y-28078577D01*
X55885616Y-28070000D01*
X55887900Y-28071101D01*
G37*
G36*
X55811482Y-32050866D02*
G01*
X55815625Y-32070382D01*
X55817231Y-32099807D01*
X55816360Y-32121920D01*
X55812812Y-32144705D01*
X55807462Y-32153538D01*
X55803441Y-32148748D01*
X55799299Y-32129232D01*
X55797693Y-32099807D01*
X55798564Y-32077695D01*
X55802112Y-32054909D01*
X55807462Y-32046077D01*
X55811482Y-32050866D01*
G37*
G36*
X55780344Y-32154534D02*
G01*
X55785757Y-32168145D01*
X55787923Y-32192615D01*
X55787674Y-32201374D01*
X55784272Y-32223025D01*
X55778154Y-32231692D01*
X55775964Y-32230695D01*
X55770552Y-32217085D01*
X55768385Y-32192615D01*
X55768634Y-32183856D01*
X55772037Y-32162205D01*
X55778154Y-32153538D01*
X55780344Y-32154534D01*
G37*
G36*
X55780344Y-27719304D02*
G01*
X55785757Y-27732914D01*
X55787923Y-27757384D01*
X55787674Y-27766144D01*
X55784272Y-27787794D01*
X55778154Y-27796461D01*
X55775964Y-27795465D01*
X55770552Y-27781854D01*
X55768385Y-27757384D01*
X55768634Y-27748625D01*
X55772037Y-27726974D01*
X55778154Y-27718307D01*
X55780344Y-27719304D01*
G37*
G36*
X55650454Y-32242480D02*
G01*
X55655745Y-32260418D01*
X55659026Y-32288861D01*
X55659683Y-32318910D01*
X55656672Y-32334546D01*
X55649257Y-32336893D01*
X55647771Y-32336106D01*
X55640912Y-32322455D01*
X55637109Y-32298582D01*
X55636584Y-32271825D01*
X55639563Y-32249524D01*
X55646270Y-32239019D01*
X55650454Y-32242480D01*
G37*
G36*
X55624036Y-32154534D02*
G01*
X55629449Y-32168145D01*
X55631616Y-32192615D01*
X55631367Y-32201374D01*
X55627964Y-32223025D01*
X55621847Y-32231692D01*
X55619657Y-32230695D01*
X55614244Y-32217085D01*
X55612077Y-32192615D01*
X55612326Y-32183856D01*
X55615729Y-32162205D01*
X55621847Y-32153538D01*
X55624036Y-32154534D01*
G37*
G36*
X55624036Y-27719304D02*
G01*
X55629449Y-27732914D01*
X55631616Y-27757384D01*
X55631367Y-27766144D01*
X55627964Y-27787794D01*
X55621847Y-27796461D01*
X55619657Y-27795465D01*
X55614244Y-27781854D01*
X55612077Y-27757384D01*
X55612326Y-27748625D01*
X55615729Y-27726974D01*
X55621847Y-27718307D01*
X55624036Y-27719304D01*
G37*
G36*
X55596559Y-27801251D02*
G01*
X55600702Y-27820767D01*
X55602308Y-27850192D01*
X55601437Y-27872304D01*
X55597889Y-27895090D01*
X55592539Y-27903923D01*
X55588518Y-27899133D01*
X55584376Y-27879617D01*
X55582770Y-27850192D01*
X55583640Y-27828079D01*
X55587189Y-27805294D01*
X55592539Y-27796461D01*
X55596559Y-27801251D01*
G37*
G36*
X55517904Y-28073296D02*
G01*
X55522397Y-28090982D01*
X55524154Y-28118846D01*
X55523495Y-28136441D01*
X55519958Y-28158906D01*
X55514385Y-28167692D01*
X55510866Y-28164396D01*
X55506373Y-28146710D01*
X55504616Y-28118846D01*
X55505275Y-28101251D01*
X55508812Y-28078786D01*
X55514385Y-28070000D01*
X55517904Y-28073296D01*
G37*
G36*
X55515247Y-31807394D02*
G01*
X55521566Y-31822050D01*
X55524154Y-31846384D01*
X55524085Y-31850376D01*
X55520886Y-31871422D01*
X55514385Y-31880000D01*
X55512101Y-31878898D01*
X55506753Y-31865028D01*
X55504616Y-31840346D01*
X55504799Y-31831765D01*
X55507971Y-31811127D01*
X55514385Y-31806730D01*
X55515247Y-31807394D01*
G37*
G36*
X55497531Y-31707526D02*
G01*
X55502540Y-31726597D01*
X55503754Y-31752441D01*
X55500308Y-31778603D01*
X55494159Y-31793579D01*
X55484381Y-31801846D01*
X55481223Y-31799500D01*
X55477591Y-31783894D01*
X55477031Y-31759444D01*
X55479161Y-31733006D01*
X55483598Y-31711434D01*
X55489962Y-31701583D01*
X55497531Y-31707526D01*
G37*
G36*
X55491297Y-28177523D02*
G01*
X55501438Y-28186364D01*
X55504616Y-28211653D01*
X55504589Y-28214768D01*
X55500800Y-28238431D01*
X55489962Y-28245846D01*
X55488627Y-28245784D01*
X55478486Y-28236943D01*
X55475308Y-28211653D01*
X55475335Y-28208539D01*
X55479124Y-28184876D01*
X55489962Y-28177461D01*
X55491297Y-28177523D01*
G37*
G36*
X55468308Y-31599818D02*
G01*
X55473739Y-31614821D01*
X55475308Y-31645538D01*
X55474370Y-31671050D01*
X55469870Y-31689155D01*
X55460654Y-31694384D01*
X55453001Y-31691259D01*
X55447569Y-31676256D01*
X55446000Y-31645538D01*
X55446938Y-31620026D01*
X55451439Y-31601921D01*
X55460654Y-31596692D01*
X55468308Y-31599818D01*
G37*
G36*
X55468308Y-28258741D02*
G01*
X55473739Y-28273744D01*
X55475308Y-28304461D01*
X55474370Y-28329973D01*
X55469870Y-28348078D01*
X55460654Y-28353307D01*
X55453001Y-28350182D01*
X55447569Y-28335179D01*
X55446000Y-28304461D01*
X55446938Y-28278949D01*
X55451439Y-28260844D01*
X55460654Y-28255615D01*
X55468308Y-28258741D01*
G37*
G36*
X55439750Y-28366373D02*
G01*
X55444243Y-28384059D01*
X55446000Y-28411923D01*
X55445341Y-28429518D01*
X55441804Y-28451983D01*
X55436231Y-28460769D01*
X55432712Y-28457472D01*
X55428219Y-28439787D01*
X55426462Y-28411923D01*
X55427121Y-28394328D01*
X55430658Y-28371863D01*
X55436231Y-28363077D01*
X55439750Y-28366373D01*
G37*
G36*
X55438421Y-31509765D02*
G01*
X55443834Y-31523376D01*
X55446000Y-31547846D01*
X55445751Y-31556605D01*
X55442349Y-31578256D01*
X55436231Y-31586923D01*
X55434041Y-31585926D01*
X55428629Y-31572316D01*
X55426462Y-31547846D01*
X55426711Y-31539086D01*
X55430114Y-31517436D01*
X55436231Y-31508769D01*
X55438421Y-31509765D01*
G37*
G36*
X55301652Y-31060381D02*
G01*
X55307064Y-31073991D01*
X55309231Y-31098461D01*
X55308982Y-31107221D01*
X55305579Y-31128871D01*
X55299462Y-31137538D01*
X55297272Y-31136542D01*
X55291859Y-31122931D01*
X55289693Y-31098461D01*
X55289942Y-31089702D01*
X55293344Y-31068051D01*
X55299462Y-31059384D01*
X55301652Y-31060381D01*
G37*
G36*
X55301652Y-28813458D02*
G01*
X55307064Y-28827068D01*
X55309231Y-28851538D01*
X55308982Y-28860297D01*
X55305579Y-28881948D01*
X55299462Y-28890615D01*
X55297272Y-28889619D01*
X55291859Y-28876008D01*
X55289693Y-28851538D01*
X55289942Y-28842779D01*
X55293344Y-28821128D01*
X55299462Y-28812461D01*
X55301652Y-28813458D01*
G37*
G36*
X55247532Y-29003555D02*
G01*
X55254278Y-29016030D01*
X55258532Y-29039596D01*
X55259291Y-29055169D01*
X55256132Y-29071712D01*
X55245731Y-29076230D01*
X55239102Y-29075004D01*
X55232819Y-29064526D01*
X55232930Y-29039596D01*
X55233632Y-29033026D01*
X55238732Y-29011602D01*
X55245731Y-29002961D01*
X55247532Y-29003555D01*
G37*
G36*
X55253385Y-30876894D02*
G01*
X55258816Y-30891897D01*
X55260385Y-30922615D01*
X55259447Y-30948127D01*
X55254946Y-30966232D01*
X55245731Y-30971461D01*
X55238078Y-30968335D01*
X55232646Y-30953332D01*
X55231077Y-30922615D01*
X55232015Y-30897103D01*
X55236516Y-30878998D01*
X55245731Y-30873769D01*
X55253385Y-30876894D01*
G37*
G36*
X55223498Y-30786842D02*
G01*
X55228911Y-30800453D01*
X55231077Y-30824923D01*
X55230828Y-30833682D01*
X55227426Y-30855333D01*
X55221308Y-30864000D01*
X55219118Y-30863003D01*
X55213706Y-30849393D01*
X55211539Y-30824923D01*
X55211788Y-30816163D01*
X55215191Y-30794513D01*
X55221308Y-30785846D01*
X55223498Y-30786842D01*
G37*
G36*
X55223498Y-29086996D02*
G01*
X55228911Y-29100606D01*
X55231077Y-29125077D01*
X55230828Y-29133836D01*
X55227426Y-29155487D01*
X55221308Y-29164153D01*
X55219118Y-29163157D01*
X55213706Y-29149547D01*
X55211539Y-29125077D01*
X55211788Y-29116317D01*
X55215191Y-29094666D01*
X55221308Y-29086000D01*
X55223498Y-29086996D01*
G37*
G36*
X54877442Y-29457890D02*
G01*
X54899907Y-29461427D01*
X54908693Y-29467000D01*
X54905396Y-29470519D01*
X54887711Y-29475012D01*
X54859847Y-29476769D01*
X54842251Y-29476110D01*
X54819787Y-29472572D01*
X54811000Y-29467000D01*
X54814297Y-29463481D01*
X54831983Y-29458988D01*
X54859847Y-29457230D01*
X54877442Y-29457890D01*
G37*
G36*
X54769980Y-30444582D02*
G01*
X54792445Y-30448119D01*
X54801231Y-30453692D01*
X54797935Y-30457211D01*
X54780249Y-30461704D01*
X54752385Y-30463461D01*
X54734790Y-30462802D01*
X54712325Y-30459265D01*
X54703539Y-30453692D01*
X54706835Y-30450173D01*
X54724521Y-30445680D01*
X54752385Y-30443923D01*
X54769980Y-30444582D01*
G37*
G36*
X54689251Y-30418868D02*
G01*
X54693770Y-30429269D01*
X54692543Y-30435898D01*
X54682065Y-30442181D01*
X54657135Y-30442070D01*
X54650565Y-30441368D01*
X54629142Y-30436268D01*
X54620500Y-30429269D01*
X54621095Y-30427468D01*
X54633569Y-30420722D01*
X54657135Y-30416468D01*
X54672709Y-30415709D01*
X54689251Y-30418868D01*
G37*
G36*
X54456998Y-29594870D02*
G01*
X54479783Y-29598419D01*
X54488616Y-29603769D01*
X54483826Y-29607789D01*
X54464310Y-29611932D01*
X54434885Y-29613538D01*
X54412772Y-29612667D01*
X54389987Y-29609119D01*
X54381154Y-29603769D01*
X54385944Y-29599748D01*
X54405460Y-29595606D01*
X54434885Y-29594000D01*
X54456998Y-29594870D01*
G37*
G36*
X54288713Y-29647099D02*
G01*
X54293231Y-29657500D01*
X54292005Y-29664129D01*
X54281527Y-29670411D01*
X54256597Y-29670301D01*
X54250026Y-29669599D01*
X54228603Y-29664499D01*
X54219962Y-29657500D01*
X54220556Y-29655698D01*
X54233030Y-29648953D01*
X54256597Y-29644698D01*
X54272170Y-29643939D01*
X54288713Y-29647099D01*
G37*
G36*
X54184760Y-29672403D02*
G01*
X54206411Y-29675805D01*
X54215077Y-29681923D01*
X54214081Y-29684113D01*
X54200470Y-29689525D01*
X54176000Y-29691692D01*
X54167241Y-29691443D01*
X54145590Y-29688040D01*
X54136923Y-29681923D01*
X54137920Y-29679733D01*
X54151530Y-29674320D01*
X54176000Y-29672153D01*
X54184760Y-29672403D01*
G37*
G36*
X53869359Y-30171322D02*
G01*
X53887464Y-30175823D01*
X53892693Y-30185038D01*
X53889567Y-30192692D01*
X53874564Y-30198123D01*
X53843847Y-30199692D01*
X53818334Y-30198754D01*
X53800230Y-30194253D01*
X53795000Y-30185038D01*
X53798126Y-30177384D01*
X53813129Y-30171953D01*
X53843847Y-30170384D01*
X53869359Y-30171322D01*
G37*
G36*
X53754914Y-30151095D02*
G01*
X53776564Y-30154497D01*
X53785231Y-30160615D01*
X53784235Y-30162805D01*
X53770624Y-30168217D01*
X53746154Y-30170384D01*
X53737395Y-30170135D01*
X53715744Y-30166732D01*
X53707077Y-30160615D01*
X53708074Y-30158425D01*
X53721684Y-30153012D01*
X53746154Y-30150846D01*
X53754914Y-30151095D01*
G37*
G36*
X53735375Y-29809172D02*
G01*
X53757026Y-29812574D01*
X53765693Y-29818692D01*
X53764696Y-29820882D01*
X53751086Y-29826294D01*
X53726616Y-29828461D01*
X53717856Y-29828212D01*
X53696206Y-29824809D01*
X53687539Y-29818692D01*
X53688535Y-29816502D01*
X53702146Y-29811089D01*
X53726616Y-29808923D01*
X53735375Y-29809172D01*
G37*
G36*
X53569298Y-29858018D02*
G01*
X53590949Y-29861421D01*
X53599616Y-29867538D01*
X53598619Y-29869728D01*
X53585009Y-29875141D01*
X53560539Y-29877307D01*
X53551779Y-29877058D01*
X53530129Y-29873656D01*
X53521462Y-29867538D01*
X53522458Y-29865348D01*
X53536069Y-29859936D01*
X53560539Y-29857769D01*
X53569298Y-29858018D01*
G37*
G36*
X53492519Y-30072693D02*
G01*
X53512973Y-30075602D01*
X53521462Y-30082461D01*
X53521460Y-30082583D01*
X53512732Y-30089401D01*
X53492154Y-30092230D01*
X53491790Y-30092230D01*
X53471336Y-30089320D01*
X53462847Y-30082461D01*
X53462849Y-30082340D01*
X53471576Y-30075522D01*
X53492154Y-30072692D01*
X53492519Y-30072693D01*
G37*
G36*
X53480442Y-29887736D02*
G01*
X53502907Y-29891273D01*
X53511693Y-29896846D01*
X53508396Y-29900365D01*
X53490711Y-29904858D01*
X53462847Y-29906615D01*
X53445251Y-29905956D01*
X53422787Y-29902419D01*
X53414000Y-29896846D01*
X53417297Y-29893327D01*
X53434983Y-29888834D01*
X53462847Y-29887077D01*
X53480442Y-29887736D01*
G37*
G36*
X53402288Y-30044043D02*
G01*
X53424753Y-30047581D01*
X53433539Y-30053153D01*
X53430243Y-30056672D01*
X53412557Y-30061165D01*
X53384693Y-30062923D01*
X53367098Y-30062263D01*
X53344633Y-30058726D01*
X53335847Y-30053153D01*
X53339143Y-30049634D01*
X53356829Y-30045141D01*
X53384693Y-30043384D01*
X53402288Y-30044043D01*
G37*
G36*
X53276635Y-29414453D02*
G01*
X53279541Y-29434781D01*
X53278840Y-29471864D01*
X53278611Y-29476022D01*
X53274669Y-29513470D01*
X53269260Y-29531782D01*
X53263731Y-29530956D01*
X53259427Y-29510990D01*
X53257693Y-29471884D01*
X53258605Y-29440205D01*
X53262551Y-29416063D01*
X53269904Y-29408364D01*
X53276635Y-29414453D01*
G37*
G36*
X57756780Y-30092233D02*
G01*
X57783413Y-30095556D01*
X57796717Y-30103870D01*
X57793607Y-30115291D01*
X57793170Y-30115669D01*
X57778843Y-30119827D01*
X57754795Y-30121538D01*
X57754554Y-30121538D01*
X57730044Y-30117971D01*
X57722231Y-30106884D01*
X57722260Y-30105966D01*
X57730787Y-30095522D01*
X57755847Y-30092230D01*
X57756780Y-30092233D01*
G37*
G36*
X57580723Y-29751677D02*
G01*
X57600676Y-29756776D01*
X57605419Y-29764381D01*
X57592789Y-29773145D01*
X57590994Y-29773762D01*
X57571349Y-29777083D01*
X57543943Y-29778844D01*
X57535251Y-29778851D01*
X57513787Y-29775224D01*
X57507308Y-29764961D01*
X57510434Y-29757307D01*
X57525437Y-29751876D01*
X57556154Y-29750307D01*
X57580723Y-29751677D01*
G37*
G36*
X57459201Y-29721195D02*
G01*
X57489554Y-29724906D01*
X57503886Y-29732772D01*
X57500530Y-29744060D01*
X57495963Y-29746080D01*
X57475938Y-29749113D01*
X57447065Y-29750307D01*
X57423790Y-29749483D01*
X57405235Y-29745008D01*
X57399847Y-29735653D01*
X57402804Y-29728147D01*
X57417601Y-29722604D01*
X57448116Y-29721000D01*
X57459201Y-29721195D01*
G37*
G36*
X56740780Y-29506079D02*
G01*
X56767413Y-29509402D01*
X56780717Y-29517716D01*
X56777607Y-29529137D01*
X56777170Y-29529515D01*
X56762843Y-29533673D01*
X56738795Y-29535384D01*
X56738554Y-29535384D01*
X56714044Y-29531817D01*
X56706231Y-29520730D01*
X56706260Y-29519813D01*
X56714787Y-29509368D01*
X56739847Y-29506077D01*
X56740780Y-29506079D01*
G37*
G36*
X55646378Y-27640154D02*
G01*
X55657408Y-27648081D01*
X55660923Y-27672718D01*
X55660912Y-27674698D01*
X55658961Y-27698322D01*
X55654676Y-27711529D01*
X55654321Y-27711876D01*
X55642963Y-27714471D01*
X55634767Y-27700741D01*
X55631616Y-27673769D01*
X55631628Y-27671664D01*
X55635345Y-27647704D01*
X55646270Y-27640153D01*
X55646378Y-27640154D01*
G37*
G36*
X55283578Y-28913818D02*
G01*
X55287761Y-28946788D01*
X55288099Y-28953094D01*
X55288199Y-28980957D01*
X55284202Y-28994515D01*
X55275039Y-28998077D01*
X55274162Y-28998061D01*
X55265270Y-28993781D01*
X55261699Y-28978913D01*
X55262317Y-28949102D01*
X55264337Y-28927970D01*
X55270097Y-28904570D01*
X55277100Y-28899799D01*
X55283578Y-28913818D01*
G37*
G36*
X55275147Y-30981231D02*
G01*
X55286177Y-30989158D01*
X55289693Y-31013794D01*
X55289681Y-31015775D01*
X55287731Y-31039399D01*
X55283446Y-31052606D01*
X55283091Y-31052953D01*
X55271733Y-31055548D01*
X55263536Y-31041818D01*
X55260385Y-31014846D01*
X55260398Y-31012741D01*
X55264115Y-30988781D01*
X55275039Y-30981230D01*
X55275147Y-30981231D01*
G37*
G36*
X55055970Y-29398810D02*
G01*
X55086324Y-29402521D01*
X55100655Y-29410387D01*
X55097299Y-29421675D01*
X55092732Y-29423695D01*
X55072707Y-29426729D01*
X55043834Y-29427923D01*
X55020560Y-29427098D01*
X55002004Y-29422624D01*
X54996616Y-29413269D01*
X54999573Y-29405763D01*
X55014370Y-29400219D01*
X55044885Y-29398615D01*
X55055970Y-29398810D01*
G37*
G36*
X54953011Y-29427926D02*
G01*
X54979644Y-29431248D01*
X54992948Y-29439562D01*
X54989837Y-29450983D01*
X54989400Y-29451361D01*
X54975073Y-29455519D01*
X54951026Y-29457230D01*
X54950785Y-29457230D01*
X54926274Y-29453663D01*
X54918462Y-29442577D01*
X54918491Y-29441659D01*
X54927018Y-29431214D01*
X54952078Y-29427923D01*
X54953011Y-29427926D01*
G37*
G36*
X54337549Y-29613541D02*
G01*
X54364183Y-29616863D01*
X54377487Y-29625177D01*
X54374376Y-29636599D01*
X54373939Y-29636976D01*
X54359612Y-29641134D01*
X54335565Y-29642846D01*
X54335324Y-29642846D01*
X54310813Y-29639278D01*
X54303000Y-29628192D01*
X54303029Y-29627274D01*
X54311556Y-29616829D01*
X54336616Y-29613538D01*
X54337549Y-29613541D01*
G37*
G36*
X53275608Y-30421197D02*
G01*
X53278383Y-30446365D01*
X53279466Y-30475277D01*
X53280825Y-30509863D01*
X53278575Y-30532816D01*
X53269904Y-30541613D01*
X53263804Y-30536860D01*
X53259169Y-30516342D01*
X53257693Y-30478115D01*
X53257829Y-30468768D01*
X53260413Y-30439031D01*
X53265192Y-30419726D01*
X53270734Y-30413049D01*
X53275608Y-30421197D01*
G37*
G36*
X55917683Y-28149017D02*
G01*
X55921917Y-28162123D01*
X55924204Y-28185640D01*
X55924407Y-28212629D01*
X55922390Y-28236151D01*
X55918017Y-28249265D01*
X55914871Y-28251126D01*
X55902588Y-28247187D01*
X55901411Y-28245538D01*
X55898536Y-28229276D01*
X55899517Y-28204358D01*
X55903398Y-28177832D01*
X55909223Y-28156748D01*
X55916033Y-28148153D01*
X55917683Y-28149017D01*
G37*
G36*
X58137271Y-30422214D02*
G01*
X58140928Y-30444932D01*
X58142308Y-30478115D01*
X58142100Y-30498383D01*
X58140135Y-30525020D01*
X58135296Y-30538121D01*
X58126609Y-30541615D01*
X58117747Y-30539223D01*
X58116840Y-30526162D01*
X58118662Y-30519080D01*
X58121607Y-30494178D01*
X58122770Y-30462662D01*
X58123394Y-30445801D01*
X58126927Y-30423393D01*
X58132539Y-30414615D01*
X58137271Y-30422214D01*
G37*
G36*
X58131620Y-29409225D02*
G01*
X58138205Y-29417173D01*
X58141444Y-29436749D01*
X58142308Y-29471884D01*
X58141139Y-29502645D01*
X58137644Y-29526412D01*
X58132539Y-29535384D01*
X58129111Y-29532313D01*
X58124554Y-29514938D01*
X58122770Y-29487337D01*
X58122482Y-29471823D01*
X58120356Y-29442418D01*
X58116840Y-29423837D01*
X58115575Y-29414210D01*
X58126609Y-29408384D01*
X58131620Y-29409225D01*
G37*
G36*
X53596790Y-30108727D02*
G01*
X53598871Y-30111778D01*
X53617832Y-30119057D01*
X53654392Y-30121538D01*
X53675533Y-30122364D01*
X53698254Y-30125912D01*
X53707077Y-30131307D01*
X53702288Y-30135328D01*
X53682771Y-30139471D01*
X53653347Y-30141077D01*
X53631234Y-30140206D01*
X53608449Y-30136657D01*
X53599616Y-30131307D01*
X53599378Y-30130147D01*
X53588370Y-30124031D01*
X53566000Y-30121538D01*
X53539230Y-30118919D01*
X53527880Y-30112714D01*
X53533343Y-30105540D01*
X53556747Y-30100018D01*
X53583179Y-30099988D01*
X53596790Y-30108727D01*
G37*
G36*
X57388533Y-30199728D02*
G01*
X57412041Y-30203552D01*
X57419385Y-30214346D01*
X57418676Y-30218559D01*
X57407479Y-30226580D01*
X57380308Y-30229000D01*
X57371549Y-30229249D01*
X57349898Y-30232651D01*
X57341231Y-30238769D01*
X57340235Y-30240959D01*
X57326624Y-30246371D01*
X57302154Y-30248538D01*
X57293395Y-30248289D01*
X57271744Y-30244886D01*
X57263077Y-30238769D01*
X57263894Y-30236756D01*
X57277028Y-30231222D01*
X57301109Y-30229000D01*
X57330267Y-30225450D01*
X57344764Y-30214346D01*
X57357183Y-30203889D01*
X57384886Y-30199692D01*
X57388533Y-30199728D01*
G37*
G36*
X55858498Y-31890765D02*
G01*
X55863911Y-31904376D01*
X55866077Y-31928846D01*
X55865828Y-31937605D01*
X55862426Y-31959256D01*
X55856308Y-31967923D01*
X55853986Y-31969069D01*
X55848664Y-31983045D01*
X55846539Y-32007814D01*
X55846297Y-32016413D01*
X55841579Y-32038854D01*
X55833299Y-32043916D01*
X55824715Y-32032073D01*
X55819084Y-32003802D01*
X55818366Y-31990757D01*
X55821178Y-31972936D01*
X55831295Y-31967923D01*
X55836555Y-31966944D01*
X55844276Y-31955654D01*
X55846539Y-31928846D01*
X55846788Y-31920086D01*
X55850191Y-31898436D01*
X55856308Y-31889769D01*
X55858498Y-31890765D01*
G37*
G36*
X55575308Y-27918125D02*
G01*
X55580917Y-27946197D01*
X55581635Y-27959243D01*
X55578823Y-27977063D01*
X55568706Y-27982077D01*
X55563446Y-27983055D01*
X55555724Y-27994345D01*
X55553462Y-28021153D01*
X55553313Y-28029536D01*
X55549358Y-28052932D01*
X55539422Y-28060230D01*
X55533981Y-28059093D01*
X55529067Y-28048564D01*
X55531172Y-28023596D01*
X55532272Y-28017343D01*
X55538490Y-27994568D01*
X55545211Y-27983705D01*
X55546955Y-27982132D01*
X55551599Y-27966769D01*
X55553462Y-27941371D01*
X55553707Y-27932837D01*
X55558440Y-27910871D01*
X55566727Y-27906158D01*
X55575308Y-27918125D01*
G37*
G36*
X55198987Y-29180729D02*
G01*
X55203269Y-29214244D01*
X55203852Y-29225290D01*
X55202234Y-29256088D01*
X55194443Y-29269020D01*
X55193894Y-29269262D01*
X55185638Y-29282131D01*
X55182231Y-29305224D01*
X55182228Y-29306236D01*
X55180249Y-29329798D01*
X55175718Y-29343256D01*
X55163914Y-29349796D01*
X55155683Y-29339544D01*
X55152923Y-29310692D01*
X55153189Y-29299458D01*
X55157388Y-29278068D01*
X55167577Y-29271615D01*
X55176299Y-29266969D01*
X55180916Y-29250287D01*
X55182231Y-29217884D01*
X55183158Y-29192820D01*
X55187249Y-29170308D01*
X55193086Y-29166181D01*
X55198987Y-29180729D01*
G37*
G36*
X56210190Y-29165150D02*
G01*
X56215603Y-29178760D01*
X56217770Y-29203230D01*
X56218036Y-29214465D01*
X56222234Y-29235855D01*
X56232423Y-29242307D01*
X56232586Y-29242308D01*
X56241297Y-29247221D01*
X56245797Y-29264174D01*
X56247077Y-29296852D01*
X56244947Y-29329117D01*
X56239029Y-29346843D01*
X56231431Y-29346495D01*
X56224280Y-29328386D01*
X56219701Y-29292828D01*
X56217892Y-29273711D01*
X56213213Y-29251117D01*
X56207490Y-29242307D01*
X56205415Y-29241312D01*
X56200285Y-29227702D01*
X56198231Y-29203230D01*
X56198480Y-29194471D01*
X56201883Y-29172820D01*
X56208000Y-29164153D01*
X56210190Y-29165150D01*
G37*
G36*
X56155819Y-30873853D02*
G01*
X56165804Y-30882857D01*
X56168923Y-30908268D01*
X56165353Y-30934256D01*
X56154270Y-30948390D01*
X56150883Y-30950295D01*
X56142331Y-30966905D01*
X56139616Y-31000186D01*
X56139308Y-31014789D01*
X56137067Y-31039890D01*
X56133369Y-31052606D01*
X56129922Y-31055414D01*
X56119514Y-31053675D01*
X56112732Y-31034713D01*
X56110308Y-31000192D01*
X56111206Y-30975467D01*
X56115698Y-30957207D01*
X56124962Y-30951923D01*
X56129175Y-30951213D01*
X56137196Y-30940017D01*
X56139616Y-30912846D01*
X56139882Y-30901611D01*
X56144080Y-30880221D01*
X56154270Y-30873769D01*
X56155819Y-30873853D01*
G37*
G36*
X55168570Y-30603504D02*
G01*
X55175721Y-30621613D01*
X55180299Y-30657171D01*
X55182109Y-30676288D01*
X55186788Y-30698883D01*
X55192511Y-30707692D01*
X55194585Y-30708687D01*
X55199716Y-30722297D01*
X55201770Y-30746769D01*
X55201521Y-30755528D01*
X55198118Y-30777179D01*
X55192000Y-30785846D01*
X55189811Y-30784849D01*
X55184398Y-30771239D01*
X55182231Y-30746769D01*
X55181965Y-30735534D01*
X55177767Y-30714145D01*
X55167577Y-30707692D01*
X55167415Y-30707691D01*
X55158704Y-30702778D01*
X55154204Y-30685826D01*
X55152923Y-30653147D01*
X55155054Y-30620882D01*
X55160971Y-30603156D01*
X55168570Y-30603504D01*
G37*
G36*
X54505844Y-30366640D02*
G01*
X54528629Y-30370188D01*
X54537462Y-30375538D01*
X54538458Y-30377728D01*
X54552069Y-30383141D01*
X54576539Y-30385307D01*
X54587773Y-30385573D01*
X54609163Y-30389772D01*
X54615616Y-30399961D01*
X54614907Y-30404174D01*
X54603710Y-30412195D01*
X54576539Y-30414615D01*
X54565305Y-30414349D01*
X54543915Y-30410150D01*
X54537462Y-30399961D01*
X54532816Y-30391239D01*
X54516134Y-30386623D01*
X54483731Y-30385307D01*
X54461619Y-30384436D01*
X54438833Y-30380888D01*
X54430000Y-30375538D01*
X54434790Y-30371518D01*
X54454306Y-30367375D01*
X54483731Y-30365769D01*
X54505844Y-30366640D01*
G37*
G36*
X54106606Y-29701710D02*
G01*
X54128257Y-29705113D01*
X54136923Y-29711230D01*
X54135927Y-29713420D01*
X54122317Y-29718833D01*
X54097847Y-29721000D01*
X54086612Y-29721266D01*
X54065222Y-29725464D01*
X54058770Y-29735653D01*
X54058060Y-29739866D01*
X54046864Y-29747888D01*
X54019693Y-29750307D01*
X54008458Y-29750041D01*
X53987068Y-29745843D01*
X53980616Y-29735653D01*
X53981325Y-29731441D01*
X53992521Y-29723419D01*
X54019693Y-29721000D01*
X54028452Y-29720750D01*
X54050103Y-29717348D01*
X54058770Y-29711230D01*
X54059766Y-29709040D01*
X54073377Y-29703628D01*
X54097847Y-29701461D01*
X54106606Y-29701710D01*
G37*
G36*
X53976820Y-30200630D02*
G01*
X53994925Y-30205130D01*
X54000154Y-30214346D01*
X54000863Y-30218559D01*
X54012060Y-30226580D01*
X54039231Y-30229000D01*
X54047991Y-30229249D01*
X54069641Y-30232651D01*
X54078308Y-30238769D01*
X54077312Y-30240959D01*
X54063701Y-30246371D01*
X54039231Y-30248538D01*
X54030472Y-30248289D01*
X54008821Y-30244886D01*
X54000154Y-30238769D01*
X53996858Y-30235250D01*
X53979172Y-30230757D01*
X53951308Y-30229000D01*
X53925796Y-30228062D01*
X53907691Y-30223561D01*
X53902462Y-30214346D01*
X53905588Y-30206692D01*
X53920591Y-30201261D01*
X53951308Y-30199692D01*
X53976820Y-30200630D01*
G37*
G36*
X57604479Y-30151524D02*
G01*
X57625747Y-30154693D01*
X57634308Y-30160615D01*
X57629518Y-30164635D01*
X57610002Y-30168778D01*
X57580577Y-30170384D01*
X57578022Y-30170388D01*
X57546989Y-30171796D01*
X57531232Y-30176482D01*
X57526847Y-30185549D01*
X57526814Y-30186701D01*
X57522072Y-30195035D01*
X57506380Y-30198390D01*
X57475558Y-30197760D01*
X57457867Y-30196144D01*
X57434810Y-30190492D01*
X57430510Y-30183547D01*
X57444789Y-30177469D01*
X57477471Y-30174414D01*
X57489743Y-30173723D01*
X57513510Y-30169242D01*
X57524689Y-30162203D01*
X57530659Y-30157573D01*
X57550312Y-30153060D01*
X57577126Y-30151012D01*
X57604479Y-30151524D01*
G37*
G36*
X55545883Y-31890765D02*
G01*
X55551295Y-31904376D01*
X55553462Y-31928846D01*
X55553728Y-31940080D01*
X55557927Y-31961470D01*
X55568116Y-31967923D01*
X55575339Y-31970579D01*
X55581097Y-31984997D01*
X55582770Y-32015141D01*
X55582433Y-32030743D01*
X55580185Y-32055919D01*
X55576522Y-32068606D01*
X55573263Y-32071293D01*
X55562788Y-32069832D01*
X55555925Y-32051229D01*
X55553462Y-32017237D01*
X55553346Y-32009189D01*
X55549449Y-31978568D01*
X55540374Y-31964991D01*
X55532706Y-31956711D01*
X55529791Y-31937080D01*
X55531437Y-31921100D01*
X55533109Y-31901980D01*
X55534075Y-31897546D01*
X55543693Y-31889769D01*
X55545883Y-31890765D01*
G37*
G36*
X53922129Y-29752239D02*
G01*
X53940946Y-29754053D01*
X53964074Y-29759794D01*
X53969346Y-29766623D01*
X53956468Y-29772336D01*
X53925143Y-29774730D01*
X53914999Y-29774958D01*
X53887792Y-29778903D01*
X53875605Y-29786942D01*
X53869461Y-29791891D01*
X53849682Y-29796755D01*
X53822824Y-29799083D01*
X53795479Y-29798728D01*
X53774238Y-29795544D01*
X53765693Y-29789384D01*
X53770482Y-29785364D01*
X53789999Y-29781221D01*
X53819423Y-29779615D01*
X53821979Y-29779611D01*
X53853012Y-29778203D01*
X53868769Y-29773517D01*
X53873154Y-29764451D01*
X53873154Y-29764353D01*
X53877228Y-29755358D01*
X53892148Y-29751671D01*
X53922129Y-29752239D01*
G37*
G36*
X56029439Y-28560548D02*
G01*
X56032154Y-28586724D01*
X56035704Y-28615881D01*
X56046808Y-28630379D01*
X56057265Y-28642797D01*
X56061462Y-28670501D01*
X56061555Y-28675252D01*
X56064797Y-28696406D01*
X56071231Y-28705000D01*
X56075252Y-28709789D01*
X56079394Y-28729306D01*
X56081000Y-28758730D01*
X56080130Y-28780843D01*
X56076581Y-28803628D01*
X56071231Y-28812461D01*
X56067211Y-28807671D01*
X56063068Y-28788155D01*
X56061462Y-28758730D01*
X56060195Y-28726750D01*
X56055645Y-28709823D01*
X56046808Y-28705000D01*
X56043124Y-28704474D01*
X56034710Y-28693744D01*
X56032154Y-28666968D01*
X56028604Y-28637810D01*
X56017500Y-28623313D01*
X56008142Y-28615164D01*
X56003000Y-28592977D01*
X56008776Y-28564145D01*
X56013633Y-28554260D01*
X56022608Y-28549092D01*
X56029439Y-28560548D01*
G37*
G36*
X56073421Y-31138534D02*
G01*
X56078834Y-31152145D01*
X56081000Y-31176615D01*
X56080751Y-31185374D01*
X56077349Y-31207025D01*
X56071231Y-31215692D01*
X56067678Y-31219076D01*
X56063209Y-31236880D01*
X56061462Y-31264845D01*
X56061066Y-31281211D01*
X56056664Y-31308009D01*
X56046808Y-31319621D01*
X56036044Y-31333159D01*
X56032154Y-31364090D01*
X56032027Y-31371988D01*
X56028530Y-31394235D01*
X56019943Y-31398927D01*
X56018105Y-31398134D01*
X56008160Y-31384051D01*
X56004389Y-31361602D01*
X56007169Y-31339617D01*
X56016876Y-31326926D01*
X56024196Y-31321149D01*
X56030327Y-31302525D01*
X56032154Y-31268377D01*
X56033352Y-31237753D01*
X56037895Y-31220594D01*
X56046808Y-31215692D01*
X56051021Y-31214983D01*
X56059042Y-31203786D01*
X56061462Y-31176615D01*
X56061711Y-31167856D01*
X56065114Y-31146205D01*
X56071231Y-31137538D01*
X56073421Y-31138534D01*
G37*
G36*
X55809475Y-27797278D02*
G01*
X55815009Y-27810412D01*
X55817231Y-27834493D01*
X55820781Y-27863650D01*
X55831885Y-27878148D01*
X55836719Y-27881332D01*
X55844205Y-27898968D01*
X55846539Y-27932924D01*
X55847211Y-27950801D01*
X55850750Y-27973287D01*
X55856308Y-27982077D01*
X55858498Y-27983073D01*
X55863911Y-27996683D01*
X55866077Y-28021153D01*
X55865828Y-28029913D01*
X55862426Y-28051564D01*
X55856308Y-28060230D01*
X55854118Y-28059234D01*
X55848706Y-28045623D01*
X55846539Y-28021153D01*
X55846273Y-28009919D01*
X55842074Y-27988529D01*
X55831885Y-27982077D01*
X55823321Y-27977695D01*
X55818584Y-27961286D01*
X55817231Y-27929160D01*
X55816501Y-27907924D01*
X55813278Y-27883735D01*
X55808357Y-27872987D01*
X55801950Y-27866205D01*
X55796725Y-27847244D01*
X55795842Y-27824165D01*
X55799391Y-27804671D01*
X55807462Y-27796461D01*
X55809475Y-27797278D01*
G37*
G36*
X57659097Y-29780668D02*
G01*
X57682753Y-29785559D01*
X57699204Y-29794269D01*
X57701641Y-29796347D01*
X57724429Y-29805444D01*
X57757121Y-29808923D01*
X57769628Y-29809341D01*
X57791662Y-29812827D01*
X57800385Y-29818692D01*
X57801381Y-29820882D01*
X57814992Y-29826294D01*
X57839462Y-29828461D01*
X57848221Y-29828710D01*
X57869872Y-29832113D01*
X57878539Y-29838230D01*
X57877542Y-29840420D01*
X57863932Y-29845833D01*
X57839462Y-29848000D01*
X57830703Y-29847750D01*
X57809052Y-29844348D01*
X57800385Y-29838230D01*
X57795595Y-29834210D01*
X57776079Y-29830067D01*
X57746654Y-29828461D01*
X57714674Y-29827194D01*
X57697747Y-29822644D01*
X57692923Y-29813807D01*
X57692214Y-29809594D01*
X57681018Y-29801573D01*
X57653847Y-29799153D01*
X57645087Y-29798904D01*
X57623436Y-29795502D01*
X57614770Y-29789384D01*
X57618561Y-29783984D01*
X57635333Y-29780006D01*
X57659097Y-29780668D01*
G37*
G36*
X57017837Y-29594249D02*
G01*
X57039487Y-29597651D01*
X57048154Y-29603769D01*
X57049151Y-29605959D01*
X57062761Y-29611371D01*
X57087231Y-29613538D01*
X57098466Y-29613804D01*
X57119855Y-29618003D01*
X57126308Y-29628192D01*
X57130954Y-29636914D01*
X57147636Y-29641530D01*
X57180039Y-29642846D01*
X57187273Y-29642936D01*
X57216127Y-29645682D01*
X57232120Y-29651253D01*
X57233040Y-29658286D01*
X57216673Y-29665419D01*
X57201959Y-29668593D01*
X57169066Y-29671115D01*
X57143037Y-29667235D01*
X57129841Y-29657500D01*
X57116518Y-29646790D01*
X57086186Y-29642846D01*
X57076625Y-29642643D01*
X57054787Y-29638509D01*
X57048154Y-29628192D01*
X57047445Y-29623979D01*
X57036249Y-29615958D01*
X57009077Y-29613538D01*
X57000318Y-29613289D01*
X56978667Y-29609886D01*
X56970000Y-29603769D01*
X56970997Y-29601579D01*
X56984607Y-29596166D01*
X57009077Y-29594000D01*
X57017837Y-29594249D01*
G37*
G36*
X56394973Y-29403243D02*
G01*
X56419304Y-29409427D01*
X56430854Y-29417523D01*
X56432282Y-29419566D01*
X56447418Y-29425526D01*
X56472584Y-29427923D01*
X56482518Y-29428139D01*
X56504255Y-29432288D01*
X56510847Y-29442577D01*
X56511556Y-29446789D01*
X56522752Y-29454811D01*
X56549923Y-29457230D01*
X56558683Y-29457479D01*
X56580334Y-29460882D01*
X56589000Y-29467000D01*
X56588004Y-29469189D01*
X56574394Y-29474602D01*
X56549923Y-29476769D01*
X56541164Y-29476520D01*
X56519513Y-29473117D01*
X56510847Y-29467000D01*
X56510518Y-29465654D01*
X56499069Y-29459664D01*
X56476348Y-29457230D01*
X56450359Y-29453660D01*
X56436226Y-29442577D01*
X56427290Y-29434027D01*
X56405934Y-29429322D01*
X56368724Y-29427923D01*
X56343204Y-29427080D01*
X56315205Y-29423211D01*
X56300772Y-29417142D01*
X56301888Y-29409917D01*
X56320537Y-29402579D01*
X56334900Y-29400261D01*
X56364594Y-29399884D01*
X56394973Y-29403243D01*
G37*
G36*
X54858837Y-30473479D02*
G01*
X54880487Y-30476882D01*
X54889154Y-30483000D01*
X54889483Y-30484345D01*
X54900932Y-30490335D01*
X54923653Y-30492769D01*
X54949641Y-30496339D01*
X54963775Y-30507423D01*
X54963786Y-30507449D01*
X54972976Y-30516082D01*
X54994489Y-30520704D01*
X55031853Y-30522077D01*
X55058247Y-30522662D01*
X55084748Y-30526196D01*
X55094143Y-30533414D01*
X55087795Y-30544871D01*
X55081275Y-30547367D01*
X55059366Y-30550258D01*
X55028873Y-30551384D01*
X55006833Y-30550744D01*
X54981676Y-30546230D01*
X54970841Y-30536730D01*
X54957518Y-30526021D01*
X54927186Y-30522077D01*
X54917625Y-30521874D01*
X54895787Y-30517740D01*
X54889154Y-30507423D01*
X54888445Y-30503210D01*
X54877249Y-30495189D01*
X54850077Y-30492769D01*
X54841318Y-30492520D01*
X54819667Y-30489117D01*
X54811000Y-30483000D01*
X54811997Y-30480810D01*
X54825607Y-30475397D01*
X54850077Y-30473230D01*
X54858837Y-30473479D01*
G37*
G36*
X55332790Y-31142328D02*
G01*
X55336933Y-31161844D01*
X55338539Y-31191269D01*
X55339806Y-31223249D01*
X55344356Y-31240176D01*
X55353193Y-31245000D01*
X55356877Y-31245525D01*
X55365291Y-31256255D01*
X55367847Y-31283031D01*
X55371396Y-31312189D01*
X55382500Y-31326686D01*
X55392957Y-31339105D01*
X55397154Y-31366808D01*
X55397247Y-31371560D01*
X55400489Y-31392714D01*
X55406923Y-31401307D01*
X55410944Y-31406097D01*
X55415087Y-31425613D01*
X55416693Y-31455038D01*
X55415822Y-31477151D01*
X55412273Y-31499936D01*
X55406923Y-31508769D01*
X55402903Y-31503979D01*
X55398760Y-31484463D01*
X55397154Y-31455038D01*
X55395887Y-31423058D01*
X55391338Y-31406131D01*
X55382500Y-31401307D01*
X55378817Y-31400782D01*
X55370402Y-31390052D01*
X55367847Y-31363276D01*
X55364297Y-31334118D01*
X55353193Y-31319621D01*
X55342736Y-31307202D01*
X55338539Y-31279498D01*
X55338446Y-31274747D01*
X55335204Y-31253593D01*
X55328770Y-31245000D01*
X55324749Y-31240210D01*
X55320606Y-31220694D01*
X55319000Y-31191269D01*
X55319871Y-31169156D01*
X55323420Y-31146371D01*
X55328770Y-31137538D01*
X55332790Y-31142328D01*
G37*
G36*
X56881068Y-30366018D02*
G01*
X56902718Y-30369421D01*
X56911385Y-30375538D01*
X56910389Y-30377728D01*
X56896778Y-30383141D01*
X56872308Y-30385307D01*
X56861074Y-30385573D01*
X56839684Y-30389772D01*
X56833231Y-30399961D01*
X56832706Y-30403645D01*
X56821976Y-30412059D01*
X56795199Y-30414615D01*
X56766042Y-30418165D01*
X56751545Y-30429269D01*
X56739126Y-30439726D01*
X56711422Y-30443923D01*
X56706671Y-30444016D01*
X56685517Y-30447258D01*
X56676923Y-30453692D01*
X56675927Y-30455882D01*
X56662317Y-30461294D01*
X56637847Y-30463461D01*
X56629087Y-30463212D01*
X56607436Y-30459809D01*
X56598770Y-30453692D01*
X56599766Y-30451502D01*
X56613377Y-30446089D01*
X56637847Y-30443923D01*
X56649081Y-30443657D01*
X56670471Y-30439458D01*
X56676923Y-30429269D01*
X56677633Y-30425056D01*
X56688829Y-30417035D01*
X56716000Y-30414615D01*
X56727235Y-30414349D01*
X56748625Y-30410150D01*
X56755077Y-30399961D01*
X56755787Y-30395748D01*
X56766983Y-30387727D01*
X56794154Y-30385307D01*
X56802914Y-30385058D01*
X56824564Y-30381656D01*
X56833231Y-30375538D01*
X56834228Y-30373348D01*
X56847838Y-30367936D01*
X56872308Y-30365769D01*
X56881068Y-30366018D01*
G37*
G36*
X55409113Y-28471534D02*
G01*
X55414526Y-28485145D01*
X55416693Y-28509615D01*
X55416444Y-28518374D01*
X55413041Y-28540025D01*
X55406923Y-28548692D01*
X55405578Y-28549020D01*
X55399588Y-28560469D01*
X55397154Y-28583191D01*
X55393584Y-28609179D01*
X55382500Y-28623313D01*
X55376312Y-28628067D01*
X55369833Y-28646807D01*
X55367847Y-28681622D01*
X55366649Y-28712246D01*
X55362106Y-28729405D01*
X55353193Y-28734307D01*
X55348980Y-28735016D01*
X55340959Y-28746213D01*
X55338539Y-28773384D01*
X55338290Y-28782144D01*
X55334887Y-28803794D01*
X55328770Y-28812461D01*
X55326580Y-28811465D01*
X55321167Y-28797854D01*
X55319000Y-28773384D01*
X55319250Y-28764625D01*
X55322652Y-28742974D01*
X55328770Y-28734307D01*
X55332323Y-28730923D01*
X55336792Y-28713119D01*
X55338539Y-28685155D01*
X55338935Y-28668788D01*
X55343336Y-28641990D01*
X55353193Y-28630379D01*
X55363902Y-28617056D01*
X55367847Y-28586724D01*
X55368049Y-28577163D01*
X55372183Y-28555325D01*
X55382500Y-28548692D01*
X55386713Y-28547983D01*
X55394735Y-28536786D01*
X55397154Y-28509615D01*
X55397403Y-28500856D01*
X55400806Y-28479205D01*
X55406923Y-28470538D01*
X55409113Y-28471534D01*
G37*
G36*
X54770914Y-29486787D02*
G01*
X54792564Y-29490190D01*
X54801231Y-29496307D01*
X54800235Y-29498497D01*
X54786624Y-29503910D01*
X54762154Y-29506077D01*
X54750920Y-29506342D01*
X54729530Y-29510541D01*
X54723077Y-29520730D01*
X54722368Y-29524943D01*
X54711172Y-29532964D01*
X54684000Y-29535384D01*
X54672766Y-29535650D01*
X54651376Y-29539849D01*
X54644923Y-29550038D01*
X54644214Y-29554251D01*
X54633018Y-29562272D01*
X54605847Y-29564692D01*
X54597087Y-29564941D01*
X54575436Y-29568344D01*
X54566770Y-29574461D01*
X54565773Y-29576651D01*
X54552163Y-29582064D01*
X54527693Y-29584230D01*
X54518933Y-29583981D01*
X54497283Y-29580579D01*
X54488616Y-29574461D01*
X54489612Y-29572271D01*
X54503223Y-29566859D01*
X54527693Y-29564692D01*
X54538927Y-29564426D01*
X54560317Y-29560227D01*
X54566770Y-29550038D01*
X54567295Y-29546354D01*
X54578025Y-29537940D01*
X54604801Y-29535384D01*
X54633959Y-29531834D01*
X54648456Y-29520730D01*
X54660875Y-29510274D01*
X54688578Y-29506077D01*
X54693330Y-29505983D01*
X54714484Y-29502741D01*
X54723077Y-29496307D01*
X54724074Y-29494117D01*
X54737684Y-29488705D01*
X54762154Y-29486538D01*
X54770914Y-29486787D01*
G37*
G36*
X54135914Y-30258556D02*
G01*
X54157564Y-30261959D01*
X54166231Y-30268077D01*
X54169615Y-30271630D01*
X54187420Y-30276099D01*
X54215384Y-30277846D01*
X54231750Y-30278242D01*
X54258548Y-30282643D01*
X54270160Y-30292500D01*
X54283483Y-30303209D01*
X54313815Y-30307153D01*
X54323376Y-30307356D01*
X54345214Y-30311490D01*
X54351847Y-30321807D01*
X54352556Y-30326020D01*
X54363752Y-30334041D01*
X54390923Y-30336461D01*
X54399683Y-30336710D01*
X54421334Y-30340113D01*
X54430000Y-30346230D01*
X54429004Y-30348420D01*
X54415394Y-30353833D01*
X54390923Y-30356000D01*
X54382164Y-30355750D01*
X54360513Y-30352348D01*
X54351847Y-30346230D01*
X54351518Y-30344885D01*
X54340069Y-30338895D01*
X54317348Y-30336461D01*
X54291359Y-30332891D01*
X54277226Y-30321807D01*
X54272472Y-30315619D01*
X54253731Y-30309140D01*
X54218917Y-30307153D01*
X54188293Y-30305955D01*
X54171134Y-30301413D01*
X54166231Y-30292500D01*
X54165522Y-30288287D01*
X54154326Y-30280265D01*
X54127154Y-30277846D01*
X54118395Y-30277597D01*
X54096744Y-30274194D01*
X54088077Y-30268077D01*
X54089074Y-30265887D01*
X54102684Y-30260474D01*
X54127154Y-30258307D01*
X54135914Y-30258556D01*
G37*
G36*
X55656143Y-27527596D02*
G01*
X55636500Y-27532692D01*
X55620438Y-27535117D01*
X55612077Y-27542461D01*
X55605853Y-27548924D01*
X55587348Y-27552230D01*
X55570006Y-27555732D01*
X55556995Y-27566884D01*
X55548870Y-27575841D01*
X55529039Y-27581538D01*
X55514209Y-27584614D01*
X55501083Y-27596192D01*
X55491536Y-27605672D01*
X55470730Y-27610846D01*
X55454509Y-27613724D01*
X55446000Y-27625500D01*
X55441220Y-27635058D01*
X55421577Y-27640153D01*
X55405515Y-27642579D01*
X55397154Y-27649923D01*
X55390930Y-27656386D01*
X55372425Y-27659692D01*
X55355083Y-27663194D01*
X55342072Y-27674346D01*
X55333947Y-27683302D01*
X55314116Y-27689000D01*
X55299285Y-27692076D01*
X55286160Y-27703653D01*
X55276613Y-27713133D01*
X55255807Y-27718307D01*
X55239586Y-27721186D01*
X55231077Y-27732961D01*
X55226297Y-27742520D01*
X55206654Y-27747615D01*
X55190595Y-27749878D01*
X55182231Y-27756735D01*
X55174881Y-27763833D01*
X55155366Y-27768947D01*
X55128500Y-27772038D01*
X55125969Y-28267827D01*
X55123637Y-28724538D01*
X55123437Y-28763615D01*
X54830449Y-28763615D01*
X54803175Y-28763636D01*
X54731936Y-28763900D01*
X54668294Y-28764436D01*
X54614637Y-28765203D01*
X54573354Y-28766161D01*
X54546833Y-28767272D01*
X54537462Y-28768494D01*
X54542355Y-28775486D01*
X54559631Y-28794662D01*
X54587573Y-28823918D01*
X54624303Y-28861415D01*
X54667942Y-28905311D01*
X54716610Y-28953765D01*
X54768429Y-29004936D01*
X54821519Y-29056981D01*
X54874001Y-29108062D01*
X54923996Y-29156335D01*
X54969625Y-29199960D01*
X55009008Y-29237095D01*
X55040267Y-29265900D01*
X55061522Y-29284533D01*
X55070895Y-29291153D01*
X55085307Y-29297450D01*
X55106514Y-29313844D01*
X55128575Y-29334979D01*
X55145906Y-29355488D01*
X55152923Y-29370003D01*
X55153353Y-29372565D01*
X55163444Y-29379077D01*
X55169970Y-29381258D01*
X55187684Y-29394108D01*
X55207783Y-29413309D01*
X55224251Y-29432847D01*
X55231077Y-29446710D01*
X55232737Y-29451558D01*
X55245731Y-29457230D01*
X55252565Y-29458932D01*
X55260385Y-29471884D01*
X55261526Y-29478631D01*
X55270484Y-29486538D01*
X55278033Y-29489553D01*
X55295719Y-29503254D01*
X55315603Y-29522714D01*
X55331829Y-29542021D01*
X55338539Y-29555259D01*
X55340189Y-29559595D01*
X55353193Y-29564692D01*
X55360027Y-29566394D01*
X55367847Y-29579346D01*
X55369032Y-29586098D01*
X55378314Y-29594000D01*
X55393051Y-29600067D01*
X55409293Y-29615806D01*
X55416693Y-29632379D01*
X55418352Y-29637202D01*
X55431347Y-29642846D01*
X55438180Y-29644548D01*
X55446000Y-29657500D01*
X55447703Y-29664333D01*
X55460654Y-29672153D01*
X55467488Y-29673856D01*
X55475308Y-29686807D01*
X55476493Y-29693560D01*
X55485775Y-29701461D01*
X55500513Y-29707528D01*
X55516754Y-29723268D01*
X55524154Y-29739840D01*
X55525813Y-29744663D01*
X55538808Y-29750307D01*
X55545642Y-29752009D01*
X55553462Y-29764961D01*
X55555164Y-29771795D01*
X55568116Y-29779615D01*
X55574950Y-29781317D01*
X55582770Y-29794269D01*
X55583872Y-29801010D01*
X55592539Y-29808923D01*
X55599160Y-29816299D01*
X55601997Y-29835788D01*
X55601435Y-29850050D01*
X55597974Y-29855714D01*
X55588709Y-29845557D01*
X55578916Y-29835489D01*
X55564597Y-29828461D01*
X55560105Y-29827350D01*
X55553462Y-29815458D01*
X55546887Y-29803086D01*
X55529039Y-29789384D01*
X55512410Y-29776984D01*
X55504616Y-29763310D01*
X55502932Y-29757277D01*
X55489962Y-29750307D01*
X55483128Y-29748605D01*
X55475308Y-29735653D01*
X55473606Y-29728820D01*
X55460654Y-29721000D01*
X55453902Y-29719815D01*
X55446000Y-29710533D01*
X55439933Y-29695795D01*
X55424194Y-29679553D01*
X55407621Y-29672153D01*
X55402798Y-29670494D01*
X55397154Y-29657500D01*
X55395452Y-29650666D01*
X55382500Y-29642846D01*
X55375667Y-29641144D01*
X55367847Y-29628192D01*
X55366144Y-29621358D01*
X55353193Y-29613538D01*
X55346440Y-29612353D01*
X55338539Y-29603071D01*
X55332472Y-29588334D01*
X55316732Y-29572092D01*
X55300160Y-29564692D01*
X55295337Y-29563033D01*
X55289693Y-29550038D01*
X55287991Y-29543204D01*
X55275039Y-29535384D01*
X55268205Y-29533682D01*
X55260385Y-29520730D01*
X55258891Y-29513932D01*
X55247382Y-29506077D01*
X55235010Y-29499501D01*
X55221308Y-29481653D01*
X55208908Y-29465025D01*
X55195234Y-29457230D01*
X55189201Y-29455547D01*
X55182231Y-29442577D01*
X55180529Y-29435743D01*
X55167577Y-29427923D01*
X55160743Y-29426221D01*
X55152923Y-29413269D01*
X55148143Y-29403710D01*
X55128500Y-29398615D01*
X55124000Y-29398512D01*
X55108112Y-29392783D01*
X55104077Y-29374192D01*
X55103377Y-29363571D01*
X55095715Y-29352397D01*
X55074770Y-29349769D01*
X55074393Y-29349768D01*
X55053947Y-29346598D01*
X55045462Y-29339128D01*
X55040766Y-29329747D01*
X55025228Y-29310773D01*
X55003373Y-29287853D01*
X54979949Y-29265676D01*
X54959707Y-29248931D01*
X54947395Y-29242307D01*
X54944671Y-29241849D01*
X54938000Y-29231667D01*
X54933305Y-29222286D01*
X54917767Y-29203311D01*
X54895911Y-29180391D01*
X54872488Y-29158214D01*
X54852245Y-29141469D01*
X54839933Y-29134846D01*
X54837691Y-29134562D01*
X54830539Y-29125064D01*
X54825081Y-29117643D01*
X54807861Y-29098488D01*
X54781128Y-29070081D01*
X54747185Y-29034755D01*
X54708340Y-28994845D01*
X54666896Y-28952685D01*
X54625161Y-28910608D01*
X54585438Y-28870948D01*
X54550034Y-28836038D01*
X54521253Y-28808214D01*
X54501402Y-28789807D01*
X54492786Y-28783153D01*
X54492547Y-28783665D01*
X54491451Y-28797177D01*
X54490304Y-28827227D01*
X54489829Y-28845603D01*
X54489162Y-28871375D01*
X54488080Y-28927182D01*
X54487115Y-28992210D01*
X54486323Y-29064019D01*
X54483731Y-29344884D01*
X53895135Y-29347403D01*
X53306539Y-29349921D01*
X53306539Y-29374268D01*
X53304337Y-29392806D01*
X53298032Y-29397823D01*
X53290227Y-29387075D01*
X53283574Y-29361980D01*
X53284304Y-29334577D01*
X53289026Y-29310413D01*
X53316308Y-29310413D01*
X53325372Y-29312502D01*
X53353347Y-29314423D01*
X53399607Y-29316094D01*
X53463516Y-29317503D01*
X53544438Y-29318640D01*
X53641738Y-29319493D01*
X53754778Y-29320051D01*
X53882923Y-29320303D01*
X54449539Y-29320702D01*
X54450704Y-29132524D01*
X54451004Y-29079506D01*
X54451321Y-29010876D01*
X54451553Y-28945368D01*
X54451680Y-28888453D01*
X54451684Y-28845603D01*
X54451499Y-28746861D01*
X54328617Y-28623353D01*
X54292938Y-28587915D01*
X54256539Y-28552723D01*
X54226613Y-28524830D01*
X54205553Y-28506463D01*
X54195753Y-28499846D01*
X54193243Y-28499543D01*
X54185770Y-28490430D01*
X54182288Y-28483300D01*
X54167249Y-28464719D01*
X54143635Y-28439353D01*
X54115075Y-28410716D01*
X54085200Y-28382324D01*
X54057640Y-28357692D01*
X54036025Y-28340336D01*
X54023985Y-28333769D01*
X54017440Y-28335464D01*
X54009923Y-28348423D01*
X54005403Y-28357790D01*
X53986546Y-28363077D01*
X53970619Y-28366343D01*
X53957545Y-28377730D01*
X53948621Y-28386994D01*
X53928237Y-28392384D01*
X53911917Y-28395946D01*
X53898504Y-28408146D01*
X53891926Y-28416868D01*
X53872438Y-28418674D01*
X53859874Y-28417784D01*
X53847088Y-28427335D01*
X53838515Y-28436065D01*
X53818378Y-28441230D01*
X53803434Y-28444064D01*
X53795000Y-28455884D01*
X53791089Y-28464725D01*
X53774173Y-28470538D01*
X53760645Y-28474428D01*
X53737037Y-28490492D01*
X53713261Y-28513777D01*
X53694900Y-28538569D01*
X53687539Y-28559157D01*
X53684901Y-28569908D01*
X53672885Y-28578000D01*
X53666051Y-28579702D01*
X53658231Y-28592653D01*
X53656700Y-28599458D01*
X53644932Y-28607307D01*
X53636719Y-28611928D01*
X53636302Y-28631730D01*
X53636314Y-28631796D01*
X53636358Y-28650670D01*
X53625178Y-28656153D01*
X53617291Y-28658125D01*
X53609385Y-28670807D01*
X53607683Y-28677641D01*
X53594731Y-28685461D01*
X53585364Y-28689981D01*
X53580077Y-28708839D01*
X53576810Y-28724765D01*
X53565423Y-28737840D01*
X53555944Y-28747387D01*
X53550770Y-28768193D01*
X53548311Y-28784553D01*
X53541000Y-28792923D01*
X53534575Y-28798986D01*
X53531231Y-28817346D01*
X53528363Y-28833276D01*
X53516577Y-28841769D01*
X53506292Y-28847809D01*
X53501923Y-28871077D01*
X53498903Y-28891646D01*
X53487270Y-28900384D01*
X53477711Y-28905164D01*
X53472616Y-28924807D01*
X53469748Y-28940738D01*
X53457962Y-28949230D01*
X53447677Y-28955270D01*
X53443308Y-28978538D01*
X53443307Y-28978903D01*
X53440398Y-28999357D01*
X53433539Y-29007846D01*
X53427114Y-29013909D01*
X53423770Y-29032269D01*
X53420902Y-29048199D01*
X53409116Y-29056692D01*
X53405432Y-29057218D01*
X53397018Y-29067947D01*
X53394462Y-29094724D01*
X53394455Y-29096192D01*
X53390655Y-29124452D01*
X53380785Y-29138004D01*
X53380617Y-29138070D01*
X53370837Y-29151504D01*
X53367108Y-29177847D01*
X53367077Y-29180063D01*
X53362184Y-29207918D01*
X53351477Y-29228072D01*
X53341031Y-29245892D01*
X53335847Y-29272313D01*
X53333000Y-29292450D01*
X53326077Y-29300923D01*
X53323751Y-29301196D01*
X53316308Y-29310413D01*
X53289026Y-29310413D01*
X53292681Y-29291707D01*
X53307858Y-29236724D01*
X53328885Y-29172365D01*
X53354809Y-29101371D01*
X53384680Y-29026479D01*
X53417544Y-28950430D01*
X53452451Y-28875961D01*
X53464831Y-28850969D01*
X53562022Y-28674161D01*
X53670299Y-28510398D01*
X53792465Y-28355759D01*
X53828785Y-28316673D01*
X54076367Y-28316673D01*
X54077629Y-28323686D01*
X54086589Y-28336816D01*
X54104519Y-28357552D01*
X54132690Y-28387385D01*
X54172376Y-28427807D01*
X54224847Y-28480307D01*
X54257362Y-28512507D01*
X54301532Y-28555641D01*
X54339999Y-28592494D01*
X54370750Y-28621168D01*
X54391770Y-28639764D01*
X54401046Y-28646384D01*
X54405374Y-28648035D01*
X54410462Y-28661038D01*
X54412164Y-28667872D01*
X54425116Y-28675692D01*
X54431950Y-28677394D01*
X54439770Y-28690346D01*
X54444550Y-28699904D01*
X54464193Y-28705000D01*
X54480255Y-28707425D01*
X54488616Y-28714769D01*
X54494002Y-28717078D01*
X54517824Y-28719710D01*
X54560100Y-28721793D01*
X54620210Y-28723305D01*
X54697537Y-28724226D01*
X54791462Y-28724538D01*
X55094308Y-28724538D01*
X55093997Y-28258057D01*
X55093882Y-28163487D01*
X55093602Y-28069889D01*
X55093124Y-27993173D01*
X55092407Y-27931909D01*
X55091409Y-27884665D01*
X55090086Y-27850011D01*
X55088397Y-27826516D01*
X55086299Y-27812749D01*
X55083751Y-27807278D01*
X55080709Y-27808673D01*
X55069600Y-27818391D01*
X55046827Y-27825769D01*
X55034191Y-27828523D01*
X55025923Y-27840423D01*
X55019883Y-27850708D01*
X54996616Y-27855077D01*
X54976046Y-27858097D01*
X54967308Y-27869730D01*
X54962788Y-27879098D01*
X54943930Y-27884384D01*
X54927961Y-27887795D01*
X54914671Y-27899712D01*
X54908172Y-27908264D01*
X54889154Y-27908807D01*
X54876174Y-27907198D01*
X54863638Y-27917903D01*
X54854747Y-27927515D01*
X54834378Y-27933230D01*
X54819434Y-27936064D01*
X54811000Y-27947884D01*
X54804960Y-27958169D01*
X54781693Y-27962538D01*
X54761123Y-27965558D01*
X54752385Y-27977192D01*
X54747865Y-27986559D01*
X54729007Y-27991846D01*
X54713081Y-27995113D01*
X54700006Y-28006500D01*
X54693323Y-28014788D01*
X54674538Y-28021153D01*
X54662888Y-28023026D01*
X54654693Y-28030923D01*
X54654690Y-28031044D01*
X54645963Y-28037862D01*
X54625385Y-28040692D01*
X54604815Y-28043712D01*
X54596077Y-28055346D01*
X54591220Y-28064958D01*
X54571348Y-28070000D01*
X54554006Y-28073501D01*
X54540995Y-28084653D01*
X54532870Y-28093610D01*
X54513039Y-28099307D01*
X54498253Y-28102231D01*
X54485374Y-28113203D01*
X54479113Y-28120524D01*
X54460024Y-28121864D01*
X54447086Y-28121024D01*
X54433959Y-28132391D01*
X54424972Y-28142271D01*
X54404532Y-28148153D01*
X54389588Y-28150987D01*
X54381154Y-28162807D01*
X54376634Y-28172175D01*
X54357776Y-28177461D01*
X54341850Y-28180728D01*
X54328775Y-28192115D01*
X54319228Y-28201595D01*
X54298422Y-28206769D01*
X54282068Y-28208959D01*
X54273693Y-28215479D01*
X54267558Y-28222776D01*
X54249270Y-28230319D01*
X54233136Y-28236772D01*
X54224847Y-28246032D01*
X54218623Y-28252371D01*
X54200117Y-28255615D01*
X54182775Y-28259117D01*
X54169764Y-28270269D01*
X54161639Y-28279225D01*
X54141808Y-28284923D01*
X54126978Y-28287999D01*
X54113852Y-28299577D01*
X54104093Y-28309125D01*
X54083146Y-28314230D01*
X54081530Y-28314284D01*
X54076367Y-28316673D01*
X53828785Y-28316673D01*
X53931324Y-28206324D01*
X53951265Y-28186572D01*
X54101172Y-28050121D01*
X54256810Y-27929987D01*
X54422100Y-27823364D01*
X54600962Y-27727450D01*
X54619151Y-27718668D01*
X54683334Y-27689303D01*
X54750719Y-27660631D01*
X54818961Y-27633443D01*
X54885714Y-27608530D01*
X54948633Y-27586684D01*
X55005372Y-27568696D01*
X55053585Y-27555356D01*
X55090927Y-27547457D01*
X55115053Y-27545788D01*
X55123616Y-27551143D01*
X55124194Y-27554804D01*
X55133768Y-27561618D01*
X55148367Y-27558818D01*
X55159160Y-27547346D01*
X55159170Y-27547319D01*
X55168361Y-27538687D01*
X55189874Y-27534064D01*
X55227238Y-27532692D01*
X55231654Y-27532681D01*
X55265969Y-27531256D01*
X55284280Y-27526963D01*
X55289693Y-27519125D01*
X55289742Y-27518338D01*
X55290011Y-27518038D01*
X55573000Y-27518038D01*
X55576627Y-27526583D01*
X55592539Y-27532692D01*
X55603933Y-27529972D01*
X55612077Y-27518038D01*
X55608451Y-27509493D01*
X55592539Y-27503384D01*
X55581145Y-27506104D01*
X55573000Y-27518038D01*
X55290011Y-27518038D01*
X55299487Y-27507460D01*
X55321443Y-27499788D01*
X55325684Y-27499029D01*
X55385174Y-27490443D01*
X55453452Y-27483757D01*
X55528161Y-27478914D01*
X55606943Y-27475856D01*
X55687441Y-27474526D01*
X55767298Y-27474864D01*
X55844156Y-27476815D01*
X55915658Y-27480319D01*
X55979445Y-27485319D01*
X56033162Y-27491758D01*
X56074449Y-27499577D01*
X56100950Y-27508719D01*
X56110308Y-27519125D01*
X56110357Y-27520085D01*
X56116916Y-27527539D01*
X56136682Y-27531516D01*
X56172763Y-27532692D01*
X56172876Y-27532692D01*
X56210197Y-27534071D01*
X56231676Y-27538702D01*
X56240841Y-27547346D01*
X56242908Y-27551289D01*
X56255619Y-27560484D01*
X56269721Y-27560750D01*
X56276385Y-27551143D01*
X56277172Y-27548763D01*
X56290626Y-27545587D01*
X56318942Y-27549198D01*
X56359775Y-27558804D01*
X56410779Y-27573614D01*
X56469608Y-27592837D01*
X56533917Y-27615682D01*
X56601360Y-27641356D01*
X56669592Y-27669070D01*
X56736267Y-27698032D01*
X56799039Y-27727450D01*
X56824031Y-27739830D01*
X57000839Y-27837021D01*
X57164602Y-27945298D01*
X57319241Y-28067465D01*
X57327225Y-28074884D01*
X57468676Y-28206324D01*
X57575979Y-28321384D01*
X57599332Y-28346425D01*
X57727994Y-28508176D01*
X57841390Y-28679209D01*
X57941561Y-28862356D01*
X57951769Y-28883313D01*
X57979047Y-28942495D01*
X58006383Y-29005875D01*
X58032902Y-29070997D01*
X58057727Y-29135404D01*
X58079986Y-29196641D01*
X58098802Y-29252251D01*
X58113301Y-29299779D01*
X58122609Y-29336769D01*
X58123705Y-29344884D01*
X58125849Y-29360763D01*
X58122147Y-29369307D01*
X58117945Y-29370956D01*
X58113000Y-29383961D01*
X58110806Y-29393182D01*
X58101032Y-29398290D01*
X58091713Y-29388482D01*
X58084063Y-29386340D01*
X58057853Y-29384109D01*
X58012896Y-29382148D01*
X57949061Y-29380451D01*
X57866216Y-29379018D01*
X57764229Y-29377846D01*
X57642968Y-29376931D01*
X57502302Y-29376271D01*
X56916270Y-29374192D01*
X56914774Y-29203259D01*
X56948071Y-29203259D01*
X56948426Y-29255131D01*
X56949240Y-29296385D01*
X56950552Y-29324117D01*
X56952399Y-29335424D01*
X56959424Y-29336112D01*
X56984386Y-29336987D01*
X57025726Y-29337878D01*
X57081703Y-29338762D01*
X57150578Y-29339620D01*
X57230610Y-29340429D01*
X57320059Y-29341168D01*
X57417185Y-29341817D01*
X57520248Y-29342354D01*
X58083697Y-29344884D01*
X58083695Y-29323949D01*
X58081025Y-29310624D01*
X58069802Y-29297683D01*
X58060507Y-29286316D01*
X58058672Y-29257561D01*
X58058932Y-29253859D01*
X58057308Y-29230226D01*
X58048140Y-29222769D01*
X58038469Y-29214739D01*
X58034847Y-29189773D01*
X58034834Y-29188391D01*
X58030338Y-29162278D01*
X58020193Y-29144615D01*
X58018905Y-29143419D01*
X58009313Y-29123734D01*
X58005539Y-29094573D01*
X58005345Y-29085256D01*
X58001221Y-29063352D01*
X57990885Y-29056692D01*
X57981518Y-29052172D01*
X57976231Y-29033314D01*
X57972728Y-29017317D01*
X57960469Y-29003888D01*
X57951748Y-28997310D01*
X57949941Y-28977822D01*
X57950831Y-28965258D01*
X57941281Y-28952472D01*
X57932551Y-28943899D01*
X57927385Y-28923762D01*
X57924552Y-28908818D01*
X57912731Y-28900384D01*
X57902446Y-28894344D01*
X57898077Y-28871077D01*
X57895057Y-28850507D01*
X57883423Y-28841769D01*
X57873865Y-28836989D01*
X57868770Y-28817346D01*
X57866344Y-28801283D01*
X57859000Y-28792923D01*
X57852538Y-28786699D01*
X57849231Y-28768193D01*
X57845729Y-28750851D01*
X57834577Y-28737840D01*
X57825380Y-28729099D01*
X57819923Y-28708839D01*
X57817090Y-28693895D01*
X57805270Y-28685461D01*
X57798436Y-28683759D01*
X57790616Y-28670807D01*
X57789638Y-28664082D01*
X57781906Y-28656153D01*
X57774608Y-28650018D01*
X57767066Y-28631730D01*
X57760613Y-28615596D01*
X57751353Y-28607307D01*
X57746946Y-28605656D01*
X57741770Y-28592653D01*
X57740068Y-28585820D01*
X57727116Y-28578000D01*
X57718648Y-28574443D01*
X57712462Y-28558787D01*
X57707932Y-28544142D01*
X57691487Y-28520379D01*
X57668301Y-28496441D01*
X57644001Y-28477951D01*
X57624213Y-28470538D01*
X57613170Y-28468785D01*
X57605000Y-28460955D01*
X57598874Y-28453087D01*
X57580577Y-28445242D01*
X57564434Y-28439002D01*
X57556154Y-28430402D01*
X57549936Y-28424642D01*
X57531425Y-28421692D01*
X57514083Y-28418190D01*
X57501072Y-28407038D01*
X57492330Y-28397841D01*
X57472071Y-28392384D01*
X57457127Y-28389551D01*
X57448693Y-28377730D01*
X57442653Y-28367445D01*
X57419385Y-28363077D01*
X57398815Y-28360056D01*
X57390077Y-28348423D01*
X57386451Y-28339877D01*
X57370539Y-28333769D01*
X57359145Y-28336489D01*
X57351000Y-28348423D01*
X57349298Y-28355257D01*
X57336347Y-28363077D01*
X57329513Y-28364779D01*
X57321693Y-28377730D01*
X57320487Y-28384486D01*
X57311052Y-28392384D01*
X57301671Y-28397080D01*
X57282697Y-28412618D01*
X57259777Y-28434473D01*
X57237600Y-28457897D01*
X57220855Y-28478140D01*
X57214231Y-28490451D01*
X57213995Y-28492528D01*
X57204718Y-28499846D01*
X57201813Y-28501212D01*
X57186676Y-28513278D01*
X57161762Y-28535801D01*
X57129733Y-28566332D01*
X57093248Y-28602423D01*
X57076613Y-28619018D01*
X57041630Y-28652956D01*
X57012179Y-28680234D01*
X56990954Y-28698399D01*
X56980646Y-28705000D01*
X56976029Y-28706378D01*
X56970000Y-28718839D01*
X56969151Y-28724737D01*
X56960176Y-28735954D01*
X56959345Y-28737664D01*
X56957258Y-28754445D01*
X56955292Y-28786738D01*
X56953484Y-28831641D01*
X56951872Y-28886249D01*
X56950494Y-28947660D01*
X56949387Y-29012970D01*
X56948589Y-29079275D01*
X56948138Y-29143673D01*
X56948071Y-29203259D01*
X56914774Y-29203259D01*
X56913684Y-29078673D01*
X56913403Y-29049234D01*
X56912516Y-28977840D01*
X56911435Y-28914094D01*
X56910220Y-28860374D01*
X56908930Y-28819059D01*
X56907622Y-28792526D01*
X56906357Y-28783153D01*
X56897896Y-28787687D01*
X56882719Y-28802147D01*
X56868700Y-28819407D01*
X56862539Y-28832000D01*
X56862267Y-28834324D01*
X56853106Y-28841769D01*
X56845483Y-28844755D01*
X56827624Y-28858322D01*
X56807545Y-28877594D01*
X56791161Y-28896714D01*
X56784385Y-28909824D01*
X56782729Y-28914473D01*
X56769731Y-28919923D01*
X56762897Y-28921625D01*
X56755077Y-28934577D01*
X56754006Y-28941314D01*
X56745565Y-28949230D01*
X56735622Y-28954444D01*
X56716434Y-28970276D01*
X56693354Y-28992151D01*
X56671067Y-29015383D01*
X56654260Y-29035288D01*
X56647616Y-29047180D01*
X56647183Y-29049876D01*
X56637095Y-29056692D01*
X56630570Y-29058874D01*
X56612855Y-29071724D01*
X56592757Y-29090925D01*
X56576288Y-29110463D01*
X56569462Y-29124325D01*
X56569076Y-29127304D01*
X56560068Y-29134846D01*
X56550566Y-29139482D01*
X56531348Y-29154822D01*
X56508132Y-29176400D01*
X56485670Y-29199526D01*
X56468709Y-29219511D01*
X56462000Y-29231667D01*
X56461596Y-29234751D01*
X56452606Y-29242307D01*
X56443104Y-29246943D01*
X56423886Y-29262284D01*
X56400671Y-29283861D01*
X56378208Y-29306987D01*
X56361248Y-29326973D01*
X56354539Y-29339128D01*
X56354536Y-29339265D01*
X56345805Y-29346688D01*
X56325231Y-29349769D01*
X56312486Y-29350352D01*
X56299078Y-29356737D01*
X56295923Y-29374192D01*
X56295820Y-29378693D01*
X56290091Y-29394580D01*
X56271500Y-29398615D01*
X56255570Y-29401483D01*
X56247077Y-29413269D01*
X56245375Y-29420103D01*
X56232423Y-29427923D01*
X56225590Y-29429625D01*
X56217770Y-29442577D01*
X56216276Y-29449375D01*
X56204767Y-29457230D01*
X56192394Y-29463806D01*
X56178693Y-29481653D01*
X56166293Y-29498282D01*
X56152619Y-29506076D01*
X56146586Y-29507760D01*
X56139616Y-29520730D01*
X56137914Y-29527564D01*
X56124962Y-29535384D01*
X56118128Y-29537086D01*
X56110308Y-29550038D01*
X56109123Y-29556790D01*
X56099841Y-29564692D01*
X56085104Y-29570759D01*
X56068862Y-29586498D01*
X56061462Y-29603071D01*
X56059803Y-29607894D01*
X56046808Y-29613538D01*
X56039974Y-29615240D01*
X56032154Y-29628192D01*
X56030452Y-29635026D01*
X56017500Y-29642846D01*
X56010667Y-29644548D01*
X56002847Y-29657500D01*
X56001662Y-29664252D01*
X55992380Y-29672153D01*
X55977642Y-29678220D01*
X55961400Y-29693960D01*
X55954000Y-29710533D01*
X55952341Y-29715356D01*
X55939347Y-29721000D01*
X55932513Y-29722702D01*
X55924693Y-29735653D01*
X55922991Y-29742487D01*
X55910039Y-29750307D01*
X55903205Y-29752009D01*
X55895385Y-29764961D01*
X55894200Y-29771713D01*
X55884918Y-29779615D01*
X55870181Y-29785682D01*
X55853939Y-29801421D01*
X55846539Y-29817994D01*
X55845955Y-29821331D01*
X55835404Y-29828461D01*
X55827124Y-29831252D01*
X55812472Y-29844595D01*
X55804156Y-29852475D01*
X55794988Y-29851526D01*
X55793779Y-29848030D01*
X55796648Y-29829739D01*
X55806902Y-29807066D01*
X55820425Y-29787771D01*
X55833105Y-29779615D01*
X55839346Y-29777927D01*
X55846539Y-29764961D01*
X55848241Y-29758127D01*
X55861193Y-29750307D01*
X55867939Y-29749166D01*
X55875847Y-29740209D01*
X55878862Y-29732659D01*
X55892562Y-29714973D01*
X55912023Y-29695089D01*
X55931329Y-29678863D01*
X55944568Y-29672153D01*
X55946603Y-29671931D01*
X55954000Y-29662721D01*
X55956986Y-29655098D01*
X55970554Y-29637238D01*
X55989826Y-29617159D01*
X56008945Y-29600775D01*
X56022056Y-29594000D01*
X56026705Y-29592344D01*
X56032154Y-29579346D01*
X56033856Y-29572512D01*
X56046808Y-29564692D01*
X56053544Y-29563629D01*
X56061462Y-29555259D01*
X56064448Y-29547636D01*
X56078016Y-29529777D01*
X56097288Y-29509698D01*
X56116407Y-29493314D01*
X56129517Y-29486538D01*
X56134166Y-29484882D01*
X56139616Y-29471884D01*
X56141318Y-29465050D01*
X56154270Y-29457230D01*
X56161013Y-29456110D01*
X56168923Y-29447304D01*
X56173732Y-29437978D01*
X56189627Y-29418570D01*
X56213268Y-29393235D01*
X56241158Y-29365355D01*
X56269800Y-29338315D01*
X56295696Y-29315496D01*
X56315350Y-29300283D01*
X56325265Y-29296059D01*
X56327599Y-29294949D01*
X56341775Y-29283230D01*
X56367067Y-29260264D01*
X56401681Y-29227811D01*
X56443826Y-29187633D01*
X56491710Y-29141490D01*
X56543539Y-29091143D01*
X56597523Y-29038353D01*
X56651868Y-28984882D01*
X56704782Y-28932489D01*
X56754472Y-28882936D01*
X56799147Y-28837985D01*
X56837015Y-28799395D01*
X56866282Y-28768927D01*
X56885157Y-28748343D01*
X56891847Y-28739404D01*
X56889258Y-28738744D01*
X56870636Y-28737549D01*
X56836018Y-28736485D01*
X56787736Y-28735590D01*
X56728119Y-28734903D01*
X56659500Y-28734463D01*
X56584208Y-28734307D01*
X56276569Y-28734307D01*
X56274035Y-28253173D01*
X56273974Y-28241659D01*
X56305693Y-28241659D01*
X56305717Y-28303292D01*
X56305902Y-28398928D01*
X56306313Y-28477594D01*
X56307002Y-28540934D01*
X56308021Y-28590594D01*
X56309421Y-28628219D01*
X56311255Y-28655454D01*
X56313575Y-28673945D01*
X56316432Y-28685336D01*
X56319878Y-28691273D01*
X56329228Y-28694684D01*
X56355771Y-28698347D01*
X56396186Y-28701310D01*
X56447689Y-28703581D01*
X56507496Y-28705166D01*
X56572826Y-28706072D01*
X56640893Y-28706306D01*
X56708915Y-28705874D01*
X56774109Y-28704785D01*
X56833691Y-28703043D01*
X56884877Y-28700657D01*
X56924885Y-28697633D01*
X56950931Y-28693978D01*
X56960231Y-28689699D01*
X56961926Y-28683180D01*
X56974885Y-28675692D01*
X56981719Y-28673990D01*
X56989539Y-28661038D01*
X56991241Y-28654204D01*
X57004193Y-28646384D01*
X57010934Y-28645282D01*
X57018847Y-28636615D01*
X57020500Y-28632121D01*
X57033500Y-28626846D01*
X57040258Y-28625624D01*
X57048154Y-28616072D01*
X57049710Y-28612172D01*
X57061919Y-28595831D01*
X57083625Y-28571462D01*
X57111654Y-28542730D01*
X57125691Y-28528659D01*
X57151062Y-28501793D01*
X57168604Y-28481195D01*
X57175154Y-28470465D01*
X57175414Y-28468204D01*
X57184570Y-28460769D01*
X57191321Y-28456986D01*
X57209794Y-28441790D01*
X57236117Y-28417659D01*
X57267018Y-28387500D01*
X57298892Y-28355059D01*
X57318230Y-28333761D01*
X57326494Y-28321384D01*
X57325212Y-28315637D01*
X57315911Y-28314230D01*
X57299187Y-28310830D01*
X57286149Y-28299577D01*
X57277407Y-28290379D01*
X57257148Y-28284923D01*
X57242204Y-28282089D01*
X57233770Y-28270269D01*
X57227730Y-28259984D01*
X57204462Y-28255615D01*
X57183844Y-28252356D01*
X57175154Y-28243040D01*
X57170422Y-28234889D01*
X57153318Y-28228820D01*
X57139358Y-28225712D01*
X57128081Y-28216972D01*
X57120308Y-28210433D01*
X57100764Y-28206769D01*
X57084275Y-28203407D01*
X57071226Y-28192115D01*
X57062484Y-28182918D01*
X57042224Y-28177461D01*
X57027280Y-28174628D01*
X57018847Y-28162807D01*
X57012806Y-28152522D01*
X56989539Y-28148153D01*
X56969037Y-28145071D01*
X56960231Y-28134414D01*
X56957043Y-28126591D01*
X56940811Y-28125753D01*
X56928513Y-28126457D01*
X56915343Y-28115069D01*
X56906173Y-28105118D01*
X56885610Y-28099307D01*
X56869363Y-28095986D01*
X56856302Y-28084653D01*
X56847561Y-28075456D01*
X56845437Y-28074884D01*
X57028616Y-28074884D01*
X57033500Y-28079769D01*
X57038385Y-28074884D01*
X57033500Y-28070000D01*
X57028616Y-28074884D01*
X56845437Y-28074884D01*
X56827301Y-28070000D01*
X56812357Y-28067166D01*
X56803923Y-28055346D01*
X56800575Y-28047013D01*
X56785177Y-28040692D01*
X56781236Y-28040398D01*
X56759185Y-28034260D01*
X56732880Y-28022913D01*
X56709967Y-28010002D01*
X56698090Y-27999173D01*
X56690417Y-27994479D01*
X56670918Y-27991846D01*
X56654429Y-27988484D01*
X56641379Y-27977192D01*
X56632638Y-27967995D01*
X56612378Y-27962538D01*
X56597262Y-27959711D01*
X56589000Y-27946745D01*
X56585205Y-27936493D01*
X56568864Y-27936217D01*
X56556192Y-27937136D01*
X56543396Y-27927587D01*
X56534642Y-27918794D01*
X56514379Y-27913692D01*
X56498132Y-27910370D01*
X56485072Y-27899038D01*
X56476947Y-27890081D01*
X56457116Y-27884384D01*
X56442285Y-27881308D01*
X56429160Y-27869730D01*
X56419613Y-27860251D01*
X56398807Y-27855076D01*
X56382586Y-27852198D01*
X56374077Y-27840423D01*
X56369297Y-27830864D01*
X56349654Y-27825769D01*
X56333592Y-27823343D01*
X56325231Y-27816000D01*
X56324947Y-27813664D01*
X56315462Y-27806230D01*
X56313284Y-27812843D01*
X56310999Y-27838387D01*
X56309111Y-27882793D01*
X56307628Y-27945692D01*
X56306558Y-28026715D01*
X56305910Y-28125494D01*
X56305693Y-28241659D01*
X56273974Y-28241659D01*
X56271500Y-27772038D01*
X56244635Y-27768947D01*
X56226218Y-27764332D01*
X56217770Y-27756735D01*
X56211709Y-27750738D01*
X56193347Y-27747615D01*
X56177416Y-27744747D01*
X56168923Y-27732961D01*
X56164066Y-27723349D01*
X56144194Y-27718307D01*
X56126852Y-27714806D01*
X56113841Y-27703653D01*
X56105716Y-27694697D01*
X56085885Y-27689000D01*
X56071055Y-27685923D01*
X56057929Y-27674346D01*
X56048382Y-27664866D01*
X56027576Y-27659692D01*
X56011216Y-27657233D01*
X56002847Y-27649923D01*
X55996783Y-27643498D01*
X55978423Y-27640153D01*
X55962493Y-27637285D01*
X55954000Y-27625500D01*
X55949143Y-27615888D01*
X55929271Y-27610846D01*
X55911929Y-27607344D01*
X55898918Y-27596192D01*
X55890793Y-27587235D01*
X55870962Y-27581538D01*
X55856132Y-27578462D01*
X55843006Y-27566884D01*
X55833459Y-27557404D01*
X55812653Y-27552230D01*
X55796293Y-27549772D01*
X55787923Y-27542461D01*
X55781860Y-27536036D01*
X55763500Y-27532692D01*
X55747570Y-27529824D01*
X55739077Y-27518038D01*
X55737375Y-27511204D01*
X55724423Y-27503384D01*
X55717590Y-27505086D01*
X55709770Y-27518038D01*
X55711472Y-27524872D01*
X55724423Y-27532692D01*
X55728107Y-27533218D01*
X55736522Y-27543947D01*
X55739077Y-27570724D01*
X55739123Y-27574377D01*
X55743061Y-27600848D01*
X55752126Y-27613763D01*
X55759486Y-27624769D01*
X55763646Y-27647188D01*
X55764161Y-27673308D01*
X55760900Y-27695521D01*
X55753731Y-27706224D01*
X55749932Y-27703720D01*
X55744419Y-27687142D01*
X55741009Y-27659820D01*
X55739246Y-27640176D01*
X55733534Y-27617761D01*
X55723873Y-27610846D01*
X55723289Y-27610965D01*
X55721197Y-27613915D01*
X55719338Y-27621561D01*
X55717701Y-27634893D01*
X55716277Y-27654900D01*
X55715056Y-27682572D01*
X55714028Y-27718899D01*
X55713183Y-27764869D01*
X55712511Y-27821472D01*
X55712002Y-27889698D01*
X55711646Y-27970536D01*
X55711434Y-28064975D01*
X55711355Y-28174006D01*
X55711399Y-28298617D01*
X55711556Y-28439797D01*
X55711818Y-28598537D01*
X55712172Y-28775827D01*
X55714654Y-29940807D01*
X56885208Y-29940807D01*
X57036967Y-29940799D01*
X57197071Y-29940760D01*
X57339554Y-29940675D01*
X57465452Y-29940530D01*
X57575796Y-29940308D01*
X57671622Y-29939996D01*
X57753962Y-29939577D01*
X57823851Y-29939038D01*
X57882322Y-29938364D01*
X57930409Y-29937538D01*
X57969146Y-29936547D01*
X57999566Y-29935375D01*
X58022703Y-29934008D01*
X58039591Y-29932430D01*
X58051264Y-29930626D01*
X58058755Y-29928581D01*
X58063099Y-29926282D01*
X58065328Y-29923711D01*
X58068047Y-29919755D01*
X58087854Y-29908438D01*
X58113318Y-29908845D01*
X58136028Y-29921269D01*
X58142655Y-29927517D01*
X58155064Y-29935090D01*
X58163420Y-29930910D01*
X58168469Y-29913038D01*
X58170953Y-29879534D01*
X58171616Y-29828461D01*
X58171446Y-29794886D01*
X58170341Y-29757916D01*
X58167840Y-29735342D01*
X58163521Y-29724069D01*
X58156962Y-29721000D01*
X58155897Y-29720953D01*
X58149117Y-29716570D01*
X58144963Y-29702689D01*
X58142879Y-29675971D01*
X58142308Y-29633077D01*
X58142793Y-29594947D01*
X58144879Y-29565307D01*
X58149032Y-29549698D01*
X58155705Y-29545153D01*
X58158128Y-29545728D01*
X58167456Y-29559824D01*
X58175683Y-29591824D01*
X58182687Y-29640430D01*
X58188346Y-29704347D01*
X58192539Y-29782279D01*
X58195144Y-29872928D01*
X58196039Y-29975000D01*
X58195985Y-30000828D01*
X58194662Y-30100238D01*
X58191660Y-30187911D01*
X58187099Y-30262551D01*
X58181101Y-30322860D01*
X58173789Y-30367543D01*
X58165283Y-30395304D01*
X58155705Y-30404846D01*
X58149895Y-30401663D01*
X58145379Y-30387973D01*
X58143001Y-30360715D01*
X58142308Y-30316923D01*
X58142316Y-30310533D01*
X58143046Y-30269854D01*
X58145360Y-30244931D01*
X58149813Y-30232426D01*
X58156962Y-30229000D01*
X58158621Y-30228854D01*
X58164142Y-30224507D01*
X58167886Y-30212004D01*
X58170169Y-30188500D01*
X58171307Y-30151151D01*
X58171616Y-30097115D01*
X58171600Y-30082182D01*
X58171117Y-30032496D01*
X58169727Y-29998802D01*
X58167116Y-29978255D01*
X58162966Y-29968013D01*
X58156962Y-29965230D01*
X58147404Y-29970011D01*
X58142308Y-29989653D01*
X58140414Y-30004820D01*
X58130459Y-30012413D01*
X58106750Y-30014077D01*
X58078952Y-30017999D01*
X58059424Y-30030171D01*
X58045934Y-30040534D01*
X58021313Y-30039654D01*
X58007294Y-30034376D01*
X58001032Y-30025213D01*
X58010991Y-30017389D01*
X58035423Y-30014077D01*
X58046391Y-30013633D01*
X58060679Y-30007589D01*
X58064154Y-29990722D01*
X58062418Y-29977668D01*
X58052043Y-29967758D01*
X58027520Y-29962307D01*
X58022742Y-29961982D01*
X57999124Y-29961362D01*
X57957859Y-29960793D01*
X57900211Y-29960281D01*
X57827445Y-29959828D01*
X57740825Y-29959438D01*
X57641615Y-29959115D01*
X57531079Y-29958863D01*
X57410483Y-29958685D01*
X57281089Y-29958586D01*
X57144163Y-29958569D01*
X57000968Y-29958638D01*
X56852770Y-29958796D01*
X55714654Y-29960346D01*
X55712173Y-31139980D01*
X55711912Y-31268577D01*
X55711619Y-31433181D01*
X55711421Y-31579951D01*
X55711329Y-31709883D01*
X55711351Y-31823972D01*
X55711500Y-31923212D01*
X55711785Y-32008601D01*
X55712216Y-32081132D01*
X55712803Y-32141803D01*
X55713558Y-32191607D01*
X55714490Y-32231541D01*
X55715610Y-32262600D01*
X55716928Y-32285780D01*
X55718454Y-32302076D01*
X55720198Y-32312484D01*
X55722172Y-32317998D01*
X55724384Y-32319615D01*
X55732101Y-32322768D01*
X55737516Y-32337768D01*
X55739077Y-32368461D01*
X55738140Y-32393973D01*
X55733639Y-32412078D01*
X55724423Y-32417307D01*
X55717590Y-32419009D01*
X55709770Y-32431961D01*
X55711472Y-32438795D01*
X55724423Y-32446615D01*
X55731257Y-32444913D01*
X55739077Y-32431961D01*
X55787923Y-32431961D01*
X55791550Y-32440507D01*
X55807462Y-32446615D01*
X55818856Y-32443895D01*
X55827000Y-32431961D01*
X55823374Y-32423416D01*
X55807462Y-32417307D01*
X55796068Y-32420027D01*
X55787923Y-32431961D01*
X55739077Y-32431961D01*
X55743858Y-32422403D01*
X55763500Y-32417307D01*
X55779563Y-32414882D01*
X55787923Y-32407538D01*
X55794148Y-32401075D01*
X55812653Y-32397769D01*
X55829995Y-32394267D01*
X55843006Y-32383115D01*
X55851131Y-32374158D01*
X55870962Y-32368461D01*
X55885792Y-32365385D01*
X55898918Y-32353807D01*
X55908465Y-32344327D01*
X55929271Y-32339153D01*
X55945492Y-32336275D01*
X55954000Y-32324500D01*
X55958781Y-32314941D01*
X55978423Y-32309846D01*
X55994486Y-32307420D01*
X56002847Y-32300077D01*
X56009071Y-32293614D01*
X56027576Y-32290307D01*
X56044918Y-32286806D01*
X56057929Y-32275653D01*
X56066054Y-32266697D01*
X56085885Y-32261000D01*
X56100715Y-32257923D01*
X56113841Y-32246346D01*
X56122764Y-32237082D01*
X56143149Y-32231692D01*
X56159396Y-32228370D01*
X56172456Y-32217038D01*
X56179139Y-32208750D01*
X56197925Y-32202384D01*
X56209569Y-32200638D01*
X56217770Y-32193264D01*
X56225120Y-32186166D01*
X56244635Y-32181052D01*
X56271500Y-32177961D01*
X56274019Y-31684693D01*
X56305693Y-31684693D01*
X56305900Y-31804439D01*
X56306515Y-31906699D01*
X56307531Y-31991133D01*
X56308941Y-32057399D01*
X56310738Y-32105154D01*
X56312914Y-32134058D01*
X56315462Y-32143769D01*
X56317797Y-32143485D01*
X56325231Y-32134000D01*
X56331295Y-32127574D01*
X56349654Y-32124230D01*
X56365585Y-32121362D01*
X56374077Y-32109577D01*
X56378597Y-32100209D01*
X56397455Y-32094923D01*
X56413382Y-32091656D01*
X56426456Y-32080269D01*
X56436004Y-32070789D01*
X56456809Y-32065615D01*
X56473163Y-32063425D01*
X56481539Y-32056905D01*
X56487674Y-32049608D01*
X56505962Y-32042065D01*
X56522096Y-32035612D01*
X56530385Y-32026352D01*
X56530387Y-32026233D01*
X56539114Y-32019545D01*
X56559693Y-32016769D01*
X56580263Y-32013749D01*
X56589000Y-32002115D01*
X56593520Y-31992748D01*
X56612378Y-31987461D01*
X56628305Y-31984194D01*
X56641379Y-31972807D01*
X56650303Y-31963543D01*
X56670687Y-31958153D01*
X56687007Y-31954592D01*
X56700420Y-31942391D01*
X56706791Y-31933856D01*
X56725888Y-31931707D01*
X56738124Y-31932652D01*
X56745308Y-31923047D01*
X56751884Y-31913435D01*
X56774616Y-31909307D01*
X56795186Y-31906287D01*
X56803923Y-31894653D01*
X56808444Y-31885286D01*
X56827301Y-31880000D01*
X56843228Y-31876733D01*
X56856302Y-31865346D01*
X56865850Y-31855866D01*
X56886655Y-31850692D01*
X56903009Y-31848502D01*
X56911385Y-31841982D01*
X56917520Y-31834684D01*
X56935808Y-31827142D01*
X56951942Y-31820689D01*
X56960231Y-31811429D01*
X56960233Y-31811310D01*
X56968960Y-31804622D01*
X56989539Y-31801846D01*
X57010109Y-31798826D01*
X57018847Y-31787192D01*
X57023367Y-31777825D01*
X57042224Y-31772538D01*
X57058151Y-31769271D01*
X57071226Y-31757884D01*
X57080149Y-31748620D01*
X57100533Y-31743230D01*
X57116732Y-31740074D01*
X57129550Y-31729335D01*
X57136183Y-31721729D01*
X57156458Y-31721081D01*
X57168465Y-31723284D01*
X57174664Y-31717831D01*
X57173506Y-31709038D01*
X57429154Y-31709038D01*
X57434039Y-31713923D01*
X57438923Y-31709038D01*
X57434039Y-31704153D01*
X57429154Y-31709038D01*
X57173506Y-31709038D01*
X57172097Y-31698342D01*
X57171653Y-31696179D01*
X57169453Y-31681487D01*
X57171471Y-31682173D01*
X57172710Y-31684346D01*
X57186925Y-31692615D01*
X57207395Y-31694385D01*
X57225787Y-31689981D01*
X57233770Y-31679730D01*
X57238550Y-31670172D01*
X57258193Y-31665077D01*
X57274223Y-31662220D01*
X57282616Y-31649724D01*
X57286411Y-31640177D01*
X57304597Y-31636151D01*
X57319206Y-31636995D01*
X57334542Y-31636850D01*
X57334925Y-31636677D01*
X57330574Y-31628674D01*
X57315491Y-31611188D01*
X57292981Y-31587472D01*
X57266346Y-31560776D01*
X57238888Y-31534352D01*
X57213909Y-31511452D01*
X57194714Y-31495328D01*
X57184603Y-31489230D01*
X57181927Y-31488798D01*
X57175154Y-31478710D01*
X57174340Y-31475433D01*
X57164113Y-31459448D01*
X57145917Y-31438952D01*
X57139282Y-31432586D01*
X57115693Y-31416505D01*
X57094629Y-31415190D01*
X57083001Y-31417405D01*
X57084789Y-31415057D01*
X57089464Y-31412223D01*
X57097000Y-31400493D01*
X57091977Y-31391485D01*
X57075961Y-31372367D01*
X57052846Y-31347745D01*
X57026661Y-31321623D01*
X57001438Y-31298006D01*
X56981208Y-31280899D01*
X56970000Y-31274307D01*
X56965506Y-31272654D01*
X56960231Y-31259653D01*
X56955451Y-31250095D01*
X56935808Y-31245000D01*
X56919729Y-31241960D01*
X56911386Y-31232788D01*
X56911360Y-31232459D01*
X56906570Y-31228912D01*
X56892343Y-31226169D01*
X56866996Y-31224168D01*
X56828846Y-31222851D01*
X56776210Y-31222156D01*
X56707406Y-31222023D01*
X56620752Y-31222393D01*
X56597532Y-31222540D01*
X56525310Y-31223020D01*
X56459957Y-31223488D01*
X56404006Y-31223924D01*
X56359990Y-31224308D01*
X56330445Y-31224619D01*
X56317904Y-31224836D01*
X56315047Y-31228610D01*
X56312559Y-31241039D01*
X56310521Y-31263482D01*
X56308895Y-31297299D01*
X56307646Y-31343850D01*
X56306737Y-31404497D01*
X56306133Y-31480600D01*
X56305797Y-31573519D01*
X56305693Y-31684615D01*
X56305693Y-31684693D01*
X56274019Y-31684693D01*
X56274032Y-31682173D01*
X56276564Y-31186384D01*
X56569551Y-31186384D01*
X56596826Y-31186364D01*
X56668065Y-31186108D01*
X56731707Y-31185589D01*
X56785364Y-31184846D01*
X56826647Y-31183917D01*
X56853168Y-31182841D01*
X56862539Y-31181657D01*
X56856121Y-31173895D01*
X56837594Y-31154207D01*
X56808796Y-31124458D01*
X56771571Y-31086488D01*
X56727762Y-31042139D01*
X56679212Y-30993251D01*
X56627764Y-30941666D01*
X56575260Y-30889222D01*
X56523544Y-30837763D01*
X56474459Y-30789127D01*
X56429847Y-30745157D01*
X56391552Y-30707692D01*
X56361416Y-30678574D01*
X56341283Y-30659643D01*
X56332994Y-30652740D01*
X56317639Y-30650298D01*
X56308627Y-30645738D01*
X56290286Y-30631045D01*
X56270098Y-30611663D01*
X56253786Y-30593195D01*
X56247077Y-30581243D01*
X56246740Y-30578450D01*
X56238060Y-30570923D01*
X56229540Y-30567066D01*
X56211697Y-30552745D01*
X56191790Y-30533235D01*
X56175604Y-30514321D01*
X56168923Y-30501787D01*
X56167276Y-30497645D01*
X56154270Y-30492769D01*
X56147436Y-30491067D01*
X56139616Y-30478115D01*
X56138431Y-30471363D01*
X56129149Y-30463461D01*
X56114411Y-30457394D01*
X56098170Y-30441655D01*
X56090770Y-30425082D01*
X56089111Y-30420259D01*
X56076116Y-30414615D01*
X56069282Y-30412913D01*
X56061462Y-30399961D01*
X56059760Y-30393127D01*
X56046808Y-30385307D01*
X56039974Y-30383605D01*
X56032154Y-30370653D01*
X56031013Y-30363907D01*
X56022056Y-30356000D01*
X56014506Y-30352984D01*
X55996820Y-30339284D01*
X55976936Y-30319823D01*
X55960710Y-30300517D01*
X55954000Y-30287278D01*
X55953778Y-30285243D01*
X55944568Y-30277846D01*
X55936945Y-30274860D01*
X55919085Y-30261292D01*
X55899006Y-30242020D01*
X55882622Y-30222901D01*
X55875847Y-30209790D01*
X55874191Y-30205141D01*
X55861193Y-30199692D01*
X55854359Y-30197990D01*
X55846539Y-30185038D01*
X55844837Y-30178204D01*
X55831885Y-30170384D01*
X55825051Y-30168682D01*
X55817231Y-30155730D01*
X55816129Y-30148989D01*
X55807462Y-30141077D01*
X55801784Y-30137413D01*
X55797693Y-30121538D01*
X55799525Y-30110182D01*
X55807462Y-30102000D01*
X55809797Y-30102283D01*
X55817231Y-30111769D01*
X55818884Y-30116263D01*
X55831885Y-30121538D01*
X55838637Y-30122723D01*
X55846539Y-30132005D01*
X55852606Y-30146743D01*
X55868345Y-30162984D01*
X55884918Y-30170384D01*
X55889741Y-30172043D01*
X55895385Y-30185038D01*
X55897087Y-30191872D01*
X55910039Y-30199692D01*
X55916873Y-30201394D01*
X55924693Y-30214346D01*
X55926395Y-30221180D01*
X55939347Y-30229000D01*
X55946099Y-30230185D01*
X55954000Y-30239467D01*
X55960067Y-30254204D01*
X55975807Y-30270446D01*
X55992380Y-30277846D01*
X55997203Y-30279505D01*
X56002847Y-30292500D01*
X56004549Y-30299333D01*
X56017500Y-30307153D01*
X56024334Y-30308856D01*
X56032154Y-30321807D01*
X56033856Y-30328641D01*
X56046808Y-30336461D01*
X56053560Y-30337646D01*
X56061462Y-30346928D01*
X56067529Y-30361666D01*
X56083268Y-30377907D01*
X56099841Y-30385307D01*
X56104664Y-30386966D01*
X56110308Y-30399961D01*
X56112010Y-30406795D01*
X56124962Y-30414615D01*
X56131796Y-30416317D01*
X56139616Y-30429269D01*
X56141110Y-30436068D01*
X56152619Y-30443923D01*
X56164991Y-30450498D01*
X56178693Y-30468346D01*
X56191093Y-30484974D01*
X56204767Y-30492769D01*
X56210800Y-30494452D01*
X56217770Y-30507423D01*
X56219472Y-30514257D01*
X56232423Y-30522077D01*
X56239257Y-30523779D01*
X56247077Y-30536730D01*
X56251858Y-30546289D01*
X56271500Y-30551384D01*
X56276001Y-30551487D01*
X56291889Y-30557216D01*
X56295923Y-30575807D01*
X56295925Y-30576336D01*
X56300521Y-30595004D01*
X56316537Y-30600230D01*
X56322474Y-30601987D01*
X56344011Y-30616532D01*
X56377949Y-30645636D01*
X56424074Y-30689110D01*
X56482176Y-30746769D01*
X56496326Y-30761018D01*
X56538799Y-30803183D01*
X56576312Y-30839541D01*
X56606697Y-30868047D01*
X56627785Y-30886651D01*
X56637409Y-30893307D01*
X56640113Y-30893644D01*
X56647616Y-30902702D01*
X56652252Y-30912203D01*
X56667592Y-30931422D01*
X56689170Y-30954637D01*
X56712296Y-30977099D01*
X56732281Y-30994060D01*
X56744437Y-31000769D01*
X56747523Y-31001176D01*
X56755077Y-31010218D01*
X56759088Y-31017053D01*
X56774028Y-31035124D01*
X56796761Y-31060324D01*
X56823812Y-31089041D01*
X56851707Y-31117663D01*
X56876972Y-31142579D01*
X56896135Y-31160177D01*
X56905722Y-31166846D01*
X56906051Y-31166334D01*
X56907521Y-31152822D01*
X56909004Y-31122773D01*
X56910430Y-31078625D01*
X56911731Y-31022817D01*
X56912836Y-30957789D01*
X56913678Y-30885980D01*
X56915641Y-30673253D01*
X56942353Y-30673253D01*
X56943445Y-30685903D01*
X56945114Y-30700755D01*
X56945538Y-30705963D01*
X56947034Y-30735553D01*
X56948293Y-30777716D01*
X56949302Y-30829240D01*
X56950050Y-30886914D01*
X56950523Y-30947529D01*
X56950711Y-31007873D01*
X56950602Y-31064735D01*
X56950182Y-31114906D01*
X56949442Y-31155173D01*
X56948367Y-31182326D01*
X56946948Y-31193155D01*
X56948415Y-31197433D01*
X56960558Y-31212888D01*
X56981867Y-31236396D01*
X57009208Y-31264841D01*
X57039447Y-31295105D01*
X57069452Y-31324070D01*
X57096087Y-31348619D01*
X57116220Y-31365635D01*
X57126717Y-31372000D01*
X57131019Y-31373650D01*
X57136077Y-31386653D01*
X57137180Y-31393395D01*
X57145847Y-31401307D01*
X57150341Y-31402961D01*
X57155616Y-31415961D01*
X57156825Y-31422717D01*
X57166289Y-31430615D01*
X57175034Y-31435643D01*
X57195015Y-31452173D01*
X57222564Y-31477491D01*
X57254488Y-31508769D01*
X57282463Y-31536618D01*
X57309460Y-31562700D01*
X57328734Y-31580401D01*
X57337320Y-31586923D01*
X57343228Y-31589721D01*
X57357281Y-31601577D01*
X57367371Y-31610005D01*
X57381006Y-31616230D01*
X57385173Y-31614583D01*
X57390077Y-31601577D01*
X57396117Y-31591292D01*
X57419385Y-31586923D01*
X57439955Y-31583903D01*
X57448693Y-31572269D01*
X57453213Y-31562902D01*
X57472071Y-31557615D01*
X57487997Y-31554348D01*
X57501072Y-31542961D01*
X57510619Y-31533481D01*
X57531425Y-31528307D01*
X57547785Y-31525848D01*
X57556154Y-31518538D01*
X57562218Y-31512113D01*
X57580577Y-31508769D01*
X57596508Y-31505901D01*
X57605000Y-31494115D01*
X57608728Y-31485461D01*
X57625005Y-31479461D01*
X57625847Y-31479441D01*
X57646364Y-31471951D01*
X57667645Y-31455038D01*
X57669305Y-31453278D01*
X57687692Y-31437214D01*
X57701371Y-31430615D01*
X57701516Y-31430612D01*
X57709252Y-31421879D01*
X57712462Y-31401307D01*
X57715482Y-31380737D01*
X57727116Y-31372000D01*
X57733950Y-31370297D01*
X57741770Y-31357346D01*
X57743356Y-31350532D01*
X57755509Y-31342692D01*
X57763332Y-31339504D01*
X57764170Y-31323272D01*
X57763467Y-31310973D01*
X57774854Y-31297804D01*
X57782692Y-31292982D01*
X57790616Y-31278147D01*
X57792306Y-31271821D01*
X57805270Y-31264538D01*
X57814637Y-31260018D01*
X57819923Y-31241160D01*
X57823190Y-31225234D01*
X57834577Y-31212159D01*
X57844057Y-31202612D01*
X57849231Y-31181806D01*
X57851690Y-31165446D01*
X57859000Y-31157077D01*
X57865426Y-31151013D01*
X57868770Y-31132653D01*
X57871638Y-31116723D01*
X57883423Y-31108230D01*
X57893708Y-31102190D01*
X57898077Y-31078923D01*
X57901097Y-31058353D01*
X57912731Y-31049615D01*
X57922098Y-31045095D01*
X57927385Y-31026237D01*
X57930652Y-31010311D01*
X57942039Y-30997236D01*
X57951519Y-30987689D01*
X57956693Y-30966883D01*
X57959152Y-30950523D01*
X57966462Y-30942153D01*
X57972887Y-30936090D01*
X57976231Y-30917730D01*
X57979099Y-30901800D01*
X57990885Y-30893307D01*
X57995098Y-30892598D01*
X58003119Y-30881402D01*
X58005539Y-30854230D01*
X58005805Y-30842996D01*
X58010003Y-30821606D01*
X58020193Y-30815153D01*
X58026408Y-30813366D01*
X58032929Y-30800168D01*
X58034847Y-30771192D01*
X58034947Y-30763611D01*
X58038587Y-30736255D01*
X58047547Y-30727230D01*
X58047928Y-30727221D01*
X58057044Y-30717576D01*
X58060247Y-30691247D01*
X58060381Y-30685765D01*
X58064306Y-30662721D01*
X58071970Y-30651356D01*
X58080463Y-30647832D01*
X58082951Y-30643974D01*
X58075425Y-30640685D01*
X58056827Y-30637921D01*
X58026099Y-30635642D01*
X57982183Y-30633805D01*
X57924020Y-30632367D01*
X57850553Y-30631288D01*
X57760723Y-30630525D01*
X57653471Y-30630036D01*
X57527741Y-30629780D01*
X57495078Y-30629739D01*
X57377645Y-30629564D01*
X57277957Y-30629499D01*
X57194585Y-30629719D01*
X57126097Y-30630397D01*
X57071063Y-30631709D01*
X57028052Y-30633827D01*
X56995634Y-30636928D01*
X56972377Y-30641184D01*
X56956851Y-30646770D01*
X56947626Y-30653861D01*
X56943270Y-30662631D01*
X56942353Y-30673253D01*
X56915641Y-30673253D01*
X56916270Y-30605115D01*
X57504866Y-30602596D01*
X58093462Y-30600078D01*
X58093462Y-30575731D01*
X58095663Y-30557193D01*
X58101969Y-30552176D01*
X58109774Y-30562924D01*
X58116426Y-30588019D01*
X58115697Y-30615422D01*
X58110118Y-30643974D01*
X58107320Y-30658292D01*
X58092142Y-30713275D01*
X58071116Y-30777634D01*
X58045191Y-30848628D01*
X58015321Y-30923520D01*
X57982457Y-30999569D01*
X57947550Y-31074038D01*
X57935170Y-31099030D01*
X57837979Y-31275838D01*
X57729702Y-31439601D01*
X57607535Y-31594241D01*
X57568102Y-31636677D01*
X57500863Y-31709038D01*
X57468676Y-31743676D01*
X57449422Y-31762754D01*
X57299584Y-31899240D01*
X57143928Y-32019488D01*
X56978423Y-32126381D01*
X56799039Y-32222806D01*
X56779398Y-32232306D01*
X56715621Y-32261482D01*
X56648558Y-32289992D01*
X56580564Y-32317041D01*
X56513995Y-32341836D01*
X56451205Y-32363584D01*
X56394551Y-32381493D01*
X56346386Y-32394767D01*
X56309067Y-32402615D01*
X56284948Y-32404242D01*
X56276385Y-32398856D01*
X56276178Y-32396488D01*
X56267983Y-32388543D01*
X56254190Y-32390936D01*
X56243545Y-32402653D01*
X56243300Y-32403247D01*
X56233721Y-32411557D01*
X56211841Y-32415995D01*
X56174115Y-32417307D01*
X56165618Y-32417345D01*
X56132719Y-32418902D01*
X56115368Y-32423253D01*
X56110308Y-32431102D01*
X56110224Y-32431961D01*
X56110100Y-32433220D01*
X56104816Y-32440366D01*
X56090458Y-32446552D01*
X56064423Y-32452403D01*
X56024113Y-32458547D01*
X55966925Y-32465608D01*
X55952778Y-32467041D01*
X55902465Y-32470314D01*
X55838969Y-32472615D01*
X55766934Y-32473941D01*
X55691001Y-32474290D01*
X55615810Y-32473660D01*
X55546005Y-32472049D01*
X55486226Y-32469454D01*
X55441116Y-32465872D01*
X55399639Y-32461072D01*
X55352963Y-32454980D01*
X55321291Y-32449530D01*
X55301963Y-32444105D01*
X55292317Y-32438092D01*
X55289693Y-32430874D01*
X55289644Y-32429915D01*
X55283085Y-32422461D01*
X55263319Y-32418483D01*
X55227238Y-32417307D01*
X55227125Y-32417307D01*
X55189804Y-32415928D01*
X55168325Y-32411297D01*
X55159160Y-32402653D01*
X55157093Y-32398710D01*
X55144382Y-32389515D01*
X55130279Y-32389249D01*
X55123616Y-32398856D01*
X55122682Y-32401426D01*
X55108801Y-32404444D01*
X55080131Y-32400707D01*
X55039026Y-32391007D01*
X54987842Y-32376138D01*
X54928933Y-32356894D01*
X54864656Y-32334068D01*
X54797365Y-32308452D01*
X54729415Y-32280841D01*
X54663163Y-32252028D01*
X54600962Y-32222806D01*
X54576725Y-32210766D01*
X54399372Y-32113144D01*
X54320124Y-32060730D01*
X54762154Y-32060730D01*
X54767039Y-32065615D01*
X54771923Y-32060730D01*
X54767039Y-32055846D01*
X54762154Y-32060730D01*
X54320124Y-32060730D01*
X54235375Y-32004678D01*
X54133205Y-31923961D01*
X54224847Y-31923961D01*
X54229731Y-31928846D01*
X54234616Y-31923961D01*
X54229731Y-31919077D01*
X54224847Y-31923961D01*
X54133205Y-31923961D01*
X54080703Y-31882483D01*
X53931324Y-31743676D01*
X53831462Y-31636594D01*
X54064164Y-31636594D01*
X54070337Y-31639771D01*
X54087968Y-31638628D01*
X54100257Y-31637927D01*
X54113427Y-31649314D01*
X54122414Y-31659194D01*
X54142853Y-31665077D01*
X54157797Y-31667910D01*
X54166231Y-31679730D01*
X54172271Y-31690015D01*
X54195539Y-31694384D01*
X54216109Y-31697404D01*
X54224847Y-31709038D01*
X54229627Y-31718596D01*
X54249270Y-31723692D01*
X54265332Y-31726117D01*
X54273693Y-31733461D01*
X54279917Y-31739924D01*
X54298422Y-31743230D01*
X54315764Y-31746732D01*
X54328775Y-31757884D01*
X54337517Y-31767081D01*
X54357776Y-31772538D01*
X54372720Y-31775371D01*
X54381154Y-31787192D01*
X54387194Y-31797477D01*
X54410462Y-31801846D01*
X54430964Y-31804929D01*
X54439770Y-31815585D01*
X54442958Y-31823408D01*
X54459189Y-31824246D01*
X54471488Y-31823543D01*
X54484658Y-31834930D01*
X54493828Y-31844881D01*
X54514391Y-31850692D01*
X54530638Y-31854013D01*
X54543698Y-31865346D01*
X54552440Y-31874543D01*
X54572699Y-31880000D01*
X54587643Y-31882833D01*
X54596077Y-31894653D01*
X54600935Y-31904265D01*
X54620807Y-31909307D01*
X54638149Y-31912809D01*
X54651160Y-31923961D01*
X54659901Y-31933158D01*
X54680161Y-31938615D01*
X54695212Y-31940924D01*
X54703539Y-31948384D01*
X54709064Y-31954674D01*
X54726917Y-31958153D01*
X54742843Y-31961420D01*
X54755918Y-31972807D01*
X54765465Y-31982287D01*
X54786271Y-31987461D01*
X54802492Y-31990339D01*
X54811000Y-32002115D01*
X54815636Y-32011570D01*
X54834847Y-32016769D01*
X54851265Y-32018976D01*
X54864731Y-32026538D01*
X54871208Y-32031890D01*
X54890037Y-32036307D01*
X54901647Y-32038773D01*
X54914929Y-32050961D01*
X54923670Y-32060158D01*
X54925794Y-32060730D01*
X54943930Y-32065615D01*
X54958874Y-32068448D01*
X54967308Y-32080269D01*
X54973348Y-32090554D01*
X54996616Y-32094923D01*
X55017186Y-32097943D01*
X55025923Y-32109577D01*
X55029852Y-32118434D01*
X55046827Y-32124230D01*
X55060931Y-32127259D01*
X55080493Y-32141327D01*
X55082491Y-32142897D01*
X55085202Y-32139711D01*
X55087452Y-32128394D01*
X55089283Y-32107518D01*
X55090741Y-32075659D01*
X55091868Y-32031391D01*
X55092708Y-31973288D01*
X55093304Y-31899924D01*
X55093701Y-31809874D01*
X55093942Y-31701711D01*
X55094628Y-31245000D01*
X54772606Y-31245000D01*
X54450584Y-31245000D01*
X54337715Y-31357034D01*
X54311980Y-31382846D01*
X54277362Y-31418514D01*
X54249743Y-31448139D01*
X54231460Y-31469193D01*
X54224847Y-31479149D01*
X54224524Y-31481747D01*
X54215334Y-31489230D01*
X54205391Y-31494444D01*
X54186203Y-31510276D01*
X54163123Y-31532151D01*
X54140837Y-31555383D01*
X54124029Y-31575288D01*
X54117385Y-31587180D01*
X54117123Y-31589377D01*
X54107727Y-31596692D01*
X54097161Y-31600097D01*
X54080621Y-31611818D01*
X54067362Y-31626054D01*
X54064164Y-31636594D01*
X53831462Y-31636594D01*
X53800669Y-31603575D01*
X53672007Y-31441823D01*
X53558611Y-31270790D01*
X53458440Y-31087643D01*
X53448232Y-31066687D01*
X53420953Y-31007504D01*
X53393618Y-30944124D01*
X53367099Y-30879002D01*
X53342273Y-30814595D01*
X53320015Y-30753358D01*
X53301199Y-30697748D01*
X53286699Y-30650220D01*
X53277392Y-30613231D01*
X53276296Y-30605115D01*
X53316302Y-30605115D01*
X53316305Y-30626051D01*
X53319158Y-30639426D01*
X53331202Y-30652701D01*
X53340217Y-30660605D01*
X53340193Y-30681937D01*
X53338951Y-30688656D01*
X53343006Y-30708902D01*
X53361834Y-30730998D01*
X53367882Y-30736913D01*
X53378770Y-30750933D01*
X53377266Y-30756538D01*
X53368708Y-30764647D01*
X53365154Y-30785846D01*
X53368174Y-30806416D01*
X53379808Y-30815153D01*
X53384021Y-30815863D01*
X53392042Y-30827059D01*
X53394462Y-30854230D01*
X53394728Y-30865465D01*
X53398927Y-30886855D01*
X53409116Y-30893307D01*
X53418483Y-30897827D01*
X53423770Y-30916685D01*
X53427037Y-30932612D01*
X53438423Y-30945686D01*
X53447903Y-30955233D01*
X53453077Y-30976039D01*
X53455536Y-30992399D01*
X53462847Y-31000769D01*
X53469272Y-31006832D01*
X53472616Y-31025192D01*
X53475484Y-31041123D01*
X53487270Y-31049615D01*
X53497555Y-31055655D01*
X53501923Y-31078923D01*
X53504944Y-31099492D01*
X53516577Y-31108230D01*
X53525945Y-31112750D01*
X53531231Y-31131608D01*
X53534642Y-31147577D01*
X53546559Y-31160868D01*
X53555111Y-31167366D01*
X53555654Y-31186384D01*
X53554045Y-31199365D01*
X53564750Y-31211901D01*
X53574362Y-31220791D01*
X53580077Y-31241160D01*
X53582911Y-31256104D01*
X53594731Y-31264538D01*
X53601542Y-31266108D01*
X53609385Y-31278147D01*
X53610780Y-31284606D01*
X53623281Y-31297088D01*
X53630624Y-31303376D01*
X53631910Y-31322556D01*
X53631139Y-31336892D01*
X53642438Y-31342692D01*
X53650325Y-31344663D01*
X53658231Y-31357346D01*
X53659933Y-31364180D01*
X53672885Y-31372000D01*
X53683170Y-31378040D01*
X53687539Y-31401307D01*
X53687540Y-31401691D01*
X53690845Y-31422132D01*
X53698630Y-31430615D01*
X53699488Y-31430678D01*
X53713925Y-31438384D01*
X53732356Y-31455038D01*
X53733304Y-31456043D01*
X53754798Y-31472616D01*
X53774995Y-31479461D01*
X53786810Y-31482191D01*
X53795000Y-31494115D01*
X53799781Y-31503673D01*
X53819423Y-31508769D01*
X53835486Y-31511194D01*
X53843847Y-31518538D01*
X53850071Y-31525001D01*
X53868576Y-31528307D01*
X53885918Y-31531809D01*
X53898929Y-31542961D01*
X53907852Y-31552225D01*
X53928237Y-31557615D01*
X53944484Y-31560936D01*
X53957545Y-31572269D01*
X53966286Y-31581466D01*
X53986546Y-31586923D01*
X54001490Y-31589756D01*
X54009923Y-31601577D01*
X54012611Y-31609312D01*
X54027020Y-31615416D01*
X54032880Y-31614301D01*
X54052950Y-31602812D01*
X54070676Y-31584753D01*
X54078308Y-31567384D01*
X54078770Y-31564543D01*
X54088949Y-31557615D01*
X54098330Y-31552919D01*
X54117304Y-31537381D01*
X54140224Y-31515526D01*
X54162401Y-31492102D01*
X54179146Y-31471860D01*
X54185770Y-31459548D01*
X54186228Y-31456824D01*
X54196410Y-31450153D01*
X54205791Y-31445458D01*
X54224765Y-31429920D01*
X54247686Y-31408064D01*
X54269863Y-31384641D01*
X54286608Y-31364398D01*
X54293231Y-31352086D01*
X54293604Y-31349579D01*
X54303472Y-31342692D01*
X54308826Y-31340090D01*
X54326289Y-31326275D01*
X54351641Y-31303241D01*
X54381433Y-31274025D01*
X54449153Y-31205358D01*
X54450736Y-30912325D01*
X54450861Y-30885759D01*
X54451001Y-30814089D01*
X54450846Y-30749769D01*
X54450420Y-30695235D01*
X54449747Y-30652925D01*
X54448851Y-30625278D01*
X54447756Y-30614730D01*
X54440712Y-30614018D01*
X54415725Y-30613114D01*
X54374362Y-30612198D01*
X54318362Y-30611290D01*
X54249466Y-30610413D01*
X54169416Y-30609587D01*
X54079953Y-30608836D01*
X53982817Y-30608180D01*
X53879748Y-30607641D01*
X53316302Y-30605115D01*
X53276296Y-30605115D01*
X53274152Y-30589236D01*
X53277854Y-30580692D01*
X53282056Y-30579044D01*
X53287000Y-30566038D01*
X53289176Y-30556938D01*
X53298902Y-30551615D01*
X53308167Y-30560965D01*
X53308326Y-30561177D01*
X53320563Y-30563339D01*
X53351635Y-30565338D01*
X53400897Y-30567162D01*
X53467708Y-30568797D01*
X53551425Y-30570229D01*
X53651404Y-30571445D01*
X53767002Y-30572432D01*
X53897577Y-30573176D01*
X54483731Y-30575807D01*
X54485816Y-30814089D01*
X54486317Y-30871327D01*
X54486595Y-30900766D01*
X54487449Y-30972160D01*
X54488464Y-31035906D01*
X54489586Y-31089625D01*
X54490761Y-31130940D01*
X54491934Y-31157473D01*
X54493051Y-31166846D01*
X54500043Y-31162186D01*
X54517675Y-31146263D01*
X54542108Y-31122448D01*
X54569874Y-31094318D01*
X54597507Y-31065450D01*
X54621538Y-31039420D01*
X54638499Y-31019806D01*
X54644923Y-31010185D01*
X54646574Y-31005857D01*
X54659577Y-31000769D01*
X54666411Y-30999067D01*
X54674231Y-30986115D01*
X54675372Y-30979369D01*
X54684330Y-30971461D01*
X54691879Y-30968446D01*
X54709565Y-30954746D01*
X54729450Y-30935285D01*
X54745675Y-30915978D01*
X54752385Y-30902740D01*
X54752817Y-30900068D01*
X54762906Y-30893307D01*
X54765884Y-30892620D01*
X54781676Y-30882703D01*
X54801983Y-30864751D01*
X54808203Y-30858278D01*
X54824149Y-30838678D01*
X54830539Y-30825674D01*
X54832198Y-30820826D01*
X54845193Y-30815153D01*
X54852027Y-30813451D01*
X54859847Y-30800500D01*
X54860988Y-30793753D01*
X54869945Y-30785846D01*
X54877494Y-30782831D01*
X54895181Y-30769130D01*
X54915065Y-30749670D01*
X54931290Y-30730363D01*
X54938000Y-30717124D01*
X54938364Y-30714631D01*
X54948196Y-30707692D01*
X54949416Y-30707445D01*
X54962735Y-30698596D01*
X54984567Y-30679607D01*
X55010850Y-30653961D01*
X55040619Y-30626184D01*
X55066306Y-30607233D01*
X55083693Y-30600230D01*
X55083870Y-30600230D01*
X55099634Y-30594817D01*
X55104077Y-30575807D01*
X55104180Y-30571306D01*
X55109909Y-30555419D01*
X55128500Y-30551384D01*
X55144431Y-30548516D01*
X55152923Y-30536730D01*
X55154626Y-30529896D01*
X55167577Y-30522077D01*
X55174411Y-30520374D01*
X55182231Y-30507423D01*
X55183725Y-30500624D01*
X55195234Y-30492769D01*
X55207606Y-30486194D01*
X55221308Y-30468346D01*
X55233708Y-30451717D01*
X55247382Y-30443923D01*
X55253415Y-30442239D01*
X55260385Y-30429269D01*
X55262087Y-30422435D01*
X55275039Y-30414615D01*
X55281873Y-30412913D01*
X55289693Y-30399961D01*
X55290878Y-30393209D01*
X55300160Y-30385307D01*
X55314897Y-30379240D01*
X55331139Y-30363501D01*
X55338539Y-30346928D01*
X55340198Y-30342105D01*
X55353193Y-30336461D01*
X55360027Y-30334759D01*
X55367847Y-30321807D01*
X55369549Y-30314973D01*
X55382500Y-30307153D01*
X55389334Y-30305451D01*
X55397154Y-30292500D01*
X55398339Y-30285747D01*
X55407621Y-30277846D01*
X55422359Y-30271779D01*
X55438601Y-30256039D01*
X55446000Y-30239467D01*
X55447660Y-30234644D01*
X55460654Y-30229000D01*
X55467488Y-30227297D01*
X55475308Y-30214346D01*
X55477010Y-30207512D01*
X55489962Y-30199692D01*
X55496796Y-30197990D01*
X55504616Y-30185038D01*
X55505801Y-30178286D01*
X55515083Y-30170384D01*
X55529820Y-30164317D01*
X55546062Y-30148578D01*
X55553462Y-30132005D01*
X55554761Y-30127554D01*
X55567071Y-30121538D01*
X55574931Y-30119223D01*
X55586929Y-30105251D01*
X55593047Y-30095724D01*
X55603701Y-30099485D01*
X55606132Y-30103984D01*
X55604398Y-30122080D01*
X55594544Y-30144047D01*
X55580454Y-30162583D01*
X55566009Y-30170384D01*
X55561214Y-30171104D01*
X55553462Y-30179817D01*
X55550476Y-30187440D01*
X55536908Y-30205299D01*
X55517636Y-30225378D01*
X55498517Y-30241762D01*
X55485407Y-30248538D01*
X55480757Y-30250194D01*
X55475308Y-30263192D01*
X55473606Y-30270026D01*
X55460654Y-30277846D01*
X55453820Y-30279548D01*
X55446000Y-30292500D01*
X55444298Y-30299333D01*
X55431347Y-30307153D01*
X55424594Y-30308338D01*
X55416693Y-30317620D01*
X55410626Y-30332358D01*
X55394886Y-30348600D01*
X55378314Y-30356000D01*
X55373491Y-30357659D01*
X55367847Y-30370653D01*
X55366144Y-30377487D01*
X55353193Y-30385307D01*
X55346457Y-30386370D01*
X55338539Y-30394740D01*
X55335553Y-30402363D01*
X55321985Y-30420222D01*
X55302713Y-30440301D01*
X55283594Y-30456685D01*
X55270484Y-30463461D01*
X55265834Y-30465117D01*
X55260385Y-30478115D01*
X55258683Y-30484949D01*
X55245731Y-30492769D01*
X55238985Y-30493910D01*
X55231077Y-30502867D01*
X55228062Y-30510417D01*
X55214362Y-30528103D01*
X55194901Y-30547987D01*
X55175595Y-30564213D01*
X55162356Y-30570923D01*
X55160332Y-30571134D01*
X55152923Y-30579996D01*
X55152810Y-30581244D01*
X55144589Y-30596309D01*
X55127151Y-30616545D01*
X55105826Y-30636827D01*
X55085945Y-30652026D01*
X55072839Y-30657015D01*
X55071146Y-30657722D01*
X55057793Y-30668413D01*
X55033132Y-30690540D01*
X54998974Y-30722326D01*
X54957133Y-30761995D01*
X54909421Y-30807769D01*
X54857650Y-30857873D01*
X54803633Y-30910529D01*
X54749183Y-30963962D01*
X54696112Y-31016394D01*
X54646233Y-31066049D01*
X54601358Y-31111151D01*
X54563300Y-31149922D01*
X54533872Y-31180586D01*
X54514886Y-31201368D01*
X54508154Y-31210489D01*
X54510743Y-31211163D01*
X54529365Y-31212382D01*
X54563983Y-31213469D01*
X54612265Y-31214382D01*
X54671882Y-31215084D01*
X54740501Y-31215533D01*
X54815793Y-31215692D01*
X55123432Y-31215692D01*
X55123586Y-31245000D01*
X55125966Y-31696827D01*
X55128500Y-32177961D01*
X55155366Y-32181052D01*
X55173783Y-32185667D01*
X55182231Y-32193264D01*
X55186032Y-32198615D01*
X55202076Y-32202384D01*
X55214293Y-32204971D01*
X55227545Y-32217038D01*
X55238540Y-32226998D01*
X55261430Y-32231692D01*
X55281006Y-32234681D01*
X55289693Y-32246346D01*
X55294213Y-32255713D01*
X55313071Y-32261000D01*
X55328997Y-32264267D01*
X55342072Y-32275653D01*
X55351619Y-32285133D01*
X55372425Y-32290307D01*
X55388785Y-32292766D01*
X55397154Y-32300077D01*
X55403218Y-32306502D01*
X55421577Y-32309846D01*
X55437508Y-32312714D01*
X55446000Y-32324500D01*
X55450858Y-32334111D01*
X55470730Y-32339153D01*
X55488072Y-32342655D01*
X55501083Y-32353807D01*
X55509208Y-32362764D01*
X55529039Y-32368461D01*
X55543869Y-32371537D01*
X55556995Y-32383115D01*
X55566542Y-32392595D01*
X55587348Y-32397769D01*
X55603708Y-32400228D01*
X55612077Y-32407538D01*
X55618141Y-32413963D01*
X55636500Y-32417307D01*
X55652431Y-32420175D01*
X55660923Y-32431961D01*
X55662626Y-32438795D01*
X55675577Y-32446615D01*
X55682411Y-32444913D01*
X55690231Y-32431961D01*
X55688529Y-32425127D01*
X55675577Y-32417307D01*
X55669183Y-32414739D01*
X55662004Y-32399782D01*
X55660686Y-32378099D01*
X55665225Y-32357395D01*
X55675617Y-32345375D01*
X55676905Y-32344378D01*
X55678993Y-32339808D01*
X55680846Y-32330795D01*
X55682472Y-32316331D01*
X55683883Y-32295411D01*
X55685089Y-32267028D01*
X55686101Y-32230175D01*
X55686928Y-32183847D01*
X55687582Y-32127038D01*
X55688073Y-32058740D01*
X55688412Y-31977948D01*
X55688608Y-31883656D01*
X55688673Y-31774856D01*
X55688617Y-31650544D01*
X55688451Y-31509712D01*
X55688185Y-31351354D01*
X55687829Y-31174464D01*
X55685347Y-30009192D01*
X54514793Y-30009192D01*
X54363034Y-30009200D01*
X54202930Y-30009239D01*
X54060446Y-30009324D01*
X53934549Y-30009470D01*
X53824204Y-30009691D01*
X53728379Y-30010004D01*
X53646038Y-30010422D01*
X53576149Y-30010961D01*
X53517678Y-30011635D01*
X53469592Y-30012461D01*
X53430855Y-30013452D01*
X53400435Y-30014624D01*
X53377298Y-30015991D01*
X53360409Y-30017570D01*
X53348737Y-30019373D01*
X53341245Y-30021418D01*
X53336902Y-30023718D01*
X53334673Y-30026288D01*
X53327452Y-30033895D01*
X53307748Y-30041934D01*
X53284747Y-30043905D01*
X53265658Y-30039580D01*
X53257693Y-30028730D01*
X53255991Y-30021896D01*
X53243039Y-30014077D01*
X53238460Y-30015322D01*
X53233419Y-30023426D01*
X53230341Y-30041765D01*
X53228804Y-30073437D01*
X53228385Y-30121538D01*
X53228555Y-30155113D01*
X53229660Y-30192083D01*
X53232161Y-30214657D01*
X53236480Y-30225930D01*
X53243039Y-30229000D01*
X53244104Y-30229046D01*
X53250884Y-30233429D01*
X53255037Y-30247310D01*
X53257122Y-30274028D01*
X53257693Y-30316923D01*
X53257208Y-30355052D01*
X53255122Y-30384692D01*
X53250969Y-30400302D01*
X53244296Y-30404846D01*
X53241873Y-30404271D01*
X53232544Y-30390175D01*
X53224318Y-30358176D01*
X53217314Y-30309569D01*
X53211655Y-30245652D01*
X53207462Y-30167720D01*
X53204857Y-30077071D01*
X53203962Y-29975000D01*
X53204016Y-29949172D01*
X53205339Y-29849761D01*
X53208341Y-29762088D01*
X53212902Y-29687448D01*
X53218900Y-29627139D01*
X53226212Y-29582456D01*
X53234718Y-29554695D01*
X53244296Y-29545153D01*
X53250106Y-29548336D01*
X53254622Y-29562026D01*
X53257000Y-29589284D01*
X53257693Y-29633077D01*
X53257685Y-29639466D01*
X53256954Y-29680145D01*
X53254641Y-29705068D01*
X53250188Y-29717573D01*
X53243039Y-29721000D01*
X53242910Y-29721000D01*
X53236740Y-29723994D01*
X53232556Y-29734764D01*
X53230004Y-29756248D01*
X53228731Y-29791386D01*
X53228385Y-29843115D01*
X53228385Y-29844193D01*
X53228744Y-29895602D01*
X53230037Y-29930472D01*
X53232615Y-29951741D01*
X53236831Y-29962348D01*
X53243039Y-29965230D01*
X53249873Y-29963528D01*
X53257693Y-29950577D01*
X53258402Y-29946364D01*
X53269598Y-29938342D01*
X53296770Y-29935923D01*
X53305520Y-29935703D01*
X53327177Y-29932698D01*
X53335847Y-29927293D01*
X53337151Y-29923612D01*
X53350499Y-29915357D01*
X53371212Y-29911124D01*
X53390463Y-29913191D01*
X53397057Y-29916690D01*
X53399489Y-29925385D01*
X53387530Y-29932791D01*
X53364578Y-29935923D01*
X53344556Y-29938926D01*
X53335847Y-29950577D01*
X53336517Y-29952038D01*
X53340627Y-29954100D01*
X53349351Y-29955939D01*
X53363682Y-29957568D01*
X53384616Y-29958999D01*
X53413148Y-29960244D01*
X53450273Y-29961316D01*
X53496986Y-29962227D01*
X53554281Y-29962989D01*
X53623155Y-29963616D01*
X53704602Y-29964118D01*
X53799616Y-29964510D01*
X53909194Y-29964802D01*
X54034330Y-29965008D01*
X54176020Y-29965140D01*
X54335258Y-29965210D01*
X54513039Y-29965230D01*
X55690231Y-29965230D01*
X55690231Y-28797807D01*
X55690225Y-28693160D01*
X55690176Y-28526996D01*
X55690071Y-28378793D01*
X55689896Y-28247552D01*
X55689639Y-28132275D01*
X55689288Y-28031962D01*
X55688829Y-27945614D01*
X55688250Y-27872231D01*
X55687538Y-27810815D01*
X55686682Y-27760367D01*
X55685668Y-27719887D01*
X55684485Y-27688375D01*
X55683118Y-27664834D01*
X55681557Y-27648264D01*
X55679788Y-27637664D01*
X55677799Y-27632038D01*
X55675577Y-27630384D01*
X55667924Y-27627259D01*
X55662492Y-27612256D01*
X55660923Y-27581538D01*
X55661861Y-27556026D01*
X55666362Y-27537921D01*
X55675577Y-27532692D01*
X55682411Y-27530990D01*
X55690231Y-27518038D01*
X55688529Y-27511204D01*
X55675577Y-27503384D01*
X55668743Y-27505086D01*
X55660923Y-27518038D01*
X55656143Y-27527596D01*
G37*
X122550000Y-22538000D02*
X122550000Y-25078000D01*
X122550000Y-25078000D02*
X123719000Y-25078000D01*
X133781000Y-25078000D02*
X134890000Y-25078000D01*
X133858000Y-20400000D02*
X123642000Y-20400000D01*
X134890000Y-25078000D02*
X134890000Y-22641000D01*
X123375000Y-24760000D02*
G75*
G03*
X123375000Y-24760000I-125000J0D01*
G01*
X103250000Y-22538000D02*
X103250000Y-25078000D01*
X103250000Y-25078000D02*
X104419000Y-25078000D01*
X114481000Y-25078000D02*
X115590000Y-25078000D01*
X114558000Y-20400000D02*
X104342000Y-20400000D01*
X115590000Y-25078000D02*
X115590000Y-22641000D01*
X104075000Y-24760000D02*
G75*
G03*
X104075000Y-24760000I-125000J0D01*
G01*
X141850000Y-22538000D02*
X141850000Y-25078000D01*
X141850000Y-25078000D02*
X143019000Y-25078000D01*
X153081000Y-25078000D02*
X154190000Y-25078000D01*
X153158000Y-20400000D02*
X142942000Y-20400000D01*
X154190000Y-25078000D02*
X154190000Y-22641000D01*
X142675000Y-24760000D02*
G75*
G03*
X142675000Y-24760000I-125000J0D01*
G01*
%LPC*%
D13*
X42237000Y-22286000D02*
G75*
G03*
X42237000Y-22286000I-125000J0D01*
G01*
X40713000Y-22286000D02*
G75*
G03*
X40713000Y-22286000I-125000J0D01*
G01*
X42237000Y-24826000D02*
G75*
G03*
X42237000Y-24826000I-125000J0D01*
G01*
X40713000Y-24826000D02*
G75*
G03*
X40713000Y-24826000I-125000J0D01*
G01*
X42237000Y-27366000D02*
G75*
G03*
X42237000Y-27366000I-125000J0D01*
G01*
X40713000Y-27366000D02*
G75*
G03*
X40713000Y-27366000I-125000J0D01*
G01*
X42237000Y-29906000D02*
G75*
G03*
X42237000Y-29906000I-125000J0D01*
G01*
X40713000Y-29906000D02*
G75*
G03*
X40713000Y-29906000I-125000J0D01*
G01*
X42237000Y-32446000D02*
G75*
G03*
X42237000Y-32446000I-125000J0D01*
G01*
X40713000Y-32446000D02*
G75*
G03*
X40713000Y-32446000I-125000J0D01*
G01*
X42237000Y-34986000D02*
G75*
G03*
X42237000Y-34986000I-125000J0D01*
G01*
X40713000Y-34986000D02*
G75*
G03*
X40713000Y-34986000I-125000J0D01*
G01*
X42237000Y-37526000D02*
G75*
G03*
X42237000Y-37526000I-125000J0D01*
G01*
X40713000Y-37526000D02*
G75*
G03*
X40713000Y-37526000I-125000J0D01*
G01*
X42237000Y-40066000D02*
G75*
G03*
X42237000Y-40066000I-125000J0D01*
G01*
X40713000Y-40066000D02*
G75*
G03*
X40713000Y-40066000I-125000J0D01*
G01*
X42237000Y-42606000D02*
G75*
G03*
X42237000Y-42606000I-125000J0D01*
G01*
X40713000Y-42606000D02*
G75*
G03*
X40713000Y-42606000I-125000J0D01*
G01*
X42237000Y-45146000D02*
G75*
G03*
X42237000Y-45146000I-125000J0D01*
G01*
X40713000Y-45146000D02*
G75*
G03*
X40713000Y-45146000I-125000J0D01*
G01*
X42237000Y-47686000D02*
G75*
G03*
X42237000Y-47686000I-125000J0D01*
G01*
X40713000Y-47686000D02*
G75*
G03*
X40713000Y-47686000I-125000J0D01*
G01*
X42237000Y-50226000D02*
G75*
G03*
X42237000Y-50226000I-125000J0D01*
G01*
X40713000Y-50226000D02*
G75*
G03*
X40713000Y-50226000I-125000J0D01*
G01*
D14*
X51000000Y-64750000D03*
D15*
X33610000Y-78460000D03*
X33610000Y-83460000D03*
X33610000Y-80960000D03*
D16*
X41110000Y-75360000D03*
X41110000Y-86560000D03*
D15*
X48110000Y-83460000D03*
X48110000Y-78460000D03*
D17*
X33670000Y-70775000D03*
X40670000Y-70775000D03*
X33670000Y-69025000D03*
X40670000Y-69025000D03*
D18*
X42470000Y-66925000D03*
X38470000Y-66925000D03*
X35470000Y-66925000D03*
X43470000Y-71125000D03*
D19*
X36284000Y-53766000D03*
D20*
X38824000Y-53766000D03*
X41364000Y-53766000D03*
X43904000Y-53766000D03*
X46444000Y-53766000D03*
D21*
X32200000Y-58632000D03*
X32200000Y-61632000D03*
D22*
X38949500Y-60632000D03*
X38949500Y-58632000D03*
D14*
X80500000Y-26000000D03*
D23*
X48970000Y-22286000D03*
X33730000Y-22286000D03*
D24*
X33730000Y-22286000D03*
D23*
X48970000Y-24826000D03*
X33730000Y-24826000D03*
X48970000Y-27366000D03*
X33730000Y-27366000D03*
X48970000Y-29906000D03*
X33730000Y-29906000D03*
X48970000Y-32446000D03*
X33730000Y-32446000D03*
X48970000Y-34986000D03*
X33730000Y-34986000D03*
X48970000Y-37526000D03*
X33730000Y-37526000D03*
X48970000Y-40066000D03*
X33730000Y-40066000D03*
X48970000Y-42606000D03*
X33730000Y-42606000D03*
X48970000Y-45146000D03*
X33730000Y-45146000D03*
X48970000Y-47686000D03*
X33730000Y-47686000D03*
X48970000Y-50226000D03*
X33730000Y-50226000D03*
D14*
X157700000Y-26500000D03*
X52500000Y-92500000D03*
X119100000Y-26000000D03*
D25*
X66350000Y-25386000D03*
X67350000Y-25386000D03*
X68350000Y-25385000D03*
X69350000Y-25385000D03*
X70350000Y-25385000D03*
X71350000Y-25385000D03*
X72350000Y-25385000D03*
X73350000Y-25385000D03*
X74350000Y-25385000D03*
X75350000Y-25385000D03*
D26*
X65050000Y-21510000D03*
X76650000Y-21510000D03*
D27*
X41412500Y-64600000D03*
X39587500Y-64600000D03*
D28*
X43450000Y-66900000D03*
D29*
X44900000Y-66900000D03*
D25*
X85650000Y-25386000D03*
X86650000Y-25386000D03*
X87650000Y-25385000D03*
X88650000Y-25385000D03*
X89650000Y-25385000D03*
X90650000Y-25385000D03*
X91650000Y-25385000D03*
X92650000Y-25385000D03*
X93650000Y-25385000D03*
X94650000Y-25385000D03*
D26*
X84350000Y-21510000D03*
X95950000Y-21510000D03*
D27*
X41412500Y-62600000D03*
X39587500Y-62600000D03*
D21*
X55712500Y-24449500D03*
X55712500Y-21649500D03*
D30*
X58312500Y-23899500D03*
X58312500Y-22199500D03*
X53112500Y-23899500D03*
X53112500Y-22199500D03*
D25*
X46000000Y-91114000D03*
X45000000Y-91114000D03*
X44000000Y-91115000D03*
X43000000Y-91115000D03*
X42000000Y-91115000D03*
X41000000Y-91115000D03*
X40000000Y-91115000D03*
X39000000Y-91115000D03*
X38000000Y-91115000D03*
X37000000Y-91115000D03*
D26*
X47300000Y-94990000D03*
X35700000Y-94990000D03*
D25*
X162850000Y-25386000D03*
X163850000Y-25386000D03*
X164850000Y-25385000D03*
X165850000Y-25385000D03*
X166850000Y-25385000D03*
X167850000Y-25385000D03*
X168850000Y-25385000D03*
X169850000Y-25385000D03*
X170850000Y-25385000D03*
X171850000Y-25385000D03*
D26*
X161550000Y-21510000D03*
X173150000Y-21510000D03*
D25*
X124250000Y-25386000D03*
X125250000Y-25386000D03*
X126250000Y-25385000D03*
X127250000Y-25385000D03*
X128250000Y-25385000D03*
X129250000Y-25385000D03*
X130250000Y-25385000D03*
X131250000Y-25385000D03*
X132250000Y-25385000D03*
X133250000Y-25385000D03*
D26*
X122950000Y-21510000D03*
X134550000Y-21510000D03*
D25*
X104950000Y-25386000D03*
X105950000Y-25386000D03*
X106950000Y-25385000D03*
X107950000Y-25385000D03*
X108950000Y-25385000D03*
X109950000Y-25385000D03*
X110950000Y-25385000D03*
X111950000Y-25385000D03*
X112950000Y-25385000D03*
X113950000Y-25385000D03*
D26*
X103650000Y-21510000D03*
X115250000Y-21510000D03*
D25*
X143550000Y-25386000D03*
X144550000Y-25386000D03*
X145550000Y-25385000D03*
X146550000Y-25385000D03*
X147550000Y-25385000D03*
X148550000Y-25385000D03*
X149550000Y-25385000D03*
X150550000Y-25385000D03*
X151550000Y-25385000D03*
X152550000Y-25385000D03*
D26*
X142250000Y-21510000D03*
X153850000Y-21510000D03*
%LPD*%
M02*
