G04 #@! TF.GenerationSoftware,KiCad,Pcbnew,8.0.1-8.0.1-1~ubuntu22.04.1*
G04 #@! TF.CreationDate,2024-05-02T22:12:49-07:00*
G04 #@! TF.ProjectId,Seismos_5CoreRShift,53656973-6d6f-4735-9f35-436f72655253,rev?*
G04 #@! TF.SameCoordinates,Original*
G04 #@! TF.FileFunction,Soldermask,Top*
G04 #@! TF.FilePolarity,Negative*
%FSLAX46Y46*%
G04 Gerber Fmt 4.6, Leading zero omitted, Abs format (unit mm)*
G04 Created by KiCad (PCBNEW 8.0.1-8.0.1-1~ubuntu22.04.1) date 2024-05-02 22:12:49*
%MOMM*%
%LPD*%
G01*
G04 APERTURE LIST*
G04 Aperture macros list*
%AMRoundRect*
0 Rectangle with rounded corners*
0 $1 Rounding radius*
0 $2 $3 $4 $5 $6 $7 $8 $9 X,Y pos of 4 corners*
0 Add a 4 corners polygon primitive as box body*
4,1,4,$2,$3,$4,$5,$6,$7,$8,$9,$2,$3,0*
0 Add four circle primitives for the rounded corners*
1,1,$1+$1,$2,$3*
1,1,$1+$1,$4,$5*
1,1,$1+$1,$6,$7*
1,1,$1+$1,$8,$9*
0 Add four rect primitives between the rounded corners*
20,1,$1+$1,$2,$3,$4,$5,0*
20,1,$1+$1,$4,$5,$6,$7,0*
20,1,$1+$1,$6,$7,$8,$9,0*
20,1,$1+$1,$8,$9,$2,$3,0*%
%AMFreePoly0*
4,1,6,0.600000,0.200000,0.000000,-0.400000,-0.600000,0.200000,-0.600000,0.400000,0.600000,0.400000,0.600000,0.200000,0.600000,0.200000,$1*%
%AMFreePoly1*
4,1,6,0.600000,-0.250000,-0.600000,-0.250000,-0.600000,1.000000,0.000000,0.400000,0.600000,1.000000,0.600000,-0.250000,0.600000,-0.250000,$1*%
G04 Aperture macros list end*
%ADD10C,0.250000*%
%ADD11C,0.100000*%
%ADD12C,3.200000*%
%ADD13C,2.000000*%
%ADD14R,3.200000X2.000000*%
%ADD15C,1.200000*%
%ADD16O,2.500000X1.700000*%
%ADD17R,1.803400X0.812800*%
%ADD18R,1.700000X1.700000*%
%ADD19O,1.700000X1.700000*%
%ADD20C,0.900000*%
%ADD21R,1.500000X0.700000*%
%ADD22R,0.800000X1.000000*%
%ADD23RoundRect,0.102000X0.600000X-0.300000X0.600000X0.300000X-0.600000X0.300000X-0.600000X-0.300000X0*%
%ADD24C,1.400000*%
%ADD25C,1.600000*%
%ADD26FreePoly0,270.000000*%
%ADD27FreePoly0,90.000000*%
%ADD28R,1.600000X1.600000*%
%ADD29FreePoly1,270.000000*%
%ADD30FreePoly1,90.000000*%
%ADD31R,0.600000X1.700000*%
%ADD32R,1.200000X1.800000*%
%ADD33RoundRect,0.225000X-0.375000X0.225000X-0.375000X-0.225000X0.375000X-0.225000X0.375000X0.225000X0*%
G04 APERTURE END LIST*
D10*
X40713000Y-22286000D02*
G75*
G02*
X40463000Y-22286000I-125000J0D01*
G01*
X40463000Y-22286000D02*
G75*
G02*
X40713000Y-22286000I125000J0D01*
G01*
X40713000Y-24826000D02*
G75*
G02*
X40463000Y-24826000I-125000J0D01*
G01*
X40463000Y-24826000D02*
G75*
G02*
X40713000Y-24826000I125000J0D01*
G01*
X40713000Y-27366000D02*
G75*
G02*
X40463000Y-27366000I-125000J0D01*
G01*
X40463000Y-27366000D02*
G75*
G02*
X40713000Y-27366000I125000J0D01*
G01*
X40713000Y-29906000D02*
G75*
G02*
X40463000Y-29906000I-125000J0D01*
G01*
X40463000Y-29906000D02*
G75*
G02*
X40713000Y-29906000I125000J0D01*
G01*
X40713000Y-32446000D02*
G75*
G02*
X40463000Y-32446000I-125000J0D01*
G01*
X40463000Y-32446000D02*
G75*
G02*
X40713000Y-32446000I125000J0D01*
G01*
X40713000Y-34986000D02*
G75*
G02*
X40463000Y-34986000I-125000J0D01*
G01*
X40463000Y-34986000D02*
G75*
G02*
X40713000Y-34986000I125000J0D01*
G01*
X40713000Y-37526000D02*
G75*
G02*
X40463000Y-37526000I-125000J0D01*
G01*
X40463000Y-37526000D02*
G75*
G02*
X40713000Y-37526000I125000J0D01*
G01*
X40713000Y-40066000D02*
G75*
G02*
X40463000Y-40066000I-125000J0D01*
G01*
X40463000Y-40066000D02*
G75*
G02*
X40713000Y-40066000I125000J0D01*
G01*
X40713000Y-42606000D02*
G75*
G02*
X40463000Y-42606000I-125000J0D01*
G01*
X40463000Y-42606000D02*
G75*
G02*
X40713000Y-42606000I125000J0D01*
G01*
X40713000Y-45146000D02*
G75*
G02*
X40463000Y-45146000I-125000J0D01*
G01*
X40463000Y-45146000D02*
G75*
G02*
X40713000Y-45146000I125000J0D01*
G01*
X40713000Y-47686000D02*
G75*
G02*
X40463000Y-47686000I-125000J0D01*
G01*
X40463000Y-47686000D02*
G75*
G02*
X40713000Y-47686000I125000J0D01*
G01*
X40713000Y-50226000D02*
G75*
G02*
X40463000Y-50226000I-125000J0D01*
G01*
X40463000Y-50226000D02*
G75*
G02*
X40713000Y-50226000I125000J0D01*
G01*
X42237000Y-22286000D02*
G75*
G02*
X41987000Y-22286000I-125000J0D01*
G01*
X41987000Y-22286000D02*
G75*
G02*
X42237000Y-22286000I125000J0D01*
G01*
X42237000Y-24826000D02*
G75*
G02*
X41987000Y-24826000I-125000J0D01*
G01*
X41987000Y-24826000D02*
G75*
G02*
X42237000Y-24826000I125000J0D01*
G01*
X42237000Y-27366000D02*
G75*
G02*
X41987000Y-27366000I-125000J0D01*
G01*
X41987000Y-27366000D02*
G75*
G02*
X42237000Y-27366000I125000J0D01*
G01*
X42237000Y-29906000D02*
G75*
G02*
X41987000Y-29906000I-125000J0D01*
G01*
X41987000Y-29906000D02*
G75*
G02*
X42237000Y-29906000I125000J0D01*
G01*
X42237000Y-32446000D02*
G75*
G02*
X41987000Y-32446000I-125000J0D01*
G01*
X41987000Y-32446000D02*
G75*
G02*
X42237000Y-32446000I125000J0D01*
G01*
X42237000Y-34986000D02*
G75*
G02*
X41987000Y-34986000I-125000J0D01*
G01*
X41987000Y-34986000D02*
G75*
G02*
X42237000Y-34986000I125000J0D01*
G01*
X42237000Y-37526000D02*
G75*
G02*
X41987000Y-37526000I-125000J0D01*
G01*
X41987000Y-37526000D02*
G75*
G02*
X42237000Y-37526000I125000J0D01*
G01*
X42237000Y-40066000D02*
G75*
G02*
X41987000Y-40066000I-125000J0D01*
G01*
X41987000Y-40066000D02*
G75*
G02*
X42237000Y-40066000I125000J0D01*
G01*
X42237000Y-42606000D02*
G75*
G02*
X41987000Y-42606000I-125000J0D01*
G01*
X41987000Y-42606000D02*
G75*
G02*
X42237000Y-42606000I125000J0D01*
G01*
X42237000Y-45146000D02*
G75*
G02*
X41987000Y-45146000I-125000J0D01*
G01*
X41987000Y-45146000D02*
G75*
G02*
X42237000Y-45146000I125000J0D01*
G01*
X42237000Y-47686000D02*
G75*
G02*
X41987000Y-47686000I-125000J0D01*
G01*
X41987000Y-47686000D02*
G75*
G02*
X42237000Y-47686000I125000J0D01*
G01*
X42237000Y-50226000D02*
G75*
G02*
X41987000Y-50226000I-125000J0D01*
G01*
X41987000Y-50226000D02*
G75*
G02*
X42237000Y-50226000I125000J0D01*
G01*
D11*
X36270000Y-22794000D02*
X35254000Y-22794000D01*
X35254000Y-21778000D01*
X36270000Y-21778000D01*
X36270000Y-22794000D01*
G36*
X36270000Y-22794000D02*
G01*
X35254000Y-22794000D01*
X35254000Y-21778000D01*
X36270000Y-21778000D01*
X36270000Y-22794000D01*
G37*
X36270000Y-25334000D02*
X35254000Y-25334000D01*
X35254000Y-24318000D01*
X36270000Y-24318000D01*
X36270000Y-25334000D01*
G36*
X36270000Y-25334000D02*
G01*
X35254000Y-25334000D01*
X35254000Y-24318000D01*
X36270000Y-24318000D01*
X36270000Y-25334000D01*
G37*
X36270000Y-27874000D02*
X35254000Y-27874000D01*
X35254000Y-26858000D01*
X36270000Y-26858000D01*
X36270000Y-27874000D01*
G36*
X36270000Y-27874000D02*
G01*
X35254000Y-27874000D01*
X35254000Y-26858000D01*
X36270000Y-26858000D01*
X36270000Y-27874000D01*
G37*
X36270000Y-30414000D02*
X35254000Y-30414000D01*
X35254000Y-29398000D01*
X36270000Y-29398000D01*
X36270000Y-30414000D01*
G36*
X36270000Y-30414000D02*
G01*
X35254000Y-30414000D01*
X35254000Y-29398000D01*
X36270000Y-29398000D01*
X36270000Y-30414000D01*
G37*
X36270000Y-32954000D02*
X35254000Y-32954000D01*
X35254000Y-31938000D01*
X36270000Y-31938000D01*
X36270000Y-32954000D01*
G36*
X36270000Y-32954000D02*
G01*
X35254000Y-32954000D01*
X35254000Y-31938000D01*
X36270000Y-31938000D01*
X36270000Y-32954000D01*
G37*
X36270000Y-35494000D02*
X35254000Y-35494000D01*
X35254000Y-34478000D01*
X36270000Y-34478000D01*
X36270000Y-35494000D01*
G36*
X36270000Y-35494000D02*
G01*
X35254000Y-35494000D01*
X35254000Y-34478000D01*
X36270000Y-34478000D01*
X36270000Y-35494000D01*
G37*
X36270000Y-38034000D02*
X35254000Y-38034000D01*
X35254000Y-37018000D01*
X36270000Y-37018000D01*
X36270000Y-38034000D01*
G36*
X36270000Y-38034000D02*
G01*
X35254000Y-38034000D01*
X35254000Y-37018000D01*
X36270000Y-37018000D01*
X36270000Y-38034000D01*
G37*
X36270000Y-40574000D02*
X35254000Y-40574000D01*
X35254000Y-39558000D01*
X36270000Y-39558000D01*
X36270000Y-40574000D01*
G36*
X36270000Y-40574000D02*
G01*
X35254000Y-40574000D01*
X35254000Y-39558000D01*
X36270000Y-39558000D01*
X36270000Y-40574000D01*
G37*
X36270000Y-43114000D02*
X35254000Y-43114000D01*
X35254000Y-42098000D01*
X36270000Y-42098000D01*
X36270000Y-43114000D01*
G36*
X36270000Y-43114000D02*
G01*
X35254000Y-43114000D01*
X35254000Y-42098000D01*
X36270000Y-42098000D01*
X36270000Y-43114000D01*
G37*
X36270000Y-45654000D02*
X35254000Y-45654000D01*
X35254000Y-44638000D01*
X36270000Y-44638000D01*
X36270000Y-45654000D01*
G36*
X36270000Y-45654000D02*
G01*
X35254000Y-45654000D01*
X35254000Y-44638000D01*
X36270000Y-44638000D01*
X36270000Y-45654000D01*
G37*
X36270000Y-48194000D02*
X35254000Y-48194000D01*
X35254000Y-47178000D01*
X36270000Y-47178000D01*
X36270000Y-48194000D01*
G36*
X36270000Y-48194000D02*
G01*
X35254000Y-48194000D01*
X35254000Y-47178000D01*
X36270000Y-47178000D01*
X36270000Y-48194000D01*
G37*
X36270000Y-50734000D02*
X35254000Y-50734000D01*
X35254000Y-49718000D01*
X36270000Y-49718000D01*
X36270000Y-50734000D01*
G36*
X36270000Y-50734000D02*
G01*
X35254000Y-50734000D01*
X35254000Y-49718000D01*
X36270000Y-49718000D01*
X36270000Y-50734000D01*
G37*
X47446000Y-22794000D02*
X46430000Y-22794000D01*
X46430000Y-21778000D01*
X47446000Y-21778000D01*
X47446000Y-22794000D01*
G36*
X47446000Y-22794000D02*
G01*
X46430000Y-22794000D01*
X46430000Y-21778000D01*
X47446000Y-21778000D01*
X47446000Y-22794000D01*
G37*
X47446000Y-25334000D02*
X46430000Y-25334000D01*
X46430000Y-24318000D01*
X47446000Y-24318000D01*
X47446000Y-25334000D01*
G36*
X47446000Y-25334000D02*
G01*
X46430000Y-25334000D01*
X46430000Y-24318000D01*
X47446000Y-24318000D01*
X47446000Y-25334000D01*
G37*
X47446000Y-27874000D02*
X46430000Y-27874000D01*
X46430000Y-26858000D01*
X47446000Y-26858000D01*
X47446000Y-27874000D01*
G36*
X47446000Y-27874000D02*
G01*
X46430000Y-27874000D01*
X46430000Y-26858000D01*
X47446000Y-26858000D01*
X47446000Y-27874000D01*
G37*
X47446000Y-30414000D02*
X46430000Y-30414000D01*
X46430000Y-29398000D01*
X47446000Y-29398000D01*
X47446000Y-30414000D01*
G36*
X47446000Y-30414000D02*
G01*
X46430000Y-30414000D01*
X46430000Y-29398000D01*
X47446000Y-29398000D01*
X47446000Y-30414000D01*
G37*
X47446000Y-32954000D02*
X46430000Y-32954000D01*
X46430000Y-31938000D01*
X47446000Y-31938000D01*
X47446000Y-32954000D01*
G36*
X47446000Y-32954000D02*
G01*
X46430000Y-32954000D01*
X46430000Y-31938000D01*
X47446000Y-31938000D01*
X47446000Y-32954000D01*
G37*
X47446000Y-35494000D02*
X46430000Y-35494000D01*
X46430000Y-34478000D01*
X47446000Y-34478000D01*
X47446000Y-35494000D01*
G36*
X47446000Y-35494000D02*
G01*
X46430000Y-35494000D01*
X46430000Y-34478000D01*
X47446000Y-34478000D01*
X47446000Y-35494000D01*
G37*
X47446000Y-38034000D02*
X46430000Y-38034000D01*
X46430000Y-37018000D01*
X47446000Y-37018000D01*
X47446000Y-38034000D01*
G36*
X47446000Y-38034000D02*
G01*
X46430000Y-38034000D01*
X46430000Y-37018000D01*
X47446000Y-37018000D01*
X47446000Y-38034000D01*
G37*
X47446000Y-40574000D02*
X46430000Y-40574000D01*
X46430000Y-39558000D01*
X47446000Y-39558000D01*
X47446000Y-40574000D01*
G36*
X47446000Y-40574000D02*
G01*
X46430000Y-40574000D01*
X46430000Y-39558000D01*
X47446000Y-39558000D01*
X47446000Y-40574000D01*
G37*
X47446000Y-43114000D02*
X46430000Y-43114000D01*
X46430000Y-42098000D01*
X47446000Y-42098000D01*
X47446000Y-43114000D01*
G36*
X47446000Y-43114000D02*
G01*
X46430000Y-43114000D01*
X46430000Y-42098000D01*
X47446000Y-42098000D01*
X47446000Y-43114000D01*
G37*
X47446000Y-45654000D02*
X46430000Y-45654000D01*
X46430000Y-44638000D01*
X47446000Y-44638000D01*
X47446000Y-45654000D01*
G36*
X47446000Y-45654000D02*
G01*
X46430000Y-45654000D01*
X46430000Y-44638000D01*
X47446000Y-44638000D01*
X47446000Y-45654000D01*
G37*
X47446000Y-48194000D02*
X46430000Y-48194000D01*
X46430000Y-47178000D01*
X47446000Y-47178000D01*
X47446000Y-48194000D01*
G36*
X47446000Y-48194000D02*
G01*
X46430000Y-48194000D01*
X46430000Y-47178000D01*
X47446000Y-47178000D01*
X47446000Y-48194000D01*
G37*
X47446000Y-50734000D02*
X46430000Y-50734000D01*
X46430000Y-49718000D01*
X47446000Y-49718000D01*
X47446000Y-50734000D01*
G36*
X47446000Y-50734000D02*
G01*
X46430000Y-50734000D01*
X46430000Y-49718000D01*
X47446000Y-49718000D01*
X47446000Y-50734000D01*
G37*
D12*
X51000000Y-64750000D03*
D13*
X33610000Y-78460000D03*
X33610000Y-83460000D03*
X33610000Y-80960000D03*
D14*
X41110000Y-75360000D03*
X41110000Y-86560000D03*
D13*
X48110000Y-83460000D03*
X48110000Y-78460000D03*
D15*
X33670000Y-70775000D03*
X40670000Y-70775000D03*
X33670000Y-69025000D03*
X40670000Y-69025000D03*
D16*
X42470000Y-66925000D03*
X38470000Y-66925000D03*
X35470000Y-66925000D03*
X43470000Y-71125000D03*
D17*
X68348100Y-33249300D03*
X68348100Y-31750700D03*
X73351900Y-31750700D03*
X73351900Y-33249300D03*
X164848100Y-33249300D03*
X164848100Y-31750700D03*
X169851900Y-31750700D03*
X169851900Y-33249300D03*
X126248100Y-33249300D03*
X126248100Y-31750700D03*
X131251900Y-31750700D03*
X131251900Y-33249300D03*
X106948100Y-33249300D03*
X106948100Y-31750700D03*
X111951900Y-31750700D03*
X111951900Y-33249300D03*
D18*
X36284000Y-53766000D03*
D19*
X38824000Y-53766000D03*
X41364000Y-53766000D03*
X43904000Y-53766000D03*
X46444000Y-53766000D03*
D20*
X32200000Y-58632000D03*
X32200000Y-61632000D03*
D21*
X33950000Y-60882000D03*
D22*
X33165000Y-56482000D03*
X31235000Y-56482000D03*
X33165000Y-63782000D03*
X31235000Y-63782000D03*
D21*
X33950000Y-62382000D03*
X33950000Y-57882000D03*
D23*
X58500000Y-36045000D03*
X58500000Y-34775000D03*
X58500000Y-33505000D03*
X58500000Y-32235000D03*
X58500000Y-30965000D03*
X58500000Y-29695000D03*
X58500000Y-28425000D03*
X58500000Y-27155000D03*
X52900000Y-27155000D03*
X52900000Y-28425000D03*
X52900000Y-29695000D03*
X52900000Y-30965000D03*
X52900000Y-32235000D03*
X52900000Y-33505000D03*
X52900000Y-34775000D03*
X52900000Y-36045000D03*
D24*
X38949500Y-60632000D03*
X38949500Y-58632000D03*
D12*
X80500000Y-26000000D03*
D25*
X48970000Y-22286000D03*
D26*
X47192000Y-22286000D03*
D27*
X35508000Y-22286000D03*
D25*
X33730000Y-22286000D03*
D28*
X33730000Y-22286000D03*
D25*
X48970000Y-24826000D03*
D26*
X47192000Y-24826000D03*
D27*
X35508000Y-24826000D03*
D25*
X33730000Y-24826000D03*
X48970000Y-27366000D03*
D26*
X47192000Y-27366000D03*
D27*
X35508000Y-27366000D03*
D25*
X33730000Y-27366000D03*
X48970000Y-29906000D03*
D26*
X47192000Y-29906000D03*
D27*
X35508000Y-29906000D03*
D25*
X33730000Y-29906000D03*
X48970000Y-32446000D03*
D26*
X47192000Y-32446000D03*
D27*
X35508000Y-32446000D03*
D25*
X33730000Y-32446000D03*
X48970000Y-34986000D03*
D26*
X47192000Y-34986000D03*
D27*
X35508000Y-34986000D03*
D25*
X33730000Y-34986000D03*
X48970000Y-37526000D03*
D26*
X47192000Y-37526000D03*
D27*
X35508000Y-37526000D03*
D25*
X33730000Y-37526000D03*
X48970000Y-40066000D03*
D26*
X47192000Y-40066000D03*
D27*
X35508000Y-40066000D03*
D25*
X33730000Y-40066000D03*
X48970000Y-42606000D03*
D26*
X47192000Y-42606000D03*
D27*
X35508000Y-42606000D03*
D25*
X33730000Y-42606000D03*
X48970000Y-45146000D03*
D26*
X47192000Y-45146000D03*
D27*
X35508000Y-45146000D03*
D25*
X33730000Y-45146000D03*
X48970000Y-47686000D03*
D26*
X47192000Y-47686000D03*
D27*
X35508000Y-47686000D03*
D25*
X33730000Y-47686000D03*
X48970000Y-50226000D03*
D26*
X47192000Y-50226000D03*
D27*
X35508000Y-50226000D03*
D25*
X33730000Y-50226000D03*
D29*
X46176000Y-22286000D03*
X46176000Y-24826000D03*
X46176000Y-27366000D03*
X46176000Y-29906000D03*
X46176000Y-32446000D03*
X46176000Y-34986000D03*
X46176000Y-37526000D03*
X46176000Y-40066000D03*
X46176000Y-42606000D03*
X46176000Y-45146000D03*
X46176000Y-47686000D03*
X46176000Y-50226000D03*
D30*
X36524000Y-50226000D03*
X36524000Y-47686000D03*
X36524000Y-45146000D03*
X36524000Y-42606000D03*
X36524000Y-40066000D03*
X36524000Y-37526000D03*
X36524000Y-34986000D03*
X36524000Y-32446000D03*
X36524000Y-29906000D03*
X36524000Y-27366000D03*
X36524000Y-24826000D03*
X36524000Y-22286000D03*
D31*
X37000000Y-91114000D03*
X38000000Y-91114000D03*
X39000000Y-91115000D03*
X40000000Y-91115000D03*
X41000000Y-91115000D03*
X42000000Y-91115000D03*
X43000000Y-91115000D03*
X44000000Y-91115000D03*
X45000000Y-91115000D03*
X46000000Y-91115000D03*
D32*
X35700000Y-94990000D03*
X47300000Y-94990000D03*
D17*
X145548100Y-33249300D03*
X145548100Y-31750700D03*
X150551900Y-31750700D03*
X150551900Y-33249300D03*
D12*
X157700000Y-26500000D03*
X52500000Y-92500000D03*
X119100000Y-26000000D03*
D33*
X51500000Y-80050000D03*
X51500000Y-83350000D03*
D17*
X87648100Y-33249300D03*
X87648100Y-31750700D03*
X92651900Y-31750700D03*
X92651900Y-33249300D03*
D20*
X55712500Y-24449500D03*
X55712500Y-21649500D03*
M02*
