G04 #@! TF.GenerationSoftware,KiCad,Pcbnew,7.0.8*
G04 #@! TF.CreationDate,2023-10-19T20:53:45-07:00*
G04 #@! TF.ProjectId,Seismos_4-Thumb,53656973-6d6f-4735-9f34-2d5468756d62,rev?*
G04 #@! TF.SameCoordinates,Original*
G04 #@! TF.FileFunction,Copper,L2,Bot*
G04 #@! TF.FilePolarity,Positive*
%FSLAX46Y46*%
G04 Gerber Fmt 4.6, Leading zero omitted, Abs format (unit mm)*
G04 Created by KiCad (PCBNEW 7.0.8) date 2023-10-19 20:53:45*
%MOMM*%
%LPD*%
G01*
G04 APERTURE LIST*
G04 Aperture macros list*
%AMRoundRect*
0 Rectangle with rounded corners*
0 $1 Rounding radius*
0 $2 $3 $4 $5 $6 $7 $8 $9 X,Y pos of 4 corners*
0 Add a 4 corners polygon primitive as box body*
4,1,4,$2,$3,$4,$5,$6,$7,$8,$9,$2,$3,0*
0 Add four circle primitives for the rounded corners*
1,1,$1+$1,$2,$3*
1,1,$1+$1,$4,$5*
1,1,$1+$1,$6,$7*
1,1,$1+$1,$8,$9*
0 Add four rect primitives between the rounded corners*
20,1,$1+$1,$2,$3,$4,$5,0*
20,1,$1+$1,$4,$5,$6,$7,0*
20,1,$1+$1,$6,$7,$8,$9,0*
20,1,$1+$1,$8,$9,$2,$3,0*%
G04 Aperture macros list end*
G04 #@! TA.AperFunction,SMDPad,CuDef*
%ADD10R,1.750000X0.812800*%
G04 #@! TD*
G04 #@! TA.AperFunction,SMDPad,CuDef*
%ADD11R,2.300000X2.600000*%
G04 #@! TD*
G04 #@! TA.AperFunction,SMDPad,CuDef*
%ADD12R,3.500000X3.500000*%
G04 #@! TD*
G04 #@! TA.AperFunction,SMDPad,CuDef*
%ADD13R,2.400000X2.600000*%
G04 #@! TD*
G04 #@! TA.AperFunction,SMDPad,CuDef*
%ADD14RoundRect,0.225000X-0.375000X0.225000X-0.375000X-0.225000X0.375000X-0.225000X0.375000X0.225000X0*%
G04 #@! TD*
G04 #@! TA.AperFunction,ViaPad*
%ADD15C,0.800000*%
G04 #@! TD*
G04 #@! TA.AperFunction,ViaPad*
%ADD16C,0.400000*%
G04 #@! TD*
G04 #@! TA.AperFunction,Conductor*
%ADD17C,0.254000*%
G04 #@! TD*
G04 #@! TA.AperFunction,Conductor*
%ADD18C,0.381000*%
G04 #@! TD*
G04 APERTURE END LIST*
D10*
X49378000Y-54754900D03*
D11*
X38660000Y-63800000D03*
X50560000Y-65900000D03*
D10*
X44348100Y-54754900D03*
X49378000Y-56253500D03*
X44348100Y-56253500D03*
D12*
X40910000Y-65515000D03*
D13*
X53860000Y-62540000D03*
D10*
X49378000Y-35754900D03*
D11*
X38660000Y-44800000D03*
X50560000Y-46900000D03*
D10*
X44348100Y-35754900D03*
X49378000Y-37253500D03*
X44348100Y-37253500D03*
D12*
X40910000Y-46515000D03*
D13*
X53860000Y-43540000D03*
D10*
X68378000Y-54754900D03*
D11*
X57660000Y-63800000D03*
X69560000Y-65900000D03*
D10*
X63348100Y-54754900D03*
X68378000Y-56253500D03*
X63348100Y-56253500D03*
D12*
X59910000Y-65515000D03*
D13*
X72860000Y-62540000D03*
D10*
X68378000Y-35754900D03*
D11*
X57660000Y-44800000D03*
X69560000Y-46900000D03*
D10*
X63348100Y-35754900D03*
X68378000Y-37253500D03*
X63348100Y-37253500D03*
D12*
X59910000Y-46515000D03*
D13*
X72860000Y-43540000D03*
D14*
X39500000Y-54350000D03*
X39500000Y-57650000D03*
X58500000Y-35350000D03*
X58500000Y-38650000D03*
X39500000Y-35350000D03*
X39500000Y-38650000D03*
X58500000Y-54350000D03*
X58500000Y-57650000D03*
D15*
X41800000Y-53100000D03*
X44000000Y-39200000D03*
X50700000Y-50500000D03*
X56500000Y-26400000D03*
D16*
X53500000Y-31500000D03*
X39500000Y-52500000D03*
X52800000Y-33103714D03*
X56500000Y-31500000D03*
D15*
X56486286Y-32513714D03*
D16*
X53900000Y-33710000D03*
X54600000Y-47500000D03*
X69600000Y-50000000D03*
D15*
X51200000Y-53000000D03*
X59500000Y-32200000D03*
X65900000Y-53100000D03*
X50796614Y-34336286D03*
X66000000Y-32800000D03*
D17*
X38660000Y-39490000D02*
X39500000Y-38650000D01*
X38660000Y-44800000D02*
X38660000Y-39490000D01*
X38660000Y-58490000D02*
X39500000Y-57650000D01*
X38660000Y-63800000D02*
X38660000Y-58490000D01*
X57660000Y-63800000D02*
X57660000Y-58490000D01*
X57660000Y-58490000D02*
X58500000Y-57650000D01*
X57660000Y-39490000D02*
X58500000Y-38650000D01*
X57660000Y-44800000D02*
X57660000Y-39490000D01*
X48877000Y-49623000D02*
X44348100Y-54151900D01*
X49378000Y-37253500D02*
X49378000Y-42317521D01*
X44348100Y-54151900D02*
X44348100Y-54754900D01*
X49378000Y-42317521D02*
X48877000Y-42818521D01*
X48877000Y-42818521D02*
X48877000Y-49623000D01*
D18*
X41800000Y-54580400D02*
X43473100Y-56253500D01*
X43473100Y-56253500D02*
X44348100Y-56253500D01*
X41800000Y-53100000D02*
X41800000Y-54580400D01*
X44348100Y-37253500D02*
X44348100Y-38851900D01*
X44348100Y-38851900D02*
X44000000Y-39200000D01*
D17*
X50824500Y-57700000D02*
X54100000Y-57700000D01*
X56400000Y-55400000D02*
X59200000Y-55400000D01*
X59845100Y-54754900D02*
X63348100Y-54754900D01*
X49378000Y-56253500D02*
X50824500Y-57700000D01*
X59200000Y-55400000D02*
X59845100Y-54754900D01*
X54100000Y-57700000D02*
X56400000Y-55400000D01*
X59432550Y-50000000D02*
X55954000Y-46521450D01*
X69700000Y-55806500D02*
X69700000Y-53300000D01*
X66400000Y-50000000D02*
X59432550Y-50000000D01*
X69253000Y-56253500D02*
X69700000Y-55806500D01*
X55954000Y-39746000D02*
X59945100Y-35754900D01*
X69700000Y-53300000D02*
X66400000Y-50000000D01*
X55954000Y-46521450D02*
X55954000Y-39746000D01*
X68378000Y-56253500D02*
X69253000Y-56253500D01*
X59945100Y-35754900D02*
X63348100Y-35754900D01*
X53500000Y-31500000D02*
X43350000Y-31500000D01*
X43350000Y-31500000D02*
X39500000Y-35350000D01*
X39500000Y-54350000D02*
X39500000Y-52500000D01*
X55500000Y-51350000D02*
X55500000Y-34100000D01*
X55500000Y-34100000D02*
X54503714Y-33103714D01*
X58500000Y-54350000D02*
X55500000Y-51350000D01*
X54503714Y-33103714D02*
X52800000Y-33103714D01*
X58500000Y-33500000D02*
X58500000Y-35350000D01*
X56500000Y-31500000D02*
X58500000Y-33500000D01*
D18*
X44348100Y-35348500D02*
X44348100Y-35754900D01*
X47182886Y-32513714D02*
X44348100Y-35348500D01*
X56486286Y-32513714D02*
X47182886Y-32513714D01*
D17*
X69600000Y-50000000D02*
X69560000Y-49960000D01*
X53860000Y-43540000D02*
X53860000Y-43600000D01*
X57400000Y-68400000D02*
X53860000Y-64860000D01*
X67000000Y-68400000D02*
X57400000Y-68400000D01*
X69560000Y-65900000D02*
X69560000Y-65840000D01*
X72860000Y-43540000D02*
X72860000Y-43600000D01*
X50560000Y-65900000D02*
X50560000Y-65840000D01*
X53900000Y-33710000D02*
X53900000Y-43500000D01*
X53860000Y-43540000D02*
X53860000Y-46760000D01*
X69560000Y-46900000D02*
X72860000Y-50200000D01*
X53860000Y-46760000D02*
X54600000Y-47500000D01*
X72860000Y-50200000D02*
X72860000Y-62540000D01*
X72860000Y-62540000D02*
X67000000Y-68400000D01*
X53900000Y-43500000D02*
X53860000Y-43540000D01*
X69560000Y-65840000D02*
X72860000Y-62540000D01*
X69560000Y-49960000D02*
X69560000Y-46900000D01*
X72860000Y-43600000D02*
X69560000Y-46900000D01*
X53860000Y-43600000D02*
X50560000Y-46900000D01*
X53860000Y-64860000D02*
X53860000Y-62540000D01*
X50560000Y-65840000D02*
X53860000Y-62540000D01*
D18*
X67129500Y-53100000D02*
X65900000Y-53100000D01*
X68378000Y-54348500D02*
X67129500Y-53100000D01*
X59500000Y-32200000D02*
X61600000Y-34300000D01*
X68378000Y-35348500D02*
X68378000Y-35754900D01*
X49445100Y-54754900D02*
X51200000Y-53000000D01*
X68378000Y-54754900D02*
X68378000Y-54348500D01*
X49378000Y-54754900D02*
X49445100Y-54754900D01*
X67329500Y-34300000D02*
X68378000Y-35348500D01*
X50796614Y-34336286D02*
X49378000Y-35754900D01*
X61600000Y-34300000D02*
X67329500Y-34300000D01*
X68378000Y-37253500D02*
X69253000Y-37253500D01*
X69709500Y-35252750D02*
X67256750Y-32800000D01*
X69253000Y-37253500D02*
X69709500Y-36797000D01*
X67256750Y-32800000D02*
X66000000Y-32800000D01*
X69709500Y-36797000D02*
X69709500Y-35252750D01*
G04 #@! TA.AperFunction,Conductor*
G36*
X63142539Y-25020185D02*
G01*
X63188294Y-25072989D01*
X63199500Y-25124500D01*
X63199500Y-30975467D01*
X63199416Y-30975889D01*
X63199459Y-31000001D01*
X63199500Y-31000099D01*
X63199616Y-31000382D01*
X63199618Y-31000384D01*
X63199808Y-31000462D01*
X63200000Y-31000541D01*
X63200002Y-31000539D01*
X63224616Y-31000524D01*
X63224616Y-31000528D01*
X63224760Y-31000500D01*
X65999901Y-31000500D01*
X75375500Y-31000500D01*
X75442539Y-31020185D01*
X75488294Y-31072989D01*
X75499500Y-31124500D01*
X75499500Y-71937121D01*
X75499342Y-71941547D01*
X75494687Y-72006603D01*
X75482856Y-72156385D01*
X75481631Y-72164692D01*
X75461691Y-72256354D01*
X75432960Y-72376020D01*
X75430762Y-72383219D01*
X75395594Y-72477504D01*
X75350781Y-72585691D01*
X75347915Y-72591682D01*
X75299029Y-72681211D01*
X75297476Y-72683892D01*
X75238121Y-72780752D01*
X75234889Y-72785515D01*
X75173121Y-72868029D01*
X75170633Y-72871140D01*
X75097464Y-72956814D01*
X75094158Y-72960390D01*
X75021035Y-73033516D01*
X75017459Y-73036822D01*
X74931794Y-73109990D01*
X74928683Y-73112479D01*
X74846152Y-73174265D01*
X74841389Y-73177498D01*
X74744564Y-73236836D01*
X74741882Y-73238389D01*
X74652335Y-73287290D01*
X74646344Y-73290156D01*
X74538171Y-73334969D01*
X74443871Y-73370146D01*
X74436672Y-73372344D01*
X74357168Y-73391436D01*
X74316997Y-73401082D01*
X74225384Y-73421015D01*
X74217061Y-73422243D01*
X74061300Y-73434511D01*
X74029511Y-73436787D01*
X74003033Y-73438682D01*
X73998624Y-73438840D01*
X39002217Y-73438840D01*
X38997791Y-73438682D01*
X38927771Y-73433673D01*
X38783790Y-73422379D01*
X38775449Y-73421150D01*
X38677521Y-73399847D01*
X38564251Y-73372652D01*
X38557058Y-73370456D01*
X38499058Y-73348823D01*
X38458702Y-73333770D01*
X38354636Y-73290663D01*
X38348645Y-73287796D01*
X38258165Y-73238389D01*
X38256031Y-73237223D01*
X38253359Y-73235677D01*
X38159647Y-73178247D01*
X38154885Y-73175016D01*
X38069847Y-73111355D01*
X38066735Y-73108866D01*
X37983620Y-73037875D01*
X37980045Y-73034570D01*
X37927288Y-72981813D01*
X37904770Y-72959295D01*
X37901491Y-72955746D01*
X37830479Y-72872599D01*
X37828024Y-72869530D01*
X37764339Y-72784452D01*
X37761114Y-72779697D01*
X37703669Y-72685949D01*
X37702163Y-72683349D01*
X37651572Y-72590691D01*
X37648710Y-72584711D01*
X37605610Y-72480648D01*
X37599791Y-72465046D01*
X37568923Y-72382277D01*
X37566729Y-72375089D01*
X37539534Y-72261796D01*
X37518231Y-72163853D01*
X37517008Y-72155552D01*
X37506142Y-72017438D01*
X37500658Y-71940707D01*
X37500500Y-71936285D01*
X37500500Y-70567763D01*
X38645787Y-70567763D01*
X38675413Y-70837013D01*
X38675415Y-70837024D01*
X38743926Y-71099082D01*
X38743928Y-71099088D01*
X38849870Y-71348390D01*
X38921998Y-71466575D01*
X38990979Y-71579605D01*
X38990986Y-71579615D01*
X39164253Y-71787819D01*
X39164259Y-71787824D01*
X39365998Y-71968582D01*
X39591910Y-72118044D01*
X39837176Y-72233020D01*
X39837183Y-72233022D01*
X39837185Y-72233023D01*
X40096557Y-72311057D01*
X40096564Y-72311058D01*
X40096569Y-72311060D01*
X40364561Y-72350500D01*
X40364566Y-72350500D01*
X40567636Y-72350500D01*
X40619133Y-72346730D01*
X40770156Y-72335677D01*
X40882758Y-72310593D01*
X41034546Y-72276782D01*
X41034548Y-72276781D01*
X41034553Y-72276780D01*
X41287558Y-72180014D01*
X41523777Y-72047441D01*
X41738177Y-71881888D01*
X41926186Y-71686881D01*
X42083799Y-71466579D01*
X42157787Y-71322669D01*
X42207649Y-71225690D01*
X42207651Y-71225684D01*
X42207656Y-71225675D01*
X42295118Y-70969305D01*
X42344319Y-70702933D01*
X42349259Y-70567763D01*
X70645787Y-70567763D01*
X70675413Y-70837013D01*
X70675415Y-70837024D01*
X70743926Y-71099082D01*
X70743928Y-71099088D01*
X70849870Y-71348390D01*
X70921998Y-71466575D01*
X70990979Y-71579605D01*
X70990986Y-71579615D01*
X71164253Y-71787819D01*
X71164259Y-71787824D01*
X71365998Y-71968582D01*
X71591910Y-72118044D01*
X71837176Y-72233020D01*
X71837183Y-72233022D01*
X71837185Y-72233023D01*
X72096557Y-72311057D01*
X72096564Y-72311058D01*
X72096569Y-72311060D01*
X72364561Y-72350500D01*
X72364566Y-72350500D01*
X72567636Y-72350500D01*
X72619133Y-72346730D01*
X72770156Y-72335677D01*
X72882758Y-72310593D01*
X73034546Y-72276782D01*
X73034548Y-72276781D01*
X73034553Y-72276780D01*
X73287558Y-72180014D01*
X73523777Y-72047441D01*
X73738177Y-71881888D01*
X73926186Y-71686881D01*
X74083799Y-71466579D01*
X74157787Y-71322669D01*
X74207649Y-71225690D01*
X74207651Y-71225684D01*
X74207656Y-71225675D01*
X74295118Y-70969305D01*
X74344319Y-70702933D01*
X74354212Y-70432235D01*
X74324586Y-70162982D01*
X74256072Y-69900912D01*
X74150130Y-69651610D01*
X74009018Y-69420390D01*
X73919747Y-69313119D01*
X73835746Y-69212180D01*
X73835740Y-69212175D01*
X73634002Y-69031418D01*
X73408092Y-68881957D01*
X73376062Y-68866942D01*
X73162824Y-68766980D01*
X73162819Y-68766978D01*
X73162814Y-68766976D01*
X72903442Y-68688942D01*
X72903428Y-68688939D01*
X72787791Y-68671921D01*
X72635439Y-68649500D01*
X72432369Y-68649500D01*
X72432364Y-68649500D01*
X72229844Y-68664323D01*
X72229831Y-68664325D01*
X71965453Y-68723217D01*
X71965446Y-68723220D01*
X71712439Y-68819987D01*
X71476226Y-68952557D01*
X71476224Y-68952558D01*
X71476223Y-68952559D01*
X71455106Y-68968865D01*
X71261822Y-69118112D01*
X71073822Y-69313109D01*
X71073816Y-69313116D01*
X70916202Y-69533419D01*
X70916199Y-69533424D01*
X70792350Y-69774309D01*
X70792343Y-69774327D01*
X70704884Y-70030685D01*
X70704881Y-70030699D01*
X70655681Y-70297068D01*
X70655680Y-70297075D01*
X70645787Y-70567763D01*
X42349259Y-70567763D01*
X42354212Y-70432235D01*
X42324586Y-70162982D01*
X42256072Y-69900912D01*
X42150130Y-69651610D01*
X42009018Y-69420390D01*
X41919747Y-69313119D01*
X41835746Y-69212180D01*
X41835740Y-69212175D01*
X41634002Y-69031418D01*
X41408092Y-68881957D01*
X41376062Y-68866942D01*
X41162824Y-68766980D01*
X41162819Y-68766978D01*
X41162814Y-68766976D01*
X40903442Y-68688942D01*
X40903428Y-68688939D01*
X40787791Y-68671921D01*
X40635439Y-68649500D01*
X40432369Y-68649500D01*
X40432364Y-68649500D01*
X40229844Y-68664323D01*
X40229831Y-68664325D01*
X39965453Y-68723217D01*
X39965446Y-68723220D01*
X39712439Y-68819987D01*
X39476226Y-68952557D01*
X39476224Y-68952558D01*
X39476223Y-68952559D01*
X39455106Y-68968865D01*
X39261822Y-69118112D01*
X39073822Y-69313109D01*
X39073816Y-69313116D01*
X38916202Y-69533419D01*
X38916199Y-69533424D01*
X38792350Y-69774309D01*
X38792343Y-69774327D01*
X38704884Y-70030685D01*
X38704881Y-70030699D01*
X38655681Y-70297068D01*
X38655680Y-70297075D01*
X38645787Y-70567763D01*
X37500500Y-70567763D01*
X37500500Y-65732500D01*
X37520185Y-65665461D01*
X37572989Y-65619706D01*
X37624500Y-65608500D01*
X38527500Y-65608500D01*
X38594539Y-65628185D01*
X38640294Y-65680989D01*
X38651500Y-65732500D01*
X38651500Y-67313654D01*
X38658011Y-67374202D01*
X38658011Y-67374204D01*
X38698057Y-67481567D01*
X38709111Y-67511204D01*
X38796739Y-67628261D01*
X38913796Y-67715889D01*
X39050799Y-67766989D01*
X39078050Y-67769918D01*
X39111345Y-67773499D01*
X39111362Y-67773500D01*
X42708638Y-67773500D01*
X42708654Y-67773499D01*
X42735692Y-67770591D01*
X42769201Y-67766989D01*
X42906204Y-67715889D01*
X43023261Y-67628261D01*
X43110889Y-67511204D01*
X43161989Y-67374201D01*
X43165591Y-67340692D01*
X43168499Y-67313654D01*
X43168500Y-67313637D01*
X43168500Y-66546524D01*
X43188185Y-66479485D01*
X43240989Y-66433730D01*
X43310147Y-66423786D01*
X43369810Y-66449575D01*
X43471143Y-66530386D01*
X43698357Y-66661568D01*
X43942584Y-66757420D01*
X44198370Y-66815802D01*
X44198376Y-66815802D01*
X44198379Y-66815803D01*
X44394500Y-66830500D01*
X44394506Y-66830500D01*
X44525500Y-66830500D01*
X44721620Y-66815803D01*
X44721622Y-66815802D01*
X44721630Y-66815802D01*
X44977416Y-66757420D01*
X45221643Y-66661568D01*
X45221646Y-66661566D01*
X45221647Y-66661566D01*
X45264118Y-66637045D01*
X45332018Y-66620571D01*
X45398045Y-66643423D01*
X45437839Y-66690630D01*
X45479767Y-66777695D01*
X45479768Y-66777697D01*
X45479770Y-66777700D01*
X45479772Y-66777704D01*
X45505747Y-66815802D01*
X45627567Y-66994479D01*
X45806014Y-67186801D01*
X45806018Y-67186804D01*
X45806019Y-67186805D01*
X46011143Y-67350386D01*
X46238357Y-67481568D01*
X46482584Y-67577420D01*
X46738370Y-67635802D01*
X46738376Y-67635802D01*
X46738379Y-67635803D01*
X46934500Y-67650500D01*
X46934506Y-67650500D01*
X47065500Y-67650500D01*
X47261620Y-67635803D01*
X47261622Y-67635802D01*
X47261630Y-67635802D01*
X47517416Y-67577420D01*
X47761643Y-67481568D01*
X47988857Y-67350386D01*
X48193981Y-67186805D01*
X48372433Y-66994479D01*
X48520228Y-66777704D01*
X48634063Y-66541323D01*
X48659010Y-66460446D01*
X48697579Y-66402189D01*
X48761524Y-66374032D01*
X48830541Y-66384915D01*
X48882717Y-66431383D01*
X48901500Y-66496998D01*
X48901500Y-67248654D01*
X48908011Y-67309202D01*
X48908011Y-67309204D01*
X48932255Y-67374202D01*
X48959111Y-67446204D01*
X49046739Y-67563261D01*
X49163796Y-67650889D01*
X49300799Y-67701989D01*
X49328050Y-67704918D01*
X49361345Y-67708499D01*
X49361362Y-67708500D01*
X51758638Y-67708500D01*
X51758654Y-67708499D01*
X51785692Y-67705591D01*
X51819201Y-67701989D01*
X51956204Y-67650889D01*
X52073261Y-67563261D01*
X52160889Y-67446204D01*
X52210334Y-67313638D01*
X52211988Y-67309204D01*
X52211988Y-67309203D01*
X52211989Y-67309201D01*
X52215591Y-67275692D01*
X52218499Y-67248654D01*
X52218500Y-67248637D01*
X52218500Y-66281182D01*
X52226726Y-66236770D01*
X52749758Y-64873335D01*
X52792148Y-64817794D01*
X52823444Y-64801109D01*
X52891199Y-64776662D01*
X52960938Y-64772426D01*
X53021899Y-64806567D01*
X53026694Y-64811754D01*
X53090217Y-64884517D01*
X53244751Y-65061531D01*
X53270412Y-65108478D01*
X53272131Y-65114393D01*
X53282570Y-65132044D01*
X53291128Y-65149514D01*
X53298679Y-65168585D01*
X53298682Y-65168591D01*
X53326542Y-65206936D01*
X53329749Y-65211819D01*
X53353866Y-65252598D01*
X53353870Y-65252602D01*
X53368363Y-65267095D01*
X53381001Y-65281892D01*
X53393057Y-65298487D01*
X53429576Y-65328697D01*
X53433888Y-65332620D01*
X56750767Y-68649500D01*
X56891342Y-68790075D01*
X56901267Y-68802463D01*
X56901474Y-68802292D01*
X56906445Y-68808301D01*
X56957692Y-68856426D01*
X56978907Y-68877640D01*
X56984501Y-68881979D01*
X56988949Y-68885777D01*
X57023487Y-68918211D01*
X57023490Y-68918213D01*
X57023494Y-68918217D01*
X57023497Y-68918219D01*
X57023499Y-68918220D01*
X57041462Y-68928095D01*
X57057726Y-68938778D01*
X57073933Y-68951350D01*
X57117422Y-68970169D01*
X57122665Y-68972736D01*
X57164197Y-68995569D01*
X57164201Y-68995570D01*
X57184054Y-69000667D01*
X57202469Y-69006972D01*
X57221286Y-69015115D01*
X57221288Y-69015115D01*
X57221292Y-69015117D01*
X57254358Y-69020353D01*
X57268098Y-69022530D01*
X57273817Y-69023714D01*
X57319718Y-69035500D01*
X57340226Y-69035500D01*
X57359623Y-69037026D01*
X57379877Y-69040234D01*
X57379878Y-69040235D01*
X57379878Y-69040234D01*
X57379879Y-69040235D01*
X57401987Y-69038145D01*
X57427061Y-69035775D01*
X57432899Y-69035500D01*
X66916153Y-69035500D01*
X66931932Y-69037241D01*
X66931958Y-69036974D01*
X66939711Y-69037706D01*
X66939719Y-69037708D01*
X67009985Y-69035500D01*
X67039983Y-69035500D01*
X67047013Y-69034611D01*
X67052836Y-69034153D01*
X67100205Y-69032665D01*
X67119906Y-69026940D01*
X67138951Y-69022997D01*
X67159299Y-69020427D01*
X67203393Y-69002968D01*
X67208856Y-69001098D01*
X67254393Y-68987869D01*
X67272054Y-68977423D01*
X67289512Y-68968871D01*
X67308588Y-68961319D01*
X67346928Y-68933462D01*
X67351800Y-68930261D01*
X67392598Y-68906134D01*
X67407094Y-68891637D01*
X67421892Y-68878998D01*
X67438487Y-68866942D01*
X67468707Y-68830410D01*
X67472611Y-68826119D01*
X68553913Y-67744819D01*
X68615236Y-67711334D01*
X68641594Y-67708500D01*
X70758638Y-67708500D01*
X70758654Y-67708499D01*
X70785692Y-67705591D01*
X70819201Y-67701989D01*
X70956204Y-67650889D01*
X71073261Y-67563261D01*
X71160889Y-67446204D01*
X71210334Y-67313638D01*
X71211988Y-67309204D01*
X71211988Y-67309203D01*
X71211989Y-67309201D01*
X71215591Y-67275692D01*
X71218499Y-67248654D01*
X71218500Y-67248637D01*
X71218500Y-66281182D01*
X71226726Y-66236770D01*
X71749758Y-64873335D01*
X71792148Y-64817794D01*
X71823444Y-64801109D01*
X73057476Y-64355859D01*
X73099561Y-64348500D01*
X74108638Y-64348500D01*
X74108654Y-64348499D01*
X74135692Y-64345591D01*
X74169201Y-64341989D01*
X74169207Y-64341987D01*
X74183768Y-64336555D01*
X74306204Y-64290889D01*
X74423261Y-64203261D01*
X74510889Y-64086204D01*
X74561989Y-63949201D01*
X74565591Y-63915692D01*
X74568499Y-63888654D01*
X74568500Y-63888637D01*
X74568500Y-61191362D01*
X74568499Y-61191345D01*
X74565157Y-61160270D01*
X74561989Y-61130799D01*
X74510889Y-60993796D01*
X74423261Y-60876739D01*
X74306204Y-60789111D01*
X74169203Y-60738011D01*
X74144838Y-60735391D01*
X74080287Y-60708651D01*
X74064684Y-60693651D01*
X73526088Y-60076702D01*
X73496828Y-60013254D01*
X73495500Y-59995153D01*
X73495500Y-50283851D01*
X73497242Y-50268069D01*
X73496975Y-50268044D01*
X73497707Y-50260288D01*
X73497709Y-50260281D01*
X73495500Y-50189996D01*
X73495500Y-50160017D01*
X73494610Y-50152982D01*
X73494153Y-50147164D01*
X73492665Y-50099795D01*
X73486941Y-50080093D01*
X73482997Y-50061049D01*
X73480427Y-50040701D01*
X73462973Y-49996618D01*
X73461098Y-49991142D01*
X73447869Y-49945607D01*
X73437427Y-49927951D01*
X73428869Y-49910482D01*
X73421319Y-49891412D01*
X73393448Y-49853052D01*
X73390257Y-49848192D01*
X73366138Y-49807407D01*
X73366129Y-49807397D01*
X73351639Y-49792907D01*
X73339000Y-49778110D01*
X73333817Y-49770976D01*
X73326942Y-49761513D01*
X73326939Y-49761511D01*
X73326939Y-49761510D01*
X73290416Y-49731296D01*
X73286094Y-49727362D01*
X71968670Y-48409937D01*
X71940915Y-48367539D01*
X71931551Y-48343669D01*
X71470013Y-47167096D01*
X71383001Y-46945281D01*
X71376844Y-46875683D01*
X71383001Y-46854716D01*
X71399431Y-46812832D01*
X71751417Y-45915532D01*
X71794221Y-45860315D01*
X71821969Y-45845227D01*
X73079881Y-45356905D01*
X73124755Y-45348500D01*
X74108638Y-45348500D01*
X74108654Y-45348499D01*
X74135692Y-45345591D01*
X74169201Y-45341989D01*
X74306204Y-45290889D01*
X74423261Y-45203261D01*
X74510889Y-45086204D01*
X74561989Y-44949201D01*
X74565591Y-44915692D01*
X74568499Y-44888654D01*
X74568500Y-44888637D01*
X74568500Y-42191362D01*
X74568499Y-42191345D01*
X74565157Y-42160270D01*
X74561989Y-42130799D01*
X74510889Y-41993796D01*
X74423261Y-41876739D01*
X74306204Y-41789111D01*
X74169203Y-41738011D01*
X74108654Y-41731500D01*
X74108638Y-41731500D01*
X72701014Y-41731500D01*
X72633975Y-41711815D01*
X72588220Y-41659011D01*
X72578276Y-41589853D01*
X72590291Y-41551676D01*
X72604204Y-41524079D01*
X72604207Y-41524074D01*
X72674016Y-41296123D01*
X72704298Y-41059654D01*
X72703651Y-41044432D01*
X72694180Y-40821471D01*
X72694180Y-40821467D01*
X72643954Y-40588419D01*
X72555064Y-40367211D01*
X72555064Y-40367210D01*
X72430069Y-40164205D01*
X72272564Y-39985245D01*
X72087080Y-39835477D01*
X71973130Y-39771820D01*
X71878955Y-39719210D01*
X71654170Y-39639788D01*
X71419209Y-39599500D01*
X71419200Y-39599500D01*
X71240503Y-39599500D01*
X71240498Y-39599500D01*
X71062463Y-39614652D01*
X70831751Y-39674724D01*
X70614519Y-39772919D01*
X70614511Y-39772924D01*
X70417006Y-39906413D01*
X70416997Y-39906421D01*
X70244881Y-40071379D01*
X70103123Y-40263050D01*
X70103120Y-40263054D01*
X69995796Y-40475920D01*
X69995793Y-40475926D01*
X69925983Y-40703878D01*
X69895702Y-40940346D01*
X69905819Y-41178528D01*
X69905819Y-41178532D01*
X69956046Y-41411582D01*
X69956046Y-41411583D01*
X70040876Y-41622689D01*
X70047607Y-41692233D01*
X70015671Y-41754377D01*
X69955207Y-41789390D01*
X69916552Y-41792576D01*
X69875500Y-41789500D01*
X69875494Y-41789500D01*
X69744506Y-41789500D01*
X69744500Y-41789500D01*
X69548379Y-41804196D01*
X69548374Y-41804197D01*
X69292597Y-41862576D01*
X69292578Y-41862582D01*
X69048356Y-41958432D01*
X68821143Y-42089614D01*
X68616014Y-42253198D01*
X68437567Y-42445520D01*
X68289768Y-42662302D01*
X68289767Y-42662303D01*
X68175938Y-42898673D01*
X68098606Y-43149376D01*
X68098605Y-43149381D01*
X68098604Y-43149385D01*
X68088197Y-43218432D01*
X68059500Y-43408812D01*
X68059500Y-43671187D01*
X68072411Y-43756841D01*
X68098604Y-43930615D01*
X68098605Y-43930617D01*
X68098606Y-43930623D01*
X68175938Y-44181326D01*
X68289767Y-44417696D01*
X68289768Y-44417697D01*
X68289770Y-44417700D01*
X68289772Y-44417704D01*
X68338126Y-44488626D01*
X68437567Y-44634479D01*
X68616014Y-44826801D01*
X68616018Y-44826804D01*
X68616019Y-44826805D01*
X68670878Y-44870554D01*
X68711018Y-44927741D01*
X68713868Y-44997553D01*
X68678523Y-45057823D01*
X68616204Y-45089416D01*
X68593565Y-45091500D01*
X68361345Y-45091500D01*
X68300797Y-45098011D01*
X68300795Y-45098011D01*
X68163795Y-45149111D01*
X68046739Y-45236739D01*
X67959111Y-45353795D01*
X67908011Y-45490795D01*
X67908011Y-45490797D01*
X67901500Y-45551345D01*
X67901500Y-46303001D01*
X67881815Y-46370040D01*
X67829011Y-46415795D01*
X67759853Y-46425739D01*
X67696297Y-46396714D01*
X67659009Y-46339551D01*
X67647735Y-46303001D01*
X67634063Y-46258677D01*
X67550350Y-46084845D01*
X67520232Y-46022303D01*
X67520231Y-46022302D01*
X67520230Y-46022301D01*
X67520228Y-46022296D01*
X67372433Y-45805521D01*
X67241500Y-45664408D01*
X67193985Y-45613198D01*
X67116445Y-45551362D01*
X66988857Y-45449614D01*
X66761643Y-45318432D01*
X66517416Y-45222580D01*
X66517411Y-45222578D01*
X66517402Y-45222576D01*
X66299818Y-45172914D01*
X66261630Y-45164198D01*
X66261629Y-45164197D01*
X66261625Y-45164197D01*
X66261620Y-45164196D01*
X66065500Y-45149500D01*
X66065494Y-45149500D01*
X65934506Y-45149500D01*
X65934500Y-45149500D01*
X65738379Y-45164196D01*
X65738374Y-45164197D01*
X65482597Y-45222576D01*
X65482578Y-45222582D01*
X65238363Y-45318429D01*
X65238357Y-45318432D01*
X65195877Y-45342957D01*
X65127977Y-45359427D01*
X65061951Y-45336574D01*
X65022160Y-45289369D01*
X64980232Y-45202303D01*
X64980231Y-45202302D01*
X64980230Y-45202301D01*
X64980228Y-45202296D01*
X64832433Y-44985521D01*
X64742554Y-44888654D01*
X64653985Y-44793198D01*
X64614533Y-44761736D01*
X64448857Y-44629614D01*
X64221643Y-44498432D01*
X63977416Y-44402580D01*
X63977411Y-44402578D01*
X63977402Y-44402576D01*
X63759818Y-44352914D01*
X63721630Y-44344198D01*
X63721629Y-44344197D01*
X63721625Y-44344197D01*
X63721620Y-44344196D01*
X63525500Y-44329500D01*
X63525494Y-44329500D01*
X63394506Y-44329500D01*
X63394500Y-44329500D01*
X63198379Y-44344196D01*
X63198374Y-44344197D01*
X62942585Y-44402579D01*
X62858890Y-44435426D01*
X62789293Y-44441593D01*
X62727410Y-44409155D01*
X62695098Y-44356547D01*
X62641048Y-44181323D01*
X62634063Y-44158677D01*
X62622121Y-44133880D01*
X62520232Y-43922303D01*
X62520231Y-43922302D01*
X62520230Y-43922301D01*
X62520228Y-43922296D01*
X62372433Y-43705521D01*
X62340571Y-43671182D01*
X62193985Y-43513198D01*
X62116445Y-43451362D01*
X61988857Y-43349614D01*
X61761643Y-43218432D01*
X61517416Y-43122580D01*
X61517411Y-43122578D01*
X61517402Y-43122576D01*
X61299818Y-43072914D01*
X61261630Y-43064198D01*
X61261629Y-43064197D01*
X61261625Y-43064197D01*
X61261620Y-43064196D01*
X61065500Y-43049500D01*
X61065494Y-43049500D01*
X60934506Y-43049500D01*
X60934500Y-43049500D01*
X60738379Y-43064196D01*
X60738374Y-43064197D01*
X60482597Y-43122576D01*
X60482578Y-43122582D01*
X60238356Y-43218432D01*
X60011143Y-43349614D01*
X59806014Y-43513198D01*
X59627567Y-43705520D01*
X59592578Y-43756841D01*
X59544952Y-43826694D01*
X59490925Y-43870995D01*
X59421521Y-43879054D01*
X59358779Y-43848311D01*
X59322617Y-43788527D01*
X59318500Y-43756841D01*
X59318500Y-43451362D01*
X59318499Y-43451345D01*
X59313926Y-43408818D01*
X59311989Y-43390799D01*
X59260889Y-43253796D01*
X59173261Y-43136739D01*
X59102921Y-43084083D01*
X59056206Y-43049112D01*
X59056204Y-43049111D01*
X58925207Y-43000251D01*
X58875133Y-42965621D01*
X58530895Y-42571304D01*
X58326088Y-42336702D01*
X58296828Y-42273254D01*
X58295500Y-42255153D01*
X58295500Y-40940346D01*
X59295702Y-40940346D01*
X59305819Y-41178528D01*
X59305819Y-41178532D01*
X59356045Y-41411580D01*
X59412341Y-41551676D01*
X59444936Y-41632790D01*
X59569931Y-41835795D01*
X59727436Y-42014755D01*
X59912920Y-42164523D01*
X60121046Y-42280790D01*
X60238225Y-42322192D01*
X60345829Y-42360211D01*
X60580790Y-42400499D01*
X60580798Y-42400499D01*
X60580800Y-42400500D01*
X60580801Y-42400500D01*
X60759502Y-42400500D01*
X60937536Y-42385347D01*
X60937539Y-42385346D01*
X60937541Y-42385346D01*
X61168249Y-42325275D01*
X61327707Y-42253195D01*
X61385480Y-42227080D01*
X61385481Y-42227078D01*
X61385486Y-42227077D01*
X61583003Y-42093579D01*
X61755118Y-41928621D01*
X61896879Y-41736947D01*
X62004207Y-41524074D01*
X62074016Y-41296123D01*
X62102285Y-41075373D01*
X63745723Y-41075373D01*
X63775881Y-41375160D01*
X63775882Y-41375162D01*
X63845728Y-41668252D01*
X63845733Y-41668266D01*
X63954020Y-41949427D01*
X63954024Y-41949436D01*
X64098825Y-42213665D01*
X64098829Y-42213671D01*
X64206801Y-42360211D01*
X64277554Y-42456238D01*
X64277561Y-42456245D01*
X64487019Y-42672823D01*
X64723478Y-42859553D01*
X64723480Y-42859554D01*
X64723485Y-42859558D01*
X64982730Y-43013109D01*
X65260128Y-43130736D01*
X65550729Y-43210340D01*
X65849347Y-43250500D01*
X65849351Y-43250500D01*
X66075252Y-43250500D01*
X66239164Y-43239526D01*
X66300634Y-43235412D01*
X66595903Y-43175396D01*
X66880537Y-43076560D01*
X67149459Y-42940668D01*
X67397869Y-42770144D01*
X67621333Y-42568032D01*
X67815865Y-42337939D01*
X67977993Y-42083970D01*
X68104823Y-41810658D01*
X68194093Y-41522879D01*
X68244209Y-41225770D01*
X68254277Y-40924631D01*
X68224118Y-40624838D01*
X68154269Y-40331739D01*
X68045977Y-40050566D01*
X67901175Y-39786335D01*
X67879864Y-39757412D01*
X67818939Y-39674724D01*
X67722446Y-39543762D01*
X67512980Y-39327176D01*
X67492866Y-39311292D01*
X67276521Y-39140446D01*
X67276517Y-39140443D01*
X67276515Y-39140442D01*
X67017270Y-38986891D01*
X66739872Y-38869264D01*
X66739863Y-38869261D01*
X66449272Y-38789660D01*
X66374616Y-38779620D01*
X66150653Y-38749500D01*
X65924756Y-38749500D01*
X65924748Y-38749500D01*
X65699368Y-38764587D01*
X65699359Y-38764589D01*
X65404094Y-38824604D01*
X65119464Y-38923439D01*
X65119459Y-38923441D01*
X64850546Y-39059328D01*
X64602125Y-39229860D01*
X64378665Y-39431969D01*
X64184132Y-39662064D01*
X64022006Y-39916030D01*
X64022005Y-39916032D01*
X63906842Y-40164205D01*
X63895177Y-40189342D01*
X63895176Y-40189346D01*
X63805907Y-40477118D01*
X63787133Y-40588419D01*
X63755791Y-40774230D01*
X63746249Y-41059654D01*
X63745723Y-41075373D01*
X62102285Y-41075373D01*
X62104298Y-41059654D01*
X62103651Y-41044432D01*
X62094180Y-40821471D01*
X62094180Y-40821467D01*
X62043954Y-40588419D01*
X61955064Y-40367211D01*
X61955064Y-40367210D01*
X61830069Y-40164205D01*
X61672564Y-39985245D01*
X61487080Y-39835477D01*
X61373130Y-39771820D01*
X61278955Y-39719210D01*
X61054170Y-39639788D01*
X60819209Y-39599500D01*
X60819200Y-39599500D01*
X60640503Y-39599500D01*
X60640498Y-39599500D01*
X60462463Y-39614652D01*
X60231751Y-39674724D01*
X60014519Y-39772919D01*
X60014511Y-39772924D01*
X59817006Y-39906413D01*
X59816997Y-39906421D01*
X59644881Y-40071379D01*
X59503123Y-40263050D01*
X59503120Y-40263054D01*
X59395796Y-40475920D01*
X59395793Y-40475926D01*
X59325983Y-40703878D01*
X59295702Y-40940346D01*
X58295500Y-40940346D01*
X58295500Y-39926664D01*
X58315185Y-39859625D01*
X58367299Y-39814187D01*
X58785688Y-39620021D01*
X58837887Y-39608500D01*
X58923867Y-39608500D01*
X58923872Y-39608500D01*
X59024336Y-39598236D01*
X59187101Y-39544302D01*
X59333040Y-39454285D01*
X59454285Y-39333040D01*
X59544302Y-39187101D01*
X59598236Y-39024336D01*
X59608500Y-38923872D01*
X59608500Y-38376128D01*
X59598236Y-38275664D01*
X59544302Y-38112899D01*
X59544298Y-38112893D01*
X59544297Y-38112890D01*
X59454287Y-37966963D01*
X59454284Y-37966959D01*
X59333040Y-37845715D01*
X59333036Y-37845712D01*
X59187109Y-37755702D01*
X59187103Y-37755699D01*
X59187101Y-37755698D01*
X59187098Y-37755697D01*
X59119499Y-37733297D01*
X59062054Y-37693524D01*
X59035231Y-37629008D01*
X59047546Y-37560232D01*
X59070819Y-37527913D01*
X59170599Y-37428133D01*
X60025668Y-37428133D01*
X60048962Y-37560232D01*
X60056135Y-37600911D01*
X60125623Y-37762004D01*
X60125624Y-37762006D01*
X60125626Y-37762009D01*
X60229836Y-37901986D01*
X60230390Y-37902730D01*
X60364786Y-38015502D01*
X60442488Y-38054525D01*
X60521562Y-38094238D01*
X60521563Y-38094238D01*
X60521567Y-38094240D01*
X60692279Y-38134700D01*
X60692282Y-38134700D01*
X60823701Y-38134700D01*
X60823709Y-38134700D01*
X60954255Y-38119441D01*
X61119117Y-38059437D01*
X61265696Y-37963030D01*
X61386092Y-37835418D01*
X61473812Y-37683481D01*
X61524130Y-37515410D01*
X61524824Y-37503500D01*
X61973100Y-37503500D01*
X61973100Y-37707744D01*
X61979501Y-37767272D01*
X61979503Y-37767279D01*
X62029745Y-37901986D01*
X62029749Y-37901993D01*
X62115909Y-38017087D01*
X62115912Y-38017090D01*
X62231006Y-38103250D01*
X62231013Y-38103254D01*
X62365720Y-38153496D01*
X62365727Y-38153498D01*
X62425255Y-38159899D01*
X62425272Y-38159900D01*
X63098100Y-38159900D01*
X63098100Y-37503500D01*
X61973100Y-37503500D01*
X61524824Y-37503500D01*
X61534331Y-37340265D01*
X61503865Y-37167489D01*
X61434377Y-37006396D01*
X61418803Y-36985477D01*
X61363905Y-36911736D01*
X61329610Y-36865670D01*
X61257747Y-36805370D01*
X61195214Y-36752898D01*
X61195212Y-36752897D01*
X61038433Y-36674159D01*
X60873448Y-36635057D01*
X60812756Y-36600443D01*
X60795475Y-36567353D01*
X60782574Y-36595603D01*
X60723796Y-36633377D01*
X60703266Y-36637560D01*
X60628057Y-36646350D01*
X60605743Y-36648959D01*
X60605740Y-36648960D01*
X60440884Y-36708962D01*
X60440880Y-36708964D01*
X60294306Y-36805367D01*
X60294305Y-36805368D01*
X60173910Y-36932978D01*
X60086188Y-37084918D01*
X60035870Y-37252989D01*
X60035869Y-37252994D01*
X60025668Y-37428133D01*
X59170599Y-37428133D01*
X60172014Y-36426719D01*
X60233337Y-36393234D01*
X60259695Y-36390400D01*
X60688861Y-36390400D01*
X60755900Y-36410085D01*
X60796240Y-36456639D01*
X60829585Y-36413774D01*
X60895490Y-36390573D01*
X60902045Y-36390400D01*
X61861426Y-36390400D01*
X61928465Y-36410085D01*
X61931675Y-36412219D01*
X61987306Y-36450465D01*
X62031398Y-36504665D01*
X62039187Y-36574099D01*
X62031468Y-36596187D01*
X62032846Y-36596701D01*
X61979503Y-36739720D01*
X61979501Y-36739727D01*
X61973100Y-36799255D01*
X61973100Y-37003500D01*
X63474100Y-37003500D01*
X63541139Y-37023185D01*
X63586894Y-37075989D01*
X63598100Y-37127500D01*
X63598100Y-38159900D01*
X64270928Y-38159900D01*
X64270944Y-38159899D01*
X64330472Y-38153498D01*
X64330479Y-38153496D01*
X64465186Y-38103254D01*
X64465188Y-38103252D01*
X64575555Y-38020633D01*
X64641019Y-37996216D01*
X64649866Y-37995900D01*
X67062052Y-37995900D01*
X67129091Y-38015585D01*
X67136363Y-38020633D01*
X67139737Y-38023159D01*
X67139739Y-38023161D01*
X67256796Y-38110789D01*
X67371297Y-38153496D01*
X67388463Y-38159899D01*
X67393799Y-38161889D01*
X67421050Y-38164818D01*
X67454345Y-38168399D01*
X67454362Y-38168400D01*
X69301638Y-38168400D01*
X69301654Y-38168399D01*
X69328692Y-38165491D01*
X69362201Y-38161889D01*
X69367537Y-38159899D01*
X69384703Y-38153496D01*
X69499204Y-38110789D01*
X69616261Y-38023161D01*
X69703889Y-37906104D01*
X69754989Y-37769101D01*
X69754990Y-37769090D01*
X69755879Y-37765330D01*
X69757441Y-37762528D01*
X69757701Y-37761832D01*
X69757807Y-37761871D01*
X69788875Y-37706159D01*
X69976105Y-37518929D01*
X69979995Y-37515360D01*
X70004363Y-37494857D01*
X70013226Y-37486725D01*
X70065881Y-37430580D01*
X70065888Y-37430567D01*
X70067546Y-37428362D01*
X70073285Y-37421750D01*
X70154769Y-37340265D01*
X70187528Y-37307505D01*
X70190204Y-37304986D01*
X70236552Y-37263927D01*
X70245635Y-37250766D01*
X70299916Y-37206775D01*
X70369364Y-37199113D01*
X70431930Y-37230214D01*
X70467749Y-37290204D01*
X70471477Y-37328414D01*
X70465668Y-37428133D01*
X70488962Y-37560232D01*
X70496135Y-37600911D01*
X70565623Y-37762004D01*
X70565624Y-37762006D01*
X70565626Y-37762009D01*
X70669836Y-37901986D01*
X70670390Y-37902730D01*
X70804786Y-38015502D01*
X70882488Y-38054525D01*
X70961562Y-38094238D01*
X70961563Y-38094238D01*
X70961567Y-38094240D01*
X71132279Y-38134700D01*
X71132282Y-38134700D01*
X71263701Y-38134700D01*
X71263709Y-38134700D01*
X71394255Y-38119441D01*
X71559117Y-38059437D01*
X71705696Y-37963030D01*
X71826092Y-37835418D01*
X71913812Y-37683481D01*
X71964130Y-37515410D01*
X71974331Y-37340265D01*
X71943865Y-37167489D01*
X71874377Y-37006396D01*
X71858803Y-36985477D01*
X71803905Y-36911736D01*
X71769610Y-36865670D01*
X71697747Y-36805370D01*
X71635214Y-36752898D01*
X71635212Y-36752897D01*
X71478437Y-36674161D01*
X71467391Y-36671543D01*
X71307721Y-36633700D01*
X71176291Y-36633700D01*
X71071854Y-36645907D01*
X71045743Y-36648959D01*
X71045740Y-36648960D01*
X70880884Y-36708962D01*
X70880880Y-36708964D01*
X70734306Y-36805367D01*
X70734304Y-36805369D01*
X70626469Y-36919666D01*
X70566146Y-36954920D01*
X70496339Y-36951964D01*
X70439211Y-36911736D01*
X70412901Y-36847009D01*
X70412502Y-36842056D01*
X70412348Y-36839517D01*
X70412349Y-36839515D01*
X70408613Y-36777747D01*
X70408500Y-36774004D01*
X70408500Y-35275744D01*
X70408613Y-35271999D01*
X70412349Y-35210235D01*
X70401194Y-35149365D01*
X70400630Y-35145660D01*
X70397549Y-35120287D01*
X70393173Y-35084240D01*
X70389594Y-35074805D01*
X70383568Y-35053183D01*
X70383503Y-35052830D01*
X70381751Y-35043267D01*
X70356352Y-34986833D01*
X70354924Y-34983386D01*
X70332982Y-34925527D01*
X70332980Y-34925525D01*
X70332980Y-34925523D01*
X70327245Y-34917215D01*
X70316219Y-34897663D01*
X70312085Y-34888477D01*
X70312084Y-34888476D01*
X70312084Y-34888475D01*
X70273920Y-34839762D01*
X70271711Y-34836760D01*
X70236552Y-34785823D01*
X70190230Y-34744785D01*
X70187519Y-34742234D01*
X67767255Y-32321969D01*
X67764721Y-32319277D01*
X67723677Y-32272948D01*
X67723676Y-32272947D01*
X67723675Y-32272946D01*
X67672753Y-32237797D01*
X67669738Y-32235578D01*
X67621022Y-32197414D01*
X67611830Y-32193277D01*
X67592282Y-32182252D01*
X67583976Y-32176519D01*
X67583975Y-32176518D01*
X67526114Y-32154574D01*
X67522654Y-32153141D01*
X67466235Y-32127750D01*
X67466233Y-32127749D01*
X67456307Y-32125929D01*
X67434699Y-32119906D01*
X67425260Y-32116327D01*
X67363828Y-32108867D01*
X67360128Y-32108304D01*
X67319652Y-32100887D01*
X67299266Y-32097151D01*
X67299262Y-32097150D01*
X67237498Y-32100887D01*
X67233754Y-32101000D01*
X66904662Y-32101000D01*
X66871586Y-32096507D01*
X66304262Y-31939487D01*
X66286915Y-31933265D01*
X66282294Y-31931208D01*
X66282286Y-31931205D01*
X66095487Y-31891500D01*
X65904513Y-31891500D01*
X65717714Y-31931205D01*
X65543246Y-32008883D01*
X65388745Y-32121135D01*
X65260959Y-32263057D01*
X65165473Y-32428443D01*
X65165470Y-32428450D01*
X65106459Y-32610068D01*
X65106458Y-32610072D01*
X65086496Y-32800000D01*
X65106458Y-32989928D01*
X65106459Y-32989931D01*
X65165470Y-33171549D01*
X65165473Y-33171556D01*
X65260958Y-33336942D01*
X65260960Y-33336944D01*
X65299820Y-33380103D01*
X65312359Y-33394028D01*
X65342589Y-33457019D01*
X65333964Y-33526354D01*
X65289223Y-33580020D01*
X65222570Y-33600978D01*
X65220209Y-33601000D01*
X61940897Y-33601000D01*
X61873858Y-33581315D01*
X61853216Y-33564681D01*
X60633957Y-32345421D01*
X60613745Y-32318856D01*
X60587739Y-32272946D01*
X60321437Y-31802819D01*
X60309693Y-31783124D01*
X60309686Y-31783116D01*
X60306713Y-31778952D01*
X60307081Y-31778688D01*
X60299941Y-31768539D01*
X60288545Y-31748801D01*
X60239040Y-31663056D01*
X60111253Y-31521134D01*
X59956752Y-31408882D01*
X59782288Y-31331206D01*
X59782286Y-31331205D01*
X59595487Y-31291500D01*
X59404513Y-31291500D01*
X59217714Y-31331205D01*
X59043246Y-31408883D01*
X58888745Y-31521135D01*
X58760959Y-31663057D01*
X58665473Y-31828443D01*
X58665470Y-31828450D01*
X58606844Y-32008883D01*
X58606458Y-32010072D01*
X58586496Y-32200000D01*
X58606458Y-32389928D01*
X58606459Y-32389931D01*
X58607138Y-32396390D01*
X58604272Y-32396691D01*
X58599828Y-32453870D01*
X58557613Y-32509544D01*
X58491999Y-32533557D01*
X58423819Y-32518285D01*
X58396235Y-32497502D01*
X57292377Y-31393644D01*
X57278060Y-31376478D01*
X57065346Y-31068791D01*
X57051747Y-31050854D01*
X57050230Y-31049026D01*
X57048269Y-31046662D01*
X57044962Y-31042297D01*
X57042404Y-31038592D01*
X57034215Y-31026727D01*
X56988450Y-30986182D01*
X56985927Y-30983818D01*
X56972239Y-30970257D01*
X56966355Y-30965685D01*
X56966514Y-30965479D01*
X56958184Y-30959369D01*
X56905430Y-30912633D01*
X56877726Y-30898093D01*
X56753083Y-30832675D01*
X56753082Y-30832674D01*
X56753079Y-30832673D01*
X56586028Y-30791500D01*
X56413972Y-30791500D01*
X56246920Y-30832673D01*
X56094567Y-30912634D01*
X55965789Y-31026722D01*
X55965786Y-31026725D01*
X55868045Y-31168326D01*
X55807034Y-31329198D01*
X55786296Y-31499999D01*
X55786296Y-31500000D01*
X55804291Y-31648209D01*
X55792830Y-31717132D01*
X55745926Y-31768918D01*
X55714273Y-31782662D01*
X55641448Y-31802819D01*
X55614703Y-31810221D01*
X55581627Y-31814714D01*
X54315458Y-31814714D01*
X54248419Y-31795029D01*
X54202664Y-31742225D01*
X54192362Y-31675768D01*
X54213704Y-31500000D01*
X54213704Y-31499999D01*
X54192965Y-31329198D01*
X54131954Y-31168326D01*
X54131954Y-31168325D01*
X54034215Y-31026727D01*
X54034213Y-31026725D01*
X54034210Y-31026722D01*
X53905432Y-30912634D01*
X53753079Y-30832673D01*
X53586028Y-30791500D01*
X53413972Y-30791500D01*
X53413968Y-30791500D01*
X53386643Y-30798235D01*
X53381136Y-30799592D01*
X53377435Y-30800385D01*
X53038228Y-30862292D01*
X53037170Y-30862485D01*
X53014907Y-30864500D01*
X49924500Y-30864500D01*
X49857461Y-30844815D01*
X49811706Y-30792011D01*
X49800500Y-30740500D01*
X49800500Y-25124500D01*
X49820185Y-25057461D01*
X49872989Y-25011706D01*
X49924500Y-25000500D01*
X63075500Y-25000500D01*
X63142539Y-25020185D01*
G37*
G04 #@! TD.AperFunction*
G04 #@! TA.AperFunction,Conductor*
G36*
X38594539Y-46628185D02*
G01*
X38640294Y-46680989D01*
X38651500Y-46732500D01*
X38651500Y-48313654D01*
X38658011Y-48374202D01*
X38658011Y-48374204D01*
X38698057Y-48481567D01*
X38709111Y-48511204D01*
X38796739Y-48628261D01*
X38913796Y-48715889D01*
X39050799Y-48766989D01*
X39078050Y-48769918D01*
X39111345Y-48773499D01*
X39111362Y-48773500D01*
X42708638Y-48773500D01*
X42708654Y-48773499D01*
X42735692Y-48770591D01*
X42769201Y-48766989D01*
X42906204Y-48715889D01*
X43023261Y-48628261D01*
X43110889Y-48511204D01*
X43161989Y-48374201D01*
X43167517Y-48322784D01*
X43168499Y-48313654D01*
X43168500Y-48313637D01*
X43168500Y-47546524D01*
X43188185Y-47479485D01*
X43240989Y-47433730D01*
X43310147Y-47423786D01*
X43369810Y-47449575D01*
X43471143Y-47530386D01*
X43698357Y-47661568D01*
X43942584Y-47757420D01*
X44198370Y-47815802D01*
X44198376Y-47815802D01*
X44198379Y-47815803D01*
X44394500Y-47830500D01*
X44394506Y-47830500D01*
X44525500Y-47830500D01*
X44721620Y-47815803D01*
X44721622Y-47815802D01*
X44721630Y-47815802D01*
X44977416Y-47757420D01*
X45221643Y-47661568D01*
X45221646Y-47661566D01*
X45221647Y-47661566D01*
X45264118Y-47637045D01*
X45332018Y-47620571D01*
X45398045Y-47643423D01*
X45437839Y-47690630D01*
X45479767Y-47777695D01*
X45479768Y-47777697D01*
X45479770Y-47777700D01*
X45479772Y-47777704D01*
X45563864Y-47901044D01*
X45627567Y-47994479D01*
X45806014Y-48186801D01*
X45806018Y-48186804D01*
X45806019Y-48186805D01*
X46011143Y-48350386D01*
X46238357Y-48481568D01*
X46482584Y-48577420D01*
X46738370Y-48635802D01*
X46738376Y-48635802D01*
X46738379Y-48635803D01*
X46934500Y-48650500D01*
X46934506Y-48650500D01*
X47065500Y-48650500D01*
X47261620Y-48635803D01*
X47261622Y-48635802D01*
X47261630Y-48635802D01*
X47517416Y-48577420D01*
X47761643Y-48481568D01*
X47988857Y-48350386D01*
X48040188Y-48309450D01*
X48104873Y-48283043D01*
X48173569Y-48295798D01*
X48224463Y-48343669D01*
X48241500Y-48406398D01*
X48241500Y-49308404D01*
X48221815Y-49375443D01*
X48205181Y-49396085D01*
X44050522Y-53550744D01*
X44046296Y-53554596D01*
X44017419Y-53578584D01*
X44017408Y-53578594D01*
X43969071Y-53632082D01*
X43966912Y-53634353D01*
X43958021Y-53643244D01*
X43945631Y-53653172D01*
X43945802Y-53653379D01*
X43939796Y-53658347D01*
X43920530Y-53678864D01*
X43891673Y-53709593D01*
X43885266Y-53716000D01*
X43870465Y-53730800D01*
X43870463Y-53730802D01*
X43866108Y-53736416D01*
X43862318Y-53740853D01*
X43829883Y-53775394D01*
X43829693Y-53775740D01*
X43829472Y-53775959D01*
X43825297Y-53781706D01*
X43824369Y-53781032D01*
X43780145Y-53825003D01*
X43721032Y-53840000D01*
X43424445Y-53840000D01*
X43363897Y-53846511D01*
X43363895Y-53846511D01*
X43226895Y-53897611D01*
X43109839Y-53985239D01*
X43022211Y-54102295D01*
X42971111Y-54239295D01*
X42971111Y-54239297D01*
X42964600Y-54299845D01*
X42964600Y-55209954D01*
X42971111Y-55270502D01*
X42971111Y-55270504D01*
X43022211Y-55407504D01*
X43038967Y-55429888D01*
X43044276Y-55436979D01*
X43068693Y-55502443D01*
X43053842Y-55570716D01*
X43044278Y-55585598D01*
X43029748Y-55605008D01*
X43029745Y-55605013D01*
X42979503Y-55739720D01*
X42979501Y-55739727D01*
X42973100Y-55799255D01*
X42973100Y-56003500D01*
X44474100Y-56003500D01*
X44541139Y-56023185D01*
X44586894Y-56075989D01*
X44598100Y-56127500D01*
X44598100Y-57159900D01*
X45270928Y-57159900D01*
X45270944Y-57159899D01*
X45330472Y-57153498D01*
X45330479Y-57153496D01*
X45465186Y-57103254D01*
X45465188Y-57103252D01*
X45575555Y-57020633D01*
X45641019Y-56996216D01*
X45649866Y-56995900D01*
X48062052Y-56995900D01*
X48129091Y-57015585D01*
X48136363Y-57020633D01*
X48139737Y-57023159D01*
X48139739Y-57023161D01*
X48256796Y-57110789D01*
X48371297Y-57153496D01*
X48388463Y-57159899D01*
X48393799Y-57161889D01*
X48421050Y-57164818D01*
X48454345Y-57168399D01*
X48454362Y-57168400D01*
X49052075Y-57168400D01*
X49106490Y-57180978D01*
X49674734Y-57458491D01*
X49708000Y-57482232D01*
X50315842Y-58090075D01*
X50325767Y-58102463D01*
X50325974Y-58102292D01*
X50330945Y-58108301D01*
X50382192Y-58156426D01*
X50403407Y-58177640D01*
X50409001Y-58181979D01*
X50413449Y-58185777D01*
X50447987Y-58218211D01*
X50447990Y-58218213D01*
X50447994Y-58218217D01*
X50447997Y-58218219D01*
X50447999Y-58218220D01*
X50465962Y-58228095D01*
X50482226Y-58238778D01*
X50498433Y-58251350D01*
X50541922Y-58270169D01*
X50547165Y-58272736D01*
X50588697Y-58295569D01*
X50588701Y-58295570D01*
X50608554Y-58300667D01*
X50626969Y-58306972D01*
X50645786Y-58315115D01*
X50645788Y-58315115D01*
X50645792Y-58315117D01*
X50678858Y-58320353D01*
X50692598Y-58322530D01*
X50698317Y-58323714D01*
X50744218Y-58335500D01*
X50764726Y-58335500D01*
X50784123Y-58337026D01*
X50804377Y-58340234D01*
X50804378Y-58340235D01*
X50804378Y-58340234D01*
X50804379Y-58340235D01*
X50826487Y-58338145D01*
X50851561Y-58335775D01*
X50857399Y-58335500D01*
X54016153Y-58335500D01*
X54031932Y-58337241D01*
X54031958Y-58336974D01*
X54039711Y-58337706D01*
X54039719Y-58337708D01*
X54109985Y-58335500D01*
X54139983Y-58335500D01*
X54147013Y-58334611D01*
X54152836Y-58334153D01*
X54200205Y-58332665D01*
X54219906Y-58326940D01*
X54238951Y-58322997D01*
X54259299Y-58320427D01*
X54303393Y-58302968D01*
X54308856Y-58301098D01*
X54354393Y-58287869D01*
X54372054Y-58277423D01*
X54389512Y-58268871D01*
X54408588Y-58261319D01*
X54446928Y-58233462D01*
X54451800Y-58230261D01*
X54492598Y-58206134D01*
X54507094Y-58191637D01*
X54521892Y-58178998D01*
X54538487Y-58166942D01*
X54568707Y-58130410D01*
X54572611Y-58126119D01*
X56270599Y-56428133D01*
X60025668Y-56428133D01*
X60041058Y-56515410D01*
X60056135Y-56600911D01*
X60125623Y-56762004D01*
X60125624Y-56762006D01*
X60125626Y-56762009D01*
X60198055Y-56859297D01*
X60230390Y-56902730D01*
X60364786Y-57015502D01*
X60432460Y-57049489D01*
X60521562Y-57094238D01*
X60521563Y-57094238D01*
X60521567Y-57094240D01*
X60692279Y-57134700D01*
X60692282Y-57134700D01*
X60823701Y-57134700D01*
X60823709Y-57134700D01*
X60954255Y-57119441D01*
X61119117Y-57059437D01*
X61265696Y-56963030D01*
X61386092Y-56835418D01*
X61473812Y-56683481D01*
X61524130Y-56515410D01*
X61524824Y-56503500D01*
X61973100Y-56503500D01*
X61973100Y-56707744D01*
X61979501Y-56767272D01*
X61979503Y-56767279D01*
X62029745Y-56901986D01*
X62029749Y-56901993D01*
X62115909Y-57017087D01*
X62115912Y-57017090D01*
X62231006Y-57103250D01*
X62231013Y-57103254D01*
X62365720Y-57153496D01*
X62365727Y-57153498D01*
X62425255Y-57159899D01*
X62425272Y-57159900D01*
X63098100Y-57159900D01*
X63098100Y-56503500D01*
X61973100Y-56503500D01*
X61524824Y-56503500D01*
X61534331Y-56340265D01*
X61503865Y-56167489D01*
X61434377Y-56006396D01*
X61431034Y-56001906D01*
X61330557Y-55866942D01*
X61329610Y-55865670D01*
X61284919Y-55828170D01*
X61195214Y-55752898D01*
X61195212Y-55752897D01*
X61038433Y-55674159D01*
X60873448Y-55635057D01*
X60812756Y-55600443D01*
X60795475Y-55567353D01*
X60782574Y-55595603D01*
X60723796Y-55633377D01*
X60703266Y-55637560D01*
X60628057Y-55646350D01*
X60605743Y-55648959D01*
X60605740Y-55648960D01*
X60440884Y-55708962D01*
X60440880Y-55708964D01*
X60294306Y-55805367D01*
X60294305Y-55805368D01*
X60173910Y-55932978D01*
X60086188Y-56084918D01*
X60035870Y-56252989D01*
X60035869Y-56252994D01*
X60025668Y-56428133D01*
X56270599Y-56428133D01*
X56626913Y-56071819D01*
X56688236Y-56038334D01*
X56714594Y-56035500D01*
X59116153Y-56035500D01*
X59131932Y-56037241D01*
X59131958Y-56036974D01*
X59139711Y-56037706D01*
X59139719Y-56037708D01*
X59209985Y-56035500D01*
X59239983Y-56035500D01*
X59247013Y-56034611D01*
X59252836Y-56034153D01*
X59300205Y-56032665D01*
X59319906Y-56026940D01*
X59338951Y-56022997D01*
X59359299Y-56020427D01*
X59403393Y-56002968D01*
X59408856Y-56001098D01*
X59454393Y-55987869D01*
X59472054Y-55977423D01*
X59489512Y-55968871D01*
X59508588Y-55961319D01*
X59546928Y-55933462D01*
X59551800Y-55930261D01*
X59592598Y-55906134D01*
X59607094Y-55891637D01*
X59621892Y-55878998D01*
X59638487Y-55866942D01*
X59668707Y-55830410D01*
X59672611Y-55826119D01*
X60072013Y-55426719D01*
X60133336Y-55393234D01*
X60159694Y-55390400D01*
X60688861Y-55390400D01*
X60755900Y-55410085D01*
X60796240Y-55456639D01*
X60829585Y-55413774D01*
X60895490Y-55390573D01*
X60902045Y-55390400D01*
X61861426Y-55390400D01*
X61928465Y-55410085D01*
X61931675Y-55412219D01*
X61987306Y-55450465D01*
X62031398Y-55504665D01*
X62039187Y-55574099D01*
X62031468Y-55596187D01*
X62032846Y-55596701D01*
X61979503Y-55739720D01*
X61979501Y-55739727D01*
X61973100Y-55799255D01*
X61973100Y-56003500D01*
X63474100Y-56003500D01*
X63541139Y-56023185D01*
X63586894Y-56075989D01*
X63598100Y-56127500D01*
X63598100Y-57159900D01*
X64270928Y-57159900D01*
X64270944Y-57159899D01*
X64330472Y-57153498D01*
X64330479Y-57153496D01*
X64465186Y-57103254D01*
X64465188Y-57103252D01*
X64575555Y-57020633D01*
X64641019Y-56996216D01*
X64649866Y-56995900D01*
X67062052Y-56995900D01*
X67129091Y-57015585D01*
X67136363Y-57020633D01*
X67139737Y-57023159D01*
X67139739Y-57023161D01*
X67256796Y-57110789D01*
X67371297Y-57153496D01*
X67388463Y-57159899D01*
X67393799Y-57161889D01*
X67421050Y-57164818D01*
X67454345Y-57168399D01*
X67454362Y-57168400D01*
X69301638Y-57168400D01*
X69301654Y-57168399D01*
X69328692Y-57165491D01*
X69362201Y-57161889D01*
X69367537Y-57159899D01*
X69384703Y-57153496D01*
X69499204Y-57110789D01*
X69616261Y-57023161D01*
X69703889Y-56906104D01*
X69754989Y-56769101D01*
X69761500Y-56708538D01*
X69761500Y-56708529D01*
X69761531Y-56707963D01*
X69761576Y-56707833D01*
X69761856Y-56705235D01*
X69762469Y-56705300D01*
X69784765Y-56642069D01*
X69795126Y-56629521D01*
X69878844Y-56540723D01*
X69984996Y-56428133D01*
X70465668Y-56428133D01*
X70481058Y-56515410D01*
X70496135Y-56600911D01*
X70565623Y-56762004D01*
X70565624Y-56762006D01*
X70565626Y-56762009D01*
X70638055Y-56859297D01*
X70670390Y-56902730D01*
X70804786Y-57015502D01*
X70872460Y-57049489D01*
X70961562Y-57094238D01*
X70961563Y-57094238D01*
X70961567Y-57094240D01*
X71132279Y-57134700D01*
X71132282Y-57134700D01*
X71263701Y-57134700D01*
X71263709Y-57134700D01*
X71394255Y-57119441D01*
X71559117Y-57059437D01*
X71705696Y-56963030D01*
X71826092Y-56835418D01*
X71913812Y-56683481D01*
X71964130Y-56515410D01*
X71974331Y-56340265D01*
X71943865Y-56167489D01*
X71874377Y-56006396D01*
X71871034Y-56001906D01*
X71770557Y-55866942D01*
X71769610Y-55865670D01*
X71724919Y-55828170D01*
X71635214Y-55752898D01*
X71635212Y-55752897D01*
X71478437Y-55674161D01*
X71467391Y-55671543D01*
X71307721Y-55633700D01*
X71176291Y-55633700D01*
X71071854Y-55645907D01*
X71045743Y-55648959D01*
X71045740Y-55648960D01*
X70880884Y-55708962D01*
X70880880Y-55708964D01*
X70734306Y-55805367D01*
X70734305Y-55805368D01*
X70613910Y-55932978D01*
X70548082Y-56046996D01*
X70497515Y-56095212D01*
X70476800Y-56099204D01*
X70485299Y-56108625D01*
X70496624Y-56177571D01*
X70492349Y-56197946D01*
X70475871Y-56252986D01*
X70475869Y-56252994D01*
X70465668Y-56428133D01*
X69984996Y-56428133D01*
X69996002Y-56416459D01*
X69996002Y-56416458D01*
X70030728Y-56376040D01*
X70030785Y-56376089D01*
X70039591Y-56365639D01*
X70090072Y-56315158D01*
X70102461Y-56305235D01*
X70102289Y-56305028D01*
X70108298Y-56300055D01*
X70108303Y-56300053D01*
X70156441Y-56248790D01*
X70177638Y-56227594D01*
X70181979Y-56221997D01*
X70185774Y-56217554D01*
X70204187Y-56197946D01*
X70218217Y-56183006D01*
X70228102Y-56165024D01*
X70238773Y-56148778D01*
X70251349Y-56132567D01*
X70259756Y-56113138D01*
X70304445Y-56059430D01*
X70339715Y-56048302D01*
X70323515Y-56025552D01*
X70318221Y-55965605D01*
X70322531Y-55938392D01*
X70323715Y-55932676D01*
X70324337Y-55930255D01*
X70335500Y-55886782D01*
X70335500Y-55866274D01*
X70337027Y-55846874D01*
X70340235Y-55826621D01*
X70335775Y-55779439D01*
X70335500Y-55773601D01*
X70335500Y-53383851D01*
X70337242Y-53368069D01*
X70336975Y-53368044D01*
X70337707Y-53360288D01*
X70337709Y-53360281D01*
X70335500Y-53289996D01*
X70335500Y-53260017D01*
X70334610Y-53252982D01*
X70334153Y-53247164D01*
X70332665Y-53199795D01*
X70329798Y-53189928D01*
X70326941Y-53180093D01*
X70322997Y-53161049D01*
X70320427Y-53140701D01*
X70302973Y-53096618D01*
X70301098Y-53091142D01*
X70287869Y-53045607D01*
X70277427Y-53027951D01*
X70268869Y-53010482D01*
X70261318Y-52991410D01*
X70255733Y-52983723D01*
X70233448Y-52953052D01*
X70230257Y-52948192D01*
X70206138Y-52907407D01*
X70206129Y-52907397D01*
X70191639Y-52892907D01*
X70179000Y-52878110D01*
X70166942Y-52861513D01*
X70166939Y-52861511D01*
X70166939Y-52861510D01*
X70130416Y-52831296D01*
X70126094Y-52827362D01*
X66908658Y-49609925D01*
X66898732Y-49597535D01*
X66898525Y-49597707D01*
X66893552Y-49591696D01*
X66842306Y-49543573D01*
X66821097Y-49522363D01*
X66815492Y-49518015D01*
X66811046Y-49514218D01*
X66776509Y-49481785D01*
X66776501Y-49481780D01*
X66758540Y-49471906D01*
X66742274Y-49461222D01*
X66726064Y-49448648D01*
X66682571Y-49429827D01*
X66677323Y-49427256D01*
X66635805Y-49404432D01*
X66635804Y-49404431D01*
X66635803Y-49404431D01*
X66615937Y-49399330D01*
X66597538Y-49393030D01*
X66578709Y-49384883D01*
X66578708Y-49384882D01*
X66531902Y-49377469D01*
X66526181Y-49376284D01*
X66480283Y-49364500D01*
X66480282Y-49364500D01*
X66459774Y-49364500D01*
X66440376Y-49362973D01*
X66429769Y-49361293D01*
X66420122Y-49359765D01*
X66420121Y-49359764D01*
X66372939Y-49364225D01*
X66367101Y-49364500D01*
X59747145Y-49364500D01*
X59680106Y-49344815D01*
X59659464Y-49328181D01*
X59316464Y-48985181D01*
X59282979Y-48923858D01*
X59287963Y-48854166D01*
X59329835Y-48798233D01*
X59395299Y-48773816D01*
X59404145Y-48773500D01*
X61708638Y-48773500D01*
X61708654Y-48773499D01*
X61735692Y-48770591D01*
X61769201Y-48766989D01*
X61906204Y-48715889D01*
X62023261Y-48628261D01*
X62110889Y-48511204D01*
X62161989Y-48374201D01*
X62167517Y-48322784D01*
X62168499Y-48313654D01*
X62168500Y-48313637D01*
X62168500Y-47546524D01*
X62188185Y-47479485D01*
X62240989Y-47433730D01*
X62310147Y-47423786D01*
X62369810Y-47449575D01*
X62471143Y-47530386D01*
X62698357Y-47661568D01*
X62942584Y-47757420D01*
X63198370Y-47815802D01*
X63198376Y-47815802D01*
X63198379Y-47815803D01*
X63394500Y-47830500D01*
X63394506Y-47830500D01*
X63525500Y-47830500D01*
X63721620Y-47815803D01*
X63721622Y-47815802D01*
X63721630Y-47815802D01*
X63977416Y-47757420D01*
X64221643Y-47661568D01*
X64221646Y-47661566D01*
X64221647Y-47661566D01*
X64264118Y-47637045D01*
X64332018Y-47620571D01*
X64398045Y-47643423D01*
X64437839Y-47690630D01*
X64479767Y-47777695D01*
X64479768Y-47777697D01*
X64479770Y-47777700D01*
X64479772Y-47777704D01*
X64563864Y-47901044D01*
X64627567Y-47994479D01*
X64806014Y-48186801D01*
X64806018Y-48186804D01*
X64806019Y-48186805D01*
X65011143Y-48350386D01*
X65238357Y-48481568D01*
X65482584Y-48577420D01*
X65738370Y-48635802D01*
X65738376Y-48635802D01*
X65738379Y-48635803D01*
X65934500Y-48650500D01*
X65934506Y-48650500D01*
X66065500Y-48650500D01*
X66261620Y-48635803D01*
X66261622Y-48635802D01*
X66261630Y-48635802D01*
X66517416Y-48577420D01*
X66761643Y-48481568D01*
X66988857Y-48350386D01*
X67193981Y-48186805D01*
X67217617Y-48161332D01*
X67233945Y-48143733D01*
X67372433Y-47994479D01*
X67520228Y-47777704D01*
X67634063Y-47541323D01*
X67659010Y-47460446D01*
X67697579Y-47402189D01*
X67761524Y-47374032D01*
X67830541Y-47384915D01*
X67882717Y-47431383D01*
X67901500Y-47496998D01*
X67901500Y-48248654D01*
X67908011Y-48309202D01*
X67908011Y-48309204D01*
X67932255Y-48374202D01*
X67959111Y-48446204D01*
X68046739Y-48563261D01*
X68163796Y-48650889D01*
X68163795Y-48650889D01*
X68294789Y-48699748D01*
X68344867Y-48734380D01*
X68510282Y-48923858D01*
X68890828Y-49359764D01*
X68893912Y-49363296D01*
X68923172Y-49426744D01*
X68924500Y-49444845D01*
X68924500Y-49543747D01*
X68921327Y-49571619D01*
X68920407Y-49575605D01*
X68920407Y-49575607D01*
X68888520Y-49954424D01*
X68888028Y-49965496D01*
X68888028Y-49965505D01*
X68888231Y-49972574D01*
X68887380Y-49991062D01*
X68886296Y-49999998D01*
X68886296Y-50000002D01*
X68889529Y-50026629D01*
X68889955Y-50032315D01*
X68890195Y-50040648D01*
X68890195Y-50040650D01*
X68890196Y-50040653D01*
X68891276Y-50044975D01*
X68892675Y-50052538D01*
X68907035Y-50170802D01*
X68949909Y-50283851D01*
X68968046Y-50331675D01*
X69058854Y-50463232D01*
X69065786Y-50473274D01*
X69065789Y-50473277D01*
X69194567Y-50587365D01*
X69194568Y-50587365D01*
X69194570Y-50587367D01*
X69346917Y-50667325D01*
X69346919Y-50667325D01*
X69346920Y-50667326D01*
X69513972Y-50708500D01*
X69686028Y-50708500D01*
X69853079Y-50667326D01*
X69853079Y-50667325D01*
X69853083Y-50667325D01*
X70005430Y-50587367D01*
X70134215Y-50473273D01*
X70231954Y-50331675D01*
X70292965Y-50170801D01*
X70313704Y-50000000D01*
X70313296Y-49996643D01*
X70296560Y-49858805D01*
X70292965Y-49829199D01*
X70280173Y-49795473D01*
X70273654Y-49770976D01*
X70272119Y-49761319D01*
X70235490Y-49643121D01*
X70201057Y-49532010D01*
X70195500Y-49495305D01*
X70195500Y-49444845D01*
X70215185Y-49377806D01*
X70226088Y-49363297D01*
X70407591Y-49155388D01*
X70466508Y-49117831D01*
X70536377Y-49118089D01*
X70541305Y-49119668D01*
X71031797Y-49288310D01*
X71079160Y-49317892D01*
X72188181Y-50426913D01*
X72221666Y-50488236D01*
X72224500Y-50514594D01*
X72224500Y-58700936D01*
X72204815Y-58767975D01*
X72152011Y-58813730D01*
X72082853Y-58823674D01*
X72040026Y-58809190D01*
X71878957Y-58719211D01*
X71654170Y-58639788D01*
X71419209Y-58599500D01*
X71419200Y-58599500D01*
X71240503Y-58599500D01*
X71240498Y-58599500D01*
X71062463Y-58614652D01*
X70831751Y-58674724D01*
X70614519Y-58772919D01*
X70614511Y-58772924D01*
X70417006Y-58906413D01*
X70416997Y-58906421D01*
X70244881Y-59071379D01*
X70103123Y-59263050D01*
X70103120Y-59263054D01*
X69995796Y-59475920D01*
X69995793Y-59475926D01*
X69925983Y-59703878D01*
X69895702Y-59940346D01*
X69905819Y-60178528D01*
X69905819Y-60178532D01*
X69956046Y-60411582D01*
X69956046Y-60411583D01*
X70040876Y-60622689D01*
X70047607Y-60692233D01*
X70015671Y-60754377D01*
X69955207Y-60789390D01*
X69916552Y-60792576D01*
X69875500Y-60789500D01*
X69875494Y-60789500D01*
X69744506Y-60789500D01*
X69744500Y-60789500D01*
X69548379Y-60804196D01*
X69548374Y-60804197D01*
X69292597Y-60862576D01*
X69292578Y-60862582D01*
X69048356Y-60958432D01*
X68821143Y-61089614D01*
X68616014Y-61253198D01*
X68437567Y-61445520D01*
X68289768Y-61662302D01*
X68289767Y-61662303D01*
X68175938Y-61898673D01*
X68098606Y-62149376D01*
X68098605Y-62149381D01*
X68098604Y-62149385D01*
X68088197Y-62218432D01*
X68059500Y-62408812D01*
X68059500Y-62671187D01*
X68072411Y-62756841D01*
X68098604Y-62930615D01*
X68098605Y-62930617D01*
X68098606Y-62930623D01*
X68175938Y-63181326D01*
X68289767Y-63417696D01*
X68289768Y-63417697D01*
X68289770Y-63417700D01*
X68289772Y-63417704D01*
X68338126Y-63488626D01*
X68437567Y-63634479D01*
X68616014Y-63826801D01*
X68616018Y-63826804D01*
X68616019Y-63826805D01*
X68670878Y-63870554D01*
X68711018Y-63927741D01*
X68713868Y-63997553D01*
X68678523Y-64057823D01*
X68616204Y-64089416D01*
X68593565Y-64091500D01*
X68361345Y-64091500D01*
X68300797Y-64098011D01*
X68300795Y-64098011D01*
X68163795Y-64149111D01*
X68046739Y-64236739D01*
X67959111Y-64353795D01*
X67908011Y-64490795D01*
X67908011Y-64490797D01*
X67901500Y-64551345D01*
X67901500Y-65303001D01*
X67881815Y-65370040D01*
X67829011Y-65415795D01*
X67759853Y-65425739D01*
X67696297Y-65396714D01*
X67659009Y-65339551D01*
X67634063Y-65258677D01*
X67590680Y-65168591D01*
X67520232Y-65022303D01*
X67520231Y-65022302D01*
X67520230Y-65022301D01*
X67520228Y-65022296D01*
X67372433Y-64805521D01*
X67345657Y-64776663D01*
X67193985Y-64613198D01*
X67116445Y-64551362D01*
X66988857Y-64449614D01*
X66761643Y-64318432D01*
X66517416Y-64222580D01*
X66517411Y-64222578D01*
X66517402Y-64222576D01*
X66299818Y-64172914D01*
X66261630Y-64164198D01*
X66261629Y-64164197D01*
X66261625Y-64164197D01*
X66261620Y-64164196D01*
X66065500Y-64149500D01*
X66065494Y-64149500D01*
X65934506Y-64149500D01*
X65934500Y-64149500D01*
X65738379Y-64164196D01*
X65738374Y-64164197D01*
X65482597Y-64222576D01*
X65482578Y-64222582D01*
X65238363Y-64318429D01*
X65238357Y-64318432D01*
X65195877Y-64342957D01*
X65127977Y-64359427D01*
X65061951Y-64336574D01*
X65022160Y-64289369D01*
X64980232Y-64202303D01*
X64980231Y-64202302D01*
X64980230Y-64202301D01*
X64980228Y-64202296D01*
X64832433Y-63985521D01*
X64742554Y-63888654D01*
X64653985Y-63793198D01*
X64614533Y-63761736D01*
X64448857Y-63629614D01*
X64221643Y-63498432D01*
X63977416Y-63402580D01*
X63977411Y-63402578D01*
X63977402Y-63402576D01*
X63759818Y-63352914D01*
X63721630Y-63344198D01*
X63721629Y-63344197D01*
X63721625Y-63344197D01*
X63721620Y-63344196D01*
X63525500Y-63329500D01*
X63525494Y-63329500D01*
X63394506Y-63329500D01*
X63394500Y-63329500D01*
X63198379Y-63344196D01*
X63198374Y-63344197D01*
X62942585Y-63402579D01*
X62858890Y-63435426D01*
X62789293Y-63441593D01*
X62727410Y-63409155D01*
X62695098Y-63356547D01*
X62641048Y-63181323D01*
X62634063Y-63158677D01*
X62622121Y-63133880D01*
X62520232Y-62922303D01*
X62520231Y-62922302D01*
X62520230Y-62922301D01*
X62520228Y-62922296D01*
X62372433Y-62705521D01*
X62340571Y-62671182D01*
X62193985Y-62513198D01*
X62116445Y-62451362D01*
X61988857Y-62349614D01*
X61761643Y-62218432D01*
X61517416Y-62122580D01*
X61517411Y-62122578D01*
X61517402Y-62122576D01*
X61299818Y-62072914D01*
X61261630Y-62064198D01*
X61261629Y-62064197D01*
X61261625Y-62064197D01*
X61261620Y-62064196D01*
X61065500Y-62049500D01*
X61065494Y-62049500D01*
X60934506Y-62049500D01*
X60934500Y-62049500D01*
X60738379Y-62064196D01*
X60738374Y-62064197D01*
X60482597Y-62122576D01*
X60482578Y-62122582D01*
X60238356Y-62218432D01*
X60011143Y-62349614D01*
X59806014Y-62513198D01*
X59627567Y-62705520D01*
X59592578Y-62756841D01*
X59544952Y-62826694D01*
X59490925Y-62870995D01*
X59421521Y-62879054D01*
X59358779Y-62848311D01*
X59322617Y-62788527D01*
X59318500Y-62756841D01*
X59318500Y-62451362D01*
X59318499Y-62451345D01*
X59313926Y-62408818D01*
X59311989Y-62390799D01*
X59260889Y-62253796D01*
X59173261Y-62136739D01*
X59102921Y-62084083D01*
X59056206Y-62049112D01*
X59056204Y-62049111D01*
X58925207Y-62000251D01*
X58875133Y-61965621D01*
X58530895Y-61571304D01*
X58326088Y-61336702D01*
X58296828Y-61273254D01*
X58295500Y-61255153D01*
X58295500Y-59940346D01*
X59295702Y-59940346D01*
X59305819Y-60178528D01*
X59305819Y-60178532D01*
X59356045Y-60411580D01*
X59412341Y-60551676D01*
X59444936Y-60632790D01*
X59569931Y-60835795D01*
X59727436Y-61014755D01*
X59912920Y-61164523D01*
X60121046Y-61280790D01*
X60238225Y-61322192D01*
X60345829Y-61360211D01*
X60580790Y-61400499D01*
X60580798Y-61400499D01*
X60580800Y-61400500D01*
X60580801Y-61400500D01*
X60759502Y-61400500D01*
X60937536Y-61385347D01*
X60937539Y-61385346D01*
X60937541Y-61385346D01*
X61168249Y-61325275D01*
X61327707Y-61253195D01*
X61385480Y-61227080D01*
X61385481Y-61227078D01*
X61385486Y-61227077D01*
X61583003Y-61093579D01*
X61755118Y-60928621D01*
X61896879Y-60736947D01*
X62004207Y-60524074D01*
X62074016Y-60296123D01*
X62102285Y-60075373D01*
X63745723Y-60075373D01*
X63775881Y-60375160D01*
X63775882Y-60375162D01*
X63845728Y-60668252D01*
X63845733Y-60668266D01*
X63954020Y-60949427D01*
X63954024Y-60949436D01*
X64098825Y-61213665D01*
X64098829Y-61213671D01*
X64206801Y-61360211D01*
X64277554Y-61456238D01*
X64277561Y-61456245D01*
X64487019Y-61672823D01*
X64723478Y-61859553D01*
X64723480Y-61859554D01*
X64723485Y-61859558D01*
X64982730Y-62013109D01*
X65260128Y-62130736D01*
X65550729Y-62210340D01*
X65849347Y-62250500D01*
X65849351Y-62250500D01*
X66075252Y-62250500D01*
X66239164Y-62239526D01*
X66300634Y-62235412D01*
X66595903Y-62175396D01*
X66880537Y-62076560D01*
X67149459Y-61940668D01*
X67397869Y-61770144D01*
X67621333Y-61568032D01*
X67815865Y-61337939D01*
X67977993Y-61083970D01*
X68104823Y-60810658D01*
X68194093Y-60522879D01*
X68244209Y-60225770D01*
X68254277Y-59924631D01*
X68224118Y-59624838D01*
X68154269Y-59331739D01*
X68045977Y-59050566D01*
X67901175Y-58786335D01*
X67722446Y-58543762D01*
X67512980Y-58327176D01*
X67504432Y-58320426D01*
X67276521Y-58140446D01*
X67276517Y-58140443D01*
X67276515Y-58140442D01*
X67017270Y-57986891D01*
X66739872Y-57869264D01*
X66739863Y-57869261D01*
X66449272Y-57789660D01*
X66374616Y-57779620D01*
X66150653Y-57749500D01*
X65924756Y-57749500D01*
X65924748Y-57749500D01*
X65699368Y-57764587D01*
X65699359Y-57764589D01*
X65404094Y-57824604D01*
X65119464Y-57923439D01*
X65119459Y-57923441D01*
X64850546Y-58059328D01*
X64602125Y-58229860D01*
X64378665Y-58431969D01*
X64184132Y-58662064D01*
X64022006Y-58916030D01*
X64022005Y-58916032D01*
X63906842Y-59164205D01*
X63895177Y-59189342D01*
X63895176Y-59189346D01*
X63805907Y-59477118D01*
X63787133Y-59588419D01*
X63755791Y-59774230D01*
X63746249Y-60059654D01*
X63745723Y-60075373D01*
X62102285Y-60075373D01*
X62104298Y-60059654D01*
X62094180Y-59821468D01*
X62083999Y-59774230D01*
X62043954Y-59588419D01*
X61955064Y-59367211D01*
X61955064Y-59367210D01*
X61830069Y-59164205D01*
X61672564Y-58985245D01*
X61487080Y-58835477D01*
X61366247Y-58767975D01*
X61278955Y-58719210D01*
X61054170Y-58639788D01*
X60819209Y-58599500D01*
X60819200Y-58599500D01*
X60640503Y-58599500D01*
X60640498Y-58599500D01*
X60462463Y-58614652D01*
X60231751Y-58674724D01*
X60014519Y-58772919D01*
X60014511Y-58772924D01*
X59817006Y-58906413D01*
X59816997Y-58906421D01*
X59644881Y-59071379D01*
X59503123Y-59263050D01*
X59503120Y-59263054D01*
X59395796Y-59475920D01*
X59395793Y-59475926D01*
X59325983Y-59703878D01*
X59295702Y-59940346D01*
X58295500Y-59940346D01*
X58295500Y-58926664D01*
X58315185Y-58859625D01*
X58367299Y-58814187D01*
X58785688Y-58620021D01*
X58837887Y-58608500D01*
X58923867Y-58608500D01*
X58923872Y-58608500D01*
X59024336Y-58598236D01*
X59187101Y-58544302D01*
X59333040Y-58454285D01*
X59454285Y-58333040D01*
X59544302Y-58187101D01*
X59598236Y-58024336D01*
X59608500Y-57923872D01*
X59608500Y-57376128D01*
X59598236Y-57275664D01*
X59544302Y-57112899D01*
X59544298Y-57112893D01*
X59544297Y-57112890D01*
X59454287Y-56966963D01*
X59454284Y-56966959D01*
X59333040Y-56845715D01*
X59333036Y-56845712D01*
X59187109Y-56755702D01*
X59187103Y-56755699D01*
X59187101Y-56755698D01*
X59024336Y-56701764D01*
X58923879Y-56691500D01*
X58923872Y-56691500D01*
X58076128Y-56691500D01*
X58076120Y-56691500D01*
X57975663Y-56701764D01*
X57812901Y-56755697D01*
X57812890Y-56755702D01*
X57666963Y-56845712D01*
X57666959Y-56845715D01*
X57545715Y-56966959D01*
X57545712Y-56966963D01*
X57455702Y-57112890D01*
X57455697Y-57112901D01*
X57401764Y-57275663D01*
X57391500Y-57376120D01*
X57391500Y-57491071D01*
X57384552Y-57531995D01*
X57213963Y-58019916D01*
X57184601Y-58066664D01*
X57182363Y-58068902D01*
X57178008Y-58074516D01*
X57174218Y-58078953D01*
X57141782Y-58113494D01*
X57141781Y-58113496D01*
X57131900Y-58131468D01*
X57121225Y-58147719D01*
X57108652Y-58163929D01*
X57108649Y-58163933D01*
X57089827Y-58207428D01*
X57087257Y-58212674D01*
X57064430Y-58254197D01*
X57059329Y-58274064D01*
X57053030Y-58292462D01*
X57044884Y-58311287D01*
X57044881Y-58311296D01*
X57037469Y-58358098D01*
X57036284Y-58363820D01*
X57024500Y-58409711D01*
X57024500Y-58430225D01*
X57022973Y-58449624D01*
X57019765Y-58469877D01*
X57024225Y-58517059D01*
X57024500Y-58522897D01*
X57024500Y-61255153D01*
X57004815Y-61322192D01*
X56993912Y-61336702D01*
X56444864Y-61965621D01*
X56394786Y-62000253D01*
X56263796Y-62049110D01*
X56146739Y-62136739D01*
X56059111Y-62253795D01*
X56008011Y-62390795D01*
X56008011Y-62390797D01*
X56001500Y-62451345D01*
X56001500Y-65148654D01*
X56008011Y-65209202D01*
X56008011Y-65209204D01*
X56059111Y-65346204D01*
X56146739Y-65463261D01*
X56263796Y-65550889D01*
X56400799Y-65601989D01*
X56428050Y-65604918D01*
X56461345Y-65608499D01*
X56461362Y-65608500D01*
X57527500Y-65608500D01*
X57594539Y-65628185D01*
X57640294Y-65680989D01*
X57651500Y-65732500D01*
X57651500Y-67313654D01*
X57658010Y-67374201D01*
X57687873Y-67454263D01*
X57692857Y-67523954D01*
X57659373Y-67585278D01*
X57598050Y-67618763D01*
X57528358Y-67613779D01*
X57484010Y-67585278D01*
X56179914Y-66281182D01*
X54783250Y-64884517D01*
X54749765Y-64823194D01*
X54754749Y-64753502D01*
X54777517Y-64715289D01*
X55064684Y-64386347D01*
X55123600Y-64348791D01*
X55144831Y-64344608D01*
X55169201Y-64341989D01*
X55306204Y-64290889D01*
X55423261Y-64203261D01*
X55510889Y-64086204D01*
X55561989Y-63949201D01*
X55565591Y-63915692D01*
X55568499Y-63888654D01*
X55568500Y-63888637D01*
X55568500Y-61191362D01*
X55568499Y-61191345D01*
X55565157Y-61160270D01*
X55561989Y-61130799D01*
X55510889Y-60993796D01*
X55423261Y-60876739D01*
X55306204Y-60789111D01*
X55169203Y-60738011D01*
X55108654Y-60731500D01*
X55108638Y-60731500D01*
X53701014Y-60731500D01*
X53633975Y-60711815D01*
X53588220Y-60659011D01*
X53578276Y-60589853D01*
X53590291Y-60551676D01*
X53604204Y-60524079D01*
X53604207Y-60524074D01*
X53674016Y-60296123D01*
X53704298Y-60059654D01*
X53694180Y-59821468D01*
X53683999Y-59774230D01*
X53643954Y-59588419D01*
X53555064Y-59367211D01*
X53555064Y-59367210D01*
X53430069Y-59164205D01*
X53272564Y-58985245D01*
X53087080Y-58835477D01*
X52966247Y-58767975D01*
X52878955Y-58719210D01*
X52654170Y-58639788D01*
X52419209Y-58599500D01*
X52419200Y-58599500D01*
X52240503Y-58599500D01*
X52240498Y-58599500D01*
X52062463Y-58614652D01*
X51831751Y-58674724D01*
X51614519Y-58772919D01*
X51614511Y-58772924D01*
X51417006Y-58906413D01*
X51416997Y-58906421D01*
X51244881Y-59071379D01*
X51103123Y-59263050D01*
X51103120Y-59263054D01*
X50995796Y-59475920D01*
X50995793Y-59475926D01*
X50925983Y-59703878D01*
X50895702Y-59940346D01*
X50905819Y-60178528D01*
X50905819Y-60178532D01*
X50956046Y-60411582D01*
X50956046Y-60411583D01*
X51040876Y-60622689D01*
X51047607Y-60692233D01*
X51015671Y-60754377D01*
X50955207Y-60789390D01*
X50916552Y-60792576D01*
X50875500Y-60789500D01*
X50875494Y-60789500D01*
X50744506Y-60789500D01*
X50744500Y-60789500D01*
X50548379Y-60804196D01*
X50548374Y-60804197D01*
X50292597Y-60862576D01*
X50292578Y-60862582D01*
X50048356Y-60958432D01*
X49821143Y-61089614D01*
X49616014Y-61253198D01*
X49437567Y-61445520D01*
X49289768Y-61662302D01*
X49289767Y-61662303D01*
X49175938Y-61898673D01*
X49098606Y-62149376D01*
X49098605Y-62149381D01*
X49098604Y-62149385D01*
X49088197Y-62218432D01*
X49059500Y-62408812D01*
X49059500Y-62671187D01*
X49072411Y-62756841D01*
X49098604Y-62930615D01*
X49098605Y-62930617D01*
X49098606Y-62930623D01*
X49175938Y-63181326D01*
X49289767Y-63417696D01*
X49289768Y-63417697D01*
X49289770Y-63417700D01*
X49289772Y-63417704D01*
X49338126Y-63488626D01*
X49437567Y-63634479D01*
X49616014Y-63826801D01*
X49616018Y-63826804D01*
X49616019Y-63826805D01*
X49670878Y-63870554D01*
X49711018Y-63927741D01*
X49713868Y-63997553D01*
X49678523Y-64057823D01*
X49616204Y-64089416D01*
X49593565Y-64091500D01*
X49361345Y-64091500D01*
X49300797Y-64098011D01*
X49300795Y-64098011D01*
X49163795Y-64149111D01*
X49046739Y-64236739D01*
X48959111Y-64353795D01*
X48908011Y-64490795D01*
X48908011Y-64490797D01*
X48901500Y-64551345D01*
X48901500Y-65303001D01*
X48881815Y-65370040D01*
X48829011Y-65415795D01*
X48759853Y-65425739D01*
X48696297Y-65396714D01*
X48659009Y-65339551D01*
X48634063Y-65258677D01*
X48590680Y-65168591D01*
X48520232Y-65022303D01*
X48520231Y-65022302D01*
X48520230Y-65022301D01*
X48520228Y-65022296D01*
X48372433Y-64805521D01*
X48345657Y-64776663D01*
X48193985Y-64613198D01*
X48116445Y-64551362D01*
X47988857Y-64449614D01*
X47761643Y-64318432D01*
X47517416Y-64222580D01*
X47517411Y-64222578D01*
X47517402Y-64222576D01*
X47299818Y-64172914D01*
X47261630Y-64164198D01*
X47261629Y-64164197D01*
X47261625Y-64164197D01*
X47261620Y-64164196D01*
X47065500Y-64149500D01*
X47065494Y-64149500D01*
X46934506Y-64149500D01*
X46934500Y-64149500D01*
X46738379Y-64164196D01*
X46738374Y-64164197D01*
X46482597Y-64222576D01*
X46482578Y-64222582D01*
X46238363Y-64318429D01*
X46238357Y-64318432D01*
X46195877Y-64342957D01*
X46127977Y-64359427D01*
X46061951Y-64336574D01*
X46022160Y-64289369D01*
X45980232Y-64202303D01*
X45980231Y-64202302D01*
X45980230Y-64202301D01*
X45980228Y-64202296D01*
X45832433Y-63985521D01*
X45742554Y-63888654D01*
X45653985Y-63793198D01*
X45614533Y-63761736D01*
X45448857Y-63629614D01*
X45221643Y-63498432D01*
X44977416Y-63402580D01*
X44977411Y-63402578D01*
X44977402Y-63402576D01*
X44759818Y-63352914D01*
X44721630Y-63344198D01*
X44721629Y-63344197D01*
X44721625Y-63344197D01*
X44721620Y-63344196D01*
X44525500Y-63329500D01*
X44525494Y-63329500D01*
X44394506Y-63329500D01*
X44394500Y-63329500D01*
X44198379Y-63344196D01*
X44198374Y-63344197D01*
X43942585Y-63402579D01*
X43858890Y-63435426D01*
X43789293Y-63441593D01*
X43727410Y-63409155D01*
X43695098Y-63356547D01*
X43641048Y-63181323D01*
X43634063Y-63158677D01*
X43622121Y-63133880D01*
X43520232Y-62922303D01*
X43520231Y-62922302D01*
X43520230Y-62922301D01*
X43520228Y-62922296D01*
X43372433Y-62705521D01*
X43340571Y-62671182D01*
X43193985Y-62513198D01*
X43116445Y-62451362D01*
X42988857Y-62349614D01*
X42761643Y-62218432D01*
X42517416Y-62122580D01*
X42517411Y-62122578D01*
X42517402Y-62122576D01*
X42299818Y-62072914D01*
X42261630Y-62064198D01*
X42261629Y-62064197D01*
X42261625Y-62064197D01*
X42261620Y-62064196D01*
X42065500Y-62049500D01*
X42065494Y-62049500D01*
X41934506Y-62049500D01*
X41934500Y-62049500D01*
X41738379Y-62064196D01*
X41738374Y-62064197D01*
X41482597Y-62122576D01*
X41482578Y-62122582D01*
X41238356Y-62218432D01*
X41011143Y-62349614D01*
X40806014Y-62513198D01*
X40627567Y-62705520D01*
X40592578Y-62756841D01*
X40544952Y-62826694D01*
X40490925Y-62870995D01*
X40421521Y-62879054D01*
X40358779Y-62848311D01*
X40322617Y-62788527D01*
X40318500Y-62756841D01*
X40318500Y-62451362D01*
X40318499Y-62451345D01*
X40313926Y-62408818D01*
X40311989Y-62390799D01*
X40260889Y-62253796D01*
X40173261Y-62136739D01*
X40102921Y-62084083D01*
X40056206Y-62049112D01*
X40056204Y-62049111D01*
X39925207Y-62000251D01*
X39875133Y-61965621D01*
X39530895Y-61571304D01*
X39326088Y-61336702D01*
X39296828Y-61273254D01*
X39295500Y-61255153D01*
X39295500Y-59940346D01*
X40295702Y-59940346D01*
X40305819Y-60178528D01*
X40305819Y-60178532D01*
X40356045Y-60411580D01*
X40412341Y-60551676D01*
X40444936Y-60632790D01*
X40569931Y-60835795D01*
X40727436Y-61014755D01*
X40912920Y-61164523D01*
X41121046Y-61280790D01*
X41238225Y-61322192D01*
X41345829Y-61360211D01*
X41580790Y-61400499D01*
X41580798Y-61400499D01*
X41580800Y-61400500D01*
X41580801Y-61400500D01*
X41759502Y-61400500D01*
X41937536Y-61385347D01*
X41937539Y-61385346D01*
X41937541Y-61385346D01*
X42168249Y-61325275D01*
X42327707Y-61253195D01*
X42385480Y-61227080D01*
X42385481Y-61227078D01*
X42385486Y-61227077D01*
X42583003Y-61093579D01*
X42755118Y-60928621D01*
X42896879Y-60736947D01*
X43004207Y-60524074D01*
X43074016Y-60296123D01*
X43102285Y-60075373D01*
X44745723Y-60075373D01*
X44775881Y-60375160D01*
X44775882Y-60375162D01*
X44845728Y-60668252D01*
X44845733Y-60668266D01*
X44954020Y-60949427D01*
X44954024Y-60949436D01*
X45098825Y-61213665D01*
X45098829Y-61213671D01*
X45206801Y-61360211D01*
X45277554Y-61456238D01*
X45277561Y-61456245D01*
X45487019Y-61672823D01*
X45723478Y-61859553D01*
X45723480Y-61859554D01*
X45723485Y-61859558D01*
X45982730Y-62013109D01*
X46260128Y-62130736D01*
X46550729Y-62210340D01*
X46849347Y-62250500D01*
X46849351Y-62250500D01*
X47075252Y-62250500D01*
X47239164Y-62239526D01*
X47300634Y-62235412D01*
X47595903Y-62175396D01*
X47880537Y-62076560D01*
X48149459Y-61940668D01*
X48397869Y-61770144D01*
X48621333Y-61568032D01*
X48815865Y-61337939D01*
X48977993Y-61083970D01*
X49104823Y-60810658D01*
X49194093Y-60522879D01*
X49244209Y-60225770D01*
X49254277Y-59924631D01*
X49224118Y-59624838D01*
X49154269Y-59331739D01*
X49045977Y-59050566D01*
X48901175Y-58786335D01*
X48722446Y-58543762D01*
X48512980Y-58327176D01*
X48504432Y-58320426D01*
X48276521Y-58140446D01*
X48276517Y-58140443D01*
X48276515Y-58140442D01*
X48017270Y-57986891D01*
X47739872Y-57869264D01*
X47739863Y-57869261D01*
X47449272Y-57789660D01*
X47374616Y-57779620D01*
X47150653Y-57749500D01*
X46924756Y-57749500D01*
X46924748Y-57749500D01*
X46699368Y-57764587D01*
X46699359Y-57764589D01*
X46404094Y-57824604D01*
X46119464Y-57923439D01*
X46119459Y-57923441D01*
X45850546Y-58059328D01*
X45602125Y-58229860D01*
X45378665Y-58431969D01*
X45184132Y-58662064D01*
X45022006Y-58916030D01*
X45022005Y-58916032D01*
X44906842Y-59164205D01*
X44895177Y-59189342D01*
X44895176Y-59189346D01*
X44805907Y-59477118D01*
X44787133Y-59588419D01*
X44755791Y-59774230D01*
X44746249Y-60059654D01*
X44745723Y-60075373D01*
X43102285Y-60075373D01*
X43104298Y-60059654D01*
X43094180Y-59821468D01*
X43083999Y-59774230D01*
X43043954Y-59588419D01*
X42955064Y-59367211D01*
X42955064Y-59367210D01*
X42830069Y-59164205D01*
X42672564Y-58985245D01*
X42487080Y-58835477D01*
X42366247Y-58767975D01*
X42278955Y-58719210D01*
X42054170Y-58639788D01*
X41819209Y-58599500D01*
X41819200Y-58599500D01*
X41640503Y-58599500D01*
X41640498Y-58599500D01*
X41462463Y-58614652D01*
X41231751Y-58674724D01*
X41014519Y-58772919D01*
X41014511Y-58772924D01*
X40817006Y-58906413D01*
X40816997Y-58906421D01*
X40644881Y-59071379D01*
X40503123Y-59263050D01*
X40503120Y-59263054D01*
X40395796Y-59475920D01*
X40395793Y-59475926D01*
X40325983Y-59703878D01*
X40295702Y-59940346D01*
X39295500Y-59940346D01*
X39295500Y-58926664D01*
X39315185Y-58859625D01*
X39367299Y-58814187D01*
X39785688Y-58620021D01*
X39837887Y-58608500D01*
X39923867Y-58608500D01*
X39923872Y-58608500D01*
X40024336Y-58598236D01*
X40187101Y-58544302D01*
X40333040Y-58454285D01*
X40454285Y-58333040D01*
X40544302Y-58187101D01*
X40598236Y-58024336D01*
X40608500Y-57923872D01*
X40608500Y-57376128D01*
X40598236Y-57275664D01*
X40544302Y-57112899D01*
X40544298Y-57112893D01*
X40544297Y-57112890D01*
X40454287Y-56966963D01*
X40454284Y-56966959D01*
X40333040Y-56845715D01*
X40333036Y-56845712D01*
X40187109Y-56755702D01*
X40187103Y-56755699D01*
X40187101Y-56755698D01*
X40024336Y-56701764D01*
X39923879Y-56691500D01*
X39923872Y-56691500D01*
X39076128Y-56691500D01*
X39076120Y-56691500D01*
X38975663Y-56701764D01*
X38812901Y-56755697D01*
X38812890Y-56755702D01*
X38666963Y-56845712D01*
X38666959Y-56845715D01*
X38545715Y-56966959D01*
X38545712Y-56966963D01*
X38455702Y-57112890D01*
X38455697Y-57112901D01*
X38401764Y-57275663D01*
X38391500Y-57376120D01*
X38391500Y-57491071D01*
X38384552Y-57531995D01*
X38213963Y-58019916D01*
X38184601Y-58066664D01*
X38182363Y-58068902D01*
X38178008Y-58074516D01*
X38174218Y-58078953D01*
X38141782Y-58113494D01*
X38141781Y-58113496D01*
X38131900Y-58131468D01*
X38121225Y-58147719D01*
X38108652Y-58163929D01*
X38108649Y-58163933D01*
X38089827Y-58207428D01*
X38087257Y-58212674D01*
X38064430Y-58254197D01*
X38059329Y-58274064D01*
X38053030Y-58292462D01*
X38044884Y-58311287D01*
X38044881Y-58311296D01*
X38037469Y-58358098D01*
X38036284Y-58363820D01*
X38024500Y-58409711D01*
X38024500Y-58430225D01*
X38022973Y-58449624D01*
X38019765Y-58469877D01*
X38024225Y-58517059D01*
X38024500Y-58522897D01*
X38024500Y-61255153D01*
X38004815Y-61322192D01*
X37993912Y-61336702D01*
X37717912Y-61652853D01*
X37658995Y-61690410D01*
X37589125Y-61690151D01*
X37530487Y-61652160D01*
X37501698Y-61588497D01*
X37500500Y-61571304D01*
X37500500Y-56428133D01*
X41025668Y-56428133D01*
X41041058Y-56515410D01*
X41056135Y-56600911D01*
X41125623Y-56762004D01*
X41125624Y-56762006D01*
X41125626Y-56762009D01*
X41198055Y-56859297D01*
X41230390Y-56902730D01*
X41364786Y-57015502D01*
X41432460Y-57049489D01*
X41521562Y-57094238D01*
X41521563Y-57094238D01*
X41521567Y-57094240D01*
X41692279Y-57134700D01*
X41692282Y-57134700D01*
X41823701Y-57134700D01*
X41823709Y-57134700D01*
X41954255Y-57119441D01*
X42119117Y-57059437D01*
X42265696Y-56963030D01*
X42386092Y-56835418D01*
X42473812Y-56683481D01*
X42524130Y-56515410D01*
X42524824Y-56503500D01*
X42973100Y-56503500D01*
X42973100Y-56707744D01*
X42979501Y-56767272D01*
X42979503Y-56767279D01*
X43029745Y-56901986D01*
X43029749Y-56901993D01*
X43115909Y-57017087D01*
X43115912Y-57017090D01*
X43231006Y-57103250D01*
X43231013Y-57103254D01*
X43365720Y-57153496D01*
X43365727Y-57153498D01*
X43425255Y-57159899D01*
X43425272Y-57159900D01*
X44098100Y-57159900D01*
X44098100Y-56503500D01*
X42973100Y-56503500D01*
X42524824Y-56503500D01*
X42534331Y-56340265D01*
X42503865Y-56167489D01*
X42434377Y-56006396D01*
X42431034Y-56001906D01*
X42330557Y-55866942D01*
X42329610Y-55865670D01*
X42284919Y-55828170D01*
X42195214Y-55752898D01*
X42195212Y-55752897D01*
X42038437Y-55674161D01*
X42027391Y-55671543D01*
X41867721Y-55633700D01*
X41736291Y-55633700D01*
X41631854Y-55645907D01*
X41605743Y-55648959D01*
X41605740Y-55648960D01*
X41440884Y-55708962D01*
X41440880Y-55708964D01*
X41294306Y-55805367D01*
X41294305Y-55805368D01*
X41173910Y-55932978D01*
X41086188Y-56084918D01*
X41035870Y-56252989D01*
X41035869Y-56252994D01*
X41025668Y-56428133D01*
X37500500Y-56428133D01*
X37500500Y-54623879D01*
X38391500Y-54623879D01*
X38401764Y-54724336D01*
X38455697Y-54887098D01*
X38455702Y-54887109D01*
X38545712Y-55033036D01*
X38545715Y-55033040D01*
X38666959Y-55154284D01*
X38666963Y-55154287D01*
X38812890Y-55244297D01*
X38812893Y-55244298D01*
X38812899Y-55244302D01*
X38975664Y-55298236D01*
X39076128Y-55308500D01*
X39076133Y-55308500D01*
X39923867Y-55308500D01*
X39923872Y-55308500D01*
X40024336Y-55298236D01*
X40187101Y-55244302D01*
X40333040Y-55154285D01*
X40454285Y-55033040D01*
X40544302Y-54887101D01*
X40598236Y-54724336D01*
X40608500Y-54623872D01*
X40608500Y-54076128D01*
X40598236Y-53975664D01*
X40544302Y-53812899D01*
X40544298Y-53812893D01*
X40544297Y-53812890D01*
X40454287Y-53666963D01*
X40454286Y-53666962D01*
X40454285Y-53666960D01*
X40333040Y-53545715D01*
X40333039Y-53545714D01*
X40333038Y-53545713D01*
X40330042Y-53543865D01*
X40293309Y-53509080D01*
X40267239Y-53471556D01*
X40157664Y-53313835D01*
X40135580Y-53247547D01*
X40135500Y-53243085D01*
X40135500Y-52985094D01*
X40137515Y-52962833D01*
X40140811Y-52944769D01*
X40186780Y-52692877D01*
X40192824Y-52671172D01*
X40192965Y-52670801D01*
X40197025Y-52637355D01*
X40197580Y-52633703D01*
X40204673Y-52594841D01*
X40207683Y-52572948D01*
X40207742Y-52572521D01*
X40208976Y-52559263D01*
X40208902Y-52543588D01*
X40209354Y-52535818D01*
X40209383Y-52535578D01*
X40213704Y-52500000D01*
X40192965Y-52329199D01*
X40131954Y-52168325D01*
X40034215Y-52026727D01*
X40034213Y-52026725D01*
X40034210Y-52026722D01*
X39905432Y-51912634D01*
X39753079Y-51832673D01*
X39586028Y-51791500D01*
X39413972Y-51791500D01*
X39246920Y-51832673D01*
X39094567Y-51912634D01*
X38965789Y-52026722D01*
X38965786Y-52026725D01*
X38868045Y-52168326D01*
X38807034Y-52329198D01*
X38786296Y-52499999D01*
X38786296Y-52500001D01*
X38796221Y-52581751D01*
X38796629Y-52586885D01*
X38797348Y-52605915D01*
X38802417Y-52633693D01*
X38802972Y-52637347D01*
X38807033Y-52670795D01*
X38807034Y-52670799D01*
X38807035Y-52670801D01*
X38807180Y-52671184D01*
X38813217Y-52692876D01*
X38860272Y-52950704D01*
X38862485Y-52962827D01*
X38864500Y-52985090D01*
X38864500Y-53243087D01*
X38844815Y-53310126D01*
X38842335Y-53313837D01*
X38706688Y-53509082D01*
X38669958Y-53543865D01*
X38666966Y-53545710D01*
X38666957Y-53545717D01*
X38545715Y-53666959D01*
X38545712Y-53666963D01*
X38455702Y-53812890D01*
X38455697Y-53812901D01*
X38401764Y-53975663D01*
X38391500Y-54076120D01*
X38391500Y-54623879D01*
X37500500Y-54623879D01*
X37500500Y-46732500D01*
X37520185Y-46665461D01*
X37572989Y-46619706D01*
X37624500Y-46608500D01*
X38527500Y-46608500D01*
X38594539Y-46628185D01*
G37*
G04 #@! TD.AperFunction*
G04 #@! TA.AperFunction,Conductor*
G36*
X53046999Y-45835630D02*
G01*
X53053900Y-45842917D01*
X53144103Y-45946242D01*
X53193912Y-46003296D01*
X53223172Y-46066744D01*
X53224500Y-46084845D01*
X53224500Y-46676151D01*
X53222758Y-46691927D01*
X53223026Y-46691953D01*
X53222292Y-46699718D01*
X53224500Y-46769985D01*
X53224500Y-46799983D01*
X53225387Y-46807013D01*
X53225845Y-46812832D01*
X53227334Y-46860203D01*
X53227335Y-46860207D01*
X53233057Y-46879905D01*
X53237000Y-46898946D01*
X53239571Y-46919288D01*
X53239574Y-46919303D01*
X53257016Y-46963359D01*
X53258907Y-46968883D01*
X53272130Y-47014391D01*
X53282570Y-47032044D01*
X53291128Y-47049514D01*
X53298679Y-47068585D01*
X53298682Y-47068591D01*
X53326542Y-47106936D01*
X53329749Y-47111819D01*
X53353866Y-47152598D01*
X53353870Y-47152602D01*
X53368364Y-47167096D01*
X53380996Y-47181885D01*
X53393058Y-47198487D01*
X53429575Y-47228696D01*
X53433886Y-47232618D01*
X53731652Y-47530385D01*
X53807620Y-47606353D01*
X53821937Y-47623519D01*
X54034654Y-47931209D01*
X54048257Y-47949152D01*
X54051731Y-47953339D01*
X54055035Y-47957701D01*
X54065782Y-47973269D01*
X54065785Y-47973273D01*
X54089722Y-47994479D01*
X54111517Y-48013788D01*
X54114041Y-48016153D01*
X54127742Y-48029727D01*
X54133629Y-48034302D01*
X54133468Y-48034508D01*
X54141803Y-48040619D01*
X54194567Y-48087365D01*
X54194568Y-48087365D01*
X54194570Y-48087367D01*
X54346917Y-48167325D01*
X54346919Y-48167325D01*
X54346920Y-48167326D01*
X54513972Y-48208500D01*
X54686027Y-48208500D01*
X54686028Y-48208500D01*
X54710824Y-48202388D01*
X54780624Y-48205455D01*
X54837687Y-48245773D01*
X54863894Y-48310542D01*
X54864500Y-48322784D01*
X54864500Y-51266151D01*
X54862758Y-51281927D01*
X54863026Y-51281953D01*
X54862292Y-51289718D01*
X54864500Y-51359985D01*
X54864500Y-51389983D01*
X54865387Y-51397013D01*
X54865845Y-51402832D01*
X54867334Y-51450203D01*
X54867335Y-51450207D01*
X54873057Y-51469905D01*
X54877000Y-51488946D01*
X54879571Y-51509288D01*
X54879574Y-51509303D01*
X54897016Y-51553359D01*
X54898907Y-51558883D01*
X54912130Y-51604391D01*
X54922570Y-51622044D01*
X54931128Y-51639514D01*
X54938679Y-51658585D01*
X54938682Y-51658591D01*
X54966542Y-51696936D01*
X54969749Y-51701819D01*
X54993866Y-51742598D01*
X54993870Y-51742602D01*
X55008363Y-51757095D01*
X55021001Y-51771892D01*
X55033057Y-51788487D01*
X55069576Y-51818697D01*
X55073888Y-51822620D01*
X56129378Y-52878110D01*
X57184593Y-53933325D01*
X57213964Y-53980082D01*
X57384552Y-54468002D01*
X57391500Y-54508926D01*
X57391500Y-54623884D01*
X57391911Y-54627899D01*
X57379141Y-54696592D01*
X57331260Y-54747476D01*
X57268553Y-54764500D01*
X56483847Y-54764500D01*
X56468067Y-54762758D01*
X56468042Y-54763026D01*
X56460281Y-54762292D01*
X56390015Y-54764500D01*
X56360013Y-54764500D01*
X56352973Y-54765388D01*
X56347160Y-54765845D01*
X56299800Y-54767334D01*
X56299794Y-54767335D01*
X56280093Y-54773058D01*
X56261054Y-54777000D01*
X56240711Y-54779571D01*
X56240703Y-54779572D01*
X56240701Y-54779573D01*
X56240699Y-54779573D01*
X56240693Y-54779575D01*
X56196645Y-54797014D01*
X56191122Y-54798905D01*
X56145609Y-54812130D01*
X56145607Y-54812130D01*
X56145607Y-54812131D01*
X56127948Y-54822573D01*
X56110483Y-54831129D01*
X56091415Y-54838678D01*
X56091411Y-54838681D01*
X56053072Y-54866534D01*
X56048192Y-54869740D01*
X56007400Y-54893865D01*
X55992898Y-54908368D01*
X55978108Y-54921000D01*
X55961515Y-54933055D01*
X55961512Y-54933058D01*
X55931301Y-54969576D01*
X55927368Y-54973897D01*
X54888281Y-56012986D01*
X53873086Y-57028181D01*
X53811763Y-57061666D01*
X53785405Y-57064500D01*
X52897429Y-57064500D01*
X52830390Y-57044815D01*
X52784635Y-56992011D01*
X52774691Y-56922853D01*
X52803716Y-56859297D01*
X52807235Y-56855405D01*
X52816380Y-56845712D01*
X52826092Y-56835418D01*
X52913812Y-56683481D01*
X52964130Y-56515410D01*
X52974331Y-56340265D01*
X52943865Y-56167489D01*
X52874377Y-56006396D01*
X52871034Y-56001906D01*
X52770557Y-55866942D01*
X52769610Y-55865670D01*
X52724919Y-55828170D01*
X52635214Y-55752898D01*
X52635212Y-55752897D01*
X52478437Y-55674161D01*
X52467391Y-55671543D01*
X52307721Y-55633700D01*
X52176291Y-55633700D01*
X52071854Y-55645907D01*
X52045743Y-55648959D01*
X52045740Y-55648960D01*
X51880884Y-55708962D01*
X51880880Y-55708964D01*
X51734306Y-55805367D01*
X51734305Y-55805368D01*
X51613910Y-55932978D01*
X51526188Y-56084918D01*
X51475870Y-56252989D01*
X51475869Y-56252994D01*
X51465668Y-56428133D01*
X51481058Y-56515410D01*
X51496135Y-56600911D01*
X51565623Y-56762004D01*
X51565624Y-56762006D01*
X51565626Y-56762009D01*
X51643382Y-56866452D01*
X51667626Y-56931981D01*
X51652594Y-57000214D01*
X51603058Y-57049489D01*
X51543919Y-57064500D01*
X51139094Y-57064500D01*
X51072055Y-57044815D01*
X51051413Y-57028181D01*
X50797819Y-56774586D01*
X50764334Y-56713263D01*
X50761500Y-56686905D01*
X50761500Y-56683455D01*
X50761501Y-56683409D01*
X50761521Y-56682949D01*
X50761519Y-56682929D01*
X50761500Y-56681154D01*
X50761500Y-55798462D01*
X50761499Y-55798445D01*
X50758157Y-55767370D01*
X50754989Y-55737899D01*
X50744196Y-55708963D01*
X50717565Y-55637562D01*
X50703889Y-55600896D01*
X50687131Y-55578510D01*
X50662714Y-55513048D01*
X50677565Y-55444775D01*
X50687132Y-55429888D01*
X50703889Y-55407504D01*
X50754989Y-55270501D01*
X50758591Y-55236992D01*
X50761499Y-55209954D01*
X50761500Y-55209937D01*
X50761500Y-54566574D01*
X50764195Y-54540864D01*
X50765925Y-54532700D01*
X50765926Y-54532694D01*
X50768888Y-54487875D01*
X50770641Y-54461345D01*
X50794703Y-54395753D01*
X50806684Y-54381850D01*
X51054581Y-54133952D01*
X51081137Y-54113747D01*
X51597180Y-53821437D01*
X51616875Y-53809693D01*
X51616878Y-53809689D01*
X51619139Y-53808342D01*
X51625672Y-53804954D01*
X51656752Y-53791118D01*
X51811253Y-53678866D01*
X51939040Y-53536944D01*
X52034527Y-53371556D01*
X52093542Y-53189928D01*
X52113504Y-53000000D01*
X52093542Y-52810072D01*
X52034527Y-52628444D01*
X51939040Y-52463056D01*
X51811253Y-52321134D01*
X51656752Y-52208882D01*
X51482288Y-52131206D01*
X51482286Y-52131205D01*
X51295487Y-52091500D01*
X51104513Y-52091500D01*
X50917714Y-52131205D01*
X50743246Y-52208883D01*
X50588745Y-52321135D01*
X50460958Y-52463057D01*
X50460956Y-52463060D01*
X50387384Y-52590490D01*
X50382739Y-52597415D01*
X50378566Y-52602812D01*
X50378565Y-52602814D01*
X50378564Y-52602816D01*
X50327549Y-52692877D01*
X50086249Y-53118860D01*
X50066037Y-53145425D01*
X49722522Y-53488940D01*
X49693646Y-53510429D01*
X49269834Y-53738718D01*
X49132119Y-53812899D01*
X49109338Y-53825170D01*
X49050533Y-53840000D01*
X48454345Y-53840000D01*
X48393797Y-53846511D01*
X48393795Y-53846511D01*
X48256795Y-53897611D01*
X48223735Y-53922360D01*
X48142238Y-53983367D01*
X48076777Y-54007784D01*
X48067930Y-54008100D01*
X45689993Y-54008100D01*
X45622954Y-53988415D01*
X45577199Y-53935611D01*
X45567255Y-53866453D01*
X45596280Y-53802897D01*
X45602312Y-53796419D01*
X47372009Y-52026722D01*
X49267075Y-50131656D01*
X49279458Y-50121738D01*
X49279286Y-50121530D01*
X49285292Y-50116559D01*
X49285303Y-50116553D01*
X49333426Y-50065306D01*
X49354639Y-50044094D01*
X49358993Y-50038479D01*
X49362768Y-50034058D01*
X49395217Y-49999506D01*
X49405094Y-49981537D01*
X49415779Y-49965272D01*
X49428350Y-49949067D01*
X49447183Y-49905543D01*
X49449732Y-49900341D01*
X49472569Y-49858803D01*
X49477670Y-49838930D01*
X49483969Y-49820534D01*
X49492117Y-49801708D01*
X49498483Y-49761510D01*
X49499530Y-49754902D01*
X49500715Y-49749178D01*
X49501137Y-49747531D01*
X49512500Y-49703282D01*
X49512500Y-49682774D01*
X49514027Y-49663374D01*
X49517235Y-49643121D01*
X49512775Y-49595939D01*
X49512500Y-49590101D01*
X49512500Y-48832500D01*
X49532185Y-48765461D01*
X49584989Y-48719706D01*
X49636500Y-48708500D01*
X51758638Y-48708500D01*
X51758654Y-48708499D01*
X51785692Y-48705591D01*
X51819201Y-48701989D01*
X51956204Y-48650889D01*
X52073261Y-48563261D01*
X52160889Y-48446204D01*
X52210334Y-48313638D01*
X52211988Y-48309204D01*
X52211988Y-48309203D01*
X52211989Y-48309201D01*
X52215591Y-48275692D01*
X52218499Y-48248654D01*
X52218500Y-48248637D01*
X52218500Y-47297522D01*
X52227064Y-47252240D01*
X52234757Y-47232629D01*
X52751415Y-45915536D01*
X52794221Y-45860317D01*
X52821977Y-45845225D01*
X52915617Y-45808874D01*
X52985236Y-45802963D01*
X53046999Y-45835630D01*
G37*
G04 #@! TD.AperFunction*
G04 #@! TA.AperFunction,Conductor*
G36*
X42718443Y-31020185D02*
G01*
X42764198Y-31072989D01*
X42774142Y-31142147D01*
X42745117Y-31205703D01*
X42739085Y-31212181D01*
X39895960Y-34055305D01*
X39860478Y-34080102D01*
X39214308Y-34379978D01*
X39162109Y-34391500D01*
X39076120Y-34391500D01*
X38975663Y-34401764D01*
X38812901Y-34455697D01*
X38812890Y-34455702D01*
X38666963Y-34545712D01*
X38666959Y-34545715D01*
X38545715Y-34666959D01*
X38545712Y-34666963D01*
X38455702Y-34812890D01*
X38455697Y-34812901D01*
X38401764Y-34975663D01*
X38391500Y-35076120D01*
X38391500Y-35623879D01*
X38401764Y-35724336D01*
X38455697Y-35887098D01*
X38455702Y-35887109D01*
X38545712Y-36033036D01*
X38545715Y-36033040D01*
X38666959Y-36154284D01*
X38666963Y-36154287D01*
X38812890Y-36244297D01*
X38812893Y-36244298D01*
X38812899Y-36244302D01*
X38975664Y-36298236D01*
X39076128Y-36308500D01*
X39076133Y-36308500D01*
X39923867Y-36308500D01*
X39923872Y-36308500D01*
X40024336Y-36298236D01*
X40187101Y-36244302D01*
X40333040Y-36154285D01*
X40454285Y-36033040D01*
X40544302Y-35887101D01*
X40598236Y-35724336D01*
X40608500Y-35623872D01*
X40608500Y-35508923D01*
X40615448Y-35467999D01*
X40638315Y-35402595D01*
X40786036Y-34980078D01*
X40815403Y-34933327D01*
X43576913Y-32171819D01*
X43638236Y-32138334D01*
X43664594Y-32135500D01*
X46273202Y-32135500D01*
X46340241Y-32155185D01*
X46385996Y-32207989D01*
X46395940Y-32277147D01*
X46366915Y-32340703D01*
X46360884Y-32347179D01*
X45131076Y-33576987D01*
X43904382Y-34803681D01*
X43843059Y-34837166D01*
X43816701Y-34840000D01*
X43424445Y-34840000D01*
X43363897Y-34846511D01*
X43363895Y-34846511D01*
X43226895Y-34897611D01*
X43109839Y-34985239D01*
X43022211Y-35102295D01*
X42971111Y-35239295D01*
X42971111Y-35239297D01*
X42964600Y-35299845D01*
X42964600Y-36209954D01*
X42971111Y-36270502D01*
X42971111Y-36270504D01*
X43022211Y-36407504D01*
X43038967Y-36429888D01*
X43044276Y-36436979D01*
X43068693Y-36502443D01*
X43053842Y-36570716D01*
X43044278Y-36585598D01*
X43029748Y-36605008D01*
X43029745Y-36605013D01*
X42979503Y-36739720D01*
X42979501Y-36739727D01*
X42973100Y-36799255D01*
X42973100Y-37003500D01*
X44474100Y-37003500D01*
X44541139Y-37023185D01*
X44586894Y-37075989D01*
X44598100Y-37127500D01*
X44598100Y-38159900D01*
X45270928Y-38159900D01*
X45270944Y-38159899D01*
X45330472Y-38153498D01*
X45330479Y-38153496D01*
X45465186Y-38103254D01*
X45465188Y-38103252D01*
X45575555Y-38020633D01*
X45641019Y-37996216D01*
X45649866Y-37995900D01*
X48062052Y-37995900D01*
X48129091Y-38015585D01*
X48136363Y-38020633D01*
X48139737Y-38023159D01*
X48139739Y-38023161D01*
X48256796Y-38110789D01*
X48371297Y-38153496D01*
X48388463Y-38159899D01*
X48393799Y-38161889D01*
X48421050Y-38164818D01*
X48454345Y-38168399D01*
X48454362Y-38168400D01*
X48618500Y-38168400D01*
X48685539Y-38188085D01*
X48731294Y-38240889D01*
X48742500Y-38292400D01*
X48742500Y-39257914D01*
X48722815Y-39324953D01*
X48670011Y-39370708D01*
X48600853Y-39380652D01*
X48537297Y-39351627D01*
X48529368Y-39344120D01*
X48512981Y-39327177D01*
X48276521Y-39140446D01*
X48276517Y-39140443D01*
X48276515Y-39140442D01*
X48017270Y-38986891D01*
X47739872Y-38869264D01*
X47739863Y-38869261D01*
X47449272Y-38789660D01*
X47374616Y-38779620D01*
X47150653Y-38749500D01*
X46924756Y-38749500D01*
X46924748Y-38749500D01*
X46699368Y-38764587D01*
X46699359Y-38764589D01*
X46404094Y-38824604D01*
X46119464Y-38923439D01*
X46119459Y-38923441D01*
X45850546Y-39059328D01*
X45602125Y-39229860D01*
X45378665Y-39431969D01*
X45184132Y-39662064D01*
X45022006Y-39916030D01*
X45022005Y-39916032D01*
X44906842Y-40164205D01*
X44895177Y-40189342D01*
X44895176Y-40189346D01*
X44805907Y-40477118D01*
X44787133Y-40588419D01*
X44755791Y-40774230D01*
X44746249Y-41059654D01*
X44745723Y-41075373D01*
X44775881Y-41375160D01*
X44775882Y-41375162D01*
X44845728Y-41668252D01*
X44845733Y-41668266D01*
X44954020Y-41949427D01*
X44954024Y-41949436D01*
X45098825Y-42213665D01*
X45098829Y-42213671D01*
X45206801Y-42360211D01*
X45277554Y-42456238D01*
X45277561Y-42456245D01*
X45487019Y-42672823D01*
X45723478Y-42859553D01*
X45723480Y-42859554D01*
X45723485Y-42859558D01*
X45982730Y-43013109D01*
X46260128Y-43130736D01*
X46550729Y-43210340D01*
X46849347Y-43250500D01*
X46849351Y-43250500D01*
X47075252Y-43250500D01*
X47239164Y-43239526D01*
X47300634Y-43235412D01*
X47595903Y-43175396D01*
X47880537Y-43076560D01*
X48031544Y-43000253D01*
X48061575Y-42985078D01*
X48130287Y-42972411D01*
X48194939Y-42998904D01*
X48235005Y-43056144D01*
X48241500Y-43095750D01*
X48241500Y-45393601D01*
X48221815Y-45460640D01*
X48169011Y-45506395D01*
X48099853Y-45516339D01*
X48040188Y-45490549D01*
X47988856Y-45449613D01*
X47761643Y-45318432D01*
X47687592Y-45289369D01*
X47517416Y-45222580D01*
X47517411Y-45222578D01*
X47517402Y-45222576D01*
X47299818Y-45172914D01*
X47261630Y-45164198D01*
X47261629Y-45164197D01*
X47261625Y-45164197D01*
X47261620Y-45164196D01*
X47065500Y-45149500D01*
X47065494Y-45149500D01*
X46934506Y-45149500D01*
X46934500Y-45149500D01*
X46738379Y-45164196D01*
X46738374Y-45164197D01*
X46482597Y-45222576D01*
X46482578Y-45222582D01*
X46238363Y-45318429D01*
X46238357Y-45318432D01*
X46195877Y-45342957D01*
X46127977Y-45359427D01*
X46061951Y-45336574D01*
X46022160Y-45289369D01*
X45980232Y-45202303D01*
X45980231Y-45202302D01*
X45980230Y-45202301D01*
X45980228Y-45202296D01*
X45832433Y-44985521D01*
X45742554Y-44888654D01*
X45653985Y-44793198D01*
X45614533Y-44761736D01*
X45448857Y-44629614D01*
X45221643Y-44498432D01*
X44977416Y-44402580D01*
X44977411Y-44402578D01*
X44977402Y-44402576D01*
X44759818Y-44352914D01*
X44721630Y-44344198D01*
X44721629Y-44344197D01*
X44721625Y-44344197D01*
X44721620Y-44344196D01*
X44525500Y-44329500D01*
X44525494Y-44329500D01*
X44394506Y-44329500D01*
X44394500Y-44329500D01*
X44198379Y-44344196D01*
X44198374Y-44344197D01*
X43942585Y-44402579D01*
X43858890Y-44435426D01*
X43789293Y-44441593D01*
X43727410Y-44409155D01*
X43695098Y-44356547D01*
X43641048Y-44181323D01*
X43634063Y-44158677D01*
X43622121Y-44133880D01*
X43520232Y-43922303D01*
X43520231Y-43922302D01*
X43520230Y-43922301D01*
X43520228Y-43922296D01*
X43372433Y-43705521D01*
X43340571Y-43671182D01*
X43193985Y-43513198D01*
X43116445Y-43451362D01*
X42988857Y-43349614D01*
X42761643Y-43218432D01*
X42517416Y-43122580D01*
X42517411Y-43122578D01*
X42517402Y-43122576D01*
X42299818Y-43072914D01*
X42261630Y-43064198D01*
X42261629Y-43064197D01*
X42261625Y-43064197D01*
X42261620Y-43064196D01*
X42065500Y-43049500D01*
X42065494Y-43049500D01*
X41934506Y-43049500D01*
X41934500Y-43049500D01*
X41738379Y-43064196D01*
X41738374Y-43064197D01*
X41482597Y-43122576D01*
X41482578Y-43122582D01*
X41238356Y-43218432D01*
X41011143Y-43349614D01*
X40806014Y-43513198D01*
X40627567Y-43705520D01*
X40592578Y-43756841D01*
X40544952Y-43826694D01*
X40490925Y-43870995D01*
X40421521Y-43879054D01*
X40358779Y-43848311D01*
X40322617Y-43788527D01*
X40318500Y-43756841D01*
X40318500Y-43451362D01*
X40318499Y-43451345D01*
X40313926Y-43408818D01*
X40311989Y-43390799D01*
X40260889Y-43253796D01*
X40173261Y-43136739D01*
X40102921Y-43084083D01*
X40056206Y-43049112D01*
X40056204Y-43049111D01*
X39925207Y-43000251D01*
X39875133Y-42965621D01*
X39530895Y-42571304D01*
X39326088Y-42336702D01*
X39296828Y-42273254D01*
X39295500Y-42255153D01*
X39295500Y-40940346D01*
X40295702Y-40940346D01*
X40305819Y-41178528D01*
X40305819Y-41178532D01*
X40356045Y-41411580D01*
X40412341Y-41551676D01*
X40444936Y-41632790D01*
X40569931Y-41835795D01*
X40727436Y-42014755D01*
X40912920Y-42164523D01*
X41121046Y-42280790D01*
X41238225Y-42322192D01*
X41345829Y-42360211D01*
X41580790Y-42400499D01*
X41580798Y-42400499D01*
X41580800Y-42400500D01*
X41580801Y-42400500D01*
X41759502Y-42400500D01*
X41937536Y-42385347D01*
X41937539Y-42385346D01*
X41937541Y-42385346D01*
X42168249Y-42325275D01*
X42327707Y-42253195D01*
X42385480Y-42227080D01*
X42385481Y-42227078D01*
X42385486Y-42227077D01*
X42583003Y-42093579D01*
X42755118Y-41928621D01*
X42896879Y-41736947D01*
X43004207Y-41524074D01*
X43074016Y-41296123D01*
X43104298Y-41059654D01*
X43103651Y-41044432D01*
X43094180Y-40821471D01*
X43094180Y-40821467D01*
X43043954Y-40588419D01*
X42955064Y-40367211D01*
X42955064Y-40367210D01*
X42830069Y-40164205D01*
X42672564Y-39985245D01*
X42487080Y-39835477D01*
X42373130Y-39771820D01*
X42278955Y-39719210D01*
X42054170Y-39639788D01*
X41819209Y-39599500D01*
X41819200Y-39599500D01*
X41640503Y-39599500D01*
X41640498Y-39599500D01*
X41462463Y-39614652D01*
X41231751Y-39674724D01*
X41014519Y-39772919D01*
X41014511Y-39772924D01*
X40817006Y-39906413D01*
X40816997Y-39906421D01*
X40644881Y-40071379D01*
X40503123Y-40263050D01*
X40503120Y-40263054D01*
X40395796Y-40475920D01*
X40395793Y-40475926D01*
X40325983Y-40703878D01*
X40295702Y-40940346D01*
X39295500Y-40940346D01*
X39295500Y-39926664D01*
X39315185Y-39859625D01*
X39367299Y-39814187D01*
X39785688Y-39620021D01*
X39837887Y-39608500D01*
X39923867Y-39608500D01*
X39923872Y-39608500D01*
X40024336Y-39598236D01*
X40187101Y-39544302D01*
X40333040Y-39454285D01*
X40454285Y-39333040D01*
X40544302Y-39187101D01*
X40598236Y-39024336D01*
X40608500Y-38923872D01*
X40608500Y-38376128D01*
X40598236Y-38275664D01*
X40544302Y-38112899D01*
X40544298Y-38112893D01*
X40544297Y-38112890D01*
X40454287Y-37966963D01*
X40454284Y-37966959D01*
X40333040Y-37845715D01*
X40333036Y-37845712D01*
X40187109Y-37755702D01*
X40187103Y-37755699D01*
X40187101Y-37755698D01*
X40024336Y-37701764D01*
X39923879Y-37691500D01*
X39923872Y-37691500D01*
X39076128Y-37691500D01*
X39076120Y-37691500D01*
X38975663Y-37701764D01*
X38812901Y-37755697D01*
X38812890Y-37755702D01*
X38666963Y-37845712D01*
X38666959Y-37845715D01*
X38545715Y-37966959D01*
X38545712Y-37966963D01*
X38455702Y-38112890D01*
X38455697Y-38112901D01*
X38401764Y-38275663D01*
X38391500Y-38376120D01*
X38391500Y-38491071D01*
X38384552Y-38531995D01*
X38213963Y-39019916D01*
X38184601Y-39066664D01*
X38182363Y-39068902D01*
X38178008Y-39074516D01*
X38174218Y-39078953D01*
X38141782Y-39113494D01*
X38141781Y-39113496D01*
X38131900Y-39131468D01*
X38121225Y-39147719D01*
X38108652Y-39163929D01*
X38108649Y-39163933D01*
X38089827Y-39207428D01*
X38087257Y-39212674D01*
X38064430Y-39254197D01*
X38059329Y-39274064D01*
X38053030Y-39292462D01*
X38044884Y-39311287D01*
X38044881Y-39311296D01*
X38037469Y-39358098D01*
X38036284Y-39363820D01*
X38024500Y-39409711D01*
X38024500Y-39430225D01*
X38022973Y-39449624D01*
X38019765Y-39469877D01*
X38024225Y-39517059D01*
X38024500Y-39522897D01*
X38024500Y-42255153D01*
X38004815Y-42322192D01*
X37993912Y-42336702D01*
X37717912Y-42652853D01*
X37658995Y-42690410D01*
X37589125Y-42690151D01*
X37530487Y-42652160D01*
X37501698Y-42588497D01*
X37500500Y-42571304D01*
X37500500Y-37428133D01*
X41025668Y-37428133D01*
X41048962Y-37560232D01*
X41056135Y-37600911D01*
X41125623Y-37762004D01*
X41125624Y-37762006D01*
X41125626Y-37762009D01*
X41229836Y-37901986D01*
X41230390Y-37902730D01*
X41364786Y-38015502D01*
X41442488Y-38054525D01*
X41521562Y-38094238D01*
X41521563Y-38094238D01*
X41521567Y-38094240D01*
X41692279Y-38134700D01*
X41692282Y-38134700D01*
X41823701Y-38134700D01*
X41823709Y-38134700D01*
X41954255Y-38119441D01*
X42119117Y-38059437D01*
X42265696Y-37963030D01*
X42386092Y-37835418D01*
X42473812Y-37683481D01*
X42524130Y-37515410D01*
X42524824Y-37503500D01*
X42973100Y-37503500D01*
X42973100Y-37707744D01*
X42979501Y-37767272D01*
X42979503Y-37767279D01*
X43029745Y-37901986D01*
X43029749Y-37901993D01*
X43115909Y-38017087D01*
X43115912Y-38017090D01*
X43231006Y-38103250D01*
X43231013Y-38103254D01*
X43365720Y-38153496D01*
X43365727Y-38153498D01*
X43425255Y-38159899D01*
X43425272Y-38159900D01*
X44098100Y-38159900D01*
X44098100Y-37503500D01*
X42973100Y-37503500D01*
X42524824Y-37503500D01*
X42534331Y-37340265D01*
X42503865Y-37167489D01*
X42434377Y-37006396D01*
X42418803Y-36985477D01*
X42363905Y-36911736D01*
X42329610Y-36865670D01*
X42257747Y-36805370D01*
X42195214Y-36752898D01*
X42195212Y-36752897D01*
X42038437Y-36674161D01*
X42027391Y-36671543D01*
X41867721Y-36633700D01*
X41736291Y-36633700D01*
X41631854Y-36645907D01*
X41605743Y-36648959D01*
X41605740Y-36648960D01*
X41440884Y-36708962D01*
X41440880Y-36708964D01*
X41294306Y-36805367D01*
X41294305Y-36805368D01*
X41173910Y-36932978D01*
X41086188Y-37084918D01*
X41035870Y-37252989D01*
X41035869Y-37252994D01*
X41025668Y-37428133D01*
X37500500Y-37428133D01*
X37500500Y-31124500D01*
X37520185Y-31057461D01*
X37572989Y-31011706D01*
X37624500Y-31000500D01*
X42651404Y-31000500D01*
X42718443Y-31020185D01*
G37*
G04 #@! TD.AperFunction*
G04 #@! TA.AperFunction,Conductor*
G36*
X57789955Y-61503427D02*
G01*
X57790496Y-61504005D01*
X58653694Y-62492777D01*
X58656553Y-62501264D01*
X58654156Y-62507602D01*
X57669276Y-63788931D01*
X57661518Y-63793402D01*
X57652870Y-63791077D01*
X57650724Y-63788931D01*
X56665843Y-62507602D01*
X56663518Y-62498954D01*
X56666304Y-62492778D01*
X57529504Y-61504005D01*
X57537526Y-61500027D01*
X57538318Y-61500000D01*
X57781682Y-61500000D01*
X57789955Y-61503427D01*
G37*
G04 #@! TD.AperFunction*
G04 #@! TA.AperFunction,Conductor*
G36*
X39629154Y-53453427D02*
G01*
X39630490Y-53455024D01*
X39944329Y-53906756D01*
X39946235Y-53915506D01*
X39942862Y-53921834D01*
X39508142Y-54343109D01*
X39499816Y-54346406D01*
X39491858Y-54343109D01*
X39057137Y-53921834D01*
X39053580Y-53913616D01*
X39055669Y-53906757D01*
X39369510Y-53455024D01*
X39377045Y-53450185D01*
X39379119Y-53450000D01*
X39620881Y-53450000D01*
X39629154Y-53453427D01*
G37*
G04 #@! TD.AperFunction*
G04 #@! TA.AperFunction,Conductor*
G36*
X49386263Y-37260783D02*
G01*
X49386283Y-37260803D01*
X49777535Y-37653018D01*
X49780952Y-37661295D01*
X49778893Y-37667909D01*
X49508487Y-38061228D01*
X49500976Y-38066104D01*
X49498846Y-38066300D01*
X49257154Y-38066300D01*
X49248881Y-38062873D01*
X49247513Y-38061228D01*
X48977106Y-37667909D01*
X48975243Y-37659151D01*
X48978462Y-37653020D01*
X49369717Y-37260802D01*
X49377986Y-37257366D01*
X49386263Y-37260783D01*
G37*
G04 #@! TD.AperFunction*
G04 #@! TA.AperFunction,Conductor*
G36*
X54086043Y-33709930D02*
G01*
X54094298Y-33713398D01*
X54097684Y-33721689D01*
X54097494Y-33723731D01*
X54028752Y-34100401D01*
X54023895Y-34107924D01*
X54017242Y-34110000D01*
X53782758Y-34110000D01*
X53774485Y-34106573D01*
X53771248Y-34100401D01*
X53702505Y-33723728D01*
X53704391Y-33714977D01*
X53711914Y-33710120D01*
X53713953Y-33709930D01*
X53900000Y-33709000D01*
X54086043Y-33709930D01*
G37*
G04 #@! TD.AperFunction*
G04 #@! TA.AperFunction,Conductor*
G36*
X44414921Y-53922041D02*
G01*
X44415350Y-53922449D01*
X44586253Y-54093352D01*
X44833233Y-54339381D01*
X44836676Y-54347647D01*
X44833265Y-54355927D01*
X44832408Y-54356706D01*
X44356445Y-54748161D01*
X44347879Y-54750770D01*
X44339977Y-54746557D01*
X44339972Y-54746551D01*
X44020158Y-54356287D01*
X44017566Y-54347717D01*
X44020526Y-54341030D01*
X44398397Y-53922877D01*
X44406486Y-53919037D01*
X44414921Y-53922041D01*
G37*
G04 #@! TD.AperFunction*
G04 #@! TA.AperFunction,Conductor*
G36*
X40171733Y-34510224D02*
G01*
X40340360Y-34678851D01*
X40343787Y-34687124D01*
X40343131Y-34690985D01*
X40102916Y-35378053D01*
X40096951Y-35384732D01*
X40091178Y-35385871D01*
X39506620Y-35351142D01*
X39498565Y-35347231D01*
X39496498Y-35343923D01*
X39317870Y-34910354D01*
X39317887Y-34901400D01*
X39323762Y-34895285D01*
X40158537Y-34507883D01*
X40167482Y-34507510D01*
X40171733Y-34510224D01*
G37*
G04 #@! TD.AperFunction*
G04 #@! TA.AperFunction,Conductor*
G36*
X58493380Y-57648857D02*
G01*
X58501434Y-57652768D01*
X58503503Y-57656079D01*
X58682129Y-58089644D01*
X58682112Y-58098599D01*
X58676236Y-58104714D01*
X57841464Y-58492115D01*
X57832517Y-58492489D01*
X57828266Y-58489775D01*
X57659639Y-58321148D01*
X57656212Y-58312875D01*
X57656867Y-58309017D01*
X57897083Y-57621945D01*
X57903048Y-57615267D01*
X57908820Y-57614128D01*
X58493380Y-57648857D01*
G37*
G04 #@! TD.AperFunction*
G04 #@! TA.AperFunction,Conductor*
G36*
X49388386Y-56257950D02*
G01*
X50242408Y-56654976D01*
X50248466Y-56661572D01*
X50248094Y-56670500D01*
X50162443Y-56855577D01*
X50160098Y-56858936D01*
X49987869Y-57031165D01*
X49979596Y-57034592D01*
X49974462Y-57033405D01*
X49219527Y-56664717D01*
X49213596Y-56658007D01*
X49213841Y-56649751D01*
X49372635Y-56264104D01*
X49378954Y-56257760D01*
X49387909Y-56257741D01*
X49388386Y-56257950D01*
G37*
G04 #@! TD.AperFunction*
G04 #@! TA.AperFunction,Conductor*
G36*
X69567130Y-46908922D02*
G01*
X69569276Y-46911068D01*
X70554156Y-48192397D01*
X70556481Y-48201045D01*
X70553694Y-48207222D01*
X69690496Y-49195995D01*
X69682474Y-49199973D01*
X69681682Y-49200000D01*
X69438318Y-49200000D01*
X69430045Y-49196573D01*
X69429504Y-49195995D01*
X68566305Y-48207222D01*
X68563446Y-48198735D01*
X68565842Y-48192399D01*
X69550724Y-46911067D01*
X69558482Y-46906597D01*
X69567130Y-46908922D01*
G37*
G04 #@! TD.AperFunction*
G04 #@! TA.AperFunction,Conductor*
G36*
X38789955Y-61503427D02*
G01*
X38790496Y-61504005D01*
X39653694Y-62492777D01*
X39656553Y-62501264D01*
X39654156Y-62507602D01*
X38669276Y-63788931D01*
X38661518Y-63793402D01*
X38652870Y-63791077D01*
X38650724Y-63788931D01*
X37665843Y-62507602D01*
X37663518Y-62498954D01*
X37666304Y-62492778D01*
X38529504Y-61504005D01*
X38537526Y-61500027D01*
X38538318Y-61500000D01*
X38781682Y-61500000D01*
X38789955Y-61503427D01*
G37*
G04 #@! TD.AperFunction*
G04 #@! TA.AperFunction,Conductor*
G36*
X49943426Y-34932790D02*
G01*
X50204404Y-35193768D01*
X50207323Y-35198630D01*
X50250033Y-35338768D01*
X50249167Y-35347681D01*
X50243773Y-35352789D01*
X49388386Y-35750449D01*
X49379440Y-35750829D01*
X49372844Y-35744771D01*
X49372635Y-35744294D01*
X49213553Y-35357947D01*
X49213572Y-35348992D01*
X49218499Y-35343372D01*
X49929283Y-34930942D01*
X49938157Y-34929755D01*
X49943426Y-34932790D01*
G37*
G04 #@! TD.AperFunction*
G04 #@! TA.AperFunction,Conductor*
G36*
X52329211Y-63896036D02*
G01*
X52332615Y-63898402D01*
X52501537Y-64067324D01*
X52504964Y-64075597D01*
X52504188Y-64079788D01*
X51713594Y-66140698D01*
X51707431Y-66147194D01*
X51700192Y-66147942D01*
X50567595Y-65902506D01*
X50560235Y-65897404D01*
X50558433Y-65892257D01*
X50427954Y-64608994D01*
X50430526Y-64600418D01*
X50435511Y-64596848D01*
X52320266Y-63895709D01*
X52329211Y-63896036D01*
G37*
G04 #@! TD.AperFunction*
G04 #@! TA.AperFunction,Conductor*
G36*
X53867130Y-43548922D02*
G01*
X53869276Y-43551068D01*
X54854156Y-44832397D01*
X54856481Y-44841045D01*
X54853694Y-44847222D01*
X53990496Y-45835995D01*
X53982474Y-45839973D01*
X53981682Y-45840000D01*
X53738318Y-45840000D01*
X53730045Y-45836573D01*
X53729504Y-45835995D01*
X52866305Y-44847222D01*
X52863446Y-44838735D01*
X52865842Y-44832399D01*
X53850724Y-43551067D01*
X53858482Y-43546597D01*
X53867130Y-43548922D01*
G37*
G04 #@! TD.AperFunction*
G04 #@! TA.AperFunction,Conductor*
G36*
X56332153Y-32148011D02*
G01*
X56337185Y-32153689D01*
X56485409Y-32509212D01*
X56485430Y-32518166D01*
X56485409Y-32518216D01*
X56337185Y-32873738D01*
X56330838Y-32880056D01*
X56323265Y-32880512D01*
X55694865Y-32706588D01*
X55687806Y-32701079D01*
X55686286Y-32695312D01*
X55686286Y-32332115D01*
X55689713Y-32323842D01*
X55694863Y-32320840D01*
X56323265Y-32146915D01*
X56332153Y-32148011D01*
G37*
G04 #@! TD.AperFunction*
G04 #@! TA.AperFunction,Conductor*
G36*
X68233608Y-53934654D02*
G01*
X68642994Y-54341721D01*
X68646444Y-54349985D01*
X68644482Y-54356503D01*
X68385204Y-54745850D01*
X68377766Y-54750837D01*
X68368981Y-54749103D01*
X68368963Y-54749091D01*
X67782969Y-54357266D01*
X67777996Y-54349819D01*
X67779746Y-54341037D01*
X67782047Y-54338499D01*
X67955928Y-54195836D01*
X68217086Y-53934677D01*
X68225358Y-53931251D01*
X68233608Y-53934654D01*
G37*
G04 #@! TD.AperFunction*
G04 #@! TA.AperFunction,Conductor*
G36*
X70709006Y-46639529D02*
G01*
X70713679Y-46645166D01*
X71323598Y-48200000D01*
X71504112Y-48660173D01*
X71503943Y-48669127D01*
X71501493Y-48672719D01*
X71332470Y-48841742D01*
X71324197Y-48845169D01*
X71320393Y-48844533D01*
X71312275Y-48841742D01*
X70804928Y-48667304D01*
X69454433Y-48202972D01*
X69447723Y-48197042D01*
X69446581Y-48190894D01*
X69558552Y-46907777D01*
X69562685Y-46899835D01*
X69567593Y-46897392D01*
X70700177Y-46638035D01*
X70709006Y-46639529D01*
G37*
G04 #@! TD.AperFunction*
G04 #@! TA.AperFunction,Conductor*
G36*
X52813731Y-32906220D02*
G01*
X52940429Y-32929342D01*
X53190401Y-32974962D01*
X53197924Y-32979819D01*
X53200000Y-32986472D01*
X53200000Y-33220955D01*
X53196573Y-33229228D01*
X53190401Y-33232465D01*
X52813731Y-33301208D01*
X52804977Y-33299322D01*
X52800120Y-33291799D01*
X52799930Y-33289757D01*
X52799627Y-33229228D01*
X52799000Y-33103714D01*
X52799930Y-32917670D01*
X52803398Y-32909416D01*
X52811689Y-32906030D01*
X52813731Y-32906220D01*
G37*
G04 #@! TD.AperFunction*
G04 #@! TA.AperFunction,Conductor*
G36*
X71329211Y-63896036D02*
G01*
X71332615Y-63898402D01*
X71501537Y-64067324D01*
X71504964Y-64075597D01*
X71504188Y-64079788D01*
X70713594Y-66140698D01*
X70707431Y-66147194D01*
X70700192Y-66147942D01*
X69567595Y-65902506D01*
X69560235Y-65897404D01*
X69558433Y-65892257D01*
X69427954Y-64608994D01*
X69430526Y-64600418D01*
X69435511Y-64596848D01*
X71320266Y-63895709D01*
X71329211Y-63896036D01*
G37*
G04 #@! TD.AperFunction*
G04 #@! TA.AperFunction,Conductor*
G36*
X39686043Y-52499930D02*
G01*
X39694298Y-52503398D01*
X39697684Y-52511689D01*
X39697494Y-52513731D01*
X39628752Y-52890401D01*
X39623895Y-52897924D01*
X39617242Y-52900000D01*
X39382758Y-52900000D01*
X39374485Y-52896573D01*
X39371248Y-52890401D01*
X39302505Y-52513728D01*
X39304391Y-52504977D01*
X39311914Y-52500120D01*
X39313953Y-52499930D01*
X39500000Y-52499000D01*
X39686043Y-52499930D01*
G37*
G04 #@! TD.AperFunction*
G04 #@! TA.AperFunction,Conductor*
G36*
X53867130Y-62548922D02*
G01*
X53869276Y-62551068D01*
X54854156Y-63832397D01*
X54856481Y-63841045D01*
X54853694Y-63847222D01*
X53990496Y-64835995D01*
X53982474Y-64839973D01*
X53981682Y-64840000D01*
X53738318Y-64840000D01*
X53730045Y-64836573D01*
X53729504Y-64835995D01*
X52866305Y-63847222D01*
X52863446Y-63838735D01*
X52865842Y-63832399D01*
X53850724Y-62551067D01*
X53858482Y-62546597D01*
X53867130Y-62548922D01*
G37*
G04 #@! TD.AperFunction*
G04 #@! TA.AperFunction,Conductor*
G36*
X50839990Y-52850853D02*
G01*
X51196195Y-52997436D01*
X51202542Y-53003754D01*
X51202563Y-53003804D01*
X51349145Y-53360007D01*
X51349124Y-53368961D01*
X51344092Y-53374639D01*
X50776764Y-53696001D01*
X50767876Y-53697097D01*
X50762724Y-53694094D01*
X50505905Y-53437275D01*
X50502478Y-53429002D01*
X50503997Y-53423237D01*
X50825362Y-52855905D01*
X50832419Y-52850398D01*
X50839990Y-52850853D01*
G37*
G04 #@! TD.AperFunction*
G04 #@! TA.AperFunction,Conductor*
G36*
X59868961Y-32050875D02*
G01*
X59874639Y-32055907D01*
X60196001Y-32623235D01*
X60197097Y-32632123D01*
X60194094Y-32637275D01*
X59937275Y-32894094D01*
X59929002Y-32897521D01*
X59923235Y-32896001D01*
X59466484Y-32637275D01*
X59355906Y-32574638D01*
X59350398Y-32567580D01*
X59350853Y-32560009D01*
X59497437Y-32203802D01*
X59503753Y-32197457D01*
X59860009Y-32050854D01*
X59868961Y-32050875D01*
G37*
G04 #@! TD.AperFunction*
G04 #@! TA.AperFunction,Conductor*
G36*
X56648048Y-31368481D02*
G01*
X56649358Y-31370060D01*
X56830101Y-31631502D01*
X56867095Y-31685012D01*
X56868981Y-31693766D01*
X56865744Y-31699938D01*
X56699938Y-31865744D01*
X56691665Y-31869171D01*
X56685012Y-31867095D01*
X56370060Y-31649358D01*
X56365203Y-31641835D01*
X56367089Y-31633081D01*
X56368399Y-31631502D01*
X56499293Y-31499293D01*
X56631502Y-31368398D01*
X56639792Y-31365013D01*
X56648048Y-31368481D01*
G37*
G04 #@! TD.AperFunction*
G04 #@! TA.AperFunction,Conductor*
G36*
X66691422Y-52907125D02*
G01*
X66698480Y-52912634D01*
X66700000Y-52918401D01*
X66700000Y-53281598D01*
X66696573Y-53289871D01*
X66691421Y-53292874D01*
X66063020Y-53466798D01*
X66054132Y-53465702D01*
X66049101Y-53460025D01*
X65900875Y-53104499D01*
X65900855Y-53095550D01*
X66049101Y-52739973D01*
X66055447Y-52733657D01*
X66063020Y-52733201D01*
X66691422Y-52907125D01*
G37*
G04 #@! TD.AperFunction*
G04 #@! TA.AperFunction,Conductor*
G36*
X58629154Y-34453427D02*
G01*
X58630490Y-34455024D01*
X58944329Y-34906756D01*
X58946235Y-34915506D01*
X58942862Y-34921834D01*
X58508142Y-35343109D01*
X58499816Y-35346406D01*
X58491858Y-35343109D01*
X58057137Y-34921834D01*
X58053580Y-34913616D01*
X58055669Y-34906757D01*
X58369510Y-34455024D01*
X58377045Y-34450185D01*
X58379119Y-34450000D01*
X58620881Y-34450000D01*
X58629154Y-34453427D01*
G37*
G04 #@! TD.AperFunction*
G04 #@! TA.AperFunction,Conductor*
G36*
X57841461Y-53507883D02*
G01*
X58216746Y-53682045D01*
X58676236Y-53895285D01*
X58682298Y-53901876D01*
X58682129Y-53910355D01*
X58503503Y-54343920D01*
X58497183Y-54350264D01*
X58493379Y-54351142D01*
X57908821Y-54385871D01*
X57900359Y-54382941D01*
X57897083Y-54378053D01*
X57733565Y-53910355D01*
X57656868Y-53690984D01*
X57657372Y-53682045D01*
X57659636Y-53678854D01*
X57828267Y-53510223D01*
X57836539Y-53506797D01*
X57841461Y-53507883D01*
G37*
G04 #@! TD.AperFunction*
G04 #@! TA.AperFunction,Conductor*
G36*
X62479153Y-35351308D02*
G01*
X63326223Y-35744287D01*
X63332286Y-35750877D01*
X63331912Y-35759824D01*
X63326223Y-35765513D01*
X62479153Y-36158491D01*
X62470206Y-36158865D01*
X62467601Y-36157519D01*
X62071772Y-35885387D01*
X62066896Y-35877876D01*
X62066700Y-35875746D01*
X62066700Y-35634054D01*
X62070127Y-35625781D01*
X62071772Y-35624413D01*
X62467602Y-35352279D01*
X62476359Y-35350417D01*
X62479153Y-35351308D01*
G37*
G04 #@! TD.AperFunction*
G04 #@! TA.AperFunction,Conductor*
G36*
X62479153Y-54351308D02*
G01*
X63326223Y-54744287D01*
X63332286Y-54750877D01*
X63331912Y-54759824D01*
X63326223Y-54765513D01*
X62479153Y-55158491D01*
X62470206Y-55158865D01*
X62467601Y-55157519D01*
X62071772Y-54885387D01*
X62066896Y-54877876D01*
X62066700Y-54875746D01*
X62066700Y-54634054D01*
X62070127Y-54625781D01*
X62071772Y-54624413D01*
X62467602Y-54352279D01*
X62476359Y-54350417D01*
X62479153Y-54351308D01*
G37*
G04 #@! TD.AperFunction*
G04 #@! TA.AperFunction,Conductor*
G36*
X39493380Y-57648857D02*
G01*
X39501434Y-57652768D01*
X39503503Y-57656079D01*
X39682129Y-58089644D01*
X39682112Y-58098599D01*
X39676236Y-58104714D01*
X38841464Y-58492115D01*
X38832517Y-58492489D01*
X38828266Y-58489775D01*
X38659639Y-58321148D01*
X38656212Y-58312875D01*
X38656867Y-58309017D01*
X38897083Y-57621945D01*
X38903048Y-57615267D01*
X38908820Y-57614128D01*
X39493380Y-57648857D01*
G37*
G04 #@! TD.AperFunction*
G04 #@! TA.AperFunction,Conductor*
G36*
X54029887Y-41243427D02*
G01*
X54030503Y-41244093D01*
X54876526Y-42232707D01*
X54879302Y-42241221D01*
X54876835Y-42247545D01*
X53869407Y-43529032D01*
X53861600Y-43533418D01*
X53852978Y-43530999D01*
X53850855Y-43528829D01*
X52910107Y-42276789D01*
X52907877Y-42268117D01*
X52912433Y-42260407D01*
X52914636Y-42259103D01*
X52961078Y-42238109D01*
X52985478Y-42227081D01*
X52985479Y-42227080D01*
X52985486Y-42227077D01*
X53183003Y-42093579D01*
X53355118Y-41928621D01*
X53496879Y-41736947D01*
X53604207Y-41524074D01*
X53647583Y-41382434D01*
X53650031Y-41378084D01*
X53769511Y-41243919D01*
X53777572Y-41240020D01*
X53778248Y-41240000D01*
X54021614Y-41240000D01*
X54029887Y-41243427D01*
G37*
G04 #@! TD.AperFunction*
G04 #@! TA.AperFunction,Conductor*
G36*
X54414985Y-47132903D02*
G01*
X54678366Y-47314987D01*
X54729939Y-47350641D01*
X54734796Y-47358164D01*
X54732910Y-47366918D01*
X54731600Y-47368497D01*
X54600707Y-47500707D01*
X54468497Y-47631600D01*
X54460206Y-47634986D01*
X54451951Y-47631518D01*
X54450641Y-47629939D01*
X54361299Y-47500707D01*
X54232903Y-47314985D01*
X54231018Y-47306233D01*
X54234253Y-47300063D01*
X54400062Y-47134254D01*
X54408334Y-47130828D01*
X54414985Y-47132903D01*
G37*
G04 #@! TD.AperFunction*
G04 #@! TA.AperFunction,Conductor*
G36*
X72851874Y-43537835D02*
G01*
X72859479Y-43542563D01*
X72861609Y-43548200D01*
X72991583Y-44831137D01*
X72989008Y-44839713D01*
X72984177Y-44843223D01*
X71049808Y-45594148D01*
X71040856Y-45593947D01*
X71037301Y-45591514D01*
X70868463Y-45422676D01*
X70865036Y-45414403D01*
X70865812Y-45410214D01*
X71149451Y-44671257D01*
X71151788Y-44667505D01*
X71182433Y-44634479D01*
X71330228Y-44417704D01*
X71444063Y-44181323D01*
X71521396Y-43930615D01*
X71532683Y-43855731D01*
X71560499Y-43671192D01*
X71560500Y-43671180D01*
X71560500Y-43602530D01*
X71561276Y-43598339D01*
X71656582Y-43350041D01*
X71662746Y-43343547D01*
X71669410Y-43342691D01*
X72851874Y-43537835D01*
G37*
G04 #@! TD.AperFunction*
G04 #@! TA.AperFunction,Conductor*
G36*
X53851878Y-62537723D02*
G01*
X53859424Y-62542545D01*
X53861486Y-62548225D01*
X53973431Y-63831032D01*
X53970736Y-63839572D01*
X53965746Y-63843055D01*
X52049685Y-64534387D01*
X52040740Y-64533971D01*
X52037441Y-64531654D01*
X51868506Y-64362719D01*
X51865079Y-64354446D01*
X51865885Y-64350179D01*
X52119610Y-63703373D01*
X52121920Y-63699696D01*
X52182433Y-63634479D01*
X52330228Y-63417704D01*
X52444063Y-63181323D01*
X52521396Y-62930615D01*
X52532683Y-62855731D01*
X52560499Y-62671192D01*
X52560500Y-62671180D01*
X52560500Y-62581649D01*
X52561308Y-62577376D01*
X52572744Y-62548225D01*
X52656499Y-62334710D01*
X52662710Y-62328261D01*
X52669437Y-62327465D01*
X53851878Y-62537723D01*
G37*
G04 #@! TD.AperFunction*
G04 #@! TA.AperFunction,Conductor*
G36*
X52329331Y-44956016D02*
G01*
X52332470Y-44958257D01*
X52501493Y-45127280D01*
X52504920Y-45135553D01*
X52504112Y-45139826D01*
X51713680Y-47154832D01*
X51707469Y-47161282D01*
X51700176Y-47161964D01*
X50567596Y-46902608D01*
X50560297Y-46897421D01*
X50558552Y-46892220D01*
X50446580Y-45609105D01*
X50449275Y-45600568D01*
X50454431Y-45597027D01*
X52320395Y-44955466D01*
X52329331Y-44956016D01*
G37*
G04 #@! TD.AperFunction*
G04 #@! TA.AperFunction,Conductor*
G36*
X50436604Y-34187139D02*
G01*
X50792809Y-34333722D01*
X50799156Y-34340040D01*
X50799177Y-34340090D01*
X50945759Y-34696293D01*
X50945738Y-34705247D01*
X50940706Y-34710925D01*
X50373378Y-35032287D01*
X50364490Y-35033383D01*
X50359338Y-35030380D01*
X50102519Y-34773561D01*
X50099092Y-34765288D01*
X50100611Y-34759523D01*
X50421976Y-34192191D01*
X50429033Y-34186684D01*
X50436604Y-34187139D01*
G37*
G04 #@! TD.AperFunction*
G04 #@! TA.AperFunction,Conductor*
G36*
X57789955Y-42503427D02*
G01*
X57790496Y-42504005D01*
X58653694Y-43492777D01*
X58656553Y-43501264D01*
X58654156Y-43507602D01*
X57669276Y-44788931D01*
X57661518Y-44793402D01*
X57652870Y-44791077D01*
X57650724Y-44788931D01*
X56665843Y-43507602D01*
X56663518Y-43498954D01*
X56666304Y-43492778D01*
X57529504Y-42504005D01*
X57537526Y-42500027D01*
X57538318Y-42500000D01*
X57781682Y-42500000D01*
X57789955Y-42503427D01*
G37*
G04 #@! TD.AperFunction*
G04 #@! TA.AperFunction,Conductor*
G36*
X38789955Y-42503427D02*
G01*
X38790496Y-42504005D01*
X39653694Y-43492777D01*
X39656553Y-43501264D01*
X39654156Y-43507602D01*
X38669276Y-44788931D01*
X38661518Y-44793402D01*
X38652870Y-44791077D01*
X38650724Y-44788931D01*
X37665843Y-43507602D01*
X37663518Y-43498954D01*
X37666304Y-43492778D01*
X38529504Y-42504005D01*
X38537526Y-42500027D01*
X38538318Y-42500000D01*
X38781682Y-42500000D01*
X38789955Y-42503427D01*
G37*
G04 #@! TD.AperFunction*
G04 #@! TA.AperFunction,Conductor*
G36*
X72851878Y-62537723D02*
G01*
X72859424Y-62542545D01*
X72861486Y-62548225D01*
X72973431Y-63831032D01*
X72970736Y-63839572D01*
X72965746Y-63843055D01*
X71049685Y-64534387D01*
X71040740Y-64533971D01*
X71037441Y-64531654D01*
X70868506Y-64362719D01*
X70865079Y-64354446D01*
X70865885Y-64350179D01*
X71119610Y-63703373D01*
X71121920Y-63699696D01*
X71182433Y-63634479D01*
X71330228Y-63417704D01*
X71444063Y-63181323D01*
X71521396Y-62930615D01*
X71532683Y-62855731D01*
X71560499Y-62671192D01*
X71560500Y-62671180D01*
X71560500Y-62581649D01*
X71561308Y-62577376D01*
X71572744Y-62548225D01*
X71656499Y-62334710D01*
X71662710Y-62328261D01*
X71669437Y-62327465D01*
X72851878Y-62537723D01*
G37*
G04 #@! TD.AperFunction*
G04 #@! TA.AperFunction,Conductor*
G36*
X72851878Y-62537723D02*
G01*
X72859424Y-62542545D01*
X72861486Y-62548225D01*
X72973431Y-63831032D01*
X72970736Y-63839572D01*
X72965746Y-63843055D01*
X71049685Y-64534387D01*
X71040740Y-64533971D01*
X71037441Y-64531654D01*
X70868506Y-64362719D01*
X70865079Y-64354446D01*
X70865885Y-64350179D01*
X71119610Y-63703373D01*
X71121920Y-63699696D01*
X71182433Y-63634479D01*
X71330228Y-63417704D01*
X71444063Y-63181323D01*
X71521396Y-62930615D01*
X71532683Y-62855731D01*
X71560499Y-62671192D01*
X71560500Y-62671180D01*
X71560500Y-62581649D01*
X71561308Y-62577376D01*
X71572744Y-62548225D01*
X71656499Y-62334710D01*
X71662710Y-62328261D01*
X71669437Y-62327465D01*
X72851878Y-62537723D01*
G37*
G04 #@! TD.AperFunction*
G04 #@! TA.AperFunction,Conductor*
G36*
X39493380Y-38648857D02*
G01*
X39501434Y-38652768D01*
X39503503Y-38656079D01*
X39682129Y-39089644D01*
X39682112Y-39098599D01*
X39676236Y-39104714D01*
X38841464Y-39492115D01*
X38832517Y-39492489D01*
X38828266Y-39489775D01*
X38659639Y-39321148D01*
X38656212Y-39312875D01*
X38656867Y-39309017D01*
X38897083Y-38621945D01*
X38903048Y-38615267D01*
X38908820Y-38614128D01*
X39493380Y-38648857D01*
G37*
G04 #@! TD.AperFunction*
G04 #@! TA.AperFunction,Conductor*
G36*
X69446740Y-55875764D02*
G01*
X69453299Y-55879064D01*
X69622136Y-56047901D01*
X69625563Y-56056174D01*
X69622376Y-56064200D01*
X69257602Y-56451107D01*
X69249433Y-56454776D01*
X69246462Y-56454482D01*
X68410490Y-56261856D01*
X68403197Y-56256659D01*
X68401716Y-56247828D01*
X68406913Y-56240535D01*
X68408176Y-56239849D01*
X69249825Y-55848575D01*
X69256463Y-55847612D01*
X69446740Y-55875764D01*
G37*
G04 #@! TD.AperFunction*
G04 #@! TA.AperFunction,Conductor*
G36*
X69686650Y-49611383D02*
G01*
X69689553Y-49616193D01*
X69781632Y-49913320D01*
X69780807Y-49922236D01*
X69774983Y-49927572D01*
X69602199Y-50000077D01*
X69597613Y-50000988D01*
X69412662Y-50000063D01*
X69404407Y-49996595D01*
X69401021Y-49988304D01*
X69401062Y-49987382D01*
X69432098Y-49618675D01*
X69436207Y-49610718D01*
X69443757Y-49607956D01*
X69678377Y-49607956D01*
X69686650Y-49611383D01*
G37*
G04 #@! TD.AperFunction*
G04 #@! TA.AperFunction,Conductor*
G36*
X72989955Y-60243427D02*
G01*
X72990496Y-60244005D01*
X73853694Y-61232777D01*
X73856553Y-61241264D01*
X73854156Y-61247602D01*
X72869275Y-62528931D01*
X72861517Y-62533402D01*
X72852869Y-62531077D01*
X72850723Y-62528931D01*
X71893983Y-61284212D01*
X71891659Y-61275566D01*
X71896130Y-61267808D01*
X71898433Y-61266427D01*
X71962893Y-61237289D01*
X71985478Y-61227081D01*
X71985479Y-61227080D01*
X71985486Y-61227077D01*
X72183003Y-61093579D01*
X72355118Y-60928621D01*
X72496879Y-60736947D01*
X72604207Y-60524074D01*
X72667889Y-60316129D01*
X72670255Y-60311872D01*
X72729504Y-60244005D01*
X72737527Y-60240027D01*
X72738318Y-60240000D01*
X72981682Y-60240000D01*
X72989955Y-60243427D01*
G37*
G04 #@! TD.AperFunction*
G04 #@! TA.AperFunction,Conductor*
G36*
X58493380Y-38648857D02*
G01*
X58501434Y-38652768D01*
X58503503Y-38656079D01*
X58682129Y-39089644D01*
X58682112Y-39098599D01*
X58676236Y-39104714D01*
X57841464Y-39492115D01*
X57832517Y-39492489D01*
X57828266Y-39489775D01*
X57659639Y-39321148D01*
X57656212Y-39312875D01*
X57656867Y-39309017D01*
X57897083Y-38621945D01*
X57903048Y-38615267D01*
X57908820Y-38614128D01*
X58493380Y-38648857D01*
G37*
G04 #@! TD.AperFunction*
G04 #@! TA.AperFunction,Conductor*
G36*
X66791422Y-32607125D02*
G01*
X66798480Y-32612634D01*
X66800000Y-32618401D01*
X66800000Y-32981598D01*
X66796573Y-32989871D01*
X66791421Y-32992874D01*
X66163020Y-33166798D01*
X66154132Y-33165702D01*
X66149101Y-33160025D01*
X66000875Y-32804499D01*
X66000855Y-32795550D01*
X66149101Y-32439973D01*
X66155447Y-32433657D01*
X66163020Y-32433201D01*
X66791422Y-32607125D01*
G37*
G04 #@! TD.AperFunction*
G04 #@! TA.AperFunction,Conductor*
G36*
X71329331Y-44956016D02*
G01*
X71332470Y-44958257D01*
X71501493Y-45127280D01*
X71504920Y-45135553D01*
X71504112Y-45139826D01*
X70713680Y-47154832D01*
X70707469Y-47161282D01*
X70700176Y-47161964D01*
X69567596Y-46902608D01*
X69560297Y-46897421D01*
X69558552Y-46892220D01*
X69446580Y-45609105D01*
X69449275Y-45600568D01*
X69454431Y-45597027D01*
X71320395Y-44955466D01*
X71329331Y-44956016D01*
G37*
G04 #@! TD.AperFunction*
G04 #@! TA.AperFunction,Conductor*
G36*
X53851874Y-43537835D02*
G01*
X53859479Y-43542563D01*
X53861609Y-43548200D01*
X53991583Y-44831137D01*
X53989008Y-44839713D01*
X53984177Y-44843223D01*
X52049808Y-45594148D01*
X52040856Y-45593947D01*
X52037301Y-45591514D01*
X51868463Y-45422676D01*
X51865036Y-45414403D01*
X51865812Y-45410214D01*
X52149451Y-44671257D01*
X52151788Y-44667505D01*
X52182433Y-44634479D01*
X52330228Y-44417704D01*
X52444063Y-44181323D01*
X52521396Y-43930615D01*
X52532683Y-43855731D01*
X52560499Y-43671192D01*
X52560500Y-43671180D01*
X52560500Y-43602530D01*
X52561276Y-43598339D01*
X52656582Y-43350041D01*
X52662746Y-43343547D01*
X52669410Y-43342691D01*
X53851874Y-43537835D01*
G37*
G04 #@! TD.AperFunction*
G04 #@! TA.AperFunction,Conductor*
G36*
X53495022Y-31304391D02*
G01*
X53499879Y-31311914D01*
X53500069Y-31313956D01*
X53501000Y-31500000D01*
X53500069Y-31686043D01*
X53496601Y-31694298D01*
X53488310Y-31697684D01*
X53486268Y-31697494D01*
X53109599Y-31628751D01*
X53102076Y-31623894D01*
X53100000Y-31617241D01*
X53100000Y-31382758D01*
X53103427Y-31374485D01*
X53109598Y-31371248D01*
X53486270Y-31302505D01*
X53495022Y-31304391D01*
G37*
G04 #@! TD.AperFunction*
G04 #@! TA.AperFunction,Conductor*
G36*
X50010320Y-53932584D02*
G01*
X50269820Y-54192084D01*
X50273247Y-54200357D01*
X50273222Y-54201129D01*
X50253544Y-54498825D01*
X50249578Y-54506854D01*
X50245064Y-54509308D01*
X49387569Y-54752690D01*
X49378674Y-54751653D01*
X49373456Y-54745639D01*
X49224294Y-54358115D01*
X49224520Y-54349164D01*
X49229662Y-54343614D01*
X49996500Y-53930555D01*
X50005407Y-53929650D01*
X50010320Y-53932584D01*
G37*
G04 #@! TD.AperFunction*
G04 #@! TA.AperFunction,Conductor*
G36*
X69409041Y-36834806D02*
G01*
X69409162Y-36834926D01*
X69666056Y-37091820D01*
X69669483Y-37100093D01*
X69666056Y-37108366D01*
X69665316Y-37109045D01*
X69257468Y-37452227D01*
X69248931Y-37454932D01*
X69247308Y-37454676D01*
X68385347Y-37256062D01*
X68378054Y-37250865D01*
X68376350Y-37245995D01*
X68359689Y-37100836D01*
X68332041Y-36859943D01*
X68334502Y-36851334D01*
X68342331Y-36846986D01*
X68343482Y-36846911D01*
X69400718Y-36831500D01*
X69409041Y-36834806D01*
G37*
G04 #@! TD.AperFunction*
M02*
