G04 #@! TF.GenerationSoftware,KiCad,Pcbnew,7.0.8*
G04 #@! TF.CreationDate,2023-10-19T20:53:45-07:00*
G04 #@! TF.ProjectId,Seismos_4-Thumb,53656973-6d6f-4735-9f34-2d5468756d62,rev?*
G04 #@! TF.SameCoordinates,Original*
G04 #@! TF.FileFunction,Soldermask,Top*
G04 #@! TF.FilePolarity,Negative*
%FSLAX46Y46*%
G04 Gerber Fmt 4.6, Leading zero omitted, Abs format (unit mm)*
G04 Created by KiCad (PCBNEW 7.0.8) date 2023-10-19 20:53:45*
%MOMM*%
%LPD*%
G01*
G04 APERTURE LIST*
%ADD10C,3.200000*%
%ADD11C,2.300000*%
%ADD12C,1.000000*%
%ADD13C,3.000000*%
%ADD14C,4.000000*%
%ADD15R,0.600000X1.550000*%
%ADD16R,1.200000X1.800000*%
G04 APERTURE END LIST*
D10*
X40500000Y-70500000D03*
X72500000Y-70500000D03*
D11*
X41700000Y-60000000D03*
D12*
X41780000Y-56384200D03*
D13*
X42000000Y-63800000D03*
X44460000Y-65080000D03*
D14*
X47000000Y-60000000D03*
D13*
X47000000Y-65900000D03*
X50810000Y-62540000D03*
D12*
X52220000Y-56384200D03*
D11*
X52300000Y-60000000D03*
X41700000Y-41000000D03*
D12*
X41780000Y-37384200D03*
D13*
X42000000Y-44800000D03*
X44460000Y-46080000D03*
D14*
X47000000Y-41000000D03*
D13*
X47000000Y-46900000D03*
X50810000Y-43540000D03*
D12*
X52220000Y-37384200D03*
D11*
X52300000Y-41000000D03*
X60700000Y-60000000D03*
D12*
X60780000Y-56384200D03*
D13*
X61000000Y-63800000D03*
X63460000Y-65080000D03*
D14*
X66000000Y-60000000D03*
D13*
X66000000Y-65900000D03*
X69810000Y-62540000D03*
D12*
X71220000Y-56384200D03*
D11*
X71300000Y-60000000D03*
X60700000Y-41000000D03*
D12*
X60780000Y-37384200D03*
D13*
X61000000Y-44800000D03*
X63460000Y-46080000D03*
D14*
X66000000Y-41000000D03*
D13*
X66000000Y-46900000D03*
X69810000Y-43540000D03*
D12*
X71220000Y-37384200D03*
D11*
X71300000Y-41000000D03*
D15*
X60500000Y-30275000D03*
X59500000Y-30275000D03*
X58500000Y-30275000D03*
X57500000Y-30275000D03*
X56500000Y-30275000D03*
X55500000Y-30275000D03*
X54500000Y-30275000D03*
X53500000Y-30275000D03*
X52500000Y-30275000D03*
D16*
X61800000Y-26400000D03*
X51200000Y-26400000D03*
M02*
