G04 #@! TF.GenerationSoftware,KiCad,Pcbnew,7.0.8*
G04 #@! TF.CreationDate,2023-10-19T20:53:44-07:00*
G04 #@! TF.ProjectId,Seismos_4-Thumb,53656973-6d6f-4735-9f34-2d5468756d62,rev?*
G04 #@! TF.SameCoordinates,Original*
G04 #@! TF.FileFunction,Copper,L1,Top*
G04 #@! TF.FilePolarity,Positive*
%FSLAX46Y46*%
G04 Gerber Fmt 4.6, Leading zero omitted, Abs format (unit mm)*
G04 Created by KiCad (PCBNEW 7.0.8) date 2023-10-19 20:53:44*
%MOMM*%
%LPD*%
G01*
G04 APERTURE LIST*
G04 #@! TA.AperFunction,SMDPad,CuDef*
%ADD10R,0.600000X1.550000*%
G04 #@! TD*
G04 #@! TA.AperFunction,SMDPad,CuDef*
%ADD11R,1.200000X1.800000*%
G04 #@! TD*
G04 #@! TA.AperFunction,ViaPad*
%ADD12C,0.800000*%
G04 #@! TD*
G04 #@! TA.AperFunction,ViaPad*
%ADD13C,0.400000*%
G04 #@! TD*
G04 #@! TA.AperFunction,Conductor*
%ADD14C,0.381000*%
G04 #@! TD*
G04 #@! TA.AperFunction,Conductor*
%ADD15C,0.254000*%
G04 #@! TD*
G04 APERTURE END LIST*
D10*
X60500000Y-30275000D03*
X59500000Y-30275000D03*
X58500000Y-30275000D03*
X57500000Y-30275000D03*
X56500000Y-30275000D03*
X55500000Y-30275000D03*
X54500000Y-30275000D03*
X53500000Y-30275000D03*
X52500000Y-30275000D03*
D11*
X61800000Y-26400000D03*
X51200000Y-26400000D03*
D12*
X41800000Y-53100000D03*
X44000000Y-39200000D03*
X50700000Y-50500000D03*
X56500000Y-26400000D03*
D13*
X53500000Y-31500000D03*
X39500000Y-52500000D03*
X52800000Y-33103714D03*
X56500000Y-31500000D03*
D12*
X56486286Y-32513714D03*
D13*
X53900000Y-33710000D03*
X54600000Y-47500000D03*
X69600000Y-50000000D03*
D12*
X51200000Y-53000000D03*
X59500000Y-32200000D03*
X65900000Y-53100000D03*
X50796614Y-34336286D03*
X66000000Y-32800000D03*
D14*
X51200000Y-26400000D02*
X61800000Y-26400000D01*
X51200000Y-28975000D02*
X51200000Y-26400000D01*
X52500000Y-30275000D02*
X51200000Y-28975000D01*
D15*
X53500000Y-30275000D02*
X53500000Y-31500000D01*
X39500000Y-38423935D02*
X45896935Y-32027000D01*
X54500000Y-31245291D02*
X54500000Y-30275000D01*
X53718291Y-32027000D02*
X54500000Y-31245291D01*
X39500000Y-52500000D02*
X39500000Y-38423935D01*
X45896935Y-32027000D02*
X53718291Y-32027000D01*
X53650995Y-33103714D02*
X55500000Y-31254709D01*
X55500000Y-31254709D02*
X55500000Y-30275000D01*
X52800000Y-33103714D02*
X53650995Y-33103714D01*
X56500000Y-30275000D02*
X56500000Y-31500000D01*
D14*
X57500000Y-31500000D02*
X56486286Y-32513714D01*
X57500000Y-30275000D02*
X57500000Y-31500000D01*
D15*
X57100000Y-50000000D02*
X69600000Y-50000000D01*
X53900000Y-33710000D02*
X56318134Y-33710000D01*
X56318134Y-33710000D02*
X58500000Y-31528134D01*
X58500000Y-31528134D02*
X58500000Y-30275000D01*
X54600000Y-47500000D02*
X57100000Y-50000000D01*
D14*
X51200000Y-53000000D02*
X53400000Y-50800000D01*
X53400000Y-44000000D02*
X54200000Y-43200000D01*
X57400000Y-34300000D02*
X59500000Y-32200000D01*
X58800000Y-53100000D02*
X53400000Y-47700000D01*
X50796614Y-34336286D02*
X50832900Y-34300000D01*
X50832900Y-34300000D02*
X57400000Y-34300000D01*
X54200000Y-43200000D02*
X54200000Y-37500000D01*
X53400000Y-50800000D02*
X53400000Y-44000000D01*
X54200000Y-37500000D02*
X59500000Y-32200000D01*
X65900000Y-53100000D02*
X58800000Y-53100000D01*
X53400000Y-47700000D02*
X53400000Y-46200000D01*
X59500000Y-30275000D02*
X59500000Y-32200000D01*
X63025000Y-32800000D02*
X60500000Y-30275000D01*
X66000000Y-32800000D02*
X63025000Y-32800000D01*
G04 #@! TA.AperFunction,Conductor*
G36*
X59139990Y-32050853D02*
G01*
X59496195Y-32197436D01*
X59502542Y-32203754D01*
X59502563Y-32203804D01*
X59649145Y-32560007D01*
X59649124Y-32568961D01*
X59644092Y-32574639D01*
X59076764Y-32896001D01*
X59067876Y-32897097D01*
X59062724Y-32894094D01*
X58805905Y-32637275D01*
X58802478Y-32629002D01*
X58803997Y-32623237D01*
X59125362Y-32055905D01*
X59132419Y-32050398D01*
X59139990Y-32050853D01*
G37*
G04 #@! TD.AperFunction*
G04 #@! TA.AperFunction,Conductor*
G36*
X69595022Y-49804391D02*
G01*
X69599879Y-49811914D01*
X69600069Y-49813956D01*
X69601000Y-50000000D01*
X69600069Y-50186043D01*
X69596601Y-50194298D01*
X69588310Y-50197684D01*
X69586268Y-50197494D01*
X69209599Y-50128751D01*
X69202076Y-50123894D01*
X69200000Y-50117241D01*
X69200000Y-49882758D01*
X69203427Y-49874485D01*
X69209598Y-49871248D01*
X69586270Y-49802505D01*
X69595022Y-49804391D01*
G37*
G04 #@! TD.AperFunction*
G04 #@! TA.AperFunction,Conductor*
G36*
X59139990Y-32050853D02*
G01*
X59496195Y-32197436D01*
X59502542Y-32203754D01*
X59502563Y-32203804D01*
X59649145Y-32560007D01*
X59649124Y-32568961D01*
X59644092Y-32574639D01*
X59076764Y-32896001D01*
X59067876Y-32897097D01*
X59062724Y-32894094D01*
X58805905Y-32637275D01*
X58802478Y-32629002D01*
X58803997Y-32623237D01*
X59125362Y-32055905D01*
X59132419Y-32050398D01*
X59139990Y-32050853D01*
G37*
G04 #@! TD.AperFunction*
G04 #@! TA.AperFunction,Conductor*
G36*
X53913720Y-33512504D02*
G01*
X54290401Y-33581248D01*
X54297924Y-33586105D01*
X54300000Y-33592758D01*
X54300000Y-33827241D01*
X54296573Y-33835514D01*
X54290401Y-33838751D01*
X53913731Y-33907493D01*
X53904977Y-33905607D01*
X53900120Y-33898084D01*
X53899930Y-33896042D01*
X53899627Y-33835514D01*
X53899000Y-33710000D01*
X53899930Y-33523955D01*
X53903398Y-33515701D01*
X53911689Y-33512315D01*
X53913720Y-33512504D01*
G37*
G04 #@! TD.AperFunction*
G04 #@! TA.AperFunction,Conductor*
G36*
X54510289Y-30304831D02*
G01*
X54510741Y-30306028D01*
X54744338Y-31044773D01*
X54743564Y-31053694D01*
X54743032Y-31054614D01*
X54523606Y-31396896D01*
X54516256Y-31402012D01*
X54507442Y-31400432D01*
X54505483Y-31398855D01*
X54503524Y-31396896D01*
X54336432Y-31229804D01*
X54335914Y-31229209D01*
X54203948Y-31055206D01*
X54201679Y-31046544D01*
X54202359Y-31043914D01*
X54488677Y-30305324D01*
X54494861Y-30298851D01*
X54503814Y-30298646D01*
X54510289Y-30304831D01*
G37*
G04 #@! TD.AperFunction*
G04 #@! TA.AperFunction,Conductor*
G36*
X59689871Y-31403427D02*
G01*
X59692874Y-31408579D01*
X59866798Y-32036979D01*
X59865702Y-32045867D01*
X59860024Y-32050899D01*
X59504502Y-32199123D01*
X59495548Y-32199144D01*
X59495498Y-32199123D01*
X59139975Y-32050899D01*
X59133657Y-32044552D01*
X59133201Y-32036979D01*
X59307126Y-31408579D01*
X59312635Y-31401520D01*
X59318402Y-31400000D01*
X59681598Y-31400000D01*
X59689871Y-31403427D01*
G37*
G04 #@! TD.AperFunction*
G04 #@! TA.AperFunction,Conductor*
G36*
X58510700Y-30301714D02*
G01*
X58510913Y-30302228D01*
X58797983Y-31044782D01*
X58797770Y-31053734D01*
X58797205Y-31054846D01*
X58630376Y-31344145D01*
X58623275Y-31349600D01*
X58620241Y-31350000D01*
X58379759Y-31350000D01*
X58371486Y-31346573D01*
X58369624Y-31344145D01*
X58299347Y-31222279D01*
X58202793Y-31054844D01*
X58201629Y-31045967D01*
X58202009Y-31044803D01*
X58489087Y-30302227D01*
X58495267Y-30295747D01*
X58504219Y-30295534D01*
X58510700Y-30301714D01*
G37*
G04 #@! TD.AperFunction*
G04 #@! TA.AperFunction,Conductor*
G36*
X65845867Y-32434297D02*
G01*
X65850899Y-32439975D01*
X65999123Y-32795498D01*
X65999144Y-32804452D01*
X65999123Y-32804502D01*
X65850899Y-33160024D01*
X65844552Y-33166342D01*
X65836979Y-33166798D01*
X65208579Y-32992874D01*
X65201520Y-32987365D01*
X65200000Y-32981598D01*
X65200000Y-32618401D01*
X65203427Y-32610128D01*
X65208577Y-32607126D01*
X65836979Y-32433201D01*
X65845867Y-32434297D01*
G37*
G04 #@! TD.AperFunction*
G04 #@! TA.AperFunction,Conductor*
G36*
X51637275Y-52305905D02*
G01*
X51894094Y-52562724D01*
X51897521Y-52570997D01*
X51896001Y-52576764D01*
X51574639Y-53144092D01*
X51567580Y-53149601D01*
X51560007Y-53149145D01*
X51203804Y-53002563D01*
X51197457Y-52996245D01*
X51197436Y-52996195D01*
X51050854Y-52639992D01*
X51050875Y-52631038D01*
X51055904Y-52625362D01*
X51623236Y-52303997D01*
X51632123Y-52302902D01*
X51637275Y-52305905D01*
G37*
G04 #@! TD.AperFunction*
G04 #@! TA.AperFunction,Conductor*
G36*
X53625515Y-31103427D02*
G01*
X53628752Y-31109599D01*
X53697494Y-31486268D01*
X53695608Y-31495022D01*
X53688085Y-31499879D01*
X53686043Y-31500069D01*
X53500000Y-31501000D01*
X53313956Y-31500069D01*
X53305701Y-31496601D01*
X53302315Y-31488310D01*
X53302503Y-31486280D01*
X53371248Y-31109598D01*
X53376105Y-31102076D01*
X53382758Y-31100000D01*
X53617242Y-31100000D01*
X53625515Y-31103427D01*
G37*
G04 #@! TD.AperFunction*
G04 #@! TA.AperFunction,Conductor*
G36*
X65745867Y-52734297D02*
G01*
X65750899Y-52739975D01*
X65899123Y-53095498D01*
X65899144Y-53104452D01*
X65899123Y-53104502D01*
X65750899Y-53460024D01*
X65744552Y-53466342D01*
X65736979Y-53466798D01*
X65108579Y-53292874D01*
X65101520Y-53287365D01*
X65100000Y-53281598D01*
X65100000Y-52918401D01*
X65103427Y-52910128D01*
X65108577Y-52907126D01*
X65736979Y-52733201D01*
X65745867Y-52734297D01*
G37*
G04 #@! TD.AperFunction*
G04 #@! TA.AperFunction,Conductor*
G36*
X52813720Y-32906218D02*
G01*
X53190401Y-32974962D01*
X53197924Y-32979819D01*
X53200000Y-32986472D01*
X53200000Y-33220955D01*
X53196573Y-33229228D01*
X53190401Y-33232465D01*
X52813731Y-33301208D01*
X52804977Y-33299322D01*
X52800120Y-33291799D01*
X52799930Y-33289757D01*
X52799627Y-33229228D01*
X52799000Y-33103714D01*
X52799930Y-32917669D01*
X52803398Y-32909415D01*
X52811689Y-32906029D01*
X52813720Y-32906218D01*
G37*
G04 #@! TD.AperFunction*
G04 #@! TA.AperFunction,Conductor*
G36*
X53510700Y-30301714D02*
G01*
X53510913Y-30302228D01*
X53797983Y-31044782D01*
X53797770Y-31053734D01*
X53797205Y-31054846D01*
X53630376Y-31344145D01*
X53623275Y-31349600D01*
X53620241Y-31350000D01*
X53379759Y-31350000D01*
X53371486Y-31346573D01*
X53369624Y-31344145D01*
X53299347Y-31222279D01*
X53202793Y-31054844D01*
X53201629Y-31045967D01*
X53202009Y-31044803D01*
X53489087Y-30302227D01*
X53495267Y-30295747D01*
X53504219Y-30295534D01*
X53510700Y-30301714D01*
G37*
G04 #@! TD.AperFunction*
G04 #@! TA.AperFunction,Conductor*
G36*
X56625515Y-31103427D02*
G01*
X56628752Y-31109599D01*
X56697494Y-31486268D01*
X56695608Y-31495022D01*
X56688085Y-31499879D01*
X56686043Y-31500069D01*
X56500000Y-31501000D01*
X56313956Y-31500069D01*
X56305701Y-31496601D01*
X56302315Y-31488310D01*
X56302503Y-31486280D01*
X56371248Y-31109598D01*
X56376105Y-31102076D01*
X56382758Y-31100000D01*
X56617242Y-31100000D01*
X56625515Y-31103427D01*
G37*
G04 #@! TD.AperFunction*
G04 #@! TA.AperFunction,Conductor*
G36*
X54748048Y-47368481D02*
G01*
X54749358Y-47370060D01*
X54930101Y-47631502D01*
X54967095Y-47685012D01*
X54968981Y-47693766D01*
X54965744Y-47699938D01*
X54799938Y-47865744D01*
X54791665Y-47869171D01*
X54785012Y-47867095D01*
X54470060Y-47649358D01*
X54465203Y-47641835D01*
X54467089Y-47633081D01*
X54468399Y-47631502D01*
X54599293Y-47499293D01*
X54731502Y-47368398D01*
X54739792Y-47365013D01*
X54748048Y-47368481D01*
G37*
G04 #@! TD.AperFunction*
G04 #@! TA.AperFunction,Conductor*
G36*
X56923561Y-31819619D02*
G01*
X57180380Y-32076438D01*
X57183807Y-32084711D01*
X57182287Y-32090478D01*
X56860925Y-32657806D01*
X56853866Y-32663315D01*
X56846293Y-32662859D01*
X56490090Y-32516277D01*
X56483743Y-32509959D01*
X56483722Y-32509909D01*
X56337140Y-32153706D01*
X56337161Y-32144752D01*
X56342190Y-32139076D01*
X56909522Y-31817711D01*
X56918409Y-31816616D01*
X56923561Y-31819619D01*
G37*
G04 #@! TD.AperFunction*
G04 #@! TA.AperFunction,Conductor*
G36*
X60800241Y-30154341D02*
G01*
X60805357Y-30158485D01*
X61141286Y-30644401D01*
X61143172Y-30653155D01*
X61139935Y-30659327D01*
X60877428Y-30921835D01*
X60812374Y-30986888D01*
X60804101Y-30990315D01*
X60795828Y-30986888D01*
X60793295Y-30983100D01*
X60503789Y-30285134D01*
X60503785Y-30276181D01*
X60510112Y-30269847D01*
X60791287Y-30154316D01*
X60800241Y-30154341D01*
G37*
G04 #@! TD.AperFunction*
G04 #@! TA.AperFunction,Conductor*
G36*
X39625515Y-52103427D02*
G01*
X39628752Y-52109599D01*
X39697494Y-52486268D01*
X39695608Y-52495022D01*
X39688085Y-52499879D01*
X39686043Y-52500069D01*
X39500000Y-52501000D01*
X39313956Y-52500069D01*
X39305701Y-52496601D01*
X39302315Y-52488310D01*
X39302503Y-52486280D01*
X39371248Y-52109598D01*
X39376105Y-52102076D01*
X39382758Y-52100000D01*
X39617242Y-52100000D01*
X39625515Y-52103427D01*
G37*
G04 #@! TD.AperFunction*
G04 #@! TA.AperFunction,Conductor*
G36*
X51580245Y-34107457D02*
G01*
X51587573Y-34112603D01*
X51589396Y-34118876D01*
X51589396Y-34482092D01*
X51585969Y-34490365D01*
X51581429Y-34493181D01*
X50960022Y-34702358D01*
X50951088Y-34701749D01*
X50945490Y-34695771D01*
X50861026Y-34493181D01*
X50797489Y-34340785D01*
X50797469Y-34331836D01*
X50945913Y-33975785D01*
X50952259Y-33969469D01*
X50959258Y-33968870D01*
X51580245Y-34107457D01*
G37*
G04 #@! TD.AperFunction*
G04 #@! TA.AperFunction,Conductor*
G36*
X59510700Y-30301714D02*
G01*
X59510913Y-30302228D01*
X59798414Y-31045898D01*
X59798492Y-31054129D01*
X59693306Y-31342312D01*
X59687250Y-31348908D01*
X59682315Y-31350000D01*
X59317685Y-31350000D01*
X59309412Y-31346573D01*
X59306694Y-31342312D01*
X59201507Y-31054129D01*
X59201584Y-31045900D01*
X59489087Y-30302227D01*
X59495267Y-30295747D01*
X59504219Y-30295534D01*
X59510700Y-30301714D01*
G37*
G04 #@! TD.AperFunction*
G04 #@! TA.AperFunction,Conductor*
G36*
X55510400Y-30304546D02*
G01*
X55510831Y-30305678D01*
X55749252Y-31044789D01*
X55748530Y-31053715D01*
X55748010Y-31054628D01*
X55530236Y-31399515D01*
X55522921Y-31404680D01*
X55514096Y-31403161D01*
X55512070Y-31401541D01*
X55343069Y-31232540D01*
X55342600Y-31232011D01*
X55337890Y-31225999D01*
X55204103Y-31055237D01*
X55201699Y-31046613D01*
X55202403Y-31043799D01*
X55488787Y-30305040D01*
X55494972Y-30298566D01*
X55503925Y-30298361D01*
X55510400Y-30304546D01*
G37*
G04 #@! TD.AperFunction*
G04 #@! TA.AperFunction,Conductor*
G36*
X57510700Y-30301714D02*
G01*
X57510913Y-30302228D01*
X57798414Y-31045898D01*
X57798492Y-31054129D01*
X57693306Y-31342312D01*
X57687250Y-31348908D01*
X57682315Y-31350000D01*
X57317685Y-31350000D01*
X57309412Y-31346573D01*
X57306694Y-31342312D01*
X57201507Y-31054129D01*
X57201584Y-31045900D01*
X57489087Y-30302227D01*
X57495267Y-30295747D01*
X57504219Y-30295534D01*
X57510700Y-30301714D01*
G37*
G04 #@! TD.AperFunction*
G04 #@! TA.AperFunction,Conductor*
G36*
X56510700Y-30301714D02*
G01*
X56510913Y-30302228D01*
X56797983Y-31044782D01*
X56797770Y-31053734D01*
X56797205Y-31054846D01*
X56630376Y-31344145D01*
X56623275Y-31349600D01*
X56620241Y-31350000D01*
X56379759Y-31350000D01*
X56371486Y-31346573D01*
X56369624Y-31344145D01*
X56299347Y-31222279D01*
X56202793Y-31054844D01*
X56201629Y-31045967D01*
X56202009Y-31044803D01*
X56489087Y-30302227D01*
X56495267Y-30295747D01*
X56504219Y-30295534D01*
X56510700Y-30301714D01*
G37*
G04 #@! TD.AperFunction*
G04 #@! TA.AperFunction,Conductor*
G36*
X50168662Y-25020185D02*
G01*
X50214417Y-25072989D01*
X50224361Y-25142147D01*
X50200889Y-25198812D01*
X50156647Y-25257910D01*
X50156645Y-25257913D01*
X50106403Y-25392620D01*
X50106401Y-25392627D01*
X50100000Y-25452155D01*
X50100000Y-26150000D01*
X52300000Y-26150000D01*
X52300000Y-25452172D01*
X52299999Y-25452155D01*
X52293598Y-25392627D01*
X52293596Y-25392620D01*
X52243354Y-25257913D01*
X52243352Y-25257910D01*
X52199111Y-25198812D01*
X52174693Y-25133348D01*
X52189544Y-25065074D01*
X52238949Y-25015669D01*
X52298377Y-25000500D01*
X60701623Y-25000500D01*
X60768662Y-25020185D01*
X60814417Y-25072989D01*
X60824361Y-25142147D01*
X60800889Y-25198812D01*
X60756647Y-25257910D01*
X60756645Y-25257913D01*
X60706403Y-25392620D01*
X60706401Y-25392627D01*
X60700000Y-25452155D01*
X60700000Y-26150000D01*
X62900000Y-26150000D01*
X62900000Y-25452172D01*
X62899999Y-25452155D01*
X62893598Y-25392627D01*
X62893596Y-25392620D01*
X62843354Y-25257913D01*
X62843352Y-25257910D01*
X62799111Y-25198812D01*
X62774693Y-25133348D01*
X62789544Y-25065074D01*
X62838949Y-25015669D01*
X62898377Y-25000500D01*
X63075500Y-25000500D01*
X63142539Y-25020185D01*
X63188294Y-25072989D01*
X63199500Y-25124500D01*
X63199500Y-30975467D01*
X63199416Y-30975889D01*
X63199459Y-31000001D01*
X63199500Y-31000099D01*
X63199616Y-31000382D01*
X63199618Y-31000384D01*
X63199808Y-31000462D01*
X63200000Y-31000541D01*
X63200002Y-31000539D01*
X63224616Y-31000524D01*
X63224616Y-31000528D01*
X63224760Y-31000500D01*
X65999901Y-31000500D01*
X75375500Y-31000500D01*
X75442539Y-31020185D01*
X75488294Y-31072989D01*
X75499500Y-31124500D01*
X75499500Y-71937121D01*
X75499342Y-71941547D01*
X75494687Y-72006603D01*
X75482856Y-72156385D01*
X75481631Y-72164692D01*
X75461691Y-72256354D01*
X75432960Y-72376020D01*
X75430762Y-72383219D01*
X75395594Y-72477504D01*
X75350781Y-72585691D01*
X75347915Y-72591682D01*
X75299029Y-72681211D01*
X75297476Y-72683892D01*
X75238121Y-72780752D01*
X75234889Y-72785515D01*
X75173121Y-72868029D01*
X75170633Y-72871140D01*
X75097464Y-72956814D01*
X75094158Y-72960390D01*
X75021035Y-73033516D01*
X75017459Y-73036822D01*
X74931794Y-73109990D01*
X74928683Y-73112479D01*
X74846152Y-73174265D01*
X74841389Y-73177498D01*
X74744564Y-73236836D01*
X74741882Y-73238389D01*
X74652335Y-73287290D01*
X74646344Y-73290156D01*
X74538171Y-73334969D01*
X74443871Y-73370146D01*
X74436672Y-73372344D01*
X74357168Y-73391436D01*
X74316997Y-73401082D01*
X74225384Y-73421015D01*
X74217061Y-73422243D01*
X74061300Y-73434511D01*
X74029511Y-73436787D01*
X74003033Y-73438682D01*
X73998624Y-73438840D01*
X39002217Y-73438840D01*
X38997791Y-73438682D01*
X38927771Y-73433673D01*
X38783790Y-73422379D01*
X38775449Y-73421150D01*
X38677521Y-73399847D01*
X38564251Y-73372652D01*
X38557058Y-73370456D01*
X38499058Y-73348823D01*
X38458702Y-73333770D01*
X38354636Y-73290663D01*
X38348645Y-73287796D01*
X38258165Y-73238389D01*
X38256031Y-73237223D01*
X38253359Y-73235677D01*
X38159647Y-73178247D01*
X38154885Y-73175016D01*
X38069847Y-73111355D01*
X38066735Y-73108866D01*
X37983620Y-73037875D01*
X37980045Y-73034570D01*
X37927288Y-72981813D01*
X37904770Y-72959295D01*
X37901491Y-72955746D01*
X37830479Y-72872599D01*
X37828024Y-72869530D01*
X37764339Y-72784452D01*
X37761114Y-72779697D01*
X37703669Y-72685949D01*
X37702163Y-72683349D01*
X37651572Y-72590691D01*
X37648710Y-72584711D01*
X37605610Y-72480648D01*
X37599791Y-72465046D01*
X37568923Y-72382277D01*
X37566729Y-72375089D01*
X37539534Y-72261796D01*
X37518231Y-72163853D01*
X37517008Y-72155552D01*
X37506142Y-72017438D01*
X37500658Y-71940707D01*
X37500500Y-71936285D01*
X37500500Y-70567763D01*
X38645787Y-70567763D01*
X38675413Y-70837013D01*
X38675415Y-70837024D01*
X38743926Y-71099082D01*
X38743928Y-71099088D01*
X38849870Y-71348390D01*
X38921998Y-71466575D01*
X38990979Y-71579605D01*
X38990986Y-71579615D01*
X39164253Y-71787819D01*
X39164259Y-71787824D01*
X39365998Y-71968582D01*
X39591910Y-72118044D01*
X39837176Y-72233020D01*
X39837183Y-72233022D01*
X39837185Y-72233023D01*
X40096557Y-72311057D01*
X40096564Y-72311058D01*
X40096569Y-72311060D01*
X40364561Y-72350500D01*
X40364566Y-72350500D01*
X40567636Y-72350500D01*
X40619133Y-72346730D01*
X40770156Y-72335677D01*
X40882758Y-72310593D01*
X41034546Y-72276782D01*
X41034548Y-72276781D01*
X41034553Y-72276780D01*
X41287558Y-72180014D01*
X41523777Y-72047441D01*
X41738177Y-71881888D01*
X41926186Y-71686881D01*
X42083799Y-71466579D01*
X42157787Y-71322669D01*
X42207649Y-71225690D01*
X42207651Y-71225684D01*
X42207656Y-71225675D01*
X42295118Y-70969305D01*
X42344319Y-70702933D01*
X42349259Y-70567763D01*
X70645787Y-70567763D01*
X70675413Y-70837013D01*
X70675415Y-70837024D01*
X70743926Y-71099082D01*
X70743928Y-71099088D01*
X70849870Y-71348390D01*
X70921998Y-71466575D01*
X70990979Y-71579605D01*
X70990986Y-71579615D01*
X71164253Y-71787819D01*
X71164259Y-71787824D01*
X71365998Y-71968582D01*
X71591910Y-72118044D01*
X71837176Y-72233020D01*
X71837183Y-72233022D01*
X71837185Y-72233023D01*
X72096557Y-72311057D01*
X72096564Y-72311058D01*
X72096569Y-72311060D01*
X72364561Y-72350500D01*
X72364566Y-72350500D01*
X72567636Y-72350500D01*
X72619133Y-72346730D01*
X72770156Y-72335677D01*
X72882758Y-72310593D01*
X73034546Y-72276782D01*
X73034548Y-72276781D01*
X73034553Y-72276780D01*
X73287558Y-72180014D01*
X73523777Y-72047441D01*
X73738177Y-71881888D01*
X73926186Y-71686881D01*
X74083799Y-71466579D01*
X74157787Y-71322669D01*
X74207649Y-71225690D01*
X74207651Y-71225684D01*
X74207656Y-71225675D01*
X74295118Y-70969305D01*
X74344319Y-70702933D01*
X74354212Y-70432235D01*
X74324586Y-70162982D01*
X74256072Y-69900912D01*
X74150130Y-69651610D01*
X74009018Y-69420390D01*
X73919747Y-69313119D01*
X73835746Y-69212180D01*
X73835740Y-69212175D01*
X73634002Y-69031418D01*
X73408092Y-68881957D01*
X73408090Y-68881956D01*
X73162824Y-68766980D01*
X73162819Y-68766978D01*
X73162814Y-68766976D01*
X72903442Y-68688942D01*
X72903428Y-68688939D01*
X72787791Y-68671921D01*
X72635439Y-68649500D01*
X72432369Y-68649500D01*
X72432364Y-68649500D01*
X72229844Y-68664323D01*
X72229831Y-68664325D01*
X71965453Y-68723217D01*
X71965446Y-68723220D01*
X71712439Y-68819987D01*
X71476226Y-68952557D01*
X71261822Y-69118112D01*
X71073822Y-69313109D01*
X71073816Y-69313116D01*
X70916202Y-69533419D01*
X70916199Y-69533424D01*
X70792350Y-69774309D01*
X70792343Y-69774327D01*
X70704884Y-70030685D01*
X70704881Y-70030699D01*
X70655681Y-70297068D01*
X70655680Y-70297075D01*
X70645787Y-70567763D01*
X42349259Y-70567763D01*
X42354212Y-70432235D01*
X42324586Y-70162982D01*
X42256072Y-69900912D01*
X42150130Y-69651610D01*
X42009018Y-69420390D01*
X41919747Y-69313119D01*
X41835746Y-69212180D01*
X41835740Y-69212175D01*
X41634002Y-69031418D01*
X41408092Y-68881957D01*
X41408090Y-68881956D01*
X41162824Y-68766980D01*
X41162819Y-68766978D01*
X41162814Y-68766976D01*
X40903442Y-68688942D01*
X40903428Y-68688939D01*
X40787791Y-68671921D01*
X40635439Y-68649500D01*
X40432369Y-68649500D01*
X40432364Y-68649500D01*
X40229844Y-68664323D01*
X40229831Y-68664325D01*
X39965453Y-68723217D01*
X39965446Y-68723220D01*
X39712439Y-68819987D01*
X39476226Y-68952557D01*
X39261822Y-69118112D01*
X39073822Y-69313109D01*
X39073816Y-69313116D01*
X38916202Y-69533419D01*
X38916199Y-69533424D01*
X38792350Y-69774309D01*
X38792343Y-69774327D01*
X38704884Y-70030685D01*
X38704881Y-70030699D01*
X38655681Y-70297068D01*
X38655680Y-70297075D01*
X38645787Y-70567763D01*
X37500500Y-70567763D01*
X37500500Y-63931187D01*
X40249500Y-63931187D01*
X40269794Y-64065823D01*
X40288604Y-64190615D01*
X40288605Y-64190617D01*
X40288606Y-64190623D01*
X40365938Y-64441326D01*
X40479767Y-64677696D01*
X40479768Y-64677697D01*
X40479770Y-64677700D01*
X40479772Y-64677704D01*
X40627567Y-64894479D01*
X40806014Y-65086801D01*
X40806018Y-65086804D01*
X40806019Y-65086805D01*
X41011143Y-65250386D01*
X41238357Y-65381568D01*
X41482584Y-65477420D01*
X41738370Y-65535802D01*
X41738376Y-65535802D01*
X41738379Y-65535803D01*
X41934500Y-65550500D01*
X41934506Y-65550500D01*
X42065500Y-65550500D01*
X42261620Y-65535803D01*
X42261622Y-65535802D01*
X42261630Y-65535802D01*
X42517416Y-65477420D01*
X42601111Y-65444571D01*
X42670705Y-65438403D01*
X42732588Y-65470840D01*
X42764900Y-65523448D01*
X42825937Y-65721323D01*
X42825938Y-65721326D01*
X42939767Y-65957696D01*
X42939768Y-65957697D01*
X42939770Y-65957700D01*
X42939772Y-65957704D01*
X42989869Y-66031182D01*
X43087567Y-66174479D01*
X43266014Y-66366801D01*
X43266018Y-66366804D01*
X43266019Y-66366805D01*
X43471143Y-66530386D01*
X43698357Y-66661568D01*
X43942584Y-66757420D01*
X44198370Y-66815802D01*
X44198376Y-66815802D01*
X44198379Y-66815803D01*
X44394500Y-66830500D01*
X44394506Y-66830500D01*
X44525500Y-66830500D01*
X44721620Y-66815803D01*
X44721622Y-66815802D01*
X44721630Y-66815802D01*
X44977416Y-66757420D01*
X45221643Y-66661568D01*
X45221646Y-66661566D01*
X45221647Y-66661566D01*
X45264118Y-66637045D01*
X45332018Y-66620571D01*
X45398045Y-66643423D01*
X45437839Y-66690630D01*
X45479767Y-66777695D01*
X45479768Y-66777697D01*
X45479770Y-66777700D01*
X45479772Y-66777704D01*
X45505747Y-66815802D01*
X45627567Y-66994479D01*
X45806014Y-67186801D01*
X45806018Y-67186804D01*
X45806019Y-67186805D01*
X46011143Y-67350386D01*
X46238357Y-67481568D01*
X46482584Y-67577420D01*
X46738370Y-67635802D01*
X46738376Y-67635802D01*
X46738379Y-67635803D01*
X46934500Y-67650500D01*
X46934506Y-67650500D01*
X47065500Y-67650500D01*
X47261620Y-67635803D01*
X47261622Y-67635802D01*
X47261630Y-67635802D01*
X47517416Y-67577420D01*
X47761643Y-67481568D01*
X47988857Y-67350386D01*
X48193981Y-67186805D01*
X48372433Y-66994479D01*
X48520228Y-66777704D01*
X48634063Y-66541323D01*
X48711396Y-66290615D01*
X48750500Y-66031182D01*
X48750500Y-65768818D01*
X48711396Y-65509385D01*
X48634063Y-65258677D01*
X48551292Y-65086801D01*
X48520232Y-65022303D01*
X48520231Y-65022302D01*
X48520230Y-65022301D01*
X48520228Y-65022296D01*
X48372433Y-64805521D01*
X48362441Y-64794753D01*
X48193985Y-64613198D01*
X48154533Y-64581736D01*
X47988857Y-64449614D01*
X47761643Y-64318432D01*
X47517416Y-64222580D01*
X47517411Y-64222578D01*
X47517402Y-64222576D01*
X47299818Y-64172914D01*
X47261630Y-64164198D01*
X47261629Y-64164197D01*
X47261625Y-64164197D01*
X47261620Y-64164196D01*
X47065500Y-64149500D01*
X47065494Y-64149500D01*
X46934506Y-64149500D01*
X46934500Y-64149500D01*
X46738379Y-64164196D01*
X46738374Y-64164197D01*
X46482597Y-64222576D01*
X46482578Y-64222582D01*
X46238363Y-64318429D01*
X46238357Y-64318432D01*
X46195877Y-64342957D01*
X46127977Y-64359427D01*
X46061951Y-64336574D01*
X46022160Y-64289369D01*
X45980232Y-64202303D01*
X45980231Y-64202302D01*
X45980230Y-64202301D01*
X45980228Y-64202296D01*
X45832433Y-63985521D01*
X45782014Y-63931182D01*
X45653985Y-63793198D01*
X45498017Y-63668818D01*
X45448857Y-63629614D01*
X45221643Y-63498432D01*
X44977416Y-63402580D01*
X44977411Y-63402578D01*
X44977402Y-63402576D01*
X44759818Y-63352914D01*
X44721630Y-63344198D01*
X44721629Y-63344197D01*
X44721625Y-63344197D01*
X44721620Y-63344196D01*
X44525500Y-63329500D01*
X44525494Y-63329500D01*
X44394506Y-63329500D01*
X44394500Y-63329500D01*
X44198379Y-63344196D01*
X44198374Y-63344197D01*
X43942585Y-63402579D01*
X43858890Y-63435426D01*
X43789293Y-63441593D01*
X43727410Y-63409155D01*
X43695098Y-63356547D01*
X43641048Y-63181323D01*
X43634063Y-63158677D01*
X43622121Y-63133880D01*
X43520232Y-62922303D01*
X43520231Y-62922302D01*
X43520230Y-62922301D01*
X43520228Y-62922296D01*
X43372433Y-62705521D01*
X43340576Y-62671187D01*
X49059500Y-62671187D01*
X49079794Y-62805823D01*
X49098604Y-62930615D01*
X49098605Y-62930617D01*
X49098606Y-62930623D01*
X49175938Y-63181326D01*
X49289767Y-63417696D01*
X49289768Y-63417697D01*
X49289770Y-63417700D01*
X49289772Y-63417704D01*
X49338126Y-63488626D01*
X49437567Y-63634479D01*
X49616014Y-63826801D01*
X49616018Y-63826804D01*
X49616019Y-63826805D01*
X49821143Y-63990386D01*
X50048357Y-64121568D01*
X50292584Y-64217420D01*
X50548370Y-64275802D01*
X50548376Y-64275802D01*
X50548379Y-64275803D01*
X50744500Y-64290500D01*
X50744506Y-64290500D01*
X50875500Y-64290500D01*
X51071620Y-64275803D01*
X51071622Y-64275802D01*
X51071630Y-64275802D01*
X51327416Y-64217420D01*
X51571643Y-64121568D01*
X51798857Y-63990386D01*
X51873090Y-63931187D01*
X59249500Y-63931187D01*
X59269794Y-64065823D01*
X59288604Y-64190615D01*
X59288605Y-64190617D01*
X59288606Y-64190623D01*
X59365938Y-64441326D01*
X59479767Y-64677696D01*
X59479768Y-64677697D01*
X59479770Y-64677700D01*
X59479772Y-64677704D01*
X59627567Y-64894479D01*
X59806014Y-65086801D01*
X59806018Y-65086804D01*
X59806019Y-65086805D01*
X60011143Y-65250386D01*
X60238357Y-65381568D01*
X60482584Y-65477420D01*
X60738370Y-65535802D01*
X60738376Y-65535802D01*
X60738379Y-65535803D01*
X60934500Y-65550500D01*
X60934506Y-65550500D01*
X61065500Y-65550500D01*
X61261620Y-65535803D01*
X61261622Y-65535802D01*
X61261630Y-65535802D01*
X61517416Y-65477420D01*
X61601111Y-65444571D01*
X61670705Y-65438403D01*
X61732588Y-65470840D01*
X61764900Y-65523448D01*
X61825937Y-65721323D01*
X61825938Y-65721326D01*
X61939767Y-65957696D01*
X61939768Y-65957697D01*
X61939770Y-65957700D01*
X61939772Y-65957704D01*
X61989869Y-66031182D01*
X62087567Y-66174479D01*
X62266014Y-66366801D01*
X62266018Y-66366804D01*
X62266019Y-66366805D01*
X62471143Y-66530386D01*
X62698357Y-66661568D01*
X62942584Y-66757420D01*
X63198370Y-66815802D01*
X63198376Y-66815802D01*
X63198379Y-66815803D01*
X63394500Y-66830500D01*
X63394506Y-66830500D01*
X63525500Y-66830500D01*
X63721620Y-66815803D01*
X63721622Y-66815802D01*
X63721630Y-66815802D01*
X63977416Y-66757420D01*
X64221643Y-66661568D01*
X64221646Y-66661566D01*
X64221647Y-66661566D01*
X64264118Y-66637045D01*
X64332018Y-66620571D01*
X64398045Y-66643423D01*
X64437839Y-66690630D01*
X64479767Y-66777695D01*
X64479768Y-66777697D01*
X64479770Y-66777700D01*
X64479772Y-66777704D01*
X64505747Y-66815802D01*
X64627567Y-66994479D01*
X64806014Y-67186801D01*
X64806018Y-67186804D01*
X64806019Y-67186805D01*
X65011143Y-67350386D01*
X65238357Y-67481568D01*
X65482584Y-67577420D01*
X65738370Y-67635802D01*
X65738376Y-67635802D01*
X65738379Y-67635803D01*
X65934500Y-67650500D01*
X65934506Y-67650500D01*
X66065500Y-67650500D01*
X66261620Y-67635803D01*
X66261622Y-67635802D01*
X66261630Y-67635802D01*
X66517416Y-67577420D01*
X66761643Y-67481568D01*
X66988857Y-67350386D01*
X67193981Y-67186805D01*
X67372433Y-66994479D01*
X67520228Y-66777704D01*
X67634063Y-66541323D01*
X67711396Y-66290615D01*
X67750500Y-66031182D01*
X67750500Y-65768818D01*
X67711396Y-65509385D01*
X67634063Y-65258677D01*
X67551292Y-65086801D01*
X67520232Y-65022303D01*
X67520231Y-65022302D01*
X67520230Y-65022301D01*
X67520228Y-65022296D01*
X67372433Y-64805521D01*
X67362441Y-64794753D01*
X67193985Y-64613198D01*
X67154533Y-64581736D01*
X66988857Y-64449614D01*
X66761643Y-64318432D01*
X66517416Y-64222580D01*
X66517411Y-64222578D01*
X66517402Y-64222576D01*
X66299818Y-64172914D01*
X66261630Y-64164198D01*
X66261629Y-64164197D01*
X66261625Y-64164197D01*
X66261620Y-64164196D01*
X66065500Y-64149500D01*
X66065494Y-64149500D01*
X65934506Y-64149500D01*
X65934500Y-64149500D01*
X65738379Y-64164196D01*
X65738374Y-64164197D01*
X65482597Y-64222576D01*
X65482578Y-64222582D01*
X65238363Y-64318429D01*
X65238357Y-64318432D01*
X65195877Y-64342957D01*
X65127977Y-64359427D01*
X65061951Y-64336574D01*
X65022160Y-64289369D01*
X64980232Y-64202303D01*
X64980231Y-64202302D01*
X64980230Y-64202301D01*
X64980228Y-64202296D01*
X64832433Y-63985521D01*
X64782014Y-63931182D01*
X64653985Y-63793198D01*
X64498017Y-63668818D01*
X64448857Y-63629614D01*
X64221643Y-63498432D01*
X63977416Y-63402580D01*
X63977411Y-63402578D01*
X63977402Y-63402576D01*
X63759818Y-63352914D01*
X63721630Y-63344198D01*
X63721629Y-63344197D01*
X63721625Y-63344197D01*
X63721620Y-63344196D01*
X63525500Y-63329500D01*
X63525494Y-63329500D01*
X63394506Y-63329500D01*
X63394500Y-63329500D01*
X63198379Y-63344196D01*
X63198374Y-63344197D01*
X62942585Y-63402579D01*
X62858890Y-63435426D01*
X62789293Y-63441593D01*
X62727410Y-63409155D01*
X62695098Y-63356547D01*
X62641048Y-63181323D01*
X62634063Y-63158677D01*
X62622121Y-63133880D01*
X62520232Y-62922303D01*
X62520231Y-62922302D01*
X62520230Y-62922301D01*
X62520228Y-62922296D01*
X62372433Y-62705521D01*
X62340576Y-62671187D01*
X68059500Y-62671187D01*
X68079794Y-62805823D01*
X68098604Y-62930615D01*
X68098605Y-62930617D01*
X68098606Y-62930623D01*
X68175938Y-63181326D01*
X68289767Y-63417696D01*
X68289768Y-63417697D01*
X68289770Y-63417700D01*
X68289772Y-63417704D01*
X68338126Y-63488626D01*
X68437567Y-63634479D01*
X68616014Y-63826801D01*
X68616018Y-63826804D01*
X68616019Y-63826805D01*
X68821143Y-63990386D01*
X69048357Y-64121568D01*
X69292584Y-64217420D01*
X69548370Y-64275802D01*
X69548376Y-64275802D01*
X69548379Y-64275803D01*
X69744500Y-64290500D01*
X69744506Y-64290500D01*
X69875500Y-64290500D01*
X70071620Y-64275803D01*
X70071622Y-64275802D01*
X70071630Y-64275802D01*
X70327416Y-64217420D01*
X70571643Y-64121568D01*
X70798857Y-63990386D01*
X71003981Y-63826805D01*
X71035167Y-63793195D01*
X71043945Y-63783733D01*
X71182433Y-63634479D01*
X71330228Y-63417704D01*
X71444063Y-63181323D01*
X71521396Y-62930615D01*
X71560500Y-62671182D01*
X71560500Y-62408818D01*
X71521396Y-62149385D01*
X71444063Y-61898677D01*
X71382165Y-61770144D01*
X71330232Y-61662303D01*
X71330225Y-61662292D01*
X71282720Y-61592615D01*
X71261219Y-61526136D01*
X71279073Y-61458586D01*
X71330613Y-61411411D01*
X71374657Y-61399210D01*
X71537536Y-61385347D01*
X71537539Y-61385346D01*
X71537541Y-61385346D01*
X71768249Y-61325275D01*
X71927707Y-61253195D01*
X71985480Y-61227080D01*
X71985481Y-61227078D01*
X71985486Y-61227077D01*
X72183003Y-61093579D01*
X72355118Y-60928621D01*
X72496879Y-60736947D01*
X72604207Y-60524074D01*
X72674016Y-60296123D01*
X72704298Y-60059654D01*
X72694180Y-59821468D01*
X72683999Y-59774230D01*
X72643954Y-59588419D01*
X72555064Y-59367211D01*
X72555064Y-59367210D01*
X72430069Y-59164205D01*
X72272564Y-58985245D01*
X72087080Y-58835477D01*
X71973130Y-58771820D01*
X71878955Y-58719210D01*
X71654170Y-58639788D01*
X71419209Y-58599500D01*
X71419200Y-58599500D01*
X71240503Y-58599500D01*
X71240498Y-58599500D01*
X71062463Y-58614652D01*
X70831751Y-58674724D01*
X70614519Y-58772919D01*
X70614511Y-58772924D01*
X70417006Y-58906413D01*
X70416997Y-58906421D01*
X70244881Y-59071379D01*
X70103123Y-59263050D01*
X70103120Y-59263054D01*
X69995796Y-59475920D01*
X69995793Y-59475926D01*
X69925983Y-59703878D01*
X69895702Y-59940346D01*
X69905819Y-60178528D01*
X69905819Y-60178532D01*
X69956046Y-60411582D01*
X69956046Y-60411583D01*
X70040876Y-60622689D01*
X70047607Y-60692233D01*
X70015671Y-60754377D01*
X69955207Y-60789390D01*
X69916552Y-60792576D01*
X69875500Y-60789500D01*
X69875494Y-60789500D01*
X69744506Y-60789500D01*
X69744500Y-60789500D01*
X69548379Y-60804196D01*
X69548374Y-60804197D01*
X69292597Y-60862576D01*
X69292578Y-60862582D01*
X69048356Y-60958432D01*
X68821143Y-61089614D01*
X68616014Y-61253198D01*
X68437567Y-61445520D01*
X68289768Y-61662302D01*
X68289767Y-61662303D01*
X68175938Y-61898673D01*
X68098606Y-62149376D01*
X68098605Y-62149381D01*
X68098604Y-62149385D01*
X68088197Y-62218432D01*
X68059500Y-62408812D01*
X68059500Y-62671187D01*
X62340576Y-62671187D01*
X62340571Y-62671182D01*
X62193985Y-62513198D01*
X62063095Y-62408817D01*
X61988857Y-62349614D01*
X61761643Y-62218432D01*
X61517416Y-62122580D01*
X61517411Y-62122578D01*
X61517402Y-62122576D01*
X61299818Y-62072914D01*
X61261630Y-62064198D01*
X61261629Y-62064197D01*
X61261625Y-62064197D01*
X61261620Y-62064196D01*
X61065500Y-62049500D01*
X61065494Y-62049500D01*
X60934506Y-62049500D01*
X60934500Y-62049500D01*
X60738379Y-62064196D01*
X60738374Y-62064197D01*
X60482597Y-62122576D01*
X60482578Y-62122582D01*
X60238356Y-62218432D01*
X60011143Y-62349614D01*
X59806014Y-62513198D01*
X59627567Y-62705520D01*
X59479768Y-62922302D01*
X59479767Y-62922303D01*
X59365938Y-63158673D01*
X59288606Y-63409376D01*
X59288605Y-63409381D01*
X59288604Y-63409385D01*
X59276660Y-63488626D01*
X59249500Y-63668812D01*
X59249500Y-63931187D01*
X51873090Y-63931187D01*
X52003981Y-63826805D01*
X52035167Y-63793195D01*
X52043945Y-63783733D01*
X52182433Y-63634479D01*
X52330228Y-63417704D01*
X52444063Y-63181323D01*
X52521396Y-62930615D01*
X52560500Y-62671182D01*
X52560500Y-62408818D01*
X52521396Y-62149385D01*
X52444063Y-61898677D01*
X52382165Y-61770144D01*
X52330232Y-61662303D01*
X52330225Y-61662292D01*
X52282720Y-61592615D01*
X52261219Y-61526136D01*
X52279073Y-61458586D01*
X52330613Y-61411411D01*
X52374657Y-61399210D01*
X52537536Y-61385347D01*
X52537539Y-61385346D01*
X52537541Y-61385346D01*
X52768249Y-61325275D01*
X52927707Y-61253195D01*
X52985480Y-61227080D01*
X52985481Y-61227078D01*
X52985486Y-61227077D01*
X53183003Y-61093579D01*
X53355118Y-60928621D01*
X53496879Y-60736947D01*
X53604207Y-60524074D01*
X53674016Y-60296123D01*
X53704298Y-60059654D01*
X53699230Y-59940346D01*
X59295702Y-59940346D01*
X59305819Y-60178528D01*
X59305819Y-60178532D01*
X59356045Y-60411580D01*
X59440877Y-60622689D01*
X59444936Y-60632790D01*
X59569931Y-60835795D01*
X59727436Y-61014755D01*
X59912920Y-61164523D01*
X60121046Y-61280790D01*
X60246951Y-61325275D01*
X60345829Y-61360211D01*
X60580790Y-61400499D01*
X60580798Y-61400499D01*
X60580800Y-61400500D01*
X60580801Y-61400500D01*
X60759502Y-61400500D01*
X60937536Y-61385347D01*
X60937539Y-61385346D01*
X60937541Y-61385346D01*
X61168249Y-61325275D01*
X61327707Y-61253195D01*
X61385480Y-61227080D01*
X61385481Y-61227078D01*
X61385486Y-61227077D01*
X61583003Y-61093579D01*
X61755118Y-60928621D01*
X61896879Y-60736947D01*
X62004207Y-60524074D01*
X62074016Y-60296123D01*
X62102285Y-60075373D01*
X63745723Y-60075373D01*
X63775881Y-60375160D01*
X63775882Y-60375162D01*
X63845728Y-60668252D01*
X63845733Y-60668266D01*
X63954020Y-60949427D01*
X63954024Y-60949436D01*
X64098825Y-61213665D01*
X64098829Y-61213671D01*
X64206801Y-61360211D01*
X64277554Y-61456238D01*
X64277561Y-61456245D01*
X64487019Y-61672823D01*
X64723478Y-61859553D01*
X64723480Y-61859554D01*
X64723485Y-61859558D01*
X64982730Y-62013109D01*
X65260128Y-62130736D01*
X65550729Y-62210340D01*
X65849347Y-62250500D01*
X65849351Y-62250500D01*
X66075252Y-62250500D01*
X66239164Y-62239526D01*
X66300634Y-62235412D01*
X66595903Y-62175396D01*
X66880537Y-62076560D01*
X67149459Y-61940668D01*
X67397869Y-61770144D01*
X67621333Y-61568032D01*
X67815865Y-61337939D01*
X67977993Y-61083970D01*
X68104823Y-60810658D01*
X68194093Y-60522879D01*
X68244209Y-60225770D01*
X68254277Y-59924631D01*
X68224118Y-59624838D01*
X68154269Y-59331739D01*
X68045977Y-59050566D01*
X67901175Y-58786335D01*
X67722446Y-58543762D01*
X67512980Y-58327176D01*
X67389742Y-58229856D01*
X67276521Y-58140446D01*
X67276517Y-58140443D01*
X67276515Y-58140442D01*
X67017270Y-57986891D01*
X66739872Y-57869264D01*
X66739863Y-57869261D01*
X66449272Y-57789660D01*
X66374616Y-57779620D01*
X66150653Y-57749500D01*
X65924756Y-57749500D01*
X65924748Y-57749500D01*
X65699368Y-57764587D01*
X65699359Y-57764589D01*
X65404094Y-57824604D01*
X65119464Y-57923439D01*
X65119459Y-57923441D01*
X64850546Y-58059328D01*
X64602125Y-58229860D01*
X64378665Y-58431969D01*
X64184132Y-58662064D01*
X64022006Y-58916030D01*
X64022005Y-58916032D01*
X63906842Y-59164205D01*
X63895177Y-59189342D01*
X63895176Y-59189346D01*
X63805907Y-59477118D01*
X63787133Y-59588419D01*
X63755791Y-59774230D01*
X63746249Y-60059654D01*
X63745723Y-60075373D01*
X62102285Y-60075373D01*
X62104298Y-60059654D01*
X62094180Y-59821468D01*
X62083999Y-59774230D01*
X62043954Y-59588419D01*
X61955064Y-59367211D01*
X61955064Y-59367210D01*
X61830069Y-59164205D01*
X61672564Y-58985245D01*
X61487080Y-58835477D01*
X61373130Y-58771820D01*
X61278955Y-58719210D01*
X61054170Y-58639788D01*
X60819209Y-58599500D01*
X60819200Y-58599500D01*
X60640503Y-58599500D01*
X60640498Y-58599500D01*
X60462463Y-58614652D01*
X60231751Y-58674724D01*
X60014519Y-58772919D01*
X60014511Y-58772924D01*
X59817006Y-58906413D01*
X59816997Y-58906421D01*
X59644881Y-59071379D01*
X59503123Y-59263050D01*
X59503120Y-59263054D01*
X59395796Y-59475920D01*
X59395793Y-59475926D01*
X59325983Y-59703878D01*
X59295702Y-59940346D01*
X53699230Y-59940346D01*
X53694180Y-59821468D01*
X53683999Y-59774230D01*
X53643954Y-59588419D01*
X53555064Y-59367211D01*
X53555064Y-59367210D01*
X53430069Y-59164205D01*
X53272564Y-58985245D01*
X53087080Y-58835477D01*
X52973130Y-58771820D01*
X52878955Y-58719210D01*
X52654170Y-58639788D01*
X52419209Y-58599500D01*
X52419200Y-58599500D01*
X52240503Y-58599500D01*
X52240498Y-58599500D01*
X52062463Y-58614652D01*
X51831751Y-58674724D01*
X51614519Y-58772919D01*
X51614511Y-58772924D01*
X51417006Y-58906413D01*
X51416997Y-58906421D01*
X51244881Y-59071379D01*
X51103123Y-59263050D01*
X51103120Y-59263054D01*
X50995796Y-59475920D01*
X50995793Y-59475926D01*
X50925983Y-59703878D01*
X50895702Y-59940346D01*
X50905819Y-60178528D01*
X50905819Y-60178532D01*
X50956046Y-60411582D01*
X50956046Y-60411583D01*
X51040876Y-60622689D01*
X51047607Y-60692233D01*
X51015671Y-60754377D01*
X50955207Y-60789390D01*
X50916552Y-60792576D01*
X50875500Y-60789500D01*
X50875494Y-60789500D01*
X50744506Y-60789500D01*
X50744500Y-60789500D01*
X50548379Y-60804196D01*
X50548374Y-60804197D01*
X50292597Y-60862576D01*
X50292578Y-60862582D01*
X50048356Y-60958432D01*
X49821143Y-61089614D01*
X49616014Y-61253198D01*
X49437567Y-61445520D01*
X49289768Y-61662302D01*
X49289767Y-61662303D01*
X49175938Y-61898673D01*
X49098606Y-62149376D01*
X49098605Y-62149381D01*
X49098604Y-62149385D01*
X49088197Y-62218432D01*
X49059500Y-62408812D01*
X49059500Y-62671187D01*
X43340576Y-62671187D01*
X43340571Y-62671182D01*
X43193985Y-62513198D01*
X43063095Y-62408817D01*
X42988857Y-62349614D01*
X42761643Y-62218432D01*
X42517416Y-62122580D01*
X42517411Y-62122578D01*
X42517402Y-62122576D01*
X42299818Y-62072914D01*
X42261630Y-62064198D01*
X42261629Y-62064197D01*
X42261625Y-62064197D01*
X42261620Y-62064196D01*
X42065500Y-62049500D01*
X42065494Y-62049500D01*
X41934506Y-62049500D01*
X41934500Y-62049500D01*
X41738379Y-62064196D01*
X41738374Y-62064197D01*
X41482597Y-62122576D01*
X41482578Y-62122582D01*
X41238356Y-62218432D01*
X41011143Y-62349614D01*
X40806014Y-62513198D01*
X40627567Y-62705520D01*
X40479768Y-62922302D01*
X40479767Y-62922303D01*
X40365938Y-63158673D01*
X40288606Y-63409376D01*
X40288605Y-63409381D01*
X40288604Y-63409385D01*
X40276660Y-63488626D01*
X40249500Y-63668812D01*
X40249500Y-63931187D01*
X37500500Y-63931187D01*
X37500500Y-59940346D01*
X40295702Y-59940346D01*
X40305819Y-60178528D01*
X40305819Y-60178532D01*
X40356045Y-60411580D01*
X40440877Y-60622689D01*
X40444936Y-60632790D01*
X40569931Y-60835795D01*
X40727436Y-61014755D01*
X40912920Y-61164523D01*
X41121046Y-61280790D01*
X41246951Y-61325275D01*
X41345829Y-61360211D01*
X41580790Y-61400499D01*
X41580798Y-61400499D01*
X41580800Y-61400500D01*
X41580801Y-61400500D01*
X41759502Y-61400500D01*
X41937536Y-61385347D01*
X41937539Y-61385346D01*
X41937541Y-61385346D01*
X42168249Y-61325275D01*
X42327707Y-61253195D01*
X42385480Y-61227080D01*
X42385481Y-61227078D01*
X42385486Y-61227077D01*
X42583003Y-61093579D01*
X42755118Y-60928621D01*
X42896879Y-60736947D01*
X43004207Y-60524074D01*
X43074016Y-60296123D01*
X43102285Y-60075373D01*
X44745723Y-60075373D01*
X44775881Y-60375160D01*
X44775882Y-60375162D01*
X44845728Y-60668252D01*
X44845733Y-60668266D01*
X44954020Y-60949427D01*
X44954024Y-60949436D01*
X45098825Y-61213665D01*
X45098829Y-61213671D01*
X45206801Y-61360211D01*
X45277554Y-61456238D01*
X45277561Y-61456245D01*
X45487019Y-61672823D01*
X45723478Y-61859553D01*
X45723480Y-61859554D01*
X45723485Y-61859558D01*
X45982730Y-62013109D01*
X46260128Y-62130736D01*
X46550729Y-62210340D01*
X46849347Y-62250500D01*
X46849351Y-62250500D01*
X47075252Y-62250500D01*
X47239164Y-62239526D01*
X47300634Y-62235412D01*
X47595903Y-62175396D01*
X47880537Y-62076560D01*
X48149459Y-61940668D01*
X48397869Y-61770144D01*
X48621333Y-61568032D01*
X48815865Y-61337939D01*
X48977993Y-61083970D01*
X49104823Y-60810658D01*
X49194093Y-60522879D01*
X49244209Y-60225770D01*
X49254277Y-59924631D01*
X49224118Y-59624838D01*
X49154269Y-59331739D01*
X49045977Y-59050566D01*
X48901175Y-58786335D01*
X48722446Y-58543762D01*
X48512980Y-58327176D01*
X48389742Y-58229856D01*
X48276521Y-58140446D01*
X48276517Y-58140443D01*
X48276515Y-58140442D01*
X48017270Y-57986891D01*
X47739872Y-57869264D01*
X47739863Y-57869261D01*
X47449272Y-57789660D01*
X47374616Y-57779620D01*
X47150653Y-57749500D01*
X46924756Y-57749500D01*
X46924748Y-57749500D01*
X46699368Y-57764587D01*
X46699359Y-57764589D01*
X46404094Y-57824604D01*
X46119464Y-57923439D01*
X46119459Y-57923441D01*
X45850546Y-58059328D01*
X45602125Y-58229860D01*
X45378665Y-58431969D01*
X45184132Y-58662064D01*
X45022006Y-58916030D01*
X45022005Y-58916032D01*
X44906842Y-59164205D01*
X44895177Y-59189342D01*
X44895176Y-59189346D01*
X44805907Y-59477118D01*
X44787133Y-59588419D01*
X44755791Y-59774230D01*
X44746249Y-60059654D01*
X44745723Y-60075373D01*
X43102285Y-60075373D01*
X43104298Y-60059654D01*
X43094180Y-59821468D01*
X43083999Y-59774230D01*
X43043954Y-59588419D01*
X42955064Y-59367211D01*
X42955064Y-59367210D01*
X42830069Y-59164205D01*
X42672564Y-58985245D01*
X42487080Y-58835477D01*
X42373130Y-58771820D01*
X42278955Y-58719210D01*
X42054170Y-58639788D01*
X41819209Y-58599500D01*
X41819200Y-58599500D01*
X41640503Y-58599500D01*
X41640498Y-58599500D01*
X41462463Y-58614652D01*
X41231751Y-58674724D01*
X41014519Y-58772919D01*
X41014511Y-58772924D01*
X40817006Y-58906413D01*
X40816997Y-58906421D01*
X40644881Y-59071379D01*
X40503123Y-59263050D01*
X40503120Y-59263054D01*
X40395796Y-59475920D01*
X40395793Y-59475926D01*
X40325983Y-59703878D01*
X40295702Y-59940346D01*
X37500500Y-59940346D01*
X37500500Y-56428133D01*
X41025668Y-56428133D01*
X41041058Y-56515410D01*
X41056135Y-56600911D01*
X41125623Y-56762004D01*
X41125624Y-56762006D01*
X41125626Y-56762009D01*
X41180278Y-56835418D01*
X41230390Y-56902730D01*
X41364786Y-57015502D01*
X41442488Y-57054525D01*
X41521562Y-57094238D01*
X41521563Y-57094238D01*
X41521567Y-57094240D01*
X41692279Y-57134700D01*
X41692282Y-57134700D01*
X41823701Y-57134700D01*
X41823709Y-57134700D01*
X41954255Y-57119441D01*
X42119117Y-57059437D01*
X42253139Y-56971289D01*
X45237416Y-56971289D01*
X45237459Y-56995401D01*
X45237500Y-56995499D01*
X45237616Y-56995782D01*
X45237618Y-56995784D01*
X45237808Y-56995862D01*
X45238000Y-56995941D01*
X45238002Y-56995939D01*
X45262616Y-56995924D01*
X45262616Y-56995928D01*
X45262760Y-56995900D01*
X48453240Y-56995900D01*
X48453383Y-56995928D01*
X48453384Y-56995924D01*
X48477997Y-56995939D01*
X48478000Y-56995941D01*
X48478383Y-56995783D01*
X48478500Y-56995499D01*
X48478541Y-56995400D01*
X48478540Y-56995397D01*
X48478583Y-56971289D01*
X48478500Y-56970867D01*
X48478500Y-56428133D01*
X51465668Y-56428133D01*
X51481058Y-56515410D01*
X51496135Y-56600911D01*
X51565623Y-56762004D01*
X51565624Y-56762006D01*
X51565626Y-56762009D01*
X51620278Y-56835418D01*
X51670390Y-56902730D01*
X51804786Y-57015502D01*
X51882488Y-57054525D01*
X51961562Y-57094238D01*
X51961563Y-57094238D01*
X51961567Y-57094240D01*
X52132279Y-57134700D01*
X52132282Y-57134700D01*
X52263701Y-57134700D01*
X52263709Y-57134700D01*
X52394255Y-57119441D01*
X52559117Y-57059437D01*
X52705696Y-56963030D01*
X52826092Y-56835418D01*
X52913812Y-56683481D01*
X52964130Y-56515410D01*
X52969213Y-56428133D01*
X60025668Y-56428133D01*
X60041058Y-56515410D01*
X60056135Y-56600911D01*
X60125623Y-56762004D01*
X60125624Y-56762006D01*
X60125626Y-56762009D01*
X60180278Y-56835418D01*
X60230390Y-56902730D01*
X60364786Y-57015502D01*
X60442488Y-57054525D01*
X60521562Y-57094238D01*
X60521563Y-57094238D01*
X60521567Y-57094240D01*
X60692279Y-57134700D01*
X60692282Y-57134700D01*
X60823701Y-57134700D01*
X60823709Y-57134700D01*
X60954255Y-57119441D01*
X61119117Y-57059437D01*
X61265696Y-56963030D01*
X61386092Y-56835418D01*
X61473812Y-56683481D01*
X61524130Y-56515410D01*
X61534331Y-56340265D01*
X61503865Y-56167489D01*
X61434377Y-56006396D01*
X61329610Y-55865670D01*
X61257747Y-55805370D01*
X61195214Y-55752898D01*
X61195212Y-55752897D01*
X61038437Y-55674161D01*
X61038433Y-55674160D01*
X60867721Y-55633700D01*
X60736291Y-55633700D01*
X60631854Y-55645907D01*
X60605743Y-55648959D01*
X60605740Y-55648960D01*
X60440884Y-55708962D01*
X60440880Y-55708964D01*
X60294306Y-55805367D01*
X60294305Y-55805368D01*
X60173910Y-55932978D01*
X60086188Y-56084918D01*
X60035870Y-56252989D01*
X60035869Y-56252994D01*
X60025668Y-56428133D01*
X52969213Y-56428133D01*
X52974331Y-56340265D01*
X52943865Y-56167489D01*
X52874377Y-56006396D01*
X52769610Y-55865670D01*
X52697747Y-55805370D01*
X52635214Y-55752898D01*
X52635212Y-55752897D01*
X52478437Y-55674161D01*
X52478433Y-55674160D01*
X52307721Y-55633700D01*
X52176291Y-55633700D01*
X52071854Y-55645907D01*
X52045743Y-55648959D01*
X52045740Y-55648960D01*
X51880884Y-55708962D01*
X51880880Y-55708964D01*
X51734306Y-55805367D01*
X51734305Y-55805368D01*
X51613910Y-55932978D01*
X51526188Y-56084918D01*
X51475870Y-56252989D01*
X51475869Y-56252994D01*
X51465668Y-56428133D01*
X48478500Y-56428133D01*
X48478500Y-54033359D01*
X48478528Y-54033216D01*
X48478524Y-54033216D01*
X48478539Y-54008602D01*
X48478541Y-54008600D01*
X48478462Y-54008408D01*
X48478384Y-54008218D01*
X48478382Y-54008216D01*
X48478099Y-54008100D01*
X48478000Y-54008059D01*
X48453446Y-54008059D01*
X48453240Y-54008100D01*
X45262760Y-54008100D01*
X45262554Y-54008059D01*
X45238000Y-54008059D01*
X45237901Y-54008100D01*
X45237617Y-54008216D01*
X45237615Y-54008218D01*
X45237459Y-54008599D01*
X45237476Y-54033216D01*
X45237471Y-54033216D01*
X45237500Y-54033359D01*
X45237500Y-56970867D01*
X45237416Y-56971289D01*
X42253139Y-56971289D01*
X42265696Y-56963030D01*
X42386092Y-56835418D01*
X42473812Y-56683481D01*
X42524130Y-56515410D01*
X42534331Y-56340265D01*
X42503865Y-56167489D01*
X42434377Y-56006396D01*
X42329610Y-55865670D01*
X42257747Y-55805370D01*
X42195214Y-55752898D01*
X42195212Y-55752897D01*
X42038437Y-55674161D01*
X42038433Y-55674160D01*
X41867721Y-55633700D01*
X41736291Y-55633700D01*
X41631854Y-55645907D01*
X41605743Y-55648959D01*
X41605740Y-55648960D01*
X41440884Y-55708962D01*
X41440880Y-55708964D01*
X41294306Y-55805367D01*
X41294305Y-55805368D01*
X41173910Y-55932978D01*
X41086188Y-56084918D01*
X41035870Y-56252989D01*
X41035869Y-56252994D01*
X41025668Y-56428133D01*
X37500500Y-56428133D01*
X37500500Y-52500000D01*
X38786296Y-52500000D01*
X38807034Y-52670801D01*
X38859853Y-52810072D01*
X38868046Y-52831675D01*
X38922160Y-52910072D01*
X38965786Y-52973274D01*
X38965789Y-52973277D01*
X39094567Y-53087365D01*
X39094568Y-53087365D01*
X39094570Y-53087367D01*
X39246917Y-53167325D01*
X39246919Y-53167325D01*
X39246920Y-53167326D01*
X39413972Y-53208500D01*
X39586028Y-53208500D01*
X39753079Y-53167326D01*
X39753079Y-53167325D01*
X39753083Y-53167325D01*
X39905430Y-53087367D01*
X40034215Y-52973273D01*
X40131954Y-52831675D01*
X40192965Y-52670801D01*
X40213704Y-52500000D01*
X40203772Y-52418216D01*
X40203367Y-52413101D01*
X40202650Y-52394077D01*
X40197579Y-52366291D01*
X40197025Y-52362642D01*
X40192965Y-52329200D01*
X40192823Y-52328825D01*
X40186778Y-52307111D01*
X40174221Y-52238307D01*
X40137515Y-52037172D01*
X40135500Y-52014910D01*
X40135500Y-45506094D01*
X40155185Y-45439055D01*
X40207989Y-45393300D01*
X40277147Y-45383356D01*
X40340703Y-45412381D01*
X40371220Y-45452293D01*
X40479767Y-45677696D01*
X40479768Y-45677697D01*
X40479770Y-45677700D01*
X40479772Y-45677704D01*
X40627567Y-45894479D01*
X40806014Y-46086801D01*
X40806018Y-46086804D01*
X40806019Y-46086805D01*
X41011143Y-46250386D01*
X41238357Y-46381568D01*
X41482584Y-46477420D01*
X41738370Y-46535802D01*
X41738376Y-46535802D01*
X41738379Y-46535803D01*
X41934500Y-46550500D01*
X41934506Y-46550500D01*
X42065500Y-46550500D01*
X42261620Y-46535803D01*
X42261622Y-46535802D01*
X42261630Y-46535802D01*
X42517416Y-46477420D01*
X42601111Y-46444571D01*
X42670705Y-46438403D01*
X42732588Y-46470840D01*
X42764900Y-46523448D01*
X42825937Y-46721323D01*
X42825938Y-46721326D01*
X42939767Y-46957696D01*
X42939768Y-46957697D01*
X42939770Y-46957700D01*
X42939772Y-46957704D01*
X43015510Y-47068791D01*
X43087567Y-47174479D01*
X43266014Y-47366801D01*
X43266018Y-47366804D01*
X43266019Y-47366805D01*
X43471143Y-47530386D01*
X43698357Y-47661568D01*
X43942584Y-47757420D01*
X44198370Y-47815802D01*
X44198376Y-47815802D01*
X44198379Y-47815803D01*
X44394500Y-47830500D01*
X44394506Y-47830500D01*
X44525500Y-47830500D01*
X44721620Y-47815803D01*
X44721622Y-47815802D01*
X44721630Y-47815802D01*
X44977416Y-47757420D01*
X45221643Y-47661568D01*
X45221646Y-47661566D01*
X45221647Y-47661566D01*
X45264118Y-47637045D01*
X45332018Y-47620571D01*
X45398045Y-47643423D01*
X45437839Y-47690630D01*
X45479767Y-47777695D01*
X45479768Y-47777697D01*
X45479770Y-47777700D01*
X45479772Y-47777704D01*
X45505747Y-47815802D01*
X45627567Y-47994479D01*
X45806014Y-48186801D01*
X45806018Y-48186804D01*
X45806019Y-48186805D01*
X46011143Y-48350386D01*
X46238357Y-48481568D01*
X46482584Y-48577420D01*
X46738370Y-48635802D01*
X46738376Y-48635802D01*
X46738379Y-48635803D01*
X46934500Y-48650500D01*
X46934506Y-48650500D01*
X47065500Y-48650500D01*
X47261620Y-48635803D01*
X47261622Y-48635802D01*
X47261630Y-48635802D01*
X47517416Y-48577420D01*
X47761643Y-48481568D01*
X47988857Y-48350386D01*
X48193981Y-48186805D01*
X48372433Y-47994479D01*
X48520228Y-47777704D01*
X48634063Y-47541323D01*
X48711396Y-47290615D01*
X48750500Y-47031182D01*
X48750500Y-46768818D01*
X48711396Y-46509385D01*
X48634063Y-46258677D01*
X48551292Y-46086801D01*
X48520232Y-46022303D01*
X48520231Y-46022302D01*
X48520230Y-46022301D01*
X48520228Y-46022296D01*
X48372433Y-45805521D01*
X48362441Y-45794753D01*
X48193985Y-45613198D01*
X48154533Y-45581736D01*
X47988857Y-45449614D01*
X47761643Y-45318432D01*
X47517416Y-45222580D01*
X47517411Y-45222578D01*
X47517402Y-45222576D01*
X47299818Y-45172914D01*
X47261630Y-45164198D01*
X47261629Y-45164197D01*
X47261625Y-45164197D01*
X47261620Y-45164196D01*
X47065500Y-45149500D01*
X47065494Y-45149500D01*
X46934506Y-45149500D01*
X46934500Y-45149500D01*
X46738379Y-45164196D01*
X46738374Y-45164197D01*
X46482597Y-45222576D01*
X46482578Y-45222582D01*
X46238363Y-45318429D01*
X46238357Y-45318432D01*
X46195877Y-45342957D01*
X46127977Y-45359427D01*
X46061951Y-45336574D01*
X46022160Y-45289369D01*
X45980232Y-45202303D01*
X45980231Y-45202302D01*
X45980230Y-45202301D01*
X45980228Y-45202296D01*
X45832433Y-44985521D01*
X45782014Y-44931182D01*
X45653985Y-44793198D01*
X45498017Y-44668818D01*
X45448857Y-44629614D01*
X45221643Y-44498432D01*
X44977416Y-44402580D01*
X44977411Y-44402578D01*
X44977402Y-44402576D01*
X44759818Y-44352914D01*
X44721630Y-44344198D01*
X44721629Y-44344197D01*
X44721625Y-44344197D01*
X44721620Y-44344196D01*
X44525500Y-44329500D01*
X44525494Y-44329500D01*
X44394506Y-44329500D01*
X44394500Y-44329500D01*
X44198379Y-44344196D01*
X44198374Y-44344197D01*
X43942585Y-44402579D01*
X43858890Y-44435426D01*
X43789293Y-44441593D01*
X43727410Y-44409155D01*
X43695098Y-44356547D01*
X43674428Y-44289536D01*
X43634063Y-44158677D01*
X43608417Y-44105423D01*
X43520232Y-43922303D01*
X43520231Y-43922302D01*
X43520230Y-43922300D01*
X43520228Y-43922296D01*
X43372433Y-43705521D01*
X43356573Y-43688428D01*
X43193985Y-43513198D01*
X43063929Y-43409482D01*
X42988857Y-43349614D01*
X42761643Y-43218432D01*
X42517416Y-43122580D01*
X42517411Y-43122578D01*
X42517402Y-43122576D01*
X42299818Y-43072914D01*
X42261630Y-43064198D01*
X42261629Y-43064197D01*
X42261625Y-43064197D01*
X42261620Y-43064196D01*
X42065500Y-43049500D01*
X42065494Y-43049500D01*
X41934506Y-43049500D01*
X41934500Y-43049500D01*
X41738379Y-43064196D01*
X41738374Y-43064197D01*
X41482597Y-43122576D01*
X41482578Y-43122582D01*
X41238356Y-43218432D01*
X41011143Y-43349614D01*
X40806014Y-43513198D01*
X40627567Y-43705520D01*
X40479769Y-43922300D01*
X40371220Y-44147707D01*
X40324398Y-44199566D01*
X40256971Y-44217879D01*
X40190347Y-44196831D01*
X40145678Y-44143105D01*
X40135500Y-44093905D01*
X40135500Y-41503883D01*
X40155185Y-41436844D01*
X40207989Y-41391089D01*
X40277147Y-41381145D01*
X40340703Y-41410170D01*
X40374557Y-41457648D01*
X40444936Y-41632790D01*
X40569931Y-41835795D01*
X40727436Y-42014755D01*
X40912920Y-42164523D01*
X41121046Y-42280790D01*
X41246951Y-42325275D01*
X41345829Y-42360211D01*
X41580790Y-42400499D01*
X41580798Y-42400499D01*
X41580800Y-42400500D01*
X41580801Y-42400500D01*
X41759502Y-42400500D01*
X41937536Y-42385347D01*
X41937539Y-42385346D01*
X41937541Y-42385346D01*
X42168249Y-42325275D01*
X42327707Y-42253195D01*
X42385480Y-42227080D01*
X42385481Y-42227078D01*
X42385486Y-42227077D01*
X42583003Y-42093579D01*
X42755118Y-41928621D01*
X42896879Y-41736947D01*
X43004207Y-41524074D01*
X43074016Y-41296123D01*
X43102285Y-41075373D01*
X44745723Y-41075373D01*
X44775881Y-41375160D01*
X44775882Y-41375162D01*
X44845728Y-41668252D01*
X44845733Y-41668266D01*
X44954020Y-41949427D01*
X44954024Y-41949436D01*
X45098825Y-42213665D01*
X45098829Y-42213671D01*
X45206801Y-42360211D01*
X45277554Y-42456238D01*
X45277561Y-42456245D01*
X45487019Y-42672823D01*
X45723478Y-42859553D01*
X45723480Y-42859554D01*
X45723485Y-42859558D01*
X45982730Y-43013109D01*
X46260128Y-43130736D01*
X46550729Y-43210340D01*
X46849347Y-43250500D01*
X46849351Y-43250500D01*
X47075252Y-43250500D01*
X47239164Y-43239526D01*
X47300634Y-43235412D01*
X47595903Y-43175396D01*
X47880537Y-43076560D01*
X48149459Y-42940668D01*
X48397869Y-42770144D01*
X48621333Y-42568032D01*
X48815865Y-42337939D01*
X48977993Y-42083970D01*
X49104823Y-41810658D01*
X49194093Y-41522879D01*
X49244209Y-41225770D01*
X49254277Y-40924631D01*
X49224118Y-40624838D01*
X49154269Y-40331739D01*
X49045977Y-40050566D01*
X48901175Y-39786335D01*
X48722446Y-39543762D01*
X48512980Y-39327176D01*
X48389742Y-39229856D01*
X48276521Y-39140446D01*
X48276517Y-39140443D01*
X48276515Y-39140442D01*
X48017270Y-38986891D01*
X47739872Y-38869264D01*
X47739863Y-38869261D01*
X47449272Y-38789660D01*
X47374616Y-38779620D01*
X47150653Y-38749500D01*
X46924756Y-38749500D01*
X46924748Y-38749500D01*
X46699368Y-38764587D01*
X46699359Y-38764589D01*
X46404094Y-38824604D01*
X46119464Y-38923439D01*
X46119459Y-38923441D01*
X45850546Y-39059328D01*
X45602125Y-39229860D01*
X45378665Y-39431969D01*
X45184132Y-39662064D01*
X45022006Y-39916030D01*
X45022005Y-39916032D01*
X44906842Y-40164205D01*
X44895177Y-40189342D01*
X44895176Y-40189346D01*
X44805907Y-40477118D01*
X44783544Y-40609696D01*
X44755791Y-40774230D01*
X44746249Y-41059654D01*
X44745723Y-41075373D01*
X43102285Y-41075373D01*
X43104298Y-41059654D01*
X43094180Y-40821468D01*
X43083999Y-40774230D01*
X43043954Y-40588419D01*
X42955064Y-40367210D01*
X42830069Y-40164205D01*
X42672564Y-39985245D01*
X42487080Y-39835477D01*
X42373130Y-39771820D01*
X42278955Y-39719210D01*
X42054170Y-39639788D01*
X41819209Y-39599500D01*
X41819200Y-39599500D01*
X41640503Y-39599500D01*
X41640498Y-39599500D01*
X41462463Y-39614652D01*
X41231751Y-39674724D01*
X41014519Y-39772919D01*
X41014511Y-39772924D01*
X40817006Y-39906413D01*
X40816997Y-39906421D01*
X40644881Y-40071379D01*
X40557637Y-40189342D01*
X40503121Y-40263053D01*
X40395793Y-40475926D01*
X40378063Y-40533817D01*
X40339612Y-40592153D01*
X40275725Y-40620440D01*
X40206686Y-40609696D01*
X40154415Y-40563333D01*
X40135500Y-40497506D01*
X40135500Y-38738528D01*
X40155185Y-38671489D01*
X40171815Y-38650851D01*
X40996442Y-37826223D01*
X41057763Y-37792740D01*
X41127454Y-37797724D01*
X41183388Y-37839596D01*
X41183584Y-37839859D01*
X41230387Y-37902727D01*
X41230389Y-37902729D01*
X41230390Y-37902730D01*
X41364786Y-38015502D01*
X41428358Y-38047429D01*
X41521562Y-38094238D01*
X41521563Y-38094238D01*
X41521567Y-38094240D01*
X41692279Y-38134700D01*
X41692282Y-38134700D01*
X41823701Y-38134700D01*
X41823709Y-38134700D01*
X41954255Y-38119441D01*
X42119117Y-38059437D01*
X42253139Y-37971289D01*
X45237416Y-37971289D01*
X45237459Y-37995401D01*
X45237500Y-37995499D01*
X45237616Y-37995782D01*
X45237618Y-37995784D01*
X45237808Y-37995862D01*
X45238000Y-37995941D01*
X45238002Y-37995939D01*
X45262616Y-37995924D01*
X45262616Y-37995928D01*
X45262760Y-37995900D01*
X48453240Y-37995900D01*
X48453383Y-37995928D01*
X48453384Y-37995924D01*
X48477997Y-37995939D01*
X48478000Y-37995941D01*
X48478383Y-37995783D01*
X48478500Y-37995499D01*
X48478541Y-37995400D01*
X48478540Y-37995397D01*
X48478583Y-37971289D01*
X48478500Y-37970867D01*
X48478500Y-37428133D01*
X51465668Y-37428133D01*
X51496134Y-37600906D01*
X51496135Y-37600911D01*
X51565623Y-37762004D01*
X51565624Y-37762006D01*
X51565626Y-37762009D01*
X51613434Y-37826225D01*
X51670390Y-37902730D01*
X51804786Y-38015502D01*
X51868358Y-38047429D01*
X51961562Y-38094238D01*
X51961563Y-38094238D01*
X51961567Y-38094240D01*
X52132279Y-38134700D01*
X52132282Y-38134700D01*
X52263701Y-38134700D01*
X52263709Y-38134700D01*
X52394255Y-38119441D01*
X52559117Y-38059437D01*
X52705696Y-37963030D01*
X52826092Y-37835418D01*
X52913812Y-37683481D01*
X52964130Y-37515410D01*
X52974331Y-37340265D01*
X52943865Y-37167489D01*
X52874377Y-37006396D01*
X52863692Y-36992044D01*
X52769609Y-36865669D01*
X52635214Y-36752898D01*
X52635212Y-36752897D01*
X52478437Y-36674161D01*
X52478433Y-36674160D01*
X52307721Y-36633700D01*
X52176291Y-36633700D01*
X52071854Y-36645907D01*
X52045743Y-36648959D01*
X52045740Y-36648960D01*
X51880884Y-36708962D01*
X51880880Y-36708964D01*
X51734306Y-36805367D01*
X51734305Y-36805368D01*
X51613910Y-36932978D01*
X51526188Y-37084918D01*
X51475870Y-37252989D01*
X51475869Y-37252994D01*
X51465668Y-37428133D01*
X48478500Y-37428133D01*
X48478500Y-35033359D01*
X48478528Y-35033216D01*
X48478524Y-35033216D01*
X48478539Y-35008602D01*
X48478541Y-35008600D01*
X48478462Y-35008408D01*
X48478384Y-35008218D01*
X48478382Y-35008216D01*
X48478099Y-35008100D01*
X48478000Y-35008059D01*
X48453446Y-35008059D01*
X48453240Y-35008100D01*
X45262760Y-35008100D01*
X45262554Y-35008059D01*
X45238000Y-35008059D01*
X45237901Y-35008100D01*
X45237617Y-35008216D01*
X45237615Y-35008218D01*
X45237459Y-35008599D01*
X45237476Y-35033216D01*
X45237471Y-35033216D01*
X45237500Y-35033359D01*
X45237500Y-37970867D01*
X45237416Y-37971289D01*
X42253139Y-37971289D01*
X42265696Y-37963030D01*
X42386092Y-37835418D01*
X42473812Y-37683481D01*
X42524130Y-37515410D01*
X42534331Y-37340265D01*
X42503865Y-37167489D01*
X42434377Y-37006396D01*
X42423692Y-36992044D01*
X42329609Y-36865669D01*
X42230665Y-36782645D01*
X42191963Y-36724474D01*
X42190855Y-36654613D01*
X42222688Y-36599977D01*
X46123848Y-32698819D01*
X46185171Y-32665334D01*
X46211529Y-32662500D01*
X52029944Y-32662500D01*
X52096983Y-32682185D01*
X52142738Y-32734989D01*
X52152682Y-32804147D01*
X52145886Y-32830471D01*
X52107034Y-32932912D01*
X52086296Y-33103713D01*
X52086296Y-33103714D01*
X52107034Y-33274515D01*
X52167151Y-33433029D01*
X52172518Y-33502692D01*
X52139370Y-33564198D01*
X52078232Y-33598020D01*
X52051209Y-33601000D01*
X51682076Y-33601000D01*
X51655067Y-33598023D01*
X51099763Y-33474093D01*
X51085151Y-33469265D01*
X51085076Y-33469498D01*
X51078897Y-33467490D01*
X50892101Y-33427786D01*
X50701127Y-33427786D01*
X50514328Y-33467491D01*
X50339860Y-33545169D01*
X50185359Y-33657421D01*
X50057573Y-33799343D01*
X49962087Y-33964729D01*
X49962084Y-33964736D01*
X49903073Y-34146354D01*
X49903072Y-34146358D01*
X49883110Y-34336286D01*
X49903072Y-34526214D01*
X49903073Y-34526217D01*
X49962084Y-34707835D01*
X49962087Y-34707842D01*
X50057574Y-34873230D01*
X50159904Y-34986880D01*
X50179461Y-35008600D01*
X50185361Y-35015152D01*
X50339862Y-35127404D01*
X50514326Y-35205080D01*
X50701127Y-35244786D01*
X50892101Y-35244786D01*
X51078902Y-35205080D01*
X51095227Y-35197811D01*
X51119590Y-35190266D01*
X51119556Y-35190135D01*
X51122360Y-35189408D01*
X51123247Y-35189134D01*
X51123843Y-35189025D01*
X51123844Y-35189024D01*
X51123847Y-35189024D01*
X51669105Y-35005480D01*
X51708665Y-34999000D01*
X55413102Y-34999000D01*
X55480141Y-35018685D01*
X55525896Y-35071489D01*
X55535840Y-35140647D01*
X55506815Y-35204203D01*
X55500783Y-35210681D01*
X53721985Y-36989477D01*
X53719258Y-36992044D01*
X53672950Y-37033071D01*
X53672947Y-37033073D01*
X53637794Y-37084001D01*
X53635575Y-37087016D01*
X53597418Y-37135722D01*
X53597414Y-37135729D01*
X53593277Y-37144921D01*
X53582256Y-37164462D01*
X53576519Y-37172772D01*
X53554571Y-37230642D01*
X53553139Y-37234100D01*
X53527748Y-37290517D01*
X53525930Y-37300441D01*
X53519906Y-37322049D01*
X53516329Y-37331482D01*
X53516326Y-37331490D01*
X53508867Y-37392921D01*
X53508304Y-37396624D01*
X53497151Y-37457482D01*
X53497151Y-37457485D01*
X53500887Y-37519249D01*
X53501000Y-37522994D01*
X53501000Y-39916220D01*
X53481315Y-39983259D01*
X53428511Y-40029014D01*
X53359353Y-40038958D01*
X53295797Y-40009933D01*
X53283918Y-39998145D01*
X53272565Y-39985246D01*
X53270104Y-39983259D01*
X53087080Y-39835477D01*
X52973130Y-39771820D01*
X52878955Y-39719210D01*
X52654170Y-39639788D01*
X52419209Y-39599500D01*
X52419200Y-39599500D01*
X52240503Y-39599500D01*
X52240498Y-39599500D01*
X52062463Y-39614652D01*
X51831751Y-39674724D01*
X51614519Y-39772919D01*
X51614511Y-39772924D01*
X51417006Y-39906413D01*
X51416997Y-39906421D01*
X51244881Y-40071379D01*
X51103123Y-40263050D01*
X51103120Y-40263054D01*
X50995796Y-40475920D01*
X50995793Y-40475926D01*
X50925983Y-40703878D01*
X50895702Y-40940346D01*
X50905819Y-41178528D01*
X50905819Y-41178532D01*
X50956046Y-41411582D01*
X50956046Y-41411583D01*
X51040876Y-41622689D01*
X51047607Y-41692233D01*
X51015671Y-41754377D01*
X50955207Y-41789390D01*
X50916552Y-41792576D01*
X50875500Y-41789500D01*
X50875494Y-41789500D01*
X50744506Y-41789500D01*
X50744500Y-41789500D01*
X50548379Y-41804196D01*
X50548374Y-41804197D01*
X50292597Y-41862576D01*
X50292578Y-41862582D01*
X50048356Y-41958432D01*
X49821143Y-42089614D01*
X49616014Y-42253198D01*
X49437567Y-42445520D01*
X49289768Y-42662302D01*
X49289767Y-42662303D01*
X49175938Y-42898673D01*
X49098606Y-43149376D01*
X49098605Y-43149381D01*
X49098604Y-43149385D01*
X49083853Y-43247247D01*
X49059500Y-43408812D01*
X49059500Y-43671187D01*
X49068725Y-43732386D01*
X49098604Y-43930615D01*
X49098605Y-43930617D01*
X49098606Y-43930623D01*
X49175938Y-44181326D01*
X49289767Y-44417696D01*
X49289768Y-44417697D01*
X49289770Y-44417700D01*
X49289772Y-44417704D01*
X49338126Y-44488626D01*
X49437567Y-44634479D01*
X49616014Y-44826801D01*
X49616018Y-44826804D01*
X49616019Y-44826805D01*
X49821143Y-44990386D01*
X50048357Y-45121568D01*
X50292584Y-45217420D01*
X50548370Y-45275802D01*
X50548376Y-45275802D01*
X50548379Y-45275803D01*
X50744500Y-45290500D01*
X50744506Y-45290500D01*
X50875500Y-45290500D01*
X51071620Y-45275803D01*
X51071622Y-45275802D01*
X51071630Y-45275802D01*
X51327416Y-45217420D01*
X51571643Y-45121568D01*
X51798857Y-44990386D01*
X52003981Y-44826805D01*
X52035167Y-44793195D01*
X52043945Y-44783733D01*
X52182433Y-44634479D01*
X52330228Y-44417704D01*
X52444063Y-44181323D01*
X52458509Y-44134488D01*
X52497079Y-44076230D01*
X52561024Y-44048072D01*
X52630040Y-44058955D01*
X52682217Y-44105423D01*
X52701000Y-44171038D01*
X52701000Y-47677004D01*
X52700887Y-47680748D01*
X52697150Y-47742512D01*
X52697151Y-47742515D01*
X52698969Y-47752435D01*
X52701000Y-47774787D01*
X52701000Y-50459101D01*
X52681315Y-50526140D01*
X52664681Y-50546782D01*
X51345425Y-51866037D01*
X51318860Y-51886249D01*
X51052425Y-52037172D01*
X50802815Y-52178564D01*
X50802812Y-52178566D01*
X50780861Y-52191656D01*
X50774320Y-52195047D01*
X50743250Y-52208880D01*
X50588745Y-52321135D01*
X50460959Y-52463057D01*
X50365473Y-52628443D01*
X50365470Y-52628450D01*
X50306459Y-52810068D01*
X50306458Y-52810072D01*
X50286496Y-53000000D01*
X50306458Y-53189928D01*
X50306459Y-53189931D01*
X50365470Y-53371549D01*
X50365473Y-53371556D01*
X50460960Y-53536944D01*
X50588747Y-53678866D01*
X50743248Y-53791118D01*
X50917712Y-53868794D01*
X51104513Y-53908500D01*
X51295487Y-53908500D01*
X51482288Y-53868794D01*
X51656752Y-53791118D01*
X51811253Y-53678866D01*
X51939040Y-53536944D01*
X52012618Y-53409501D01*
X52017269Y-53402570D01*
X52021437Y-53397180D01*
X52313744Y-52881143D01*
X52333951Y-52854583D01*
X53878028Y-51310506D01*
X53880703Y-51307987D01*
X53927052Y-51266927D01*
X53962209Y-51215991D01*
X53964410Y-51212999D01*
X54002584Y-51164275D01*
X54006722Y-51155078D01*
X54017745Y-51135533D01*
X54023480Y-51127227D01*
X54045426Y-51069356D01*
X54046850Y-51065916D01*
X54072251Y-51009482D01*
X54074069Y-50999560D01*
X54080097Y-50977938D01*
X54083673Y-50968510D01*
X54091132Y-50907067D01*
X54091693Y-50903384D01*
X54102849Y-50842516D01*
X54102849Y-50842513D01*
X54099113Y-50780743D01*
X54099000Y-50776999D01*
X54099000Y-49686897D01*
X54118685Y-49619858D01*
X54171489Y-49574103D01*
X54240647Y-49564159D01*
X54304203Y-49593184D01*
X54310681Y-49599216D01*
X58289484Y-53578019D01*
X58292035Y-53580730D01*
X58333073Y-53627052D01*
X58384010Y-53662211D01*
X58387012Y-53664420D01*
X58405449Y-53678864D01*
X58435725Y-53702584D01*
X58435727Y-53702585D01*
X58435726Y-53702585D01*
X58444913Y-53706719D01*
X58464465Y-53717745D01*
X58472773Y-53723480D01*
X58472775Y-53723480D01*
X58472777Y-53723482D01*
X58507611Y-53736692D01*
X58530645Y-53745427D01*
X58534083Y-53746852D01*
X58590517Y-53772251D01*
X58600433Y-53774068D01*
X58622055Y-53780094D01*
X58631490Y-53783673D01*
X58631489Y-53783673D01*
X58668100Y-53788117D01*
X58692912Y-53791130D01*
X58696615Y-53791694D01*
X58717440Y-53795510D01*
X58757485Y-53802849D01*
X58757485Y-53802848D01*
X58757486Y-53802849D01*
X58819251Y-53799113D01*
X58822995Y-53799000D01*
X64147470Y-53799000D01*
X64214509Y-53818685D01*
X64260264Y-53871489D01*
X64270208Y-53940647D01*
X64241183Y-54004203D01*
X64237752Y-54007886D01*
X64237459Y-54008599D01*
X64237476Y-54033216D01*
X64237471Y-54033216D01*
X64237500Y-54033359D01*
X64237500Y-56970867D01*
X64237416Y-56971289D01*
X64237459Y-56995401D01*
X64237500Y-56995499D01*
X64237616Y-56995782D01*
X64237618Y-56995784D01*
X64237808Y-56995862D01*
X64238000Y-56995941D01*
X64238002Y-56995939D01*
X64262616Y-56995924D01*
X64262616Y-56995928D01*
X64262760Y-56995900D01*
X67453240Y-56995900D01*
X67453383Y-56995928D01*
X67453384Y-56995924D01*
X67477997Y-56995939D01*
X67478000Y-56995941D01*
X67478383Y-56995783D01*
X67478500Y-56995499D01*
X67478541Y-56995400D01*
X67478540Y-56995397D01*
X67478583Y-56971289D01*
X67478500Y-56970867D01*
X67478500Y-56428133D01*
X70465668Y-56428133D01*
X70481058Y-56515410D01*
X70496135Y-56600911D01*
X70565623Y-56762004D01*
X70565624Y-56762006D01*
X70565626Y-56762009D01*
X70620278Y-56835418D01*
X70670390Y-56902730D01*
X70804786Y-57015502D01*
X70882488Y-57054525D01*
X70961562Y-57094238D01*
X70961563Y-57094238D01*
X70961567Y-57094240D01*
X71132279Y-57134700D01*
X71132282Y-57134700D01*
X71263701Y-57134700D01*
X71263709Y-57134700D01*
X71394255Y-57119441D01*
X71559117Y-57059437D01*
X71705696Y-56963030D01*
X71826092Y-56835418D01*
X71913812Y-56683481D01*
X71964130Y-56515410D01*
X71974331Y-56340265D01*
X71943865Y-56167489D01*
X71874377Y-56006396D01*
X71769610Y-55865670D01*
X71697747Y-55805370D01*
X71635214Y-55752898D01*
X71635212Y-55752897D01*
X71478437Y-55674161D01*
X71478433Y-55674160D01*
X71307721Y-55633700D01*
X71176291Y-55633700D01*
X71071854Y-55645907D01*
X71045743Y-55648959D01*
X71045740Y-55648960D01*
X70880884Y-55708962D01*
X70880880Y-55708964D01*
X70734306Y-55805367D01*
X70734305Y-55805368D01*
X70613910Y-55932978D01*
X70526188Y-56084918D01*
X70475870Y-56252989D01*
X70475869Y-56252994D01*
X70465668Y-56428133D01*
X67478500Y-56428133D01*
X67478500Y-54033359D01*
X67478528Y-54033216D01*
X67478524Y-54033216D01*
X67478539Y-54008602D01*
X67478541Y-54008600D01*
X67478462Y-54008408D01*
X67478384Y-54008218D01*
X67478382Y-54008216D01*
X67478099Y-54008100D01*
X67478000Y-54008059D01*
X67453446Y-54008059D01*
X67453240Y-54008100D01*
X66577372Y-54008100D01*
X66510333Y-53988415D01*
X66464578Y-53935611D01*
X66454634Y-53866453D01*
X66483659Y-53802897D01*
X66504483Y-53783784D01*
X66511253Y-53778866D01*
X66639040Y-53636944D01*
X66734527Y-53471556D01*
X66793542Y-53289928D01*
X66813504Y-53100000D01*
X66793542Y-52910072D01*
X66734527Y-52728444D01*
X66639040Y-52563056D01*
X66511253Y-52421134D01*
X66356752Y-52308882D01*
X66182288Y-52231206D01*
X66182286Y-52231205D01*
X65995487Y-52191500D01*
X65804513Y-52191500D01*
X65617713Y-52231205D01*
X65617700Y-52231210D01*
X65613081Y-52233266D01*
X65595740Y-52239486D01*
X65083308Y-52381315D01*
X65028417Y-52396507D01*
X64995342Y-52401000D01*
X59140897Y-52401000D01*
X59073858Y-52381315D01*
X59053216Y-52364681D01*
X57535716Y-50847181D01*
X57502231Y-50785858D01*
X57507215Y-50716166D01*
X57549087Y-50660233D01*
X57614551Y-50635816D01*
X57623397Y-50635500D01*
X69114914Y-50635500D01*
X69137176Y-50637515D01*
X69188930Y-50646960D01*
X69477462Y-50699617D01*
X69481101Y-50700397D01*
X69504835Y-50706247D01*
X69513970Y-50708500D01*
X69513972Y-50708500D01*
X69532745Y-50708500D01*
X69538490Y-50708766D01*
X69540736Y-50708976D01*
X69624692Y-50708583D01*
X69642630Y-50708500D01*
X69686028Y-50708500D01*
X69853079Y-50667326D01*
X69853079Y-50667325D01*
X69853083Y-50667325D01*
X70005430Y-50587367D01*
X70134215Y-50473273D01*
X70231954Y-50331675D01*
X70292965Y-50170801D01*
X70313704Y-50000000D01*
X70292965Y-49829199D01*
X70231954Y-49668325D01*
X70134215Y-49526727D01*
X70134213Y-49526725D01*
X70134210Y-49526722D01*
X70005432Y-49412634D01*
X69853079Y-49332673D01*
X69686028Y-49291500D01*
X69513972Y-49291500D01*
X69513968Y-49291500D01*
X69486643Y-49298235D01*
X69481136Y-49299592D01*
X69477438Y-49300385D01*
X69137170Y-49362485D01*
X69114907Y-49364500D01*
X57414594Y-49364500D01*
X57347555Y-49344815D01*
X57326913Y-49328181D01*
X55392377Y-47393644D01*
X55378060Y-47376478D01*
X55165346Y-47068791D01*
X55151747Y-47050854D01*
X55150230Y-47049026D01*
X55148269Y-47046662D01*
X55144962Y-47042297D01*
X55137290Y-47031182D01*
X55134215Y-47026727D01*
X55088450Y-46986182D01*
X55085927Y-46983818D01*
X55072239Y-46970257D01*
X55066355Y-46965685D01*
X55066514Y-46965479D01*
X55058184Y-46959369D01*
X55005430Y-46912633D01*
X54853079Y-46832673D01*
X54686028Y-46791500D01*
X54513972Y-46791500D01*
X54346918Y-46832674D01*
X54280625Y-46867468D01*
X54212117Y-46881193D01*
X54147064Y-46855700D01*
X54106120Y-46799084D01*
X54099000Y-46757671D01*
X54099000Y-44931187D01*
X59249500Y-44931187D01*
X59269794Y-45065823D01*
X59288604Y-45190615D01*
X59288605Y-45190617D01*
X59288606Y-45190623D01*
X59365938Y-45441326D01*
X59479767Y-45677696D01*
X59479768Y-45677697D01*
X59479770Y-45677700D01*
X59479772Y-45677704D01*
X59627567Y-45894479D01*
X59806014Y-46086801D01*
X59806018Y-46086804D01*
X59806019Y-46086805D01*
X60011143Y-46250386D01*
X60238357Y-46381568D01*
X60482584Y-46477420D01*
X60738370Y-46535802D01*
X60738376Y-46535802D01*
X60738379Y-46535803D01*
X60934500Y-46550500D01*
X60934506Y-46550500D01*
X61065500Y-46550500D01*
X61261620Y-46535803D01*
X61261622Y-46535802D01*
X61261630Y-46535802D01*
X61517416Y-46477420D01*
X61601111Y-46444571D01*
X61670705Y-46438403D01*
X61732588Y-46470840D01*
X61764900Y-46523448D01*
X61825937Y-46721323D01*
X61825938Y-46721326D01*
X61939767Y-46957696D01*
X61939768Y-46957697D01*
X61939770Y-46957700D01*
X61939772Y-46957704D01*
X62015510Y-47068791D01*
X62087567Y-47174479D01*
X62266014Y-47366801D01*
X62266018Y-47366804D01*
X62266019Y-47366805D01*
X62471143Y-47530386D01*
X62698357Y-47661568D01*
X62942584Y-47757420D01*
X63198370Y-47815802D01*
X63198376Y-47815802D01*
X63198379Y-47815803D01*
X63394500Y-47830500D01*
X63394506Y-47830500D01*
X63525500Y-47830500D01*
X63721620Y-47815803D01*
X63721622Y-47815802D01*
X63721630Y-47815802D01*
X63977416Y-47757420D01*
X64221643Y-47661568D01*
X64221646Y-47661566D01*
X64221647Y-47661566D01*
X64264118Y-47637045D01*
X64332018Y-47620571D01*
X64398045Y-47643423D01*
X64437839Y-47690630D01*
X64479767Y-47777695D01*
X64479768Y-47777697D01*
X64479770Y-47777700D01*
X64479772Y-47777704D01*
X64505747Y-47815802D01*
X64627567Y-47994479D01*
X64806014Y-48186801D01*
X64806018Y-48186804D01*
X64806019Y-48186805D01*
X65011143Y-48350386D01*
X65238357Y-48481568D01*
X65482584Y-48577420D01*
X65738370Y-48635802D01*
X65738376Y-48635802D01*
X65738379Y-48635803D01*
X65934500Y-48650500D01*
X65934506Y-48650500D01*
X66065500Y-48650500D01*
X66261620Y-48635803D01*
X66261622Y-48635802D01*
X66261630Y-48635802D01*
X66517416Y-48577420D01*
X66761643Y-48481568D01*
X66988857Y-48350386D01*
X67193981Y-48186805D01*
X67372433Y-47994479D01*
X67520228Y-47777704D01*
X67634063Y-47541323D01*
X67711396Y-47290615D01*
X67750500Y-47031182D01*
X67750500Y-46768818D01*
X67711396Y-46509385D01*
X67634063Y-46258677D01*
X67551292Y-46086801D01*
X67520232Y-46022303D01*
X67520231Y-46022302D01*
X67520230Y-46022301D01*
X67520228Y-46022296D01*
X67372433Y-45805521D01*
X67362441Y-45794753D01*
X67193985Y-45613198D01*
X67154533Y-45581736D01*
X66988857Y-45449614D01*
X66761643Y-45318432D01*
X66517416Y-45222580D01*
X66517411Y-45222578D01*
X66517402Y-45222576D01*
X66299818Y-45172914D01*
X66261630Y-45164198D01*
X66261629Y-45164197D01*
X66261625Y-45164197D01*
X66261620Y-45164196D01*
X66065500Y-45149500D01*
X66065494Y-45149500D01*
X65934506Y-45149500D01*
X65934500Y-45149500D01*
X65738379Y-45164196D01*
X65738374Y-45164197D01*
X65482597Y-45222576D01*
X65482578Y-45222582D01*
X65238363Y-45318429D01*
X65238357Y-45318432D01*
X65195877Y-45342957D01*
X65127977Y-45359427D01*
X65061951Y-45336574D01*
X65022160Y-45289369D01*
X64980232Y-45202303D01*
X64980231Y-45202302D01*
X64980230Y-45202301D01*
X64980228Y-45202296D01*
X64832433Y-44985521D01*
X64782014Y-44931182D01*
X64653985Y-44793198D01*
X64498017Y-44668818D01*
X64448857Y-44629614D01*
X64221643Y-44498432D01*
X63977416Y-44402580D01*
X63977411Y-44402578D01*
X63977402Y-44402576D01*
X63759818Y-44352914D01*
X63721630Y-44344198D01*
X63721629Y-44344197D01*
X63721625Y-44344197D01*
X63721620Y-44344196D01*
X63525500Y-44329500D01*
X63525494Y-44329500D01*
X63394506Y-44329500D01*
X63394500Y-44329500D01*
X63198379Y-44344196D01*
X63198374Y-44344197D01*
X62942585Y-44402579D01*
X62858890Y-44435426D01*
X62789293Y-44441593D01*
X62727410Y-44409155D01*
X62695098Y-44356547D01*
X62674428Y-44289536D01*
X62634063Y-44158677D01*
X62608417Y-44105423D01*
X62520232Y-43922303D01*
X62520231Y-43922302D01*
X62520230Y-43922300D01*
X62520228Y-43922296D01*
X62372433Y-43705521D01*
X62356573Y-43688428D01*
X62340576Y-43671187D01*
X68059500Y-43671187D01*
X68068725Y-43732386D01*
X68098604Y-43930615D01*
X68098605Y-43930617D01*
X68098606Y-43930623D01*
X68175938Y-44181326D01*
X68289767Y-44417696D01*
X68289768Y-44417697D01*
X68289770Y-44417700D01*
X68289772Y-44417704D01*
X68338126Y-44488626D01*
X68437567Y-44634479D01*
X68616014Y-44826801D01*
X68616018Y-44826804D01*
X68616019Y-44826805D01*
X68821143Y-44990386D01*
X69048357Y-45121568D01*
X69292584Y-45217420D01*
X69548370Y-45275802D01*
X69548376Y-45275802D01*
X69548379Y-45275803D01*
X69744500Y-45290500D01*
X69744506Y-45290500D01*
X69875500Y-45290500D01*
X70071620Y-45275803D01*
X70071622Y-45275802D01*
X70071630Y-45275802D01*
X70327416Y-45217420D01*
X70571643Y-45121568D01*
X70798857Y-44990386D01*
X71003981Y-44826805D01*
X71035167Y-44793195D01*
X71043945Y-44783733D01*
X71182433Y-44634479D01*
X71330228Y-44417704D01*
X71444063Y-44181323D01*
X71521396Y-43930615D01*
X71560500Y-43671182D01*
X71560500Y-43408818D01*
X71521396Y-43149385D01*
X71444063Y-42898677D01*
X71382165Y-42770144D01*
X71330232Y-42662303D01*
X71330225Y-42662292D01*
X71282720Y-42592615D01*
X71261219Y-42526136D01*
X71279073Y-42458586D01*
X71330613Y-42411411D01*
X71374657Y-42399210D01*
X71537536Y-42385347D01*
X71537539Y-42385346D01*
X71537541Y-42385346D01*
X71768249Y-42325275D01*
X71927707Y-42253195D01*
X71985480Y-42227080D01*
X71985481Y-42227078D01*
X71985486Y-42227077D01*
X72183003Y-42093579D01*
X72355118Y-41928621D01*
X72496879Y-41736947D01*
X72604207Y-41524074D01*
X72674016Y-41296123D01*
X72704298Y-41059654D01*
X72694180Y-40821468D01*
X72683999Y-40774230D01*
X72643954Y-40588419D01*
X72555064Y-40367210D01*
X72430069Y-40164205D01*
X72272564Y-39985245D01*
X72087080Y-39835477D01*
X71973130Y-39771820D01*
X71878955Y-39719210D01*
X71654170Y-39639788D01*
X71419209Y-39599500D01*
X71419200Y-39599500D01*
X71240503Y-39599500D01*
X71240498Y-39599500D01*
X71062463Y-39614652D01*
X70831751Y-39674724D01*
X70614519Y-39772919D01*
X70614511Y-39772924D01*
X70417006Y-39906413D01*
X70416997Y-39906421D01*
X70244881Y-40071379D01*
X70103123Y-40263050D01*
X70103120Y-40263054D01*
X69995796Y-40475920D01*
X69995793Y-40475926D01*
X69925983Y-40703878D01*
X69895702Y-40940346D01*
X69905819Y-41178528D01*
X69905819Y-41178532D01*
X69956046Y-41411582D01*
X69956046Y-41411583D01*
X70040876Y-41622689D01*
X70047607Y-41692233D01*
X70015671Y-41754377D01*
X69955207Y-41789390D01*
X69916552Y-41792576D01*
X69875500Y-41789500D01*
X69875494Y-41789500D01*
X69744506Y-41789500D01*
X69744500Y-41789500D01*
X69548379Y-41804196D01*
X69548374Y-41804197D01*
X69292597Y-41862576D01*
X69292578Y-41862582D01*
X69048356Y-41958432D01*
X68821143Y-42089614D01*
X68616014Y-42253198D01*
X68437567Y-42445520D01*
X68289768Y-42662302D01*
X68289767Y-42662303D01*
X68175938Y-42898673D01*
X68098606Y-43149376D01*
X68098605Y-43149381D01*
X68098604Y-43149385D01*
X68083853Y-43247247D01*
X68059500Y-43408812D01*
X68059500Y-43671187D01*
X62340576Y-43671187D01*
X62193985Y-43513198D01*
X62063929Y-43409482D01*
X61988857Y-43349614D01*
X61761643Y-43218432D01*
X61517416Y-43122580D01*
X61517411Y-43122578D01*
X61517402Y-43122576D01*
X61299818Y-43072914D01*
X61261630Y-43064198D01*
X61261629Y-43064197D01*
X61261625Y-43064197D01*
X61261620Y-43064196D01*
X61065500Y-43049500D01*
X61065494Y-43049500D01*
X60934506Y-43049500D01*
X60934500Y-43049500D01*
X60738379Y-43064196D01*
X60738374Y-43064197D01*
X60482597Y-43122576D01*
X60482578Y-43122582D01*
X60238356Y-43218432D01*
X60011143Y-43349614D01*
X59806014Y-43513198D01*
X59627567Y-43705520D01*
X59479768Y-43922302D01*
X59479767Y-43922303D01*
X59365938Y-44158673D01*
X59288606Y-44409376D01*
X59288605Y-44409381D01*
X59288604Y-44409385D01*
X59276660Y-44488626D01*
X59249500Y-44668812D01*
X59249500Y-44931187D01*
X54099000Y-44931187D01*
X54099000Y-44340897D01*
X54118685Y-44273858D01*
X54135315Y-44253220D01*
X54678028Y-43710506D01*
X54680703Y-43707987D01*
X54727052Y-43666927D01*
X54762209Y-43615991D01*
X54764410Y-43612999D01*
X54802584Y-43564275D01*
X54806722Y-43555078D01*
X54817745Y-43535533D01*
X54823480Y-43527227D01*
X54845426Y-43469356D01*
X54846850Y-43465916D01*
X54872251Y-43409482D01*
X54874069Y-43399560D01*
X54880097Y-43377938D01*
X54883673Y-43368510D01*
X54891132Y-43307067D01*
X54891693Y-43303384D01*
X54902849Y-43242516D01*
X54902849Y-43242513D01*
X54899113Y-43180743D01*
X54899000Y-43176999D01*
X54899000Y-40940346D01*
X59295702Y-40940346D01*
X59305819Y-41178528D01*
X59305819Y-41178532D01*
X59356045Y-41411580D01*
X59440877Y-41622689D01*
X59444936Y-41632790D01*
X59569931Y-41835795D01*
X59727436Y-42014755D01*
X59912920Y-42164523D01*
X60121046Y-42280790D01*
X60246951Y-42325275D01*
X60345829Y-42360211D01*
X60580790Y-42400499D01*
X60580798Y-42400499D01*
X60580800Y-42400500D01*
X60580801Y-42400500D01*
X60759502Y-42400500D01*
X60937536Y-42385347D01*
X60937539Y-42385346D01*
X60937541Y-42385346D01*
X61168249Y-42325275D01*
X61327707Y-42253195D01*
X61385480Y-42227080D01*
X61385481Y-42227078D01*
X61385486Y-42227077D01*
X61583003Y-42093579D01*
X61755118Y-41928621D01*
X61896879Y-41736947D01*
X62004207Y-41524074D01*
X62074016Y-41296123D01*
X62102285Y-41075373D01*
X63745723Y-41075373D01*
X63775881Y-41375160D01*
X63775882Y-41375162D01*
X63845728Y-41668252D01*
X63845733Y-41668266D01*
X63954020Y-41949427D01*
X63954024Y-41949436D01*
X64098825Y-42213665D01*
X64098829Y-42213671D01*
X64206801Y-42360211D01*
X64277554Y-42456238D01*
X64277561Y-42456245D01*
X64487019Y-42672823D01*
X64723478Y-42859553D01*
X64723480Y-42859554D01*
X64723485Y-42859558D01*
X64982730Y-43013109D01*
X65260128Y-43130736D01*
X65550729Y-43210340D01*
X65849347Y-43250500D01*
X65849351Y-43250500D01*
X66075252Y-43250500D01*
X66239164Y-43239526D01*
X66300634Y-43235412D01*
X66595903Y-43175396D01*
X66880537Y-43076560D01*
X67149459Y-42940668D01*
X67397869Y-42770144D01*
X67621333Y-42568032D01*
X67815865Y-42337939D01*
X67977993Y-42083970D01*
X68104823Y-41810658D01*
X68194093Y-41522879D01*
X68244209Y-41225770D01*
X68254277Y-40924631D01*
X68224118Y-40624838D01*
X68154269Y-40331739D01*
X68045977Y-40050566D01*
X67901175Y-39786335D01*
X67722446Y-39543762D01*
X67512980Y-39327176D01*
X67389742Y-39229856D01*
X67276521Y-39140446D01*
X67276517Y-39140443D01*
X67276515Y-39140442D01*
X67017270Y-38986891D01*
X66739872Y-38869264D01*
X66739863Y-38869261D01*
X66449272Y-38789660D01*
X66374616Y-38779620D01*
X66150653Y-38749500D01*
X65924756Y-38749500D01*
X65924748Y-38749500D01*
X65699368Y-38764587D01*
X65699359Y-38764589D01*
X65404094Y-38824604D01*
X65119464Y-38923439D01*
X65119459Y-38923441D01*
X64850546Y-39059328D01*
X64602125Y-39229860D01*
X64378665Y-39431969D01*
X64184132Y-39662064D01*
X64022006Y-39916030D01*
X64022005Y-39916032D01*
X63906842Y-40164205D01*
X63895177Y-40189342D01*
X63895176Y-40189346D01*
X63805907Y-40477118D01*
X63783544Y-40609696D01*
X63755791Y-40774230D01*
X63746249Y-41059654D01*
X63745723Y-41075373D01*
X62102285Y-41075373D01*
X62104298Y-41059654D01*
X62094180Y-40821468D01*
X62083999Y-40774230D01*
X62043954Y-40588419D01*
X61955064Y-40367210D01*
X61830069Y-40164205D01*
X61672564Y-39985245D01*
X61487080Y-39835477D01*
X61373130Y-39771820D01*
X61278955Y-39719210D01*
X61054170Y-39639788D01*
X60819209Y-39599500D01*
X60819200Y-39599500D01*
X60640503Y-39599500D01*
X60640498Y-39599500D01*
X60462463Y-39614652D01*
X60231751Y-39674724D01*
X60014519Y-39772919D01*
X60014511Y-39772924D01*
X59817006Y-39906413D01*
X59816997Y-39906421D01*
X59644881Y-40071379D01*
X59503123Y-40263050D01*
X59503120Y-40263054D01*
X59395796Y-40475920D01*
X59395793Y-40475926D01*
X59325983Y-40703878D01*
X59295702Y-40940346D01*
X54899000Y-40940346D01*
X54899000Y-37840897D01*
X54918685Y-37773858D01*
X54935314Y-37753221D01*
X55260402Y-37428133D01*
X60025668Y-37428133D01*
X60056134Y-37600906D01*
X60056135Y-37600911D01*
X60125623Y-37762004D01*
X60125624Y-37762006D01*
X60125626Y-37762009D01*
X60173434Y-37826225D01*
X60230390Y-37902730D01*
X60364786Y-38015502D01*
X60428358Y-38047429D01*
X60521562Y-38094238D01*
X60521563Y-38094238D01*
X60521567Y-38094240D01*
X60692279Y-38134700D01*
X60692282Y-38134700D01*
X60823701Y-38134700D01*
X60823709Y-38134700D01*
X60954255Y-38119441D01*
X61119117Y-38059437D01*
X61253139Y-37971289D01*
X64237416Y-37971289D01*
X64237459Y-37995401D01*
X64237500Y-37995499D01*
X64237616Y-37995782D01*
X64237618Y-37995784D01*
X64237808Y-37995862D01*
X64238000Y-37995941D01*
X64238002Y-37995939D01*
X64262616Y-37995924D01*
X64262616Y-37995928D01*
X64262760Y-37995900D01*
X67453240Y-37995900D01*
X67453383Y-37995928D01*
X67453384Y-37995924D01*
X67477997Y-37995939D01*
X67478000Y-37995941D01*
X67478383Y-37995783D01*
X67478500Y-37995499D01*
X67478541Y-37995400D01*
X67478540Y-37995397D01*
X67478583Y-37971289D01*
X67478500Y-37970867D01*
X67478500Y-37428133D01*
X70465668Y-37428133D01*
X70496134Y-37600906D01*
X70496135Y-37600911D01*
X70565623Y-37762004D01*
X70565624Y-37762006D01*
X70565626Y-37762009D01*
X70613434Y-37826225D01*
X70670390Y-37902730D01*
X70804786Y-38015502D01*
X70868358Y-38047429D01*
X70961562Y-38094238D01*
X70961563Y-38094238D01*
X70961567Y-38094240D01*
X71132279Y-38134700D01*
X71132282Y-38134700D01*
X71263701Y-38134700D01*
X71263709Y-38134700D01*
X71394255Y-38119441D01*
X71559117Y-38059437D01*
X71705696Y-37963030D01*
X71826092Y-37835418D01*
X71913812Y-37683481D01*
X71964130Y-37515410D01*
X71974331Y-37340265D01*
X71943865Y-37167489D01*
X71874377Y-37006396D01*
X71863692Y-36992044D01*
X71769609Y-36865669D01*
X71635214Y-36752898D01*
X71635212Y-36752897D01*
X71478437Y-36674161D01*
X71478433Y-36674160D01*
X71307721Y-36633700D01*
X71176291Y-36633700D01*
X71071854Y-36645907D01*
X71045743Y-36648959D01*
X71045740Y-36648960D01*
X70880884Y-36708962D01*
X70880880Y-36708964D01*
X70734306Y-36805367D01*
X70734305Y-36805368D01*
X70613910Y-36932978D01*
X70526188Y-37084918D01*
X70475870Y-37252989D01*
X70475869Y-37252994D01*
X70465668Y-37428133D01*
X67478500Y-37428133D01*
X67478500Y-35033359D01*
X67478528Y-35033216D01*
X67478524Y-35033216D01*
X67478539Y-35008602D01*
X67478541Y-35008600D01*
X67478462Y-35008408D01*
X67478384Y-35008218D01*
X67478382Y-35008216D01*
X67478099Y-35008100D01*
X67478000Y-35008059D01*
X67453446Y-35008059D01*
X67453240Y-35008100D01*
X64262760Y-35008100D01*
X64262554Y-35008059D01*
X64238000Y-35008059D01*
X64237901Y-35008100D01*
X64237617Y-35008216D01*
X64237615Y-35008218D01*
X64237459Y-35008599D01*
X64237476Y-35033216D01*
X64237471Y-35033216D01*
X64237500Y-35033359D01*
X64237500Y-37970867D01*
X64237416Y-37971289D01*
X61253139Y-37971289D01*
X61265696Y-37963030D01*
X61386092Y-37835418D01*
X61473812Y-37683481D01*
X61524130Y-37515410D01*
X61534331Y-37340265D01*
X61503865Y-37167489D01*
X61434377Y-37006396D01*
X61423692Y-36992044D01*
X61329609Y-36865669D01*
X61195214Y-36752898D01*
X61195212Y-36752897D01*
X61038437Y-36674161D01*
X61038433Y-36674160D01*
X60867721Y-36633700D01*
X60736291Y-36633700D01*
X60631854Y-36645907D01*
X60605743Y-36648959D01*
X60605740Y-36648960D01*
X60440884Y-36708962D01*
X60440880Y-36708964D01*
X60294306Y-36805367D01*
X60294305Y-36805368D01*
X60173910Y-36932978D01*
X60086188Y-37084918D01*
X60035870Y-37252989D01*
X60035869Y-37252994D01*
X60025668Y-37428133D01*
X55260402Y-37428133D01*
X57841389Y-34847145D01*
X57858623Y-34832783D01*
X57866927Y-34827052D01*
X57907972Y-34780720D01*
X57910506Y-34778028D01*
X59354583Y-33333951D01*
X59381139Y-33313746D01*
X59897180Y-33021437D01*
X59916875Y-33009693D01*
X59916878Y-33009689D01*
X59919139Y-33008342D01*
X59925672Y-33004954D01*
X59956752Y-32991118D01*
X60111253Y-32878866D01*
X60239040Y-32736944D01*
X60334527Y-32571556D01*
X60393542Y-32389928D01*
X60413504Y-32200000D01*
X60393542Y-32010072D01*
X60367821Y-31930913D01*
X60362757Y-31908334D01*
X60361692Y-31900006D01*
X60310647Y-31715577D01*
X60311736Y-31645715D01*
X60350421Y-31587533D01*
X60414422Y-31559502D01*
X60430154Y-31558500D01*
X60743602Y-31558500D01*
X60810641Y-31578185D01*
X60831283Y-31594819D01*
X62514484Y-33278019D01*
X62517035Y-33280730D01*
X62558073Y-33327052D01*
X62609010Y-33362211D01*
X62612012Y-33364420D01*
X62633692Y-33381405D01*
X62660725Y-33402584D01*
X62660727Y-33402585D01*
X62660726Y-33402585D01*
X62669913Y-33406719D01*
X62689465Y-33417745D01*
X62697773Y-33423480D01*
X62697775Y-33423480D01*
X62697777Y-33423482D01*
X62722952Y-33433029D01*
X62755645Y-33445427D01*
X62759083Y-33446852D01*
X62815517Y-33472251D01*
X62825433Y-33474068D01*
X62847055Y-33480094D01*
X62856490Y-33483673D01*
X62856489Y-33483673D01*
X62893100Y-33488117D01*
X62917912Y-33491130D01*
X62921615Y-33491694D01*
X62942440Y-33495510D01*
X62982485Y-33502849D01*
X62982485Y-33502848D01*
X62982486Y-33502849D01*
X63044251Y-33499113D01*
X63047995Y-33499000D01*
X65095346Y-33499000D01*
X65128421Y-33503492D01*
X65695740Y-33660511D01*
X65713083Y-33666733D01*
X65717712Y-33668794D01*
X65904513Y-33708500D01*
X66095487Y-33708500D01*
X66282288Y-33668794D01*
X66456752Y-33591118D01*
X66611253Y-33478866D01*
X66739040Y-33336944D01*
X66834527Y-33171556D01*
X66893542Y-32989928D01*
X66913504Y-32800000D01*
X66893542Y-32610072D01*
X66834527Y-32428444D01*
X66739040Y-32263056D01*
X66611253Y-32121134D01*
X66456752Y-32008882D01*
X66282288Y-31931206D01*
X66282286Y-31931205D01*
X66095487Y-31891500D01*
X65904513Y-31891500D01*
X65717713Y-31931205D01*
X65717700Y-31931210D01*
X65713081Y-31933266D01*
X65695740Y-31939486D01*
X65183308Y-32081315D01*
X65128417Y-32096507D01*
X65095342Y-32101000D01*
X63365897Y-32101000D01*
X63298858Y-32081315D01*
X63278216Y-32064681D01*
X61566572Y-30353037D01*
X61552254Y-30335870D01*
X61330501Y-30015106D01*
X61308570Y-29948768D01*
X61308500Y-29944592D01*
X61308500Y-29451362D01*
X61308499Y-29451345D01*
X61305157Y-29420270D01*
X61301989Y-29390799D01*
X61301986Y-29390792D01*
X61257818Y-29272374D01*
X61250889Y-29253796D01*
X61163261Y-29136739D01*
X61046204Y-29049111D01*
X60909203Y-28998011D01*
X60848654Y-28991500D01*
X60848638Y-28991500D01*
X60151362Y-28991500D01*
X60151345Y-28991500D01*
X60090802Y-28998010D01*
X60090791Y-28998012D01*
X60043332Y-29015714D01*
X59973640Y-29020698D01*
X59956668Y-29015714D01*
X59909208Y-28998012D01*
X59909197Y-28998010D01*
X59848654Y-28991500D01*
X59848638Y-28991500D01*
X59151362Y-28991500D01*
X59151345Y-28991500D01*
X59090802Y-28998010D01*
X59090791Y-28998012D01*
X59043332Y-29015714D01*
X58973640Y-29020698D01*
X58956668Y-29015714D01*
X58909208Y-28998012D01*
X58909197Y-28998010D01*
X58848654Y-28991500D01*
X58848638Y-28991500D01*
X58151362Y-28991500D01*
X58151345Y-28991500D01*
X58090802Y-28998010D01*
X58090791Y-28998012D01*
X58043332Y-29015714D01*
X57973640Y-29020698D01*
X57956668Y-29015714D01*
X57909208Y-28998012D01*
X57909197Y-28998010D01*
X57848654Y-28991500D01*
X57848638Y-28991500D01*
X57151362Y-28991500D01*
X57151345Y-28991500D01*
X57090802Y-28998010D01*
X57090791Y-28998012D01*
X57043332Y-29015714D01*
X56973640Y-29020698D01*
X56956668Y-29015714D01*
X56909208Y-28998012D01*
X56909197Y-28998010D01*
X56848654Y-28991500D01*
X56848638Y-28991500D01*
X56151362Y-28991500D01*
X56151345Y-28991500D01*
X56090802Y-28998010D01*
X56090791Y-28998012D01*
X56043332Y-29015714D01*
X55973640Y-29020698D01*
X55956668Y-29015714D01*
X55909208Y-28998012D01*
X55909197Y-28998010D01*
X55848654Y-28991500D01*
X55848638Y-28991500D01*
X55151362Y-28991500D01*
X55151345Y-28991500D01*
X55090802Y-28998010D01*
X55090791Y-28998012D01*
X55043332Y-29015714D01*
X54973640Y-29020698D01*
X54956668Y-29015714D01*
X54909208Y-28998012D01*
X54909197Y-28998010D01*
X54848654Y-28991500D01*
X54848638Y-28991500D01*
X54151362Y-28991500D01*
X54151345Y-28991500D01*
X54090802Y-28998010D01*
X54090791Y-28998012D01*
X54043332Y-29015714D01*
X53973640Y-29020698D01*
X53956668Y-29015714D01*
X53909208Y-28998012D01*
X53909197Y-28998010D01*
X53848654Y-28991500D01*
X53848638Y-28991500D01*
X53151362Y-28991500D01*
X53151345Y-28991500D01*
X53090802Y-28998010D01*
X53090791Y-28998012D01*
X53031170Y-29020250D01*
X52961478Y-29025234D01*
X52944505Y-29020250D01*
X52907379Y-29006403D01*
X52907372Y-29006401D01*
X52847844Y-29000000D01*
X52750000Y-29000000D01*
X52750000Y-29229040D01*
X52742181Y-29272374D01*
X52698012Y-29390792D01*
X52698011Y-29390797D01*
X52691500Y-29451345D01*
X52691500Y-30401000D01*
X52671815Y-30468039D01*
X52619011Y-30513794D01*
X52567500Y-30525000D01*
X51700000Y-30525000D01*
X51700000Y-31097844D01*
X51706401Y-31157372D01*
X51706403Y-31157380D01*
X51731313Y-31224167D01*
X51736297Y-31293859D01*
X51702812Y-31355182D01*
X51641488Y-31388666D01*
X51615131Y-31391500D01*
X45980782Y-31391500D01*
X45965002Y-31389758D01*
X45964977Y-31390026D01*
X45957216Y-31389292D01*
X45886950Y-31391500D01*
X45856948Y-31391500D01*
X45849908Y-31392388D01*
X45844095Y-31392845D01*
X45796735Y-31394334D01*
X45796729Y-31394335D01*
X45777028Y-31400058D01*
X45757989Y-31404000D01*
X45737646Y-31406571D01*
X45737638Y-31406572D01*
X45737636Y-31406573D01*
X45737634Y-31406573D01*
X45737628Y-31406575D01*
X45693580Y-31424014D01*
X45688057Y-31425905D01*
X45642544Y-31439130D01*
X45642542Y-31439130D01*
X45642542Y-31439131D01*
X45624883Y-31449573D01*
X45607418Y-31458129D01*
X45588350Y-31465678D01*
X45588346Y-31465681D01*
X45550007Y-31493534D01*
X45545127Y-31496740D01*
X45504335Y-31520865D01*
X45489833Y-31535368D01*
X45475043Y-31548000D01*
X45458450Y-31560055D01*
X45458447Y-31560058D01*
X45428236Y-31596576D01*
X45424304Y-31600897D01*
X39109921Y-37915279D01*
X39097531Y-37925207D01*
X39097702Y-37925414D01*
X39091696Y-37930382D01*
X39066878Y-37956810D01*
X39043573Y-37981628D01*
X39036503Y-37988698D01*
X39022365Y-38002835D01*
X39022363Y-38002837D01*
X39018008Y-38008451D01*
X39014218Y-38012888D01*
X38981782Y-38047429D01*
X38981781Y-38047431D01*
X38971900Y-38065403D01*
X38961225Y-38081654D01*
X38948652Y-38097864D01*
X38948649Y-38097868D01*
X38929827Y-38141363D01*
X38927257Y-38146609D01*
X38904430Y-38188132D01*
X38899329Y-38207999D01*
X38893030Y-38226397D01*
X38884884Y-38245222D01*
X38884881Y-38245231D01*
X38877469Y-38292033D01*
X38876284Y-38297755D01*
X38864500Y-38343646D01*
X38864500Y-38364160D01*
X38862973Y-38383559D01*
X38859765Y-38403812D01*
X38864225Y-38450994D01*
X38864500Y-38456832D01*
X38864500Y-52014906D01*
X38862485Y-52037169D01*
X38813216Y-52307124D01*
X38807181Y-52328811D01*
X38807036Y-52329192D01*
X38807035Y-52329195D01*
X38802975Y-52362634D01*
X38802419Y-52366291D01*
X38797349Y-52394077D01*
X38795314Y-52405226D01*
X38792234Y-52427657D01*
X38791003Y-52440951D01*
X38791078Y-52456550D01*
X38790627Y-52464329D01*
X38786296Y-52499999D01*
X38786296Y-52500000D01*
X37500500Y-52500000D01*
X37500500Y-31124500D01*
X37520185Y-31057461D01*
X37572989Y-31011706D01*
X37624500Y-31000500D01*
X46999901Y-31000500D01*
X49775240Y-31000500D01*
X49775383Y-31000528D01*
X49775384Y-31000524D01*
X49799997Y-31000539D01*
X49800000Y-31000541D01*
X49800383Y-31000383D01*
X49800500Y-31000099D01*
X49800541Y-31000000D01*
X49800540Y-30999997D01*
X49800583Y-30975889D01*
X49800500Y-30975467D01*
X49800500Y-30025000D01*
X51700000Y-30025000D01*
X52250000Y-30025000D01*
X52250000Y-29000000D01*
X52152155Y-29000000D01*
X52092627Y-29006401D01*
X52092620Y-29006403D01*
X51957913Y-29056645D01*
X51957906Y-29056649D01*
X51842812Y-29142809D01*
X51842809Y-29142812D01*
X51756649Y-29257906D01*
X51756645Y-29257913D01*
X51706403Y-29392620D01*
X51706401Y-29392627D01*
X51700000Y-29452155D01*
X51700000Y-30025000D01*
X49800500Y-30025000D01*
X49800500Y-26650000D01*
X50100000Y-26650000D01*
X50100000Y-27347844D01*
X50106401Y-27407372D01*
X50106403Y-27407379D01*
X50156645Y-27542086D01*
X50156649Y-27542093D01*
X50242809Y-27657187D01*
X50242812Y-27657190D01*
X50357906Y-27743350D01*
X50357913Y-27743354D01*
X50492620Y-27793596D01*
X50492627Y-27793598D01*
X50552155Y-27799999D01*
X50552172Y-27800000D01*
X50950000Y-27800000D01*
X50950000Y-26650000D01*
X51450000Y-26650000D01*
X51450000Y-27800000D01*
X51847828Y-27800000D01*
X51847844Y-27799999D01*
X51907372Y-27793598D01*
X51907379Y-27793596D01*
X52042086Y-27743354D01*
X52042093Y-27743350D01*
X52157187Y-27657190D01*
X52157190Y-27657187D01*
X52243350Y-27542093D01*
X52243354Y-27542086D01*
X52293596Y-27407379D01*
X52293598Y-27407372D01*
X52299999Y-27347844D01*
X52300000Y-27347827D01*
X52300000Y-26650000D01*
X60700000Y-26650000D01*
X60700000Y-27347844D01*
X60706401Y-27407372D01*
X60706403Y-27407379D01*
X60756645Y-27542086D01*
X60756649Y-27542093D01*
X60842809Y-27657187D01*
X60842812Y-27657190D01*
X60957906Y-27743350D01*
X60957913Y-27743354D01*
X61092620Y-27793596D01*
X61092627Y-27793598D01*
X61152155Y-27799999D01*
X61152172Y-27800000D01*
X61550000Y-27800000D01*
X61550000Y-26650000D01*
X62050000Y-26650000D01*
X62050000Y-27800000D01*
X62447828Y-27800000D01*
X62447844Y-27799999D01*
X62507372Y-27793598D01*
X62507379Y-27793596D01*
X62642086Y-27743354D01*
X62642093Y-27743350D01*
X62757187Y-27657190D01*
X62757190Y-27657187D01*
X62843350Y-27542093D01*
X62843354Y-27542086D01*
X62893596Y-27407379D01*
X62893598Y-27407372D01*
X62899999Y-27347844D01*
X62900000Y-27347827D01*
X62900000Y-26650000D01*
X62050000Y-26650000D01*
X61550000Y-26650000D01*
X60700000Y-26650000D01*
X52300000Y-26650000D01*
X51450000Y-26650000D01*
X50950000Y-26650000D01*
X50100000Y-26650000D01*
X49800500Y-26650000D01*
X49800500Y-25124500D01*
X49820185Y-25057461D01*
X49872989Y-25011706D01*
X49924500Y-25000500D01*
X50101623Y-25000500D01*
X50168662Y-25020185D01*
G37*
G04 #@! TD.AperFunction*
M02*
