G04 #@! TF.GenerationSoftware,KiCad,Pcbnew,7.0.8*
G04 #@! TF.CreationDate,2023-10-19T20:53:45-07:00*
G04 #@! TF.ProjectId,Seismos_4-Thumb,53656973-6d6f-4735-9f34-2d5468756d62,rev?*
G04 #@! TF.SameCoordinates,Original*
G04 #@! TF.FileFunction,Legend,Bot*
G04 #@! TF.FilePolarity,Positive*
%FSLAX46Y46*%
G04 Gerber Fmt 4.6, Leading zero omitted, Abs format (unit mm)*
G04 Created by KiCad (PCBNEW 7.0.8) date 2023-10-19 20:53:45*
%MOMM*%
%LPD*%
G01*
G04 APERTURE LIST*
G04 Aperture macros list*
%AMRoundRect*
0 Rectangle with rounded corners*
0 $1 Rounding radius*
0 $2 $3 $4 $5 $6 $7 $8 $9 X,Y pos of 4 corners*
0 Add a 4 corners polygon primitive as box body*
4,1,4,$2,$3,$4,$5,$6,$7,$8,$9,$2,$3,0*
0 Add four circle primitives for the rounded corners*
1,1,$1+$1,$2,$3*
1,1,$1+$1,$4,$5*
1,1,$1+$1,$6,$7*
1,1,$1+$1,$8,$9*
0 Add four rect primitives between the rounded corners*
20,1,$1+$1,$2,$3,$4,$5,0*
20,1,$1+$1,$4,$5,$6,$7,0*
20,1,$1+$1,$6,$7,$8,$9,0*
20,1,$1+$1,$8,$9,$2,$3,0*%
G04 Aperture macros list end*
%ADD10C,0.150000*%
%ADD11C,0.120000*%
%ADD12C,3.200000*%
%ADD13C,2.300000*%
%ADD14C,1.000000*%
%ADD15C,3.000000*%
%ADD16C,4.000000*%
%ADD17R,1.750000X0.812800*%
%ADD18RoundRect,0.063500X-1.150000X-1.300000X1.150000X-1.300000X1.150000X1.300000X-1.150000X1.300000X0*%
%ADD19RoundRect,0.063500X-1.750000X-1.750000X1.750000X-1.750000X1.750000X1.750000X-1.750000X1.750000X0*%
%ADD20RoundRect,0.063500X-1.200000X-1.300000X1.200000X-1.300000X1.200000X1.300000X-1.200000X1.300000X0*%
%ADD21RoundRect,0.225000X-0.375000X0.225000X-0.375000X-0.225000X0.375000X-0.225000X0.375000X0.225000X0*%
G04 APERTURE END LIST*
D10*
X46849999Y-54959019D02*
X46849999Y-55197114D01*
X47088094Y-55101876D02*
X46849999Y-55197114D01*
X46849999Y-55197114D02*
X46611904Y-55101876D01*
X46992856Y-55387590D02*
X46849999Y-55197114D01*
X46849999Y-55197114D02*
X46707142Y-55387590D01*
X46849999Y-35959019D02*
X46849999Y-36197114D01*
X47088094Y-36101876D02*
X46849999Y-36197114D01*
X46849999Y-36197114D02*
X46611904Y-36101876D01*
X46992856Y-36387590D02*
X46849999Y-36197114D01*
X46849999Y-36197114D02*
X46707142Y-36387590D01*
X65849999Y-54959019D02*
X65849999Y-55197114D01*
X66088094Y-55101876D02*
X65849999Y-55197114D01*
X65849999Y-55197114D02*
X65611904Y-55101876D01*
X65992856Y-55387590D02*
X65849999Y-55197114D01*
X65849999Y-55197114D02*
X65707142Y-55387590D01*
X65849999Y-35959019D02*
X65849999Y-36197114D01*
X66088094Y-36101876D02*
X65849999Y-36197114D01*
X65849999Y-36197114D02*
X65611904Y-36101876D01*
X65992856Y-36387590D02*
X65849999Y-36197114D01*
X65849999Y-36197114D02*
X65707142Y-36387590D01*
X42154819Y-55181905D02*
X41154819Y-55181905D01*
X41154819Y-55181905D02*
X41154819Y-55420000D01*
X41154819Y-55420000D02*
X41202438Y-55562857D01*
X41202438Y-55562857D02*
X41297676Y-55658095D01*
X41297676Y-55658095D02*
X41392914Y-55705714D01*
X41392914Y-55705714D02*
X41583390Y-55753333D01*
X41583390Y-55753333D02*
X41726247Y-55753333D01*
X41726247Y-55753333D02*
X41916723Y-55705714D01*
X41916723Y-55705714D02*
X42011961Y-55658095D01*
X42011961Y-55658095D02*
X42107200Y-55562857D01*
X42107200Y-55562857D02*
X42154819Y-55420000D01*
X42154819Y-55420000D02*
X42154819Y-55181905D01*
X41250057Y-56134286D02*
X41202438Y-56181905D01*
X41202438Y-56181905D02*
X41154819Y-56277143D01*
X41154819Y-56277143D02*
X41154819Y-56515238D01*
X41154819Y-56515238D02*
X41202438Y-56610476D01*
X41202438Y-56610476D02*
X41250057Y-56658095D01*
X41250057Y-56658095D02*
X41345295Y-56705714D01*
X41345295Y-56705714D02*
X41440533Y-56705714D01*
X41440533Y-56705714D02*
X41583390Y-56658095D01*
X41583390Y-56658095D02*
X42154819Y-56086667D01*
X42154819Y-56086667D02*
X42154819Y-56705714D01*
X59554819Y-40011905D02*
X58554819Y-40011905D01*
X58554819Y-40011905D02*
X58554819Y-40250000D01*
X58554819Y-40250000D02*
X58602438Y-40392857D01*
X58602438Y-40392857D02*
X58697676Y-40488095D01*
X58697676Y-40488095D02*
X58792914Y-40535714D01*
X58792914Y-40535714D02*
X58983390Y-40583333D01*
X58983390Y-40583333D02*
X59126247Y-40583333D01*
X59126247Y-40583333D02*
X59316723Y-40535714D01*
X59316723Y-40535714D02*
X59411961Y-40488095D01*
X59411961Y-40488095D02*
X59507200Y-40392857D01*
X59507200Y-40392857D02*
X59554819Y-40250000D01*
X59554819Y-40250000D02*
X59554819Y-40011905D01*
X58888152Y-41440476D02*
X59554819Y-41440476D01*
X58507200Y-41202381D02*
X59221485Y-40964286D01*
X59221485Y-40964286D02*
X59221485Y-41583333D01*
X42144819Y-36281905D02*
X41144819Y-36281905D01*
X41144819Y-36281905D02*
X41144819Y-36520000D01*
X41144819Y-36520000D02*
X41192438Y-36662857D01*
X41192438Y-36662857D02*
X41287676Y-36758095D01*
X41287676Y-36758095D02*
X41382914Y-36805714D01*
X41382914Y-36805714D02*
X41573390Y-36853333D01*
X41573390Y-36853333D02*
X41716247Y-36853333D01*
X41716247Y-36853333D02*
X41906723Y-36805714D01*
X41906723Y-36805714D02*
X42001961Y-36758095D01*
X42001961Y-36758095D02*
X42097200Y-36662857D01*
X42097200Y-36662857D02*
X42144819Y-36520000D01*
X42144819Y-36520000D02*
X42144819Y-36281905D01*
X42144819Y-37805714D02*
X42144819Y-37234286D01*
X42144819Y-37520000D02*
X41144819Y-37520000D01*
X41144819Y-37520000D02*
X41287676Y-37424762D01*
X41287676Y-37424762D02*
X41382914Y-37329524D01*
X41382914Y-37329524D02*
X41430533Y-37234286D01*
X61154819Y-55281905D02*
X60154819Y-55281905D01*
X60154819Y-55281905D02*
X60154819Y-55520000D01*
X60154819Y-55520000D02*
X60202438Y-55662857D01*
X60202438Y-55662857D02*
X60297676Y-55758095D01*
X60297676Y-55758095D02*
X60392914Y-55805714D01*
X60392914Y-55805714D02*
X60583390Y-55853333D01*
X60583390Y-55853333D02*
X60726247Y-55853333D01*
X60726247Y-55853333D02*
X60916723Y-55805714D01*
X60916723Y-55805714D02*
X61011961Y-55758095D01*
X61011961Y-55758095D02*
X61107200Y-55662857D01*
X61107200Y-55662857D02*
X61154819Y-55520000D01*
X61154819Y-55520000D02*
X61154819Y-55281905D01*
X60154819Y-56186667D02*
X60154819Y-56805714D01*
X60154819Y-56805714D02*
X60535771Y-56472381D01*
X60535771Y-56472381D02*
X60535771Y-56615238D01*
X60535771Y-56615238D02*
X60583390Y-56710476D01*
X60583390Y-56710476D02*
X60631009Y-56758095D01*
X60631009Y-56758095D02*
X60726247Y-56805714D01*
X60726247Y-56805714D02*
X60964342Y-56805714D01*
X60964342Y-56805714D02*
X61059580Y-56758095D01*
X61059580Y-56758095D02*
X61107200Y-56710476D01*
X61107200Y-56710476D02*
X61154819Y-56615238D01*
X61154819Y-56615238D02*
X61154819Y-56329524D01*
X61154819Y-56329524D02*
X61107200Y-56234286D01*
X61107200Y-56234286D02*
X61059580Y-56186667D01*
X39750000Y-61450000D02*
X39750000Y-66350000D01*
X39750000Y-66350000D02*
X44460000Y-66350000D01*
X42700000Y-66800000D02*
X42700000Y-63850000D01*
X43300000Y-63300000D02*
X47300000Y-63300000D01*
X44460000Y-61450000D02*
X39750000Y-61450000D01*
X44460000Y-63175000D02*
X44460000Y-61450000D01*
X44460000Y-66350000D02*
X44460000Y-68250000D01*
X44460000Y-68250000D02*
X49250000Y-68250000D01*
D11*
X45122800Y-57028200D02*
X48577200Y-57028200D01*
X48577200Y-53980200D02*
X45122800Y-53980200D01*
D10*
X49250000Y-63175000D02*
X44460000Y-63175000D01*
X49250000Y-68250000D02*
X49250000Y-63175000D01*
X49300000Y-61500000D02*
X49300000Y-61350000D01*
X49650000Y-60800000D02*
X52500000Y-60800000D01*
X50300000Y-66800000D02*
X42700000Y-66800000D01*
X52500000Y-60800000D02*
X52500000Y-64600000D01*
X43300000Y-63300000D02*
G75*
G03*
X42700000Y-63850000I-25000J-575000D01*
G01*
X47300000Y-63299999D02*
G75*
G03*
X49299998Y-61499999I99998J1900000D01*
G01*
X49650000Y-60800000D02*
G75*
G03*
X49300000Y-61350000I100000J-450000D01*
G01*
X50300000Y-66800000D02*
G75*
G03*
X52500000Y-64600000I0J2200000D01*
G01*
D11*
X51593200Y-54754900D02*
G75*
G03*
X51593200Y-54754900I-381000J0D01*
G01*
D10*
X39750000Y-42450000D02*
X39750000Y-47350000D01*
X39750000Y-47350000D02*
X44460000Y-47350000D01*
X42700000Y-47800000D02*
X42700000Y-44850000D01*
X43300000Y-44300000D02*
X47300000Y-44300000D01*
X44460000Y-42450000D02*
X39750000Y-42450000D01*
X44460000Y-44175000D02*
X44460000Y-42450000D01*
X44460000Y-47350000D02*
X44460000Y-49250000D01*
X44460000Y-49250000D02*
X49250000Y-49250000D01*
D11*
X45122800Y-38028200D02*
X48577200Y-38028200D01*
X48577200Y-34980200D02*
X45122800Y-34980200D01*
D10*
X49250000Y-44175000D02*
X44460000Y-44175000D01*
X49250000Y-49250000D02*
X49250000Y-44175000D01*
X49300000Y-42500000D02*
X49300000Y-42350000D01*
X49650000Y-41800000D02*
X52500000Y-41800000D01*
X50300000Y-47800000D02*
X42700000Y-47800000D01*
X52500000Y-41800000D02*
X52500000Y-45600000D01*
X43300000Y-44300000D02*
G75*
G03*
X42700000Y-44850000I-25000J-575000D01*
G01*
X47300000Y-44299999D02*
G75*
G03*
X49299998Y-42499999I99998J1900000D01*
G01*
X49650000Y-41800000D02*
G75*
G03*
X49300000Y-42350000I100000J-450000D01*
G01*
X50300000Y-47800000D02*
G75*
G03*
X52500000Y-45600000I0J2200000D01*
G01*
D11*
X51593200Y-35754900D02*
G75*
G03*
X51593200Y-35754900I-381000J0D01*
G01*
D10*
X58750000Y-61450000D02*
X58750000Y-66350000D01*
X58750000Y-66350000D02*
X63460000Y-66350000D01*
X61700000Y-66800000D02*
X61700000Y-63850000D01*
X62300000Y-63300000D02*
X66300000Y-63300000D01*
X63460000Y-61450000D02*
X58750000Y-61450000D01*
X63460000Y-63175000D02*
X63460000Y-61450000D01*
X63460000Y-66350000D02*
X63460000Y-68250000D01*
X63460000Y-68250000D02*
X68250000Y-68250000D01*
D11*
X64122800Y-57028200D02*
X67577200Y-57028200D01*
X67577200Y-53980200D02*
X64122800Y-53980200D01*
D10*
X68250000Y-63175000D02*
X63460000Y-63175000D01*
X68250000Y-68250000D02*
X68250000Y-63175000D01*
X68300000Y-61500000D02*
X68300000Y-61350000D01*
X68650000Y-60800000D02*
X71500000Y-60800000D01*
X69300000Y-66800000D02*
X61700000Y-66800000D01*
X71500000Y-60800000D02*
X71500000Y-64600000D01*
X62300000Y-63300000D02*
G75*
G03*
X61700000Y-63850000I-25000J-575000D01*
G01*
X66300000Y-63299999D02*
G75*
G03*
X68299998Y-61499999I99998J1900000D01*
G01*
X68650000Y-60800000D02*
G75*
G03*
X68300000Y-61350000I100000J-450000D01*
G01*
X69300000Y-66800000D02*
G75*
G03*
X71500000Y-64600000I0J2200000D01*
G01*
D11*
X70593200Y-54754900D02*
G75*
G03*
X70593200Y-54754900I-381000J0D01*
G01*
D10*
X58750000Y-42450000D02*
X58750000Y-47350000D01*
X58750000Y-47350000D02*
X63460000Y-47350000D01*
X61700000Y-47800000D02*
X61700000Y-44850000D01*
X62300000Y-44300000D02*
X66300000Y-44300000D01*
X63460000Y-42450000D02*
X58750000Y-42450000D01*
X63460000Y-44175000D02*
X63460000Y-42450000D01*
X63460000Y-47350000D02*
X63460000Y-49250000D01*
X63460000Y-49250000D02*
X68250000Y-49250000D01*
D11*
X64122800Y-38028200D02*
X67577200Y-38028200D01*
X67577200Y-34980200D02*
X64122800Y-34980200D01*
D10*
X68250000Y-44175000D02*
X63460000Y-44175000D01*
X68250000Y-49250000D02*
X68250000Y-44175000D01*
X68300000Y-42500000D02*
X68300000Y-42350000D01*
X68650000Y-41800000D02*
X71500000Y-41800000D01*
X69300000Y-47800000D02*
X61700000Y-47800000D01*
X71500000Y-41800000D02*
X71500000Y-45600000D01*
X62300000Y-44300000D02*
G75*
G03*
X61700000Y-44850000I-25000J-575000D01*
G01*
X66300000Y-44299999D02*
G75*
G03*
X68299998Y-42499999I99998J1900000D01*
G01*
X68650000Y-41800000D02*
G75*
G03*
X68300000Y-42350000I100000J-450000D01*
G01*
X69300000Y-47800000D02*
G75*
G03*
X71500000Y-45600000I0J2200000D01*
G01*
D11*
X70593200Y-35754900D02*
G75*
G03*
X70593200Y-35754900I-381000J0D01*
G01*
X40500000Y-53640000D02*
X40500000Y-57650000D01*
X38500000Y-53640000D02*
X40500000Y-53640000D01*
X38500000Y-53640000D02*
X38500000Y-57650000D01*
X59500000Y-34640000D02*
X59500000Y-38650000D01*
X57500000Y-34640000D02*
X59500000Y-34640000D01*
X57500000Y-34640000D02*
X57500000Y-38650000D01*
X40500000Y-34640000D02*
X40500000Y-38650000D01*
X38500000Y-34640000D02*
X40500000Y-34640000D01*
X38500000Y-34640000D02*
X38500000Y-38650000D01*
X59500000Y-53640000D02*
X59500000Y-57650000D01*
X57500000Y-53640000D02*
X59500000Y-53640000D01*
X57500000Y-53640000D02*
X57500000Y-57650000D01*
%LPC*%
D12*
X40500000Y-70500000D03*
X72500000Y-70500000D03*
D13*
X41700000Y-60000000D03*
D14*
X41780000Y-56384200D03*
D15*
X42000000Y-63800000D03*
X44460000Y-65080000D03*
D16*
X47000000Y-60000000D03*
D15*
X47000000Y-65900000D03*
X50810000Y-62540000D03*
D14*
X52220000Y-56384200D03*
D13*
X52300000Y-60000000D03*
D17*
X49378000Y-54754900D03*
D18*
X38660000Y-63800000D03*
X50560000Y-65900000D03*
D17*
X44348100Y-54754900D03*
X49378000Y-56253500D03*
X44348100Y-56253500D03*
D19*
X40910000Y-65515000D03*
D20*
X53860000Y-62540000D03*
D13*
X41700000Y-41000000D03*
D14*
X41780000Y-37384200D03*
D15*
X42000000Y-44800000D03*
X44460000Y-46080000D03*
D16*
X47000000Y-41000000D03*
D15*
X47000000Y-46900000D03*
X50810000Y-43540000D03*
D14*
X52220000Y-37384200D03*
D13*
X52300000Y-41000000D03*
D17*
X49378000Y-35754900D03*
D18*
X38660000Y-44800000D03*
X50560000Y-46900000D03*
D17*
X44348100Y-35754900D03*
X49378000Y-37253500D03*
X44348100Y-37253500D03*
D19*
X40910000Y-46515000D03*
D20*
X53860000Y-43540000D03*
D13*
X60700000Y-60000000D03*
D14*
X60780000Y-56384200D03*
D15*
X61000000Y-63800000D03*
X63460000Y-65080000D03*
D16*
X66000000Y-60000000D03*
D15*
X66000000Y-65900000D03*
X69810000Y-62540000D03*
D14*
X71220000Y-56384200D03*
D13*
X71300000Y-60000000D03*
D17*
X68378000Y-54754900D03*
D18*
X57660000Y-63800000D03*
X69560000Y-65900000D03*
D17*
X63348100Y-54754900D03*
X68378000Y-56253500D03*
X63348100Y-56253500D03*
D19*
X59910000Y-65515000D03*
D20*
X72860000Y-62540000D03*
D13*
X60700000Y-41000000D03*
D14*
X60780000Y-37384200D03*
D15*
X61000000Y-44800000D03*
X63460000Y-46080000D03*
D16*
X66000000Y-41000000D03*
D15*
X66000000Y-46900000D03*
X69810000Y-43540000D03*
D14*
X71220000Y-37384200D03*
D13*
X71300000Y-41000000D03*
D17*
X68378000Y-35754900D03*
D18*
X57660000Y-44800000D03*
X69560000Y-46900000D03*
D17*
X63348100Y-35754900D03*
X68378000Y-37253500D03*
X63348100Y-37253500D03*
D19*
X59910000Y-46515000D03*
D20*
X72860000Y-43540000D03*
D21*
X39500000Y-54350000D03*
X39500000Y-57650000D03*
X58500000Y-35350000D03*
X58500000Y-38650000D03*
X39500000Y-35350000D03*
X39500000Y-38650000D03*
X58500000Y-54350000D03*
X58500000Y-57650000D03*
%LPD*%
M02*
