G04 #@! TF.GenerationSoftware,KiCad,Pcbnew,7.0.8*
G04 #@! TF.CreationDate,2023-10-19T20:53:45-07:00*
G04 #@! TF.ProjectId,Seismos_4-Thumb,53656973-6d6f-4735-9f34-2d5468756d62,rev?*
G04 #@! TF.SameCoordinates,Original*
G04 #@! TF.FileFunction,Legend,Top*
G04 #@! TF.FilePolarity,Positive*
%FSLAX46Y46*%
G04 Gerber Fmt 4.6, Leading zero omitted, Abs format (unit mm)*
G04 Created by KiCad (PCBNEW 7.0.8) date 2023-10-19 20:53:45*
%MOMM*%
%LPD*%
G01*
G04 APERTURE LIST*
%ADD10C,0.150000*%
%ADD11C,0.127000*%
%ADD12C,0.200000*%
%ADD13C,3.200000*%
%ADD14C,2.300000*%
%ADD15C,1.000000*%
%ADD16C,3.000000*%
%ADD17C,4.000000*%
%ADD18R,0.600000X1.550000*%
%ADD19R,1.200000X1.800000*%
G04 APERTURE END LIST*
D10*
X45524667Y-60019200D02*
X45667524Y-60066819D01*
X45667524Y-60066819D02*
X45905619Y-60066819D01*
X45905619Y-60066819D02*
X46000857Y-60019200D01*
X46000857Y-60019200D02*
X46048476Y-59971580D01*
X46048476Y-59971580D02*
X46096095Y-59876342D01*
X46096095Y-59876342D02*
X46096095Y-59781104D01*
X46096095Y-59781104D02*
X46048476Y-59685866D01*
X46048476Y-59685866D02*
X46000857Y-59638247D01*
X46000857Y-59638247D02*
X45905619Y-59590628D01*
X45905619Y-59590628D02*
X45715143Y-59543009D01*
X45715143Y-59543009D02*
X45619905Y-59495390D01*
X45619905Y-59495390D02*
X45572286Y-59447771D01*
X45572286Y-59447771D02*
X45524667Y-59352533D01*
X45524667Y-59352533D02*
X45524667Y-59257295D01*
X45524667Y-59257295D02*
X45572286Y-59162057D01*
X45572286Y-59162057D02*
X45619905Y-59114438D01*
X45619905Y-59114438D02*
X45715143Y-59066819D01*
X45715143Y-59066819D02*
X45953238Y-59066819D01*
X45953238Y-59066819D02*
X46096095Y-59114438D01*
X46429429Y-59066819D02*
X46667524Y-60066819D01*
X46667524Y-60066819D02*
X46858000Y-59352533D01*
X46858000Y-59352533D02*
X47048476Y-60066819D01*
X47048476Y-60066819D02*
X47286572Y-59066819D01*
X47619905Y-59162057D02*
X47667524Y-59114438D01*
X47667524Y-59114438D02*
X47762762Y-59066819D01*
X47762762Y-59066819D02*
X48000857Y-59066819D01*
X48000857Y-59066819D02*
X48096095Y-59114438D01*
X48096095Y-59114438D02*
X48143714Y-59162057D01*
X48143714Y-59162057D02*
X48191333Y-59257295D01*
X48191333Y-59257295D02*
X48191333Y-59352533D01*
X48191333Y-59352533D02*
X48143714Y-59495390D01*
X48143714Y-59495390D02*
X47572286Y-60066819D01*
X47572286Y-60066819D02*
X48191333Y-60066819D01*
X45524667Y-41019200D02*
X45667524Y-41066819D01*
X45667524Y-41066819D02*
X45905619Y-41066819D01*
X45905619Y-41066819D02*
X46000857Y-41019200D01*
X46000857Y-41019200D02*
X46048476Y-40971580D01*
X46048476Y-40971580D02*
X46096095Y-40876342D01*
X46096095Y-40876342D02*
X46096095Y-40781104D01*
X46096095Y-40781104D02*
X46048476Y-40685866D01*
X46048476Y-40685866D02*
X46000857Y-40638247D01*
X46000857Y-40638247D02*
X45905619Y-40590628D01*
X45905619Y-40590628D02*
X45715143Y-40543009D01*
X45715143Y-40543009D02*
X45619905Y-40495390D01*
X45619905Y-40495390D02*
X45572286Y-40447771D01*
X45572286Y-40447771D02*
X45524667Y-40352533D01*
X45524667Y-40352533D02*
X45524667Y-40257295D01*
X45524667Y-40257295D02*
X45572286Y-40162057D01*
X45572286Y-40162057D02*
X45619905Y-40114438D01*
X45619905Y-40114438D02*
X45715143Y-40066819D01*
X45715143Y-40066819D02*
X45953238Y-40066819D01*
X45953238Y-40066819D02*
X46096095Y-40114438D01*
X46429429Y-40066819D02*
X46667524Y-41066819D01*
X46667524Y-41066819D02*
X46858000Y-40352533D01*
X46858000Y-40352533D02*
X47048476Y-41066819D01*
X47048476Y-41066819D02*
X47286572Y-40066819D01*
X48191333Y-41066819D02*
X47619905Y-41066819D01*
X47905619Y-41066819D02*
X47905619Y-40066819D01*
X47905619Y-40066819D02*
X47810381Y-40209676D01*
X47810381Y-40209676D02*
X47715143Y-40304914D01*
X47715143Y-40304914D02*
X47619905Y-40352533D01*
X64524667Y-60019200D02*
X64667524Y-60066819D01*
X64667524Y-60066819D02*
X64905619Y-60066819D01*
X64905619Y-60066819D02*
X65000857Y-60019200D01*
X65000857Y-60019200D02*
X65048476Y-59971580D01*
X65048476Y-59971580D02*
X65096095Y-59876342D01*
X65096095Y-59876342D02*
X65096095Y-59781104D01*
X65096095Y-59781104D02*
X65048476Y-59685866D01*
X65048476Y-59685866D02*
X65000857Y-59638247D01*
X65000857Y-59638247D02*
X64905619Y-59590628D01*
X64905619Y-59590628D02*
X64715143Y-59543009D01*
X64715143Y-59543009D02*
X64619905Y-59495390D01*
X64619905Y-59495390D02*
X64572286Y-59447771D01*
X64572286Y-59447771D02*
X64524667Y-59352533D01*
X64524667Y-59352533D02*
X64524667Y-59257295D01*
X64524667Y-59257295D02*
X64572286Y-59162057D01*
X64572286Y-59162057D02*
X64619905Y-59114438D01*
X64619905Y-59114438D02*
X64715143Y-59066819D01*
X64715143Y-59066819D02*
X64953238Y-59066819D01*
X64953238Y-59066819D02*
X65096095Y-59114438D01*
X65429429Y-59066819D02*
X65667524Y-60066819D01*
X65667524Y-60066819D02*
X65858000Y-59352533D01*
X65858000Y-59352533D02*
X66048476Y-60066819D01*
X66048476Y-60066819D02*
X66286572Y-59066819D01*
X66572286Y-59066819D02*
X67191333Y-59066819D01*
X67191333Y-59066819D02*
X66858000Y-59447771D01*
X66858000Y-59447771D02*
X67000857Y-59447771D01*
X67000857Y-59447771D02*
X67096095Y-59495390D01*
X67096095Y-59495390D02*
X67143714Y-59543009D01*
X67143714Y-59543009D02*
X67191333Y-59638247D01*
X67191333Y-59638247D02*
X67191333Y-59876342D01*
X67191333Y-59876342D02*
X67143714Y-59971580D01*
X67143714Y-59971580D02*
X67096095Y-60019200D01*
X67096095Y-60019200D02*
X67000857Y-60066819D01*
X67000857Y-60066819D02*
X66715143Y-60066819D01*
X66715143Y-60066819D02*
X66619905Y-60019200D01*
X66619905Y-60019200D02*
X66572286Y-59971580D01*
X64524667Y-41019200D02*
X64667524Y-41066819D01*
X64667524Y-41066819D02*
X64905619Y-41066819D01*
X64905619Y-41066819D02*
X65000857Y-41019200D01*
X65000857Y-41019200D02*
X65048476Y-40971580D01*
X65048476Y-40971580D02*
X65096095Y-40876342D01*
X65096095Y-40876342D02*
X65096095Y-40781104D01*
X65096095Y-40781104D02*
X65048476Y-40685866D01*
X65048476Y-40685866D02*
X65000857Y-40638247D01*
X65000857Y-40638247D02*
X64905619Y-40590628D01*
X64905619Y-40590628D02*
X64715143Y-40543009D01*
X64715143Y-40543009D02*
X64619905Y-40495390D01*
X64619905Y-40495390D02*
X64572286Y-40447771D01*
X64572286Y-40447771D02*
X64524667Y-40352533D01*
X64524667Y-40352533D02*
X64524667Y-40257295D01*
X64524667Y-40257295D02*
X64572286Y-40162057D01*
X64572286Y-40162057D02*
X64619905Y-40114438D01*
X64619905Y-40114438D02*
X64715143Y-40066819D01*
X64715143Y-40066819D02*
X64953238Y-40066819D01*
X64953238Y-40066819D02*
X65096095Y-40114438D01*
X65429429Y-40066819D02*
X65667524Y-41066819D01*
X65667524Y-41066819D02*
X65858000Y-40352533D01*
X65858000Y-40352533D02*
X66048476Y-41066819D01*
X66048476Y-41066819D02*
X66286572Y-40066819D01*
X67096095Y-40400152D02*
X67096095Y-41066819D01*
X66858000Y-40019200D02*
X66619905Y-40733485D01*
X66619905Y-40733485D02*
X67238952Y-40733485D01*
X60054667Y-31954676D02*
X60054667Y-32411819D01*
X60054667Y-32411819D02*
X60024190Y-32503247D01*
X60024190Y-32503247D02*
X59963238Y-32564200D01*
X59963238Y-32564200D02*
X59871809Y-32594676D01*
X59871809Y-32594676D02*
X59810857Y-32594676D01*
X60694667Y-32594676D02*
X60328952Y-32594676D01*
X60511809Y-32594676D02*
X60511809Y-31954676D01*
X60511809Y-31954676D02*
X60450857Y-32046104D01*
X60450857Y-32046104D02*
X60389905Y-32107057D01*
X60389905Y-32107057D02*
X60328952Y-32137533D01*
D11*
X62000000Y-29950000D02*
X62000000Y-27620000D01*
X61120000Y-29950000D02*
X62000000Y-29950000D01*
X60890000Y-25700000D02*
X52110000Y-25700000D01*
X51880000Y-29950000D02*
X51000000Y-29950000D01*
X51000000Y-29950000D02*
X51000000Y-27620000D01*
D12*
X60600000Y-31600000D02*
G75*
G03*
X60600000Y-31600000I-100000J0D01*
G01*
%LPC*%
D13*
X40500000Y-70500000D03*
X72500000Y-70500000D03*
D14*
X41700000Y-60000000D03*
D15*
X41780000Y-56384200D03*
D16*
X42000000Y-63800000D03*
X44460000Y-65080000D03*
D17*
X47000000Y-60000000D03*
D16*
X47000000Y-65900000D03*
X50810000Y-62540000D03*
D15*
X52220000Y-56384200D03*
D14*
X52300000Y-60000000D03*
X41700000Y-41000000D03*
D15*
X41780000Y-37384200D03*
D16*
X42000000Y-44800000D03*
X44460000Y-46080000D03*
D17*
X47000000Y-41000000D03*
D16*
X47000000Y-46900000D03*
X50810000Y-43540000D03*
D15*
X52220000Y-37384200D03*
D14*
X52300000Y-41000000D03*
X60700000Y-60000000D03*
D15*
X60780000Y-56384200D03*
D16*
X61000000Y-63800000D03*
X63460000Y-65080000D03*
D17*
X66000000Y-60000000D03*
D16*
X66000000Y-65900000D03*
X69810000Y-62540000D03*
D15*
X71220000Y-56384200D03*
D14*
X71300000Y-60000000D03*
X60700000Y-41000000D03*
D15*
X60780000Y-37384200D03*
D16*
X61000000Y-44800000D03*
X63460000Y-46080000D03*
D17*
X66000000Y-41000000D03*
D16*
X66000000Y-46900000D03*
X69810000Y-43540000D03*
D15*
X71220000Y-37384200D03*
D14*
X71300000Y-41000000D03*
D18*
X60500000Y-30275000D03*
X59500000Y-30275000D03*
X58500000Y-30275000D03*
X57500000Y-30275000D03*
X56500000Y-30275000D03*
X55500000Y-30275000D03*
X54500000Y-30275000D03*
X53500000Y-30275000D03*
X52500000Y-30275000D03*
D19*
X61800000Y-26400000D03*
X51200000Y-26400000D03*
%LPD*%
M02*
