M48
; DRILL file {KiCad 7.0.8} date Tue 05 Dec 2023 05:15:27 AM PST
; FORMAT={-:-/ absolute / metric / decimal}
; #@! TF.CreationDate,2023-12-05T05:15:27-08:00
; #@! TF.GenerationSoftware,Kicad,Pcbnew,7.0.8
; #@! TF.FileFunction,NonPlated,1,2,NPTH
FMAT,2
METRIC
; #@! TA.AperFunction,NonPlated,NPTH,ComponentDrill
T1C1.000
; #@! TA.AperFunction,NonPlated,NPTH,ComponentDrill
T2C2.300
; #@! TA.AperFunction,NonPlated,NPTH,ComponentDrill
T3C3.000
; #@! TA.AperFunction,NonPlated,NPTH,ComponentDrill
T4C3.200
; #@! TA.AperFunction,NonPlated,NPTH,ComponentDrill
T5C4.000
%
G90
G05
T1
X41.78Y-37.384
X41.78Y-56.384
X41.78Y-75.384
X41.78Y-94.384
X52.22Y-37.384
X52.22Y-56.384
X52.22Y-75.384
X52.22Y-94.384
T2
X41.7Y-41.0
X41.7Y-60.0
X41.7Y-79.0
X41.7Y-98.0
X52.3Y-41.0
X52.3Y-60.0
X52.3Y-79.0
X52.3Y-98.0
T3
X42.0Y-44.8
X42.0Y-63.8
X42.0Y-82.8
X42.0Y-101.8
X44.46Y-46.08
X44.46Y-65.08
X44.46Y-84.08
X44.46Y-103.08
X47.0Y-46.9
X47.0Y-65.9
X47.0Y-84.9
X47.0Y-103.9
X50.81Y-43.54
X50.81Y-62.54
X50.81Y-81.54
X50.81Y-100.54
T4
X40.5Y-108.5
X53.5Y-108.5
T5
X47.0Y-41.0
X47.0Y-60.0
X47.0Y-79.0
X47.0Y-98.0
T0
M30
