M48
; DRILL file {KiCad 7.0.8} date Tue 05 Dec 2023 05:15:27 AM PST
; FORMAT={-:-/ absolute / metric / decimal}
; #@! TF.CreationDate,2023-12-05T05:15:27-08:00
; #@! TF.GenerationSoftware,Kicad,Pcbnew,7.0.8
; #@! TF.FileFunction,Plated,1,2,PTH
FMAT,2
METRIC
; #@! TA.AperFunction,Plated,PTH,ViaDrill
T1C0.300
; #@! TA.AperFunction,Plated,PTH,ViaDrill
T2C0.400
%
G90
G05
T1
X39.4Y-89.4
X39.844Y-68.347
X41.9Y-50.45
X46.531Y-32.401
X53.9Y-34.0
T2
X41.8Y-53.3
X41.8Y-72.3
X41.8Y-91.3
X48.5Y-32.95
X49.4Y-52.8
X49.4Y-71.8
X49.4Y-90.8
X50.5Y-31.9
X50.9Y-95.9
X51.0Y-38.5
X51.0Y-57.5
X51.0Y-76.5
X51.9Y-35.8
X51.9Y-54.8
X51.9Y-73.8
X51.9Y-92.8
T0
M30
