G04 #@! TF.GenerationSoftware,KiCad,Pcbnew,7.0.8*
G04 #@! TF.CreationDate,2023-10-22T00:47:00-07:00*
G04 #@! TF.ProjectId,Seismos_4-Key,53656973-6d6f-4735-9f34-2d4b65792e6b,rev?*
G04 #@! TF.SameCoordinates,Original*
G04 #@! TF.FileFunction,Legend,Bot*
G04 #@! TF.FilePolarity,Positive*
%FSLAX46Y46*%
G04 Gerber Fmt 4.6, Leading zero omitted, Abs format (unit mm)*
G04 Created by KiCad (PCBNEW 7.0.8) date 2023-10-22 00:47:00*
%MOMM*%
%LPD*%
G01*
G04 APERTURE LIST*
G04 Aperture macros list*
%AMRoundRect*
0 Rectangle with rounded corners*
0 $1 Rounding radius*
0 $2 $3 $4 $5 $6 $7 $8 $9 X,Y pos of 4 corners*
0 Add a 4 corners polygon primitive as box body*
4,1,4,$2,$3,$4,$5,$6,$7,$8,$9,$2,$3,0*
0 Add four circle primitives for the rounded corners*
1,1,$1+$1,$2,$3*
1,1,$1+$1,$4,$5*
1,1,$1+$1,$6,$7*
1,1,$1+$1,$8,$9*
0 Add four rect primitives between the rounded corners*
20,1,$1+$1,$2,$3,$4,$5,0*
20,1,$1+$1,$4,$5,$6,$7,0*
20,1,$1+$1,$6,$7,$8,$9,0*
20,1,$1+$1,$8,$9,$2,$3,0*%
G04 Aperture macros list end*
%ADD10C,0.150000*%
%ADD11C,0.120000*%
%ADD12C,2.300000*%
%ADD13C,1.000000*%
%ADD14C,3.000000*%
%ADD15C,4.000000*%
%ADD16R,1.750000X0.812800*%
%ADD17RoundRect,0.063500X-1.150000X-1.300000X1.150000X-1.300000X1.150000X1.300000X-1.150000X1.300000X0*%
%ADD18RoundRect,0.063500X-1.750000X-1.750000X1.750000X-1.750000X1.750000X1.750000X-1.750000X1.750000X0*%
%ADD19RoundRect,0.063500X-1.200000X-1.300000X1.200000X-1.300000X1.200000X1.300000X-1.200000X1.300000X0*%
%ADD20C,3.200000*%
%ADD21RoundRect,0.225000X-0.375000X0.225000X-0.375000X-0.225000X0.375000X-0.225000X0.375000X0.225000X0*%
G04 APERTURE END LIST*
D10*
X49309523Y-108969819D02*
X49642856Y-108493628D01*
X49880951Y-108969819D02*
X49880951Y-107969819D01*
X49880951Y-107969819D02*
X49499999Y-107969819D01*
X49499999Y-107969819D02*
X49404761Y-108017438D01*
X49404761Y-108017438D02*
X49357142Y-108065057D01*
X49357142Y-108065057D02*
X49309523Y-108160295D01*
X49309523Y-108160295D02*
X49309523Y-108303152D01*
X49309523Y-108303152D02*
X49357142Y-108398390D01*
X49357142Y-108398390D02*
X49404761Y-108446009D01*
X49404761Y-108446009D02*
X49499999Y-108493628D01*
X49499999Y-108493628D02*
X49880951Y-108493628D01*
X48499999Y-108922200D02*
X48595237Y-108969819D01*
X48595237Y-108969819D02*
X48785713Y-108969819D01*
X48785713Y-108969819D02*
X48880951Y-108922200D01*
X48880951Y-108922200D02*
X48928570Y-108826961D01*
X48928570Y-108826961D02*
X48928570Y-108446009D01*
X48928570Y-108446009D02*
X48880951Y-108350771D01*
X48880951Y-108350771D02*
X48785713Y-108303152D01*
X48785713Y-108303152D02*
X48595237Y-108303152D01*
X48595237Y-108303152D02*
X48499999Y-108350771D01*
X48499999Y-108350771D02*
X48452380Y-108446009D01*
X48452380Y-108446009D02*
X48452380Y-108541247D01*
X48452380Y-108541247D02*
X48928570Y-108636485D01*
X48119046Y-108303152D02*
X47880951Y-108969819D01*
X47880951Y-108969819D02*
X47642856Y-108303152D01*
X47261903Y-108874580D02*
X47214284Y-108922200D01*
X47214284Y-108922200D02*
X47261903Y-108969819D01*
X47261903Y-108969819D02*
X47309522Y-108922200D01*
X47309522Y-108922200D02*
X47261903Y-108874580D01*
X47261903Y-108874580D02*
X47261903Y-108969819D01*
X45499999Y-108969819D02*
X46071427Y-108969819D01*
X45785713Y-108969819D02*
X45785713Y-107969819D01*
X45785713Y-107969819D02*
X45880951Y-108112676D01*
X45880951Y-108112676D02*
X45976189Y-108207914D01*
X45976189Y-108207914D02*
X46071427Y-108255533D01*
X45071427Y-108874580D02*
X45023808Y-108922200D01*
X45023808Y-108922200D02*
X45071427Y-108969819D01*
X45071427Y-108969819D02*
X45119046Y-108922200D01*
X45119046Y-108922200D02*
X45071427Y-108874580D01*
X45071427Y-108874580D02*
X45071427Y-108969819D01*
X44404761Y-107969819D02*
X44309523Y-107969819D01*
X44309523Y-107969819D02*
X44214285Y-108017438D01*
X44214285Y-108017438D02*
X44166666Y-108065057D01*
X44166666Y-108065057D02*
X44119047Y-108160295D01*
X44119047Y-108160295D02*
X44071428Y-108350771D01*
X44071428Y-108350771D02*
X44071428Y-108588866D01*
X44071428Y-108588866D02*
X44119047Y-108779342D01*
X44119047Y-108779342D02*
X44166666Y-108874580D01*
X44166666Y-108874580D02*
X44214285Y-108922200D01*
X44214285Y-108922200D02*
X44309523Y-108969819D01*
X44309523Y-108969819D02*
X44404761Y-108969819D01*
X44404761Y-108969819D02*
X44499999Y-108922200D01*
X44499999Y-108922200D02*
X44547618Y-108874580D01*
X44547618Y-108874580D02*
X44595237Y-108779342D01*
X44595237Y-108779342D02*
X44642856Y-108588866D01*
X44642856Y-108588866D02*
X44642856Y-108350771D01*
X44642856Y-108350771D02*
X44595237Y-108160295D01*
X44595237Y-108160295D02*
X44547618Y-108065057D01*
X44547618Y-108065057D02*
X44499999Y-108017438D01*
X44499999Y-108017438D02*
X44404761Y-107969819D01*
X51333333Y-70009819D02*
X51333333Y-69009819D01*
X51333333Y-69009819D02*
X51095238Y-69009819D01*
X51095238Y-69009819D02*
X50952381Y-69057438D01*
X50952381Y-69057438D02*
X50857143Y-69152676D01*
X50857143Y-69152676D02*
X50809524Y-69247914D01*
X50809524Y-69247914D02*
X50761905Y-69438390D01*
X50761905Y-69438390D02*
X50761905Y-69581247D01*
X50761905Y-69581247D02*
X50809524Y-69771723D01*
X50809524Y-69771723D02*
X50857143Y-69866961D01*
X50857143Y-69866961D02*
X50952381Y-69962200D01*
X50952381Y-69962200D02*
X51095238Y-70009819D01*
X51095238Y-70009819D02*
X51333333Y-70009819D01*
X49952381Y-69962200D02*
X50047619Y-70009819D01*
X50047619Y-70009819D02*
X50238095Y-70009819D01*
X50238095Y-70009819D02*
X50333333Y-69962200D01*
X50333333Y-69962200D02*
X50380952Y-69866961D01*
X50380952Y-69866961D02*
X50380952Y-69486009D01*
X50380952Y-69486009D02*
X50333333Y-69390771D01*
X50333333Y-69390771D02*
X50238095Y-69343152D01*
X50238095Y-69343152D02*
X50047619Y-69343152D01*
X50047619Y-69343152D02*
X49952381Y-69390771D01*
X49952381Y-69390771D02*
X49904762Y-69486009D01*
X49904762Y-69486009D02*
X49904762Y-69581247D01*
X49904762Y-69581247D02*
X50380952Y-69676485D01*
X49523809Y-69962200D02*
X49428571Y-70009819D01*
X49428571Y-70009819D02*
X49238095Y-70009819D01*
X49238095Y-70009819D02*
X49142857Y-69962200D01*
X49142857Y-69962200D02*
X49095238Y-69866961D01*
X49095238Y-69866961D02*
X49095238Y-69819342D01*
X49095238Y-69819342D02*
X49142857Y-69724104D01*
X49142857Y-69724104D02*
X49238095Y-69676485D01*
X49238095Y-69676485D02*
X49380952Y-69676485D01*
X49380952Y-69676485D02*
X49476190Y-69628866D01*
X49476190Y-69628866D02*
X49523809Y-69533628D01*
X49523809Y-69533628D02*
X49523809Y-69486009D01*
X49523809Y-69486009D02*
X49476190Y-69390771D01*
X49476190Y-69390771D02*
X49380952Y-69343152D01*
X49380952Y-69343152D02*
X49238095Y-69343152D01*
X49238095Y-69343152D02*
X49142857Y-69390771D01*
X48666666Y-70009819D02*
X48666666Y-69343152D01*
X48666666Y-69009819D02*
X48714285Y-69057438D01*
X48714285Y-69057438D02*
X48666666Y-69105057D01*
X48666666Y-69105057D02*
X48619047Y-69057438D01*
X48619047Y-69057438D02*
X48666666Y-69009819D01*
X48666666Y-69009819D02*
X48666666Y-69105057D01*
X47761905Y-69343152D02*
X47761905Y-70152676D01*
X47761905Y-70152676D02*
X47809524Y-70247914D01*
X47809524Y-70247914D02*
X47857143Y-70295533D01*
X47857143Y-70295533D02*
X47952381Y-70343152D01*
X47952381Y-70343152D02*
X48095238Y-70343152D01*
X48095238Y-70343152D02*
X48190476Y-70295533D01*
X47761905Y-69962200D02*
X47857143Y-70009819D01*
X47857143Y-70009819D02*
X48047619Y-70009819D01*
X48047619Y-70009819D02*
X48142857Y-69962200D01*
X48142857Y-69962200D02*
X48190476Y-69914580D01*
X48190476Y-69914580D02*
X48238095Y-69819342D01*
X48238095Y-69819342D02*
X48238095Y-69533628D01*
X48238095Y-69533628D02*
X48190476Y-69438390D01*
X48190476Y-69438390D02*
X48142857Y-69390771D01*
X48142857Y-69390771D02*
X48047619Y-69343152D01*
X48047619Y-69343152D02*
X47857143Y-69343152D01*
X47857143Y-69343152D02*
X47761905Y-69390771D01*
X47285714Y-69343152D02*
X47285714Y-70009819D01*
X47285714Y-69438390D02*
X47238095Y-69390771D01*
X47238095Y-69390771D02*
X47142857Y-69343152D01*
X47142857Y-69343152D02*
X47000000Y-69343152D01*
X47000000Y-69343152D02*
X46904762Y-69390771D01*
X46904762Y-69390771D02*
X46857143Y-69486009D01*
X46857143Y-69486009D02*
X46857143Y-70009819D01*
X46000000Y-69962200D02*
X46095238Y-70009819D01*
X46095238Y-70009819D02*
X46285714Y-70009819D01*
X46285714Y-70009819D02*
X46380952Y-69962200D01*
X46380952Y-69962200D02*
X46428571Y-69866961D01*
X46428571Y-69866961D02*
X46428571Y-69486009D01*
X46428571Y-69486009D02*
X46380952Y-69390771D01*
X46380952Y-69390771D02*
X46285714Y-69343152D01*
X46285714Y-69343152D02*
X46095238Y-69343152D01*
X46095238Y-69343152D02*
X46000000Y-69390771D01*
X46000000Y-69390771D02*
X45952381Y-69486009D01*
X45952381Y-69486009D02*
X45952381Y-69581247D01*
X45952381Y-69581247D02*
X46428571Y-69676485D01*
X45095238Y-70009819D02*
X45095238Y-69009819D01*
X45095238Y-69962200D02*
X45190476Y-70009819D01*
X45190476Y-70009819D02*
X45380952Y-70009819D01*
X45380952Y-70009819D02*
X45476190Y-69962200D01*
X45476190Y-69962200D02*
X45523809Y-69914580D01*
X45523809Y-69914580D02*
X45571428Y-69819342D01*
X45571428Y-69819342D02*
X45571428Y-69533628D01*
X45571428Y-69533628D02*
X45523809Y-69438390D01*
X45523809Y-69438390D02*
X45476190Y-69390771D01*
X45476190Y-69390771D02*
X45380952Y-69343152D01*
X45380952Y-69343152D02*
X45190476Y-69343152D01*
X45190476Y-69343152D02*
X45095238Y-69390771D01*
X43857142Y-70009819D02*
X43857142Y-69009819D01*
X43857142Y-69390771D02*
X43761904Y-69343152D01*
X43761904Y-69343152D02*
X43571428Y-69343152D01*
X43571428Y-69343152D02*
X43476190Y-69390771D01*
X43476190Y-69390771D02*
X43428571Y-69438390D01*
X43428571Y-69438390D02*
X43380952Y-69533628D01*
X43380952Y-69533628D02*
X43380952Y-69819342D01*
X43380952Y-69819342D02*
X43428571Y-69914580D01*
X43428571Y-69914580D02*
X43476190Y-69962200D01*
X43476190Y-69962200D02*
X43571428Y-70009819D01*
X43571428Y-70009819D02*
X43761904Y-70009819D01*
X43761904Y-70009819D02*
X43857142Y-69962200D01*
X43047618Y-69343152D02*
X42809523Y-70009819D01*
X42571428Y-69343152D02*
X42809523Y-70009819D01*
X42809523Y-70009819D02*
X42904761Y-70247914D01*
X42904761Y-70247914D02*
X42952380Y-70295533D01*
X42952380Y-70295533D02*
X43047618Y-70343152D01*
X49904761Y-71619819D02*
X50238094Y-71143628D01*
X50476189Y-71619819D02*
X50476189Y-70619819D01*
X50476189Y-70619819D02*
X50095237Y-70619819D01*
X50095237Y-70619819D02*
X49999999Y-70667438D01*
X49999999Y-70667438D02*
X49952380Y-70715057D01*
X49952380Y-70715057D02*
X49904761Y-70810295D01*
X49904761Y-70810295D02*
X49904761Y-70953152D01*
X49904761Y-70953152D02*
X49952380Y-71048390D01*
X49952380Y-71048390D02*
X49999999Y-71096009D01*
X49999999Y-71096009D02*
X50095237Y-71143628D01*
X50095237Y-71143628D02*
X50476189Y-71143628D01*
X49095237Y-71572200D02*
X49190475Y-71619819D01*
X49190475Y-71619819D02*
X49380951Y-71619819D01*
X49380951Y-71619819D02*
X49476189Y-71572200D01*
X49476189Y-71572200D02*
X49523808Y-71476961D01*
X49523808Y-71476961D02*
X49523808Y-71096009D01*
X49523808Y-71096009D02*
X49476189Y-71000771D01*
X49476189Y-71000771D02*
X49380951Y-70953152D01*
X49380951Y-70953152D02*
X49190475Y-70953152D01*
X49190475Y-70953152D02*
X49095237Y-71000771D01*
X49095237Y-71000771D02*
X49047618Y-71096009D01*
X49047618Y-71096009D02*
X49047618Y-71191247D01*
X49047618Y-71191247D02*
X49523808Y-71286485D01*
X48666665Y-71572200D02*
X48523808Y-71619819D01*
X48523808Y-71619819D02*
X48285713Y-71619819D01*
X48285713Y-71619819D02*
X48190475Y-71572200D01*
X48190475Y-71572200D02*
X48142856Y-71524580D01*
X48142856Y-71524580D02*
X48095237Y-71429342D01*
X48095237Y-71429342D02*
X48095237Y-71334104D01*
X48095237Y-71334104D02*
X48142856Y-71238866D01*
X48142856Y-71238866D02*
X48190475Y-71191247D01*
X48190475Y-71191247D02*
X48285713Y-71143628D01*
X48285713Y-71143628D02*
X48476189Y-71096009D01*
X48476189Y-71096009D02*
X48571427Y-71048390D01*
X48571427Y-71048390D02*
X48619046Y-71000771D01*
X48619046Y-71000771D02*
X48666665Y-70905533D01*
X48666665Y-70905533D02*
X48666665Y-70810295D01*
X48666665Y-70810295D02*
X48619046Y-70715057D01*
X48619046Y-70715057D02*
X48571427Y-70667438D01*
X48571427Y-70667438D02*
X48476189Y-70619819D01*
X48476189Y-70619819D02*
X48238094Y-70619819D01*
X48238094Y-70619819D02*
X48095237Y-70667438D01*
X47238094Y-70953152D02*
X47238094Y-71619819D01*
X47666665Y-70953152D02*
X47666665Y-71476961D01*
X47666665Y-71476961D02*
X47619046Y-71572200D01*
X47619046Y-71572200D02*
X47523808Y-71619819D01*
X47523808Y-71619819D02*
X47380951Y-71619819D01*
X47380951Y-71619819D02*
X47285713Y-71572200D01*
X47285713Y-71572200D02*
X47238094Y-71524580D01*
X46761903Y-71619819D02*
X46761903Y-70953152D01*
X46761903Y-71048390D02*
X46714284Y-71000771D01*
X46714284Y-71000771D02*
X46619046Y-70953152D01*
X46619046Y-70953152D02*
X46476189Y-70953152D01*
X46476189Y-70953152D02*
X46380951Y-71000771D01*
X46380951Y-71000771D02*
X46333332Y-71096009D01*
X46333332Y-71096009D02*
X46333332Y-71619819D01*
X46333332Y-71096009D02*
X46285713Y-71000771D01*
X46285713Y-71000771D02*
X46190475Y-70953152D01*
X46190475Y-70953152D02*
X46047618Y-70953152D01*
X46047618Y-70953152D02*
X45952379Y-71000771D01*
X45952379Y-71000771D02*
X45904760Y-71096009D01*
X45904760Y-71096009D02*
X45904760Y-71619819D01*
X45428570Y-71619819D02*
X45428570Y-70953152D01*
X45428570Y-71048390D02*
X45380951Y-71000771D01*
X45380951Y-71000771D02*
X45285713Y-70953152D01*
X45285713Y-70953152D02*
X45142856Y-70953152D01*
X45142856Y-70953152D02*
X45047618Y-71000771D01*
X45047618Y-71000771D02*
X44999999Y-71096009D01*
X44999999Y-71096009D02*
X44999999Y-71619819D01*
X44999999Y-71096009D02*
X44952380Y-71000771D01*
X44952380Y-71000771D02*
X44857142Y-70953152D01*
X44857142Y-70953152D02*
X44714285Y-70953152D01*
X44714285Y-70953152D02*
X44619046Y-71000771D01*
X44619046Y-71000771D02*
X44571427Y-71096009D01*
X44571427Y-71096009D02*
X44571427Y-71619819D01*
X44095237Y-71619819D02*
X44095237Y-70953152D01*
X44095237Y-70619819D02*
X44142856Y-70667438D01*
X44142856Y-70667438D02*
X44095237Y-70715057D01*
X44095237Y-70715057D02*
X44047618Y-70667438D01*
X44047618Y-70667438D02*
X44095237Y-70619819D01*
X44095237Y-70619819D02*
X44095237Y-70715057D01*
X43761904Y-70953152D02*
X43380952Y-70953152D01*
X43619047Y-70619819D02*
X43619047Y-71476961D01*
X43619047Y-71476961D02*
X43571428Y-71572200D01*
X43571428Y-71572200D02*
X43476190Y-71619819D01*
X43476190Y-71619819D02*
X43380952Y-71619819D01*
X46849999Y-54959019D02*
X46849999Y-55197114D01*
X47088094Y-55101876D02*
X46849999Y-55197114D01*
X46849999Y-55197114D02*
X46611904Y-55101876D01*
X46992856Y-55387590D02*
X46849999Y-55197114D01*
X46849999Y-55197114D02*
X46707142Y-55387590D01*
X46849999Y-35959019D02*
X46849999Y-36197114D01*
X47088094Y-36101876D02*
X46849999Y-36197114D01*
X46849999Y-36197114D02*
X46611904Y-36101876D01*
X46992856Y-36387590D02*
X46849999Y-36197114D01*
X46849999Y-36197114D02*
X46707142Y-36387590D01*
X46849999Y-73959019D02*
X46849999Y-74197114D01*
X47088094Y-74101876D02*
X46849999Y-74197114D01*
X46849999Y-74197114D02*
X46611904Y-74101876D01*
X46992856Y-74387590D02*
X46849999Y-74197114D01*
X46849999Y-74197114D02*
X46707142Y-74387590D01*
X46849999Y-92959019D02*
X46849999Y-93197114D01*
X47088094Y-93101876D02*
X46849999Y-93197114D01*
X46849999Y-93197114D02*
X46611904Y-93101876D01*
X46992856Y-93387590D02*
X46849999Y-93197114D01*
X46849999Y-93197114D02*
X46707142Y-93387590D01*
X40188094Y-53004819D02*
X40188094Y-52004819D01*
X40188094Y-52004819D02*
X39949999Y-52004819D01*
X39949999Y-52004819D02*
X39807142Y-52052438D01*
X39807142Y-52052438D02*
X39711904Y-52147676D01*
X39711904Y-52147676D02*
X39664285Y-52242914D01*
X39664285Y-52242914D02*
X39616666Y-52433390D01*
X39616666Y-52433390D02*
X39616666Y-52576247D01*
X39616666Y-52576247D02*
X39664285Y-52766723D01*
X39664285Y-52766723D02*
X39711904Y-52861961D01*
X39711904Y-52861961D02*
X39807142Y-52957200D01*
X39807142Y-52957200D02*
X39949999Y-53004819D01*
X39949999Y-53004819D02*
X40188094Y-53004819D01*
X39235713Y-52100057D02*
X39188094Y-52052438D01*
X39188094Y-52052438D02*
X39092856Y-52004819D01*
X39092856Y-52004819D02*
X38854761Y-52004819D01*
X38854761Y-52004819D02*
X38759523Y-52052438D01*
X38759523Y-52052438D02*
X38711904Y-52100057D01*
X38711904Y-52100057D02*
X38664285Y-52195295D01*
X38664285Y-52195295D02*
X38664285Y-52290533D01*
X38664285Y-52290533D02*
X38711904Y-52433390D01*
X38711904Y-52433390D02*
X39283332Y-53004819D01*
X39283332Y-53004819D02*
X38664285Y-53004819D01*
X40188094Y-91004819D02*
X40188094Y-90004819D01*
X40188094Y-90004819D02*
X39949999Y-90004819D01*
X39949999Y-90004819D02*
X39807142Y-90052438D01*
X39807142Y-90052438D02*
X39711904Y-90147676D01*
X39711904Y-90147676D02*
X39664285Y-90242914D01*
X39664285Y-90242914D02*
X39616666Y-90433390D01*
X39616666Y-90433390D02*
X39616666Y-90576247D01*
X39616666Y-90576247D02*
X39664285Y-90766723D01*
X39664285Y-90766723D02*
X39711904Y-90861961D01*
X39711904Y-90861961D02*
X39807142Y-90957200D01*
X39807142Y-90957200D02*
X39949999Y-91004819D01*
X39949999Y-91004819D02*
X40188094Y-91004819D01*
X38759523Y-90338152D02*
X38759523Y-91004819D01*
X38997618Y-89957200D02*
X39235713Y-90671485D01*
X39235713Y-90671485D02*
X38616666Y-90671485D01*
X40188094Y-34004819D02*
X40188094Y-33004819D01*
X40188094Y-33004819D02*
X39949999Y-33004819D01*
X39949999Y-33004819D02*
X39807142Y-33052438D01*
X39807142Y-33052438D02*
X39711904Y-33147676D01*
X39711904Y-33147676D02*
X39664285Y-33242914D01*
X39664285Y-33242914D02*
X39616666Y-33433390D01*
X39616666Y-33433390D02*
X39616666Y-33576247D01*
X39616666Y-33576247D02*
X39664285Y-33766723D01*
X39664285Y-33766723D02*
X39711904Y-33861961D01*
X39711904Y-33861961D02*
X39807142Y-33957200D01*
X39807142Y-33957200D02*
X39949999Y-34004819D01*
X39949999Y-34004819D02*
X40188094Y-34004819D01*
X38664285Y-34004819D02*
X39235713Y-34004819D01*
X38949999Y-34004819D02*
X38949999Y-33004819D01*
X38949999Y-33004819D02*
X39045237Y-33147676D01*
X39045237Y-33147676D02*
X39140475Y-33242914D01*
X39140475Y-33242914D02*
X39235713Y-33290533D01*
X40188094Y-72004819D02*
X40188094Y-71004819D01*
X40188094Y-71004819D02*
X39949999Y-71004819D01*
X39949999Y-71004819D02*
X39807142Y-71052438D01*
X39807142Y-71052438D02*
X39711904Y-71147676D01*
X39711904Y-71147676D02*
X39664285Y-71242914D01*
X39664285Y-71242914D02*
X39616666Y-71433390D01*
X39616666Y-71433390D02*
X39616666Y-71576247D01*
X39616666Y-71576247D02*
X39664285Y-71766723D01*
X39664285Y-71766723D02*
X39711904Y-71861961D01*
X39711904Y-71861961D02*
X39807142Y-71957200D01*
X39807142Y-71957200D02*
X39949999Y-72004819D01*
X39949999Y-72004819D02*
X40188094Y-72004819D01*
X39283332Y-71004819D02*
X38664285Y-71004819D01*
X38664285Y-71004819D02*
X38997618Y-71385771D01*
X38997618Y-71385771D02*
X38854761Y-71385771D01*
X38854761Y-71385771D02*
X38759523Y-71433390D01*
X38759523Y-71433390D02*
X38711904Y-71481009D01*
X38711904Y-71481009D02*
X38664285Y-71576247D01*
X38664285Y-71576247D02*
X38664285Y-71814342D01*
X38664285Y-71814342D02*
X38711904Y-71909580D01*
X38711904Y-71909580D02*
X38759523Y-71957200D01*
X38759523Y-71957200D02*
X38854761Y-72004819D01*
X38854761Y-72004819D02*
X39140475Y-72004819D01*
X39140475Y-72004819D02*
X39235713Y-71957200D01*
X39235713Y-71957200D02*
X39283332Y-71909580D01*
X39750000Y-61450000D02*
X39750000Y-66350000D01*
X39750000Y-66350000D02*
X44460000Y-66350000D01*
X42700000Y-66800000D02*
X42700000Y-63850000D01*
X43300000Y-63300000D02*
X47300000Y-63300000D01*
X44460000Y-61450000D02*
X39750000Y-61450000D01*
X44460000Y-63175000D02*
X44460000Y-61450000D01*
X44460000Y-66350000D02*
X44460000Y-68250000D01*
X44460000Y-68250000D02*
X49250000Y-68250000D01*
D11*
X45122800Y-57028200D02*
X48577200Y-57028200D01*
X48577200Y-53980200D02*
X45122800Y-53980200D01*
D10*
X49250000Y-63175000D02*
X44460000Y-63175000D01*
X49250000Y-68250000D02*
X49250000Y-63175000D01*
X49300000Y-61500000D02*
X49300000Y-61350000D01*
X49650000Y-60800000D02*
X52500000Y-60800000D01*
X50300000Y-66800000D02*
X42700000Y-66800000D01*
X52500000Y-60800000D02*
X52500000Y-64600000D01*
X43300000Y-63300000D02*
G75*
G03*
X42700000Y-63850000I-25000J-575000D01*
G01*
X47300000Y-63299998D02*
G75*
G03*
X49299998Y-61499999I100000J1899998D01*
G01*
X49650000Y-60800000D02*
G75*
G03*
X49300000Y-61350000I100000J-450000D01*
G01*
X50300000Y-66800000D02*
G75*
G03*
X52500000Y-64600000I0J2200000D01*
G01*
D11*
X51593200Y-54754900D02*
G75*
G03*
X51593200Y-54754900I-381000J0D01*
G01*
D10*
X39750000Y-42450000D02*
X39750000Y-47350000D01*
X39750000Y-47350000D02*
X44460000Y-47350000D01*
X42700000Y-47800000D02*
X42700000Y-44850000D01*
X43300000Y-44300000D02*
X47300000Y-44300000D01*
X44460000Y-42450000D02*
X39750000Y-42450000D01*
X44460000Y-44175000D02*
X44460000Y-42450000D01*
X44460000Y-47350000D02*
X44460000Y-49250000D01*
X44460000Y-49250000D02*
X49250000Y-49250000D01*
D11*
X45122800Y-38028200D02*
X48577200Y-38028200D01*
X48577200Y-34980200D02*
X45122800Y-34980200D01*
D10*
X49250000Y-44175000D02*
X44460000Y-44175000D01*
X49250000Y-49250000D02*
X49250000Y-44175000D01*
X49300000Y-42500000D02*
X49300000Y-42350000D01*
X49650000Y-41800000D02*
X52500000Y-41800000D01*
X50300000Y-47800000D02*
X42700000Y-47800000D01*
X52500000Y-41800000D02*
X52500000Y-45600000D01*
X43300000Y-44300000D02*
G75*
G03*
X42700000Y-44850000I-25000J-575000D01*
G01*
X47300000Y-44299998D02*
G75*
G03*
X49299998Y-42499999I100000J1899998D01*
G01*
X49650000Y-41800000D02*
G75*
G03*
X49300000Y-42350000I100000J-450000D01*
G01*
X50300000Y-47800000D02*
G75*
G03*
X52500000Y-45600000I0J2200000D01*
G01*
D11*
X51593200Y-35754900D02*
G75*
G03*
X51593200Y-35754900I-381000J0D01*
G01*
D10*
X39750000Y-80450000D02*
X39750000Y-85350000D01*
X39750000Y-85350000D02*
X44460000Y-85350000D01*
X42700000Y-85800000D02*
X42700000Y-82850000D01*
X43300000Y-82300000D02*
X47300000Y-82300000D01*
X44460000Y-80450000D02*
X39750000Y-80450000D01*
X44460000Y-82175000D02*
X44460000Y-80450000D01*
X44460000Y-85350000D02*
X44460000Y-87250000D01*
X44460000Y-87250000D02*
X49250000Y-87250000D01*
D11*
X45122800Y-76028200D02*
X48577200Y-76028200D01*
X48577200Y-72980200D02*
X45122800Y-72980200D01*
D10*
X49250000Y-82175000D02*
X44460000Y-82175000D01*
X49250000Y-87250000D02*
X49250000Y-82175000D01*
X49300000Y-80500000D02*
X49300000Y-80350000D01*
X49650000Y-79800000D02*
X52500000Y-79800000D01*
X50300000Y-85800000D02*
X42700000Y-85800000D01*
X52500000Y-79800000D02*
X52500000Y-83600000D01*
X43300000Y-82300000D02*
G75*
G03*
X42700000Y-82850000I-25000J-575000D01*
G01*
X47300000Y-82299998D02*
G75*
G03*
X49299998Y-80499999I100000J1899998D01*
G01*
X49650000Y-79800000D02*
G75*
G03*
X49300000Y-80350000I100000J-450000D01*
G01*
X50300000Y-85800000D02*
G75*
G03*
X52500000Y-83600000I0J2200000D01*
G01*
D11*
X51593200Y-73754900D02*
G75*
G03*
X51593200Y-73754900I-381000J0D01*
G01*
D10*
X39750000Y-99450000D02*
X39750000Y-104350000D01*
X39750000Y-104350000D02*
X44460000Y-104350000D01*
X42700000Y-104800000D02*
X42700000Y-101850000D01*
X43300000Y-101300000D02*
X47300000Y-101300000D01*
X44460000Y-99450000D02*
X39750000Y-99450000D01*
X44460000Y-101175000D02*
X44460000Y-99450000D01*
X44460000Y-104350000D02*
X44460000Y-106250000D01*
X44460000Y-106250000D02*
X49250000Y-106250000D01*
D11*
X45122800Y-95028200D02*
X48577200Y-95028200D01*
X48577200Y-91980200D02*
X45122800Y-91980200D01*
D10*
X49250000Y-101175000D02*
X44460000Y-101175000D01*
X49250000Y-106250000D02*
X49250000Y-101175000D01*
X49300000Y-99500000D02*
X49300000Y-99350000D01*
X49650000Y-98800000D02*
X52500000Y-98800000D01*
X50300000Y-104800000D02*
X42700000Y-104800000D01*
X52500000Y-98800000D02*
X52500000Y-102600000D01*
X43300000Y-101300000D02*
G75*
G03*
X42700000Y-101850000I-25000J-575000D01*
G01*
X47300000Y-101299998D02*
G75*
G03*
X49299998Y-99499999I100000J1899998D01*
G01*
X49650000Y-98800000D02*
G75*
G03*
X49300000Y-99350000I100000J-450000D01*
G01*
X50300000Y-104800000D02*
G75*
G03*
X52500000Y-102600000I0J2200000D01*
G01*
D11*
X51593200Y-92754900D02*
G75*
G03*
X51593200Y-92754900I-381000J0D01*
G01*
X40500000Y-53640000D02*
X40500000Y-57650000D01*
X38500000Y-53640000D02*
X40500000Y-53640000D01*
X38500000Y-53640000D02*
X38500000Y-57650000D01*
X40500000Y-91640000D02*
X40500000Y-95650000D01*
X38500000Y-91640000D02*
X40500000Y-91640000D01*
X38500000Y-91640000D02*
X38500000Y-95650000D01*
X40500000Y-34640000D02*
X40500000Y-38650000D01*
X38500000Y-34640000D02*
X40500000Y-34640000D01*
X38500000Y-34640000D02*
X38500000Y-38650000D01*
G36*
X49295770Y-29145192D02*
G01*
X49290885Y-29150077D01*
X49286000Y-29145192D01*
X49290885Y-29140307D01*
X49295770Y-29145192D01*
G37*
G36*
X49110154Y-31226038D02*
G01*
X49105270Y-31230923D01*
X49100385Y-31226038D01*
X49105270Y-31221153D01*
X49110154Y-31226038D01*
G37*
G36*
X49061308Y-28695807D02*
G01*
X49056423Y-28700692D01*
X49051539Y-28695807D01*
X49056423Y-28690923D01*
X49061308Y-28695807D01*
G37*
G36*
X48983154Y-28744653D02*
G01*
X48978270Y-28749538D01*
X48973385Y-28744653D01*
X48978270Y-28739769D01*
X48983154Y-28744653D01*
G37*
G36*
X48905000Y-31392115D02*
G01*
X48900116Y-31397000D01*
X48895231Y-31392115D01*
X48900116Y-31387230D01*
X48905000Y-31392115D01*
G37*
G36*
X48905000Y-28559038D02*
G01*
X48900116Y-28563923D01*
X48895231Y-28559038D01*
X48900116Y-28554153D01*
X48905000Y-28559038D01*
G37*
G36*
X48768231Y-28529730D02*
G01*
X48763347Y-28534615D01*
X48758462Y-28529730D01*
X48763347Y-28524846D01*
X48768231Y-28529730D01*
G37*
G36*
X48397000Y-28715346D02*
G01*
X48392116Y-28720230D01*
X48387231Y-28715346D01*
X48392116Y-28710461D01*
X48397000Y-28715346D01*
G37*
G36*
X48397000Y-28265961D02*
G01*
X48392116Y-28270846D01*
X48387231Y-28265961D01*
X48392116Y-28261077D01*
X48397000Y-28265961D01*
G37*
G36*
X48338385Y-28607884D02*
G01*
X48333500Y-28612769D01*
X48328616Y-28607884D01*
X48333500Y-28603000D01*
X48338385Y-28607884D01*
G37*
G36*
X48309077Y-31411653D02*
G01*
X48304193Y-31416538D01*
X48299308Y-31411653D01*
X48304193Y-31406769D01*
X48309077Y-31411653D01*
G37*
G36*
X48260231Y-28637192D02*
G01*
X48255347Y-28642077D01*
X48250462Y-28637192D01*
X48255347Y-28632307D01*
X48260231Y-28637192D01*
G37*
G36*
X47967154Y-28051038D02*
G01*
X47962270Y-28055923D01*
X47957385Y-28051038D01*
X47962270Y-28046153D01*
X47967154Y-28051038D01*
G37*
G36*
X46365000Y-32007577D02*
G01*
X46360116Y-32012461D01*
X46355231Y-32007577D01*
X46360116Y-32002692D01*
X46365000Y-32007577D01*
G37*
G36*
X46257539Y-28099884D02*
G01*
X46252654Y-28104769D01*
X46247770Y-28099884D01*
X46252654Y-28095000D01*
X46257539Y-28099884D01*
G37*
G36*
X46208693Y-28129192D02*
G01*
X46203808Y-28134077D01*
X46198923Y-28129192D01*
X46203808Y-28124307D01*
X46208693Y-28129192D01*
G37*
G36*
X46042616Y-31919653D02*
G01*
X46037731Y-31924538D01*
X46032847Y-31919653D01*
X46037731Y-31914769D01*
X46042616Y-31919653D01*
G37*
G36*
X45886308Y-31333500D02*
G01*
X45881423Y-31338384D01*
X45876539Y-31333500D01*
X45881423Y-31328615D01*
X45886308Y-31333500D01*
G37*
G36*
X45827693Y-28637192D02*
G01*
X45822808Y-28642077D01*
X45817923Y-28637192D01*
X45822808Y-28632307D01*
X45827693Y-28637192D01*
G37*
G36*
X45827693Y-28314807D02*
G01*
X45822808Y-28319692D01*
X45817923Y-28314807D01*
X45822808Y-28309923D01*
X45827693Y-28314807D01*
G37*
G36*
X45778847Y-28344115D02*
G01*
X45773962Y-28349000D01*
X45769077Y-28344115D01*
X45773962Y-28339230D01*
X45778847Y-28344115D01*
G37*
G36*
X45534616Y-28637192D02*
G01*
X45529731Y-28642077D01*
X45524847Y-28637192D01*
X45529731Y-28632307D01*
X45534616Y-28637192D01*
G37*
G36*
X45378308Y-28480884D02*
G01*
X45373423Y-28485769D01*
X45368539Y-28480884D01*
X45373423Y-28476000D01*
X45378308Y-28480884D01*
G37*
G36*
X45349000Y-28451577D02*
G01*
X45344116Y-28456461D01*
X45339231Y-28451577D01*
X45344116Y-28446692D01*
X45349000Y-28451577D01*
G37*
G36*
X45163385Y-31440961D02*
G01*
X45158500Y-31445846D01*
X45153616Y-31440961D01*
X45158500Y-31436077D01*
X45163385Y-31440961D01*
G37*
G36*
X45134077Y-31392115D02*
G01*
X45129193Y-31397000D01*
X45124308Y-31392115D01*
X45129193Y-31387230D01*
X45134077Y-31392115D01*
G37*
G36*
X45055923Y-28529730D02*
G01*
X45051039Y-28534615D01*
X45046154Y-28529730D01*
X45051039Y-28524846D01*
X45055923Y-28529730D01*
G37*
G36*
X44919154Y-28881423D02*
G01*
X44914270Y-28886307D01*
X44909385Y-28881423D01*
X44914270Y-28876538D01*
X44919154Y-28881423D01*
G37*
G36*
X44762847Y-30825500D02*
G01*
X44757962Y-30830384D01*
X44753077Y-30825500D01*
X44757962Y-30820615D01*
X44762847Y-30825500D01*
G37*
G36*
X44762847Y-29145192D02*
G01*
X44757962Y-29150077D01*
X44753077Y-29145192D01*
X44757962Y-29140307D01*
X44762847Y-29145192D01*
G37*
G36*
X44733539Y-30747346D02*
G01*
X44728654Y-30752230D01*
X44723770Y-30747346D01*
X44728654Y-30742461D01*
X44733539Y-30747346D01*
G37*
G36*
X49302282Y-30823871D02*
G01*
X49303811Y-30826810D01*
X49295770Y-30830384D01*
X49290598Y-30829679D01*
X49289257Y-30823871D01*
X49290689Y-30822702D01*
X49302282Y-30823871D01*
G37*
G36*
X49194821Y-31038794D02*
G01*
X49196349Y-31041733D01*
X49188308Y-31045307D01*
X49183136Y-31044602D01*
X49181795Y-31038794D01*
X49183227Y-31037625D01*
X49194821Y-31038794D01*
G37*
G36*
X49116667Y-29172871D02*
G01*
X49118195Y-29175810D01*
X49110154Y-29179384D01*
X49104982Y-29178679D01*
X49103641Y-29172871D01*
X49105073Y-29171702D01*
X49116667Y-29172871D01*
G37*
G36*
X49009206Y-28635564D02*
G01*
X49010734Y-28638502D01*
X49002693Y-28642077D01*
X48997521Y-28641371D01*
X48996180Y-28635564D01*
X48997612Y-28634394D01*
X49009206Y-28635564D01*
G37*
G36*
X48524000Y-31602153D02*
G01*
X48523295Y-31607325D01*
X48517488Y-31608666D01*
X48516318Y-31607234D01*
X48517488Y-31595641D01*
X48520426Y-31594112D01*
X48524000Y-31602153D01*
G37*
G36*
X48393744Y-31546794D02*
G01*
X48395272Y-31549733D01*
X48387231Y-31553307D01*
X48382059Y-31552602D01*
X48380718Y-31546794D01*
X48382150Y-31545625D01*
X48393744Y-31546794D01*
G37*
G36*
X48260231Y-31524000D02*
G01*
X48259526Y-31529171D01*
X48253718Y-31530512D01*
X48252549Y-31529081D01*
X48253718Y-31517487D01*
X48256657Y-31515958D01*
X48260231Y-31524000D01*
G37*
G36*
X48208129Y-31283025D02*
G01*
X48209657Y-31285964D01*
X48201616Y-31289538D01*
X48196444Y-31288833D01*
X48195103Y-31283025D01*
X48196535Y-31281856D01*
X48208129Y-31283025D01*
G37*
G36*
X48045308Y-31309077D02*
G01*
X48044603Y-31314248D01*
X48038795Y-31315589D01*
X48037626Y-31314157D01*
X48038795Y-31302564D01*
X48041734Y-31301035D01*
X48045308Y-31309077D01*
G37*
G36*
X45935154Y-31817077D02*
G01*
X45934449Y-31822248D01*
X45928641Y-31823589D01*
X45927472Y-31822157D01*
X45928641Y-31810564D01*
X45931580Y-31809035D01*
X45935154Y-31817077D01*
G37*
G36*
X45912359Y-28127564D02*
G01*
X45913888Y-28130502D01*
X45905847Y-28134077D01*
X45900675Y-28133371D01*
X45899334Y-28127564D01*
X45900766Y-28126394D01*
X45912359Y-28127564D01*
G37*
G36*
X45726744Y-28928641D02*
G01*
X45728272Y-28931579D01*
X45720231Y-28935153D01*
X45715059Y-28934448D01*
X45713718Y-28928641D01*
X45715150Y-28927471D01*
X45726744Y-28928641D01*
G37*
G36*
X45700693Y-29306384D02*
G01*
X45699988Y-29311556D01*
X45694180Y-29312897D01*
X45693011Y-29311465D01*
X45694180Y-29299871D01*
X45697118Y-29298343D01*
X45700693Y-29306384D01*
G37*
G36*
X45511821Y-31605410D02*
G01*
X45513349Y-31608348D01*
X45505308Y-31611923D01*
X45500136Y-31611218D01*
X45498795Y-31605410D01*
X45500227Y-31604241D01*
X45511821Y-31605410D01*
G37*
G36*
X45482513Y-28342487D02*
G01*
X45484042Y-28345425D01*
X45476000Y-28349000D01*
X45470829Y-28348295D01*
X45469488Y-28342487D01*
X45470919Y-28341318D01*
X45482513Y-28342487D01*
G37*
G36*
X45456462Y-28612769D02*
G01*
X45455757Y-28617941D01*
X45449949Y-28619282D01*
X45448780Y-28617850D01*
X45449949Y-28606256D01*
X45452888Y-28604728D01*
X45456462Y-28612769D01*
G37*
G36*
X44974513Y-31175564D02*
G01*
X44976042Y-31178502D01*
X44968000Y-31182077D01*
X44962829Y-31181371D01*
X44961488Y-31175564D01*
X44962919Y-31174394D01*
X44974513Y-31175564D01*
G37*
G36*
X44896359Y-28821179D02*
G01*
X44897888Y-28824117D01*
X44889847Y-28827692D01*
X44884675Y-28826987D01*
X44883334Y-28821179D01*
X44884766Y-28820010D01*
X44896359Y-28821179D01*
G37*
G36*
X44867052Y-28850487D02*
G01*
X44868580Y-28853425D01*
X44860539Y-28857000D01*
X44855367Y-28856295D01*
X44854026Y-28850487D01*
X44855458Y-28849318D01*
X44867052Y-28850487D01*
G37*
G36*
X44847513Y-28957948D02*
G01*
X44849042Y-28960887D01*
X44841000Y-28964461D01*
X44835829Y-28963756D01*
X44834488Y-28957948D01*
X44835919Y-28956779D01*
X44847513Y-28957948D01*
G37*
G36*
X44788898Y-29251025D02*
G01*
X44790426Y-29253964D01*
X44782385Y-29257538D01*
X44777213Y-29256833D01*
X44775872Y-29251025D01*
X44777304Y-29249856D01*
X44788898Y-29251025D01*
G37*
G36*
X44788898Y-29094718D02*
G01*
X44790426Y-29097656D01*
X44782385Y-29101230D01*
X44777213Y-29100525D01*
X44775872Y-29094718D01*
X44777304Y-29093548D01*
X44788898Y-29094718D01*
G37*
G36*
X48587402Y-31494533D02*
G01*
X48588370Y-31499655D01*
X48578308Y-31504461D01*
X48573375Y-31504270D01*
X48563509Y-31499655D01*
X48572172Y-31490224D01*
X48575694Y-31488897D01*
X48587402Y-31494533D01*
G37*
G36*
X48450633Y-31680148D02*
G01*
X48451600Y-31685270D01*
X48441539Y-31690077D01*
X48436606Y-31689885D01*
X48426740Y-31685271D01*
X48435402Y-31675840D01*
X48438925Y-31674512D01*
X48450633Y-31680148D01*
G37*
G36*
X49034336Y-28652130D02*
G01*
X49041770Y-28661615D01*
X49041486Y-28663950D01*
X49032000Y-28671384D01*
X49029665Y-28671100D01*
X49022231Y-28661615D01*
X49022515Y-28659280D01*
X49032000Y-28651846D01*
X49034336Y-28652130D01*
G37*
G36*
X48975644Y-28603375D02*
G01*
X48983154Y-28612769D01*
X48983042Y-28614980D01*
X48978846Y-28622538D01*
X48977279Y-28622088D01*
X48968500Y-28612769D01*
X48966974Y-28608985D01*
X48972808Y-28603000D01*
X48975644Y-28603375D01*
G37*
G36*
X48790105Y-28466514D02*
G01*
X48797539Y-28476000D01*
X48797255Y-28478335D01*
X48787770Y-28485769D01*
X48785435Y-28485485D01*
X48778000Y-28476000D01*
X48778284Y-28473664D01*
X48787770Y-28466230D01*
X48790105Y-28466514D01*
G37*
G36*
X48711951Y-28417668D02*
G01*
X48719385Y-28427153D01*
X48719101Y-28429489D01*
X48709616Y-28436923D01*
X48707281Y-28436639D01*
X48699847Y-28427153D01*
X48700130Y-28424818D01*
X48709616Y-28417384D01*
X48711951Y-28417668D01*
G37*
G36*
X48520106Y-31456065D02*
G01*
X48528885Y-31465384D01*
X48530412Y-31469168D01*
X48524577Y-31475153D01*
X48521741Y-31474778D01*
X48514231Y-31465384D01*
X48514343Y-31463173D01*
X48518539Y-31455615D01*
X48520106Y-31456065D01*
G37*
G36*
X48412645Y-31270449D02*
G01*
X48421423Y-31279769D01*
X48422950Y-31283553D01*
X48417115Y-31289538D01*
X48414280Y-31289163D01*
X48406770Y-31279769D01*
X48406882Y-31277558D01*
X48411078Y-31270000D01*
X48412645Y-31270449D01*
G37*
G36*
X48389566Y-31192130D02*
G01*
X48397000Y-31201615D01*
X48396717Y-31203950D01*
X48387231Y-31211384D01*
X48384896Y-31211100D01*
X48377462Y-31201615D01*
X48377746Y-31199280D01*
X48387231Y-31191846D01*
X48389566Y-31192130D01*
G37*
G36*
X48311412Y-28251591D02*
G01*
X48318847Y-28261077D01*
X48318563Y-28263412D01*
X48309077Y-28270846D01*
X48306742Y-28270562D01*
X48299308Y-28261077D01*
X48299592Y-28258741D01*
X48309077Y-28251307D01*
X48311412Y-28251591D01*
G37*
G36*
X48227029Y-31377911D02*
G01*
X48235808Y-31387230D01*
X48237335Y-31391015D01*
X48231500Y-31397000D01*
X48228664Y-31396624D01*
X48221154Y-31387230D01*
X48221266Y-31385019D01*
X48225462Y-31377461D01*
X48227029Y-31377911D01*
G37*
G36*
X48174567Y-31299683D02*
G01*
X48182077Y-31309077D01*
X48181965Y-31311287D01*
X48177769Y-31318846D01*
X48176202Y-31318396D01*
X48167423Y-31309077D01*
X48165897Y-31305292D01*
X48171732Y-31299307D01*
X48174567Y-31299683D01*
G37*
G36*
X48049418Y-31808074D02*
G01*
X48050193Y-31817077D01*
X48048188Y-31820000D01*
X48039847Y-31826846D01*
X48038872Y-31826592D01*
X48035539Y-31817077D01*
X48035936Y-31814399D01*
X48045885Y-31807307D01*
X48049418Y-31808074D01*
G37*
G36*
X48041414Y-28652295D02*
G01*
X48050193Y-28661615D01*
X48051719Y-28665399D01*
X48045885Y-28671384D01*
X48043049Y-28671009D01*
X48035539Y-28661615D01*
X48035651Y-28659404D01*
X48039847Y-28651846D01*
X48041414Y-28652295D01*
G37*
G36*
X47881566Y-28036668D02*
G01*
X47889000Y-28046153D01*
X47888717Y-28048489D01*
X47879231Y-28055923D01*
X47876896Y-28055639D01*
X47869462Y-28046153D01*
X47869746Y-28043818D01*
X47879231Y-28036384D01*
X47881566Y-28036668D01*
G37*
G36*
X46230566Y-32022514D02*
G01*
X46238000Y-32032000D01*
X46237717Y-32034335D01*
X46228231Y-32041769D01*
X46225896Y-32041485D01*
X46218462Y-32032000D01*
X46218746Y-32029664D01*
X46228231Y-32022230D01*
X46230566Y-32022514D01*
G37*
G36*
X46201259Y-28065976D02*
G01*
X46208693Y-28075461D01*
X46208409Y-28077796D01*
X46198923Y-28085230D01*
X46196588Y-28084946D01*
X46189154Y-28075461D01*
X46189438Y-28073126D01*
X46198923Y-28065692D01*
X46201259Y-28065976D01*
G37*
G36*
X46154187Y-27988305D02*
G01*
X46154962Y-27997307D01*
X46152957Y-28000231D01*
X46144616Y-28007077D01*
X46143641Y-28006823D01*
X46140308Y-27997307D01*
X46140706Y-27994630D01*
X46150654Y-27987538D01*
X46154187Y-27988305D01*
G37*
G36*
X45800720Y-31807591D02*
G01*
X45808154Y-31817077D01*
X45807870Y-31819412D01*
X45798385Y-31826846D01*
X45796050Y-31826562D01*
X45788616Y-31817077D01*
X45788900Y-31814741D01*
X45798385Y-31807307D01*
X45800720Y-31807591D01*
G37*
G36*
X45771412Y-28280899D02*
G01*
X45778847Y-28290384D01*
X45778563Y-28292719D01*
X45769077Y-28300153D01*
X45766742Y-28299870D01*
X45759308Y-28290384D01*
X45759592Y-28288049D01*
X45769077Y-28280615D01*
X45771412Y-28280899D01*
G37*
G36*
X45724341Y-28203228D02*
G01*
X45725116Y-28212230D01*
X45723111Y-28215154D01*
X45714770Y-28222000D01*
X45713795Y-28221746D01*
X45710462Y-28212230D01*
X45710860Y-28209553D01*
X45720808Y-28202461D01*
X45724341Y-28203228D01*
G37*
G36*
X45693183Y-31221529D02*
G01*
X45700693Y-31230923D01*
X45700581Y-31233134D01*
X45696385Y-31240692D01*
X45694818Y-31240242D01*
X45686039Y-31230923D01*
X45684512Y-31227138D01*
X45690347Y-31221153D01*
X45693183Y-31221529D01*
G37*
G36*
X45695418Y-28839114D02*
G01*
X45700693Y-28852115D01*
X45699591Y-28858856D01*
X45690923Y-28866769D01*
X45686429Y-28865116D01*
X45681154Y-28852115D01*
X45682256Y-28845374D01*
X45690923Y-28837461D01*
X45695418Y-28839114D01*
G37*
G36*
X45663875Y-28740144D02*
G01*
X45671385Y-28749538D01*
X45671273Y-28751749D01*
X45667077Y-28759307D01*
X45665510Y-28758858D01*
X45656731Y-28749538D01*
X45655205Y-28745754D01*
X45661039Y-28739769D01*
X45663875Y-28740144D01*
G37*
G36*
X45608876Y-28759757D02*
G01*
X45617654Y-28769077D01*
X45619181Y-28772861D01*
X45613346Y-28778846D01*
X45610511Y-28778470D01*
X45603000Y-28769077D01*
X45603112Y-28766866D01*
X45607308Y-28759307D01*
X45608876Y-28759757D01*
G37*
G36*
X45608876Y-28652295D02*
G01*
X45617654Y-28661615D01*
X45619181Y-28665399D01*
X45613346Y-28671384D01*
X45610511Y-28671009D01*
X45603000Y-28661615D01*
X45603112Y-28659404D01*
X45607308Y-28651846D01*
X45608876Y-28652295D01*
G37*
G36*
X45585797Y-28495822D02*
G01*
X45593231Y-28505307D01*
X45592947Y-28507642D01*
X45583462Y-28515077D01*
X45581127Y-28514793D01*
X45573693Y-28505307D01*
X45573977Y-28502972D01*
X45583462Y-28495538D01*
X45585797Y-28495822D01*
G37*
G36*
X45530722Y-28466680D02*
G01*
X45539500Y-28476000D01*
X45541027Y-28479784D01*
X45535192Y-28485769D01*
X45532357Y-28485393D01*
X45524847Y-28476000D01*
X45524959Y-28473789D01*
X45529155Y-28466230D01*
X45530722Y-28466680D01*
G37*
G36*
X45478260Y-28740144D02*
G01*
X45485770Y-28749538D01*
X45485658Y-28751749D01*
X45481462Y-28759307D01*
X45479895Y-28758858D01*
X45471116Y-28749538D01*
X45469589Y-28745754D01*
X45475424Y-28739769D01*
X45478260Y-28740144D01*
G37*
G36*
X45216341Y-31407536D02*
G01*
X45217116Y-31416538D01*
X45215111Y-31419462D01*
X45206770Y-31426307D01*
X45205795Y-31426053D01*
X45202462Y-31416538D01*
X45202860Y-31413860D01*
X45212808Y-31406769D01*
X45216341Y-31407536D01*
G37*
G36*
X45185259Y-31455899D02*
G01*
X45192693Y-31465384D01*
X45192409Y-31467719D01*
X45182923Y-31475153D01*
X45180588Y-31474870D01*
X45173154Y-31465384D01*
X45173438Y-31463049D01*
X45182923Y-31455615D01*
X45185259Y-31455899D01*
G37*
G36*
X45136412Y-31485207D02*
G01*
X45143847Y-31494692D01*
X45143563Y-31497027D01*
X45134077Y-31504461D01*
X45131742Y-31504177D01*
X45124308Y-31494692D01*
X45124592Y-31492357D01*
X45134077Y-31484923D01*
X45136412Y-31485207D01*
G37*
G36*
X44940952Y-31221529D02*
G01*
X44948462Y-31230923D01*
X44948350Y-31233134D01*
X44944154Y-31240692D01*
X44942587Y-31240242D01*
X44933808Y-31230923D01*
X44932282Y-31227138D01*
X44938116Y-31221153D01*
X44940952Y-31221529D01*
G37*
G36*
X49218450Y-29884246D02*
G01*
X49232270Y-29892538D01*
X49232529Y-29893003D01*
X49227705Y-29899706D01*
X49207847Y-29902307D01*
X49206402Y-29902298D01*
X49187280Y-29899422D01*
X49183423Y-29892538D01*
X49189386Y-29887389D01*
X49207847Y-29882769D01*
X49218450Y-29884246D01*
G37*
G36*
X47211373Y-31729215D02*
G01*
X47221515Y-31738057D01*
X47224693Y-31763346D01*
X47223703Y-31779224D01*
X47218146Y-31795145D01*
X47209909Y-31794372D01*
X47201542Y-31775557D01*
X47196343Y-31750696D01*
X47198360Y-31734017D01*
X47210039Y-31729153D01*
X47211373Y-31729215D01*
G37*
G36*
X46900852Y-32107853D02*
G01*
X46905628Y-32128639D01*
X46903989Y-32156557D01*
X46898549Y-32174125D01*
X46891342Y-32177675D01*
X46885302Y-32165493D01*
X46882770Y-32139461D01*
X46883000Y-32130707D01*
X46886153Y-32109053D01*
X46891823Y-32100384D01*
X46900852Y-32107853D01*
G37*
G36*
X48431825Y-30302852D02*
G01*
X48459495Y-30305978D01*
X48476900Y-30313477D01*
X48479406Y-30323408D01*
X48475160Y-30327379D01*
X48457267Y-30332298D01*
X48434558Y-30331856D01*
X48415053Y-30326706D01*
X48406770Y-30317500D01*
X48411351Y-30308086D01*
X48430394Y-30302846D01*
X48431825Y-30302852D01*
G37*
G36*
X47778099Y-30521856D02*
G01*
X47784473Y-30526044D01*
X47786135Y-30537774D01*
X47779516Y-30542165D01*
X47760142Y-30545206D01*
X47736567Y-30544235D01*
X47716655Y-30539794D01*
X47708270Y-30532423D01*
X47714786Y-30525503D01*
X47733759Y-30520067D01*
X47757486Y-30518454D01*
X47778099Y-30521856D01*
G37*
G36*
X47543794Y-30636524D02*
G01*
X47547077Y-30663493D01*
X47546638Y-30678226D01*
X47542196Y-30697704D01*
X47531834Y-30703384D01*
X47526368Y-30702480D01*
X47519656Y-30692317D01*
X47519622Y-30667505D01*
X47520603Y-30658727D01*
X47527300Y-30634617D01*
X47536116Y-30627058D01*
X47543794Y-30636524D01*
G37*
G36*
X47062619Y-32267057D02*
G01*
X47066878Y-32285741D01*
X47064368Y-32310444D01*
X47057922Y-32326557D01*
X47048660Y-32334846D01*
X47044767Y-32332379D01*
X47040242Y-32317222D01*
X47039443Y-32295053D01*
X47042344Y-32273836D01*
X47048916Y-32261534D01*
X47053364Y-32260003D01*
X47062619Y-32267057D01*
G37*
G36*
X44974329Y-29857548D02*
G01*
X44980704Y-29861736D01*
X44982366Y-29873466D01*
X44975747Y-29877857D01*
X44956373Y-29880898D01*
X44932798Y-29879928D01*
X44912886Y-29875486D01*
X44904500Y-29868115D01*
X44911017Y-29861195D01*
X44929990Y-29855759D01*
X44953717Y-29854146D01*
X44974329Y-29857548D01*
G37*
G36*
X49332903Y-29912736D02*
G01*
X49355368Y-29916273D01*
X49364154Y-29921846D01*
X49360858Y-29925365D01*
X49343172Y-29929858D01*
X49315308Y-29931615D01*
X49297713Y-29930956D01*
X49275248Y-29927419D01*
X49266462Y-29921846D01*
X49269758Y-29918327D01*
X49287444Y-29913834D01*
X49315308Y-29912077D01*
X49332903Y-29912736D01*
G37*
G36*
X49255177Y-30068832D02*
G01*
X49277269Y-30072327D01*
X49286000Y-30078153D01*
X49283983Y-30081073D01*
X49268257Y-30085982D01*
X49242039Y-30087923D01*
X49228901Y-30087474D01*
X49206809Y-30083980D01*
X49198077Y-30078153D01*
X49200095Y-30075234D01*
X49215821Y-30070325D01*
X49242039Y-30068384D01*
X49255177Y-30068832D01*
G37*
G36*
X49148221Y-30097941D02*
G01*
X49169872Y-30101344D01*
X49178539Y-30107461D01*
X49177542Y-30109651D01*
X49163932Y-30115064D01*
X49139462Y-30117230D01*
X49130703Y-30116981D01*
X49109052Y-30113579D01*
X49100385Y-30107461D01*
X49101381Y-30105271D01*
X49114992Y-30099859D01*
X49139462Y-30097692D01*
X49148221Y-30097941D01*
G37*
G36*
X48982144Y-30146787D02*
G01*
X49003795Y-30150190D01*
X49012462Y-30156307D01*
X49011466Y-30158497D01*
X48997855Y-30163910D01*
X48973385Y-30166077D01*
X48964626Y-30165827D01*
X48942975Y-30162425D01*
X48934308Y-30156307D01*
X48935305Y-30154117D01*
X48948915Y-30148705D01*
X48973385Y-30146538D01*
X48982144Y-30146787D01*
G37*
G36*
X48669928Y-29726644D02*
G01*
X48690565Y-29729817D01*
X48694962Y-29736230D01*
X48694299Y-29737092D01*
X48679642Y-29743411D01*
X48655308Y-29746000D01*
X48651317Y-29745931D01*
X48630270Y-29742731D01*
X48621693Y-29736230D01*
X48622794Y-29733946D01*
X48636664Y-29728598D01*
X48661346Y-29726461D01*
X48669928Y-29726644D01*
G37*
G36*
X48581606Y-29697403D02*
G01*
X48603257Y-29700805D01*
X48611923Y-29706923D01*
X48610927Y-29709113D01*
X48597317Y-29714525D01*
X48572847Y-29716692D01*
X48564087Y-29716443D01*
X48542436Y-29713040D01*
X48533770Y-29706923D01*
X48534766Y-29704733D01*
X48548377Y-29699320D01*
X48572847Y-29697153D01*
X48581606Y-29697403D01*
G37*
G36*
X48532760Y-30283556D02*
G01*
X48554411Y-30286959D01*
X48563077Y-30293077D01*
X48562081Y-30295266D01*
X48548470Y-30300679D01*
X48524000Y-30302846D01*
X48515241Y-30302597D01*
X48493590Y-30299194D01*
X48484923Y-30293077D01*
X48485920Y-30290887D01*
X48499530Y-30285474D01*
X48524000Y-30283307D01*
X48532760Y-30283556D01*
G37*
G36*
X48392482Y-30336407D02*
G01*
X48397000Y-30346807D01*
X48395774Y-30353437D01*
X48385296Y-30359719D01*
X48360366Y-30359609D01*
X48353796Y-30358906D01*
X48332373Y-30353807D01*
X48323731Y-30346807D01*
X48324325Y-30345006D01*
X48336800Y-30338261D01*
X48360366Y-30334006D01*
X48375939Y-30333247D01*
X48392482Y-30336407D01*
G37*
G36*
X48287228Y-30362332D02*
G01*
X48310014Y-30365880D01*
X48318847Y-30371230D01*
X48314057Y-30375251D01*
X48294541Y-30379394D01*
X48265116Y-30381000D01*
X48243003Y-30380129D01*
X48220218Y-30376580D01*
X48211385Y-30371230D01*
X48216175Y-30367210D01*
X48235691Y-30363067D01*
X48265116Y-30361461D01*
X48287228Y-30362332D01*
G37*
G36*
X48238382Y-29590563D02*
G01*
X48261168Y-29594111D01*
X48270000Y-29599461D01*
X48265211Y-29603482D01*
X48245694Y-29607624D01*
X48216270Y-29609230D01*
X48194157Y-29608360D01*
X48171372Y-29604811D01*
X48162539Y-29599461D01*
X48167329Y-29595441D01*
X48186845Y-29591298D01*
X48216270Y-29589692D01*
X48238382Y-29590563D01*
G37*
G36*
X48149962Y-29562552D02*
G01*
X48162340Y-29570163D01*
X48156026Y-29583179D01*
X48155585Y-29583564D01*
X48141088Y-29587905D01*
X48116949Y-29589692D01*
X48116708Y-29589692D01*
X48092197Y-29586125D01*
X48084385Y-29575038D01*
X48085094Y-29570825D01*
X48096291Y-29562804D01*
X48123462Y-29560384D01*
X48149962Y-29562552D01*
G37*
G36*
X47965211Y-29512197D02*
G01*
X47987676Y-29515734D01*
X47996462Y-29521307D01*
X47993166Y-29524826D01*
X47975480Y-29529319D01*
X47947616Y-29531077D01*
X47930021Y-29530417D01*
X47907556Y-29526880D01*
X47898770Y-29521307D01*
X47902066Y-29517788D01*
X47919752Y-29513295D01*
X47947616Y-29511538D01*
X47965211Y-29512197D01*
G37*
G36*
X47857749Y-30498890D02*
G01*
X47880214Y-30502427D01*
X47889000Y-30508000D01*
X47885704Y-30511519D01*
X47868018Y-30516012D01*
X47840154Y-30517769D01*
X47822559Y-30517110D01*
X47800094Y-30513572D01*
X47791308Y-30508000D01*
X47794604Y-30504481D01*
X47812290Y-30499988D01*
X47840154Y-30498230D01*
X47857749Y-30498890D01*
G37*
G36*
X47662374Y-30547166D02*
G01*
X47691938Y-30550114D01*
X47703248Y-30557506D01*
X47697024Y-30569720D01*
X47688970Y-30572925D01*
X47667338Y-30573761D01*
X47641255Y-30570854D01*
X47618714Y-30565253D01*
X47607708Y-30558007D01*
X47608054Y-30554728D01*
X47621967Y-30549029D01*
X47653725Y-30547077D01*
X47662374Y-30547166D01*
G37*
G36*
X47511297Y-30713152D02*
G01*
X47515945Y-30733441D01*
X47517770Y-30762576D01*
X47517135Y-30779642D01*
X47513601Y-30802066D01*
X47508000Y-30810846D01*
X47503926Y-30805867D01*
X47499821Y-30786142D01*
X47498231Y-30756538D01*
X47498820Y-30735519D01*
X47502143Y-30713300D01*
X47508000Y-30708269D01*
X47511297Y-30713152D01*
G37*
G36*
X47480883Y-30811842D02*
G01*
X47486295Y-30825453D01*
X47488462Y-30849923D01*
X47488213Y-30858682D01*
X47484810Y-30880333D01*
X47478693Y-30889000D01*
X47476503Y-30888003D01*
X47471090Y-30874393D01*
X47468923Y-30849923D01*
X47469173Y-30841163D01*
X47472575Y-30819513D01*
X47478693Y-30810846D01*
X47480883Y-30811842D01*
G37*
G36*
X47480883Y-29111996D02*
G01*
X47486295Y-29125606D01*
X47488462Y-29150077D01*
X47488213Y-29158836D01*
X47484810Y-29180487D01*
X47478693Y-29189153D01*
X47476503Y-29188157D01*
X47471090Y-29174547D01*
X47468923Y-29150077D01*
X47469173Y-29141317D01*
X47472575Y-29119666D01*
X47478693Y-29111000D01*
X47480883Y-29111996D01*
G37*
G36*
X47461923Y-29006664D02*
G01*
X47467355Y-29021667D01*
X47468923Y-29052384D01*
X47467986Y-29077896D01*
X47463485Y-29096001D01*
X47454270Y-29101230D01*
X47446616Y-29098105D01*
X47441185Y-29083102D01*
X47439616Y-29052384D01*
X47440554Y-29026872D01*
X47445054Y-29008767D01*
X47454270Y-29003538D01*
X47461923Y-29006664D01*
G37*
G36*
X47426763Y-28921094D02*
G01*
X47433508Y-28933568D01*
X47437763Y-28957134D01*
X47438522Y-28972708D01*
X47435363Y-28989250D01*
X47424962Y-28993769D01*
X47418333Y-28992542D01*
X47412050Y-28982064D01*
X47412161Y-28957134D01*
X47412863Y-28950564D01*
X47417962Y-28929141D01*
X47424962Y-28920500D01*
X47426763Y-28921094D01*
G37*
G36*
X47402729Y-31085381D02*
G01*
X47408141Y-31098991D01*
X47410308Y-31123461D01*
X47410059Y-31132221D01*
X47406656Y-31153871D01*
X47400539Y-31162538D01*
X47398349Y-31161542D01*
X47392936Y-31147931D01*
X47390770Y-31123461D01*
X47391019Y-31114702D01*
X47394421Y-31093051D01*
X47400539Y-31084384D01*
X47402729Y-31085381D01*
G37*
G36*
X47402729Y-28838458D02*
G01*
X47408141Y-28852068D01*
X47410308Y-28876538D01*
X47410059Y-28885297D01*
X47406656Y-28906948D01*
X47400539Y-28915615D01*
X47398349Y-28914619D01*
X47392936Y-28901008D01*
X47390770Y-28876538D01*
X47391019Y-28867779D01*
X47394421Y-28846128D01*
X47400539Y-28837461D01*
X47402729Y-28838458D01*
G37*
G36*
X47297098Y-28471020D02*
G01*
X47301241Y-28490536D01*
X47302847Y-28519961D01*
X47301976Y-28542074D01*
X47298427Y-28564859D01*
X47293077Y-28573692D01*
X47289057Y-28568902D01*
X47284914Y-28549386D01*
X47283308Y-28519961D01*
X47284179Y-28497849D01*
X47287727Y-28475063D01*
X47293077Y-28466230D01*
X47297098Y-28471020D01*
G37*
G36*
X47295267Y-31427304D02*
G01*
X47300680Y-31440914D01*
X47302847Y-31465384D01*
X47302597Y-31474144D01*
X47299195Y-31495794D01*
X47293077Y-31504461D01*
X47290887Y-31503465D01*
X47285475Y-31489854D01*
X47283308Y-31465384D01*
X47283557Y-31456625D01*
X47286960Y-31434974D01*
X47293077Y-31426307D01*
X47295267Y-31427304D01*
G37*
G36*
X47267289Y-31517527D02*
G01*
X47271782Y-31535213D01*
X47273539Y-31563077D01*
X47272880Y-31580672D01*
X47269342Y-31603136D01*
X47263770Y-31611923D01*
X47260251Y-31608626D01*
X47255758Y-31590940D01*
X47254000Y-31563077D01*
X47254660Y-31545481D01*
X47258197Y-31523017D01*
X47263770Y-31514230D01*
X47267289Y-31517527D01*
G37*
G36*
X47265960Y-28389073D02*
G01*
X47271372Y-28402683D01*
X47273539Y-28427153D01*
X47273290Y-28435913D01*
X47269887Y-28457564D01*
X47263770Y-28466230D01*
X47261580Y-28465234D01*
X47256167Y-28451623D01*
X47254000Y-28427153D01*
X47254250Y-28418394D01*
X47257652Y-28396743D01*
X47263770Y-28388077D01*
X47265960Y-28389073D01*
G37*
G36*
X47247000Y-31624818D02*
G01*
X47252432Y-31639821D01*
X47254000Y-31670538D01*
X47253063Y-31696050D01*
X47248562Y-31714155D01*
X47239347Y-31719384D01*
X47231693Y-31716259D01*
X47226261Y-31701256D01*
X47224693Y-31670538D01*
X47225630Y-31645026D01*
X47230131Y-31626921D01*
X47239347Y-31621692D01*
X47247000Y-31624818D01*
G37*
G36*
X47247000Y-28283741D02*
G01*
X47252432Y-28298744D01*
X47254000Y-28329461D01*
X47253063Y-28354973D01*
X47248562Y-28373078D01*
X47239347Y-28378307D01*
X47231693Y-28375182D01*
X47226261Y-28360179D01*
X47224693Y-28329461D01*
X47225630Y-28303949D01*
X47230131Y-28285844D01*
X47239347Y-28280615D01*
X47247000Y-28283741D01*
G37*
G36*
X47189135Y-31810604D02*
G01*
X47193628Y-31828289D01*
X47195385Y-31856153D01*
X47194726Y-31873749D01*
X47191189Y-31896213D01*
X47185616Y-31905000D01*
X47182097Y-31901703D01*
X47177604Y-31884017D01*
X47175847Y-31856153D01*
X47176506Y-31838558D01*
X47180043Y-31816093D01*
X47185616Y-31807307D01*
X47189135Y-31810604D01*
G37*
G36*
X47187900Y-28096101D02*
G01*
X47193248Y-28109971D01*
X47195385Y-28134653D01*
X47195202Y-28143234D01*
X47192030Y-28163872D01*
X47185616Y-28168269D01*
X47184754Y-28167606D01*
X47178435Y-28152949D01*
X47175847Y-28128615D01*
X47175916Y-28124624D01*
X47179115Y-28103577D01*
X47185616Y-28095000D01*
X47187900Y-28096101D01*
G37*
G36*
X47111482Y-32075866D02*
G01*
X47115625Y-32095382D01*
X47117231Y-32124807D01*
X47116360Y-32146920D01*
X47112812Y-32169705D01*
X47107462Y-32178538D01*
X47103441Y-32173748D01*
X47099299Y-32154232D01*
X47097693Y-32124807D01*
X47098564Y-32102695D01*
X47102112Y-32079909D01*
X47107462Y-32071077D01*
X47111482Y-32075866D01*
G37*
G36*
X47080344Y-32179534D02*
G01*
X47085757Y-32193145D01*
X47087923Y-32217615D01*
X47087674Y-32226374D01*
X47084272Y-32248025D01*
X47078154Y-32256692D01*
X47075964Y-32255695D01*
X47070552Y-32242085D01*
X47068385Y-32217615D01*
X47068634Y-32208856D01*
X47072037Y-32187205D01*
X47078154Y-32178538D01*
X47080344Y-32179534D01*
G37*
G36*
X47080344Y-27744304D02*
G01*
X47085757Y-27757914D01*
X47087923Y-27782384D01*
X47087674Y-27791144D01*
X47084272Y-27812794D01*
X47078154Y-27821461D01*
X47075964Y-27820465D01*
X47070552Y-27806854D01*
X47068385Y-27782384D01*
X47068634Y-27773625D01*
X47072037Y-27751974D01*
X47078154Y-27743307D01*
X47080344Y-27744304D01*
G37*
G36*
X46950454Y-32267480D02*
G01*
X46955745Y-32285418D01*
X46959026Y-32313861D01*
X46959683Y-32343910D01*
X46956672Y-32359546D01*
X46949257Y-32361893D01*
X46947771Y-32361106D01*
X46940912Y-32347455D01*
X46937109Y-32323582D01*
X46936584Y-32296825D01*
X46939563Y-32274524D01*
X46946270Y-32264019D01*
X46950454Y-32267480D01*
G37*
G36*
X46924036Y-32179534D02*
G01*
X46929449Y-32193145D01*
X46931616Y-32217615D01*
X46931367Y-32226374D01*
X46927964Y-32248025D01*
X46921847Y-32256692D01*
X46919657Y-32255695D01*
X46914244Y-32242085D01*
X46912077Y-32217615D01*
X46912326Y-32208856D01*
X46915729Y-32187205D01*
X46921847Y-32178538D01*
X46924036Y-32179534D01*
G37*
G36*
X46924036Y-27744304D02*
G01*
X46929449Y-27757914D01*
X46931616Y-27782384D01*
X46931367Y-27791144D01*
X46927964Y-27812794D01*
X46921847Y-27821461D01*
X46919657Y-27820465D01*
X46914244Y-27806854D01*
X46912077Y-27782384D01*
X46912326Y-27773625D01*
X46915729Y-27751974D01*
X46921847Y-27743307D01*
X46924036Y-27744304D01*
G37*
G36*
X46896559Y-27826251D02*
G01*
X46900702Y-27845767D01*
X46902308Y-27875192D01*
X46901437Y-27897304D01*
X46897889Y-27920090D01*
X46892539Y-27928923D01*
X46888518Y-27924133D01*
X46884376Y-27904617D01*
X46882770Y-27875192D01*
X46883640Y-27853079D01*
X46887189Y-27830294D01*
X46892539Y-27821461D01*
X46896559Y-27826251D01*
G37*
G36*
X46817904Y-28098296D02*
G01*
X46822397Y-28115982D01*
X46824154Y-28143846D01*
X46823495Y-28161441D01*
X46819958Y-28183906D01*
X46814385Y-28192692D01*
X46810866Y-28189396D01*
X46806373Y-28171710D01*
X46804616Y-28143846D01*
X46805275Y-28126251D01*
X46808812Y-28103786D01*
X46814385Y-28095000D01*
X46817904Y-28098296D01*
G37*
G36*
X46815247Y-31832394D02*
G01*
X46821566Y-31847050D01*
X46824154Y-31871384D01*
X46824085Y-31875376D01*
X46820886Y-31896422D01*
X46814385Y-31905000D01*
X46812101Y-31903898D01*
X46806753Y-31890028D01*
X46804616Y-31865346D01*
X46804799Y-31856765D01*
X46807971Y-31836127D01*
X46814385Y-31831730D01*
X46815247Y-31832394D01*
G37*
G36*
X46797531Y-31732526D02*
G01*
X46802540Y-31751597D01*
X46803754Y-31777441D01*
X46800308Y-31803603D01*
X46794159Y-31818579D01*
X46784381Y-31826846D01*
X46781223Y-31824500D01*
X46777591Y-31808894D01*
X46777031Y-31784444D01*
X46779161Y-31758006D01*
X46783598Y-31736434D01*
X46789962Y-31726583D01*
X46797531Y-31732526D01*
G37*
G36*
X46791297Y-28202523D02*
G01*
X46801438Y-28211364D01*
X46804616Y-28236653D01*
X46804589Y-28239768D01*
X46800800Y-28263431D01*
X46789962Y-28270846D01*
X46788627Y-28270784D01*
X46778486Y-28261943D01*
X46775308Y-28236653D01*
X46775335Y-28233539D01*
X46779124Y-28209876D01*
X46789962Y-28202461D01*
X46791297Y-28202523D01*
G37*
G36*
X46768308Y-31624818D02*
G01*
X46773739Y-31639821D01*
X46775308Y-31670538D01*
X46774370Y-31696050D01*
X46769870Y-31714155D01*
X46760654Y-31719384D01*
X46753001Y-31716259D01*
X46747569Y-31701256D01*
X46746000Y-31670538D01*
X46746938Y-31645026D01*
X46751439Y-31626921D01*
X46760654Y-31621692D01*
X46768308Y-31624818D01*
G37*
G36*
X46768308Y-28283741D02*
G01*
X46773739Y-28298744D01*
X46775308Y-28329461D01*
X46774370Y-28354973D01*
X46769870Y-28373078D01*
X46760654Y-28378307D01*
X46753001Y-28375182D01*
X46747569Y-28360179D01*
X46746000Y-28329461D01*
X46746938Y-28303949D01*
X46751439Y-28285844D01*
X46760654Y-28280615D01*
X46768308Y-28283741D01*
G37*
G36*
X46739750Y-28391373D02*
G01*
X46744243Y-28409059D01*
X46746000Y-28436923D01*
X46745341Y-28454518D01*
X46741804Y-28476983D01*
X46736231Y-28485769D01*
X46732712Y-28482472D01*
X46728219Y-28464787D01*
X46726462Y-28436923D01*
X46727121Y-28419328D01*
X46730658Y-28396863D01*
X46736231Y-28388077D01*
X46739750Y-28391373D01*
G37*
G36*
X46738421Y-31534765D02*
G01*
X46743834Y-31548376D01*
X46746000Y-31572846D01*
X46745751Y-31581605D01*
X46742349Y-31603256D01*
X46736231Y-31611923D01*
X46734041Y-31610926D01*
X46728629Y-31597316D01*
X46726462Y-31572846D01*
X46726711Y-31564086D01*
X46730114Y-31542436D01*
X46736231Y-31533769D01*
X46738421Y-31534765D01*
G37*
G36*
X46601652Y-31085381D02*
G01*
X46607064Y-31098991D01*
X46609231Y-31123461D01*
X46608982Y-31132221D01*
X46605579Y-31153871D01*
X46599462Y-31162538D01*
X46597272Y-31161542D01*
X46591859Y-31147931D01*
X46589693Y-31123461D01*
X46589942Y-31114702D01*
X46593344Y-31093051D01*
X46599462Y-31084384D01*
X46601652Y-31085381D01*
G37*
G36*
X46601652Y-28838458D02*
G01*
X46607064Y-28852068D01*
X46609231Y-28876538D01*
X46608982Y-28885297D01*
X46605579Y-28906948D01*
X46599462Y-28915615D01*
X46597272Y-28914619D01*
X46591859Y-28901008D01*
X46589693Y-28876538D01*
X46589942Y-28867779D01*
X46593344Y-28846128D01*
X46599462Y-28837461D01*
X46601652Y-28838458D01*
G37*
G36*
X46547532Y-29028555D02*
G01*
X46554278Y-29041030D01*
X46558532Y-29064596D01*
X46559291Y-29080169D01*
X46556132Y-29096712D01*
X46545731Y-29101230D01*
X46539102Y-29100004D01*
X46532819Y-29089526D01*
X46532930Y-29064596D01*
X46533632Y-29058026D01*
X46538732Y-29036602D01*
X46545731Y-29027961D01*
X46547532Y-29028555D01*
G37*
G36*
X46553385Y-30901894D02*
G01*
X46558816Y-30916897D01*
X46560385Y-30947615D01*
X46559447Y-30973127D01*
X46554946Y-30991232D01*
X46545731Y-30996461D01*
X46538078Y-30993335D01*
X46532646Y-30978332D01*
X46531077Y-30947615D01*
X46532015Y-30922103D01*
X46536516Y-30903998D01*
X46545731Y-30898769D01*
X46553385Y-30901894D01*
G37*
G36*
X46523498Y-30811842D02*
G01*
X46528911Y-30825453D01*
X46531077Y-30849923D01*
X46530828Y-30858682D01*
X46527426Y-30880333D01*
X46521308Y-30889000D01*
X46519118Y-30888003D01*
X46513706Y-30874393D01*
X46511539Y-30849923D01*
X46511788Y-30841163D01*
X46515191Y-30819513D01*
X46521308Y-30810846D01*
X46523498Y-30811842D01*
G37*
G36*
X46523498Y-29111996D02*
G01*
X46528911Y-29125606D01*
X46531077Y-29150077D01*
X46530828Y-29158836D01*
X46527426Y-29180487D01*
X46521308Y-29189153D01*
X46519118Y-29188157D01*
X46513706Y-29174547D01*
X46511539Y-29150077D01*
X46511788Y-29141317D01*
X46515191Y-29119666D01*
X46521308Y-29111000D01*
X46523498Y-29111996D01*
G37*
G36*
X46177442Y-29482890D02*
G01*
X46199907Y-29486427D01*
X46208693Y-29492000D01*
X46205396Y-29495519D01*
X46187711Y-29500012D01*
X46159847Y-29501769D01*
X46142251Y-29501110D01*
X46119787Y-29497572D01*
X46111000Y-29492000D01*
X46114297Y-29488481D01*
X46131983Y-29483988D01*
X46159847Y-29482230D01*
X46177442Y-29482890D01*
G37*
G36*
X46069980Y-30469582D02*
G01*
X46092445Y-30473119D01*
X46101231Y-30478692D01*
X46097935Y-30482211D01*
X46080249Y-30486704D01*
X46052385Y-30488461D01*
X46034790Y-30487802D01*
X46012325Y-30484265D01*
X46003539Y-30478692D01*
X46006835Y-30475173D01*
X46024521Y-30470680D01*
X46052385Y-30468923D01*
X46069980Y-30469582D01*
G37*
G36*
X45989251Y-30443868D02*
G01*
X45993770Y-30454269D01*
X45992543Y-30460898D01*
X45982065Y-30467181D01*
X45957135Y-30467070D01*
X45950565Y-30466368D01*
X45929142Y-30461268D01*
X45920500Y-30454269D01*
X45921095Y-30452468D01*
X45933569Y-30445722D01*
X45957135Y-30441468D01*
X45972709Y-30440709D01*
X45989251Y-30443868D01*
G37*
G36*
X45756998Y-29619870D02*
G01*
X45779783Y-29623419D01*
X45788616Y-29628769D01*
X45783826Y-29632789D01*
X45764310Y-29636932D01*
X45734885Y-29638538D01*
X45712772Y-29637667D01*
X45689987Y-29634119D01*
X45681154Y-29628769D01*
X45685944Y-29624748D01*
X45705460Y-29620606D01*
X45734885Y-29619000D01*
X45756998Y-29619870D01*
G37*
G36*
X45588713Y-29672099D02*
G01*
X45593231Y-29682500D01*
X45592005Y-29689129D01*
X45581527Y-29695411D01*
X45556597Y-29695301D01*
X45550026Y-29694599D01*
X45528603Y-29689499D01*
X45519962Y-29682500D01*
X45520556Y-29680698D01*
X45533030Y-29673953D01*
X45556597Y-29669698D01*
X45572170Y-29668939D01*
X45588713Y-29672099D01*
G37*
G36*
X45484760Y-29697403D02*
G01*
X45506411Y-29700805D01*
X45515077Y-29706923D01*
X45514081Y-29709113D01*
X45500470Y-29714525D01*
X45476000Y-29716692D01*
X45467241Y-29716443D01*
X45445590Y-29713040D01*
X45436923Y-29706923D01*
X45437920Y-29704733D01*
X45451530Y-29699320D01*
X45476000Y-29697153D01*
X45484760Y-29697403D01*
G37*
G36*
X45169359Y-30196322D02*
G01*
X45187464Y-30200823D01*
X45192693Y-30210038D01*
X45189567Y-30217692D01*
X45174564Y-30223123D01*
X45143847Y-30224692D01*
X45118334Y-30223754D01*
X45100230Y-30219253D01*
X45095000Y-30210038D01*
X45098126Y-30202384D01*
X45113129Y-30196953D01*
X45143847Y-30195384D01*
X45169359Y-30196322D01*
G37*
G36*
X45054914Y-30176095D02*
G01*
X45076564Y-30179497D01*
X45085231Y-30185615D01*
X45084235Y-30187805D01*
X45070624Y-30193217D01*
X45046154Y-30195384D01*
X45037395Y-30195135D01*
X45015744Y-30191732D01*
X45007077Y-30185615D01*
X45008074Y-30183425D01*
X45021684Y-30178012D01*
X45046154Y-30175846D01*
X45054914Y-30176095D01*
G37*
G36*
X45035375Y-29834172D02*
G01*
X45057026Y-29837574D01*
X45065693Y-29843692D01*
X45064696Y-29845882D01*
X45051086Y-29851294D01*
X45026616Y-29853461D01*
X45017856Y-29853212D01*
X44996206Y-29849809D01*
X44987539Y-29843692D01*
X44988535Y-29841502D01*
X45002146Y-29836089D01*
X45026616Y-29833923D01*
X45035375Y-29834172D01*
G37*
G36*
X44869298Y-29883018D02*
G01*
X44890949Y-29886421D01*
X44899616Y-29892538D01*
X44898619Y-29894728D01*
X44885009Y-29900141D01*
X44860539Y-29902307D01*
X44851779Y-29902058D01*
X44830129Y-29898656D01*
X44821462Y-29892538D01*
X44822458Y-29890348D01*
X44836069Y-29884936D01*
X44860539Y-29882769D01*
X44869298Y-29883018D01*
G37*
G36*
X44792519Y-30097693D02*
G01*
X44812973Y-30100602D01*
X44821462Y-30107461D01*
X44821460Y-30107583D01*
X44812732Y-30114401D01*
X44792154Y-30117230D01*
X44791790Y-30117230D01*
X44771336Y-30114320D01*
X44762847Y-30107461D01*
X44762849Y-30107340D01*
X44771576Y-30100522D01*
X44792154Y-30097692D01*
X44792519Y-30097693D01*
G37*
G36*
X44780442Y-29912736D02*
G01*
X44802907Y-29916273D01*
X44811693Y-29921846D01*
X44808396Y-29925365D01*
X44790711Y-29929858D01*
X44762847Y-29931615D01*
X44745251Y-29930956D01*
X44722787Y-29927419D01*
X44714000Y-29921846D01*
X44717297Y-29918327D01*
X44734983Y-29913834D01*
X44762847Y-29912077D01*
X44780442Y-29912736D01*
G37*
G36*
X44702288Y-30069043D02*
G01*
X44724753Y-30072581D01*
X44733539Y-30078153D01*
X44730243Y-30081672D01*
X44712557Y-30086165D01*
X44684693Y-30087923D01*
X44667098Y-30087263D01*
X44644633Y-30083726D01*
X44635847Y-30078153D01*
X44639143Y-30074634D01*
X44656829Y-30070141D01*
X44684693Y-30068384D01*
X44702288Y-30069043D01*
G37*
G36*
X44576635Y-29439453D02*
G01*
X44579541Y-29459781D01*
X44578840Y-29496864D01*
X44578611Y-29501022D01*
X44574669Y-29538470D01*
X44569260Y-29556782D01*
X44563731Y-29555956D01*
X44559427Y-29535990D01*
X44557693Y-29496884D01*
X44558605Y-29465205D01*
X44562551Y-29441063D01*
X44569904Y-29433364D01*
X44576635Y-29439453D01*
G37*
G36*
X49056780Y-30117233D02*
G01*
X49083413Y-30120556D01*
X49096717Y-30128870D01*
X49093607Y-30140291D01*
X49093170Y-30140669D01*
X49078843Y-30144827D01*
X49054795Y-30146538D01*
X49054554Y-30146538D01*
X49030044Y-30142971D01*
X49022231Y-30131884D01*
X49022260Y-30130966D01*
X49030787Y-30120522D01*
X49055847Y-30117230D01*
X49056780Y-30117233D01*
G37*
G36*
X48880723Y-29776677D02*
G01*
X48900676Y-29781776D01*
X48905419Y-29789381D01*
X48892789Y-29798145D01*
X48890994Y-29798762D01*
X48871349Y-29802083D01*
X48843943Y-29803844D01*
X48835251Y-29803851D01*
X48813787Y-29800224D01*
X48807308Y-29789961D01*
X48810434Y-29782307D01*
X48825437Y-29776876D01*
X48856154Y-29775307D01*
X48880723Y-29776677D01*
G37*
G36*
X48759201Y-29746195D02*
G01*
X48789554Y-29749906D01*
X48803886Y-29757772D01*
X48800530Y-29769060D01*
X48795963Y-29771080D01*
X48775938Y-29774113D01*
X48747065Y-29775307D01*
X48723790Y-29774483D01*
X48705235Y-29770008D01*
X48699847Y-29760653D01*
X48702804Y-29753147D01*
X48717601Y-29747604D01*
X48748116Y-29746000D01*
X48759201Y-29746195D01*
G37*
G36*
X48040780Y-29531079D02*
G01*
X48067413Y-29534402D01*
X48080717Y-29542716D01*
X48077607Y-29554137D01*
X48077170Y-29554515D01*
X48062843Y-29558673D01*
X48038795Y-29560384D01*
X48038554Y-29560384D01*
X48014044Y-29556817D01*
X48006231Y-29545730D01*
X48006260Y-29544813D01*
X48014787Y-29534368D01*
X48039847Y-29531077D01*
X48040780Y-29531079D01*
G37*
G36*
X46946378Y-27665154D02*
G01*
X46957408Y-27673081D01*
X46960923Y-27697718D01*
X46960912Y-27699698D01*
X46958961Y-27723322D01*
X46954676Y-27736529D01*
X46954321Y-27736876D01*
X46942963Y-27739471D01*
X46934767Y-27725741D01*
X46931616Y-27698769D01*
X46931628Y-27696664D01*
X46935345Y-27672704D01*
X46946270Y-27665153D01*
X46946378Y-27665154D01*
G37*
G36*
X46583578Y-28938818D02*
G01*
X46587761Y-28971788D01*
X46588099Y-28978094D01*
X46588199Y-29005957D01*
X46584202Y-29019515D01*
X46575039Y-29023077D01*
X46574162Y-29023061D01*
X46565270Y-29018781D01*
X46561699Y-29003913D01*
X46562317Y-28974102D01*
X46564337Y-28952970D01*
X46570097Y-28929570D01*
X46577100Y-28924799D01*
X46583578Y-28938818D01*
G37*
G36*
X46575147Y-31006231D02*
G01*
X46586177Y-31014158D01*
X46589693Y-31038794D01*
X46589681Y-31040775D01*
X46587731Y-31064399D01*
X46583446Y-31077606D01*
X46583091Y-31077953D01*
X46571733Y-31080548D01*
X46563536Y-31066818D01*
X46560385Y-31039846D01*
X46560398Y-31037741D01*
X46564115Y-31013781D01*
X46575039Y-31006230D01*
X46575147Y-31006231D01*
G37*
G36*
X46355970Y-29423810D02*
G01*
X46386324Y-29427521D01*
X46400655Y-29435387D01*
X46397299Y-29446675D01*
X46392732Y-29448695D01*
X46372707Y-29451729D01*
X46343834Y-29452923D01*
X46320560Y-29452098D01*
X46302004Y-29447624D01*
X46296616Y-29438269D01*
X46299573Y-29430763D01*
X46314370Y-29425219D01*
X46344885Y-29423615D01*
X46355970Y-29423810D01*
G37*
G36*
X46253011Y-29452926D02*
G01*
X46279644Y-29456248D01*
X46292948Y-29464562D01*
X46289837Y-29475983D01*
X46289400Y-29476361D01*
X46275073Y-29480519D01*
X46251026Y-29482230D01*
X46250785Y-29482230D01*
X46226274Y-29478663D01*
X46218462Y-29467577D01*
X46218491Y-29466659D01*
X46227018Y-29456214D01*
X46252078Y-29452923D01*
X46253011Y-29452926D01*
G37*
G36*
X45637549Y-29638541D02*
G01*
X45664183Y-29641863D01*
X45677487Y-29650177D01*
X45674376Y-29661599D01*
X45673939Y-29661976D01*
X45659612Y-29666134D01*
X45635565Y-29667846D01*
X45635324Y-29667846D01*
X45610813Y-29664278D01*
X45603000Y-29653192D01*
X45603029Y-29652274D01*
X45611556Y-29641829D01*
X45636616Y-29638538D01*
X45637549Y-29638541D01*
G37*
G36*
X44575608Y-30446197D02*
G01*
X44578383Y-30471365D01*
X44579466Y-30500277D01*
X44580825Y-30534863D01*
X44578575Y-30557816D01*
X44569904Y-30566613D01*
X44563804Y-30561860D01*
X44559169Y-30541342D01*
X44557693Y-30503115D01*
X44557829Y-30493768D01*
X44560413Y-30464031D01*
X44565192Y-30444726D01*
X44570734Y-30438049D01*
X44575608Y-30446197D01*
G37*
G36*
X47217683Y-28174017D02*
G01*
X47221917Y-28187123D01*
X47224204Y-28210640D01*
X47224407Y-28237629D01*
X47222390Y-28261151D01*
X47218017Y-28274265D01*
X47214871Y-28276126D01*
X47202588Y-28272187D01*
X47201411Y-28270538D01*
X47198536Y-28254276D01*
X47199517Y-28229358D01*
X47203398Y-28202832D01*
X47209223Y-28181748D01*
X47216033Y-28173153D01*
X47217683Y-28174017D01*
G37*
G36*
X49437271Y-30447214D02*
G01*
X49440928Y-30469932D01*
X49442308Y-30503115D01*
X49442100Y-30523383D01*
X49440135Y-30550020D01*
X49435296Y-30563121D01*
X49426609Y-30566615D01*
X49417747Y-30564223D01*
X49416840Y-30551162D01*
X49418662Y-30544080D01*
X49421607Y-30519178D01*
X49422770Y-30487662D01*
X49423394Y-30470801D01*
X49426927Y-30448393D01*
X49432539Y-30439615D01*
X49437271Y-30447214D01*
G37*
G36*
X49431620Y-29434225D02*
G01*
X49438205Y-29442173D01*
X49441444Y-29461749D01*
X49442308Y-29496884D01*
X49441139Y-29527645D01*
X49437644Y-29551412D01*
X49432539Y-29560384D01*
X49429111Y-29557313D01*
X49424554Y-29539938D01*
X49422770Y-29512337D01*
X49422482Y-29496823D01*
X49420356Y-29467418D01*
X49416840Y-29448837D01*
X49415575Y-29439210D01*
X49426609Y-29433384D01*
X49431620Y-29434225D01*
G37*
G36*
X44896790Y-30133727D02*
G01*
X44898871Y-30136778D01*
X44917832Y-30144057D01*
X44954392Y-30146538D01*
X44975533Y-30147364D01*
X44998254Y-30150912D01*
X45007077Y-30156307D01*
X45002288Y-30160328D01*
X44982771Y-30164471D01*
X44953347Y-30166077D01*
X44931234Y-30165206D01*
X44908449Y-30161657D01*
X44899616Y-30156307D01*
X44899378Y-30155147D01*
X44888370Y-30149031D01*
X44866000Y-30146538D01*
X44839230Y-30143919D01*
X44827880Y-30137714D01*
X44833343Y-30130540D01*
X44856747Y-30125018D01*
X44883179Y-30124988D01*
X44896790Y-30133727D01*
G37*
G36*
X48688533Y-30224728D02*
G01*
X48712041Y-30228552D01*
X48719385Y-30239346D01*
X48718676Y-30243559D01*
X48707479Y-30251580D01*
X48680308Y-30254000D01*
X48671549Y-30254249D01*
X48649898Y-30257651D01*
X48641231Y-30263769D01*
X48640235Y-30265959D01*
X48626624Y-30271371D01*
X48602154Y-30273538D01*
X48593395Y-30273289D01*
X48571744Y-30269886D01*
X48563077Y-30263769D01*
X48563894Y-30261756D01*
X48577028Y-30256222D01*
X48601109Y-30254000D01*
X48630267Y-30250450D01*
X48644764Y-30239346D01*
X48657183Y-30228889D01*
X48684886Y-30224692D01*
X48688533Y-30224728D01*
G37*
G36*
X47158498Y-31915765D02*
G01*
X47163911Y-31929376D01*
X47166077Y-31953846D01*
X47165828Y-31962605D01*
X47162426Y-31984256D01*
X47156308Y-31992923D01*
X47153986Y-31994069D01*
X47148664Y-32008045D01*
X47146539Y-32032814D01*
X47146297Y-32041413D01*
X47141579Y-32063854D01*
X47133299Y-32068916D01*
X47124715Y-32057073D01*
X47119084Y-32028802D01*
X47118366Y-32015757D01*
X47121178Y-31997936D01*
X47131295Y-31992923D01*
X47136555Y-31991944D01*
X47144276Y-31980654D01*
X47146539Y-31953846D01*
X47146788Y-31945086D01*
X47150191Y-31923436D01*
X47156308Y-31914769D01*
X47158498Y-31915765D01*
G37*
G36*
X46875308Y-27943125D02*
G01*
X46880917Y-27971197D01*
X46881635Y-27984243D01*
X46878823Y-28002063D01*
X46868706Y-28007077D01*
X46863446Y-28008055D01*
X46855724Y-28019345D01*
X46853462Y-28046153D01*
X46853313Y-28054536D01*
X46849358Y-28077932D01*
X46839422Y-28085230D01*
X46833981Y-28084093D01*
X46829067Y-28073564D01*
X46831172Y-28048596D01*
X46832272Y-28042343D01*
X46838490Y-28019568D01*
X46845211Y-28008705D01*
X46846955Y-28007132D01*
X46851599Y-27991769D01*
X46853462Y-27966371D01*
X46853707Y-27957837D01*
X46858440Y-27935871D01*
X46866727Y-27931158D01*
X46875308Y-27943125D01*
G37*
G36*
X46498987Y-29205729D02*
G01*
X46503269Y-29239244D01*
X46503852Y-29250290D01*
X46502234Y-29281088D01*
X46494443Y-29294020D01*
X46493894Y-29294262D01*
X46485638Y-29307131D01*
X46482231Y-29330224D01*
X46482228Y-29331236D01*
X46480249Y-29354798D01*
X46475718Y-29368256D01*
X46463914Y-29374796D01*
X46455683Y-29364544D01*
X46452923Y-29335692D01*
X46453189Y-29324458D01*
X46457388Y-29303068D01*
X46467577Y-29296615D01*
X46476299Y-29291969D01*
X46480916Y-29275287D01*
X46482231Y-29242884D01*
X46483158Y-29217820D01*
X46487249Y-29195308D01*
X46493086Y-29191181D01*
X46498987Y-29205729D01*
G37*
G36*
X47510190Y-29190150D02*
G01*
X47515603Y-29203760D01*
X47517770Y-29228230D01*
X47518036Y-29239465D01*
X47522234Y-29260855D01*
X47532423Y-29267307D01*
X47532586Y-29267308D01*
X47541297Y-29272221D01*
X47545797Y-29289174D01*
X47547077Y-29321852D01*
X47544947Y-29354117D01*
X47539029Y-29371843D01*
X47531431Y-29371495D01*
X47524280Y-29353386D01*
X47519701Y-29317828D01*
X47517892Y-29298711D01*
X47513213Y-29276117D01*
X47507490Y-29267307D01*
X47505415Y-29266312D01*
X47500285Y-29252702D01*
X47498231Y-29228230D01*
X47498480Y-29219471D01*
X47501883Y-29197820D01*
X47508000Y-29189153D01*
X47510190Y-29190150D01*
G37*
G36*
X47455819Y-30898853D02*
G01*
X47465804Y-30907857D01*
X47468923Y-30933268D01*
X47465353Y-30959256D01*
X47454270Y-30973390D01*
X47450883Y-30975295D01*
X47442331Y-30991905D01*
X47439616Y-31025186D01*
X47439308Y-31039789D01*
X47437067Y-31064890D01*
X47433369Y-31077606D01*
X47429922Y-31080414D01*
X47419514Y-31078675D01*
X47412732Y-31059713D01*
X47410308Y-31025192D01*
X47411206Y-31000467D01*
X47415698Y-30982207D01*
X47424962Y-30976923D01*
X47429175Y-30976213D01*
X47437196Y-30965017D01*
X47439616Y-30937846D01*
X47439882Y-30926611D01*
X47444080Y-30905221D01*
X47454270Y-30898769D01*
X47455819Y-30898853D01*
G37*
G36*
X46468570Y-30628504D02*
G01*
X46475721Y-30646613D01*
X46480299Y-30682171D01*
X46482109Y-30701288D01*
X46486788Y-30723883D01*
X46492511Y-30732692D01*
X46494585Y-30733687D01*
X46499716Y-30747297D01*
X46501770Y-30771769D01*
X46501521Y-30780528D01*
X46498118Y-30802179D01*
X46492000Y-30810846D01*
X46489811Y-30809849D01*
X46484398Y-30796239D01*
X46482231Y-30771769D01*
X46481965Y-30760534D01*
X46477767Y-30739145D01*
X46467577Y-30732692D01*
X46467415Y-30732691D01*
X46458704Y-30727778D01*
X46454204Y-30710826D01*
X46452923Y-30678147D01*
X46455054Y-30645882D01*
X46460971Y-30628156D01*
X46468570Y-30628504D01*
G37*
G36*
X45805844Y-30391640D02*
G01*
X45828629Y-30395188D01*
X45837462Y-30400538D01*
X45838458Y-30402728D01*
X45852069Y-30408141D01*
X45876539Y-30410307D01*
X45887773Y-30410573D01*
X45909163Y-30414772D01*
X45915616Y-30424961D01*
X45914907Y-30429174D01*
X45903710Y-30437195D01*
X45876539Y-30439615D01*
X45865305Y-30439349D01*
X45843915Y-30435150D01*
X45837462Y-30424961D01*
X45832816Y-30416239D01*
X45816134Y-30411623D01*
X45783731Y-30410307D01*
X45761619Y-30409436D01*
X45738833Y-30405888D01*
X45730000Y-30400538D01*
X45734790Y-30396518D01*
X45754306Y-30392375D01*
X45783731Y-30390769D01*
X45805844Y-30391640D01*
G37*
G36*
X45406606Y-29726710D02*
G01*
X45428257Y-29730113D01*
X45436923Y-29736230D01*
X45435927Y-29738420D01*
X45422317Y-29743833D01*
X45397847Y-29746000D01*
X45386612Y-29746266D01*
X45365222Y-29750464D01*
X45358770Y-29760653D01*
X45358060Y-29764866D01*
X45346864Y-29772888D01*
X45319693Y-29775307D01*
X45308458Y-29775041D01*
X45287068Y-29770843D01*
X45280616Y-29760653D01*
X45281325Y-29756441D01*
X45292521Y-29748419D01*
X45319693Y-29746000D01*
X45328452Y-29745750D01*
X45350103Y-29742348D01*
X45358770Y-29736230D01*
X45359766Y-29734040D01*
X45373377Y-29728628D01*
X45397847Y-29726461D01*
X45406606Y-29726710D01*
G37*
G36*
X45276820Y-30225630D02*
G01*
X45294925Y-30230130D01*
X45300154Y-30239346D01*
X45300863Y-30243559D01*
X45312060Y-30251580D01*
X45339231Y-30254000D01*
X45347991Y-30254249D01*
X45369641Y-30257651D01*
X45378308Y-30263769D01*
X45377312Y-30265959D01*
X45363701Y-30271371D01*
X45339231Y-30273538D01*
X45330472Y-30273289D01*
X45308821Y-30269886D01*
X45300154Y-30263769D01*
X45296858Y-30260250D01*
X45279172Y-30255757D01*
X45251308Y-30254000D01*
X45225796Y-30253062D01*
X45207691Y-30248561D01*
X45202462Y-30239346D01*
X45205588Y-30231692D01*
X45220591Y-30226261D01*
X45251308Y-30224692D01*
X45276820Y-30225630D01*
G37*
G36*
X48904479Y-30176524D02*
G01*
X48925747Y-30179693D01*
X48934308Y-30185615D01*
X48929518Y-30189635D01*
X48910002Y-30193778D01*
X48880577Y-30195384D01*
X48878022Y-30195388D01*
X48846989Y-30196796D01*
X48831232Y-30201482D01*
X48826847Y-30210549D01*
X48826814Y-30211701D01*
X48822072Y-30220035D01*
X48806380Y-30223390D01*
X48775558Y-30222760D01*
X48757867Y-30221144D01*
X48734810Y-30215492D01*
X48730510Y-30208547D01*
X48744789Y-30202469D01*
X48777471Y-30199414D01*
X48789743Y-30198723D01*
X48813510Y-30194242D01*
X48824689Y-30187203D01*
X48830659Y-30182573D01*
X48850312Y-30178060D01*
X48877126Y-30176012D01*
X48904479Y-30176524D01*
G37*
G36*
X46845883Y-31915765D02*
G01*
X46851295Y-31929376D01*
X46853462Y-31953846D01*
X46853728Y-31965080D01*
X46857927Y-31986470D01*
X46868116Y-31992923D01*
X46875339Y-31995579D01*
X46881097Y-32009997D01*
X46882770Y-32040141D01*
X46882433Y-32055743D01*
X46880185Y-32080919D01*
X46876522Y-32093606D01*
X46873263Y-32096293D01*
X46862788Y-32094832D01*
X46855925Y-32076229D01*
X46853462Y-32042237D01*
X46853346Y-32034189D01*
X46849449Y-32003568D01*
X46840374Y-31989991D01*
X46832706Y-31981711D01*
X46829791Y-31962080D01*
X46831437Y-31946100D01*
X46833109Y-31926980D01*
X46834075Y-31922546D01*
X46843693Y-31914769D01*
X46845883Y-31915765D01*
G37*
G36*
X45222129Y-29777239D02*
G01*
X45240946Y-29779053D01*
X45264074Y-29784794D01*
X45269346Y-29791623D01*
X45256468Y-29797336D01*
X45225143Y-29799730D01*
X45214999Y-29799958D01*
X45187792Y-29803903D01*
X45175605Y-29811942D01*
X45169461Y-29816891D01*
X45149682Y-29821755D01*
X45122824Y-29824083D01*
X45095479Y-29823728D01*
X45074238Y-29820544D01*
X45065693Y-29814384D01*
X45070482Y-29810364D01*
X45089999Y-29806221D01*
X45119423Y-29804615D01*
X45121979Y-29804611D01*
X45153012Y-29803203D01*
X45168769Y-29798517D01*
X45173154Y-29789451D01*
X45173154Y-29789353D01*
X45177228Y-29780358D01*
X45192148Y-29776671D01*
X45222129Y-29777239D01*
G37*
G36*
X47329439Y-28585548D02*
G01*
X47332154Y-28611724D01*
X47335704Y-28640881D01*
X47346808Y-28655379D01*
X47357265Y-28667797D01*
X47361462Y-28695501D01*
X47361555Y-28700252D01*
X47364797Y-28721406D01*
X47371231Y-28730000D01*
X47375252Y-28734789D01*
X47379394Y-28754306D01*
X47381000Y-28783730D01*
X47380130Y-28805843D01*
X47376581Y-28828628D01*
X47371231Y-28837461D01*
X47367211Y-28832671D01*
X47363068Y-28813155D01*
X47361462Y-28783730D01*
X47360195Y-28751750D01*
X47355645Y-28734823D01*
X47346808Y-28730000D01*
X47343124Y-28729474D01*
X47334710Y-28718744D01*
X47332154Y-28691968D01*
X47328604Y-28662810D01*
X47317500Y-28648313D01*
X47308142Y-28640164D01*
X47303000Y-28617977D01*
X47308776Y-28589145D01*
X47313633Y-28579260D01*
X47322608Y-28574092D01*
X47329439Y-28585548D01*
G37*
G36*
X47373421Y-31163534D02*
G01*
X47378834Y-31177145D01*
X47381000Y-31201615D01*
X47380751Y-31210374D01*
X47377349Y-31232025D01*
X47371231Y-31240692D01*
X47367678Y-31244076D01*
X47363209Y-31261880D01*
X47361462Y-31289845D01*
X47361066Y-31306211D01*
X47356664Y-31333009D01*
X47346808Y-31344621D01*
X47336044Y-31358159D01*
X47332154Y-31389090D01*
X47332027Y-31396988D01*
X47328530Y-31419235D01*
X47319943Y-31423927D01*
X47318105Y-31423134D01*
X47308160Y-31409051D01*
X47304389Y-31386602D01*
X47307169Y-31364617D01*
X47316876Y-31351926D01*
X47324196Y-31346149D01*
X47330327Y-31327525D01*
X47332154Y-31293377D01*
X47333352Y-31262753D01*
X47337895Y-31245594D01*
X47346808Y-31240692D01*
X47351021Y-31239983D01*
X47359042Y-31228786D01*
X47361462Y-31201615D01*
X47361711Y-31192856D01*
X47365114Y-31171205D01*
X47371231Y-31162538D01*
X47373421Y-31163534D01*
G37*
G36*
X47109475Y-27822278D02*
G01*
X47115009Y-27835412D01*
X47117231Y-27859493D01*
X47120781Y-27888650D01*
X47131885Y-27903148D01*
X47136719Y-27906332D01*
X47144205Y-27923968D01*
X47146539Y-27957924D01*
X47147211Y-27975801D01*
X47150750Y-27998287D01*
X47156308Y-28007077D01*
X47158498Y-28008073D01*
X47163911Y-28021683D01*
X47166077Y-28046153D01*
X47165828Y-28054913D01*
X47162426Y-28076564D01*
X47156308Y-28085230D01*
X47154118Y-28084234D01*
X47148706Y-28070623D01*
X47146539Y-28046153D01*
X47146273Y-28034919D01*
X47142074Y-28013529D01*
X47131885Y-28007077D01*
X47123321Y-28002695D01*
X47118584Y-27986286D01*
X47117231Y-27954160D01*
X47116501Y-27932924D01*
X47113278Y-27908735D01*
X47108357Y-27897987D01*
X47101950Y-27891205D01*
X47096725Y-27872244D01*
X47095842Y-27849165D01*
X47099391Y-27829671D01*
X47107462Y-27821461D01*
X47109475Y-27822278D01*
G37*
G36*
X48959097Y-29805668D02*
G01*
X48982753Y-29810559D01*
X48999204Y-29819269D01*
X49001641Y-29821347D01*
X49024429Y-29830444D01*
X49057121Y-29833923D01*
X49069628Y-29834341D01*
X49091662Y-29837827D01*
X49100385Y-29843692D01*
X49101381Y-29845882D01*
X49114992Y-29851294D01*
X49139462Y-29853461D01*
X49148221Y-29853710D01*
X49169872Y-29857113D01*
X49178539Y-29863230D01*
X49177542Y-29865420D01*
X49163932Y-29870833D01*
X49139462Y-29873000D01*
X49130703Y-29872750D01*
X49109052Y-29869348D01*
X49100385Y-29863230D01*
X49095595Y-29859210D01*
X49076079Y-29855067D01*
X49046654Y-29853461D01*
X49014674Y-29852194D01*
X48997747Y-29847644D01*
X48992923Y-29838807D01*
X48992214Y-29834594D01*
X48981018Y-29826573D01*
X48953847Y-29824153D01*
X48945087Y-29823904D01*
X48923436Y-29820502D01*
X48914770Y-29814384D01*
X48918561Y-29808984D01*
X48935333Y-29805006D01*
X48959097Y-29805668D01*
G37*
G36*
X48317837Y-29619249D02*
G01*
X48339487Y-29622651D01*
X48348154Y-29628769D01*
X48349151Y-29630959D01*
X48362761Y-29636371D01*
X48387231Y-29638538D01*
X48398466Y-29638804D01*
X48419855Y-29643003D01*
X48426308Y-29653192D01*
X48430954Y-29661914D01*
X48447636Y-29666530D01*
X48480039Y-29667846D01*
X48487273Y-29667936D01*
X48516127Y-29670682D01*
X48532120Y-29676253D01*
X48533040Y-29683286D01*
X48516673Y-29690419D01*
X48501959Y-29693593D01*
X48469066Y-29696115D01*
X48443037Y-29692235D01*
X48429841Y-29682500D01*
X48416518Y-29671790D01*
X48386186Y-29667846D01*
X48376625Y-29667643D01*
X48354787Y-29663509D01*
X48348154Y-29653192D01*
X48347445Y-29648979D01*
X48336249Y-29640958D01*
X48309077Y-29638538D01*
X48300318Y-29638289D01*
X48278667Y-29634886D01*
X48270000Y-29628769D01*
X48270997Y-29626579D01*
X48284607Y-29621166D01*
X48309077Y-29619000D01*
X48317837Y-29619249D01*
G37*
G36*
X47694973Y-29428243D02*
G01*
X47719304Y-29434427D01*
X47730854Y-29442523D01*
X47732282Y-29444566D01*
X47747418Y-29450526D01*
X47772584Y-29452923D01*
X47782518Y-29453139D01*
X47804255Y-29457288D01*
X47810847Y-29467577D01*
X47811556Y-29471789D01*
X47822752Y-29479811D01*
X47849923Y-29482230D01*
X47858683Y-29482479D01*
X47880334Y-29485882D01*
X47889000Y-29492000D01*
X47888004Y-29494189D01*
X47874394Y-29499602D01*
X47849923Y-29501769D01*
X47841164Y-29501520D01*
X47819513Y-29498117D01*
X47810847Y-29492000D01*
X47810518Y-29490654D01*
X47799069Y-29484664D01*
X47776348Y-29482230D01*
X47750359Y-29478660D01*
X47736226Y-29467577D01*
X47727290Y-29459027D01*
X47705934Y-29454322D01*
X47668724Y-29452923D01*
X47643204Y-29452080D01*
X47615205Y-29448211D01*
X47600772Y-29442142D01*
X47601888Y-29434917D01*
X47620537Y-29427579D01*
X47634900Y-29425261D01*
X47664594Y-29424884D01*
X47694973Y-29428243D01*
G37*
G36*
X46158837Y-30498479D02*
G01*
X46180487Y-30501882D01*
X46189154Y-30508000D01*
X46189483Y-30509345D01*
X46200932Y-30515335D01*
X46223653Y-30517769D01*
X46249641Y-30521339D01*
X46263775Y-30532423D01*
X46263786Y-30532449D01*
X46272976Y-30541082D01*
X46294489Y-30545704D01*
X46331853Y-30547077D01*
X46358247Y-30547662D01*
X46384748Y-30551196D01*
X46394143Y-30558414D01*
X46387795Y-30569871D01*
X46381275Y-30572367D01*
X46359366Y-30575258D01*
X46328873Y-30576384D01*
X46306833Y-30575744D01*
X46281676Y-30571230D01*
X46270841Y-30561730D01*
X46257518Y-30551021D01*
X46227186Y-30547077D01*
X46217625Y-30546874D01*
X46195787Y-30542740D01*
X46189154Y-30532423D01*
X46188445Y-30528210D01*
X46177249Y-30520189D01*
X46150077Y-30517769D01*
X46141318Y-30517520D01*
X46119667Y-30514117D01*
X46111000Y-30508000D01*
X46111997Y-30505810D01*
X46125607Y-30500397D01*
X46150077Y-30498230D01*
X46158837Y-30498479D01*
G37*
G36*
X46632790Y-31167328D02*
G01*
X46636933Y-31186844D01*
X46638539Y-31216269D01*
X46639806Y-31248249D01*
X46644356Y-31265176D01*
X46653193Y-31270000D01*
X46656877Y-31270525D01*
X46665291Y-31281255D01*
X46667847Y-31308031D01*
X46671396Y-31337189D01*
X46682500Y-31351686D01*
X46692957Y-31364105D01*
X46697154Y-31391808D01*
X46697247Y-31396560D01*
X46700489Y-31417714D01*
X46706923Y-31426307D01*
X46710944Y-31431097D01*
X46715087Y-31450613D01*
X46716693Y-31480038D01*
X46715822Y-31502151D01*
X46712273Y-31524936D01*
X46706923Y-31533769D01*
X46702903Y-31528979D01*
X46698760Y-31509463D01*
X46697154Y-31480038D01*
X46695887Y-31448058D01*
X46691338Y-31431131D01*
X46682500Y-31426307D01*
X46678817Y-31425782D01*
X46670402Y-31415052D01*
X46667847Y-31388276D01*
X46664297Y-31359118D01*
X46653193Y-31344621D01*
X46642736Y-31332202D01*
X46638539Y-31304498D01*
X46638446Y-31299747D01*
X46635204Y-31278593D01*
X46628770Y-31270000D01*
X46624749Y-31265210D01*
X46620606Y-31245694D01*
X46619000Y-31216269D01*
X46619871Y-31194156D01*
X46623420Y-31171371D01*
X46628770Y-31162538D01*
X46632790Y-31167328D01*
G37*
G36*
X48181068Y-30391018D02*
G01*
X48202718Y-30394421D01*
X48211385Y-30400538D01*
X48210389Y-30402728D01*
X48196778Y-30408141D01*
X48172308Y-30410307D01*
X48161074Y-30410573D01*
X48139684Y-30414772D01*
X48133231Y-30424961D01*
X48132706Y-30428645D01*
X48121976Y-30437059D01*
X48095199Y-30439615D01*
X48066042Y-30443165D01*
X48051545Y-30454269D01*
X48039126Y-30464726D01*
X48011422Y-30468923D01*
X48006671Y-30469016D01*
X47985517Y-30472258D01*
X47976923Y-30478692D01*
X47975927Y-30480882D01*
X47962317Y-30486294D01*
X47937847Y-30488461D01*
X47929087Y-30488212D01*
X47907436Y-30484809D01*
X47898770Y-30478692D01*
X47899766Y-30476502D01*
X47913377Y-30471089D01*
X47937847Y-30468923D01*
X47949081Y-30468657D01*
X47970471Y-30464458D01*
X47976923Y-30454269D01*
X47977633Y-30450056D01*
X47988829Y-30442035D01*
X48016000Y-30439615D01*
X48027235Y-30439349D01*
X48048625Y-30435150D01*
X48055077Y-30424961D01*
X48055787Y-30420748D01*
X48066983Y-30412727D01*
X48094154Y-30410307D01*
X48102914Y-30410058D01*
X48124564Y-30406656D01*
X48133231Y-30400538D01*
X48134228Y-30398348D01*
X48147838Y-30392936D01*
X48172308Y-30390769D01*
X48181068Y-30391018D01*
G37*
G36*
X46709113Y-28496534D02*
G01*
X46714526Y-28510145D01*
X46716693Y-28534615D01*
X46716444Y-28543374D01*
X46713041Y-28565025D01*
X46706923Y-28573692D01*
X46705578Y-28574020D01*
X46699588Y-28585469D01*
X46697154Y-28608191D01*
X46693584Y-28634179D01*
X46682500Y-28648313D01*
X46676312Y-28653067D01*
X46669833Y-28671807D01*
X46667847Y-28706622D01*
X46666649Y-28737246D01*
X46662106Y-28754405D01*
X46653193Y-28759307D01*
X46648980Y-28760016D01*
X46640959Y-28771213D01*
X46638539Y-28798384D01*
X46638290Y-28807144D01*
X46634887Y-28828794D01*
X46628770Y-28837461D01*
X46626580Y-28836465D01*
X46621167Y-28822854D01*
X46619000Y-28798384D01*
X46619250Y-28789625D01*
X46622652Y-28767974D01*
X46628770Y-28759307D01*
X46632323Y-28755923D01*
X46636792Y-28738119D01*
X46638539Y-28710155D01*
X46638935Y-28693788D01*
X46643336Y-28666990D01*
X46653193Y-28655379D01*
X46663902Y-28642056D01*
X46667847Y-28611724D01*
X46668049Y-28602163D01*
X46672183Y-28580325D01*
X46682500Y-28573692D01*
X46686713Y-28572983D01*
X46694735Y-28561786D01*
X46697154Y-28534615D01*
X46697403Y-28525856D01*
X46700806Y-28504205D01*
X46706923Y-28495538D01*
X46709113Y-28496534D01*
G37*
G36*
X46070914Y-29511787D02*
G01*
X46092564Y-29515190D01*
X46101231Y-29521307D01*
X46100235Y-29523497D01*
X46086624Y-29528910D01*
X46062154Y-29531077D01*
X46050920Y-29531342D01*
X46029530Y-29535541D01*
X46023077Y-29545730D01*
X46022368Y-29549943D01*
X46011172Y-29557964D01*
X45984000Y-29560384D01*
X45972766Y-29560650D01*
X45951376Y-29564849D01*
X45944923Y-29575038D01*
X45944214Y-29579251D01*
X45933018Y-29587272D01*
X45905847Y-29589692D01*
X45897087Y-29589941D01*
X45875436Y-29593344D01*
X45866770Y-29599461D01*
X45865773Y-29601651D01*
X45852163Y-29607064D01*
X45827693Y-29609230D01*
X45818933Y-29608981D01*
X45797283Y-29605579D01*
X45788616Y-29599461D01*
X45789612Y-29597271D01*
X45803223Y-29591859D01*
X45827693Y-29589692D01*
X45838927Y-29589426D01*
X45860317Y-29585227D01*
X45866770Y-29575038D01*
X45867295Y-29571354D01*
X45878025Y-29562940D01*
X45904801Y-29560384D01*
X45933959Y-29556834D01*
X45948456Y-29545730D01*
X45960875Y-29535274D01*
X45988578Y-29531077D01*
X45993330Y-29530983D01*
X46014484Y-29527741D01*
X46023077Y-29521307D01*
X46024074Y-29519117D01*
X46037684Y-29513705D01*
X46062154Y-29511538D01*
X46070914Y-29511787D01*
G37*
G36*
X45435914Y-30283556D02*
G01*
X45457564Y-30286959D01*
X45466231Y-30293077D01*
X45469615Y-30296630D01*
X45487420Y-30301099D01*
X45515384Y-30302846D01*
X45531750Y-30303242D01*
X45558548Y-30307643D01*
X45570160Y-30317500D01*
X45583483Y-30328209D01*
X45613815Y-30332153D01*
X45623376Y-30332356D01*
X45645214Y-30336490D01*
X45651847Y-30346807D01*
X45652556Y-30351020D01*
X45663752Y-30359041D01*
X45690923Y-30361461D01*
X45699683Y-30361710D01*
X45721334Y-30365113D01*
X45730000Y-30371230D01*
X45729004Y-30373420D01*
X45715394Y-30378833D01*
X45690923Y-30381000D01*
X45682164Y-30380750D01*
X45660513Y-30377348D01*
X45651847Y-30371230D01*
X45651518Y-30369885D01*
X45640069Y-30363895D01*
X45617348Y-30361461D01*
X45591359Y-30357891D01*
X45577226Y-30346807D01*
X45572472Y-30340619D01*
X45553731Y-30334140D01*
X45518917Y-30332153D01*
X45488293Y-30330955D01*
X45471134Y-30326413D01*
X45466231Y-30317500D01*
X45465522Y-30313287D01*
X45454326Y-30305265D01*
X45427154Y-30302846D01*
X45418395Y-30302597D01*
X45396744Y-30299194D01*
X45388077Y-30293077D01*
X45389074Y-30290887D01*
X45402684Y-30285474D01*
X45427154Y-30283307D01*
X45435914Y-30283556D01*
G37*
G36*
X46956143Y-27552596D02*
G01*
X46936500Y-27557692D01*
X46920438Y-27560117D01*
X46912077Y-27567461D01*
X46905853Y-27573924D01*
X46887348Y-27577230D01*
X46870006Y-27580732D01*
X46856995Y-27591884D01*
X46848870Y-27600841D01*
X46829039Y-27606538D01*
X46814209Y-27609614D01*
X46801083Y-27621192D01*
X46791536Y-27630672D01*
X46770730Y-27635846D01*
X46754509Y-27638724D01*
X46746000Y-27650500D01*
X46741220Y-27660058D01*
X46721577Y-27665153D01*
X46705515Y-27667579D01*
X46697154Y-27674923D01*
X46690930Y-27681386D01*
X46672425Y-27684692D01*
X46655083Y-27688194D01*
X46642072Y-27699346D01*
X46633947Y-27708302D01*
X46614116Y-27714000D01*
X46599285Y-27717076D01*
X46586160Y-27728653D01*
X46576613Y-27738133D01*
X46555807Y-27743307D01*
X46539586Y-27746186D01*
X46531077Y-27757961D01*
X46526297Y-27767520D01*
X46506654Y-27772615D01*
X46490595Y-27774878D01*
X46482231Y-27781735D01*
X46474881Y-27788833D01*
X46455366Y-27793947D01*
X46428500Y-27797038D01*
X46425969Y-28292827D01*
X46423637Y-28749538D01*
X46423437Y-28788615D01*
X46130449Y-28788615D01*
X46103175Y-28788636D01*
X46031936Y-28788900D01*
X45968294Y-28789436D01*
X45914637Y-28790203D01*
X45873354Y-28791161D01*
X45846833Y-28792272D01*
X45837462Y-28793494D01*
X45842355Y-28800486D01*
X45859631Y-28819662D01*
X45887573Y-28848918D01*
X45924303Y-28886415D01*
X45967942Y-28930311D01*
X46016610Y-28978765D01*
X46068429Y-29029936D01*
X46121519Y-29081981D01*
X46174001Y-29133062D01*
X46223996Y-29181335D01*
X46269625Y-29224960D01*
X46309008Y-29262095D01*
X46340267Y-29290900D01*
X46361522Y-29309533D01*
X46370895Y-29316153D01*
X46385307Y-29322450D01*
X46406514Y-29338844D01*
X46428575Y-29359979D01*
X46445906Y-29380488D01*
X46452923Y-29395003D01*
X46453353Y-29397565D01*
X46463444Y-29404077D01*
X46469970Y-29406258D01*
X46487684Y-29419108D01*
X46507783Y-29438309D01*
X46524251Y-29457847D01*
X46531077Y-29471710D01*
X46532737Y-29476558D01*
X46545731Y-29482230D01*
X46552565Y-29483932D01*
X46560385Y-29496884D01*
X46561526Y-29503631D01*
X46570484Y-29511538D01*
X46578033Y-29514553D01*
X46595719Y-29528254D01*
X46615603Y-29547714D01*
X46631829Y-29567021D01*
X46638539Y-29580259D01*
X46640189Y-29584595D01*
X46653193Y-29589692D01*
X46660027Y-29591394D01*
X46667847Y-29604346D01*
X46669032Y-29611098D01*
X46678314Y-29619000D01*
X46693051Y-29625067D01*
X46709293Y-29640806D01*
X46716693Y-29657379D01*
X46718352Y-29662202D01*
X46731347Y-29667846D01*
X46738180Y-29669548D01*
X46746000Y-29682500D01*
X46747703Y-29689333D01*
X46760654Y-29697153D01*
X46767488Y-29698856D01*
X46775308Y-29711807D01*
X46776493Y-29718560D01*
X46785775Y-29726461D01*
X46800513Y-29732528D01*
X46816754Y-29748268D01*
X46824154Y-29764840D01*
X46825813Y-29769663D01*
X46838808Y-29775307D01*
X46845642Y-29777009D01*
X46853462Y-29789961D01*
X46855164Y-29796795D01*
X46868116Y-29804615D01*
X46874950Y-29806317D01*
X46882770Y-29819269D01*
X46883872Y-29826010D01*
X46892539Y-29833923D01*
X46899160Y-29841299D01*
X46901997Y-29860788D01*
X46901435Y-29875050D01*
X46897974Y-29880714D01*
X46888709Y-29870557D01*
X46878916Y-29860489D01*
X46864597Y-29853461D01*
X46860105Y-29852350D01*
X46853462Y-29840458D01*
X46846887Y-29828086D01*
X46829039Y-29814384D01*
X46812410Y-29801984D01*
X46804616Y-29788310D01*
X46802932Y-29782277D01*
X46789962Y-29775307D01*
X46783128Y-29773605D01*
X46775308Y-29760653D01*
X46773606Y-29753820D01*
X46760654Y-29746000D01*
X46753902Y-29744815D01*
X46746000Y-29735533D01*
X46739933Y-29720795D01*
X46724194Y-29704553D01*
X46707621Y-29697153D01*
X46702798Y-29695494D01*
X46697154Y-29682500D01*
X46695452Y-29675666D01*
X46682500Y-29667846D01*
X46675667Y-29666144D01*
X46667847Y-29653192D01*
X46666144Y-29646358D01*
X46653193Y-29638538D01*
X46646440Y-29637353D01*
X46638539Y-29628071D01*
X46632472Y-29613334D01*
X46616732Y-29597092D01*
X46600160Y-29589692D01*
X46595337Y-29588033D01*
X46589693Y-29575038D01*
X46587991Y-29568204D01*
X46575039Y-29560384D01*
X46568205Y-29558682D01*
X46560385Y-29545730D01*
X46558891Y-29538932D01*
X46547382Y-29531077D01*
X46535010Y-29524501D01*
X46521308Y-29506653D01*
X46508908Y-29490025D01*
X46495234Y-29482230D01*
X46489201Y-29480547D01*
X46482231Y-29467577D01*
X46480529Y-29460743D01*
X46467577Y-29452923D01*
X46460743Y-29451221D01*
X46452923Y-29438269D01*
X46448143Y-29428710D01*
X46428500Y-29423615D01*
X46424000Y-29423512D01*
X46408112Y-29417783D01*
X46404077Y-29399192D01*
X46403377Y-29388571D01*
X46395715Y-29377397D01*
X46374770Y-29374769D01*
X46374393Y-29374768D01*
X46353947Y-29371598D01*
X46345462Y-29364128D01*
X46340766Y-29354747D01*
X46325228Y-29335773D01*
X46303373Y-29312853D01*
X46279949Y-29290676D01*
X46259707Y-29273931D01*
X46247395Y-29267307D01*
X46244671Y-29266849D01*
X46238000Y-29256667D01*
X46233305Y-29247286D01*
X46217767Y-29228311D01*
X46195911Y-29205391D01*
X46172488Y-29183214D01*
X46152245Y-29166469D01*
X46139933Y-29159846D01*
X46137691Y-29159562D01*
X46130539Y-29150064D01*
X46125081Y-29142643D01*
X46107861Y-29123488D01*
X46081128Y-29095081D01*
X46047185Y-29059755D01*
X46008340Y-29019845D01*
X45966896Y-28977685D01*
X45925161Y-28935608D01*
X45885438Y-28895948D01*
X45850034Y-28861038D01*
X45821253Y-28833214D01*
X45801402Y-28814807D01*
X45792786Y-28808153D01*
X45792547Y-28808665D01*
X45791451Y-28822177D01*
X45790304Y-28852227D01*
X45789829Y-28870603D01*
X45789162Y-28896375D01*
X45788080Y-28952182D01*
X45787115Y-29017210D01*
X45786323Y-29089019D01*
X45783731Y-29369884D01*
X45195135Y-29372403D01*
X44606539Y-29374921D01*
X44606539Y-29399268D01*
X44604337Y-29417806D01*
X44598032Y-29422823D01*
X44590227Y-29412075D01*
X44583574Y-29386980D01*
X44584304Y-29359577D01*
X44589026Y-29335413D01*
X44616308Y-29335413D01*
X44625372Y-29337502D01*
X44653347Y-29339423D01*
X44699607Y-29341094D01*
X44763516Y-29342503D01*
X44844438Y-29343640D01*
X44941738Y-29344493D01*
X45054778Y-29345051D01*
X45182923Y-29345303D01*
X45749539Y-29345702D01*
X45750704Y-29157524D01*
X45751004Y-29104506D01*
X45751321Y-29035876D01*
X45751553Y-28970368D01*
X45751680Y-28913453D01*
X45751684Y-28870603D01*
X45751499Y-28771861D01*
X45628617Y-28648353D01*
X45592938Y-28612915D01*
X45556539Y-28577723D01*
X45526613Y-28549830D01*
X45505553Y-28531463D01*
X45495753Y-28524846D01*
X45493243Y-28524543D01*
X45485770Y-28515430D01*
X45482288Y-28508300D01*
X45467249Y-28489719D01*
X45443635Y-28464353D01*
X45415075Y-28435716D01*
X45385200Y-28407324D01*
X45357640Y-28382692D01*
X45336025Y-28365336D01*
X45323985Y-28358769D01*
X45317440Y-28360464D01*
X45309923Y-28373423D01*
X45305403Y-28382790D01*
X45286546Y-28388077D01*
X45270619Y-28391343D01*
X45257545Y-28402730D01*
X45248621Y-28411994D01*
X45228237Y-28417384D01*
X45211917Y-28420946D01*
X45198504Y-28433146D01*
X45191926Y-28441868D01*
X45172438Y-28443674D01*
X45159874Y-28442784D01*
X45147088Y-28452335D01*
X45138515Y-28461065D01*
X45118378Y-28466230D01*
X45103434Y-28469064D01*
X45095000Y-28480884D01*
X45091089Y-28489725D01*
X45074173Y-28495538D01*
X45060645Y-28499428D01*
X45037037Y-28515492D01*
X45013261Y-28538777D01*
X44994900Y-28563569D01*
X44987539Y-28584157D01*
X44984901Y-28594908D01*
X44972885Y-28603000D01*
X44966051Y-28604702D01*
X44958231Y-28617653D01*
X44956700Y-28624458D01*
X44944932Y-28632307D01*
X44936719Y-28636928D01*
X44936302Y-28656730D01*
X44936314Y-28656796D01*
X44936358Y-28675670D01*
X44925178Y-28681153D01*
X44917291Y-28683125D01*
X44909385Y-28695807D01*
X44907683Y-28702641D01*
X44894731Y-28710461D01*
X44885364Y-28714981D01*
X44880077Y-28733839D01*
X44876810Y-28749765D01*
X44865423Y-28762840D01*
X44855944Y-28772387D01*
X44850770Y-28793193D01*
X44848311Y-28809553D01*
X44841000Y-28817923D01*
X44834575Y-28823986D01*
X44831231Y-28842346D01*
X44828363Y-28858276D01*
X44816577Y-28866769D01*
X44806292Y-28872809D01*
X44801923Y-28896077D01*
X44798903Y-28916646D01*
X44787270Y-28925384D01*
X44777711Y-28930164D01*
X44772616Y-28949807D01*
X44769748Y-28965738D01*
X44757962Y-28974230D01*
X44747677Y-28980270D01*
X44743308Y-29003538D01*
X44743307Y-29003903D01*
X44740398Y-29024357D01*
X44733539Y-29032846D01*
X44727114Y-29038909D01*
X44723770Y-29057269D01*
X44720902Y-29073199D01*
X44709116Y-29081692D01*
X44705432Y-29082218D01*
X44697018Y-29092947D01*
X44694462Y-29119724D01*
X44694455Y-29121192D01*
X44690655Y-29149452D01*
X44680785Y-29163004D01*
X44680617Y-29163070D01*
X44670837Y-29176504D01*
X44667108Y-29202847D01*
X44667077Y-29205063D01*
X44662184Y-29232918D01*
X44651477Y-29253072D01*
X44641031Y-29270892D01*
X44635847Y-29297313D01*
X44633000Y-29317450D01*
X44626077Y-29325923D01*
X44623751Y-29326196D01*
X44616308Y-29335413D01*
X44589026Y-29335413D01*
X44592681Y-29316707D01*
X44607858Y-29261724D01*
X44628885Y-29197365D01*
X44654809Y-29126371D01*
X44684680Y-29051479D01*
X44717544Y-28975430D01*
X44752451Y-28900961D01*
X44764831Y-28875969D01*
X44862022Y-28699161D01*
X44970299Y-28535398D01*
X45092465Y-28380759D01*
X45128785Y-28341673D01*
X45376367Y-28341673D01*
X45377629Y-28348686D01*
X45386589Y-28361816D01*
X45404519Y-28382552D01*
X45432690Y-28412385D01*
X45472376Y-28452807D01*
X45524847Y-28505307D01*
X45557362Y-28537507D01*
X45601532Y-28580641D01*
X45639999Y-28617494D01*
X45670750Y-28646168D01*
X45691770Y-28664764D01*
X45701046Y-28671384D01*
X45705374Y-28673035D01*
X45710462Y-28686038D01*
X45712164Y-28692872D01*
X45725116Y-28700692D01*
X45731950Y-28702394D01*
X45739770Y-28715346D01*
X45744550Y-28724904D01*
X45764193Y-28730000D01*
X45780255Y-28732425D01*
X45788616Y-28739769D01*
X45794002Y-28742078D01*
X45817824Y-28744710D01*
X45860100Y-28746793D01*
X45920210Y-28748305D01*
X45997537Y-28749226D01*
X46091462Y-28749538D01*
X46394308Y-28749538D01*
X46393997Y-28283057D01*
X46393882Y-28188487D01*
X46393602Y-28094889D01*
X46393124Y-28018173D01*
X46392407Y-27956909D01*
X46391409Y-27909665D01*
X46390086Y-27875011D01*
X46388397Y-27851516D01*
X46386299Y-27837749D01*
X46383751Y-27832278D01*
X46380709Y-27833673D01*
X46369600Y-27843391D01*
X46346827Y-27850769D01*
X46334191Y-27853523D01*
X46325923Y-27865423D01*
X46319883Y-27875708D01*
X46296616Y-27880077D01*
X46276046Y-27883097D01*
X46267308Y-27894730D01*
X46262788Y-27904098D01*
X46243930Y-27909384D01*
X46227961Y-27912795D01*
X46214671Y-27924712D01*
X46208172Y-27933264D01*
X46189154Y-27933807D01*
X46176174Y-27932198D01*
X46163638Y-27942903D01*
X46154747Y-27952515D01*
X46134378Y-27958230D01*
X46119434Y-27961064D01*
X46111000Y-27972884D01*
X46104960Y-27983169D01*
X46081693Y-27987538D01*
X46061123Y-27990558D01*
X46052385Y-28002192D01*
X46047865Y-28011559D01*
X46029007Y-28016846D01*
X46013081Y-28020113D01*
X46000006Y-28031500D01*
X45993323Y-28039788D01*
X45974538Y-28046153D01*
X45962888Y-28048026D01*
X45954693Y-28055923D01*
X45954690Y-28056044D01*
X45945963Y-28062862D01*
X45925385Y-28065692D01*
X45904815Y-28068712D01*
X45896077Y-28080346D01*
X45891220Y-28089958D01*
X45871348Y-28095000D01*
X45854006Y-28098501D01*
X45840995Y-28109653D01*
X45832870Y-28118610D01*
X45813039Y-28124307D01*
X45798253Y-28127231D01*
X45785374Y-28138203D01*
X45779113Y-28145524D01*
X45760024Y-28146864D01*
X45747086Y-28146024D01*
X45733959Y-28157391D01*
X45724972Y-28167271D01*
X45704532Y-28173153D01*
X45689588Y-28175987D01*
X45681154Y-28187807D01*
X45676634Y-28197175D01*
X45657776Y-28202461D01*
X45641850Y-28205728D01*
X45628775Y-28217115D01*
X45619228Y-28226595D01*
X45598422Y-28231769D01*
X45582068Y-28233959D01*
X45573693Y-28240479D01*
X45567558Y-28247776D01*
X45549270Y-28255319D01*
X45533136Y-28261772D01*
X45524847Y-28271032D01*
X45518623Y-28277371D01*
X45500117Y-28280615D01*
X45482775Y-28284117D01*
X45469764Y-28295269D01*
X45461639Y-28304225D01*
X45441808Y-28309923D01*
X45426978Y-28312999D01*
X45413852Y-28324577D01*
X45404093Y-28334125D01*
X45383146Y-28339230D01*
X45381530Y-28339284D01*
X45376367Y-28341673D01*
X45128785Y-28341673D01*
X45231324Y-28231324D01*
X45251265Y-28211572D01*
X45401172Y-28075121D01*
X45556810Y-27954987D01*
X45722100Y-27848364D01*
X45900962Y-27752450D01*
X45919151Y-27743668D01*
X45983334Y-27714303D01*
X46050719Y-27685631D01*
X46118961Y-27658443D01*
X46185714Y-27633530D01*
X46248633Y-27611684D01*
X46305372Y-27593696D01*
X46353585Y-27580356D01*
X46390927Y-27572457D01*
X46415053Y-27570788D01*
X46423616Y-27576143D01*
X46424194Y-27579804D01*
X46433768Y-27586618D01*
X46448367Y-27583818D01*
X46459160Y-27572346D01*
X46459170Y-27572319D01*
X46468361Y-27563687D01*
X46489874Y-27559064D01*
X46527238Y-27557692D01*
X46531654Y-27557681D01*
X46565969Y-27556256D01*
X46584280Y-27551963D01*
X46589693Y-27544125D01*
X46589742Y-27543338D01*
X46590011Y-27543038D01*
X46873000Y-27543038D01*
X46876627Y-27551583D01*
X46892539Y-27557692D01*
X46903933Y-27554972D01*
X46912077Y-27543038D01*
X46908451Y-27534493D01*
X46892539Y-27528384D01*
X46881145Y-27531104D01*
X46873000Y-27543038D01*
X46590011Y-27543038D01*
X46599487Y-27532460D01*
X46621443Y-27524788D01*
X46625684Y-27524029D01*
X46685174Y-27515443D01*
X46753452Y-27508757D01*
X46828161Y-27503914D01*
X46906943Y-27500856D01*
X46987441Y-27499526D01*
X47067298Y-27499864D01*
X47144156Y-27501815D01*
X47215658Y-27505319D01*
X47279445Y-27510319D01*
X47333162Y-27516758D01*
X47374449Y-27524577D01*
X47400950Y-27533719D01*
X47410308Y-27544125D01*
X47410357Y-27545085D01*
X47416916Y-27552539D01*
X47436682Y-27556516D01*
X47472763Y-27557692D01*
X47472876Y-27557692D01*
X47510197Y-27559071D01*
X47531676Y-27563702D01*
X47540841Y-27572346D01*
X47542908Y-27576289D01*
X47555619Y-27585484D01*
X47569721Y-27585750D01*
X47576385Y-27576143D01*
X47577172Y-27573763D01*
X47590626Y-27570587D01*
X47618942Y-27574198D01*
X47659775Y-27583804D01*
X47710779Y-27598614D01*
X47769608Y-27617837D01*
X47833917Y-27640682D01*
X47901360Y-27666356D01*
X47969592Y-27694070D01*
X48036267Y-27723032D01*
X48099039Y-27752450D01*
X48124031Y-27764830D01*
X48300839Y-27862021D01*
X48464602Y-27970298D01*
X48619241Y-28092465D01*
X48627225Y-28099884D01*
X48768676Y-28231324D01*
X48875979Y-28346384D01*
X48899332Y-28371425D01*
X49027994Y-28533176D01*
X49141390Y-28704209D01*
X49241561Y-28887356D01*
X49251769Y-28908313D01*
X49279047Y-28967495D01*
X49306383Y-29030875D01*
X49332902Y-29095997D01*
X49357727Y-29160404D01*
X49379986Y-29221641D01*
X49398802Y-29277251D01*
X49413301Y-29324779D01*
X49422609Y-29361769D01*
X49423705Y-29369884D01*
X49425849Y-29385763D01*
X49422147Y-29394307D01*
X49417945Y-29395956D01*
X49413000Y-29408961D01*
X49410806Y-29418182D01*
X49401032Y-29423290D01*
X49391713Y-29413482D01*
X49384063Y-29411340D01*
X49357853Y-29409109D01*
X49312896Y-29407148D01*
X49249061Y-29405451D01*
X49166216Y-29404018D01*
X49064229Y-29402846D01*
X48942968Y-29401931D01*
X48802302Y-29401271D01*
X48216270Y-29399192D01*
X48214774Y-29228259D01*
X48248071Y-29228259D01*
X48248426Y-29280131D01*
X48249240Y-29321385D01*
X48250552Y-29349117D01*
X48252399Y-29360424D01*
X48259424Y-29361112D01*
X48284386Y-29361987D01*
X48325726Y-29362878D01*
X48381703Y-29363762D01*
X48450578Y-29364620D01*
X48530610Y-29365429D01*
X48620059Y-29366168D01*
X48717185Y-29366817D01*
X48820248Y-29367354D01*
X49383697Y-29369884D01*
X49383695Y-29348949D01*
X49381025Y-29335624D01*
X49369802Y-29322683D01*
X49360507Y-29311316D01*
X49358672Y-29282561D01*
X49358932Y-29278859D01*
X49357308Y-29255226D01*
X49348140Y-29247769D01*
X49338469Y-29239739D01*
X49334847Y-29214773D01*
X49334834Y-29213391D01*
X49330338Y-29187278D01*
X49320193Y-29169615D01*
X49318905Y-29168419D01*
X49309313Y-29148734D01*
X49305539Y-29119573D01*
X49305345Y-29110256D01*
X49301221Y-29088352D01*
X49290885Y-29081692D01*
X49281518Y-29077172D01*
X49276231Y-29058314D01*
X49272728Y-29042317D01*
X49260469Y-29028888D01*
X49251748Y-29022310D01*
X49249941Y-29002822D01*
X49250831Y-28990258D01*
X49241281Y-28977472D01*
X49232551Y-28968899D01*
X49227385Y-28948762D01*
X49224552Y-28933818D01*
X49212731Y-28925384D01*
X49202446Y-28919344D01*
X49198077Y-28896077D01*
X49195057Y-28875507D01*
X49183423Y-28866769D01*
X49173865Y-28861989D01*
X49168770Y-28842346D01*
X49166344Y-28826283D01*
X49159000Y-28817923D01*
X49152538Y-28811699D01*
X49149231Y-28793193D01*
X49145729Y-28775851D01*
X49134577Y-28762840D01*
X49125380Y-28754099D01*
X49119923Y-28733839D01*
X49117090Y-28718895D01*
X49105270Y-28710461D01*
X49098436Y-28708759D01*
X49090616Y-28695807D01*
X49089638Y-28689082D01*
X49081906Y-28681153D01*
X49074608Y-28675018D01*
X49067066Y-28656730D01*
X49060613Y-28640596D01*
X49051353Y-28632307D01*
X49046946Y-28630656D01*
X49041770Y-28617653D01*
X49040068Y-28610820D01*
X49027116Y-28603000D01*
X49018648Y-28599443D01*
X49012462Y-28583787D01*
X49007932Y-28569142D01*
X48991487Y-28545379D01*
X48968301Y-28521441D01*
X48944001Y-28502951D01*
X48924213Y-28495538D01*
X48913170Y-28493785D01*
X48905000Y-28485955D01*
X48898874Y-28478087D01*
X48880577Y-28470242D01*
X48864434Y-28464002D01*
X48856154Y-28455402D01*
X48849936Y-28449642D01*
X48831425Y-28446692D01*
X48814083Y-28443190D01*
X48801072Y-28432038D01*
X48792330Y-28422841D01*
X48772071Y-28417384D01*
X48757127Y-28414551D01*
X48748693Y-28402730D01*
X48742653Y-28392445D01*
X48719385Y-28388077D01*
X48698815Y-28385056D01*
X48690077Y-28373423D01*
X48686451Y-28364877D01*
X48670539Y-28358769D01*
X48659145Y-28361489D01*
X48651000Y-28373423D01*
X48649298Y-28380257D01*
X48636347Y-28388077D01*
X48629513Y-28389779D01*
X48621693Y-28402730D01*
X48620487Y-28409486D01*
X48611052Y-28417384D01*
X48601671Y-28422080D01*
X48582697Y-28437618D01*
X48559777Y-28459473D01*
X48537600Y-28482897D01*
X48520855Y-28503140D01*
X48514231Y-28515451D01*
X48513995Y-28517528D01*
X48504718Y-28524846D01*
X48501813Y-28526212D01*
X48486676Y-28538278D01*
X48461762Y-28560801D01*
X48429733Y-28591332D01*
X48393248Y-28627423D01*
X48376613Y-28644018D01*
X48341630Y-28677956D01*
X48312179Y-28705234D01*
X48290954Y-28723399D01*
X48280646Y-28730000D01*
X48276029Y-28731378D01*
X48270000Y-28743839D01*
X48269151Y-28749737D01*
X48260176Y-28760954D01*
X48259345Y-28762664D01*
X48257258Y-28779445D01*
X48255292Y-28811738D01*
X48253484Y-28856641D01*
X48251872Y-28911249D01*
X48250494Y-28972660D01*
X48249387Y-29037970D01*
X48248589Y-29104275D01*
X48248138Y-29168673D01*
X48248071Y-29228259D01*
X48214774Y-29228259D01*
X48213684Y-29103673D01*
X48213403Y-29074234D01*
X48212516Y-29002840D01*
X48211435Y-28939094D01*
X48210220Y-28885374D01*
X48208930Y-28844059D01*
X48207622Y-28817526D01*
X48206357Y-28808153D01*
X48197896Y-28812687D01*
X48182719Y-28827147D01*
X48168700Y-28844407D01*
X48162539Y-28857000D01*
X48162267Y-28859324D01*
X48153106Y-28866769D01*
X48145483Y-28869755D01*
X48127624Y-28883322D01*
X48107545Y-28902594D01*
X48091161Y-28921714D01*
X48084385Y-28934824D01*
X48082729Y-28939473D01*
X48069731Y-28944923D01*
X48062897Y-28946625D01*
X48055077Y-28959577D01*
X48054006Y-28966314D01*
X48045565Y-28974230D01*
X48035622Y-28979444D01*
X48016434Y-28995276D01*
X47993354Y-29017151D01*
X47971067Y-29040383D01*
X47954260Y-29060288D01*
X47947616Y-29072180D01*
X47947183Y-29074876D01*
X47937095Y-29081692D01*
X47930570Y-29083874D01*
X47912855Y-29096724D01*
X47892757Y-29115925D01*
X47876288Y-29135463D01*
X47869462Y-29149325D01*
X47869076Y-29152304D01*
X47860068Y-29159846D01*
X47850566Y-29164482D01*
X47831348Y-29179822D01*
X47808132Y-29201400D01*
X47785670Y-29224526D01*
X47768709Y-29244511D01*
X47762000Y-29256667D01*
X47761596Y-29259751D01*
X47752606Y-29267307D01*
X47743104Y-29271943D01*
X47723886Y-29287284D01*
X47700671Y-29308861D01*
X47678208Y-29331987D01*
X47661248Y-29351973D01*
X47654539Y-29364128D01*
X47654536Y-29364265D01*
X47645805Y-29371688D01*
X47625231Y-29374769D01*
X47612486Y-29375352D01*
X47599078Y-29381737D01*
X47595923Y-29399192D01*
X47595820Y-29403693D01*
X47590091Y-29419580D01*
X47571500Y-29423615D01*
X47555570Y-29426483D01*
X47547077Y-29438269D01*
X47545375Y-29445103D01*
X47532423Y-29452923D01*
X47525590Y-29454625D01*
X47517770Y-29467577D01*
X47516276Y-29474375D01*
X47504767Y-29482230D01*
X47492394Y-29488806D01*
X47478693Y-29506653D01*
X47466293Y-29523282D01*
X47452619Y-29531076D01*
X47446586Y-29532760D01*
X47439616Y-29545730D01*
X47437914Y-29552564D01*
X47424962Y-29560384D01*
X47418128Y-29562086D01*
X47410308Y-29575038D01*
X47409123Y-29581790D01*
X47399841Y-29589692D01*
X47385104Y-29595759D01*
X47368862Y-29611498D01*
X47361462Y-29628071D01*
X47359803Y-29632894D01*
X47346808Y-29638538D01*
X47339974Y-29640240D01*
X47332154Y-29653192D01*
X47330452Y-29660026D01*
X47317500Y-29667846D01*
X47310667Y-29669548D01*
X47302847Y-29682500D01*
X47301662Y-29689252D01*
X47292380Y-29697153D01*
X47277642Y-29703220D01*
X47261400Y-29718960D01*
X47254000Y-29735533D01*
X47252341Y-29740356D01*
X47239347Y-29746000D01*
X47232513Y-29747702D01*
X47224693Y-29760653D01*
X47222991Y-29767487D01*
X47210039Y-29775307D01*
X47203205Y-29777009D01*
X47195385Y-29789961D01*
X47194200Y-29796713D01*
X47184918Y-29804615D01*
X47170181Y-29810682D01*
X47153939Y-29826421D01*
X47146539Y-29842994D01*
X47145955Y-29846331D01*
X47135404Y-29853461D01*
X47127124Y-29856252D01*
X47112472Y-29869595D01*
X47104156Y-29877475D01*
X47094988Y-29876526D01*
X47093779Y-29873030D01*
X47096648Y-29854739D01*
X47106902Y-29832066D01*
X47120425Y-29812771D01*
X47133105Y-29804615D01*
X47139346Y-29802927D01*
X47146539Y-29789961D01*
X47148241Y-29783127D01*
X47161193Y-29775307D01*
X47167939Y-29774166D01*
X47175847Y-29765209D01*
X47178862Y-29757659D01*
X47192562Y-29739973D01*
X47212023Y-29720089D01*
X47231329Y-29703863D01*
X47244568Y-29697153D01*
X47246603Y-29696931D01*
X47254000Y-29687721D01*
X47256986Y-29680098D01*
X47270554Y-29662238D01*
X47289826Y-29642159D01*
X47308945Y-29625775D01*
X47322056Y-29619000D01*
X47326705Y-29617344D01*
X47332154Y-29604346D01*
X47333856Y-29597512D01*
X47346808Y-29589692D01*
X47353544Y-29588629D01*
X47361462Y-29580259D01*
X47364448Y-29572636D01*
X47378016Y-29554777D01*
X47397288Y-29534698D01*
X47416407Y-29518314D01*
X47429517Y-29511538D01*
X47434166Y-29509882D01*
X47439616Y-29496884D01*
X47441318Y-29490050D01*
X47454270Y-29482230D01*
X47461013Y-29481110D01*
X47468923Y-29472304D01*
X47473732Y-29462978D01*
X47489627Y-29443570D01*
X47513268Y-29418235D01*
X47541158Y-29390355D01*
X47569800Y-29363315D01*
X47595696Y-29340496D01*
X47615350Y-29325283D01*
X47625265Y-29321059D01*
X47627599Y-29319949D01*
X47641775Y-29308230D01*
X47667067Y-29285264D01*
X47701681Y-29252811D01*
X47743826Y-29212633D01*
X47791710Y-29166490D01*
X47843539Y-29116143D01*
X47897523Y-29063353D01*
X47951868Y-29009882D01*
X48004782Y-28957489D01*
X48054472Y-28907936D01*
X48099147Y-28862985D01*
X48137015Y-28824395D01*
X48166282Y-28793927D01*
X48185157Y-28773343D01*
X48191847Y-28764404D01*
X48189258Y-28763744D01*
X48170636Y-28762549D01*
X48136018Y-28761485D01*
X48087736Y-28760590D01*
X48028119Y-28759903D01*
X47959500Y-28759463D01*
X47884208Y-28759307D01*
X47576569Y-28759307D01*
X47574035Y-28278173D01*
X47573974Y-28266659D01*
X47605693Y-28266659D01*
X47605717Y-28328292D01*
X47605902Y-28423928D01*
X47606313Y-28502594D01*
X47607002Y-28565934D01*
X47608021Y-28615594D01*
X47609421Y-28653219D01*
X47611255Y-28680454D01*
X47613575Y-28698945D01*
X47616432Y-28710336D01*
X47619878Y-28716273D01*
X47629228Y-28719684D01*
X47655771Y-28723347D01*
X47696186Y-28726310D01*
X47747689Y-28728581D01*
X47807496Y-28730166D01*
X47872826Y-28731072D01*
X47940893Y-28731306D01*
X48008915Y-28730874D01*
X48074109Y-28729785D01*
X48133691Y-28728043D01*
X48184877Y-28725657D01*
X48224885Y-28722633D01*
X48250931Y-28718978D01*
X48260231Y-28714699D01*
X48261926Y-28708180D01*
X48274885Y-28700692D01*
X48281719Y-28698990D01*
X48289539Y-28686038D01*
X48291241Y-28679204D01*
X48304193Y-28671384D01*
X48310934Y-28670282D01*
X48318847Y-28661615D01*
X48320500Y-28657121D01*
X48333500Y-28651846D01*
X48340258Y-28650624D01*
X48348154Y-28641072D01*
X48349710Y-28637172D01*
X48361919Y-28620831D01*
X48383625Y-28596462D01*
X48411654Y-28567730D01*
X48425691Y-28553659D01*
X48451062Y-28526793D01*
X48468604Y-28506195D01*
X48475154Y-28495465D01*
X48475414Y-28493204D01*
X48484570Y-28485769D01*
X48491321Y-28481986D01*
X48509794Y-28466790D01*
X48536117Y-28442659D01*
X48567018Y-28412500D01*
X48598892Y-28380059D01*
X48618230Y-28358761D01*
X48626494Y-28346384D01*
X48625212Y-28340637D01*
X48615911Y-28339230D01*
X48599187Y-28335830D01*
X48586149Y-28324577D01*
X48577407Y-28315379D01*
X48557148Y-28309923D01*
X48542204Y-28307089D01*
X48533770Y-28295269D01*
X48527730Y-28284984D01*
X48504462Y-28280615D01*
X48483844Y-28277356D01*
X48475154Y-28268040D01*
X48470422Y-28259889D01*
X48453318Y-28253820D01*
X48439358Y-28250712D01*
X48428081Y-28241972D01*
X48420308Y-28235433D01*
X48400764Y-28231769D01*
X48384275Y-28228407D01*
X48371226Y-28217115D01*
X48362484Y-28207918D01*
X48342224Y-28202461D01*
X48327280Y-28199628D01*
X48318847Y-28187807D01*
X48312806Y-28177522D01*
X48289539Y-28173153D01*
X48269037Y-28170071D01*
X48260231Y-28159414D01*
X48257043Y-28151591D01*
X48240811Y-28150753D01*
X48228513Y-28151457D01*
X48215343Y-28140069D01*
X48206173Y-28130118D01*
X48185610Y-28124307D01*
X48169363Y-28120986D01*
X48156302Y-28109653D01*
X48147561Y-28100456D01*
X48145437Y-28099884D01*
X48328616Y-28099884D01*
X48333500Y-28104769D01*
X48338385Y-28099884D01*
X48333500Y-28095000D01*
X48328616Y-28099884D01*
X48145437Y-28099884D01*
X48127301Y-28095000D01*
X48112357Y-28092166D01*
X48103923Y-28080346D01*
X48100575Y-28072013D01*
X48085177Y-28065692D01*
X48081236Y-28065398D01*
X48059185Y-28059260D01*
X48032880Y-28047913D01*
X48009967Y-28035002D01*
X47998090Y-28024173D01*
X47990417Y-28019479D01*
X47970918Y-28016846D01*
X47954429Y-28013484D01*
X47941379Y-28002192D01*
X47932638Y-27992995D01*
X47912378Y-27987538D01*
X47897262Y-27984711D01*
X47889000Y-27971745D01*
X47885205Y-27961493D01*
X47868864Y-27961217D01*
X47856192Y-27962136D01*
X47843396Y-27952587D01*
X47834642Y-27943794D01*
X47814379Y-27938692D01*
X47798132Y-27935370D01*
X47785072Y-27924038D01*
X47776947Y-27915081D01*
X47757116Y-27909384D01*
X47742285Y-27906308D01*
X47729160Y-27894730D01*
X47719613Y-27885251D01*
X47698807Y-27880076D01*
X47682586Y-27877198D01*
X47674077Y-27865423D01*
X47669297Y-27855864D01*
X47649654Y-27850769D01*
X47633592Y-27848343D01*
X47625231Y-27841000D01*
X47624947Y-27838664D01*
X47615462Y-27831230D01*
X47613284Y-27837843D01*
X47610999Y-27863387D01*
X47609111Y-27907793D01*
X47607628Y-27970692D01*
X47606558Y-28051715D01*
X47605910Y-28150494D01*
X47605693Y-28266659D01*
X47573974Y-28266659D01*
X47571500Y-27797038D01*
X47544635Y-27793947D01*
X47526218Y-27789332D01*
X47517770Y-27781735D01*
X47511709Y-27775738D01*
X47493347Y-27772615D01*
X47477416Y-27769747D01*
X47468923Y-27757961D01*
X47464066Y-27748349D01*
X47444194Y-27743307D01*
X47426852Y-27739806D01*
X47413841Y-27728653D01*
X47405716Y-27719697D01*
X47385885Y-27714000D01*
X47371055Y-27710923D01*
X47357929Y-27699346D01*
X47348382Y-27689866D01*
X47327576Y-27684692D01*
X47311216Y-27682233D01*
X47302847Y-27674923D01*
X47296783Y-27668498D01*
X47278423Y-27665153D01*
X47262493Y-27662285D01*
X47254000Y-27650500D01*
X47249143Y-27640888D01*
X47229271Y-27635846D01*
X47211929Y-27632344D01*
X47198918Y-27621192D01*
X47190793Y-27612235D01*
X47170962Y-27606538D01*
X47156132Y-27603462D01*
X47143006Y-27591884D01*
X47133459Y-27582404D01*
X47112653Y-27577230D01*
X47096293Y-27574772D01*
X47087923Y-27567461D01*
X47081860Y-27561036D01*
X47063500Y-27557692D01*
X47047570Y-27554824D01*
X47039077Y-27543038D01*
X47037375Y-27536204D01*
X47024423Y-27528384D01*
X47017590Y-27530086D01*
X47009770Y-27543038D01*
X47011472Y-27549872D01*
X47024423Y-27557692D01*
X47028107Y-27558218D01*
X47036522Y-27568947D01*
X47039077Y-27595724D01*
X47039123Y-27599377D01*
X47043061Y-27625848D01*
X47052126Y-27638763D01*
X47059486Y-27649769D01*
X47063646Y-27672188D01*
X47064161Y-27698308D01*
X47060900Y-27720521D01*
X47053731Y-27731224D01*
X47049932Y-27728720D01*
X47044419Y-27712142D01*
X47041009Y-27684820D01*
X47039246Y-27665176D01*
X47033534Y-27642761D01*
X47023873Y-27635846D01*
X47023289Y-27635965D01*
X47021197Y-27638915D01*
X47019338Y-27646561D01*
X47017701Y-27659893D01*
X47016277Y-27679900D01*
X47015056Y-27707572D01*
X47014028Y-27743899D01*
X47013183Y-27789869D01*
X47012511Y-27846472D01*
X47012002Y-27914698D01*
X47011646Y-27995536D01*
X47011434Y-28089975D01*
X47011355Y-28199006D01*
X47011399Y-28323617D01*
X47011556Y-28464797D01*
X47011818Y-28623537D01*
X47012172Y-28800827D01*
X47014654Y-29965807D01*
X48185208Y-29965807D01*
X48336967Y-29965799D01*
X48497071Y-29965760D01*
X48639554Y-29965675D01*
X48765452Y-29965530D01*
X48875796Y-29965308D01*
X48971622Y-29964996D01*
X49053962Y-29964577D01*
X49123851Y-29964038D01*
X49182322Y-29963364D01*
X49230409Y-29962538D01*
X49269146Y-29961547D01*
X49299566Y-29960375D01*
X49322703Y-29959008D01*
X49339591Y-29957430D01*
X49351264Y-29955626D01*
X49358755Y-29953581D01*
X49363099Y-29951282D01*
X49365328Y-29948711D01*
X49368047Y-29944755D01*
X49387854Y-29933438D01*
X49413318Y-29933845D01*
X49436028Y-29946269D01*
X49442655Y-29952517D01*
X49455064Y-29960090D01*
X49463420Y-29955910D01*
X49468469Y-29938038D01*
X49470953Y-29904534D01*
X49471616Y-29853461D01*
X49471446Y-29819886D01*
X49470341Y-29782916D01*
X49467840Y-29760342D01*
X49463521Y-29749069D01*
X49456962Y-29746000D01*
X49455897Y-29745953D01*
X49449117Y-29741570D01*
X49444963Y-29727689D01*
X49442879Y-29700971D01*
X49442308Y-29658077D01*
X49442793Y-29619947D01*
X49444879Y-29590307D01*
X49449032Y-29574698D01*
X49455705Y-29570153D01*
X49458128Y-29570728D01*
X49467456Y-29584824D01*
X49475683Y-29616824D01*
X49482687Y-29665430D01*
X49488346Y-29729347D01*
X49492539Y-29807279D01*
X49495144Y-29897928D01*
X49496039Y-30000000D01*
X49495985Y-30025828D01*
X49494662Y-30125238D01*
X49491660Y-30212911D01*
X49487099Y-30287551D01*
X49481101Y-30347860D01*
X49473789Y-30392543D01*
X49465283Y-30420304D01*
X49455705Y-30429846D01*
X49449895Y-30426663D01*
X49445379Y-30412973D01*
X49443001Y-30385715D01*
X49442308Y-30341923D01*
X49442316Y-30335533D01*
X49443046Y-30294854D01*
X49445360Y-30269931D01*
X49449813Y-30257426D01*
X49456962Y-30254000D01*
X49458621Y-30253854D01*
X49464142Y-30249507D01*
X49467886Y-30237004D01*
X49470169Y-30213500D01*
X49471307Y-30176151D01*
X49471616Y-30122115D01*
X49471600Y-30107182D01*
X49471117Y-30057496D01*
X49469727Y-30023802D01*
X49467116Y-30003255D01*
X49462966Y-29993013D01*
X49456962Y-29990230D01*
X49447404Y-29995011D01*
X49442308Y-30014653D01*
X49440414Y-30029820D01*
X49430459Y-30037413D01*
X49406750Y-30039077D01*
X49378952Y-30042999D01*
X49359424Y-30055171D01*
X49345934Y-30065534D01*
X49321313Y-30064654D01*
X49307294Y-30059376D01*
X49301032Y-30050213D01*
X49310991Y-30042389D01*
X49335423Y-30039077D01*
X49346391Y-30038633D01*
X49360679Y-30032589D01*
X49364154Y-30015722D01*
X49362418Y-30002668D01*
X49352043Y-29992758D01*
X49327520Y-29987307D01*
X49322742Y-29986982D01*
X49299124Y-29986362D01*
X49257859Y-29985793D01*
X49200211Y-29985281D01*
X49127445Y-29984828D01*
X49040825Y-29984438D01*
X48941615Y-29984115D01*
X48831079Y-29983863D01*
X48710483Y-29983685D01*
X48581089Y-29983586D01*
X48444163Y-29983569D01*
X48300968Y-29983638D01*
X48152770Y-29983796D01*
X47014654Y-29985346D01*
X47012173Y-31164980D01*
X47011912Y-31293577D01*
X47011619Y-31458181D01*
X47011421Y-31604951D01*
X47011329Y-31734883D01*
X47011351Y-31848972D01*
X47011500Y-31948212D01*
X47011785Y-32033601D01*
X47012216Y-32106132D01*
X47012803Y-32166803D01*
X47013558Y-32216607D01*
X47014490Y-32256541D01*
X47015610Y-32287600D01*
X47016928Y-32310780D01*
X47018454Y-32327076D01*
X47020198Y-32337484D01*
X47022172Y-32342998D01*
X47024384Y-32344615D01*
X47032101Y-32347768D01*
X47037516Y-32362768D01*
X47039077Y-32393461D01*
X47038140Y-32418973D01*
X47033639Y-32437078D01*
X47024423Y-32442307D01*
X47017590Y-32444009D01*
X47009770Y-32456961D01*
X47011472Y-32463795D01*
X47024423Y-32471615D01*
X47031257Y-32469913D01*
X47039077Y-32456961D01*
X47087923Y-32456961D01*
X47091550Y-32465507D01*
X47107462Y-32471615D01*
X47118856Y-32468895D01*
X47127000Y-32456961D01*
X47123374Y-32448416D01*
X47107462Y-32442307D01*
X47096068Y-32445027D01*
X47087923Y-32456961D01*
X47039077Y-32456961D01*
X47043858Y-32447403D01*
X47063500Y-32442307D01*
X47079563Y-32439882D01*
X47087923Y-32432538D01*
X47094148Y-32426075D01*
X47112653Y-32422769D01*
X47129995Y-32419267D01*
X47143006Y-32408115D01*
X47151131Y-32399158D01*
X47170962Y-32393461D01*
X47185792Y-32390385D01*
X47198918Y-32378807D01*
X47208465Y-32369327D01*
X47229271Y-32364153D01*
X47245492Y-32361275D01*
X47254000Y-32349500D01*
X47258781Y-32339941D01*
X47278423Y-32334846D01*
X47294486Y-32332420D01*
X47302847Y-32325077D01*
X47309071Y-32318614D01*
X47327576Y-32315307D01*
X47344918Y-32311806D01*
X47357929Y-32300653D01*
X47366054Y-32291697D01*
X47385885Y-32286000D01*
X47400715Y-32282923D01*
X47413841Y-32271346D01*
X47422764Y-32262082D01*
X47443149Y-32256692D01*
X47459396Y-32253370D01*
X47472456Y-32242038D01*
X47479139Y-32233750D01*
X47497925Y-32227384D01*
X47509569Y-32225638D01*
X47517770Y-32218264D01*
X47525120Y-32211166D01*
X47544635Y-32206052D01*
X47571500Y-32202961D01*
X47574019Y-31709693D01*
X47605693Y-31709693D01*
X47605900Y-31829439D01*
X47606515Y-31931699D01*
X47607531Y-32016133D01*
X47608941Y-32082399D01*
X47610738Y-32130154D01*
X47612914Y-32159058D01*
X47615462Y-32168769D01*
X47617797Y-32168485D01*
X47625231Y-32159000D01*
X47631295Y-32152574D01*
X47649654Y-32149230D01*
X47665585Y-32146362D01*
X47674077Y-32134577D01*
X47678597Y-32125209D01*
X47697455Y-32119923D01*
X47713382Y-32116656D01*
X47726456Y-32105269D01*
X47736004Y-32095789D01*
X47756809Y-32090615D01*
X47773163Y-32088425D01*
X47781539Y-32081905D01*
X47787674Y-32074608D01*
X47805962Y-32067065D01*
X47822096Y-32060612D01*
X47830385Y-32051352D01*
X47830387Y-32051233D01*
X47839114Y-32044545D01*
X47859693Y-32041769D01*
X47880263Y-32038749D01*
X47889000Y-32027115D01*
X47893520Y-32017748D01*
X47912378Y-32012461D01*
X47928305Y-32009194D01*
X47941379Y-31997807D01*
X47950303Y-31988543D01*
X47970687Y-31983153D01*
X47987007Y-31979592D01*
X48000420Y-31967391D01*
X48006791Y-31958856D01*
X48025888Y-31956707D01*
X48038124Y-31957652D01*
X48045308Y-31948047D01*
X48051884Y-31938435D01*
X48074616Y-31934307D01*
X48095186Y-31931287D01*
X48103923Y-31919653D01*
X48108444Y-31910286D01*
X48127301Y-31905000D01*
X48143228Y-31901733D01*
X48156302Y-31890346D01*
X48165850Y-31880866D01*
X48186655Y-31875692D01*
X48203009Y-31873502D01*
X48211385Y-31866982D01*
X48217520Y-31859684D01*
X48235808Y-31852142D01*
X48251942Y-31845689D01*
X48260231Y-31836429D01*
X48260233Y-31836310D01*
X48268960Y-31829622D01*
X48289539Y-31826846D01*
X48310109Y-31823826D01*
X48318847Y-31812192D01*
X48323367Y-31802825D01*
X48342224Y-31797538D01*
X48358151Y-31794271D01*
X48371226Y-31782884D01*
X48380149Y-31773620D01*
X48400533Y-31768230D01*
X48416732Y-31765074D01*
X48429550Y-31754335D01*
X48436183Y-31746729D01*
X48456458Y-31746081D01*
X48468465Y-31748284D01*
X48474664Y-31742831D01*
X48473506Y-31734038D01*
X48729154Y-31734038D01*
X48734039Y-31738923D01*
X48738923Y-31734038D01*
X48734039Y-31729153D01*
X48729154Y-31734038D01*
X48473506Y-31734038D01*
X48472097Y-31723342D01*
X48471653Y-31721179D01*
X48469453Y-31706487D01*
X48471471Y-31707173D01*
X48472710Y-31709346D01*
X48486925Y-31717615D01*
X48507395Y-31719385D01*
X48525787Y-31714981D01*
X48533770Y-31704730D01*
X48538550Y-31695172D01*
X48558193Y-31690077D01*
X48574223Y-31687220D01*
X48582616Y-31674724D01*
X48586411Y-31665177D01*
X48604597Y-31661151D01*
X48619206Y-31661995D01*
X48634542Y-31661850D01*
X48634925Y-31661677D01*
X48630574Y-31653674D01*
X48615491Y-31636188D01*
X48592981Y-31612472D01*
X48566346Y-31585776D01*
X48538888Y-31559352D01*
X48513909Y-31536452D01*
X48494714Y-31520328D01*
X48484603Y-31514230D01*
X48481927Y-31513798D01*
X48475154Y-31503710D01*
X48474340Y-31500433D01*
X48464113Y-31484448D01*
X48445917Y-31463952D01*
X48439282Y-31457586D01*
X48415693Y-31441505D01*
X48394629Y-31440190D01*
X48383001Y-31442405D01*
X48384789Y-31440057D01*
X48389464Y-31437223D01*
X48397000Y-31425493D01*
X48391977Y-31416485D01*
X48375961Y-31397367D01*
X48352846Y-31372745D01*
X48326661Y-31346623D01*
X48301438Y-31323006D01*
X48281208Y-31305899D01*
X48270000Y-31299307D01*
X48265506Y-31297654D01*
X48260231Y-31284653D01*
X48255451Y-31275095D01*
X48235808Y-31270000D01*
X48219729Y-31266960D01*
X48211386Y-31257788D01*
X48211360Y-31257459D01*
X48206570Y-31253912D01*
X48192343Y-31251169D01*
X48166996Y-31249168D01*
X48128846Y-31247851D01*
X48076210Y-31247156D01*
X48007406Y-31247023D01*
X47920752Y-31247393D01*
X47897532Y-31247540D01*
X47825310Y-31248020D01*
X47759957Y-31248488D01*
X47704006Y-31248924D01*
X47659990Y-31249308D01*
X47630445Y-31249619D01*
X47617904Y-31249836D01*
X47615047Y-31253610D01*
X47612559Y-31266039D01*
X47610521Y-31288482D01*
X47608895Y-31322299D01*
X47607646Y-31368850D01*
X47606737Y-31429497D01*
X47606133Y-31505600D01*
X47605797Y-31598519D01*
X47605693Y-31709615D01*
X47605693Y-31709693D01*
X47574019Y-31709693D01*
X47574032Y-31707173D01*
X47576564Y-31211384D01*
X47869551Y-31211384D01*
X47896826Y-31211364D01*
X47968065Y-31211108D01*
X48031707Y-31210589D01*
X48085364Y-31209846D01*
X48126647Y-31208917D01*
X48153168Y-31207841D01*
X48162539Y-31206657D01*
X48156121Y-31198895D01*
X48137594Y-31179207D01*
X48108796Y-31149458D01*
X48071571Y-31111488D01*
X48027762Y-31067139D01*
X47979212Y-31018251D01*
X47927764Y-30966666D01*
X47875260Y-30914222D01*
X47823544Y-30862763D01*
X47774459Y-30814127D01*
X47729847Y-30770157D01*
X47691552Y-30732692D01*
X47661416Y-30703574D01*
X47641283Y-30684643D01*
X47632994Y-30677740D01*
X47617639Y-30675298D01*
X47608627Y-30670738D01*
X47590286Y-30656045D01*
X47570098Y-30636663D01*
X47553786Y-30618195D01*
X47547077Y-30606243D01*
X47546740Y-30603450D01*
X47538060Y-30595923D01*
X47529540Y-30592066D01*
X47511697Y-30577745D01*
X47491790Y-30558235D01*
X47475604Y-30539321D01*
X47468923Y-30526787D01*
X47467276Y-30522645D01*
X47454270Y-30517769D01*
X47447436Y-30516067D01*
X47439616Y-30503115D01*
X47438431Y-30496363D01*
X47429149Y-30488461D01*
X47414411Y-30482394D01*
X47398170Y-30466655D01*
X47390770Y-30450082D01*
X47389111Y-30445259D01*
X47376116Y-30439615D01*
X47369282Y-30437913D01*
X47361462Y-30424961D01*
X47359760Y-30418127D01*
X47346808Y-30410307D01*
X47339974Y-30408605D01*
X47332154Y-30395653D01*
X47331013Y-30388907D01*
X47322056Y-30381000D01*
X47314506Y-30377984D01*
X47296820Y-30364284D01*
X47276936Y-30344823D01*
X47260710Y-30325517D01*
X47254000Y-30312278D01*
X47253778Y-30310243D01*
X47244568Y-30302846D01*
X47236945Y-30299860D01*
X47219085Y-30286292D01*
X47199006Y-30267020D01*
X47182622Y-30247901D01*
X47175847Y-30234790D01*
X47174191Y-30230141D01*
X47161193Y-30224692D01*
X47154359Y-30222990D01*
X47146539Y-30210038D01*
X47144837Y-30203204D01*
X47131885Y-30195384D01*
X47125051Y-30193682D01*
X47117231Y-30180730D01*
X47116129Y-30173989D01*
X47107462Y-30166077D01*
X47101784Y-30162413D01*
X47097693Y-30146538D01*
X47099525Y-30135182D01*
X47107462Y-30127000D01*
X47109797Y-30127283D01*
X47117231Y-30136769D01*
X47118884Y-30141263D01*
X47131885Y-30146538D01*
X47138637Y-30147723D01*
X47146539Y-30157005D01*
X47152606Y-30171743D01*
X47168345Y-30187984D01*
X47184918Y-30195384D01*
X47189741Y-30197043D01*
X47195385Y-30210038D01*
X47197087Y-30216872D01*
X47210039Y-30224692D01*
X47216873Y-30226394D01*
X47224693Y-30239346D01*
X47226395Y-30246180D01*
X47239347Y-30254000D01*
X47246099Y-30255185D01*
X47254000Y-30264467D01*
X47260067Y-30279204D01*
X47275807Y-30295446D01*
X47292380Y-30302846D01*
X47297203Y-30304505D01*
X47302847Y-30317500D01*
X47304549Y-30324333D01*
X47317500Y-30332153D01*
X47324334Y-30333856D01*
X47332154Y-30346807D01*
X47333856Y-30353641D01*
X47346808Y-30361461D01*
X47353560Y-30362646D01*
X47361462Y-30371928D01*
X47367529Y-30386666D01*
X47383268Y-30402907D01*
X47399841Y-30410307D01*
X47404664Y-30411966D01*
X47410308Y-30424961D01*
X47412010Y-30431795D01*
X47424962Y-30439615D01*
X47431796Y-30441317D01*
X47439616Y-30454269D01*
X47441110Y-30461068D01*
X47452619Y-30468923D01*
X47464991Y-30475498D01*
X47478693Y-30493346D01*
X47491093Y-30509974D01*
X47504767Y-30517769D01*
X47510800Y-30519452D01*
X47517770Y-30532423D01*
X47519472Y-30539257D01*
X47532423Y-30547077D01*
X47539257Y-30548779D01*
X47547077Y-30561730D01*
X47551858Y-30571289D01*
X47571500Y-30576384D01*
X47576001Y-30576487D01*
X47591889Y-30582216D01*
X47595923Y-30600807D01*
X47595925Y-30601336D01*
X47600521Y-30620004D01*
X47616537Y-30625230D01*
X47622474Y-30626987D01*
X47644011Y-30641532D01*
X47677949Y-30670636D01*
X47724074Y-30714110D01*
X47782176Y-30771769D01*
X47796326Y-30786018D01*
X47838799Y-30828183D01*
X47876312Y-30864541D01*
X47906697Y-30893047D01*
X47927785Y-30911651D01*
X47937409Y-30918307D01*
X47940113Y-30918644D01*
X47947616Y-30927702D01*
X47952252Y-30937203D01*
X47967592Y-30956422D01*
X47989170Y-30979637D01*
X48012296Y-31002099D01*
X48032281Y-31019060D01*
X48044437Y-31025769D01*
X48047523Y-31026176D01*
X48055077Y-31035218D01*
X48059088Y-31042053D01*
X48074028Y-31060124D01*
X48096761Y-31085324D01*
X48123812Y-31114041D01*
X48151707Y-31142663D01*
X48176972Y-31167579D01*
X48196135Y-31185177D01*
X48205722Y-31191846D01*
X48206051Y-31191334D01*
X48207521Y-31177822D01*
X48209004Y-31147773D01*
X48210430Y-31103625D01*
X48211731Y-31047817D01*
X48212836Y-30982789D01*
X48213678Y-30910980D01*
X48215641Y-30698253D01*
X48242353Y-30698253D01*
X48243445Y-30710903D01*
X48245114Y-30725755D01*
X48245538Y-30730963D01*
X48247034Y-30760553D01*
X48248293Y-30802716D01*
X48249302Y-30854240D01*
X48250050Y-30911914D01*
X48250523Y-30972529D01*
X48250711Y-31032873D01*
X48250602Y-31089735D01*
X48250182Y-31139906D01*
X48249442Y-31180173D01*
X48248367Y-31207326D01*
X48246948Y-31218155D01*
X48248415Y-31222433D01*
X48260558Y-31237888D01*
X48281867Y-31261396D01*
X48309208Y-31289841D01*
X48339447Y-31320105D01*
X48369452Y-31349070D01*
X48396087Y-31373619D01*
X48416220Y-31390635D01*
X48426717Y-31397000D01*
X48431019Y-31398650D01*
X48436077Y-31411653D01*
X48437180Y-31418395D01*
X48445847Y-31426307D01*
X48450341Y-31427961D01*
X48455616Y-31440961D01*
X48456825Y-31447717D01*
X48466289Y-31455615D01*
X48475034Y-31460643D01*
X48495015Y-31477173D01*
X48522564Y-31502491D01*
X48554488Y-31533769D01*
X48582463Y-31561618D01*
X48609460Y-31587700D01*
X48628734Y-31605401D01*
X48637320Y-31611923D01*
X48643228Y-31614721D01*
X48657281Y-31626577D01*
X48667371Y-31635005D01*
X48681006Y-31641230D01*
X48685173Y-31639583D01*
X48690077Y-31626577D01*
X48696117Y-31616292D01*
X48719385Y-31611923D01*
X48739955Y-31608903D01*
X48748693Y-31597269D01*
X48753213Y-31587902D01*
X48772071Y-31582615D01*
X48787997Y-31579348D01*
X48801072Y-31567961D01*
X48810619Y-31558481D01*
X48831425Y-31553307D01*
X48847785Y-31550848D01*
X48856154Y-31543538D01*
X48862218Y-31537113D01*
X48880577Y-31533769D01*
X48896508Y-31530901D01*
X48905000Y-31519115D01*
X48908728Y-31510461D01*
X48925005Y-31504461D01*
X48925847Y-31504441D01*
X48946364Y-31496951D01*
X48967645Y-31480038D01*
X48969305Y-31478278D01*
X48987692Y-31462214D01*
X49001371Y-31455615D01*
X49001516Y-31455612D01*
X49009252Y-31446879D01*
X49012462Y-31426307D01*
X49015482Y-31405737D01*
X49027116Y-31397000D01*
X49033950Y-31395297D01*
X49041770Y-31382346D01*
X49043356Y-31375532D01*
X49055509Y-31367692D01*
X49063332Y-31364504D01*
X49064170Y-31348272D01*
X49063467Y-31335973D01*
X49074854Y-31322804D01*
X49082692Y-31317982D01*
X49090616Y-31303147D01*
X49092306Y-31296821D01*
X49105270Y-31289538D01*
X49114637Y-31285018D01*
X49119923Y-31266160D01*
X49123190Y-31250234D01*
X49134577Y-31237159D01*
X49144057Y-31227612D01*
X49149231Y-31206806D01*
X49151690Y-31190446D01*
X49159000Y-31182077D01*
X49165426Y-31176013D01*
X49168770Y-31157653D01*
X49171638Y-31141723D01*
X49183423Y-31133230D01*
X49193708Y-31127190D01*
X49198077Y-31103923D01*
X49201097Y-31083353D01*
X49212731Y-31074615D01*
X49222098Y-31070095D01*
X49227385Y-31051237D01*
X49230652Y-31035311D01*
X49242039Y-31022236D01*
X49251519Y-31012689D01*
X49256693Y-30991883D01*
X49259152Y-30975523D01*
X49266462Y-30967153D01*
X49272887Y-30961090D01*
X49276231Y-30942730D01*
X49279099Y-30926800D01*
X49290885Y-30918307D01*
X49295098Y-30917598D01*
X49303119Y-30906402D01*
X49305539Y-30879230D01*
X49305805Y-30867996D01*
X49310003Y-30846606D01*
X49320193Y-30840153D01*
X49326408Y-30838366D01*
X49332929Y-30825168D01*
X49334847Y-30796192D01*
X49334947Y-30788611D01*
X49338587Y-30761255D01*
X49347547Y-30752230D01*
X49347928Y-30752221D01*
X49357044Y-30742576D01*
X49360247Y-30716247D01*
X49360381Y-30710765D01*
X49364306Y-30687721D01*
X49371970Y-30676356D01*
X49380463Y-30672832D01*
X49382951Y-30668974D01*
X49375425Y-30665685D01*
X49356827Y-30662921D01*
X49326099Y-30660642D01*
X49282183Y-30658805D01*
X49224020Y-30657367D01*
X49150553Y-30656288D01*
X49060723Y-30655525D01*
X48953471Y-30655036D01*
X48827741Y-30654780D01*
X48795078Y-30654739D01*
X48677645Y-30654564D01*
X48577957Y-30654499D01*
X48494585Y-30654719D01*
X48426097Y-30655397D01*
X48371063Y-30656709D01*
X48328052Y-30658827D01*
X48295634Y-30661928D01*
X48272377Y-30666184D01*
X48256851Y-30671770D01*
X48247626Y-30678861D01*
X48243270Y-30687631D01*
X48242353Y-30698253D01*
X48215641Y-30698253D01*
X48216270Y-30630115D01*
X48804866Y-30627596D01*
X49393462Y-30625078D01*
X49393462Y-30600731D01*
X49395663Y-30582193D01*
X49401969Y-30577176D01*
X49409774Y-30587924D01*
X49416426Y-30613019D01*
X49415697Y-30640422D01*
X49410118Y-30668974D01*
X49407320Y-30683292D01*
X49392142Y-30738275D01*
X49371116Y-30802634D01*
X49345191Y-30873628D01*
X49315321Y-30948520D01*
X49282457Y-31024569D01*
X49247550Y-31099038D01*
X49235170Y-31124030D01*
X49137979Y-31300838D01*
X49029702Y-31464601D01*
X48907535Y-31619241D01*
X48868102Y-31661677D01*
X48800863Y-31734038D01*
X48768676Y-31768676D01*
X48749422Y-31787754D01*
X48599584Y-31924240D01*
X48443928Y-32044488D01*
X48278423Y-32151381D01*
X48099039Y-32247806D01*
X48079398Y-32257306D01*
X48015621Y-32286482D01*
X47948558Y-32314992D01*
X47880564Y-32342041D01*
X47813995Y-32366836D01*
X47751205Y-32388584D01*
X47694551Y-32406493D01*
X47646386Y-32419767D01*
X47609067Y-32427615D01*
X47584948Y-32429242D01*
X47576385Y-32423856D01*
X47576178Y-32421488D01*
X47567983Y-32413543D01*
X47554190Y-32415936D01*
X47543545Y-32427653D01*
X47543300Y-32428247D01*
X47533721Y-32436557D01*
X47511841Y-32440995D01*
X47474115Y-32442307D01*
X47465618Y-32442345D01*
X47432719Y-32443902D01*
X47415368Y-32448253D01*
X47410308Y-32456102D01*
X47410224Y-32456961D01*
X47410100Y-32458220D01*
X47404816Y-32465366D01*
X47390458Y-32471552D01*
X47364423Y-32477403D01*
X47324113Y-32483547D01*
X47266925Y-32490608D01*
X47252778Y-32492041D01*
X47202465Y-32495314D01*
X47138969Y-32497615D01*
X47066934Y-32498941D01*
X46991001Y-32499290D01*
X46915810Y-32498660D01*
X46846005Y-32497049D01*
X46786226Y-32494454D01*
X46741116Y-32490872D01*
X46699639Y-32486072D01*
X46652963Y-32479980D01*
X46621291Y-32474530D01*
X46601963Y-32469105D01*
X46592317Y-32463092D01*
X46589693Y-32455874D01*
X46589644Y-32454915D01*
X46583085Y-32447461D01*
X46563319Y-32443483D01*
X46527238Y-32442307D01*
X46527125Y-32442307D01*
X46489804Y-32440928D01*
X46468325Y-32436297D01*
X46459160Y-32427653D01*
X46457093Y-32423710D01*
X46444382Y-32414515D01*
X46430279Y-32414249D01*
X46423616Y-32423856D01*
X46422682Y-32426426D01*
X46408801Y-32429444D01*
X46380131Y-32425707D01*
X46339026Y-32416007D01*
X46287842Y-32401138D01*
X46228933Y-32381894D01*
X46164656Y-32359068D01*
X46097365Y-32333452D01*
X46029415Y-32305841D01*
X45963163Y-32277028D01*
X45900962Y-32247806D01*
X45876725Y-32235766D01*
X45699372Y-32138144D01*
X45620124Y-32085730D01*
X46062154Y-32085730D01*
X46067039Y-32090615D01*
X46071923Y-32085730D01*
X46067039Y-32080846D01*
X46062154Y-32085730D01*
X45620124Y-32085730D01*
X45535375Y-32029678D01*
X45433205Y-31948961D01*
X45524847Y-31948961D01*
X45529731Y-31953846D01*
X45534616Y-31948961D01*
X45529731Y-31944077D01*
X45524847Y-31948961D01*
X45433205Y-31948961D01*
X45380703Y-31907483D01*
X45231324Y-31768676D01*
X45131462Y-31661594D01*
X45364164Y-31661594D01*
X45370337Y-31664771D01*
X45387968Y-31663628D01*
X45400257Y-31662927D01*
X45413427Y-31674314D01*
X45422414Y-31684194D01*
X45442853Y-31690077D01*
X45457797Y-31692910D01*
X45466231Y-31704730D01*
X45472271Y-31715015D01*
X45495539Y-31719384D01*
X45516109Y-31722404D01*
X45524847Y-31734038D01*
X45529627Y-31743596D01*
X45549270Y-31748692D01*
X45565332Y-31751117D01*
X45573693Y-31758461D01*
X45579917Y-31764924D01*
X45598422Y-31768230D01*
X45615764Y-31771732D01*
X45628775Y-31782884D01*
X45637517Y-31792081D01*
X45657776Y-31797538D01*
X45672720Y-31800371D01*
X45681154Y-31812192D01*
X45687194Y-31822477D01*
X45710462Y-31826846D01*
X45730964Y-31829929D01*
X45739770Y-31840585D01*
X45742958Y-31848408D01*
X45759189Y-31849246D01*
X45771488Y-31848543D01*
X45784658Y-31859930D01*
X45793828Y-31869881D01*
X45814391Y-31875692D01*
X45830638Y-31879013D01*
X45843698Y-31890346D01*
X45852440Y-31899543D01*
X45872699Y-31905000D01*
X45887643Y-31907833D01*
X45896077Y-31919653D01*
X45900935Y-31929265D01*
X45920807Y-31934307D01*
X45938149Y-31937809D01*
X45951160Y-31948961D01*
X45959901Y-31958158D01*
X45980161Y-31963615D01*
X45995212Y-31965924D01*
X46003539Y-31973384D01*
X46009064Y-31979674D01*
X46026917Y-31983153D01*
X46042843Y-31986420D01*
X46055918Y-31997807D01*
X46065465Y-32007287D01*
X46086271Y-32012461D01*
X46102492Y-32015339D01*
X46111000Y-32027115D01*
X46115636Y-32036570D01*
X46134847Y-32041769D01*
X46151265Y-32043976D01*
X46164731Y-32051538D01*
X46171208Y-32056890D01*
X46190037Y-32061307D01*
X46201647Y-32063773D01*
X46214929Y-32075961D01*
X46223670Y-32085158D01*
X46225794Y-32085730D01*
X46243930Y-32090615D01*
X46258874Y-32093448D01*
X46267308Y-32105269D01*
X46273348Y-32115554D01*
X46296616Y-32119923D01*
X46317186Y-32122943D01*
X46325923Y-32134577D01*
X46329852Y-32143434D01*
X46346827Y-32149230D01*
X46360931Y-32152259D01*
X46380493Y-32166327D01*
X46382491Y-32167897D01*
X46385202Y-32164711D01*
X46387452Y-32153394D01*
X46389283Y-32132518D01*
X46390741Y-32100659D01*
X46391868Y-32056391D01*
X46392708Y-31998288D01*
X46393304Y-31924924D01*
X46393701Y-31834874D01*
X46393942Y-31726711D01*
X46394628Y-31270000D01*
X46072606Y-31270000D01*
X45750584Y-31270000D01*
X45637715Y-31382034D01*
X45611980Y-31407846D01*
X45577362Y-31443514D01*
X45549743Y-31473139D01*
X45531460Y-31494193D01*
X45524847Y-31504149D01*
X45524524Y-31506747D01*
X45515334Y-31514230D01*
X45505391Y-31519444D01*
X45486203Y-31535276D01*
X45463123Y-31557151D01*
X45440837Y-31580383D01*
X45424029Y-31600288D01*
X45417385Y-31612180D01*
X45417123Y-31614377D01*
X45407727Y-31621692D01*
X45397161Y-31625097D01*
X45380621Y-31636818D01*
X45367362Y-31651054D01*
X45364164Y-31661594D01*
X45131462Y-31661594D01*
X45100669Y-31628575D01*
X44972007Y-31466823D01*
X44858611Y-31295790D01*
X44758440Y-31112643D01*
X44748232Y-31091687D01*
X44720953Y-31032504D01*
X44693618Y-30969124D01*
X44667099Y-30904002D01*
X44642273Y-30839595D01*
X44620015Y-30778358D01*
X44601199Y-30722748D01*
X44586699Y-30675220D01*
X44577392Y-30638231D01*
X44576296Y-30630115D01*
X44616302Y-30630115D01*
X44616305Y-30651051D01*
X44619158Y-30664426D01*
X44631202Y-30677701D01*
X44640217Y-30685605D01*
X44640193Y-30706937D01*
X44638951Y-30713656D01*
X44643006Y-30733902D01*
X44661834Y-30755998D01*
X44667882Y-30761913D01*
X44678770Y-30775933D01*
X44677266Y-30781538D01*
X44668708Y-30789647D01*
X44665154Y-30810846D01*
X44668174Y-30831416D01*
X44679808Y-30840153D01*
X44684021Y-30840863D01*
X44692042Y-30852059D01*
X44694462Y-30879230D01*
X44694728Y-30890465D01*
X44698927Y-30911855D01*
X44709116Y-30918307D01*
X44718483Y-30922827D01*
X44723770Y-30941685D01*
X44727037Y-30957612D01*
X44738423Y-30970686D01*
X44747903Y-30980233D01*
X44753077Y-31001039D01*
X44755536Y-31017399D01*
X44762847Y-31025769D01*
X44769272Y-31031832D01*
X44772616Y-31050192D01*
X44775484Y-31066123D01*
X44787270Y-31074615D01*
X44797555Y-31080655D01*
X44801923Y-31103923D01*
X44804944Y-31124492D01*
X44816577Y-31133230D01*
X44825945Y-31137750D01*
X44831231Y-31156608D01*
X44834642Y-31172577D01*
X44846559Y-31185868D01*
X44855111Y-31192366D01*
X44855654Y-31211384D01*
X44854045Y-31224365D01*
X44864750Y-31236901D01*
X44874362Y-31245791D01*
X44880077Y-31266160D01*
X44882911Y-31281104D01*
X44894731Y-31289538D01*
X44901542Y-31291108D01*
X44909385Y-31303147D01*
X44910780Y-31309606D01*
X44923281Y-31322088D01*
X44930624Y-31328376D01*
X44931910Y-31347556D01*
X44931139Y-31361892D01*
X44942438Y-31367692D01*
X44950325Y-31369663D01*
X44958231Y-31382346D01*
X44959933Y-31389180D01*
X44972885Y-31397000D01*
X44983170Y-31403040D01*
X44987539Y-31426307D01*
X44987540Y-31426691D01*
X44990845Y-31447132D01*
X44998630Y-31455615D01*
X44999488Y-31455678D01*
X45013925Y-31463384D01*
X45032356Y-31480038D01*
X45033304Y-31481043D01*
X45054798Y-31497616D01*
X45074995Y-31504461D01*
X45086810Y-31507191D01*
X45095000Y-31519115D01*
X45099781Y-31528673D01*
X45119423Y-31533769D01*
X45135486Y-31536194D01*
X45143847Y-31543538D01*
X45150071Y-31550001D01*
X45168576Y-31553307D01*
X45185918Y-31556809D01*
X45198929Y-31567961D01*
X45207852Y-31577225D01*
X45228237Y-31582615D01*
X45244484Y-31585936D01*
X45257545Y-31597269D01*
X45266286Y-31606466D01*
X45286546Y-31611923D01*
X45301490Y-31614756D01*
X45309923Y-31626577D01*
X45312611Y-31634312D01*
X45327020Y-31640416D01*
X45332880Y-31639301D01*
X45352950Y-31627812D01*
X45370676Y-31609753D01*
X45378308Y-31592384D01*
X45378770Y-31589543D01*
X45388949Y-31582615D01*
X45398330Y-31577919D01*
X45417304Y-31562381D01*
X45440224Y-31540526D01*
X45462401Y-31517102D01*
X45479146Y-31496860D01*
X45485770Y-31484548D01*
X45486228Y-31481824D01*
X45496410Y-31475153D01*
X45505791Y-31470458D01*
X45524765Y-31454920D01*
X45547686Y-31433064D01*
X45569863Y-31409641D01*
X45586608Y-31389398D01*
X45593231Y-31377086D01*
X45593604Y-31374579D01*
X45603472Y-31367692D01*
X45608826Y-31365090D01*
X45626289Y-31351275D01*
X45651641Y-31328241D01*
X45681433Y-31299025D01*
X45749153Y-31230358D01*
X45750736Y-30937325D01*
X45750861Y-30910759D01*
X45751001Y-30839089D01*
X45750846Y-30774769D01*
X45750420Y-30720235D01*
X45749747Y-30677925D01*
X45748851Y-30650278D01*
X45747756Y-30639730D01*
X45740712Y-30639018D01*
X45715725Y-30638114D01*
X45674362Y-30637198D01*
X45618362Y-30636290D01*
X45549466Y-30635413D01*
X45469416Y-30634587D01*
X45379953Y-30633836D01*
X45282817Y-30633180D01*
X45179748Y-30632641D01*
X44616302Y-30630115D01*
X44576296Y-30630115D01*
X44574152Y-30614236D01*
X44577854Y-30605692D01*
X44582056Y-30604044D01*
X44587000Y-30591038D01*
X44589176Y-30581938D01*
X44598902Y-30576615D01*
X44608167Y-30585965D01*
X44608326Y-30586177D01*
X44620563Y-30588339D01*
X44651635Y-30590338D01*
X44700897Y-30592162D01*
X44767708Y-30593797D01*
X44851425Y-30595229D01*
X44951404Y-30596445D01*
X45067002Y-30597432D01*
X45197577Y-30598176D01*
X45783731Y-30600807D01*
X45785816Y-30839089D01*
X45786317Y-30896327D01*
X45786595Y-30925766D01*
X45787449Y-30997160D01*
X45788464Y-31060906D01*
X45789586Y-31114625D01*
X45790761Y-31155940D01*
X45791934Y-31182473D01*
X45793051Y-31191846D01*
X45800043Y-31187186D01*
X45817675Y-31171263D01*
X45842108Y-31147448D01*
X45869874Y-31119318D01*
X45897507Y-31090450D01*
X45921538Y-31064420D01*
X45938499Y-31044806D01*
X45944923Y-31035185D01*
X45946574Y-31030857D01*
X45959577Y-31025769D01*
X45966411Y-31024067D01*
X45974231Y-31011115D01*
X45975372Y-31004369D01*
X45984330Y-30996461D01*
X45991879Y-30993446D01*
X46009565Y-30979746D01*
X46029450Y-30960285D01*
X46045675Y-30940978D01*
X46052385Y-30927740D01*
X46052817Y-30925068D01*
X46062906Y-30918307D01*
X46065884Y-30917620D01*
X46081676Y-30907703D01*
X46101983Y-30889751D01*
X46108203Y-30883278D01*
X46124149Y-30863678D01*
X46130539Y-30850674D01*
X46132198Y-30845826D01*
X46145193Y-30840153D01*
X46152027Y-30838451D01*
X46159847Y-30825500D01*
X46160988Y-30818753D01*
X46169945Y-30810846D01*
X46177494Y-30807831D01*
X46195181Y-30794130D01*
X46215065Y-30774670D01*
X46231290Y-30755363D01*
X46238000Y-30742124D01*
X46238364Y-30739631D01*
X46248196Y-30732692D01*
X46249416Y-30732445D01*
X46262735Y-30723596D01*
X46284567Y-30704607D01*
X46310850Y-30678961D01*
X46340619Y-30651184D01*
X46366306Y-30632233D01*
X46383693Y-30625230D01*
X46383870Y-30625230D01*
X46399634Y-30619817D01*
X46404077Y-30600807D01*
X46404180Y-30596306D01*
X46409909Y-30580419D01*
X46428500Y-30576384D01*
X46444431Y-30573516D01*
X46452923Y-30561730D01*
X46454626Y-30554896D01*
X46467577Y-30547077D01*
X46474411Y-30545374D01*
X46482231Y-30532423D01*
X46483725Y-30525624D01*
X46495234Y-30517769D01*
X46507606Y-30511194D01*
X46521308Y-30493346D01*
X46533708Y-30476717D01*
X46547382Y-30468923D01*
X46553415Y-30467239D01*
X46560385Y-30454269D01*
X46562087Y-30447435D01*
X46575039Y-30439615D01*
X46581873Y-30437913D01*
X46589693Y-30424961D01*
X46590878Y-30418209D01*
X46600160Y-30410307D01*
X46614897Y-30404240D01*
X46631139Y-30388501D01*
X46638539Y-30371928D01*
X46640198Y-30367105D01*
X46653193Y-30361461D01*
X46660027Y-30359759D01*
X46667847Y-30346807D01*
X46669549Y-30339973D01*
X46682500Y-30332153D01*
X46689334Y-30330451D01*
X46697154Y-30317500D01*
X46698339Y-30310747D01*
X46707621Y-30302846D01*
X46722359Y-30296779D01*
X46738601Y-30281039D01*
X46746000Y-30264467D01*
X46747660Y-30259644D01*
X46760654Y-30254000D01*
X46767488Y-30252297D01*
X46775308Y-30239346D01*
X46777010Y-30232512D01*
X46789962Y-30224692D01*
X46796796Y-30222990D01*
X46804616Y-30210038D01*
X46805801Y-30203286D01*
X46815083Y-30195384D01*
X46829820Y-30189317D01*
X46846062Y-30173578D01*
X46853462Y-30157005D01*
X46854761Y-30152554D01*
X46867071Y-30146538D01*
X46874931Y-30144223D01*
X46886929Y-30130251D01*
X46893047Y-30120724D01*
X46903701Y-30124485D01*
X46906132Y-30128984D01*
X46904398Y-30147080D01*
X46894544Y-30169047D01*
X46880454Y-30187583D01*
X46866009Y-30195384D01*
X46861214Y-30196104D01*
X46853462Y-30204817D01*
X46850476Y-30212440D01*
X46836908Y-30230299D01*
X46817636Y-30250378D01*
X46798517Y-30266762D01*
X46785407Y-30273538D01*
X46780757Y-30275194D01*
X46775308Y-30288192D01*
X46773606Y-30295026D01*
X46760654Y-30302846D01*
X46753820Y-30304548D01*
X46746000Y-30317500D01*
X46744298Y-30324333D01*
X46731347Y-30332153D01*
X46724594Y-30333338D01*
X46716693Y-30342620D01*
X46710626Y-30357358D01*
X46694886Y-30373600D01*
X46678314Y-30381000D01*
X46673491Y-30382659D01*
X46667847Y-30395653D01*
X46666144Y-30402487D01*
X46653193Y-30410307D01*
X46646457Y-30411370D01*
X46638539Y-30419740D01*
X46635553Y-30427363D01*
X46621985Y-30445222D01*
X46602713Y-30465301D01*
X46583594Y-30481685D01*
X46570484Y-30488461D01*
X46565834Y-30490117D01*
X46560385Y-30503115D01*
X46558683Y-30509949D01*
X46545731Y-30517769D01*
X46538985Y-30518910D01*
X46531077Y-30527867D01*
X46528062Y-30535417D01*
X46514362Y-30553103D01*
X46494901Y-30572987D01*
X46475595Y-30589213D01*
X46462356Y-30595923D01*
X46460332Y-30596134D01*
X46452923Y-30604996D01*
X46452810Y-30606244D01*
X46444589Y-30621309D01*
X46427151Y-30641545D01*
X46405826Y-30661827D01*
X46385945Y-30677026D01*
X46372839Y-30682015D01*
X46371146Y-30682722D01*
X46357793Y-30693413D01*
X46333132Y-30715540D01*
X46298974Y-30747326D01*
X46257133Y-30786995D01*
X46209421Y-30832769D01*
X46157650Y-30882873D01*
X46103633Y-30935529D01*
X46049183Y-30988962D01*
X45996112Y-31041394D01*
X45946233Y-31091049D01*
X45901358Y-31136151D01*
X45863300Y-31174922D01*
X45833872Y-31205586D01*
X45814886Y-31226368D01*
X45808154Y-31235489D01*
X45810743Y-31236163D01*
X45829365Y-31237382D01*
X45863983Y-31238469D01*
X45912265Y-31239382D01*
X45971882Y-31240084D01*
X46040501Y-31240533D01*
X46115793Y-31240692D01*
X46423432Y-31240692D01*
X46423586Y-31270000D01*
X46425966Y-31721827D01*
X46428500Y-32202961D01*
X46455366Y-32206052D01*
X46473783Y-32210667D01*
X46482231Y-32218264D01*
X46486032Y-32223615D01*
X46502076Y-32227384D01*
X46514293Y-32229971D01*
X46527545Y-32242038D01*
X46538540Y-32251998D01*
X46561430Y-32256692D01*
X46581006Y-32259681D01*
X46589693Y-32271346D01*
X46594213Y-32280713D01*
X46613071Y-32286000D01*
X46628997Y-32289267D01*
X46642072Y-32300653D01*
X46651619Y-32310133D01*
X46672425Y-32315307D01*
X46688785Y-32317766D01*
X46697154Y-32325077D01*
X46703218Y-32331502D01*
X46721577Y-32334846D01*
X46737508Y-32337714D01*
X46746000Y-32349500D01*
X46750858Y-32359111D01*
X46770730Y-32364153D01*
X46788072Y-32367655D01*
X46801083Y-32378807D01*
X46809208Y-32387764D01*
X46829039Y-32393461D01*
X46843869Y-32396537D01*
X46856995Y-32408115D01*
X46866542Y-32417595D01*
X46887348Y-32422769D01*
X46903708Y-32425228D01*
X46912077Y-32432538D01*
X46918141Y-32438963D01*
X46936500Y-32442307D01*
X46952431Y-32445175D01*
X46960923Y-32456961D01*
X46962626Y-32463795D01*
X46975577Y-32471615D01*
X46982411Y-32469913D01*
X46990231Y-32456961D01*
X46988529Y-32450127D01*
X46975577Y-32442307D01*
X46969183Y-32439739D01*
X46962004Y-32424782D01*
X46960686Y-32403099D01*
X46965225Y-32382395D01*
X46975617Y-32370375D01*
X46976905Y-32369378D01*
X46978993Y-32364808D01*
X46980846Y-32355795D01*
X46982472Y-32341331D01*
X46983883Y-32320411D01*
X46985089Y-32292028D01*
X46986101Y-32255175D01*
X46986928Y-32208847D01*
X46987582Y-32152038D01*
X46988073Y-32083740D01*
X46988412Y-32002948D01*
X46988608Y-31908656D01*
X46988673Y-31799856D01*
X46988617Y-31675544D01*
X46988451Y-31534712D01*
X46988185Y-31376354D01*
X46987829Y-31199464D01*
X46985347Y-30034192D01*
X45814793Y-30034192D01*
X45663034Y-30034200D01*
X45502930Y-30034239D01*
X45360446Y-30034324D01*
X45234549Y-30034470D01*
X45124204Y-30034691D01*
X45028379Y-30035004D01*
X44946038Y-30035422D01*
X44876149Y-30035961D01*
X44817678Y-30036635D01*
X44769592Y-30037461D01*
X44730855Y-30038452D01*
X44700435Y-30039624D01*
X44677298Y-30040991D01*
X44660409Y-30042570D01*
X44648737Y-30044373D01*
X44641245Y-30046418D01*
X44636902Y-30048718D01*
X44634673Y-30051288D01*
X44627452Y-30058895D01*
X44607748Y-30066934D01*
X44584747Y-30068905D01*
X44565658Y-30064580D01*
X44557693Y-30053730D01*
X44555991Y-30046896D01*
X44543039Y-30039077D01*
X44538460Y-30040322D01*
X44533419Y-30048426D01*
X44530341Y-30066765D01*
X44528804Y-30098437D01*
X44528385Y-30146538D01*
X44528555Y-30180113D01*
X44529660Y-30217083D01*
X44532161Y-30239657D01*
X44536480Y-30250930D01*
X44543039Y-30254000D01*
X44544104Y-30254046D01*
X44550884Y-30258429D01*
X44555037Y-30272310D01*
X44557122Y-30299028D01*
X44557693Y-30341923D01*
X44557208Y-30380052D01*
X44555122Y-30409692D01*
X44550969Y-30425302D01*
X44544296Y-30429846D01*
X44541873Y-30429271D01*
X44532544Y-30415175D01*
X44524318Y-30383176D01*
X44517314Y-30334569D01*
X44511655Y-30270652D01*
X44507462Y-30192720D01*
X44504857Y-30102071D01*
X44503962Y-30000000D01*
X44504016Y-29974172D01*
X44505339Y-29874761D01*
X44508341Y-29787088D01*
X44512902Y-29712448D01*
X44518900Y-29652139D01*
X44526212Y-29607456D01*
X44534718Y-29579695D01*
X44544296Y-29570153D01*
X44550106Y-29573336D01*
X44554622Y-29587026D01*
X44557000Y-29614284D01*
X44557693Y-29658077D01*
X44557685Y-29664466D01*
X44556954Y-29705145D01*
X44554641Y-29730068D01*
X44550188Y-29742573D01*
X44543039Y-29746000D01*
X44542910Y-29746000D01*
X44536740Y-29748994D01*
X44532556Y-29759764D01*
X44530004Y-29781248D01*
X44528731Y-29816386D01*
X44528385Y-29868115D01*
X44528385Y-29869193D01*
X44528744Y-29920602D01*
X44530037Y-29955472D01*
X44532615Y-29976741D01*
X44536831Y-29987348D01*
X44543039Y-29990230D01*
X44549873Y-29988528D01*
X44557693Y-29975577D01*
X44558402Y-29971364D01*
X44569598Y-29963342D01*
X44596770Y-29960923D01*
X44605520Y-29960703D01*
X44627177Y-29957698D01*
X44635847Y-29952293D01*
X44637151Y-29948612D01*
X44650499Y-29940357D01*
X44671212Y-29936124D01*
X44690463Y-29938191D01*
X44697057Y-29941690D01*
X44699489Y-29950385D01*
X44687530Y-29957791D01*
X44664578Y-29960923D01*
X44644556Y-29963926D01*
X44635847Y-29975577D01*
X44636517Y-29977038D01*
X44640627Y-29979100D01*
X44649351Y-29980939D01*
X44663682Y-29982568D01*
X44684616Y-29983999D01*
X44713148Y-29985244D01*
X44750273Y-29986316D01*
X44796986Y-29987227D01*
X44854281Y-29987989D01*
X44923155Y-29988616D01*
X45004602Y-29989118D01*
X45099616Y-29989510D01*
X45209194Y-29989802D01*
X45334330Y-29990008D01*
X45476020Y-29990140D01*
X45635258Y-29990210D01*
X45813039Y-29990230D01*
X46990231Y-29990230D01*
X46990231Y-28822807D01*
X46990225Y-28718160D01*
X46990176Y-28551996D01*
X46990071Y-28403793D01*
X46989896Y-28272552D01*
X46989639Y-28157275D01*
X46989288Y-28056962D01*
X46988829Y-27970614D01*
X46988250Y-27897231D01*
X46987538Y-27835815D01*
X46986682Y-27785367D01*
X46985668Y-27744887D01*
X46984485Y-27713375D01*
X46983118Y-27689834D01*
X46981557Y-27673264D01*
X46979788Y-27662664D01*
X46977799Y-27657038D01*
X46975577Y-27655384D01*
X46967924Y-27652259D01*
X46962492Y-27637256D01*
X46960923Y-27606538D01*
X46961861Y-27581026D01*
X46966362Y-27562921D01*
X46975577Y-27557692D01*
X46982411Y-27555990D01*
X46990231Y-27543038D01*
X46988529Y-27536204D01*
X46975577Y-27528384D01*
X46968743Y-27530086D01*
X46960923Y-27543038D01*
X46956143Y-27552596D01*
G37*
X40500000Y-72640000D02*
X40500000Y-76650000D01*
X38500000Y-72640000D02*
X40500000Y-72640000D01*
X38500000Y-72640000D02*
X38500000Y-76650000D01*
%LPC*%
D12*
X41700000Y-60000000D03*
D13*
X41780000Y-56384200D03*
D14*
X42000000Y-63800000D03*
X44460000Y-65080000D03*
D15*
X47000000Y-60000000D03*
D14*
X47000000Y-65900000D03*
X50810000Y-62540000D03*
D13*
X52220000Y-56384200D03*
D12*
X52300000Y-60000000D03*
D16*
X49378000Y-54754900D03*
D17*
X38660000Y-63800000D03*
X50560000Y-65900000D03*
D16*
X44348100Y-54754900D03*
X49378000Y-56253500D03*
X44348100Y-56253500D03*
D18*
X40910000Y-65515000D03*
D19*
X53860000Y-62540000D03*
D12*
X41700000Y-41000000D03*
D13*
X41780000Y-37384200D03*
D14*
X42000000Y-44800000D03*
X44460000Y-46080000D03*
D15*
X47000000Y-41000000D03*
D14*
X47000000Y-46900000D03*
X50810000Y-43540000D03*
D13*
X52220000Y-37384200D03*
D12*
X52300000Y-41000000D03*
D16*
X49378000Y-35754900D03*
D17*
X38660000Y-44800000D03*
X50560000Y-46900000D03*
D16*
X44348100Y-35754900D03*
X49378000Y-37253500D03*
X44348100Y-37253500D03*
D18*
X40910000Y-46515000D03*
D19*
X53860000Y-43540000D03*
D12*
X41700000Y-79000000D03*
D13*
X41780000Y-75384200D03*
D14*
X42000000Y-82800000D03*
X44460000Y-84080000D03*
D15*
X47000000Y-79000000D03*
D14*
X47000000Y-84900000D03*
X50810000Y-81540000D03*
D13*
X52220000Y-75384200D03*
D12*
X52300000Y-79000000D03*
D16*
X49378000Y-73754900D03*
D17*
X38660000Y-82800000D03*
X50560000Y-84900000D03*
D16*
X44348100Y-73754900D03*
X49378000Y-75253500D03*
X44348100Y-75253500D03*
D18*
X40910000Y-84515000D03*
D19*
X53860000Y-81540000D03*
D12*
X41700000Y-98000000D03*
D13*
X41780000Y-94384200D03*
D14*
X42000000Y-101800000D03*
X44460000Y-103080000D03*
D15*
X47000000Y-98000000D03*
D14*
X47000000Y-103900000D03*
X50810000Y-100540000D03*
D13*
X52220000Y-94384200D03*
D12*
X52300000Y-98000000D03*
D16*
X49378000Y-92754900D03*
D17*
X38660000Y-101800000D03*
X50560000Y-103900000D03*
D16*
X44348100Y-92754900D03*
X49378000Y-94253500D03*
X44348100Y-94253500D03*
D18*
X40910000Y-103515000D03*
D19*
X53860000Y-100540000D03*
D20*
X53500000Y-108500000D03*
X40500000Y-108500000D03*
D21*
X39500000Y-54350000D03*
X39500000Y-57650000D03*
X39500000Y-92350000D03*
X39500000Y-95650000D03*
X39500000Y-35350000D03*
X39500000Y-38650000D03*
X39500000Y-73350000D03*
X39500000Y-76650000D03*
%LPD*%
M02*
