<?xml version="1.0" standalone="no"?>
 <!DOCTYPE svg PUBLIC "-//W3C//DTD SVG 1.1//EN" 
 "http://www.w3.org/Graphics/SVG/1.1/DTD/svg11.dtd"> 
<svg
  xmlns:svg="http://www.w3.org/2000/svg"
  xmlns="http://www.w3.org/2000/svg"
  xmlns:xlink="http://www.w3.org/1999/xlink"
  version="1.1"
  width="167.6400mm" height="106.0450mm" viewBox="0.0000 0.0000 167.6400 106.0450">
<title>SVG Image created as Seismos_5CoreStencil-Edge_Cuts.svg date 2023/11/15 19:52:14 </title>
  <desc>Image generated by PCBNEW </desc>
<g style="fill:#000000; fill-opacity:1.0000;stroke:#000000; stroke-opacity:1.0000;
stroke-linecap:round; stroke-linejoin:round;"
 transform="translate(0 0) scale(1 1)">
</g>
<g style="fill:#000000; fill-opacity:0.0; 
stroke:#000000; stroke-width:0.0000; stroke-opacity:1; 
stroke-linecap:round; stroke-linejoin:round;">
</g>
<g style="fill:#000000; fill-opacity:1.0000; 
stroke:#000000; stroke-width:0.0212; stroke-opacity:1; 
stroke-linecap:round; stroke-linejoin:round;">
<rect x="-5.000000" y="-5.000000" width="177.653573" height="116.048250" rx="0.000000" />
</g>
<g style="fill:#FFFFFF; fill-opacity:1.0000; 
stroke:#FFFFFF; stroke-width:0.0212; stroke-opacity:1; 
stroke-linecap:round; stroke-linejoin:round;">
</g>
<g style="fill:#FFFFFF; fill-opacity:1.0000; 
stroke:#FFFFFF; stroke-width:0.1000; stroke-opacity:1; 
stroke-linecap:round; stroke-linejoin:round;">
</g>
<g style="fill:#FFFFFF; fill-opacity:0.0; 
stroke:#FFFFFF; stroke-width:0.1000; stroke-opacity:1; 
stroke-linecap:round; stroke-linejoin:round;">
<path d="M109.4786 6.2000
L109.4786 0.2000
" />
<path d="M90.1786 6.2000
L90.1786 0.2000
" />
<path d="M70.8786 6.2000
L70.8786 0.2000
" />
<path d="M51.5786 6.2000
L51.5786 0.2000
" />
<path d="M32.2786 6.2000
L32.2786 0.2000
" />
<path d="M12.9786 6.2000
L12.9786 0.2000
" />
<path d="M10.1786 104.1393
L10.1786 6.2000
" />
<path d="M46.9786 105.6393
L30.9786 105.6393
" />
<path d="M48.4786 6.2000
L48.4786 104.1393
" />
<path d="M104.8786 105.6393
L88.8786 105.6393
" />
<path d="M131.1626 78.1000
L155.5286 78.1000
" />
<path d="M26.3786 6.2000
L26.3786 0.2000
" />
<path d="M155.0286 70.5000
L152.2286 70.5000
" />
<path d="M32.2786 0.2000
L45.6786 0.2000
" />
<path d="M106.3786 6.2000
L103.5786 6.2000
" />
<path d="M106.6786 6.2000
L109.4786 6.2000
" />
<path d="M68.0786 6.2000
L70.8786 6.2000
" />
<path d="M29.4786 6.2000
L32.2786 6.2000
" />
<path d="M87.3786 6.2000
L90.1786 6.2000
" />
<path d="M106.3786 6.2000
L106.3786 104.1393
" />
<path d="M29.4786 104.1393
L29.4786 6.2000
" />
<path d="M164.5286 29.5607 A1.5000 1.5000 0.0 0 0 163.0286 28.0607" />
<path d="M70.8786 0.2000
L84.2786 0.2000
" />
<path d="M157.0286 1.6000 A1.5000 1.5000 0.0 0 0 155.5286 0.1000" />
<path d="M138.8286 70.5000
L138.8286 76.5000
" />
<path d="M85.5786 105.6393
L69.5786 105.6393
" />
<path d="M128.0286 28.0607
L163.0286 28.0607
" />
<path d="M103.5786 6.2000
L103.5786 0.2000
" />
<path d="M125.6786 6.2000
L122.8786 6.2000
" />
<path d="M129.6626 22.9100
L129.6626 76.6000
" />
<path d="M48.7786 6.2000
L51.5786 6.2000
" />
<path d="M129.6626 76.6000 A1.5000 1.5000 0.0 0 0 131.1626 78.1000" />
<path d="M66.2786 105.6393 A1.5000 1.5000 0.0 0 0 67.7786 104.1393" />
<path d="M10.1785 104.1393 A1.5000 1.5000 0.0 0 0 11.6786 105.6393" />
<path d="M125.6786 6.2000
L125.6786 104.1393
" />
<path d="M45.6786 6.2000
L45.6786 0.2000
" />
<path d="M51.5786 0.2000
L64.9786 0.2000
" />
<path d="M136.0286 70.5000
L126.5286 70.5000
" />
<path d="M90.1786 0.2000
L103.5786 0.2000
" />
<path d="M87.3785 104.1393 A1.5000 1.5000 0.0 0 0 88.8786 105.6393" />
<path d="M109.4786 0.2000
L122.8786 0.2000
" />
<path d="M29.1786 6.2000
L29.1786 104.1393
" />
<path d="M126.5286 70.5000
L126.5286 29.5607
" />
<path d="M11.5286 19.1000
L125.8526 19.1000
" />
<path d="M67.7786 6.2000
L64.9786 6.2000
" />
<path d="M10.0286 17.6000 A1.5000 1.5000 0.0 0 0 11.5286 19.1000" />
<path d="M128.0286 28.0607 A1.5000 1.5000 0.0 0 0 126.5286 29.5607" />
<path d="M12.9786 0.2000
L26.3786 0.2000
" />
<path d="M87.0786 6.2000
L84.2786 6.2000
" />
<path d="M27.6786 105.6393
L11.6786 105.6393
" />
<path d="M11.5286 0.1000 A1.5000 1.5000 0.0 0 0 10.0286 1.6000" />
<path d="M29.1786 6.2000
L26.3786 6.2000
" />
<path d="M48.7785 104.1393 A1.5000 1.5000 0.0 0 0 50.2786 105.6393" />
<path d="M48.7786 104.1393
L48.7786 6.2000
" />
<path d="M84.2786 6.2000
L84.2786 0.2000
" />
<path d="M106.6786 104.1393
L106.6786 6.2000
" />
<path d="M157.0286 1.6000
L157.0286 76.6000
" />
<path d="M122.8786 6.2000
L122.8786 0.2000
" />
<path d="M67.7786 6.2000
L67.7786 104.1393
" />
<path d="M136.0286 70.5000
L138.8286 70.5000
" />
<path d="M152.2286 76.5000
L152.2286 70.5000
" />
<path d="M68.0785 104.1393 A1.5000 1.5000 0.0 0 0 69.5786 105.6393" />
<path d="M87.0786 6.2000
L87.0786 104.1393
" />
<path d="M27.6786 105.6393 A1.5000 1.5000 0.0 0 0 29.1786 104.1393" />
<path d="M155.0286 70.5000
L164.5286 70.5000
" />
<path d="M155.5286 78.1000 A1.5000 1.5000 0.0 0 0 157.0286 76.6000" />
<path d="M164.5286 29.5607
L164.5286 70.5000
" />
<path d="M129.6626 22.9100 A3.8100 3.8100 0.0 0 0 125.8526 19.1000" />
<path d="M29.4785 104.1393 A1.5000 1.5000 0.0 0 0 30.9786 105.6393" />
<path d="M66.2786 105.6393
L50.2786 105.6393
" />
<path d="M155.5286 0.1000
L11.5286 0.1000
" />
<path d="M104.8786 105.6393 A1.5000 1.5000 0.0 0 0 106.3786 104.1393" />
<path d="M64.9786 6.2000
L64.9786 0.2000
" />
<path d="M46.9786 105.6393 A1.5000 1.5000 0.0 0 0 48.4786 104.1393" />
<path d="M124.1786 105.6393 A1.5000 1.5000 0.0 0 0 125.6786 104.1393" />
<path d="M10.0286 1.6000
L10.0286 17.6000
" />
<path d="M48.4786 6.2000
L45.6786 6.2000
" />
<path d="M85.5786 105.6393 A1.5000 1.5000 0.0 0 0 87.0786 104.1393" />
<path d="M106.6785 104.1393 A1.5000 1.5000 0.0 0 0 108.1786 105.6393" />
<path d="M87.3786 104.1393
L87.3786 6.2000
" />
<path d="M68.0786 104.1393
L68.0786 6.2000
" />
<path d="M152.2286 76.5000
L138.8286 76.5000
" />
<path d="M10.1786 6.2000
L12.9786 6.2000
" />
<path d="M124.1786 105.6393
L108.1786 105.6393
" />
</g>
<g style="fill:#FFFFFF; fill-opacity:0.0; 
stroke:#FFFFFF; stroke-width:0.1200; stroke-opacity:1; 
stroke-linecap:round; stroke-linejoin:round;">
<path d="M17.9166 10.2086
L21.1566 10.2086
" />
<path d="M21.1566 10.2086
L21.1566 13.1954
" />
<path d="M21.1566 13.1954
L17.9166 13.1954
" />
<path d="M17.9166 13.1954
L17.9166 10.2086
" />
<path d="M18.0530 14.0224
L21.2534 14.0224
" />
<path d="M21.2534 14.0224
L21.2534 11.1776
" />
<path d="M21.2534 11.1776
L18.0530 11.1776
" />
<path d="M18.0530 11.1776
L18.0530 14.0224
" />
<path d="M114.4166 29.2086
L117.6566 29.2086
" />
<path d="M117.6566 29.2086
L117.6566 32.1954
" />
<path d="M117.6566 32.1954
L114.4166 32.1954
" />
<path d="M114.4166 32.1954
L114.4166 29.2086
" />
<path d="M114.5530 14.0224
L117.7534 14.0224
" />
<path d="M117.7534 14.0224
L117.7534 11.1776
" />
<path d="M117.7534 11.1776
L114.5530 11.1776
" />
<path d="M114.5530 11.1776
L114.5530 14.0224
" />
<path d="M17.9166 86.2086
L21.1566 86.2086
" />
<path d="M21.1566 86.2086
L21.1566 89.1954
" />
<path d="M21.1566 89.1954
L17.9166 89.1954
" />
<path d="M17.9166 89.1954
L17.9166 86.2086
" />
<path d="M56.5166 48.2086
L59.7566 48.2086
" />
<path d="M59.7566 48.2086
L59.7566 51.1954
" />
<path d="M59.7566 51.1954
L56.5166 51.1954
" />
<path d="M56.5166 51.1954
L56.5166 48.2086
" />
<path d="M95.1166 48.2086
L98.3566 48.2086
" />
<path d="M98.3566 48.2086
L98.3566 51.1954
" />
<path d="M98.3566 51.1954
L95.1166 51.1954
" />
<path d="M95.1166 51.1954
L95.1166 48.2086
" />
<path d="M75.9530 14.0224
L79.1534 14.0224
" />
<path d="M79.1534 14.0224
L79.1534 11.1776
" />
<path d="M79.1534 11.1776
L75.9530 11.1776
" />
<path d="M75.9530 11.1776
L75.9530 14.0224
" />
<path d="M37.2166 29.2086
L40.4566 29.2086
" />
<path d="M40.4566 29.2086
L40.4566 32.1954
" />
<path d="M40.4566 32.1954
L37.2166 32.1954
" />
<path d="M37.2166 32.1954
L37.2166 29.2086
" />
<path d="M56.6530 14.0224
L59.8534 14.0224
" />
<path d="M59.8534 14.0224
L59.8534 11.1776
" />
<path d="M59.8534 11.1776
L56.6530 11.1776
" />
<path d="M56.6530 11.1776
L56.6530 14.0224
" />
<path d="M75.8166 29.2086
L79.0566 29.2086
" />
<path d="M79.0566 29.2086
L79.0566 32.1954
" />
<path d="M79.0566 32.1954
L75.8166 32.1954
" />
<path d="M75.8166 32.1954
L75.8166 29.2086
" />
<path d="M75.8166 86.2086
L79.0566 86.2086
" />
<path d="M79.0566 86.2086
L79.0566 89.1954
" />
<path d="M79.0566 89.1954
L75.8166 89.1954
" />
<path d="M75.8166 89.1954
L75.8166 86.2086
" />
<path d="M56.5166 10.2086
L59.7566 10.2086
" />
<path d="M59.7566 10.2086
L59.7566 13.1954
" />
<path d="M59.7566 13.1954
L56.5166 13.1954
" />
<path d="M56.5166 13.1954
L56.5166 10.2086
" />
<path d="M37.2166 10.2086
L40.4566 10.2086
" />
<path d="M40.4566 10.2086
L40.4566 13.1954
" />
<path d="M40.4566 13.1954
L37.2166 13.1954
" />
<path d="M37.2166 13.1954
L37.2166 10.2086
" />
<path d="M75.8166 10.2086
L79.0566 10.2086
" />
<path d="M79.0566 10.2086
L79.0566 13.1954
" />
<path d="M79.0566 13.1954
L75.8166 13.1954
" />
<path d="M75.8166 13.1954
L75.8166 10.2086
" />
<path d="M95.1166 86.2086
L98.3566 86.2086
" />
<path d="M98.3566 86.2086
L98.3566 89.1954
" />
<path d="M98.3566 89.1954
L95.1166 89.1954
" />
<path d="M95.1166 89.1954
L95.1166 86.2086
" />
<path d="M137.7906 47.4914
L134.5506 47.4914
" />
<path d="M134.5506 47.4914
L134.5506 44.5046
" />
<path d="M134.5506 44.5046
L137.7906 44.5046
" />
<path d="M137.7906 44.5046
L137.7906 47.4914
" />
<path d="M56.5166 67.2086
L59.7566 67.2086
" />
<path d="M59.7566 67.2086
L59.7566 70.1954
" />
<path d="M59.7566 70.1954
L56.5166 70.1954
" />
<path d="M56.5166 70.1954
L56.5166 67.2086
" />
<path d="M95.1166 10.2086
L98.3566 10.2086
" />
<path d="M98.3566 10.2086
L98.3566 13.1954
" />
<path d="M98.3566 13.1954
L95.1166 13.1954
" />
<path d="M95.1166 13.1954
L95.1166 10.2086
" />
<path d="M95.1166 29.2086
L98.3566 29.2086
" />
<path d="M98.3566 29.2086
L98.3566 32.1954
" />
<path d="M98.3566 32.1954
L95.1166 32.1954
" />
<path d="M95.1166 32.1954
L95.1166 29.2086
" />
<path d="M95.1166 67.2086
L98.3566 67.2086
" />
<path d="M98.3566 67.2086
L98.3566 70.1954
" />
<path d="M98.3566 70.1954
L95.1166 70.1954
" />
<path d="M95.1166 70.1954
L95.1166 67.2086
" />
<path d="M37.2166 67.2086
L40.4566 67.2086
" />
<path d="M40.4566 67.2086
L40.4566 70.1954
" />
<path d="M40.4566 70.1954
L37.2166 70.1954
" />
<path d="M37.2166 70.1954
L37.2166 67.2086
" />
<path d="M137.7906 66.4914
L134.5506 66.4914
" />
<path d="M134.5506 66.4914
L134.5506 63.5046
" />
<path d="M134.5506 63.5046
L137.7906 63.5046
" />
<path d="M137.7906 63.5046
L137.7906 66.4914
" />
<path d="M75.8166 48.2086
L79.0566 48.2086
" />
<path d="M79.0566 48.2086
L79.0566 51.1954
" />
<path d="M79.0566 51.1954
L75.8166 51.1954
" />
<path d="M75.8166 51.1954
L75.8166 48.2086
" />
<path d="M17.9166 67.2086
L21.1566 67.2086
" />
<path d="M21.1566 67.2086
L21.1566 70.1954
" />
<path d="M21.1566 70.1954
L17.9166 70.1954
" />
<path d="M17.9166 70.1954
L17.9166 67.2086
" />
<path d="M95.2530 14.0224
L98.4534 14.0224
" />
<path d="M98.4534 14.0224
L98.4534 11.1776
" />
<path d="M98.4534 11.1776
L95.2530 11.1776
" />
<path d="M95.2530 11.1776
L95.2530 14.0224
" />
<path d="M75.8166 67.2086
L79.0566 67.2086
" />
<path d="M79.0566 67.2086
L79.0566 70.1954
" />
<path d="M79.0566 70.1954
L75.8166 70.1954
" />
<path d="M75.8166 70.1954
L75.8166 67.2086
" />
<path d="M114.4166 48.2086
L117.6566 48.2086
" />
<path d="M117.6566 48.2086
L117.6566 51.1954
" />
<path d="M117.6566 51.1954
L114.4166 51.1954
" />
<path d="M114.4166 51.1954
L114.4166 48.2086
" />
<path d="M17.9166 48.2086
L21.1566 48.2086
" />
<path d="M21.1566 48.2086
L21.1566 51.1954
" />
<path d="M21.1566 51.1954
L17.9166 51.1954
" />
<path d="M17.9166 51.1954
L17.9166 48.2086
" />
<path d="M17.9166 29.2086
L21.1566 29.2086
" />
<path d="M21.1566 29.2086
L21.1566 32.1954
" />
<path d="M21.1566 32.1954
L17.9166 32.1954
" />
<path d="M17.9166 32.1954
L17.9166 29.2086
" />
<path d="M37.2166 48.2086
L40.4566 48.2086
" />
<path d="M40.4566 48.2086
L40.4566 51.1954
" />
<path d="M40.4566 51.1954
L37.2166 51.1954
" />
<path d="M37.2166 51.1954
L37.2166 48.2086
" />
<path d="M56.5166 86.2086
L59.7566 86.2086
" />
<path d="M59.7566 86.2086
L59.7566 89.1954
" />
<path d="M59.7566 89.1954
L56.5166 89.1954
" />
<path d="M56.5166 89.1954
L56.5166 86.2086
" />
<path d="M37.3530 14.0224
L40.5534 14.0224
" />
<path d="M40.5534 14.0224
L40.5534 11.1776
" />
<path d="M40.5534 11.1776
L37.3530 11.1776
" />
<path d="M37.3530 11.1776
L37.3530 14.0224
" />
<path d="M114.4166 10.2086
L117.6566 10.2086
" />
<path d="M117.6566 10.2086
L117.6566 13.1954
" />
<path d="M117.6566 13.1954
L114.4166 13.1954
" />
<path d="M114.4166 13.1954
L114.4166 10.2086
" />
<path d="M56.5166 29.2086
L59.7566 29.2086
" />
<path d="M59.7566 29.2086
L59.7566 32.1954
" />
<path d="M59.7566 32.1954
L56.5166 32.1954
" />
<path d="M56.5166 32.1954
L56.5166 29.2086
" />
<path d="M37.2166 86.2086
L40.4566 86.2086
" />
<path d="M40.4566 86.2086
L40.4566 89.1954
" />
<path d="M40.4566 89.1954
L37.2166 89.1954
" />
<path d="M37.2166 89.1954
L37.2166 86.2086
" />
<path d="M114.4166 67.2086
L117.6566 67.2086
" />
<path d="M117.6566 67.2086
L117.6566 70.1954
" />
<path d="M117.6566 70.1954
L114.4166 70.1954
" />
<path d="M114.4166 70.1954
L114.4166 67.2086
" />
<path d="M114.4166 86.2086
L117.6566 86.2086
" />
<path d="M117.6566 86.2086
L117.6566 89.1954
" />
<path d="M117.6566 89.1954
L114.4166 89.1954
" />
<path d="M114.4166 89.1954
L114.4166 86.2086
" />
<path d="M156.7906 47.4914
L153.5506 47.4914
" />
<path d="M153.5506 47.4914
L153.5506 44.5046
" />
<path d="M153.5506 44.5046
L156.7906 44.5046
" />
<path d="M156.7906 44.5046
L156.7906 47.4914
" />
<path d="M156.7906 66.4914
L153.5506 66.4914
" />
<path d="M153.5506 66.4914
L153.5506 63.5046
" />
<path d="M153.5506 63.5046
L156.7906 63.5046
" />
<path d="M156.7906 63.5046
L156.7906 66.4914
" />
<g >
</g>
<g >
</g>
<g >
</g>
<g >
</g>
<g >
</g>
<g >
</g>
<g >
</g>
<g >
</g>
<g >
</g>
<g >
</g>
<g >
</g>
<g >
</g>
<g >
</g>
<g >
</g>
<g >
</g>
<g >
</g>
<g >
</g>
<g >
</g>
<g >
</g>
<g >
</g>
<g >
</g>
<g >
</g>
<g >
</g>
<g >
</g>
<g >
</g>
<g >
</g>
<g >
</g>
<g >
</g>
<g >
</g>
<g >
</g>
<g >
</g>
<g >
</g>
<g >
</g>
<g >
</g>
<g >
</g>
<g >
</g>
<g >
</g>
<g >
</g>
<g >
</g>
<g >
</g>
<g >
</g>
<g >
</g>
<g >
</g>
<g >
</g>
<g >
</g>
<g >
</g>
<g >
</g>
<g >
</g>
<g >
</g>
<g >
</g>
<g >
</g>
<g >
</g>
<g >
</g>
<g >
</g>
<g >
</g>
<g >
</g>
<g >
</g>
<g >
</g>
<g >
</g>
<g >
</g>
<g >
</g>
<g >
</g>
<g >
</g>
<g >
</g>
<g >
</g>
<g >
</g>
<g >
</g>
<g >
</g>
<g >
</g>
<g >
</g>
<g >
</g>
<g >
</g>
<g >
</g>
<g >
</g>
<g >
</g>
<g >
</g>
<g >
</g>
<g >
</g>
<g >
</g>
<g >
</g>
<g >
</g>
<g >
</g>
<g >
</g>
<g >
</g>
<g >
</g>
<g >
</g>
<g >
</g>
<g >
</g>
<g >
</g>
<g >
</g>
<g >
</g>
<g >
</g>
<g >
</g>
<g >
</g>
<g >
</g>
<g >
</g>
<g >
</g>
<g >
</g>
<g >
</g>
<g >
</g>
<g >
</g>
<g >
</g>
<g >
</g>
</g> 
</svg>
