  0
SECTION
  2
HEADER
  9
$ACADVER
  1
AC1014
  9
$HANDSEED
  5
FFFF
  9
$INSUNITS
 70
     4
  9
$MEASUREMENT
 70
     1
  0
ENDSEC
  0
SECTION
  2
TABLES
  0
TABLE
  2
VPORT
  5
8
330
0
100
AcDbSymbolTable
 70
     4
  0
VPORT
  5
2E
330
8
100
AcDbSymbolTableRecord
100
AcDbViewportTableRecord
  2
*ACTIVE
 70
     0
 10
0.0
 20
0.0
 11
1.0
 21
1.0
 12
210.0
 22
148.5
 13
0.0
 23
0.0
 14
10.0
 24
10.0
 15
10.0
 25
10.0
 16
0.0
 26
0.0
 36
1.0
 17
0.0
 27
0.0
 37
0.0
 40
341.0
 41
1.24
 42
50.0
 43
0.0
 44
0.0
 50
0.0
 51
0.0
 71
     0
 72
   100
 73
     1
 74
     3
 75
     0
 76
     0
 77
     0
 78
     0
  0
ENDTAB
  0
TABLE
  2
LTYPE
  5
5
330
0
100
AcDbSymbolTable
 70
     1
  0
LTYPE
  5
14
330
5
100
AcDbSymbolTableRecord
100
AcDbLinetypeTableRecord
  2
BYBLOCK
 70
     0
  3

 72
    65
 73
     0
 40
0.0
  0
LTYPE
  5
15
330
5
100
AcDbSymbolTableRecord
100
AcDbLinetypeTableRecord
  2
BYLAYER
 70
     0
  3

 72
    65
 73
     0
 40
0.0
  0
LTYPE
  5
16
330
5
100
AcDbSymbolTableRecord
100
AcDbLinetypeTableRecord
  2
CONTINUOUS
 70
     0
  3
Solid line
 72
    65
 73
     0
 40
0.0
  0
ENDTAB
  0
TABLE
  2
LAYER
  5
2
100
AcDbSymbolTable
 70
1
  0
LAYER
  5
50
100
AcDbSymbolTableRecord
100
AcDbLayerTableRecord
  2
0
 70
0
  6
CONTINUOUS
  0
ENDTAB
  0
TABLE
  2
STYLE
  5
3
330
0
100
AcDbSymbolTable
 70
     1
  0
STYLE
  5
11
330
3
100
AcDbSymbolTableRecord
100
AcDbTextStyleTableRecord
  2
STANDARD
 70
     0
 40
0.0
 41
1.0
 50
0.0
 71
     0
 42
2.5
  3
txt
  4

  0
ENDTAB
  0
TABLE
  2
VIEW
  5
6
330
0
100
AcDbSymbolTable
 70
     0
  0
ENDTAB
  0
TABLE
  2
UCS
  5
7
330
0
100
AcDbSymbolTable
 70
     0
  0
ENDTAB
  0
TABLE
  2
APPID
  5
9
330
0
100
AcDbSymbolTable
 70
     2
  0
APPID
  5
12
330
9
100
AcDbSymbolTableRecord
100
AcDbRegAppTableRecord
  2
ACAD
 70
     0
  0
ENDTAB
  0
TABLE
  2
DIMSTYLE
  5
A
330
0
100
AcDbSymbolTable
 70
     1
  0
DIMSTYLE
105
27
330
A
100
AcDbSymbolTableRecord
100
AcDbDimStyleTableRecord
  2
ISO-25
 70
     0
  3

  4

  5

  6

  7

 40
1.0
 41
2.5
 42
0.625
 43
3.75
 44
1.25
 45
0.0
 46
0.0
 47
0.0
 48
0.0
140
2.5
141
2.5
142
0.0
143
0.03937007874016
144
1.0
145
0.0
146
1.0
147
0.625
 71
     0
 72
     0
 73
     0
 74
     0
 75
     0
 76
     0
 77
     1
 78
     8
170
     0
171
     3
172
     1
173
     0
174
     0
175
     0
176
     0
177
     0
178
     0
270
     2
271
     2
272
     2
273
     2
274
     3
340
11
275
     0
280
     0
281
     0
282
     0
283
     0
284
     8
285
     0
286
     0
287
     3
288
     0
  0
ENDTAB
  0
TABLE
  2
BLOCK_RECORD
  5
1
330
0
100
AcDbSymbolTable
 70
     1
  0
BLOCK_RECORD
  5
1F
330
1
100
AcDbSymbolTableRecord
100
AcDbBlockTableRecord
  2
*MODEL_SPACE
  0
BLOCK_RECORD
  5
1B
330
1
100
AcDbSymbolTableRecord
100
AcDbBlockTableRecord
  2
*PAPER_SPACE
  0
ENDTAB
  0
ENDSEC
  0
SECTION
  2
BLOCKS
  0
BLOCK
  5
20
330
1F
100
AcDbEntity
  8
0
100
AcDbBlockBegin
  2
*MODEL_SPACE
 70
     0
 10
0.0
 20
0.0
 30
0.0
  3
*MODEL_SPACE
  1

  0
ENDBLK
  5
21
330
1F
100
AcDbEntity
  8
0
100
AcDbBlockEnd
  0
BLOCK
  5
1C
330
1B
100
AcDbEntity
 67
     1
  8
0
100
AcDbBlockBegin
  2
*PAPER_SPACE
  1

  0
ENDBLK
  5
1D
330
1B
100
AcDbEntity
 67
     1
  8
0
100
AcDbBlockEnd
  0
ENDSEC
  0
SECTION
  2
ENTITIES
  0
SPLINE
  5
100
100
AcDbEntity
  8
0
 62
7
100
AcDbSpline
 70
8
 71
3
 72
8
 73
4
 74
0
 40
0
 40
0
 40
0
 40
0
 40
1
 40
1
 40
1
 40
1
 10
4.437292
 20
0.180690
 30
0.0
 10
4.411813
 20
0.180690
 30
0.0
 10
4.388842
 20
0.165341
 30
0.0
 10
4.379092
 20
0.141801
 30
0.0
  0
SPLINE
  5
101
100
AcDbEntity
  8
0
 62
7
100
AcDbSpline
 70
8
 71
3
 72
8
 73
4
 74
0
 40
0
 40
0
 40
0
 40
0
 40
1
 40
1
 40
1
 40
1
 10
4.379092
 20
0.141801
 30
0.0
 10
4.369341
 20
0.118261
 30
0.0
 10
4.374731
 20
0.091165
 30
0.0
 10
4.392747
 20
0.073148
 30
0.0
  0
SPLINE
  5
102
100
AcDbEntity
  8
0
 62
7
100
AcDbSpline
 70
8
 71
3
 72
8
 73
4
 74
0
 40
0
 40
0
 40
0
 40
0
 40
1
 40
1
 40
1
 40
1
 10
4.392747
 20
0.073148
 30
0.0
 10
4.410764
 20
0.055132
 30
0.0
 10
4.437860
 20
0.049742
 30
0.0
 10
4.461400
 20
0.059493
 30
0.0
  0
SPLINE
  5
103
100
AcDbEntity
  8
0
 62
7
100
AcDbSpline
 70
8
 71
3
 72
8
 73
4
 74
0
 40
0
 40
0
 40
0
 40
0
 40
1
 40
1
 40
1
 40
1
 10
4.461400
 20
0.059493
 30
0.0
 10
4.484940
 20
0.069243
 30
0.0
 10
4.500289
 20
0.092214
 30
0.0
 10
4.500289
 20
0.117694
 30
0.0
  0
SPLINE
  5
104
100
AcDbEntity
  8
0
 62
7
100
AcDbSpline
 70
8
 71
3
 72
8
 73
4
 74
0
 40
0
 40
0
 40
0
 40
0
 40
1
 40
1
 40
1
 40
1
 10
4.500289
 20
0.117694
 30
0.0
 10
4.500289
 20
0.134401
 30
0.0
 10
4.493652
 20
0.150424
 30
0.0
 10
4.481837
 20
0.162239
 30
0.0
  0
SPLINE
  5
105
100
AcDbEntity
  8
0
 62
7
100
AcDbSpline
 70
8
 71
3
 72
8
 73
4
 74
0
 40
0
 40
0
 40
0
 40
0
 40
1
 40
1
 40
1
 40
1
 10
4.481837
 20
0.162239
 30
0.0
 10
4.470023
 20
0.174053
 30
0.0
 10
4.454000
 20
0.180690
 30
0.0
 10
4.437292
 20
0.180690
 30
0.0
  0
SPLINE
  5
106
100
AcDbEntity
  8
0
 62
7
100
AcDbSpline
 70
8
 71
3
 72
8
 73
4
 74
0
 40
0
 40
0
 40
0
 40
0
 40
1
 40
1
 40
1
 40
1
 10
0.125993
 20
0.180690
 30
0.0
 10
0.100513
 20
0.180690
 30
0.0
 10
0.077542
 20
0.165341
 30
0.0
 10
0.067792
 20
0.141801
 30
0.0
  0
SPLINE
  5
107
100
AcDbEntity
  8
0
 62
7
100
AcDbSpline
 70
8
 71
3
 72
8
 73
4
 74
0
 40
0
 40
0
 40
0
 40
0
 40
1
 40
1
 40
1
 40
1
 10
0.067792
 20
0.141801
 30
0.0
 10
0.058041
 20
0.118261
 30
0.0
 10
0.063431
 20
0.091165
 30
0.0
 10
0.081448
 20
0.073148
 30
0.0
  0
SPLINE
  5
108
100
AcDbEntity
  8
0
 62
7
100
AcDbSpline
 70
8
 71
3
 72
8
 73
4
 74
0
 40
0
 40
0
 40
0
 40
0
 40
1
 40
1
 40
1
 40
1
 10
0.081448
 20
0.073148
 30
0.0
 10
0.099465
 20
0.055132
 30
0.0
 10
0.126560
 20
0.049742
 30
0.0
 10
0.150100
 20
0.059493
 30
0.0
  0
SPLINE
  5
109
100
AcDbEntity
  8
0
 62
7
100
AcDbSpline
 70
8
 71
3
 72
8
 73
4
 74
0
 40
0
 40
0
 40
0
 40
0
 40
1
 40
1
 40
1
 40
1
 10
0.150100
 20
0.059493
 30
0.0
 10
0.173640
 20
0.069243
 30
0.0
 10
0.188989
 20
0.092214
 30
0.0
 10
0.188989
 20
0.117694
 30
0.0
  0
SPLINE
  5
10a
100
AcDbEntity
  8
0
 62
7
100
AcDbSpline
 70
8
 71
3
 72
8
 73
4
 74
0
 40
0
 40
0
 40
0
 40
0
 40
1
 40
1
 40
1
 40
1
 10
0.188989
 20
0.117694
 30
0.0
 10
0.188989
 20
0.134401
 30
0.0
 10
0.182352
 20
0.150424
 30
0.0
 10
0.170538
 20
0.162239
 30
0.0
  0
SPLINE
  5
10b
100
AcDbEntity
  8
0
 62
7
100
AcDbSpline
 70
8
 71
3
 72
8
 73
4
 74
0
 40
0
 40
0
 40
0
 40
0
 40
1
 40
1
 40
1
 40
1
 10
0.170538
 20
0.162239
 30
0.0
 10
0.158724
 20
0.174053
 30
0.0
 10
0.142700
 20
0.180690
 30
0.0
 10
0.125993
 20
0.180690
 30
0.0
  0
LWPOLYLINE
  5
10c
100
AcDbEntity
  8
0
 62
7
100
AcDbPolyline
 90
1
 70
1
 10
4.437292
 20
0.180690
 30
0.0
  0
SPLINE
  5
10d
100
AcDbEntity
  8
0
 62
7
100
AcDbSpline
 70
8
 71
3
 72
8
 73
4
 74
0
 40
0
 40
0
 40
0
 40
0
 40
1
 40
1
 40
1
 40
1
 10
2.281642
 20
4.141573
 30
0.0
 10
2.256163
 20
4.141573
 30
0.0
 10
2.233192
 20
4.126225
 30
0.0
 10
2.223442
 20
4.102685
 30
0.0
  0
SPLINE
  5
10e
100
AcDbEntity
  8
0
 62
7
100
AcDbSpline
 70
8
 71
3
 72
8
 73
4
 74
0
 40
0
 40
0
 40
0
 40
0
 40
1
 40
1
 40
1
 40
1
 10
2.223442
 20
4.102685
 30
0.0
 10
2.213691
 20
4.079145
 30
0.0
 10
2.219081
 20
4.052049
 30
0.0
 10
2.237097
 20
4.034032
 30
0.0
  0
SPLINE
  5
10f
100
AcDbEntity
  8
0
 62
7
100
AcDbSpline
 70
8
 71
3
 72
8
 73
4
 74
0
 40
0
 40
0
 40
0
 40
0
 40
1
 40
1
 40
1
 40
1
 10
2.237097
 20
4.034032
 30
0.0
 10
2.255114
 20
4.016015
 30
0.0
 10
2.282210
 20
4.010626
 30
0.0
 10
2.305750
 20
4.020376
 30
0.0
  0
SPLINE
  5
110
100
AcDbEntity
  8
0
 62
7
100
AcDbSpline
 70
8
 71
3
 72
8
 73
4
 74
0
 40
0
 40
0
 40
0
 40
0
 40
1
 40
1
 40
1
 40
1
 10
2.305750
 20
4.020376
 30
0.0
 10
2.329290
 20
4.030127
 30
0.0
 10
2.344639
 20
4.053098
 30
0.0
 10
2.344639
 20
4.078577
 30
0.0
  0
SPLINE
  5
111
100
AcDbEntity
  8
0
 62
7
100
AcDbSpline
 70
8
 71
3
 72
8
 73
4
 74
0
 40
0
 40
0
 40
0
 40
0
 40
1
 40
1
 40
1
 40
1
 10
2.344639
 20
4.078577
 30
0.0
 10
2.344639
 20
4.095285
 30
0.0
 10
2.338002
 20
4.111308
 30
0.0
 10
2.326187
 20
4.123122
 30
0.0
  0
SPLINE
  5
112
100
AcDbEntity
  8
0
 62
7
100
AcDbSpline
 70
8
 71
3
 72
8
 73
4
 74
0
 40
0
 40
0
 40
0
 40
0
 40
1
 40
1
 40
1
 40
1
 10
2.326187
 20
4.123122
 30
0.0
 10
2.314373
 20
4.134936
 30
0.0
 10
2.298350
 20
4.141573
 30
0.0
 10
2.281642
 20
4.141573
 30
0.0
  0
LWPOLYLINE
  5
113
100
AcDbEntity
  8
0
 62
7
100
AcDbPolyline
 90
1
 70
1
 10
0.125993
 20
0.180690
 30
0.0
  0
SPLINE
  5
114
100
AcDbEntity
  8
0
 62
7
100
AcDbSpline
 70
8
 71
3
 72
8
 73
4
 74
0
 40
0
 40
0
 40
0
 40
0
 40
1
 40
1
 40
1
 40
1
 10
2.281642
 20
3.984083
 30
0.0
 10
2.256163
 20
3.984083
 30
0.0
 10
2.233192
 20
3.968734
 30
0.0
 10
2.223442
 20
3.945194
 30
0.0
  0
SPLINE
  5
115
100
AcDbEntity
  8
0
 62
7
100
AcDbSpline
 70
8
 71
3
 72
8
 73
4
 74
0
 40
0
 40
0
 40
0
 40
0
 40
1
 40
1
 40
1
 40
1
 10
2.223442
 20
3.945194
 30
0.0
 10
2.213691
 20
3.921654
 30
0.0
 10
2.219081
 20
3.894558
 30
0.0
 10
2.237097
 20
3.876542
 30
0.0
  0
SPLINE
  5
116
100
AcDbEntity
  8
0
 62
7
100
AcDbSpline
 70
8
 71
3
 72
8
 73
4
 74
0
 40
0
 40
0
 40
0
 40
0
 40
1
 40
1
 40
1
 40
1
 10
2.237097
 20
3.876542
 30
0.0
 10
2.255114
 20
3.858525
 30
0.0
 10
2.282210
 20
3.853135
 30
0.0
 10
2.305750
 20
3.862886
 30
0.0
  0
SPLINE
  5
117
100
AcDbEntity
  8
0
 62
7
100
AcDbSpline
 70
8
 71
3
 72
8
 73
4
 74
0
 40
0
 40
0
 40
0
 40
0
 40
1
 40
1
 40
1
 40
1
 10
2.305750
 20
3.862886
 30
0.0
 10
2.329290
 20
3.872636
 30
0.0
 10
2.344639
 20
3.895607
 30
0.0
 10
2.344639
 20
3.921087
 30
0.0
  0
SPLINE
  5
118
100
AcDbEntity
  8
0
 62
7
100
AcDbSpline
 70
8
 71
3
 72
8
 73
4
 74
0
 40
0
 40
0
 40
0
 40
0
 40
1
 40
1
 40
1
 40
1
 10
2.344639
 20
3.921087
 30
0.0
 10
2.344639
 20
3.937794
 30
0.0
 10
2.338002
 20
3.953818
 30
0.0
 10
2.326187
 20
3.965632
 30
0.0
  0
SPLINE
  5
119
100
AcDbEntity
  8
0
 62
7
100
AcDbSpline
 70
8
 71
3
 72
8
 73
4
 74
0
 40
0
 40
0
 40
0
 40
0
 40
1
 40
1
 40
1
 40
1
 10
2.326187
 20
3.965632
 30
0.0
 10
2.314373
 20
3.977446
 30
0.0
 10
2.298350
 20
3.984083
 30
0.0
 10
2.281642
 20
3.984083
 30
0.0
  0
LWPOLYLINE
  5
11a
100
AcDbEntity
  8
0
 62
7
100
AcDbPolyline
 90
1
 70
1
 10
2.281642
 20
4.141573
 30
0.0
  0
SPLINE
  5
11b
100
AcDbEntity
  8
0
 62
7
100
AcDbSpline
 70
8
 71
3
 72
8
 73
4
 74
0
 40
0
 40
0
 40
0
 40
0
 40
1
 40
1
 40
1
 40
1
 10
0.761860
 20
3.984083
 30
0.0
 10
0.727068
 20
3.984083
 30
0.0
 10
0.698864
 20
3.955878
 30
0.0
 10
0.698864
 20
3.921087
 30
0.0
  0
SPLINE
  5
11c
100
AcDbEntity
  8
0
 62
7
100
AcDbSpline
 70
8
 71
3
 72
8
 73
4
 74
0
 40
0
 40
0
 40
0
 40
0
 40
1
 40
1
 40
1
 40
1
 10
0.698864
 20
3.921087
 30
0.0
 10
0.698864
 20
3.886295
 30
0.0
 10
0.727068
 20
3.858091
 30
0.0
 10
0.761860
 20
3.858091
 30
0.0
  0
SPLINE
  5
11d
100
AcDbEntity
  8
0
 62
7
100
AcDbSpline
 70
8
 71
3
 72
8
 73
4
 74
0
 40
0
 40
0
 40
0
 40
0
 40
1
 40
1
 40
1
 40
1
 10
0.761860
 20
3.858091
 30
0.0
 10
0.796652
 20
3.858091
 30
0.0
 10
0.824856
 20
3.886295
 30
0.0
 10
0.824856
 20
3.921087
 30
0.0
  0
SPLINE
  5
11e
100
AcDbEntity
  8
0
 62
7
100
AcDbSpline
 70
8
 71
3
 72
8
 73
4
 74
0
 40
0
 40
0
 40
0
 40
0
 40
1
 40
1
 40
1
 40
1
 10
0.824856
 20
3.921087
 30
0.0
 10
0.824856
 20
3.937794
 30
0.0
 10
0.818219
 20
3.953818
 30
0.0
 10
0.806405
 20
3.965632
 30
0.0
  0
SPLINE
  5
11f
100
AcDbEntity
  8
0
 62
7
100
AcDbSpline
 70
8
 71
3
 72
8
 73
4
 74
0
 40
0
 40
0
 40
0
 40
0
 40
1
 40
1
 40
1
 40
1
 10
0.806405
 20
3.965632
 30
0.0
 10
0.794591
 20
3.977446
 30
0.0
 10
0.778568
 20
3.984083
 30
0.0
 10
0.761860
 20
3.984083
 30
0.0
  0
LWPOLYLINE
  5
120
100
AcDbEntity
  8
0
 62
7
100
AcDbPolyline
 90
1
 70
1
 10
2.281642
 20
3.984083
 30
0.0
  0
SPLINE
  5
121
100
AcDbEntity
  8
0
 62
7
100
AcDbSpline
 70
8
 71
3
 72
8
 73
4
 74
0
 40
0
 40
0
 40
0
 40
0
 40
1
 40
1
 40
1
 40
1
 10
3.801425
 20
3.984083
 30
0.0
 10
3.775945
 20
3.984083
 30
0.0
 10
3.752975
 20
3.968734
 30
0.0
 10
3.743224
 20
3.945194
 30
0.0
  0
SPLINE
  5
122
100
AcDbEntity
  8
0
 62
7
100
AcDbSpline
 70
8
 71
3
 72
8
 73
4
 74
0
 40
0
 40
0
 40
0
 40
0
 40
1
 40
1
 40
1
 40
1
 10
3.743224
 20
3.945194
 30
0.0
 10
3.733473
 20
3.921654
 30
0.0
 10
3.738863
 20
3.894558
 30
0.0
 10
3.756880
 20
3.876542
 30
0.0
  0
SPLINE
  5
123
100
AcDbEntity
  8
0
 62
7
100
AcDbSpline
 70
8
 71
3
 72
8
 73
4
 74
0
 40
0
 40
0
 40
0
 40
0
 40
1
 40
1
 40
1
 40
1
 10
3.756880
 20
3.876542
 30
0.0
 10
3.774897
 20
3.858525
 30
0.0
 10
3.801992
 20
3.853135
 30
0.0
 10
3.825533
 20
3.862886
 30
0.0
  0
SPLINE
  5
124
100
AcDbEntity
  8
0
 62
7
100
AcDbSpline
 70
8
 71
3
 72
8
 73
4
 74
0
 40
0
 40
0
 40
0
 40
0
 40
1
 40
1
 40
1
 40
1
 10
3.825533
 20
3.862886
 30
0.0
 10
3.849073
 20
3.872636
 30
0.0
 10
3.864421
 20
3.895607
 30
0.0
 10
3.864421
 20
3.921087
 30
0.0
  0
SPLINE
  5
125
100
AcDbEntity
  8
0
 62
7
100
AcDbSpline
 70
8
 71
3
 72
8
 73
4
 74
0
 40
0
 40
0
 40
0
 40
0
 40
1
 40
1
 40
1
 40
1
 10
3.864421
 20
3.921087
 30
0.0
 10
3.864421
 20
3.937794
 30
0.0
 10
3.857784
 20
3.953818
 30
0.0
 10
3.845970
 20
3.965632
 30
0.0
  0
SPLINE
  5
126
100
AcDbEntity
  8
0
 62
7
100
AcDbSpline
 70
8
 71
3
 72
8
 73
4
 74
0
 40
0
 40
0
 40
0
 40
0
 40
1
 40
1
 40
1
 40
1
 10
3.845970
 20
3.965632
 30
0.0
 10
3.834156
 20
3.977446
 30
0.0
 10
3.818133
 20
3.984083
 30
0.0
 10
3.801425
 20
3.984083
 30
0.0
  0
LWPOLYLINE
  5
127
100
AcDbEntity
  8
0
 62
7
100
AcDbPolyline
 90
1
 70
1
 10
0.761860
 20
3.984083
 30
0.0
  0
SPLINE
  5
128
100
AcDbEntity
  8
0
 62
7
100
AcDbSpline
 70
8
 71
3
 72
8
 73
4
 74
0
 40
0
 40
0
 40
0
 40
0
 40
1
 40
1
 40
1
 40
1
 10
0.761860
 20
4.141573
 30
0.0
 10
0.727068
 20
4.141573
 30
0.0
 10
0.698864
 20
4.113369
 30
0.0
 10
0.698864
 20
4.078577
 30
0.0
  0
SPLINE
  5
129
100
AcDbEntity
  8
0
 62
7
100
AcDbSpline
 70
8
 71
3
 72
8
 73
4
 74
0
 40
0
 40
0
 40
0
 40
0
 40
1
 40
1
 40
1
 40
1
 10
0.698864
 20
4.078577
 30
0.0
 10
0.698864
 20
4.043785
 30
0.0
 10
0.727068
 20
4.015581
 30
0.0
 10
0.761860
 20
4.015581
 30
0.0
  0
SPLINE
  5
12a
100
AcDbEntity
  8
0
 62
7
100
AcDbSpline
 70
8
 71
3
 72
8
 73
4
 74
0
 40
0
 40
0
 40
0
 40
0
 40
1
 40
1
 40
1
 40
1
 10
0.761860
 20
4.015581
 30
0.0
 10
0.796652
 20
4.015581
 30
0.0
 10
0.824856
 20
4.043785
 30
0.0
 10
0.824856
 20
4.078577
 30
0.0
  0
SPLINE
  5
12b
100
AcDbEntity
  8
0
 62
7
100
AcDbSpline
 70
8
 71
3
 72
8
 73
4
 74
0
 40
0
 40
0
 40
0
 40
0
 40
1
 40
1
 40
1
 40
1
 10
0.824856
 20
4.078577
 30
0.0
 10
0.824856
 20
4.095285
 30
0.0
 10
0.818219
 20
4.111308
 30
0.0
 10
0.806405
 20
4.123122
 30
0.0
  0
SPLINE
  5
12c
100
AcDbEntity
  8
0
 62
7
100
AcDbSpline
 70
8
 71
3
 72
8
 73
4
 74
0
 40
0
 40
0
 40
0
 40
0
 40
1
 40
1
 40
1
 40
1
 10
0.806405
 20
4.123122
 30
0.0
 10
0.794591
 20
4.134936
 30
0.0
 10
0.778568
 20
4.141573
 30
0.0
 10
0.761860
 20
4.141573
 30
0.0
  0
LWPOLYLINE
  5
12d
100
AcDbEntity
  8
0
 62
7
100
AcDbPolyline
 90
1
 70
1
 10
3.801425
 20
3.984083
 30
0.0
  0
SPLINE
  5
12e
100
AcDbEntity
  8
0
 62
7
100
AcDbSpline
 70
8
 71
3
 72
8
 73
4
 74
0
 40
0
 40
0
 40
0
 40
0
 40
1
 40
1
 40
1
 40
1
 10
5.966918
 20
3.003705
 30
0.0
 10
5.941438
 20
3.003705
 30
0.0
 10
5.918467
 20
2.988357
 30
0.0
 10
5.908717
 20
2.964817
 30
0.0
  0
SPLINE
  5
12f
100
AcDbEntity
  8
0
 62
7
100
AcDbSpline
 70
8
 71
3
 72
8
 73
4
 74
0
 40
0
 40
0
 40
0
 40
0
 40
1
 40
1
 40
1
 40
1
 10
5.908717
 20
2.964817
 30
0.0
 10
5.898966
 20
2.941276
 30
0.0
 10
5.904356
 20
2.914181
 30
0.0
 10
5.922373
 20
2.896164
 30
0.0
  0
SPLINE
  5
130
100
AcDbEntity
  8
0
 62
7
100
AcDbSpline
 70
8
 71
3
 72
8
 73
4
 74
0
 40
0
 40
0
 40
0
 40
0
 40
1
 40
1
 40
1
 40
1
 10
5.922373
 20
2.896164
 30
0.0
 10
5.940389
 20
2.878147
 30
0.0
 10
5.967485
 20
2.872757
 30
0.0
 10
5.991025
 20
2.882508
 30
0.0
  0
SPLINE
  5
131
100
AcDbEntity
  8
0
 62
7
100
AcDbSpline
 70
8
 71
3
 72
8
 73
4
 74
0
 40
0
 40
0
 40
0
 40
0
 40
1
 40
1
 40
1
 40
1
 10
5.991025
 20
2.882508
 30
0.0
 10
6.014565
 20
2.892259
 30
0.0
 10
6.029914
 20
2.915229
 30
0.0
 10
6.029914
 20
2.940709
 30
0.0
  0
SPLINE
  5
132
100
AcDbEntity
  8
0
 62
7
100
AcDbSpline
 70
8
 71
3
 72
8
 73
4
 74
0
 40
0
 40
0
 40
0
 40
0
 40
1
 40
1
 40
1
 40
1
 10
6.029914
 20
2.940709
 30
0.0
 10
6.029914
 20
2.957417
 30
0.0
 10
6.023277
 20
2.973440
 30
0.0
 10
6.011463
 20
2.985254
 30
0.0
  0
SPLINE
  5
133
100
AcDbEntity
  8
0
 62
7
100
AcDbSpline
 70
8
 71
3
 72
8
 73
4
 74
0
 40
0
 40
0
 40
0
 40
0
 40
1
 40
1
 40
1
 40
1
 10
6.011463
 20
2.985254
 30
0.0
 10
5.999649
 20
2.997068
 30
0.0
 10
5.983625
 20
3.003705
 30
0.0
 10
5.966918
 20
3.003705
 30
0.0
  0
LWPOLYLINE
  5
134
100
AcDbEntity
  8
0
 62
7
100
AcDbPolyline
 90
1
 70
1
 10
0.761860
 20
4.141573
 30
0.0
  0
SPLINE
  5
135
100
AcDbEntity
  8
0
 62
7
100
AcDbSpline
 70
8
 71
3
 72
8
 73
4
 74
0
 40
0
 40
0
 40
0
 40
0
 40
1
 40
1
 40
1
 40
1
 10
4.706994
 20
3.003705
 30
0.0
 10
4.681515
 20
3.003705
 30
0.0
 10
4.658544
 20
2.988357
 30
0.0
 10
4.648793
 20
2.964817
 30
0.0
  0
SPLINE
  5
136
100
AcDbEntity
  8
0
 62
7
100
AcDbSpline
 70
8
 71
3
 72
8
 73
4
 74
0
 40
0
 40
0
 40
0
 40
0
 40
1
 40
1
 40
1
 40
1
 10
4.648793
 20
2.964817
 30
0.0
 10
4.639043
 20
2.941276
 30
0.0
 10
4.644433
 20
2.914181
 30
0.0
 10
4.662449
 20
2.896164
 30
0.0
  0
SPLINE
  5
137
100
AcDbEntity
  8
0
 62
7
100
AcDbSpline
 70
8
 71
3
 72
8
 73
4
 74
0
 40
0
 40
0
 40
0
 40
0
 40
1
 40
1
 40
1
 40
1
 10
4.662449
 20
2.896164
 30
0.0
 10
4.680466
 20
2.878147
 30
0.0
 10
4.707562
 20
2.872757
 30
0.0
 10
4.731102
 20
2.882508
 30
0.0
  0
SPLINE
  5
138
100
AcDbEntity
  8
0
 62
7
100
AcDbSpline
 70
8
 71
3
 72
8
 73
4
 74
0
 40
0
 40
0
 40
0
 40
0
 40
1
 40
1
 40
1
 40
1
 10
4.731102
 20
2.882508
 30
0.0
 10
4.754642
 20
2.892259
 30
0.0
 10
4.769991
 20
2.915229
 30
0.0
 10
4.769991
 20
2.940709
 30
0.0
  0
SPLINE
  5
139
100
AcDbEntity
  8
0
 62
7
100
AcDbSpline
 70
8
 71
3
 72
8
 73
4
 74
0
 40
0
 40
0
 40
0
 40
0
 40
1
 40
1
 40
1
 40
1
 10
4.769991
 20
2.940709
 30
0.0
 10
4.769991
 20
2.957417
 30
0.0
 10
4.763353
 20
2.973440
 30
0.0
 10
4.751539
 20
2.985254
 30
0.0
  0
SPLINE
  5
13a
100
AcDbEntity
  8
0
 62
7
100
AcDbSpline
 70
8
 71
3
 72
8
 73
4
 74
0
 40
0
 40
0
 40
0
 40
0
 40
1
 40
1
 40
1
 40
1
 10
4.751539
 20
2.985254
 30
0.0
 10
4.739725
 20
2.997068
 30
0.0
 10
4.723702
 20
3.003705
 30
0.0
 10
4.706994
 20
3.003705
 30
0.0
  0
LWPOLYLINE
  5
13b
100
AcDbEntity
  8
0
 62
7
100
AcDbPolyline
 90
1
 70
1
 10
5.966918
 20
3.003705
 30
0.0
  0
SPLINE
  5
13c
100
AcDbEntity
  8
0
 62
7
100
AcDbSpline
 70
8
 71
3
 72
8
 73
4
 74
0
 40
0
 40
0
 40
0
 40
0
 40
1
 40
1
 40
1
 40
1
 10
3.801425
 20
4.141573
 30
0.0
 10
3.775945
 20
4.141573
 30
0.0
 10
3.752975
 20
4.126225
 30
0.0
 10
3.743224
 20
4.102685
 30
0.0
  0
SPLINE
  5
13d
100
AcDbEntity
  8
0
 62
7
100
AcDbSpline
 70
8
 71
3
 72
8
 73
4
 74
0
 40
0
 40
0
 40
0
 40
0
 40
1
 40
1
 40
1
 40
1
 10
3.743224
 20
4.102685
 30
0.0
 10
3.733473
 20
4.079145
 30
0.0
 10
3.738863
 20
4.052049
 30
0.0
 10
3.756880
 20
4.034032
 30
0.0
  0
SPLINE
  5
13e
100
AcDbEntity
  8
0
 62
7
100
AcDbSpline
 70
8
 71
3
 72
8
 73
4
 74
0
 40
0
 40
0
 40
0
 40
0
 40
1
 40
1
 40
1
 40
1
 10
3.756880
 20
4.034032
 30
0.0
 10
3.774897
 20
4.016015
 30
0.0
 10
3.801992
 20
4.010626
 30
0.0
 10
3.825533
 20
4.020376
 30
0.0
  0
SPLINE
  5
13f
100
AcDbEntity
  8
0
 62
7
100
AcDbSpline
 70
8
 71
3
 72
8
 73
4
 74
0
 40
0
 40
0
 40
0
 40
0
 40
1
 40
1
 40
1
 40
1
 10
3.825533
 20
4.020376
 30
0.0
 10
3.849073
 20
4.030127
 30
0.0
 10
3.864421
 20
4.053098
 30
0.0
 10
3.864421
 20
4.078577
 30
0.0
  0
SPLINE
  5
140
100
AcDbEntity
  8
0
 62
7
100
AcDbSpline
 70
8
 71
3
 72
8
 73
4
 74
0
 40
0
 40
0
 40
0
 40
0
 40
1
 40
1
 40
1
 40
1
 10
3.864421
 20
4.078577
 30
0.0
 10
3.864421
 20
4.095285
 30
0.0
 10
3.857784
 20
4.111308
 30
0.0
 10
3.845970
 20
4.123122
 30
0.0
  0
SPLINE
  5
141
100
AcDbEntity
  8
0
 62
7
100
AcDbSpline
 70
8
 71
3
 72
8
 73
4
 74
0
 40
0
 40
0
 40
0
 40
0
 40
1
 40
1
 40
1
 40
1
 10
3.845970
 20
4.123122
 30
0.0
 10
3.834156
 20
4.134936
 30
0.0
 10
3.818133
 20
4.141573
 30
0.0
 10
3.801425
 20
4.141573
 30
0.0
  0
LWPOLYLINE
  5
142
100
AcDbEntity
  8
0
 62
7
100
AcDbPolyline
 90
1
 70
1
 10
4.706994
 20
3.003705
 30
0.0
  0
LWPOLYLINE
  5
143
100
AcDbEntity
  8
0
 62
7
100
AcDbPolyline
 90
1
 70
1
 10
3.801425
 20
4.141573
 30
0.0
  0
LWPOLYLINE
  5
144
100
AcDbEntity
  8
0
 62
7
100
AcDbPolyline
 90
2
 70
0
 10
3.917574
 20
3.917149
 30
0.0
 10
3.917574
 20
4.153385
 30
0.0
  0
LWPOLYLINE
  5
145
100
AcDbEntity
  8
0
 62
7
100
AcDbPolyline
 90
2
 70
0
 10
3.157683
 20
3.917149
 30
0.0
 10
3.157683
 20
4.153385
 30
0.0
  0
LWPOLYLINE
  5
146
100
AcDbEntity
  8
0
 62
7
100
AcDbPolyline
 90
2
 70
0
 10
2.397792
 20
3.917149
 30
0.0
 10
2.397792
 20
4.153385
 30
0.0
  0
LWPOLYLINE
  5
147
100
AcDbEntity
  8
0
 62
7
100
AcDbPolyline
 90
2
 70
0
 10
1.637901
 20
3.917149
 30
0.0
 10
1.637901
 20
4.153385
 30
0.0
  0
LWPOLYLINE
  5
148
100
AcDbEntity
  8
0
 62
7
100
AcDbPolyline
 90
2
 70
0
 10
0.878009
 20
3.917149
 30
0.0
 10
0.878009
 20
4.153385
 30
0.0
  0
LWPOLYLINE
  5
149
100
AcDbEntity
  8
0
 62
7
100
AcDbPolyline
 90
2
 70
0
 10
0.118118
 20
3.917149
 30
0.0
 10
0.118118
 20
4.153385
 30
0.0
  0
LWPOLYLINE
  5
14a
100
AcDbEntity
  8
0
 62
7
100
AcDbPolyline
 90
2
 70
0
 10
0.007875
 20
0.061025
 30
0.0
 10
0.007875
 20
3.917149
 30
0.0
  0
LWPOLYLINE
  5
14b
100
AcDbEntity
  8
0
 62
7
100
AcDbPolyline
 90
2
 70
0
 10
1.456787
 20
0.001966
 30
0.0
 10
0.826825
 20
0.001966
 30
0.0
  0
LWPOLYLINE
  5
14c
100
AcDbEntity
  8
0
 62
7
100
AcDbPolyline
 90
2
 70
0
 10
1.515846
 20
3.917149
 30
0.0
 10
1.515846
 20
0.061025
 30
0.0
  0
LWPOLYLINE
  5
14d
100
AcDbEntity
  8
0
 62
7
100
AcDbPolyline
 90
2
 70
0
 10
3.736460
 20
0.001966
 30
0.0
 10
3.106499
 20
0.001966
 30
0.0
  0
LWPOLYLINE
  5
14e
100
AcDbEntity
  8
0
 62
7
100
AcDbPolyline
 90
2
 70
0
 10
4.771330
 20
1.086259
 30
0.0
 10
5.730682
 20
1.086259
 30
0.0
  0
LWPOLYLINE
  5
14f
100
AcDbEntity
  8
0
 62
7
100
AcDbPolyline
 90
2
 70
0
 10
0.645711
 20
3.917149
 30
0.0
 10
0.645711
 20
4.153385
 30
0.0
  0
LWPOLYLINE
  5
150
100
AcDbEntity
  8
0
 62
7
100
AcDbPolyline
 90
2
 70
0
 10
5.710996
 20
1.385491
 30
0.0
 10
5.600753
 20
1.385491
 30
0.0
  0
LWPOLYLINE
  5
151
100
AcDbEntity
  8
0
 62
7
100
AcDbPolyline
 90
2
 70
0
 10
0.878009
 20
4.153385
 30
0.0
 10
1.405602
 20
4.153385
 30
0.0
  0
LWPOLYLINE
  5
152
100
AcDbEntity
  8
0
 62
7
100
AcDbPolyline
 90
2
 70
0
 10
3.795519
 20
3.917149
 30
0.0
 10
3.685276
 20
3.917149
 30
0.0
  0
LWPOLYLINE
  5
153
100
AcDbEntity
  8
0
 62
7
100
AcDbPolyline
 90
2
 70
0
 10
3.807331
 20
3.917149
 30
0.0
 10
3.917574
 20
3.917149
 30
0.0
  0
LWPOLYLINE
  5
154
100
AcDbEntity
  8
0
 62
7
100
AcDbPolyline
 90
2
 70
0
 10
2.287548
 20
3.917149
 30
0.0
 10
2.397792
 20
3.917149
 30
0.0
  0
LWPOLYLINE
  5
155
100
AcDbEntity
  8
0
 62
7
100
AcDbPolyline
 90
2
 70
0
 10
0.767766
 20
3.917149
 30
0.0
 10
0.878009
 20
3.917149
 30
0.0
  0
LWPOLYLINE
  5
156
100
AcDbEntity
  8
0
 62
7
100
AcDbPolyline
 90
2
 70
0
 10
3.047440
 20
3.917149
 30
0.0
 10
3.157683
 20
3.917149
 30
0.0
  0
LWPOLYLINE
  5
157
100
AcDbEntity
  8
0
 62
7
100
AcDbPolyline
 90
2
 70
0
 10
3.795519
 20
3.917149
 30
0.0
 10
3.795519
 20
0.061025
 30
0.0
  0
SPLINE
  5
158
100
AcDbEntity
  8
0
 62
7
100
AcDbSpline
 70
8
 71
3
 72
8
 73
4
 74
0
 40
0
 40
0
 40
0
 40
0
 40
1
 40
1
 40
1
 40
1
 10
6.085036
 20
2.997378
 30
0.0
 10
6.085036
 20
3.013041
 30
0.0
 10
6.078813
 20
3.028063
 30
0.0
 10
6.067738
 20
3.039139
 30
0.0
  0
SPLINE
  5
159
100
AcDbEntity
  8
0
 62
7
100
AcDbSpline
 70
8
 71
3
 72
8
 73
4
 74
0
 40
0
 40
0
 40
0
 40
0
 40
1
 40
1
 40
1
 40
1
 10
6.067738
 20
3.039139
 30
0.0
 10
6.056662
 20
3.050215
 30
0.0
 10
6.041640
 20
3.056437
 30
0.0
 10
6.025977
 20
3.056437
 30
0.0
  0
LWPOLYLINE
  5
15a
100
AcDbEntity
  8
0
 62
7
100
AcDbPolyline
 90
2
 70
0
 10
0.767766
 20
0.061025
 30
0.0
 10
0.767766
 20
3.917149
 30
0.0
  0
SPLINE
  5
15b
100
AcDbEntity
  8
0
 62
7
100
AcDbSpline
 70
8
 71
3
 72
8
 73
4
 74
0
 40
0
 40
0
 40
0
 40
0
 40
1
 40
1
 40
1
 40
1
 10
5.789741
 20
4.098263
 30
0.0
 10
5.789741
 20
4.113927
 30
0.0
 10
5.783519
 20
4.128949
 30
0.0
 10
5.772443
 20
4.140024
 30
0.0
  0
SPLINE
  5
15c
100
AcDbEntity
  8
0
 62
7
100
AcDbSpline
 70
8
 71
3
 72
8
 73
4
 74
0
 40
0
 40
0
 40
0
 40
0
 40
1
 40
1
 40
1
 40
1
 10
5.772443
 20
4.140024
 30
0.0
 10
5.761368
 20
4.151100
 30
0.0
 10
5.746346
 20
4.157322
 30
0.0
 10
5.730682
 20
4.157322
 30
0.0
  0
LWPOLYLINE
  5
15d
100
AcDbEntity
  8
0
 62
7
100
AcDbPolyline
 90
2
 70
0
 10
2.397792
 20
4.153385
 30
0.0
 10
2.925385
 20
4.153385
 30
0.0
  0
LWPOLYLINE
  5
15e
100
AcDbEntity
  8
0
 62
7
100
AcDbPolyline
 90
2
 70
0
 10
5.073160
 20
1.385491
 30
0.0
 10
5.073160
 20
1.149256
 30
0.0
  0
LWPOLYLINE
  5
15f
100
AcDbEntity
  8
0
 62
7
100
AcDbPolyline
 90
2
 70
0
 10
2.976569
 20
0.001966
 30
0.0
 10
2.346607
 20
0.001966
 30
0.0
  0
LWPOLYLINE
  5
160
100
AcDbEntity
  8
0
 62
7
100
AcDbPolyline
 90
2
 70
0
 10
4.647936
 20
3.056437
 30
0.0
 10
6.025977
 20
3.056437
 30
0.0
  0
LWPOLYLINE
  5
161
100
AcDbEntity
  8
0
 62
7
100
AcDbPolyline
 90
2
 70
0
 10
3.685276
 20
3.917149
 30
0.0
 10
3.685276
 20
4.153385
 30
0.0
  0
LWPOLYLINE
  5
162
100
AcDbEntity
  8
0
 62
7
100
AcDbPolyline
 90
2
 70
0
 10
4.555410
 20
3.917149
 30
0.0
 10
4.445167
 20
3.917149
 30
0.0
  0
LWPOLYLINE
  5
163
100
AcDbEntity
  8
0
 62
7
100
AcDbPolyline
 90
2
 70
0
 10
4.712271
 20
3.259233
 30
0.0
 10
4.712271
 20
1.145318
 30
0.0
  0
SPLINE
  5
164
100
AcDbEntity
  8
0
 62
7
100
AcDbSpline
 70
8
 71
3
 72
8
 73
4
 74
0
 40
0
 40
0
 40
0
 40
0
 40
1
 40
1
 40
1
 40
1
 10
4.712271
 20
1.145318
 30
0.0
 10
4.712271
 20
1.129655
 30
0.0
 10
4.718493
 20
1.114633
 30
0.0
 10
4.729569
 20
1.103557
 30
0.0
  0
SPLINE
  5
165
100
AcDbEntity
  8
0
 62
7
100
AcDbSpline
 70
8
 71
3
 72
8
 73
4
 74
0
 40
0
 40
0
 40
0
 40
0
 40
1
 40
1
 40
1
 40
1
 10
4.729569
 20
1.103557
 30
0.0
 10
4.740644
 20
1.092482
 30
0.0
 10
4.755666
 20
1.086259
 30
0.0
 10
4.771330
 20
1.086259
 30
0.0
  0
SPLINE
  5
166
100
AcDbEntity
  8
0
 62
7
100
AcDbSpline
 70
8
 71
3
 72
8
 73
4
 74
0
 40
0
 40
0
 40
0
 40
0
 40
1
 40
1
 40
1
 40
1
 10
2.216678
 20
0.001966
 30
0.0
 10
2.232341
 20
0.001966
 30
0.0
 10
2.247363
 20
0.008188
 30
0.0
 10
2.258439
 20
0.019264
 30
0.0
  0
SPLINE
  5
167
100
AcDbEntity
  8
0
 62
7
100
AcDbSpline
 70
8
 71
3
 72
8
 73
4
 74
0
 40
0
 40
0
 40
0
 40
0
 40
1
 40
1
 40
1
 40
1
 10
2.258439
 20
0.019264
 30
0.0
 10
2.269514
 20
0.030339
 30
0.0
 10
2.275737
 20
0.045361
 30
0.0
 10
2.275737
 20
0.061025
 30
0.0
  0
SPLINE
  5
168
100
AcDbEntity
  8
0
 62
7
100
AcDbSpline
 70
8
 71
3
 72
8
 73
4
 74
0
 40
0
 40
0
 40
0
 40
0
 40
1
 40
1
 40
1
 40
1
 10
0.007871
 20
0.061025
 30
0.0
 10
0.007871
 20
0.045360
 30
0.0
 10
0.014094
 20
0.030338
 30
0.0
 10
0.025170
 20
0.019262
 30
0.0
  0
SPLINE
  5
169
100
AcDbEntity
  8
0
 62
7
100
AcDbSpline
 70
8
 71
3
 72
8
 73
4
 74
0
 40
0
 40
0
 40
0
 40
0
 40
1
 40
1
 40
1
 40
1
 10
0.025170
 20
0.019262
 30
0.0
 10
0.036247
 20
0.008186
 30
0.0
 10
0.051270
 20
0.001965
 30
0.0
 10
0.066934
 20
0.001966
 30
0.0
  0
LWPOLYLINE
  5
16a
100
AcDbEntity
  8
0
 62
7
100
AcDbPolyline
 90
2
 70
0
 10
1.527657
 20
3.917149
 30
0.0
 10
1.637901
 20
3.917149
 30
0.0
  0
LWPOLYLINE
  5
16b
100
AcDbEntity
  8
0
 62
7
100
AcDbPolyline
 90
2
 70
0
 10
4.555410
 20
3.917149
 30
0.0
 10
4.555410
 20
0.061025
 30
0.0
  0
LWPOLYLINE
  5
16c
100
AcDbEntity
  8
0
 62
7
100
AcDbPolyline
 90
2
 70
0
 10
1.405602
 20
3.917149
 30
0.0
 10
1.405602
 20
4.153385
 30
0.0
  0
LWPOLYLINE
  5
16d
100
AcDbEntity
  8
0
 62
7
100
AcDbPolyline
 90
2
 70
0
 10
1.637901
 20
4.153385
 30
0.0
 10
2.165493
 20
4.153385
 30
0.0
  0
LWPOLYLINE
  5
16e
100
AcDbEntity
  8
0
 62
7
100
AcDbPolyline
 90
2
 70
0
 10
4.962917
 20
1.385491
 30
0.0
 10
4.588877
 20
1.385491
 30
0.0
  0
SPLINE
  5
16f
100
AcDbEntity
  8
0
 62
7
100
AcDbSpline
 70
8
 71
3
 72
8
 73
4
 74
0
 40
0
 40
0
 40
0
 40
0
 40
1
 40
1
 40
1
 40
1
 10
3.047436
 20
0.061025
 30
0.0
 10
3.047436
 20
0.045360
 30
0.0
 10
3.053659
 20
0.030338
 30
0.0
 10
3.064735
 20
0.019262
 30
0.0
  0
SPLINE
  5
170
100
AcDbEntity
  8
0
 62
7
100
AcDbSpline
 70
8
 71
3
 72
8
 73
4
 74
0
 40
0
 40
0
 40
0
 40
0
 40
1
 40
1
 40
1
 40
1
 10
3.064735
 20
0.019262
 30
0.0
 10
3.075812
 20
0.008186
 30
0.0
 10
3.090834
 20
0.001965
 30
0.0
 10
3.106499
 20
0.001966
 30
0.0
  0
LWPOLYLINE
  5
171
100
AcDbEntity
  8
0
 62
7
100
AcDbPolyline
 90
2
 70
0
 10
3.157683
 20
4.153385
 30
0.0
 10
3.685276
 20
4.153385
 30
0.0
  0
LWPOLYLINE
  5
172
100
AcDbEntity
  8
0
 62
7
100
AcDbPolyline
 90
2
 70
0
 10
3.917574
 20
4.153385
 30
0.0
 10
4.445167
 20
4.153385
 30
0.0
  0
LWPOLYLINE
  5
173
100
AcDbEntity
  8
0
 62
7
100
AcDbPolyline
 90
2
 70
0
 10
0.755954
 20
3.917149
 30
0.0
 10
0.755954
 20
0.061025
 30
0.0
  0
LWPOLYLINE
  5
174
100
AcDbEntity
  8
0
 62
7
100
AcDbPolyline
 90
2
 70
0
 10
4.588877
 20
1.385491
 30
0.0
 10
4.588877
 20
2.997378
 30
0.0
  0
LWPOLYLINE
  5
175
100
AcDbEntity
  8
0
 62
7
100
AcDbPolyline
 90
2
 70
0
 10
0.061028
 20
3.409243
 30
0.0
 10
4.562261
 20
3.409243
 30
0.0
  0
SPLINE
  5
176
100
AcDbEntity
  8
0
 62
7
100
AcDbSpline
 70
8
 71
3
 72
8
 73
4
 74
0
 40
0
 40
0
 40
0
 40
0
 40
1
 40
1
 40
1
 40
1
 10
0.001969
 20
3.468302
 30
0.0
 10
0.001969
 20
3.452638
 30
0.0
 10
0.008191
 20
3.437617
 30
0.0
 10
0.019267
 20
3.426541
 30
0.0
  0
SPLINE
  5
177
100
AcDbEntity
  8
0
 62
7
100
AcDbSpline
 70
8
 71
3
 72
8
 73
4
 74
0
 40
0
 40
0
 40
0
 40
0
 40
1
 40
1
 40
1
 40
1
 10
0.019267
 20
3.426541
 30
0.0
 10
0.030343
 20
3.415465
 30
0.0
 10
0.045365
 20
3.409243
 30
0.0
 10
0.061028
 20
3.409243
 30
0.0
  0
SPLINE
  5
178
100
AcDbEntity
  8
0
 62
7
100
AcDbSpline
 70
8
 71
3
 72
8
 73
4
 74
0
 40
0
 40
0
 40
0
 40
0
 40
1
 40
1
 40
1
 40
1
 10
4.647936
 20
3.056437
 30
0.0
 10
4.632272
 20
3.056437
 30
0.0
 10
4.617251
 20
3.050215
 30
0.0
 10
4.606175
 20
3.039139
 30
0.0
  0
SPLINE
  5
179
100
AcDbEntity
  8
0
 62
7
100
AcDbSpline
 70
8
 71
3
 72
8
 73
4
 74
0
 40
0
 40
0
 40
0
 40
0
 40
1
 40
1
 40
1
 40
1
 10
4.606175
 20
3.039139
 30
0.0
 10
4.595099
 20
3.028063
 30
0.0
 10
4.588877
 20
3.013041
 30
0.0
 10
4.588877
 20
2.997378
 30
0.0
  0
LWPOLYLINE
  5
17a
100
AcDbEntity
  8
0
 62
7
100
AcDbPolyline
 90
2
 70
0
 10
2.275737
 20
3.917149
 30
0.0
 10
2.165493
 20
3.917149
 30
0.0
  0
LWPOLYLINE
  5
17b
100
AcDbEntity
  8
0
 62
7
100
AcDbPolyline
 90
2
 70
0
 10
0.118118
 20
4.153385
 30
0.0
 10
0.645711
 20
4.153385
 30
0.0
  0
LWPOLYLINE
  5
17c
100
AcDbEntity
  8
0
 62
7
100
AcDbPolyline
 90
2
 70
0
 10
3.035628
 20
3.917149
 30
0.0
 10
2.925385
 20
3.917149
 30
0.0
  0
SPLINE
  5
17d
100
AcDbEntity
  8
0
 62
7
100
AcDbSpline
 70
8
 71
3
 72
8
 73
4
 74
0
 40
0
 40
0
 40
0
 40
0
 40
1
 40
1
 40
1
 40
1
 10
0.061028
 20
4.157322
 30
0.0
 10
0.045365
 20
4.157322
 30
0.0
 10
0.030343
 20
4.151100
 30
0.0
 10
0.019267
 20
4.140024
 30
0.0
  0
SPLINE
  5
17e
100
AcDbEntity
  8
0
 62
7
100
AcDbSpline
 70
8
 71
3
 72
8
 73
4
 74
0
 40
0
 40
0
 40
0
 40
0
 40
1
 40
1
 40
1
 40
1
 10
0.019267
 20
4.140024
 30
0.0
 10
0.008191
 20
4.128949
 30
0.0
 10
0.001969
 20
4.113927
 30
0.0
 10
0.001969
 20
4.098263
 30
0.0
  0
LWPOLYLINE
  5
17f
100
AcDbEntity
  8
0
 62
7
100
AcDbPolyline
 90
2
 70
0
 10
0.696895
 20
0.001966
 30
0.0
 10
0.066934
 20
0.001966
 30
0.0
  0
SPLINE
  5
180
100
AcDbEntity
  8
0
 62
7
100
AcDbSpline
 70
8
 71
3
 72
8
 73
4
 74
0
 40
0
 40
0
 40
0
 40
0
 40
1
 40
1
 40
1
 40
1
 10
1.527653
 20
0.061025
 30
0.0
 10
1.527653
 20
0.045360
 30
0.0
 10
1.533876
 20
0.030338
 30
0.0
 10
1.544953
 20
0.019262
 30
0.0
  0
SPLINE
  5
181
100
AcDbEntity
  8
0
 62
7
100
AcDbSpline
 70
8
 71
3
 72
8
 73
4
 74
0
 40
0
 40
0
 40
0
 40
0
 40
1
 40
1
 40
1
 40
1
 10
1.544953
 20
0.019262
 30
0.0
 10
1.556029
 20
0.008186
 30
0.0
 10
1.571052
 20
0.001965
 30
0.0
 10
1.586716
 20
0.001966
 30
0.0
  0
LWPOLYLINE
  5
182
100
AcDbEntity
  8
0
 62
7
100
AcDbPolyline
 90
2
 70
0
 10
0.755954
 20
3.917149
 30
0.0
 10
0.645711
 20
3.917149
 30
0.0
  0
LWPOLYLINE
  5
183
100
AcDbEntity
  8
0
 62
7
100
AcDbPolyline
 90
2
 70
0
 10
1.527657
 20
0.061025
 30
0.0
 10
1.527657
 20
3.917149
 30
0.0
  0
LWPOLYLINE
  5
184
100
AcDbEntity
  8
0
 62
7
100
AcDbPolyline
 90
2
 70
0
 10
2.925385
 20
3.917149
 30
0.0
 10
2.925385
 20
4.153385
 30
0.0
  0
LWPOLYLINE
  5
185
100
AcDbEntity
  8
0
 62
7
100
AcDbPolyline
 90
2
 70
0
 10
3.807331
 20
0.061025
 30
0.0
 10
3.807331
 20
3.917149
 30
0.0
  0
LWPOLYLINE
  5
186
100
AcDbEntity
  8
0
 62
7
100
AcDbPolyline
 90
2
 70
0
 10
5.789741
 20
4.098263
 30
0.0
 10
5.789741
 20
1.145318
 30
0.0
  0
LWPOLYLINE
  5
187
100
AcDbEntity
  8
0
 62
7
100
AcDbPolyline
 90
2
 70
0
 10
4.445167
 20
3.917149
 30
0.0
 10
4.445167
 20
4.153385
 30
0.0
  0
LWPOLYLINE
  5
188
100
AcDbEntity
  8
0
 62
7
100
AcDbPolyline
 90
2
 70
0
 10
2.275737
 20
3.917149
 30
0.0
 10
2.275737
 20
0.061025
 30
0.0
  0
LWPOLYLINE
  5
189
100
AcDbEntity
  8
0
 62
7
100
AcDbPolyline
 90
2
 70
0
 10
4.962917
 20
1.385491
 30
0.0
 10
5.073160
 20
1.385491
 30
0.0
  0
SPLINE
  5
18a
100
AcDbEntity
  8
0
 62
7
100
AcDbSpline
 70
8
 71
3
 72
8
 73
4
 74
0
 40
0
 40
0
 40
0
 40
0
 40
1
 40
1
 40
1
 40
1
 10
2.287545
 20
0.061025
 30
0.0
 10
2.287545
 20
0.045360
 30
0.0
 10
2.293767
 20
0.030338
 30
0.0
 10
2.304844
 20
0.019262
 30
0.0
  0
SPLINE
  5
18b
100
AcDbEntity
  8
0
 62
7
100
AcDbSpline
 70
8
 71
3
 72
8
 73
4
 74
0
 40
0
 40
0
 40
0
 40
0
 40
1
 40
1
 40
1
 40
1
 10
2.304844
 20
0.019262
 30
0.0
 10
2.315920
 20
0.008186
 30
0.0
 10
2.330943
 20
0.001965
 30
0.0
 10
2.346607
 20
0.001966
 30
0.0
  0
LWPOLYLINE
  5
18c
100
AcDbEntity
  8
0
 62
7
100
AcDbPolyline
 90
2
 70
0
 10
5.600753
 20
1.149256
 30
0.0
 10
5.600753
 20
1.385491
 30
0.0
  0
SPLINE
  5
18d
100
AcDbEntity
  8
0
 62
7
100
AcDbSpline
 70
8
 71
3
 72
8
 73
4
 74
0
 40
0
 40
0
 40
0
 40
0
 40
1
 40
1
 40
1
 40
1
 10
0.696895
 20
0.001966
 30
0.0
 10
0.712559
 20
0.001966
 30
0.0
 10
0.727581
 20
0.008188
 30
0.0
 10
0.738656
 20
0.019264
 30
0.0
  0
SPLINE
  5
18e
100
AcDbEntity
  8
0
 62
7
100
AcDbSpline
 70
8
 71
3
 72
8
 73
4
 74
0
 40
0
 40
0
 40
0
 40
0
 40
1
 40
1
 40
1
 40
1
 10
0.738656
 20
0.019264
 30
0.0
 10
0.749732
 20
0.030339
 30
0.0
 10
0.755954
 20
0.045361
 30
0.0
 10
0.755954
 20
0.061025
 30
0.0
  0
LWPOLYLINE
  5
18f
100
AcDbEntity
  8
0
 62
7
100
AcDbPolyline
 90
2
 70
0
 10
3.035628
 20
3.917149
 30
0.0
 10
3.035628
 20
0.061025
 30
0.0
  0
SPLINE
  5
190
100
AcDbEntity
  8
0
 62
7
100
AcDbSpline
 70
8
 71
3
 72
8
 73
4
 74
0
 40
0
 40
0
 40
0
 40
0
 40
1
 40
1
 40
1
 40
1
 10
5.730682
 20
1.086259
 30
0.0
 10
5.746346
 20
1.086259
 30
0.0
 10
5.761368
 20
1.092482
 30
0.0
 10
5.772443
 20
1.103557
 30
0.0
  0
SPLINE
  5
191
100
AcDbEntity
  8
0
 62
7
100
AcDbSpline
 70
8
 71
3
 72
8
 73
4
 74
0
 40
0
 40
0
 40
0
 40
0
 40
1
 40
1
 40
1
 40
1
 10
5.772443
 20
1.103557
 30
0.0
 10
5.783519
 20
1.114633
 30
0.0
 10
5.789741
 20
1.129655
 30
0.0
 10
5.789741
 20
1.145318
 30
0.0
  0
LWPOLYLINE
  5
192
100
AcDbEntity
  8
0
 62
7
100
AcDbPolyline
 90
2
 70
0
 10
5.710996
 20
1.385491
 30
0.0
 10
6.085036
 20
1.385491
 30
0.0
  0
SPLINE
  5
193
100
AcDbEntity
  8
0
 62
7
100
AcDbSpline
 70
8
 71
3
 72
8
 73
4
 74
0
 40
0
 40
0
 40
0
 40
0
 40
1
 40
1
 40
1
 40
1
 10
4.712271
 20
3.259233
 30
0.0
 10
4.712271
 20
3.299018
 30
0.0
 10
4.696466
 20
3.337174
 30
0.0
 10
4.668334
 20
3.365306
 30
0.0
  0
SPLINE
  5
194
100
AcDbEntity
  8
0
 62
7
100
AcDbSpline
 70
8
 71
3
 72
8
 73
4
 74
0
 40
0
 40
0
 40
0
 40
0
 40
1
 40
1
 40
1
 40
1
 10
4.668334
 20
3.365306
 30
0.0
 10
4.640202
 20
3.393438
 30
0.0
 10
4.602046
 20
3.409243
 30
0.0
 10
4.562261
 20
3.409243
 30
0.0
  0
SPLINE
  5
195
100
AcDbEntity
  8
0
 62
7
100
AcDbSpline
 70
8
 71
3
 72
8
 73
4
 74
0
 40
0
 40
0
 40
0
 40
0
 40
1
 40
1
 40
1
 40
1
 10
0.767762
 20
0.061025
 30
0.0
 10
0.767762
 20
0.045360
 30
0.0
 10
0.773985
 20
0.030338
 30
0.0
 10
0.785062
 20
0.019262
 30
0.0
  0
SPLINE
  5
196
100
AcDbEntity
  8
0
 62
7
100
AcDbSpline
 70
8
 71
3
 72
8
 73
4
 74
0
 40
0
 40
0
 40
0
 40
0
 40
1
 40
1
 40
1
 40
1
 10
0.785062
 20
0.019262
 30
0.0
 10
0.796138
 20
0.008186
 30
0.0
 10
0.811161
 20
0.001965
 30
0.0
 10
0.826825
 20
0.001966
 30
0.0
  0
LWPOLYLINE
  5
197
100
AcDbEntity
  8
0
 62
7
100
AcDbPolyline
 90
2
 70
0
 10
6.085036
 20
2.997378
 30
0.0
 10
6.085036
 20
1.385491
 30
0.0
  0
LWPOLYLINE
  5
198
100
AcDbEntity
  8
0
 62
7
100
AcDbPolyline
 90
2
 70
0
 10
2.216678
 20
0.001966
 30
0.0
 10
1.586716
 20
0.001966
 30
0.0
  0
SPLINE
  5
199
100
AcDbEntity
  8
0
 62
7
100
AcDbSpline
 70
8
 71
3
 72
8
 73
4
 74
0
 40
0
 40
0
 40
0
 40
0
 40
1
 40
1
 40
1
 40
1
 10
3.736460
 20
0.001966
 30
0.0
 10
3.752124
 20
0.001966
 30
0.0
 10
3.767145
 20
0.008188
 30
0.0
 10
3.778221
 20
0.019264
 30
0.0
  0
SPLINE
  5
19a
100
AcDbEntity
  8
0
 62
7
100
AcDbSpline
 70
8
 71
3
 72
8
 73
4
 74
0
 40
0
 40
0
 40
0
 40
0
 40
1
 40
1
 40
1
 40
1
 10
3.778221
 20
0.019264
 30
0.0
 10
3.789297
 20
0.030339
 30
0.0
 10
3.795519
 20
0.045361
 30
0.0
 10
3.795519
 20
0.061025
 30
0.0
  0
LWPOLYLINE
  5
19b
100
AcDbEntity
  8
0
 62
7
100
AcDbPolyline
 90
2
 70
0
 10
5.730682
 20
4.157322
 30
0.0
 10
0.061028
 20
4.157322
 30
0.0
  0
SPLINE
  5
19c
100
AcDbEntity
  8
0
 62
7
100
AcDbSpline
 70
8
 71
3
 72
8
 73
4
 74
0
 40
0
 40
0
 40
0
 40
0
 40
1
 40
1
 40
1
 40
1
 10
1.456787
 20
0.001966
 30
0.0
 10
1.472450
 20
0.001966
 30
0.0
 10
1.487472
 20
0.008188
 30
0.0
 10
1.498548
 20
0.019264
 30
0.0
  0
SPLINE
  5
19d
100
AcDbEntity
  8
0
 62
7
100
AcDbSpline
 70
8
 71
3
 72
8
 73
4
 74
0
 40
0
 40
0
 40
0
 40
0
 40
1
 40
1
 40
1
 40
1
 10
1.498548
 20
0.019264
 30
0.0
 10
1.509623
 20
0.030339
 30
0.0
 10
1.515846
 20
0.045361
 30
0.0
 10
1.515846
 20
0.061025
 30
0.0
  0
SPLINE
  5
19e
100
AcDbEntity
  8
0
 62
7
100
AcDbSpline
 70
8
 71
3
 72
8
 73
4
 74
0
 40
0
 40
0
 40
0
 40
0
 40
1
 40
1
 40
1
 40
1
 10
4.496351
 20
0.001966
 30
0.0
 10
4.512015
 20
0.001966
 30
0.0
 10
4.527037
 20
0.008188
 30
0.0
 10
4.538112
 20
0.019264
 30
0.0
  0
SPLINE
  5
19f
100
AcDbEntity
  8
0
 62
7
100
AcDbSpline
 70
8
 71
3
 72
8
 73
4
 74
0
 40
0
 40
0
 40
0
 40
0
 40
1
 40
1
 40
1
 40
1
 10
4.538112
 20
0.019264
 30
0.0
 10
4.549188
 20
0.030339
 30
0.0
 10
4.555410
 20
0.045361
 30
0.0
 10
4.555410
 20
0.061025
 30
0.0
  0
LWPOLYLINE
  5
1a0
100
AcDbEntity
  8
0
 62
7
100
AcDbPolyline
 90
2
 70
0
 10
2.165493
 20
3.917149
 30
0.0
 10
2.165493
 20
4.153385
 30
0.0
  0
LWPOLYLINE
  5
1a1
100
AcDbEntity
  8
0
 62
7
100
AcDbPolyline
 90
2
 70
0
 10
0.001969
 20
4.098263
 30
0.0
 10
0.001969
 20
3.468302
 30
0.0
  0
SPLINE
  5
1a2
100
AcDbEntity
  8
0
 62
7
100
AcDbSpline
 70
8
 71
3
 72
8
 73
4
 74
0
 40
0
 40
0
 40
0
 40
0
 40
1
 40
1
 40
1
 40
1
 10
2.976569
 20
0.001966
 30
0.0
 10
2.992232
 20
0.001966
 30
0.0
 10
3.007254
 20
0.008188
 30
0.0
 10
3.018330
 20
0.019264
 30
0.0
  0
SPLINE
  5
1a3
100
AcDbEntity
  8
0
 62
7
100
AcDbSpline
 70
8
 71
3
 72
8
 73
4
 74
0
 40
0
 40
0
 40
0
 40
0
 40
1
 40
1
 40
1
 40
1
 10
3.018330
 20
0.019264
 30
0.0
 10
3.029406
 20
0.030339
 30
0.0
 10
3.035628
 20
0.045361
 30
0.0
 10
3.035628
 20
0.061025
 30
0.0
  0
SPLINE
  5
1a4
100
AcDbEntity
  8
0
 62
7
100
AcDbSpline
 70
8
 71
3
 72
8
 73
4
 74
0
 40
0
 40
0
 40
0
 40
0
 40
1
 40
1
 40
1
 40
1
 10
3.807327
 20
0.061025
 30
0.0
 10
3.807327
 20
0.045360
 30
0.0
 10
3.813550
 20
0.030338
 30
0.0
 10
3.824626
 20
0.019262
 30
0.0
  0
SPLINE
  5
1a5
100
AcDbEntity
  8
0
 62
7
100
AcDbSpline
 70
8
 71
3
 72
8
 73
4
 74
0
 40
0
 40
0
 40
0
 40
0
 40
1
 40
1
 40
1
 40
1
 10
3.824626
 20
0.019262
 30
0.0
 10
3.835703
 20
0.008186
 30
0.0
 10
3.850726
 20
0.001965
 30
0.0
 10
3.866390
 20
0.001966
 30
0.0
  0
LWPOLYLINE
  5
1a6
100
AcDbEntity
  8
0
 62
7
100
AcDbPolyline
 90
2
 70
0
 10
1.515846
 20
3.917149
 30
0.0
 10
1.405602
 20
3.917149
 30
0.0
  0
LWPOLYLINE
  5
1a7
100
AcDbEntity
  8
0
 62
7
100
AcDbPolyline
 90
2
 70
0
 10
3.047440
 20
0.061025
 30
0.0
 10
3.047440
 20
3.917149
 30
0.0
  0
LWPOLYLINE
  5
1a8
100
AcDbEntity
  8
0
 62
7
100
AcDbPolyline
 90
2
 70
0
 10
2.287548
 20
0.061025
 30
0.0
 10
2.287548
 20
3.917149
 30
0.0
  0
LWPOLYLINE
  5
1a9
100
AcDbEntity
  8
0
 62
7
100
AcDbPolyline
 90
2
 70
0
 10
5.600753
 20
1.149256
 30
0.0
 10
5.073160
 20
1.149256
 30
0.0
  0
LWPOLYLINE
  5
1aa
100
AcDbEntity
  8
0
 62
7
100
AcDbPolyline
 90
2
 70
0
 10
0.007875
 20
3.917149
 30
0.0
 10
0.118118
 20
3.917149
 30
0.0
  0
LWPOLYLINE
  5
1ab
100
AcDbEntity
  8
0
 62
7
100
AcDbPolyline
 90
2
 70
0
 10
4.496351
 20
0.001966
 30
0.0
 10
3.866390
 20
0.001966
 30
0.0
  0
ENDSEC
  0
SECTION
  2
OBJECTS
  0
DICTIONARY
  5
C
330
0
100
AcDbDictionary
  3
ACAD_GROUP
350
D
  3
ACAD_MLINESTYLE
350
17
  0
DICTIONARY
  5
D
330
C
100
AcDbDictionary
  0
DICTIONARY
  5
1A
330
C
100
AcDbDictionary
  0
DICTIONARY
  5
17
330
C
100
AcDbDictionary
  3
STANDARD
350
18
  0
DICTIONARY
  5
19
330
C
100
AcDbDictionary
  0
ENDSEC
  0
EOF
