  0
SECTION
  2
HEADER
  9
$ACADVER
  1
AC1014
  9
$HANDSEED
  5
FFFF
  9
$INSUNITS
 70
     4
  9
$MEASUREMENT
 70
     1
  0
ENDSEC
  0
SECTION
  2
TABLES
  0
TABLE
  2
VPORT
  5
8
330
0
100
AcDbSymbolTable
 70
     4
  0
VPORT
  5
2E
330
8
100
AcDbSymbolTableRecord
100
AcDbViewportTableRecord
  2
*ACTIVE
 70
     0
 10
0.0
 20
0.0
 11
1.0
 21
1.0
 12
210.0
 22
148.5
 13
0.0
 23
0.0
 14
10.0
 24
10.0
 15
10.0
 25
10.0
 16
0.0
 26
0.0
 36
1.0
 17
0.0
 27
0.0
 37
0.0
 40
341.0
 41
1.24
 42
50.0
 43
0.0
 44
0.0
 50
0.0
 51
0.0
 71
     0
 72
   100
 73
     1
 74
     3
 75
     0
 76
     0
 77
     0
 78
     0
  0
ENDTAB
  0
TABLE
  2
LTYPE
  5
5
330
0
100
AcDbSymbolTable
 70
     1
  0
LTYPE
  5
14
330
5
100
AcDbSymbolTableRecord
100
AcDbLinetypeTableRecord
  2
BYBLOCK
 70
     0
  3

 72
    65
 73
     0
 40
0.0
  0
LTYPE
  5
15
330
5
100
AcDbSymbolTableRecord
100
AcDbLinetypeTableRecord
  2
BYLAYER
 70
     0
  3

 72
    65
 73
     0
 40
0.0
  0
LTYPE
  5
16
330
5
100
AcDbSymbolTableRecord
100
AcDbLinetypeTableRecord
  2
CONTINUOUS
 70
     0
  3
Solid line
 72
    65
 73
     0
 40
0.0
  0
ENDTAB
  0
TABLE
  2
LAYER
  5
2
100
AcDbSymbolTable
 70
1
  0
LAYER
  5
50
100
AcDbSymbolTableRecord
100
AcDbLayerTableRecord
  2
0
 70
0
  6
CONTINUOUS
  0
ENDTAB
  0
TABLE
  2
STYLE
  5
3
330
0
100
AcDbSymbolTable
 70
     1
  0
STYLE
  5
11
330
3
100
AcDbSymbolTableRecord
100
AcDbTextStyleTableRecord
  2
STANDARD
 70
     0
 40
0.0
 41
1.0
 50
0.0
 71
     0
 42
2.5
  3
txt
  4

  0
ENDTAB
  0
TABLE
  2
VIEW
  5
6
330
0
100
AcDbSymbolTable
 70
     0
  0
ENDTAB
  0
TABLE
  2
UCS
  5
7
330
0
100
AcDbSymbolTable
 70
     0
  0
ENDTAB
  0
TABLE
  2
APPID
  5
9
330
0
100
AcDbSymbolTable
 70
     2
  0
APPID
  5
12
330
9
100
AcDbSymbolTableRecord
100
AcDbRegAppTableRecord
  2
ACAD
 70
     0
  0
ENDTAB
  0
TABLE
  2
DIMSTYLE
  5
A
330
0
100
AcDbSymbolTable
 70
     1
  0
DIMSTYLE
105
27
330
A
100
AcDbSymbolTableRecord
100
AcDbDimStyleTableRecord
  2
ISO-25
 70
     0
  3

  4

  5

  6

  7

 40
1.0
 41
2.5
 42
0.625
 43
3.75
 44
1.25
 45
0.0
 46
0.0
 47
0.0
 48
0.0
140
2.5
141
2.5
142
0.0
143
0.03937007874016
144
1.0
145
0.0
146
1.0
147
0.625
 71
     0
 72
     0
 73
     0
 74
     0
 75
     0
 76
     0
 77
     1
 78
     8
170
     0
171
     3
172
     1
173
     0
174
     0
175
     0
176
     0
177
     0
178
     0
270
     2
271
     2
272
     2
273
     2
274
     3
340
11
275
     0
280
     0
281
     0
282
     0
283
     0
284
     8
285
     0
286
     0
287
     3
288
     0
  0
ENDTAB
  0
TABLE
  2
BLOCK_RECORD
  5
1
330
0
100
AcDbSymbolTable
 70
     1
  0
BLOCK_RECORD
  5
1F
330
1
100
AcDbSymbolTableRecord
100
AcDbBlockTableRecord
  2
*MODEL_SPACE
  0
BLOCK_RECORD
  5
1B
330
1
100
AcDbSymbolTableRecord
100
AcDbBlockTableRecord
  2
*PAPER_SPACE
  0
ENDTAB
  0
ENDSEC
  0
SECTION
  2
BLOCKS
  0
BLOCK
  5
20
330
1F
100
AcDbEntity
  8
0
100
AcDbBlockBegin
  2
*MODEL_SPACE
 70
     0
 10
0.0
 20
0.0
 30
0.0
  3
*MODEL_SPACE
  1

  0
ENDBLK
  5
21
330
1F
100
AcDbEntity
  8
0
100
AcDbBlockEnd
  0
BLOCK
  5
1C
330
1B
100
AcDbEntity
 67
     1
  8
0
100
AcDbBlockBegin
  2
*PAPER_SPACE
  1

  0
ENDBLK
  5
1D
330
1B
100
AcDbEntity
 67
     1
  8
0
100
AcDbBlockEnd
  0
ENDSEC
  0
SECTION
  2
ENTITIES
  0
SPLINE
  5
100
100
AcDbEntity
  8
0
 62
7
100
AcDbSpline
 70
8
 71
3
 72
8
 73
4
 74
0
 40
0
 40
0
 40
0
 40
0
 40
1
 40
1
 40
1
 40
1
 10
0.318909
 20
3.547533
 30
0.0
 10
0.287060
 20
3.547533
 30
0.0
 10
0.258346
 20
3.528347
 30
0.0
 10
0.246157
 20
3.498922
 30
0.0
  0
SPLINE
  5
101
100
AcDbEntity
  8
0
 62
7
100
AcDbSpline
 70
8
 71
3
 72
8
 73
4
 74
0
 40
0
 40
0
 40
0
 40
0
 40
1
 40
1
 40
1
 40
1
 10
0.246157
 20
3.498922
 30
0.0
 10
0.233969
 20
3.469496
 30
0.0
 10
0.240706
 20
3.435626
 30
0.0
 10
0.263227
 20
3.413105
 30
0.0
  0
SPLINE
  5
102
100
AcDbEntity
  8
0
 62
7
100
AcDbSpline
 70
8
 71
3
 72
8
 73
4
 74
0
 40
0
 40
0
 40
0
 40
0
 40
1
 40
1
 40
1
 40
1
 10
0.263227
 20
3.413105
 30
0.0
 10
0.285749
 20
3.390583
 30
0.0
 10
0.319619
 20
3.383846
 30
0.0
 10
0.349044
 20
3.396035
 30
0.0
  0
SPLINE
  5
103
100
AcDbEntity
  8
0
 62
7
100
AcDbSpline
 70
8
 71
3
 72
8
 73
4
 74
0
 40
0
 40
0
 40
0
 40
0
 40
1
 40
1
 40
1
 40
1
 10
0.349044
 20
3.396035
 30
0.0
 10
0.378470
 20
3.408223
 30
0.0
 10
0.397656
 20
3.436937
 30
0.0
 10
0.397656
 20
3.468787
 30
0.0
  0
SPLINE
  5
104
100
AcDbEntity
  8
0
 62
7
100
AcDbSpline
 70
8
 71
3
 72
8
 73
4
 74
0
 40
0
 40
0
 40
0
 40
0
 40
1
 40
1
 40
1
 40
1
 10
0.397656
 20
3.468787
 30
0.0
 10
0.397656
 20
3.489672
 30
0.0
 10
0.389359
 20
3.509701
 30
0.0
 10
0.374592
 20
3.524469
 30
0.0
  0
SPLINE
  5
105
100
AcDbEntity
  8
0
 62
7
100
AcDbSpline
 70
8
 71
3
 72
8
 73
4
 74
0
 40
0
 40
0
 40
0
 40
0
 40
1
 40
1
 40
1
 40
1
 10
0.374592
 20
3.524469
 30
0.0
 10
0.359824
 20
3.539237
 30
0.0
 10
0.339794
 20
3.547533
 30
0.0
 10
0.318909
 20
3.547533
 30
0.0
  0
SPLINE
  5
106
100
AcDbEntity
  8
0
 62
7
100
AcDbSpline
 70
8
 71
3
 72
8
 73
4
 74
0
 40
0
 40
0
 40
0
 40
0
 40
1
 40
1
 40
1
 40
1
 10
4.118423
 20
2.799442
 30
0.0
 10
4.086574
 20
2.799442
 30
0.0
 10
4.057860
 20
2.780256
 30
0.0
 10
4.045671
 20
2.750831
 30
0.0
  0
SPLINE
  5
107
100
AcDbEntity
  8
0
 62
7
100
AcDbSpline
 70
8
 71
3
 72
8
 73
4
 74
0
 40
0
 40
0
 40
0
 40
0
 40
1
 40
1
 40
1
 40
1
 10
4.045671
 20
2.750831
 30
0.0
 10
4.033483
 20
2.721405
 30
0.0
 10
4.040220
 20
2.687535
 30
0.0
 10
4.062741
 20
2.665014
 30
0.0
  0
SPLINE
  5
108
100
AcDbEntity
  8
0
 62
7
100
AcDbSpline
 70
8
 71
3
 72
8
 73
4
 74
0
 40
0
 40
0
 40
0
 40
0
 40
1
 40
1
 40
1
 40
1
 10
4.062741
 20
2.665014
 30
0.0
 10
4.085263
 20
2.642493
 30
0.0
 10
4.119133
 20
2.635755
 30
0.0
 10
4.148558
 20
2.647944
 30
0.0
  0
SPLINE
  5
109
100
AcDbEntity
  8
0
 62
7
100
AcDbSpline
 70
8
 71
3
 72
8
 73
4
 74
0
 40
0
 40
0
 40
0
 40
0
 40
1
 40
1
 40
1
 40
1
 10
4.148558
 20
2.647944
 30
0.0
 10
4.177984
 20
2.660132
 30
0.0
 10
4.197170
 20
2.688846
 30
0.0
 10
4.197170
 20
2.720696
 30
0.0
  0
SPLINE
  5
10a
100
AcDbEntity
  8
0
 62
7
100
AcDbSpline
 70
8
 71
3
 72
8
 73
4
 74
0
 40
0
 40
0
 40
0
 40
0
 40
1
 40
1
 40
1
 40
1
 10
4.197170
 20
2.720696
 30
0.0
 10
4.197170
 20
2.741581
 30
0.0
 10
4.188873
 20
2.761610
 30
0.0
 10
4.174106
 20
2.776378
 30
0.0
  0
SPLINE
  5
10b
100
AcDbEntity
  8
0
 62
7
100
AcDbSpline
 70
8
 71
3
 72
8
 73
4
 74
0
 40
0
 40
0
 40
0
 40
0
 40
1
 40
1
 40
1
 40
1
 10
4.174106
 20
2.776378
 30
0.0
 10
4.159338
 20
2.791146
 30
0.0
 10
4.139308
 20
2.799442
 30
0.0
 10
4.118423
 20
2.799442
 30
0.0
  0
LWPOLYLINE
  5
10c
100
AcDbEntity
  8
0
 62
7
100
AcDbPolyline
 90
1
 70
1
 10
0.318909
 20
3.547533
 30
0.0
  0
SPLINE
  5
10d
100
AcDbEntity
  8
0
 62
7
100
AcDbSpline
 70
8
 71
3
 72
8
 73
4
 74
0
 40
0
 40
0
 40
0
 40
0
 40
1
 40
1
 40
1
 40
1
 10
0.318909
 20
0.555170
 30
0.0
 10
0.287060
 20
0.555170
 30
0.0
 10
0.258346
 20
0.535984
 30
0.0
 10
0.246157
 20
0.506559
 30
0.0
  0
SPLINE
  5
10e
100
AcDbEntity
  8
0
 62
7
100
AcDbSpline
 70
8
 71
3
 72
8
 73
4
 74
0
 40
0
 40
0
 40
0
 40
0
 40
1
 40
1
 40
1
 40
1
 10
0.246157
 20
0.506559
 30
0.0
 10
0.233969
 20
0.477133
 30
0.0
 10
0.240706
 20
0.443263
 30
0.0
 10
0.263227
 20
0.420741
 30
0.0
  0
SPLINE
  5
10f
100
AcDbEntity
  8
0
 62
7
100
AcDbSpline
 70
8
 71
3
 72
8
 73
4
 74
0
 40
0
 40
0
 40
0
 40
0
 40
1
 40
1
 40
1
 40
1
 10
0.263227
 20
0.420741
 30
0.0
 10
0.285749
 20
0.398220
 30
0.0
 10
0.319619
 20
0.391483
 30
0.0
 10
0.349044
 20
0.403671
 30
0.0
  0
SPLINE
  5
110
100
AcDbEntity
  8
0
 62
7
100
AcDbSpline
 70
8
 71
3
 72
8
 73
4
 74
0
 40
0
 40
0
 40
0
 40
0
 40
1
 40
1
 40
1
 40
1
 10
0.349044
 20
0.403671
 30
0.0
 10
0.378470
 20
0.415860
 30
0.0
 10
0.397656
 20
0.444574
 30
0.0
 10
0.397656
 20
0.476424
 30
0.0
  0
SPLINE
  5
111
100
AcDbEntity
  8
0
 62
7
100
AcDbSpline
 70
8
 71
3
 72
8
 73
4
 74
0
 40
0
 40
0
 40
0
 40
0
 40
1
 40
1
 40
1
 40
1
 10
0.397656
 20
0.476424
 30
0.0
 10
0.397656
 20
0.497308
 30
0.0
 10
0.389359
 20
0.517338
 30
0.0
 10
0.374592
 20
0.532106
 30
0.0
  0
SPLINE
  5
112
100
AcDbEntity
  8
0
 62
7
100
AcDbSpline
 70
8
 71
3
 72
8
 73
4
 74
0
 40
0
 40
0
 40
0
 40
0
 40
1
 40
1
 40
1
 40
1
 10
0.374592
 20
0.532106
 30
0.0
 10
0.359824
 20
0.546874
 30
0.0
 10
0.339794
 20
0.555170
 30
0.0
 10
0.318909
 20
0.555170
 30
0.0
  0
LWPOLYLINE
  5
113
100
AcDbEntity
  8
0
 62
7
100
AcDbPolyline
 90
1
 70
1
 10
4.118423
 20
2.799442
 30
0.0
  0
SPLINE
  5
114
100
AcDbEntity
  8
0
 62
7
100
AcDbSpline
 70
8
 71
3
 72
8
 73
4
 74
0
 40
0
 40
0
 40
0
 40
0
 40
1
 40
1
 40
1
 40
1
 10
1.838715
 20
2.051352
 30
0.0
 10
1.806865
 20
2.051352
 30
0.0
 10
1.778151
 20
2.032166
 30
0.0
 10
1.765963
 20
2.002740
 30
0.0
  0
SPLINE
  5
115
100
AcDbEntity
  8
0
 62
7
100
AcDbSpline
 70
8
 71
3
 72
8
 73
4
 74
0
 40
0
 40
0
 40
0
 40
0
 40
1
 40
1
 40
1
 40
1
 10
1.765963
 20
2.002740
 30
0.0
 10
1.753774
 20
1.973315
 30
0.0
 10
1.760512
 20
1.939444
 30
0.0
 10
1.783033
 20
1.916923
 30
0.0
  0
SPLINE
  5
116
100
AcDbEntity
  8
0
 62
7
100
AcDbSpline
 70
8
 71
3
 72
8
 73
4
 74
0
 40
0
 40
0
 40
0
 40
0
 40
1
 40
1
 40
1
 40
1
 10
1.783033
 20
1.916923
 30
0.0
 10
1.805554
 20
1.894402
 30
0.0
 10
1.839424
 20
1.887664
 30
0.0
 10
1.868850
 20
1.899853
 30
0.0
  0
SPLINE
  5
117
100
AcDbEntity
  8
0
 62
7
100
AcDbSpline
 70
8
 71
3
 72
8
 73
4
 74
0
 40
0
 40
0
 40
0
 40
0
 40
1
 40
1
 40
1
 40
1
 10
1.868850
 20
1.899853
 30
0.0
 10
1.898275
 20
1.912041
 30
0.0
 10
1.917461
 20
1.940755
 30
0.0
 10
1.917461
 20
1.972605
 30
0.0
  0
SPLINE
  5
118
100
AcDbEntity
  8
0
 62
7
100
AcDbSpline
 70
8
 71
3
 72
8
 73
4
 74
0
 40
0
 40
0
 40
0
 40
0
 40
1
 40
1
 40
1
 40
1
 10
1.917461
 20
1.972605
 30
0.0
 10
1.917461
 20
1.993490
 30
0.0
 10
1.909165
 20
2.013519
 30
0.0
 10
1.894397
 20
2.028287
 30
0.0
  0
SPLINE
  5
119
100
AcDbEntity
  8
0
 62
7
100
AcDbSpline
 70
8
 71
3
 72
8
 73
4
 74
0
 40
0
 40
0
 40
0
 40
0
 40
1
 40
1
 40
1
 40
1
 10
1.894397
 20
2.028287
 30
0.0
 10
1.879629
 20
2.043055
 30
0.0
 10
1.859600
 20
2.051352
 30
0.0
 10
1.838715
 20
2.051352
 30
0.0
  0
LWPOLYLINE
  5
11a
100
AcDbEntity
  8
0
 62
7
100
AcDbPolyline
 90
1
 70
1
 10
0.318909
 20
0.555170
 30
0.0
  0
SPLINE
  5
11b
100
AcDbEntity
  8
0
 62
7
100
AcDbSpline
 70
8
 71
3
 72
8
 73
4
 74
0
 40
0
 40
0
 40
0
 40
0
 40
1
 40
1
 40
1
 40
1
 10
3.358521
 20
2.051352
 30
0.0
 10
3.326671
 20
2.051352
 30
0.0
 10
3.297957
 20
2.032166
 30
0.0
 10
3.285769
 20
2.002740
 30
0.0
  0
SPLINE
  5
11c
100
AcDbEntity
  8
0
 62
7
100
AcDbSpline
 70
8
 71
3
 72
8
 73
4
 74
0
 40
0
 40
0
 40
0
 40
0
 40
1
 40
1
 40
1
 40
1
 10
3.285769
 20
2.002740
 30
0.0
 10
3.273580
 20
1.973315
 30
0.0
 10
3.280317
 20
1.939444
 30
0.0
 10
3.302839
 20
1.916923
 30
0.0
  0
SPLINE
  5
11d
100
AcDbEntity
  8
0
 62
7
100
AcDbSpline
 70
8
 71
3
 72
8
 73
4
 74
0
 40
0
 40
0
 40
0
 40
0
 40
1
 40
1
 40
1
 40
1
 10
3.302839
 20
1.916923
 30
0.0
 10
3.325360
 20
1.894402
 30
0.0
 10
3.359230
 20
1.887664
 30
0.0
 10
3.388656
 20
1.899853
 30
0.0
  0
SPLINE
  5
11e
100
AcDbEntity
  8
0
 62
7
100
AcDbSpline
 70
8
 71
3
 72
8
 73
4
 74
0
 40
0
 40
0
 40
0
 40
0
 40
1
 40
1
 40
1
 40
1
 10
3.388656
 20
1.899853
 30
0.0
 10
3.418081
 20
1.912041
 30
0.0
 10
3.437267
 20
1.940755
 30
0.0
 10
3.437267
 20
1.972605
 30
0.0
  0
SPLINE
  5
11f
100
AcDbEntity
  8
0
 62
7
100
AcDbSpline
 70
8
 71
3
 72
8
 73
4
 74
0
 40
0
 40
0
 40
0
 40
0
 40
1
 40
1
 40
1
 40
1
 10
3.437267
 20
1.972605
 30
0.0
 10
3.437267
 20
1.993490
 30
0.0
 10
3.428971
 20
2.013519
 30
0.0
 10
3.414203
 20
2.028287
 30
0.0
  0
SPLINE
  5
120
100
AcDbEntity
  8
0
 62
7
100
AcDbSpline
 70
8
 71
3
 72
8
 73
4
 74
0
 40
0
 40
0
 40
0
 40
0
 40
1
 40
1
 40
1
 40
1
 10
3.414203
 20
2.028287
 30
0.0
 10
3.399435
 20
2.043055
 30
0.0
 10
3.379406
 20
2.051352
 30
0.0
 10
3.358521
 20
2.051352
 30
0.0
  0
LWPOLYLINE
  5
121
100
AcDbEntity
  8
0
 62
7
100
AcDbPolyline
 90
1
 70
1
 10
1.838715
 20
2.051352
 30
0.0
  0
SPLINE
  5
122
100
AcDbEntity
  8
0
 62
7
100
AcDbSpline
 70
8
 71
3
 72
8
 73
4
 74
0
 40
0
 40
0
 40
0
 40
0
 40
1
 40
1
 40
1
 40
1
 10
1.078812
 20
2.799442
 30
0.0
 10
1.046962
 20
2.799442
 30
0.0
 10
1.018249
 20
2.780256
 30
0.0
 10
1.006060
 20
2.750831
 30
0.0
  0
SPLINE
  5
123
100
AcDbEntity
  8
0
 62
7
100
AcDbSpline
 70
8
 71
3
 72
8
 73
4
 74
0
 40
0
 40
0
 40
0
 40
0
 40
1
 40
1
 40
1
 40
1
 10
1.006060
 20
2.750831
 30
0.0
 10
0.993872
 20
2.721405
 30
0.0
 10
1.000609
 20
2.687535
 30
0.0
 10
1.023130
 20
2.665014
 30
0.0
  0
SPLINE
  5
124
100
AcDbEntity
  8
0
 62
7
100
AcDbSpline
 70
8
 71
3
 72
8
 73
4
 74
0
 40
0
 40
0
 40
0
 40
0
 40
1
 40
1
 40
1
 40
1
 10
1.023130
 20
2.665014
 30
0.0
 10
1.045651
 20
2.642493
 30
0.0
 10
1.079522
 20
2.635755
 30
0.0
 10
1.108947
 20
2.647944
 30
0.0
  0
SPLINE
  5
125
100
AcDbEntity
  8
0
 62
7
100
AcDbSpline
 70
8
 71
3
 72
8
 73
4
 74
0
 40
0
 40
0
 40
0
 40
0
 40
1
 40
1
 40
1
 40
1
 10
1.108947
 20
2.647944
 30
0.0
 10
1.138373
 20
2.660132
 30
0.0
 10
1.157559
 20
2.688846
 30
0.0
 10
1.157559
 20
2.720696
 30
0.0
  0
SPLINE
  5
126
100
AcDbEntity
  8
0
 62
7
100
AcDbSpline
 70
8
 71
3
 72
8
 73
4
 74
0
 40
0
 40
0
 40
0
 40
0
 40
1
 40
1
 40
1
 40
1
 10
1.157559
 20
2.720696
 30
0.0
 10
1.157559
 20
2.741581
 30
0.0
 10
1.149262
 20
2.761610
 30
0.0
 10
1.134494
 20
2.776378
 30
0.0
  0
SPLINE
  5
127
100
AcDbEntity
  8
0
 62
7
100
AcDbSpline
 70
8
 71
3
 72
8
 73
4
 74
0
 40
0
 40
0
 40
0
 40
0
 40
1
 40
1
 40
1
 40
1
 10
1.134494
 20
2.776378
 30
0.0
 10
1.119727
 20
2.791146
 30
0.0
 10
1.099697
 20
2.799442
 30
0.0
 10
1.078812
 20
2.799442
 30
0.0
  0
LWPOLYLINE
  5
128
100
AcDbEntity
  8
0
 62
7
100
AcDbPolyline
 90
1
 70
1
 10
3.358521
 20
2.051352
 30
0.0
  0
SPLINE
  5
129
100
AcDbEntity
  8
0
 62
7
100
AcDbSpline
 70
8
 71
3
 72
8
 73
4
 74
0
 40
0
 40
0
 40
0
 40
0
 40
1
 40
1
 40
1
 40
1
 10
2.598618
 20
2.799442
 30
0.0
 10
2.566768
 20
2.799442
 30
0.0
 10
2.538054
 20
2.780256
 30
0.0
 10
2.525866
 20
2.750831
 30
0.0
  0
SPLINE
  5
12a
100
AcDbEntity
  8
0
 62
7
100
AcDbSpline
 70
8
 71
3
 72
8
 73
4
 74
0
 40
0
 40
0
 40
0
 40
0
 40
1
 40
1
 40
1
 40
1
 10
2.525866
 20
2.750831
 30
0.0
 10
2.513677
 20
2.721405
 30
0.0
 10
2.520414
 20
2.687535
 30
0.0
 10
2.542936
 20
2.665014
 30
0.0
  0
SPLINE
  5
12b
100
AcDbEntity
  8
0
 62
7
100
AcDbSpline
 70
8
 71
3
 72
8
 73
4
 74
0
 40
0
 40
0
 40
0
 40
0
 40
1
 40
1
 40
1
 40
1
 10
2.542936
 20
2.665014
 30
0.0
 10
2.565457
 20
2.642493
 30
0.0
 10
2.599327
 20
2.635755
 30
0.0
 10
2.628753
 20
2.647944
 30
0.0
  0
SPLINE
  5
12c
100
AcDbEntity
  8
0
 62
7
100
AcDbSpline
 70
8
 71
3
 72
8
 73
4
 74
0
 40
0
 40
0
 40
0
 40
0
 40
1
 40
1
 40
1
 40
1
 10
2.628753
 20
2.647944
 30
0.0
 10
2.658178
 20
2.660132
 30
0.0
 10
2.677364
 20
2.688846
 30
0.0
 10
2.677364
 20
2.720696
 30
0.0
  0
SPLINE
  5
12d
100
AcDbEntity
  8
0
 62
7
100
AcDbSpline
 70
8
 71
3
 72
8
 73
4
 74
0
 40
0
 40
0
 40
0
 40
0
 40
1
 40
1
 40
1
 40
1
 10
2.677364
 20
2.720696
 30
0.0
 10
2.677364
 20
2.741581
 30
0.0
 10
2.669068
 20
2.761610
 30
0.0
 10
2.654300
 20
2.776378
 30
0.0
  0
SPLINE
  5
12e
100
AcDbEntity
  8
0
 62
7
100
AcDbSpline
 70
8
 71
3
 72
8
 73
4
 74
0
 40
0
 40
0
 40
0
 40
0
 40
1
 40
1
 40
1
 40
1
 10
2.654300
 20
2.776378
 30
0.0
 10
2.639532
 20
2.791146
 30
0.0
 10
2.619503
 20
2.799442
 30
0.0
 10
2.598618
 20
2.799442
 30
0.0
  0
LWPOLYLINE
  5
12f
100
AcDbEntity
  8
0
 62
7
100
AcDbPolyline
 90
1
 70
1
 10
1.078812
 20
2.799442
 30
0.0
  0
SPLINE
  5
130
100
AcDbEntity
  8
0
 62
7
100
AcDbSpline
 70
8
 71
3
 72
8
 73
4
 74
0
 40
0
 40
0
 40
0
 40
0
 40
1
 40
1
 40
1
 40
1
 10
2.598618
 20
0.555170
 30
0.0
 10
2.566768
 20
0.555170
 30
0.0
 10
2.538054
 20
0.535984
 30
0.0
 10
2.525866
 20
0.506559
 30
0.0
  0
SPLINE
  5
131
100
AcDbEntity
  8
0
 62
7
100
AcDbSpline
 70
8
 71
3
 72
8
 73
4
 74
0
 40
0
 40
0
 40
0
 40
0
 40
1
 40
1
 40
1
 40
1
 10
2.525866
 20
0.506559
 30
0.0
 10
2.513677
 20
0.477133
 30
0.0
 10
2.520414
 20
0.443263
 30
0.0
 10
2.542936
 20
0.420741
 30
0.0
  0
SPLINE
  5
132
100
AcDbEntity
  8
0
 62
7
100
AcDbSpline
 70
8
 71
3
 72
8
 73
4
 74
0
 40
0
 40
0
 40
0
 40
0
 40
1
 40
1
 40
1
 40
1
 10
2.542936
 20
0.420741
 30
0.0
 10
2.565457
 20
0.398220
 30
0.0
 10
2.599327
 20
0.391483
 30
0.0
 10
2.628753
 20
0.403671
 30
0.0
  0
SPLINE
  5
133
100
AcDbEntity
  8
0
 62
7
100
AcDbSpline
 70
8
 71
3
 72
8
 73
4
 74
0
 40
0
 40
0
 40
0
 40
0
 40
1
 40
1
 40
1
 40
1
 10
2.628753
 20
0.403671
 30
0.0
 10
2.658178
 20
0.415860
 30
0.0
 10
2.677364
 20
0.444574
 30
0.0
 10
2.677364
 20
0.476424
 30
0.0
  0
SPLINE
  5
134
100
AcDbEntity
  8
0
 62
7
100
AcDbSpline
 70
8
 71
3
 72
8
 73
4
 74
0
 40
0
 40
0
 40
0
 40
0
 40
1
 40
1
 40
1
 40
1
 10
2.677364
 20
0.476424
 30
0.0
 10
2.677364
 20
0.497308
 30
0.0
 10
2.669068
 20
0.517338
 30
0.0
 10
2.654300
 20
0.532106
 30
0.0
  0
SPLINE
  5
135
100
AcDbEntity
  8
0
 62
7
100
AcDbSpline
 70
8
 71
3
 72
8
 73
4
 74
0
 40
0
 40
0
 40
0
 40
0
 40
1
 40
1
 40
1
 40
1
 10
2.654300
 20
0.532106
 30
0.0
 10
2.639532
 20
0.546874
 30
0.0
 10
2.619503
 20
0.555170
 30
0.0
 10
2.598618
 20
0.555170
 30
0.0
  0
LWPOLYLINE
  5
136
100
AcDbEntity
  8
0
 62
7
100
AcDbPolyline
 90
1
 70
1
 10
2.598618
 20
2.799442
 30
0.0
  0
SPLINE
  5
137
100
AcDbEntity
  8
0
 62
7
100
AcDbSpline
 70
8
 71
3
 72
8
 73
4
 74
0
 40
0
 40
0
 40
0
 40
0
 40
1
 40
1
 40
1
 40
1
 10
1.838715
 20
3.547533
 30
0.0
 10
1.806865
 20
3.547533
 30
0.0
 10
1.778151
 20
3.528347
 30
0.0
 10
1.765963
 20
3.498922
 30
0.0
  0
SPLINE
  5
138
100
AcDbEntity
  8
0
 62
7
100
AcDbSpline
 70
8
 71
3
 72
8
 73
4
 74
0
 40
0
 40
0
 40
0
 40
0
 40
1
 40
1
 40
1
 40
1
 10
1.765963
 20
3.498922
 30
0.0
 10
1.753774
 20
3.469496
 30
0.0
 10
1.760512
 20
3.435626
 30
0.0
 10
1.783033
 20
3.413105
 30
0.0
  0
SPLINE
  5
139
100
AcDbEntity
  8
0
 62
7
100
AcDbSpline
 70
8
 71
3
 72
8
 73
4
 74
0
 40
0
 40
0
 40
0
 40
0
 40
1
 40
1
 40
1
 40
1
 10
1.783033
 20
3.413105
 30
0.0
 10
1.805554
 20
3.390583
 30
0.0
 10
1.839424
 20
3.383846
 30
0.0
 10
1.868850
 20
3.396035
 30
0.0
  0
SPLINE
  5
13a
100
AcDbEntity
  8
0
 62
7
100
AcDbSpline
 70
8
 71
3
 72
8
 73
4
 74
0
 40
0
 40
0
 40
0
 40
0
 40
1
 40
1
 40
1
 40
1
 10
1.868850
 20
3.396035
 30
0.0
 10
1.898275
 20
3.408223
 30
0.0
 10
1.917461
 20
3.436937
 30
0.0
 10
1.917461
 20
3.468787
 30
0.0
  0
SPLINE
  5
13b
100
AcDbEntity
  8
0
 62
7
100
AcDbSpline
 70
8
 71
3
 72
8
 73
4
 74
0
 40
0
 40
0
 40
0
 40
0
 40
1
 40
1
 40
1
 40
1
 10
1.917461
 20
3.468787
 30
0.0
 10
1.917461
 20
3.489672
 30
0.0
 10
1.909165
 20
3.509701
 30
0.0
 10
1.894397
 20
3.524469
 30
0.0
  0
SPLINE
  5
13c
100
AcDbEntity
  8
0
 62
7
100
AcDbSpline
 70
8
 71
3
 72
8
 73
4
 74
0
 40
0
 40
0
 40
0
 40
0
 40
1
 40
1
 40
1
 40
1
 10
1.894397
 20
3.524469
 30
0.0
 10
1.879629
 20
3.539237
 30
0.0
 10
1.859600
 20
3.547533
 30
0.0
 10
1.838715
 20
3.547533
 30
0.0
  0
LWPOLYLINE
  5
13d
100
AcDbEntity
  8
0
 62
7
100
AcDbPolyline
 90
1
 70
1
 10
2.598618
 20
0.555170
 30
0.0
  0
SPLINE
  5
13e
100
AcDbEntity
  8
0
 62
7
100
AcDbSpline
 70
8
 71
3
 72
8
 73
4
 74
0
 40
0
 40
0
 40
0
 40
0
 40
1
 40
1
 40
1
 40
1
 10
1.078812
 20
3.547533
 30
0.0
 10
1.046962
 20
3.547533
 30
0.0
 10
1.018249
 20
3.528347
 30
0.0
 10
1.006060
 20
3.498922
 30
0.0
  0
SPLINE
  5
13f
100
AcDbEntity
  8
0
 62
7
100
AcDbSpline
 70
8
 71
3
 72
8
 73
4
 74
0
 40
0
 40
0
 40
0
 40
0
 40
1
 40
1
 40
1
 40
1
 10
1.006060
 20
3.498922
 30
0.0
 10
0.993872
 20
3.469496
 30
0.0
 10
1.000609
 20
3.435626
 30
0.0
 10
1.023130
 20
3.413105
 30
0.0
  0
SPLINE
  5
140
100
AcDbEntity
  8
0
 62
7
100
AcDbSpline
 70
8
 71
3
 72
8
 73
4
 74
0
 40
0
 40
0
 40
0
 40
0
 40
1
 40
1
 40
1
 40
1
 10
1.023130
 20
3.413105
 30
0.0
 10
1.045651
 20
3.390583
 30
0.0
 10
1.079522
 20
3.383846
 30
0.0
 10
1.108947
 20
3.396035
 30
0.0
  0
SPLINE
  5
141
100
AcDbEntity
  8
0
 62
7
100
AcDbSpline
 70
8
 71
3
 72
8
 73
4
 74
0
 40
0
 40
0
 40
0
 40
0
 40
1
 40
1
 40
1
 40
1
 10
1.108947
 20
3.396035
 30
0.0
 10
1.138373
 20
3.408223
 30
0.0
 10
1.157559
 20
3.436937
 30
0.0
 10
1.157559
 20
3.468787
 30
0.0
  0
SPLINE
  5
142
100
AcDbEntity
  8
0
 62
7
100
AcDbSpline
 70
8
 71
3
 72
8
 73
4
 74
0
 40
0
 40
0
 40
0
 40
0
 40
1
 40
1
 40
1
 40
1
 10
1.157559
 20
3.468787
 30
0.0
 10
1.157559
 20
3.489672
 30
0.0
 10
1.149262
 20
3.509701
 30
0.0
 10
1.134494
 20
3.524469
 30
0.0
  0
SPLINE
  5
143
100
AcDbEntity
  8
0
 62
7
100
AcDbSpline
 70
8
 71
3
 72
8
 73
4
 74
0
 40
0
 40
0
 40
0
 40
0
 40
1
 40
1
 40
1
 40
1
 10
1.134494
 20
3.524469
 30
0.0
 10
1.119727
 20
3.539237
 30
0.0
 10
1.099697
 20
3.547533
 30
0.0
 10
1.078812
 20
3.547533
 30
0.0
  0
LWPOLYLINE
  5
144
100
AcDbEntity
  8
0
 62
7
100
AcDbPolyline
 90
1
 70
1
 10
1.838715
 20
3.547533
 30
0.0
  0
SPLINE
  5
145
100
AcDbEntity
  8
0
 62
7
100
AcDbSpline
 70
8
 71
3
 72
8
 73
4
 74
0
 40
0
 40
0
 40
0
 40
0
 40
1
 40
1
 40
1
 40
1
 10
2.598618
 20
3.547533
 30
0.0
 10
2.566768
 20
3.547533
 30
0.0
 10
2.538054
 20
3.528347
 30
0.0
 10
2.525866
 20
3.498922
 30
0.0
  0
SPLINE
  5
146
100
AcDbEntity
  8
0
 62
7
100
AcDbSpline
 70
8
 71
3
 72
8
 73
4
 74
0
 40
0
 40
0
 40
0
 40
0
 40
1
 40
1
 40
1
 40
1
 10
2.525866
 20
3.498922
 30
0.0
 10
2.513677
 20
3.469496
 30
0.0
 10
2.520414
 20
3.435626
 30
0.0
 10
2.542936
 20
3.413105
 30
0.0
  0
SPLINE
  5
147
100
AcDbEntity
  8
0
 62
7
100
AcDbSpline
 70
8
 71
3
 72
8
 73
4
 74
0
 40
0
 40
0
 40
0
 40
0
 40
1
 40
1
 40
1
 40
1
 10
2.542936
 20
3.413105
 30
0.0
 10
2.565457
 20
3.390583
 30
0.0
 10
2.599327
 20
3.383846
 30
0.0
 10
2.628753
 20
3.396035
 30
0.0
  0
SPLINE
  5
148
100
AcDbEntity
  8
0
 62
7
100
AcDbSpline
 70
8
 71
3
 72
8
 73
4
 74
0
 40
0
 40
0
 40
0
 40
0
 40
1
 40
1
 40
1
 40
1
 10
2.628753
 20
3.396035
 30
0.0
 10
2.658178
 20
3.408223
 30
0.0
 10
2.677364
 20
3.436937
 30
0.0
 10
2.677364
 20
3.468787
 30
0.0
  0
SPLINE
  5
149
100
AcDbEntity
  8
0
 62
7
100
AcDbSpline
 70
8
 71
3
 72
8
 73
4
 74
0
 40
0
 40
0
 40
0
 40
0
 40
1
 40
1
 40
1
 40
1
 10
2.677364
 20
3.468787
 30
0.0
 10
2.677364
 20
3.489672
 30
0.0
 10
2.669068
 20
3.509701
 30
0.0
 10
2.654300
 20
3.524469
 30
0.0
  0
SPLINE
  5
14a
100
AcDbEntity
  8
0
 62
7
100
AcDbSpline
 70
8
 71
3
 72
8
 73
4
 74
0
 40
0
 40
0
 40
0
 40
0
 40
1
 40
1
 40
1
 40
1
 10
2.654300
 20
3.524469
 30
0.0
 10
2.639532
 20
3.539237
 30
0.0
 10
2.619503
 20
3.547533
 30
0.0
 10
2.598618
 20
3.547533
 30
0.0
  0
LWPOLYLINE
  5
14b
100
AcDbEntity
  8
0
 62
7
100
AcDbPolyline
 90
1
 70
1
 10
1.078812
 20
3.547533
 30
0.0
  0
SPLINE
  5
14c
100
AcDbEntity
  8
0
 62
7
100
AcDbSpline
 70
8
 71
3
 72
8
 73
4
 74
0
 40
0
 40
0
 40
0
 40
0
 40
1
 40
1
 40
1
 40
1
 10
3.358521
 20
0.555170
 30
0.0
 10
3.326671
 20
0.555170
 30
0.0
 10
3.297957
 20
0.535984
 30
0.0
 10
3.285769
 20
0.506559
 30
0.0
  0
SPLINE
  5
14d
100
AcDbEntity
  8
0
 62
7
100
AcDbSpline
 70
8
 71
3
 72
8
 73
4
 74
0
 40
0
 40
0
 40
0
 40
0
 40
1
 40
1
 40
1
 40
1
 10
3.285769
 20
0.506559
 30
0.0
 10
3.273580
 20
0.477133
 30
0.0
 10
3.280317
 20
0.443263
 30
0.0
 10
3.302839
 20
0.420741
 30
0.0
  0
SPLINE
  5
14e
100
AcDbEntity
  8
0
 62
7
100
AcDbSpline
 70
8
 71
3
 72
8
 73
4
 74
0
 40
0
 40
0
 40
0
 40
0
 40
1
 40
1
 40
1
 40
1
 10
3.302839
 20
0.420741
 30
0.0
 10
3.325360
 20
0.398220
 30
0.0
 10
3.359230
 20
0.391483
 30
0.0
 10
3.388656
 20
0.403671
 30
0.0
  0
SPLINE
  5
14f
100
AcDbEntity
  8
0
 62
7
100
AcDbSpline
 70
8
 71
3
 72
8
 73
4
 74
0
 40
0
 40
0
 40
0
 40
0
 40
1
 40
1
 40
1
 40
1
 10
3.388656
 20
0.403671
 30
0.0
 10
3.418081
 20
0.415860
 30
0.0
 10
3.437267
 20
0.444574
 30
0.0
 10
3.437267
 20
0.476424
 30
0.0
  0
SPLINE
  5
150
100
AcDbEntity
  8
0
 62
7
100
AcDbSpline
 70
8
 71
3
 72
8
 73
4
 74
0
 40
0
 40
0
 40
0
 40
0
 40
1
 40
1
 40
1
 40
1
 10
3.437267
 20
0.476424
 30
0.0
 10
3.437267
 20
0.497308
 30
0.0
 10
3.428971
 20
0.517338
 30
0.0
 10
3.414203
 20
0.532106
 30
0.0
  0
SPLINE
  5
151
100
AcDbEntity
  8
0
 62
7
100
AcDbSpline
 70
8
 71
3
 72
8
 73
4
 74
0
 40
0
 40
0
 40
0
 40
0
 40
1
 40
1
 40
1
 40
1
 10
3.414203
 20
0.532106
 30
0.0
 10
3.399435
 20
0.546874
 30
0.0
 10
3.379406
 20
0.555170
 30
0.0
 10
3.358521
 20
0.555170
 30
0.0
  0
LWPOLYLINE
  5
152
100
AcDbEntity
  8
0
 62
7
100
AcDbPolyline
 90
1
 70
1
 10
2.598618
 20
3.547533
 30
0.0
  0
SPLINE
  5
153
100
AcDbEntity
  8
0
 62
7
100
AcDbSpline
 70
8
 71
3
 72
8
 73
4
 74
0
 40
0
 40
0
 40
0
 40
0
 40
1
 40
1
 40
1
 40
1
 10
4.899981
 20
2.551391
 30
0.0
 10
4.868131
 20
2.551391
 30
0.0
 10
4.839417
 20
2.532205
 30
0.0
 10
4.827229
 20
2.502780
 30
0.0
  0
SPLINE
  5
154
100
AcDbEntity
  8
0
 62
7
100
AcDbSpline
 70
8
 71
3
 72
8
 73
4
 74
0
 40
0
 40
0
 40
0
 40
0
 40
1
 40
1
 40
1
 40
1
 10
4.827229
 20
2.502780
 30
0.0
 10
4.815040
 20
2.473354
 30
0.0
 10
4.821778
 20
2.439484
 30
0.0
 10
4.844299
 20
2.416963
 30
0.0
  0
SPLINE
  5
155
100
AcDbEntity
  8
0
 62
7
100
AcDbSpline
 70
8
 71
3
 72
8
 73
4
 74
0
 40
0
 40
0
 40
0
 40
0
 40
1
 40
1
 40
1
 40
1
 10
4.844299
 20
2.416963
 30
0.0
 10
4.866820
 20
2.394441
 30
0.0
 10
4.900691
 20
2.387704
 30
0.0
 10
4.930116
 20
2.399893
 30
0.0
  0
SPLINE
  5
156
100
AcDbEntity
  8
0
 62
7
100
AcDbSpline
 70
8
 71
3
 72
8
 73
4
 74
0
 40
0
 40
0
 40
0
 40
0
 40
1
 40
1
 40
1
 40
1
 10
4.930116
 20
2.399893
 30
0.0
 10
4.959542
 20
2.412081
 30
0.0
 10
4.978728
 20
2.440795
 30
0.0
 10
4.978728
 20
2.472645
 30
0.0
  0
SPLINE
  5
157
100
AcDbEntity
  8
0
 62
7
100
AcDbSpline
 70
8
 71
3
 72
8
 73
4
 74
0
 40
0
 40
0
 40
0
 40
0
 40
1
 40
1
 40
1
 40
1
 10
4.978728
 20
2.472645
 30
0.0
 10
4.978728
 20
2.493530
 30
0.0
 10
4.970431
 20
2.513559
 30
0.0
 10
4.955663
 20
2.528327
 30
0.0
  0
SPLINE
  5
158
100
AcDbEntity
  8
0
 62
7
100
AcDbSpline
 70
8
 71
3
 72
8
 73
4
 74
0
 40
0
 40
0
 40
0
 40
0
 40
1
 40
1
 40
1
 40
1
 10
4.955663
 20
2.528327
 30
0.0
 10
4.940895
 20
2.543095
 30
0.0
 10
4.920866
 20
2.551391
 30
0.0
 10
4.899981
 20
2.551391
 30
0.0
  0
LWPOLYLINE
  5
159
100
AcDbEntity
  8
0
 62
7
100
AcDbPolyline
 90
1
 70
1
 10
3.358521
 20
0.555170
 30
0.0
  0
SPLINE
  5
15a
100
AcDbEntity
  8
0
 62
7
100
AcDbSpline
 70
8
 71
3
 72
8
 73
4
 74
0
 40
0
 40
0
 40
0
 40
0
 40
1
 40
1
 40
1
 40
1
 10
1.838715
 20
1.303261
 30
0.0
 10
1.806865
 20
1.303261
 30
0.0
 10
1.778151
 20
1.284075
 30
0.0
 10
1.765963
 20
1.254649
 30
0.0
  0
SPLINE
  5
15b
100
AcDbEntity
  8
0
 62
7
100
AcDbSpline
 70
8
 71
3
 72
8
 73
4
 74
0
 40
0
 40
0
 40
0
 40
0
 40
1
 40
1
 40
1
 40
1
 10
1.765963
 20
1.254649
 30
0.0
 10
1.753774
 20
1.225224
 30
0.0
 10
1.760512
 20
1.191354
 30
0.0
 10
1.783033
 20
1.168832
 30
0.0
  0
SPLINE
  5
15c
100
AcDbEntity
  8
0
 62
7
100
AcDbSpline
 70
8
 71
3
 72
8
 73
4
 74
0
 40
0
 40
0
 40
0
 40
0
 40
1
 40
1
 40
1
 40
1
 10
1.783033
 20
1.168832
 30
0.0
 10
1.805554
 20
1.146311
 30
0.0
 10
1.839424
 20
1.139574
 30
0.0
 10
1.868850
 20
1.151762
 30
0.0
  0
SPLINE
  5
15d
100
AcDbEntity
  8
0
 62
7
100
AcDbSpline
 70
8
 71
3
 72
8
 73
4
 74
0
 40
0
 40
0
 40
0
 40
0
 40
1
 40
1
 40
1
 40
1
 10
1.868850
 20
1.151762
 30
0.0
 10
1.898275
 20
1.163951
 30
0.0
 10
1.917461
 20
1.192664
 30
0.0
 10
1.917461
 20
1.224514
 30
0.0
  0
SPLINE
  5
15e
100
AcDbEntity
  8
0
 62
7
100
AcDbSpline
 70
8
 71
3
 72
8
 73
4
 74
0
 40
0
 40
0
 40
0
 40
0
 40
1
 40
1
 40
1
 40
1
 10
1.917461
 20
1.224514
 30
0.0
 10
1.917461
 20
1.245399
 30
0.0
 10
1.909165
 20
1.265429
 30
0.0
 10
1.894397
 20
1.280197
 30
0.0
  0
SPLINE
  5
15f
100
AcDbEntity
  8
0
 62
7
100
AcDbSpline
 70
8
 71
3
 72
8
 73
4
 74
0
 40
0
 40
0
 40
0
 40
0
 40
1
 40
1
 40
1
 40
1
 10
1.894397
 20
1.280197
 30
0.0
 10
1.879629
 20
1.294964
 30
0.0
 10
1.859600
 20
1.303261
 30
0.0
 10
1.838715
 20
1.303261
 30
0.0
  0
LWPOLYLINE
  5
160
100
AcDbEntity
  8
0
 62
7
100
AcDbPolyline
 90
1
 70
1
 10
4.899981
 20
2.551391
 30
0.0
  0
SPLINE
  5
161
100
AcDbEntity
  8
0
 62
7
100
AcDbSpline
 70
8
 71
3
 72
8
 73
4
 74
0
 40
0
 40
0
 40
0
 40
0
 40
1
 40
1
 40
1
 40
1
 10
3.358521
 20
3.547533
 30
0.0
 10
3.326671
 20
3.547533
 30
0.0
 10
3.297957
 20
3.528347
 30
0.0
 10
3.285769
 20
3.498922
 30
0.0
  0
SPLINE
  5
162
100
AcDbEntity
  8
0
 62
7
100
AcDbSpline
 70
8
 71
3
 72
8
 73
4
 74
0
 40
0
 40
0
 40
0
 40
0
 40
1
 40
1
 40
1
 40
1
 10
3.285769
 20
3.498922
 30
0.0
 10
3.273580
 20
3.469496
 30
0.0
 10
3.280317
 20
3.435626
 30
0.0
 10
3.302839
 20
3.413105
 30
0.0
  0
SPLINE
  5
163
100
AcDbEntity
  8
0
 62
7
100
AcDbSpline
 70
8
 71
3
 72
8
 73
4
 74
0
 40
0
 40
0
 40
0
 40
0
 40
1
 40
1
 40
1
 40
1
 10
3.302839
 20
3.413105
 30
0.0
 10
3.325360
 20
3.390583
 30
0.0
 10
3.359230
 20
3.383846
 30
0.0
 10
3.388656
 20
3.396035
 30
0.0
  0
SPLINE
  5
164
100
AcDbEntity
  8
0
 62
7
100
AcDbSpline
 70
8
 71
3
 72
8
 73
4
 74
0
 40
0
 40
0
 40
0
 40
0
 40
1
 40
1
 40
1
 40
1
 10
3.388656
 20
3.396035
 30
0.0
 10
3.418081
 20
3.408223
 30
0.0
 10
3.437267
 20
3.436937
 30
0.0
 10
3.437267
 20
3.468787
 30
0.0
  0
SPLINE
  5
165
100
AcDbEntity
  8
0
 62
7
100
AcDbSpline
 70
8
 71
3
 72
8
 73
4
 74
0
 40
0
 40
0
 40
0
 40
0
 40
1
 40
1
 40
1
 40
1
 10
3.437267
 20
3.468787
 30
0.0
 10
3.437267
 20
3.489672
 30
0.0
 10
3.428971
 20
3.509701
 30
0.0
 10
3.414203
 20
3.524469
 30
0.0
  0
SPLINE
  5
166
100
AcDbEntity
  8
0
 62
7
100
AcDbSpline
 70
8
 71
3
 72
8
 73
4
 74
0
 40
0
 40
0
 40
0
 40
0
 40
1
 40
1
 40
1
 40
1
 10
3.414203
 20
3.524469
 30
0.0
 10
3.399435
 20
3.539237
 30
0.0
 10
3.379406
 20
3.547533
 30
0.0
 10
3.358521
 20
3.547533
 30
0.0
  0
LWPOLYLINE
  5
167
100
AcDbEntity
  8
0
 62
7
100
AcDbPolyline
 90
1
 70
1
 10
1.838715
 20
1.303261
 30
0.0
  0
SPLINE
  5
168
100
AcDbEntity
  8
0
 62
7
100
AcDbSpline
 70
8
 71
3
 72
8
 73
4
 74
0
 40
0
 40
0
 40
0
 40
0
 40
1
 40
1
 40
1
 40
1
 10
3.358521
 20
2.799442
 30
0.0
 10
3.326671
 20
2.799442
 30
0.0
 10
3.297957
 20
2.780256
 30
0.0
 10
3.285769
 20
2.750831
 30
0.0
  0
SPLINE
  5
169
100
AcDbEntity
  8
0
 62
7
100
AcDbSpline
 70
8
 71
3
 72
8
 73
4
 74
0
 40
0
 40
0
 40
0
 40
0
 40
1
 40
1
 40
1
 40
1
 10
3.285769
 20
2.750831
 30
0.0
 10
3.273580
 20
2.721405
 30
0.0
 10
3.280317
 20
2.687535
 30
0.0
 10
3.302839
 20
2.665014
 30
0.0
  0
SPLINE
  5
16a
100
AcDbEntity
  8
0
 62
7
100
AcDbSpline
 70
8
 71
3
 72
8
 73
4
 74
0
 40
0
 40
0
 40
0
 40
0
 40
1
 40
1
 40
1
 40
1
 10
3.302839
 20
2.665014
 30
0.0
 10
3.325360
 20
2.642493
 30
0.0
 10
3.359230
 20
2.635755
 30
0.0
 10
3.388656
 20
2.647944
 30
0.0
  0
SPLINE
  5
16b
100
AcDbEntity
  8
0
 62
7
100
AcDbSpline
 70
8
 71
3
 72
8
 73
4
 74
0
 40
0
 40
0
 40
0
 40
0
 40
1
 40
1
 40
1
 40
1
 10
3.388656
 20
2.647944
 30
0.0
 10
3.418081
 20
2.660132
 30
0.0
 10
3.437267
 20
2.688846
 30
0.0
 10
3.437267
 20
2.720696
 30
0.0
  0
SPLINE
  5
16c
100
AcDbEntity
  8
0
 62
7
100
AcDbSpline
 70
8
 71
3
 72
8
 73
4
 74
0
 40
0
 40
0
 40
0
 40
0
 40
1
 40
1
 40
1
 40
1
 10
3.437267
 20
2.720696
 30
0.0
 10
3.437267
 20
2.741581
 30
0.0
 10
3.428971
 20
2.761610
 30
0.0
 10
3.414203
 20
2.776378
 30
0.0
  0
SPLINE
  5
16d
100
AcDbEntity
  8
0
 62
7
100
AcDbSpline
 70
8
 71
3
 72
8
 73
4
 74
0
 40
0
 40
0
 40
0
 40
0
 40
1
 40
1
 40
1
 40
1
 10
3.414203
 20
2.776378
 30
0.0
 10
3.399435
 20
2.791146
 30
0.0
 10
3.379406
 20
2.799442
 30
0.0
 10
3.358521
 20
2.799442
 30
0.0
  0
LWPOLYLINE
  5
16e
100
AcDbEntity
  8
0
 62
7
100
AcDbPolyline
 90
1
 70
1
 10
3.358521
 20
3.547533
 30
0.0
  0
SPLINE
  5
16f
100
AcDbEntity
  8
0
 62
7
100
AcDbSpline
 70
8
 71
3
 72
8
 73
4
 74
0
 40
0
 40
0
 40
0
 40
0
 40
1
 40
1
 40
1
 40
1
 10
3.358521
 20
1.303261
 30
0.0
 10
3.326671
 20
1.303261
 30
0.0
 10
3.297957
 20
1.284075
 30
0.0
 10
3.285769
 20
1.254649
 30
0.0
  0
SPLINE
  5
170
100
AcDbEntity
  8
0
 62
7
100
AcDbSpline
 70
8
 71
3
 72
8
 73
4
 74
0
 40
0
 40
0
 40
0
 40
0
 40
1
 40
1
 40
1
 40
1
 10
3.285769
 20
1.254649
 30
0.0
 10
3.273580
 20
1.225224
 30
0.0
 10
3.280317
 20
1.191354
 30
0.0
 10
3.302839
 20
1.168832
 30
0.0
  0
SPLINE
  5
171
100
AcDbEntity
  8
0
 62
7
100
AcDbSpline
 70
8
 71
3
 72
8
 73
4
 74
0
 40
0
 40
0
 40
0
 40
0
 40
1
 40
1
 40
1
 40
1
 10
3.302839
 20
1.168832
 30
0.0
 10
3.325360
 20
1.146311
 30
0.0
 10
3.359230
 20
1.139574
 30
0.0
 10
3.388656
 20
1.151762
 30
0.0
  0
SPLINE
  5
172
100
AcDbEntity
  8
0
 62
7
100
AcDbSpline
 70
8
 71
3
 72
8
 73
4
 74
0
 40
0
 40
0
 40
0
 40
0
 40
1
 40
1
 40
1
 40
1
 10
3.388656
 20
1.151762
 30
0.0
 10
3.418081
 20
1.163951
 30
0.0
 10
3.437267
 20
1.192664
 30
0.0
 10
3.437267
 20
1.224514
 30
0.0
  0
SPLINE
  5
173
100
AcDbEntity
  8
0
 62
7
100
AcDbSpline
 70
8
 71
3
 72
8
 73
4
 74
0
 40
0
 40
0
 40
0
 40
0
 40
1
 40
1
 40
1
 40
1
 10
3.437267
 20
1.224514
 30
0.0
 10
3.437267
 20
1.245399
 30
0.0
 10
3.428971
 20
1.265429
 30
0.0
 10
3.414203
 20
1.280197
 30
0.0
  0
SPLINE
  5
174
100
AcDbEntity
  8
0
 62
7
100
AcDbSpline
 70
8
 71
3
 72
8
 73
4
 74
0
 40
0
 40
0
 40
0
 40
0
 40
1
 40
1
 40
1
 40
1
 10
3.414203
 20
1.280197
 30
0.0
 10
3.399435
 20
1.294964
 30
0.0
 10
3.379406
 20
1.303261
 30
0.0
 10
3.358521
 20
1.303261
 30
0.0
  0
LWPOLYLINE
  5
175
100
AcDbEntity
  8
0
 62
7
100
AcDbPolyline
 90
1
 70
1
 10
3.358521
 20
2.799442
 30
0.0
  0
SPLINE
  5
176
100
AcDbEntity
  8
0
 62
7
100
AcDbSpline
 70
8
 71
3
 72
8
 73
4
 74
0
 40
0
 40
0
 40
0
 40
0
 40
1
 40
1
 40
1
 40
1
 10
1.078812
 20
1.303261
 30
0.0
 10
1.046962
 20
1.303261
 30
0.0
 10
1.018249
 20
1.284075
 30
0.0
 10
1.006060
 20
1.254649
 30
0.0
  0
SPLINE
  5
177
100
AcDbEntity
  8
0
 62
7
100
AcDbSpline
 70
8
 71
3
 72
8
 73
4
 74
0
 40
0
 40
0
 40
0
 40
0
 40
1
 40
1
 40
1
 40
1
 10
1.006060
 20
1.254649
 30
0.0
 10
0.993872
 20
1.225224
 30
0.0
 10
1.000609
 20
1.191354
 30
0.0
 10
1.023130
 20
1.168832
 30
0.0
  0
SPLINE
  5
178
100
AcDbEntity
  8
0
 62
7
100
AcDbSpline
 70
8
 71
3
 72
8
 73
4
 74
0
 40
0
 40
0
 40
0
 40
0
 40
1
 40
1
 40
1
 40
1
 10
1.023130
 20
1.168832
 30
0.0
 10
1.045651
 20
1.146311
 30
0.0
 10
1.079522
 20
1.139574
 30
0.0
 10
1.108947
 20
1.151762
 30
0.0
  0
SPLINE
  5
179
100
AcDbEntity
  8
0
 62
7
100
AcDbSpline
 70
8
 71
3
 72
8
 73
4
 74
0
 40
0
 40
0
 40
0
 40
0
 40
1
 40
1
 40
1
 40
1
 10
1.108947
 20
1.151762
 30
0.0
 10
1.138373
 20
1.163951
 30
0.0
 10
1.157559
 20
1.192664
 30
0.0
 10
1.157559
 20
1.224514
 30
0.0
  0
SPLINE
  5
17a
100
AcDbEntity
  8
0
 62
7
100
AcDbSpline
 70
8
 71
3
 72
8
 73
4
 74
0
 40
0
 40
0
 40
0
 40
0
 40
1
 40
1
 40
1
 40
1
 10
1.157559
 20
1.224514
 30
0.0
 10
1.157559
 20
1.245399
 30
0.0
 10
1.149262
 20
1.265429
 30
0.0
 10
1.134494
 20
1.280197
 30
0.0
  0
SPLINE
  5
17b
100
AcDbEntity
  8
0
 62
7
100
AcDbSpline
 70
8
 71
3
 72
8
 73
4
 74
0
 40
0
 40
0
 40
0
 40
0
 40
1
 40
1
 40
1
 40
1
 10
1.134494
 20
1.280197
 30
0.0
 10
1.119727
 20
1.294964
 30
0.0
 10
1.099697
 20
1.303261
 30
0.0
 10
1.078812
 20
1.303261
 30
0.0
  0
LWPOLYLINE
  5
17c
100
AcDbEntity
  8
0
 62
7
100
AcDbPolyline
 90
1
 70
1
 10
3.358521
 20
1.303261
 30
0.0
  0
SPLINE
  5
17d
100
AcDbEntity
  8
0
 62
7
100
AcDbSpline
 70
8
 71
3
 72
8
 73
4
 74
0
 40
0
 40
0
 40
0
 40
0
 40
1
 40
1
 40
1
 40
1
 10
4.899981
 20
1.803300
 30
0.0
 10
4.868131
 20
1.803300
 30
0.0
 10
4.839417
 20
1.784114
 30
0.0
 10
4.827229
 20
1.754689
 30
0.0
  0
SPLINE
  5
17e
100
AcDbEntity
  8
0
 62
7
100
AcDbSpline
 70
8
 71
3
 72
8
 73
4
 74
0
 40
0
 40
0
 40
0
 40
0
 40
1
 40
1
 40
1
 40
1
 10
4.827229
 20
1.754689
 30
0.0
 10
4.815040
 20
1.725263
 30
0.0
 10
4.821778
 20
1.691393
 30
0.0
 10
4.844299
 20
1.668872
 30
0.0
  0
SPLINE
  5
17f
100
AcDbEntity
  8
0
 62
7
100
AcDbSpline
 70
8
 71
3
 72
8
 73
4
 74
0
 40
0
 40
0
 40
0
 40
0
 40
1
 40
1
 40
1
 40
1
 10
4.844299
 20
1.668872
 30
0.0
 10
4.866820
 20
1.646351
 30
0.0
 10
4.900691
 20
1.639613
 30
0.0
 10
4.930116
 20
1.651802
 30
0.0
  0
SPLINE
  5
180
100
AcDbEntity
  8
0
 62
7
100
AcDbSpline
 70
8
 71
3
 72
8
 73
4
 74
0
 40
0
 40
0
 40
0
 40
0
 40
1
 40
1
 40
1
 40
1
 10
4.930116
 20
1.651802
 30
0.0
 10
4.959542
 20
1.663990
 30
0.0
 10
4.978728
 20
1.692704
 30
0.0
 10
4.978728
 20
1.724554
 30
0.0
  0
SPLINE
  5
181
100
AcDbEntity
  8
0
 62
7
100
AcDbSpline
 70
8
 71
3
 72
8
 73
4
 74
0
 40
0
 40
0
 40
0
 40
0
 40
1
 40
1
 40
1
 40
1
 10
4.978728
 20
1.724554
 30
0.0
 10
4.978728
 20
1.745439
 30
0.0
 10
4.970431
 20
1.765468
 30
0.0
 10
4.955663
 20
1.780236
 30
0.0
  0
SPLINE
  5
182
100
AcDbEntity
  8
0
 62
7
100
AcDbSpline
 70
8
 71
3
 72
8
 73
4
 74
0
 40
0
 40
0
 40
0
 40
0
 40
1
 40
1
 40
1
 40
1
 10
4.955663
 20
1.780236
 30
0.0
 10
4.940895
 20
1.795004
 30
0.0
 10
4.920866
 20
1.803300
 30
0.0
 10
4.899981
 20
1.803300
 30
0.0
  0
LWPOLYLINE
  5
183
100
AcDbEntity
  8
0
 62
7
100
AcDbPolyline
 90
1
 70
1
 10
1.078812
 20
1.303261
 30
0.0
  0
SPLINE
  5
184
100
AcDbEntity
  8
0
 62
7
100
AcDbSpline
 70
8
 71
3
 72
8
 73
4
 74
0
 40
0
 40
0
 40
0
 40
0
 40
1
 40
1
 40
1
 40
1
 10
2.598618
 20
2.051352
 30
0.0
 10
2.566768
 20
2.051352
 30
0.0
 10
2.538054
 20
2.032166
 30
0.0
 10
2.525866
 20
2.002740
 30
0.0
  0
SPLINE
  5
185
100
AcDbEntity
  8
0
 62
7
100
AcDbSpline
 70
8
 71
3
 72
8
 73
4
 74
0
 40
0
 40
0
 40
0
 40
0
 40
1
 40
1
 40
1
 40
1
 10
2.525866
 20
2.002740
 30
0.0
 10
2.513677
 20
1.973315
 30
0.0
 10
2.520414
 20
1.939444
 30
0.0
 10
2.542936
 20
1.916923
 30
0.0
  0
SPLINE
  5
186
100
AcDbEntity
  8
0
 62
7
100
AcDbSpline
 70
8
 71
3
 72
8
 73
4
 74
0
 40
0
 40
0
 40
0
 40
0
 40
1
 40
1
 40
1
 40
1
 10
2.542936
 20
1.916923
 30
0.0
 10
2.565457
 20
1.894402
 30
0.0
 10
2.599327
 20
1.887664
 30
0.0
 10
2.628753
 20
1.899853
 30
0.0
  0
SPLINE
  5
187
100
AcDbEntity
  8
0
 62
7
100
AcDbSpline
 70
8
 71
3
 72
8
 73
4
 74
0
 40
0
 40
0
 40
0
 40
0
 40
1
 40
1
 40
1
 40
1
 10
2.628753
 20
1.899853
 30
0.0
 10
2.658178
 20
1.912041
 30
0.0
 10
2.677364
 20
1.940755
 30
0.0
 10
2.677364
 20
1.972605
 30
0.0
  0
SPLINE
  5
188
100
AcDbEntity
  8
0
 62
7
100
AcDbSpline
 70
8
 71
3
 72
8
 73
4
 74
0
 40
0
 40
0
 40
0
 40
0
 40
1
 40
1
 40
1
 40
1
 10
2.677364
 20
1.972605
 30
0.0
 10
2.677364
 20
1.993490
 30
0.0
 10
2.669068
 20
2.013519
 30
0.0
 10
2.654300
 20
2.028287
 30
0.0
  0
SPLINE
  5
189
100
AcDbEntity
  8
0
 62
7
100
AcDbSpline
 70
8
 71
3
 72
8
 73
4
 74
0
 40
0
 40
0
 40
0
 40
0
 40
1
 40
1
 40
1
 40
1
 10
2.654300
 20
2.028287
 30
0.0
 10
2.639532
 20
2.043055
 30
0.0
 10
2.619503
 20
2.051352
 30
0.0
 10
2.598618
 20
2.051352
 30
0.0
  0
LWPOLYLINE
  5
18a
100
AcDbEntity
  8
0
 62
7
100
AcDbPolyline
 90
1
 70
1
 10
4.899981
 20
1.803300
 30
0.0
  0
SPLINE
  5
18b
100
AcDbEntity
  8
0
 62
7
100
AcDbSpline
 70
8
 71
3
 72
8
 73
4
 74
0
 40
0
 40
0
 40
0
 40
0
 40
1
 40
1
 40
1
 40
1
 10
0.318909
 20
1.303261
 30
0.0
 10
0.287060
 20
1.303261
 30
0.0
 10
0.258346
 20
1.284075
 30
0.0
 10
0.246157
 20
1.254649
 30
0.0
  0
SPLINE
  5
18c
100
AcDbEntity
  8
0
 62
7
100
AcDbSpline
 70
8
 71
3
 72
8
 73
4
 74
0
 40
0
 40
0
 40
0
 40
0
 40
1
 40
1
 40
1
 40
1
 10
0.246157
 20
1.254649
 30
0.0
 10
0.233969
 20
1.225224
 30
0.0
 10
0.240706
 20
1.191354
 30
0.0
 10
0.263227
 20
1.168832
 30
0.0
  0
SPLINE
  5
18d
100
AcDbEntity
  8
0
 62
7
100
AcDbSpline
 70
8
 71
3
 72
8
 73
4
 74
0
 40
0
 40
0
 40
0
 40
0
 40
1
 40
1
 40
1
 40
1
 10
0.263227
 20
1.168832
 30
0.0
 10
0.285749
 20
1.146311
 30
0.0
 10
0.319619
 20
1.139574
 30
0.0
 10
0.349044
 20
1.151762
 30
0.0
  0
SPLINE
  5
18e
100
AcDbEntity
  8
0
 62
7
100
AcDbSpline
 70
8
 71
3
 72
8
 73
4
 74
0
 40
0
 40
0
 40
0
 40
0
 40
1
 40
1
 40
1
 40
1
 10
0.349044
 20
1.151762
 30
0.0
 10
0.378470
 20
1.163951
 30
0.0
 10
0.397656
 20
1.192664
 30
0.0
 10
0.397656
 20
1.224514
 30
0.0
  0
SPLINE
  5
18f
100
AcDbEntity
  8
0
 62
7
100
AcDbSpline
 70
8
 71
3
 72
8
 73
4
 74
0
 40
0
 40
0
 40
0
 40
0
 40
1
 40
1
 40
1
 40
1
 10
0.397656
 20
1.224514
 30
0.0
 10
0.397656
 20
1.245399
 30
0.0
 10
0.389359
 20
1.265429
 30
0.0
 10
0.374592
 20
1.280197
 30
0.0
  0
SPLINE
  5
190
100
AcDbEntity
  8
0
 62
7
100
AcDbSpline
 70
8
 71
3
 72
8
 73
4
 74
0
 40
0
 40
0
 40
0
 40
0
 40
1
 40
1
 40
1
 40
1
 10
0.374592
 20
1.280197
 30
0.0
 10
0.359824
 20
1.294964
 30
0.0
 10
0.339794
 20
1.303261
 30
0.0
 10
0.318909
 20
1.303261
 30
0.0
  0
LWPOLYLINE
  5
191
100
AcDbEntity
  8
0
 62
7
100
AcDbPolyline
 90
1
 70
1
 10
2.598618
 20
2.051352
 30
0.0
  0
SPLINE
  5
192
100
AcDbEntity
  8
0
 62
7
100
AcDbSpline
 70
8
 71
3
 72
8
 73
4
 74
0
 40
0
 40
0
 40
0
 40
0
 40
1
 40
1
 40
1
 40
1
 10
2.598618
 20
1.303261
 30
0.0
 10
2.566768
 20
1.303261
 30
0.0
 10
2.538054
 20
1.284075
 30
0.0
 10
2.525866
 20
1.254649
 30
0.0
  0
SPLINE
  5
193
100
AcDbEntity
  8
0
 62
7
100
AcDbSpline
 70
8
 71
3
 72
8
 73
4
 74
0
 40
0
 40
0
 40
0
 40
0
 40
1
 40
1
 40
1
 40
1
 10
2.525866
 20
1.254649
 30
0.0
 10
2.513677
 20
1.225224
 30
0.0
 10
2.520414
 20
1.191354
 30
0.0
 10
2.542936
 20
1.168832
 30
0.0
  0
SPLINE
  5
194
100
AcDbEntity
  8
0
 62
7
100
AcDbSpline
 70
8
 71
3
 72
8
 73
4
 74
0
 40
0
 40
0
 40
0
 40
0
 40
1
 40
1
 40
1
 40
1
 10
2.542936
 20
1.168832
 30
0.0
 10
2.565457
 20
1.146311
 30
0.0
 10
2.599327
 20
1.139574
 30
0.0
 10
2.628753
 20
1.151762
 30
0.0
  0
SPLINE
  5
195
100
AcDbEntity
  8
0
 62
7
100
AcDbSpline
 70
8
 71
3
 72
8
 73
4
 74
0
 40
0
 40
0
 40
0
 40
0
 40
1
 40
1
 40
1
 40
1
 10
2.628753
 20
1.151762
 30
0.0
 10
2.658178
 20
1.163951
 30
0.0
 10
2.677364
 20
1.192664
 30
0.0
 10
2.677364
 20
1.224514
 30
0.0
  0
SPLINE
  5
196
100
AcDbEntity
  8
0
 62
7
100
AcDbSpline
 70
8
 71
3
 72
8
 73
4
 74
0
 40
0
 40
0
 40
0
 40
0
 40
1
 40
1
 40
1
 40
1
 10
2.677364
 20
1.224514
 30
0.0
 10
2.677364
 20
1.245399
 30
0.0
 10
2.669068
 20
1.265429
 30
0.0
 10
2.654300
 20
1.280197
 30
0.0
  0
SPLINE
  5
197
100
AcDbEntity
  8
0
 62
7
100
AcDbSpline
 70
8
 71
3
 72
8
 73
4
 74
0
 40
0
 40
0
 40
0
 40
0
 40
1
 40
1
 40
1
 40
1
 10
2.654300
 20
1.280197
 30
0.0
 10
2.639532
 20
1.294964
 30
0.0
 10
2.619503
 20
1.303261
 30
0.0
 10
2.598618
 20
1.303261
 30
0.0
  0
LWPOLYLINE
  5
198
100
AcDbEntity
  8
0
 62
7
100
AcDbPolyline
 90
1
 70
1
 10
0.318909
 20
1.303261
 30
0.0
  0
SPLINE
  5
199
100
AcDbEntity
  8
0
 62
7
100
AcDbSpline
 70
8
 71
3
 72
8
 73
4
 74
0
 40
0
 40
0
 40
0
 40
0
 40
1
 40
1
 40
1
 40
1
 10
4.118423
 20
2.051352
 30
0.0
 10
4.086574
 20
2.051352
 30
0.0
 10
4.057860
 20
2.032166
 30
0.0
 10
4.045671
 20
2.002740
 30
0.0
  0
SPLINE
  5
19a
100
AcDbEntity
  8
0
 62
7
100
AcDbSpline
 70
8
 71
3
 72
8
 73
4
 74
0
 40
0
 40
0
 40
0
 40
0
 40
1
 40
1
 40
1
 40
1
 10
4.045671
 20
2.002740
 30
0.0
 10
4.033483
 20
1.973315
 30
0.0
 10
4.040220
 20
1.939444
 30
0.0
 10
4.062741
 20
1.916923
 30
0.0
  0
SPLINE
  5
19b
100
AcDbEntity
  8
0
 62
7
100
AcDbSpline
 70
8
 71
3
 72
8
 73
4
 74
0
 40
0
 40
0
 40
0
 40
0
 40
1
 40
1
 40
1
 40
1
 10
4.062741
 20
1.916923
 30
0.0
 10
4.085263
 20
1.894402
 30
0.0
 10
4.119133
 20
1.887664
 30
0.0
 10
4.148558
 20
1.899853
 30
0.0
  0
SPLINE
  5
19c
100
AcDbEntity
  8
0
 62
7
100
AcDbSpline
 70
8
 71
3
 72
8
 73
4
 74
0
 40
0
 40
0
 40
0
 40
0
 40
1
 40
1
 40
1
 40
1
 10
4.148558
 20
1.899853
 30
0.0
 10
4.177984
 20
1.912041
 30
0.0
 10
4.197170
 20
1.940755
 30
0.0
 10
4.197170
 20
1.972605
 30
0.0
  0
SPLINE
  5
19d
100
AcDbEntity
  8
0
 62
7
100
AcDbSpline
 70
8
 71
3
 72
8
 73
4
 74
0
 40
0
 40
0
 40
0
 40
0
 40
1
 40
1
 40
1
 40
1
 10
4.197170
 20
1.972605
 30
0.0
 10
4.197170
 20
1.993490
 30
0.0
 10
4.188873
 20
2.013519
 30
0.0
 10
4.174106
 20
2.028287
 30
0.0
  0
SPLINE
  5
19e
100
AcDbEntity
  8
0
 62
7
100
AcDbSpline
 70
8
 71
3
 72
8
 73
4
 74
0
 40
0
 40
0
 40
0
 40
0
 40
1
 40
1
 40
1
 40
1
 10
4.174106
 20
2.028287
 30
0.0
 10
4.159338
 20
2.043055
 30
0.0
 10
4.139308
 20
2.051352
 30
0.0
 10
4.118423
 20
2.051352
 30
0.0
  0
LWPOLYLINE
  5
19f
100
AcDbEntity
  8
0
 62
7
100
AcDbPolyline
 90
1
 70
1
 10
2.598618
 20
1.303261
 30
0.0
  0
SPLINE
  5
1a0
100
AcDbEntity
  8
0
 62
7
100
AcDbSpline
 70
8
 71
3
 72
8
 73
4
 74
0
 40
0
 40
0
 40
0
 40
0
 40
1
 40
1
 40
1
 40
1
 10
0.318909
 20
2.051352
 30
0.0
 10
0.287060
 20
2.051352
 30
0.0
 10
0.258346
 20
2.032166
 30
0.0
 10
0.246157
 20
2.002740
 30
0.0
  0
SPLINE
  5
1a1
100
AcDbEntity
  8
0
 62
7
100
AcDbSpline
 70
8
 71
3
 72
8
 73
4
 74
0
 40
0
 40
0
 40
0
 40
0
 40
1
 40
1
 40
1
 40
1
 10
0.246157
 20
2.002740
 30
0.0
 10
0.233969
 20
1.973315
 30
0.0
 10
0.240706
 20
1.939444
 30
0.0
 10
0.263227
 20
1.916923
 30
0.0
  0
SPLINE
  5
1a2
100
AcDbEntity
  8
0
 62
7
100
AcDbSpline
 70
8
 71
3
 72
8
 73
4
 74
0
 40
0
 40
0
 40
0
 40
0
 40
1
 40
1
 40
1
 40
1
 10
0.263227
 20
1.916923
 30
0.0
 10
0.285749
 20
1.894402
 30
0.0
 10
0.319619
 20
1.887664
 30
0.0
 10
0.349044
 20
1.899853
 30
0.0
  0
SPLINE
  5
1a3
100
AcDbEntity
  8
0
 62
7
100
AcDbSpline
 70
8
 71
3
 72
8
 73
4
 74
0
 40
0
 40
0
 40
0
 40
0
 40
1
 40
1
 40
1
 40
1
 10
0.349044
 20
1.899853
 30
0.0
 10
0.378470
 20
1.912041
 30
0.0
 10
0.397656
 20
1.940755
 30
0.0
 10
0.397656
 20
1.972605
 30
0.0
  0
SPLINE
  5
1a4
100
AcDbEntity
  8
0
 62
7
100
AcDbSpline
 70
8
 71
3
 72
8
 73
4
 74
0
 40
0
 40
0
 40
0
 40
0
 40
1
 40
1
 40
1
 40
1
 10
0.397656
 20
1.972605
 30
0.0
 10
0.397656
 20
1.993490
 30
0.0
 10
0.389359
 20
2.013519
 30
0.0
 10
0.374592
 20
2.028287
 30
0.0
  0
SPLINE
  5
1a5
100
AcDbEntity
  8
0
 62
7
100
AcDbSpline
 70
8
 71
3
 72
8
 73
4
 74
0
 40
0
 40
0
 40
0
 40
0
 40
1
 40
1
 40
1
 40
1
 10
0.374592
 20
2.028287
 30
0.0
 10
0.359824
 20
2.043055
 30
0.0
 10
0.339794
 20
2.051352
 30
0.0
 10
0.318909
 20
2.051352
 30
0.0
  0
LWPOLYLINE
  5
1a6
100
AcDbEntity
  8
0
 62
7
100
AcDbPolyline
 90
1
 70
1
 10
4.118423
 20
2.051352
 30
0.0
  0
SPLINE
  5
1a7
100
AcDbEntity
  8
0
 62
7
100
AcDbSpline
 70
8
 71
3
 72
8
 73
4
 74
0
 40
0
 40
0
 40
0
 40
0
 40
1
 40
1
 40
1
 40
1
 10
0.318909
 20
2.799442
 30
0.0
 10
0.287060
 20
2.799442
 30
0.0
 10
0.258346
 20
2.780256
 30
0.0
 10
0.246157
 20
2.750831
 30
0.0
  0
SPLINE
  5
1a8
100
AcDbEntity
  8
0
 62
7
100
AcDbSpline
 70
8
 71
3
 72
8
 73
4
 74
0
 40
0
 40
0
 40
0
 40
0
 40
1
 40
1
 40
1
 40
1
 10
0.246157
 20
2.750831
 30
0.0
 10
0.233969
 20
2.721405
 30
0.0
 10
0.240706
 20
2.687535
 30
0.0
 10
0.263227
 20
2.665014
 30
0.0
  0
SPLINE
  5
1a9
100
AcDbEntity
  8
0
 62
7
100
AcDbSpline
 70
8
 71
3
 72
8
 73
4
 74
0
 40
0
 40
0
 40
0
 40
0
 40
1
 40
1
 40
1
 40
1
 10
0.263227
 20
2.665014
 30
0.0
 10
0.285749
 20
2.642493
 30
0.0
 10
0.319619
 20
2.635755
 30
0.0
 10
0.349044
 20
2.647944
 30
0.0
  0
SPLINE
  5
1aa
100
AcDbEntity
  8
0
 62
7
100
AcDbSpline
 70
8
 71
3
 72
8
 73
4
 74
0
 40
0
 40
0
 40
0
 40
0
 40
1
 40
1
 40
1
 40
1
 10
0.349044
 20
2.647944
 30
0.0
 10
0.378470
 20
2.660132
 30
0.0
 10
0.397656
 20
2.688846
 30
0.0
 10
0.397656
 20
2.720696
 30
0.0
  0
SPLINE
  5
1ab
100
AcDbEntity
  8
0
 62
7
100
AcDbSpline
 70
8
 71
3
 72
8
 73
4
 74
0
 40
0
 40
0
 40
0
 40
0
 40
1
 40
1
 40
1
 40
1
 10
0.397656
 20
2.720696
 30
0.0
 10
0.397656
 20
2.741581
 30
0.0
 10
0.389359
 20
2.761610
 30
0.0
 10
0.374592
 20
2.776378
 30
0.0
  0
SPLINE
  5
1ac
100
AcDbEntity
  8
0
 62
7
100
AcDbSpline
 70
8
 71
3
 72
8
 73
4
 74
0
 40
0
 40
0
 40
0
 40
0
 40
1
 40
1
 40
1
 40
1
 10
0.374592
 20
2.776378
 30
0.0
 10
0.359824
 20
2.791146
 30
0.0
 10
0.339794
 20
2.799442
 30
0.0
 10
0.318909
 20
2.799442
 30
0.0
  0
LWPOLYLINE
  5
1ad
100
AcDbEntity
  8
0
 62
7
100
AcDbPolyline
 90
1
 70
1
 10
0.318909
 20
2.051352
 30
0.0
  0
SPLINE
  5
1ae
100
AcDbEntity
  8
0
 62
7
100
AcDbSpline
 70
8
 71
3
 72
8
 73
4
 74
0
 40
0
 40
0
 40
0
 40
0
 40
1
 40
1
 40
1
 40
1
 10
1.078812
 20
2.051352
 30
0.0
 10
1.046962
 20
2.051352
 30
0.0
 10
1.018249
 20
2.032166
 30
0.0
 10
1.006060
 20
2.002740
 30
0.0
  0
SPLINE
  5
1af
100
AcDbEntity
  8
0
 62
7
100
AcDbSpline
 70
8
 71
3
 72
8
 73
4
 74
0
 40
0
 40
0
 40
0
 40
0
 40
1
 40
1
 40
1
 40
1
 10
1.006060
 20
2.002740
 30
0.0
 10
0.993872
 20
1.973315
 30
0.0
 10
1.000609
 20
1.939444
 30
0.0
 10
1.023130
 20
1.916923
 30
0.0
  0
SPLINE
  5
1b0
100
AcDbEntity
  8
0
 62
7
100
AcDbSpline
 70
8
 71
3
 72
8
 73
4
 74
0
 40
0
 40
0
 40
0
 40
0
 40
1
 40
1
 40
1
 40
1
 10
1.023130
 20
1.916923
 30
0.0
 10
1.045651
 20
1.894402
 30
0.0
 10
1.079522
 20
1.887664
 30
0.0
 10
1.108947
 20
1.899853
 30
0.0
  0
SPLINE
  5
1b1
100
AcDbEntity
  8
0
 62
7
100
AcDbSpline
 70
8
 71
3
 72
8
 73
4
 74
0
 40
0
 40
0
 40
0
 40
0
 40
1
 40
1
 40
1
 40
1
 10
1.108947
 20
1.899853
 30
0.0
 10
1.138373
 20
1.912041
 30
0.0
 10
1.157559
 20
1.940755
 30
0.0
 10
1.157559
 20
1.972605
 30
0.0
  0
SPLINE
  5
1b2
100
AcDbEntity
  8
0
 62
7
100
AcDbSpline
 70
8
 71
3
 72
8
 73
4
 74
0
 40
0
 40
0
 40
0
 40
0
 40
1
 40
1
 40
1
 40
1
 10
1.157559
 20
1.972605
 30
0.0
 10
1.157559
 20
1.993490
 30
0.0
 10
1.149262
 20
2.013519
 30
0.0
 10
1.134494
 20
2.028287
 30
0.0
  0
SPLINE
  5
1b3
100
AcDbEntity
  8
0
 62
7
100
AcDbSpline
 70
8
 71
3
 72
8
 73
4
 74
0
 40
0
 40
0
 40
0
 40
0
 40
1
 40
1
 40
1
 40
1
 10
1.134494
 20
2.028287
 30
0.0
 10
1.119727
 20
2.043055
 30
0.0
 10
1.099697
 20
2.051352
 30
0.0
 10
1.078812
 20
2.051352
 30
0.0
  0
LWPOLYLINE
  5
1b4
100
AcDbEntity
  8
0
 62
7
100
AcDbPolyline
 90
1
 70
1
 10
0.318909
 20
2.799442
 30
0.0
  0
SPLINE
  5
1b5
100
AcDbEntity
  8
0
 62
7
100
AcDbSpline
 70
8
 71
3
 72
8
 73
4
 74
0
 40
0
 40
0
 40
0
 40
0
 40
1
 40
1
 40
1
 40
1
 10
1.838715
 20
0.555170
 30
0.0
 10
1.806865
 20
0.555170
 30
0.0
 10
1.778151
 20
0.535984
 30
0.0
 10
1.765963
 20
0.506559
 30
0.0
  0
SPLINE
  5
1b6
100
AcDbEntity
  8
0
 62
7
100
AcDbSpline
 70
8
 71
3
 72
8
 73
4
 74
0
 40
0
 40
0
 40
0
 40
0
 40
1
 40
1
 40
1
 40
1
 10
1.765963
 20
0.506559
 30
0.0
 10
1.753774
 20
0.477133
 30
0.0
 10
1.760512
 20
0.443263
 30
0.0
 10
1.783033
 20
0.420741
 30
0.0
  0
SPLINE
  5
1b7
100
AcDbEntity
  8
0
 62
7
100
AcDbSpline
 70
8
 71
3
 72
8
 73
4
 74
0
 40
0
 40
0
 40
0
 40
0
 40
1
 40
1
 40
1
 40
1
 10
1.783033
 20
0.420741
 30
0.0
 10
1.805554
 20
0.398220
 30
0.0
 10
1.839424
 20
0.391483
 30
0.0
 10
1.868850
 20
0.403671
 30
0.0
  0
SPLINE
  5
1b8
100
AcDbEntity
  8
0
 62
7
100
AcDbSpline
 70
8
 71
3
 72
8
 73
4
 74
0
 40
0
 40
0
 40
0
 40
0
 40
1
 40
1
 40
1
 40
1
 10
1.868850
 20
0.403671
 30
0.0
 10
1.898275
 20
0.415860
 30
0.0
 10
1.917461
 20
0.444574
 30
0.0
 10
1.917461
 20
0.476424
 30
0.0
  0
SPLINE
  5
1b9
100
AcDbEntity
  8
0
 62
7
100
AcDbSpline
 70
8
 71
3
 72
8
 73
4
 74
0
 40
0
 40
0
 40
0
 40
0
 40
1
 40
1
 40
1
 40
1
 10
1.917461
 20
0.476424
 30
0.0
 10
1.917461
 20
0.497308
 30
0.0
 10
1.909165
 20
0.517338
 30
0.0
 10
1.894397
 20
0.532106
 30
0.0
  0
SPLINE
  5
1ba
100
AcDbEntity
  8
0
 62
7
100
AcDbSpline
 70
8
 71
3
 72
8
 73
4
 74
0
 40
0
 40
0
 40
0
 40
0
 40
1
 40
1
 40
1
 40
1
 10
1.894397
 20
0.532106
 30
0.0
 10
1.879629
 20
0.546874
 30
0.0
 10
1.859600
 20
0.555170
 30
0.0
 10
1.838715
 20
0.555170
 30
0.0
  0
LWPOLYLINE
  5
1bb
100
AcDbEntity
  8
0
 62
7
100
AcDbPolyline
 90
1
 70
1
 10
1.078812
 20
2.051352
 30
0.0
  0
SPLINE
  5
1bc
100
AcDbEntity
  8
0
 62
7
100
AcDbSpline
 70
8
 71
3
 72
8
 73
4
 74
0
 40
0
 40
0
 40
0
 40
0
 40
1
 40
1
 40
1
 40
1
 10
4.118423
 20
3.547533
 30
0.0
 10
4.086574
 20
3.547533
 30
0.0
 10
4.057860
 20
3.528347
 30
0.0
 10
4.045671
 20
3.498922
 30
0.0
  0
SPLINE
  5
1bd
100
AcDbEntity
  8
0
 62
7
100
AcDbSpline
 70
8
 71
3
 72
8
 73
4
 74
0
 40
0
 40
0
 40
0
 40
0
 40
1
 40
1
 40
1
 40
1
 10
4.045671
 20
3.498922
 30
0.0
 10
4.033483
 20
3.469496
 30
0.0
 10
4.040220
 20
3.435626
 30
0.0
 10
4.062741
 20
3.413105
 30
0.0
  0
SPLINE
  5
1be
100
AcDbEntity
  8
0
 62
7
100
AcDbSpline
 70
8
 71
3
 72
8
 73
4
 74
0
 40
0
 40
0
 40
0
 40
0
 40
1
 40
1
 40
1
 40
1
 10
4.062741
 20
3.413105
 30
0.0
 10
4.085263
 20
3.390583
 30
0.0
 10
4.119133
 20
3.383846
 30
0.0
 10
4.148558
 20
3.396035
 30
0.0
  0
SPLINE
  5
1bf
100
AcDbEntity
  8
0
 62
7
100
AcDbSpline
 70
8
 71
3
 72
8
 73
4
 74
0
 40
0
 40
0
 40
0
 40
0
 40
1
 40
1
 40
1
 40
1
 10
4.148558
 20
3.396035
 30
0.0
 10
4.177984
 20
3.408223
 30
0.0
 10
4.197170
 20
3.436937
 30
0.0
 10
4.197170
 20
3.468787
 30
0.0
  0
SPLINE
  5
1c0
100
AcDbEntity
  8
0
 62
7
100
AcDbSpline
 70
8
 71
3
 72
8
 73
4
 74
0
 40
0
 40
0
 40
0
 40
0
 40
1
 40
1
 40
1
 40
1
 10
4.197170
 20
3.468787
 30
0.0
 10
4.197170
 20
3.489672
 30
0.0
 10
4.188873
 20
3.509701
 30
0.0
 10
4.174106
 20
3.524469
 30
0.0
  0
SPLINE
  5
1c1
100
AcDbEntity
  8
0
 62
7
100
AcDbSpline
 70
8
 71
3
 72
8
 73
4
 74
0
 40
0
 40
0
 40
0
 40
0
 40
1
 40
1
 40
1
 40
1
 10
4.174106
 20
3.524469
 30
0.0
 10
4.159338
 20
3.539237
 30
0.0
 10
4.139308
 20
3.547533
 30
0.0
 10
4.118423
 20
3.547533
 30
0.0
  0
LWPOLYLINE
  5
1c2
100
AcDbEntity
  8
0
 62
7
100
AcDbPolyline
 90
1
 70
1
 10
1.838715
 20
0.555170
 30
0.0
  0
SPLINE
  5
1c3
100
AcDbEntity
  8
0
 62
7
100
AcDbSpline
 70
8
 71
3
 72
8
 73
4
 74
0
 40
0
 40
0
 40
0
 40
0
 40
1
 40
1
 40
1
 40
1
 10
1.838715
 20
2.799442
 30
0.0
 10
1.806865
 20
2.799442
 30
0.0
 10
1.778151
 20
2.780256
 30
0.0
 10
1.765963
 20
2.750831
 30
0.0
  0
SPLINE
  5
1c4
100
AcDbEntity
  8
0
 62
7
100
AcDbSpline
 70
8
 71
3
 72
8
 73
4
 74
0
 40
0
 40
0
 40
0
 40
0
 40
1
 40
1
 40
1
 40
1
 10
1.765963
 20
2.750831
 30
0.0
 10
1.753774
 20
2.721405
 30
0.0
 10
1.760512
 20
2.687535
 30
0.0
 10
1.783033
 20
2.665014
 30
0.0
  0
SPLINE
  5
1c5
100
AcDbEntity
  8
0
 62
7
100
AcDbSpline
 70
8
 71
3
 72
8
 73
4
 74
0
 40
0
 40
0
 40
0
 40
0
 40
1
 40
1
 40
1
 40
1
 10
1.783033
 20
2.665014
 30
0.0
 10
1.805554
 20
2.642493
 30
0.0
 10
1.839424
 20
2.635755
 30
0.0
 10
1.868850
 20
2.647944
 30
0.0
  0
SPLINE
  5
1c6
100
AcDbEntity
  8
0
 62
7
100
AcDbSpline
 70
8
 71
3
 72
8
 73
4
 74
0
 40
0
 40
0
 40
0
 40
0
 40
1
 40
1
 40
1
 40
1
 10
1.868850
 20
2.647944
 30
0.0
 10
1.898275
 20
2.660132
 30
0.0
 10
1.917461
 20
2.688846
 30
0.0
 10
1.917461
 20
2.720696
 30
0.0
  0
SPLINE
  5
1c7
100
AcDbEntity
  8
0
 62
7
100
AcDbSpline
 70
8
 71
3
 72
8
 73
4
 74
0
 40
0
 40
0
 40
0
 40
0
 40
1
 40
1
 40
1
 40
1
 10
1.917461
 20
2.720696
 30
0.0
 10
1.917461
 20
2.741581
 30
0.0
 10
1.909165
 20
2.761610
 30
0.0
 10
1.894397
 20
2.776378
 30
0.0
  0
SPLINE
  5
1c8
100
AcDbEntity
  8
0
 62
7
100
AcDbSpline
 70
8
 71
3
 72
8
 73
4
 74
0
 40
0
 40
0
 40
0
 40
0
 40
1
 40
1
 40
1
 40
1
 10
1.894397
 20
2.776378
 30
0.0
 10
1.879629
 20
2.791146
 30
0.0
 10
1.859600
 20
2.799442
 30
0.0
 10
1.838715
 20
2.799442
 30
0.0
  0
LWPOLYLINE
  5
1c9
100
AcDbEntity
  8
0
 62
7
100
AcDbPolyline
 90
1
 70
1
 10
4.118423
 20
3.547533
 30
0.0
  0
SPLINE
  5
1ca
100
AcDbEntity
  8
0
 62
7
100
AcDbSpline
 70
8
 71
3
 72
8
 73
4
 74
0
 40
0
 40
0
 40
0
 40
0
 40
1
 40
1
 40
1
 40
1
 10
1.078812
 20
0.555170
 30
0.0
 10
1.046962
 20
0.555170
 30
0.0
 10
1.018249
 20
0.535984
 30
0.0
 10
1.006060
 20
0.506559
 30
0.0
  0
SPLINE
  5
1cb
100
AcDbEntity
  8
0
 62
7
100
AcDbSpline
 70
8
 71
3
 72
8
 73
4
 74
0
 40
0
 40
0
 40
0
 40
0
 40
1
 40
1
 40
1
 40
1
 10
1.006060
 20
0.506559
 30
0.0
 10
0.993872
 20
0.477133
 30
0.0
 10
1.000609
 20
0.443263
 30
0.0
 10
1.023130
 20
0.420741
 30
0.0
  0
SPLINE
  5
1cc
100
AcDbEntity
  8
0
 62
7
100
AcDbSpline
 70
8
 71
3
 72
8
 73
4
 74
0
 40
0
 40
0
 40
0
 40
0
 40
1
 40
1
 40
1
 40
1
 10
1.023130
 20
0.420741
 30
0.0
 10
1.045651
 20
0.398220
 30
0.0
 10
1.079522
 20
0.391483
 30
0.0
 10
1.108947
 20
0.403671
 30
0.0
  0
SPLINE
  5
1cd
100
AcDbEntity
  8
0
 62
7
100
AcDbSpline
 70
8
 71
3
 72
8
 73
4
 74
0
 40
0
 40
0
 40
0
 40
0
 40
1
 40
1
 40
1
 40
1
 10
1.108947
 20
0.403671
 30
0.0
 10
1.138373
 20
0.415860
 30
0.0
 10
1.157559
 20
0.444574
 30
0.0
 10
1.157559
 20
0.476424
 30
0.0
  0
SPLINE
  5
1ce
100
AcDbEntity
  8
0
 62
7
100
AcDbSpline
 70
8
 71
3
 72
8
 73
4
 74
0
 40
0
 40
0
 40
0
 40
0
 40
1
 40
1
 40
1
 40
1
 10
1.157559
 20
0.476424
 30
0.0
 10
1.157559
 20
0.497308
 30
0.0
 10
1.149262
 20
0.517338
 30
0.0
 10
1.134494
 20
0.532106
 30
0.0
  0
SPLINE
  5
1cf
100
AcDbEntity
  8
0
 62
7
100
AcDbSpline
 70
8
 71
3
 72
8
 73
4
 74
0
 40
0
 40
0
 40
0
 40
0
 40
1
 40
1
 40
1
 40
1
 10
1.134494
 20
0.532106
 30
0.0
 10
1.119727
 20
0.546874
 30
0.0
 10
1.099697
 20
0.555170
 30
0.0
 10
1.078812
 20
0.555170
 30
0.0
  0
LWPOLYLINE
  5
1d0
100
AcDbEntity
  8
0
 62
7
100
AcDbPolyline
 90
1
 70
1
 10
1.838715
 20
2.799442
 30
0.0
  0
SPLINE
  5
1d1
100
AcDbEntity
  8
0
 62
7
100
AcDbSpline
 70
8
 71
3
 72
8
 73
4
 74
0
 40
0
 40
0
 40
0
 40
0
 40
1
 40
1
 40
1
 40
1
 10
4.118423
 20
1.303261
 30
0.0
 10
4.086574
 20
1.303261
 30
0.0
 10
4.057860
 20
1.284075
 30
0.0
 10
4.045671
 20
1.254649
 30
0.0
  0
SPLINE
  5
1d2
100
AcDbEntity
  8
0
 62
7
100
AcDbSpline
 70
8
 71
3
 72
8
 73
4
 74
0
 40
0
 40
0
 40
0
 40
0
 40
1
 40
1
 40
1
 40
1
 10
4.045671
 20
1.254649
 30
0.0
 10
4.033483
 20
1.225224
 30
0.0
 10
4.040220
 20
1.191354
 30
0.0
 10
4.062741
 20
1.168832
 30
0.0
  0
SPLINE
  5
1d3
100
AcDbEntity
  8
0
 62
7
100
AcDbSpline
 70
8
 71
3
 72
8
 73
4
 74
0
 40
0
 40
0
 40
0
 40
0
 40
1
 40
1
 40
1
 40
1
 10
4.062741
 20
1.168832
 30
0.0
 10
4.085263
 20
1.146311
 30
0.0
 10
4.119133
 20
1.139574
 30
0.0
 10
4.148558
 20
1.151762
 30
0.0
  0
SPLINE
  5
1d4
100
AcDbEntity
  8
0
 62
7
100
AcDbSpline
 70
8
 71
3
 72
8
 73
4
 74
0
 40
0
 40
0
 40
0
 40
0
 40
1
 40
1
 40
1
 40
1
 10
4.148558
 20
1.151762
 30
0.0
 10
4.177984
 20
1.163951
 30
0.0
 10
4.197170
 20
1.192664
 30
0.0
 10
4.197170
 20
1.224514
 30
0.0
  0
SPLINE
  5
1d5
100
AcDbEntity
  8
0
 62
7
100
AcDbSpline
 70
8
 71
3
 72
8
 73
4
 74
0
 40
0
 40
0
 40
0
 40
0
 40
1
 40
1
 40
1
 40
1
 10
4.197170
 20
1.224514
 30
0.0
 10
4.197170
 20
1.245399
 30
0.0
 10
4.188873
 20
1.265429
 30
0.0
 10
4.174106
 20
1.280197
 30
0.0
  0
SPLINE
  5
1d6
100
AcDbEntity
  8
0
 62
7
100
AcDbSpline
 70
8
 71
3
 72
8
 73
4
 74
0
 40
0
 40
0
 40
0
 40
0
 40
1
 40
1
 40
1
 40
1
 10
4.174106
 20
1.280197
 30
0.0
 10
4.159338
 20
1.294964
 30
0.0
 10
4.139308
 20
1.303261
 30
0.0
 10
4.118423
 20
1.303261
 30
0.0
  0
LWPOLYLINE
  5
1d7
100
AcDbEntity
  8
0
 62
7
100
AcDbPolyline
 90
1
 70
1
 10
1.078812
 20
0.555170
 30
0.0
  0
SPLINE
  5
1d8
100
AcDbEntity
  8
0
 62
7
100
AcDbSpline
 70
8
 71
3
 72
8
 73
4
 74
0
 40
0
 40
0
 40
0
 40
0
 40
1
 40
1
 40
1
 40
1
 10
4.118423
 20
0.555170
 30
0.0
 10
4.086574
 20
0.555170
 30
0.0
 10
4.057860
 20
0.535984
 30
0.0
 10
4.045671
 20
0.506559
 30
0.0
  0
SPLINE
  5
1d9
100
AcDbEntity
  8
0
 62
7
100
AcDbSpline
 70
8
 71
3
 72
8
 73
4
 74
0
 40
0
 40
0
 40
0
 40
0
 40
1
 40
1
 40
1
 40
1
 10
4.045671
 20
0.506559
 30
0.0
 10
4.033483
 20
0.477133
 30
0.0
 10
4.040220
 20
0.443263
 30
0.0
 10
4.062741
 20
0.420741
 30
0.0
  0
SPLINE
  5
1da
100
AcDbEntity
  8
0
 62
7
100
AcDbSpline
 70
8
 71
3
 72
8
 73
4
 74
0
 40
0
 40
0
 40
0
 40
0
 40
1
 40
1
 40
1
 40
1
 10
4.062741
 20
0.420741
 30
0.0
 10
4.085263
 20
0.398220
 30
0.0
 10
4.119133
 20
0.391483
 30
0.0
 10
4.148558
 20
0.403671
 30
0.0
  0
SPLINE
  5
1db
100
AcDbEntity
  8
0
 62
7
100
AcDbSpline
 70
8
 71
3
 72
8
 73
4
 74
0
 40
0
 40
0
 40
0
 40
0
 40
1
 40
1
 40
1
 40
1
 10
4.148558
 20
0.403671
 30
0.0
 10
4.177984
 20
0.415860
 30
0.0
 10
4.197170
 20
0.444574
 30
0.0
 10
4.197170
 20
0.476424
 30
0.0
  0
SPLINE
  5
1dc
100
AcDbEntity
  8
0
 62
7
100
AcDbSpline
 70
8
 71
3
 72
8
 73
4
 74
0
 40
0
 40
0
 40
0
 40
0
 40
1
 40
1
 40
1
 40
1
 10
4.197170
 20
0.476424
 30
0.0
 10
4.197170
 20
0.497308
 30
0.0
 10
4.188873
 20
0.517338
 30
0.0
 10
4.174106
 20
0.532106
 30
0.0
  0
SPLINE
  5
1dd
100
AcDbEntity
  8
0
 62
7
100
AcDbSpline
 70
8
 71
3
 72
8
 73
4
 74
0
 40
0
 40
0
 40
0
 40
0
 40
1
 40
1
 40
1
 40
1
 10
4.174106
 20
0.532106
 30
0.0
 10
4.159338
 20
0.546874
 30
0.0
 10
4.139308
 20
0.555170
 30
0.0
 10
4.118423
 20
0.555170
 30
0.0
  0
LWPOLYLINE
  5
1de
100
AcDbEntity
  8
0
 62
7
100
AcDbPolyline
 90
1
 70
1
 10
4.118423
 20
1.303261
 30
0.0
  0
SPLINE
  5
1df
100
AcDbEntity
  8
0
 62
7
100
AcDbSpline
 70
8
 71
3
 72
8
 73
4
 74
0
 40
0
 40
0
 40
0
 40
0
 40
1
 40
1
 40
1
 40
1
 10
5.648072
 20
2.551391
 30
0.0
 10
5.616222
 20
2.551391
 30
0.0
 10
5.587508
 20
2.532205
 30
0.0
 10
5.575320
 20
2.502780
 30
0.0
  0
SPLINE
  5
1e0
100
AcDbEntity
  8
0
 62
7
100
AcDbSpline
 70
8
 71
3
 72
8
 73
4
 74
0
 40
0
 40
0
 40
0
 40
0
 40
1
 40
1
 40
1
 40
1
 10
5.575320
 20
2.502780
 30
0.0
 10
5.563131
 20
2.473354
 30
0.0
 10
5.569869
 20
2.439484
 30
0.0
 10
5.592390
 20
2.416963
 30
0.0
  0
SPLINE
  5
1e1
100
AcDbEntity
  8
0
 62
7
100
AcDbSpline
 70
8
 71
3
 72
8
 73
4
 74
0
 40
0
 40
0
 40
0
 40
0
 40
1
 40
1
 40
1
 40
1
 10
5.592390
 20
2.416963
 30
0.0
 10
5.614911
 20
2.394441
 30
0.0
 10
5.648781
 20
2.387704
 30
0.0
 10
5.678207
 20
2.399893
 30
0.0
  0
SPLINE
  5
1e2
100
AcDbEntity
  8
0
 62
7
100
AcDbSpline
 70
8
 71
3
 72
8
 73
4
 74
0
 40
0
 40
0
 40
0
 40
0
 40
1
 40
1
 40
1
 40
1
 10
5.678207
 20
2.399893
 30
0.0
 10
5.707632
 20
2.412081
 30
0.0
 10
5.726818
 20
2.440795
 30
0.0
 10
5.726818
 20
2.472645
 30
0.0
  0
SPLINE
  5
1e3
100
AcDbEntity
  8
0
 62
7
100
AcDbSpline
 70
8
 71
3
 72
8
 73
4
 74
0
 40
0
 40
0
 40
0
 40
0
 40
1
 40
1
 40
1
 40
1
 10
5.726818
 20
2.472645
 30
0.0
 10
5.726818
 20
2.493530
 30
0.0
 10
5.718522
 20
2.513559
 30
0.0
 10
5.703754
 20
2.528327
 30
0.0
  0
SPLINE
  5
1e4
100
AcDbEntity
  8
0
 62
7
100
AcDbSpline
 70
8
 71
3
 72
8
 73
4
 74
0
 40
0
 40
0
 40
0
 40
0
 40
1
 40
1
 40
1
 40
1
 10
5.703754
 20
2.528327
 30
0.0
 10
5.688986
 20
2.543095
 30
0.0
 10
5.668957
 20
2.551391
 30
0.0
 10
5.648072
 20
2.551391
 30
0.0
  0
LWPOLYLINE
  5
1e5
100
AcDbEntity
  8
0
 62
7
100
AcDbPolyline
 90
1
 70
1
 10
4.118423
 20
0.555170
 30
0.0
  0
SPLINE
  5
1e6
100
AcDbEntity
  8
0
 62
7
100
AcDbSpline
 70
8
 71
3
 72
8
 73
4
 74
0
 40
0
 40
0
 40
0
 40
0
 40
1
 40
1
 40
1
 40
1
 10
5.648072
 20
1.803300
 30
0.0
 10
5.616222
 20
1.803300
 30
0.0
 10
5.587508
 20
1.784114
 30
0.0
 10
5.575320
 20
1.754689
 30
0.0
  0
SPLINE
  5
1e7
100
AcDbEntity
  8
0
 62
7
100
AcDbSpline
 70
8
 71
3
 72
8
 73
4
 74
0
 40
0
 40
0
 40
0
 40
0
 40
1
 40
1
 40
1
 40
1
 10
5.575320
 20
1.754689
 30
0.0
 10
5.563131
 20
1.725263
 30
0.0
 10
5.569869
 20
1.691393
 30
0.0
 10
5.592390
 20
1.668872
 30
0.0
  0
SPLINE
  5
1e8
100
AcDbEntity
  8
0
 62
7
100
AcDbSpline
 70
8
 71
3
 72
8
 73
4
 74
0
 40
0
 40
0
 40
0
 40
0
 40
1
 40
1
 40
1
 40
1
 10
5.592390
 20
1.668872
 30
0.0
 10
5.614911
 20
1.646351
 30
0.0
 10
5.648781
 20
1.639613
 30
0.0
 10
5.678207
 20
1.651802
 30
0.0
  0
SPLINE
  5
1e9
100
AcDbEntity
  8
0
 62
7
100
AcDbSpline
 70
8
 71
3
 72
8
 73
4
 74
0
 40
0
 40
0
 40
0
 40
0
 40
1
 40
1
 40
1
 40
1
 10
5.678207
 20
1.651802
 30
0.0
 10
5.707632
 20
1.663990
 30
0.0
 10
5.726818
 20
1.692704
 30
0.0
 10
5.726818
 20
1.724554
 30
0.0
  0
SPLINE
  5
1ea
100
AcDbEntity
  8
0
 62
7
100
AcDbSpline
 70
8
 71
3
 72
8
 73
4
 74
0
 40
0
 40
0
 40
0
 40
0
 40
1
 40
1
 40
1
 40
1
 10
5.726818
 20
1.724554
 30
0.0
 10
5.726818
 20
1.745439
 30
0.0
 10
5.718522
 20
1.765468
 30
0.0
 10
5.703754
 20
1.780236
 30
0.0
  0
SPLINE
  5
1eb
100
AcDbEntity
  8
0
 62
7
100
AcDbSpline
 70
8
 71
3
 72
8
 73
4
 74
0
 40
0
 40
0
 40
0
 40
0
 40
1
 40
1
 40
1
 40
1
 10
5.703754
 20
1.780236
 30
0.0
 10
5.688986
 20
1.795004
 30
0.0
 10
5.668957
 20
1.803300
 30
0.0
 10
5.648072
 20
1.803300
 30
0.0
  0
LWPOLYLINE
  5
1ec
100
AcDbEntity
  8
0
 62
7
100
AcDbPolyline
 90
1
 70
1
 10
5.648072
 20
2.551391
 30
0.0
  0
LWPOLYLINE
  5
1ed
100
AcDbEntity
  8
0
 62
7
100
AcDbPolyline
 90
1
 70
1
 10
5.648072
 20
1.803300
 30
0.0
  0
ENDSEC
  0
SECTION
  2
OBJECTS
  0
DICTIONARY
  5
C
330
0
100
AcDbDictionary
  3
ACAD_GROUP
350
D
  3
ACAD_MLINESTYLE
350
17
  0
DICTIONARY
  5
D
330
C
100
AcDbDictionary
  0
DICTIONARY
  5
1A
330
C
100
AcDbDictionary
  0
DICTIONARY
  5
17
330
C
100
AcDbDictionary
  3
STANDARD
350
18
  0
DICTIONARY
  5
19
330
C
100
AcDbDictionary
  0
ENDSEC
  0
EOF
