M48
; DRILL file {KiCad 7.0.8} date Tue 17 Oct 2023 10:34:51 AM PDT
; FORMAT={-:-/ absolute / metric / decimal}
; #@! TF.CreationDate,2023-10-17T10:34:51-07:00
; #@! TF.GenerationSoftware,Kicad,Pcbnew,7.0.8
; #@! TF.FileFunction,Plated,1,2,PTH
FMAT,2
METRIC
; #@! TA.AperFunction,Plated,PTH,ViaDrill
T1C0.100
; #@! TA.AperFunction,Plated,PTH,ViaDrill
T2C0.300
; #@! TA.AperFunction,Plated,PTH,ViaDrill
T3C0.400
; #@! TA.AperFunction,Plated,PTH,ComponentDrill
T4C0.400
; #@! TA.AperFunction,Plated,PTH,ComponentDrill
T5C0.900
; #@! TA.AperFunction,Plated,PTH,ComponentDrill
T6C1.000
; #@! TA.AperFunction,Plated,PTH,ComponentDrill
T7C1.100
; #@! TA.AperFunction,Plated,PTH,ComponentDrill
T8C1.500
%
G90
G05
T1
X41.5Y-26.75
X60.8Y-26.75
X80.1Y-26.75
X99.4Y-26.75
X118.7Y-26.75
X138.0Y-26.75
T2
X36.5Y-21.34
X37.5Y-21.866
X38.5Y-22.393
X39.5Y-22.919
X55.8Y-21.34
X56.8Y-21.866
X57.8Y-22.393
X58.8Y-22.919
X75.1Y-21.34
X76.1Y-21.866
X77.1Y-22.393
X78.1Y-22.919
X94.4Y-21.34
X95.4Y-21.866
X96.4Y-22.393
X97.4Y-22.919
X113.7Y-21.34
X114.7Y-21.866
X115.7Y-22.393
X116.7Y-22.919
X133.0Y-21.34
X134.0Y-21.866
X135.0Y-22.393
X136.0Y-22.919
X143.284Y-26.503
X144.284Y-26.503
X145.283Y-26.503
X146.283Y-26.503
X150.566Y-38.935
X150.987Y-38.509
X151.418Y-38.092
X151.899Y-37.6
X156.5Y-78.0
X158.75Y-54.5
X161.49Y-85.0
X162.089Y-85.0
X166.5Y-93.5
X167.5Y-89.5
X168.451Y-89.5
X174.393Y-55.463
X175.0Y-55.6
T3
X34.202Y-31.749
X37.0Y-35.3
X42.5Y-30.25
X44.75Y-33.25
X46.25Y-31.75
X53.502Y-31.749
X56.3Y-35.3
X61.8Y-30.25
X64.05Y-33.25
X72.802Y-31.749
X75.6Y-35.3
X81.1Y-30.25
X83.35Y-33.25
X92.102Y-31.749
X94.9Y-35.3
X100.4Y-30.25
X102.65Y-33.25
X111.402Y-31.749
X114.2Y-35.3
X119.7Y-30.25
X121.95Y-33.25
X130.702Y-31.749
X133.5Y-35.3
X141.25Y-33.25
X145.775Y-24.375
X145.824Y-22.794
X147.5Y-37.0
X151.3Y-29.975
X152.698Y-37.593
X153.153Y-36.703
X163.7Y-89.5
X168.53Y-66.047
X173.276Y-53.676
X173.309Y-52.526
X175.726Y-54.5
T4
X164.874Y-22.286
X164.874Y-24.826
X164.874Y-27.366
X164.874Y-29.906
X164.874Y-32.446
X164.874Y-34.986
X164.874Y-37.526
X164.874Y-40.066
X164.874Y-42.606
X164.874Y-45.146
X164.874Y-47.686
X164.874Y-50.226
X166.398Y-22.286
X166.398Y-24.826
X166.398Y-27.366
X166.398Y-29.906
X166.398Y-32.446
X166.398Y-34.986
X166.398Y-37.526
X166.398Y-40.066
X166.398Y-42.606
X166.398Y-45.146
X166.398Y-47.686
X166.398Y-50.226
T5
X168.05Y-58.632
X168.05Y-60.632
T6
X158.89Y-78.46
X158.89Y-83.46
X160.556Y-53.766
X163.096Y-53.766
X165.636Y-53.766
X168.176Y-53.766
X170.716Y-53.766
X173.39Y-78.46
X173.39Y-80.96
X173.39Y-83.46
T7
X158.016Y-22.286
X158.016Y-22.286
X158.016Y-24.826
X158.016Y-27.366
X158.016Y-29.906
X158.016Y-32.446
X158.016Y-34.986
X158.016Y-37.526
X158.016Y-40.066
X158.016Y-42.606
X158.016Y-45.146
X158.016Y-47.686
X158.016Y-50.226
X173.256Y-22.286
X173.256Y-22.286
X173.256Y-24.826
X173.256Y-27.366
X173.256Y-29.906
X173.256Y-32.446
X173.256Y-34.986
X173.256Y-37.526
X173.256Y-40.066
X173.256Y-42.606
X173.256Y-45.146
X173.256Y-47.686
X173.256Y-50.226
T6
X163.78Y-66.925G85X163.28Y-66.925
G05
X164.78Y-71.125G85X164.28Y-71.125
G05
X168.78Y-71.125G85X168.28Y-71.125
G05
X171.78Y-71.125G85X171.28Y-71.125
G05
T8
X166.54Y-75.36G85X165.24Y-75.36
G05
X166.54Y-86.56G85X165.24Y-86.56
G05
T0
M30
