G04 #@! TF.GenerationSoftware,KiCad,Pcbnew,7.0.6-7.0.6~ubuntu20.04.1*
G04 #@! TF.CreationDate,2023-10-06T02:11:44+00:00*
G04 #@! TF.ProjectId,Seismos_CoreL,53656973-6d6f-4735-9f43-6f72654c2e6b,rev?*
G04 #@! TF.SameCoordinates,Original*
G04 #@! TF.FileFunction,Soldermask,Top*
G04 #@! TF.FilePolarity,Negative*
%FSLAX46Y46*%
G04 Gerber Fmt 4.6, Leading zero omitted, Abs format (unit mm)*
G04 Created by KiCad (PCBNEW 7.0.6-7.0.6~ubuntu20.04.1) date 2023-10-06 02:11:44*
%MOMM*%
%LPD*%
G01*
G04 APERTURE LIST*
G04 Aperture macros list*
%AMRoundRect*
0 Rectangle with rounded corners*
0 $1 Rounding radius*
0 $2 $3 $4 $5 $6 $7 $8 $9 X,Y pos of 4 corners*
0 Add a 4 corners polygon primitive as box body*
4,1,4,$2,$3,$4,$5,$6,$7,$8,$9,$2,$3,0*
0 Add four circle primitives for the rounded corners*
1,1,$1+$1,$2,$3*
1,1,$1+$1,$4,$5*
1,1,$1+$1,$6,$7*
1,1,$1+$1,$8,$9*
0 Add four rect primitives between the rounded corners*
20,1,$1+$1,$2,$3,$4,$5,0*
20,1,$1+$1,$4,$5,$6,$7,0*
20,1,$1+$1,$6,$7,$8,$9,0*
20,1,$1+$1,$8,$9,$2,$3,0*%
%AMFreePoly0*
4,1,6,0.600000,0.200000,0.000000,-0.400000,-0.600000,0.200000,-0.600000,0.400000,0.600000,0.400000,0.600000,0.200000,0.600000,0.200000,$1*%
%AMFreePoly1*
4,1,6,0.600000,-0.250000,-0.600000,-0.250000,-0.600000,1.000000,0.000000,0.400000,0.600000,1.000000,0.600000,-0.250000,0.600000,-0.250000,$1*%
G04 Aperture macros list end*
%ADD10C,0.250000*%
%ADD11C,0.100000*%
%ADD12C,2.000000*%
%ADD13R,3.200000X2.000000*%
%ADD14C,2.300000*%
%ADD15C,1.200000*%
%ADD16O,2.500000X1.700000*%
%ADD17R,0.635000X1.143000*%
%ADD18C,3.000000*%
%ADD19R,1.700000X1.700000*%
%ADD20O,1.700000X1.700000*%
%ADD21C,0.800000*%
%ADD22RoundRect,0.102000X-1.000000X0.400000X-1.000000X-0.400000X1.000000X-0.400000X1.000000X0.400000X0*%
%ADD23RoundRect,0.102000X-0.400000X0.450000X-0.400000X-0.450000X0.400000X-0.450000X0.400000X0.450000X0*%
%ADD24RoundRect,0.102000X-0.400000X0.500000X-0.400000X-0.500000X0.400000X-0.500000X0.400000X0.500000X0*%
%ADD25C,1.400000*%
%ADD26C,1.600000*%
%ADD27FreePoly0,270.000000*%
%ADD28FreePoly0,90.000000*%
%ADD29R,1.600000X1.600000*%
%ADD30FreePoly1,270.000000*%
%ADD31FreePoly1,90.000000*%
%ADD32RoundRect,0.225000X-0.375000X0.225000X-0.375000X-0.225000X0.375000X-0.225000X0.375000X0.225000X0*%
%ADD33R,1.803400X0.812800*%
%ADD34C,0.900000*%
G04 APERTURE END LIST*
D10*
X166523000Y-22286000D02*
G75*
G03*
X166523000Y-22286000I-125000J0D01*
G01*
X164999000Y-22286000D02*
G75*
G03*
X164999000Y-22286000I-125000J0D01*
G01*
X166523000Y-24826000D02*
G75*
G03*
X166523000Y-24826000I-125000J0D01*
G01*
X164999000Y-24826000D02*
G75*
G03*
X164999000Y-24826000I-125000J0D01*
G01*
X166523000Y-27366000D02*
G75*
G03*
X166523000Y-27366000I-125000J0D01*
G01*
X164999000Y-27366000D02*
G75*
G03*
X164999000Y-27366000I-125000J0D01*
G01*
X166523000Y-29906000D02*
G75*
G03*
X166523000Y-29906000I-125000J0D01*
G01*
X164999000Y-29906000D02*
G75*
G03*
X164999000Y-29906000I-125000J0D01*
G01*
X166523000Y-32446000D02*
G75*
G03*
X166523000Y-32446000I-125000J0D01*
G01*
X164999000Y-32446000D02*
G75*
G03*
X164999000Y-32446000I-125000J0D01*
G01*
X166523000Y-34986000D02*
G75*
G03*
X166523000Y-34986000I-125000J0D01*
G01*
X164999000Y-34986000D02*
G75*
G03*
X164999000Y-34986000I-125000J0D01*
G01*
X166523000Y-37526000D02*
G75*
G03*
X166523000Y-37526000I-125000J0D01*
G01*
X164999000Y-37526000D02*
G75*
G03*
X164999000Y-37526000I-125000J0D01*
G01*
X166523000Y-40066000D02*
G75*
G03*
X166523000Y-40066000I-125000J0D01*
G01*
X164999000Y-40066000D02*
G75*
G03*
X164999000Y-40066000I-125000J0D01*
G01*
X166523000Y-42606000D02*
G75*
G03*
X166523000Y-42606000I-125000J0D01*
G01*
X164999000Y-42606000D02*
G75*
G03*
X164999000Y-42606000I-125000J0D01*
G01*
X166523000Y-45146000D02*
G75*
G03*
X166523000Y-45146000I-125000J0D01*
G01*
X164999000Y-45146000D02*
G75*
G03*
X164999000Y-45146000I-125000J0D01*
G01*
X166523000Y-47686000D02*
G75*
G03*
X166523000Y-47686000I-125000J0D01*
G01*
X164999000Y-47686000D02*
G75*
G03*
X164999000Y-47686000I-125000J0D01*
G01*
X166523000Y-50226000D02*
G75*
G03*
X166523000Y-50226000I-125000J0D01*
G01*
X164999000Y-50226000D02*
G75*
G03*
X164999000Y-50226000I-125000J0D01*
G01*
D11*
X160556000Y-22794000D02*
X159540000Y-22794000D01*
X159540000Y-21778000D01*
X160556000Y-21778000D01*
X160556000Y-22794000D01*
G36*
X160556000Y-22794000D02*
G01*
X159540000Y-22794000D01*
X159540000Y-21778000D01*
X160556000Y-21778000D01*
X160556000Y-22794000D01*
G37*
X171732000Y-22794000D02*
X170716000Y-22794000D01*
X170716000Y-21778000D01*
X171732000Y-21778000D01*
X171732000Y-22794000D01*
G36*
X171732000Y-22794000D02*
G01*
X170716000Y-22794000D01*
X170716000Y-21778000D01*
X171732000Y-21778000D01*
X171732000Y-22794000D01*
G37*
X160556000Y-25334000D02*
X159540000Y-25334000D01*
X159540000Y-24318000D01*
X160556000Y-24318000D01*
X160556000Y-25334000D01*
G36*
X160556000Y-25334000D02*
G01*
X159540000Y-25334000D01*
X159540000Y-24318000D01*
X160556000Y-24318000D01*
X160556000Y-25334000D01*
G37*
X171732000Y-25334000D02*
X170716000Y-25334000D01*
X170716000Y-24318000D01*
X171732000Y-24318000D01*
X171732000Y-25334000D01*
G36*
X171732000Y-25334000D02*
G01*
X170716000Y-25334000D01*
X170716000Y-24318000D01*
X171732000Y-24318000D01*
X171732000Y-25334000D01*
G37*
X160556000Y-27874000D02*
X159540000Y-27874000D01*
X159540000Y-26858000D01*
X160556000Y-26858000D01*
X160556000Y-27874000D01*
G36*
X160556000Y-27874000D02*
G01*
X159540000Y-27874000D01*
X159540000Y-26858000D01*
X160556000Y-26858000D01*
X160556000Y-27874000D01*
G37*
X171732000Y-27874000D02*
X170716000Y-27874000D01*
X170716000Y-26858000D01*
X171732000Y-26858000D01*
X171732000Y-27874000D01*
G36*
X171732000Y-27874000D02*
G01*
X170716000Y-27874000D01*
X170716000Y-26858000D01*
X171732000Y-26858000D01*
X171732000Y-27874000D01*
G37*
X160556000Y-30414000D02*
X159540000Y-30414000D01*
X159540000Y-29398000D01*
X160556000Y-29398000D01*
X160556000Y-30414000D01*
G36*
X160556000Y-30414000D02*
G01*
X159540000Y-30414000D01*
X159540000Y-29398000D01*
X160556000Y-29398000D01*
X160556000Y-30414000D01*
G37*
X171732000Y-30414000D02*
X170716000Y-30414000D01*
X170716000Y-29398000D01*
X171732000Y-29398000D01*
X171732000Y-30414000D01*
G36*
X171732000Y-30414000D02*
G01*
X170716000Y-30414000D01*
X170716000Y-29398000D01*
X171732000Y-29398000D01*
X171732000Y-30414000D01*
G37*
X160556000Y-32954000D02*
X159540000Y-32954000D01*
X159540000Y-31938000D01*
X160556000Y-31938000D01*
X160556000Y-32954000D01*
G36*
X160556000Y-32954000D02*
G01*
X159540000Y-32954000D01*
X159540000Y-31938000D01*
X160556000Y-31938000D01*
X160556000Y-32954000D01*
G37*
X171732000Y-32954000D02*
X170716000Y-32954000D01*
X170716000Y-31938000D01*
X171732000Y-31938000D01*
X171732000Y-32954000D01*
G36*
X171732000Y-32954000D02*
G01*
X170716000Y-32954000D01*
X170716000Y-31938000D01*
X171732000Y-31938000D01*
X171732000Y-32954000D01*
G37*
X160556000Y-35494000D02*
X159540000Y-35494000D01*
X159540000Y-34478000D01*
X160556000Y-34478000D01*
X160556000Y-35494000D01*
G36*
X160556000Y-35494000D02*
G01*
X159540000Y-35494000D01*
X159540000Y-34478000D01*
X160556000Y-34478000D01*
X160556000Y-35494000D01*
G37*
X171732000Y-35494000D02*
X170716000Y-35494000D01*
X170716000Y-34478000D01*
X171732000Y-34478000D01*
X171732000Y-35494000D01*
G36*
X171732000Y-35494000D02*
G01*
X170716000Y-35494000D01*
X170716000Y-34478000D01*
X171732000Y-34478000D01*
X171732000Y-35494000D01*
G37*
X160556000Y-38034000D02*
X159540000Y-38034000D01*
X159540000Y-37018000D01*
X160556000Y-37018000D01*
X160556000Y-38034000D01*
G36*
X160556000Y-38034000D02*
G01*
X159540000Y-38034000D01*
X159540000Y-37018000D01*
X160556000Y-37018000D01*
X160556000Y-38034000D01*
G37*
X171732000Y-38034000D02*
X170716000Y-38034000D01*
X170716000Y-37018000D01*
X171732000Y-37018000D01*
X171732000Y-38034000D01*
G36*
X171732000Y-38034000D02*
G01*
X170716000Y-38034000D01*
X170716000Y-37018000D01*
X171732000Y-37018000D01*
X171732000Y-38034000D01*
G37*
X160556000Y-40574000D02*
X159540000Y-40574000D01*
X159540000Y-39558000D01*
X160556000Y-39558000D01*
X160556000Y-40574000D01*
G36*
X160556000Y-40574000D02*
G01*
X159540000Y-40574000D01*
X159540000Y-39558000D01*
X160556000Y-39558000D01*
X160556000Y-40574000D01*
G37*
X171732000Y-40574000D02*
X170716000Y-40574000D01*
X170716000Y-39558000D01*
X171732000Y-39558000D01*
X171732000Y-40574000D01*
G36*
X171732000Y-40574000D02*
G01*
X170716000Y-40574000D01*
X170716000Y-39558000D01*
X171732000Y-39558000D01*
X171732000Y-40574000D01*
G37*
X160556000Y-43114000D02*
X159540000Y-43114000D01*
X159540000Y-42098000D01*
X160556000Y-42098000D01*
X160556000Y-43114000D01*
G36*
X160556000Y-43114000D02*
G01*
X159540000Y-43114000D01*
X159540000Y-42098000D01*
X160556000Y-42098000D01*
X160556000Y-43114000D01*
G37*
X171732000Y-43114000D02*
X170716000Y-43114000D01*
X170716000Y-42098000D01*
X171732000Y-42098000D01*
X171732000Y-43114000D01*
G36*
X171732000Y-43114000D02*
G01*
X170716000Y-43114000D01*
X170716000Y-42098000D01*
X171732000Y-42098000D01*
X171732000Y-43114000D01*
G37*
X160556000Y-45654000D02*
X159540000Y-45654000D01*
X159540000Y-44638000D01*
X160556000Y-44638000D01*
X160556000Y-45654000D01*
G36*
X160556000Y-45654000D02*
G01*
X159540000Y-45654000D01*
X159540000Y-44638000D01*
X160556000Y-44638000D01*
X160556000Y-45654000D01*
G37*
X171732000Y-45654000D02*
X170716000Y-45654000D01*
X170716000Y-44638000D01*
X171732000Y-44638000D01*
X171732000Y-45654000D01*
G36*
X171732000Y-45654000D02*
G01*
X170716000Y-45654000D01*
X170716000Y-44638000D01*
X171732000Y-44638000D01*
X171732000Y-45654000D01*
G37*
X160556000Y-48194000D02*
X159540000Y-48194000D01*
X159540000Y-47178000D01*
X160556000Y-47178000D01*
X160556000Y-48194000D01*
G36*
X160556000Y-48194000D02*
G01*
X159540000Y-48194000D01*
X159540000Y-47178000D01*
X160556000Y-47178000D01*
X160556000Y-48194000D01*
G37*
X171732000Y-48194000D02*
X170716000Y-48194000D01*
X170716000Y-47178000D01*
X171732000Y-47178000D01*
X171732000Y-48194000D01*
G36*
X171732000Y-48194000D02*
G01*
X170716000Y-48194000D01*
X170716000Y-47178000D01*
X171732000Y-47178000D01*
X171732000Y-48194000D01*
G37*
X160556000Y-50734000D02*
X159540000Y-50734000D01*
X159540000Y-49718000D01*
X160556000Y-49718000D01*
X160556000Y-50734000D01*
G36*
X160556000Y-50734000D02*
G01*
X159540000Y-50734000D01*
X159540000Y-49718000D01*
X160556000Y-49718000D01*
X160556000Y-50734000D01*
G37*
X171732000Y-50734000D02*
X170716000Y-50734000D01*
X170716000Y-49718000D01*
X171732000Y-49718000D01*
X171732000Y-50734000D01*
G36*
X171732000Y-50734000D02*
G01*
X170716000Y-50734000D01*
X170716000Y-49718000D01*
X171732000Y-49718000D01*
X171732000Y-50734000D01*
G37*
D12*
X173390000Y-83460000D03*
X173390000Y-78460000D03*
X173390000Y-80960000D03*
D13*
X165890000Y-86560000D03*
X165890000Y-75360000D03*
D12*
X158890000Y-78460000D03*
X158890000Y-83460000D03*
D14*
X152800000Y-53600000D03*
D15*
X173330000Y-68147000D03*
X166330000Y-68147000D03*
X173330000Y-69897000D03*
X166330000Y-69897000D03*
D16*
X164530000Y-71997000D03*
X168530000Y-71997000D03*
X171530000Y-71997000D03*
X163530000Y-67797000D03*
D17*
X158199240Y-66800000D03*
X159200000Y-66800000D03*
D18*
X146800000Y-35400000D03*
X87600000Y-25000000D03*
D19*
X160556000Y-53766000D03*
D20*
X163096000Y-53766000D03*
X165636000Y-53766000D03*
X168176000Y-53766000D03*
X170716000Y-53766000D03*
D21*
X174800000Y-61632000D03*
X174800000Y-58632000D03*
D22*
X172700000Y-59309000D03*
D23*
X173675000Y-63932000D03*
D24*
X175925000Y-63882000D03*
X175925000Y-56382000D03*
D23*
X173675000Y-56332000D03*
D22*
X172700000Y-57809000D03*
X172700000Y-62309000D03*
D18*
X49000000Y-25000000D03*
D17*
X159200760Y-69000000D03*
X158200000Y-69000000D03*
D25*
X168050500Y-58632000D03*
X168050500Y-60632000D03*
D18*
X126200000Y-25000000D03*
D14*
X157200000Y-63600000D03*
D26*
X173256000Y-22286000D03*
D27*
X171478000Y-22286000D03*
D28*
X159794000Y-22286000D03*
D26*
X158016000Y-22286000D03*
D29*
X158016000Y-22286000D03*
D26*
X173256000Y-24826000D03*
D27*
X171478000Y-24826000D03*
D28*
X159794000Y-24826000D03*
D26*
X158016000Y-24826000D03*
X173256000Y-27366000D03*
D27*
X171478000Y-27366000D03*
D28*
X159794000Y-27366000D03*
D26*
X158016000Y-27366000D03*
X173256000Y-29906000D03*
D27*
X171478000Y-29906000D03*
D28*
X159794000Y-29906000D03*
D26*
X158016000Y-29906000D03*
X173256000Y-32446000D03*
D27*
X171478000Y-32446000D03*
D28*
X159794000Y-32446000D03*
D26*
X158016000Y-32446000D03*
X173256000Y-34986000D03*
D27*
X171478000Y-34986000D03*
D28*
X159794000Y-34986000D03*
D26*
X158016000Y-34986000D03*
X173256000Y-37526000D03*
D27*
X171478000Y-37526000D03*
D28*
X159794000Y-37526000D03*
D26*
X158016000Y-37526000D03*
X173256000Y-40066000D03*
D27*
X171478000Y-40066000D03*
D28*
X159794000Y-40066000D03*
D26*
X158016000Y-40066000D03*
X173256000Y-42606000D03*
D27*
X171478000Y-42606000D03*
D28*
X159794000Y-42606000D03*
D26*
X158016000Y-42606000D03*
X173256000Y-45146000D03*
D27*
X171478000Y-45146000D03*
D28*
X159794000Y-45146000D03*
D26*
X158016000Y-45146000D03*
X173256000Y-47686000D03*
D27*
X171478000Y-47686000D03*
D28*
X159794000Y-47686000D03*
D26*
X158016000Y-47686000D03*
X173256000Y-50226000D03*
D27*
X171478000Y-50226000D03*
D28*
X159794000Y-50226000D03*
D26*
X158016000Y-50226000D03*
D30*
X170462000Y-22286000D03*
X170462000Y-24826000D03*
X170462000Y-27366000D03*
X170462000Y-29906000D03*
X170462000Y-32446000D03*
X170462000Y-34986000D03*
X170462000Y-37526000D03*
X170462000Y-40066000D03*
X170462000Y-42606000D03*
X170462000Y-45146000D03*
X170462000Y-47686000D03*
X170462000Y-50226000D03*
D31*
X160810000Y-50226000D03*
X160810000Y-47686000D03*
X160810000Y-45146000D03*
X160810000Y-42606000D03*
X160810000Y-40066000D03*
X160810000Y-37526000D03*
X160810000Y-34986000D03*
X160810000Y-32446000D03*
X160810000Y-29906000D03*
X160810000Y-27366000D03*
X160810000Y-24826000D03*
X160810000Y-22286000D03*
D18*
X153600000Y-87800000D03*
D32*
X153698000Y-80072000D03*
X153698000Y-83372000D03*
D17*
X160200000Y-71200000D03*
X159199240Y-71200000D03*
D33*
X42001900Y-33249300D03*
X42001900Y-31750700D03*
X36998100Y-31750700D03*
X36998100Y-33249300D03*
X138501900Y-33249300D03*
X138501900Y-31750700D03*
X133498100Y-31750700D03*
X133498100Y-33249300D03*
X99901900Y-33249300D03*
X99901900Y-31750700D03*
X94898100Y-31750700D03*
X94898100Y-33249300D03*
X80601900Y-33249300D03*
X80601900Y-31750700D03*
X75598100Y-31750700D03*
X75598100Y-33249300D03*
D34*
X150650000Y-24449500D03*
X150650000Y-21649500D03*
D33*
X119201900Y-33249300D03*
X119201900Y-31750700D03*
X114198100Y-31750700D03*
X114198100Y-33249300D03*
X61301900Y-33249300D03*
X61301900Y-31750700D03*
X56298100Y-31750700D03*
X56298100Y-33249300D03*
M02*
