%TF.GenerationSoftware,KiCad,Pcbnew,7.0.6-7.0.6~ubuntu20.04.1*%
%TF.CreationDate,2023-10-06T02:12:36+00:00*%
%TF.ProjectId,Seismos_CoreL,53656973-6d6f-4735-9f43-6f72654c2e6b,rev?*%
%TF.SameCoordinates,Original*%
%TF.FileFunction,Drillmap*%
%TF.FilePolarity,Positive*%
%FSLAX45Y45*%
G04 Gerber Fmt 4.5, Leading zero omitted, Abs format (unit mm)*
G04 Created by KiCad (PCBNEW 7.0.6-7.0.6~ubuntu20.04.1) date 2023-10-06 02:12:36*
%MOMM*%
%LPD*%
G01*
G04 APERTURE LIST*
%ADD10C,0.100000*%
%ADD11C,0.200000*%
%ADD12C,0.010000*%
%ADD13C,0.040000*%
%ADD14C,0.090000*%
%ADD15C,0.110000*%
%ADD16C,0.150000*%
G04 APERTURE END LIST*
D10*
X15113400Y-9160000D02*
X17550000Y-9160000D01*
X17700000Y-2150000D02*
G75*
G03*
X17550000Y-2000000I-150000J0D01*
G01*
X14963400Y-4281000D02*
X14963400Y-9010000D01*
X14963400Y-9010000D02*
G75*
G03*
X15113400Y-9160000I150000J0D01*
G01*
X3150000Y-3900000D02*
X14582400Y-3900000D01*
X3000000Y-3750000D02*
G75*
G03*
X3150000Y-3900000I150000J0D01*
G01*
X3150000Y-2000000D02*
G75*
G03*
X3000000Y-2150000I0J-150000D01*
G01*
X17700000Y-2150000D02*
X17700000Y-9010000D01*
X17550000Y-9160000D02*
G75*
G03*
X17700000Y-9010000I0J150000D01*
G01*
X14963400Y-4281000D02*
G75*
G03*
X14582400Y-3900000I-381000J0D01*
G01*
X17550000Y-2000000D02*
X3150000Y-2000000D01*
X3000000Y-2150000D02*
X3000000Y-3750000D01*
D11*
D12*
X3645000Y-2124000D02*
X3655000Y-2134000D01*
X3655000Y-2124000D02*
X3645000Y-2134000D01*
X3745000Y-2171650D02*
X3755000Y-2181650D01*
X3755000Y-2171650D02*
X3745000Y-2181650D01*
X3845000Y-2219300D02*
X3855000Y-2229300D01*
X3855000Y-2219300D02*
X3845000Y-2229300D01*
X3945000Y-2266950D02*
X3955000Y-2276950D01*
X3955000Y-2266950D02*
X3945000Y-2276950D01*
X4145000Y-2670000D02*
X4155000Y-2680000D01*
X4155000Y-2670000D02*
X4145000Y-2680000D01*
X5575000Y-2124000D02*
X5585000Y-2134000D01*
X5585000Y-2124000D02*
X5575000Y-2134000D01*
X5675000Y-2171650D02*
X5685000Y-2181650D01*
X5685000Y-2171650D02*
X5675000Y-2181650D01*
X5775000Y-2219300D02*
X5785000Y-2229300D01*
X5785000Y-2219300D02*
X5775000Y-2229300D01*
X5875000Y-2266950D02*
X5885000Y-2276950D01*
X5885000Y-2266950D02*
X5875000Y-2276950D01*
X6075000Y-2670000D02*
X6085000Y-2680000D01*
X6085000Y-2670000D02*
X6075000Y-2680000D01*
X7505000Y-2124000D02*
X7515000Y-2134000D01*
X7515000Y-2124000D02*
X7505000Y-2134000D01*
X7605000Y-2171650D02*
X7615000Y-2181650D01*
X7615000Y-2171650D02*
X7605000Y-2181650D01*
X7705000Y-2219300D02*
X7715000Y-2229300D01*
X7715000Y-2219300D02*
X7705000Y-2229300D01*
X7805000Y-2266950D02*
X7815000Y-2276950D01*
X7815000Y-2266950D02*
X7805000Y-2276950D01*
X8005000Y-2670000D02*
X8015000Y-2680000D01*
X8015000Y-2670000D02*
X8005000Y-2680000D01*
X9435000Y-2124000D02*
X9445000Y-2134000D01*
X9445000Y-2124000D02*
X9435000Y-2134000D01*
X9535000Y-2171650D02*
X9545000Y-2181650D01*
X9545000Y-2171650D02*
X9535000Y-2181650D01*
X9635000Y-2219300D02*
X9645000Y-2229300D01*
X9645000Y-2219300D02*
X9635000Y-2229300D01*
X9735000Y-2266950D02*
X9745000Y-2276950D01*
X9745000Y-2266950D02*
X9735000Y-2276950D01*
X9935000Y-2670000D02*
X9945000Y-2680000D01*
X9945000Y-2670000D02*
X9935000Y-2680000D01*
X11365000Y-2124000D02*
X11375000Y-2134000D01*
X11375000Y-2124000D02*
X11365000Y-2134000D01*
X11465000Y-2171650D02*
X11475000Y-2181650D01*
X11475000Y-2171650D02*
X11465000Y-2181650D01*
X11565000Y-2219300D02*
X11575000Y-2229300D01*
X11575000Y-2219300D02*
X11565000Y-2229300D01*
X11665000Y-2266950D02*
X11675000Y-2276950D01*
X11675000Y-2266950D02*
X11665000Y-2276950D01*
X11865000Y-2670000D02*
X11875000Y-2680000D01*
X11875000Y-2670000D02*
X11865000Y-2680000D01*
X13295000Y-2124000D02*
X13305000Y-2134000D01*
X13305000Y-2124000D02*
X13295000Y-2134000D01*
X13395000Y-2171650D02*
X13405000Y-2181650D01*
X13405000Y-2171650D02*
X13395000Y-2181650D01*
X13495000Y-2219300D02*
X13505000Y-2229300D01*
X13505000Y-2219300D02*
X13495000Y-2229300D01*
X13595000Y-2266950D02*
X13605000Y-2276950D01*
X13605000Y-2266950D02*
X13595000Y-2276950D01*
X13795000Y-2670000D02*
X13805000Y-2680000D01*
X13805000Y-2670000D02*
X13795000Y-2680000D01*
X16812600Y-5195400D02*
X16822600Y-5205400D01*
X16822600Y-5195400D02*
X16812600Y-5205400D01*
X17431306Y-5551306D02*
X17441306Y-5561306D01*
X17441306Y-5551306D02*
X17431306Y-5561306D01*
X17495000Y-5555000D02*
X17505000Y-5565000D01*
X17505000Y-5555000D02*
X17495000Y-5565000D01*
D13*
X3440190Y-3174930D02*
G75*
G03*
X3440190Y-3174930I-20000J0D01*
G01*
X3720000Y-3530000D02*
G75*
G03*
X3720000Y-3530000I-20000J0D01*
G01*
X4270000Y-3025000D02*
G75*
G03*
X4270000Y-3025000I-20000J0D01*
G01*
X4495000Y-3325000D02*
G75*
G03*
X4495000Y-3325000I-20000J0D01*
G01*
X5370190Y-3174930D02*
G75*
G03*
X5370190Y-3174930I-20000J0D01*
G01*
X5650000Y-3530000D02*
G75*
G03*
X5650000Y-3530000I-20000J0D01*
G01*
X6200000Y-3025000D02*
G75*
G03*
X6200000Y-3025000I-20000J0D01*
G01*
X6425000Y-3325000D02*
G75*
G03*
X6425000Y-3325000I-20000J0D01*
G01*
X7300190Y-3174930D02*
G75*
G03*
X7300190Y-3174930I-20000J0D01*
G01*
X7580000Y-3530000D02*
G75*
G03*
X7580000Y-3530000I-20000J0D01*
G01*
X8130000Y-3025000D02*
G75*
G03*
X8130000Y-3025000I-20000J0D01*
G01*
X8355000Y-3325000D02*
G75*
G03*
X8355000Y-3325000I-20000J0D01*
G01*
X9230190Y-3174930D02*
G75*
G03*
X9230190Y-3174930I-20000J0D01*
G01*
X9510000Y-3530000D02*
G75*
G03*
X9510000Y-3530000I-20000J0D01*
G01*
X10060000Y-3025000D02*
G75*
G03*
X10060000Y-3025000I-20000J0D01*
G01*
X10285000Y-3325000D02*
G75*
G03*
X10285000Y-3325000I-20000J0D01*
G01*
X11160190Y-3174930D02*
G75*
G03*
X11160190Y-3174930I-20000J0D01*
G01*
X11440000Y-3530000D02*
G75*
G03*
X11440000Y-3530000I-20000J0D01*
G01*
X11990000Y-3025000D02*
G75*
G03*
X11990000Y-3025000I-20000J0D01*
G01*
X12215000Y-3325000D02*
G75*
G03*
X12215000Y-3325000I-20000J0D01*
G01*
X13090190Y-3174930D02*
G75*
G03*
X13090190Y-3174930I-20000J0D01*
G01*
X13370000Y-3530000D02*
G75*
G03*
X13370000Y-3530000I-20000J0D01*
G01*
X14145000Y-3325000D02*
G75*
G03*
X14145000Y-3325000I-20000J0D01*
G01*
X14348400Y-2650350D02*
G75*
G03*
X14348400Y-2650350I-20000J0D01*
G01*
X14448350Y-2650350D02*
G75*
G03*
X14448350Y-2650350I-20000J0D01*
G01*
X14548301Y-2650350D02*
G75*
G03*
X14548301Y-2650350I-20000J0D01*
G01*
X14602400Y-2279400D02*
G75*
G03*
X14602400Y-2279400I-20000J0D01*
G01*
X14648251Y-2650350D02*
G75*
G03*
X14648251Y-2650350I-20000J0D01*
G01*
X14831000Y-2650350D02*
G75*
G03*
X14831000Y-2650350I-20000J0D01*
G01*
X15072871Y-3129729D02*
G75*
G03*
X15072871Y-3129729I-20000J0D01*
G01*
X15161771Y-3218629D02*
G75*
G03*
X15161771Y-3218629I-20000J0D01*
G01*
X15389800Y-6597400D02*
G75*
G03*
X15389800Y-6597400I-20000J0D01*
G01*
X17347647Y-5367647D02*
G75*
G03*
X17347647Y-5367647I-20000J0D01*
G01*
X17350950Y-5252550D02*
G75*
G03*
X17350950Y-5252550I-20000J0D01*
G01*
X16487400Y-2208600D02*
X16487400Y-2248600D01*
X16467400Y-2228600D02*
X16507400Y-2228600D01*
X16487400Y-2462600D02*
X16487400Y-2502600D01*
X16467400Y-2482600D02*
X16507400Y-2482600D01*
X16487400Y-2716600D02*
X16487400Y-2756600D01*
X16467400Y-2736600D02*
X16507400Y-2736600D01*
X16487400Y-2970600D02*
X16487400Y-3010600D01*
X16467400Y-2990600D02*
X16507400Y-2990600D01*
X16487400Y-3224600D02*
X16487400Y-3264600D01*
X16467400Y-3244600D02*
X16507400Y-3244600D01*
X16487400Y-3478600D02*
X16487400Y-3518600D01*
X16467400Y-3498600D02*
X16507400Y-3498600D01*
X16487400Y-3732600D02*
X16487400Y-3772600D01*
X16467400Y-3752600D02*
X16507400Y-3752600D01*
X16487400Y-3986600D02*
X16487400Y-4026600D01*
X16467400Y-4006600D02*
X16507400Y-4006600D01*
X16487400Y-4240600D02*
X16487400Y-4280600D01*
X16467400Y-4260600D02*
X16507400Y-4260600D01*
X16487400Y-4494600D02*
X16487400Y-4534600D01*
X16467400Y-4514600D02*
X16507400Y-4514600D01*
X16487400Y-4748600D02*
X16487400Y-4788600D01*
X16467400Y-4768600D02*
X16507400Y-4768600D01*
X16487400Y-5002600D02*
X16487400Y-5042600D01*
X16467400Y-5022600D02*
X16507400Y-5022600D01*
X16639800Y-2208600D02*
X16639800Y-2248600D01*
X16619800Y-2228600D02*
X16659800Y-2228600D01*
X16639800Y-2462600D02*
X16639800Y-2502600D01*
X16619800Y-2482600D02*
X16659800Y-2482600D01*
X16639800Y-2716600D02*
X16639800Y-2756600D01*
X16619800Y-2736600D02*
X16659800Y-2736600D01*
X16639800Y-2970600D02*
X16639800Y-3010600D01*
X16619800Y-2990600D02*
X16659800Y-2990600D01*
X16639800Y-3224600D02*
X16639800Y-3264600D01*
X16619800Y-3244600D02*
X16659800Y-3244600D01*
X16639800Y-3478600D02*
X16639800Y-3518600D01*
X16619800Y-3498600D02*
X16659800Y-3498600D01*
X16639800Y-3732600D02*
X16639800Y-3772600D01*
X16619800Y-3752600D02*
X16659800Y-3752600D01*
X16639800Y-3986600D02*
X16639800Y-4026600D01*
X16619800Y-4006600D02*
X16659800Y-4006600D01*
X16639800Y-4240600D02*
X16639800Y-4280600D01*
X16619800Y-4260600D02*
X16659800Y-4260600D01*
X16639800Y-4494600D02*
X16639800Y-4534600D01*
X16619800Y-4514600D02*
X16659800Y-4514600D01*
X16639800Y-4748600D02*
X16639800Y-4788600D01*
X16619800Y-4768600D02*
X16659800Y-4768600D01*
X16639800Y-5002600D02*
X16639800Y-5042600D01*
X16619800Y-5022600D02*
X16659800Y-5022600D01*
D14*
X16836870Y-5895020D02*
X16836870Y-5831380D01*
X16773230Y-5831380D01*
X16773230Y-5895020D01*
X16836870Y-5895020D01*
X16836870Y-6095020D02*
X16836870Y-6031380D01*
X16773230Y-6031380D01*
X16773230Y-6095020D01*
X16836870Y-6095020D01*
D10*
X15889000Y-7896000D02*
X15939000Y-7846000D01*
X15889000Y-7796000D01*
X15839000Y-7846000D01*
X15889000Y-7896000D01*
X15889000Y-8396000D02*
X15939000Y-8346000D01*
X15889000Y-8296000D01*
X15839000Y-8346000D01*
X15889000Y-8396000D01*
X16055600Y-5426600D02*
X16105600Y-5376600D01*
X16055600Y-5326600D01*
X16005600Y-5376600D01*
X16055600Y-5426600D01*
X16309600Y-5426600D02*
X16359600Y-5376600D01*
X16309600Y-5326600D01*
X16259600Y-5376600D01*
X16309600Y-5426600D01*
X16353000Y-6829700D02*
X16403000Y-6779700D01*
X16353000Y-6729700D01*
X16303000Y-6779700D01*
X16353000Y-6829700D01*
D11*
X16378000Y-6729700D02*
X16328000Y-6729700D01*
X16328000Y-6729700D02*
G75*
G03*
X16328000Y-6829700I0J-50000D01*
G01*
X16328000Y-6829700D02*
X16378000Y-6829700D01*
X16378000Y-6829700D02*
G75*
G03*
X16378000Y-6729700I0J50000D01*
G01*
D10*
X16453000Y-7249700D02*
X16503000Y-7199700D01*
X16453000Y-7149700D01*
X16403000Y-7199700D01*
X16453000Y-7249700D01*
D11*
X16478000Y-7149700D02*
X16428000Y-7149700D01*
X16428000Y-7149700D02*
G75*
G03*
X16428000Y-7249700I0J-50000D01*
G01*
X16428000Y-7249700D02*
X16478000Y-7249700D01*
X16478000Y-7249700D02*
G75*
G03*
X16478000Y-7149700I0J50000D01*
G01*
D10*
X16563600Y-5426600D02*
X16613600Y-5376600D01*
X16563600Y-5326600D01*
X16513600Y-5376600D01*
X16563600Y-5426600D01*
X16817600Y-5426600D02*
X16867600Y-5376600D01*
X16817600Y-5326600D01*
X16767600Y-5376600D01*
X16817600Y-5426600D01*
X16853000Y-7249700D02*
X16903000Y-7199700D01*
X16853000Y-7149700D01*
X16803000Y-7199700D01*
X16853000Y-7249700D01*
D11*
X16878000Y-7149700D02*
X16828000Y-7149700D01*
X16828000Y-7149700D02*
G75*
G03*
X16828000Y-7249700I0J-50000D01*
G01*
X16828000Y-7249700D02*
X16878000Y-7249700D01*
X16878000Y-7249700D02*
G75*
G03*
X16878000Y-7149700I0J50000D01*
G01*
D10*
X17071600Y-5426600D02*
X17121600Y-5376600D01*
X17071600Y-5326600D01*
X17021600Y-5376600D01*
X17071600Y-5426600D01*
X17153000Y-7249700D02*
X17203000Y-7199700D01*
X17153000Y-7149700D01*
X17103000Y-7199700D01*
X17153000Y-7249700D01*
D11*
X17178000Y-7149700D02*
X17128000Y-7149700D01*
X17128000Y-7149700D02*
G75*
G03*
X17128000Y-7249700I0J-50000D01*
G01*
X17128000Y-7249700D02*
X17178000Y-7249700D01*
X17178000Y-7249700D02*
G75*
G03*
X17178000Y-7149700I0J50000D01*
G01*
D10*
X17339000Y-7896000D02*
X17389000Y-7846000D01*
X17339000Y-7796000D01*
X17289000Y-7846000D01*
X17339000Y-7896000D01*
X17339000Y-8146000D02*
X17389000Y-8096000D01*
X17339000Y-8046000D01*
X17289000Y-8096000D01*
X17339000Y-8146000D01*
X17339000Y-8396000D02*
X17389000Y-8346000D01*
X17339000Y-8296000D01*
X17289000Y-8346000D01*
X17339000Y-8396000D01*
D15*
X15746600Y-2173600D02*
X15856600Y-2283600D01*
X15856600Y-2173600D02*
X15746600Y-2283600D01*
X15856600Y-2228600D02*
G75*
G03*
X15856600Y-2228600I-55000J0D01*
G01*
X15746600Y-2173600D02*
X15856600Y-2283600D01*
X15856600Y-2173600D02*
X15746600Y-2283600D01*
X15856600Y-2228600D02*
G75*
G03*
X15856600Y-2228600I-55000J0D01*
G01*
X15746600Y-2427600D02*
X15856600Y-2537600D01*
X15856600Y-2427600D02*
X15746600Y-2537600D01*
X15856600Y-2482600D02*
G75*
G03*
X15856600Y-2482600I-55000J0D01*
G01*
X15746600Y-2681600D02*
X15856600Y-2791600D01*
X15856600Y-2681600D02*
X15746600Y-2791600D01*
X15856600Y-2736600D02*
G75*
G03*
X15856600Y-2736600I-55000J0D01*
G01*
X15746600Y-2935600D02*
X15856600Y-3045600D01*
X15856600Y-2935600D02*
X15746600Y-3045600D01*
X15856600Y-2990600D02*
G75*
G03*
X15856600Y-2990600I-55000J0D01*
G01*
X15746600Y-3189600D02*
X15856600Y-3299600D01*
X15856600Y-3189600D02*
X15746600Y-3299600D01*
X15856600Y-3244600D02*
G75*
G03*
X15856600Y-3244600I-55000J0D01*
G01*
X15746600Y-3443600D02*
X15856600Y-3553600D01*
X15856600Y-3443600D02*
X15746600Y-3553600D01*
X15856600Y-3498600D02*
G75*
G03*
X15856600Y-3498600I-55000J0D01*
G01*
X15746600Y-3697600D02*
X15856600Y-3807600D01*
X15856600Y-3697600D02*
X15746600Y-3807600D01*
X15856600Y-3752600D02*
G75*
G03*
X15856600Y-3752600I-55000J0D01*
G01*
X15746600Y-3951600D02*
X15856600Y-4061600D01*
X15856600Y-3951600D02*
X15746600Y-4061600D01*
X15856600Y-4006600D02*
G75*
G03*
X15856600Y-4006600I-55000J0D01*
G01*
X15746600Y-4205600D02*
X15856600Y-4315600D01*
X15856600Y-4205600D02*
X15746600Y-4315600D01*
X15856600Y-4260600D02*
G75*
G03*
X15856600Y-4260600I-55000J0D01*
G01*
X15746600Y-4459600D02*
X15856600Y-4569600D01*
X15856600Y-4459600D02*
X15746600Y-4569600D01*
X15856600Y-4514600D02*
G75*
G03*
X15856600Y-4514600I-55000J0D01*
G01*
X15746600Y-4713600D02*
X15856600Y-4823600D01*
X15856600Y-4713600D02*
X15746600Y-4823600D01*
X15856600Y-4768600D02*
G75*
G03*
X15856600Y-4768600I-55000J0D01*
G01*
X15746600Y-4967600D02*
X15856600Y-5077600D01*
X15856600Y-4967600D02*
X15746600Y-5077600D01*
X15856600Y-5022600D02*
G75*
G03*
X15856600Y-5022600I-55000J0D01*
G01*
X17270600Y-2173600D02*
X17380600Y-2283600D01*
X17380600Y-2173600D02*
X17270600Y-2283600D01*
X17380600Y-2228600D02*
G75*
G03*
X17380600Y-2228600I-55000J0D01*
G01*
X17270600Y-2173600D02*
X17380600Y-2283600D01*
X17380600Y-2173600D02*
X17270600Y-2283600D01*
X17380600Y-2228600D02*
G75*
G03*
X17380600Y-2228600I-55000J0D01*
G01*
X17270600Y-2427600D02*
X17380600Y-2537600D01*
X17380600Y-2427600D02*
X17270600Y-2537600D01*
X17380600Y-2482600D02*
G75*
G03*
X17380600Y-2482600I-55000J0D01*
G01*
X17270600Y-2681600D02*
X17380600Y-2791600D01*
X17380600Y-2681600D02*
X17270600Y-2791600D01*
X17380600Y-2736600D02*
G75*
G03*
X17380600Y-2736600I-55000J0D01*
G01*
X17270600Y-2935600D02*
X17380600Y-3045600D01*
X17380600Y-2935600D02*
X17270600Y-3045600D01*
X17380600Y-2990600D02*
G75*
G03*
X17380600Y-2990600I-55000J0D01*
G01*
X17270600Y-3189600D02*
X17380600Y-3299600D01*
X17380600Y-3189600D02*
X17270600Y-3299600D01*
X17380600Y-3244600D02*
G75*
G03*
X17380600Y-3244600I-55000J0D01*
G01*
X17270600Y-3443600D02*
X17380600Y-3553600D01*
X17380600Y-3443600D02*
X17270600Y-3553600D01*
X17380600Y-3498600D02*
G75*
G03*
X17380600Y-3498600I-55000J0D01*
G01*
X17270600Y-3697600D02*
X17380600Y-3807600D01*
X17380600Y-3697600D02*
X17270600Y-3807600D01*
X17380600Y-3752600D02*
G75*
G03*
X17380600Y-3752600I-55000J0D01*
G01*
X17270600Y-3951600D02*
X17380600Y-4061600D01*
X17380600Y-3951600D02*
X17270600Y-4061600D01*
X17380600Y-4006600D02*
G75*
G03*
X17380600Y-4006600I-55000J0D01*
G01*
X17270600Y-4205600D02*
X17380600Y-4315600D01*
X17380600Y-4205600D02*
X17270600Y-4315600D01*
X17380600Y-4260600D02*
G75*
G03*
X17380600Y-4260600I-55000J0D01*
G01*
X17270600Y-4459600D02*
X17380600Y-4569600D01*
X17380600Y-4459600D02*
X17270600Y-4569600D01*
X17380600Y-4514600D02*
G75*
G03*
X17380600Y-4514600I-55000J0D01*
G01*
X17270600Y-4713600D02*
X17380600Y-4823600D01*
X17380600Y-4713600D02*
X17270600Y-4823600D01*
X17380600Y-4768600D02*
G75*
G03*
X17380600Y-4768600I-55000J0D01*
G01*
X17270600Y-4967600D02*
X17380600Y-5077600D01*
X17380600Y-4967600D02*
X17270600Y-5077600D01*
X17380600Y-5022600D02*
G75*
G03*
X17380600Y-5022600I-55000J0D01*
G01*
D16*
X16514000Y-7461000D02*
X16664000Y-7611000D01*
X16664000Y-7461000D02*
X16514000Y-7611000D01*
X16589000Y-7461000D02*
X16589000Y-7611000D01*
X16514000Y-7536000D02*
X16664000Y-7536000D01*
D11*
X16654000Y-7461000D02*
X16524000Y-7461000D01*
X16524000Y-7461000D02*
G75*
G03*
X16524000Y-7611000I0J-75000D01*
G01*
X16524000Y-7611000D02*
X16654000Y-7611000D01*
X16654000Y-7611000D02*
G75*
G03*
X16654000Y-7461000I0J75000D01*
G01*
D16*
X16514000Y-8581000D02*
X16664000Y-8731000D01*
X16664000Y-8581000D02*
X16514000Y-8731000D01*
X16589000Y-8581000D02*
X16589000Y-8731000D01*
X16514000Y-8656000D02*
X16664000Y-8656000D01*
D11*
X16654000Y-8581000D02*
X16524000Y-8581000D01*
X16524000Y-8581000D02*
G75*
G03*
X16524000Y-8731000I0J-75000D01*
G01*
X16524000Y-8731000D02*
X16654000Y-8731000D01*
X16654000Y-8731000D02*
G75*
G03*
X16654000Y-8581000I0J75000D01*
G01*
X3255777Y-9476484D02*
X3255777Y-9276484D01*
X3255777Y-9276484D02*
X3303396Y-9276484D01*
X3303396Y-9276484D02*
X3331967Y-9286008D01*
X3331967Y-9286008D02*
X3351015Y-9305055D01*
X3351015Y-9305055D02*
X3360539Y-9324103D01*
X3360539Y-9324103D02*
X3370062Y-9362198D01*
X3370062Y-9362198D02*
X3370062Y-9390770D01*
X3370062Y-9390770D02*
X3360539Y-9428865D01*
X3360539Y-9428865D02*
X3351015Y-9447912D01*
X3351015Y-9447912D02*
X3331967Y-9466960D01*
X3331967Y-9466960D02*
X3303396Y-9476484D01*
X3303396Y-9476484D02*
X3255777Y-9476484D01*
X3455777Y-9476484D02*
X3455777Y-9343150D01*
X3455777Y-9381246D02*
X3465301Y-9362198D01*
X3465301Y-9362198D02*
X3474824Y-9352674D01*
X3474824Y-9352674D02*
X3493872Y-9343150D01*
X3493872Y-9343150D02*
X3512920Y-9343150D01*
X3579586Y-9476484D02*
X3579586Y-9343150D01*
X3579586Y-9276484D02*
X3570062Y-9286008D01*
X3570062Y-9286008D02*
X3579586Y-9295531D01*
X3579586Y-9295531D02*
X3589110Y-9286008D01*
X3589110Y-9286008D02*
X3579586Y-9276484D01*
X3579586Y-9276484D02*
X3579586Y-9295531D01*
X3703396Y-9476484D02*
X3684348Y-9466960D01*
X3684348Y-9466960D02*
X3674824Y-9447912D01*
X3674824Y-9447912D02*
X3674824Y-9276484D01*
X3808158Y-9476484D02*
X3789110Y-9466960D01*
X3789110Y-9466960D02*
X3779586Y-9447912D01*
X3779586Y-9447912D02*
X3779586Y-9276484D01*
X4036729Y-9476484D02*
X4036729Y-9276484D01*
X4036729Y-9276484D02*
X4103396Y-9419341D01*
X4103396Y-9419341D02*
X4170062Y-9276484D01*
X4170062Y-9276484D02*
X4170062Y-9476484D01*
X4351015Y-9476484D02*
X4351015Y-9371722D01*
X4351015Y-9371722D02*
X4341491Y-9352674D01*
X4341491Y-9352674D02*
X4322444Y-9343150D01*
X4322444Y-9343150D02*
X4284348Y-9343150D01*
X4284348Y-9343150D02*
X4265301Y-9352674D01*
X4351015Y-9466960D02*
X4331967Y-9476484D01*
X4331967Y-9476484D02*
X4284348Y-9476484D01*
X4284348Y-9476484D02*
X4265301Y-9466960D01*
X4265301Y-9466960D02*
X4255777Y-9447912D01*
X4255777Y-9447912D02*
X4255777Y-9428865D01*
X4255777Y-9428865D02*
X4265301Y-9409817D01*
X4265301Y-9409817D02*
X4284348Y-9400293D01*
X4284348Y-9400293D02*
X4331967Y-9400293D01*
X4331967Y-9400293D02*
X4351015Y-9390770D01*
X4446253Y-9343150D02*
X4446253Y-9543150D01*
X4446253Y-9352674D02*
X4465301Y-9343150D01*
X4465301Y-9343150D02*
X4503396Y-9343150D01*
X4503396Y-9343150D02*
X4522444Y-9352674D01*
X4522444Y-9352674D02*
X4531967Y-9362198D01*
X4531967Y-9362198D02*
X4541491Y-9381246D01*
X4541491Y-9381246D02*
X4541491Y-9438389D01*
X4541491Y-9438389D02*
X4531967Y-9457436D01*
X4531967Y-9457436D02*
X4522444Y-9466960D01*
X4522444Y-9466960D02*
X4503396Y-9476484D01*
X4503396Y-9476484D02*
X4465301Y-9476484D01*
X4465301Y-9476484D02*
X4446253Y-9466960D01*
X4627205Y-9457436D02*
X4636729Y-9466960D01*
X4636729Y-9466960D02*
X4627205Y-9476484D01*
X4627205Y-9476484D02*
X4617682Y-9466960D01*
X4617682Y-9466960D02*
X4627205Y-9457436D01*
X4627205Y-9457436D02*
X4627205Y-9476484D01*
X4627205Y-9352674D02*
X4636729Y-9362198D01*
X4636729Y-9362198D02*
X4627205Y-9371722D01*
X4627205Y-9371722D02*
X4617682Y-9362198D01*
X4617682Y-9362198D02*
X4627205Y-9352674D01*
X4627205Y-9352674D02*
X4627205Y-9371722D01*
D12*
X2985000Y-9800000D02*
X2995000Y-9810000D01*
X2995000Y-9800000D02*
X2985000Y-9810000D01*
D11*
X3293872Y-9696484D02*
X3312920Y-9696484D01*
X3312920Y-9696484D02*
X3331967Y-9706008D01*
X3331967Y-9706008D02*
X3341491Y-9715531D01*
X3341491Y-9715531D02*
X3351015Y-9734579D01*
X3351015Y-9734579D02*
X3360539Y-9772674D01*
X3360539Y-9772674D02*
X3360539Y-9820293D01*
X3360539Y-9820293D02*
X3351015Y-9858389D01*
X3351015Y-9858389D02*
X3341491Y-9877436D01*
X3341491Y-9877436D02*
X3331967Y-9886960D01*
X3331967Y-9886960D02*
X3312920Y-9896484D01*
X3312920Y-9896484D02*
X3293872Y-9896484D01*
X3293872Y-9896484D02*
X3274824Y-9886960D01*
X3274824Y-9886960D02*
X3265301Y-9877436D01*
X3265301Y-9877436D02*
X3255777Y-9858389D01*
X3255777Y-9858389D02*
X3246253Y-9820293D01*
X3246253Y-9820293D02*
X3246253Y-9772674D01*
X3246253Y-9772674D02*
X3255777Y-9734579D01*
X3255777Y-9734579D02*
X3265301Y-9715531D01*
X3265301Y-9715531D02*
X3274824Y-9706008D01*
X3274824Y-9706008D02*
X3293872Y-9696484D01*
X3446253Y-9877436D02*
X3455777Y-9886960D01*
X3455777Y-9886960D02*
X3446253Y-9896484D01*
X3446253Y-9896484D02*
X3436729Y-9886960D01*
X3436729Y-9886960D02*
X3446253Y-9877436D01*
X3446253Y-9877436D02*
X3446253Y-9896484D01*
X3646253Y-9896484D02*
X3531967Y-9896484D01*
X3589110Y-9896484D02*
X3589110Y-9696484D01*
X3589110Y-9696484D02*
X3570062Y-9725055D01*
X3570062Y-9725055D02*
X3551015Y-9744103D01*
X3551015Y-9744103D02*
X3531967Y-9753627D01*
X3770062Y-9696484D02*
X3789110Y-9696484D01*
X3789110Y-9696484D02*
X3808158Y-9706008D01*
X3808158Y-9706008D02*
X3817682Y-9715531D01*
X3817682Y-9715531D02*
X3827205Y-9734579D01*
X3827205Y-9734579D02*
X3836729Y-9772674D01*
X3836729Y-9772674D02*
X3836729Y-9820293D01*
X3836729Y-9820293D02*
X3827205Y-9858389D01*
X3827205Y-9858389D02*
X3817682Y-9877436D01*
X3817682Y-9877436D02*
X3808158Y-9886960D01*
X3808158Y-9886960D02*
X3789110Y-9896484D01*
X3789110Y-9896484D02*
X3770062Y-9896484D01*
X3770062Y-9896484D02*
X3751015Y-9886960D01*
X3751015Y-9886960D02*
X3741491Y-9877436D01*
X3741491Y-9877436D02*
X3731967Y-9858389D01*
X3731967Y-9858389D02*
X3722443Y-9820293D01*
X3722443Y-9820293D02*
X3722443Y-9772674D01*
X3722443Y-9772674D02*
X3731967Y-9734579D01*
X3731967Y-9734579D02*
X3741491Y-9715531D01*
X3741491Y-9715531D02*
X3751015Y-9706008D01*
X3751015Y-9706008D02*
X3770062Y-9696484D01*
X3960539Y-9696484D02*
X3979586Y-9696484D01*
X3979586Y-9696484D02*
X3998634Y-9706008D01*
X3998634Y-9706008D02*
X4008158Y-9715531D01*
X4008158Y-9715531D02*
X4017682Y-9734579D01*
X4017682Y-9734579D02*
X4027205Y-9772674D01*
X4027205Y-9772674D02*
X4027205Y-9820293D01*
X4027205Y-9820293D02*
X4017682Y-9858389D01*
X4017682Y-9858389D02*
X4008158Y-9877436D01*
X4008158Y-9877436D02*
X3998634Y-9886960D01*
X3998634Y-9886960D02*
X3979586Y-9896484D01*
X3979586Y-9896484D02*
X3960539Y-9896484D01*
X3960539Y-9896484D02*
X3941491Y-9886960D01*
X3941491Y-9886960D02*
X3931967Y-9877436D01*
X3931967Y-9877436D02*
X3922443Y-9858389D01*
X3922443Y-9858389D02*
X3912920Y-9820293D01*
X3912920Y-9820293D02*
X3912920Y-9772674D01*
X3912920Y-9772674D02*
X3922443Y-9734579D01*
X3922443Y-9734579D02*
X3931967Y-9715531D01*
X3931967Y-9715531D02*
X3941491Y-9706008D01*
X3941491Y-9706008D02*
X3960539Y-9696484D01*
X4112920Y-9896484D02*
X4112920Y-9763150D01*
X4112920Y-9782198D02*
X4122443Y-9772674D01*
X4122443Y-9772674D02*
X4141491Y-9763150D01*
X4141491Y-9763150D02*
X4170063Y-9763150D01*
X4170063Y-9763150D02*
X4189110Y-9772674D01*
X4189110Y-9772674D02*
X4198634Y-9791722D01*
X4198634Y-9791722D02*
X4198634Y-9896484D01*
X4198634Y-9791722D02*
X4208158Y-9772674D01*
X4208158Y-9772674D02*
X4227205Y-9763150D01*
X4227205Y-9763150D02*
X4255777Y-9763150D01*
X4255777Y-9763150D02*
X4274825Y-9772674D01*
X4274825Y-9772674D02*
X4284348Y-9791722D01*
X4284348Y-9791722D02*
X4284348Y-9896484D01*
X4379586Y-9896484D02*
X4379586Y-9763150D01*
X4379586Y-9782198D02*
X4389110Y-9772674D01*
X4389110Y-9772674D02*
X4408158Y-9763150D01*
X4408158Y-9763150D02*
X4436729Y-9763150D01*
X4436729Y-9763150D02*
X4455777Y-9772674D01*
X4455777Y-9772674D02*
X4465301Y-9791722D01*
X4465301Y-9791722D02*
X4465301Y-9896484D01*
X4465301Y-9791722D02*
X4474825Y-9772674D01*
X4474825Y-9772674D02*
X4493872Y-9763150D01*
X4493872Y-9763150D02*
X4522444Y-9763150D01*
X4522444Y-9763150D02*
X4541491Y-9772674D01*
X4541491Y-9772674D02*
X4551015Y-9791722D01*
X4551015Y-9791722D02*
X4551015Y-9896484D01*
X4941491Y-9686960D02*
X4770063Y-9944103D01*
X5198634Y-9696484D02*
X5217682Y-9696484D01*
X5217682Y-9696484D02*
X5236729Y-9706008D01*
X5236729Y-9706008D02*
X5246253Y-9715531D01*
X5246253Y-9715531D02*
X5255777Y-9734579D01*
X5255777Y-9734579D02*
X5265301Y-9772674D01*
X5265301Y-9772674D02*
X5265301Y-9820293D01*
X5265301Y-9820293D02*
X5255777Y-9858389D01*
X5255777Y-9858389D02*
X5246253Y-9877436D01*
X5246253Y-9877436D02*
X5236729Y-9886960D01*
X5236729Y-9886960D02*
X5217682Y-9896484D01*
X5217682Y-9896484D02*
X5198634Y-9896484D01*
X5198634Y-9896484D02*
X5179587Y-9886960D01*
X5179587Y-9886960D02*
X5170063Y-9877436D01*
X5170063Y-9877436D02*
X5160539Y-9858389D01*
X5160539Y-9858389D02*
X5151015Y-9820293D01*
X5151015Y-9820293D02*
X5151015Y-9772674D01*
X5151015Y-9772674D02*
X5160539Y-9734579D01*
X5160539Y-9734579D02*
X5170063Y-9715531D01*
X5170063Y-9715531D02*
X5179587Y-9706008D01*
X5179587Y-9706008D02*
X5198634Y-9696484D01*
X5351015Y-9877436D02*
X5360539Y-9886960D01*
X5360539Y-9886960D02*
X5351015Y-9896484D01*
X5351015Y-9896484D02*
X5341491Y-9886960D01*
X5341491Y-9886960D02*
X5351015Y-9877436D01*
X5351015Y-9877436D02*
X5351015Y-9896484D01*
X5484348Y-9696484D02*
X5503396Y-9696484D01*
X5503396Y-9696484D02*
X5522444Y-9706008D01*
X5522444Y-9706008D02*
X5531968Y-9715531D01*
X5531968Y-9715531D02*
X5541491Y-9734579D01*
X5541491Y-9734579D02*
X5551015Y-9772674D01*
X5551015Y-9772674D02*
X5551015Y-9820293D01*
X5551015Y-9820293D02*
X5541491Y-9858389D01*
X5541491Y-9858389D02*
X5531968Y-9877436D01*
X5531968Y-9877436D02*
X5522444Y-9886960D01*
X5522444Y-9886960D02*
X5503396Y-9896484D01*
X5503396Y-9896484D02*
X5484348Y-9896484D01*
X5484348Y-9896484D02*
X5465301Y-9886960D01*
X5465301Y-9886960D02*
X5455777Y-9877436D01*
X5455777Y-9877436D02*
X5446253Y-9858389D01*
X5446253Y-9858389D02*
X5436729Y-9820293D01*
X5436729Y-9820293D02*
X5436729Y-9772674D01*
X5436729Y-9772674D02*
X5446253Y-9734579D01*
X5446253Y-9734579D02*
X5455777Y-9715531D01*
X5455777Y-9715531D02*
X5465301Y-9706008D01*
X5465301Y-9706008D02*
X5484348Y-9696484D01*
X5674825Y-9696484D02*
X5693872Y-9696484D01*
X5693872Y-9696484D02*
X5712920Y-9706008D01*
X5712920Y-9706008D02*
X5722444Y-9715531D01*
X5722444Y-9715531D02*
X5731967Y-9734579D01*
X5731967Y-9734579D02*
X5741491Y-9772674D01*
X5741491Y-9772674D02*
X5741491Y-9820293D01*
X5741491Y-9820293D02*
X5731967Y-9858389D01*
X5731967Y-9858389D02*
X5722444Y-9877436D01*
X5722444Y-9877436D02*
X5712920Y-9886960D01*
X5712920Y-9886960D02*
X5693872Y-9896484D01*
X5693872Y-9896484D02*
X5674825Y-9896484D01*
X5674825Y-9896484D02*
X5655777Y-9886960D01*
X5655777Y-9886960D02*
X5646253Y-9877436D01*
X5646253Y-9877436D02*
X5636729Y-9858389D01*
X5636729Y-9858389D02*
X5627206Y-9820293D01*
X5627206Y-9820293D02*
X5627206Y-9772674D01*
X5627206Y-9772674D02*
X5636729Y-9734579D01*
X5636729Y-9734579D02*
X5646253Y-9715531D01*
X5646253Y-9715531D02*
X5655777Y-9706008D01*
X5655777Y-9706008D02*
X5674825Y-9696484D01*
X5808158Y-9696484D02*
X5931967Y-9696484D01*
X5931967Y-9696484D02*
X5865301Y-9772674D01*
X5865301Y-9772674D02*
X5893872Y-9772674D01*
X5893872Y-9772674D02*
X5912920Y-9782198D01*
X5912920Y-9782198D02*
X5922444Y-9791722D01*
X5922444Y-9791722D02*
X5931967Y-9810770D01*
X5931967Y-9810770D02*
X5931967Y-9858389D01*
X5931967Y-9858389D02*
X5922444Y-9877436D01*
X5922444Y-9877436D02*
X5912920Y-9886960D01*
X5912920Y-9886960D02*
X5893872Y-9896484D01*
X5893872Y-9896484D02*
X5836729Y-9896484D01*
X5836729Y-9896484D02*
X5817682Y-9886960D01*
X5817682Y-9886960D02*
X5808158Y-9877436D01*
X6027206Y-9896484D02*
X6065301Y-9896484D01*
X6065301Y-9896484D02*
X6084348Y-9886960D01*
X6084348Y-9886960D02*
X6093872Y-9877436D01*
X6093872Y-9877436D02*
X6112920Y-9848865D01*
X6112920Y-9848865D02*
X6122444Y-9810770D01*
X6122444Y-9810770D02*
X6122444Y-9734579D01*
X6122444Y-9734579D02*
X6112920Y-9715531D01*
X6112920Y-9715531D02*
X6103396Y-9706008D01*
X6103396Y-9706008D02*
X6084348Y-9696484D01*
X6084348Y-9696484D02*
X6046253Y-9696484D01*
X6046253Y-9696484D02*
X6027206Y-9706008D01*
X6027206Y-9706008D02*
X6017682Y-9715531D01*
X6017682Y-9715531D02*
X6008158Y-9734579D01*
X6008158Y-9734579D02*
X6008158Y-9782198D01*
X6008158Y-9782198D02*
X6017682Y-9801246D01*
X6017682Y-9801246D02*
X6027206Y-9810770D01*
X6027206Y-9810770D02*
X6046253Y-9820293D01*
X6046253Y-9820293D02*
X6084348Y-9820293D01*
X6084348Y-9820293D02*
X6103396Y-9810770D01*
X6103396Y-9810770D02*
X6112920Y-9801246D01*
X6112920Y-9801246D02*
X6122444Y-9782198D01*
X6198634Y-9696484D02*
X6198634Y-9734579D01*
X6274825Y-9696484D02*
X6274825Y-9734579D01*
X6570063Y-9972674D02*
X6560539Y-9963150D01*
X6560539Y-9963150D02*
X6541491Y-9934579D01*
X6541491Y-9934579D02*
X6531968Y-9915531D01*
X6531968Y-9915531D02*
X6522444Y-9886960D01*
X6522444Y-9886960D02*
X6512920Y-9839341D01*
X6512920Y-9839341D02*
X6512920Y-9801246D01*
X6512920Y-9801246D02*
X6522444Y-9753627D01*
X6522444Y-9753627D02*
X6531968Y-9725055D01*
X6531968Y-9725055D02*
X6541491Y-9706008D01*
X6541491Y-9706008D02*
X6560539Y-9677436D01*
X6560539Y-9677436D02*
X6570063Y-9667912D01*
X6627206Y-9696484D02*
X6751015Y-9696484D01*
X6751015Y-9696484D02*
X6684348Y-9772674D01*
X6684348Y-9772674D02*
X6712920Y-9772674D01*
X6712920Y-9772674D02*
X6731968Y-9782198D01*
X6731968Y-9782198D02*
X6741491Y-9791722D01*
X6741491Y-9791722D02*
X6751015Y-9810770D01*
X6751015Y-9810770D02*
X6751015Y-9858389D01*
X6751015Y-9858389D02*
X6741491Y-9877436D01*
X6741491Y-9877436D02*
X6731968Y-9886960D01*
X6731968Y-9886960D02*
X6712920Y-9896484D01*
X6712920Y-9896484D02*
X6655777Y-9896484D01*
X6655777Y-9896484D02*
X6636729Y-9886960D01*
X6636729Y-9886960D02*
X6627206Y-9877436D01*
X6817682Y-9696484D02*
X6941491Y-9696484D01*
X6941491Y-9696484D02*
X6874825Y-9772674D01*
X6874825Y-9772674D02*
X6903396Y-9772674D01*
X6903396Y-9772674D02*
X6922444Y-9782198D01*
X6922444Y-9782198D02*
X6931968Y-9791722D01*
X6931968Y-9791722D02*
X6941491Y-9810770D01*
X6941491Y-9810770D02*
X6941491Y-9858389D01*
X6941491Y-9858389D02*
X6931968Y-9877436D01*
X6931968Y-9877436D02*
X6922444Y-9886960D01*
X6922444Y-9886960D02*
X6903396Y-9896484D01*
X6903396Y-9896484D02*
X6846253Y-9896484D01*
X6846253Y-9896484D02*
X6827206Y-9886960D01*
X6827206Y-9886960D02*
X6817682Y-9877436D01*
X7179587Y-9896484D02*
X7179587Y-9696484D01*
X7265301Y-9896484D02*
X7265301Y-9791722D01*
X7265301Y-9791722D02*
X7255777Y-9772674D01*
X7255777Y-9772674D02*
X7236730Y-9763150D01*
X7236730Y-9763150D02*
X7208158Y-9763150D01*
X7208158Y-9763150D02*
X7189110Y-9772674D01*
X7189110Y-9772674D02*
X7179587Y-9782198D01*
X7389110Y-9896484D02*
X7370063Y-9886960D01*
X7370063Y-9886960D02*
X7360539Y-9877436D01*
X7360539Y-9877436D02*
X7351015Y-9858389D01*
X7351015Y-9858389D02*
X7351015Y-9801246D01*
X7351015Y-9801246D02*
X7360539Y-9782198D01*
X7360539Y-9782198D02*
X7370063Y-9772674D01*
X7370063Y-9772674D02*
X7389110Y-9763150D01*
X7389110Y-9763150D02*
X7417682Y-9763150D01*
X7417682Y-9763150D02*
X7436730Y-9772674D01*
X7436730Y-9772674D02*
X7446253Y-9782198D01*
X7446253Y-9782198D02*
X7455777Y-9801246D01*
X7455777Y-9801246D02*
X7455777Y-9858389D01*
X7455777Y-9858389D02*
X7446253Y-9877436D01*
X7446253Y-9877436D02*
X7436730Y-9886960D01*
X7436730Y-9886960D02*
X7417682Y-9896484D01*
X7417682Y-9896484D02*
X7389110Y-9896484D01*
X7570063Y-9896484D02*
X7551015Y-9886960D01*
X7551015Y-9886960D02*
X7541491Y-9867912D01*
X7541491Y-9867912D02*
X7541491Y-9696484D01*
X7722444Y-9886960D02*
X7703396Y-9896484D01*
X7703396Y-9896484D02*
X7665301Y-9896484D01*
X7665301Y-9896484D02*
X7646253Y-9886960D01*
X7646253Y-9886960D02*
X7636730Y-9867912D01*
X7636730Y-9867912D02*
X7636730Y-9791722D01*
X7636730Y-9791722D02*
X7646253Y-9772674D01*
X7646253Y-9772674D02*
X7665301Y-9763150D01*
X7665301Y-9763150D02*
X7703396Y-9763150D01*
X7703396Y-9763150D02*
X7722444Y-9772674D01*
X7722444Y-9772674D02*
X7731968Y-9791722D01*
X7731968Y-9791722D02*
X7731968Y-9810770D01*
X7731968Y-9810770D02*
X7636730Y-9829817D01*
X7808158Y-9886960D02*
X7827206Y-9896484D01*
X7827206Y-9896484D02*
X7865301Y-9896484D01*
X7865301Y-9896484D02*
X7884349Y-9886960D01*
X7884349Y-9886960D02*
X7893872Y-9867912D01*
X7893872Y-9867912D02*
X7893872Y-9858389D01*
X7893872Y-9858389D02*
X7884349Y-9839341D01*
X7884349Y-9839341D02*
X7865301Y-9829817D01*
X7865301Y-9829817D02*
X7836730Y-9829817D01*
X7836730Y-9829817D02*
X7817682Y-9820293D01*
X7817682Y-9820293D02*
X7808158Y-9801246D01*
X7808158Y-9801246D02*
X7808158Y-9791722D01*
X7808158Y-9791722D02*
X7817682Y-9772674D01*
X7817682Y-9772674D02*
X7836730Y-9763150D01*
X7836730Y-9763150D02*
X7865301Y-9763150D01*
X7865301Y-9763150D02*
X7884349Y-9772674D01*
X7960539Y-9972674D02*
X7970063Y-9963150D01*
X7970063Y-9963150D02*
X7989111Y-9934579D01*
X7989111Y-9934579D02*
X7998634Y-9915531D01*
X7998634Y-9915531D02*
X8008158Y-9886960D01*
X8008158Y-9886960D02*
X8017682Y-9839341D01*
X8017682Y-9839341D02*
X8017682Y-9801246D01*
X8017682Y-9801246D02*
X8008158Y-9753627D01*
X8008158Y-9753627D02*
X7998634Y-9725055D01*
X7998634Y-9725055D02*
X7989111Y-9706008D01*
X7989111Y-9706008D02*
X7970063Y-9677436D01*
X7970063Y-9677436D02*
X7960539Y-9667912D01*
D13*
X2995000Y-10069000D02*
G75*
G03*
X2995000Y-10069000I-20000J0D01*
G01*
D11*
X3293872Y-9960484D02*
X3312920Y-9960484D01*
X3312920Y-9960484D02*
X3331967Y-9970008D01*
X3331967Y-9970008D02*
X3341491Y-9979531D01*
X3341491Y-9979531D02*
X3351015Y-9998579D01*
X3351015Y-9998579D02*
X3360539Y-10036674D01*
X3360539Y-10036674D02*
X3360539Y-10084293D01*
X3360539Y-10084293D02*
X3351015Y-10122389D01*
X3351015Y-10122389D02*
X3341491Y-10141436D01*
X3341491Y-10141436D02*
X3331967Y-10150960D01*
X3331967Y-10150960D02*
X3312920Y-10160484D01*
X3312920Y-10160484D02*
X3293872Y-10160484D01*
X3293872Y-10160484D02*
X3274824Y-10150960D01*
X3274824Y-10150960D02*
X3265301Y-10141436D01*
X3265301Y-10141436D02*
X3255777Y-10122389D01*
X3255777Y-10122389D02*
X3246253Y-10084293D01*
X3246253Y-10084293D02*
X3246253Y-10036674D01*
X3246253Y-10036674D02*
X3255777Y-9998579D01*
X3255777Y-9998579D02*
X3265301Y-9979531D01*
X3265301Y-9979531D02*
X3274824Y-9970008D01*
X3274824Y-9970008D02*
X3293872Y-9960484D01*
X3446253Y-10141436D02*
X3455777Y-10150960D01*
X3455777Y-10150960D02*
X3446253Y-10160484D01*
X3446253Y-10160484D02*
X3436729Y-10150960D01*
X3436729Y-10150960D02*
X3446253Y-10141436D01*
X3446253Y-10141436D02*
X3446253Y-10160484D01*
X3627205Y-10027150D02*
X3627205Y-10160484D01*
X3579586Y-9950960D02*
X3531967Y-10093817D01*
X3531967Y-10093817D02*
X3655777Y-10093817D01*
X3770062Y-9960484D02*
X3789110Y-9960484D01*
X3789110Y-9960484D02*
X3808158Y-9970008D01*
X3808158Y-9970008D02*
X3817682Y-9979531D01*
X3817682Y-9979531D02*
X3827205Y-9998579D01*
X3827205Y-9998579D02*
X3836729Y-10036674D01*
X3836729Y-10036674D02*
X3836729Y-10084293D01*
X3836729Y-10084293D02*
X3827205Y-10122389D01*
X3827205Y-10122389D02*
X3817682Y-10141436D01*
X3817682Y-10141436D02*
X3808158Y-10150960D01*
X3808158Y-10150960D02*
X3789110Y-10160484D01*
X3789110Y-10160484D02*
X3770062Y-10160484D01*
X3770062Y-10160484D02*
X3751015Y-10150960D01*
X3751015Y-10150960D02*
X3741491Y-10141436D01*
X3741491Y-10141436D02*
X3731967Y-10122389D01*
X3731967Y-10122389D02*
X3722443Y-10084293D01*
X3722443Y-10084293D02*
X3722443Y-10036674D01*
X3722443Y-10036674D02*
X3731967Y-9998579D01*
X3731967Y-9998579D02*
X3741491Y-9979531D01*
X3741491Y-9979531D02*
X3751015Y-9970008D01*
X3751015Y-9970008D02*
X3770062Y-9960484D01*
X3960539Y-9960484D02*
X3979586Y-9960484D01*
X3979586Y-9960484D02*
X3998634Y-9970008D01*
X3998634Y-9970008D02*
X4008158Y-9979531D01*
X4008158Y-9979531D02*
X4017682Y-9998579D01*
X4017682Y-9998579D02*
X4027205Y-10036674D01*
X4027205Y-10036674D02*
X4027205Y-10084293D01*
X4027205Y-10084293D02*
X4017682Y-10122389D01*
X4017682Y-10122389D02*
X4008158Y-10141436D01*
X4008158Y-10141436D02*
X3998634Y-10150960D01*
X3998634Y-10150960D02*
X3979586Y-10160484D01*
X3979586Y-10160484D02*
X3960539Y-10160484D01*
X3960539Y-10160484D02*
X3941491Y-10150960D01*
X3941491Y-10150960D02*
X3931967Y-10141436D01*
X3931967Y-10141436D02*
X3922443Y-10122389D01*
X3922443Y-10122389D02*
X3912920Y-10084293D01*
X3912920Y-10084293D02*
X3912920Y-10036674D01*
X3912920Y-10036674D02*
X3922443Y-9998579D01*
X3922443Y-9998579D02*
X3931967Y-9979531D01*
X3931967Y-9979531D02*
X3941491Y-9970008D01*
X3941491Y-9970008D02*
X3960539Y-9960484D01*
X4112920Y-10160484D02*
X4112920Y-10027150D01*
X4112920Y-10046198D02*
X4122443Y-10036674D01*
X4122443Y-10036674D02*
X4141491Y-10027150D01*
X4141491Y-10027150D02*
X4170063Y-10027150D01*
X4170063Y-10027150D02*
X4189110Y-10036674D01*
X4189110Y-10036674D02*
X4198634Y-10055722D01*
X4198634Y-10055722D02*
X4198634Y-10160484D01*
X4198634Y-10055722D02*
X4208158Y-10036674D01*
X4208158Y-10036674D02*
X4227205Y-10027150D01*
X4227205Y-10027150D02*
X4255777Y-10027150D01*
X4255777Y-10027150D02*
X4274825Y-10036674D01*
X4274825Y-10036674D02*
X4284348Y-10055722D01*
X4284348Y-10055722D02*
X4284348Y-10160484D01*
X4379586Y-10160484D02*
X4379586Y-10027150D01*
X4379586Y-10046198D02*
X4389110Y-10036674D01*
X4389110Y-10036674D02*
X4408158Y-10027150D01*
X4408158Y-10027150D02*
X4436729Y-10027150D01*
X4436729Y-10027150D02*
X4455777Y-10036674D01*
X4455777Y-10036674D02*
X4465301Y-10055722D01*
X4465301Y-10055722D02*
X4465301Y-10160484D01*
X4465301Y-10055722D02*
X4474825Y-10036674D01*
X4474825Y-10036674D02*
X4493872Y-10027150D01*
X4493872Y-10027150D02*
X4522444Y-10027150D01*
X4522444Y-10027150D02*
X4541491Y-10036674D01*
X4541491Y-10036674D02*
X4551015Y-10055722D01*
X4551015Y-10055722D02*
X4551015Y-10160484D01*
X4941491Y-9950960D02*
X4770063Y-10208103D01*
X5198634Y-9960484D02*
X5217682Y-9960484D01*
X5217682Y-9960484D02*
X5236729Y-9970008D01*
X5236729Y-9970008D02*
X5246253Y-9979531D01*
X5246253Y-9979531D02*
X5255777Y-9998579D01*
X5255777Y-9998579D02*
X5265301Y-10036674D01*
X5265301Y-10036674D02*
X5265301Y-10084293D01*
X5265301Y-10084293D02*
X5255777Y-10122389D01*
X5255777Y-10122389D02*
X5246253Y-10141436D01*
X5246253Y-10141436D02*
X5236729Y-10150960D01*
X5236729Y-10150960D02*
X5217682Y-10160484D01*
X5217682Y-10160484D02*
X5198634Y-10160484D01*
X5198634Y-10160484D02*
X5179587Y-10150960D01*
X5179587Y-10150960D02*
X5170063Y-10141436D01*
X5170063Y-10141436D02*
X5160539Y-10122389D01*
X5160539Y-10122389D02*
X5151015Y-10084293D01*
X5151015Y-10084293D02*
X5151015Y-10036674D01*
X5151015Y-10036674D02*
X5160539Y-9998579D01*
X5160539Y-9998579D02*
X5170063Y-9979531D01*
X5170063Y-9979531D02*
X5179587Y-9970008D01*
X5179587Y-9970008D02*
X5198634Y-9960484D01*
X5351015Y-10141436D02*
X5360539Y-10150960D01*
X5360539Y-10150960D02*
X5351015Y-10160484D01*
X5351015Y-10160484D02*
X5341491Y-10150960D01*
X5341491Y-10150960D02*
X5351015Y-10141436D01*
X5351015Y-10141436D02*
X5351015Y-10160484D01*
X5484348Y-9960484D02*
X5503396Y-9960484D01*
X5503396Y-9960484D02*
X5522444Y-9970008D01*
X5522444Y-9970008D02*
X5531968Y-9979531D01*
X5531968Y-9979531D02*
X5541491Y-9998579D01*
X5541491Y-9998579D02*
X5551015Y-10036674D01*
X5551015Y-10036674D02*
X5551015Y-10084293D01*
X5551015Y-10084293D02*
X5541491Y-10122389D01*
X5541491Y-10122389D02*
X5531968Y-10141436D01*
X5531968Y-10141436D02*
X5522444Y-10150960D01*
X5522444Y-10150960D02*
X5503396Y-10160484D01*
X5503396Y-10160484D02*
X5484348Y-10160484D01*
X5484348Y-10160484D02*
X5465301Y-10150960D01*
X5465301Y-10150960D02*
X5455777Y-10141436D01*
X5455777Y-10141436D02*
X5446253Y-10122389D01*
X5446253Y-10122389D02*
X5436729Y-10084293D01*
X5436729Y-10084293D02*
X5436729Y-10036674D01*
X5436729Y-10036674D02*
X5446253Y-9998579D01*
X5446253Y-9998579D02*
X5455777Y-9979531D01*
X5455777Y-9979531D02*
X5465301Y-9970008D01*
X5465301Y-9970008D02*
X5484348Y-9960484D01*
X5741491Y-10160484D02*
X5627206Y-10160484D01*
X5684348Y-10160484D02*
X5684348Y-9960484D01*
X5684348Y-9960484D02*
X5665301Y-9989055D01*
X5665301Y-9989055D02*
X5646253Y-10008103D01*
X5646253Y-10008103D02*
X5627206Y-10017627D01*
X5922444Y-9960484D02*
X5827206Y-9960484D01*
X5827206Y-9960484D02*
X5817682Y-10055722D01*
X5817682Y-10055722D02*
X5827206Y-10046198D01*
X5827206Y-10046198D02*
X5846253Y-10036674D01*
X5846253Y-10036674D02*
X5893872Y-10036674D01*
X5893872Y-10036674D02*
X5912920Y-10046198D01*
X5912920Y-10046198D02*
X5922444Y-10055722D01*
X5922444Y-10055722D02*
X5931967Y-10074770D01*
X5931967Y-10074770D02*
X5931967Y-10122389D01*
X5931967Y-10122389D02*
X5922444Y-10141436D01*
X5922444Y-10141436D02*
X5912920Y-10150960D01*
X5912920Y-10150960D02*
X5893872Y-10160484D01*
X5893872Y-10160484D02*
X5846253Y-10160484D01*
X5846253Y-10160484D02*
X5827206Y-10150960D01*
X5827206Y-10150960D02*
X5817682Y-10141436D01*
X5998634Y-9960484D02*
X6131967Y-9960484D01*
X6131967Y-9960484D02*
X6046253Y-10160484D01*
X6198634Y-9960484D02*
X6198634Y-9998579D01*
X6274825Y-9960484D02*
X6274825Y-9998579D01*
X6570063Y-10236674D02*
X6560539Y-10227150D01*
X6560539Y-10227150D02*
X6541491Y-10198579D01*
X6541491Y-10198579D02*
X6531968Y-10179531D01*
X6531968Y-10179531D02*
X6522444Y-10150960D01*
X6522444Y-10150960D02*
X6512920Y-10103341D01*
X6512920Y-10103341D02*
X6512920Y-10065246D01*
X6512920Y-10065246D02*
X6522444Y-10017627D01*
X6522444Y-10017627D02*
X6531968Y-9989055D01*
X6531968Y-9989055D02*
X6541491Y-9970008D01*
X6541491Y-9970008D02*
X6560539Y-9941436D01*
X6560539Y-9941436D02*
X6570063Y-9931912D01*
X6627206Y-9960484D02*
X6751015Y-9960484D01*
X6751015Y-9960484D02*
X6684348Y-10036674D01*
X6684348Y-10036674D02*
X6712920Y-10036674D01*
X6712920Y-10036674D02*
X6731968Y-10046198D01*
X6731968Y-10046198D02*
X6741491Y-10055722D01*
X6741491Y-10055722D02*
X6751015Y-10074770D01*
X6751015Y-10074770D02*
X6751015Y-10122389D01*
X6751015Y-10122389D02*
X6741491Y-10141436D01*
X6741491Y-10141436D02*
X6731968Y-10150960D01*
X6731968Y-10150960D02*
X6712920Y-10160484D01*
X6712920Y-10160484D02*
X6655777Y-10160484D01*
X6655777Y-10160484D02*
X6636729Y-10150960D01*
X6636729Y-10150960D02*
X6627206Y-10141436D01*
X6922444Y-10027150D02*
X6922444Y-10160484D01*
X6874825Y-9950960D02*
X6827206Y-10093817D01*
X6827206Y-10093817D02*
X6951015Y-10093817D01*
X7179587Y-10160484D02*
X7179587Y-9960484D01*
X7265301Y-10160484D02*
X7265301Y-10055722D01*
X7265301Y-10055722D02*
X7255777Y-10036674D01*
X7255777Y-10036674D02*
X7236730Y-10027150D01*
X7236730Y-10027150D02*
X7208158Y-10027150D01*
X7208158Y-10027150D02*
X7189110Y-10036674D01*
X7189110Y-10036674D02*
X7179587Y-10046198D01*
X7389110Y-10160484D02*
X7370063Y-10150960D01*
X7370063Y-10150960D02*
X7360539Y-10141436D01*
X7360539Y-10141436D02*
X7351015Y-10122389D01*
X7351015Y-10122389D02*
X7351015Y-10065246D01*
X7351015Y-10065246D02*
X7360539Y-10046198D01*
X7360539Y-10046198D02*
X7370063Y-10036674D01*
X7370063Y-10036674D02*
X7389110Y-10027150D01*
X7389110Y-10027150D02*
X7417682Y-10027150D01*
X7417682Y-10027150D02*
X7436730Y-10036674D01*
X7436730Y-10036674D02*
X7446253Y-10046198D01*
X7446253Y-10046198D02*
X7455777Y-10065246D01*
X7455777Y-10065246D02*
X7455777Y-10122389D01*
X7455777Y-10122389D02*
X7446253Y-10141436D01*
X7446253Y-10141436D02*
X7436730Y-10150960D01*
X7436730Y-10150960D02*
X7417682Y-10160484D01*
X7417682Y-10160484D02*
X7389110Y-10160484D01*
X7570063Y-10160484D02*
X7551015Y-10150960D01*
X7551015Y-10150960D02*
X7541491Y-10131912D01*
X7541491Y-10131912D02*
X7541491Y-9960484D01*
X7722444Y-10150960D02*
X7703396Y-10160484D01*
X7703396Y-10160484D02*
X7665301Y-10160484D01*
X7665301Y-10160484D02*
X7646253Y-10150960D01*
X7646253Y-10150960D02*
X7636730Y-10131912D01*
X7636730Y-10131912D02*
X7636730Y-10055722D01*
X7636730Y-10055722D02*
X7646253Y-10036674D01*
X7646253Y-10036674D02*
X7665301Y-10027150D01*
X7665301Y-10027150D02*
X7703396Y-10027150D01*
X7703396Y-10027150D02*
X7722444Y-10036674D01*
X7722444Y-10036674D02*
X7731968Y-10055722D01*
X7731968Y-10055722D02*
X7731968Y-10074770D01*
X7731968Y-10074770D02*
X7636730Y-10093817D01*
X7808158Y-10150960D02*
X7827206Y-10160484D01*
X7827206Y-10160484D02*
X7865301Y-10160484D01*
X7865301Y-10160484D02*
X7884349Y-10150960D01*
X7884349Y-10150960D02*
X7893872Y-10131912D01*
X7893872Y-10131912D02*
X7893872Y-10122389D01*
X7893872Y-10122389D02*
X7884349Y-10103341D01*
X7884349Y-10103341D02*
X7865301Y-10093817D01*
X7865301Y-10093817D02*
X7836730Y-10093817D01*
X7836730Y-10093817D02*
X7817682Y-10084293D01*
X7817682Y-10084293D02*
X7808158Y-10065246D01*
X7808158Y-10065246D02*
X7808158Y-10055722D01*
X7808158Y-10055722D02*
X7817682Y-10036674D01*
X7817682Y-10036674D02*
X7836730Y-10027150D01*
X7836730Y-10027150D02*
X7865301Y-10027150D01*
X7865301Y-10027150D02*
X7884349Y-10036674D01*
X7960539Y-10236674D02*
X7970063Y-10227150D01*
X7970063Y-10227150D02*
X7989111Y-10198579D01*
X7989111Y-10198579D02*
X7998634Y-10179531D01*
X7998634Y-10179531D02*
X8008158Y-10150960D01*
X8008158Y-10150960D02*
X8017682Y-10103341D01*
X8017682Y-10103341D02*
X8017682Y-10065246D01*
X8017682Y-10065246D02*
X8008158Y-10017627D01*
X8008158Y-10017627D02*
X7998634Y-9989055D01*
X7998634Y-9989055D02*
X7989111Y-9970008D01*
X7989111Y-9970008D02*
X7970063Y-9941436D01*
X7970063Y-9941436D02*
X7960539Y-9931912D01*
D13*
X2975000Y-10313000D02*
X2975000Y-10353000D01*
X2955000Y-10333000D02*
X2995000Y-10333000D01*
D11*
X3293872Y-10224484D02*
X3312920Y-10224484D01*
X3312920Y-10224484D02*
X3331967Y-10234008D01*
X3331967Y-10234008D02*
X3341491Y-10243531D01*
X3341491Y-10243531D02*
X3351015Y-10262579D01*
X3351015Y-10262579D02*
X3360539Y-10300674D01*
X3360539Y-10300674D02*
X3360539Y-10348293D01*
X3360539Y-10348293D02*
X3351015Y-10386389D01*
X3351015Y-10386389D02*
X3341491Y-10405436D01*
X3341491Y-10405436D02*
X3331967Y-10414960D01*
X3331967Y-10414960D02*
X3312920Y-10424484D01*
X3312920Y-10424484D02*
X3293872Y-10424484D01*
X3293872Y-10424484D02*
X3274824Y-10414960D01*
X3274824Y-10414960D02*
X3265301Y-10405436D01*
X3265301Y-10405436D02*
X3255777Y-10386389D01*
X3255777Y-10386389D02*
X3246253Y-10348293D01*
X3246253Y-10348293D02*
X3246253Y-10300674D01*
X3246253Y-10300674D02*
X3255777Y-10262579D01*
X3255777Y-10262579D02*
X3265301Y-10243531D01*
X3265301Y-10243531D02*
X3274824Y-10234008D01*
X3274824Y-10234008D02*
X3293872Y-10224484D01*
X3446253Y-10405436D02*
X3455777Y-10414960D01*
X3455777Y-10414960D02*
X3446253Y-10424484D01*
X3446253Y-10424484D02*
X3436729Y-10414960D01*
X3436729Y-10414960D02*
X3446253Y-10405436D01*
X3446253Y-10405436D02*
X3446253Y-10424484D01*
X3627205Y-10291150D02*
X3627205Y-10424484D01*
X3579586Y-10214960D02*
X3531967Y-10357817D01*
X3531967Y-10357817D02*
X3655777Y-10357817D01*
X3770062Y-10224484D02*
X3789110Y-10224484D01*
X3789110Y-10224484D02*
X3808158Y-10234008D01*
X3808158Y-10234008D02*
X3817682Y-10243531D01*
X3817682Y-10243531D02*
X3827205Y-10262579D01*
X3827205Y-10262579D02*
X3836729Y-10300674D01*
X3836729Y-10300674D02*
X3836729Y-10348293D01*
X3836729Y-10348293D02*
X3827205Y-10386389D01*
X3827205Y-10386389D02*
X3817682Y-10405436D01*
X3817682Y-10405436D02*
X3808158Y-10414960D01*
X3808158Y-10414960D02*
X3789110Y-10424484D01*
X3789110Y-10424484D02*
X3770062Y-10424484D01*
X3770062Y-10424484D02*
X3751015Y-10414960D01*
X3751015Y-10414960D02*
X3741491Y-10405436D01*
X3741491Y-10405436D02*
X3731967Y-10386389D01*
X3731967Y-10386389D02*
X3722443Y-10348293D01*
X3722443Y-10348293D02*
X3722443Y-10300674D01*
X3722443Y-10300674D02*
X3731967Y-10262579D01*
X3731967Y-10262579D02*
X3741491Y-10243531D01*
X3741491Y-10243531D02*
X3751015Y-10234008D01*
X3751015Y-10234008D02*
X3770062Y-10224484D01*
X3960539Y-10224484D02*
X3979586Y-10224484D01*
X3979586Y-10224484D02*
X3998634Y-10234008D01*
X3998634Y-10234008D02*
X4008158Y-10243531D01*
X4008158Y-10243531D02*
X4017682Y-10262579D01*
X4017682Y-10262579D02*
X4027205Y-10300674D01*
X4027205Y-10300674D02*
X4027205Y-10348293D01*
X4027205Y-10348293D02*
X4017682Y-10386389D01*
X4017682Y-10386389D02*
X4008158Y-10405436D01*
X4008158Y-10405436D02*
X3998634Y-10414960D01*
X3998634Y-10414960D02*
X3979586Y-10424484D01*
X3979586Y-10424484D02*
X3960539Y-10424484D01*
X3960539Y-10424484D02*
X3941491Y-10414960D01*
X3941491Y-10414960D02*
X3931967Y-10405436D01*
X3931967Y-10405436D02*
X3922443Y-10386389D01*
X3922443Y-10386389D02*
X3912920Y-10348293D01*
X3912920Y-10348293D02*
X3912920Y-10300674D01*
X3912920Y-10300674D02*
X3922443Y-10262579D01*
X3922443Y-10262579D02*
X3931967Y-10243531D01*
X3931967Y-10243531D02*
X3941491Y-10234008D01*
X3941491Y-10234008D02*
X3960539Y-10224484D01*
X4112920Y-10424484D02*
X4112920Y-10291150D01*
X4112920Y-10310198D02*
X4122443Y-10300674D01*
X4122443Y-10300674D02*
X4141491Y-10291150D01*
X4141491Y-10291150D02*
X4170063Y-10291150D01*
X4170063Y-10291150D02*
X4189110Y-10300674D01*
X4189110Y-10300674D02*
X4198634Y-10319722D01*
X4198634Y-10319722D02*
X4198634Y-10424484D01*
X4198634Y-10319722D02*
X4208158Y-10300674D01*
X4208158Y-10300674D02*
X4227205Y-10291150D01*
X4227205Y-10291150D02*
X4255777Y-10291150D01*
X4255777Y-10291150D02*
X4274825Y-10300674D01*
X4274825Y-10300674D02*
X4284348Y-10319722D01*
X4284348Y-10319722D02*
X4284348Y-10424484D01*
X4379586Y-10424484D02*
X4379586Y-10291150D01*
X4379586Y-10310198D02*
X4389110Y-10300674D01*
X4389110Y-10300674D02*
X4408158Y-10291150D01*
X4408158Y-10291150D02*
X4436729Y-10291150D01*
X4436729Y-10291150D02*
X4455777Y-10300674D01*
X4455777Y-10300674D02*
X4465301Y-10319722D01*
X4465301Y-10319722D02*
X4465301Y-10424484D01*
X4465301Y-10319722D02*
X4474825Y-10300674D01*
X4474825Y-10300674D02*
X4493872Y-10291150D01*
X4493872Y-10291150D02*
X4522444Y-10291150D01*
X4522444Y-10291150D02*
X4541491Y-10300674D01*
X4541491Y-10300674D02*
X4551015Y-10319722D01*
X4551015Y-10319722D02*
X4551015Y-10424484D01*
X4941491Y-10214960D02*
X4770063Y-10472103D01*
X5198634Y-10224484D02*
X5217682Y-10224484D01*
X5217682Y-10224484D02*
X5236729Y-10234008D01*
X5236729Y-10234008D02*
X5246253Y-10243531D01*
X5246253Y-10243531D02*
X5255777Y-10262579D01*
X5255777Y-10262579D02*
X5265301Y-10300674D01*
X5265301Y-10300674D02*
X5265301Y-10348293D01*
X5265301Y-10348293D02*
X5255777Y-10386389D01*
X5255777Y-10386389D02*
X5246253Y-10405436D01*
X5246253Y-10405436D02*
X5236729Y-10414960D01*
X5236729Y-10414960D02*
X5217682Y-10424484D01*
X5217682Y-10424484D02*
X5198634Y-10424484D01*
X5198634Y-10424484D02*
X5179587Y-10414960D01*
X5179587Y-10414960D02*
X5170063Y-10405436D01*
X5170063Y-10405436D02*
X5160539Y-10386389D01*
X5160539Y-10386389D02*
X5151015Y-10348293D01*
X5151015Y-10348293D02*
X5151015Y-10300674D01*
X5151015Y-10300674D02*
X5160539Y-10262579D01*
X5160539Y-10262579D02*
X5170063Y-10243531D01*
X5170063Y-10243531D02*
X5179587Y-10234008D01*
X5179587Y-10234008D02*
X5198634Y-10224484D01*
X5351015Y-10405436D02*
X5360539Y-10414960D01*
X5360539Y-10414960D02*
X5351015Y-10424484D01*
X5351015Y-10424484D02*
X5341491Y-10414960D01*
X5341491Y-10414960D02*
X5351015Y-10405436D01*
X5351015Y-10405436D02*
X5351015Y-10424484D01*
X5484348Y-10224484D02*
X5503396Y-10224484D01*
X5503396Y-10224484D02*
X5522444Y-10234008D01*
X5522444Y-10234008D02*
X5531968Y-10243531D01*
X5531968Y-10243531D02*
X5541491Y-10262579D01*
X5541491Y-10262579D02*
X5551015Y-10300674D01*
X5551015Y-10300674D02*
X5551015Y-10348293D01*
X5551015Y-10348293D02*
X5541491Y-10386389D01*
X5541491Y-10386389D02*
X5531968Y-10405436D01*
X5531968Y-10405436D02*
X5522444Y-10414960D01*
X5522444Y-10414960D02*
X5503396Y-10424484D01*
X5503396Y-10424484D02*
X5484348Y-10424484D01*
X5484348Y-10424484D02*
X5465301Y-10414960D01*
X5465301Y-10414960D02*
X5455777Y-10405436D01*
X5455777Y-10405436D02*
X5446253Y-10386389D01*
X5446253Y-10386389D02*
X5436729Y-10348293D01*
X5436729Y-10348293D02*
X5436729Y-10300674D01*
X5436729Y-10300674D02*
X5446253Y-10262579D01*
X5446253Y-10262579D02*
X5455777Y-10243531D01*
X5455777Y-10243531D02*
X5465301Y-10234008D01*
X5465301Y-10234008D02*
X5484348Y-10224484D01*
X5741491Y-10424484D02*
X5627206Y-10424484D01*
X5684348Y-10424484D02*
X5684348Y-10224484D01*
X5684348Y-10224484D02*
X5665301Y-10253055D01*
X5665301Y-10253055D02*
X5646253Y-10272103D01*
X5646253Y-10272103D02*
X5627206Y-10281627D01*
X5922444Y-10224484D02*
X5827206Y-10224484D01*
X5827206Y-10224484D02*
X5817682Y-10319722D01*
X5817682Y-10319722D02*
X5827206Y-10310198D01*
X5827206Y-10310198D02*
X5846253Y-10300674D01*
X5846253Y-10300674D02*
X5893872Y-10300674D01*
X5893872Y-10300674D02*
X5912920Y-10310198D01*
X5912920Y-10310198D02*
X5922444Y-10319722D01*
X5922444Y-10319722D02*
X5931967Y-10338770D01*
X5931967Y-10338770D02*
X5931967Y-10386389D01*
X5931967Y-10386389D02*
X5922444Y-10405436D01*
X5922444Y-10405436D02*
X5912920Y-10414960D01*
X5912920Y-10414960D02*
X5893872Y-10424484D01*
X5893872Y-10424484D02*
X5846253Y-10424484D01*
X5846253Y-10424484D02*
X5827206Y-10414960D01*
X5827206Y-10414960D02*
X5817682Y-10405436D01*
X5998634Y-10224484D02*
X6131967Y-10224484D01*
X6131967Y-10224484D02*
X6046253Y-10424484D01*
X6198634Y-10224484D02*
X6198634Y-10262579D01*
X6274825Y-10224484D02*
X6274825Y-10262579D01*
X6570063Y-10500674D02*
X6560539Y-10491150D01*
X6560539Y-10491150D02*
X6541491Y-10462579D01*
X6541491Y-10462579D02*
X6531968Y-10443531D01*
X6531968Y-10443531D02*
X6522444Y-10414960D01*
X6522444Y-10414960D02*
X6512920Y-10367341D01*
X6512920Y-10367341D02*
X6512920Y-10329246D01*
X6512920Y-10329246D02*
X6522444Y-10281627D01*
X6522444Y-10281627D02*
X6531968Y-10253055D01*
X6531968Y-10253055D02*
X6541491Y-10234008D01*
X6541491Y-10234008D02*
X6560539Y-10205436D01*
X6560539Y-10205436D02*
X6570063Y-10195912D01*
X6636729Y-10243531D02*
X6646253Y-10234008D01*
X6646253Y-10234008D02*
X6665301Y-10224484D01*
X6665301Y-10224484D02*
X6712920Y-10224484D01*
X6712920Y-10224484D02*
X6731968Y-10234008D01*
X6731968Y-10234008D02*
X6741491Y-10243531D01*
X6741491Y-10243531D02*
X6751015Y-10262579D01*
X6751015Y-10262579D02*
X6751015Y-10281627D01*
X6751015Y-10281627D02*
X6741491Y-10310198D01*
X6741491Y-10310198D02*
X6627206Y-10424484D01*
X6627206Y-10424484D02*
X6751015Y-10424484D01*
X6922444Y-10291150D02*
X6922444Y-10424484D01*
X6874825Y-10214960D02*
X6827206Y-10357817D01*
X6827206Y-10357817D02*
X6951015Y-10357817D01*
X7179587Y-10424484D02*
X7179587Y-10224484D01*
X7265301Y-10424484D02*
X7265301Y-10319722D01*
X7265301Y-10319722D02*
X7255777Y-10300674D01*
X7255777Y-10300674D02*
X7236730Y-10291150D01*
X7236730Y-10291150D02*
X7208158Y-10291150D01*
X7208158Y-10291150D02*
X7189110Y-10300674D01*
X7189110Y-10300674D02*
X7179587Y-10310198D01*
X7389110Y-10424484D02*
X7370063Y-10414960D01*
X7370063Y-10414960D02*
X7360539Y-10405436D01*
X7360539Y-10405436D02*
X7351015Y-10386389D01*
X7351015Y-10386389D02*
X7351015Y-10329246D01*
X7351015Y-10329246D02*
X7360539Y-10310198D01*
X7360539Y-10310198D02*
X7370063Y-10300674D01*
X7370063Y-10300674D02*
X7389110Y-10291150D01*
X7389110Y-10291150D02*
X7417682Y-10291150D01*
X7417682Y-10291150D02*
X7436730Y-10300674D01*
X7436730Y-10300674D02*
X7446253Y-10310198D01*
X7446253Y-10310198D02*
X7455777Y-10329246D01*
X7455777Y-10329246D02*
X7455777Y-10386389D01*
X7455777Y-10386389D02*
X7446253Y-10405436D01*
X7446253Y-10405436D02*
X7436730Y-10414960D01*
X7436730Y-10414960D02*
X7417682Y-10424484D01*
X7417682Y-10424484D02*
X7389110Y-10424484D01*
X7570063Y-10424484D02*
X7551015Y-10414960D01*
X7551015Y-10414960D02*
X7541491Y-10395912D01*
X7541491Y-10395912D02*
X7541491Y-10224484D01*
X7722444Y-10414960D02*
X7703396Y-10424484D01*
X7703396Y-10424484D02*
X7665301Y-10424484D01*
X7665301Y-10424484D02*
X7646253Y-10414960D01*
X7646253Y-10414960D02*
X7636730Y-10395912D01*
X7636730Y-10395912D02*
X7636730Y-10319722D01*
X7636730Y-10319722D02*
X7646253Y-10300674D01*
X7646253Y-10300674D02*
X7665301Y-10291150D01*
X7665301Y-10291150D02*
X7703396Y-10291150D01*
X7703396Y-10291150D02*
X7722444Y-10300674D01*
X7722444Y-10300674D02*
X7731968Y-10319722D01*
X7731968Y-10319722D02*
X7731968Y-10338770D01*
X7731968Y-10338770D02*
X7636730Y-10357817D01*
X7808158Y-10414960D02*
X7827206Y-10424484D01*
X7827206Y-10424484D02*
X7865301Y-10424484D01*
X7865301Y-10424484D02*
X7884349Y-10414960D01*
X7884349Y-10414960D02*
X7893872Y-10395912D01*
X7893872Y-10395912D02*
X7893872Y-10386389D01*
X7893872Y-10386389D02*
X7884349Y-10367341D01*
X7884349Y-10367341D02*
X7865301Y-10357817D01*
X7865301Y-10357817D02*
X7836730Y-10357817D01*
X7836730Y-10357817D02*
X7817682Y-10348293D01*
X7817682Y-10348293D02*
X7808158Y-10329246D01*
X7808158Y-10329246D02*
X7808158Y-10319722D01*
X7808158Y-10319722D02*
X7817682Y-10300674D01*
X7817682Y-10300674D02*
X7836730Y-10291150D01*
X7836730Y-10291150D02*
X7865301Y-10291150D01*
X7865301Y-10291150D02*
X7884349Y-10300674D01*
X7960539Y-10500674D02*
X7970063Y-10491150D01*
X7970063Y-10491150D02*
X7989111Y-10462579D01*
X7989111Y-10462579D02*
X7998634Y-10443531D01*
X7998634Y-10443531D02*
X8008158Y-10414960D01*
X8008158Y-10414960D02*
X8017682Y-10367341D01*
X8017682Y-10367341D02*
X8017682Y-10329246D01*
X8017682Y-10329246D02*
X8008158Y-10281627D01*
X8008158Y-10281627D02*
X7998634Y-10253055D01*
X7998634Y-10253055D02*
X7989111Y-10234008D01*
X7989111Y-10234008D02*
X7970063Y-10205436D01*
X7970063Y-10205436D02*
X7960539Y-10195912D01*
D14*
X2981820Y-10628820D02*
X2981820Y-10565180D01*
X2918180Y-10565180D01*
X2918180Y-10628820D01*
X2981820Y-10628820D01*
D11*
X3293872Y-10488484D02*
X3312920Y-10488484D01*
X3312920Y-10488484D02*
X3331967Y-10498008D01*
X3331967Y-10498008D02*
X3341491Y-10507531D01*
X3341491Y-10507531D02*
X3351015Y-10526579D01*
X3351015Y-10526579D02*
X3360539Y-10564674D01*
X3360539Y-10564674D02*
X3360539Y-10612293D01*
X3360539Y-10612293D02*
X3351015Y-10650389D01*
X3351015Y-10650389D02*
X3341491Y-10669436D01*
X3341491Y-10669436D02*
X3331967Y-10678960D01*
X3331967Y-10678960D02*
X3312920Y-10688484D01*
X3312920Y-10688484D02*
X3293872Y-10688484D01*
X3293872Y-10688484D02*
X3274824Y-10678960D01*
X3274824Y-10678960D02*
X3265301Y-10669436D01*
X3265301Y-10669436D02*
X3255777Y-10650389D01*
X3255777Y-10650389D02*
X3246253Y-10612293D01*
X3246253Y-10612293D02*
X3246253Y-10564674D01*
X3246253Y-10564674D02*
X3255777Y-10526579D01*
X3255777Y-10526579D02*
X3265301Y-10507531D01*
X3265301Y-10507531D02*
X3274824Y-10498008D01*
X3274824Y-10498008D02*
X3293872Y-10488484D01*
X3446253Y-10669436D02*
X3455777Y-10678960D01*
X3455777Y-10678960D02*
X3446253Y-10688484D01*
X3446253Y-10688484D02*
X3436729Y-10678960D01*
X3436729Y-10678960D02*
X3446253Y-10669436D01*
X3446253Y-10669436D02*
X3446253Y-10688484D01*
X3551015Y-10688484D02*
X3589110Y-10688484D01*
X3589110Y-10688484D02*
X3608158Y-10678960D01*
X3608158Y-10678960D02*
X3617682Y-10669436D01*
X3617682Y-10669436D02*
X3636729Y-10640865D01*
X3636729Y-10640865D02*
X3646253Y-10602770D01*
X3646253Y-10602770D02*
X3646253Y-10526579D01*
X3646253Y-10526579D02*
X3636729Y-10507531D01*
X3636729Y-10507531D02*
X3627205Y-10498008D01*
X3627205Y-10498008D02*
X3608158Y-10488484D01*
X3608158Y-10488484D02*
X3570062Y-10488484D01*
X3570062Y-10488484D02*
X3551015Y-10498008D01*
X3551015Y-10498008D02*
X3541491Y-10507531D01*
X3541491Y-10507531D02*
X3531967Y-10526579D01*
X3531967Y-10526579D02*
X3531967Y-10574198D01*
X3531967Y-10574198D02*
X3541491Y-10593246D01*
X3541491Y-10593246D02*
X3551015Y-10602770D01*
X3551015Y-10602770D02*
X3570062Y-10612293D01*
X3570062Y-10612293D02*
X3608158Y-10612293D01*
X3608158Y-10612293D02*
X3627205Y-10602770D01*
X3627205Y-10602770D02*
X3636729Y-10593246D01*
X3636729Y-10593246D02*
X3646253Y-10574198D01*
X3770062Y-10488484D02*
X3789110Y-10488484D01*
X3789110Y-10488484D02*
X3808158Y-10498008D01*
X3808158Y-10498008D02*
X3817682Y-10507531D01*
X3817682Y-10507531D02*
X3827205Y-10526579D01*
X3827205Y-10526579D02*
X3836729Y-10564674D01*
X3836729Y-10564674D02*
X3836729Y-10612293D01*
X3836729Y-10612293D02*
X3827205Y-10650389D01*
X3827205Y-10650389D02*
X3817682Y-10669436D01*
X3817682Y-10669436D02*
X3808158Y-10678960D01*
X3808158Y-10678960D02*
X3789110Y-10688484D01*
X3789110Y-10688484D02*
X3770062Y-10688484D01*
X3770062Y-10688484D02*
X3751015Y-10678960D01*
X3751015Y-10678960D02*
X3741491Y-10669436D01*
X3741491Y-10669436D02*
X3731967Y-10650389D01*
X3731967Y-10650389D02*
X3722443Y-10612293D01*
X3722443Y-10612293D02*
X3722443Y-10564674D01*
X3722443Y-10564674D02*
X3731967Y-10526579D01*
X3731967Y-10526579D02*
X3741491Y-10507531D01*
X3741491Y-10507531D02*
X3751015Y-10498008D01*
X3751015Y-10498008D02*
X3770062Y-10488484D01*
X3960539Y-10488484D02*
X3979586Y-10488484D01*
X3979586Y-10488484D02*
X3998634Y-10498008D01*
X3998634Y-10498008D02*
X4008158Y-10507531D01*
X4008158Y-10507531D02*
X4017682Y-10526579D01*
X4017682Y-10526579D02*
X4027205Y-10564674D01*
X4027205Y-10564674D02*
X4027205Y-10612293D01*
X4027205Y-10612293D02*
X4017682Y-10650389D01*
X4017682Y-10650389D02*
X4008158Y-10669436D01*
X4008158Y-10669436D02*
X3998634Y-10678960D01*
X3998634Y-10678960D02*
X3979586Y-10688484D01*
X3979586Y-10688484D02*
X3960539Y-10688484D01*
X3960539Y-10688484D02*
X3941491Y-10678960D01*
X3941491Y-10678960D02*
X3931967Y-10669436D01*
X3931967Y-10669436D02*
X3922443Y-10650389D01*
X3922443Y-10650389D02*
X3912920Y-10612293D01*
X3912920Y-10612293D02*
X3912920Y-10564674D01*
X3912920Y-10564674D02*
X3922443Y-10526579D01*
X3922443Y-10526579D02*
X3931967Y-10507531D01*
X3931967Y-10507531D02*
X3941491Y-10498008D01*
X3941491Y-10498008D02*
X3960539Y-10488484D01*
X4112920Y-10688484D02*
X4112920Y-10555150D01*
X4112920Y-10574198D02*
X4122443Y-10564674D01*
X4122443Y-10564674D02*
X4141491Y-10555150D01*
X4141491Y-10555150D02*
X4170063Y-10555150D01*
X4170063Y-10555150D02*
X4189110Y-10564674D01*
X4189110Y-10564674D02*
X4198634Y-10583722D01*
X4198634Y-10583722D02*
X4198634Y-10688484D01*
X4198634Y-10583722D02*
X4208158Y-10564674D01*
X4208158Y-10564674D02*
X4227205Y-10555150D01*
X4227205Y-10555150D02*
X4255777Y-10555150D01*
X4255777Y-10555150D02*
X4274825Y-10564674D01*
X4274825Y-10564674D02*
X4284348Y-10583722D01*
X4284348Y-10583722D02*
X4284348Y-10688484D01*
X4379586Y-10688484D02*
X4379586Y-10555150D01*
X4379586Y-10574198D02*
X4389110Y-10564674D01*
X4389110Y-10564674D02*
X4408158Y-10555150D01*
X4408158Y-10555150D02*
X4436729Y-10555150D01*
X4436729Y-10555150D02*
X4455777Y-10564674D01*
X4455777Y-10564674D02*
X4465301Y-10583722D01*
X4465301Y-10583722D02*
X4465301Y-10688484D01*
X4465301Y-10583722D02*
X4474825Y-10564674D01*
X4474825Y-10564674D02*
X4493872Y-10555150D01*
X4493872Y-10555150D02*
X4522444Y-10555150D01*
X4522444Y-10555150D02*
X4541491Y-10564674D01*
X4541491Y-10564674D02*
X4551015Y-10583722D01*
X4551015Y-10583722D02*
X4551015Y-10688484D01*
X4941491Y-10478960D02*
X4770063Y-10736103D01*
X5198634Y-10488484D02*
X5217682Y-10488484D01*
X5217682Y-10488484D02*
X5236729Y-10498008D01*
X5236729Y-10498008D02*
X5246253Y-10507531D01*
X5246253Y-10507531D02*
X5255777Y-10526579D01*
X5255777Y-10526579D02*
X5265301Y-10564674D01*
X5265301Y-10564674D02*
X5265301Y-10612293D01*
X5265301Y-10612293D02*
X5255777Y-10650389D01*
X5255777Y-10650389D02*
X5246253Y-10669436D01*
X5246253Y-10669436D02*
X5236729Y-10678960D01*
X5236729Y-10678960D02*
X5217682Y-10688484D01*
X5217682Y-10688484D02*
X5198634Y-10688484D01*
X5198634Y-10688484D02*
X5179587Y-10678960D01*
X5179587Y-10678960D02*
X5170063Y-10669436D01*
X5170063Y-10669436D02*
X5160539Y-10650389D01*
X5160539Y-10650389D02*
X5151015Y-10612293D01*
X5151015Y-10612293D02*
X5151015Y-10564674D01*
X5151015Y-10564674D02*
X5160539Y-10526579D01*
X5160539Y-10526579D02*
X5170063Y-10507531D01*
X5170063Y-10507531D02*
X5179587Y-10498008D01*
X5179587Y-10498008D02*
X5198634Y-10488484D01*
X5351015Y-10669436D02*
X5360539Y-10678960D01*
X5360539Y-10678960D02*
X5351015Y-10688484D01*
X5351015Y-10688484D02*
X5341491Y-10678960D01*
X5341491Y-10678960D02*
X5351015Y-10669436D01*
X5351015Y-10669436D02*
X5351015Y-10688484D01*
X5484348Y-10488484D02*
X5503396Y-10488484D01*
X5503396Y-10488484D02*
X5522444Y-10498008D01*
X5522444Y-10498008D02*
X5531968Y-10507531D01*
X5531968Y-10507531D02*
X5541491Y-10526579D01*
X5541491Y-10526579D02*
X5551015Y-10564674D01*
X5551015Y-10564674D02*
X5551015Y-10612293D01*
X5551015Y-10612293D02*
X5541491Y-10650389D01*
X5541491Y-10650389D02*
X5531968Y-10669436D01*
X5531968Y-10669436D02*
X5522444Y-10678960D01*
X5522444Y-10678960D02*
X5503396Y-10688484D01*
X5503396Y-10688484D02*
X5484348Y-10688484D01*
X5484348Y-10688484D02*
X5465301Y-10678960D01*
X5465301Y-10678960D02*
X5455777Y-10669436D01*
X5455777Y-10669436D02*
X5446253Y-10650389D01*
X5446253Y-10650389D02*
X5436729Y-10612293D01*
X5436729Y-10612293D02*
X5436729Y-10564674D01*
X5436729Y-10564674D02*
X5446253Y-10526579D01*
X5446253Y-10526579D02*
X5455777Y-10507531D01*
X5455777Y-10507531D02*
X5465301Y-10498008D01*
X5465301Y-10498008D02*
X5484348Y-10488484D01*
X5617682Y-10488484D02*
X5741491Y-10488484D01*
X5741491Y-10488484D02*
X5674825Y-10564674D01*
X5674825Y-10564674D02*
X5703396Y-10564674D01*
X5703396Y-10564674D02*
X5722444Y-10574198D01*
X5722444Y-10574198D02*
X5731967Y-10583722D01*
X5731967Y-10583722D02*
X5741491Y-10602770D01*
X5741491Y-10602770D02*
X5741491Y-10650389D01*
X5741491Y-10650389D02*
X5731967Y-10669436D01*
X5731967Y-10669436D02*
X5722444Y-10678960D01*
X5722444Y-10678960D02*
X5703396Y-10688484D01*
X5703396Y-10688484D02*
X5646253Y-10688484D01*
X5646253Y-10688484D02*
X5627206Y-10678960D01*
X5627206Y-10678960D02*
X5617682Y-10669436D01*
X5922444Y-10488484D02*
X5827206Y-10488484D01*
X5827206Y-10488484D02*
X5817682Y-10583722D01*
X5817682Y-10583722D02*
X5827206Y-10574198D01*
X5827206Y-10574198D02*
X5846253Y-10564674D01*
X5846253Y-10564674D02*
X5893872Y-10564674D01*
X5893872Y-10564674D02*
X5912920Y-10574198D01*
X5912920Y-10574198D02*
X5922444Y-10583722D01*
X5922444Y-10583722D02*
X5931967Y-10602770D01*
X5931967Y-10602770D02*
X5931967Y-10650389D01*
X5931967Y-10650389D02*
X5922444Y-10669436D01*
X5922444Y-10669436D02*
X5912920Y-10678960D01*
X5912920Y-10678960D02*
X5893872Y-10688484D01*
X5893872Y-10688484D02*
X5846253Y-10688484D01*
X5846253Y-10688484D02*
X5827206Y-10678960D01*
X5827206Y-10678960D02*
X5817682Y-10669436D01*
X6103396Y-10555150D02*
X6103396Y-10688484D01*
X6055777Y-10478960D02*
X6008158Y-10621817D01*
X6008158Y-10621817D02*
X6131967Y-10621817D01*
X6198634Y-10488484D02*
X6198634Y-10526579D01*
X6274825Y-10488484D02*
X6274825Y-10526579D01*
X6570063Y-10764674D02*
X6560539Y-10755150D01*
X6560539Y-10755150D02*
X6541491Y-10726579D01*
X6541491Y-10726579D02*
X6531968Y-10707531D01*
X6531968Y-10707531D02*
X6522444Y-10678960D01*
X6522444Y-10678960D02*
X6512920Y-10631341D01*
X6512920Y-10631341D02*
X6512920Y-10593246D01*
X6512920Y-10593246D02*
X6522444Y-10545627D01*
X6522444Y-10545627D02*
X6531968Y-10517055D01*
X6531968Y-10517055D02*
X6541491Y-10498008D01*
X6541491Y-10498008D02*
X6560539Y-10469436D01*
X6560539Y-10469436D02*
X6570063Y-10459912D01*
X6636729Y-10507531D02*
X6646253Y-10498008D01*
X6646253Y-10498008D02*
X6665301Y-10488484D01*
X6665301Y-10488484D02*
X6712920Y-10488484D01*
X6712920Y-10488484D02*
X6731968Y-10498008D01*
X6731968Y-10498008D02*
X6741491Y-10507531D01*
X6741491Y-10507531D02*
X6751015Y-10526579D01*
X6751015Y-10526579D02*
X6751015Y-10545627D01*
X6751015Y-10545627D02*
X6741491Y-10574198D01*
X6741491Y-10574198D02*
X6627206Y-10688484D01*
X6627206Y-10688484D02*
X6751015Y-10688484D01*
X6989110Y-10688484D02*
X6989110Y-10488484D01*
X7074825Y-10688484D02*
X7074825Y-10583722D01*
X7074825Y-10583722D02*
X7065301Y-10564674D01*
X7065301Y-10564674D02*
X7046253Y-10555150D01*
X7046253Y-10555150D02*
X7017682Y-10555150D01*
X7017682Y-10555150D02*
X6998634Y-10564674D01*
X6998634Y-10564674D02*
X6989110Y-10574198D01*
X7198634Y-10688484D02*
X7179587Y-10678960D01*
X7179587Y-10678960D02*
X7170063Y-10669436D01*
X7170063Y-10669436D02*
X7160539Y-10650389D01*
X7160539Y-10650389D02*
X7160539Y-10593246D01*
X7160539Y-10593246D02*
X7170063Y-10574198D01*
X7170063Y-10574198D02*
X7179587Y-10564674D01*
X7179587Y-10564674D02*
X7198634Y-10555150D01*
X7198634Y-10555150D02*
X7227206Y-10555150D01*
X7227206Y-10555150D02*
X7246253Y-10564674D01*
X7246253Y-10564674D02*
X7255777Y-10574198D01*
X7255777Y-10574198D02*
X7265301Y-10593246D01*
X7265301Y-10593246D02*
X7265301Y-10650389D01*
X7265301Y-10650389D02*
X7255777Y-10669436D01*
X7255777Y-10669436D02*
X7246253Y-10678960D01*
X7246253Y-10678960D02*
X7227206Y-10688484D01*
X7227206Y-10688484D02*
X7198634Y-10688484D01*
X7379587Y-10688484D02*
X7360539Y-10678960D01*
X7360539Y-10678960D02*
X7351015Y-10659912D01*
X7351015Y-10659912D02*
X7351015Y-10488484D01*
X7531968Y-10678960D02*
X7512920Y-10688484D01*
X7512920Y-10688484D02*
X7474825Y-10688484D01*
X7474825Y-10688484D02*
X7455777Y-10678960D01*
X7455777Y-10678960D02*
X7446253Y-10659912D01*
X7446253Y-10659912D02*
X7446253Y-10583722D01*
X7446253Y-10583722D02*
X7455777Y-10564674D01*
X7455777Y-10564674D02*
X7474825Y-10555150D01*
X7474825Y-10555150D02*
X7512920Y-10555150D01*
X7512920Y-10555150D02*
X7531968Y-10564674D01*
X7531968Y-10564674D02*
X7541491Y-10583722D01*
X7541491Y-10583722D02*
X7541491Y-10602770D01*
X7541491Y-10602770D02*
X7446253Y-10621817D01*
X7617682Y-10678960D02*
X7636730Y-10688484D01*
X7636730Y-10688484D02*
X7674825Y-10688484D01*
X7674825Y-10688484D02*
X7693872Y-10678960D01*
X7693872Y-10678960D02*
X7703396Y-10659912D01*
X7703396Y-10659912D02*
X7703396Y-10650389D01*
X7703396Y-10650389D02*
X7693872Y-10631341D01*
X7693872Y-10631341D02*
X7674825Y-10621817D01*
X7674825Y-10621817D02*
X7646253Y-10621817D01*
X7646253Y-10621817D02*
X7627206Y-10612293D01*
X7627206Y-10612293D02*
X7617682Y-10593246D01*
X7617682Y-10593246D02*
X7617682Y-10583722D01*
X7617682Y-10583722D02*
X7627206Y-10564674D01*
X7627206Y-10564674D02*
X7646253Y-10555150D01*
X7646253Y-10555150D02*
X7674825Y-10555150D01*
X7674825Y-10555150D02*
X7693872Y-10564674D01*
X7770063Y-10764674D02*
X7779587Y-10755150D01*
X7779587Y-10755150D02*
X7798634Y-10726579D01*
X7798634Y-10726579D02*
X7808158Y-10707531D01*
X7808158Y-10707531D02*
X7817682Y-10678960D01*
X7817682Y-10678960D02*
X7827206Y-10631341D01*
X7827206Y-10631341D02*
X7827206Y-10593246D01*
X7827206Y-10593246D02*
X7817682Y-10545627D01*
X7817682Y-10545627D02*
X7808158Y-10517055D01*
X7808158Y-10517055D02*
X7798634Y-10498008D01*
X7798634Y-10498008D02*
X7779587Y-10469436D01*
X7779587Y-10469436D02*
X7770063Y-10459912D01*
D10*
X2945000Y-10911000D02*
X2995000Y-10861000D01*
X2945000Y-10811000D01*
X2895000Y-10861000D01*
X2945000Y-10911000D01*
D11*
X3360539Y-10952484D02*
X3246253Y-10952484D01*
X3303396Y-10952484D02*
X3303396Y-10752484D01*
X3303396Y-10752484D02*
X3284348Y-10781055D01*
X3284348Y-10781055D02*
X3265301Y-10800103D01*
X3265301Y-10800103D02*
X3246253Y-10809627D01*
X3446253Y-10933436D02*
X3455777Y-10942960D01*
X3455777Y-10942960D02*
X3446253Y-10952484D01*
X3446253Y-10952484D02*
X3436729Y-10942960D01*
X3436729Y-10942960D02*
X3446253Y-10933436D01*
X3446253Y-10933436D02*
X3446253Y-10952484D01*
X3579586Y-10752484D02*
X3598634Y-10752484D01*
X3598634Y-10752484D02*
X3617682Y-10762008D01*
X3617682Y-10762008D02*
X3627205Y-10771531D01*
X3627205Y-10771531D02*
X3636729Y-10790579D01*
X3636729Y-10790579D02*
X3646253Y-10828674D01*
X3646253Y-10828674D02*
X3646253Y-10876293D01*
X3646253Y-10876293D02*
X3636729Y-10914389D01*
X3636729Y-10914389D02*
X3627205Y-10933436D01*
X3627205Y-10933436D02*
X3617682Y-10942960D01*
X3617682Y-10942960D02*
X3598634Y-10952484D01*
X3598634Y-10952484D02*
X3579586Y-10952484D01*
X3579586Y-10952484D02*
X3560539Y-10942960D01*
X3560539Y-10942960D02*
X3551015Y-10933436D01*
X3551015Y-10933436D02*
X3541491Y-10914389D01*
X3541491Y-10914389D02*
X3531967Y-10876293D01*
X3531967Y-10876293D02*
X3531967Y-10828674D01*
X3531967Y-10828674D02*
X3541491Y-10790579D01*
X3541491Y-10790579D02*
X3551015Y-10771531D01*
X3551015Y-10771531D02*
X3560539Y-10762008D01*
X3560539Y-10762008D02*
X3579586Y-10752484D01*
X3770062Y-10752484D02*
X3789110Y-10752484D01*
X3789110Y-10752484D02*
X3808158Y-10762008D01*
X3808158Y-10762008D02*
X3817682Y-10771531D01*
X3817682Y-10771531D02*
X3827205Y-10790579D01*
X3827205Y-10790579D02*
X3836729Y-10828674D01*
X3836729Y-10828674D02*
X3836729Y-10876293D01*
X3836729Y-10876293D02*
X3827205Y-10914389D01*
X3827205Y-10914389D02*
X3817682Y-10933436D01*
X3817682Y-10933436D02*
X3808158Y-10942960D01*
X3808158Y-10942960D02*
X3789110Y-10952484D01*
X3789110Y-10952484D02*
X3770062Y-10952484D01*
X3770062Y-10952484D02*
X3751015Y-10942960D01*
X3751015Y-10942960D02*
X3741491Y-10933436D01*
X3741491Y-10933436D02*
X3731967Y-10914389D01*
X3731967Y-10914389D02*
X3722443Y-10876293D01*
X3722443Y-10876293D02*
X3722443Y-10828674D01*
X3722443Y-10828674D02*
X3731967Y-10790579D01*
X3731967Y-10790579D02*
X3741491Y-10771531D01*
X3741491Y-10771531D02*
X3751015Y-10762008D01*
X3751015Y-10762008D02*
X3770062Y-10752484D01*
X3960539Y-10752484D02*
X3979586Y-10752484D01*
X3979586Y-10752484D02*
X3998634Y-10762008D01*
X3998634Y-10762008D02*
X4008158Y-10771531D01*
X4008158Y-10771531D02*
X4017682Y-10790579D01*
X4017682Y-10790579D02*
X4027205Y-10828674D01*
X4027205Y-10828674D02*
X4027205Y-10876293D01*
X4027205Y-10876293D02*
X4017682Y-10914389D01*
X4017682Y-10914389D02*
X4008158Y-10933436D01*
X4008158Y-10933436D02*
X3998634Y-10942960D01*
X3998634Y-10942960D02*
X3979586Y-10952484D01*
X3979586Y-10952484D02*
X3960539Y-10952484D01*
X3960539Y-10952484D02*
X3941491Y-10942960D01*
X3941491Y-10942960D02*
X3931967Y-10933436D01*
X3931967Y-10933436D02*
X3922443Y-10914389D01*
X3922443Y-10914389D02*
X3912920Y-10876293D01*
X3912920Y-10876293D02*
X3912920Y-10828674D01*
X3912920Y-10828674D02*
X3922443Y-10790579D01*
X3922443Y-10790579D02*
X3931967Y-10771531D01*
X3931967Y-10771531D02*
X3941491Y-10762008D01*
X3941491Y-10762008D02*
X3960539Y-10752484D01*
X4112920Y-10952484D02*
X4112920Y-10819150D01*
X4112920Y-10838198D02*
X4122443Y-10828674D01*
X4122443Y-10828674D02*
X4141491Y-10819150D01*
X4141491Y-10819150D02*
X4170063Y-10819150D01*
X4170063Y-10819150D02*
X4189110Y-10828674D01*
X4189110Y-10828674D02*
X4198634Y-10847722D01*
X4198634Y-10847722D02*
X4198634Y-10952484D01*
X4198634Y-10847722D02*
X4208158Y-10828674D01*
X4208158Y-10828674D02*
X4227205Y-10819150D01*
X4227205Y-10819150D02*
X4255777Y-10819150D01*
X4255777Y-10819150D02*
X4274825Y-10828674D01*
X4274825Y-10828674D02*
X4284348Y-10847722D01*
X4284348Y-10847722D02*
X4284348Y-10952484D01*
X4379586Y-10952484D02*
X4379586Y-10819150D01*
X4379586Y-10838198D02*
X4389110Y-10828674D01*
X4389110Y-10828674D02*
X4408158Y-10819150D01*
X4408158Y-10819150D02*
X4436729Y-10819150D01*
X4436729Y-10819150D02*
X4455777Y-10828674D01*
X4455777Y-10828674D02*
X4465301Y-10847722D01*
X4465301Y-10847722D02*
X4465301Y-10952484D01*
X4465301Y-10847722D02*
X4474825Y-10828674D01*
X4474825Y-10828674D02*
X4493872Y-10819150D01*
X4493872Y-10819150D02*
X4522444Y-10819150D01*
X4522444Y-10819150D02*
X4541491Y-10828674D01*
X4541491Y-10828674D02*
X4551015Y-10847722D01*
X4551015Y-10847722D02*
X4551015Y-10952484D01*
X4941491Y-10742960D02*
X4770063Y-11000103D01*
X5198634Y-10752484D02*
X5217682Y-10752484D01*
X5217682Y-10752484D02*
X5236729Y-10762008D01*
X5236729Y-10762008D02*
X5246253Y-10771531D01*
X5246253Y-10771531D02*
X5255777Y-10790579D01*
X5255777Y-10790579D02*
X5265301Y-10828674D01*
X5265301Y-10828674D02*
X5265301Y-10876293D01*
X5265301Y-10876293D02*
X5255777Y-10914389D01*
X5255777Y-10914389D02*
X5246253Y-10933436D01*
X5246253Y-10933436D02*
X5236729Y-10942960D01*
X5236729Y-10942960D02*
X5217682Y-10952484D01*
X5217682Y-10952484D02*
X5198634Y-10952484D01*
X5198634Y-10952484D02*
X5179587Y-10942960D01*
X5179587Y-10942960D02*
X5170063Y-10933436D01*
X5170063Y-10933436D02*
X5160539Y-10914389D01*
X5160539Y-10914389D02*
X5151015Y-10876293D01*
X5151015Y-10876293D02*
X5151015Y-10828674D01*
X5151015Y-10828674D02*
X5160539Y-10790579D01*
X5160539Y-10790579D02*
X5170063Y-10771531D01*
X5170063Y-10771531D02*
X5179587Y-10762008D01*
X5179587Y-10762008D02*
X5198634Y-10752484D01*
X5351015Y-10933436D02*
X5360539Y-10942960D01*
X5360539Y-10942960D02*
X5351015Y-10952484D01*
X5351015Y-10952484D02*
X5341491Y-10942960D01*
X5341491Y-10942960D02*
X5351015Y-10933436D01*
X5351015Y-10933436D02*
X5351015Y-10952484D01*
X5484348Y-10752484D02*
X5503396Y-10752484D01*
X5503396Y-10752484D02*
X5522444Y-10762008D01*
X5522444Y-10762008D02*
X5531968Y-10771531D01*
X5531968Y-10771531D02*
X5541491Y-10790579D01*
X5541491Y-10790579D02*
X5551015Y-10828674D01*
X5551015Y-10828674D02*
X5551015Y-10876293D01*
X5551015Y-10876293D02*
X5541491Y-10914389D01*
X5541491Y-10914389D02*
X5531968Y-10933436D01*
X5531968Y-10933436D02*
X5522444Y-10942960D01*
X5522444Y-10942960D02*
X5503396Y-10952484D01*
X5503396Y-10952484D02*
X5484348Y-10952484D01*
X5484348Y-10952484D02*
X5465301Y-10942960D01*
X5465301Y-10942960D02*
X5455777Y-10933436D01*
X5455777Y-10933436D02*
X5446253Y-10914389D01*
X5446253Y-10914389D02*
X5436729Y-10876293D01*
X5436729Y-10876293D02*
X5436729Y-10828674D01*
X5436729Y-10828674D02*
X5446253Y-10790579D01*
X5446253Y-10790579D02*
X5455777Y-10771531D01*
X5455777Y-10771531D02*
X5465301Y-10762008D01*
X5465301Y-10762008D02*
X5484348Y-10752484D01*
X5617682Y-10752484D02*
X5741491Y-10752484D01*
X5741491Y-10752484D02*
X5674825Y-10828674D01*
X5674825Y-10828674D02*
X5703396Y-10828674D01*
X5703396Y-10828674D02*
X5722444Y-10838198D01*
X5722444Y-10838198D02*
X5731967Y-10847722D01*
X5731967Y-10847722D02*
X5741491Y-10866770D01*
X5741491Y-10866770D02*
X5741491Y-10914389D01*
X5741491Y-10914389D02*
X5731967Y-10933436D01*
X5731967Y-10933436D02*
X5722444Y-10942960D01*
X5722444Y-10942960D02*
X5703396Y-10952484D01*
X5703396Y-10952484D02*
X5646253Y-10952484D01*
X5646253Y-10952484D02*
X5627206Y-10942960D01*
X5627206Y-10942960D02*
X5617682Y-10933436D01*
X5836729Y-10952484D02*
X5874825Y-10952484D01*
X5874825Y-10952484D02*
X5893872Y-10942960D01*
X5893872Y-10942960D02*
X5903396Y-10933436D01*
X5903396Y-10933436D02*
X5922444Y-10904865D01*
X5922444Y-10904865D02*
X5931967Y-10866770D01*
X5931967Y-10866770D02*
X5931967Y-10790579D01*
X5931967Y-10790579D02*
X5922444Y-10771531D01*
X5922444Y-10771531D02*
X5912920Y-10762008D01*
X5912920Y-10762008D02*
X5893872Y-10752484D01*
X5893872Y-10752484D02*
X5855777Y-10752484D01*
X5855777Y-10752484D02*
X5836729Y-10762008D01*
X5836729Y-10762008D02*
X5827206Y-10771531D01*
X5827206Y-10771531D02*
X5817682Y-10790579D01*
X5817682Y-10790579D02*
X5817682Y-10838198D01*
X5817682Y-10838198D02*
X5827206Y-10857246D01*
X5827206Y-10857246D02*
X5836729Y-10866770D01*
X5836729Y-10866770D02*
X5855777Y-10876293D01*
X5855777Y-10876293D02*
X5893872Y-10876293D01*
X5893872Y-10876293D02*
X5912920Y-10866770D01*
X5912920Y-10866770D02*
X5922444Y-10857246D01*
X5922444Y-10857246D02*
X5931967Y-10838198D01*
X6103396Y-10819150D02*
X6103396Y-10952484D01*
X6055777Y-10742960D02*
X6008158Y-10885817D01*
X6008158Y-10885817D02*
X6131967Y-10885817D01*
X6198634Y-10752484D02*
X6198634Y-10790579D01*
X6274825Y-10752484D02*
X6274825Y-10790579D01*
X6570063Y-11028674D02*
X6560539Y-11019150D01*
X6560539Y-11019150D02*
X6541491Y-10990579D01*
X6541491Y-10990579D02*
X6531968Y-10971531D01*
X6531968Y-10971531D02*
X6522444Y-10942960D01*
X6522444Y-10942960D02*
X6512920Y-10895341D01*
X6512920Y-10895341D02*
X6512920Y-10857246D01*
X6512920Y-10857246D02*
X6522444Y-10809627D01*
X6522444Y-10809627D02*
X6531968Y-10781055D01*
X6531968Y-10781055D02*
X6541491Y-10762008D01*
X6541491Y-10762008D02*
X6560539Y-10733436D01*
X6560539Y-10733436D02*
X6570063Y-10723912D01*
X6751015Y-10952484D02*
X6636729Y-10952484D01*
X6693872Y-10952484D02*
X6693872Y-10752484D01*
X6693872Y-10752484D02*
X6674825Y-10781055D01*
X6674825Y-10781055D02*
X6655777Y-10800103D01*
X6655777Y-10800103D02*
X6636729Y-10809627D01*
X6874825Y-10752484D02*
X6893872Y-10752484D01*
X6893872Y-10752484D02*
X6912920Y-10762008D01*
X6912920Y-10762008D02*
X6922444Y-10771531D01*
X6922444Y-10771531D02*
X6931968Y-10790579D01*
X6931968Y-10790579D02*
X6941491Y-10828674D01*
X6941491Y-10828674D02*
X6941491Y-10876293D01*
X6941491Y-10876293D02*
X6931968Y-10914389D01*
X6931968Y-10914389D02*
X6922444Y-10933436D01*
X6922444Y-10933436D02*
X6912920Y-10942960D01*
X6912920Y-10942960D02*
X6893872Y-10952484D01*
X6893872Y-10952484D02*
X6874825Y-10952484D01*
X6874825Y-10952484D02*
X6855777Y-10942960D01*
X6855777Y-10942960D02*
X6846253Y-10933436D01*
X6846253Y-10933436D02*
X6836729Y-10914389D01*
X6836729Y-10914389D02*
X6827206Y-10876293D01*
X6827206Y-10876293D02*
X6827206Y-10828674D01*
X6827206Y-10828674D02*
X6836729Y-10790579D01*
X6836729Y-10790579D02*
X6846253Y-10771531D01*
X6846253Y-10771531D02*
X6855777Y-10762008D01*
X6855777Y-10762008D02*
X6874825Y-10752484D01*
X7179587Y-10952484D02*
X7179587Y-10752484D01*
X7265301Y-10952484D02*
X7265301Y-10847722D01*
X7265301Y-10847722D02*
X7255777Y-10828674D01*
X7255777Y-10828674D02*
X7236730Y-10819150D01*
X7236730Y-10819150D02*
X7208158Y-10819150D01*
X7208158Y-10819150D02*
X7189110Y-10828674D01*
X7189110Y-10828674D02*
X7179587Y-10838198D01*
X7389110Y-10952484D02*
X7370063Y-10942960D01*
X7370063Y-10942960D02*
X7360539Y-10933436D01*
X7360539Y-10933436D02*
X7351015Y-10914389D01*
X7351015Y-10914389D02*
X7351015Y-10857246D01*
X7351015Y-10857246D02*
X7360539Y-10838198D01*
X7360539Y-10838198D02*
X7370063Y-10828674D01*
X7370063Y-10828674D02*
X7389110Y-10819150D01*
X7389110Y-10819150D02*
X7417682Y-10819150D01*
X7417682Y-10819150D02*
X7436730Y-10828674D01*
X7436730Y-10828674D02*
X7446253Y-10838198D01*
X7446253Y-10838198D02*
X7455777Y-10857246D01*
X7455777Y-10857246D02*
X7455777Y-10914389D01*
X7455777Y-10914389D02*
X7446253Y-10933436D01*
X7446253Y-10933436D02*
X7436730Y-10942960D01*
X7436730Y-10942960D02*
X7417682Y-10952484D01*
X7417682Y-10952484D02*
X7389110Y-10952484D01*
X7570063Y-10952484D02*
X7551015Y-10942960D01*
X7551015Y-10942960D02*
X7541491Y-10923912D01*
X7541491Y-10923912D02*
X7541491Y-10752484D01*
X7722444Y-10942960D02*
X7703396Y-10952484D01*
X7703396Y-10952484D02*
X7665301Y-10952484D01*
X7665301Y-10952484D02*
X7646253Y-10942960D01*
X7646253Y-10942960D02*
X7636730Y-10923912D01*
X7636730Y-10923912D02*
X7636730Y-10847722D01*
X7636730Y-10847722D02*
X7646253Y-10828674D01*
X7646253Y-10828674D02*
X7665301Y-10819150D01*
X7665301Y-10819150D02*
X7703396Y-10819150D01*
X7703396Y-10819150D02*
X7722444Y-10828674D01*
X7722444Y-10828674D02*
X7731968Y-10847722D01*
X7731968Y-10847722D02*
X7731968Y-10866770D01*
X7731968Y-10866770D02*
X7636730Y-10885817D01*
X7808158Y-10942960D02*
X7827206Y-10952484D01*
X7827206Y-10952484D02*
X7865301Y-10952484D01*
X7865301Y-10952484D02*
X7884349Y-10942960D01*
X7884349Y-10942960D02*
X7893872Y-10923912D01*
X7893872Y-10923912D02*
X7893872Y-10914389D01*
X7893872Y-10914389D02*
X7884349Y-10895341D01*
X7884349Y-10895341D02*
X7865301Y-10885817D01*
X7865301Y-10885817D02*
X7836730Y-10885817D01*
X7836730Y-10885817D02*
X7817682Y-10876293D01*
X7817682Y-10876293D02*
X7808158Y-10857246D01*
X7808158Y-10857246D02*
X7808158Y-10847722D01*
X7808158Y-10847722D02*
X7817682Y-10828674D01*
X7817682Y-10828674D02*
X7836730Y-10819150D01*
X7836730Y-10819150D02*
X7865301Y-10819150D01*
X7865301Y-10819150D02*
X7884349Y-10828674D01*
X8131968Y-10876293D02*
X8284349Y-10876293D01*
X8208158Y-10952484D02*
X8208158Y-10800103D01*
X8617682Y-10819150D02*
X8617682Y-10952484D01*
X8570063Y-10742960D02*
X8522444Y-10885817D01*
X8522444Y-10885817D02*
X8646254Y-10885817D01*
X8865301Y-10942960D02*
X8884349Y-10952484D01*
X8884349Y-10952484D02*
X8922444Y-10952484D01*
X8922444Y-10952484D02*
X8941492Y-10942960D01*
X8941492Y-10942960D02*
X8951016Y-10923912D01*
X8951016Y-10923912D02*
X8951016Y-10914389D01*
X8951016Y-10914389D02*
X8941492Y-10895341D01*
X8941492Y-10895341D02*
X8922444Y-10885817D01*
X8922444Y-10885817D02*
X8893873Y-10885817D01*
X8893873Y-10885817D02*
X8874825Y-10876293D01*
X8874825Y-10876293D02*
X8865301Y-10857246D01*
X8865301Y-10857246D02*
X8865301Y-10847722D01*
X8865301Y-10847722D02*
X8874825Y-10828674D01*
X8874825Y-10828674D02*
X8893873Y-10819150D01*
X8893873Y-10819150D02*
X8922444Y-10819150D01*
X8922444Y-10819150D02*
X8941492Y-10828674D01*
X9065301Y-10952484D02*
X9046254Y-10942960D01*
X9046254Y-10942960D02*
X9036730Y-10923912D01*
X9036730Y-10923912D02*
X9036730Y-10752484D01*
X9170063Y-10952484D02*
X9151016Y-10942960D01*
X9151016Y-10942960D02*
X9141492Y-10933436D01*
X9141492Y-10933436D02*
X9131968Y-10914389D01*
X9131968Y-10914389D02*
X9131968Y-10857246D01*
X9131968Y-10857246D02*
X9141492Y-10838198D01*
X9141492Y-10838198D02*
X9151016Y-10828674D01*
X9151016Y-10828674D02*
X9170063Y-10819150D01*
X9170063Y-10819150D02*
X9198635Y-10819150D01*
X9198635Y-10819150D02*
X9217682Y-10828674D01*
X9217682Y-10828674D02*
X9227206Y-10838198D01*
X9227206Y-10838198D02*
X9236730Y-10857246D01*
X9236730Y-10857246D02*
X9236730Y-10914389D01*
X9236730Y-10914389D02*
X9227206Y-10933436D01*
X9227206Y-10933436D02*
X9217682Y-10942960D01*
X9217682Y-10942960D02*
X9198635Y-10952484D01*
X9198635Y-10952484D02*
X9170063Y-10952484D01*
X9293873Y-10819150D02*
X9370063Y-10819150D01*
X9322444Y-10752484D02*
X9322444Y-10923912D01*
X9322444Y-10923912D02*
X9331968Y-10942960D01*
X9331968Y-10942960D02*
X9351016Y-10952484D01*
X9351016Y-10952484D02*
X9370063Y-10952484D01*
X9427206Y-10942960D02*
X9446254Y-10952484D01*
X9446254Y-10952484D02*
X9484349Y-10952484D01*
X9484349Y-10952484D02*
X9503397Y-10942960D01*
X9503397Y-10942960D02*
X9512920Y-10923912D01*
X9512920Y-10923912D02*
X9512920Y-10914389D01*
X9512920Y-10914389D02*
X9503397Y-10895341D01*
X9503397Y-10895341D02*
X9484349Y-10885817D01*
X9484349Y-10885817D02*
X9455777Y-10885817D01*
X9455777Y-10885817D02*
X9436730Y-10876293D01*
X9436730Y-10876293D02*
X9427206Y-10857246D01*
X9427206Y-10857246D02*
X9427206Y-10847722D01*
X9427206Y-10847722D02*
X9436730Y-10828674D01*
X9436730Y-10828674D02*
X9455777Y-10819150D01*
X9455777Y-10819150D02*
X9484349Y-10819150D01*
X9484349Y-10819150D02*
X9503397Y-10828674D01*
X9579587Y-11028674D02*
X9589111Y-11019150D01*
X9589111Y-11019150D02*
X9608158Y-10990579D01*
X9608158Y-10990579D02*
X9617682Y-10971531D01*
X9617682Y-10971531D02*
X9627206Y-10942960D01*
X9627206Y-10942960D02*
X9636730Y-10895341D01*
X9636730Y-10895341D02*
X9636730Y-10857246D01*
X9636730Y-10857246D02*
X9627206Y-10809627D01*
X9627206Y-10809627D02*
X9617682Y-10781055D01*
X9617682Y-10781055D02*
X9608158Y-10762008D01*
X9608158Y-10762008D02*
X9589111Y-10733436D01*
X9589111Y-10733436D02*
X9579587Y-10723912D01*
D15*
X2885000Y-11070000D02*
X2995000Y-11180000D01*
X2995000Y-11070000D02*
X2885000Y-11180000D01*
X2995000Y-11125000D02*
G75*
G03*
X2995000Y-11125000I-55000J0D01*
G01*
D11*
X3360539Y-11216484D02*
X3246253Y-11216484D01*
X3303396Y-11216484D02*
X3303396Y-11016484D01*
X3303396Y-11016484D02*
X3284348Y-11045055D01*
X3284348Y-11045055D02*
X3265301Y-11064103D01*
X3265301Y-11064103D02*
X3246253Y-11073627D01*
X3446253Y-11197436D02*
X3455777Y-11206960D01*
X3455777Y-11206960D02*
X3446253Y-11216484D01*
X3446253Y-11216484D02*
X3436729Y-11206960D01*
X3436729Y-11206960D02*
X3446253Y-11197436D01*
X3446253Y-11197436D02*
X3446253Y-11216484D01*
X3646253Y-11216484D02*
X3531967Y-11216484D01*
X3589110Y-11216484D02*
X3589110Y-11016484D01*
X3589110Y-11016484D02*
X3570062Y-11045055D01*
X3570062Y-11045055D02*
X3551015Y-11064103D01*
X3551015Y-11064103D02*
X3531967Y-11073627D01*
X3770062Y-11016484D02*
X3789110Y-11016484D01*
X3789110Y-11016484D02*
X3808158Y-11026008D01*
X3808158Y-11026008D02*
X3817682Y-11035531D01*
X3817682Y-11035531D02*
X3827205Y-11054579D01*
X3827205Y-11054579D02*
X3836729Y-11092674D01*
X3836729Y-11092674D02*
X3836729Y-11140293D01*
X3836729Y-11140293D02*
X3827205Y-11178389D01*
X3827205Y-11178389D02*
X3817682Y-11197436D01*
X3817682Y-11197436D02*
X3808158Y-11206960D01*
X3808158Y-11206960D02*
X3789110Y-11216484D01*
X3789110Y-11216484D02*
X3770062Y-11216484D01*
X3770062Y-11216484D02*
X3751015Y-11206960D01*
X3751015Y-11206960D02*
X3741491Y-11197436D01*
X3741491Y-11197436D02*
X3731967Y-11178389D01*
X3731967Y-11178389D02*
X3722443Y-11140293D01*
X3722443Y-11140293D02*
X3722443Y-11092674D01*
X3722443Y-11092674D02*
X3731967Y-11054579D01*
X3731967Y-11054579D02*
X3741491Y-11035531D01*
X3741491Y-11035531D02*
X3751015Y-11026008D01*
X3751015Y-11026008D02*
X3770062Y-11016484D01*
X3960539Y-11016484D02*
X3979586Y-11016484D01*
X3979586Y-11016484D02*
X3998634Y-11026008D01*
X3998634Y-11026008D02*
X4008158Y-11035531D01*
X4008158Y-11035531D02*
X4017682Y-11054579D01*
X4017682Y-11054579D02*
X4027205Y-11092674D01*
X4027205Y-11092674D02*
X4027205Y-11140293D01*
X4027205Y-11140293D02*
X4017682Y-11178389D01*
X4017682Y-11178389D02*
X4008158Y-11197436D01*
X4008158Y-11197436D02*
X3998634Y-11206960D01*
X3998634Y-11206960D02*
X3979586Y-11216484D01*
X3979586Y-11216484D02*
X3960539Y-11216484D01*
X3960539Y-11216484D02*
X3941491Y-11206960D01*
X3941491Y-11206960D02*
X3931967Y-11197436D01*
X3931967Y-11197436D02*
X3922443Y-11178389D01*
X3922443Y-11178389D02*
X3912920Y-11140293D01*
X3912920Y-11140293D02*
X3912920Y-11092674D01*
X3912920Y-11092674D02*
X3922443Y-11054579D01*
X3922443Y-11054579D02*
X3931967Y-11035531D01*
X3931967Y-11035531D02*
X3941491Y-11026008D01*
X3941491Y-11026008D02*
X3960539Y-11016484D01*
X4112920Y-11216484D02*
X4112920Y-11083150D01*
X4112920Y-11102198D02*
X4122443Y-11092674D01*
X4122443Y-11092674D02*
X4141491Y-11083150D01*
X4141491Y-11083150D02*
X4170063Y-11083150D01*
X4170063Y-11083150D02*
X4189110Y-11092674D01*
X4189110Y-11092674D02*
X4198634Y-11111722D01*
X4198634Y-11111722D02*
X4198634Y-11216484D01*
X4198634Y-11111722D02*
X4208158Y-11092674D01*
X4208158Y-11092674D02*
X4227205Y-11083150D01*
X4227205Y-11083150D02*
X4255777Y-11083150D01*
X4255777Y-11083150D02*
X4274825Y-11092674D01*
X4274825Y-11092674D02*
X4284348Y-11111722D01*
X4284348Y-11111722D02*
X4284348Y-11216484D01*
X4379586Y-11216484D02*
X4379586Y-11083150D01*
X4379586Y-11102198D02*
X4389110Y-11092674D01*
X4389110Y-11092674D02*
X4408158Y-11083150D01*
X4408158Y-11083150D02*
X4436729Y-11083150D01*
X4436729Y-11083150D02*
X4455777Y-11092674D01*
X4455777Y-11092674D02*
X4465301Y-11111722D01*
X4465301Y-11111722D02*
X4465301Y-11216484D01*
X4465301Y-11111722D02*
X4474825Y-11092674D01*
X4474825Y-11092674D02*
X4493872Y-11083150D01*
X4493872Y-11083150D02*
X4522444Y-11083150D01*
X4522444Y-11083150D02*
X4541491Y-11092674D01*
X4541491Y-11092674D02*
X4551015Y-11111722D01*
X4551015Y-11111722D02*
X4551015Y-11216484D01*
X4941491Y-11006960D02*
X4770063Y-11264103D01*
X5198634Y-11016484D02*
X5217682Y-11016484D01*
X5217682Y-11016484D02*
X5236729Y-11026008D01*
X5236729Y-11026008D02*
X5246253Y-11035531D01*
X5246253Y-11035531D02*
X5255777Y-11054579D01*
X5255777Y-11054579D02*
X5265301Y-11092674D01*
X5265301Y-11092674D02*
X5265301Y-11140293D01*
X5265301Y-11140293D02*
X5255777Y-11178389D01*
X5255777Y-11178389D02*
X5246253Y-11197436D01*
X5246253Y-11197436D02*
X5236729Y-11206960D01*
X5236729Y-11206960D02*
X5217682Y-11216484D01*
X5217682Y-11216484D02*
X5198634Y-11216484D01*
X5198634Y-11216484D02*
X5179587Y-11206960D01*
X5179587Y-11206960D02*
X5170063Y-11197436D01*
X5170063Y-11197436D02*
X5160539Y-11178389D01*
X5160539Y-11178389D02*
X5151015Y-11140293D01*
X5151015Y-11140293D02*
X5151015Y-11092674D01*
X5151015Y-11092674D02*
X5160539Y-11054579D01*
X5160539Y-11054579D02*
X5170063Y-11035531D01*
X5170063Y-11035531D02*
X5179587Y-11026008D01*
X5179587Y-11026008D02*
X5198634Y-11016484D01*
X5351015Y-11197436D02*
X5360539Y-11206960D01*
X5360539Y-11206960D02*
X5351015Y-11216484D01*
X5351015Y-11216484D02*
X5341491Y-11206960D01*
X5341491Y-11206960D02*
X5351015Y-11197436D01*
X5351015Y-11197436D02*
X5351015Y-11216484D01*
X5484348Y-11016484D02*
X5503396Y-11016484D01*
X5503396Y-11016484D02*
X5522444Y-11026008D01*
X5522444Y-11026008D02*
X5531968Y-11035531D01*
X5531968Y-11035531D02*
X5541491Y-11054579D01*
X5541491Y-11054579D02*
X5551015Y-11092674D01*
X5551015Y-11092674D02*
X5551015Y-11140293D01*
X5551015Y-11140293D02*
X5541491Y-11178389D01*
X5541491Y-11178389D02*
X5531968Y-11197436D01*
X5531968Y-11197436D02*
X5522444Y-11206960D01*
X5522444Y-11206960D02*
X5503396Y-11216484D01*
X5503396Y-11216484D02*
X5484348Y-11216484D01*
X5484348Y-11216484D02*
X5465301Y-11206960D01*
X5465301Y-11206960D02*
X5455777Y-11197436D01*
X5455777Y-11197436D02*
X5446253Y-11178389D01*
X5446253Y-11178389D02*
X5436729Y-11140293D01*
X5436729Y-11140293D02*
X5436729Y-11092674D01*
X5436729Y-11092674D02*
X5446253Y-11054579D01*
X5446253Y-11054579D02*
X5455777Y-11035531D01*
X5455777Y-11035531D02*
X5465301Y-11026008D01*
X5465301Y-11026008D02*
X5484348Y-11016484D01*
X5722444Y-11083150D02*
X5722444Y-11216484D01*
X5674825Y-11006960D02*
X5627206Y-11149817D01*
X5627206Y-11149817D02*
X5751015Y-11149817D01*
X5808158Y-11016484D02*
X5931967Y-11016484D01*
X5931967Y-11016484D02*
X5865301Y-11092674D01*
X5865301Y-11092674D02*
X5893872Y-11092674D01*
X5893872Y-11092674D02*
X5912920Y-11102198D01*
X5912920Y-11102198D02*
X5922444Y-11111722D01*
X5922444Y-11111722D02*
X5931967Y-11130770D01*
X5931967Y-11130770D02*
X5931967Y-11178389D01*
X5931967Y-11178389D02*
X5922444Y-11197436D01*
X5922444Y-11197436D02*
X5912920Y-11206960D01*
X5912920Y-11206960D02*
X5893872Y-11216484D01*
X5893872Y-11216484D02*
X5836729Y-11216484D01*
X5836729Y-11216484D02*
X5817682Y-11206960D01*
X5817682Y-11206960D02*
X5808158Y-11197436D01*
X5998634Y-11016484D02*
X6122444Y-11016484D01*
X6122444Y-11016484D02*
X6055777Y-11092674D01*
X6055777Y-11092674D02*
X6084348Y-11092674D01*
X6084348Y-11092674D02*
X6103396Y-11102198D01*
X6103396Y-11102198D02*
X6112920Y-11111722D01*
X6112920Y-11111722D02*
X6122444Y-11130770D01*
X6122444Y-11130770D02*
X6122444Y-11178389D01*
X6122444Y-11178389D02*
X6112920Y-11197436D01*
X6112920Y-11197436D02*
X6103396Y-11206960D01*
X6103396Y-11206960D02*
X6084348Y-11216484D01*
X6084348Y-11216484D02*
X6027206Y-11216484D01*
X6027206Y-11216484D02*
X6008158Y-11206960D01*
X6008158Y-11206960D02*
X5998634Y-11197436D01*
X6198634Y-11016484D02*
X6198634Y-11054579D01*
X6274825Y-11016484D02*
X6274825Y-11054579D01*
X6570063Y-11292674D02*
X6560539Y-11283150D01*
X6560539Y-11283150D02*
X6541491Y-11254579D01*
X6541491Y-11254579D02*
X6531968Y-11235531D01*
X6531968Y-11235531D02*
X6522444Y-11206960D01*
X6522444Y-11206960D02*
X6512920Y-11159341D01*
X6512920Y-11159341D02*
X6512920Y-11121246D01*
X6512920Y-11121246D02*
X6522444Y-11073627D01*
X6522444Y-11073627D02*
X6531968Y-11045055D01*
X6531968Y-11045055D02*
X6541491Y-11026008D01*
X6541491Y-11026008D02*
X6560539Y-10997436D01*
X6560539Y-10997436D02*
X6570063Y-10987912D01*
X6636729Y-11035531D02*
X6646253Y-11026008D01*
X6646253Y-11026008D02*
X6665301Y-11016484D01*
X6665301Y-11016484D02*
X6712920Y-11016484D01*
X6712920Y-11016484D02*
X6731968Y-11026008D01*
X6731968Y-11026008D02*
X6741491Y-11035531D01*
X6741491Y-11035531D02*
X6751015Y-11054579D01*
X6751015Y-11054579D02*
X6751015Y-11073627D01*
X6751015Y-11073627D02*
X6741491Y-11102198D01*
X6741491Y-11102198D02*
X6627206Y-11216484D01*
X6627206Y-11216484D02*
X6751015Y-11216484D01*
X6922444Y-11016484D02*
X6884348Y-11016484D01*
X6884348Y-11016484D02*
X6865301Y-11026008D01*
X6865301Y-11026008D02*
X6855777Y-11035531D01*
X6855777Y-11035531D02*
X6836729Y-11064103D01*
X6836729Y-11064103D02*
X6827206Y-11102198D01*
X6827206Y-11102198D02*
X6827206Y-11178389D01*
X6827206Y-11178389D02*
X6836729Y-11197436D01*
X6836729Y-11197436D02*
X6846253Y-11206960D01*
X6846253Y-11206960D02*
X6865301Y-11216484D01*
X6865301Y-11216484D02*
X6903396Y-11216484D01*
X6903396Y-11216484D02*
X6922444Y-11206960D01*
X6922444Y-11206960D02*
X6931968Y-11197436D01*
X6931968Y-11197436D02*
X6941491Y-11178389D01*
X6941491Y-11178389D02*
X6941491Y-11130770D01*
X6941491Y-11130770D02*
X6931968Y-11111722D01*
X6931968Y-11111722D02*
X6922444Y-11102198D01*
X6922444Y-11102198D02*
X6903396Y-11092674D01*
X6903396Y-11092674D02*
X6865301Y-11092674D01*
X6865301Y-11092674D02*
X6846253Y-11102198D01*
X6846253Y-11102198D02*
X6836729Y-11111722D01*
X6836729Y-11111722D02*
X6827206Y-11130770D01*
X7179587Y-11216484D02*
X7179587Y-11016484D01*
X7265301Y-11216484D02*
X7265301Y-11111722D01*
X7265301Y-11111722D02*
X7255777Y-11092674D01*
X7255777Y-11092674D02*
X7236730Y-11083150D01*
X7236730Y-11083150D02*
X7208158Y-11083150D01*
X7208158Y-11083150D02*
X7189110Y-11092674D01*
X7189110Y-11092674D02*
X7179587Y-11102198D01*
X7389110Y-11216484D02*
X7370063Y-11206960D01*
X7370063Y-11206960D02*
X7360539Y-11197436D01*
X7360539Y-11197436D02*
X7351015Y-11178389D01*
X7351015Y-11178389D02*
X7351015Y-11121246D01*
X7351015Y-11121246D02*
X7360539Y-11102198D01*
X7360539Y-11102198D02*
X7370063Y-11092674D01*
X7370063Y-11092674D02*
X7389110Y-11083150D01*
X7389110Y-11083150D02*
X7417682Y-11083150D01*
X7417682Y-11083150D02*
X7436730Y-11092674D01*
X7436730Y-11092674D02*
X7446253Y-11102198D01*
X7446253Y-11102198D02*
X7455777Y-11121246D01*
X7455777Y-11121246D02*
X7455777Y-11178389D01*
X7455777Y-11178389D02*
X7446253Y-11197436D01*
X7446253Y-11197436D02*
X7436730Y-11206960D01*
X7436730Y-11206960D02*
X7417682Y-11216484D01*
X7417682Y-11216484D02*
X7389110Y-11216484D01*
X7570063Y-11216484D02*
X7551015Y-11206960D01*
X7551015Y-11206960D02*
X7541491Y-11187912D01*
X7541491Y-11187912D02*
X7541491Y-11016484D01*
X7722444Y-11206960D02*
X7703396Y-11216484D01*
X7703396Y-11216484D02*
X7665301Y-11216484D01*
X7665301Y-11216484D02*
X7646253Y-11206960D01*
X7646253Y-11206960D02*
X7636730Y-11187912D01*
X7636730Y-11187912D02*
X7636730Y-11111722D01*
X7636730Y-11111722D02*
X7646253Y-11092674D01*
X7646253Y-11092674D02*
X7665301Y-11083150D01*
X7665301Y-11083150D02*
X7703396Y-11083150D01*
X7703396Y-11083150D02*
X7722444Y-11092674D01*
X7722444Y-11092674D02*
X7731968Y-11111722D01*
X7731968Y-11111722D02*
X7731968Y-11130770D01*
X7731968Y-11130770D02*
X7636730Y-11149817D01*
X7808158Y-11206960D02*
X7827206Y-11216484D01*
X7827206Y-11216484D02*
X7865301Y-11216484D01*
X7865301Y-11216484D02*
X7884349Y-11206960D01*
X7884349Y-11206960D02*
X7893872Y-11187912D01*
X7893872Y-11187912D02*
X7893872Y-11178389D01*
X7893872Y-11178389D02*
X7884349Y-11159341D01*
X7884349Y-11159341D02*
X7865301Y-11149817D01*
X7865301Y-11149817D02*
X7836730Y-11149817D01*
X7836730Y-11149817D02*
X7817682Y-11140293D01*
X7817682Y-11140293D02*
X7808158Y-11121246D01*
X7808158Y-11121246D02*
X7808158Y-11111722D01*
X7808158Y-11111722D02*
X7817682Y-11092674D01*
X7817682Y-11092674D02*
X7836730Y-11083150D01*
X7836730Y-11083150D02*
X7865301Y-11083150D01*
X7865301Y-11083150D02*
X7884349Y-11092674D01*
X7960539Y-11292674D02*
X7970063Y-11283150D01*
X7970063Y-11283150D02*
X7989111Y-11254579D01*
X7989111Y-11254579D02*
X7998634Y-11235531D01*
X7998634Y-11235531D02*
X8008158Y-11206960D01*
X8008158Y-11206960D02*
X8017682Y-11159341D01*
X8017682Y-11159341D02*
X8017682Y-11121246D01*
X8017682Y-11121246D02*
X8008158Y-11073627D01*
X8008158Y-11073627D02*
X7998634Y-11045055D01*
X7998634Y-11045055D02*
X7989111Y-11026008D01*
X7989111Y-11026008D02*
X7970063Y-10997436D01*
X7970063Y-10997436D02*
X7960539Y-10987912D01*
D16*
X2845000Y-11314000D02*
X2995000Y-11464000D01*
X2995000Y-11314000D02*
X2845000Y-11464000D01*
X2920000Y-11314000D02*
X2920000Y-11464000D01*
X2845000Y-11389000D02*
X2995000Y-11389000D01*
D11*
X3360539Y-11480484D02*
X3246253Y-11480484D01*
X3303396Y-11480484D02*
X3303396Y-11280484D01*
X3303396Y-11280484D02*
X3284348Y-11309055D01*
X3284348Y-11309055D02*
X3265301Y-11328103D01*
X3265301Y-11328103D02*
X3246253Y-11337627D01*
X3446253Y-11461436D02*
X3455777Y-11470960D01*
X3455777Y-11470960D02*
X3446253Y-11480484D01*
X3446253Y-11480484D02*
X3436729Y-11470960D01*
X3436729Y-11470960D02*
X3446253Y-11461436D01*
X3446253Y-11461436D02*
X3446253Y-11480484D01*
X3636729Y-11280484D02*
X3541491Y-11280484D01*
X3541491Y-11280484D02*
X3531967Y-11375722D01*
X3531967Y-11375722D02*
X3541491Y-11366198D01*
X3541491Y-11366198D02*
X3560539Y-11356674D01*
X3560539Y-11356674D02*
X3608158Y-11356674D01*
X3608158Y-11356674D02*
X3627205Y-11366198D01*
X3627205Y-11366198D02*
X3636729Y-11375722D01*
X3636729Y-11375722D02*
X3646253Y-11394769D01*
X3646253Y-11394769D02*
X3646253Y-11442388D01*
X3646253Y-11442388D02*
X3636729Y-11461436D01*
X3636729Y-11461436D02*
X3627205Y-11470960D01*
X3627205Y-11470960D02*
X3608158Y-11480484D01*
X3608158Y-11480484D02*
X3560539Y-11480484D01*
X3560539Y-11480484D02*
X3541491Y-11470960D01*
X3541491Y-11470960D02*
X3531967Y-11461436D01*
X3770062Y-11280484D02*
X3789110Y-11280484D01*
X3789110Y-11280484D02*
X3808158Y-11290008D01*
X3808158Y-11290008D02*
X3817682Y-11299531D01*
X3817682Y-11299531D02*
X3827205Y-11318579D01*
X3827205Y-11318579D02*
X3836729Y-11356674D01*
X3836729Y-11356674D02*
X3836729Y-11404293D01*
X3836729Y-11404293D02*
X3827205Y-11442388D01*
X3827205Y-11442388D02*
X3817682Y-11461436D01*
X3817682Y-11461436D02*
X3808158Y-11470960D01*
X3808158Y-11470960D02*
X3789110Y-11480484D01*
X3789110Y-11480484D02*
X3770062Y-11480484D01*
X3770062Y-11480484D02*
X3751015Y-11470960D01*
X3751015Y-11470960D02*
X3741491Y-11461436D01*
X3741491Y-11461436D02*
X3731967Y-11442388D01*
X3731967Y-11442388D02*
X3722443Y-11404293D01*
X3722443Y-11404293D02*
X3722443Y-11356674D01*
X3722443Y-11356674D02*
X3731967Y-11318579D01*
X3731967Y-11318579D02*
X3741491Y-11299531D01*
X3741491Y-11299531D02*
X3751015Y-11290008D01*
X3751015Y-11290008D02*
X3770062Y-11280484D01*
X3960539Y-11280484D02*
X3979586Y-11280484D01*
X3979586Y-11280484D02*
X3998634Y-11290008D01*
X3998634Y-11290008D02*
X4008158Y-11299531D01*
X4008158Y-11299531D02*
X4017682Y-11318579D01*
X4017682Y-11318579D02*
X4027205Y-11356674D01*
X4027205Y-11356674D02*
X4027205Y-11404293D01*
X4027205Y-11404293D02*
X4017682Y-11442388D01*
X4017682Y-11442388D02*
X4008158Y-11461436D01*
X4008158Y-11461436D02*
X3998634Y-11470960D01*
X3998634Y-11470960D02*
X3979586Y-11480484D01*
X3979586Y-11480484D02*
X3960539Y-11480484D01*
X3960539Y-11480484D02*
X3941491Y-11470960D01*
X3941491Y-11470960D02*
X3931967Y-11461436D01*
X3931967Y-11461436D02*
X3922443Y-11442388D01*
X3922443Y-11442388D02*
X3912920Y-11404293D01*
X3912920Y-11404293D02*
X3912920Y-11356674D01*
X3912920Y-11356674D02*
X3922443Y-11318579D01*
X3922443Y-11318579D02*
X3931967Y-11299531D01*
X3931967Y-11299531D02*
X3941491Y-11290008D01*
X3941491Y-11290008D02*
X3960539Y-11280484D01*
X4112920Y-11480484D02*
X4112920Y-11347150D01*
X4112920Y-11366198D02*
X4122443Y-11356674D01*
X4122443Y-11356674D02*
X4141491Y-11347150D01*
X4141491Y-11347150D02*
X4170063Y-11347150D01*
X4170063Y-11347150D02*
X4189110Y-11356674D01*
X4189110Y-11356674D02*
X4198634Y-11375722D01*
X4198634Y-11375722D02*
X4198634Y-11480484D01*
X4198634Y-11375722D02*
X4208158Y-11356674D01*
X4208158Y-11356674D02*
X4227205Y-11347150D01*
X4227205Y-11347150D02*
X4255777Y-11347150D01*
X4255777Y-11347150D02*
X4274825Y-11356674D01*
X4274825Y-11356674D02*
X4284348Y-11375722D01*
X4284348Y-11375722D02*
X4284348Y-11480484D01*
X4379586Y-11480484D02*
X4379586Y-11347150D01*
X4379586Y-11366198D02*
X4389110Y-11356674D01*
X4389110Y-11356674D02*
X4408158Y-11347150D01*
X4408158Y-11347150D02*
X4436729Y-11347150D01*
X4436729Y-11347150D02*
X4455777Y-11356674D01*
X4455777Y-11356674D02*
X4465301Y-11375722D01*
X4465301Y-11375722D02*
X4465301Y-11480484D01*
X4465301Y-11375722D02*
X4474825Y-11356674D01*
X4474825Y-11356674D02*
X4493872Y-11347150D01*
X4493872Y-11347150D02*
X4522444Y-11347150D01*
X4522444Y-11347150D02*
X4541491Y-11356674D01*
X4541491Y-11356674D02*
X4551015Y-11375722D01*
X4551015Y-11375722D02*
X4551015Y-11480484D01*
X4941491Y-11270960D02*
X4770063Y-11528103D01*
X5198634Y-11280484D02*
X5217682Y-11280484D01*
X5217682Y-11280484D02*
X5236729Y-11290008D01*
X5236729Y-11290008D02*
X5246253Y-11299531D01*
X5246253Y-11299531D02*
X5255777Y-11318579D01*
X5255777Y-11318579D02*
X5265301Y-11356674D01*
X5265301Y-11356674D02*
X5265301Y-11404293D01*
X5265301Y-11404293D02*
X5255777Y-11442388D01*
X5255777Y-11442388D02*
X5246253Y-11461436D01*
X5246253Y-11461436D02*
X5236729Y-11470960D01*
X5236729Y-11470960D02*
X5217682Y-11480484D01*
X5217682Y-11480484D02*
X5198634Y-11480484D01*
X5198634Y-11480484D02*
X5179587Y-11470960D01*
X5179587Y-11470960D02*
X5170063Y-11461436D01*
X5170063Y-11461436D02*
X5160539Y-11442388D01*
X5160539Y-11442388D02*
X5151015Y-11404293D01*
X5151015Y-11404293D02*
X5151015Y-11356674D01*
X5151015Y-11356674D02*
X5160539Y-11318579D01*
X5160539Y-11318579D02*
X5170063Y-11299531D01*
X5170063Y-11299531D02*
X5179587Y-11290008D01*
X5179587Y-11290008D02*
X5198634Y-11280484D01*
X5351015Y-11461436D02*
X5360539Y-11470960D01*
X5360539Y-11470960D02*
X5351015Y-11480484D01*
X5351015Y-11480484D02*
X5341491Y-11470960D01*
X5341491Y-11470960D02*
X5351015Y-11461436D01*
X5351015Y-11461436D02*
X5351015Y-11480484D01*
X5484348Y-11280484D02*
X5503396Y-11280484D01*
X5503396Y-11280484D02*
X5522444Y-11290008D01*
X5522444Y-11290008D02*
X5531968Y-11299531D01*
X5531968Y-11299531D02*
X5541491Y-11318579D01*
X5541491Y-11318579D02*
X5551015Y-11356674D01*
X5551015Y-11356674D02*
X5551015Y-11404293D01*
X5551015Y-11404293D02*
X5541491Y-11442388D01*
X5541491Y-11442388D02*
X5531968Y-11461436D01*
X5531968Y-11461436D02*
X5522444Y-11470960D01*
X5522444Y-11470960D02*
X5503396Y-11480484D01*
X5503396Y-11480484D02*
X5484348Y-11480484D01*
X5484348Y-11480484D02*
X5465301Y-11470960D01*
X5465301Y-11470960D02*
X5455777Y-11461436D01*
X5455777Y-11461436D02*
X5446253Y-11442388D01*
X5446253Y-11442388D02*
X5436729Y-11404293D01*
X5436729Y-11404293D02*
X5436729Y-11356674D01*
X5436729Y-11356674D02*
X5446253Y-11318579D01*
X5446253Y-11318579D02*
X5455777Y-11299531D01*
X5455777Y-11299531D02*
X5465301Y-11290008D01*
X5465301Y-11290008D02*
X5484348Y-11280484D01*
X5731967Y-11280484D02*
X5636729Y-11280484D01*
X5636729Y-11280484D02*
X5627206Y-11375722D01*
X5627206Y-11375722D02*
X5636729Y-11366198D01*
X5636729Y-11366198D02*
X5655777Y-11356674D01*
X5655777Y-11356674D02*
X5703396Y-11356674D01*
X5703396Y-11356674D02*
X5722444Y-11366198D01*
X5722444Y-11366198D02*
X5731967Y-11375722D01*
X5731967Y-11375722D02*
X5741491Y-11394769D01*
X5741491Y-11394769D02*
X5741491Y-11442388D01*
X5741491Y-11442388D02*
X5731967Y-11461436D01*
X5731967Y-11461436D02*
X5722444Y-11470960D01*
X5722444Y-11470960D02*
X5703396Y-11480484D01*
X5703396Y-11480484D02*
X5655777Y-11480484D01*
X5655777Y-11480484D02*
X5636729Y-11470960D01*
X5636729Y-11470960D02*
X5627206Y-11461436D01*
X5836729Y-11480484D02*
X5874825Y-11480484D01*
X5874825Y-11480484D02*
X5893872Y-11470960D01*
X5893872Y-11470960D02*
X5903396Y-11461436D01*
X5903396Y-11461436D02*
X5922444Y-11432865D01*
X5922444Y-11432865D02*
X5931967Y-11394769D01*
X5931967Y-11394769D02*
X5931967Y-11318579D01*
X5931967Y-11318579D02*
X5922444Y-11299531D01*
X5922444Y-11299531D02*
X5912920Y-11290008D01*
X5912920Y-11290008D02*
X5893872Y-11280484D01*
X5893872Y-11280484D02*
X5855777Y-11280484D01*
X5855777Y-11280484D02*
X5836729Y-11290008D01*
X5836729Y-11290008D02*
X5827206Y-11299531D01*
X5827206Y-11299531D02*
X5817682Y-11318579D01*
X5817682Y-11318579D02*
X5817682Y-11366198D01*
X5817682Y-11366198D02*
X5827206Y-11385246D01*
X5827206Y-11385246D02*
X5836729Y-11394769D01*
X5836729Y-11394769D02*
X5855777Y-11404293D01*
X5855777Y-11404293D02*
X5893872Y-11404293D01*
X5893872Y-11404293D02*
X5912920Y-11394769D01*
X5912920Y-11394769D02*
X5922444Y-11385246D01*
X5922444Y-11385246D02*
X5931967Y-11366198D01*
X6122444Y-11480484D02*
X6008158Y-11480484D01*
X6065301Y-11480484D02*
X6065301Y-11280484D01*
X6065301Y-11280484D02*
X6046253Y-11309055D01*
X6046253Y-11309055D02*
X6027206Y-11328103D01*
X6027206Y-11328103D02*
X6008158Y-11337627D01*
X6198634Y-11280484D02*
X6198634Y-11318579D01*
X6274825Y-11280484D02*
X6274825Y-11318579D01*
X6570063Y-11556674D02*
X6560539Y-11547150D01*
X6560539Y-11547150D02*
X6541491Y-11518579D01*
X6541491Y-11518579D02*
X6531968Y-11499531D01*
X6531968Y-11499531D02*
X6522444Y-11470960D01*
X6522444Y-11470960D02*
X6512920Y-11423341D01*
X6512920Y-11423341D02*
X6512920Y-11385246D01*
X6512920Y-11385246D02*
X6522444Y-11337627D01*
X6522444Y-11337627D02*
X6531968Y-11309055D01*
X6531968Y-11309055D02*
X6541491Y-11290008D01*
X6541491Y-11290008D02*
X6560539Y-11261436D01*
X6560539Y-11261436D02*
X6570063Y-11251912D01*
X6684348Y-11280484D02*
X6703396Y-11280484D01*
X6703396Y-11280484D02*
X6722444Y-11290008D01*
X6722444Y-11290008D02*
X6731968Y-11299531D01*
X6731968Y-11299531D02*
X6741491Y-11318579D01*
X6741491Y-11318579D02*
X6751015Y-11356674D01*
X6751015Y-11356674D02*
X6751015Y-11404293D01*
X6751015Y-11404293D02*
X6741491Y-11442388D01*
X6741491Y-11442388D02*
X6731968Y-11461436D01*
X6731968Y-11461436D02*
X6722444Y-11470960D01*
X6722444Y-11470960D02*
X6703396Y-11480484D01*
X6703396Y-11480484D02*
X6684348Y-11480484D01*
X6684348Y-11480484D02*
X6665301Y-11470960D01*
X6665301Y-11470960D02*
X6655777Y-11461436D01*
X6655777Y-11461436D02*
X6646253Y-11442388D01*
X6646253Y-11442388D02*
X6636729Y-11404293D01*
X6636729Y-11404293D02*
X6636729Y-11356674D01*
X6636729Y-11356674D02*
X6646253Y-11318579D01*
X6646253Y-11318579D02*
X6655777Y-11299531D01*
X6655777Y-11299531D02*
X6665301Y-11290008D01*
X6665301Y-11290008D02*
X6684348Y-11280484D01*
X6989110Y-11480484D02*
X6989110Y-11280484D01*
X7074825Y-11480484D02*
X7074825Y-11375722D01*
X7074825Y-11375722D02*
X7065301Y-11356674D01*
X7065301Y-11356674D02*
X7046253Y-11347150D01*
X7046253Y-11347150D02*
X7017682Y-11347150D01*
X7017682Y-11347150D02*
X6998634Y-11356674D01*
X6998634Y-11356674D02*
X6989110Y-11366198D01*
X7198634Y-11480484D02*
X7179587Y-11470960D01*
X7179587Y-11470960D02*
X7170063Y-11461436D01*
X7170063Y-11461436D02*
X7160539Y-11442388D01*
X7160539Y-11442388D02*
X7160539Y-11385246D01*
X7160539Y-11385246D02*
X7170063Y-11366198D01*
X7170063Y-11366198D02*
X7179587Y-11356674D01*
X7179587Y-11356674D02*
X7198634Y-11347150D01*
X7198634Y-11347150D02*
X7227206Y-11347150D01*
X7227206Y-11347150D02*
X7246253Y-11356674D01*
X7246253Y-11356674D02*
X7255777Y-11366198D01*
X7255777Y-11366198D02*
X7265301Y-11385246D01*
X7265301Y-11385246D02*
X7265301Y-11442388D01*
X7265301Y-11442388D02*
X7255777Y-11461436D01*
X7255777Y-11461436D02*
X7246253Y-11470960D01*
X7246253Y-11470960D02*
X7227206Y-11480484D01*
X7227206Y-11480484D02*
X7198634Y-11480484D01*
X7379587Y-11480484D02*
X7360539Y-11470960D01*
X7360539Y-11470960D02*
X7351015Y-11451912D01*
X7351015Y-11451912D02*
X7351015Y-11280484D01*
X7531968Y-11470960D02*
X7512920Y-11480484D01*
X7512920Y-11480484D02*
X7474825Y-11480484D01*
X7474825Y-11480484D02*
X7455777Y-11470960D01*
X7455777Y-11470960D02*
X7446253Y-11451912D01*
X7446253Y-11451912D02*
X7446253Y-11375722D01*
X7446253Y-11375722D02*
X7455777Y-11356674D01*
X7455777Y-11356674D02*
X7474825Y-11347150D01*
X7474825Y-11347150D02*
X7512920Y-11347150D01*
X7512920Y-11347150D02*
X7531968Y-11356674D01*
X7531968Y-11356674D02*
X7541491Y-11375722D01*
X7541491Y-11375722D02*
X7541491Y-11394769D01*
X7541491Y-11394769D02*
X7446253Y-11413817D01*
X7617682Y-11470960D02*
X7636730Y-11480484D01*
X7636730Y-11480484D02*
X7674825Y-11480484D01*
X7674825Y-11480484D02*
X7693872Y-11470960D01*
X7693872Y-11470960D02*
X7703396Y-11451912D01*
X7703396Y-11451912D02*
X7703396Y-11442388D01*
X7703396Y-11442388D02*
X7693872Y-11423341D01*
X7693872Y-11423341D02*
X7674825Y-11413817D01*
X7674825Y-11413817D02*
X7646253Y-11413817D01*
X7646253Y-11413817D02*
X7627206Y-11404293D01*
X7627206Y-11404293D02*
X7617682Y-11385246D01*
X7617682Y-11385246D02*
X7617682Y-11375722D01*
X7617682Y-11375722D02*
X7627206Y-11356674D01*
X7627206Y-11356674D02*
X7646253Y-11347150D01*
X7646253Y-11347150D02*
X7674825Y-11347150D01*
X7674825Y-11347150D02*
X7693872Y-11356674D01*
X7941492Y-11404293D02*
X8093873Y-11404293D01*
X8017682Y-11480484D02*
X8017682Y-11328103D01*
X8331968Y-11299531D02*
X8341492Y-11290008D01*
X8341492Y-11290008D02*
X8360539Y-11280484D01*
X8360539Y-11280484D02*
X8408158Y-11280484D01*
X8408158Y-11280484D02*
X8427206Y-11290008D01*
X8427206Y-11290008D02*
X8436730Y-11299531D01*
X8436730Y-11299531D02*
X8446254Y-11318579D01*
X8446254Y-11318579D02*
X8446254Y-11337627D01*
X8446254Y-11337627D02*
X8436730Y-11366198D01*
X8436730Y-11366198D02*
X8322444Y-11480484D01*
X8322444Y-11480484D02*
X8446254Y-11480484D01*
X8674825Y-11470960D02*
X8693873Y-11480484D01*
X8693873Y-11480484D02*
X8731968Y-11480484D01*
X8731968Y-11480484D02*
X8751016Y-11470960D01*
X8751016Y-11470960D02*
X8760539Y-11451912D01*
X8760539Y-11451912D02*
X8760539Y-11442388D01*
X8760539Y-11442388D02*
X8751016Y-11423341D01*
X8751016Y-11423341D02*
X8731968Y-11413817D01*
X8731968Y-11413817D02*
X8703396Y-11413817D01*
X8703396Y-11413817D02*
X8684349Y-11404293D01*
X8684349Y-11404293D02*
X8674825Y-11385246D01*
X8674825Y-11385246D02*
X8674825Y-11375722D01*
X8674825Y-11375722D02*
X8684349Y-11356674D01*
X8684349Y-11356674D02*
X8703396Y-11347150D01*
X8703396Y-11347150D02*
X8731968Y-11347150D01*
X8731968Y-11347150D02*
X8751016Y-11356674D01*
X8874825Y-11480484D02*
X8855777Y-11470960D01*
X8855777Y-11470960D02*
X8846254Y-11451912D01*
X8846254Y-11451912D02*
X8846254Y-11280484D01*
X8979587Y-11480484D02*
X8960539Y-11470960D01*
X8960539Y-11470960D02*
X8951016Y-11461436D01*
X8951016Y-11461436D02*
X8941492Y-11442388D01*
X8941492Y-11442388D02*
X8941492Y-11385246D01*
X8941492Y-11385246D02*
X8951016Y-11366198D01*
X8951016Y-11366198D02*
X8960539Y-11356674D01*
X8960539Y-11356674D02*
X8979587Y-11347150D01*
X8979587Y-11347150D02*
X9008158Y-11347150D01*
X9008158Y-11347150D02*
X9027206Y-11356674D01*
X9027206Y-11356674D02*
X9036730Y-11366198D01*
X9036730Y-11366198D02*
X9046254Y-11385246D01*
X9046254Y-11385246D02*
X9046254Y-11442388D01*
X9046254Y-11442388D02*
X9036730Y-11461436D01*
X9036730Y-11461436D02*
X9027206Y-11470960D01*
X9027206Y-11470960D02*
X9008158Y-11480484D01*
X9008158Y-11480484D02*
X8979587Y-11480484D01*
X9103397Y-11347150D02*
X9179587Y-11347150D01*
X9131968Y-11280484D02*
X9131968Y-11451912D01*
X9131968Y-11451912D02*
X9141492Y-11470960D01*
X9141492Y-11470960D02*
X9160539Y-11480484D01*
X9160539Y-11480484D02*
X9179587Y-11480484D01*
X9236730Y-11470960D02*
X9255777Y-11480484D01*
X9255777Y-11480484D02*
X9293873Y-11480484D01*
X9293873Y-11480484D02*
X9312920Y-11470960D01*
X9312920Y-11470960D02*
X9322444Y-11451912D01*
X9322444Y-11451912D02*
X9322444Y-11442388D01*
X9322444Y-11442388D02*
X9312920Y-11423341D01*
X9312920Y-11423341D02*
X9293873Y-11413817D01*
X9293873Y-11413817D02*
X9265301Y-11413817D01*
X9265301Y-11413817D02*
X9246254Y-11404293D01*
X9246254Y-11404293D02*
X9236730Y-11385246D01*
X9236730Y-11385246D02*
X9236730Y-11375722D01*
X9236730Y-11375722D02*
X9246254Y-11356674D01*
X9246254Y-11356674D02*
X9265301Y-11347150D01*
X9265301Y-11347150D02*
X9293873Y-11347150D01*
X9293873Y-11347150D02*
X9312920Y-11356674D01*
X9389111Y-11556674D02*
X9398635Y-11547150D01*
X9398635Y-11547150D02*
X9417682Y-11518579D01*
X9417682Y-11518579D02*
X9427206Y-11499531D01*
X9427206Y-11499531D02*
X9436730Y-11470960D01*
X9436730Y-11470960D02*
X9446254Y-11423341D01*
X9446254Y-11423341D02*
X9446254Y-11385246D01*
X9446254Y-11385246D02*
X9436730Y-11337627D01*
X9436730Y-11337627D02*
X9427206Y-11309055D01*
X9427206Y-11309055D02*
X9417682Y-11290008D01*
X9417682Y-11290008D02*
X9398635Y-11261436D01*
X9398635Y-11261436D02*
X9389111Y-11251912D01*
M02*
