G04 #@! TF.GenerationSoftware,KiCad,Pcbnew,7.0.6-7.0.6~ubuntu20.04.1*
G04 #@! TF.CreationDate,2023-10-06T02:11:44+00:00*
G04 #@! TF.ProjectId,Seismos_CoreL,53656973-6d6f-4735-9f43-6f72654c2e6b,rev?*
G04 #@! TF.SameCoordinates,Original*
G04 #@! TF.FileFunction,Paste,Bot*
G04 #@! TF.FilePolarity,Positive*
%FSLAX46Y46*%
G04 Gerber Fmt 4.6, Leading zero omitted, Abs format (unit mm)*
G04 Created by KiCad (PCBNEW 7.0.6-7.0.6~ubuntu20.04.1) date 2023-10-06 02:11:44*
%MOMM*%
%LPD*%
G01*
G04 APERTURE LIST*
%ADD10R,0.600000X1.550000*%
%ADD11R,1.200000X1.800000*%
%ADD12R,1.550000X1.000000*%
G04 APERTURE END LIST*
D10*
X35500000Y-25375000D03*
X36500000Y-25375000D03*
X37500000Y-25375000D03*
X38500000Y-25375000D03*
X39500000Y-25375000D03*
X40500000Y-25375000D03*
X41500000Y-25375000D03*
X42500000Y-25375000D03*
X43500000Y-25375000D03*
D11*
X34200000Y-21500000D03*
X44800000Y-21500000D03*
D10*
X54800000Y-25375000D03*
X55800000Y-25375000D03*
X56800000Y-25375000D03*
X57800000Y-25375000D03*
X58800000Y-25375000D03*
X59800000Y-25375000D03*
X60800000Y-25375000D03*
X61800000Y-25375000D03*
X62800000Y-25375000D03*
D11*
X53500000Y-21500000D03*
X64100000Y-21500000D03*
D12*
X153250000Y-23899500D03*
X153250000Y-22199500D03*
X148050000Y-23899500D03*
X148050000Y-22199500D03*
D10*
X132000000Y-25375000D03*
X133000000Y-25375000D03*
X134000000Y-25375000D03*
X135000000Y-25375000D03*
X136000000Y-25375000D03*
X137000000Y-25375000D03*
X138000000Y-25375000D03*
X139000000Y-25375000D03*
X140000000Y-25375000D03*
D11*
X130700000Y-21500000D03*
X141300000Y-21500000D03*
D10*
X93400000Y-25375000D03*
X94400000Y-25375000D03*
X95400000Y-25375000D03*
X96400000Y-25375000D03*
X97400000Y-25375000D03*
X98400000Y-25375000D03*
X99400000Y-25375000D03*
X100400000Y-25375000D03*
X101400000Y-25375000D03*
D11*
X92100000Y-21500000D03*
X102700000Y-21500000D03*
D10*
X74100000Y-25375000D03*
X75100000Y-25375000D03*
X76100000Y-25375000D03*
X77100000Y-25375000D03*
X78100000Y-25375000D03*
X79100000Y-25375000D03*
X80100000Y-25375000D03*
X81100000Y-25375000D03*
X82100000Y-25375000D03*
D11*
X72800000Y-21500000D03*
X83400000Y-21500000D03*
D10*
X112700000Y-25375000D03*
X113700000Y-25375000D03*
X114700000Y-25375000D03*
X115700000Y-25375000D03*
X116700000Y-25375000D03*
X117700000Y-25375000D03*
X118700000Y-25375000D03*
X119700000Y-25375000D03*
X120700000Y-25375000D03*
D11*
X111400000Y-21500000D03*
X122000000Y-21500000D03*
M02*
