G04 #@! TF.GenerationSoftware,KiCad,Pcbnew,7.0.6-7.0.6~ubuntu20.04.1*
G04 #@! TF.CreationDate,2023-10-06T02:11:44+00:00*
G04 #@! TF.ProjectId,Seismos_CoreL,53656973-6d6f-4735-9f43-6f72654c2e6b,rev?*
G04 #@! TF.SameCoordinates,Original*
G04 #@! TF.FileFunction,Legend,Top*
G04 #@! TF.FilePolarity,Positive*
%FSLAX46Y46*%
G04 Gerber Fmt 4.6, Leading zero omitted, Abs format (unit mm)*
G04 Created by KiCad (PCBNEW 7.0.6-7.0.6~ubuntu20.04.1) date 2023-10-06 02:11:44*
%MOMM*%
%LPD*%
G01*
G04 APERTURE LIST*
G04 Aperture macros list*
%AMRoundRect*
0 Rectangle with rounded corners*
0 $1 Rounding radius*
0 $2 $3 $4 $5 $6 $7 $8 $9 X,Y pos of 4 corners*
0 Add a 4 corners polygon primitive as box body*
4,1,4,$2,$3,$4,$5,$6,$7,$8,$9,$2,$3,0*
0 Add four circle primitives for the rounded corners*
1,1,$1+$1,$2,$3*
1,1,$1+$1,$4,$5*
1,1,$1+$1,$6,$7*
1,1,$1+$1,$8,$9*
0 Add four rect primitives between the rounded corners*
20,1,$1+$1,$2,$3,$4,$5,0*
20,1,$1+$1,$4,$5,$6,$7,0*
20,1,$1+$1,$6,$7,$8,$9,0*
20,1,$1+$1,$8,$9,$2,$3,0*%
%AMFreePoly0*
4,1,6,0.600000,0.200000,0.000000,-0.400000,-0.600000,0.200000,-0.600000,0.400000,0.600000,0.400000,0.600000,0.200000,0.600000,0.200000,$1*%
%AMFreePoly1*
4,1,6,0.600000,-0.250000,-0.600000,-0.250000,-0.600000,1.000000,0.000000,0.400000,0.600000,1.000000,0.600000,-0.250000,0.600000,-0.250000,$1*%
G04 Aperture macros list end*
%ADD10C,0.150000*%
%ADD11C,0.080000*%
%ADD12C,0.120000*%
%ADD13C,0.127000*%
%ADD14C,0.254000*%
%ADD15C,1.200000*%
%ADD16O,2.500000X1.700000*%
%ADD17C,0.250000*%
%ADD18C,0.100000*%
%ADD19C,2.000000*%
%ADD20R,3.200000X2.000000*%
%ADD21C,2.300000*%
%ADD22R,0.635000X1.143000*%
%ADD23C,3.000000*%
%ADD24R,1.700000X1.700000*%
%ADD25O,1.700000X1.700000*%
%ADD26C,0.800000*%
%ADD27RoundRect,0.102000X-1.000000X0.400000X-1.000000X-0.400000X1.000000X-0.400000X1.000000X0.400000X0*%
%ADD28RoundRect,0.102000X-0.400000X0.450000X-0.400000X-0.450000X0.400000X-0.450000X0.400000X0.450000X0*%
%ADD29RoundRect,0.102000X-0.400000X0.500000X-0.400000X-0.500000X0.400000X-0.500000X0.400000X0.500000X0*%
%ADD30C,1.400000*%
%ADD31C,1.600000*%
%ADD32FreePoly0,270.000000*%
%ADD33FreePoly0,90.000000*%
%ADD34R,1.600000X1.600000*%
%ADD35FreePoly1,270.000000*%
%ADD36FreePoly1,90.000000*%
%ADD37RoundRect,0.225000X-0.375000X0.225000X-0.375000X-0.225000X0.375000X-0.225000X0.375000X0.225000X0*%
%ADD38R,1.803400X0.812800*%
%ADD39C,0.900000*%
G04 APERTURE END LIST*
D10*
X167834819Y-70908904D02*
X167834819Y-70337476D01*
X168834819Y-70623190D02*
X167834819Y-70623190D01*
X168834819Y-69432714D02*
X168358628Y-69766047D01*
X168834819Y-70004142D02*
X167834819Y-70004142D01*
X167834819Y-70004142D02*
X167834819Y-69623190D01*
X167834819Y-69623190D02*
X167882438Y-69527952D01*
X167882438Y-69527952D02*
X167930057Y-69480333D01*
X167930057Y-69480333D02*
X168025295Y-69432714D01*
X168025295Y-69432714D02*
X168168152Y-69432714D01*
X168168152Y-69432714D02*
X168263390Y-69480333D01*
X168263390Y-69480333D02*
X168311009Y-69527952D01*
X168311009Y-69527952D02*
X168358628Y-69623190D01*
X168358628Y-69623190D02*
X168358628Y-70004142D01*
X168834819Y-68432714D02*
X168358628Y-68766047D01*
X168834819Y-69004142D02*
X167834819Y-69004142D01*
X167834819Y-69004142D02*
X167834819Y-68623190D01*
X167834819Y-68623190D02*
X167882438Y-68527952D01*
X167882438Y-68527952D02*
X167930057Y-68480333D01*
X167930057Y-68480333D02*
X168025295Y-68432714D01*
X168025295Y-68432714D02*
X168168152Y-68432714D01*
X168168152Y-68432714D02*
X168263390Y-68480333D01*
X168263390Y-68480333D02*
X168311009Y-68527952D01*
X168311009Y-68527952D02*
X168358628Y-68623190D01*
X168358628Y-68623190D02*
X168358628Y-69004142D01*
X168787200Y-68051761D02*
X168834819Y-67908904D01*
X168834819Y-67908904D02*
X168834819Y-67670809D01*
X168834819Y-67670809D02*
X168787200Y-67575571D01*
X168787200Y-67575571D02*
X168739580Y-67527952D01*
X168739580Y-67527952D02*
X168644342Y-67480333D01*
X168644342Y-67480333D02*
X168549104Y-67480333D01*
X168549104Y-67480333D02*
X168453866Y-67527952D01*
X168453866Y-67527952D02*
X168406247Y-67575571D01*
X168406247Y-67575571D02*
X168358628Y-67670809D01*
X168358628Y-67670809D02*
X168311009Y-67861285D01*
X168311009Y-67861285D02*
X168263390Y-67956523D01*
X168263390Y-67956523D02*
X168215771Y-68004142D01*
X168215771Y-68004142D02*
X168120533Y-68051761D01*
X168120533Y-68051761D02*
X168025295Y-68051761D01*
X168025295Y-68051761D02*
X167930057Y-68004142D01*
X167930057Y-68004142D02*
X167882438Y-67956523D01*
X167882438Y-67956523D02*
X167834819Y-67861285D01*
X167834819Y-67861285D02*
X167834819Y-67623190D01*
X167834819Y-67623190D02*
X167882438Y-67480333D01*
X167834819Y-70908904D02*
X167834819Y-70337476D01*
X168834819Y-70623190D02*
X167834819Y-70623190D01*
X168834819Y-69432714D02*
X168358628Y-69766047D01*
X168834819Y-70004142D02*
X167834819Y-70004142D01*
X167834819Y-70004142D02*
X167834819Y-69623190D01*
X167834819Y-69623190D02*
X167882438Y-69527952D01*
X167882438Y-69527952D02*
X167930057Y-69480333D01*
X167930057Y-69480333D02*
X168025295Y-69432714D01*
X168025295Y-69432714D02*
X168168152Y-69432714D01*
X168168152Y-69432714D02*
X168263390Y-69480333D01*
X168263390Y-69480333D02*
X168311009Y-69527952D01*
X168311009Y-69527952D02*
X168358628Y-69623190D01*
X168358628Y-69623190D02*
X168358628Y-70004142D01*
X168834819Y-68432714D02*
X168358628Y-68766047D01*
X168834819Y-69004142D02*
X167834819Y-69004142D01*
X167834819Y-69004142D02*
X167834819Y-68623190D01*
X167834819Y-68623190D02*
X167882438Y-68527952D01*
X167882438Y-68527952D02*
X167930057Y-68480333D01*
X167930057Y-68480333D02*
X168025295Y-68432714D01*
X168025295Y-68432714D02*
X168168152Y-68432714D01*
X168168152Y-68432714D02*
X168263390Y-68480333D01*
X168263390Y-68480333D02*
X168311009Y-68527952D01*
X168311009Y-68527952D02*
X168358628Y-68623190D01*
X168358628Y-68623190D02*
X168358628Y-69004142D01*
X168787200Y-68051761D02*
X168834819Y-67908904D01*
X168834819Y-67908904D02*
X168834819Y-67670809D01*
X168834819Y-67670809D02*
X168787200Y-67575571D01*
X168787200Y-67575571D02*
X168739580Y-67527952D01*
X168739580Y-67527952D02*
X168644342Y-67480333D01*
X168644342Y-67480333D02*
X168549104Y-67480333D01*
X168549104Y-67480333D02*
X168453866Y-67527952D01*
X168453866Y-67527952D02*
X168406247Y-67575571D01*
X168406247Y-67575571D02*
X168358628Y-67670809D01*
X168358628Y-67670809D02*
X168311009Y-67861285D01*
X168311009Y-67861285D02*
X168263390Y-67956523D01*
X168263390Y-67956523D02*
X168215771Y-68004142D01*
X168215771Y-68004142D02*
X168120533Y-68051761D01*
X168120533Y-68051761D02*
X168025295Y-68051761D01*
X168025295Y-68051761D02*
X167930057Y-68004142D01*
X167930057Y-68004142D02*
X167882438Y-67956523D01*
X167882438Y-67956523D02*
X167834819Y-67861285D01*
X167834819Y-67861285D02*
X167834819Y-67623190D01*
X167834819Y-67623190D02*
X167882438Y-67480333D01*
X87237142Y-24430678D02*
X87297618Y-24370202D01*
X87297618Y-24370202D02*
X87418571Y-24309726D01*
X87418571Y-24309726D02*
X87720952Y-24309726D01*
X87720952Y-24309726D02*
X87841904Y-24370202D01*
X87841904Y-24370202D02*
X87902380Y-24430678D01*
X87902380Y-24430678D02*
X87962857Y-24551630D01*
X87962857Y-24551630D02*
X87962857Y-24672583D01*
X87962857Y-24672583D02*
X87902380Y-24854011D01*
X87902380Y-24854011D02*
X87176666Y-25579726D01*
X87176666Y-25579726D02*
X87962857Y-25579726D01*
X157680819Y-54099333D02*
X158395104Y-54099333D01*
X158395104Y-54099333D02*
X158537961Y-54146952D01*
X158537961Y-54146952D02*
X158633200Y-54242190D01*
X158633200Y-54242190D02*
X158680819Y-54385047D01*
X158680819Y-54385047D02*
X158680819Y-54480285D01*
X157680819Y-53718380D02*
X157680819Y-53051714D01*
X157680819Y-53051714D02*
X158680819Y-53480285D01*
D11*
X175420678Y-62359809D02*
X175679725Y-62359809D01*
X175679725Y-62359809D02*
X175710201Y-62344571D01*
X175710201Y-62344571D02*
X175725440Y-62329333D01*
X175725440Y-62329333D02*
X175740678Y-62298857D01*
X175740678Y-62298857D02*
X175740678Y-62237904D01*
X175740678Y-62237904D02*
X175725440Y-62207428D01*
X175725440Y-62207428D02*
X175710201Y-62192190D01*
X175710201Y-62192190D02*
X175679725Y-62176952D01*
X175679725Y-62176952D02*
X175420678Y-62176952D01*
X175451154Y-62039809D02*
X175435916Y-62024571D01*
X175435916Y-62024571D02*
X175420678Y-61994095D01*
X175420678Y-61994095D02*
X175420678Y-61917904D01*
X175420678Y-61917904D02*
X175435916Y-61887428D01*
X175435916Y-61887428D02*
X175451154Y-61872190D01*
X175451154Y-61872190D02*
X175481630Y-61856952D01*
X175481630Y-61856952D02*
X175512106Y-61856952D01*
X175512106Y-61856952D02*
X175557820Y-61872190D01*
X175557820Y-61872190D02*
X175740678Y-62055047D01*
X175740678Y-62055047D02*
X175740678Y-61856952D01*
D10*
X164298319Y-59295220D02*
X165107842Y-59295220D01*
X165107842Y-59295220D02*
X165203080Y-59247601D01*
X165203080Y-59247601D02*
X165250700Y-59199982D01*
X165250700Y-59199982D02*
X165298319Y-59104744D01*
X165298319Y-59104744D02*
X165298319Y-58914268D01*
X165298319Y-58914268D02*
X165250700Y-58819030D01*
X165250700Y-58819030D02*
X165203080Y-58771411D01*
X165203080Y-58771411D02*
X165107842Y-58723792D01*
X165107842Y-58723792D02*
X164298319Y-58723792D01*
X164298319Y-58342839D02*
X164298319Y-57723792D01*
X164298319Y-57723792D02*
X164679271Y-58057125D01*
X164679271Y-58057125D02*
X164679271Y-57914268D01*
X164679271Y-57914268D02*
X164726890Y-57819030D01*
X164726890Y-57819030D02*
X164774509Y-57771411D01*
X164774509Y-57771411D02*
X164869747Y-57723792D01*
X164869747Y-57723792D02*
X165107842Y-57723792D01*
X165107842Y-57723792D02*
X165203080Y-57771411D01*
X165203080Y-57771411D02*
X165250700Y-57819030D01*
X165250700Y-57819030D02*
X165298319Y-57914268D01*
X165298319Y-57914268D02*
X165298319Y-58199982D01*
X165298319Y-58199982D02*
X165250700Y-58295220D01*
X165250700Y-58295220D02*
X165203080Y-58342839D01*
X126441904Y-24733059D02*
X126441904Y-25579726D01*
X126139523Y-24249250D02*
X125837142Y-25156392D01*
X125837142Y-25156392D02*
X126623333Y-25156392D01*
X156152819Y-82460094D02*
X155152819Y-82460094D01*
X155152819Y-82460094D02*
X155152819Y-82221999D01*
X155152819Y-82221999D02*
X155200438Y-82079142D01*
X155200438Y-82079142D02*
X155295676Y-81983904D01*
X155295676Y-81983904D02*
X155390914Y-81936285D01*
X155390914Y-81936285D02*
X155581390Y-81888666D01*
X155581390Y-81888666D02*
X155724247Y-81888666D01*
X155724247Y-81888666D02*
X155914723Y-81936285D01*
X155914723Y-81936285D02*
X156009961Y-81983904D01*
X156009961Y-81983904D02*
X156105200Y-82079142D01*
X156105200Y-82079142D02*
X156152819Y-82221999D01*
X156152819Y-82221999D02*
X156152819Y-82460094D01*
X156152819Y-80936285D02*
X156152819Y-81507713D01*
X156152819Y-81221999D02*
X155152819Y-81221999D01*
X155152819Y-81221999D02*
X155295676Y-81317237D01*
X155295676Y-81317237D02*
X155390914Y-81412475D01*
X155390914Y-81412475D02*
X155438533Y-81507713D01*
X38380952Y-32954819D02*
X37904762Y-32954819D01*
X37904762Y-32954819D02*
X37904762Y-31954819D01*
X38714286Y-32431009D02*
X39047619Y-32431009D01*
X39190476Y-32954819D02*
X38714286Y-32954819D01*
X38714286Y-32954819D02*
X38714286Y-31954819D01*
X38714286Y-31954819D02*
X39190476Y-31954819D01*
X39619048Y-32954819D02*
X39619048Y-31954819D01*
X39619048Y-31954819D02*
X39857143Y-31954819D01*
X39857143Y-31954819D02*
X40000000Y-32002438D01*
X40000000Y-32002438D02*
X40095238Y-32097676D01*
X40095238Y-32097676D02*
X40142857Y-32192914D01*
X40142857Y-32192914D02*
X40190476Y-32383390D01*
X40190476Y-32383390D02*
X40190476Y-32526247D01*
X40190476Y-32526247D02*
X40142857Y-32716723D01*
X40142857Y-32716723D02*
X40095238Y-32811961D01*
X40095238Y-32811961D02*
X40000000Y-32907200D01*
X40000000Y-32907200D02*
X39857143Y-32954819D01*
X39857143Y-32954819D02*
X39619048Y-32954819D01*
X41047619Y-31954819D02*
X40857143Y-31954819D01*
X40857143Y-31954819D02*
X40761905Y-32002438D01*
X40761905Y-32002438D02*
X40714286Y-32050057D01*
X40714286Y-32050057D02*
X40619048Y-32192914D01*
X40619048Y-32192914D02*
X40571429Y-32383390D01*
X40571429Y-32383390D02*
X40571429Y-32764342D01*
X40571429Y-32764342D02*
X40619048Y-32859580D01*
X40619048Y-32859580D02*
X40666667Y-32907200D01*
X40666667Y-32907200D02*
X40761905Y-32954819D01*
X40761905Y-32954819D02*
X40952381Y-32954819D01*
X40952381Y-32954819D02*
X41047619Y-32907200D01*
X41047619Y-32907200D02*
X41095238Y-32859580D01*
X41095238Y-32859580D02*
X41142857Y-32764342D01*
X41142857Y-32764342D02*
X41142857Y-32526247D01*
X41142857Y-32526247D02*
X41095238Y-32431009D01*
X41095238Y-32431009D02*
X41047619Y-32383390D01*
X41047619Y-32383390D02*
X40952381Y-32335771D01*
X40952381Y-32335771D02*
X40761905Y-32335771D01*
X40761905Y-32335771D02*
X40666667Y-32383390D01*
X40666667Y-32383390D02*
X40619048Y-32431009D01*
X40619048Y-32431009D02*
X40571429Y-32526247D01*
X39500000Y-31954819D02*
X39500000Y-32192914D01*
X39261905Y-32097676D02*
X39500000Y-32192914D01*
X39500000Y-32192914D02*
X39738095Y-32097676D01*
X39357143Y-32383390D02*
X39500000Y-32192914D01*
X39500000Y-32192914D02*
X39642857Y-32383390D01*
X134880952Y-32954819D02*
X134404762Y-32954819D01*
X134404762Y-32954819D02*
X134404762Y-31954819D01*
X135214286Y-32431009D02*
X135547619Y-32431009D01*
X135690476Y-32954819D02*
X135214286Y-32954819D01*
X135214286Y-32954819D02*
X135214286Y-31954819D01*
X135214286Y-31954819D02*
X135690476Y-31954819D01*
X136119048Y-32954819D02*
X136119048Y-31954819D01*
X136119048Y-31954819D02*
X136357143Y-31954819D01*
X136357143Y-31954819D02*
X136500000Y-32002438D01*
X136500000Y-32002438D02*
X136595238Y-32097676D01*
X136595238Y-32097676D02*
X136642857Y-32192914D01*
X136642857Y-32192914D02*
X136690476Y-32383390D01*
X136690476Y-32383390D02*
X136690476Y-32526247D01*
X136690476Y-32526247D02*
X136642857Y-32716723D01*
X136642857Y-32716723D02*
X136595238Y-32811961D01*
X136595238Y-32811961D02*
X136500000Y-32907200D01*
X136500000Y-32907200D02*
X136357143Y-32954819D01*
X136357143Y-32954819D02*
X136119048Y-32954819D01*
X137642857Y-32954819D02*
X137071429Y-32954819D01*
X137357143Y-32954819D02*
X137357143Y-31954819D01*
X137357143Y-31954819D02*
X137261905Y-32097676D01*
X137261905Y-32097676D02*
X137166667Y-32192914D01*
X137166667Y-32192914D02*
X137071429Y-32240533D01*
X96280952Y-32954819D02*
X95804762Y-32954819D01*
X95804762Y-32954819D02*
X95804762Y-31954819D01*
X96614286Y-32431009D02*
X96947619Y-32431009D01*
X97090476Y-32954819D02*
X96614286Y-32954819D01*
X96614286Y-32954819D02*
X96614286Y-31954819D01*
X96614286Y-31954819D02*
X97090476Y-31954819D01*
X97519048Y-32954819D02*
X97519048Y-31954819D01*
X97519048Y-31954819D02*
X97757143Y-31954819D01*
X97757143Y-31954819D02*
X97900000Y-32002438D01*
X97900000Y-32002438D02*
X97995238Y-32097676D01*
X97995238Y-32097676D02*
X98042857Y-32192914D01*
X98042857Y-32192914D02*
X98090476Y-32383390D01*
X98090476Y-32383390D02*
X98090476Y-32526247D01*
X98090476Y-32526247D02*
X98042857Y-32716723D01*
X98042857Y-32716723D02*
X97995238Y-32811961D01*
X97995238Y-32811961D02*
X97900000Y-32907200D01*
X97900000Y-32907200D02*
X97757143Y-32954819D01*
X97757143Y-32954819D02*
X97519048Y-32954819D01*
X98423810Y-31954819D02*
X99042857Y-31954819D01*
X99042857Y-31954819D02*
X98709524Y-32335771D01*
X98709524Y-32335771D02*
X98852381Y-32335771D01*
X98852381Y-32335771D02*
X98947619Y-32383390D01*
X98947619Y-32383390D02*
X98995238Y-32431009D01*
X98995238Y-32431009D02*
X99042857Y-32526247D01*
X99042857Y-32526247D02*
X99042857Y-32764342D01*
X99042857Y-32764342D02*
X98995238Y-32859580D01*
X98995238Y-32859580D02*
X98947619Y-32907200D01*
X98947619Y-32907200D02*
X98852381Y-32954819D01*
X98852381Y-32954819D02*
X98566667Y-32954819D01*
X98566667Y-32954819D02*
X98471429Y-32907200D01*
X98471429Y-32907200D02*
X98423810Y-32859580D01*
X76980952Y-32954819D02*
X76504762Y-32954819D01*
X76504762Y-32954819D02*
X76504762Y-31954819D01*
X77314286Y-32431009D02*
X77647619Y-32431009D01*
X77790476Y-32954819D02*
X77314286Y-32954819D01*
X77314286Y-32954819D02*
X77314286Y-31954819D01*
X77314286Y-31954819D02*
X77790476Y-31954819D01*
X78219048Y-32954819D02*
X78219048Y-31954819D01*
X78219048Y-31954819D02*
X78457143Y-31954819D01*
X78457143Y-31954819D02*
X78600000Y-32002438D01*
X78600000Y-32002438D02*
X78695238Y-32097676D01*
X78695238Y-32097676D02*
X78742857Y-32192914D01*
X78742857Y-32192914D02*
X78790476Y-32383390D01*
X78790476Y-32383390D02*
X78790476Y-32526247D01*
X78790476Y-32526247D02*
X78742857Y-32716723D01*
X78742857Y-32716723D02*
X78695238Y-32811961D01*
X78695238Y-32811961D02*
X78600000Y-32907200D01*
X78600000Y-32907200D02*
X78457143Y-32954819D01*
X78457143Y-32954819D02*
X78219048Y-32954819D01*
X79647619Y-32288152D02*
X79647619Y-32954819D01*
X79409524Y-31907200D02*
X79171429Y-32621485D01*
X79171429Y-32621485D02*
X79790476Y-32621485D01*
X115580952Y-32954819D02*
X115104762Y-32954819D01*
X115104762Y-32954819D02*
X115104762Y-31954819D01*
X115914286Y-32431009D02*
X116247619Y-32431009D01*
X116390476Y-32954819D02*
X115914286Y-32954819D01*
X115914286Y-32954819D02*
X115914286Y-31954819D01*
X115914286Y-31954819D02*
X116390476Y-31954819D01*
X116819048Y-32954819D02*
X116819048Y-31954819D01*
X116819048Y-31954819D02*
X117057143Y-31954819D01*
X117057143Y-31954819D02*
X117200000Y-32002438D01*
X117200000Y-32002438D02*
X117295238Y-32097676D01*
X117295238Y-32097676D02*
X117342857Y-32192914D01*
X117342857Y-32192914D02*
X117390476Y-32383390D01*
X117390476Y-32383390D02*
X117390476Y-32526247D01*
X117390476Y-32526247D02*
X117342857Y-32716723D01*
X117342857Y-32716723D02*
X117295238Y-32811961D01*
X117295238Y-32811961D02*
X117200000Y-32907200D01*
X117200000Y-32907200D02*
X117057143Y-32954819D01*
X117057143Y-32954819D02*
X116819048Y-32954819D01*
X117771429Y-32050057D02*
X117819048Y-32002438D01*
X117819048Y-32002438D02*
X117914286Y-31954819D01*
X117914286Y-31954819D02*
X118152381Y-31954819D01*
X118152381Y-31954819D02*
X118247619Y-32002438D01*
X118247619Y-32002438D02*
X118295238Y-32050057D01*
X118295238Y-32050057D02*
X118342857Y-32145295D01*
X118342857Y-32145295D02*
X118342857Y-32240533D01*
X118342857Y-32240533D02*
X118295238Y-32383390D01*
X118295238Y-32383390D02*
X117723810Y-32954819D01*
X117723810Y-32954819D02*
X118342857Y-32954819D01*
X57680952Y-32954819D02*
X57204762Y-32954819D01*
X57204762Y-32954819D02*
X57204762Y-31954819D01*
X58014286Y-32431009D02*
X58347619Y-32431009D01*
X58490476Y-32954819D02*
X58014286Y-32954819D01*
X58014286Y-32954819D02*
X58014286Y-31954819D01*
X58014286Y-31954819D02*
X58490476Y-31954819D01*
X58919048Y-32954819D02*
X58919048Y-31954819D01*
X58919048Y-31954819D02*
X59157143Y-31954819D01*
X59157143Y-31954819D02*
X59300000Y-32002438D01*
X59300000Y-32002438D02*
X59395238Y-32097676D01*
X59395238Y-32097676D02*
X59442857Y-32192914D01*
X59442857Y-32192914D02*
X59490476Y-32383390D01*
X59490476Y-32383390D02*
X59490476Y-32526247D01*
X59490476Y-32526247D02*
X59442857Y-32716723D01*
X59442857Y-32716723D02*
X59395238Y-32811961D01*
X59395238Y-32811961D02*
X59300000Y-32907200D01*
X59300000Y-32907200D02*
X59157143Y-32954819D01*
X59157143Y-32954819D02*
X58919048Y-32954819D01*
X60395238Y-31954819D02*
X59919048Y-31954819D01*
X59919048Y-31954819D02*
X59871429Y-32431009D01*
X59871429Y-32431009D02*
X59919048Y-32383390D01*
X59919048Y-32383390D02*
X60014286Y-32335771D01*
X60014286Y-32335771D02*
X60252381Y-32335771D01*
X60252381Y-32335771D02*
X60347619Y-32383390D01*
X60347619Y-32383390D02*
X60395238Y-32431009D01*
X60395238Y-32431009D02*
X60442857Y-32526247D01*
X60442857Y-32526247D02*
X60442857Y-32764342D01*
X60442857Y-32764342D02*
X60395238Y-32859580D01*
X60395238Y-32859580D02*
X60347619Y-32907200D01*
X60347619Y-32907200D02*
X60252381Y-32954819D01*
X60252381Y-32954819D02*
X60014286Y-32954819D01*
X60014286Y-32954819D02*
X59919048Y-32907200D01*
X59919048Y-32907200D02*
X59871429Y-32859580D01*
D12*
X171990000Y-86860000D02*
X171990000Y-75060000D01*
X167890000Y-86860000D02*
X171990000Y-86860000D01*
X167890000Y-75060000D02*
X171990000Y-75060000D01*
X166390000Y-80960000D02*
X165390000Y-80960000D01*
X165890000Y-81460000D02*
X165890000Y-80460000D01*
X163890000Y-86860000D02*
X159790000Y-86860000D01*
X159790000Y-86860000D02*
X159790000Y-84460000D01*
X159790000Y-82260000D02*
X159790000Y-79660000D01*
X159790000Y-77460000D02*
X159790000Y-75060000D01*
X159790000Y-75060000D02*
X163890000Y-75060000D01*
X168890000Y-80960000D02*
G75*
G03*
X168890000Y-80960000I-3000000J0D01*
G01*
D10*
X174830000Y-66897000D02*
X174830000Y-72897000D01*
X162830000Y-66897000D02*
X174830000Y-66897000D01*
X174830000Y-72897000D02*
X162830000Y-72897000D01*
X163330000Y-72897000D02*
X163330000Y-66897000D01*
X157556620Y-65911000D02*
X159842620Y-65911000D01*
X157556620Y-67689000D02*
X157556620Y-65911000D01*
X159842620Y-65911000D02*
X159842620Y-67689000D01*
X159842620Y-67689000D02*
X157556620Y-67689000D01*
D12*
X159226000Y-55096000D02*
X159226000Y-53766000D01*
X160556000Y-55096000D02*
X159226000Y-55096000D01*
X161826000Y-55096000D02*
X172046000Y-55096000D01*
X161826000Y-55096000D02*
X161826000Y-52436000D01*
X172046000Y-55096000D02*
X172046000Y-52436000D01*
X161826000Y-52436000D02*
X172046000Y-52436000D01*
D13*
X174100000Y-63482000D02*
X175400000Y-63482000D01*
X176150000Y-63132000D02*
X176150000Y-60082000D01*
X173450000Y-61532000D02*
X173450000Y-59832000D01*
X176150000Y-60082000D02*
X176150000Y-58782000D01*
X177650000Y-60082000D02*
X176150000Y-60082000D01*
X177650000Y-60082000D02*
X177650000Y-58782000D01*
X176150000Y-58782000D02*
X176150000Y-57132000D01*
X177650000Y-58782000D02*
X176150000Y-58782000D01*
X175400000Y-56782000D02*
X174100000Y-56782000D01*
D10*
X159843380Y-69889000D02*
X157557380Y-69889000D01*
X159843380Y-68111000D02*
X159843380Y-69889000D01*
X157557380Y-69889000D02*
X157557380Y-68111000D01*
X157557380Y-68111000D02*
X159843380Y-68111000D01*
D14*
X161800500Y-62632000D02*
X161800500Y-56632000D01*
X167800500Y-62632000D02*
X161800500Y-62632000D01*
X167800500Y-62632000D02*
X169400500Y-62632000D01*
X167800500Y-62632000D02*
X167800500Y-61529000D01*
X169400500Y-62632000D02*
X169400500Y-61732000D01*
X163500500Y-61732000D02*
X163500500Y-60782000D01*
X165400500Y-61732000D02*
X165400500Y-60782000D01*
X167800500Y-61732000D02*
X163500500Y-61732000D01*
X169400500Y-61732000D02*
X167800500Y-61732000D01*
X163500500Y-60782000D02*
X167800500Y-60782000D01*
X161800500Y-60332000D02*
X161799500Y-60331000D01*
X161799500Y-60331000D02*
X166051500Y-60331000D01*
X166051500Y-60331000D02*
X166051500Y-58982000D01*
X167800500Y-59735000D02*
X167800500Y-59529000D01*
X166051500Y-58982000D02*
X161799500Y-58982000D01*
X163500500Y-58507000D02*
X163500500Y-57557000D01*
X165400500Y-58507000D02*
X165400500Y-57557000D01*
X167800500Y-58507000D02*
X163500500Y-58507000D01*
X167800500Y-57735000D02*
X167800500Y-56632000D01*
X163500500Y-57557000D02*
X167800500Y-57557000D01*
X169400500Y-57532000D02*
X167800500Y-57532000D01*
X168300500Y-57232000D02*
X168300500Y-56932000D01*
X169000500Y-57082000D02*
X168300500Y-57232000D01*
X168300500Y-56932000D02*
X169000500Y-57082000D01*
X161800500Y-56632000D02*
X167800500Y-56632000D01*
X167800500Y-56632000D02*
X169400500Y-56632000D01*
X169400500Y-56632000D02*
X169400500Y-57532000D01*
D10*
X174526000Y-21016000D02*
X174526000Y-51496000D01*
X156746000Y-21016000D02*
X174526000Y-21016000D01*
X156746000Y-21016000D02*
X156746000Y-51496000D01*
X174526000Y-51496000D02*
X156746000Y-51496000D01*
D12*
X154698000Y-79362000D02*
X152698000Y-79362000D01*
X154698000Y-79362000D02*
X154698000Y-83372000D01*
X152698000Y-79362000D02*
X152698000Y-83372000D01*
D10*
X160842620Y-72089000D02*
X158556620Y-72089000D01*
X160842620Y-70311000D02*
X160842620Y-72089000D01*
X158556620Y-72089000D02*
X158556620Y-70311000D01*
X158556620Y-70311000D02*
X160842620Y-70311000D01*
D12*
X37772800Y-30976000D02*
X41227200Y-30976000D01*
X41227200Y-34024000D02*
X37772800Y-34024000D01*
X134272800Y-30976000D02*
X137727200Y-30976000D01*
X137727200Y-34024000D02*
X134272800Y-34024000D01*
X95672800Y-30976000D02*
X99127200Y-30976000D01*
X99127200Y-34024000D02*
X95672800Y-34024000D01*
X76372800Y-30976000D02*
X79827200Y-30976000D01*
X79827200Y-34024000D02*
X76372800Y-34024000D01*
X114972800Y-30976000D02*
X118427200Y-30976000D01*
X118427200Y-34024000D02*
X114972800Y-34024000D01*
X57072800Y-30976000D02*
X60527200Y-30976000D01*
X60527200Y-34024000D02*
X57072800Y-34024000D01*
D15*
X173330000Y-68147000D03*
X166330000Y-68147000D03*
X173330000Y-69897000D03*
X166330000Y-69897000D03*
D16*
X164530000Y-71997000D03*
X168530000Y-71997000D03*
X171530000Y-71997000D03*
X163530000Y-67797000D03*
%LPC*%
D17*
X166523000Y-22286000D02*
G75*
G03*
X166523000Y-22286000I-125000J0D01*
G01*
X164999000Y-22286000D02*
G75*
G03*
X164999000Y-22286000I-125000J0D01*
G01*
X166523000Y-24826000D02*
G75*
G03*
X166523000Y-24826000I-125000J0D01*
G01*
X164999000Y-24826000D02*
G75*
G03*
X164999000Y-24826000I-125000J0D01*
G01*
X166523000Y-27366000D02*
G75*
G03*
X166523000Y-27366000I-125000J0D01*
G01*
X164999000Y-27366000D02*
G75*
G03*
X164999000Y-27366000I-125000J0D01*
G01*
X166523000Y-29906000D02*
G75*
G03*
X166523000Y-29906000I-125000J0D01*
G01*
X164999000Y-29906000D02*
G75*
G03*
X164999000Y-29906000I-125000J0D01*
G01*
X166523000Y-32446000D02*
G75*
G03*
X166523000Y-32446000I-125000J0D01*
G01*
X164999000Y-32446000D02*
G75*
G03*
X164999000Y-32446000I-125000J0D01*
G01*
X166523000Y-34986000D02*
G75*
G03*
X166523000Y-34986000I-125000J0D01*
G01*
X164999000Y-34986000D02*
G75*
G03*
X164999000Y-34986000I-125000J0D01*
G01*
X166523000Y-37526000D02*
G75*
G03*
X166523000Y-37526000I-125000J0D01*
G01*
X164999000Y-37526000D02*
G75*
G03*
X164999000Y-37526000I-125000J0D01*
G01*
X166523000Y-40066000D02*
G75*
G03*
X166523000Y-40066000I-125000J0D01*
G01*
X164999000Y-40066000D02*
G75*
G03*
X164999000Y-40066000I-125000J0D01*
G01*
X166523000Y-42606000D02*
G75*
G03*
X166523000Y-42606000I-125000J0D01*
G01*
X164999000Y-42606000D02*
G75*
G03*
X164999000Y-42606000I-125000J0D01*
G01*
X166523000Y-45146000D02*
G75*
G03*
X166523000Y-45146000I-125000J0D01*
G01*
X164999000Y-45146000D02*
G75*
G03*
X164999000Y-45146000I-125000J0D01*
G01*
X166523000Y-47686000D02*
G75*
G03*
X166523000Y-47686000I-125000J0D01*
G01*
X164999000Y-47686000D02*
G75*
G03*
X164999000Y-47686000I-125000J0D01*
G01*
X166523000Y-50226000D02*
G75*
G03*
X166523000Y-50226000I-125000J0D01*
G01*
X164999000Y-50226000D02*
G75*
G03*
X164999000Y-50226000I-125000J0D01*
G01*
D18*
X160556000Y-22794000D02*
X159540000Y-22794000D01*
X159540000Y-21778000D01*
X160556000Y-21778000D01*
X160556000Y-22794000D01*
G36*
X160556000Y-22794000D02*
G01*
X159540000Y-22794000D01*
X159540000Y-21778000D01*
X160556000Y-21778000D01*
X160556000Y-22794000D01*
G37*
X171732000Y-22794000D02*
X170716000Y-22794000D01*
X170716000Y-21778000D01*
X171732000Y-21778000D01*
X171732000Y-22794000D01*
G36*
X171732000Y-22794000D02*
G01*
X170716000Y-22794000D01*
X170716000Y-21778000D01*
X171732000Y-21778000D01*
X171732000Y-22794000D01*
G37*
X160556000Y-25334000D02*
X159540000Y-25334000D01*
X159540000Y-24318000D01*
X160556000Y-24318000D01*
X160556000Y-25334000D01*
G36*
X160556000Y-25334000D02*
G01*
X159540000Y-25334000D01*
X159540000Y-24318000D01*
X160556000Y-24318000D01*
X160556000Y-25334000D01*
G37*
X171732000Y-25334000D02*
X170716000Y-25334000D01*
X170716000Y-24318000D01*
X171732000Y-24318000D01*
X171732000Y-25334000D01*
G36*
X171732000Y-25334000D02*
G01*
X170716000Y-25334000D01*
X170716000Y-24318000D01*
X171732000Y-24318000D01*
X171732000Y-25334000D01*
G37*
X160556000Y-27874000D02*
X159540000Y-27874000D01*
X159540000Y-26858000D01*
X160556000Y-26858000D01*
X160556000Y-27874000D01*
G36*
X160556000Y-27874000D02*
G01*
X159540000Y-27874000D01*
X159540000Y-26858000D01*
X160556000Y-26858000D01*
X160556000Y-27874000D01*
G37*
X171732000Y-27874000D02*
X170716000Y-27874000D01*
X170716000Y-26858000D01*
X171732000Y-26858000D01*
X171732000Y-27874000D01*
G36*
X171732000Y-27874000D02*
G01*
X170716000Y-27874000D01*
X170716000Y-26858000D01*
X171732000Y-26858000D01*
X171732000Y-27874000D01*
G37*
X160556000Y-30414000D02*
X159540000Y-30414000D01*
X159540000Y-29398000D01*
X160556000Y-29398000D01*
X160556000Y-30414000D01*
G36*
X160556000Y-30414000D02*
G01*
X159540000Y-30414000D01*
X159540000Y-29398000D01*
X160556000Y-29398000D01*
X160556000Y-30414000D01*
G37*
X171732000Y-30414000D02*
X170716000Y-30414000D01*
X170716000Y-29398000D01*
X171732000Y-29398000D01*
X171732000Y-30414000D01*
G36*
X171732000Y-30414000D02*
G01*
X170716000Y-30414000D01*
X170716000Y-29398000D01*
X171732000Y-29398000D01*
X171732000Y-30414000D01*
G37*
X160556000Y-32954000D02*
X159540000Y-32954000D01*
X159540000Y-31938000D01*
X160556000Y-31938000D01*
X160556000Y-32954000D01*
G36*
X160556000Y-32954000D02*
G01*
X159540000Y-32954000D01*
X159540000Y-31938000D01*
X160556000Y-31938000D01*
X160556000Y-32954000D01*
G37*
X171732000Y-32954000D02*
X170716000Y-32954000D01*
X170716000Y-31938000D01*
X171732000Y-31938000D01*
X171732000Y-32954000D01*
G36*
X171732000Y-32954000D02*
G01*
X170716000Y-32954000D01*
X170716000Y-31938000D01*
X171732000Y-31938000D01*
X171732000Y-32954000D01*
G37*
X160556000Y-35494000D02*
X159540000Y-35494000D01*
X159540000Y-34478000D01*
X160556000Y-34478000D01*
X160556000Y-35494000D01*
G36*
X160556000Y-35494000D02*
G01*
X159540000Y-35494000D01*
X159540000Y-34478000D01*
X160556000Y-34478000D01*
X160556000Y-35494000D01*
G37*
X171732000Y-35494000D02*
X170716000Y-35494000D01*
X170716000Y-34478000D01*
X171732000Y-34478000D01*
X171732000Y-35494000D01*
G36*
X171732000Y-35494000D02*
G01*
X170716000Y-35494000D01*
X170716000Y-34478000D01*
X171732000Y-34478000D01*
X171732000Y-35494000D01*
G37*
X160556000Y-38034000D02*
X159540000Y-38034000D01*
X159540000Y-37018000D01*
X160556000Y-37018000D01*
X160556000Y-38034000D01*
G36*
X160556000Y-38034000D02*
G01*
X159540000Y-38034000D01*
X159540000Y-37018000D01*
X160556000Y-37018000D01*
X160556000Y-38034000D01*
G37*
X171732000Y-38034000D02*
X170716000Y-38034000D01*
X170716000Y-37018000D01*
X171732000Y-37018000D01*
X171732000Y-38034000D01*
G36*
X171732000Y-38034000D02*
G01*
X170716000Y-38034000D01*
X170716000Y-37018000D01*
X171732000Y-37018000D01*
X171732000Y-38034000D01*
G37*
X160556000Y-40574000D02*
X159540000Y-40574000D01*
X159540000Y-39558000D01*
X160556000Y-39558000D01*
X160556000Y-40574000D01*
G36*
X160556000Y-40574000D02*
G01*
X159540000Y-40574000D01*
X159540000Y-39558000D01*
X160556000Y-39558000D01*
X160556000Y-40574000D01*
G37*
X171732000Y-40574000D02*
X170716000Y-40574000D01*
X170716000Y-39558000D01*
X171732000Y-39558000D01*
X171732000Y-40574000D01*
G36*
X171732000Y-40574000D02*
G01*
X170716000Y-40574000D01*
X170716000Y-39558000D01*
X171732000Y-39558000D01*
X171732000Y-40574000D01*
G37*
X160556000Y-43114000D02*
X159540000Y-43114000D01*
X159540000Y-42098000D01*
X160556000Y-42098000D01*
X160556000Y-43114000D01*
G36*
X160556000Y-43114000D02*
G01*
X159540000Y-43114000D01*
X159540000Y-42098000D01*
X160556000Y-42098000D01*
X160556000Y-43114000D01*
G37*
X171732000Y-43114000D02*
X170716000Y-43114000D01*
X170716000Y-42098000D01*
X171732000Y-42098000D01*
X171732000Y-43114000D01*
G36*
X171732000Y-43114000D02*
G01*
X170716000Y-43114000D01*
X170716000Y-42098000D01*
X171732000Y-42098000D01*
X171732000Y-43114000D01*
G37*
X160556000Y-45654000D02*
X159540000Y-45654000D01*
X159540000Y-44638000D01*
X160556000Y-44638000D01*
X160556000Y-45654000D01*
G36*
X160556000Y-45654000D02*
G01*
X159540000Y-45654000D01*
X159540000Y-44638000D01*
X160556000Y-44638000D01*
X160556000Y-45654000D01*
G37*
X171732000Y-45654000D02*
X170716000Y-45654000D01*
X170716000Y-44638000D01*
X171732000Y-44638000D01*
X171732000Y-45654000D01*
G36*
X171732000Y-45654000D02*
G01*
X170716000Y-45654000D01*
X170716000Y-44638000D01*
X171732000Y-44638000D01*
X171732000Y-45654000D01*
G37*
X160556000Y-48194000D02*
X159540000Y-48194000D01*
X159540000Y-47178000D01*
X160556000Y-47178000D01*
X160556000Y-48194000D01*
G36*
X160556000Y-48194000D02*
G01*
X159540000Y-48194000D01*
X159540000Y-47178000D01*
X160556000Y-47178000D01*
X160556000Y-48194000D01*
G37*
X171732000Y-48194000D02*
X170716000Y-48194000D01*
X170716000Y-47178000D01*
X171732000Y-47178000D01*
X171732000Y-48194000D01*
G36*
X171732000Y-48194000D02*
G01*
X170716000Y-48194000D01*
X170716000Y-47178000D01*
X171732000Y-47178000D01*
X171732000Y-48194000D01*
G37*
X160556000Y-50734000D02*
X159540000Y-50734000D01*
X159540000Y-49718000D01*
X160556000Y-49718000D01*
X160556000Y-50734000D01*
G36*
X160556000Y-50734000D02*
G01*
X159540000Y-50734000D01*
X159540000Y-49718000D01*
X160556000Y-49718000D01*
X160556000Y-50734000D01*
G37*
X171732000Y-50734000D02*
X170716000Y-50734000D01*
X170716000Y-49718000D01*
X171732000Y-49718000D01*
X171732000Y-50734000D01*
G36*
X171732000Y-50734000D02*
G01*
X170716000Y-50734000D01*
X170716000Y-49718000D01*
X171732000Y-49718000D01*
X171732000Y-50734000D01*
G37*
D19*
X173390000Y-83460000D03*
X173390000Y-78460000D03*
X173390000Y-80960000D03*
D20*
X165890000Y-86560000D03*
X165890000Y-75360000D03*
D19*
X158890000Y-78460000D03*
X158890000Y-83460000D03*
D21*
X152800000Y-53600000D03*
D15*
X173330000Y-68147000D03*
X166330000Y-68147000D03*
X173330000Y-69897000D03*
X166330000Y-69897000D03*
D16*
X164530000Y-71997000D03*
X168530000Y-71997000D03*
X171530000Y-71997000D03*
X163530000Y-67797000D03*
D22*
X158199240Y-66800000D03*
X159200000Y-66800000D03*
D23*
X146800000Y-35400000D03*
X87600000Y-25000000D03*
D24*
X160556000Y-53766000D03*
D25*
X163096000Y-53766000D03*
X165636000Y-53766000D03*
X168176000Y-53766000D03*
X170716000Y-53766000D03*
D26*
X174800000Y-61632000D03*
X174800000Y-58632000D03*
D27*
X172700000Y-59309000D03*
D28*
X173675000Y-63932000D03*
D29*
X175925000Y-63882000D03*
X175925000Y-56382000D03*
D28*
X173675000Y-56332000D03*
D27*
X172700000Y-57809000D03*
X172700000Y-62309000D03*
D23*
X49000000Y-25000000D03*
D22*
X159200760Y-69000000D03*
X158200000Y-69000000D03*
D30*
X168050500Y-58632000D03*
X168050500Y-60632000D03*
D23*
X126200000Y-25000000D03*
D21*
X157200000Y-63600000D03*
D31*
X173256000Y-22286000D03*
D32*
X171478000Y-22286000D03*
D33*
X159794000Y-22286000D03*
D31*
X158016000Y-22286000D03*
D34*
X158016000Y-22286000D03*
D31*
X173256000Y-24826000D03*
D32*
X171478000Y-24826000D03*
D33*
X159794000Y-24826000D03*
D31*
X158016000Y-24826000D03*
X173256000Y-27366000D03*
D32*
X171478000Y-27366000D03*
D33*
X159794000Y-27366000D03*
D31*
X158016000Y-27366000D03*
X173256000Y-29906000D03*
D32*
X171478000Y-29906000D03*
D33*
X159794000Y-29906000D03*
D31*
X158016000Y-29906000D03*
X173256000Y-32446000D03*
D32*
X171478000Y-32446000D03*
D33*
X159794000Y-32446000D03*
D31*
X158016000Y-32446000D03*
X173256000Y-34986000D03*
D32*
X171478000Y-34986000D03*
D33*
X159794000Y-34986000D03*
D31*
X158016000Y-34986000D03*
X173256000Y-37526000D03*
D32*
X171478000Y-37526000D03*
D33*
X159794000Y-37526000D03*
D31*
X158016000Y-37526000D03*
X173256000Y-40066000D03*
D32*
X171478000Y-40066000D03*
D33*
X159794000Y-40066000D03*
D31*
X158016000Y-40066000D03*
X173256000Y-42606000D03*
D32*
X171478000Y-42606000D03*
D33*
X159794000Y-42606000D03*
D31*
X158016000Y-42606000D03*
X173256000Y-45146000D03*
D32*
X171478000Y-45146000D03*
D33*
X159794000Y-45146000D03*
D31*
X158016000Y-45146000D03*
X173256000Y-47686000D03*
D32*
X171478000Y-47686000D03*
D33*
X159794000Y-47686000D03*
D31*
X158016000Y-47686000D03*
X173256000Y-50226000D03*
D32*
X171478000Y-50226000D03*
D33*
X159794000Y-50226000D03*
D31*
X158016000Y-50226000D03*
D35*
X170462000Y-22286000D03*
X170462000Y-24826000D03*
X170462000Y-27366000D03*
X170462000Y-29906000D03*
X170462000Y-32446000D03*
X170462000Y-34986000D03*
X170462000Y-37526000D03*
X170462000Y-40066000D03*
X170462000Y-42606000D03*
X170462000Y-45146000D03*
X170462000Y-47686000D03*
X170462000Y-50226000D03*
D36*
X160810000Y-50226000D03*
X160810000Y-47686000D03*
X160810000Y-45146000D03*
X160810000Y-42606000D03*
X160810000Y-40066000D03*
X160810000Y-37526000D03*
X160810000Y-34986000D03*
X160810000Y-32446000D03*
X160810000Y-29906000D03*
X160810000Y-27366000D03*
X160810000Y-24826000D03*
X160810000Y-22286000D03*
D23*
X153600000Y-87800000D03*
D37*
X153698000Y-80072000D03*
X153698000Y-83372000D03*
D22*
X160200000Y-71200000D03*
X159199240Y-71200000D03*
D38*
X42001900Y-33249300D03*
X42001900Y-31750700D03*
X36998100Y-31750700D03*
X36998100Y-33249300D03*
X138501900Y-33249300D03*
X138501900Y-31750700D03*
X133498100Y-31750700D03*
X133498100Y-33249300D03*
X99901900Y-33249300D03*
X99901900Y-31750700D03*
X94898100Y-31750700D03*
X94898100Y-33249300D03*
X80601900Y-33249300D03*
X80601900Y-31750700D03*
X75598100Y-31750700D03*
X75598100Y-33249300D03*
D39*
X150650000Y-24449500D03*
X150650000Y-21649500D03*
D38*
X119201900Y-33249300D03*
X119201900Y-31750700D03*
X114198100Y-31750700D03*
X114198100Y-33249300D03*
X61301900Y-33249300D03*
X61301900Y-31750700D03*
X56298100Y-31750700D03*
X56298100Y-33249300D03*
%LPD*%
M02*
