G04 #@! TF.GenerationSoftware,KiCad,Pcbnew,7.0.6-7.0.6~ubuntu20.04.1*
G04 #@! TF.CreationDate,2023-10-06T02:11:43+00:00*
G04 #@! TF.ProjectId,Seismos_CoreL,53656973-6d6f-4735-9f43-6f72654c2e6b,rev?*
G04 #@! TF.SameCoordinates,Original*
G04 #@! TF.FileFunction,Copper,L2,Bot*
G04 #@! TF.FilePolarity,Positive*
%FSLAX46Y46*%
G04 Gerber Fmt 4.6, Leading zero omitted, Abs format (unit mm)*
G04 Created by KiCad (PCBNEW 7.0.6-7.0.6~ubuntu20.04.1) date 2023-10-06 02:11:43*
%MOMM*%
%LPD*%
G01*
G04 APERTURE LIST*
G04 Aperture macros list*
%AMFreePoly0*
4,1,5,0.125000,-0.500000,-0.125000,-0.500000,-0.125000,0.500000,0.125000,0.500000,0.125000,-0.500000,0.125000,-0.500000,$1*%
%AMFreePoly1*
4,1,6,0.600000,0.200000,0.000000,-0.400000,-0.600000,0.200000,-0.600000,0.400000,0.600000,0.400000,0.600000,0.200000,0.600000,0.200000,$1*%
%AMFreePoly2*
4,1,49,0.004652,0.123753,0.008918,0.124682,0.028635,0.117327,0.062500,0.108253,0.068172,0.102580,0.074910,0.100068,0.087486,0.083266,0.108253,0.062500,0.111163,0.051639,0.117119,0.043683,0.118510,0.024217,0.125000,0.000000,0.121245,-0.014013,0.122144,-0.026571,0.113772,-0.041901,0.108253,-0.062500,0.095633,-0.075119,0.088389,-0.088388,-0.641000,-0.817776,-0.641000,-4.770223,
0.088389,-5.499612,0.109711,-5.528094,0.124682,-5.596918,0.100068,-5.662910,0.043683,-5.705119,-0.026571,-5.710144,-0.088388,-5.676389,-0.854388,-4.910388,-0.867764,-4.892519,-0.871157,-4.889580,-0.871926,-4.886960,-0.875710,-4.881906,-0.882285,-4.851677,-0.891000,-4.822000,-0.891000,-0.766000,-0.887823,-0.743906,-0.888144,-0.739429,-0.886835,-0.737032,-0.885937,-0.730783,-0.869209,-0.704755,
-0.854388,-0.677612,-0.088388,0.088389,-0.064427,0.106325,-0.062500,0.108253,-0.061491,0.108523,-0.059906,0.109711,-0.044779,0.113001,0.000000,0.125000,0.004652,0.123753,0.004652,0.123753,$1*%
%AMFreePoly3*
4,1,6,0.600000,-0.250000,-0.600000,-0.250000,-0.600000,1.000000,0.000000,0.400000,0.600000,1.000000,0.600000,-0.250000,0.600000,-0.250000,$1*%
G04 Aperture macros list end*
G04 #@! TA.AperFunction,ComponentPad*
%ADD10C,2.000000*%
G04 #@! TD*
G04 #@! TA.AperFunction,ComponentPad*
%ADD11R,3.200000X2.000000*%
G04 #@! TD*
G04 #@! TA.AperFunction,ComponentPad*
%ADD12O,2.500000X1.700000*%
G04 #@! TD*
G04 #@! TA.AperFunction,ComponentPad*
%ADD13R,1.700000X1.700000*%
G04 #@! TD*
G04 #@! TA.AperFunction,ComponentPad*
%ADD14O,1.700000X1.700000*%
G04 #@! TD*
G04 #@! TA.AperFunction,ComponentPad*
%ADD15C,1.400000*%
G04 #@! TD*
G04 #@! TA.AperFunction,ComponentPad*
%ADD16C,1.600000*%
G04 #@! TD*
G04 #@! TA.AperFunction,ComponentPad*
%ADD17R,1.600000X1.600000*%
G04 #@! TD*
G04 #@! TA.AperFunction,SMDPad,CuDef*
%ADD18FreePoly0,270.000000*%
G04 #@! TD*
G04 #@! TA.AperFunction,SMDPad,CuDef*
%ADD19FreePoly1,270.000000*%
G04 #@! TD*
G04 #@! TA.AperFunction,SMDPad,CuDef*
%ADD20FreePoly1,90.000000*%
G04 #@! TD*
G04 #@! TA.AperFunction,SMDPad,CuDef*
%ADD21FreePoly0,90.000000*%
G04 #@! TD*
G04 #@! TA.AperFunction,SMDPad,CuDef*
%ADD22FreePoly2,270.000000*%
G04 #@! TD*
G04 #@! TA.AperFunction,ComponentPad*
%ADD23C,0.800000*%
G04 #@! TD*
G04 #@! TA.AperFunction,SMDPad,CuDef*
%ADD24FreePoly3,90.000000*%
G04 #@! TD*
G04 #@! TA.AperFunction,SMDPad,CuDef*
%ADD25FreePoly3,270.000000*%
G04 #@! TD*
G04 #@! TA.AperFunction,SMDPad,CuDef*
%ADD26FreePoly2,90.000000*%
G04 #@! TD*
G04 #@! TA.AperFunction,SMDPad,CuDef*
%ADD27R,0.600000X1.550000*%
G04 #@! TD*
G04 #@! TA.AperFunction,SMDPad,CuDef*
%ADD28R,1.200000X1.800000*%
G04 #@! TD*
G04 #@! TA.AperFunction,SMDPad,CuDef*
%ADD29R,1.550000X1.000000*%
G04 #@! TD*
G04 #@! TA.AperFunction,ViaPad*
%ADD30C,0.800000*%
G04 #@! TD*
G04 #@! TA.AperFunction,ViaPad*
%ADD31C,0.300000*%
G04 #@! TD*
G04 #@! TA.AperFunction,Conductor*
%ADD32C,0.381000*%
G04 #@! TD*
G04 #@! TA.AperFunction,Conductor*
%ADD33C,0.254000*%
G04 #@! TD*
G04 APERTURE END LIST*
D10*
X173390000Y-83460000D03*
X173390000Y-78460000D03*
X173390000Y-80960000D03*
D11*
X165890000Y-86560000D03*
X165890000Y-75360000D03*
D10*
X158890000Y-78460000D03*
X158890000Y-83460000D03*
D12*
X164530000Y-71997000D03*
X168530000Y-71997000D03*
X171530000Y-71997000D03*
X163530000Y-67797000D03*
D13*
X160556000Y-53766000D03*
D14*
X163096000Y-53766000D03*
X165636000Y-53766000D03*
X168176000Y-53766000D03*
X170716000Y-53766000D03*
D15*
X168050500Y-58632000D03*
X168050500Y-60632000D03*
D16*
X173256000Y-22286000D03*
D17*
X173256000Y-22286000D03*
D18*
X171986000Y-22286000D03*
D19*
X171478000Y-22286000D03*
D20*
X159794000Y-22286000D03*
D21*
X159286000Y-22286000D03*
D16*
X158016000Y-22286000D03*
X173256000Y-24826000D03*
D18*
X171986000Y-24826000D03*
D19*
X171478000Y-24826000D03*
D20*
X159794000Y-24826000D03*
D21*
X159286000Y-24826000D03*
D16*
X158016000Y-24826000D03*
X173256000Y-27366000D03*
D18*
X171986000Y-27366000D03*
D19*
X171478000Y-27366000D03*
D20*
X159794000Y-27366000D03*
D21*
X159286000Y-27366000D03*
D16*
X158016000Y-27366000D03*
X173256000Y-29906000D03*
D18*
X171986000Y-29906000D03*
D19*
X171478000Y-29906000D03*
D20*
X159794000Y-29906000D03*
D21*
X159286000Y-29906000D03*
D16*
X158016000Y-29906000D03*
X173256000Y-32446000D03*
D18*
X171986000Y-32446000D03*
D19*
X171478000Y-32446000D03*
D20*
X159794000Y-32446000D03*
D21*
X159286000Y-32446000D03*
D16*
X158016000Y-32446000D03*
X173256000Y-34986000D03*
D18*
X171986000Y-34986000D03*
D19*
X171478000Y-34986000D03*
D20*
X159794000Y-34986000D03*
D21*
X159286000Y-34986000D03*
D16*
X158016000Y-34986000D03*
X173256000Y-37526000D03*
D18*
X171986000Y-37526000D03*
D19*
X171478000Y-37526000D03*
D20*
X159794000Y-37526000D03*
D21*
X159286000Y-37526000D03*
D16*
X158016000Y-37526000D03*
X173256000Y-40066000D03*
D18*
X171986000Y-40066000D03*
D19*
X171478000Y-40066000D03*
D20*
X159794000Y-40066000D03*
D21*
X159286000Y-40066000D03*
D16*
X158016000Y-40066000D03*
X173256000Y-42606000D03*
D18*
X171986000Y-42606000D03*
D19*
X171478000Y-42606000D03*
D20*
X159794000Y-42606000D03*
D21*
X159286000Y-42606000D03*
D16*
X158016000Y-42606000D03*
X173256000Y-45146000D03*
D18*
X171986000Y-45146000D03*
D19*
X171478000Y-45146000D03*
D20*
X159794000Y-45146000D03*
D21*
X159286000Y-45146000D03*
D16*
X158016000Y-45146000D03*
X173256000Y-47686000D03*
D18*
X171986000Y-47686000D03*
D19*
X171478000Y-47686000D03*
D20*
X159794000Y-47686000D03*
D21*
X159286000Y-47686000D03*
D16*
X158016000Y-47686000D03*
X173256000Y-50226000D03*
D18*
X171986000Y-50226000D03*
D19*
X171478000Y-50226000D03*
D20*
X159794000Y-50226000D03*
D21*
X159286000Y-50226000D03*
D16*
X158016000Y-50226000D03*
D22*
X166398000Y-22286000D03*
D23*
X166398000Y-22286000D03*
D24*
X160810000Y-22286000D03*
D22*
X166398000Y-24826000D03*
D23*
X166398000Y-24826000D03*
D24*
X160810000Y-24826000D03*
D22*
X166398000Y-27366000D03*
D23*
X166398000Y-27366000D03*
D24*
X160810000Y-27366000D03*
D22*
X166398000Y-29906000D03*
D23*
X166398000Y-29906000D03*
D24*
X160810000Y-29906000D03*
D22*
X166398000Y-32446000D03*
D23*
X166398000Y-32446000D03*
D24*
X160810000Y-32446000D03*
D22*
X166398000Y-34986000D03*
D23*
X166398000Y-34986000D03*
D24*
X160810000Y-34986000D03*
D22*
X166398000Y-37526000D03*
D23*
X166398000Y-37526000D03*
D24*
X160810000Y-37526000D03*
D22*
X166398000Y-40066000D03*
D23*
X166398000Y-40066000D03*
D24*
X160810000Y-40066000D03*
D22*
X166398000Y-42606000D03*
D23*
X166398000Y-42606000D03*
D24*
X160810000Y-42606000D03*
D22*
X166398000Y-45146000D03*
D23*
X166398000Y-45146000D03*
D24*
X160810000Y-45146000D03*
D22*
X166398000Y-47686000D03*
D23*
X166398000Y-47686000D03*
D24*
X160810000Y-47686000D03*
D22*
X166398000Y-50226000D03*
D23*
X166398000Y-50226000D03*
D24*
X160810000Y-50226000D03*
D25*
X170462000Y-50226000D03*
D26*
X164874000Y-50226000D03*
D23*
X164874000Y-50226000D03*
D25*
X170462000Y-47686000D03*
D26*
X164874000Y-47686000D03*
D23*
X164874000Y-47686000D03*
D25*
X170462000Y-45146000D03*
D26*
X164874000Y-45146000D03*
D23*
X164874000Y-45146000D03*
D25*
X170462000Y-42606000D03*
D26*
X164874000Y-42606000D03*
D23*
X164874000Y-42606000D03*
D25*
X170462000Y-40066000D03*
D26*
X164874000Y-40066000D03*
D23*
X164874000Y-40066000D03*
D25*
X170462000Y-37526000D03*
D26*
X164874000Y-37526000D03*
D23*
X164874000Y-37526000D03*
D25*
X170462000Y-34986000D03*
D26*
X164874000Y-34986000D03*
D23*
X164874000Y-34986000D03*
D25*
X170462000Y-32446000D03*
D26*
X164874000Y-32446000D03*
D23*
X164874000Y-32446000D03*
D25*
X170462000Y-29906000D03*
D26*
X164874000Y-29906000D03*
D23*
X164874000Y-29906000D03*
D25*
X170462000Y-27366000D03*
D26*
X164874000Y-27366000D03*
D23*
X164874000Y-27366000D03*
D25*
X170462000Y-24826000D03*
D26*
X164874000Y-24826000D03*
D23*
X164874000Y-24826000D03*
D25*
X170462000Y-22286000D03*
D26*
X164874000Y-22286000D03*
D23*
X164874000Y-22286000D03*
D27*
X35500000Y-25375000D03*
X36500000Y-25375000D03*
X37500000Y-25375000D03*
X38500000Y-25375000D03*
X39500000Y-25375000D03*
X40500000Y-25375000D03*
X41500000Y-25375000D03*
X42500000Y-25375000D03*
X43500000Y-25375000D03*
D28*
X34200000Y-21500000D03*
X44800000Y-21500000D03*
D27*
X54800000Y-25375000D03*
X55800000Y-25375000D03*
X56800000Y-25375000D03*
X57800000Y-25375000D03*
X58800000Y-25375000D03*
X59800000Y-25375000D03*
X60800000Y-25375000D03*
X61800000Y-25375000D03*
X62800000Y-25375000D03*
D28*
X53500000Y-21500000D03*
X64100000Y-21500000D03*
D29*
X153250000Y-23899500D03*
X153250000Y-22199500D03*
X148050000Y-23899500D03*
X148050000Y-22199500D03*
D27*
X132000000Y-25375000D03*
X133000000Y-25375000D03*
X134000000Y-25375000D03*
X135000000Y-25375000D03*
X136000000Y-25375000D03*
X137000000Y-25375000D03*
X138000000Y-25375000D03*
X139000000Y-25375000D03*
X140000000Y-25375000D03*
D28*
X130700000Y-21500000D03*
X141300000Y-21500000D03*
D27*
X93400000Y-25375000D03*
X94400000Y-25375000D03*
X95400000Y-25375000D03*
X96400000Y-25375000D03*
X97400000Y-25375000D03*
X98400000Y-25375000D03*
X99400000Y-25375000D03*
X100400000Y-25375000D03*
X101400000Y-25375000D03*
D28*
X92100000Y-21500000D03*
X102700000Y-21500000D03*
D27*
X74100000Y-25375000D03*
X75100000Y-25375000D03*
X76100000Y-25375000D03*
X77100000Y-25375000D03*
X78100000Y-25375000D03*
X79100000Y-25375000D03*
X80100000Y-25375000D03*
X81100000Y-25375000D03*
X82100000Y-25375000D03*
D28*
X72800000Y-21500000D03*
X83400000Y-21500000D03*
D27*
X112700000Y-25375000D03*
X113700000Y-25375000D03*
X114700000Y-25375000D03*
X115700000Y-25375000D03*
X116700000Y-25375000D03*
X117700000Y-25375000D03*
X118700000Y-25375000D03*
X119700000Y-25375000D03*
X120700000Y-25375000D03*
D28*
X111400000Y-21500000D03*
X122000000Y-21500000D03*
D30*
X130701900Y-31749300D03*
X53501900Y-31749300D03*
X173309500Y-52525500D03*
X111401900Y-31749300D03*
X34201900Y-31749300D03*
X72801900Y-31749300D03*
X92101900Y-31749300D03*
D31*
X36500000Y-21290000D03*
X94400000Y-21290000D03*
X55800000Y-21290000D03*
X113700000Y-21290000D03*
X75100000Y-21290000D03*
X133000000Y-21290000D03*
D30*
X146282509Y-26503500D03*
D31*
X134000000Y-21766500D03*
X56800000Y-21766500D03*
X95400000Y-21766500D03*
D30*
X145283006Y-26503500D03*
D31*
X76100000Y-21766500D03*
X37500000Y-21766500D03*
X114700000Y-21766500D03*
X57800000Y-22243000D03*
X96400000Y-22243000D03*
D30*
X144283503Y-26503500D03*
D31*
X135000000Y-22243000D03*
X115700000Y-22243000D03*
X38500000Y-22243000D03*
X77100000Y-22243000D03*
X97400000Y-22719500D03*
X136000000Y-22719500D03*
X58800000Y-22719500D03*
X39500000Y-22719500D03*
X78100000Y-22719500D03*
D30*
X143284000Y-26503500D03*
D31*
X116700000Y-22719500D03*
D30*
X64050000Y-33250000D03*
X121950000Y-33250000D03*
X83350000Y-33250000D03*
X102650000Y-33250000D03*
X148110000Y-26503500D03*
X141250000Y-33250000D03*
X44750000Y-33250000D03*
X151417714Y-32186286D03*
X150528714Y-31297286D03*
X145824000Y-22794000D03*
D31*
X138000000Y-26750000D03*
X118700000Y-26750000D03*
X99400000Y-26750000D03*
X80100000Y-26750000D03*
X60800000Y-26750000D03*
X41500000Y-26750000D03*
D30*
X173276468Y-53676468D03*
D31*
X175000000Y-55600000D03*
X174363063Y-55563063D03*
D30*
X133500000Y-35300000D03*
X119700000Y-30250000D03*
X114200000Y-35300000D03*
X100400000Y-30250000D03*
X94900000Y-35300000D03*
X81100000Y-30250000D03*
X75600000Y-35300000D03*
X61800000Y-30250000D03*
X56300000Y-35300000D03*
X42500000Y-30250000D03*
X37000000Y-35300000D03*
X153698000Y-65974000D03*
D31*
X168176000Y-52004000D03*
D32*
X35500000Y-25375000D02*
X35500000Y-22800000D01*
X166400000Y-60282500D02*
X168050500Y-58632000D01*
X174600000Y-51235000D02*
X174600000Y-29566378D01*
X130700000Y-31747400D02*
X130701900Y-31749300D01*
X173633622Y-28600000D02*
X170200000Y-28600000D01*
X147350500Y-21500000D02*
X148050000Y-22199500D01*
X34200000Y-31747400D02*
X34201900Y-31749300D01*
X92100000Y-31747400D02*
X92101900Y-31749300D01*
X168530000Y-66047000D02*
X166400000Y-63917000D01*
X72800000Y-31747400D02*
X72801900Y-31749300D01*
X72800000Y-24075000D02*
X72800000Y-21500000D01*
X112700000Y-25375000D02*
X111400000Y-24075000D01*
X130700000Y-24075000D02*
X130700000Y-21500000D01*
X168894000Y-29906000D02*
X166398000Y-29906000D01*
X148390500Y-22540000D02*
X152909500Y-22540000D01*
X132000000Y-25375000D02*
X130700000Y-24075000D01*
X173309500Y-52525500D02*
X174600000Y-51235000D01*
X35500000Y-22800000D02*
X34200000Y-21500000D01*
X53500000Y-21500000D02*
X53500000Y-31747400D01*
X168530000Y-71997000D02*
X168530000Y-66047000D01*
X34750000Y-20750000D02*
X141750000Y-20750000D01*
X173390000Y-80960000D02*
X168530000Y-76100000D01*
X164874000Y-24826000D02*
X164874000Y-25842000D01*
X163683500Y-26016500D02*
X164874000Y-24826000D01*
X34200000Y-21500000D02*
X34200000Y-21300000D01*
X168050500Y-58632000D02*
X168050500Y-53891500D01*
X34200000Y-21300000D02*
X34750000Y-20750000D01*
X74100000Y-25375000D02*
X72800000Y-24075000D01*
X93400000Y-25375000D02*
X92100000Y-24075000D01*
X168530000Y-76100000D02*
X168530000Y-71997000D01*
X53500000Y-31747400D02*
X53501900Y-31749300D01*
X53500000Y-24075000D02*
X53500000Y-21500000D01*
X111400000Y-24075000D02*
X111400000Y-21500000D01*
X54800000Y-25375000D02*
X53500000Y-24075000D01*
X111400000Y-21500000D02*
X111400000Y-31747400D01*
X166400000Y-63917000D02*
X166400000Y-60282500D01*
X153705878Y-22199500D02*
X157522878Y-26016500D01*
X174600000Y-29566378D02*
X173633622Y-28600000D01*
X157522878Y-26016500D02*
X163683500Y-26016500D01*
X170200000Y-28600000D02*
X168894000Y-29906000D01*
X148050000Y-22199500D02*
X148390500Y-22540000D01*
X130700000Y-21500000D02*
X130700000Y-31747400D01*
X92100000Y-21500000D02*
X92100000Y-31747400D01*
X141300000Y-21500000D02*
X147350500Y-21500000D01*
X164874000Y-25842000D02*
X166398000Y-27366000D01*
X152909500Y-22540000D02*
X153250000Y-22199500D01*
X34200000Y-21500000D02*
X34200000Y-31747400D01*
X111400000Y-31747400D02*
X111401900Y-31749300D01*
X72800000Y-21500000D02*
X72800000Y-31747400D01*
X153250000Y-22199500D02*
X153705878Y-22199500D01*
X92100000Y-24075000D02*
X92100000Y-21500000D01*
X168050500Y-53891500D02*
X168176000Y-53766000D01*
D33*
X146282509Y-28078509D02*
X154603000Y-36399000D01*
X154603000Y-36399000D02*
X159683000Y-36399000D01*
X36500000Y-25375000D02*
X36500000Y-21290000D01*
X75100000Y-25375000D02*
X75100000Y-21290000D01*
X159683000Y-36399000D02*
X160810000Y-37526000D01*
X113700000Y-25375000D02*
X113700000Y-21290000D01*
X146282509Y-26503500D02*
X146282509Y-28078509D01*
X133000000Y-25375000D02*
X133000000Y-21290000D01*
X94400000Y-25375000D02*
X94400000Y-21290000D01*
X55800000Y-25375000D02*
X55800000Y-21290000D01*
X114700000Y-25375000D02*
X114700000Y-21766500D01*
X159540000Y-38796000D02*
X160810000Y-40066000D01*
X95400000Y-25375000D02*
X95400000Y-21766500D01*
X56800000Y-25375000D02*
X56800000Y-21766500D01*
X37500000Y-25375000D02*
X37500000Y-21766500D01*
X134000000Y-25375000D02*
X134000000Y-21766500D01*
X145283006Y-27721058D02*
X156357948Y-38796000D01*
X76100000Y-25375000D02*
X76100000Y-21766500D01*
X156357948Y-38796000D02*
X159540000Y-38796000D01*
X145283006Y-26503500D02*
X145283006Y-27721058D01*
X57800000Y-25375000D02*
X57800000Y-22243000D01*
X154968000Y-38048104D02*
X154968000Y-39812000D01*
X144283503Y-27363607D02*
X154968000Y-38048104D01*
X135000000Y-25375000D02*
X135000000Y-22243000D01*
X154968000Y-39812000D02*
X156492000Y-41336000D01*
X77100000Y-25375000D02*
X77100000Y-22243000D01*
X156492000Y-41336000D02*
X159540000Y-41336000D01*
X38500000Y-25375000D02*
X38500000Y-22243000D01*
X115700000Y-25375000D02*
X115700000Y-22243000D01*
X144283503Y-26503500D02*
X144283503Y-27363607D01*
X96400000Y-25375000D02*
X96400000Y-22243000D01*
X159540000Y-41336000D02*
X160810000Y-42606000D01*
X157692181Y-43876000D02*
X159540000Y-43876000D01*
X78100000Y-25375000D02*
X78100000Y-22719500D01*
X58800000Y-25375000D02*
X58800000Y-22719500D01*
X143284000Y-26503500D02*
X143284000Y-27006156D01*
X159540000Y-43876000D02*
X160810000Y-45146000D01*
X143284000Y-27006156D02*
X154460000Y-38182156D01*
X116700000Y-25375000D02*
X116700000Y-22719500D01*
X154460000Y-38182156D02*
X154460000Y-40643819D01*
X154460000Y-40643819D02*
X157692181Y-43876000D01*
X39500000Y-25375000D02*
X39500000Y-22719500D01*
X136000000Y-25375000D02*
X136000000Y-22719500D01*
X97400000Y-25375000D02*
X97400000Y-22719500D01*
D32*
X101150000Y-23500000D02*
X101900000Y-23500000D01*
X64050000Y-24250000D02*
X64050000Y-33250000D01*
X101900000Y-23500000D02*
X102650000Y-24250000D01*
X121950000Y-24250000D02*
X121950000Y-33250000D01*
X81100000Y-25375000D02*
X81100000Y-24250000D01*
X141250000Y-24250000D02*
X141250000Y-33250000D01*
X61800000Y-25375000D02*
X61800000Y-24250000D01*
X145191000Y-23584500D02*
X148110000Y-26503500D01*
X140500000Y-23500000D02*
X140584500Y-23584500D01*
X139000000Y-24250000D02*
X139750000Y-23500000D01*
X62550000Y-23500000D02*
X63300000Y-23500000D01*
X42500000Y-25375000D02*
X42500000Y-24250000D01*
X140500000Y-23500000D02*
X141250000Y-24250000D01*
X140584500Y-23584500D02*
X145191000Y-23584500D01*
X83350000Y-24250000D02*
X83350000Y-33250000D01*
X119700000Y-25375000D02*
X119700000Y-24250000D01*
X82600000Y-23500000D02*
X83350000Y-24250000D01*
X42500000Y-24250000D02*
X43250000Y-23500000D01*
X121200000Y-23500000D02*
X121950000Y-24250000D01*
X44000000Y-23500000D02*
X44750000Y-24250000D01*
X100400000Y-25375000D02*
X100400000Y-24250000D01*
X102650000Y-24250000D02*
X102650000Y-33250000D01*
X63300000Y-23500000D02*
X64050000Y-24250000D01*
X43250000Y-23500000D02*
X44000000Y-23500000D01*
X81850000Y-23500000D02*
X82600000Y-23500000D01*
X119700000Y-24250000D02*
X120450000Y-23500000D01*
X81100000Y-24250000D02*
X81850000Y-23500000D01*
X100400000Y-24250000D02*
X101150000Y-23500000D01*
X139750000Y-23500000D02*
X140500000Y-23500000D01*
X61800000Y-24250000D02*
X62550000Y-23500000D01*
X139000000Y-25375000D02*
X139000000Y-24250000D01*
X120450000Y-23500000D02*
X121200000Y-23500000D01*
X44750000Y-24250000D02*
X44750000Y-33250000D01*
D33*
X159683000Y-33859000D02*
X160810000Y-34986000D01*
X151417714Y-32186286D02*
X153090428Y-33859000D01*
X153090428Y-33859000D02*
X159683000Y-33859000D01*
X150550428Y-31319000D02*
X159683000Y-31319000D01*
X150528714Y-31297286D02*
X150550428Y-31319000D01*
X159683000Y-31319000D02*
X160810000Y-32446000D01*
D32*
X138425000Y-22794000D02*
X145824000Y-22794000D01*
X137000000Y-25375000D02*
X137000000Y-24219000D01*
X137000000Y-24219000D02*
X138425000Y-22794000D01*
D33*
X138000000Y-26750000D02*
X138000000Y-25375000D01*
X118700000Y-26750000D02*
X118700000Y-25375000D01*
X99400000Y-26750000D02*
X99400000Y-25375000D01*
X80100000Y-26750000D02*
X80100000Y-25375000D01*
X60800000Y-26750000D02*
X60800000Y-25375000D01*
X158890000Y-78460000D02*
X161400000Y-75950000D01*
X41500000Y-26750000D02*
X41500000Y-25375000D01*
X161919000Y-53181000D02*
X164874000Y-50226000D01*
X161919000Y-57753000D02*
X161919000Y-53181000D01*
X161400000Y-75950000D02*
X161400000Y-58272000D01*
X161400000Y-58272000D02*
X161919000Y-57753000D01*
D32*
X174235500Y-23635500D02*
X171811500Y-23635500D01*
X175400000Y-24800000D02*
X174235500Y-23635500D01*
X175400000Y-51552936D02*
X175400000Y-24800000D01*
X173276468Y-53676468D02*
X175400000Y-51552936D01*
X171811500Y-23635500D02*
X170462000Y-22286000D01*
D33*
X148050000Y-23899500D02*
X148327000Y-23622500D01*
X153250000Y-23899500D02*
X153250000Y-24653500D01*
X157284500Y-28688000D02*
X163552000Y-28688000D01*
X148327000Y-23622500D02*
X152973000Y-23622500D01*
X152973000Y-23622500D02*
X153250000Y-23899500D01*
X163552000Y-28688000D02*
X164874000Y-27366000D01*
X153250000Y-24653500D02*
X157284500Y-28688000D01*
X173800000Y-56800000D02*
X173800000Y-62854000D01*
X175054000Y-64054000D02*
X175054000Y-81796000D01*
X175054000Y-81796000D02*
X173390000Y-83460000D01*
X173854000Y-62854000D02*
X175054000Y-64054000D01*
X175000000Y-55600000D02*
X173800000Y-56800000D01*
X173800000Y-62854000D02*
X173854000Y-62854000D01*
X174600000Y-64800000D02*
X174600000Y-71000000D01*
X174363063Y-55563063D02*
X173200000Y-56726126D01*
X173200000Y-56726126D02*
X173200000Y-63400000D01*
X173390000Y-72210000D02*
X173390000Y-78460000D01*
X173200000Y-63400000D02*
X174600000Y-64800000D01*
X174600000Y-71000000D02*
X173390000Y-72210000D01*
D32*
X140000000Y-32900000D02*
X137600000Y-35300000D01*
X137600000Y-35300000D02*
X133500000Y-35300000D01*
X140000000Y-25375000D02*
X140000000Y-32900000D01*
X119700000Y-30250000D02*
X117700000Y-28250000D01*
X117700000Y-28250000D02*
X117700000Y-25375000D01*
X120700000Y-25375000D02*
X120700000Y-32900000D01*
X118300000Y-35300000D02*
X114200000Y-35300000D01*
X120700000Y-32900000D02*
X118300000Y-35300000D01*
X98400000Y-28250000D02*
X98400000Y-25375000D01*
X100400000Y-30250000D02*
X98400000Y-28250000D01*
X99000000Y-35300000D02*
X94900000Y-35300000D01*
X101400000Y-32900000D02*
X99000000Y-35300000D01*
X101400000Y-25375000D02*
X101400000Y-32900000D01*
X79100000Y-28250000D02*
X79100000Y-25375000D01*
X81100000Y-30250000D02*
X79100000Y-28250000D01*
X79700000Y-35300000D02*
X75600000Y-35300000D01*
X82100000Y-25375000D02*
X82100000Y-32900000D01*
X82100000Y-32900000D02*
X79700000Y-35300000D01*
X59800000Y-28250000D02*
X59800000Y-25375000D01*
X61800000Y-30250000D02*
X59800000Y-28250000D01*
X62800000Y-25375000D02*
X62800000Y-32900000D01*
X60400000Y-35300000D02*
X56300000Y-35300000D01*
X62800000Y-32900000D02*
X60400000Y-35300000D01*
X40500000Y-28250000D02*
X40500000Y-25375000D01*
X42500000Y-30250000D02*
X40500000Y-28250000D01*
X43500000Y-25375000D02*
X43500000Y-32900000D01*
X43500000Y-32900000D02*
X41100000Y-35300000D01*
X41100000Y-35300000D02*
X37000000Y-35300000D01*
D33*
X164530000Y-66047000D02*
X164557000Y-66074000D01*
X164557000Y-71970000D02*
X164530000Y-71997000D01*
X153698000Y-57102000D02*
X155600000Y-55200000D01*
X159540000Y-48956000D02*
X160810000Y-47686000D01*
X155600000Y-55200000D02*
X155600000Y-50610000D01*
X153698000Y-65974000D02*
X153698000Y-57102000D01*
X155600000Y-50610000D02*
X157254000Y-48956000D01*
X157254000Y-48956000D02*
X159540000Y-48956000D01*
X168176000Y-52004000D02*
X168954000Y-52004000D01*
X168954000Y-52004000D02*
X170716000Y-53766000D01*
M02*
