%TF.GenerationSoftware,KiCad,Pcbnew,7.0.6-7.0.6~ubuntu20.04.1*%
%TF.CreationDate,2023-10-06T02:12:36+00:00*%
%TF.ProjectId,Seismos_CoreL,53656973-6d6f-4735-9f43-6f72654c2e6b,rev?*%
%TF.SameCoordinates,Original*%
%TF.FileFunction,Drillmap*%
%TF.FilePolarity,Positive*%
%FSLAX45Y45*%
G04 Gerber Fmt 4.5, Leading zero omitted, Abs format (unit mm)*
G04 Created by KiCad (PCBNEW 7.0.6-7.0.6~ubuntu20.04.1) date 2023-10-06 02:12:36*
%MOMM*%
%LPD*%
G01*
G04 APERTURE LIST*
%ADD10C,0.100000*%
%ADD11C,0.200000*%
%ADD12C,0.080000*%
%ADD13C,0.090000*%
%ADD14C,0.120000*%
%ADD15C,0.230000*%
%ADD16C,0.300000*%
G04 APERTURE END LIST*
D10*
X15113400Y-9160000D02*
X17550000Y-9160000D01*
X17700000Y-2150000D02*
G75*
G03*
X17550000Y-2000000I-150000J0D01*
G01*
X14963400Y-4281000D02*
X14963400Y-9010000D01*
X14963400Y-9010000D02*
G75*
G03*
X15113400Y-9160000I150000J0D01*
G01*
X3150000Y-3900000D02*
X14582400Y-3900000D01*
X3000000Y-3750000D02*
G75*
G03*
X3150000Y-3900000I150000J0D01*
G01*
X3150000Y-2000000D02*
G75*
G03*
X3000000Y-2150000I0J-150000D01*
G01*
X17700000Y-2150000D02*
X17700000Y-9010000D01*
X17550000Y-9160000D02*
G75*
G03*
X17700000Y-9010000I0J150000D01*
G01*
X14963400Y-4281000D02*
G75*
G03*
X14582400Y-3900000I-381000J0D01*
G01*
X17550000Y-2000000D02*
X3150000Y-2000000D01*
X3000000Y-2150000D02*
X3000000Y-3750000D01*
D11*
D12*
X17440000Y-5823200D02*
X17520000Y-5903200D01*
X17520000Y-5823200D02*
X17440000Y-5903200D01*
X17440000Y-6123200D02*
X17520000Y-6203200D01*
X17520000Y-6123200D02*
X17440000Y-6203200D01*
D13*
X15110000Y-2164950D02*
G75*
G03*
X15110000Y-2164950I-45000J0D01*
G01*
X15110000Y-2444950D02*
G75*
G03*
X15110000Y-2444950I-45000J0D01*
G01*
D14*
X16633000Y-6754700D02*
X16633000Y-6874700D01*
X16573000Y-6814700D02*
X16693000Y-6814700D01*
X16633000Y-6929700D02*
X16633000Y-7049700D01*
X16573000Y-6989700D02*
X16693000Y-6989700D01*
X17333000Y-6754700D02*
X17333000Y-6874700D01*
X17273000Y-6814700D02*
X17393000Y-6814700D01*
X17333000Y-6929700D02*
X17333000Y-7049700D01*
X17273000Y-6989700D02*
X17393000Y-6989700D01*
D15*
X15361318Y-5441318D02*
X15361318Y-5278682D01*
X15198682Y-5278682D01*
X15198682Y-5441318D01*
X15361318Y-5441318D01*
X15801318Y-6441318D02*
X15801318Y-6278682D01*
X15638682Y-6278682D01*
X15638682Y-6441318D01*
X15801318Y-6441318D01*
D16*
X4900000Y-2650000D02*
X5050000Y-2500000D01*
X4900000Y-2350000D01*
X4750000Y-2500000D01*
X4900000Y-2650000D01*
X8760000Y-2650000D02*
X8910000Y-2500000D01*
X8760000Y-2350000D01*
X8610000Y-2500000D01*
X8760000Y-2650000D01*
X12620000Y-2650000D02*
X12770000Y-2500000D01*
X12620000Y-2350000D01*
X12470000Y-2500000D01*
X12620000Y-2650000D01*
X14680000Y-3690000D02*
X14830000Y-3540000D01*
X14680000Y-3390000D01*
X14530000Y-3540000D01*
X14680000Y-3690000D01*
X15360000Y-8930000D02*
X15510000Y-8780000D01*
X15360000Y-8630000D01*
X15210000Y-8780000D01*
X15360000Y-8930000D01*
D11*
X3255777Y-9476484D02*
X3255777Y-9276484D01*
X3255777Y-9276484D02*
X3303396Y-9276484D01*
X3303396Y-9276484D02*
X3331967Y-9286008D01*
X3331967Y-9286008D02*
X3351015Y-9305055D01*
X3351015Y-9305055D02*
X3360539Y-9324103D01*
X3360539Y-9324103D02*
X3370062Y-9362198D01*
X3370062Y-9362198D02*
X3370062Y-9390770D01*
X3370062Y-9390770D02*
X3360539Y-9428865D01*
X3360539Y-9428865D02*
X3351015Y-9447912D01*
X3351015Y-9447912D02*
X3331967Y-9466960D01*
X3331967Y-9466960D02*
X3303396Y-9476484D01*
X3303396Y-9476484D02*
X3255777Y-9476484D01*
X3455777Y-9476484D02*
X3455777Y-9343150D01*
X3455777Y-9381246D02*
X3465301Y-9362198D01*
X3465301Y-9362198D02*
X3474824Y-9352674D01*
X3474824Y-9352674D02*
X3493872Y-9343150D01*
X3493872Y-9343150D02*
X3512920Y-9343150D01*
X3579586Y-9476484D02*
X3579586Y-9343150D01*
X3579586Y-9276484D02*
X3570062Y-9286008D01*
X3570062Y-9286008D02*
X3579586Y-9295531D01*
X3579586Y-9295531D02*
X3589110Y-9286008D01*
X3589110Y-9286008D02*
X3579586Y-9276484D01*
X3579586Y-9276484D02*
X3579586Y-9295531D01*
X3703396Y-9476484D02*
X3684348Y-9466960D01*
X3684348Y-9466960D02*
X3674824Y-9447912D01*
X3674824Y-9447912D02*
X3674824Y-9276484D01*
X3808158Y-9476484D02*
X3789110Y-9466960D01*
X3789110Y-9466960D02*
X3779586Y-9447912D01*
X3779586Y-9447912D02*
X3779586Y-9276484D01*
X4036729Y-9476484D02*
X4036729Y-9276484D01*
X4036729Y-9276484D02*
X4103396Y-9419341D01*
X4103396Y-9419341D02*
X4170062Y-9276484D01*
X4170062Y-9276484D02*
X4170062Y-9476484D01*
X4351015Y-9476484D02*
X4351015Y-9371722D01*
X4351015Y-9371722D02*
X4341491Y-9352674D01*
X4341491Y-9352674D02*
X4322444Y-9343150D01*
X4322444Y-9343150D02*
X4284348Y-9343150D01*
X4284348Y-9343150D02*
X4265301Y-9352674D01*
X4351015Y-9466960D02*
X4331967Y-9476484D01*
X4331967Y-9476484D02*
X4284348Y-9476484D01*
X4284348Y-9476484D02*
X4265301Y-9466960D01*
X4265301Y-9466960D02*
X4255777Y-9447912D01*
X4255777Y-9447912D02*
X4255777Y-9428865D01*
X4255777Y-9428865D02*
X4265301Y-9409817D01*
X4265301Y-9409817D02*
X4284348Y-9400293D01*
X4284348Y-9400293D02*
X4331967Y-9400293D01*
X4331967Y-9400293D02*
X4351015Y-9390770D01*
X4446253Y-9343150D02*
X4446253Y-9543150D01*
X4446253Y-9352674D02*
X4465301Y-9343150D01*
X4465301Y-9343150D02*
X4503396Y-9343150D01*
X4503396Y-9343150D02*
X4522444Y-9352674D01*
X4522444Y-9352674D02*
X4531967Y-9362198D01*
X4531967Y-9362198D02*
X4541491Y-9381246D01*
X4541491Y-9381246D02*
X4541491Y-9438389D01*
X4541491Y-9438389D02*
X4531967Y-9457436D01*
X4531967Y-9457436D02*
X4522444Y-9466960D01*
X4522444Y-9466960D02*
X4503396Y-9476484D01*
X4503396Y-9476484D02*
X4465301Y-9476484D01*
X4465301Y-9476484D02*
X4446253Y-9466960D01*
X4627205Y-9457436D02*
X4636729Y-9466960D01*
X4636729Y-9466960D02*
X4627205Y-9476484D01*
X4627205Y-9476484D02*
X4617682Y-9466960D01*
X4617682Y-9466960D02*
X4627205Y-9457436D01*
X4627205Y-9457436D02*
X4627205Y-9476484D01*
X4627205Y-9352674D02*
X4636729Y-9362198D01*
X4636729Y-9362198D02*
X4627205Y-9371722D01*
X4627205Y-9371722D02*
X4617682Y-9362198D01*
X4617682Y-9362198D02*
X4627205Y-9352674D01*
X4627205Y-9352674D02*
X4627205Y-9371722D01*
D12*
X2915000Y-9765000D02*
X2995000Y-9845000D01*
X2995000Y-9765000D02*
X2915000Y-9845000D01*
D11*
X3293872Y-9696484D02*
X3312920Y-9696484D01*
X3312920Y-9696484D02*
X3331967Y-9706008D01*
X3331967Y-9706008D02*
X3341491Y-9715531D01*
X3341491Y-9715531D02*
X3351015Y-9734579D01*
X3351015Y-9734579D02*
X3360539Y-9772674D01*
X3360539Y-9772674D02*
X3360539Y-9820293D01*
X3360539Y-9820293D02*
X3351015Y-9858389D01*
X3351015Y-9858389D02*
X3341491Y-9877436D01*
X3341491Y-9877436D02*
X3331967Y-9886960D01*
X3331967Y-9886960D02*
X3312920Y-9896484D01*
X3312920Y-9896484D02*
X3293872Y-9896484D01*
X3293872Y-9896484D02*
X3274824Y-9886960D01*
X3274824Y-9886960D02*
X3265301Y-9877436D01*
X3265301Y-9877436D02*
X3255777Y-9858389D01*
X3255777Y-9858389D02*
X3246253Y-9820293D01*
X3246253Y-9820293D02*
X3246253Y-9772674D01*
X3246253Y-9772674D02*
X3255777Y-9734579D01*
X3255777Y-9734579D02*
X3265301Y-9715531D01*
X3265301Y-9715531D02*
X3274824Y-9706008D01*
X3274824Y-9706008D02*
X3293872Y-9696484D01*
X3446253Y-9877436D02*
X3455777Y-9886960D01*
X3455777Y-9886960D02*
X3446253Y-9896484D01*
X3446253Y-9896484D02*
X3436729Y-9886960D01*
X3436729Y-9886960D02*
X3446253Y-9877436D01*
X3446253Y-9877436D02*
X3446253Y-9896484D01*
X3570062Y-9782198D02*
X3551015Y-9772674D01*
X3551015Y-9772674D02*
X3541491Y-9763150D01*
X3541491Y-9763150D02*
X3531967Y-9744103D01*
X3531967Y-9744103D02*
X3531967Y-9734579D01*
X3531967Y-9734579D02*
X3541491Y-9715531D01*
X3541491Y-9715531D02*
X3551015Y-9706008D01*
X3551015Y-9706008D02*
X3570062Y-9696484D01*
X3570062Y-9696484D02*
X3608158Y-9696484D01*
X3608158Y-9696484D02*
X3627205Y-9706008D01*
X3627205Y-9706008D02*
X3636729Y-9715531D01*
X3636729Y-9715531D02*
X3646253Y-9734579D01*
X3646253Y-9734579D02*
X3646253Y-9744103D01*
X3646253Y-9744103D02*
X3636729Y-9763150D01*
X3636729Y-9763150D02*
X3627205Y-9772674D01*
X3627205Y-9772674D02*
X3608158Y-9782198D01*
X3608158Y-9782198D02*
X3570062Y-9782198D01*
X3570062Y-9782198D02*
X3551015Y-9791722D01*
X3551015Y-9791722D02*
X3541491Y-9801246D01*
X3541491Y-9801246D02*
X3531967Y-9820293D01*
X3531967Y-9820293D02*
X3531967Y-9858389D01*
X3531967Y-9858389D02*
X3541491Y-9877436D01*
X3541491Y-9877436D02*
X3551015Y-9886960D01*
X3551015Y-9886960D02*
X3570062Y-9896484D01*
X3570062Y-9896484D02*
X3608158Y-9896484D01*
X3608158Y-9896484D02*
X3627205Y-9886960D01*
X3627205Y-9886960D02*
X3636729Y-9877436D01*
X3636729Y-9877436D02*
X3646253Y-9858389D01*
X3646253Y-9858389D02*
X3646253Y-9820293D01*
X3646253Y-9820293D02*
X3636729Y-9801246D01*
X3636729Y-9801246D02*
X3627205Y-9791722D01*
X3627205Y-9791722D02*
X3608158Y-9782198D01*
X3770062Y-9696484D02*
X3789110Y-9696484D01*
X3789110Y-9696484D02*
X3808158Y-9706008D01*
X3808158Y-9706008D02*
X3817682Y-9715531D01*
X3817682Y-9715531D02*
X3827205Y-9734579D01*
X3827205Y-9734579D02*
X3836729Y-9772674D01*
X3836729Y-9772674D02*
X3836729Y-9820293D01*
X3836729Y-9820293D02*
X3827205Y-9858389D01*
X3827205Y-9858389D02*
X3817682Y-9877436D01*
X3817682Y-9877436D02*
X3808158Y-9886960D01*
X3808158Y-9886960D02*
X3789110Y-9896484D01*
X3789110Y-9896484D02*
X3770062Y-9896484D01*
X3770062Y-9896484D02*
X3751015Y-9886960D01*
X3751015Y-9886960D02*
X3741491Y-9877436D01*
X3741491Y-9877436D02*
X3731967Y-9858389D01*
X3731967Y-9858389D02*
X3722443Y-9820293D01*
X3722443Y-9820293D02*
X3722443Y-9772674D01*
X3722443Y-9772674D02*
X3731967Y-9734579D01*
X3731967Y-9734579D02*
X3741491Y-9715531D01*
X3741491Y-9715531D02*
X3751015Y-9706008D01*
X3751015Y-9706008D02*
X3770062Y-9696484D01*
X3960539Y-9696484D02*
X3979586Y-9696484D01*
X3979586Y-9696484D02*
X3998634Y-9706008D01*
X3998634Y-9706008D02*
X4008158Y-9715531D01*
X4008158Y-9715531D02*
X4017682Y-9734579D01*
X4017682Y-9734579D02*
X4027205Y-9772674D01*
X4027205Y-9772674D02*
X4027205Y-9820293D01*
X4027205Y-9820293D02*
X4017682Y-9858389D01*
X4017682Y-9858389D02*
X4008158Y-9877436D01*
X4008158Y-9877436D02*
X3998634Y-9886960D01*
X3998634Y-9886960D02*
X3979586Y-9896484D01*
X3979586Y-9896484D02*
X3960539Y-9896484D01*
X3960539Y-9896484D02*
X3941491Y-9886960D01*
X3941491Y-9886960D02*
X3931967Y-9877436D01*
X3931967Y-9877436D02*
X3922443Y-9858389D01*
X3922443Y-9858389D02*
X3912920Y-9820293D01*
X3912920Y-9820293D02*
X3912920Y-9772674D01*
X3912920Y-9772674D02*
X3922443Y-9734579D01*
X3922443Y-9734579D02*
X3931967Y-9715531D01*
X3931967Y-9715531D02*
X3941491Y-9706008D01*
X3941491Y-9706008D02*
X3960539Y-9696484D01*
X4112920Y-9896484D02*
X4112920Y-9763150D01*
X4112920Y-9782198D02*
X4122443Y-9772674D01*
X4122443Y-9772674D02*
X4141491Y-9763150D01*
X4141491Y-9763150D02*
X4170063Y-9763150D01*
X4170063Y-9763150D02*
X4189110Y-9772674D01*
X4189110Y-9772674D02*
X4198634Y-9791722D01*
X4198634Y-9791722D02*
X4198634Y-9896484D01*
X4198634Y-9791722D02*
X4208158Y-9772674D01*
X4208158Y-9772674D02*
X4227205Y-9763150D01*
X4227205Y-9763150D02*
X4255777Y-9763150D01*
X4255777Y-9763150D02*
X4274825Y-9772674D01*
X4274825Y-9772674D02*
X4284348Y-9791722D01*
X4284348Y-9791722D02*
X4284348Y-9896484D01*
X4379586Y-9896484D02*
X4379586Y-9763150D01*
X4379586Y-9782198D02*
X4389110Y-9772674D01*
X4389110Y-9772674D02*
X4408158Y-9763150D01*
X4408158Y-9763150D02*
X4436729Y-9763150D01*
X4436729Y-9763150D02*
X4455777Y-9772674D01*
X4455777Y-9772674D02*
X4465301Y-9791722D01*
X4465301Y-9791722D02*
X4465301Y-9896484D01*
X4465301Y-9791722D02*
X4474825Y-9772674D01*
X4474825Y-9772674D02*
X4493872Y-9763150D01*
X4493872Y-9763150D02*
X4522444Y-9763150D01*
X4522444Y-9763150D02*
X4541491Y-9772674D01*
X4541491Y-9772674D02*
X4551015Y-9791722D01*
X4551015Y-9791722D02*
X4551015Y-9896484D01*
X4941491Y-9686960D02*
X4770063Y-9944103D01*
X5198634Y-9696484D02*
X5217682Y-9696484D01*
X5217682Y-9696484D02*
X5236729Y-9706008D01*
X5236729Y-9706008D02*
X5246253Y-9715531D01*
X5246253Y-9715531D02*
X5255777Y-9734579D01*
X5255777Y-9734579D02*
X5265301Y-9772674D01*
X5265301Y-9772674D02*
X5265301Y-9820293D01*
X5265301Y-9820293D02*
X5255777Y-9858389D01*
X5255777Y-9858389D02*
X5246253Y-9877436D01*
X5246253Y-9877436D02*
X5236729Y-9886960D01*
X5236729Y-9886960D02*
X5217682Y-9896484D01*
X5217682Y-9896484D02*
X5198634Y-9896484D01*
X5198634Y-9896484D02*
X5179587Y-9886960D01*
X5179587Y-9886960D02*
X5170063Y-9877436D01*
X5170063Y-9877436D02*
X5160539Y-9858389D01*
X5160539Y-9858389D02*
X5151015Y-9820293D01*
X5151015Y-9820293D02*
X5151015Y-9772674D01*
X5151015Y-9772674D02*
X5160539Y-9734579D01*
X5160539Y-9734579D02*
X5170063Y-9715531D01*
X5170063Y-9715531D02*
X5179587Y-9706008D01*
X5179587Y-9706008D02*
X5198634Y-9696484D01*
X5351015Y-9877436D02*
X5360539Y-9886960D01*
X5360539Y-9886960D02*
X5351015Y-9896484D01*
X5351015Y-9896484D02*
X5341491Y-9886960D01*
X5341491Y-9886960D02*
X5351015Y-9877436D01*
X5351015Y-9877436D02*
X5351015Y-9896484D01*
X5484348Y-9696484D02*
X5503396Y-9696484D01*
X5503396Y-9696484D02*
X5522444Y-9706008D01*
X5522444Y-9706008D02*
X5531968Y-9715531D01*
X5531968Y-9715531D02*
X5541491Y-9734579D01*
X5541491Y-9734579D02*
X5551015Y-9772674D01*
X5551015Y-9772674D02*
X5551015Y-9820293D01*
X5551015Y-9820293D02*
X5541491Y-9858389D01*
X5541491Y-9858389D02*
X5531968Y-9877436D01*
X5531968Y-9877436D02*
X5522444Y-9886960D01*
X5522444Y-9886960D02*
X5503396Y-9896484D01*
X5503396Y-9896484D02*
X5484348Y-9896484D01*
X5484348Y-9896484D02*
X5465301Y-9886960D01*
X5465301Y-9886960D02*
X5455777Y-9877436D01*
X5455777Y-9877436D02*
X5446253Y-9858389D01*
X5446253Y-9858389D02*
X5436729Y-9820293D01*
X5436729Y-9820293D02*
X5436729Y-9772674D01*
X5436729Y-9772674D02*
X5446253Y-9734579D01*
X5446253Y-9734579D02*
X5455777Y-9715531D01*
X5455777Y-9715531D02*
X5465301Y-9706008D01*
X5465301Y-9706008D02*
X5484348Y-9696484D01*
X5617682Y-9696484D02*
X5741491Y-9696484D01*
X5741491Y-9696484D02*
X5674825Y-9772674D01*
X5674825Y-9772674D02*
X5703396Y-9772674D01*
X5703396Y-9772674D02*
X5722444Y-9782198D01*
X5722444Y-9782198D02*
X5731967Y-9791722D01*
X5731967Y-9791722D02*
X5741491Y-9810770D01*
X5741491Y-9810770D02*
X5741491Y-9858389D01*
X5741491Y-9858389D02*
X5731967Y-9877436D01*
X5731967Y-9877436D02*
X5722444Y-9886960D01*
X5722444Y-9886960D02*
X5703396Y-9896484D01*
X5703396Y-9896484D02*
X5646253Y-9896484D01*
X5646253Y-9896484D02*
X5627206Y-9886960D01*
X5627206Y-9886960D02*
X5617682Y-9877436D01*
X5931967Y-9896484D02*
X5817682Y-9896484D01*
X5874825Y-9896484D02*
X5874825Y-9696484D01*
X5874825Y-9696484D02*
X5855777Y-9725055D01*
X5855777Y-9725055D02*
X5836729Y-9744103D01*
X5836729Y-9744103D02*
X5817682Y-9753627D01*
X6112920Y-9696484D02*
X6017682Y-9696484D01*
X6017682Y-9696484D02*
X6008158Y-9791722D01*
X6008158Y-9791722D02*
X6017682Y-9782198D01*
X6017682Y-9782198D02*
X6036729Y-9772674D01*
X6036729Y-9772674D02*
X6084348Y-9772674D01*
X6084348Y-9772674D02*
X6103396Y-9782198D01*
X6103396Y-9782198D02*
X6112920Y-9791722D01*
X6112920Y-9791722D02*
X6122444Y-9810770D01*
X6122444Y-9810770D02*
X6122444Y-9858389D01*
X6122444Y-9858389D02*
X6112920Y-9877436D01*
X6112920Y-9877436D02*
X6103396Y-9886960D01*
X6103396Y-9886960D02*
X6084348Y-9896484D01*
X6084348Y-9896484D02*
X6036729Y-9896484D01*
X6036729Y-9896484D02*
X6017682Y-9886960D01*
X6017682Y-9886960D02*
X6008158Y-9877436D01*
X6198634Y-9696484D02*
X6198634Y-9734579D01*
X6274825Y-9696484D02*
X6274825Y-9734579D01*
X6570063Y-9972674D02*
X6560539Y-9963150D01*
X6560539Y-9963150D02*
X6541491Y-9934579D01*
X6541491Y-9934579D02*
X6531968Y-9915531D01*
X6531968Y-9915531D02*
X6522444Y-9886960D01*
X6522444Y-9886960D02*
X6512920Y-9839341D01*
X6512920Y-9839341D02*
X6512920Y-9801246D01*
X6512920Y-9801246D02*
X6522444Y-9753627D01*
X6522444Y-9753627D02*
X6531968Y-9725055D01*
X6531968Y-9725055D02*
X6541491Y-9706008D01*
X6541491Y-9706008D02*
X6560539Y-9677436D01*
X6560539Y-9677436D02*
X6570063Y-9667912D01*
X6636729Y-9715531D02*
X6646253Y-9706008D01*
X6646253Y-9706008D02*
X6665301Y-9696484D01*
X6665301Y-9696484D02*
X6712920Y-9696484D01*
X6712920Y-9696484D02*
X6731968Y-9706008D01*
X6731968Y-9706008D02*
X6741491Y-9715531D01*
X6741491Y-9715531D02*
X6751015Y-9734579D01*
X6751015Y-9734579D02*
X6751015Y-9753627D01*
X6751015Y-9753627D02*
X6741491Y-9782198D01*
X6741491Y-9782198D02*
X6627206Y-9896484D01*
X6627206Y-9896484D02*
X6751015Y-9896484D01*
X6989110Y-9896484D02*
X6989110Y-9696484D01*
X7074825Y-9896484D02*
X7074825Y-9791722D01*
X7074825Y-9791722D02*
X7065301Y-9772674D01*
X7065301Y-9772674D02*
X7046253Y-9763150D01*
X7046253Y-9763150D02*
X7017682Y-9763150D01*
X7017682Y-9763150D02*
X6998634Y-9772674D01*
X6998634Y-9772674D02*
X6989110Y-9782198D01*
X7198634Y-9896484D02*
X7179587Y-9886960D01*
X7179587Y-9886960D02*
X7170063Y-9877436D01*
X7170063Y-9877436D02*
X7160539Y-9858389D01*
X7160539Y-9858389D02*
X7160539Y-9801246D01*
X7160539Y-9801246D02*
X7170063Y-9782198D01*
X7170063Y-9782198D02*
X7179587Y-9772674D01*
X7179587Y-9772674D02*
X7198634Y-9763150D01*
X7198634Y-9763150D02*
X7227206Y-9763150D01*
X7227206Y-9763150D02*
X7246253Y-9772674D01*
X7246253Y-9772674D02*
X7255777Y-9782198D01*
X7255777Y-9782198D02*
X7265301Y-9801246D01*
X7265301Y-9801246D02*
X7265301Y-9858389D01*
X7265301Y-9858389D02*
X7255777Y-9877436D01*
X7255777Y-9877436D02*
X7246253Y-9886960D01*
X7246253Y-9886960D02*
X7227206Y-9896484D01*
X7227206Y-9896484D02*
X7198634Y-9896484D01*
X7379587Y-9896484D02*
X7360539Y-9886960D01*
X7360539Y-9886960D02*
X7351015Y-9867912D01*
X7351015Y-9867912D02*
X7351015Y-9696484D01*
X7531968Y-9886960D02*
X7512920Y-9896484D01*
X7512920Y-9896484D02*
X7474825Y-9896484D01*
X7474825Y-9896484D02*
X7455777Y-9886960D01*
X7455777Y-9886960D02*
X7446253Y-9867912D01*
X7446253Y-9867912D02*
X7446253Y-9791722D01*
X7446253Y-9791722D02*
X7455777Y-9772674D01*
X7455777Y-9772674D02*
X7474825Y-9763150D01*
X7474825Y-9763150D02*
X7512920Y-9763150D01*
X7512920Y-9763150D02*
X7531968Y-9772674D01*
X7531968Y-9772674D02*
X7541491Y-9791722D01*
X7541491Y-9791722D02*
X7541491Y-9810770D01*
X7541491Y-9810770D02*
X7446253Y-9829817D01*
X7617682Y-9886960D02*
X7636730Y-9896484D01*
X7636730Y-9896484D02*
X7674825Y-9896484D01*
X7674825Y-9896484D02*
X7693872Y-9886960D01*
X7693872Y-9886960D02*
X7703396Y-9867912D01*
X7703396Y-9867912D02*
X7703396Y-9858389D01*
X7703396Y-9858389D02*
X7693872Y-9839341D01*
X7693872Y-9839341D02*
X7674825Y-9829817D01*
X7674825Y-9829817D02*
X7646253Y-9829817D01*
X7646253Y-9829817D02*
X7627206Y-9820293D01*
X7627206Y-9820293D02*
X7617682Y-9801246D01*
X7617682Y-9801246D02*
X7617682Y-9791722D01*
X7617682Y-9791722D02*
X7627206Y-9772674D01*
X7627206Y-9772674D02*
X7646253Y-9763150D01*
X7646253Y-9763150D02*
X7674825Y-9763150D01*
X7674825Y-9763150D02*
X7693872Y-9772674D01*
X7770063Y-9972674D02*
X7779587Y-9963150D01*
X7779587Y-9963150D02*
X7798634Y-9934579D01*
X7798634Y-9934579D02*
X7808158Y-9915531D01*
X7808158Y-9915531D02*
X7817682Y-9886960D01*
X7817682Y-9886960D02*
X7827206Y-9839341D01*
X7827206Y-9839341D02*
X7827206Y-9801246D01*
X7827206Y-9801246D02*
X7817682Y-9753627D01*
X7817682Y-9753627D02*
X7808158Y-9725055D01*
X7808158Y-9725055D02*
X7798634Y-9706008D01*
X7798634Y-9706008D02*
X7779587Y-9677436D01*
X7779587Y-9677436D02*
X7770063Y-9667912D01*
X8131968Y-9972674D02*
X8122444Y-9963150D01*
X8122444Y-9963150D02*
X8103396Y-9934579D01*
X8103396Y-9934579D02*
X8093872Y-9915531D01*
X8093872Y-9915531D02*
X8084349Y-9886960D01*
X8084349Y-9886960D02*
X8074825Y-9839341D01*
X8074825Y-9839341D02*
X8074825Y-9801246D01*
X8074825Y-9801246D02*
X8084349Y-9753627D01*
X8084349Y-9753627D02*
X8093872Y-9725055D01*
X8093872Y-9725055D02*
X8103396Y-9706008D01*
X8103396Y-9706008D02*
X8122444Y-9677436D01*
X8122444Y-9677436D02*
X8131968Y-9667912D01*
X8208158Y-9763150D02*
X8208158Y-9896484D01*
X8208158Y-9782198D02*
X8217682Y-9772674D01*
X8217682Y-9772674D02*
X8236730Y-9763150D01*
X8236730Y-9763150D02*
X8265301Y-9763150D01*
X8265301Y-9763150D02*
X8284349Y-9772674D01*
X8284349Y-9772674D02*
X8293872Y-9791722D01*
X8293872Y-9791722D02*
X8293872Y-9896484D01*
X8417682Y-9896484D02*
X8398634Y-9886960D01*
X8398634Y-9886960D02*
X8389111Y-9877436D01*
X8389111Y-9877436D02*
X8379587Y-9858389D01*
X8379587Y-9858389D02*
X8379587Y-9801246D01*
X8379587Y-9801246D02*
X8389111Y-9782198D01*
X8389111Y-9782198D02*
X8398634Y-9772674D01*
X8398634Y-9772674D02*
X8417682Y-9763150D01*
X8417682Y-9763150D02*
X8446254Y-9763150D01*
X8446254Y-9763150D02*
X8465301Y-9772674D01*
X8465301Y-9772674D02*
X8474825Y-9782198D01*
X8474825Y-9782198D02*
X8484349Y-9801246D01*
X8484349Y-9801246D02*
X8484349Y-9858389D01*
X8484349Y-9858389D02*
X8474825Y-9877436D01*
X8474825Y-9877436D02*
X8465301Y-9886960D01*
X8465301Y-9886960D02*
X8446254Y-9896484D01*
X8446254Y-9896484D02*
X8417682Y-9896484D01*
X8541492Y-9763150D02*
X8617682Y-9763150D01*
X8570063Y-9696484D02*
X8570063Y-9867912D01*
X8570063Y-9867912D02*
X8579587Y-9886960D01*
X8579587Y-9886960D02*
X8598634Y-9896484D01*
X8598634Y-9896484D02*
X8617682Y-9896484D01*
X8836730Y-9763150D02*
X8836730Y-9963150D01*
X8836730Y-9772674D02*
X8855777Y-9763150D01*
X8855777Y-9763150D02*
X8893873Y-9763150D01*
X8893873Y-9763150D02*
X8912920Y-9772674D01*
X8912920Y-9772674D02*
X8922444Y-9782198D01*
X8922444Y-9782198D02*
X8931968Y-9801246D01*
X8931968Y-9801246D02*
X8931968Y-9858389D01*
X8931968Y-9858389D02*
X8922444Y-9877436D01*
X8922444Y-9877436D02*
X8912920Y-9886960D01*
X8912920Y-9886960D02*
X8893873Y-9896484D01*
X8893873Y-9896484D02*
X8855777Y-9896484D01*
X8855777Y-9896484D02*
X8836730Y-9886960D01*
X9046254Y-9896484D02*
X9027206Y-9886960D01*
X9027206Y-9886960D02*
X9017682Y-9867912D01*
X9017682Y-9867912D02*
X9017682Y-9696484D01*
X9208158Y-9896484D02*
X9208158Y-9791722D01*
X9208158Y-9791722D02*
X9198635Y-9772674D01*
X9198635Y-9772674D02*
X9179587Y-9763150D01*
X9179587Y-9763150D02*
X9141492Y-9763150D01*
X9141492Y-9763150D02*
X9122444Y-9772674D01*
X9208158Y-9886960D02*
X9189111Y-9896484D01*
X9189111Y-9896484D02*
X9141492Y-9896484D01*
X9141492Y-9896484D02*
X9122444Y-9886960D01*
X9122444Y-9886960D02*
X9112920Y-9867912D01*
X9112920Y-9867912D02*
X9112920Y-9848865D01*
X9112920Y-9848865D02*
X9122444Y-9829817D01*
X9122444Y-9829817D02*
X9141492Y-9820293D01*
X9141492Y-9820293D02*
X9189111Y-9820293D01*
X9189111Y-9820293D02*
X9208158Y-9810770D01*
X9274825Y-9763150D02*
X9351015Y-9763150D01*
X9303396Y-9696484D02*
X9303396Y-9867912D01*
X9303396Y-9867912D02*
X9312920Y-9886960D01*
X9312920Y-9886960D02*
X9331968Y-9896484D01*
X9331968Y-9896484D02*
X9351015Y-9896484D01*
X9493873Y-9886960D02*
X9474825Y-9896484D01*
X9474825Y-9896484D02*
X9436730Y-9896484D01*
X9436730Y-9896484D02*
X9417682Y-9886960D01*
X9417682Y-9886960D02*
X9408158Y-9867912D01*
X9408158Y-9867912D02*
X9408158Y-9791722D01*
X9408158Y-9791722D02*
X9417682Y-9772674D01*
X9417682Y-9772674D02*
X9436730Y-9763150D01*
X9436730Y-9763150D02*
X9474825Y-9763150D01*
X9474825Y-9763150D02*
X9493873Y-9772674D01*
X9493873Y-9772674D02*
X9503396Y-9791722D01*
X9503396Y-9791722D02*
X9503396Y-9810770D01*
X9503396Y-9810770D02*
X9408158Y-9829817D01*
X9674825Y-9896484D02*
X9674825Y-9696484D01*
X9674825Y-9886960D02*
X9655777Y-9896484D01*
X9655777Y-9896484D02*
X9617682Y-9896484D01*
X9617682Y-9896484D02*
X9598635Y-9886960D01*
X9598635Y-9886960D02*
X9589111Y-9877436D01*
X9589111Y-9877436D02*
X9579587Y-9858389D01*
X9579587Y-9858389D02*
X9579587Y-9801246D01*
X9579587Y-9801246D02*
X9589111Y-9782198D01*
X9589111Y-9782198D02*
X9598635Y-9772674D01*
X9598635Y-9772674D02*
X9617682Y-9763150D01*
X9617682Y-9763150D02*
X9655777Y-9763150D01*
X9655777Y-9763150D02*
X9674825Y-9772674D01*
X9751016Y-9972674D02*
X9760539Y-9963150D01*
X9760539Y-9963150D02*
X9779587Y-9934579D01*
X9779587Y-9934579D02*
X9789111Y-9915531D01*
X9789111Y-9915531D02*
X9798635Y-9886960D01*
X9798635Y-9886960D02*
X9808158Y-9839341D01*
X9808158Y-9839341D02*
X9808158Y-9801246D01*
X9808158Y-9801246D02*
X9798635Y-9753627D01*
X9798635Y-9753627D02*
X9789111Y-9725055D01*
X9789111Y-9725055D02*
X9779587Y-9706008D01*
X9779587Y-9706008D02*
X9760539Y-9677436D01*
X9760539Y-9677436D02*
X9751016Y-9667912D01*
D13*
X2995000Y-10069000D02*
G75*
G03*
X2995000Y-10069000I-45000J0D01*
G01*
D11*
X3293872Y-9960484D02*
X3312920Y-9960484D01*
X3312920Y-9960484D02*
X3331967Y-9970008D01*
X3331967Y-9970008D02*
X3341491Y-9979531D01*
X3341491Y-9979531D02*
X3351015Y-9998579D01*
X3351015Y-9998579D02*
X3360539Y-10036674D01*
X3360539Y-10036674D02*
X3360539Y-10084293D01*
X3360539Y-10084293D02*
X3351015Y-10122389D01*
X3351015Y-10122389D02*
X3341491Y-10141436D01*
X3341491Y-10141436D02*
X3331967Y-10150960D01*
X3331967Y-10150960D02*
X3312920Y-10160484D01*
X3312920Y-10160484D02*
X3293872Y-10160484D01*
X3293872Y-10160484D02*
X3274824Y-10150960D01*
X3274824Y-10150960D02*
X3265301Y-10141436D01*
X3265301Y-10141436D02*
X3255777Y-10122389D01*
X3255777Y-10122389D02*
X3246253Y-10084293D01*
X3246253Y-10084293D02*
X3246253Y-10036674D01*
X3246253Y-10036674D02*
X3255777Y-9998579D01*
X3255777Y-9998579D02*
X3265301Y-9979531D01*
X3265301Y-9979531D02*
X3274824Y-9970008D01*
X3274824Y-9970008D02*
X3293872Y-9960484D01*
X3446253Y-10141436D02*
X3455777Y-10150960D01*
X3455777Y-10150960D02*
X3446253Y-10160484D01*
X3446253Y-10160484D02*
X3436729Y-10150960D01*
X3436729Y-10150960D02*
X3446253Y-10141436D01*
X3446253Y-10141436D02*
X3446253Y-10160484D01*
X3551015Y-10160484D02*
X3589110Y-10160484D01*
X3589110Y-10160484D02*
X3608158Y-10150960D01*
X3608158Y-10150960D02*
X3617682Y-10141436D01*
X3617682Y-10141436D02*
X3636729Y-10112865D01*
X3636729Y-10112865D02*
X3646253Y-10074770D01*
X3646253Y-10074770D02*
X3646253Y-9998579D01*
X3646253Y-9998579D02*
X3636729Y-9979531D01*
X3636729Y-9979531D02*
X3627205Y-9970008D01*
X3627205Y-9970008D02*
X3608158Y-9960484D01*
X3608158Y-9960484D02*
X3570062Y-9960484D01*
X3570062Y-9960484D02*
X3551015Y-9970008D01*
X3551015Y-9970008D02*
X3541491Y-9979531D01*
X3541491Y-9979531D02*
X3531967Y-9998579D01*
X3531967Y-9998579D02*
X3531967Y-10046198D01*
X3531967Y-10046198D02*
X3541491Y-10065246D01*
X3541491Y-10065246D02*
X3551015Y-10074770D01*
X3551015Y-10074770D02*
X3570062Y-10084293D01*
X3570062Y-10084293D02*
X3608158Y-10084293D01*
X3608158Y-10084293D02*
X3627205Y-10074770D01*
X3627205Y-10074770D02*
X3636729Y-10065246D01*
X3636729Y-10065246D02*
X3646253Y-10046198D01*
X3770062Y-9960484D02*
X3789110Y-9960484D01*
X3789110Y-9960484D02*
X3808158Y-9970008D01*
X3808158Y-9970008D02*
X3817682Y-9979531D01*
X3817682Y-9979531D02*
X3827205Y-9998579D01*
X3827205Y-9998579D02*
X3836729Y-10036674D01*
X3836729Y-10036674D02*
X3836729Y-10084293D01*
X3836729Y-10084293D02*
X3827205Y-10122389D01*
X3827205Y-10122389D02*
X3817682Y-10141436D01*
X3817682Y-10141436D02*
X3808158Y-10150960D01*
X3808158Y-10150960D02*
X3789110Y-10160484D01*
X3789110Y-10160484D02*
X3770062Y-10160484D01*
X3770062Y-10160484D02*
X3751015Y-10150960D01*
X3751015Y-10150960D02*
X3741491Y-10141436D01*
X3741491Y-10141436D02*
X3731967Y-10122389D01*
X3731967Y-10122389D02*
X3722443Y-10084293D01*
X3722443Y-10084293D02*
X3722443Y-10036674D01*
X3722443Y-10036674D02*
X3731967Y-9998579D01*
X3731967Y-9998579D02*
X3741491Y-9979531D01*
X3741491Y-9979531D02*
X3751015Y-9970008D01*
X3751015Y-9970008D02*
X3770062Y-9960484D01*
X3960539Y-9960484D02*
X3979586Y-9960484D01*
X3979586Y-9960484D02*
X3998634Y-9970008D01*
X3998634Y-9970008D02*
X4008158Y-9979531D01*
X4008158Y-9979531D02*
X4017682Y-9998579D01*
X4017682Y-9998579D02*
X4027205Y-10036674D01*
X4027205Y-10036674D02*
X4027205Y-10084293D01*
X4027205Y-10084293D02*
X4017682Y-10122389D01*
X4017682Y-10122389D02*
X4008158Y-10141436D01*
X4008158Y-10141436D02*
X3998634Y-10150960D01*
X3998634Y-10150960D02*
X3979586Y-10160484D01*
X3979586Y-10160484D02*
X3960539Y-10160484D01*
X3960539Y-10160484D02*
X3941491Y-10150960D01*
X3941491Y-10150960D02*
X3931967Y-10141436D01*
X3931967Y-10141436D02*
X3922443Y-10122389D01*
X3922443Y-10122389D02*
X3912920Y-10084293D01*
X3912920Y-10084293D02*
X3912920Y-10036674D01*
X3912920Y-10036674D02*
X3922443Y-9998579D01*
X3922443Y-9998579D02*
X3931967Y-9979531D01*
X3931967Y-9979531D02*
X3941491Y-9970008D01*
X3941491Y-9970008D02*
X3960539Y-9960484D01*
X4112920Y-10160484D02*
X4112920Y-10027150D01*
X4112920Y-10046198D02*
X4122443Y-10036674D01*
X4122443Y-10036674D02*
X4141491Y-10027150D01*
X4141491Y-10027150D02*
X4170063Y-10027150D01*
X4170063Y-10027150D02*
X4189110Y-10036674D01*
X4189110Y-10036674D02*
X4198634Y-10055722D01*
X4198634Y-10055722D02*
X4198634Y-10160484D01*
X4198634Y-10055722D02*
X4208158Y-10036674D01*
X4208158Y-10036674D02*
X4227205Y-10027150D01*
X4227205Y-10027150D02*
X4255777Y-10027150D01*
X4255777Y-10027150D02*
X4274825Y-10036674D01*
X4274825Y-10036674D02*
X4284348Y-10055722D01*
X4284348Y-10055722D02*
X4284348Y-10160484D01*
X4379586Y-10160484D02*
X4379586Y-10027150D01*
X4379586Y-10046198D02*
X4389110Y-10036674D01*
X4389110Y-10036674D02*
X4408158Y-10027150D01*
X4408158Y-10027150D02*
X4436729Y-10027150D01*
X4436729Y-10027150D02*
X4455777Y-10036674D01*
X4455777Y-10036674D02*
X4465301Y-10055722D01*
X4465301Y-10055722D02*
X4465301Y-10160484D01*
X4465301Y-10055722D02*
X4474825Y-10036674D01*
X4474825Y-10036674D02*
X4493872Y-10027150D01*
X4493872Y-10027150D02*
X4522444Y-10027150D01*
X4522444Y-10027150D02*
X4541491Y-10036674D01*
X4541491Y-10036674D02*
X4551015Y-10055722D01*
X4551015Y-10055722D02*
X4551015Y-10160484D01*
X4941491Y-9950960D02*
X4770063Y-10208103D01*
X5198634Y-9960484D02*
X5217682Y-9960484D01*
X5217682Y-9960484D02*
X5236729Y-9970008D01*
X5236729Y-9970008D02*
X5246253Y-9979531D01*
X5246253Y-9979531D02*
X5255777Y-9998579D01*
X5255777Y-9998579D02*
X5265301Y-10036674D01*
X5265301Y-10036674D02*
X5265301Y-10084293D01*
X5265301Y-10084293D02*
X5255777Y-10122389D01*
X5255777Y-10122389D02*
X5246253Y-10141436D01*
X5246253Y-10141436D02*
X5236729Y-10150960D01*
X5236729Y-10150960D02*
X5217682Y-10160484D01*
X5217682Y-10160484D02*
X5198634Y-10160484D01*
X5198634Y-10160484D02*
X5179587Y-10150960D01*
X5179587Y-10150960D02*
X5170063Y-10141436D01*
X5170063Y-10141436D02*
X5160539Y-10122389D01*
X5160539Y-10122389D02*
X5151015Y-10084293D01*
X5151015Y-10084293D02*
X5151015Y-10036674D01*
X5151015Y-10036674D02*
X5160539Y-9998579D01*
X5160539Y-9998579D02*
X5170063Y-9979531D01*
X5170063Y-9979531D02*
X5179587Y-9970008D01*
X5179587Y-9970008D02*
X5198634Y-9960484D01*
X5351015Y-10141436D02*
X5360539Y-10150960D01*
X5360539Y-10150960D02*
X5351015Y-10160484D01*
X5351015Y-10160484D02*
X5341491Y-10150960D01*
X5341491Y-10150960D02*
X5351015Y-10141436D01*
X5351015Y-10141436D02*
X5351015Y-10160484D01*
X5484348Y-9960484D02*
X5503396Y-9960484D01*
X5503396Y-9960484D02*
X5522444Y-9970008D01*
X5522444Y-9970008D02*
X5531968Y-9979531D01*
X5531968Y-9979531D02*
X5541491Y-9998579D01*
X5541491Y-9998579D02*
X5551015Y-10036674D01*
X5551015Y-10036674D02*
X5551015Y-10084293D01*
X5551015Y-10084293D02*
X5541491Y-10122389D01*
X5541491Y-10122389D02*
X5531968Y-10141436D01*
X5531968Y-10141436D02*
X5522444Y-10150960D01*
X5522444Y-10150960D02*
X5503396Y-10160484D01*
X5503396Y-10160484D02*
X5484348Y-10160484D01*
X5484348Y-10160484D02*
X5465301Y-10150960D01*
X5465301Y-10150960D02*
X5455777Y-10141436D01*
X5455777Y-10141436D02*
X5446253Y-10122389D01*
X5446253Y-10122389D02*
X5436729Y-10084293D01*
X5436729Y-10084293D02*
X5436729Y-10036674D01*
X5436729Y-10036674D02*
X5446253Y-9998579D01*
X5446253Y-9998579D02*
X5455777Y-9979531D01*
X5455777Y-9979531D02*
X5465301Y-9970008D01*
X5465301Y-9970008D02*
X5484348Y-9960484D01*
X5617682Y-9960484D02*
X5741491Y-9960484D01*
X5741491Y-9960484D02*
X5674825Y-10036674D01*
X5674825Y-10036674D02*
X5703396Y-10036674D01*
X5703396Y-10036674D02*
X5722444Y-10046198D01*
X5722444Y-10046198D02*
X5731967Y-10055722D01*
X5731967Y-10055722D02*
X5741491Y-10074770D01*
X5741491Y-10074770D02*
X5741491Y-10122389D01*
X5741491Y-10122389D02*
X5731967Y-10141436D01*
X5731967Y-10141436D02*
X5722444Y-10150960D01*
X5722444Y-10150960D02*
X5703396Y-10160484D01*
X5703396Y-10160484D02*
X5646253Y-10160484D01*
X5646253Y-10160484D02*
X5627206Y-10150960D01*
X5627206Y-10150960D02*
X5617682Y-10141436D01*
X5922444Y-9960484D02*
X5827206Y-9960484D01*
X5827206Y-9960484D02*
X5817682Y-10055722D01*
X5817682Y-10055722D02*
X5827206Y-10046198D01*
X5827206Y-10046198D02*
X5846253Y-10036674D01*
X5846253Y-10036674D02*
X5893872Y-10036674D01*
X5893872Y-10036674D02*
X5912920Y-10046198D01*
X5912920Y-10046198D02*
X5922444Y-10055722D01*
X5922444Y-10055722D02*
X5931967Y-10074770D01*
X5931967Y-10074770D02*
X5931967Y-10122389D01*
X5931967Y-10122389D02*
X5922444Y-10141436D01*
X5922444Y-10141436D02*
X5912920Y-10150960D01*
X5912920Y-10150960D02*
X5893872Y-10160484D01*
X5893872Y-10160484D02*
X5846253Y-10160484D01*
X5846253Y-10160484D02*
X5827206Y-10150960D01*
X5827206Y-10150960D02*
X5817682Y-10141436D01*
X6103396Y-10027150D02*
X6103396Y-10160484D01*
X6055777Y-9950960D02*
X6008158Y-10093817D01*
X6008158Y-10093817D02*
X6131967Y-10093817D01*
X6198634Y-9960484D02*
X6198634Y-9998579D01*
X6274825Y-9960484D02*
X6274825Y-9998579D01*
X6570063Y-10236674D02*
X6560539Y-10227150D01*
X6560539Y-10227150D02*
X6541491Y-10198579D01*
X6541491Y-10198579D02*
X6531968Y-10179531D01*
X6531968Y-10179531D02*
X6522444Y-10150960D01*
X6522444Y-10150960D02*
X6512920Y-10103341D01*
X6512920Y-10103341D02*
X6512920Y-10065246D01*
X6512920Y-10065246D02*
X6522444Y-10017627D01*
X6522444Y-10017627D02*
X6531968Y-9989055D01*
X6531968Y-9989055D02*
X6541491Y-9970008D01*
X6541491Y-9970008D02*
X6560539Y-9941436D01*
X6560539Y-9941436D02*
X6570063Y-9931912D01*
X6636729Y-9979531D02*
X6646253Y-9970008D01*
X6646253Y-9970008D02*
X6665301Y-9960484D01*
X6665301Y-9960484D02*
X6712920Y-9960484D01*
X6712920Y-9960484D02*
X6731968Y-9970008D01*
X6731968Y-9970008D02*
X6741491Y-9979531D01*
X6741491Y-9979531D02*
X6751015Y-9998579D01*
X6751015Y-9998579D02*
X6751015Y-10017627D01*
X6751015Y-10017627D02*
X6741491Y-10046198D01*
X6741491Y-10046198D02*
X6627206Y-10160484D01*
X6627206Y-10160484D02*
X6751015Y-10160484D01*
X6989110Y-10160484D02*
X6989110Y-9960484D01*
X7074825Y-10160484D02*
X7074825Y-10055722D01*
X7074825Y-10055722D02*
X7065301Y-10036674D01*
X7065301Y-10036674D02*
X7046253Y-10027150D01*
X7046253Y-10027150D02*
X7017682Y-10027150D01*
X7017682Y-10027150D02*
X6998634Y-10036674D01*
X6998634Y-10036674D02*
X6989110Y-10046198D01*
X7198634Y-10160484D02*
X7179587Y-10150960D01*
X7179587Y-10150960D02*
X7170063Y-10141436D01*
X7170063Y-10141436D02*
X7160539Y-10122389D01*
X7160539Y-10122389D02*
X7160539Y-10065246D01*
X7160539Y-10065246D02*
X7170063Y-10046198D01*
X7170063Y-10046198D02*
X7179587Y-10036674D01*
X7179587Y-10036674D02*
X7198634Y-10027150D01*
X7198634Y-10027150D02*
X7227206Y-10027150D01*
X7227206Y-10027150D02*
X7246253Y-10036674D01*
X7246253Y-10036674D02*
X7255777Y-10046198D01*
X7255777Y-10046198D02*
X7265301Y-10065246D01*
X7265301Y-10065246D02*
X7265301Y-10122389D01*
X7265301Y-10122389D02*
X7255777Y-10141436D01*
X7255777Y-10141436D02*
X7246253Y-10150960D01*
X7246253Y-10150960D02*
X7227206Y-10160484D01*
X7227206Y-10160484D02*
X7198634Y-10160484D01*
X7379587Y-10160484D02*
X7360539Y-10150960D01*
X7360539Y-10150960D02*
X7351015Y-10131912D01*
X7351015Y-10131912D02*
X7351015Y-9960484D01*
X7531968Y-10150960D02*
X7512920Y-10160484D01*
X7512920Y-10160484D02*
X7474825Y-10160484D01*
X7474825Y-10160484D02*
X7455777Y-10150960D01*
X7455777Y-10150960D02*
X7446253Y-10131912D01*
X7446253Y-10131912D02*
X7446253Y-10055722D01*
X7446253Y-10055722D02*
X7455777Y-10036674D01*
X7455777Y-10036674D02*
X7474825Y-10027150D01*
X7474825Y-10027150D02*
X7512920Y-10027150D01*
X7512920Y-10027150D02*
X7531968Y-10036674D01*
X7531968Y-10036674D02*
X7541491Y-10055722D01*
X7541491Y-10055722D02*
X7541491Y-10074770D01*
X7541491Y-10074770D02*
X7446253Y-10093817D01*
X7617682Y-10150960D02*
X7636730Y-10160484D01*
X7636730Y-10160484D02*
X7674825Y-10160484D01*
X7674825Y-10160484D02*
X7693872Y-10150960D01*
X7693872Y-10150960D02*
X7703396Y-10131912D01*
X7703396Y-10131912D02*
X7703396Y-10122389D01*
X7703396Y-10122389D02*
X7693872Y-10103341D01*
X7693872Y-10103341D02*
X7674825Y-10093817D01*
X7674825Y-10093817D02*
X7646253Y-10093817D01*
X7646253Y-10093817D02*
X7627206Y-10084293D01*
X7627206Y-10084293D02*
X7617682Y-10065246D01*
X7617682Y-10065246D02*
X7617682Y-10055722D01*
X7617682Y-10055722D02*
X7627206Y-10036674D01*
X7627206Y-10036674D02*
X7646253Y-10027150D01*
X7646253Y-10027150D02*
X7674825Y-10027150D01*
X7674825Y-10027150D02*
X7693872Y-10036674D01*
X7770063Y-10236674D02*
X7779587Y-10227150D01*
X7779587Y-10227150D02*
X7798634Y-10198579D01*
X7798634Y-10198579D02*
X7808158Y-10179531D01*
X7808158Y-10179531D02*
X7817682Y-10150960D01*
X7817682Y-10150960D02*
X7827206Y-10103341D01*
X7827206Y-10103341D02*
X7827206Y-10065246D01*
X7827206Y-10065246D02*
X7817682Y-10017627D01*
X7817682Y-10017627D02*
X7808158Y-9989055D01*
X7808158Y-9989055D02*
X7798634Y-9970008D01*
X7798634Y-9970008D02*
X7779587Y-9941436D01*
X7779587Y-9941436D02*
X7770063Y-9931912D01*
X8131968Y-10236674D02*
X8122444Y-10227150D01*
X8122444Y-10227150D02*
X8103396Y-10198579D01*
X8103396Y-10198579D02*
X8093872Y-10179531D01*
X8093872Y-10179531D02*
X8084349Y-10150960D01*
X8084349Y-10150960D02*
X8074825Y-10103341D01*
X8074825Y-10103341D02*
X8074825Y-10065246D01*
X8074825Y-10065246D02*
X8084349Y-10017627D01*
X8084349Y-10017627D02*
X8093872Y-9989055D01*
X8093872Y-9989055D02*
X8103396Y-9970008D01*
X8103396Y-9970008D02*
X8122444Y-9941436D01*
X8122444Y-9941436D02*
X8131968Y-9931912D01*
X8208158Y-10027150D02*
X8208158Y-10160484D01*
X8208158Y-10046198D02*
X8217682Y-10036674D01*
X8217682Y-10036674D02*
X8236730Y-10027150D01*
X8236730Y-10027150D02*
X8265301Y-10027150D01*
X8265301Y-10027150D02*
X8284349Y-10036674D01*
X8284349Y-10036674D02*
X8293872Y-10055722D01*
X8293872Y-10055722D02*
X8293872Y-10160484D01*
X8417682Y-10160484D02*
X8398634Y-10150960D01*
X8398634Y-10150960D02*
X8389111Y-10141436D01*
X8389111Y-10141436D02*
X8379587Y-10122389D01*
X8379587Y-10122389D02*
X8379587Y-10065246D01*
X8379587Y-10065246D02*
X8389111Y-10046198D01*
X8389111Y-10046198D02*
X8398634Y-10036674D01*
X8398634Y-10036674D02*
X8417682Y-10027150D01*
X8417682Y-10027150D02*
X8446254Y-10027150D01*
X8446254Y-10027150D02*
X8465301Y-10036674D01*
X8465301Y-10036674D02*
X8474825Y-10046198D01*
X8474825Y-10046198D02*
X8484349Y-10065246D01*
X8484349Y-10065246D02*
X8484349Y-10122389D01*
X8484349Y-10122389D02*
X8474825Y-10141436D01*
X8474825Y-10141436D02*
X8465301Y-10150960D01*
X8465301Y-10150960D02*
X8446254Y-10160484D01*
X8446254Y-10160484D02*
X8417682Y-10160484D01*
X8541492Y-10027150D02*
X8617682Y-10027150D01*
X8570063Y-9960484D02*
X8570063Y-10131912D01*
X8570063Y-10131912D02*
X8579587Y-10150960D01*
X8579587Y-10150960D02*
X8598634Y-10160484D01*
X8598634Y-10160484D02*
X8617682Y-10160484D01*
X8836730Y-10027150D02*
X8836730Y-10227150D01*
X8836730Y-10036674D02*
X8855777Y-10027150D01*
X8855777Y-10027150D02*
X8893873Y-10027150D01*
X8893873Y-10027150D02*
X8912920Y-10036674D01*
X8912920Y-10036674D02*
X8922444Y-10046198D01*
X8922444Y-10046198D02*
X8931968Y-10065246D01*
X8931968Y-10065246D02*
X8931968Y-10122389D01*
X8931968Y-10122389D02*
X8922444Y-10141436D01*
X8922444Y-10141436D02*
X8912920Y-10150960D01*
X8912920Y-10150960D02*
X8893873Y-10160484D01*
X8893873Y-10160484D02*
X8855777Y-10160484D01*
X8855777Y-10160484D02*
X8836730Y-10150960D01*
X9046254Y-10160484D02*
X9027206Y-10150960D01*
X9027206Y-10150960D02*
X9017682Y-10131912D01*
X9017682Y-10131912D02*
X9017682Y-9960484D01*
X9208158Y-10160484D02*
X9208158Y-10055722D01*
X9208158Y-10055722D02*
X9198635Y-10036674D01*
X9198635Y-10036674D02*
X9179587Y-10027150D01*
X9179587Y-10027150D02*
X9141492Y-10027150D01*
X9141492Y-10027150D02*
X9122444Y-10036674D01*
X9208158Y-10150960D02*
X9189111Y-10160484D01*
X9189111Y-10160484D02*
X9141492Y-10160484D01*
X9141492Y-10160484D02*
X9122444Y-10150960D01*
X9122444Y-10150960D02*
X9112920Y-10131912D01*
X9112920Y-10131912D02*
X9112920Y-10112865D01*
X9112920Y-10112865D02*
X9122444Y-10093817D01*
X9122444Y-10093817D02*
X9141492Y-10084293D01*
X9141492Y-10084293D02*
X9189111Y-10084293D01*
X9189111Y-10084293D02*
X9208158Y-10074770D01*
X9274825Y-10027150D02*
X9351015Y-10027150D01*
X9303396Y-9960484D02*
X9303396Y-10131912D01*
X9303396Y-10131912D02*
X9312920Y-10150960D01*
X9312920Y-10150960D02*
X9331968Y-10160484D01*
X9331968Y-10160484D02*
X9351015Y-10160484D01*
X9493873Y-10150960D02*
X9474825Y-10160484D01*
X9474825Y-10160484D02*
X9436730Y-10160484D01*
X9436730Y-10160484D02*
X9417682Y-10150960D01*
X9417682Y-10150960D02*
X9408158Y-10131912D01*
X9408158Y-10131912D02*
X9408158Y-10055722D01*
X9408158Y-10055722D02*
X9417682Y-10036674D01*
X9417682Y-10036674D02*
X9436730Y-10027150D01*
X9436730Y-10027150D02*
X9474825Y-10027150D01*
X9474825Y-10027150D02*
X9493873Y-10036674D01*
X9493873Y-10036674D02*
X9503396Y-10055722D01*
X9503396Y-10055722D02*
X9503396Y-10074770D01*
X9503396Y-10074770D02*
X9408158Y-10093817D01*
X9674825Y-10160484D02*
X9674825Y-9960484D01*
X9674825Y-10150960D02*
X9655777Y-10160484D01*
X9655777Y-10160484D02*
X9617682Y-10160484D01*
X9617682Y-10160484D02*
X9598635Y-10150960D01*
X9598635Y-10150960D02*
X9589111Y-10141436D01*
X9589111Y-10141436D02*
X9579587Y-10122389D01*
X9579587Y-10122389D02*
X9579587Y-10065246D01*
X9579587Y-10065246D02*
X9589111Y-10046198D01*
X9589111Y-10046198D02*
X9598635Y-10036674D01*
X9598635Y-10036674D02*
X9617682Y-10027150D01*
X9617682Y-10027150D02*
X9655777Y-10027150D01*
X9655777Y-10027150D02*
X9674825Y-10036674D01*
X9751016Y-10236674D02*
X9760539Y-10227150D01*
X9760539Y-10227150D02*
X9779587Y-10198579D01*
X9779587Y-10198579D02*
X9789111Y-10179531D01*
X9789111Y-10179531D02*
X9798635Y-10150960D01*
X9798635Y-10150960D02*
X9808158Y-10103341D01*
X9808158Y-10103341D02*
X9808158Y-10065246D01*
X9808158Y-10065246D02*
X9798635Y-10017627D01*
X9798635Y-10017627D02*
X9789111Y-9989055D01*
X9789111Y-9989055D02*
X9779587Y-9970008D01*
X9779587Y-9970008D02*
X9760539Y-9941436D01*
X9760539Y-9941436D02*
X9751016Y-9931912D01*
D14*
X2935000Y-10273000D02*
X2935000Y-10393000D01*
X2875000Y-10333000D02*
X2995000Y-10333000D01*
D11*
X3360539Y-10424484D02*
X3246253Y-10424484D01*
X3303396Y-10424484D02*
X3303396Y-10224484D01*
X3303396Y-10224484D02*
X3284348Y-10253055D01*
X3284348Y-10253055D02*
X3265301Y-10272103D01*
X3265301Y-10272103D02*
X3246253Y-10281627D01*
X3446253Y-10405436D02*
X3455777Y-10414960D01*
X3455777Y-10414960D02*
X3446253Y-10424484D01*
X3446253Y-10424484D02*
X3436729Y-10414960D01*
X3436729Y-10414960D02*
X3446253Y-10405436D01*
X3446253Y-10405436D02*
X3446253Y-10424484D01*
X3531967Y-10243531D02*
X3541491Y-10234008D01*
X3541491Y-10234008D02*
X3560539Y-10224484D01*
X3560539Y-10224484D02*
X3608158Y-10224484D01*
X3608158Y-10224484D02*
X3627205Y-10234008D01*
X3627205Y-10234008D02*
X3636729Y-10243531D01*
X3636729Y-10243531D02*
X3646253Y-10262579D01*
X3646253Y-10262579D02*
X3646253Y-10281627D01*
X3646253Y-10281627D02*
X3636729Y-10310198D01*
X3636729Y-10310198D02*
X3522443Y-10424484D01*
X3522443Y-10424484D02*
X3646253Y-10424484D01*
X3770062Y-10224484D02*
X3789110Y-10224484D01*
X3789110Y-10224484D02*
X3808158Y-10234008D01*
X3808158Y-10234008D02*
X3817682Y-10243531D01*
X3817682Y-10243531D02*
X3827205Y-10262579D01*
X3827205Y-10262579D02*
X3836729Y-10300674D01*
X3836729Y-10300674D02*
X3836729Y-10348293D01*
X3836729Y-10348293D02*
X3827205Y-10386389D01*
X3827205Y-10386389D02*
X3817682Y-10405436D01*
X3817682Y-10405436D02*
X3808158Y-10414960D01*
X3808158Y-10414960D02*
X3789110Y-10424484D01*
X3789110Y-10424484D02*
X3770062Y-10424484D01*
X3770062Y-10424484D02*
X3751015Y-10414960D01*
X3751015Y-10414960D02*
X3741491Y-10405436D01*
X3741491Y-10405436D02*
X3731967Y-10386389D01*
X3731967Y-10386389D02*
X3722443Y-10348293D01*
X3722443Y-10348293D02*
X3722443Y-10300674D01*
X3722443Y-10300674D02*
X3731967Y-10262579D01*
X3731967Y-10262579D02*
X3741491Y-10243531D01*
X3741491Y-10243531D02*
X3751015Y-10234008D01*
X3751015Y-10234008D02*
X3770062Y-10224484D01*
X3960539Y-10224484D02*
X3979586Y-10224484D01*
X3979586Y-10224484D02*
X3998634Y-10234008D01*
X3998634Y-10234008D02*
X4008158Y-10243531D01*
X4008158Y-10243531D02*
X4017682Y-10262579D01*
X4017682Y-10262579D02*
X4027205Y-10300674D01*
X4027205Y-10300674D02*
X4027205Y-10348293D01*
X4027205Y-10348293D02*
X4017682Y-10386389D01*
X4017682Y-10386389D02*
X4008158Y-10405436D01*
X4008158Y-10405436D02*
X3998634Y-10414960D01*
X3998634Y-10414960D02*
X3979586Y-10424484D01*
X3979586Y-10424484D02*
X3960539Y-10424484D01*
X3960539Y-10424484D02*
X3941491Y-10414960D01*
X3941491Y-10414960D02*
X3931967Y-10405436D01*
X3931967Y-10405436D02*
X3922443Y-10386389D01*
X3922443Y-10386389D02*
X3912920Y-10348293D01*
X3912920Y-10348293D02*
X3912920Y-10300674D01*
X3912920Y-10300674D02*
X3922443Y-10262579D01*
X3922443Y-10262579D02*
X3931967Y-10243531D01*
X3931967Y-10243531D02*
X3941491Y-10234008D01*
X3941491Y-10234008D02*
X3960539Y-10224484D01*
X4112920Y-10424484D02*
X4112920Y-10291150D01*
X4112920Y-10310198D02*
X4122443Y-10300674D01*
X4122443Y-10300674D02*
X4141491Y-10291150D01*
X4141491Y-10291150D02*
X4170063Y-10291150D01*
X4170063Y-10291150D02*
X4189110Y-10300674D01*
X4189110Y-10300674D02*
X4198634Y-10319722D01*
X4198634Y-10319722D02*
X4198634Y-10424484D01*
X4198634Y-10319722D02*
X4208158Y-10300674D01*
X4208158Y-10300674D02*
X4227205Y-10291150D01*
X4227205Y-10291150D02*
X4255777Y-10291150D01*
X4255777Y-10291150D02*
X4274825Y-10300674D01*
X4274825Y-10300674D02*
X4284348Y-10319722D01*
X4284348Y-10319722D02*
X4284348Y-10424484D01*
X4379586Y-10424484D02*
X4379586Y-10291150D01*
X4379586Y-10310198D02*
X4389110Y-10300674D01*
X4389110Y-10300674D02*
X4408158Y-10291150D01*
X4408158Y-10291150D02*
X4436729Y-10291150D01*
X4436729Y-10291150D02*
X4455777Y-10300674D01*
X4455777Y-10300674D02*
X4465301Y-10319722D01*
X4465301Y-10319722D02*
X4465301Y-10424484D01*
X4465301Y-10319722D02*
X4474825Y-10300674D01*
X4474825Y-10300674D02*
X4493872Y-10291150D01*
X4493872Y-10291150D02*
X4522444Y-10291150D01*
X4522444Y-10291150D02*
X4541491Y-10300674D01*
X4541491Y-10300674D02*
X4551015Y-10319722D01*
X4551015Y-10319722D02*
X4551015Y-10424484D01*
X4941491Y-10214960D02*
X4770063Y-10472103D01*
X5198634Y-10224484D02*
X5217682Y-10224484D01*
X5217682Y-10224484D02*
X5236729Y-10234008D01*
X5236729Y-10234008D02*
X5246253Y-10243531D01*
X5246253Y-10243531D02*
X5255777Y-10262579D01*
X5255777Y-10262579D02*
X5265301Y-10300674D01*
X5265301Y-10300674D02*
X5265301Y-10348293D01*
X5265301Y-10348293D02*
X5255777Y-10386389D01*
X5255777Y-10386389D02*
X5246253Y-10405436D01*
X5246253Y-10405436D02*
X5236729Y-10414960D01*
X5236729Y-10414960D02*
X5217682Y-10424484D01*
X5217682Y-10424484D02*
X5198634Y-10424484D01*
X5198634Y-10424484D02*
X5179587Y-10414960D01*
X5179587Y-10414960D02*
X5170063Y-10405436D01*
X5170063Y-10405436D02*
X5160539Y-10386389D01*
X5160539Y-10386389D02*
X5151015Y-10348293D01*
X5151015Y-10348293D02*
X5151015Y-10300674D01*
X5151015Y-10300674D02*
X5160539Y-10262579D01*
X5160539Y-10262579D02*
X5170063Y-10243531D01*
X5170063Y-10243531D02*
X5179587Y-10234008D01*
X5179587Y-10234008D02*
X5198634Y-10224484D01*
X5351015Y-10405436D02*
X5360539Y-10414960D01*
X5360539Y-10414960D02*
X5351015Y-10424484D01*
X5351015Y-10424484D02*
X5341491Y-10414960D01*
X5341491Y-10414960D02*
X5351015Y-10405436D01*
X5351015Y-10405436D02*
X5351015Y-10424484D01*
X5484348Y-10224484D02*
X5503396Y-10224484D01*
X5503396Y-10224484D02*
X5522444Y-10234008D01*
X5522444Y-10234008D02*
X5531968Y-10243531D01*
X5531968Y-10243531D02*
X5541491Y-10262579D01*
X5541491Y-10262579D02*
X5551015Y-10300674D01*
X5551015Y-10300674D02*
X5551015Y-10348293D01*
X5551015Y-10348293D02*
X5541491Y-10386389D01*
X5541491Y-10386389D02*
X5531968Y-10405436D01*
X5531968Y-10405436D02*
X5522444Y-10414960D01*
X5522444Y-10414960D02*
X5503396Y-10424484D01*
X5503396Y-10424484D02*
X5484348Y-10424484D01*
X5484348Y-10424484D02*
X5465301Y-10414960D01*
X5465301Y-10414960D02*
X5455777Y-10405436D01*
X5455777Y-10405436D02*
X5446253Y-10386389D01*
X5446253Y-10386389D02*
X5436729Y-10348293D01*
X5436729Y-10348293D02*
X5436729Y-10300674D01*
X5436729Y-10300674D02*
X5446253Y-10262579D01*
X5446253Y-10262579D02*
X5455777Y-10243531D01*
X5455777Y-10243531D02*
X5465301Y-10234008D01*
X5465301Y-10234008D02*
X5484348Y-10224484D01*
X5722444Y-10291150D02*
X5722444Y-10424484D01*
X5674825Y-10214960D02*
X5627206Y-10357817D01*
X5627206Y-10357817D02*
X5751015Y-10357817D01*
X5808158Y-10224484D02*
X5941491Y-10224484D01*
X5941491Y-10224484D02*
X5855777Y-10424484D01*
X6008158Y-10243531D02*
X6017682Y-10234008D01*
X6017682Y-10234008D02*
X6036729Y-10224484D01*
X6036729Y-10224484D02*
X6084348Y-10224484D01*
X6084348Y-10224484D02*
X6103396Y-10234008D01*
X6103396Y-10234008D02*
X6112920Y-10243531D01*
X6112920Y-10243531D02*
X6122444Y-10262579D01*
X6122444Y-10262579D02*
X6122444Y-10281627D01*
X6122444Y-10281627D02*
X6112920Y-10310198D01*
X6112920Y-10310198D02*
X5998634Y-10424484D01*
X5998634Y-10424484D02*
X6122444Y-10424484D01*
X6198634Y-10224484D02*
X6198634Y-10262579D01*
X6274825Y-10224484D02*
X6274825Y-10262579D01*
X6570063Y-10500674D02*
X6560539Y-10491150D01*
X6560539Y-10491150D02*
X6541491Y-10462579D01*
X6541491Y-10462579D02*
X6531968Y-10443531D01*
X6531968Y-10443531D02*
X6522444Y-10414960D01*
X6522444Y-10414960D02*
X6512920Y-10367341D01*
X6512920Y-10367341D02*
X6512920Y-10329246D01*
X6512920Y-10329246D02*
X6522444Y-10281627D01*
X6522444Y-10281627D02*
X6531968Y-10253055D01*
X6531968Y-10253055D02*
X6541491Y-10234008D01*
X6541491Y-10234008D02*
X6560539Y-10205436D01*
X6560539Y-10205436D02*
X6570063Y-10195912D01*
X6731968Y-10291150D02*
X6731968Y-10424484D01*
X6684348Y-10214960D02*
X6636729Y-10357817D01*
X6636729Y-10357817D02*
X6760539Y-10357817D01*
X6989110Y-10424484D02*
X6989110Y-10224484D01*
X7074825Y-10424484D02*
X7074825Y-10319722D01*
X7074825Y-10319722D02*
X7065301Y-10300674D01*
X7065301Y-10300674D02*
X7046253Y-10291150D01*
X7046253Y-10291150D02*
X7017682Y-10291150D01*
X7017682Y-10291150D02*
X6998634Y-10300674D01*
X6998634Y-10300674D02*
X6989110Y-10310198D01*
X7198634Y-10424484D02*
X7179587Y-10414960D01*
X7179587Y-10414960D02*
X7170063Y-10405436D01*
X7170063Y-10405436D02*
X7160539Y-10386389D01*
X7160539Y-10386389D02*
X7160539Y-10329246D01*
X7160539Y-10329246D02*
X7170063Y-10310198D01*
X7170063Y-10310198D02*
X7179587Y-10300674D01*
X7179587Y-10300674D02*
X7198634Y-10291150D01*
X7198634Y-10291150D02*
X7227206Y-10291150D01*
X7227206Y-10291150D02*
X7246253Y-10300674D01*
X7246253Y-10300674D02*
X7255777Y-10310198D01*
X7255777Y-10310198D02*
X7265301Y-10329246D01*
X7265301Y-10329246D02*
X7265301Y-10386389D01*
X7265301Y-10386389D02*
X7255777Y-10405436D01*
X7255777Y-10405436D02*
X7246253Y-10414960D01*
X7246253Y-10414960D02*
X7227206Y-10424484D01*
X7227206Y-10424484D02*
X7198634Y-10424484D01*
X7379587Y-10424484D02*
X7360539Y-10414960D01*
X7360539Y-10414960D02*
X7351015Y-10395912D01*
X7351015Y-10395912D02*
X7351015Y-10224484D01*
X7531968Y-10414960D02*
X7512920Y-10424484D01*
X7512920Y-10424484D02*
X7474825Y-10424484D01*
X7474825Y-10424484D02*
X7455777Y-10414960D01*
X7455777Y-10414960D02*
X7446253Y-10395912D01*
X7446253Y-10395912D02*
X7446253Y-10319722D01*
X7446253Y-10319722D02*
X7455777Y-10300674D01*
X7455777Y-10300674D02*
X7474825Y-10291150D01*
X7474825Y-10291150D02*
X7512920Y-10291150D01*
X7512920Y-10291150D02*
X7531968Y-10300674D01*
X7531968Y-10300674D02*
X7541491Y-10319722D01*
X7541491Y-10319722D02*
X7541491Y-10338770D01*
X7541491Y-10338770D02*
X7446253Y-10357817D01*
X7617682Y-10414960D02*
X7636730Y-10424484D01*
X7636730Y-10424484D02*
X7674825Y-10424484D01*
X7674825Y-10424484D02*
X7693872Y-10414960D01*
X7693872Y-10414960D02*
X7703396Y-10395912D01*
X7703396Y-10395912D02*
X7703396Y-10386389D01*
X7703396Y-10386389D02*
X7693872Y-10367341D01*
X7693872Y-10367341D02*
X7674825Y-10357817D01*
X7674825Y-10357817D02*
X7646253Y-10357817D01*
X7646253Y-10357817D02*
X7627206Y-10348293D01*
X7627206Y-10348293D02*
X7617682Y-10329246D01*
X7617682Y-10329246D02*
X7617682Y-10319722D01*
X7617682Y-10319722D02*
X7627206Y-10300674D01*
X7627206Y-10300674D02*
X7646253Y-10291150D01*
X7646253Y-10291150D02*
X7674825Y-10291150D01*
X7674825Y-10291150D02*
X7693872Y-10300674D01*
X7770063Y-10500674D02*
X7779587Y-10491150D01*
X7779587Y-10491150D02*
X7798634Y-10462579D01*
X7798634Y-10462579D02*
X7808158Y-10443531D01*
X7808158Y-10443531D02*
X7817682Y-10414960D01*
X7817682Y-10414960D02*
X7827206Y-10367341D01*
X7827206Y-10367341D02*
X7827206Y-10329246D01*
X7827206Y-10329246D02*
X7817682Y-10281627D01*
X7817682Y-10281627D02*
X7808158Y-10253055D01*
X7808158Y-10253055D02*
X7798634Y-10234008D01*
X7798634Y-10234008D02*
X7779587Y-10205436D01*
X7779587Y-10205436D02*
X7770063Y-10195912D01*
X8131968Y-10500674D02*
X8122444Y-10491150D01*
X8122444Y-10491150D02*
X8103396Y-10462579D01*
X8103396Y-10462579D02*
X8093872Y-10443531D01*
X8093872Y-10443531D02*
X8084349Y-10414960D01*
X8084349Y-10414960D02*
X8074825Y-10367341D01*
X8074825Y-10367341D02*
X8074825Y-10329246D01*
X8074825Y-10329246D02*
X8084349Y-10281627D01*
X8084349Y-10281627D02*
X8093872Y-10253055D01*
X8093872Y-10253055D02*
X8103396Y-10234008D01*
X8103396Y-10234008D02*
X8122444Y-10205436D01*
X8122444Y-10205436D02*
X8131968Y-10195912D01*
X8208158Y-10291150D02*
X8208158Y-10424484D01*
X8208158Y-10310198D02*
X8217682Y-10300674D01*
X8217682Y-10300674D02*
X8236730Y-10291150D01*
X8236730Y-10291150D02*
X8265301Y-10291150D01*
X8265301Y-10291150D02*
X8284349Y-10300674D01*
X8284349Y-10300674D02*
X8293872Y-10319722D01*
X8293872Y-10319722D02*
X8293872Y-10424484D01*
X8417682Y-10424484D02*
X8398634Y-10414960D01*
X8398634Y-10414960D02*
X8389111Y-10405436D01*
X8389111Y-10405436D02*
X8379587Y-10386389D01*
X8379587Y-10386389D02*
X8379587Y-10329246D01*
X8379587Y-10329246D02*
X8389111Y-10310198D01*
X8389111Y-10310198D02*
X8398634Y-10300674D01*
X8398634Y-10300674D02*
X8417682Y-10291150D01*
X8417682Y-10291150D02*
X8446254Y-10291150D01*
X8446254Y-10291150D02*
X8465301Y-10300674D01*
X8465301Y-10300674D02*
X8474825Y-10310198D01*
X8474825Y-10310198D02*
X8484349Y-10329246D01*
X8484349Y-10329246D02*
X8484349Y-10386389D01*
X8484349Y-10386389D02*
X8474825Y-10405436D01*
X8474825Y-10405436D02*
X8465301Y-10414960D01*
X8465301Y-10414960D02*
X8446254Y-10424484D01*
X8446254Y-10424484D02*
X8417682Y-10424484D01*
X8541492Y-10291150D02*
X8617682Y-10291150D01*
X8570063Y-10224484D02*
X8570063Y-10395912D01*
X8570063Y-10395912D02*
X8579587Y-10414960D01*
X8579587Y-10414960D02*
X8598634Y-10424484D01*
X8598634Y-10424484D02*
X8617682Y-10424484D01*
X8836730Y-10291150D02*
X8836730Y-10491150D01*
X8836730Y-10300674D02*
X8855777Y-10291150D01*
X8855777Y-10291150D02*
X8893873Y-10291150D01*
X8893873Y-10291150D02*
X8912920Y-10300674D01*
X8912920Y-10300674D02*
X8922444Y-10310198D01*
X8922444Y-10310198D02*
X8931968Y-10329246D01*
X8931968Y-10329246D02*
X8931968Y-10386389D01*
X8931968Y-10386389D02*
X8922444Y-10405436D01*
X8922444Y-10405436D02*
X8912920Y-10414960D01*
X8912920Y-10414960D02*
X8893873Y-10424484D01*
X8893873Y-10424484D02*
X8855777Y-10424484D01*
X8855777Y-10424484D02*
X8836730Y-10414960D01*
X9046254Y-10424484D02*
X9027206Y-10414960D01*
X9027206Y-10414960D02*
X9017682Y-10395912D01*
X9017682Y-10395912D02*
X9017682Y-10224484D01*
X9208158Y-10424484D02*
X9208158Y-10319722D01*
X9208158Y-10319722D02*
X9198635Y-10300674D01*
X9198635Y-10300674D02*
X9179587Y-10291150D01*
X9179587Y-10291150D02*
X9141492Y-10291150D01*
X9141492Y-10291150D02*
X9122444Y-10300674D01*
X9208158Y-10414960D02*
X9189111Y-10424484D01*
X9189111Y-10424484D02*
X9141492Y-10424484D01*
X9141492Y-10424484D02*
X9122444Y-10414960D01*
X9122444Y-10414960D02*
X9112920Y-10395912D01*
X9112920Y-10395912D02*
X9112920Y-10376865D01*
X9112920Y-10376865D02*
X9122444Y-10357817D01*
X9122444Y-10357817D02*
X9141492Y-10348293D01*
X9141492Y-10348293D02*
X9189111Y-10348293D01*
X9189111Y-10348293D02*
X9208158Y-10338770D01*
X9274825Y-10291150D02*
X9351015Y-10291150D01*
X9303396Y-10224484D02*
X9303396Y-10395912D01*
X9303396Y-10395912D02*
X9312920Y-10414960D01*
X9312920Y-10414960D02*
X9331968Y-10424484D01*
X9331968Y-10424484D02*
X9351015Y-10424484D01*
X9493873Y-10414960D02*
X9474825Y-10424484D01*
X9474825Y-10424484D02*
X9436730Y-10424484D01*
X9436730Y-10424484D02*
X9417682Y-10414960D01*
X9417682Y-10414960D02*
X9408158Y-10395912D01*
X9408158Y-10395912D02*
X9408158Y-10319722D01*
X9408158Y-10319722D02*
X9417682Y-10300674D01*
X9417682Y-10300674D02*
X9436730Y-10291150D01*
X9436730Y-10291150D02*
X9474825Y-10291150D01*
X9474825Y-10291150D02*
X9493873Y-10300674D01*
X9493873Y-10300674D02*
X9503396Y-10319722D01*
X9503396Y-10319722D02*
X9503396Y-10338770D01*
X9503396Y-10338770D02*
X9408158Y-10357817D01*
X9674825Y-10424484D02*
X9674825Y-10224484D01*
X9674825Y-10414960D02*
X9655777Y-10424484D01*
X9655777Y-10424484D02*
X9617682Y-10424484D01*
X9617682Y-10424484D02*
X9598635Y-10414960D01*
X9598635Y-10414960D02*
X9589111Y-10405436D01*
X9589111Y-10405436D02*
X9579587Y-10386389D01*
X9579587Y-10386389D02*
X9579587Y-10329246D01*
X9579587Y-10329246D02*
X9589111Y-10310198D01*
X9589111Y-10310198D02*
X9598635Y-10300674D01*
X9598635Y-10300674D02*
X9617682Y-10291150D01*
X9617682Y-10291150D02*
X9655777Y-10291150D01*
X9655777Y-10291150D02*
X9674825Y-10300674D01*
X9751016Y-10500674D02*
X9760539Y-10491150D01*
X9760539Y-10491150D02*
X9779587Y-10462579D01*
X9779587Y-10462579D02*
X9789111Y-10443531D01*
X9789111Y-10443531D02*
X9798635Y-10414960D01*
X9798635Y-10414960D02*
X9808158Y-10367341D01*
X9808158Y-10367341D02*
X9808158Y-10329246D01*
X9808158Y-10329246D02*
X9798635Y-10281627D01*
X9798635Y-10281627D02*
X9789111Y-10253055D01*
X9789111Y-10253055D02*
X9779587Y-10234008D01*
X9779587Y-10234008D02*
X9760539Y-10205436D01*
X9760539Y-10205436D02*
X9751016Y-10195912D01*
X2965711Y-10667711D02*
X2965711Y-10526289D01*
X2824289Y-10526289D01*
X2824289Y-10667711D01*
X2965711Y-10667711D01*
X3246253Y-10507531D02*
X3255777Y-10498008D01*
X3255777Y-10498008D02*
X3274824Y-10488484D01*
X3274824Y-10488484D02*
X3322443Y-10488484D01*
X3322443Y-10488484D02*
X3341491Y-10498008D01*
X3341491Y-10498008D02*
X3351015Y-10507531D01*
X3351015Y-10507531D02*
X3360539Y-10526579D01*
X3360539Y-10526579D02*
X3360539Y-10545627D01*
X3360539Y-10545627D02*
X3351015Y-10574198D01*
X3351015Y-10574198D02*
X3236729Y-10688484D01*
X3236729Y-10688484D02*
X3360539Y-10688484D01*
X3446253Y-10669436D02*
X3455777Y-10678960D01*
X3455777Y-10678960D02*
X3446253Y-10688484D01*
X3446253Y-10688484D02*
X3436729Y-10678960D01*
X3436729Y-10678960D02*
X3446253Y-10669436D01*
X3446253Y-10669436D02*
X3446253Y-10688484D01*
X3522443Y-10488484D02*
X3646253Y-10488484D01*
X3646253Y-10488484D02*
X3579586Y-10564674D01*
X3579586Y-10564674D02*
X3608158Y-10564674D01*
X3608158Y-10564674D02*
X3627205Y-10574198D01*
X3627205Y-10574198D02*
X3636729Y-10583722D01*
X3636729Y-10583722D02*
X3646253Y-10602770D01*
X3646253Y-10602770D02*
X3646253Y-10650389D01*
X3646253Y-10650389D02*
X3636729Y-10669436D01*
X3636729Y-10669436D02*
X3627205Y-10678960D01*
X3627205Y-10678960D02*
X3608158Y-10688484D01*
X3608158Y-10688484D02*
X3551015Y-10688484D01*
X3551015Y-10688484D02*
X3531967Y-10678960D01*
X3531967Y-10678960D02*
X3522443Y-10669436D01*
X3770062Y-10488484D02*
X3789110Y-10488484D01*
X3789110Y-10488484D02*
X3808158Y-10498008D01*
X3808158Y-10498008D02*
X3817682Y-10507531D01*
X3817682Y-10507531D02*
X3827205Y-10526579D01*
X3827205Y-10526579D02*
X3836729Y-10564674D01*
X3836729Y-10564674D02*
X3836729Y-10612293D01*
X3836729Y-10612293D02*
X3827205Y-10650389D01*
X3827205Y-10650389D02*
X3817682Y-10669436D01*
X3817682Y-10669436D02*
X3808158Y-10678960D01*
X3808158Y-10678960D02*
X3789110Y-10688484D01*
X3789110Y-10688484D02*
X3770062Y-10688484D01*
X3770062Y-10688484D02*
X3751015Y-10678960D01*
X3751015Y-10678960D02*
X3741491Y-10669436D01*
X3741491Y-10669436D02*
X3731967Y-10650389D01*
X3731967Y-10650389D02*
X3722443Y-10612293D01*
X3722443Y-10612293D02*
X3722443Y-10564674D01*
X3722443Y-10564674D02*
X3731967Y-10526579D01*
X3731967Y-10526579D02*
X3741491Y-10507531D01*
X3741491Y-10507531D02*
X3751015Y-10498008D01*
X3751015Y-10498008D02*
X3770062Y-10488484D01*
X3960539Y-10488484D02*
X3979586Y-10488484D01*
X3979586Y-10488484D02*
X3998634Y-10498008D01*
X3998634Y-10498008D02*
X4008158Y-10507531D01*
X4008158Y-10507531D02*
X4017682Y-10526579D01*
X4017682Y-10526579D02*
X4027205Y-10564674D01*
X4027205Y-10564674D02*
X4027205Y-10612293D01*
X4027205Y-10612293D02*
X4017682Y-10650389D01*
X4017682Y-10650389D02*
X4008158Y-10669436D01*
X4008158Y-10669436D02*
X3998634Y-10678960D01*
X3998634Y-10678960D02*
X3979586Y-10688484D01*
X3979586Y-10688484D02*
X3960539Y-10688484D01*
X3960539Y-10688484D02*
X3941491Y-10678960D01*
X3941491Y-10678960D02*
X3931967Y-10669436D01*
X3931967Y-10669436D02*
X3922443Y-10650389D01*
X3922443Y-10650389D02*
X3912920Y-10612293D01*
X3912920Y-10612293D02*
X3912920Y-10564674D01*
X3912920Y-10564674D02*
X3922443Y-10526579D01*
X3922443Y-10526579D02*
X3931967Y-10507531D01*
X3931967Y-10507531D02*
X3941491Y-10498008D01*
X3941491Y-10498008D02*
X3960539Y-10488484D01*
X4112920Y-10688484D02*
X4112920Y-10555150D01*
X4112920Y-10574198D02*
X4122443Y-10564674D01*
X4122443Y-10564674D02*
X4141491Y-10555150D01*
X4141491Y-10555150D02*
X4170063Y-10555150D01*
X4170063Y-10555150D02*
X4189110Y-10564674D01*
X4189110Y-10564674D02*
X4198634Y-10583722D01*
X4198634Y-10583722D02*
X4198634Y-10688484D01*
X4198634Y-10583722D02*
X4208158Y-10564674D01*
X4208158Y-10564674D02*
X4227205Y-10555150D01*
X4227205Y-10555150D02*
X4255777Y-10555150D01*
X4255777Y-10555150D02*
X4274825Y-10564674D01*
X4274825Y-10564674D02*
X4284348Y-10583722D01*
X4284348Y-10583722D02*
X4284348Y-10688484D01*
X4379586Y-10688484D02*
X4379586Y-10555150D01*
X4379586Y-10574198D02*
X4389110Y-10564674D01*
X4389110Y-10564674D02*
X4408158Y-10555150D01*
X4408158Y-10555150D02*
X4436729Y-10555150D01*
X4436729Y-10555150D02*
X4455777Y-10564674D01*
X4455777Y-10564674D02*
X4465301Y-10583722D01*
X4465301Y-10583722D02*
X4465301Y-10688484D01*
X4465301Y-10583722D02*
X4474825Y-10564674D01*
X4474825Y-10564674D02*
X4493872Y-10555150D01*
X4493872Y-10555150D02*
X4522444Y-10555150D01*
X4522444Y-10555150D02*
X4541491Y-10564674D01*
X4541491Y-10564674D02*
X4551015Y-10583722D01*
X4551015Y-10583722D02*
X4551015Y-10688484D01*
X4941491Y-10478960D02*
X4770063Y-10736103D01*
X5198634Y-10488484D02*
X5217682Y-10488484D01*
X5217682Y-10488484D02*
X5236729Y-10498008D01*
X5236729Y-10498008D02*
X5246253Y-10507531D01*
X5246253Y-10507531D02*
X5255777Y-10526579D01*
X5255777Y-10526579D02*
X5265301Y-10564674D01*
X5265301Y-10564674D02*
X5265301Y-10612293D01*
X5265301Y-10612293D02*
X5255777Y-10650389D01*
X5255777Y-10650389D02*
X5246253Y-10669436D01*
X5246253Y-10669436D02*
X5236729Y-10678960D01*
X5236729Y-10678960D02*
X5217682Y-10688484D01*
X5217682Y-10688484D02*
X5198634Y-10688484D01*
X5198634Y-10688484D02*
X5179587Y-10678960D01*
X5179587Y-10678960D02*
X5170063Y-10669436D01*
X5170063Y-10669436D02*
X5160539Y-10650389D01*
X5160539Y-10650389D02*
X5151015Y-10612293D01*
X5151015Y-10612293D02*
X5151015Y-10564674D01*
X5151015Y-10564674D02*
X5160539Y-10526579D01*
X5160539Y-10526579D02*
X5170063Y-10507531D01*
X5170063Y-10507531D02*
X5179587Y-10498008D01*
X5179587Y-10498008D02*
X5198634Y-10488484D01*
X5351015Y-10669436D02*
X5360539Y-10678960D01*
X5360539Y-10678960D02*
X5351015Y-10688484D01*
X5351015Y-10688484D02*
X5341491Y-10678960D01*
X5341491Y-10678960D02*
X5351015Y-10669436D01*
X5351015Y-10669436D02*
X5351015Y-10688484D01*
X5484348Y-10488484D02*
X5503396Y-10488484D01*
X5503396Y-10488484D02*
X5522444Y-10498008D01*
X5522444Y-10498008D02*
X5531968Y-10507531D01*
X5531968Y-10507531D02*
X5541491Y-10526579D01*
X5541491Y-10526579D02*
X5551015Y-10564674D01*
X5551015Y-10564674D02*
X5551015Y-10612293D01*
X5551015Y-10612293D02*
X5541491Y-10650389D01*
X5541491Y-10650389D02*
X5531968Y-10669436D01*
X5531968Y-10669436D02*
X5522444Y-10678960D01*
X5522444Y-10678960D02*
X5503396Y-10688484D01*
X5503396Y-10688484D02*
X5484348Y-10688484D01*
X5484348Y-10688484D02*
X5465301Y-10678960D01*
X5465301Y-10678960D02*
X5455777Y-10669436D01*
X5455777Y-10669436D02*
X5446253Y-10650389D01*
X5446253Y-10650389D02*
X5436729Y-10612293D01*
X5436729Y-10612293D02*
X5436729Y-10564674D01*
X5436729Y-10564674D02*
X5446253Y-10526579D01*
X5446253Y-10526579D02*
X5455777Y-10507531D01*
X5455777Y-10507531D02*
X5465301Y-10498008D01*
X5465301Y-10498008D02*
X5484348Y-10488484D01*
X5646253Y-10688484D02*
X5684348Y-10688484D01*
X5684348Y-10688484D02*
X5703396Y-10678960D01*
X5703396Y-10678960D02*
X5712920Y-10669436D01*
X5712920Y-10669436D02*
X5731967Y-10640865D01*
X5731967Y-10640865D02*
X5741491Y-10602770D01*
X5741491Y-10602770D02*
X5741491Y-10526579D01*
X5741491Y-10526579D02*
X5731967Y-10507531D01*
X5731967Y-10507531D02*
X5722444Y-10498008D01*
X5722444Y-10498008D02*
X5703396Y-10488484D01*
X5703396Y-10488484D02*
X5665301Y-10488484D01*
X5665301Y-10488484D02*
X5646253Y-10498008D01*
X5646253Y-10498008D02*
X5636729Y-10507531D01*
X5636729Y-10507531D02*
X5627206Y-10526579D01*
X5627206Y-10526579D02*
X5627206Y-10574198D01*
X5627206Y-10574198D02*
X5636729Y-10593246D01*
X5636729Y-10593246D02*
X5646253Y-10602770D01*
X5646253Y-10602770D02*
X5665301Y-10612293D01*
X5665301Y-10612293D02*
X5703396Y-10612293D01*
X5703396Y-10612293D02*
X5722444Y-10602770D01*
X5722444Y-10602770D02*
X5731967Y-10593246D01*
X5731967Y-10593246D02*
X5741491Y-10574198D01*
X5865301Y-10488484D02*
X5884348Y-10488484D01*
X5884348Y-10488484D02*
X5903396Y-10498008D01*
X5903396Y-10498008D02*
X5912920Y-10507531D01*
X5912920Y-10507531D02*
X5922444Y-10526579D01*
X5922444Y-10526579D02*
X5931967Y-10564674D01*
X5931967Y-10564674D02*
X5931967Y-10612293D01*
X5931967Y-10612293D02*
X5922444Y-10650389D01*
X5922444Y-10650389D02*
X5912920Y-10669436D01*
X5912920Y-10669436D02*
X5903396Y-10678960D01*
X5903396Y-10678960D02*
X5884348Y-10688484D01*
X5884348Y-10688484D02*
X5865301Y-10688484D01*
X5865301Y-10688484D02*
X5846253Y-10678960D01*
X5846253Y-10678960D02*
X5836729Y-10669436D01*
X5836729Y-10669436D02*
X5827206Y-10650389D01*
X5827206Y-10650389D02*
X5817682Y-10612293D01*
X5817682Y-10612293D02*
X5817682Y-10564674D01*
X5817682Y-10564674D02*
X5827206Y-10526579D01*
X5827206Y-10526579D02*
X5836729Y-10507531D01*
X5836729Y-10507531D02*
X5846253Y-10498008D01*
X5846253Y-10498008D02*
X5865301Y-10488484D01*
X6103396Y-10488484D02*
X6065301Y-10488484D01*
X6065301Y-10488484D02*
X6046253Y-10498008D01*
X6046253Y-10498008D02*
X6036729Y-10507531D01*
X6036729Y-10507531D02*
X6017682Y-10536103D01*
X6017682Y-10536103D02*
X6008158Y-10574198D01*
X6008158Y-10574198D02*
X6008158Y-10650389D01*
X6008158Y-10650389D02*
X6017682Y-10669436D01*
X6017682Y-10669436D02*
X6027206Y-10678960D01*
X6027206Y-10678960D02*
X6046253Y-10688484D01*
X6046253Y-10688484D02*
X6084348Y-10688484D01*
X6084348Y-10688484D02*
X6103396Y-10678960D01*
X6103396Y-10678960D02*
X6112920Y-10669436D01*
X6112920Y-10669436D02*
X6122444Y-10650389D01*
X6122444Y-10650389D02*
X6122444Y-10602770D01*
X6122444Y-10602770D02*
X6112920Y-10583722D01*
X6112920Y-10583722D02*
X6103396Y-10574198D01*
X6103396Y-10574198D02*
X6084348Y-10564674D01*
X6084348Y-10564674D02*
X6046253Y-10564674D01*
X6046253Y-10564674D02*
X6027206Y-10574198D01*
X6027206Y-10574198D02*
X6017682Y-10583722D01*
X6017682Y-10583722D02*
X6008158Y-10602770D01*
X6198634Y-10488484D02*
X6198634Y-10526579D01*
X6274825Y-10488484D02*
X6274825Y-10526579D01*
X6570063Y-10764674D02*
X6560539Y-10755150D01*
X6560539Y-10755150D02*
X6541491Y-10726579D01*
X6541491Y-10726579D02*
X6531968Y-10707531D01*
X6531968Y-10707531D02*
X6522444Y-10678960D01*
X6522444Y-10678960D02*
X6512920Y-10631341D01*
X6512920Y-10631341D02*
X6512920Y-10593246D01*
X6512920Y-10593246D02*
X6522444Y-10545627D01*
X6522444Y-10545627D02*
X6531968Y-10517055D01*
X6531968Y-10517055D02*
X6541491Y-10498008D01*
X6541491Y-10498008D02*
X6560539Y-10469436D01*
X6560539Y-10469436D02*
X6570063Y-10459912D01*
X6636729Y-10507531D02*
X6646253Y-10498008D01*
X6646253Y-10498008D02*
X6665301Y-10488484D01*
X6665301Y-10488484D02*
X6712920Y-10488484D01*
X6712920Y-10488484D02*
X6731968Y-10498008D01*
X6731968Y-10498008D02*
X6741491Y-10507531D01*
X6741491Y-10507531D02*
X6751015Y-10526579D01*
X6751015Y-10526579D02*
X6751015Y-10545627D01*
X6751015Y-10545627D02*
X6741491Y-10574198D01*
X6741491Y-10574198D02*
X6627206Y-10688484D01*
X6627206Y-10688484D02*
X6751015Y-10688484D01*
X6989110Y-10688484D02*
X6989110Y-10488484D01*
X7074825Y-10688484D02*
X7074825Y-10583722D01*
X7074825Y-10583722D02*
X7065301Y-10564674D01*
X7065301Y-10564674D02*
X7046253Y-10555150D01*
X7046253Y-10555150D02*
X7017682Y-10555150D01*
X7017682Y-10555150D02*
X6998634Y-10564674D01*
X6998634Y-10564674D02*
X6989110Y-10574198D01*
X7198634Y-10688484D02*
X7179587Y-10678960D01*
X7179587Y-10678960D02*
X7170063Y-10669436D01*
X7170063Y-10669436D02*
X7160539Y-10650389D01*
X7160539Y-10650389D02*
X7160539Y-10593246D01*
X7160539Y-10593246D02*
X7170063Y-10574198D01*
X7170063Y-10574198D02*
X7179587Y-10564674D01*
X7179587Y-10564674D02*
X7198634Y-10555150D01*
X7198634Y-10555150D02*
X7227206Y-10555150D01*
X7227206Y-10555150D02*
X7246253Y-10564674D01*
X7246253Y-10564674D02*
X7255777Y-10574198D01*
X7255777Y-10574198D02*
X7265301Y-10593246D01*
X7265301Y-10593246D02*
X7265301Y-10650389D01*
X7265301Y-10650389D02*
X7255777Y-10669436D01*
X7255777Y-10669436D02*
X7246253Y-10678960D01*
X7246253Y-10678960D02*
X7227206Y-10688484D01*
X7227206Y-10688484D02*
X7198634Y-10688484D01*
X7379587Y-10688484D02*
X7360539Y-10678960D01*
X7360539Y-10678960D02*
X7351015Y-10659912D01*
X7351015Y-10659912D02*
X7351015Y-10488484D01*
X7531968Y-10678960D02*
X7512920Y-10688484D01*
X7512920Y-10688484D02*
X7474825Y-10688484D01*
X7474825Y-10688484D02*
X7455777Y-10678960D01*
X7455777Y-10678960D02*
X7446253Y-10659912D01*
X7446253Y-10659912D02*
X7446253Y-10583722D01*
X7446253Y-10583722D02*
X7455777Y-10564674D01*
X7455777Y-10564674D02*
X7474825Y-10555150D01*
X7474825Y-10555150D02*
X7512920Y-10555150D01*
X7512920Y-10555150D02*
X7531968Y-10564674D01*
X7531968Y-10564674D02*
X7541491Y-10583722D01*
X7541491Y-10583722D02*
X7541491Y-10602770D01*
X7541491Y-10602770D02*
X7446253Y-10621817D01*
X7617682Y-10678960D02*
X7636730Y-10688484D01*
X7636730Y-10688484D02*
X7674825Y-10688484D01*
X7674825Y-10688484D02*
X7693872Y-10678960D01*
X7693872Y-10678960D02*
X7703396Y-10659912D01*
X7703396Y-10659912D02*
X7703396Y-10650389D01*
X7703396Y-10650389D02*
X7693872Y-10631341D01*
X7693872Y-10631341D02*
X7674825Y-10621817D01*
X7674825Y-10621817D02*
X7646253Y-10621817D01*
X7646253Y-10621817D02*
X7627206Y-10612293D01*
X7627206Y-10612293D02*
X7617682Y-10593246D01*
X7617682Y-10593246D02*
X7617682Y-10583722D01*
X7617682Y-10583722D02*
X7627206Y-10564674D01*
X7627206Y-10564674D02*
X7646253Y-10555150D01*
X7646253Y-10555150D02*
X7674825Y-10555150D01*
X7674825Y-10555150D02*
X7693872Y-10564674D01*
X7770063Y-10764674D02*
X7779587Y-10755150D01*
X7779587Y-10755150D02*
X7798634Y-10726579D01*
X7798634Y-10726579D02*
X7808158Y-10707531D01*
X7808158Y-10707531D02*
X7817682Y-10678960D01*
X7817682Y-10678960D02*
X7827206Y-10631341D01*
X7827206Y-10631341D02*
X7827206Y-10593246D01*
X7827206Y-10593246D02*
X7817682Y-10545627D01*
X7817682Y-10545627D02*
X7808158Y-10517055D01*
X7808158Y-10517055D02*
X7798634Y-10498008D01*
X7798634Y-10498008D02*
X7779587Y-10469436D01*
X7779587Y-10469436D02*
X7770063Y-10459912D01*
X8131968Y-10764674D02*
X8122444Y-10755150D01*
X8122444Y-10755150D02*
X8103396Y-10726579D01*
X8103396Y-10726579D02*
X8093872Y-10707531D01*
X8093872Y-10707531D02*
X8084349Y-10678960D01*
X8084349Y-10678960D02*
X8074825Y-10631341D01*
X8074825Y-10631341D02*
X8074825Y-10593246D01*
X8074825Y-10593246D02*
X8084349Y-10545627D01*
X8084349Y-10545627D02*
X8093872Y-10517055D01*
X8093872Y-10517055D02*
X8103396Y-10498008D01*
X8103396Y-10498008D02*
X8122444Y-10469436D01*
X8122444Y-10469436D02*
X8131968Y-10459912D01*
X8208158Y-10555150D02*
X8208158Y-10688484D01*
X8208158Y-10574198D02*
X8217682Y-10564674D01*
X8217682Y-10564674D02*
X8236730Y-10555150D01*
X8236730Y-10555150D02*
X8265301Y-10555150D01*
X8265301Y-10555150D02*
X8284349Y-10564674D01*
X8284349Y-10564674D02*
X8293872Y-10583722D01*
X8293872Y-10583722D02*
X8293872Y-10688484D01*
X8417682Y-10688484D02*
X8398634Y-10678960D01*
X8398634Y-10678960D02*
X8389111Y-10669436D01*
X8389111Y-10669436D02*
X8379587Y-10650389D01*
X8379587Y-10650389D02*
X8379587Y-10593246D01*
X8379587Y-10593246D02*
X8389111Y-10574198D01*
X8389111Y-10574198D02*
X8398634Y-10564674D01*
X8398634Y-10564674D02*
X8417682Y-10555150D01*
X8417682Y-10555150D02*
X8446254Y-10555150D01*
X8446254Y-10555150D02*
X8465301Y-10564674D01*
X8465301Y-10564674D02*
X8474825Y-10574198D01*
X8474825Y-10574198D02*
X8484349Y-10593246D01*
X8484349Y-10593246D02*
X8484349Y-10650389D01*
X8484349Y-10650389D02*
X8474825Y-10669436D01*
X8474825Y-10669436D02*
X8465301Y-10678960D01*
X8465301Y-10678960D02*
X8446254Y-10688484D01*
X8446254Y-10688484D02*
X8417682Y-10688484D01*
X8541492Y-10555150D02*
X8617682Y-10555150D01*
X8570063Y-10488484D02*
X8570063Y-10659912D01*
X8570063Y-10659912D02*
X8579587Y-10678960D01*
X8579587Y-10678960D02*
X8598634Y-10688484D01*
X8598634Y-10688484D02*
X8617682Y-10688484D01*
X8836730Y-10555150D02*
X8836730Y-10755150D01*
X8836730Y-10564674D02*
X8855777Y-10555150D01*
X8855777Y-10555150D02*
X8893873Y-10555150D01*
X8893873Y-10555150D02*
X8912920Y-10564674D01*
X8912920Y-10564674D02*
X8922444Y-10574198D01*
X8922444Y-10574198D02*
X8931968Y-10593246D01*
X8931968Y-10593246D02*
X8931968Y-10650389D01*
X8931968Y-10650389D02*
X8922444Y-10669436D01*
X8922444Y-10669436D02*
X8912920Y-10678960D01*
X8912920Y-10678960D02*
X8893873Y-10688484D01*
X8893873Y-10688484D02*
X8855777Y-10688484D01*
X8855777Y-10688484D02*
X8836730Y-10678960D01*
X9046254Y-10688484D02*
X9027206Y-10678960D01*
X9027206Y-10678960D02*
X9017682Y-10659912D01*
X9017682Y-10659912D02*
X9017682Y-10488484D01*
X9208158Y-10688484D02*
X9208158Y-10583722D01*
X9208158Y-10583722D02*
X9198635Y-10564674D01*
X9198635Y-10564674D02*
X9179587Y-10555150D01*
X9179587Y-10555150D02*
X9141492Y-10555150D01*
X9141492Y-10555150D02*
X9122444Y-10564674D01*
X9208158Y-10678960D02*
X9189111Y-10688484D01*
X9189111Y-10688484D02*
X9141492Y-10688484D01*
X9141492Y-10688484D02*
X9122444Y-10678960D01*
X9122444Y-10678960D02*
X9112920Y-10659912D01*
X9112920Y-10659912D02*
X9112920Y-10640865D01*
X9112920Y-10640865D02*
X9122444Y-10621817D01*
X9122444Y-10621817D02*
X9141492Y-10612293D01*
X9141492Y-10612293D02*
X9189111Y-10612293D01*
X9189111Y-10612293D02*
X9208158Y-10602770D01*
X9274825Y-10555150D02*
X9351015Y-10555150D01*
X9303396Y-10488484D02*
X9303396Y-10659912D01*
X9303396Y-10659912D02*
X9312920Y-10678960D01*
X9312920Y-10678960D02*
X9331968Y-10688484D01*
X9331968Y-10688484D02*
X9351015Y-10688484D01*
X9493873Y-10678960D02*
X9474825Y-10688484D01*
X9474825Y-10688484D02*
X9436730Y-10688484D01*
X9436730Y-10688484D02*
X9417682Y-10678960D01*
X9417682Y-10678960D02*
X9408158Y-10659912D01*
X9408158Y-10659912D02*
X9408158Y-10583722D01*
X9408158Y-10583722D02*
X9417682Y-10564674D01*
X9417682Y-10564674D02*
X9436730Y-10555150D01*
X9436730Y-10555150D02*
X9474825Y-10555150D01*
X9474825Y-10555150D02*
X9493873Y-10564674D01*
X9493873Y-10564674D02*
X9503396Y-10583722D01*
X9503396Y-10583722D02*
X9503396Y-10602770D01*
X9503396Y-10602770D02*
X9408158Y-10621817D01*
X9674825Y-10688484D02*
X9674825Y-10488484D01*
X9674825Y-10678960D02*
X9655777Y-10688484D01*
X9655777Y-10688484D02*
X9617682Y-10688484D01*
X9617682Y-10688484D02*
X9598635Y-10678960D01*
X9598635Y-10678960D02*
X9589111Y-10669436D01*
X9589111Y-10669436D02*
X9579587Y-10650389D01*
X9579587Y-10650389D02*
X9579587Y-10593246D01*
X9579587Y-10593246D02*
X9589111Y-10574198D01*
X9589111Y-10574198D02*
X9598635Y-10564674D01*
X9598635Y-10564674D02*
X9617682Y-10555150D01*
X9617682Y-10555150D02*
X9655777Y-10555150D01*
X9655777Y-10555150D02*
X9674825Y-10564674D01*
X9751016Y-10764674D02*
X9760539Y-10755150D01*
X9760539Y-10755150D02*
X9779587Y-10726579D01*
X9779587Y-10726579D02*
X9789111Y-10707531D01*
X9789111Y-10707531D02*
X9798635Y-10678960D01*
X9798635Y-10678960D02*
X9808158Y-10631341D01*
X9808158Y-10631341D02*
X9808158Y-10593246D01*
X9808158Y-10593246D02*
X9798635Y-10545627D01*
X9798635Y-10545627D02*
X9789111Y-10517055D01*
X9789111Y-10517055D02*
X9779587Y-10498008D01*
X9779587Y-10498008D02*
X9760539Y-10469436D01*
X9760539Y-10469436D02*
X9751016Y-10459912D01*
X2895000Y-11017000D02*
X2995000Y-10917000D01*
X2895000Y-10817000D01*
X2795000Y-10917000D01*
X2895000Y-11017000D01*
X3236729Y-10808484D02*
X3360539Y-10808484D01*
X3360539Y-10808484D02*
X3293872Y-10884674D01*
X3293872Y-10884674D02*
X3322443Y-10884674D01*
X3322443Y-10884674D02*
X3341491Y-10894198D01*
X3341491Y-10894198D02*
X3351015Y-10903722D01*
X3351015Y-10903722D02*
X3360539Y-10922770D01*
X3360539Y-10922770D02*
X3360539Y-10970389D01*
X3360539Y-10970389D02*
X3351015Y-10989436D01*
X3351015Y-10989436D02*
X3341491Y-10998960D01*
X3341491Y-10998960D02*
X3322443Y-11008484D01*
X3322443Y-11008484D02*
X3265301Y-11008484D01*
X3265301Y-11008484D02*
X3246253Y-10998960D01*
X3246253Y-10998960D02*
X3236729Y-10989436D01*
X3446253Y-10989436D02*
X3455777Y-10998960D01*
X3455777Y-10998960D02*
X3446253Y-11008484D01*
X3446253Y-11008484D02*
X3436729Y-10998960D01*
X3436729Y-10998960D02*
X3446253Y-10989436D01*
X3446253Y-10989436D02*
X3446253Y-11008484D01*
X3579586Y-10808484D02*
X3598634Y-10808484D01*
X3598634Y-10808484D02*
X3617682Y-10818008D01*
X3617682Y-10818008D02*
X3627205Y-10827531D01*
X3627205Y-10827531D02*
X3636729Y-10846579D01*
X3636729Y-10846579D02*
X3646253Y-10884674D01*
X3646253Y-10884674D02*
X3646253Y-10932293D01*
X3646253Y-10932293D02*
X3636729Y-10970389D01*
X3636729Y-10970389D02*
X3627205Y-10989436D01*
X3627205Y-10989436D02*
X3617682Y-10998960D01*
X3617682Y-10998960D02*
X3598634Y-11008484D01*
X3598634Y-11008484D02*
X3579586Y-11008484D01*
X3579586Y-11008484D02*
X3560539Y-10998960D01*
X3560539Y-10998960D02*
X3551015Y-10989436D01*
X3551015Y-10989436D02*
X3541491Y-10970389D01*
X3541491Y-10970389D02*
X3531967Y-10932293D01*
X3531967Y-10932293D02*
X3531967Y-10884674D01*
X3531967Y-10884674D02*
X3541491Y-10846579D01*
X3541491Y-10846579D02*
X3551015Y-10827531D01*
X3551015Y-10827531D02*
X3560539Y-10818008D01*
X3560539Y-10818008D02*
X3579586Y-10808484D01*
X3770062Y-10808484D02*
X3789110Y-10808484D01*
X3789110Y-10808484D02*
X3808158Y-10818008D01*
X3808158Y-10818008D02*
X3817682Y-10827531D01*
X3817682Y-10827531D02*
X3827205Y-10846579D01*
X3827205Y-10846579D02*
X3836729Y-10884674D01*
X3836729Y-10884674D02*
X3836729Y-10932293D01*
X3836729Y-10932293D02*
X3827205Y-10970389D01*
X3827205Y-10970389D02*
X3817682Y-10989436D01*
X3817682Y-10989436D02*
X3808158Y-10998960D01*
X3808158Y-10998960D02*
X3789110Y-11008484D01*
X3789110Y-11008484D02*
X3770062Y-11008484D01*
X3770062Y-11008484D02*
X3751015Y-10998960D01*
X3751015Y-10998960D02*
X3741491Y-10989436D01*
X3741491Y-10989436D02*
X3731967Y-10970389D01*
X3731967Y-10970389D02*
X3722443Y-10932293D01*
X3722443Y-10932293D02*
X3722443Y-10884674D01*
X3722443Y-10884674D02*
X3731967Y-10846579D01*
X3731967Y-10846579D02*
X3741491Y-10827531D01*
X3741491Y-10827531D02*
X3751015Y-10818008D01*
X3751015Y-10818008D02*
X3770062Y-10808484D01*
X3960539Y-10808484D02*
X3979586Y-10808484D01*
X3979586Y-10808484D02*
X3998634Y-10818008D01*
X3998634Y-10818008D02*
X4008158Y-10827531D01*
X4008158Y-10827531D02*
X4017682Y-10846579D01*
X4017682Y-10846579D02*
X4027205Y-10884674D01*
X4027205Y-10884674D02*
X4027205Y-10932293D01*
X4027205Y-10932293D02*
X4017682Y-10970389D01*
X4017682Y-10970389D02*
X4008158Y-10989436D01*
X4008158Y-10989436D02*
X3998634Y-10998960D01*
X3998634Y-10998960D02*
X3979586Y-11008484D01*
X3979586Y-11008484D02*
X3960539Y-11008484D01*
X3960539Y-11008484D02*
X3941491Y-10998960D01*
X3941491Y-10998960D02*
X3931967Y-10989436D01*
X3931967Y-10989436D02*
X3922443Y-10970389D01*
X3922443Y-10970389D02*
X3912920Y-10932293D01*
X3912920Y-10932293D02*
X3912920Y-10884674D01*
X3912920Y-10884674D02*
X3922443Y-10846579D01*
X3922443Y-10846579D02*
X3931967Y-10827531D01*
X3931967Y-10827531D02*
X3941491Y-10818008D01*
X3941491Y-10818008D02*
X3960539Y-10808484D01*
X4112920Y-11008484D02*
X4112920Y-10875150D01*
X4112920Y-10894198D02*
X4122443Y-10884674D01*
X4122443Y-10884674D02*
X4141491Y-10875150D01*
X4141491Y-10875150D02*
X4170063Y-10875150D01*
X4170063Y-10875150D02*
X4189110Y-10884674D01*
X4189110Y-10884674D02*
X4198634Y-10903722D01*
X4198634Y-10903722D02*
X4198634Y-11008484D01*
X4198634Y-10903722D02*
X4208158Y-10884674D01*
X4208158Y-10884674D02*
X4227205Y-10875150D01*
X4227205Y-10875150D02*
X4255777Y-10875150D01*
X4255777Y-10875150D02*
X4274825Y-10884674D01*
X4274825Y-10884674D02*
X4284348Y-10903722D01*
X4284348Y-10903722D02*
X4284348Y-11008484D01*
X4379586Y-11008484D02*
X4379586Y-10875150D01*
X4379586Y-10894198D02*
X4389110Y-10884674D01*
X4389110Y-10884674D02*
X4408158Y-10875150D01*
X4408158Y-10875150D02*
X4436729Y-10875150D01*
X4436729Y-10875150D02*
X4455777Y-10884674D01*
X4455777Y-10884674D02*
X4465301Y-10903722D01*
X4465301Y-10903722D02*
X4465301Y-11008484D01*
X4465301Y-10903722D02*
X4474825Y-10884674D01*
X4474825Y-10884674D02*
X4493872Y-10875150D01*
X4493872Y-10875150D02*
X4522444Y-10875150D01*
X4522444Y-10875150D02*
X4541491Y-10884674D01*
X4541491Y-10884674D02*
X4551015Y-10903722D01*
X4551015Y-10903722D02*
X4551015Y-11008484D01*
X4941491Y-10798960D02*
X4770063Y-11056103D01*
X5198634Y-10808484D02*
X5217682Y-10808484D01*
X5217682Y-10808484D02*
X5236729Y-10818008D01*
X5236729Y-10818008D02*
X5246253Y-10827531D01*
X5246253Y-10827531D02*
X5255777Y-10846579D01*
X5255777Y-10846579D02*
X5265301Y-10884674D01*
X5265301Y-10884674D02*
X5265301Y-10932293D01*
X5265301Y-10932293D02*
X5255777Y-10970389D01*
X5255777Y-10970389D02*
X5246253Y-10989436D01*
X5246253Y-10989436D02*
X5236729Y-10998960D01*
X5236729Y-10998960D02*
X5217682Y-11008484D01*
X5217682Y-11008484D02*
X5198634Y-11008484D01*
X5198634Y-11008484D02*
X5179587Y-10998960D01*
X5179587Y-10998960D02*
X5170063Y-10989436D01*
X5170063Y-10989436D02*
X5160539Y-10970389D01*
X5160539Y-10970389D02*
X5151015Y-10932293D01*
X5151015Y-10932293D02*
X5151015Y-10884674D01*
X5151015Y-10884674D02*
X5160539Y-10846579D01*
X5160539Y-10846579D02*
X5170063Y-10827531D01*
X5170063Y-10827531D02*
X5179587Y-10818008D01*
X5179587Y-10818008D02*
X5198634Y-10808484D01*
X5351015Y-10989436D02*
X5360539Y-10998960D01*
X5360539Y-10998960D02*
X5351015Y-11008484D01*
X5351015Y-11008484D02*
X5341491Y-10998960D01*
X5341491Y-10998960D02*
X5351015Y-10989436D01*
X5351015Y-10989436D02*
X5351015Y-11008484D01*
X5551015Y-11008484D02*
X5436729Y-11008484D01*
X5493872Y-11008484D02*
X5493872Y-10808484D01*
X5493872Y-10808484D02*
X5474825Y-10837055D01*
X5474825Y-10837055D02*
X5455777Y-10856103D01*
X5455777Y-10856103D02*
X5436729Y-10865627D01*
X5741491Y-11008484D02*
X5627206Y-11008484D01*
X5684348Y-11008484D02*
X5684348Y-10808484D01*
X5684348Y-10808484D02*
X5665301Y-10837055D01*
X5665301Y-10837055D02*
X5646253Y-10856103D01*
X5646253Y-10856103D02*
X5627206Y-10865627D01*
X5855777Y-10894198D02*
X5836729Y-10884674D01*
X5836729Y-10884674D02*
X5827206Y-10875150D01*
X5827206Y-10875150D02*
X5817682Y-10856103D01*
X5817682Y-10856103D02*
X5817682Y-10846579D01*
X5817682Y-10846579D02*
X5827206Y-10827531D01*
X5827206Y-10827531D02*
X5836729Y-10818008D01*
X5836729Y-10818008D02*
X5855777Y-10808484D01*
X5855777Y-10808484D02*
X5893872Y-10808484D01*
X5893872Y-10808484D02*
X5912920Y-10818008D01*
X5912920Y-10818008D02*
X5922444Y-10827531D01*
X5922444Y-10827531D02*
X5931967Y-10846579D01*
X5931967Y-10846579D02*
X5931967Y-10856103D01*
X5931967Y-10856103D02*
X5922444Y-10875150D01*
X5922444Y-10875150D02*
X5912920Y-10884674D01*
X5912920Y-10884674D02*
X5893872Y-10894198D01*
X5893872Y-10894198D02*
X5855777Y-10894198D01*
X5855777Y-10894198D02*
X5836729Y-10903722D01*
X5836729Y-10903722D02*
X5827206Y-10913246D01*
X5827206Y-10913246D02*
X5817682Y-10932293D01*
X5817682Y-10932293D02*
X5817682Y-10970389D01*
X5817682Y-10970389D02*
X5827206Y-10989436D01*
X5827206Y-10989436D02*
X5836729Y-10998960D01*
X5836729Y-10998960D02*
X5855777Y-11008484D01*
X5855777Y-11008484D02*
X5893872Y-11008484D01*
X5893872Y-11008484D02*
X5912920Y-10998960D01*
X5912920Y-10998960D02*
X5922444Y-10989436D01*
X5922444Y-10989436D02*
X5931967Y-10970389D01*
X5931967Y-10970389D02*
X5931967Y-10932293D01*
X5931967Y-10932293D02*
X5922444Y-10913246D01*
X5922444Y-10913246D02*
X5912920Y-10903722D01*
X5912920Y-10903722D02*
X5893872Y-10894198D01*
X6122444Y-11008484D02*
X6008158Y-11008484D01*
X6065301Y-11008484D02*
X6065301Y-10808484D01*
X6065301Y-10808484D02*
X6046253Y-10837055D01*
X6046253Y-10837055D02*
X6027206Y-10856103D01*
X6027206Y-10856103D02*
X6008158Y-10865627D01*
X6198634Y-10808484D02*
X6198634Y-10846579D01*
X6274825Y-10808484D02*
X6274825Y-10846579D01*
X6570063Y-11084674D02*
X6560539Y-11075150D01*
X6560539Y-11075150D02*
X6541491Y-11046579D01*
X6541491Y-11046579D02*
X6531968Y-11027531D01*
X6531968Y-11027531D02*
X6522444Y-10998960D01*
X6522444Y-10998960D02*
X6512920Y-10951341D01*
X6512920Y-10951341D02*
X6512920Y-10913246D01*
X6512920Y-10913246D02*
X6522444Y-10865627D01*
X6522444Y-10865627D02*
X6531968Y-10837055D01*
X6531968Y-10837055D02*
X6541491Y-10818008D01*
X6541491Y-10818008D02*
X6560539Y-10789436D01*
X6560539Y-10789436D02*
X6570063Y-10779912D01*
X6741491Y-10808484D02*
X6646253Y-10808484D01*
X6646253Y-10808484D02*
X6636729Y-10903722D01*
X6636729Y-10903722D02*
X6646253Y-10894198D01*
X6646253Y-10894198D02*
X6665301Y-10884674D01*
X6665301Y-10884674D02*
X6712920Y-10884674D01*
X6712920Y-10884674D02*
X6731968Y-10894198D01*
X6731968Y-10894198D02*
X6741491Y-10903722D01*
X6741491Y-10903722D02*
X6751015Y-10922770D01*
X6751015Y-10922770D02*
X6751015Y-10970389D01*
X6751015Y-10970389D02*
X6741491Y-10989436D01*
X6741491Y-10989436D02*
X6731968Y-10998960D01*
X6731968Y-10998960D02*
X6712920Y-11008484D01*
X6712920Y-11008484D02*
X6665301Y-11008484D01*
X6665301Y-11008484D02*
X6646253Y-10998960D01*
X6646253Y-10998960D02*
X6636729Y-10989436D01*
X6989110Y-11008484D02*
X6989110Y-10808484D01*
X7074825Y-11008484D02*
X7074825Y-10903722D01*
X7074825Y-10903722D02*
X7065301Y-10884674D01*
X7065301Y-10884674D02*
X7046253Y-10875150D01*
X7046253Y-10875150D02*
X7017682Y-10875150D01*
X7017682Y-10875150D02*
X6998634Y-10884674D01*
X6998634Y-10884674D02*
X6989110Y-10894198D01*
X7198634Y-11008484D02*
X7179587Y-10998960D01*
X7179587Y-10998960D02*
X7170063Y-10989436D01*
X7170063Y-10989436D02*
X7160539Y-10970389D01*
X7160539Y-10970389D02*
X7160539Y-10913246D01*
X7160539Y-10913246D02*
X7170063Y-10894198D01*
X7170063Y-10894198D02*
X7179587Y-10884674D01*
X7179587Y-10884674D02*
X7198634Y-10875150D01*
X7198634Y-10875150D02*
X7227206Y-10875150D01*
X7227206Y-10875150D02*
X7246253Y-10884674D01*
X7246253Y-10884674D02*
X7255777Y-10894198D01*
X7255777Y-10894198D02*
X7265301Y-10913246D01*
X7265301Y-10913246D02*
X7265301Y-10970389D01*
X7265301Y-10970389D02*
X7255777Y-10989436D01*
X7255777Y-10989436D02*
X7246253Y-10998960D01*
X7246253Y-10998960D02*
X7227206Y-11008484D01*
X7227206Y-11008484D02*
X7198634Y-11008484D01*
X7379587Y-11008484D02*
X7360539Y-10998960D01*
X7360539Y-10998960D02*
X7351015Y-10979912D01*
X7351015Y-10979912D02*
X7351015Y-10808484D01*
X7531968Y-10998960D02*
X7512920Y-11008484D01*
X7512920Y-11008484D02*
X7474825Y-11008484D01*
X7474825Y-11008484D02*
X7455777Y-10998960D01*
X7455777Y-10998960D02*
X7446253Y-10979912D01*
X7446253Y-10979912D02*
X7446253Y-10903722D01*
X7446253Y-10903722D02*
X7455777Y-10884674D01*
X7455777Y-10884674D02*
X7474825Y-10875150D01*
X7474825Y-10875150D02*
X7512920Y-10875150D01*
X7512920Y-10875150D02*
X7531968Y-10884674D01*
X7531968Y-10884674D02*
X7541491Y-10903722D01*
X7541491Y-10903722D02*
X7541491Y-10922770D01*
X7541491Y-10922770D02*
X7446253Y-10941817D01*
X7617682Y-10998960D02*
X7636730Y-11008484D01*
X7636730Y-11008484D02*
X7674825Y-11008484D01*
X7674825Y-11008484D02*
X7693872Y-10998960D01*
X7693872Y-10998960D02*
X7703396Y-10979912D01*
X7703396Y-10979912D02*
X7703396Y-10970389D01*
X7703396Y-10970389D02*
X7693872Y-10951341D01*
X7693872Y-10951341D02*
X7674825Y-10941817D01*
X7674825Y-10941817D02*
X7646253Y-10941817D01*
X7646253Y-10941817D02*
X7627206Y-10932293D01*
X7627206Y-10932293D02*
X7617682Y-10913246D01*
X7617682Y-10913246D02*
X7617682Y-10903722D01*
X7617682Y-10903722D02*
X7627206Y-10884674D01*
X7627206Y-10884674D02*
X7646253Y-10875150D01*
X7646253Y-10875150D02*
X7674825Y-10875150D01*
X7674825Y-10875150D02*
X7693872Y-10884674D01*
X7770063Y-11084674D02*
X7779587Y-11075150D01*
X7779587Y-11075150D02*
X7798634Y-11046579D01*
X7798634Y-11046579D02*
X7808158Y-11027531D01*
X7808158Y-11027531D02*
X7817682Y-10998960D01*
X7817682Y-10998960D02*
X7827206Y-10951341D01*
X7827206Y-10951341D02*
X7827206Y-10913246D01*
X7827206Y-10913246D02*
X7817682Y-10865627D01*
X7817682Y-10865627D02*
X7808158Y-10837055D01*
X7808158Y-10837055D02*
X7798634Y-10818008D01*
X7798634Y-10818008D02*
X7779587Y-10789436D01*
X7779587Y-10789436D02*
X7770063Y-10779912D01*
X8131968Y-11084674D02*
X8122444Y-11075150D01*
X8122444Y-11075150D02*
X8103396Y-11046579D01*
X8103396Y-11046579D02*
X8093872Y-11027531D01*
X8093872Y-11027531D02*
X8084349Y-10998960D01*
X8084349Y-10998960D02*
X8074825Y-10951341D01*
X8074825Y-10951341D02*
X8074825Y-10913246D01*
X8074825Y-10913246D02*
X8084349Y-10865627D01*
X8084349Y-10865627D02*
X8093872Y-10837055D01*
X8093872Y-10837055D02*
X8103396Y-10818008D01*
X8103396Y-10818008D02*
X8122444Y-10789436D01*
X8122444Y-10789436D02*
X8131968Y-10779912D01*
X8208158Y-10875150D02*
X8208158Y-11008484D01*
X8208158Y-10894198D02*
X8217682Y-10884674D01*
X8217682Y-10884674D02*
X8236730Y-10875150D01*
X8236730Y-10875150D02*
X8265301Y-10875150D01*
X8265301Y-10875150D02*
X8284349Y-10884674D01*
X8284349Y-10884674D02*
X8293872Y-10903722D01*
X8293872Y-10903722D02*
X8293872Y-11008484D01*
X8417682Y-11008484D02*
X8398634Y-10998960D01*
X8398634Y-10998960D02*
X8389111Y-10989436D01*
X8389111Y-10989436D02*
X8379587Y-10970389D01*
X8379587Y-10970389D02*
X8379587Y-10913246D01*
X8379587Y-10913246D02*
X8389111Y-10894198D01*
X8389111Y-10894198D02*
X8398634Y-10884674D01*
X8398634Y-10884674D02*
X8417682Y-10875150D01*
X8417682Y-10875150D02*
X8446254Y-10875150D01*
X8446254Y-10875150D02*
X8465301Y-10884674D01*
X8465301Y-10884674D02*
X8474825Y-10894198D01*
X8474825Y-10894198D02*
X8484349Y-10913246D01*
X8484349Y-10913246D02*
X8484349Y-10970389D01*
X8484349Y-10970389D02*
X8474825Y-10989436D01*
X8474825Y-10989436D02*
X8465301Y-10998960D01*
X8465301Y-10998960D02*
X8446254Y-11008484D01*
X8446254Y-11008484D02*
X8417682Y-11008484D01*
X8541492Y-10875150D02*
X8617682Y-10875150D01*
X8570063Y-10808484D02*
X8570063Y-10979912D01*
X8570063Y-10979912D02*
X8579587Y-10998960D01*
X8579587Y-10998960D02*
X8598634Y-11008484D01*
X8598634Y-11008484D02*
X8617682Y-11008484D01*
X8836730Y-10875150D02*
X8836730Y-11075150D01*
X8836730Y-10884674D02*
X8855777Y-10875150D01*
X8855777Y-10875150D02*
X8893873Y-10875150D01*
X8893873Y-10875150D02*
X8912920Y-10884674D01*
X8912920Y-10884674D02*
X8922444Y-10894198D01*
X8922444Y-10894198D02*
X8931968Y-10913246D01*
X8931968Y-10913246D02*
X8931968Y-10970389D01*
X8931968Y-10970389D02*
X8922444Y-10989436D01*
X8922444Y-10989436D02*
X8912920Y-10998960D01*
X8912920Y-10998960D02*
X8893873Y-11008484D01*
X8893873Y-11008484D02*
X8855777Y-11008484D01*
X8855777Y-11008484D02*
X8836730Y-10998960D01*
X9046254Y-11008484D02*
X9027206Y-10998960D01*
X9027206Y-10998960D02*
X9017682Y-10979912D01*
X9017682Y-10979912D02*
X9017682Y-10808484D01*
X9208158Y-11008484D02*
X9208158Y-10903722D01*
X9208158Y-10903722D02*
X9198635Y-10884674D01*
X9198635Y-10884674D02*
X9179587Y-10875150D01*
X9179587Y-10875150D02*
X9141492Y-10875150D01*
X9141492Y-10875150D02*
X9122444Y-10884674D01*
X9208158Y-10998960D02*
X9189111Y-11008484D01*
X9189111Y-11008484D02*
X9141492Y-11008484D01*
X9141492Y-11008484D02*
X9122444Y-10998960D01*
X9122444Y-10998960D02*
X9112920Y-10979912D01*
X9112920Y-10979912D02*
X9112920Y-10960865D01*
X9112920Y-10960865D02*
X9122444Y-10941817D01*
X9122444Y-10941817D02*
X9141492Y-10932293D01*
X9141492Y-10932293D02*
X9189111Y-10932293D01*
X9189111Y-10932293D02*
X9208158Y-10922770D01*
X9274825Y-10875150D02*
X9351015Y-10875150D01*
X9303396Y-10808484D02*
X9303396Y-10979912D01*
X9303396Y-10979912D02*
X9312920Y-10998960D01*
X9312920Y-10998960D02*
X9331968Y-11008484D01*
X9331968Y-11008484D02*
X9351015Y-11008484D01*
X9493873Y-10998960D02*
X9474825Y-11008484D01*
X9474825Y-11008484D02*
X9436730Y-11008484D01*
X9436730Y-11008484D02*
X9417682Y-10998960D01*
X9417682Y-10998960D02*
X9408158Y-10979912D01*
X9408158Y-10979912D02*
X9408158Y-10903722D01*
X9408158Y-10903722D02*
X9417682Y-10884674D01*
X9417682Y-10884674D02*
X9436730Y-10875150D01*
X9436730Y-10875150D02*
X9474825Y-10875150D01*
X9474825Y-10875150D02*
X9493873Y-10884674D01*
X9493873Y-10884674D02*
X9503396Y-10903722D01*
X9503396Y-10903722D02*
X9503396Y-10922770D01*
X9503396Y-10922770D02*
X9408158Y-10941817D01*
X9674825Y-11008484D02*
X9674825Y-10808484D01*
X9674825Y-10998960D02*
X9655777Y-11008484D01*
X9655777Y-11008484D02*
X9617682Y-11008484D01*
X9617682Y-11008484D02*
X9598635Y-10998960D01*
X9598635Y-10998960D02*
X9589111Y-10989436D01*
X9589111Y-10989436D02*
X9579587Y-10970389D01*
X9579587Y-10970389D02*
X9579587Y-10913246D01*
X9579587Y-10913246D02*
X9589111Y-10894198D01*
X9589111Y-10894198D02*
X9598635Y-10884674D01*
X9598635Y-10884674D02*
X9617682Y-10875150D01*
X9617682Y-10875150D02*
X9655777Y-10875150D01*
X9655777Y-10875150D02*
X9674825Y-10884674D01*
X9751016Y-11084674D02*
X9760539Y-11075150D01*
X9760539Y-11075150D02*
X9779587Y-11046579D01*
X9779587Y-11046579D02*
X9789111Y-11027531D01*
X9789111Y-11027531D02*
X9798635Y-10998960D01*
X9798635Y-10998960D02*
X9808158Y-10951341D01*
X9808158Y-10951341D02*
X9808158Y-10913246D01*
X9808158Y-10913246D02*
X9798635Y-10865627D01*
X9798635Y-10865627D02*
X9789111Y-10837055D01*
X9789111Y-10837055D02*
X9779587Y-10818008D01*
X9779587Y-10818008D02*
X9760539Y-10789436D01*
X9760539Y-10789436D02*
X9751016Y-10779912D01*
M02*
