G04 #@! TF.GenerationSoftware,KiCad,Pcbnew,7.0.6-7.0.6~ubuntu20.04.1*
G04 #@! TF.CreationDate,2023-10-06T02:11:44+00:00*
G04 #@! TF.ProjectId,Seismos_CoreL,53656973-6d6f-4735-9f43-6f72654c2e6b,rev?*
G04 #@! TF.SameCoordinates,Original*
G04 #@! TF.FileFunction,Legend,Bot*
G04 #@! TF.FilePolarity,Positive*
%FSLAX46Y46*%
G04 Gerber Fmt 4.6, Leading zero omitted, Abs format (unit mm)*
G04 Created by KiCad (PCBNEW 7.0.6-7.0.6~ubuntu20.04.1) date 2023-10-06 02:11:44*
%MOMM*%
%LPD*%
G01*
G04 APERTURE LIST*
G04 Aperture macros list*
%AMFreePoly0*
4,1,6,0.600000,0.200000,0.000000,-0.400000,-0.600000,0.200000,-0.600000,0.400000,0.600000,0.400000,0.600000,0.200000,0.600000,0.200000,$1*%
%AMFreePoly1*
4,1,6,0.600000,-0.250000,-0.600000,-0.250000,-0.600000,1.000000,0.000000,0.400000,0.600000,1.000000,0.600000,-0.250000,0.600000,-0.250000,$1*%
G04 Aperture macros list end*
%ADD10C,0.150000*%
%ADD11C,0.120000*%
%ADD12C,0.127000*%
%ADD13C,0.200000*%
%ADD14C,0.254000*%
%ADD15C,0.250000*%
%ADD16C,0.100000*%
%ADD17C,2.000000*%
%ADD18R,3.200000X2.000000*%
%ADD19C,2.300000*%
%ADD20C,1.200000*%
%ADD21O,2.500000X1.700000*%
%ADD22C,3.000000*%
%ADD23R,1.700000X1.700000*%
%ADD24O,1.700000X1.700000*%
%ADD25C,0.800000*%
%ADD26C,1.400000*%
%ADD27C,1.600000*%
%ADD28R,1.600000X1.600000*%
%ADD29FreePoly0,270.000000*%
%ADD30FreePoly0,90.000000*%
%ADD31FreePoly1,90.000000*%
%ADD32FreePoly1,270.000000*%
%ADD33R,0.600000X1.550000*%
%ADD34R,1.200000X1.800000*%
%ADD35C,0.900000*%
%ADD36R,1.550000X1.000000*%
G04 APERTURE END LIST*
D10*
X35945332Y-27054676D02*
X35945332Y-27511819D01*
X35945332Y-27511819D02*
X35975809Y-27603247D01*
X35975809Y-27603247D02*
X36036761Y-27664200D01*
X36036761Y-27664200D02*
X36128190Y-27694676D01*
X36128190Y-27694676D02*
X36189142Y-27694676D01*
X35366285Y-27054676D02*
X35488190Y-27054676D01*
X35488190Y-27054676D02*
X35549142Y-27085152D01*
X35549142Y-27085152D02*
X35579618Y-27115628D01*
X35579618Y-27115628D02*
X35640571Y-27207057D01*
X35640571Y-27207057D02*
X35671047Y-27328961D01*
X35671047Y-27328961D02*
X35671047Y-27572771D01*
X35671047Y-27572771D02*
X35640571Y-27633723D01*
X35640571Y-27633723D02*
X35610094Y-27664200D01*
X35610094Y-27664200D02*
X35549142Y-27694676D01*
X35549142Y-27694676D02*
X35427237Y-27694676D01*
X35427237Y-27694676D02*
X35366285Y-27664200D01*
X35366285Y-27664200D02*
X35335809Y-27633723D01*
X35335809Y-27633723D02*
X35305332Y-27572771D01*
X35305332Y-27572771D02*
X35305332Y-27420390D01*
X35305332Y-27420390D02*
X35335809Y-27359438D01*
X35335809Y-27359438D02*
X35366285Y-27328961D01*
X35366285Y-27328961D02*
X35427237Y-27298485D01*
X35427237Y-27298485D02*
X35549142Y-27298485D01*
X35549142Y-27298485D02*
X35610094Y-27328961D01*
X35610094Y-27328961D02*
X35640571Y-27359438D01*
X35640571Y-27359438D02*
X35671047Y-27420390D01*
X55245332Y-27054676D02*
X55245332Y-27511819D01*
X55245332Y-27511819D02*
X55275809Y-27603247D01*
X55275809Y-27603247D02*
X55336761Y-27664200D01*
X55336761Y-27664200D02*
X55428190Y-27694676D01*
X55428190Y-27694676D02*
X55489142Y-27694676D01*
X54635809Y-27054676D02*
X54940571Y-27054676D01*
X54940571Y-27054676D02*
X54971047Y-27359438D01*
X54971047Y-27359438D02*
X54940571Y-27328961D01*
X54940571Y-27328961D02*
X54879618Y-27298485D01*
X54879618Y-27298485D02*
X54727237Y-27298485D01*
X54727237Y-27298485D02*
X54666285Y-27328961D01*
X54666285Y-27328961D02*
X54635809Y-27359438D01*
X54635809Y-27359438D02*
X54605332Y-27420390D01*
X54605332Y-27420390D02*
X54605332Y-27572771D01*
X54605332Y-27572771D02*
X54635809Y-27633723D01*
X54635809Y-27633723D02*
X54666285Y-27664200D01*
X54666285Y-27664200D02*
X54727237Y-27694676D01*
X54727237Y-27694676D02*
X54879618Y-27694676D01*
X54879618Y-27694676D02*
X54940571Y-27664200D01*
X54940571Y-27664200D02*
X54971047Y-27633723D01*
X154264200Y-20093673D02*
X154311819Y-20236530D01*
X154311819Y-20236530D02*
X154311819Y-20474625D01*
X154311819Y-20474625D02*
X154264200Y-20569863D01*
X154264200Y-20569863D02*
X154216580Y-20617482D01*
X154216580Y-20617482D02*
X154121342Y-20665101D01*
X154121342Y-20665101D02*
X154026104Y-20665101D01*
X154026104Y-20665101D02*
X153930866Y-20617482D01*
X153930866Y-20617482D02*
X153883247Y-20569863D01*
X153883247Y-20569863D02*
X153835628Y-20474625D01*
X153835628Y-20474625D02*
X153788009Y-20284149D01*
X153788009Y-20284149D02*
X153740390Y-20188911D01*
X153740390Y-20188911D02*
X153692771Y-20141292D01*
X153692771Y-20141292D02*
X153597533Y-20093673D01*
X153597533Y-20093673D02*
X153502295Y-20093673D01*
X153502295Y-20093673D02*
X153407057Y-20141292D01*
X153407057Y-20141292D02*
X153359438Y-20188911D01*
X153359438Y-20188911D02*
X153311819Y-20284149D01*
X153311819Y-20284149D02*
X153311819Y-20522244D01*
X153311819Y-20522244D02*
X153359438Y-20665101D01*
X153311819Y-20998435D02*
X154311819Y-21236530D01*
X154311819Y-21236530D02*
X153597533Y-21427006D01*
X153597533Y-21427006D02*
X154311819Y-21617482D01*
X154311819Y-21617482D02*
X153311819Y-21855578D01*
X153311819Y-22141292D02*
X153311819Y-22760339D01*
X153311819Y-22760339D02*
X153692771Y-22427006D01*
X153692771Y-22427006D02*
X153692771Y-22569863D01*
X153692771Y-22569863D02*
X153740390Y-22665101D01*
X153740390Y-22665101D02*
X153788009Y-22712720D01*
X153788009Y-22712720D02*
X153883247Y-22760339D01*
X153883247Y-22760339D02*
X154121342Y-22760339D01*
X154121342Y-22760339D02*
X154216580Y-22712720D01*
X154216580Y-22712720D02*
X154264200Y-22665101D01*
X154264200Y-22665101D02*
X154311819Y-22569863D01*
X154311819Y-22569863D02*
X154311819Y-22284149D01*
X154311819Y-22284149D02*
X154264200Y-22188911D01*
X154264200Y-22188911D02*
X154216580Y-22141292D01*
X132445332Y-27054676D02*
X132445332Y-27511819D01*
X132445332Y-27511819D02*
X132475809Y-27603247D01*
X132475809Y-27603247D02*
X132536761Y-27664200D01*
X132536761Y-27664200D02*
X132628190Y-27694676D01*
X132628190Y-27694676D02*
X132689142Y-27694676D01*
X131805332Y-27694676D02*
X132171047Y-27694676D01*
X131988190Y-27694676D02*
X131988190Y-27054676D01*
X131988190Y-27054676D02*
X132049142Y-27146104D01*
X132049142Y-27146104D02*
X132110094Y-27207057D01*
X132110094Y-27207057D02*
X132171047Y-27237533D01*
X93845332Y-27054676D02*
X93845332Y-27511819D01*
X93845332Y-27511819D02*
X93875809Y-27603247D01*
X93875809Y-27603247D02*
X93936761Y-27664200D01*
X93936761Y-27664200D02*
X94028190Y-27694676D01*
X94028190Y-27694676D02*
X94089142Y-27694676D01*
X93601523Y-27054676D02*
X93205332Y-27054676D01*
X93205332Y-27054676D02*
X93418666Y-27298485D01*
X93418666Y-27298485D02*
X93327237Y-27298485D01*
X93327237Y-27298485D02*
X93266285Y-27328961D01*
X93266285Y-27328961D02*
X93235809Y-27359438D01*
X93235809Y-27359438D02*
X93205332Y-27420390D01*
X93205332Y-27420390D02*
X93205332Y-27572771D01*
X93205332Y-27572771D02*
X93235809Y-27633723D01*
X93235809Y-27633723D02*
X93266285Y-27664200D01*
X93266285Y-27664200D02*
X93327237Y-27694676D01*
X93327237Y-27694676D02*
X93510094Y-27694676D01*
X93510094Y-27694676D02*
X93571047Y-27664200D01*
X93571047Y-27664200D02*
X93601523Y-27633723D01*
X74545332Y-27054676D02*
X74545332Y-27511819D01*
X74545332Y-27511819D02*
X74575809Y-27603247D01*
X74575809Y-27603247D02*
X74636761Y-27664200D01*
X74636761Y-27664200D02*
X74728190Y-27694676D01*
X74728190Y-27694676D02*
X74789142Y-27694676D01*
X73966285Y-27268009D02*
X73966285Y-27694676D01*
X74118666Y-27024200D02*
X74271047Y-27481342D01*
X74271047Y-27481342D02*
X73874856Y-27481342D01*
X113145332Y-27054676D02*
X113145332Y-27511819D01*
X113145332Y-27511819D02*
X113175809Y-27603247D01*
X113175809Y-27603247D02*
X113236761Y-27664200D01*
X113236761Y-27664200D02*
X113328190Y-27694676D01*
X113328190Y-27694676D02*
X113389142Y-27694676D01*
X112871047Y-27115628D02*
X112840571Y-27085152D01*
X112840571Y-27085152D02*
X112779618Y-27054676D01*
X112779618Y-27054676D02*
X112627237Y-27054676D01*
X112627237Y-27054676D02*
X112566285Y-27085152D01*
X112566285Y-27085152D02*
X112535809Y-27115628D01*
X112535809Y-27115628D02*
X112505332Y-27176580D01*
X112505332Y-27176580D02*
X112505332Y-27237533D01*
X112505332Y-27237533D02*
X112535809Y-27328961D01*
X112535809Y-27328961D02*
X112901523Y-27694676D01*
X112901523Y-27694676D02*
X112505332Y-27694676D01*
D11*
X171990000Y-86860000D02*
X171990000Y-75060000D01*
X167890000Y-86860000D02*
X171990000Y-86860000D01*
X167890000Y-75060000D02*
X171990000Y-75060000D01*
X166390000Y-80960000D02*
X165390000Y-80960000D01*
X165890000Y-81460000D02*
X165890000Y-80460000D01*
X163890000Y-86860000D02*
X159790000Y-86860000D01*
X159790000Y-86860000D02*
X159790000Y-84460000D01*
X159790000Y-82260000D02*
X159790000Y-79660000D01*
X159790000Y-77460000D02*
X159790000Y-75060000D01*
X159790000Y-75060000D02*
X163890000Y-75060000D01*
X168890000Y-80960000D02*
G75*
G03*
X168890000Y-80960000I-3000000J0D01*
G01*
D10*
X174526000Y-21016000D02*
X174526000Y-51496000D01*
X156746000Y-21016000D02*
X174526000Y-21016000D01*
X156746000Y-21016000D02*
X156746000Y-51496000D01*
X174526000Y-51496000D02*
X156746000Y-51496000D01*
D11*
X42243200Y-33249300D02*
G75*
G03*
X42243200Y-33249300I-381000J0D01*
G01*
X138743200Y-33249300D02*
G75*
G03*
X138743200Y-33249300I-381000J0D01*
G01*
D12*
X34000000Y-25050000D02*
X34000000Y-22720000D01*
X34880000Y-25050000D02*
X34000000Y-25050000D01*
X35110000Y-20800000D02*
X43890000Y-20800000D01*
X44120000Y-25050000D02*
X45000000Y-25050000D01*
X45000000Y-25050000D02*
X45000000Y-22720000D01*
D13*
X35600000Y-26700000D02*
G75*
G03*
X35600000Y-26700000I-100000J0D01*
G01*
D11*
X100143200Y-33249300D02*
G75*
G03*
X100143200Y-33249300I-381000J0D01*
G01*
X80843200Y-33249300D02*
G75*
G03*
X80843200Y-33249300I-381000J0D01*
G01*
D12*
X53300000Y-25050000D02*
X53300000Y-22720000D01*
X54180000Y-25050000D02*
X53300000Y-25050000D01*
X54410000Y-20800000D02*
X63190000Y-20800000D01*
X63420000Y-25050000D02*
X64300000Y-25050000D01*
X64300000Y-25050000D02*
X64300000Y-22720000D01*
D13*
X54900000Y-26700000D02*
G75*
G03*
X54900000Y-26700000I-100000J0D01*
G01*
D14*
X148300000Y-24799500D02*
X148300000Y-24630500D01*
X150111000Y-24799500D02*
X148364000Y-24799500D01*
X153000000Y-24799500D02*
X151189000Y-24799500D01*
X153000000Y-24630500D02*
X153000000Y-24799500D01*
X149634000Y-23811500D02*
X151666000Y-23811500D01*
X151666000Y-23811500D02*
X151666000Y-22541500D01*
X150015000Y-23430500D02*
X151285000Y-23430500D01*
X151285000Y-23430500D02*
X151285000Y-22541500D01*
X148300000Y-23168500D02*
X148300000Y-22930500D01*
X150269000Y-23049500D02*
X151031000Y-23049500D01*
X153000000Y-22930500D02*
X153000000Y-23168500D01*
X150269000Y-22668500D02*
X151031000Y-22668500D01*
X149634000Y-22541500D02*
X149634000Y-23811500D01*
X149634000Y-22541500D02*
X150015000Y-22541500D01*
X150015000Y-22541500D02*
X150015000Y-23430500D01*
X151285000Y-22541500D02*
X151666000Y-22541500D01*
X148300000Y-21468500D02*
X148300000Y-21299500D01*
X150111000Y-21299500D02*
X148300000Y-21299500D01*
X153000000Y-21299500D02*
X153000000Y-21468500D01*
X153000000Y-21299500D02*
X151189000Y-21299500D01*
X149350000Y-20763500D02*
X151950000Y-20763500D01*
X149559000Y-20763500D02*
X149559000Y-21299500D01*
X150221000Y-20763500D02*
X150221000Y-21299500D01*
X151076000Y-20763500D02*
X151076000Y-21299500D01*
X151644000Y-20763500D02*
X151644000Y-21299500D01*
X149350000Y-20299500D02*
X149350000Y-20763500D01*
X149350000Y-20299500D02*
X151950000Y-20299500D01*
X151950000Y-20299500D02*
X151950000Y-20763500D01*
D11*
X119443200Y-33249300D02*
G75*
G03*
X119443200Y-33249300I-381000J0D01*
G01*
D12*
X130500000Y-25050000D02*
X130500000Y-22720000D01*
X131380000Y-25050000D02*
X130500000Y-25050000D01*
X131610000Y-20800000D02*
X140390000Y-20800000D01*
X140620000Y-25050000D02*
X141500000Y-25050000D01*
X141500000Y-25050000D02*
X141500000Y-22720000D01*
D13*
X132100000Y-26700000D02*
G75*
G03*
X132100000Y-26700000I-100000J0D01*
G01*
D12*
X91900000Y-25050000D02*
X91900000Y-22720000D01*
X92780000Y-25050000D02*
X91900000Y-25050000D01*
X93010000Y-20800000D02*
X101790000Y-20800000D01*
X102020000Y-25050000D02*
X102900000Y-25050000D01*
X102900000Y-25050000D02*
X102900000Y-22720000D01*
D13*
X93500000Y-26700000D02*
G75*
G03*
X93500000Y-26700000I-100000J0D01*
G01*
D12*
X72600000Y-25050000D02*
X72600000Y-22720000D01*
X73480000Y-25050000D02*
X72600000Y-25050000D01*
X73710000Y-20800000D02*
X82490000Y-20800000D01*
X82720000Y-25050000D02*
X83600000Y-25050000D01*
X83600000Y-25050000D02*
X83600000Y-22720000D01*
D13*
X74200000Y-26700000D02*
G75*
G03*
X74200000Y-26700000I-100000J0D01*
G01*
D11*
X61543200Y-33249300D02*
G75*
G03*
X61543200Y-33249300I-381000J0D01*
G01*
D12*
X111200000Y-25050000D02*
X111200000Y-22720000D01*
X112080000Y-25050000D02*
X111200000Y-25050000D01*
X112310000Y-20800000D02*
X121090000Y-20800000D01*
X121320000Y-25050000D02*
X122200000Y-25050000D01*
X122200000Y-25050000D02*
X122200000Y-22720000D01*
D13*
X112800000Y-26700000D02*
G75*
G03*
X112800000Y-26700000I-100000J0D01*
G01*
%LPC*%
D15*
X166523000Y-22286000D02*
G75*
G03*
X166523000Y-22286000I-125000J0D01*
G01*
X164999000Y-22286000D02*
G75*
G03*
X164999000Y-22286000I-125000J0D01*
G01*
X166523000Y-24826000D02*
G75*
G03*
X166523000Y-24826000I-125000J0D01*
G01*
X164999000Y-24826000D02*
G75*
G03*
X164999000Y-24826000I-125000J0D01*
G01*
X166523000Y-27366000D02*
G75*
G03*
X166523000Y-27366000I-125000J0D01*
G01*
X164999000Y-27366000D02*
G75*
G03*
X164999000Y-27366000I-125000J0D01*
G01*
X166523000Y-29906000D02*
G75*
G03*
X166523000Y-29906000I-125000J0D01*
G01*
X164999000Y-29906000D02*
G75*
G03*
X164999000Y-29906000I-125000J0D01*
G01*
X166523000Y-32446000D02*
G75*
G03*
X166523000Y-32446000I-125000J0D01*
G01*
X164999000Y-32446000D02*
G75*
G03*
X164999000Y-32446000I-125000J0D01*
G01*
X166523000Y-34986000D02*
G75*
G03*
X166523000Y-34986000I-125000J0D01*
G01*
X164999000Y-34986000D02*
G75*
G03*
X164999000Y-34986000I-125000J0D01*
G01*
X166523000Y-37526000D02*
G75*
G03*
X166523000Y-37526000I-125000J0D01*
G01*
X164999000Y-37526000D02*
G75*
G03*
X164999000Y-37526000I-125000J0D01*
G01*
X166523000Y-40066000D02*
G75*
G03*
X166523000Y-40066000I-125000J0D01*
G01*
X164999000Y-40066000D02*
G75*
G03*
X164999000Y-40066000I-125000J0D01*
G01*
X166523000Y-42606000D02*
G75*
G03*
X166523000Y-42606000I-125000J0D01*
G01*
X164999000Y-42606000D02*
G75*
G03*
X164999000Y-42606000I-125000J0D01*
G01*
X166523000Y-45146000D02*
G75*
G03*
X166523000Y-45146000I-125000J0D01*
G01*
X164999000Y-45146000D02*
G75*
G03*
X164999000Y-45146000I-125000J0D01*
G01*
X166523000Y-47686000D02*
G75*
G03*
X166523000Y-47686000I-125000J0D01*
G01*
X164999000Y-47686000D02*
G75*
G03*
X164999000Y-47686000I-125000J0D01*
G01*
X166523000Y-50226000D02*
G75*
G03*
X166523000Y-50226000I-125000J0D01*
G01*
X164999000Y-50226000D02*
G75*
G03*
X164999000Y-50226000I-125000J0D01*
G01*
D16*
X160556000Y-22794000D02*
X159540000Y-22794000D01*
X159540000Y-21778000D01*
X160556000Y-21778000D01*
X160556000Y-22794000D01*
G36*
X160556000Y-22794000D02*
G01*
X159540000Y-22794000D01*
X159540000Y-21778000D01*
X160556000Y-21778000D01*
X160556000Y-22794000D01*
G37*
X171732000Y-22794000D02*
X170716000Y-22794000D01*
X170716000Y-21778000D01*
X171732000Y-21778000D01*
X171732000Y-22794000D01*
G36*
X171732000Y-22794000D02*
G01*
X170716000Y-22794000D01*
X170716000Y-21778000D01*
X171732000Y-21778000D01*
X171732000Y-22794000D01*
G37*
X160556000Y-25334000D02*
X159540000Y-25334000D01*
X159540000Y-24318000D01*
X160556000Y-24318000D01*
X160556000Y-25334000D01*
G36*
X160556000Y-25334000D02*
G01*
X159540000Y-25334000D01*
X159540000Y-24318000D01*
X160556000Y-24318000D01*
X160556000Y-25334000D01*
G37*
X171732000Y-25334000D02*
X170716000Y-25334000D01*
X170716000Y-24318000D01*
X171732000Y-24318000D01*
X171732000Y-25334000D01*
G36*
X171732000Y-25334000D02*
G01*
X170716000Y-25334000D01*
X170716000Y-24318000D01*
X171732000Y-24318000D01*
X171732000Y-25334000D01*
G37*
X160556000Y-27874000D02*
X159540000Y-27874000D01*
X159540000Y-26858000D01*
X160556000Y-26858000D01*
X160556000Y-27874000D01*
G36*
X160556000Y-27874000D02*
G01*
X159540000Y-27874000D01*
X159540000Y-26858000D01*
X160556000Y-26858000D01*
X160556000Y-27874000D01*
G37*
X171732000Y-27874000D02*
X170716000Y-27874000D01*
X170716000Y-26858000D01*
X171732000Y-26858000D01*
X171732000Y-27874000D01*
G36*
X171732000Y-27874000D02*
G01*
X170716000Y-27874000D01*
X170716000Y-26858000D01*
X171732000Y-26858000D01*
X171732000Y-27874000D01*
G37*
X160556000Y-30414000D02*
X159540000Y-30414000D01*
X159540000Y-29398000D01*
X160556000Y-29398000D01*
X160556000Y-30414000D01*
G36*
X160556000Y-30414000D02*
G01*
X159540000Y-30414000D01*
X159540000Y-29398000D01*
X160556000Y-29398000D01*
X160556000Y-30414000D01*
G37*
X171732000Y-30414000D02*
X170716000Y-30414000D01*
X170716000Y-29398000D01*
X171732000Y-29398000D01*
X171732000Y-30414000D01*
G36*
X171732000Y-30414000D02*
G01*
X170716000Y-30414000D01*
X170716000Y-29398000D01*
X171732000Y-29398000D01*
X171732000Y-30414000D01*
G37*
X160556000Y-32954000D02*
X159540000Y-32954000D01*
X159540000Y-31938000D01*
X160556000Y-31938000D01*
X160556000Y-32954000D01*
G36*
X160556000Y-32954000D02*
G01*
X159540000Y-32954000D01*
X159540000Y-31938000D01*
X160556000Y-31938000D01*
X160556000Y-32954000D01*
G37*
X171732000Y-32954000D02*
X170716000Y-32954000D01*
X170716000Y-31938000D01*
X171732000Y-31938000D01*
X171732000Y-32954000D01*
G36*
X171732000Y-32954000D02*
G01*
X170716000Y-32954000D01*
X170716000Y-31938000D01*
X171732000Y-31938000D01*
X171732000Y-32954000D01*
G37*
X160556000Y-35494000D02*
X159540000Y-35494000D01*
X159540000Y-34478000D01*
X160556000Y-34478000D01*
X160556000Y-35494000D01*
G36*
X160556000Y-35494000D02*
G01*
X159540000Y-35494000D01*
X159540000Y-34478000D01*
X160556000Y-34478000D01*
X160556000Y-35494000D01*
G37*
X171732000Y-35494000D02*
X170716000Y-35494000D01*
X170716000Y-34478000D01*
X171732000Y-34478000D01*
X171732000Y-35494000D01*
G36*
X171732000Y-35494000D02*
G01*
X170716000Y-35494000D01*
X170716000Y-34478000D01*
X171732000Y-34478000D01*
X171732000Y-35494000D01*
G37*
X160556000Y-38034000D02*
X159540000Y-38034000D01*
X159540000Y-37018000D01*
X160556000Y-37018000D01*
X160556000Y-38034000D01*
G36*
X160556000Y-38034000D02*
G01*
X159540000Y-38034000D01*
X159540000Y-37018000D01*
X160556000Y-37018000D01*
X160556000Y-38034000D01*
G37*
X171732000Y-38034000D02*
X170716000Y-38034000D01*
X170716000Y-37018000D01*
X171732000Y-37018000D01*
X171732000Y-38034000D01*
G36*
X171732000Y-38034000D02*
G01*
X170716000Y-38034000D01*
X170716000Y-37018000D01*
X171732000Y-37018000D01*
X171732000Y-38034000D01*
G37*
X160556000Y-40574000D02*
X159540000Y-40574000D01*
X159540000Y-39558000D01*
X160556000Y-39558000D01*
X160556000Y-40574000D01*
G36*
X160556000Y-40574000D02*
G01*
X159540000Y-40574000D01*
X159540000Y-39558000D01*
X160556000Y-39558000D01*
X160556000Y-40574000D01*
G37*
X171732000Y-40574000D02*
X170716000Y-40574000D01*
X170716000Y-39558000D01*
X171732000Y-39558000D01*
X171732000Y-40574000D01*
G36*
X171732000Y-40574000D02*
G01*
X170716000Y-40574000D01*
X170716000Y-39558000D01*
X171732000Y-39558000D01*
X171732000Y-40574000D01*
G37*
X160556000Y-43114000D02*
X159540000Y-43114000D01*
X159540000Y-42098000D01*
X160556000Y-42098000D01*
X160556000Y-43114000D01*
G36*
X160556000Y-43114000D02*
G01*
X159540000Y-43114000D01*
X159540000Y-42098000D01*
X160556000Y-42098000D01*
X160556000Y-43114000D01*
G37*
X171732000Y-43114000D02*
X170716000Y-43114000D01*
X170716000Y-42098000D01*
X171732000Y-42098000D01*
X171732000Y-43114000D01*
G36*
X171732000Y-43114000D02*
G01*
X170716000Y-43114000D01*
X170716000Y-42098000D01*
X171732000Y-42098000D01*
X171732000Y-43114000D01*
G37*
X160556000Y-45654000D02*
X159540000Y-45654000D01*
X159540000Y-44638000D01*
X160556000Y-44638000D01*
X160556000Y-45654000D01*
G36*
X160556000Y-45654000D02*
G01*
X159540000Y-45654000D01*
X159540000Y-44638000D01*
X160556000Y-44638000D01*
X160556000Y-45654000D01*
G37*
X171732000Y-45654000D02*
X170716000Y-45654000D01*
X170716000Y-44638000D01*
X171732000Y-44638000D01*
X171732000Y-45654000D01*
G36*
X171732000Y-45654000D02*
G01*
X170716000Y-45654000D01*
X170716000Y-44638000D01*
X171732000Y-44638000D01*
X171732000Y-45654000D01*
G37*
X160556000Y-48194000D02*
X159540000Y-48194000D01*
X159540000Y-47178000D01*
X160556000Y-47178000D01*
X160556000Y-48194000D01*
G36*
X160556000Y-48194000D02*
G01*
X159540000Y-48194000D01*
X159540000Y-47178000D01*
X160556000Y-47178000D01*
X160556000Y-48194000D01*
G37*
X171732000Y-48194000D02*
X170716000Y-48194000D01*
X170716000Y-47178000D01*
X171732000Y-47178000D01*
X171732000Y-48194000D01*
G36*
X171732000Y-48194000D02*
G01*
X170716000Y-48194000D01*
X170716000Y-47178000D01*
X171732000Y-47178000D01*
X171732000Y-48194000D01*
G37*
X160556000Y-50734000D02*
X159540000Y-50734000D01*
X159540000Y-49718000D01*
X160556000Y-49718000D01*
X160556000Y-50734000D01*
G36*
X160556000Y-50734000D02*
G01*
X159540000Y-50734000D01*
X159540000Y-49718000D01*
X160556000Y-49718000D01*
X160556000Y-50734000D01*
G37*
X171732000Y-50734000D02*
X170716000Y-50734000D01*
X170716000Y-49718000D01*
X171732000Y-49718000D01*
X171732000Y-50734000D01*
G36*
X171732000Y-50734000D02*
G01*
X170716000Y-50734000D01*
X170716000Y-49718000D01*
X171732000Y-49718000D01*
X171732000Y-50734000D01*
G37*
D17*
X173390000Y-83460000D03*
X173390000Y-78460000D03*
X173390000Y-80960000D03*
D18*
X165890000Y-86560000D03*
X165890000Y-75360000D03*
D17*
X158890000Y-78460000D03*
X158890000Y-83460000D03*
D19*
X152800000Y-53600000D03*
D20*
X173330000Y-68147000D03*
X166330000Y-68147000D03*
X173330000Y-69897000D03*
X166330000Y-69897000D03*
D21*
X164530000Y-71997000D03*
X168530000Y-71997000D03*
X171530000Y-71997000D03*
X163530000Y-67797000D03*
D22*
X146800000Y-35400000D03*
X87600000Y-25000000D03*
D23*
X160556000Y-53766000D03*
D24*
X163096000Y-53766000D03*
X165636000Y-53766000D03*
X168176000Y-53766000D03*
X170716000Y-53766000D03*
D25*
X174800000Y-61632000D03*
X174800000Y-58632000D03*
D22*
X49000000Y-25000000D03*
D26*
X168050500Y-58632000D03*
X168050500Y-60632000D03*
D22*
X126200000Y-25000000D03*
D19*
X157200000Y-63600000D03*
D27*
X173256000Y-22286000D03*
D28*
X173256000Y-22286000D03*
D29*
X171478000Y-22286000D03*
D30*
X159794000Y-22286000D03*
D27*
X158016000Y-22286000D03*
X173256000Y-24826000D03*
D29*
X171478000Y-24826000D03*
D30*
X159794000Y-24826000D03*
D27*
X158016000Y-24826000D03*
X173256000Y-27366000D03*
D29*
X171478000Y-27366000D03*
D30*
X159794000Y-27366000D03*
D27*
X158016000Y-27366000D03*
X173256000Y-29906000D03*
D29*
X171478000Y-29906000D03*
D30*
X159794000Y-29906000D03*
D27*
X158016000Y-29906000D03*
X173256000Y-32446000D03*
D29*
X171478000Y-32446000D03*
D30*
X159794000Y-32446000D03*
D27*
X158016000Y-32446000D03*
X173256000Y-34986000D03*
D29*
X171478000Y-34986000D03*
D30*
X159794000Y-34986000D03*
D27*
X158016000Y-34986000D03*
X173256000Y-37526000D03*
D29*
X171478000Y-37526000D03*
D30*
X159794000Y-37526000D03*
D27*
X158016000Y-37526000D03*
X173256000Y-40066000D03*
D29*
X171478000Y-40066000D03*
D30*
X159794000Y-40066000D03*
D27*
X158016000Y-40066000D03*
X173256000Y-42606000D03*
D29*
X171478000Y-42606000D03*
D30*
X159794000Y-42606000D03*
D27*
X158016000Y-42606000D03*
X173256000Y-45146000D03*
D29*
X171478000Y-45146000D03*
D30*
X159794000Y-45146000D03*
D27*
X158016000Y-45146000D03*
X173256000Y-47686000D03*
D29*
X171478000Y-47686000D03*
D30*
X159794000Y-47686000D03*
D27*
X158016000Y-47686000D03*
X173256000Y-50226000D03*
D29*
X171478000Y-50226000D03*
D30*
X159794000Y-50226000D03*
D27*
X158016000Y-50226000D03*
D31*
X160810000Y-22286000D03*
X160810000Y-24826000D03*
X160810000Y-27366000D03*
X160810000Y-29906000D03*
X160810000Y-32446000D03*
X160810000Y-34986000D03*
X160810000Y-37526000D03*
X160810000Y-40066000D03*
X160810000Y-42606000D03*
X160810000Y-45146000D03*
X160810000Y-47686000D03*
X160810000Y-50226000D03*
D32*
X170462000Y-50226000D03*
X170462000Y-47686000D03*
X170462000Y-45146000D03*
X170462000Y-42606000D03*
X170462000Y-40066000D03*
X170462000Y-37526000D03*
X170462000Y-34986000D03*
X170462000Y-32446000D03*
X170462000Y-29906000D03*
X170462000Y-27366000D03*
X170462000Y-24826000D03*
X170462000Y-22286000D03*
D22*
X153600000Y-87800000D03*
D33*
X35500000Y-25375000D03*
X36500000Y-25375000D03*
X37500000Y-25375000D03*
X38500000Y-25375000D03*
X39500000Y-25375000D03*
X40500000Y-25375000D03*
X41500000Y-25375000D03*
X42500000Y-25375000D03*
X43500000Y-25375000D03*
D34*
X34200000Y-21500000D03*
X44800000Y-21500000D03*
D33*
X54800000Y-25375000D03*
X55800000Y-25375000D03*
X56800000Y-25375000D03*
X57800000Y-25375000D03*
X58800000Y-25375000D03*
X59800000Y-25375000D03*
X60800000Y-25375000D03*
X61800000Y-25375000D03*
X62800000Y-25375000D03*
D34*
X53500000Y-21500000D03*
X64100000Y-21500000D03*
D35*
X150650000Y-24449500D03*
X150650000Y-21649500D03*
D36*
X153250000Y-23899500D03*
X153250000Y-22199500D03*
X148050000Y-23899500D03*
X148050000Y-22199500D03*
D33*
X132000000Y-25375000D03*
X133000000Y-25375000D03*
X134000000Y-25375000D03*
X135000000Y-25375000D03*
X136000000Y-25375000D03*
X137000000Y-25375000D03*
X138000000Y-25375000D03*
X139000000Y-25375000D03*
X140000000Y-25375000D03*
D34*
X130700000Y-21500000D03*
X141300000Y-21500000D03*
D33*
X93400000Y-25375000D03*
X94400000Y-25375000D03*
X95400000Y-25375000D03*
X96400000Y-25375000D03*
X97400000Y-25375000D03*
X98400000Y-25375000D03*
X99400000Y-25375000D03*
X100400000Y-25375000D03*
X101400000Y-25375000D03*
D34*
X92100000Y-21500000D03*
X102700000Y-21500000D03*
D33*
X74100000Y-25375000D03*
X75100000Y-25375000D03*
X76100000Y-25375000D03*
X77100000Y-25375000D03*
X78100000Y-25375000D03*
X79100000Y-25375000D03*
X80100000Y-25375000D03*
X81100000Y-25375000D03*
X82100000Y-25375000D03*
D34*
X72800000Y-21500000D03*
X83400000Y-21500000D03*
D33*
X112700000Y-25375000D03*
X113700000Y-25375000D03*
X114700000Y-25375000D03*
X115700000Y-25375000D03*
X116700000Y-25375000D03*
X117700000Y-25375000D03*
X118700000Y-25375000D03*
X119700000Y-25375000D03*
X120700000Y-25375000D03*
D34*
X111400000Y-21500000D03*
X122000000Y-21500000D03*
%LPD*%
M02*
