M48
; DRILL file {KiCad 7.0.8} date Tue 17 Oct 2023 05:27:18 PM PDT
; FORMAT={-:-/ absolute / metric / decimal}
; #@! TF.CreationDate,2023-10-17T17:27:18-07:00
; #@! TF.GenerationSoftware,Kicad,Pcbnew,7.0.8
; #@! TF.FileFunction,Plated,1,2,PTH
FMAT,2
METRIC
; #@! TA.AperFunction,Plated,PTH,ViaDrill
T1C0.300
; #@! TA.AperFunction,Plated,PTH,ViaDrill
T2C0.400
; #@! TA.AperFunction,Plated,PTH,ComponentDrill
T3C0.400
; #@! TA.AperFunction,Plated,PTH,ComponentDrill
T4C0.900
; #@! TA.AperFunction,Plated,PTH,ComponentDrill
T5C1.000
; #@! TA.AperFunction,Plated,PTH,ComponentDrill
T6C1.100
; #@! TA.AperFunction,Plated,PTH,ComponentDrill
T7C1.500
%
G90
G05
T1
X44.998Y-92.748
X45.6Y-93.1
X46.21Y-93.45
X46.6Y-89.6
X47.2Y-89.6
X47.8Y-89.6
X53.4Y-31.873
X53.926Y-32.4
X53.926Y-33.664
X61.601Y-30.442
X62.201Y-30.442
X62.8Y-30.442
X63.4Y-30.442
X63.95Y-27.302
X64.26Y-27.829
X64.619Y-28.355
X64.967Y-28.882
X65.288Y-29.388
X65.665Y-29.854
X68.0Y-22.55
X69.0Y-23.1
X70.0Y-23.627
X71.0Y-24.153
X73.0Y-26.75
X87.3Y-21.4
X88.3Y-21.95
X89.3Y-22.5
X90.3Y-23.05
X92.3Y-26.75
X106.6Y-21.4
X107.6Y-21.95
X108.6Y-22.5
X109.6Y-23.05
X111.6Y-26.75
X125.9Y-21.4
X126.9Y-21.95
X127.9Y-22.5
X128.9Y-23.05
X130.9Y-26.75
X145.2Y-21.4
X146.2Y-21.95
X147.2Y-22.5
X148.2Y-23.05
X150.2Y-26.75
X164.5Y-21.4
X165.5Y-21.95
X166.5Y-22.5
X167.5Y-23.05
X169.5Y-26.75
T2
X34.4Y-59.4
X42.8Y-94.21
X45.279Y-55.921
X46.005Y-55.195
X50.927Y-48.926
X55.7Y-29.975
X62.05Y-23.45
X65.6Y-23.4
X67.0Y-21.59
X68.5Y-35.299
X72.1Y-21.7
X76.248Y-33.251
X77.6Y-30.6
X85.005Y-31.75
X87.8Y-35.299
X89.3Y-30.25
X95.548Y-33.251
X104.305Y-31.75
X107.1Y-35.299
X108.6Y-30.25
X114.848Y-33.251
X123.605Y-31.75
X126.4Y-35.299
X127.9Y-30.25
X134.148Y-33.251
X142.905Y-31.75
X145.7Y-35.299
X147.2Y-30.25
X153.448Y-33.251
X162.205Y-31.75
X165.0Y-35.299
X166.5Y-30.25
X172.748Y-33.251
T3
X40.588Y-22.286
X40.588Y-24.826
X40.588Y-27.366
X40.588Y-29.906
X40.588Y-32.446
X40.588Y-34.986
X40.588Y-37.526
X40.588Y-40.066
X40.588Y-42.606
X40.588Y-45.146
X40.588Y-47.686
X40.588Y-50.226
X42.112Y-22.286
X42.112Y-24.826
X42.112Y-27.366
X42.112Y-29.906
X42.112Y-32.446
X42.112Y-34.986
X42.112Y-37.526
X42.112Y-40.066
X42.112Y-42.606
X42.112Y-45.146
X42.112Y-47.686
X42.112Y-50.226
T4
X38.95Y-58.632
X38.95Y-60.632
T5
X33.61Y-78.46
X33.61Y-80.96
X33.61Y-83.46
X36.284Y-53.766
X38.824Y-53.766
X41.364Y-53.766
X43.904Y-53.766
X46.444Y-53.766
X48.11Y-78.46
X48.11Y-83.46
T6
X33.73Y-22.286
X33.73Y-22.286
X33.73Y-24.826
X33.73Y-27.366
X33.73Y-29.906
X33.73Y-32.446
X33.73Y-34.986
X33.73Y-37.526
X33.73Y-40.066
X33.73Y-42.606
X33.73Y-45.146
X33.73Y-47.686
X33.73Y-50.226
X48.97Y-22.286
X48.97Y-22.286
X48.97Y-24.826
X48.97Y-27.366
X48.97Y-29.906
X48.97Y-32.446
X48.97Y-34.986
X48.97Y-37.526
X48.97Y-40.066
X48.97Y-42.606
X48.97Y-45.146
X48.97Y-47.686
X48.97Y-50.226
T5
X35.22Y-66.925G85X35.72Y-66.925
G05
X38.22Y-66.925G85X38.72Y-66.925
G05
X42.22Y-66.925G85X42.72Y-66.925
G05
X43.22Y-71.125G85X43.72Y-71.125
G05
T7
X40.46Y-75.36G85X41.76Y-75.36
G05
X40.46Y-86.56G85X41.76Y-86.56
G05
T0
M30
