M48
; DRILL file {KiCad 7.0.8} date Tue 05 Dec 2023 05:13:54 AM PST
; FORMAT={-:-/ absolute / metric / decimal}
; #@! TF.CreationDate,2023-12-05T05:13:54-08:00
; #@! TF.GenerationSoftware,Kicad,Pcbnew,7.0.8
; #@! TF.FileFunction,Plated,1,2,PTH
FMAT,2
METRIC
; #@! TA.AperFunction,Plated,PTH,ViaDrill
T1C0.300
; #@! TA.AperFunction,Plated,PTH,ViaDrill
T2C0.400
%
G90
G05
T1
X39.5Y-109.1
X40.2Y-71.3
X40.5Y-90.1
X44.38Y-53.0
X46.5Y-32.7
X50.8Y-38.8
T2
X41.6Y-88.4
X41.6Y-107.4
X45.75Y-26.81
X48.5Y-34.0
X50.1Y-40.1
X50.1Y-59.1
X50.1Y-78.1
X50.1Y-97.1
X50.5Y-32.4
X52.0Y-35.6
X52.0Y-54.6
X52.0Y-73.6
X52.0Y-92.6
X52.0Y-111.6
X52.7Y-50.2
X52.7Y-69.2
X52.7Y-88.2
X52.7Y-107.2
X53.161Y-114.55
T0
M30
