G04 #@! TF.GenerationSoftware,KiCad,Pcbnew,7.0.8*
G04 #@! TF.CreationDate,2023-12-05T05:13:52-08:00*
G04 #@! TF.ProjectId,Seismos_5-Key,53656973-6d6f-4735-9f35-2d4b65792e6b,rev?*
G04 #@! TF.SameCoordinates,Original*
G04 #@! TF.FileFunction,Copper,L2,Bot*
G04 #@! TF.FilePolarity,Positive*
%FSLAX46Y46*%
G04 Gerber Fmt 4.6, Leading zero omitted, Abs format (unit mm)*
G04 Created by KiCad (PCBNEW 7.0.8) date 2023-12-05 05:13:52*
%MOMM*%
%LPD*%
G01*
G04 APERTURE LIST*
G04 Aperture macros list*
%AMRoundRect*
0 Rectangle with rounded corners*
0 $1 Rounding radius*
0 $2 $3 $4 $5 $6 $7 $8 $9 X,Y pos of 4 corners*
0 Add a 4 corners polygon primitive as box body*
4,1,4,$2,$3,$4,$5,$6,$7,$8,$9,$2,$3,0*
0 Add four circle primitives for the rounded corners*
1,1,$1+$1,$2,$3*
1,1,$1+$1,$4,$5*
1,1,$1+$1,$6,$7*
1,1,$1+$1,$8,$9*
0 Add four rect primitives between the rounded corners*
20,1,$1+$1,$2,$3,$4,$5,0*
20,1,$1+$1,$4,$5,$6,$7,0*
20,1,$1+$1,$6,$7,$8,$9,0*
20,1,$1+$1,$8,$9,$2,$3,0*%
G04 Aperture macros list end*
G04 #@! TA.AperFunction,SMDPad,CuDef*
%ADD10RoundRect,0.225000X-0.375000X0.225000X-0.375000X-0.225000X0.375000X-0.225000X0.375000X0.225000X0*%
G04 #@! TD*
G04 #@! TA.AperFunction,SMDPad,CuDef*
%ADD11R,1.750000X0.812800*%
G04 #@! TD*
G04 #@! TA.AperFunction,SMDPad,CuDef*
%ADD12R,2.300000X2.600000*%
G04 #@! TD*
G04 #@! TA.AperFunction,SMDPad,CuDef*
%ADD13R,3.500000X3.500000*%
G04 #@! TD*
G04 #@! TA.AperFunction,SMDPad,CuDef*
%ADD14R,2.400000X2.600000*%
G04 #@! TD*
G04 #@! TA.AperFunction,ViaPad*
%ADD15C,0.800000*%
G04 #@! TD*
G04 #@! TA.AperFunction,ViaPad*
%ADD16C,0.400000*%
G04 #@! TD*
G04 #@! TA.AperFunction,Conductor*
%ADD17C,0.254000*%
G04 #@! TD*
G04 #@! TA.AperFunction,Conductor*
%ADD18C,0.381000*%
G04 #@! TD*
G04 APERTURE END LIST*
D10*
X39500000Y-54350000D03*
X39500000Y-57650000D03*
X39500000Y-92350000D03*
X39500000Y-95650000D03*
D11*
X44348100Y-54754900D03*
D12*
X38660000Y-63800000D03*
X50560000Y-65900000D03*
D11*
X49378000Y-54754900D03*
X44348100Y-56253500D03*
X49378000Y-56253500D03*
D13*
X40910000Y-65515000D03*
D14*
X53860000Y-62540000D03*
D11*
X44348100Y-35754900D03*
D12*
X38660000Y-44800000D03*
X50560000Y-46900000D03*
D11*
X49378000Y-35754900D03*
X44348100Y-37253500D03*
X49378000Y-37253500D03*
D13*
X40910000Y-46515000D03*
D14*
X53860000Y-43540000D03*
D11*
X44348100Y-73754900D03*
D12*
X38660000Y-82800000D03*
X50560000Y-84900000D03*
D11*
X49378000Y-73754900D03*
X44348100Y-75253500D03*
X49378000Y-75253500D03*
D13*
X40910000Y-84515000D03*
D14*
X53860000Y-81540000D03*
D10*
X39500000Y-35350000D03*
X39500000Y-38650000D03*
D11*
X44348100Y-92754900D03*
D12*
X38660000Y-101800000D03*
X50560000Y-103900000D03*
D11*
X49378000Y-92754900D03*
X44348100Y-94253500D03*
X49378000Y-94253500D03*
D13*
X40910000Y-103515000D03*
D14*
X53860000Y-100540000D03*
D10*
X39500000Y-111350000D03*
X39500000Y-114650000D03*
X39500000Y-73350000D03*
X39500000Y-76650000D03*
D11*
X44348100Y-111754900D03*
D12*
X38660000Y-120800000D03*
X50560000Y-122900000D03*
D11*
X49378000Y-111754900D03*
X44348100Y-113253500D03*
X49378000Y-113253500D03*
D13*
X40910000Y-122515000D03*
D14*
X53860000Y-119540000D03*
D15*
X50100000Y-40100000D03*
X52700000Y-50200000D03*
X41600000Y-107400000D03*
X41600000Y-88400000D03*
X52000000Y-54600000D03*
X45750000Y-26810000D03*
X52000000Y-111600000D03*
X52000000Y-35600000D03*
X52000000Y-73600000D03*
X52000000Y-92600000D03*
X52700000Y-69200000D03*
X50100000Y-59100000D03*
X52700000Y-88200000D03*
X50100000Y-78100000D03*
D16*
X46500000Y-32700000D03*
X44380500Y-53000000D03*
X40200000Y-71300000D03*
X40500000Y-90100000D03*
D15*
X48500000Y-34000000D03*
D16*
X50800000Y-38800000D03*
D15*
X50500000Y-32400000D03*
X53161000Y-114550000D03*
D16*
X39500000Y-109100000D03*
D15*
X50100000Y-97100000D03*
X52700000Y-107200000D03*
D17*
X38600000Y-39550000D02*
X38600000Y-44205000D01*
X39500000Y-38650000D02*
X38600000Y-39550000D01*
X38600000Y-44205000D02*
X40910000Y-46515000D01*
X38600000Y-58550000D02*
X38600000Y-63205000D01*
X38600000Y-63205000D02*
X40910000Y-65515000D01*
X39500000Y-57650000D02*
X38600000Y-58550000D01*
X39500000Y-76650000D02*
X38600000Y-77550000D01*
X38600000Y-77550000D02*
X38600000Y-82205000D01*
X38600000Y-82205000D02*
X40910000Y-84515000D01*
X38600000Y-101205000D02*
X40910000Y-103515000D01*
X38600000Y-96550000D02*
X38600000Y-101205000D01*
X39500000Y-95650000D02*
X38600000Y-96550000D01*
X48400000Y-38400000D02*
X45100000Y-38400000D01*
X44348100Y-37648100D02*
X44348100Y-37253500D01*
X49378000Y-54754900D02*
X49378000Y-53522000D01*
X49400000Y-53500000D02*
X52700000Y-50200000D01*
X50100000Y-40100000D02*
X48400000Y-38400000D01*
X45100000Y-38400000D02*
X44348100Y-37648100D01*
X49378000Y-53522000D02*
X49400000Y-53500000D01*
X49400000Y-72500000D02*
X52700000Y-69200000D01*
X49378000Y-73754900D02*
X49378000Y-72522000D01*
X44348100Y-56648100D02*
X44348100Y-56253500D01*
X48400000Y-57400000D02*
X45100000Y-57400000D01*
X50100000Y-59100000D02*
X48400000Y-57400000D01*
X45100000Y-57400000D02*
X44348100Y-56648100D01*
X49378000Y-72522000D02*
X49400000Y-72500000D01*
X50100000Y-78100000D02*
X48400000Y-76400000D01*
X49378000Y-91522000D02*
X49400000Y-91500000D01*
X49378000Y-92754900D02*
X49378000Y-91522000D01*
X49400000Y-91500000D02*
X52700000Y-88200000D01*
X45100000Y-76400000D02*
X44348100Y-75648100D01*
X48400000Y-76400000D02*
X45100000Y-76400000D01*
X44348100Y-75648100D02*
X44348100Y-75253500D01*
X42150000Y-32700000D02*
X39500000Y-35350000D01*
X46500000Y-32700000D02*
X42150000Y-32700000D01*
X44380500Y-53000000D02*
X40850000Y-53000000D01*
X40850000Y-53000000D02*
X39500000Y-54350000D01*
X39500000Y-72000000D02*
X40200000Y-71300000D01*
X39500000Y-73350000D02*
X39500000Y-72000000D01*
X40500000Y-90750000D02*
X39500000Y-91750000D01*
X39500000Y-91750000D02*
X39500000Y-92350000D01*
X40500000Y-90100000D02*
X40500000Y-90750000D01*
D18*
X49378000Y-34878000D02*
X48500000Y-34000000D01*
X49378000Y-35754900D02*
X49378000Y-34878000D01*
D17*
X50560000Y-122840000D02*
X50560000Y-122900000D01*
X53860000Y-62540000D02*
X53860000Y-81540000D01*
X53860000Y-100600000D02*
X50560000Y-103900000D01*
X53860000Y-43540000D02*
X53860000Y-62540000D01*
X53860000Y-62600000D02*
X50560000Y-65900000D01*
X53860000Y-81600000D02*
X50560000Y-84900000D01*
X50800000Y-38800000D02*
X53000000Y-38800000D01*
X53860000Y-39660000D02*
X53860000Y-43540000D01*
X53860000Y-43600000D02*
X50560000Y-46900000D01*
X53000000Y-38800000D02*
X53860000Y-39660000D01*
X53887500Y-100567500D02*
X53887500Y-119512500D01*
X53887500Y-119512500D02*
X53860000Y-119540000D01*
X53860000Y-100540000D02*
X53860000Y-81540000D01*
X53860000Y-100540000D02*
X53860000Y-100600000D01*
X53860000Y-100540000D02*
X53887500Y-100567500D01*
X53860000Y-81540000D02*
X53860000Y-81600000D01*
X53860000Y-119540000D02*
X50560000Y-122840000D01*
D18*
X49000000Y-106400000D02*
X47600000Y-107800000D01*
X43800000Y-41800000D02*
X45800000Y-43800000D01*
X46000000Y-107800000D02*
X44348100Y-109451900D01*
X47500000Y-43800000D02*
X49000000Y-45300000D01*
X45800000Y-43800000D02*
X47500000Y-43800000D01*
X43800000Y-57539050D02*
X43800000Y-60800000D01*
X44348100Y-90451900D02*
X44348100Y-92754900D01*
X44348100Y-54051900D02*
X44348100Y-54754900D01*
X43800000Y-38539050D02*
X43800000Y-41800000D01*
X46000000Y-88800000D02*
X44348100Y-90451900D01*
X43000000Y-93500000D02*
X43000000Y-94739050D01*
X49000000Y-68400000D02*
X47600000Y-69800000D01*
X45800000Y-100800000D02*
X47500000Y-100800000D01*
X49000000Y-45300000D02*
X49000000Y-49400000D01*
X45400000Y-34000000D02*
X44348100Y-35051900D01*
X43745100Y-54754900D02*
X43000000Y-55500000D01*
X47600000Y-107800000D02*
X46000000Y-107800000D01*
X43000000Y-94739050D02*
X43800000Y-95539050D01*
X49000000Y-83300000D02*
X49000000Y-87400000D01*
X44348100Y-109451900D02*
X44348100Y-111754900D01*
X43745100Y-73754900D02*
X43000000Y-74500000D01*
X45800000Y-81800000D02*
X47500000Y-81800000D01*
X49000000Y-87400000D02*
X47600000Y-88800000D01*
X50500000Y-32400000D02*
X48400000Y-32400000D01*
X47500000Y-81800000D02*
X49000000Y-83300000D01*
X47500000Y-100800000D02*
X49000000Y-102300000D01*
X44348100Y-54754900D02*
X43745100Y-54754900D01*
X49000000Y-102300000D02*
X49000000Y-106400000D01*
X43000000Y-74500000D02*
X43000000Y-75739050D01*
X43800000Y-60800000D02*
X45800000Y-62800000D01*
X43000000Y-55500000D02*
X43000000Y-56739050D01*
X43800000Y-79800000D02*
X45800000Y-81800000D01*
X47500000Y-62800000D02*
X49000000Y-64300000D01*
X44348100Y-35051900D02*
X44348100Y-35754900D01*
X46800000Y-34000000D02*
X45400000Y-34000000D01*
X43000000Y-56739050D02*
X43800000Y-57539050D01*
X43745100Y-92754900D02*
X43000000Y-93500000D01*
X47600000Y-69800000D02*
X46000000Y-69800000D01*
X43000000Y-37739050D02*
X43800000Y-38539050D01*
X43800000Y-76539050D02*
X43800000Y-79800000D01*
X43800000Y-95539050D02*
X43800000Y-98800000D01*
X48400000Y-32400000D02*
X46800000Y-34000000D01*
X49000000Y-49400000D02*
X44348100Y-54051900D01*
X43000000Y-75739050D02*
X43800000Y-76539050D01*
X43745100Y-35754900D02*
X43000000Y-36500000D01*
X46000000Y-69800000D02*
X44348100Y-71451900D01*
X45800000Y-62800000D02*
X47500000Y-62800000D01*
X44348100Y-73754900D02*
X43745100Y-73754900D01*
X44348100Y-35754900D02*
X43745100Y-35754900D01*
X47600000Y-88800000D02*
X46000000Y-88800000D01*
X43000000Y-36500000D02*
X43000000Y-37739050D01*
X43800000Y-98800000D02*
X45800000Y-100800000D01*
X44348100Y-71451900D02*
X44348100Y-73754900D01*
X44348100Y-92754900D02*
X43745100Y-92754900D01*
X49000000Y-64300000D02*
X49000000Y-68400000D01*
X53161000Y-114550000D02*
X53111000Y-114500000D01*
X44348100Y-113948100D02*
X44348100Y-113253500D01*
X53111000Y-114500000D02*
X44900000Y-114500000D01*
X44900000Y-114500000D02*
X44348100Y-113948100D01*
D17*
X39500000Y-111350000D02*
X39500000Y-109100000D01*
X38660000Y-120800000D02*
X38660000Y-115490000D01*
X38660000Y-115490000D02*
X39500000Y-114650000D01*
X45100000Y-95400000D02*
X44348100Y-94648100D01*
X50100000Y-97100000D02*
X48400000Y-95400000D01*
X49400000Y-110500000D02*
X52700000Y-107200000D01*
X44348100Y-94648100D02*
X44348100Y-94253500D01*
X49378000Y-111754900D02*
X49378000Y-110522000D01*
X48400000Y-95400000D02*
X45100000Y-95400000D01*
X49378000Y-110522000D02*
X49400000Y-110500000D01*
G04 #@! TA.AperFunction,Conductor*
G36*
X53642539Y-25020185D02*
G01*
X53688294Y-25072989D01*
X53699500Y-25124500D01*
X53699500Y-30975467D01*
X53699416Y-30975889D01*
X53699459Y-31000001D01*
X53699500Y-31000099D01*
X53699616Y-31000382D01*
X53699618Y-31000384D01*
X53699808Y-31000462D01*
X53700000Y-31000541D01*
X53700002Y-31000539D01*
X53724616Y-31000524D01*
X53724616Y-31000528D01*
X53724760Y-31000500D01*
X56375500Y-31000500D01*
X56442539Y-31020185D01*
X56488294Y-31072989D01*
X56499500Y-31124500D01*
X56499500Y-128937122D01*
X56499342Y-128941548D01*
X56494517Y-129008987D01*
X56482945Y-129155967D01*
X56481718Y-129164290D01*
X56461099Y-129259073D01*
X56433131Y-129375560D01*
X56430933Y-129382759D01*
X56395006Y-129479080D01*
X56351051Y-129585197D01*
X56348185Y-129591188D01*
X56298450Y-129682271D01*
X56296898Y-129684952D01*
X56238513Y-129780230D01*
X56235281Y-129784993D01*
X56172564Y-129868775D01*
X56170075Y-129871886D01*
X56097993Y-129956286D01*
X56094687Y-129959862D01*
X56020501Y-130034050D01*
X56016926Y-130037355D01*
X55932543Y-130109431D01*
X55929431Y-130111920D01*
X55845632Y-130174654D01*
X55840870Y-130177886D01*
X55745620Y-130236259D01*
X55742939Y-130237811D01*
X55651838Y-130287561D01*
X55645847Y-130290428D01*
X55539746Y-130334381D01*
X55443408Y-130370318D01*
X55436210Y-130372516D01*
X55339365Y-130395772D01*
X55319723Y-130400489D01*
X55224989Y-130421101D01*
X55216651Y-130422330D01*
X55063554Y-130434350D01*
X55038188Y-130436166D01*
X55003033Y-130438682D01*
X54998625Y-130438840D01*
X39002215Y-130438840D01*
X38997791Y-130438682D01*
X38930376Y-130433860D01*
X38783366Y-130422289D01*
X38775042Y-130421061D01*
X38680276Y-130400446D01*
X38563788Y-130372479D01*
X38556588Y-130370281D01*
X38460277Y-130334358D01*
X38354150Y-130290397D01*
X38348158Y-130287530D01*
X38257078Y-130237795D01*
X38254396Y-130236242D01*
X38159135Y-130177864D01*
X38154372Y-130174632D01*
X38070577Y-130111902D01*
X38067485Y-130109429D01*
X38021215Y-130069909D01*
X37983093Y-130037348D01*
X37979517Y-130034043D01*
X37905323Y-129959847D01*
X37902017Y-129956270D01*
X37829935Y-129871868D01*
X37827446Y-129868757D01*
X37806555Y-129840849D01*
X37764730Y-129784973D01*
X37761524Y-129780251D01*
X37703109Y-129684920D01*
X37701568Y-129682258D01*
X37651845Y-129591191D01*
X37648979Y-129585200D01*
X37605022Y-129479071D01*
X37569098Y-129382746D01*
X37566900Y-129375546D01*
X37543192Y-129276782D01*
X37538949Y-129259105D01*
X37518318Y-129164253D01*
X37517095Y-129155964D01*
X37505945Y-129014679D01*
X37500658Y-128940708D01*
X37500500Y-128936286D01*
X37500500Y-127567763D01*
X38645787Y-127567763D01*
X38675413Y-127837013D01*
X38675415Y-127837024D01*
X38743926Y-128099082D01*
X38743928Y-128099088D01*
X38849870Y-128348390D01*
X38921998Y-128466575D01*
X38990979Y-128579605D01*
X38990986Y-128579615D01*
X39164253Y-128787819D01*
X39164259Y-128787824D01*
X39365998Y-128968582D01*
X39591910Y-129118044D01*
X39837176Y-129233020D01*
X39837183Y-129233022D01*
X39837185Y-129233023D01*
X40096557Y-129311057D01*
X40096564Y-129311058D01*
X40096569Y-129311060D01*
X40364561Y-129350500D01*
X40364566Y-129350500D01*
X40567636Y-129350500D01*
X40619133Y-129346730D01*
X40770156Y-129335677D01*
X40882758Y-129310593D01*
X41034546Y-129276782D01*
X41034548Y-129276781D01*
X41034553Y-129276780D01*
X41287558Y-129180014D01*
X41523777Y-129047441D01*
X41738177Y-128881888D01*
X41926186Y-128686881D01*
X42083799Y-128466579D01*
X42157787Y-128322669D01*
X42207649Y-128225690D01*
X42207651Y-128225684D01*
X42207656Y-128225675D01*
X42295118Y-127969305D01*
X42344319Y-127702933D01*
X42349259Y-127567763D01*
X51645787Y-127567763D01*
X51675413Y-127837013D01*
X51675415Y-127837024D01*
X51743926Y-128099082D01*
X51743928Y-128099088D01*
X51849870Y-128348390D01*
X51921998Y-128466575D01*
X51990979Y-128579605D01*
X51990986Y-128579615D01*
X52164253Y-128787819D01*
X52164259Y-128787824D01*
X52365998Y-128968582D01*
X52591910Y-129118044D01*
X52837176Y-129233020D01*
X52837183Y-129233022D01*
X52837185Y-129233023D01*
X53096557Y-129311057D01*
X53096564Y-129311058D01*
X53096569Y-129311060D01*
X53364561Y-129350500D01*
X53364566Y-129350500D01*
X53567636Y-129350500D01*
X53619133Y-129346730D01*
X53770156Y-129335677D01*
X53882758Y-129310593D01*
X54034546Y-129276782D01*
X54034548Y-129276781D01*
X54034553Y-129276780D01*
X54287558Y-129180014D01*
X54523777Y-129047441D01*
X54738177Y-128881888D01*
X54926186Y-128686881D01*
X55083799Y-128466579D01*
X55157787Y-128322669D01*
X55207649Y-128225690D01*
X55207651Y-128225684D01*
X55207656Y-128225675D01*
X55295118Y-127969305D01*
X55344319Y-127702933D01*
X55354212Y-127432235D01*
X55324586Y-127162982D01*
X55256072Y-126900912D01*
X55150130Y-126651610D01*
X55009018Y-126420390D01*
X54919747Y-126313119D01*
X54835746Y-126212180D01*
X54835740Y-126212175D01*
X54634002Y-126031418D01*
X54408092Y-125881957D01*
X54408090Y-125881956D01*
X54162824Y-125766980D01*
X54162819Y-125766978D01*
X54162814Y-125766976D01*
X53903442Y-125688942D01*
X53903428Y-125688939D01*
X53787791Y-125671921D01*
X53635439Y-125649500D01*
X53432369Y-125649500D01*
X53432364Y-125649500D01*
X53229844Y-125664323D01*
X53229831Y-125664325D01*
X52965453Y-125723217D01*
X52965446Y-125723220D01*
X52712439Y-125819987D01*
X52476226Y-125952557D01*
X52261822Y-126118112D01*
X52073822Y-126313109D01*
X52073816Y-126313116D01*
X51916202Y-126533419D01*
X51916199Y-126533424D01*
X51792350Y-126774309D01*
X51792343Y-126774327D01*
X51704884Y-127030685D01*
X51704881Y-127030699D01*
X51655681Y-127297068D01*
X51655680Y-127297075D01*
X51645787Y-127567763D01*
X42349259Y-127567763D01*
X42354212Y-127432235D01*
X42324586Y-127162982D01*
X42256072Y-126900912D01*
X42150130Y-126651610D01*
X42009018Y-126420390D01*
X41919747Y-126313119D01*
X41835746Y-126212180D01*
X41835740Y-126212175D01*
X41634002Y-126031418D01*
X41408092Y-125881957D01*
X41408090Y-125881956D01*
X41162824Y-125766980D01*
X41162819Y-125766978D01*
X41162814Y-125766976D01*
X40903442Y-125688942D01*
X40903428Y-125688939D01*
X40787791Y-125671921D01*
X40635439Y-125649500D01*
X40432369Y-125649500D01*
X40432364Y-125649500D01*
X40229844Y-125664323D01*
X40229831Y-125664325D01*
X39965453Y-125723217D01*
X39965446Y-125723220D01*
X39712439Y-125819987D01*
X39476226Y-125952557D01*
X39261822Y-126118112D01*
X39073822Y-126313109D01*
X39073816Y-126313116D01*
X38916202Y-126533419D01*
X38916199Y-126533424D01*
X38792350Y-126774309D01*
X38792343Y-126774327D01*
X38704884Y-127030685D01*
X38704881Y-127030699D01*
X38655681Y-127297068D01*
X38655680Y-127297075D01*
X38645787Y-127567763D01*
X37500500Y-127567763D01*
X37500500Y-122732500D01*
X37520185Y-122665461D01*
X37572989Y-122619706D01*
X37624500Y-122608500D01*
X38527500Y-122608500D01*
X38594539Y-122628185D01*
X38640294Y-122680989D01*
X38651500Y-122732500D01*
X38651500Y-124313654D01*
X38658011Y-124374202D01*
X38658011Y-124374204D01*
X38698057Y-124481567D01*
X38709111Y-124511204D01*
X38796739Y-124628261D01*
X38913796Y-124715889D01*
X39050799Y-124766989D01*
X39078050Y-124769918D01*
X39111345Y-124773499D01*
X39111362Y-124773500D01*
X42708638Y-124773500D01*
X42708654Y-124773499D01*
X42735692Y-124770591D01*
X42769201Y-124766989D01*
X42906204Y-124715889D01*
X43023261Y-124628261D01*
X43110889Y-124511204D01*
X43161989Y-124374201D01*
X43165591Y-124340692D01*
X43168499Y-124313654D01*
X43168500Y-124313637D01*
X43168500Y-123546524D01*
X43188185Y-123479485D01*
X43240989Y-123433730D01*
X43310147Y-123423786D01*
X43369810Y-123449575D01*
X43471143Y-123530386D01*
X43698357Y-123661568D01*
X43942584Y-123757420D01*
X44198370Y-123815802D01*
X44198376Y-123815802D01*
X44198379Y-123815803D01*
X44394500Y-123830500D01*
X44394506Y-123830500D01*
X44525500Y-123830500D01*
X44721620Y-123815803D01*
X44721622Y-123815802D01*
X44721630Y-123815802D01*
X44977416Y-123757420D01*
X45221643Y-123661568D01*
X45221646Y-123661566D01*
X45221647Y-123661566D01*
X45264118Y-123637045D01*
X45332018Y-123620571D01*
X45398045Y-123643423D01*
X45437839Y-123690630D01*
X45479767Y-123777695D01*
X45479768Y-123777697D01*
X45479770Y-123777700D01*
X45479772Y-123777704D01*
X45505747Y-123815802D01*
X45627567Y-123994479D01*
X45806014Y-124186801D01*
X45806018Y-124186804D01*
X45806019Y-124186805D01*
X46011143Y-124350386D01*
X46238357Y-124481568D01*
X46482584Y-124577420D01*
X46738370Y-124635802D01*
X46738376Y-124635802D01*
X46738379Y-124635803D01*
X46934500Y-124650500D01*
X46934506Y-124650500D01*
X47065500Y-124650500D01*
X47261620Y-124635803D01*
X47261622Y-124635802D01*
X47261630Y-124635802D01*
X47517416Y-124577420D01*
X47761643Y-124481568D01*
X47988857Y-124350386D01*
X48193981Y-124186805D01*
X48372433Y-123994479D01*
X48520228Y-123777704D01*
X48634063Y-123541323D01*
X48659010Y-123460446D01*
X48697579Y-123402189D01*
X48761524Y-123374032D01*
X48830541Y-123384915D01*
X48882717Y-123431383D01*
X48901500Y-123496998D01*
X48901500Y-124248654D01*
X48908011Y-124309202D01*
X48908011Y-124309204D01*
X48932255Y-124374202D01*
X48959111Y-124446204D01*
X49046739Y-124563261D01*
X49163796Y-124650889D01*
X49300799Y-124701989D01*
X49328050Y-124704918D01*
X49361345Y-124708499D01*
X49361362Y-124708500D01*
X51758638Y-124708500D01*
X51758654Y-124708499D01*
X51785692Y-124705591D01*
X51819201Y-124701989D01*
X51956204Y-124650889D01*
X52073261Y-124563261D01*
X52160889Y-124446204D01*
X52210334Y-124313638D01*
X52211988Y-124309204D01*
X52211988Y-124309203D01*
X52211989Y-124309201D01*
X52215591Y-124275692D01*
X52218499Y-124248654D01*
X52218500Y-124248637D01*
X52218500Y-123281182D01*
X52226726Y-123236770D01*
X52749758Y-121873335D01*
X52792148Y-121817794D01*
X52823444Y-121801109D01*
X54057476Y-121355859D01*
X54099561Y-121348500D01*
X55108638Y-121348500D01*
X55108654Y-121348499D01*
X55135692Y-121345591D01*
X55169201Y-121341989D01*
X55306204Y-121290889D01*
X55423261Y-121203261D01*
X55510889Y-121086204D01*
X55561989Y-120949201D01*
X55565591Y-120915692D01*
X55568499Y-120888654D01*
X55568500Y-120888637D01*
X55568500Y-118191362D01*
X55568499Y-118191345D01*
X55565157Y-118160270D01*
X55561989Y-118130799D01*
X55510889Y-117993796D01*
X55423261Y-117876739D01*
X55306204Y-117789111D01*
X55169204Y-117738011D01*
X55164802Y-117737538D01*
X55100252Y-117710798D01*
X55084099Y-117695162D01*
X54553037Y-117078450D01*
X54524208Y-117014805D01*
X54523000Y-116997537D01*
X54523000Y-103082461D01*
X54542685Y-103015422D01*
X54553033Y-103001552D01*
X55084099Y-102384836D01*
X55142758Y-102346882D01*
X55164811Y-102342461D01*
X55169202Y-102341989D01*
X55237702Y-102316439D01*
X55306204Y-102290889D01*
X55423261Y-102203261D01*
X55510889Y-102086204D01*
X55561989Y-101949201D01*
X55565591Y-101915692D01*
X55568499Y-101888654D01*
X55568500Y-101888637D01*
X55568500Y-99191362D01*
X55568499Y-99191345D01*
X55564599Y-99155080D01*
X55561989Y-99130799D01*
X55560656Y-99127226D01*
X55518706Y-99014754D01*
X55510889Y-98993796D01*
X55423261Y-98876739D01*
X55306204Y-98789111D01*
X55169203Y-98738011D01*
X55144838Y-98735391D01*
X55080287Y-98708651D01*
X55064684Y-98693651D01*
X54526088Y-98076702D01*
X54496828Y-98013254D01*
X54495500Y-97995153D01*
X54495500Y-84084845D01*
X54515185Y-84017806D01*
X54526088Y-84003296D01*
X54602701Y-83915538D01*
X55064684Y-83386346D01*
X55123600Y-83348792D01*
X55144831Y-83344608D01*
X55169201Y-83341989D01*
X55306204Y-83290889D01*
X55423261Y-83203261D01*
X55510889Y-83086204D01*
X55561989Y-82949201D01*
X55565591Y-82915692D01*
X55568499Y-82888654D01*
X55568500Y-82888637D01*
X55568500Y-80191362D01*
X55568499Y-80191345D01*
X55564599Y-80155080D01*
X55561989Y-80130799D01*
X55560656Y-80127226D01*
X55518706Y-80014754D01*
X55510889Y-79993796D01*
X55423261Y-79876739D01*
X55306204Y-79789111D01*
X55169203Y-79738011D01*
X55144838Y-79735391D01*
X55080287Y-79708651D01*
X55064684Y-79693651D01*
X54526088Y-79076702D01*
X54496828Y-79013254D01*
X54495500Y-78995153D01*
X54495500Y-65084845D01*
X54515185Y-65017806D01*
X54526088Y-65003296D01*
X54602701Y-64915538D01*
X55064684Y-64386346D01*
X55123600Y-64348792D01*
X55144831Y-64344608D01*
X55169201Y-64341989D01*
X55306204Y-64290889D01*
X55423261Y-64203261D01*
X55510889Y-64086204D01*
X55561989Y-63949201D01*
X55565591Y-63915692D01*
X55568499Y-63888654D01*
X55568500Y-63888637D01*
X55568500Y-61191362D01*
X55568499Y-61191345D01*
X55564599Y-61155080D01*
X55561989Y-61130799D01*
X55560656Y-61127226D01*
X55518706Y-61014754D01*
X55510889Y-60993796D01*
X55423261Y-60876739D01*
X55306204Y-60789111D01*
X55169203Y-60738011D01*
X55144838Y-60735391D01*
X55080287Y-60708651D01*
X55064684Y-60693651D01*
X54526088Y-60076702D01*
X54496828Y-60013254D01*
X54495500Y-59995153D01*
X54495500Y-46084845D01*
X54515185Y-46017806D01*
X54526088Y-46003296D01*
X54602701Y-45915538D01*
X55064684Y-45386346D01*
X55123600Y-45348792D01*
X55144831Y-45344608D01*
X55169201Y-45341989D01*
X55306204Y-45290889D01*
X55423261Y-45203261D01*
X55510889Y-45086204D01*
X55561989Y-44949201D01*
X55565591Y-44915692D01*
X55568499Y-44888654D01*
X55568500Y-44888637D01*
X55568500Y-42191362D01*
X55568499Y-42191345D01*
X55564599Y-42155080D01*
X55561989Y-42130799D01*
X55560656Y-42127226D01*
X55518706Y-42014754D01*
X55510889Y-41993796D01*
X55423261Y-41876739D01*
X55306204Y-41789111D01*
X55169203Y-41738011D01*
X55144838Y-41735391D01*
X55080287Y-41708651D01*
X55064684Y-41693651D01*
X54526088Y-41076702D01*
X54496828Y-41013254D01*
X54495500Y-40995153D01*
X54495500Y-39743851D01*
X54497242Y-39728069D01*
X54496975Y-39728044D01*
X54497707Y-39720288D01*
X54497709Y-39720281D01*
X54495500Y-39649996D01*
X54495500Y-39620017D01*
X54494610Y-39612982D01*
X54494153Y-39607164D01*
X54492665Y-39559795D01*
X54486941Y-39540093D01*
X54482997Y-39521049D01*
X54480427Y-39500701D01*
X54462973Y-39456618D01*
X54461098Y-39451142D01*
X54447869Y-39405607D01*
X54447868Y-39405606D01*
X54447868Y-39405604D01*
X54437428Y-39387952D01*
X54428869Y-39370482D01*
X54421319Y-39351412D01*
X54393468Y-39313080D01*
X54390261Y-39308197D01*
X54380526Y-39291736D01*
X54366135Y-39267402D01*
X54366133Y-39267400D01*
X54366128Y-39267394D01*
X54351633Y-39252899D01*
X54338995Y-39238103D01*
X54326942Y-39221513D01*
X54290422Y-39191301D01*
X54286100Y-39187367D01*
X53508658Y-38409925D01*
X53498732Y-38397535D01*
X53498525Y-38397707D01*
X53493552Y-38391696D01*
X53442306Y-38343573D01*
X53421097Y-38322363D01*
X53415492Y-38318015D01*
X53411046Y-38314218D01*
X53376509Y-38281785D01*
X53376501Y-38281780D01*
X53358540Y-38271906D01*
X53342274Y-38261222D01*
X53327255Y-38249572D01*
X53326067Y-38248650D01*
X53326066Y-38248649D01*
X53326064Y-38248648D01*
X53282571Y-38229827D01*
X53277323Y-38227256D01*
X53235805Y-38204432D01*
X53235804Y-38204431D01*
X53235803Y-38204431D01*
X53215937Y-38199330D01*
X53197538Y-38193030D01*
X53178709Y-38184883D01*
X53178708Y-38184882D01*
X53131902Y-38177469D01*
X53126181Y-38176284D01*
X53080283Y-38164500D01*
X53080282Y-38164500D01*
X53059774Y-38164500D01*
X53040376Y-38162973D01*
X53029769Y-38161293D01*
X53020122Y-38159765D01*
X53020121Y-38159764D01*
X52972939Y-38164225D01*
X52967101Y-38164500D01*
X52803083Y-38164500D01*
X52736044Y-38144815D01*
X52690289Y-38092011D01*
X52680345Y-38022853D01*
X52709370Y-37959297D01*
X52712889Y-37955406D01*
X52826089Y-37835421D01*
X52826088Y-37835421D01*
X52826092Y-37835418D01*
X52913812Y-37683481D01*
X52964130Y-37515410D01*
X52974331Y-37340265D01*
X52943865Y-37167489D01*
X52874377Y-37006396D01*
X52769610Y-36865670D01*
X52697747Y-36805370D01*
X52635214Y-36752898D01*
X52635212Y-36752897D01*
X52478437Y-36674161D01*
X52469446Y-36672030D01*
X52307721Y-36633700D01*
X52176291Y-36633700D01*
X52071854Y-36645907D01*
X52045743Y-36648959D01*
X52045740Y-36648960D01*
X51880884Y-36708962D01*
X51880880Y-36708964D01*
X51734306Y-36805367D01*
X51734305Y-36805368D01*
X51613910Y-36932978D01*
X51526188Y-37084918D01*
X51475870Y-37252989D01*
X51475869Y-37252994D01*
X51465668Y-37428133D01*
X51481058Y-37515410D01*
X51496135Y-37600911D01*
X51565623Y-37762004D01*
X51565624Y-37762006D01*
X51565626Y-37762009D01*
X51670390Y-37902730D01*
X51721374Y-37945511D01*
X51760076Y-38003682D01*
X51761184Y-38073543D01*
X51724347Y-38132913D01*
X51661260Y-38162943D01*
X51641668Y-38164500D01*
X51285095Y-38164500D01*
X51262833Y-38162485D01*
X51166012Y-38144815D01*
X50922565Y-38100385D01*
X50918860Y-38099591D01*
X50888101Y-38092011D01*
X50886028Y-38091500D01*
X50886027Y-38091500D01*
X50867260Y-38091500D01*
X50861516Y-38091233D01*
X50859269Y-38091024D01*
X50859267Y-38091024D01*
X50802555Y-38091288D01*
X50735425Y-38071915D01*
X50689425Y-38019325D01*
X50679159Y-37950213D01*
X50693148Y-37907858D01*
X50696354Y-37901986D01*
X50746596Y-37767279D01*
X50746598Y-37767272D01*
X50752999Y-37707744D01*
X50753000Y-37707727D01*
X50753000Y-37503500D01*
X49628000Y-37503500D01*
X49628000Y-38159900D01*
X50144675Y-38159900D01*
X50211714Y-38179585D01*
X50257469Y-38232389D01*
X50267413Y-38301547D01*
X50246725Y-38354338D01*
X50208357Y-38409925D01*
X50168045Y-38468326D01*
X50107034Y-38629198D01*
X50086296Y-38799999D01*
X50086296Y-38800001D01*
X50096544Y-38884408D01*
X50085083Y-38953331D01*
X50038179Y-39005117D01*
X49970723Y-39023323D01*
X49904132Y-39002170D01*
X49885767Y-38987034D01*
X49164319Y-38265586D01*
X49130834Y-38204263D01*
X49128000Y-38177905D01*
X49128000Y-37127500D01*
X49147685Y-37060461D01*
X49200489Y-37014706D01*
X49252000Y-37003500D01*
X50753000Y-37003500D01*
X50753000Y-36799272D01*
X50752999Y-36799255D01*
X50746598Y-36739727D01*
X50746596Y-36739720D01*
X50696354Y-36605013D01*
X50696350Y-36605006D01*
X50681823Y-36585600D01*
X50657406Y-36520136D01*
X50672258Y-36451863D01*
X50681820Y-36436983D01*
X50703889Y-36407504D01*
X50732244Y-36331482D01*
X50754987Y-36270507D01*
X50754987Y-36270505D01*
X50754989Y-36270501D01*
X50759274Y-36230642D01*
X50761499Y-36209954D01*
X50761500Y-36209937D01*
X50761500Y-35299862D01*
X50761499Y-35299845D01*
X50758157Y-35268770D01*
X50754989Y-35239299D01*
X50703889Y-35102296D01*
X50616261Y-34985239D01*
X50499204Y-34897611D01*
X50362203Y-34846511D01*
X50301654Y-34840000D01*
X50301638Y-34840000D01*
X50187374Y-34840000D01*
X50120335Y-34820315D01*
X50074580Y-34767511D01*
X50064278Y-34730945D01*
X50061673Y-34709490D01*
X50058097Y-34700064D01*
X50052070Y-34678442D01*
X50050252Y-34668518D01*
X50024839Y-34612053D01*
X50023417Y-34608617D01*
X50001480Y-34550772D01*
X49995750Y-34542471D01*
X49984725Y-34522924D01*
X49984240Y-34521847D01*
X49980585Y-34513725D01*
X49980580Y-34513718D01*
X49942421Y-34465011D01*
X49940201Y-34461995D01*
X49935857Y-34455702D01*
X49905052Y-34411073D01*
X49858730Y-34370035D01*
X49856019Y-34367484D01*
X49633957Y-34145422D01*
X49613745Y-34118857D01*
X49591792Y-34080102D01*
X49321437Y-33602819D01*
X49309693Y-33583124D01*
X49309686Y-33583116D01*
X49306713Y-33578952D01*
X49307081Y-33578688D01*
X49299941Y-33568539D01*
X49272304Y-33520671D01*
X49239040Y-33463056D01*
X49111253Y-33321134D01*
X49106424Y-33316786D01*
X49107931Y-33315111D01*
X49071595Y-33267994D01*
X49065613Y-33198381D01*
X49098215Y-33136584D01*
X49159052Y-33102224D01*
X49187144Y-33099000D01*
X49595346Y-33099000D01*
X49628421Y-33103492D01*
X50195740Y-33260511D01*
X50213083Y-33266733D01*
X50217712Y-33268794D01*
X50404513Y-33308500D01*
X50595487Y-33308500D01*
X50782288Y-33268794D01*
X50956752Y-33191118D01*
X51111253Y-33078866D01*
X51239040Y-32936944D01*
X51334527Y-32771556D01*
X51393542Y-32589928D01*
X51413504Y-32400000D01*
X51393542Y-32210072D01*
X51334527Y-32028444D01*
X51239040Y-31863056D01*
X51111253Y-31721134D01*
X50956752Y-31608882D01*
X50782288Y-31531206D01*
X50782286Y-31531205D01*
X50595487Y-31491500D01*
X50404513Y-31491500D01*
X50217713Y-31531205D01*
X50217700Y-31531210D01*
X50213081Y-31533266D01*
X50195740Y-31539486D01*
X49679058Y-31682491D01*
X49628417Y-31696507D01*
X49595342Y-31701000D01*
X48423012Y-31701000D01*
X48419268Y-31700887D01*
X48357488Y-31697150D01*
X48357481Y-31697150D01*
X48296614Y-31708304D01*
X48292914Y-31708867D01*
X48231489Y-31716327D01*
X48231486Y-31716327D01*
X48222052Y-31719905D01*
X48200452Y-31725926D01*
X48190524Y-31727745D01*
X48190517Y-31727748D01*
X48134080Y-31753147D01*
X48130622Y-31754579D01*
X48072782Y-31776516D01*
X48072767Y-31776523D01*
X48064469Y-31782251D01*
X48044933Y-31793270D01*
X48035727Y-31797413D01*
X48035721Y-31797417D01*
X47987001Y-31835585D01*
X47983986Y-31837804D01*
X47933075Y-31872945D01*
X47933074Y-31872945D01*
X47892044Y-31919258D01*
X47889477Y-31921985D01*
X47353133Y-32458329D01*
X47291810Y-32491814D01*
X47222118Y-32486830D01*
X47166185Y-32444958D01*
X47149513Y-32414626D01*
X47131954Y-32368325D01*
X47034215Y-32226727D01*
X47034213Y-32226725D01*
X47034210Y-32226722D01*
X46905432Y-32112634D01*
X46753079Y-32032673D01*
X46586028Y-31991500D01*
X46413972Y-31991500D01*
X46413968Y-31991500D01*
X46386643Y-31998235D01*
X46381136Y-31999592D01*
X46377438Y-32000385D01*
X46037170Y-32062485D01*
X46014907Y-32064500D01*
X42233852Y-32064500D01*
X42218069Y-32062757D01*
X42218044Y-32063025D01*
X42210282Y-32062291D01*
X42210281Y-32062291D01*
X42139997Y-32064500D01*
X42110017Y-32064500D01*
X42110014Y-32064500D01*
X42109999Y-32064501D01*
X42102981Y-32065387D01*
X42097164Y-32065845D01*
X42049800Y-32067334D01*
X42049794Y-32067335D01*
X42030093Y-32073058D01*
X42011054Y-32077000D01*
X41990711Y-32079571D01*
X41990703Y-32079572D01*
X41990701Y-32079573D01*
X41990699Y-32079573D01*
X41990693Y-32079575D01*
X41946645Y-32097014D01*
X41941122Y-32098905D01*
X41895609Y-32112130D01*
X41895607Y-32112130D01*
X41895607Y-32112131D01*
X41877948Y-32122573D01*
X41860483Y-32131129D01*
X41841415Y-32138678D01*
X41841414Y-32138679D01*
X41803070Y-32166537D01*
X41798188Y-32169743D01*
X41757398Y-32193868D01*
X41742902Y-32208364D01*
X41728112Y-32220996D01*
X41711515Y-32233054D01*
X41711513Y-32233057D01*
X41681297Y-32269580D01*
X41677365Y-32273901D01*
X39895960Y-34055305D01*
X39860478Y-34080102D01*
X39400437Y-34293599D01*
X39232456Y-34371556D01*
X39214308Y-34379978D01*
X39162109Y-34391500D01*
X39076120Y-34391500D01*
X38975663Y-34401764D01*
X38812901Y-34455697D01*
X38812890Y-34455702D01*
X38666963Y-34545712D01*
X38666959Y-34545715D01*
X38545715Y-34666959D01*
X38545712Y-34666963D01*
X38455702Y-34812890D01*
X38455697Y-34812901D01*
X38401764Y-34975663D01*
X38391500Y-35076120D01*
X38391500Y-35623879D01*
X38401764Y-35724336D01*
X38455697Y-35887098D01*
X38455702Y-35887109D01*
X38545712Y-36033036D01*
X38545715Y-36033040D01*
X38666959Y-36154284D01*
X38666963Y-36154287D01*
X38812890Y-36244297D01*
X38812893Y-36244298D01*
X38812899Y-36244302D01*
X38975664Y-36298236D01*
X39076128Y-36308500D01*
X39076133Y-36308500D01*
X39923867Y-36308500D01*
X39923872Y-36308500D01*
X40024336Y-36298236D01*
X40187101Y-36244302D01*
X40333040Y-36154285D01*
X40454285Y-36033040D01*
X40544302Y-35887101D01*
X40598236Y-35724336D01*
X40608500Y-35623872D01*
X40608500Y-35508923D01*
X40615448Y-35467999D01*
X40695407Y-35239297D01*
X40786035Y-34980079D01*
X40815402Y-34933328D01*
X42376914Y-33371819D01*
X42438237Y-33338334D01*
X42464595Y-33335500D01*
X44776602Y-33335500D01*
X44843641Y-33355185D01*
X44889396Y-33407989D01*
X44899340Y-33477147D01*
X44870315Y-33540703D01*
X44864283Y-33547181D01*
X43947522Y-34463940D01*
X43942801Y-34468200D01*
X43938443Y-34471744D01*
X43938442Y-34471745D01*
X43934146Y-34476932D01*
X43930238Y-34481224D01*
X43870093Y-34541369D01*
X43867367Y-34543936D01*
X43821050Y-34584970D01*
X43821047Y-34584973D01*
X43785894Y-34635901D01*
X43783675Y-34638916D01*
X43745518Y-34687622D01*
X43745514Y-34687629D01*
X43741377Y-34696821D01*
X43730356Y-34716362D01*
X43724619Y-34724672D01*
X43711231Y-34759974D01*
X43669052Y-34815676D01*
X43603454Y-34839731D01*
X43595290Y-34840000D01*
X43424445Y-34840000D01*
X43363897Y-34846511D01*
X43363895Y-34846511D01*
X43226895Y-34897611D01*
X43109839Y-34985239D01*
X43022211Y-35102295D01*
X42971111Y-35239295D01*
X42971111Y-35239297D01*
X42964600Y-35299845D01*
X42964600Y-35469175D01*
X42944915Y-35536214D01*
X42931485Y-35553530D01*
X42682328Y-35821975D01*
X42649203Y-35860989D01*
X42649030Y-35860842D01*
X42640751Y-35870711D01*
X42521993Y-35989469D01*
X42519267Y-35992036D01*
X42472950Y-36033070D01*
X42472947Y-36033073D01*
X42437794Y-36084001D01*
X42435575Y-36087016D01*
X42397418Y-36135722D01*
X42397414Y-36135729D01*
X42393277Y-36144921D01*
X42382256Y-36164462D01*
X42376519Y-36172772D01*
X42354571Y-36230642D01*
X42353139Y-36234100D01*
X42327748Y-36290517D01*
X42325930Y-36300441D01*
X42319906Y-36322049D01*
X42316329Y-36331482D01*
X42316326Y-36331490D01*
X42308867Y-36392921D01*
X42308304Y-36396624D01*
X42297151Y-36457482D01*
X42297151Y-36457485D01*
X42300887Y-36519249D01*
X42301000Y-36522994D01*
X42301000Y-36604991D01*
X42281315Y-36672030D01*
X42228511Y-36717785D01*
X42159353Y-36727729D01*
X42121349Y-36715802D01*
X42107733Y-36708964D01*
X42038433Y-36674160D01*
X41867721Y-36633700D01*
X41736291Y-36633700D01*
X41631854Y-36645907D01*
X41605743Y-36648959D01*
X41605740Y-36648960D01*
X41440884Y-36708962D01*
X41440880Y-36708964D01*
X41294306Y-36805367D01*
X41294305Y-36805368D01*
X41173910Y-36932978D01*
X41086188Y-37084918D01*
X41035870Y-37252989D01*
X41035869Y-37252994D01*
X41025668Y-37428133D01*
X41041058Y-37515410D01*
X41056135Y-37600911D01*
X41125623Y-37762004D01*
X41125624Y-37762006D01*
X41125626Y-37762009D01*
X41190129Y-37848650D01*
X41230390Y-37902730D01*
X41364786Y-38015502D01*
X41442488Y-38054525D01*
X41521562Y-38094238D01*
X41521563Y-38094238D01*
X41521567Y-38094240D01*
X41692279Y-38134700D01*
X41692282Y-38134700D01*
X41823701Y-38134700D01*
X41823709Y-38134700D01*
X41954255Y-38119441D01*
X42119117Y-38059437D01*
X42193825Y-38010300D01*
X42260651Y-37989908D01*
X42327895Y-38008882D01*
X42372889Y-38059711D01*
X42373034Y-38059636D01*
X42373342Y-38060223D01*
X42374206Y-38061199D01*
X42375679Y-38064675D01*
X42376519Y-38066276D01*
X42382252Y-38074582D01*
X42393277Y-38094130D01*
X42397414Y-38103322D01*
X42435578Y-38152038D01*
X42437797Y-38155053D01*
X42472946Y-38205975D01*
X42472947Y-38205976D01*
X42472948Y-38205977D01*
X42519277Y-38247021D01*
X42521969Y-38249555D01*
X42804409Y-38531995D01*
X43064681Y-38792267D01*
X43098166Y-38853590D01*
X43101000Y-38879948D01*
X43101000Y-40166333D01*
X43081315Y-40233372D01*
X43028511Y-40279127D01*
X42959353Y-40289071D01*
X42895797Y-40260046D01*
X42871411Y-40231348D01*
X42830069Y-40164205D01*
X42830068Y-40164203D01*
X42672564Y-39985245D01*
X42634498Y-39954509D01*
X42487080Y-39835477D01*
X42373130Y-39771820D01*
X42278955Y-39719210D01*
X42054170Y-39639788D01*
X41819209Y-39599500D01*
X41819200Y-39599500D01*
X41640503Y-39599500D01*
X41640498Y-39599500D01*
X41462463Y-39614652D01*
X41231751Y-39674724D01*
X41014519Y-39772919D01*
X41014511Y-39772924D01*
X40817006Y-39906413D01*
X40816997Y-39906421D01*
X40644881Y-40071379D01*
X40503123Y-40263050D01*
X40503120Y-40263054D01*
X40395796Y-40475920D01*
X40395793Y-40475926D01*
X40325983Y-40703878D01*
X40295702Y-40940346D01*
X40305819Y-41178528D01*
X40305819Y-41178532D01*
X40356045Y-41411580D01*
X40444935Y-41632788D01*
X40444936Y-41632790D01*
X40569539Y-41835159D01*
X40569932Y-41835796D01*
X40695042Y-41977949D01*
X40727436Y-42014755D01*
X40912920Y-42164523D01*
X41121046Y-42280790D01*
X41345829Y-42360211D01*
X41580790Y-42400499D01*
X41580798Y-42400499D01*
X41580800Y-42400500D01*
X41580801Y-42400500D01*
X41759502Y-42400500D01*
X41937536Y-42385347D01*
X41937539Y-42385346D01*
X41937541Y-42385346D01*
X42168249Y-42325275D01*
X42334939Y-42249926D01*
X42385480Y-42227080D01*
X42385481Y-42227078D01*
X42385486Y-42227077D01*
X42583003Y-42093579D01*
X42755118Y-41928621D01*
X42873236Y-41768913D01*
X42928926Y-41726719D01*
X42998588Y-41721331D01*
X43060104Y-41754460D01*
X43093944Y-41815589D01*
X43096706Y-41835159D01*
X43097151Y-41842516D01*
X43108304Y-41903375D01*
X43108867Y-41907078D01*
X43116327Y-41968510D01*
X43119906Y-41977949D01*
X43125930Y-41999558D01*
X43127749Y-42009482D01*
X43127750Y-42009485D01*
X43153141Y-42065904D01*
X43154574Y-42069364D01*
X43176518Y-42127225D01*
X43176519Y-42127226D01*
X43182252Y-42135532D01*
X43193277Y-42155080D01*
X43197414Y-42164272D01*
X43197415Y-42164273D01*
X43197416Y-42164275D01*
X43205258Y-42174284D01*
X43235578Y-42212988D01*
X43237797Y-42216003D01*
X43272946Y-42266925D01*
X43272947Y-42266926D01*
X43272948Y-42266927D01*
X43319277Y-42307971D01*
X43321969Y-42310505D01*
X44330724Y-43319259D01*
X45275884Y-44264419D01*
X45309369Y-44325742D01*
X45304385Y-44395434D01*
X45262513Y-44451367D01*
X45197049Y-44475784D01*
X45142901Y-44467528D01*
X44977421Y-44402582D01*
X44977416Y-44402580D01*
X44977411Y-44402578D01*
X44977402Y-44402576D01*
X44759818Y-44352914D01*
X44721630Y-44344198D01*
X44721629Y-44344197D01*
X44721625Y-44344197D01*
X44721620Y-44344196D01*
X44525500Y-44329500D01*
X44525494Y-44329500D01*
X44394506Y-44329500D01*
X44394500Y-44329500D01*
X44198379Y-44344196D01*
X44198374Y-44344197D01*
X43942585Y-44402579D01*
X43858890Y-44435426D01*
X43789293Y-44441593D01*
X43727410Y-44409155D01*
X43695098Y-44356547D01*
X43666680Y-44264419D01*
X43634063Y-44158677D01*
X43594461Y-44076442D01*
X43520232Y-43922303D01*
X43520231Y-43922302D01*
X43520230Y-43922301D01*
X43520228Y-43922296D01*
X43372433Y-43705521D01*
X43340571Y-43671182D01*
X43193985Y-43513198D01*
X43116445Y-43451362D01*
X42988857Y-43349614D01*
X42761643Y-43218432D01*
X42517416Y-43122580D01*
X42517411Y-43122578D01*
X42517402Y-43122576D01*
X42299818Y-43072914D01*
X42261630Y-43064198D01*
X42261629Y-43064197D01*
X42261625Y-43064197D01*
X42261620Y-43064196D01*
X42065500Y-43049500D01*
X42065494Y-43049500D01*
X41934506Y-43049500D01*
X41934500Y-43049500D01*
X41738379Y-43064196D01*
X41738374Y-43064197D01*
X41482597Y-43122576D01*
X41482578Y-43122582D01*
X41238356Y-43218432D01*
X41011143Y-43349614D01*
X40806014Y-43513198D01*
X40627567Y-43705520D01*
X40592578Y-43756841D01*
X40544952Y-43826694D01*
X40490925Y-43870995D01*
X40421521Y-43879054D01*
X40358779Y-43848311D01*
X40322617Y-43788527D01*
X40318500Y-43756841D01*
X40318500Y-43451362D01*
X40318499Y-43451345D01*
X40313926Y-43408818D01*
X40311989Y-43390799D01*
X40260889Y-43253796D01*
X40173261Y-43136739D01*
X40056204Y-43049111D01*
X40032359Y-43040217D01*
X39919204Y-42998011D01*
X39907010Y-42996700D01*
X39842460Y-42969960D01*
X39828075Y-42956333D01*
X39776218Y-42898677D01*
X39660610Y-42770139D01*
X39267305Y-42332848D01*
X39237109Y-42269840D01*
X39235500Y-42249926D01*
X39235500Y-39954509D01*
X39255185Y-39887470D01*
X39307299Y-39842032D01*
X39785688Y-39620021D01*
X39837887Y-39608500D01*
X39923867Y-39608500D01*
X39923872Y-39608500D01*
X40024336Y-39598236D01*
X40187101Y-39544302D01*
X40333040Y-39454285D01*
X40454285Y-39333040D01*
X40544302Y-39187101D01*
X40598236Y-39024336D01*
X40608500Y-38923872D01*
X40608500Y-38376128D01*
X40598236Y-38275664D01*
X40544302Y-38112899D01*
X40544298Y-38112893D01*
X40544297Y-38112890D01*
X40454287Y-37966963D01*
X40454284Y-37966959D01*
X40333040Y-37845715D01*
X40333036Y-37845712D01*
X40187109Y-37755702D01*
X40187103Y-37755699D01*
X40187101Y-37755698D01*
X40024336Y-37701764D01*
X39923879Y-37691500D01*
X39923872Y-37691500D01*
X39076128Y-37691500D01*
X39076120Y-37691500D01*
X38975663Y-37701764D01*
X38812901Y-37755697D01*
X38812890Y-37755702D01*
X38666963Y-37845712D01*
X38666959Y-37845715D01*
X38545715Y-37966959D01*
X38545712Y-37966963D01*
X38455702Y-38112890D01*
X38455697Y-38112901D01*
X38401764Y-38275663D01*
X38391500Y-38376120D01*
X38391500Y-38491071D01*
X38384552Y-38531995D01*
X38215495Y-39015533D01*
X38188836Y-39059492D01*
X38143573Y-39107693D01*
X38122366Y-39128900D01*
X38122363Y-39128902D01*
X38118008Y-39134516D01*
X38114218Y-39138953D01*
X38081782Y-39173494D01*
X38081781Y-39173496D01*
X38071900Y-39191468D01*
X38061225Y-39207719D01*
X38048652Y-39223929D01*
X38048649Y-39223933D01*
X38029827Y-39267428D01*
X38027257Y-39272674D01*
X38004430Y-39314197D01*
X37999329Y-39334064D01*
X37993030Y-39352462D01*
X37984884Y-39371287D01*
X37984881Y-39371296D01*
X37977469Y-39418098D01*
X37976284Y-39423820D01*
X37964500Y-39469711D01*
X37964500Y-39490225D01*
X37962972Y-39509624D01*
X37959765Y-39529879D01*
X37962593Y-39559795D01*
X37964225Y-39577059D01*
X37964500Y-39582897D01*
X37964500Y-42260343D01*
X37944815Y-42327382D01*
X37935108Y-42340501D01*
X37719108Y-42595439D01*
X37660753Y-42633863D01*
X37590887Y-42634638D01*
X37531694Y-42597518D01*
X37501965Y-42534289D01*
X37500500Y-42515281D01*
X37500500Y-31124500D01*
X37520185Y-31057461D01*
X37572989Y-31011706D01*
X37624500Y-31000500D01*
X40275240Y-31000500D01*
X40275383Y-31000528D01*
X40275384Y-31000524D01*
X40299997Y-31000539D01*
X40300000Y-31000541D01*
X40300383Y-31000383D01*
X40300500Y-31000099D01*
X40300541Y-31000000D01*
X40300540Y-30999997D01*
X40300583Y-30975889D01*
X40300500Y-30975467D01*
X40300500Y-25124500D01*
X40320185Y-25057461D01*
X40372989Y-25011706D01*
X40424500Y-25000500D01*
X53575500Y-25000500D01*
X53642539Y-25020185D01*
G37*
G04 #@! TD.AperFunction*
G04 #@! TA.AperFunction,Conductor*
G36*
X38594539Y-103628185D02*
G01*
X38640294Y-103680989D01*
X38651500Y-103732500D01*
X38651500Y-105313654D01*
X38658011Y-105374202D01*
X38658011Y-105374204D01*
X38698057Y-105481567D01*
X38709111Y-105511204D01*
X38796739Y-105628261D01*
X38913796Y-105715889D01*
X39050799Y-105766989D01*
X39078050Y-105769918D01*
X39111345Y-105773499D01*
X39111362Y-105773500D01*
X42708638Y-105773500D01*
X42708654Y-105773499D01*
X42735692Y-105770591D01*
X42769201Y-105766989D01*
X42906204Y-105715889D01*
X43023261Y-105628261D01*
X43110889Y-105511204D01*
X43161989Y-105374201D01*
X43165591Y-105340692D01*
X43168499Y-105313654D01*
X43168500Y-105313637D01*
X43168500Y-104546524D01*
X43188185Y-104479485D01*
X43240989Y-104433730D01*
X43310147Y-104423786D01*
X43369810Y-104449575D01*
X43471143Y-104530386D01*
X43698357Y-104661568D01*
X43942584Y-104757420D01*
X44198370Y-104815802D01*
X44198376Y-104815802D01*
X44198379Y-104815803D01*
X44394500Y-104830500D01*
X44394506Y-104830500D01*
X44525500Y-104830500D01*
X44721620Y-104815803D01*
X44721622Y-104815802D01*
X44721630Y-104815802D01*
X44977416Y-104757420D01*
X45221643Y-104661568D01*
X45221646Y-104661566D01*
X45221647Y-104661566D01*
X45264118Y-104637045D01*
X45332018Y-104620571D01*
X45398045Y-104643423D01*
X45437839Y-104690630D01*
X45479767Y-104777695D01*
X45479768Y-104777697D01*
X45479770Y-104777700D01*
X45479772Y-104777704D01*
X45505747Y-104815802D01*
X45627567Y-104994479D01*
X45806014Y-105186801D01*
X45806018Y-105186804D01*
X45806019Y-105186805D01*
X46011143Y-105350386D01*
X46238357Y-105481568D01*
X46482584Y-105577420D01*
X46738370Y-105635802D01*
X46738376Y-105635802D01*
X46738379Y-105635803D01*
X46934500Y-105650500D01*
X46934506Y-105650500D01*
X47065500Y-105650500D01*
X47261620Y-105635803D01*
X47261622Y-105635802D01*
X47261630Y-105635802D01*
X47517416Y-105577420D01*
X47761643Y-105481568D01*
X47988857Y-105350386D01*
X48099689Y-105261999D01*
X48164373Y-105235593D01*
X48233069Y-105248348D01*
X48283963Y-105296219D01*
X48301000Y-105358948D01*
X48301000Y-106059102D01*
X48281315Y-106126141D01*
X48264681Y-106146783D01*
X47346783Y-107064681D01*
X47285460Y-107098166D01*
X47259102Y-107101000D01*
X46022995Y-107101000D01*
X46019251Y-107100887D01*
X45957487Y-107097151D01*
X45957482Y-107097151D01*
X45905985Y-107106588D01*
X45896620Y-107108304D01*
X45892921Y-107108867D01*
X45831490Y-107116326D01*
X45831482Y-107116329D01*
X45822049Y-107119906D01*
X45800441Y-107125930D01*
X45790516Y-107127749D01*
X45734088Y-107153144D01*
X45730630Y-107154576D01*
X45672773Y-107176520D01*
X45672767Y-107176523D01*
X45664460Y-107182256D01*
X45644936Y-107193268D01*
X45635728Y-107197413D01*
X45587013Y-107235577D01*
X45583998Y-107237795D01*
X45533074Y-107272947D01*
X45533071Y-107272950D01*
X45492036Y-107319267D01*
X45489469Y-107321994D01*
X43870085Y-108941377D01*
X43867358Y-108943944D01*
X43821050Y-108984971D01*
X43821047Y-108984973D01*
X43785894Y-109035901D01*
X43783675Y-109038916D01*
X43745518Y-109087622D01*
X43745514Y-109087629D01*
X43741377Y-109096821D01*
X43730356Y-109116362D01*
X43724619Y-109124672D01*
X43702671Y-109182542D01*
X43701239Y-109186000D01*
X43675848Y-109242417D01*
X43674030Y-109252341D01*
X43668006Y-109273949D01*
X43664429Y-109283382D01*
X43664426Y-109283390D01*
X43656967Y-109344821D01*
X43656404Y-109348524D01*
X43645251Y-109409382D01*
X43645251Y-109409385D01*
X43648987Y-109471149D01*
X43649100Y-109474894D01*
X43649100Y-110716000D01*
X43629415Y-110783039D01*
X43576611Y-110828794D01*
X43525100Y-110840000D01*
X43424445Y-110840000D01*
X43363897Y-110846511D01*
X43363895Y-110846511D01*
X43226895Y-110897611D01*
X43109839Y-110985239D01*
X43022211Y-111102295D01*
X42971111Y-111239295D01*
X42971111Y-111239297D01*
X42964600Y-111299845D01*
X42964600Y-112209954D01*
X42971111Y-112270502D01*
X42971111Y-112270504D01*
X43006605Y-112365663D01*
X43022209Y-112407499D01*
X43022210Y-112407500D01*
X43022212Y-112407506D01*
X43038970Y-112429892D01*
X43063385Y-112495356D01*
X43048532Y-112563629D01*
X43038970Y-112578508D01*
X43022212Y-112600893D01*
X43022210Y-112600899D01*
X42971111Y-112737895D01*
X42971111Y-112737897D01*
X42964600Y-112798445D01*
X42964600Y-113708554D01*
X42971111Y-113769102D01*
X42971111Y-113769104D01*
X43020953Y-113902730D01*
X43022211Y-113906104D01*
X43109839Y-114023161D01*
X43226896Y-114110789D01*
X43363899Y-114161889D01*
X43391150Y-114164818D01*
X43424445Y-114168399D01*
X43424462Y-114168400D01*
X43598477Y-114168400D01*
X43665516Y-114188085D01*
X43711271Y-114240889D01*
X43714419Y-114248429D01*
X43724620Y-114275328D01*
X43730352Y-114283632D01*
X43741377Y-114303180D01*
X43745514Y-114312372D01*
X43783678Y-114361088D01*
X43785897Y-114364103D01*
X43821044Y-114415023D01*
X43821046Y-114415024D01*
X43821048Y-114415027D01*
X43867360Y-114456056D01*
X43870071Y-114458607D01*
X44129778Y-114718313D01*
X44389468Y-114978004D01*
X44392036Y-114980731D01*
X44433074Y-115027053D01*
X44484002Y-115062206D01*
X44487020Y-115064427D01*
X44535720Y-115102581D01*
X44535724Y-115102584D01*
X44544929Y-115106727D01*
X44564468Y-115117747D01*
X44572773Y-115123480D01*
X44630633Y-115145423D01*
X44634087Y-115146854D01*
X44690517Y-115172251D01*
X44700433Y-115174068D01*
X44722055Y-115180094D01*
X44731490Y-115183673D01*
X44731489Y-115183673D01*
X44759790Y-115187109D01*
X44792912Y-115191130D01*
X44796615Y-115191694D01*
X44817440Y-115195510D01*
X44857485Y-115202849D01*
X44857485Y-115202848D01*
X44857486Y-115202849D01*
X44919251Y-115199113D01*
X44922995Y-115199000D01*
X45314289Y-115199000D01*
X45381328Y-115218685D01*
X45427083Y-115271489D01*
X45437027Y-115340647D01*
X45408002Y-115404203D01*
X45397472Y-115414959D01*
X45393233Y-115418794D01*
X45378665Y-115431969D01*
X45184132Y-115662064D01*
X45022006Y-115916030D01*
X45022005Y-115916032D01*
X44906842Y-116164205D01*
X44895177Y-116189342D01*
X44895176Y-116189346D01*
X44805907Y-116477118D01*
X44787133Y-116588419D01*
X44755791Y-116774230D01*
X44746249Y-117059654D01*
X44745723Y-117075373D01*
X44775881Y-117375160D01*
X44775882Y-117375162D01*
X44845728Y-117668252D01*
X44845733Y-117668266D01*
X44954020Y-117949427D01*
X44954024Y-117949436D01*
X45098825Y-118213665D01*
X45098829Y-118213671D01*
X45206801Y-118360211D01*
X45277554Y-118456238D01*
X45277561Y-118456245D01*
X45487019Y-118672823D01*
X45723478Y-118859553D01*
X45723480Y-118859554D01*
X45723485Y-118859558D01*
X45982730Y-119013109D01*
X46260128Y-119130736D01*
X46550729Y-119210340D01*
X46849347Y-119250500D01*
X46849351Y-119250500D01*
X47075252Y-119250500D01*
X47239164Y-119239526D01*
X47300634Y-119235412D01*
X47595903Y-119175396D01*
X47880537Y-119076560D01*
X48149459Y-118940668D01*
X48397869Y-118770144D01*
X48621333Y-118568032D01*
X48815865Y-118337939D01*
X48977993Y-118083970D01*
X49104823Y-117810658D01*
X49194093Y-117522879D01*
X49244209Y-117225770D01*
X49254277Y-116924631D01*
X49224118Y-116624838D01*
X49154269Y-116331739D01*
X49045977Y-116050566D01*
X48901175Y-115786335D01*
X48722446Y-115543762D01*
X48592310Y-115409203D01*
X48559855Y-115347330D01*
X48566003Y-115277731D01*
X48608803Y-115222505D01*
X48674667Y-115199185D01*
X48681445Y-115199000D01*
X52245907Y-115199000D01*
X52287865Y-115206314D01*
X52502546Y-115283512D01*
X52823695Y-115398994D01*
X52856022Y-115409139D01*
X52862676Y-115411654D01*
X52878712Y-115418794D01*
X53065513Y-115458500D01*
X53128000Y-115458500D01*
X53195039Y-115478185D01*
X53240794Y-115530989D01*
X53252000Y-115582500D01*
X53252000Y-115716299D01*
X53232315Y-115783338D01*
X53179511Y-115829093D01*
X53110353Y-115839037D01*
X53067526Y-115824553D01*
X52878957Y-115719211D01*
X52654170Y-115639788D01*
X52419209Y-115599500D01*
X52419200Y-115599500D01*
X52240503Y-115599500D01*
X52240498Y-115599500D01*
X52062463Y-115614652D01*
X51831751Y-115674724D01*
X51614519Y-115772919D01*
X51614511Y-115772924D01*
X51417006Y-115906413D01*
X51416997Y-115906421D01*
X51244881Y-116071379D01*
X51103123Y-116263050D01*
X51103120Y-116263054D01*
X50995796Y-116475920D01*
X50995793Y-116475926D01*
X50925983Y-116703878D01*
X50895702Y-116940346D01*
X50905819Y-117178528D01*
X50905819Y-117178532D01*
X50956046Y-117411582D01*
X50956046Y-117411583D01*
X51040876Y-117622689D01*
X51047607Y-117692233D01*
X51015671Y-117754377D01*
X50955207Y-117789390D01*
X50916552Y-117792576D01*
X50875500Y-117789500D01*
X50875494Y-117789500D01*
X50744506Y-117789500D01*
X50744500Y-117789500D01*
X50548379Y-117804196D01*
X50548374Y-117804197D01*
X50292597Y-117862576D01*
X50292578Y-117862582D01*
X50048356Y-117958432D01*
X49821143Y-118089614D01*
X49616014Y-118253198D01*
X49437567Y-118445520D01*
X49289768Y-118662302D01*
X49289767Y-118662303D01*
X49175938Y-118898673D01*
X49098606Y-119149376D01*
X49098605Y-119149381D01*
X49098604Y-119149385D01*
X49088197Y-119218432D01*
X49059500Y-119408812D01*
X49059500Y-119671187D01*
X49072411Y-119756841D01*
X49098604Y-119930615D01*
X49098605Y-119930617D01*
X49098606Y-119930623D01*
X49175938Y-120181326D01*
X49289767Y-120417696D01*
X49289768Y-120417697D01*
X49289770Y-120417700D01*
X49289772Y-120417704D01*
X49338126Y-120488626D01*
X49437567Y-120634479D01*
X49616014Y-120826801D01*
X49616018Y-120826804D01*
X49616019Y-120826805D01*
X49670878Y-120870554D01*
X49711018Y-120927741D01*
X49713868Y-120997553D01*
X49678523Y-121057823D01*
X49616204Y-121089416D01*
X49593565Y-121091500D01*
X49361345Y-121091500D01*
X49300797Y-121098011D01*
X49300795Y-121098011D01*
X49163795Y-121149111D01*
X49046739Y-121236739D01*
X48959111Y-121353795D01*
X48908011Y-121490795D01*
X48908011Y-121490797D01*
X48901500Y-121551345D01*
X48901500Y-122303001D01*
X48881815Y-122370040D01*
X48829011Y-122415795D01*
X48759853Y-122425739D01*
X48696297Y-122396714D01*
X48659009Y-122339551D01*
X48647735Y-122303001D01*
X48634063Y-122258677D01*
X48581071Y-122148638D01*
X48520232Y-122022303D01*
X48520231Y-122022302D01*
X48520230Y-122022301D01*
X48520228Y-122022296D01*
X48372433Y-121805521D01*
X48362441Y-121794753D01*
X48193985Y-121613198D01*
X48116445Y-121551362D01*
X47988857Y-121449614D01*
X47761643Y-121318432D01*
X47517416Y-121222580D01*
X47517411Y-121222578D01*
X47517402Y-121222576D01*
X47299818Y-121172914D01*
X47261630Y-121164198D01*
X47261629Y-121164197D01*
X47261625Y-121164197D01*
X47261620Y-121164196D01*
X47065500Y-121149500D01*
X47065494Y-121149500D01*
X46934506Y-121149500D01*
X46934500Y-121149500D01*
X46738379Y-121164196D01*
X46738374Y-121164197D01*
X46482597Y-121222576D01*
X46482578Y-121222582D01*
X46238363Y-121318429D01*
X46238357Y-121318432D01*
X46195877Y-121342957D01*
X46127977Y-121359427D01*
X46061951Y-121336574D01*
X46022160Y-121289369D01*
X45980232Y-121202303D01*
X45980231Y-121202302D01*
X45980230Y-121202301D01*
X45980228Y-121202296D01*
X45832433Y-120985521D01*
X45742554Y-120888654D01*
X45653985Y-120793198D01*
X45614533Y-120761736D01*
X45448857Y-120629614D01*
X45221643Y-120498432D01*
X44977416Y-120402580D01*
X44977411Y-120402578D01*
X44977402Y-120402576D01*
X44759818Y-120352914D01*
X44721630Y-120344198D01*
X44721629Y-120344197D01*
X44721625Y-120344197D01*
X44721620Y-120344196D01*
X44525500Y-120329500D01*
X44525494Y-120329500D01*
X44394506Y-120329500D01*
X44394500Y-120329500D01*
X44198379Y-120344196D01*
X44198374Y-120344197D01*
X43942585Y-120402579D01*
X43858890Y-120435426D01*
X43789293Y-120441593D01*
X43727410Y-120409155D01*
X43695098Y-120356547D01*
X43641048Y-120181323D01*
X43634063Y-120158677D01*
X43622121Y-120133880D01*
X43520232Y-119922303D01*
X43520231Y-119922302D01*
X43520230Y-119922301D01*
X43520228Y-119922296D01*
X43372433Y-119705521D01*
X43340571Y-119671182D01*
X43193985Y-119513198D01*
X43116445Y-119451362D01*
X42988857Y-119349614D01*
X42761643Y-119218432D01*
X42517416Y-119122580D01*
X42517411Y-119122578D01*
X42517402Y-119122576D01*
X42299818Y-119072914D01*
X42261630Y-119064198D01*
X42261629Y-119064197D01*
X42261625Y-119064197D01*
X42261620Y-119064196D01*
X42065500Y-119049500D01*
X42065494Y-119049500D01*
X41934506Y-119049500D01*
X41934500Y-119049500D01*
X41738379Y-119064196D01*
X41738374Y-119064197D01*
X41482597Y-119122576D01*
X41482578Y-119122582D01*
X41238356Y-119218432D01*
X41011143Y-119349614D01*
X40806014Y-119513198D01*
X40627567Y-119705520D01*
X40592578Y-119756841D01*
X40544952Y-119826694D01*
X40490925Y-119870995D01*
X40421521Y-119879054D01*
X40358779Y-119848311D01*
X40322617Y-119788527D01*
X40318500Y-119756841D01*
X40318500Y-119451362D01*
X40318499Y-119451345D01*
X40313926Y-119408818D01*
X40311989Y-119390799D01*
X40260889Y-119253796D01*
X40173261Y-119136739D01*
X40102921Y-119084083D01*
X40056206Y-119049112D01*
X40056204Y-119049111D01*
X39925207Y-119000251D01*
X39875133Y-118965621D01*
X39530895Y-118571304D01*
X39326088Y-118336702D01*
X39296828Y-118273254D01*
X39295500Y-118255153D01*
X39295500Y-116940346D01*
X40295702Y-116940346D01*
X40305819Y-117178528D01*
X40305819Y-117178532D01*
X40356045Y-117411580D01*
X40440877Y-117622689D01*
X40444936Y-117632790D01*
X40569931Y-117835795D01*
X40727436Y-118014755D01*
X40912920Y-118164523D01*
X41121046Y-118280790D01*
X41238225Y-118322192D01*
X41345829Y-118360211D01*
X41580790Y-118400499D01*
X41580798Y-118400499D01*
X41580800Y-118400500D01*
X41580801Y-118400500D01*
X41759502Y-118400500D01*
X41937536Y-118385347D01*
X41937539Y-118385346D01*
X41937541Y-118385346D01*
X42168249Y-118325275D01*
X42327707Y-118253195D01*
X42385480Y-118227080D01*
X42385481Y-118227078D01*
X42385486Y-118227077D01*
X42583003Y-118093579D01*
X42755118Y-117928621D01*
X42896879Y-117736947D01*
X43004207Y-117524074D01*
X43074016Y-117296123D01*
X43104298Y-117059654D01*
X43094180Y-116821468D01*
X43083999Y-116774230D01*
X43043954Y-116588419D01*
X42955064Y-116367211D01*
X42955064Y-116367210D01*
X42830069Y-116164205D01*
X42672564Y-115985245D01*
X42487080Y-115835477D01*
X42373130Y-115771820D01*
X42278955Y-115719210D01*
X42054170Y-115639788D01*
X41819209Y-115599500D01*
X41819200Y-115599500D01*
X41640503Y-115599500D01*
X41640498Y-115599500D01*
X41462463Y-115614652D01*
X41231751Y-115674724D01*
X41014519Y-115772919D01*
X41014511Y-115772924D01*
X40817006Y-115906413D01*
X40816997Y-115906421D01*
X40644881Y-116071379D01*
X40503123Y-116263050D01*
X40503120Y-116263054D01*
X40395796Y-116475920D01*
X40395793Y-116475926D01*
X40325983Y-116703878D01*
X40295702Y-116940346D01*
X39295500Y-116940346D01*
X39295500Y-115926664D01*
X39315185Y-115859625D01*
X39367299Y-115814187D01*
X39785688Y-115620021D01*
X39837887Y-115608500D01*
X39923867Y-115608500D01*
X39923872Y-115608500D01*
X40024336Y-115598236D01*
X40187101Y-115544302D01*
X40333040Y-115454285D01*
X40454285Y-115333040D01*
X40544302Y-115187101D01*
X40598236Y-115024336D01*
X40608500Y-114923872D01*
X40608500Y-114376128D01*
X40598236Y-114275664D01*
X40544302Y-114112899D01*
X40544298Y-114112893D01*
X40544297Y-114112890D01*
X40454287Y-113966963D01*
X40454284Y-113966959D01*
X40333040Y-113845715D01*
X40333036Y-113845712D01*
X40187109Y-113755702D01*
X40187103Y-113755699D01*
X40187101Y-113755698D01*
X40024336Y-113701764D01*
X39923879Y-113691500D01*
X39923872Y-113691500D01*
X39076128Y-113691500D01*
X39076120Y-113691500D01*
X38975663Y-113701764D01*
X38812901Y-113755697D01*
X38812890Y-113755702D01*
X38666963Y-113845712D01*
X38666959Y-113845715D01*
X38545715Y-113966959D01*
X38545712Y-113966963D01*
X38455702Y-114112890D01*
X38455697Y-114112901D01*
X38401764Y-114275663D01*
X38391500Y-114376120D01*
X38391500Y-114491071D01*
X38384552Y-114531995D01*
X38213963Y-115019916D01*
X38184601Y-115066664D01*
X38182363Y-115068902D01*
X38178008Y-115074516D01*
X38174218Y-115078953D01*
X38141782Y-115113494D01*
X38141781Y-115113496D01*
X38131900Y-115131468D01*
X38121225Y-115147719D01*
X38108652Y-115163929D01*
X38108649Y-115163933D01*
X38089827Y-115207428D01*
X38087257Y-115212674D01*
X38064430Y-115254197D01*
X38059329Y-115274064D01*
X38053030Y-115292462D01*
X38044884Y-115311287D01*
X38044881Y-115311296D01*
X38037469Y-115358098D01*
X38036284Y-115363820D01*
X38024500Y-115409711D01*
X38024500Y-115430225D01*
X38022973Y-115449624D01*
X38019765Y-115469877D01*
X38024225Y-115517059D01*
X38024500Y-115522897D01*
X38024500Y-118255153D01*
X38004815Y-118322192D01*
X37993912Y-118336702D01*
X37717912Y-118652853D01*
X37658995Y-118690410D01*
X37589125Y-118690151D01*
X37530487Y-118652160D01*
X37501698Y-118588497D01*
X37500500Y-118571304D01*
X37500500Y-113428133D01*
X41025668Y-113428133D01*
X41041058Y-113515410D01*
X41056135Y-113600911D01*
X41125623Y-113762004D01*
X41125624Y-113762006D01*
X41125626Y-113762009D01*
X41230390Y-113902730D01*
X41364786Y-114015502D01*
X41442488Y-114054525D01*
X41521562Y-114094238D01*
X41521563Y-114094238D01*
X41521567Y-114094240D01*
X41692279Y-114134700D01*
X41692282Y-114134700D01*
X41823701Y-114134700D01*
X41823709Y-114134700D01*
X41954255Y-114119441D01*
X42119117Y-114059437D01*
X42265696Y-113963030D01*
X42386092Y-113835418D01*
X42473812Y-113683481D01*
X42524130Y-113515410D01*
X42534331Y-113340265D01*
X42503865Y-113167489D01*
X42434377Y-113006396D01*
X42329610Y-112865670D01*
X42257747Y-112805370D01*
X42195214Y-112752898D01*
X42195212Y-112752897D01*
X42038437Y-112674161D01*
X42038433Y-112674160D01*
X41867721Y-112633700D01*
X41736291Y-112633700D01*
X41631854Y-112645907D01*
X41605743Y-112648959D01*
X41605740Y-112648960D01*
X41440884Y-112708962D01*
X41440880Y-112708964D01*
X41294306Y-112805367D01*
X41294305Y-112805368D01*
X41173910Y-112932978D01*
X41086188Y-113084918D01*
X41035870Y-113252989D01*
X41035869Y-113252994D01*
X41025668Y-113428133D01*
X37500500Y-113428133D01*
X37500500Y-111623879D01*
X38391500Y-111623879D01*
X38401764Y-111724336D01*
X38455697Y-111887098D01*
X38455702Y-111887109D01*
X38545712Y-112033036D01*
X38545715Y-112033040D01*
X38666959Y-112154284D01*
X38666963Y-112154287D01*
X38812890Y-112244297D01*
X38812893Y-112244298D01*
X38812899Y-112244302D01*
X38975664Y-112298236D01*
X39076128Y-112308500D01*
X39076133Y-112308500D01*
X39923867Y-112308500D01*
X39923872Y-112308500D01*
X40024336Y-112298236D01*
X40187101Y-112244302D01*
X40333040Y-112154285D01*
X40454285Y-112033040D01*
X40544302Y-111887101D01*
X40598236Y-111724336D01*
X40608500Y-111623872D01*
X40608500Y-111076128D01*
X40598236Y-110975664D01*
X40544302Y-110812899D01*
X40544298Y-110812893D01*
X40544297Y-110812890D01*
X40454287Y-110666963D01*
X40454286Y-110666962D01*
X40454285Y-110666960D01*
X40333040Y-110545715D01*
X40333039Y-110545714D01*
X40333038Y-110545713D01*
X40330042Y-110543865D01*
X40293309Y-110509080D01*
X40157664Y-110313835D01*
X40135580Y-110247547D01*
X40135500Y-110243085D01*
X40135500Y-109585094D01*
X40137515Y-109562833D01*
X40154247Y-109471149D01*
X40186780Y-109292877D01*
X40192824Y-109271172D01*
X40192965Y-109270801D01*
X40197025Y-109237355D01*
X40197580Y-109233703D01*
X40204673Y-109194841D01*
X40207742Y-109172519D01*
X40208976Y-109159263D01*
X40208902Y-109143588D01*
X40209354Y-109135818D01*
X40213704Y-109100000D01*
X40192965Y-108929199D01*
X40131954Y-108768325D01*
X40034215Y-108626727D01*
X40034213Y-108626725D01*
X40034210Y-108626722D01*
X39905432Y-108512634D01*
X39828487Y-108472250D01*
X39753083Y-108432675D01*
X39753082Y-108432674D01*
X39753079Y-108432673D01*
X39586028Y-108391500D01*
X39413972Y-108391500D01*
X39246920Y-108432673D01*
X39094567Y-108512634D01*
X38965789Y-108626722D01*
X38965786Y-108626725D01*
X38868045Y-108768326D01*
X38807034Y-108929198D01*
X38786296Y-109099999D01*
X38786296Y-109100001D01*
X38796221Y-109181751D01*
X38796629Y-109186885D01*
X38797348Y-109205915D01*
X38802417Y-109233693D01*
X38802972Y-109237347D01*
X38807033Y-109270795D01*
X38807034Y-109270799D01*
X38807035Y-109270801D01*
X38807180Y-109271184D01*
X38813218Y-109292877D01*
X38862485Y-109562827D01*
X38864500Y-109585090D01*
X38864500Y-110243087D01*
X38844815Y-110310126D01*
X38842335Y-110313837D01*
X38706688Y-110509082D01*
X38669958Y-110543865D01*
X38666966Y-110545710D01*
X38666957Y-110545717D01*
X38545715Y-110666959D01*
X38545712Y-110666963D01*
X38455702Y-110812890D01*
X38455697Y-110812901D01*
X38401764Y-110975663D01*
X38391500Y-111076120D01*
X38391500Y-111623879D01*
X37500500Y-111623879D01*
X37500500Y-103732500D01*
X37520185Y-103665461D01*
X37572989Y-103619706D01*
X37624500Y-103608500D01*
X38527500Y-103608500D01*
X38594539Y-103628185D01*
G37*
G04 #@! TD.AperFunction*
G04 #@! TA.AperFunction,Conductor*
G36*
X53205117Y-108046714D02*
G01*
X53245373Y-108103822D01*
X53252000Y-108143817D01*
X53252000Y-113517500D01*
X53232315Y-113584539D01*
X53179511Y-113630294D01*
X53128000Y-113641500D01*
X53088218Y-113641500D01*
X53021179Y-113621815D01*
X52975424Y-113569011D01*
X52964428Y-113510290D01*
X52974331Y-113340265D01*
X52943865Y-113167489D01*
X52874377Y-113006396D01*
X52769610Y-112865670D01*
X52697747Y-112805370D01*
X52635214Y-112752898D01*
X52635212Y-112752897D01*
X52478437Y-112674161D01*
X52478433Y-112674160D01*
X52307721Y-112633700D01*
X52176291Y-112633700D01*
X52071854Y-112645907D01*
X52045743Y-112648959D01*
X52045740Y-112648960D01*
X51880884Y-112708962D01*
X51880880Y-112708964D01*
X51734306Y-112805367D01*
X51734305Y-112805368D01*
X51613910Y-112932978D01*
X51526188Y-113084918D01*
X51475870Y-113252989D01*
X51475869Y-113252994D01*
X51465668Y-113428133D01*
X51481058Y-113515410D01*
X51496135Y-113600911D01*
X51505152Y-113621815D01*
X51507772Y-113627888D01*
X51516249Y-113697241D01*
X51485885Y-113760168D01*
X51426320Y-113796690D01*
X51393912Y-113801000D01*
X50877000Y-113801000D01*
X50809961Y-113781315D01*
X50764206Y-113728511D01*
X50753000Y-113677000D01*
X50753000Y-113503500D01*
X49252000Y-113503500D01*
X49184961Y-113483815D01*
X49139206Y-113431011D01*
X49128000Y-113379500D01*
X49128000Y-113127500D01*
X49147685Y-113060461D01*
X49200489Y-113014706D01*
X49252000Y-113003500D01*
X50753000Y-113003500D01*
X50753000Y-112799272D01*
X50752999Y-112799255D01*
X50746598Y-112739727D01*
X50746596Y-112739720D01*
X50696354Y-112605013D01*
X50696350Y-112605006D01*
X50681823Y-112585600D01*
X50657406Y-112520136D01*
X50672258Y-112451863D01*
X50681820Y-112436983D01*
X50703889Y-112407504D01*
X50740816Y-112308500D01*
X50754987Y-112270507D01*
X50754988Y-112270504D01*
X50754989Y-112270501D01*
X50758591Y-112236992D01*
X50761499Y-112209954D01*
X50761500Y-112209937D01*
X50761500Y-111299862D01*
X50761499Y-111299845D01*
X50758157Y-111268770D01*
X50754989Y-111239299D01*
X50703889Y-111102296D01*
X50616261Y-110985239D01*
X50499204Y-110897611D01*
X50362203Y-110846511D01*
X50301654Y-110840000D01*
X50301638Y-110840000D01*
X50258093Y-110840000D01*
X50191054Y-110820315D01*
X50145299Y-110767511D01*
X50135355Y-110698353D01*
X50164380Y-110634797D01*
X50170412Y-110628319D01*
X51235904Y-109562827D01*
X52492527Y-108306204D01*
X52528883Y-108281008D01*
X53055318Y-108041681D01*
X53071708Y-108033330D01*
X53140377Y-108020436D01*
X53205117Y-108046714D01*
G37*
G04 #@! TD.AperFunction*
G04 #@! TA.AperFunction,Conductor*
G36*
X38594539Y-84628185D02*
G01*
X38640294Y-84680989D01*
X38651500Y-84732500D01*
X38651500Y-86313654D01*
X38658011Y-86374202D01*
X38658011Y-86374204D01*
X38698057Y-86481567D01*
X38709111Y-86511204D01*
X38796739Y-86628261D01*
X38913796Y-86715889D01*
X39050799Y-86766989D01*
X39078050Y-86769918D01*
X39111345Y-86773499D01*
X39111362Y-86773500D01*
X42708638Y-86773500D01*
X42708654Y-86773499D01*
X42735692Y-86770591D01*
X42769201Y-86766989D01*
X42906204Y-86715889D01*
X43023261Y-86628261D01*
X43110889Y-86511204D01*
X43161989Y-86374201D01*
X43165591Y-86340692D01*
X43168499Y-86313654D01*
X43168500Y-86313637D01*
X43168500Y-85546524D01*
X43188185Y-85479485D01*
X43240989Y-85433730D01*
X43310147Y-85423786D01*
X43369810Y-85449575D01*
X43471143Y-85530386D01*
X43698357Y-85661568D01*
X43942584Y-85757420D01*
X44198370Y-85815802D01*
X44198376Y-85815802D01*
X44198379Y-85815803D01*
X44394500Y-85830500D01*
X44394506Y-85830500D01*
X44525500Y-85830500D01*
X44721620Y-85815803D01*
X44721622Y-85815802D01*
X44721630Y-85815802D01*
X44977416Y-85757420D01*
X45221643Y-85661568D01*
X45221646Y-85661566D01*
X45221647Y-85661566D01*
X45264118Y-85637045D01*
X45332018Y-85620571D01*
X45398045Y-85643423D01*
X45437839Y-85690630D01*
X45479767Y-85777695D01*
X45479768Y-85777697D01*
X45479770Y-85777700D01*
X45479772Y-85777704D01*
X45505747Y-85815802D01*
X45627567Y-85994479D01*
X45806014Y-86186801D01*
X45806018Y-86186804D01*
X45806019Y-86186805D01*
X46011143Y-86350386D01*
X46238357Y-86481568D01*
X46482584Y-86577420D01*
X46738370Y-86635802D01*
X46738376Y-86635802D01*
X46738379Y-86635803D01*
X46934500Y-86650500D01*
X46934506Y-86650500D01*
X47065500Y-86650500D01*
X47261620Y-86635803D01*
X47261622Y-86635802D01*
X47261630Y-86635802D01*
X47517416Y-86577420D01*
X47761643Y-86481568D01*
X47988857Y-86350386D01*
X48099689Y-86261999D01*
X48164373Y-86235593D01*
X48233069Y-86248348D01*
X48283963Y-86296219D01*
X48301000Y-86358948D01*
X48301000Y-87059102D01*
X48281315Y-87126141D01*
X48264681Y-87146783D01*
X47346783Y-88064681D01*
X47285460Y-88098166D01*
X47259102Y-88101000D01*
X46022995Y-88101000D01*
X46019251Y-88100887D01*
X45957487Y-88097151D01*
X45957482Y-88097151D01*
X45905985Y-88106588D01*
X45896620Y-88108304D01*
X45892921Y-88108867D01*
X45831490Y-88116326D01*
X45831482Y-88116329D01*
X45822049Y-88119906D01*
X45800441Y-88125930D01*
X45790516Y-88127749D01*
X45734088Y-88153144D01*
X45730630Y-88154576D01*
X45672773Y-88176520D01*
X45672767Y-88176523D01*
X45664460Y-88182256D01*
X45644936Y-88193268D01*
X45635728Y-88197413D01*
X45587013Y-88235577D01*
X45583998Y-88237795D01*
X45533074Y-88272947D01*
X45533071Y-88272950D01*
X45492036Y-88319267D01*
X45489469Y-88321994D01*
X43870085Y-89941377D01*
X43867358Y-89943944D01*
X43821050Y-89984971D01*
X43821047Y-89984973D01*
X43785894Y-90035901D01*
X43783675Y-90038916D01*
X43745518Y-90087622D01*
X43745514Y-90087629D01*
X43741377Y-90096821D01*
X43730356Y-90116362D01*
X43724619Y-90124672D01*
X43702671Y-90182542D01*
X43701239Y-90186000D01*
X43675848Y-90242417D01*
X43674030Y-90252341D01*
X43668006Y-90273949D01*
X43664429Y-90283382D01*
X43664426Y-90283390D01*
X43656967Y-90344821D01*
X43656404Y-90348524D01*
X43645251Y-90409382D01*
X43645251Y-90409385D01*
X43648987Y-90471149D01*
X43649100Y-90474894D01*
X43649100Y-91716000D01*
X43629415Y-91783039D01*
X43576611Y-91828794D01*
X43525100Y-91840000D01*
X43424445Y-91840000D01*
X43363897Y-91846511D01*
X43363895Y-91846511D01*
X43226895Y-91897611D01*
X43109839Y-91985239D01*
X43022211Y-92102295D01*
X42971111Y-92239295D01*
X42971111Y-92239297D01*
X42964600Y-92299845D01*
X42964600Y-92469175D01*
X42944915Y-92536214D01*
X42931485Y-92553530D01*
X42682328Y-92821975D01*
X42649203Y-92860989D01*
X42649030Y-92860842D01*
X42640751Y-92870711D01*
X42521993Y-92989469D01*
X42519267Y-92992036D01*
X42472950Y-93033070D01*
X42472947Y-93033073D01*
X42437794Y-93084001D01*
X42435575Y-93087016D01*
X42397418Y-93135722D01*
X42397414Y-93135729D01*
X42393277Y-93144921D01*
X42382256Y-93164462D01*
X42376519Y-93172772D01*
X42354571Y-93230642D01*
X42353139Y-93234100D01*
X42327748Y-93290517D01*
X42325930Y-93300441D01*
X42319906Y-93322049D01*
X42316329Y-93331482D01*
X42316326Y-93331490D01*
X42308867Y-93392921D01*
X42308304Y-93396624D01*
X42297151Y-93457482D01*
X42297151Y-93457485D01*
X42300887Y-93519249D01*
X42301000Y-93522994D01*
X42301000Y-93604991D01*
X42281315Y-93672030D01*
X42228511Y-93717785D01*
X42159353Y-93727729D01*
X42121349Y-93715802D01*
X42107733Y-93708964D01*
X42038433Y-93674160D01*
X41867721Y-93633700D01*
X41736291Y-93633700D01*
X41631854Y-93645907D01*
X41605743Y-93648959D01*
X41605740Y-93648960D01*
X41440884Y-93708962D01*
X41440880Y-93708964D01*
X41294306Y-93805367D01*
X41294305Y-93805368D01*
X41173910Y-93932978D01*
X41086188Y-94084918D01*
X41035870Y-94252989D01*
X41035869Y-94252994D01*
X41025668Y-94428133D01*
X41041058Y-94515410D01*
X41056135Y-94600911D01*
X41125623Y-94762004D01*
X41125624Y-94762006D01*
X41125626Y-94762009D01*
X41190129Y-94848650D01*
X41230390Y-94902730D01*
X41364786Y-95015502D01*
X41442488Y-95054525D01*
X41521562Y-95094238D01*
X41521563Y-95094238D01*
X41521567Y-95094240D01*
X41692279Y-95134700D01*
X41692282Y-95134700D01*
X41823701Y-95134700D01*
X41823709Y-95134700D01*
X41954255Y-95119441D01*
X42119117Y-95059437D01*
X42193825Y-95010300D01*
X42260651Y-94989908D01*
X42327895Y-95008882D01*
X42372889Y-95059711D01*
X42373034Y-95059636D01*
X42373342Y-95060223D01*
X42374206Y-95061199D01*
X42375679Y-95064675D01*
X42376519Y-95066276D01*
X42382252Y-95074582D01*
X42393277Y-95094130D01*
X42397414Y-95103322D01*
X42435578Y-95152038D01*
X42437797Y-95155053D01*
X42472946Y-95205975D01*
X42472947Y-95205976D01*
X42472948Y-95205977D01*
X42519277Y-95247021D01*
X42521969Y-95249555D01*
X42804409Y-95531995D01*
X43064681Y-95792267D01*
X43098166Y-95853590D01*
X43101000Y-95879948D01*
X43101000Y-97166333D01*
X43081315Y-97233372D01*
X43028511Y-97279127D01*
X42959353Y-97289071D01*
X42895797Y-97260046D01*
X42871411Y-97231348D01*
X42830069Y-97164205D01*
X42830068Y-97164203D01*
X42672564Y-96985245D01*
X42634498Y-96954509D01*
X42487080Y-96835477D01*
X42366247Y-96767975D01*
X42278955Y-96719210D01*
X42054170Y-96639788D01*
X41819209Y-96599500D01*
X41819200Y-96599500D01*
X41640503Y-96599500D01*
X41640498Y-96599500D01*
X41462463Y-96614652D01*
X41231751Y-96674724D01*
X41014519Y-96772919D01*
X41014511Y-96772924D01*
X40817006Y-96906413D01*
X40816997Y-96906421D01*
X40644881Y-97071379D01*
X40503123Y-97263050D01*
X40503120Y-97263054D01*
X40395796Y-97475920D01*
X40395793Y-97475926D01*
X40325983Y-97703878D01*
X40295702Y-97940346D01*
X40305819Y-98178528D01*
X40305819Y-98178532D01*
X40356045Y-98411580D01*
X40444935Y-98632788D01*
X40444936Y-98632790D01*
X40569539Y-98835159D01*
X40569932Y-98835796D01*
X40695042Y-98977949D01*
X40727436Y-99014755D01*
X40912920Y-99164523D01*
X41121046Y-99280790D01*
X41345829Y-99360211D01*
X41580790Y-99400499D01*
X41580798Y-99400499D01*
X41580800Y-99400500D01*
X41580801Y-99400500D01*
X41759502Y-99400500D01*
X41937536Y-99385347D01*
X41937539Y-99385346D01*
X41937541Y-99385346D01*
X42168249Y-99325275D01*
X42334939Y-99249926D01*
X42385480Y-99227080D01*
X42385481Y-99227078D01*
X42385486Y-99227077D01*
X42583003Y-99093579D01*
X42755118Y-98928621D01*
X42873236Y-98768913D01*
X42928926Y-98726719D01*
X42998588Y-98721331D01*
X43060104Y-98754460D01*
X43093944Y-98815589D01*
X43096706Y-98835159D01*
X43097151Y-98842516D01*
X43108304Y-98903375D01*
X43108867Y-98907078D01*
X43116327Y-98968510D01*
X43119906Y-98977949D01*
X43125930Y-98999558D01*
X43127749Y-99009482D01*
X43127750Y-99009485D01*
X43153141Y-99065904D01*
X43154574Y-99069364D01*
X43176518Y-99127225D01*
X43176519Y-99127226D01*
X43182252Y-99135532D01*
X43193277Y-99155080D01*
X43197414Y-99164272D01*
X43197415Y-99164273D01*
X43197416Y-99164275D01*
X43205258Y-99174284D01*
X43235578Y-99212988D01*
X43237797Y-99216003D01*
X43272946Y-99266925D01*
X43272947Y-99266926D01*
X43272948Y-99266927D01*
X43319277Y-99307971D01*
X43321969Y-99310505D01*
X44330724Y-100319259D01*
X45275884Y-101264419D01*
X45309369Y-101325742D01*
X45304385Y-101395434D01*
X45262513Y-101451367D01*
X45197049Y-101475784D01*
X45142901Y-101467528D01*
X44977421Y-101402582D01*
X44977416Y-101402580D01*
X44977411Y-101402578D01*
X44977402Y-101402576D01*
X44759818Y-101352914D01*
X44721630Y-101344198D01*
X44721629Y-101344197D01*
X44721625Y-101344197D01*
X44721620Y-101344196D01*
X44525500Y-101329500D01*
X44525494Y-101329500D01*
X44394506Y-101329500D01*
X44394500Y-101329500D01*
X44198379Y-101344196D01*
X44198374Y-101344197D01*
X43942585Y-101402579D01*
X43858890Y-101435426D01*
X43789293Y-101441593D01*
X43727410Y-101409155D01*
X43695098Y-101356547D01*
X43666680Y-101264419D01*
X43634063Y-101158677D01*
X43594461Y-101076442D01*
X43520232Y-100922303D01*
X43520231Y-100922302D01*
X43520230Y-100922301D01*
X43520228Y-100922296D01*
X43372433Y-100705521D01*
X43340571Y-100671182D01*
X43193985Y-100513198D01*
X43116445Y-100451362D01*
X42988857Y-100349614D01*
X42761643Y-100218432D01*
X42517416Y-100122580D01*
X42517411Y-100122578D01*
X42517402Y-100122576D01*
X42299818Y-100072914D01*
X42261630Y-100064198D01*
X42261629Y-100064197D01*
X42261625Y-100064197D01*
X42261620Y-100064196D01*
X42065500Y-100049500D01*
X42065494Y-100049500D01*
X41934506Y-100049500D01*
X41934500Y-100049500D01*
X41738379Y-100064196D01*
X41738374Y-100064197D01*
X41482597Y-100122576D01*
X41482578Y-100122582D01*
X41238356Y-100218432D01*
X41011143Y-100349614D01*
X40806014Y-100513198D01*
X40627567Y-100705520D01*
X40592578Y-100756841D01*
X40544952Y-100826694D01*
X40490925Y-100870995D01*
X40421521Y-100879054D01*
X40358779Y-100848311D01*
X40322617Y-100788527D01*
X40318500Y-100756841D01*
X40318500Y-100451362D01*
X40318499Y-100451345D01*
X40313926Y-100408818D01*
X40311989Y-100390799D01*
X40260889Y-100253796D01*
X40173261Y-100136739D01*
X40056204Y-100049111D01*
X40032359Y-100040217D01*
X39919204Y-99998011D01*
X39907010Y-99996700D01*
X39842460Y-99969960D01*
X39828075Y-99956333D01*
X39776218Y-99898677D01*
X39660610Y-99770139D01*
X39267305Y-99332848D01*
X39237109Y-99269840D01*
X39235500Y-99249926D01*
X39235500Y-96954509D01*
X39255185Y-96887470D01*
X39307299Y-96842032D01*
X39785688Y-96620021D01*
X39837887Y-96608500D01*
X39923867Y-96608500D01*
X39923872Y-96608500D01*
X40024336Y-96598236D01*
X40187101Y-96544302D01*
X40333040Y-96454285D01*
X40454285Y-96333040D01*
X40544302Y-96187101D01*
X40598236Y-96024336D01*
X40608500Y-95923872D01*
X40608500Y-95376128D01*
X40598236Y-95275664D01*
X40544302Y-95112899D01*
X40544298Y-95112893D01*
X40544297Y-95112890D01*
X40454287Y-94966963D01*
X40454284Y-94966959D01*
X40333040Y-94845715D01*
X40333036Y-94845712D01*
X40187109Y-94755702D01*
X40187103Y-94755699D01*
X40187101Y-94755698D01*
X40024336Y-94701764D01*
X39923879Y-94691500D01*
X39923872Y-94691500D01*
X39076128Y-94691500D01*
X39076120Y-94691500D01*
X38975663Y-94701764D01*
X38812901Y-94755697D01*
X38812890Y-94755702D01*
X38666963Y-94845712D01*
X38666959Y-94845715D01*
X38545715Y-94966959D01*
X38545712Y-94966963D01*
X38455702Y-95112890D01*
X38455697Y-95112901D01*
X38401764Y-95275663D01*
X38391500Y-95376120D01*
X38391500Y-95491071D01*
X38384552Y-95531995D01*
X38215495Y-96015533D01*
X38188836Y-96059492D01*
X38143573Y-96107693D01*
X38122366Y-96128900D01*
X38122363Y-96128902D01*
X38118008Y-96134516D01*
X38114218Y-96138953D01*
X38081782Y-96173494D01*
X38081781Y-96173496D01*
X38071900Y-96191468D01*
X38061225Y-96207719D01*
X38048652Y-96223929D01*
X38048649Y-96223933D01*
X38029827Y-96267428D01*
X38027257Y-96272674D01*
X38004430Y-96314197D01*
X37999329Y-96334064D01*
X37993030Y-96352462D01*
X37984884Y-96371287D01*
X37984881Y-96371296D01*
X37977469Y-96418098D01*
X37976284Y-96423820D01*
X37964500Y-96469711D01*
X37964500Y-96490225D01*
X37962972Y-96509624D01*
X37959765Y-96529879D01*
X37962901Y-96563056D01*
X37964225Y-96577059D01*
X37964500Y-96582897D01*
X37964500Y-99260343D01*
X37944815Y-99327382D01*
X37935108Y-99340501D01*
X37719108Y-99595439D01*
X37660753Y-99633863D01*
X37590887Y-99634638D01*
X37531694Y-99597518D01*
X37501965Y-99534289D01*
X37500500Y-99515281D01*
X37500500Y-92623879D01*
X38391500Y-92623879D01*
X38401764Y-92724336D01*
X38455697Y-92887098D01*
X38455702Y-92887109D01*
X38545712Y-93033036D01*
X38545715Y-93033040D01*
X38666959Y-93154284D01*
X38666963Y-93154287D01*
X38812890Y-93244297D01*
X38812893Y-93244298D01*
X38812899Y-93244302D01*
X38975664Y-93298236D01*
X39076128Y-93308500D01*
X39076133Y-93308500D01*
X39923867Y-93308500D01*
X39923872Y-93308500D01*
X40024336Y-93298236D01*
X40187101Y-93244302D01*
X40333040Y-93154285D01*
X40454285Y-93033040D01*
X40544302Y-92887101D01*
X40598236Y-92724336D01*
X40608500Y-92623872D01*
X40608500Y-92076128D01*
X40598236Y-91975664D01*
X40544302Y-91812899D01*
X40544301Y-91812897D01*
X40544300Y-91812894D01*
X40516244Y-91767411D01*
X40497802Y-91700019D01*
X40518723Y-91633355D01*
X40534095Y-91614636D01*
X40890075Y-91258656D01*
X40902458Y-91248738D01*
X40902286Y-91248530D01*
X40908292Y-91243559D01*
X40908303Y-91243553D01*
X40956426Y-91192306D01*
X40977639Y-91171094D01*
X40981983Y-91165492D01*
X40985770Y-91161057D01*
X41018217Y-91126506D01*
X41028099Y-91108529D01*
X41038771Y-91092282D01*
X41051350Y-91076066D01*
X41070174Y-91032563D01*
X41072739Y-91027329D01*
X41080425Y-91013350D01*
X41095569Y-90985803D01*
X41100669Y-90965935D01*
X41106967Y-90947538D01*
X41115117Y-90928707D01*
X41122530Y-90881901D01*
X41123715Y-90876177D01*
X41135500Y-90830282D01*
X41135500Y-90809773D01*
X41137027Y-90790373D01*
X41140235Y-90770120D01*
X41137523Y-90741435D01*
X41135775Y-90722938D01*
X41135500Y-90717100D01*
X41135500Y-90585094D01*
X41137515Y-90562833D01*
X41147936Y-90505728D01*
X41186780Y-90292877D01*
X41192824Y-90271172D01*
X41192965Y-90270801D01*
X41197025Y-90237355D01*
X41197580Y-90233703D01*
X41204673Y-90194841D01*
X41207742Y-90172519D01*
X41208976Y-90159263D01*
X41208902Y-90143588D01*
X41209354Y-90135818D01*
X41213704Y-90100000D01*
X41192965Y-89929199D01*
X41131954Y-89768325D01*
X41034215Y-89626727D01*
X41034213Y-89626725D01*
X41034210Y-89626722D01*
X40905432Y-89512634D01*
X40828487Y-89472250D01*
X40753083Y-89432675D01*
X40753082Y-89432674D01*
X40753079Y-89432673D01*
X40586028Y-89391500D01*
X40413972Y-89391500D01*
X40246920Y-89432673D01*
X40094567Y-89512634D01*
X39965789Y-89626722D01*
X39965786Y-89626725D01*
X39868045Y-89768326D01*
X39807034Y-89929198D01*
X39786296Y-90099999D01*
X39786296Y-90100001D01*
X39796221Y-90181751D01*
X39796629Y-90186885D01*
X39797348Y-90205915D01*
X39802417Y-90233693D01*
X39802972Y-90237347D01*
X39807033Y-90270795D01*
X39807034Y-90270799D01*
X39807035Y-90270801D01*
X39807180Y-90271184D01*
X39813218Y-90292878D01*
X39839382Y-90436244D01*
X39832053Y-90505728D01*
X39805078Y-90546187D01*
X39291088Y-91060177D01*
X39275743Y-91073211D01*
X39258218Y-91085797D01*
X38925448Y-91405646D01*
X38878525Y-91433951D01*
X38855088Y-91441718D01*
X38812899Y-91455698D01*
X38812890Y-91455702D01*
X38666963Y-91545712D01*
X38666959Y-91545715D01*
X38545715Y-91666959D01*
X38545712Y-91666963D01*
X38455702Y-91812890D01*
X38455697Y-91812901D01*
X38401764Y-91975663D01*
X38391500Y-92076120D01*
X38391500Y-92623879D01*
X37500500Y-92623879D01*
X37500500Y-84732500D01*
X37520185Y-84665461D01*
X37572989Y-84619706D01*
X37624500Y-84608500D01*
X38527500Y-84608500D01*
X38594539Y-84628185D01*
G37*
G04 #@! TD.AperFunction*
G04 #@! TA.AperFunction,Conductor*
G36*
X53181863Y-89063779D02*
G01*
X53219537Y-89122622D01*
X53224500Y-89157353D01*
X53224500Y-96700936D01*
X53204815Y-96767975D01*
X53152011Y-96813730D01*
X53082853Y-96823674D01*
X53040026Y-96809190D01*
X52878957Y-96719211D01*
X52654170Y-96639788D01*
X52419209Y-96599500D01*
X52419200Y-96599500D01*
X52240503Y-96599500D01*
X52240498Y-96599500D01*
X52062463Y-96614652D01*
X51831751Y-96674724D01*
X51614519Y-96772919D01*
X51614511Y-96772924D01*
X51417006Y-96906413D01*
X51416997Y-96906421D01*
X51244882Y-97071379D01*
X51229332Y-97092403D01*
X51173640Y-97134596D01*
X51103979Y-97139982D01*
X51042464Y-97106851D01*
X51008626Y-97045722D01*
X51006319Y-97031640D01*
X50993542Y-96910072D01*
X50934527Y-96728444D01*
X50839040Y-96563056D01*
X50721008Y-96431968D01*
X50711254Y-96421135D01*
X50556755Y-96308884D01*
X50556754Y-96308883D01*
X50556752Y-96308882D01*
X50491557Y-96279855D01*
X50475148Y-96271014D01*
X50469547Y-96267428D01*
X50455318Y-96258318D01*
X50455315Y-96258316D01*
X50455311Y-96258314D01*
X49928883Y-96018989D01*
X49892521Y-95993788D01*
X49164319Y-95265586D01*
X49130834Y-95204263D01*
X49128000Y-95177905D01*
X49128000Y-94503500D01*
X49628000Y-94503500D01*
X49628000Y-95159900D01*
X50300828Y-95159900D01*
X50300844Y-95159899D01*
X50360372Y-95153498D01*
X50360379Y-95153496D01*
X50495086Y-95103254D01*
X50495093Y-95103250D01*
X50610187Y-95017090D01*
X50610190Y-95017087D01*
X50696350Y-94901993D01*
X50696354Y-94901986D01*
X50746596Y-94767279D01*
X50746598Y-94767272D01*
X50752999Y-94707744D01*
X50753000Y-94707727D01*
X50753000Y-94503500D01*
X49628000Y-94503500D01*
X49128000Y-94503500D01*
X49128000Y-94428133D01*
X51465668Y-94428133D01*
X51481058Y-94515410D01*
X51496135Y-94600911D01*
X51565623Y-94762004D01*
X51565624Y-94762006D01*
X51565626Y-94762009D01*
X51630129Y-94848650D01*
X51670390Y-94902730D01*
X51804786Y-95015502D01*
X51882488Y-95054525D01*
X51961562Y-95094238D01*
X51961563Y-95094238D01*
X51961567Y-95094240D01*
X52132279Y-95134700D01*
X52132282Y-95134700D01*
X52263701Y-95134700D01*
X52263709Y-95134700D01*
X52394255Y-95119441D01*
X52559117Y-95059437D01*
X52705696Y-94963030D01*
X52826092Y-94835418D01*
X52913812Y-94683481D01*
X52964130Y-94515410D01*
X52974331Y-94340265D01*
X52943865Y-94167489D01*
X52874377Y-94006396D01*
X52769610Y-93865670D01*
X52697747Y-93805370D01*
X52635214Y-93752898D01*
X52635212Y-93752897D01*
X52478437Y-93674161D01*
X52469446Y-93672030D01*
X52307721Y-93633700D01*
X52176291Y-93633700D01*
X52071854Y-93645907D01*
X52045743Y-93648959D01*
X52045740Y-93648960D01*
X51880884Y-93708962D01*
X51880880Y-93708964D01*
X51734306Y-93805367D01*
X51734305Y-93805368D01*
X51613910Y-93932978D01*
X51526188Y-94084918D01*
X51475870Y-94252989D01*
X51475869Y-94252994D01*
X51465668Y-94428133D01*
X49128000Y-94428133D01*
X49128000Y-94127500D01*
X49147685Y-94060461D01*
X49200489Y-94014706D01*
X49252000Y-94003500D01*
X50753000Y-94003500D01*
X50753000Y-93799272D01*
X50752999Y-93799255D01*
X50746598Y-93739727D01*
X50746596Y-93739720D01*
X50696354Y-93605013D01*
X50696350Y-93605006D01*
X50681823Y-93585600D01*
X50657406Y-93520136D01*
X50672258Y-93451863D01*
X50681820Y-93436983D01*
X50703889Y-93407504D01*
X50732244Y-93331482D01*
X50754987Y-93270507D01*
X50754987Y-93270505D01*
X50754989Y-93270501D01*
X50759274Y-93230642D01*
X50761499Y-93209954D01*
X50761500Y-93209937D01*
X50761500Y-92299862D01*
X50761499Y-92299845D01*
X50758157Y-92268770D01*
X50754989Y-92239299D01*
X50703889Y-92102296D01*
X50616261Y-91985239D01*
X50499204Y-91897611D01*
X50362203Y-91846511D01*
X50301654Y-91840000D01*
X50301638Y-91840000D01*
X50258093Y-91840000D01*
X50191054Y-91820315D01*
X50145299Y-91767511D01*
X50135355Y-91698353D01*
X50164380Y-91634797D01*
X50170412Y-91628319D01*
X51252544Y-90546187D01*
X52492527Y-89306204D01*
X52528883Y-89281008D01*
X52877277Y-89122622D01*
X53049182Y-89044471D01*
X53118357Y-89034646D01*
X53181863Y-89063779D01*
G37*
G04 #@! TD.AperFunction*
G04 #@! TA.AperFunction,Conductor*
G36*
X53181863Y-70063779D02*
G01*
X53219537Y-70122622D01*
X53224500Y-70157353D01*
X53224500Y-77700936D01*
X53204815Y-77767975D01*
X53152011Y-77813730D01*
X53082853Y-77823674D01*
X53040026Y-77809190D01*
X52878957Y-77719211D01*
X52654170Y-77639788D01*
X52419209Y-77599500D01*
X52419200Y-77599500D01*
X52240503Y-77599500D01*
X52240498Y-77599500D01*
X52062463Y-77614652D01*
X51831751Y-77674724D01*
X51614519Y-77772919D01*
X51614511Y-77772924D01*
X51417006Y-77906413D01*
X51416997Y-77906421D01*
X51244882Y-78071379D01*
X51229332Y-78092403D01*
X51173640Y-78134596D01*
X51103979Y-78139982D01*
X51042464Y-78106851D01*
X51008626Y-78045722D01*
X51006319Y-78031640D01*
X50993542Y-77910072D01*
X50934527Y-77728444D01*
X50839040Y-77563056D01*
X50721008Y-77431968D01*
X50711254Y-77421135D01*
X50556755Y-77308884D01*
X50556754Y-77308883D01*
X50556752Y-77308882D01*
X50491557Y-77279855D01*
X50475148Y-77271014D01*
X50469547Y-77267428D01*
X50455318Y-77258318D01*
X50455315Y-77258316D01*
X50455311Y-77258314D01*
X49928883Y-77018989D01*
X49892521Y-76993788D01*
X49164319Y-76265586D01*
X49130834Y-76204263D01*
X49128000Y-76177905D01*
X49128000Y-75503500D01*
X49628000Y-75503500D01*
X49628000Y-76159900D01*
X50300828Y-76159900D01*
X50300844Y-76159899D01*
X50360372Y-76153498D01*
X50360379Y-76153496D01*
X50495086Y-76103254D01*
X50495093Y-76103250D01*
X50610187Y-76017090D01*
X50610190Y-76017087D01*
X50696350Y-75901993D01*
X50696354Y-75901986D01*
X50746596Y-75767279D01*
X50746598Y-75767272D01*
X50752999Y-75707744D01*
X50753000Y-75707727D01*
X50753000Y-75503500D01*
X49628000Y-75503500D01*
X49128000Y-75503500D01*
X49128000Y-75428133D01*
X51465668Y-75428133D01*
X51481058Y-75515410D01*
X51496135Y-75600911D01*
X51565623Y-75762004D01*
X51565624Y-75762006D01*
X51565626Y-75762009D01*
X51630129Y-75848650D01*
X51670390Y-75902730D01*
X51804786Y-76015502D01*
X51882488Y-76054525D01*
X51961562Y-76094238D01*
X51961563Y-76094238D01*
X51961567Y-76094240D01*
X52132279Y-76134700D01*
X52132282Y-76134700D01*
X52263701Y-76134700D01*
X52263709Y-76134700D01*
X52394255Y-76119441D01*
X52559117Y-76059437D01*
X52705696Y-75963030D01*
X52826092Y-75835418D01*
X52913812Y-75683481D01*
X52964130Y-75515410D01*
X52974331Y-75340265D01*
X52943865Y-75167489D01*
X52874377Y-75006396D01*
X52769610Y-74865670D01*
X52697747Y-74805370D01*
X52635214Y-74752898D01*
X52635212Y-74752897D01*
X52478437Y-74674161D01*
X52469446Y-74672030D01*
X52307721Y-74633700D01*
X52176291Y-74633700D01*
X52071854Y-74645907D01*
X52045743Y-74648959D01*
X52045740Y-74648960D01*
X51880884Y-74708962D01*
X51880880Y-74708964D01*
X51734306Y-74805367D01*
X51734305Y-74805368D01*
X51613910Y-74932978D01*
X51526188Y-75084918D01*
X51475870Y-75252989D01*
X51475869Y-75252994D01*
X51465668Y-75428133D01*
X49128000Y-75428133D01*
X49128000Y-75127500D01*
X49147685Y-75060461D01*
X49200489Y-75014706D01*
X49252000Y-75003500D01*
X50753000Y-75003500D01*
X50753000Y-74799272D01*
X50752999Y-74799255D01*
X50746598Y-74739727D01*
X50746596Y-74739720D01*
X50696354Y-74605013D01*
X50696350Y-74605006D01*
X50681823Y-74585600D01*
X50657406Y-74520136D01*
X50672258Y-74451863D01*
X50681820Y-74436983D01*
X50703889Y-74407504D01*
X50732244Y-74331482D01*
X50754987Y-74270507D01*
X50754987Y-74270505D01*
X50754989Y-74270501D01*
X50759274Y-74230642D01*
X50761499Y-74209954D01*
X50761500Y-74209937D01*
X50761500Y-73299862D01*
X50761499Y-73299845D01*
X50758157Y-73268770D01*
X50754989Y-73239299D01*
X50703889Y-73102296D01*
X50616261Y-72985239D01*
X50499204Y-72897611D01*
X50362203Y-72846511D01*
X50301654Y-72840000D01*
X50301638Y-72840000D01*
X50258093Y-72840000D01*
X50191054Y-72820315D01*
X50145299Y-72767511D01*
X50135355Y-72698353D01*
X50164380Y-72634797D01*
X50170412Y-72628319D01*
X51241038Y-71557693D01*
X52492527Y-70306204D01*
X52528883Y-70281008D01*
X52877277Y-70122622D01*
X53049182Y-70044471D01*
X53118357Y-70034646D01*
X53181863Y-70063779D01*
G37*
G04 #@! TD.AperFunction*
G04 #@! TA.AperFunction,Conductor*
G36*
X53181863Y-51063779D02*
G01*
X53219537Y-51122622D01*
X53224500Y-51157353D01*
X53224500Y-58700936D01*
X53204815Y-58767975D01*
X53152011Y-58813730D01*
X53082853Y-58823674D01*
X53040026Y-58809190D01*
X52878957Y-58719211D01*
X52654170Y-58639788D01*
X52419209Y-58599500D01*
X52419200Y-58599500D01*
X52240503Y-58599500D01*
X52240498Y-58599500D01*
X52062463Y-58614652D01*
X51831751Y-58674724D01*
X51614519Y-58772919D01*
X51614511Y-58772924D01*
X51417006Y-58906413D01*
X51416997Y-58906421D01*
X51244882Y-59071379D01*
X51229332Y-59092403D01*
X51173640Y-59134596D01*
X51103979Y-59139982D01*
X51042464Y-59106851D01*
X51008626Y-59045722D01*
X51006319Y-59031640D01*
X50993542Y-58910072D01*
X50934527Y-58728444D01*
X50839040Y-58563056D01*
X50721008Y-58431968D01*
X50711254Y-58421135D01*
X50556755Y-58308884D01*
X50556754Y-58308883D01*
X50556752Y-58308882D01*
X50491557Y-58279855D01*
X50475148Y-58271014D01*
X50469547Y-58267428D01*
X50455318Y-58258318D01*
X50455315Y-58258316D01*
X50455311Y-58258314D01*
X49928883Y-58018989D01*
X49892521Y-57993788D01*
X49164319Y-57265586D01*
X49130834Y-57204263D01*
X49128000Y-57177905D01*
X49128000Y-56503500D01*
X49628000Y-56503500D01*
X49628000Y-57159900D01*
X50300828Y-57159900D01*
X50300844Y-57159899D01*
X50360372Y-57153498D01*
X50360379Y-57153496D01*
X50495086Y-57103254D01*
X50495093Y-57103250D01*
X50610187Y-57017090D01*
X50610190Y-57017087D01*
X50696350Y-56901993D01*
X50696354Y-56901986D01*
X50746596Y-56767279D01*
X50746598Y-56767272D01*
X50752999Y-56707744D01*
X50753000Y-56707727D01*
X50753000Y-56503500D01*
X49628000Y-56503500D01*
X49128000Y-56503500D01*
X49128000Y-56428133D01*
X51465668Y-56428133D01*
X51481058Y-56515410D01*
X51496135Y-56600911D01*
X51565623Y-56762004D01*
X51565624Y-56762006D01*
X51565626Y-56762009D01*
X51630129Y-56848650D01*
X51670390Y-56902730D01*
X51804786Y-57015502D01*
X51882488Y-57054525D01*
X51961562Y-57094238D01*
X51961563Y-57094238D01*
X51961567Y-57094240D01*
X52132279Y-57134700D01*
X52132282Y-57134700D01*
X52263701Y-57134700D01*
X52263709Y-57134700D01*
X52394255Y-57119441D01*
X52559117Y-57059437D01*
X52705696Y-56963030D01*
X52826092Y-56835418D01*
X52913812Y-56683481D01*
X52964130Y-56515410D01*
X52974331Y-56340265D01*
X52943865Y-56167489D01*
X52874377Y-56006396D01*
X52769610Y-55865670D01*
X52697747Y-55805370D01*
X52635214Y-55752898D01*
X52635212Y-55752897D01*
X52478437Y-55674161D01*
X52469446Y-55672030D01*
X52307721Y-55633700D01*
X52176291Y-55633700D01*
X52071854Y-55645907D01*
X52045743Y-55648959D01*
X52045740Y-55648960D01*
X51880884Y-55708962D01*
X51880880Y-55708964D01*
X51734306Y-55805367D01*
X51734305Y-55805368D01*
X51613910Y-55932978D01*
X51526188Y-56084918D01*
X51475870Y-56252989D01*
X51475869Y-56252994D01*
X51465668Y-56428133D01*
X49128000Y-56428133D01*
X49128000Y-56127500D01*
X49147685Y-56060461D01*
X49200489Y-56014706D01*
X49252000Y-56003500D01*
X50753000Y-56003500D01*
X50753000Y-55799272D01*
X50752999Y-55799255D01*
X50746598Y-55739727D01*
X50746596Y-55739720D01*
X50696354Y-55605013D01*
X50696350Y-55605006D01*
X50681823Y-55585600D01*
X50657406Y-55520136D01*
X50672258Y-55451863D01*
X50681820Y-55436983D01*
X50703889Y-55407504D01*
X50732244Y-55331482D01*
X50754987Y-55270507D01*
X50754987Y-55270505D01*
X50754989Y-55270501D01*
X50759274Y-55230642D01*
X50761499Y-55209954D01*
X50761500Y-55209937D01*
X50761500Y-54299862D01*
X50761499Y-54299845D01*
X50758157Y-54268770D01*
X50754989Y-54239299D01*
X50703889Y-54102296D01*
X50616261Y-53985239D01*
X50499204Y-53897611D01*
X50362203Y-53846511D01*
X50301654Y-53840000D01*
X50301638Y-53840000D01*
X50258093Y-53840000D01*
X50191054Y-53820315D01*
X50145299Y-53767511D01*
X50135355Y-53698353D01*
X50164380Y-53634797D01*
X50170412Y-53628319D01*
X51229155Y-52569576D01*
X52492527Y-51306204D01*
X52528883Y-51281008D01*
X52877277Y-51122622D01*
X53049182Y-51044471D01*
X53118357Y-51034646D01*
X53181863Y-51063779D01*
G37*
G04 #@! TD.AperFunction*
G04 #@! TA.AperFunction,Conductor*
G36*
X39809078Y-82394998D02*
G01*
X39814572Y-82400451D01*
X40603270Y-84024811D01*
X40603801Y-84033750D01*
X40601018Y-84038194D01*
X40431061Y-84208151D01*
X40422788Y-84211578D01*
X40422004Y-84211552D01*
X38772062Y-84100677D01*
X38764037Y-84096703D01*
X38761182Y-84089925D01*
X38659999Y-82808239D01*
X38662764Y-82799723D01*
X38667750Y-82796292D01*
X39800137Y-82394534D01*
X39809078Y-82394998D01*
G37*
G04 #@! TD.AperFunction*
G04 #@! TA.AperFunction,Conductor*
G36*
X38729080Y-62997785D02*
G01*
X38781723Y-63018689D01*
X40250431Y-63601918D01*
X40256854Y-63608155D01*
X40257681Y-63614535D01*
X40249500Y-63668807D01*
X40249500Y-63931192D01*
X40288602Y-64190607D01*
X40288604Y-64190615D01*
X40365937Y-64441323D01*
X40365939Y-64441328D01*
X40365941Y-64441332D01*
X40479770Y-64677701D01*
X40479772Y-64677704D01*
X40627567Y-64894479D01*
X40790974Y-65070590D01*
X40806018Y-65086804D01*
X40850852Y-65122558D01*
X40855141Y-65130058D01*
X40907565Y-65498872D01*
X40905336Y-65507546D01*
X40897628Y-65512103D01*
X40893197Y-65511883D01*
X39166304Y-65088765D01*
X39159084Y-65083468D01*
X39157973Y-65081054D01*
X38478046Y-63012312D01*
X38478718Y-63003383D01*
X38485508Y-62997544D01*
X38489161Y-62996959D01*
X38724762Y-62996959D01*
X38729080Y-62997785D01*
G37*
G04 #@! TD.AperFunction*
G04 #@! TA.AperFunction,Conductor*
G36*
X52340880Y-107051219D02*
G01*
X52696195Y-107197436D01*
X52702542Y-107203754D01*
X52702563Y-107203804D01*
X52848779Y-107559118D01*
X52848758Y-107568072D01*
X52842801Y-107574221D01*
X52231498Y-107852132D01*
X52222549Y-107852436D01*
X52218383Y-107849754D01*
X52050245Y-107681616D01*
X52046818Y-107673343D01*
X52047866Y-107668505D01*
X52325779Y-107057197D01*
X52332322Y-107051085D01*
X52340880Y-107051219D01*
G37*
G04 #@! TD.AperFunction*
G04 #@! TA.AperFunction,Conductor*
G36*
X44539841Y-72945527D02*
G01*
X44541900Y-72948311D01*
X44750444Y-73340867D01*
X44751300Y-73349781D01*
X44748395Y-73354619D01*
X44356383Y-73747596D01*
X44348114Y-73751033D01*
X44339837Y-73747616D01*
X44339817Y-73747596D01*
X43947804Y-73354619D01*
X43944387Y-73346342D01*
X43945755Y-73340867D01*
X44154300Y-72948311D01*
X44161207Y-72942612D01*
X44164632Y-72942100D01*
X44531568Y-72942100D01*
X44539841Y-72945527D01*
G37*
G04 #@! TD.AperFunction*
G04 #@! TA.AperFunction,Conductor*
G36*
X52329211Y-120896036D02*
G01*
X52332615Y-120898402D01*
X52501537Y-121067324D01*
X52504964Y-121075597D01*
X52504188Y-121079788D01*
X51713594Y-123140698D01*
X51707431Y-123147194D01*
X51700192Y-123147942D01*
X50567595Y-122902506D01*
X50560235Y-122897404D01*
X50558433Y-122892257D01*
X50427954Y-121608994D01*
X50430526Y-121600418D01*
X50435511Y-121596848D01*
X52320266Y-120895709D01*
X52329211Y-120896036D01*
G37*
G04 #@! TD.AperFunction*
G04 #@! TA.AperFunction,Conductor*
G36*
X49507119Y-53945527D02*
G01*
X49508487Y-53947172D01*
X49778893Y-54340490D01*
X49780756Y-54349248D01*
X49777535Y-54355381D01*
X49386283Y-54747596D01*
X49378014Y-54751033D01*
X49369737Y-54747616D01*
X49369717Y-54747596D01*
X48978464Y-54355381D01*
X48975047Y-54347104D01*
X48977105Y-54340492D01*
X49247513Y-53947172D01*
X49255024Y-53942296D01*
X49257154Y-53942100D01*
X49498846Y-53942100D01*
X49507119Y-53945527D01*
G37*
G04 #@! TD.AperFunction*
G04 #@! TA.AperFunction,Conductor*
G36*
X49507119Y-110945527D02*
G01*
X49508487Y-110947172D01*
X49778893Y-111340490D01*
X49780756Y-111349248D01*
X49777535Y-111355381D01*
X49386283Y-111747596D01*
X49378014Y-111751033D01*
X49369737Y-111747616D01*
X49369717Y-111747596D01*
X48978464Y-111355381D01*
X48975047Y-111347104D01*
X48977105Y-111340492D01*
X49247513Y-110947172D01*
X49255024Y-110942296D01*
X49257154Y-110942100D01*
X49498846Y-110942100D01*
X49507119Y-110945527D01*
G37*
G04 #@! TD.AperFunction*
G04 #@! TA.AperFunction,Conductor*
G36*
X44339762Y-35753889D02*
G01*
X44347915Y-35757591D01*
X44350786Y-35763022D01*
X44437609Y-36150230D01*
X44436075Y-36159053D01*
X44429104Y-36164122D01*
X43326900Y-36447310D01*
X43318034Y-36446050D01*
X43315715Y-36444251D01*
X43058998Y-36187534D01*
X43055571Y-36179261D01*
X43058696Y-36171302D01*
X43469469Y-35728732D01*
X43477607Y-35725000D01*
X43478407Y-35724999D01*
X44339762Y-35753889D01*
G37*
G04 #@! TD.AperFunction*
G04 #@! TA.AperFunction,Conductor*
G36*
X39629154Y-110453427D02*
G01*
X39630490Y-110455024D01*
X39944329Y-110906756D01*
X39946235Y-110915506D01*
X39942862Y-110921834D01*
X39508142Y-111343109D01*
X39499816Y-111346406D01*
X39491858Y-111343109D01*
X39057137Y-110921834D01*
X39053580Y-110913616D01*
X39055669Y-110906757D01*
X39369510Y-110455024D01*
X39377045Y-110450185D01*
X39379119Y-110450000D01*
X39620881Y-110450000D01*
X39629154Y-110453427D01*
G37*
G04 #@! TD.AperFunction*
G04 #@! TA.AperFunction,Conductor*
G36*
X49631495Y-58447866D02*
G01*
X50035419Y-58631498D01*
X50242801Y-58725778D01*
X50248914Y-58732322D01*
X50248779Y-58740881D01*
X50102563Y-59096195D01*
X50096245Y-59102542D01*
X50096195Y-59102563D01*
X49740881Y-59248779D01*
X49731927Y-59248758D01*
X49725778Y-59242801D01*
X49662023Y-59102563D01*
X49447866Y-58631496D01*
X49447563Y-58622549D01*
X49450243Y-58618385D01*
X49618384Y-58450244D01*
X49626656Y-58446818D01*
X49631495Y-58447866D01*
G37*
G04 #@! TD.AperFunction*
G04 #@! TA.AperFunction,Conductor*
G36*
X49631495Y-77447866D02*
G01*
X50035419Y-77631498D01*
X50242801Y-77725778D01*
X50248914Y-77732322D01*
X50248779Y-77740881D01*
X50102563Y-78096195D01*
X50096245Y-78102542D01*
X50096195Y-78102563D01*
X49740881Y-78248779D01*
X49731927Y-78248758D01*
X49725778Y-78242801D01*
X49662023Y-78102563D01*
X49447866Y-77631496D01*
X49447563Y-77622549D01*
X49450243Y-77618385D01*
X49618384Y-77450244D01*
X49626656Y-77446818D01*
X49631495Y-77447866D01*
G37*
G04 #@! TD.AperFunction*
G04 #@! TA.AperFunction,Conductor*
G36*
X39493380Y-114648857D02*
G01*
X39501434Y-114652768D01*
X39503503Y-114656079D01*
X39682129Y-115089644D01*
X39682112Y-115098599D01*
X39676236Y-115104714D01*
X38841464Y-115492115D01*
X38832517Y-115492489D01*
X38828266Y-115489775D01*
X38659639Y-115321148D01*
X38656212Y-115312875D01*
X38656867Y-115309017D01*
X38897083Y-114621945D01*
X38903048Y-114615267D01*
X38908820Y-114614128D01*
X39493380Y-114648857D01*
G37*
G04 #@! TD.AperFunction*
G04 #@! TA.AperFunction,Conductor*
G36*
X49507119Y-91945527D02*
G01*
X49508487Y-91947172D01*
X49778893Y-92340490D01*
X49780756Y-92349248D01*
X49777535Y-92355381D01*
X49386283Y-92747596D01*
X49378014Y-92751033D01*
X49369737Y-92747616D01*
X49369717Y-92747596D01*
X48978464Y-92355381D01*
X48975047Y-92347104D01*
X48977105Y-92340492D01*
X49247513Y-91947172D01*
X49255024Y-91942296D01*
X49257154Y-91942100D01*
X49498846Y-91942100D01*
X49507119Y-91945527D01*
G37*
G04 #@! TD.AperFunction*
G04 #@! TA.AperFunction,Conductor*
G36*
X53867130Y-81548922D02*
G01*
X53869276Y-81551068D01*
X54854156Y-82832397D01*
X54856481Y-82841045D01*
X54853694Y-82847222D01*
X53990496Y-83835995D01*
X53982474Y-83839973D01*
X53981682Y-83840000D01*
X53738318Y-83840000D01*
X53730045Y-83836573D01*
X53729504Y-83835995D01*
X52866305Y-82847222D01*
X52863446Y-82838735D01*
X52865842Y-82832399D01*
X53850724Y-81551067D01*
X53858482Y-81546597D01*
X53867130Y-81548922D01*
G37*
G04 #@! TD.AperFunction*
G04 #@! TA.AperFunction,Conductor*
G36*
X49631495Y-96447866D02*
G01*
X50035419Y-96631498D01*
X50242801Y-96725778D01*
X50248914Y-96732322D01*
X50248779Y-96740881D01*
X50102563Y-97096195D01*
X50096245Y-97102542D01*
X50096195Y-97102563D01*
X49740881Y-97248779D01*
X49731927Y-97248758D01*
X49725778Y-97242801D01*
X49662023Y-97102563D01*
X49447866Y-96631496D01*
X49447563Y-96622549D01*
X49450243Y-96618385D01*
X49618384Y-96450244D01*
X49626656Y-96446818D01*
X49631495Y-96447866D01*
G37*
G04 #@! TD.AperFunction*
G04 #@! TA.AperFunction,Conductor*
G36*
X49631495Y-39447866D02*
G01*
X50035419Y-39631498D01*
X50242801Y-39725778D01*
X50248914Y-39732322D01*
X50248779Y-39740881D01*
X50102563Y-40096195D01*
X50096245Y-40102542D01*
X50096195Y-40102563D01*
X49740881Y-40248779D01*
X49731927Y-40248758D01*
X49725778Y-40242801D01*
X49662023Y-40102563D01*
X49447866Y-39631496D01*
X49447563Y-39622549D01*
X49450243Y-39618385D01*
X49618384Y-39450244D01*
X49626656Y-39446818D01*
X49631495Y-39447866D01*
G37*
G04 #@! TD.AperFunction*
G04 #@! TA.AperFunction,Conductor*
G36*
X52329331Y-82956016D02*
G01*
X52332470Y-82958257D01*
X52501493Y-83127280D01*
X52504920Y-83135553D01*
X52504112Y-83139826D01*
X51713680Y-85154832D01*
X51707469Y-85161282D01*
X51700176Y-85161964D01*
X50567596Y-84902608D01*
X50560297Y-84897421D01*
X50558552Y-84892220D01*
X50446580Y-83609105D01*
X50449275Y-83600568D01*
X50454431Y-83597027D01*
X52320395Y-82955466D01*
X52329331Y-82956016D01*
G37*
G04 #@! TD.AperFunction*
G04 #@! TA.AperFunction,Conductor*
G36*
X39493380Y-38648857D02*
G01*
X39501434Y-38652768D01*
X39503503Y-38656079D01*
X39682129Y-39089644D01*
X39682112Y-39098599D01*
X39676236Y-39104714D01*
X38841464Y-39492115D01*
X38832517Y-39492489D01*
X38828266Y-39489775D01*
X38659639Y-39321148D01*
X38656212Y-39312875D01*
X38656867Y-39309017D01*
X38897083Y-38621945D01*
X38903048Y-38615267D01*
X38908820Y-38614128D01*
X39493380Y-38648857D01*
G37*
G04 #@! TD.AperFunction*
G04 #@! TA.AperFunction,Conductor*
G36*
X52340880Y-88051219D02*
G01*
X52696195Y-88197436D01*
X52702542Y-88203754D01*
X52702563Y-88203804D01*
X52848779Y-88559118D01*
X52848758Y-88568072D01*
X52842801Y-88574221D01*
X52231498Y-88852132D01*
X52222549Y-88852436D01*
X52218383Y-88849754D01*
X52050245Y-88681616D01*
X52046818Y-88673343D01*
X52047866Y-88668505D01*
X52325779Y-88057197D01*
X52332322Y-88051085D01*
X52340880Y-88051219D01*
G37*
G04 #@! TD.AperFunction*
G04 #@! TA.AperFunction,Conductor*
G36*
X39493380Y-76648857D02*
G01*
X39501434Y-76652768D01*
X39503503Y-76656079D01*
X39682129Y-77089644D01*
X39682112Y-77098599D01*
X39676236Y-77104714D01*
X38841464Y-77492115D01*
X38832517Y-77492489D01*
X38828266Y-77489775D01*
X38659639Y-77321148D01*
X38656212Y-77312875D01*
X38656867Y-77309017D01*
X38897083Y-76621945D01*
X38903048Y-76615267D01*
X38908820Y-76614128D01*
X39493380Y-76648857D01*
G37*
G04 #@! TD.AperFunction*
G04 #@! TA.AperFunction,Conductor*
G36*
X53851874Y-62537835D02*
G01*
X53859479Y-62542563D01*
X53861609Y-62548200D01*
X53991583Y-63831137D01*
X53989008Y-63839713D01*
X53984177Y-63843223D01*
X52049808Y-64594148D01*
X52040856Y-64593947D01*
X52037301Y-64591514D01*
X51868463Y-64422676D01*
X51865036Y-64414403D01*
X51865812Y-64410214D01*
X52149451Y-63671257D01*
X52151788Y-63667505D01*
X52182433Y-63634479D01*
X52330228Y-63417704D01*
X52444063Y-63181323D01*
X52521396Y-62930615D01*
X52532683Y-62855731D01*
X52560499Y-62671192D01*
X52560500Y-62671180D01*
X52560500Y-62602530D01*
X52561276Y-62598339D01*
X52656582Y-62350041D01*
X52662746Y-62343547D01*
X52669410Y-62342691D01*
X53851874Y-62537835D01*
G37*
G04 #@! TD.AperFunction*
G04 #@! TA.AperFunction,Conductor*
G36*
X40171733Y-53510224D02*
G01*
X40340360Y-53678851D01*
X40343787Y-53687124D01*
X40343131Y-53690985D01*
X40102916Y-54378053D01*
X40096951Y-54384732D01*
X40091178Y-54385871D01*
X39506620Y-54351142D01*
X39498565Y-54347231D01*
X39496498Y-54343923D01*
X39317870Y-53910354D01*
X39317887Y-53901400D01*
X39323762Y-53895285D01*
X40158537Y-53507883D01*
X40167482Y-53507510D01*
X40171733Y-53510224D01*
G37*
G04 #@! TD.AperFunction*
G04 #@! TA.AperFunction,Conductor*
G36*
X44299371Y-34848351D02*
G01*
X44301540Y-34850059D01*
X44560444Y-35108963D01*
X44788084Y-35339810D01*
X44791453Y-35348107D01*
X44787968Y-35356356D01*
X44787609Y-35356695D01*
X44356077Y-35747737D01*
X44347646Y-35750753D01*
X44339551Y-35746923D01*
X43985633Y-35354985D01*
X43982633Y-35346550D01*
X43984335Y-35341045D01*
X44283287Y-34852226D01*
X44290526Y-34846958D01*
X44299371Y-34848351D01*
G37*
G04 #@! TD.AperFunction*
G04 #@! TA.AperFunction,Conductor*
G36*
X50813720Y-38602504D02*
G01*
X51190401Y-38671248D01*
X51197924Y-38676105D01*
X51200000Y-38682758D01*
X51200000Y-38917241D01*
X51196573Y-38925514D01*
X51190401Y-38928751D01*
X50813731Y-38997494D01*
X50804977Y-38995608D01*
X50800120Y-38988085D01*
X50799930Y-38986043D01*
X50799627Y-38925514D01*
X50799000Y-38800000D01*
X50799930Y-38613955D01*
X50803398Y-38605701D01*
X50811689Y-38602315D01*
X50813720Y-38602504D01*
G37*
G04 #@! TD.AperFunction*
G04 #@! TA.AperFunction,Conductor*
G36*
X39686043Y-109099930D02*
G01*
X39694298Y-109103398D01*
X39697684Y-109111689D01*
X39697494Y-109113731D01*
X39628752Y-109490401D01*
X39623895Y-109497924D01*
X39617242Y-109500000D01*
X39382758Y-109500000D01*
X39374485Y-109496573D01*
X39371248Y-109490401D01*
X39302505Y-109113728D01*
X39304391Y-109104977D01*
X39311914Y-109100120D01*
X39313953Y-109099930D01*
X39500000Y-109099000D01*
X39686043Y-109099930D01*
G37*
G04 #@! TD.AperFunction*
G04 #@! TA.AperFunction,Conductor*
G36*
X39809078Y-63394998D02*
G01*
X39814572Y-63400451D01*
X40603270Y-65024811D01*
X40603801Y-65033750D01*
X40601018Y-65038194D01*
X40431061Y-65208151D01*
X40422788Y-65211578D01*
X40422004Y-65211552D01*
X38772062Y-65100677D01*
X38764037Y-65096703D01*
X38761182Y-65089925D01*
X38659999Y-63808239D01*
X38662764Y-63799723D01*
X38667750Y-63796292D01*
X39800137Y-63394534D01*
X39809078Y-63394998D01*
G37*
G04 #@! TD.AperFunction*
G04 #@! TA.AperFunction,Conductor*
G36*
X44339762Y-73753889D02*
G01*
X44347915Y-73757591D01*
X44350786Y-73763022D01*
X44437609Y-74150230D01*
X44436075Y-74159053D01*
X44429104Y-74164122D01*
X43326900Y-74447310D01*
X43318034Y-74446050D01*
X43315715Y-74444251D01*
X43058998Y-74187534D01*
X43055571Y-74179261D01*
X43058696Y-74171302D01*
X43469469Y-73728732D01*
X43477607Y-73725000D01*
X43478407Y-73724999D01*
X44339762Y-73753889D01*
G37*
G04 #@! TD.AperFunction*
G04 #@! TA.AperFunction,Conductor*
G36*
X52340880Y-50051219D02*
G01*
X52696195Y-50197436D01*
X52702542Y-50203754D01*
X52702563Y-50203804D01*
X52848779Y-50559118D01*
X52848758Y-50568072D01*
X52842801Y-50574221D01*
X52231498Y-50852132D01*
X52222549Y-50852436D01*
X52218383Y-50849754D01*
X52050245Y-50681616D01*
X52046818Y-50673343D01*
X52047866Y-50668505D01*
X52325779Y-50057197D01*
X52332322Y-50051085D01*
X52340880Y-50051219D01*
G37*
G04 #@! TD.AperFunction*
G04 #@! TA.AperFunction,Conductor*
G36*
X49569741Y-34945527D02*
G01*
X49571800Y-34948311D01*
X49780344Y-35340867D01*
X49781200Y-35349781D01*
X49778295Y-35354619D01*
X49386283Y-35747596D01*
X49378014Y-35751033D01*
X49369737Y-35747616D01*
X49369717Y-35747596D01*
X48977704Y-35354619D01*
X48974287Y-35346342D01*
X48975655Y-35340867D01*
X49184200Y-34948311D01*
X49191107Y-34942612D01*
X49194532Y-34942100D01*
X49561468Y-34942100D01*
X49569741Y-34945527D01*
G37*
G04 #@! TD.AperFunction*
G04 #@! TA.AperFunction,Conductor*
G36*
X39493380Y-57648857D02*
G01*
X39501434Y-57652768D01*
X39503503Y-57656079D01*
X39682129Y-58089644D01*
X39682112Y-58098599D01*
X39676236Y-58104714D01*
X38841464Y-58492115D01*
X38832517Y-58492489D01*
X38828266Y-58489775D01*
X38659639Y-58321148D01*
X38656212Y-58312875D01*
X38656867Y-58309017D01*
X38897083Y-57621945D01*
X38903048Y-57615267D01*
X38908820Y-57614128D01*
X39493380Y-57648857D01*
G37*
G04 #@! TD.AperFunction*
G04 #@! TA.AperFunction,Conductor*
G36*
X44339762Y-54753889D02*
G01*
X44347915Y-54757591D01*
X44350786Y-54763022D01*
X44437609Y-55150230D01*
X44436075Y-55159053D01*
X44429104Y-55164122D01*
X43326900Y-55447310D01*
X43318034Y-55446050D01*
X43315715Y-55444251D01*
X43058998Y-55187534D01*
X43055571Y-55179261D01*
X43058696Y-55171302D01*
X43469469Y-54728732D01*
X43477607Y-54725000D01*
X43478407Y-54724999D01*
X44339762Y-54753889D01*
G37*
G04 #@! TD.AperFunction*
G04 #@! TA.AperFunction,Conductor*
G36*
X44375522Y-52804391D02*
G01*
X44380379Y-52811914D01*
X44380569Y-52813956D01*
X44381500Y-53000000D01*
X44380569Y-53186043D01*
X44377101Y-53194298D01*
X44368810Y-53197684D01*
X44366768Y-53197494D01*
X43990099Y-53128751D01*
X43982576Y-53123894D01*
X43980500Y-53117241D01*
X43980500Y-52882758D01*
X43983927Y-52874485D01*
X43990098Y-52871248D01*
X44366770Y-52802505D01*
X44375522Y-52804391D01*
G37*
G04 #@! TD.AperFunction*
G04 #@! TA.AperFunction,Conductor*
G36*
X39493380Y-95648857D02*
G01*
X39501434Y-95652768D01*
X39503503Y-95656079D01*
X39682129Y-96089644D01*
X39682112Y-96098599D01*
X39676236Y-96104714D01*
X38841464Y-96492115D01*
X38832517Y-96492489D01*
X38828266Y-96489775D01*
X38659639Y-96321148D01*
X38656212Y-96312875D01*
X38656867Y-96309017D01*
X38897083Y-95621945D01*
X38903048Y-95615267D01*
X38908820Y-95614128D01*
X39493380Y-95648857D01*
G37*
G04 #@! TD.AperFunction*
G04 #@! TA.AperFunction,Conductor*
G36*
X53851874Y-43537835D02*
G01*
X53859479Y-43542563D01*
X53861609Y-43548200D01*
X53991583Y-44831137D01*
X53989008Y-44839713D01*
X53984177Y-44843223D01*
X52049808Y-45594148D01*
X52040856Y-45593947D01*
X52037301Y-45591514D01*
X51868463Y-45422676D01*
X51865036Y-45414403D01*
X51865812Y-45410214D01*
X52149451Y-44671257D01*
X52151788Y-44667505D01*
X52182433Y-44634479D01*
X52330228Y-44417704D01*
X52444063Y-44181323D01*
X52521396Y-43930615D01*
X52532683Y-43855731D01*
X52560499Y-43671192D01*
X52560500Y-43671180D01*
X52560500Y-43602530D01*
X52561276Y-43598339D01*
X52656582Y-43350041D01*
X52662746Y-43343547D01*
X52669410Y-43342691D01*
X53851874Y-43537835D01*
G37*
G04 #@! TD.AperFunction*
G04 #@! TA.AperFunction,Conductor*
G36*
X39630439Y-91456176D02*
G01*
X39801171Y-91626908D01*
X39802544Y-91628560D01*
X39994566Y-91908308D01*
X40027623Y-91956466D01*
X40029480Y-91965226D01*
X40024810Y-91972584D01*
X39508485Y-92344093D01*
X39499768Y-92346143D01*
X39492383Y-92341736D01*
X39202378Y-91965226D01*
X39158536Y-91908307D01*
X39156203Y-91899662D01*
X39159697Y-91892734D01*
X39614061Y-91456012D01*
X39622398Y-91452751D01*
X39630439Y-91456176D01*
G37*
G04 #@! TD.AperFunction*
G04 #@! TA.AperFunction,Conductor*
G36*
X52340880Y-69051219D02*
G01*
X52696195Y-69197436D01*
X52702542Y-69203754D01*
X52702563Y-69203804D01*
X52848779Y-69559118D01*
X52848758Y-69568072D01*
X52842801Y-69574221D01*
X52231498Y-69852132D01*
X52222549Y-69852436D01*
X52218383Y-69849754D01*
X52050245Y-69681616D01*
X52046818Y-69673343D01*
X52047866Y-69668505D01*
X52325779Y-69057197D01*
X52332322Y-69051085D01*
X52340880Y-69051219D01*
G37*
G04 #@! TD.AperFunction*
G04 #@! TA.AperFunction,Conductor*
G36*
X39629154Y-72453427D02*
G01*
X39630490Y-72455024D01*
X39944329Y-72906756D01*
X39946235Y-72915506D01*
X39942862Y-72921834D01*
X39508142Y-73343109D01*
X39499816Y-73346406D01*
X39491858Y-73343109D01*
X39057137Y-72921834D01*
X39053580Y-72913616D01*
X39055669Y-72906757D01*
X39369510Y-72455024D01*
X39377045Y-72450185D01*
X39379119Y-72450000D01*
X39620881Y-72450000D01*
X39629154Y-72453427D01*
G37*
G04 #@! TD.AperFunction*
G04 #@! TA.AperFunction,Conductor*
G36*
X53867130Y-43548922D02*
G01*
X53869276Y-43551068D01*
X54854156Y-44832397D01*
X54856481Y-44841045D01*
X54853694Y-44847222D01*
X53990496Y-45835995D01*
X53982474Y-45839973D01*
X53981682Y-45840000D01*
X53738318Y-45840000D01*
X53730045Y-45836573D01*
X53729504Y-45835995D01*
X52866305Y-44847222D01*
X52863446Y-44838735D01*
X52865842Y-44832399D01*
X53850724Y-43551067D01*
X53858482Y-43546597D01*
X53867130Y-43548922D01*
G37*
G04 #@! TD.AperFunction*
G04 #@! TA.AperFunction,Conductor*
G36*
X44357165Y-37259225D02*
G01*
X44952921Y-37651389D01*
X44957947Y-37658799D01*
X44956261Y-37667594D01*
X44954135Y-37670016D01*
X44737070Y-37857465D01*
X44650949Y-37943586D01*
X44564827Y-38029707D01*
X44556554Y-38033134D01*
X44549297Y-38030611D01*
X44088909Y-37666539D01*
X44084545Y-37658720D01*
X44086380Y-37650949D01*
X44340967Y-37262595D01*
X44348368Y-37257556D01*
X44357165Y-37259225D01*
G37*
G04 #@! TD.AperFunction*
G04 #@! TA.AperFunction,Conductor*
G36*
X53989955Y-98243427D02*
G01*
X53990496Y-98244005D01*
X54853694Y-99232777D01*
X54856553Y-99241264D01*
X54854156Y-99247602D01*
X53869275Y-100528931D01*
X53861517Y-100533402D01*
X53852869Y-100531077D01*
X53850723Y-100528931D01*
X52893983Y-99284212D01*
X52891659Y-99275566D01*
X52896130Y-99267808D01*
X52898433Y-99266427D01*
X52962893Y-99237289D01*
X52985478Y-99227081D01*
X52985479Y-99227080D01*
X52985486Y-99227077D01*
X53183003Y-99093579D01*
X53355118Y-98928621D01*
X53496879Y-98736947D01*
X53604207Y-98524074D01*
X53667889Y-98316129D01*
X53670255Y-98311872D01*
X53729504Y-98244005D01*
X53737527Y-98240027D01*
X53738318Y-98240000D01*
X53981682Y-98240000D01*
X53989955Y-98243427D01*
G37*
G04 #@! TD.AperFunction*
G04 #@! TA.AperFunction,Conductor*
G36*
X38729080Y-43997785D02*
G01*
X38781723Y-44018689D01*
X40250431Y-44601918D01*
X40256854Y-44608155D01*
X40257681Y-44614535D01*
X40249500Y-44668807D01*
X40249500Y-44931192D01*
X40288602Y-45190607D01*
X40288604Y-45190615D01*
X40365937Y-45441323D01*
X40365939Y-45441328D01*
X40365941Y-45441332D01*
X40479770Y-45677701D01*
X40479772Y-45677704D01*
X40627567Y-45894479D01*
X40790974Y-46070590D01*
X40806018Y-46086804D01*
X40850852Y-46122558D01*
X40855141Y-46130058D01*
X40907565Y-46498872D01*
X40905336Y-46507546D01*
X40897628Y-46512103D01*
X40893197Y-46511883D01*
X39166304Y-46088765D01*
X39159084Y-46083468D01*
X39157973Y-46081054D01*
X38478046Y-44012312D01*
X38478718Y-44003383D01*
X38485508Y-43997544D01*
X38489161Y-43996959D01*
X38724762Y-43996959D01*
X38729080Y-43997785D01*
G37*
G04 #@! TD.AperFunction*
G04 #@! TA.AperFunction,Conductor*
G36*
X38729080Y-81997785D02*
G01*
X38781723Y-82018689D01*
X40250431Y-82601918D01*
X40256854Y-82608155D01*
X40257681Y-82614535D01*
X40249500Y-82668807D01*
X40249500Y-82931192D01*
X40288602Y-83190607D01*
X40288604Y-83190615D01*
X40365937Y-83441323D01*
X40365939Y-83441328D01*
X40365941Y-83441332D01*
X40479770Y-83677701D01*
X40479772Y-83677704D01*
X40627567Y-83894479D01*
X40790974Y-84070590D01*
X40806018Y-84086804D01*
X40850852Y-84122558D01*
X40855141Y-84130058D01*
X40907565Y-84498872D01*
X40905336Y-84507546D01*
X40897628Y-84512103D01*
X40893197Y-84511883D01*
X39166304Y-84088765D01*
X39159084Y-84083468D01*
X39157973Y-84081054D01*
X38478046Y-82012312D01*
X38478718Y-82003383D01*
X38485508Y-81997544D01*
X38489161Y-81996959D01*
X38724762Y-81996959D01*
X38729080Y-81997785D01*
G37*
G04 #@! TD.AperFunction*
G04 #@! TA.AperFunction,Conductor*
G36*
X44299371Y-53848351D02*
G01*
X44301540Y-53850059D01*
X44560444Y-54108963D01*
X44788084Y-54339810D01*
X44791453Y-54348107D01*
X44787968Y-54356356D01*
X44787609Y-54356695D01*
X44356077Y-54747737D01*
X44347646Y-54750753D01*
X44339551Y-54746923D01*
X43985633Y-54354985D01*
X43982633Y-54346550D01*
X43984335Y-54341045D01*
X44283287Y-53852226D01*
X44290526Y-53846958D01*
X44299371Y-53848351D01*
G37*
G04 #@! TD.AperFunction*
G04 #@! TA.AperFunction,Conductor*
G36*
X52329331Y-63956016D02*
G01*
X52332470Y-63958257D01*
X52501493Y-64127280D01*
X52504920Y-64135553D01*
X52504112Y-64139826D01*
X51713680Y-66154832D01*
X51707469Y-66161282D01*
X51700176Y-66161964D01*
X50567596Y-65902608D01*
X50560297Y-65897421D01*
X50558552Y-65892220D01*
X50446580Y-64609105D01*
X50449275Y-64600568D01*
X50454431Y-64597027D01*
X52320395Y-63955466D01*
X52329331Y-63956016D01*
G37*
G04 #@! TD.AperFunction*
G04 #@! TA.AperFunction,Conductor*
G36*
X53989955Y-79243427D02*
G01*
X53990496Y-79244005D01*
X54853694Y-80232777D01*
X54856553Y-80241264D01*
X54854156Y-80247602D01*
X53869275Y-81528931D01*
X53861517Y-81533402D01*
X53852869Y-81531077D01*
X53850723Y-81528931D01*
X52893983Y-80284212D01*
X52891659Y-80275566D01*
X52896130Y-80267808D01*
X52898433Y-80266427D01*
X52962893Y-80237289D01*
X52985478Y-80227081D01*
X52985479Y-80227080D01*
X52985486Y-80227077D01*
X53183003Y-80093579D01*
X53355118Y-79928621D01*
X53496879Y-79736947D01*
X53604207Y-79524074D01*
X53667889Y-79316129D01*
X53670255Y-79311872D01*
X53729504Y-79244005D01*
X53737527Y-79240027D01*
X53738318Y-79240000D01*
X53981682Y-79240000D01*
X53989955Y-79243427D01*
G37*
G04 #@! TD.AperFunction*
G04 #@! TA.AperFunction,Conductor*
G36*
X53007293Y-114184072D02*
G01*
X53011626Y-114189321D01*
X53160123Y-114545498D01*
X53160144Y-114554452D01*
X53160123Y-114554502D01*
X53012210Y-114909277D01*
X53005863Y-114915595D01*
X52997452Y-114915785D01*
X52378687Y-114693283D01*
X52372061Y-114687259D01*
X52370946Y-114682273D01*
X52370946Y-114319067D01*
X52374373Y-114310794D01*
X52380322Y-114307600D01*
X52998506Y-114182356D01*
X53007293Y-114184072D01*
G37*
G04 #@! TD.AperFunction*
G04 #@! TA.AperFunction,Conductor*
G36*
X40066918Y-71167089D02*
G01*
X40068497Y-71168399D01*
X40200707Y-71299293D01*
X40331600Y-71431502D01*
X40334986Y-71439793D01*
X40331518Y-71448048D01*
X40329939Y-71449358D01*
X40014987Y-71667095D01*
X40006233Y-71668981D01*
X40000061Y-71665744D01*
X39834255Y-71499938D01*
X39830828Y-71491665D01*
X39832902Y-71485015D01*
X40050642Y-71170059D01*
X40058164Y-71165203D01*
X40066918Y-71167089D01*
G37*
G04 #@! TD.AperFunction*
G04 #@! TA.AperFunction,Conductor*
G36*
X38729080Y-100997785D02*
G01*
X38781723Y-101018689D01*
X40250431Y-101601918D01*
X40256854Y-101608155D01*
X40257681Y-101614535D01*
X40249500Y-101668807D01*
X40249500Y-101931192D01*
X40288602Y-102190607D01*
X40288604Y-102190615D01*
X40365937Y-102441323D01*
X40365939Y-102441328D01*
X40365941Y-102441332D01*
X40479770Y-102677701D01*
X40479772Y-102677704D01*
X40627567Y-102894479D01*
X40790974Y-103070590D01*
X40806018Y-103086804D01*
X40850852Y-103122558D01*
X40855141Y-103130058D01*
X40907565Y-103498872D01*
X40905336Y-103507546D01*
X40897628Y-103512103D01*
X40893197Y-103511883D01*
X39166304Y-103088765D01*
X39159084Y-103083468D01*
X39157973Y-103081054D01*
X38478046Y-101012312D01*
X38478718Y-101003383D01*
X38485508Y-100997544D01*
X38489161Y-100996959D01*
X38724762Y-100996959D01*
X38729080Y-100997785D01*
G37*
G04 #@! TD.AperFunction*
G04 #@! TA.AperFunction,Conductor*
G36*
X49507119Y-72945527D02*
G01*
X49508487Y-72947172D01*
X49778893Y-73340490D01*
X49780756Y-73349248D01*
X49777535Y-73355381D01*
X49386283Y-73747596D01*
X49378014Y-73751033D01*
X49369737Y-73747616D01*
X49369717Y-73747596D01*
X48978464Y-73355381D01*
X48975047Y-73347104D01*
X48977105Y-73340492D01*
X49247513Y-72947172D01*
X49255024Y-72942296D01*
X49257154Y-72942100D01*
X49498846Y-72942100D01*
X49507119Y-72945527D01*
G37*
G04 #@! TD.AperFunction*
G04 #@! TA.AperFunction,Conductor*
G36*
X53851874Y-100537835D02*
G01*
X53859479Y-100542563D01*
X53861609Y-100548200D01*
X53991583Y-101831137D01*
X53989008Y-101839713D01*
X53984177Y-101843223D01*
X52049808Y-102594148D01*
X52040856Y-102593947D01*
X52037301Y-102591514D01*
X51868463Y-102422676D01*
X51865036Y-102414403D01*
X51865812Y-102410214D01*
X52149451Y-101671257D01*
X52151788Y-101667505D01*
X52182433Y-101634479D01*
X52330228Y-101417704D01*
X52444063Y-101181323D01*
X52521396Y-100930615D01*
X52532683Y-100855731D01*
X52560499Y-100671192D01*
X52560500Y-100671180D01*
X52560500Y-100602530D01*
X52561276Y-100598339D01*
X52656582Y-100350041D01*
X52662746Y-100343547D01*
X52669410Y-100342691D01*
X53851874Y-100537835D01*
G37*
G04 #@! TD.AperFunction*
G04 #@! TA.AperFunction,Conductor*
G36*
X44357165Y-56259225D02*
G01*
X44952921Y-56651389D01*
X44957947Y-56658799D01*
X44956261Y-56667594D01*
X44954135Y-56670016D01*
X44737070Y-56857465D01*
X44650949Y-56943586D01*
X44564827Y-57029707D01*
X44556554Y-57033134D01*
X44549297Y-57030611D01*
X44088909Y-56666539D01*
X44084545Y-56658720D01*
X44086380Y-56650949D01*
X44340967Y-56262595D01*
X44348368Y-56257556D01*
X44357165Y-56259225D01*
G37*
G04 #@! TD.AperFunction*
G04 #@! TA.AperFunction,Conductor*
G36*
X44539841Y-110945527D02*
G01*
X44541900Y-110948311D01*
X44750444Y-111340867D01*
X44751300Y-111349781D01*
X44748395Y-111354619D01*
X44356383Y-111747596D01*
X44348114Y-111751033D01*
X44339837Y-111747616D01*
X44339817Y-111747596D01*
X43947804Y-111354619D01*
X43944387Y-111346342D01*
X43945755Y-111340867D01*
X44154300Y-110948311D01*
X44161207Y-110942612D01*
X44164632Y-110942100D01*
X44531568Y-110942100D01*
X44539841Y-110945527D01*
G37*
G04 #@! TD.AperFunction*
G04 #@! TA.AperFunction,Conductor*
G36*
X38730060Y-42503427D02*
G01*
X38730486Y-42503876D01*
X39620014Y-43492883D01*
X39622999Y-43501326D01*
X39620707Y-43507684D01*
X38669077Y-44788779D01*
X38661393Y-44793377D01*
X38652708Y-44791194D01*
X38650526Y-44789083D01*
X37631710Y-43507515D01*
X37629246Y-43498908D01*
X37631942Y-43492675D01*
X38469495Y-42504137D01*
X38477458Y-42500040D01*
X38478422Y-42500000D01*
X38721787Y-42500000D01*
X38730060Y-42503427D01*
G37*
G04 #@! TD.AperFunction*
G04 #@! TA.AperFunction,Conductor*
G36*
X44357165Y-94259225D02*
G01*
X44952921Y-94651389D01*
X44957947Y-94658799D01*
X44956261Y-94667594D01*
X44954135Y-94670016D01*
X44737070Y-94857465D01*
X44650949Y-94943586D01*
X44564827Y-95029707D01*
X44556554Y-95033134D01*
X44549297Y-95030611D01*
X44088909Y-94666539D01*
X44084545Y-94658720D01*
X44086380Y-94650949D01*
X44340967Y-94262595D01*
X44348368Y-94257556D01*
X44357165Y-94259225D01*
G37*
G04 #@! TD.AperFunction*
G04 #@! TA.AperFunction,Conductor*
G36*
X40686043Y-90099930D02*
G01*
X40694298Y-90103398D01*
X40697684Y-90111689D01*
X40697494Y-90113731D01*
X40628752Y-90490401D01*
X40623895Y-90497924D01*
X40617242Y-90500000D01*
X40382758Y-90500000D01*
X40374485Y-90496573D01*
X40371248Y-90490401D01*
X40302505Y-90113728D01*
X40304391Y-90104977D01*
X40311914Y-90100120D01*
X40313953Y-90099930D01*
X40500000Y-90099000D01*
X40686043Y-90099930D01*
G37*
G04 #@! TD.AperFunction*
G04 #@! TA.AperFunction,Conductor*
G36*
X48868961Y-33850875D02*
G01*
X48874639Y-33855907D01*
X49196001Y-34423235D01*
X49197097Y-34432123D01*
X49194094Y-34437275D01*
X48937275Y-34694094D01*
X48929002Y-34697521D01*
X48923235Y-34696001D01*
X48466484Y-34437275D01*
X48355906Y-34374638D01*
X48350398Y-34367580D01*
X48350853Y-34360009D01*
X48497437Y-34003802D01*
X48503753Y-33997457D01*
X48860009Y-33850854D01*
X48868961Y-33850875D01*
G37*
G04 #@! TD.AperFunction*
G04 #@! TA.AperFunction,Conductor*
G36*
X53851874Y-81537835D02*
G01*
X53859479Y-81542563D01*
X53861609Y-81548200D01*
X53991583Y-82831137D01*
X53989008Y-82839713D01*
X53984177Y-82843223D01*
X52049808Y-83594148D01*
X52040856Y-83593947D01*
X52037301Y-83591514D01*
X51868463Y-83422676D01*
X51865036Y-83414403D01*
X51865812Y-83410214D01*
X52149451Y-82671257D01*
X52151788Y-82667505D01*
X52182433Y-82634479D01*
X52330228Y-82417704D01*
X52444063Y-82181323D01*
X52521396Y-81930615D01*
X52532683Y-81855731D01*
X52560499Y-81671192D01*
X52560500Y-81671180D01*
X52560500Y-81602530D01*
X52561276Y-81598339D01*
X52656582Y-81350041D01*
X52662746Y-81343547D01*
X52669410Y-81342691D01*
X53851874Y-81537835D01*
G37*
G04 #@! TD.AperFunction*
G04 #@! TA.AperFunction,Conductor*
G36*
X53989955Y-41243427D02*
G01*
X53990496Y-41244005D01*
X54853694Y-42232777D01*
X54856553Y-42241264D01*
X54854156Y-42247602D01*
X53869275Y-43528931D01*
X53861517Y-43533402D01*
X53852869Y-43531077D01*
X53850723Y-43528931D01*
X52893983Y-42284212D01*
X52891659Y-42275566D01*
X52896130Y-42267808D01*
X52898433Y-42266427D01*
X52962893Y-42237289D01*
X52985478Y-42227081D01*
X52985479Y-42227080D01*
X52985486Y-42227077D01*
X53183003Y-42093579D01*
X53355118Y-41928621D01*
X53496879Y-41736947D01*
X53604207Y-41524074D01*
X53667889Y-41316129D01*
X53670255Y-41311872D01*
X53729504Y-41244005D01*
X53737527Y-41240027D01*
X53738318Y-41240000D01*
X53981682Y-41240000D01*
X53989955Y-41243427D01*
G37*
G04 #@! TD.AperFunction*
G04 #@! TA.AperFunction,Conductor*
G36*
X44357165Y-75259225D02*
G01*
X44952921Y-75651389D01*
X44957947Y-75658799D01*
X44956261Y-75667594D01*
X44954135Y-75670016D01*
X44737070Y-75857465D01*
X44650949Y-75943586D01*
X44564827Y-76029707D01*
X44556554Y-76033134D01*
X44549297Y-76030611D01*
X44088909Y-75666539D01*
X44084545Y-75658720D01*
X44086380Y-75650949D01*
X44340967Y-75262595D01*
X44348368Y-75257556D01*
X44357165Y-75259225D01*
G37*
G04 #@! TD.AperFunction*
G04 #@! TA.AperFunction,Conductor*
G36*
X38730060Y-80503427D02*
G01*
X38730486Y-80503876D01*
X39620014Y-81492883D01*
X39622999Y-81501326D01*
X39620707Y-81507684D01*
X38669077Y-82788779D01*
X38661393Y-82793377D01*
X38652708Y-82791194D01*
X38650526Y-82789083D01*
X37631710Y-81507515D01*
X37629246Y-81498908D01*
X37631942Y-81492675D01*
X38469495Y-80504137D01*
X38477458Y-80500040D01*
X38478422Y-80500000D01*
X38721787Y-80500000D01*
X38730060Y-80503427D01*
G37*
G04 #@! TD.AperFunction*
G04 #@! TA.AperFunction,Conductor*
G36*
X53851878Y-119537723D02*
G01*
X53859424Y-119542545D01*
X53861486Y-119548225D01*
X53973431Y-120831032D01*
X53970736Y-120839572D01*
X53965746Y-120843055D01*
X52049685Y-121534387D01*
X52040740Y-121533971D01*
X52037441Y-121531654D01*
X51868506Y-121362719D01*
X51865079Y-121354446D01*
X51865885Y-121350179D01*
X52119610Y-120703373D01*
X52121920Y-120699696D01*
X52182433Y-120634479D01*
X52330228Y-120417704D01*
X52444063Y-120181323D01*
X52521396Y-119930615D01*
X52532683Y-119855731D01*
X52560499Y-119671192D01*
X52560500Y-119671180D01*
X52560500Y-119581649D01*
X52561308Y-119577376D01*
X52572744Y-119548225D01*
X52656499Y-119334710D01*
X52662710Y-119328261D01*
X52669437Y-119327465D01*
X53851878Y-119537723D01*
G37*
G04 #@! TD.AperFunction*
G04 #@! TA.AperFunction,Conductor*
G36*
X44339762Y-92753889D02*
G01*
X44347915Y-92757591D01*
X44350786Y-92763022D01*
X44437609Y-93150230D01*
X44436075Y-93159053D01*
X44429104Y-93164122D01*
X43326900Y-93447310D01*
X43318034Y-93446050D01*
X43315715Y-93444251D01*
X43058998Y-93187534D01*
X43055571Y-93179261D01*
X43058696Y-93171302D01*
X43469469Y-92728732D01*
X43477607Y-92725000D01*
X43478407Y-92724999D01*
X44339762Y-92753889D01*
G37*
G04 #@! TD.AperFunction*
G04 #@! TA.AperFunction,Conductor*
G36*
X46495022Y-32504391D02*
G01*
X46499879Y-32511914D01*
X46500069Y-32513956D01*
X46501000Y-32700000D01*
X46500069Y-32886043D01*
X46496601Y-32894298D01*
X46488310Y-32897684D01*
X46486268Y-32897494D01*
X46109599Y-32828751D01*
X46102076Y-32823894D01*
X46100000Y-32817241D01*
X46100000Y-32582758D01*
X46103427Y-32574485D01*
X46109598Y-32571248D01*
X46486270Y-32502505D01*
X46495022Y-32504391D01*
G37*
G04 #@! TD.AperFunction*
G04 #@! TA.AperFunction,Conductor*
G36*
X39809078Y-44394998D02*
G01*
X39814572Y-44400451D01*
X40603270Y-46024811D01*
X40603801Y-46033750D01*
X40601018Y-46038194D01*
X40431061Y-46208151D01*
X40422788Y-46211578D01*
X40422004Y-46211552D01*
X38772062Y-46100677D01*
X38764037Y-46096703D01*
X38761182Y-46089925D01*
X38659999Y-44808239D01*
X38662764Y-44799723D01*
X38667750Y-44796292D01*
X39800137Y-44394534D01*
X39809078Y-44394998D01*
G37*
G04 #@! TD.AperFunction*
G04 #@! TA.AperFunction,Conductor*
G36*
X52329331Y-101956016D02*
G01*
X52332470Y-101958257D01*
X52501493Y-102127280D01*
X52504920Y-102135553D01*
X52504112Y-102139826D01*
X51713680Y-104154832D01*
X51707469Y-104161282D01*
X51700176Y-104161964D01*
X50567596Y-103902608D01*
X50560297Y-103897421D01*
X50558552Y-103892220D01*
X50446580Y-102609105D01*
X50449275Y-102600568D01*
X50454431Y-102597027D01*
X52320395Y-101955466D01*
X52329331Y-101956016D01*
G37*
G04 #@! TD.AperFunction*
G04 #@! TA.AperFunction,Conductor*
G36*
X53867130Y-62548922D02*
G01*
X53869276Y-62551068D01*
X54854156Y-63832397D01*
X54856481Y-63841045D01*
X54853694Y-63847222D01*
X53990496Y-64835995D01*
X53982474Y-64839973D01*
X53981682Y-64840000D01*
X53738318Y-64840000D01*
X53730045Y-64836573D01*
X53729504Y-64835995D01*
X52866305Y-63847222D01*
X52863446Y-63838735D01*
X52865842Y-63832399D01*
X53850724Y-62551067D01*
X53858482Y-62546597D01*
X53867130Y-62548922D01*
G37*
G04 #@! TD.AperFunction*
G04 #@! TA.AperFunction,Conductor*
G36*
X52329331Y-44956016D02*
G01*
X52332470Y-44958257D01*
X52501493Y-45127280D01*
X52504920Y-45135553D01*
X52504112Y-45139826D01*
X51713680Y-47154832D01*
X51707469Y-47161282D01*
X51700176Y-47161964D01*
X50567596Y-46902608D01*
X50560297Y-46897421D01*
X50558552Y-46892220D01*
X50446580Y-45609105D01*
X50449275Y-45600568D01*
X50454431Y-45597027D01*
X52320395Y-44955466D01*
X52329331Y-44956016D01*
G37*
G04 #@! TD.AperFunction*
G04 #@! TA.AperFunction,Conductor*
G36*
X40171733Y-34510224D02*
G01*
X40340360Y-34678851D01*
X40343787Y-34687124D01*
X40343131Y-34690985D01*
X40102916Y-35378053D01*
X40096951Y-35384732D01*
X40091178Y-35385871D01*
X39506620Y-35351142D01*
X39498565Y-35347231D01*
X39496498Y-35343923D01*
X39317870Y-34910354D01*
X39317887Y-34901400D01*
X39323762Y-34895285D01*
X40158537Y-34507883D01*
X40167482Y-34507510D01*
X40171733Y-34510224D01*
G37*
G04 #@! TD.AperFunction*
G04 #@! TA.AperFunction,Conductor*
G36*
X54017407Y-117243427D02*
G01*
X54018000Y-117244065D01*
X54869358Y-118232728D01*
X54872160Y-118241234D01*
X54869715Y-118247563D01*
X53869366Y-119529001D01*
X53861573Y-119533413D01*
X53852943Y-119531024D01*
X53850816Y-119528864D01*
X52905070Y-118279106D01*
X52902812Y-118270443D01*
X52907341Y-118262718D01*
X52909574Y-118261391D01*
X52972985Y-118232728D01*
X52985478Y-118227081D01*
X52985479Y-118227080D01*
X52985486Y-118227077D01*
X53183003Y-118093579D01*
X53355118Y-117928621D01*
X53496879Y-117736947D01*
X53604207Y-117524074D01*
X53653796Y-117362147D01*
X53656213Y-117357834D01*
X53745763Y-117256651D01*
X53757008Y-117243946D01*
X53765057Y-117240022D01*
X53765769Y-117240000D01*
X54009134Y-117240000D01*
X54017407Y-117243427D01*
G37*
G04 #@! TD.AperFunction*
G04 #@! TA.AperFunction,Conductor*
G36*
X38730060Y-99503427D02*
G01*
X38730486Y-99503876D01*
X39620014Y-100492883D01*
X39622999Y-100501326D01*
X39620707Y-100507684D01*
X38669077Y-101788779D01*
X38661393Y-101793377D01*
X38652708Y-101791194D01*
X38650526Y-101789083D01*
X37631710Y-100507515D01*
X37629246Y-100498908D01*
X37631942Y-100492675D01*
X38469495Y-99504137D01*
X38477458Y-99500040D01*
X38478422Y-99500000D01*
X38721787Y-99500000D01*
X38730060Y-99503427D01*
G37*
G04 #@! TD.AperFunction*
G04 #@! TA.AperFunction,Conductor*
G36*
X44539841Y-91945527D02*
G01*
X44541900Y-91948311D01*
X44750444Y-92340867D01*
X44751300Y-92349781D01*
X44748395Y-92354619D01*
X44356383Y-92747596D01*
X44348114Y-92751033D01*
X44339837Y-92747616D01*
X44339817Y-92747596D01*
X43947804Y-92354619D01*
X43944387Y-92346342D01*
X43945755Y-92340867D01*
X44154300Y-91948311D01*
X44161207Y-91942612D01*
X44164632Y-91942100D01*
X44531568Y-91942100D01*
X44539841Y-91945527D01*
G37*
G04 #@! TD.AperFunction*
G04 #@! TA.AperFunction,Conductor*
G36*
X38789955Y-118503427D02*
G01*
X38790496Y-118504005D01*
X39653694Y-119492777D01*
X39656553Y-119501264D01*
X39654156Y-119507602D01*
X38669276Y-120788931D01*
X38661518Y-120793402D01*
X38652870Y-120791077D01*
X38650724Y-120788931D01*
X37665843Y-119507602D01*
X37663518Y-119498954D01*
X37666304Y-119492778D01*
X38529504Y-118504005D01*
X38537526Y-118500027D01*
X38538318Y-118500000D01*
X38781682Y-118500000D01*
X38789955Y-118503427D01*
G37*
G04 #@! TD.AperFunction*
G04 #@! TA.AperFunction,Conductor*
G36*
X53989955Y-60243427D02*
G01*
X53990496Y-60244005D01*
X54853694Y-61232777D01*
X54856553Y-61241264D01*
X54854156Y-61247602D01*
X53869275Y-62528931D01*
X53861517Y-62533402D01*
X53852869Y-62531077D01*
X53850723Y-62528931D01*
X52893983Y-61284212D01*
X52891659Y-61275566D01*
X52896130Y-61267808D01*
X52898433Y-61266427D01*
X52962893Y-61237289D01*
X52985478Y-61227081D01*
X52985479Y-61227080D01*
X52985486Y-61227077D01*
X53183003Y-61093579D01*
X53355118Y-60928621D01*
X53496879Y-60736947D01*
X53604207Y-60524074D01*
X53667889Y-60316129D01*
X53670255Y-60311872D01*
X53729504Y-60244005D01*
X53737527Y-60240027D01*
X53738318Y-60240000D01*
X53981682Y-60240000D01*
X53989955Y-60243427D01*
G37*
G04 #@! TD.AperFunction*
G04 #@! TA.AperFunction,Conductor*
G36*
X50345867Y-32034297D02*
G01*
X50350899Y-32039975D01*
X50499123Y-32395498D01*
X50499144Y-32404452D01*
X50499123Y-32404502D01*
X50350899Y-32760024D01*
X50344552Y-32766342D01*
X50336979Y-32766798D01*
X49708579Y-32592874D01*
X49701520Y-32587365D01*
X49700000Y-32581598D01*
X49700000Y-32218401D01*
X49703427Y-32210128D01*
X49708577Y-32207126D01*
X50336979Y-32033201D01*
X50345867Y-32034297D01*
G37*
G04 #@! TD.AperFunction*
G04 #@! TA.AperFunction,Conductor*
G36*
X38730060Y-61503427D02*
G01*
X38730486Y-61503876D01*
X39620014Y-62492883D01*
X39622999Y-62501326D01*
X39620707Y-62507684D01*
X38669077Y-63788779D01*
X38661393Y-63793377D01*
X38652708Y-63791194D01*
X38650526Y-63789083D01*
X37631710Y-62507515D01*
X37629246Y-62498908D01*
X37631942Y-62492675D01*
X38469495Y-61504137D01*
X38477458Y-61500040D01*
X38478422Y-61500000D01*
X38721787Y-61500000D01*
X38730060Y-61503427D01*
G37*
G04 #@! TD.AperFunction*
G04 #@! TA.AperFunction,Conductor*
G36*
X39809078Y-101394998D02*
G01*
X39814572Y-101400451D01*
X40603270Y-103024811D01*
X40603801Y-103033750D01*
X40601018Y-103038194D01*
X40431061Y-103208151D01*
X40422788Y-103211578D01*
X40422004Y-103211552D01*
X38772062Y-103100677D01*
X38764037Y-103096703D01*
X38761182Y-103089925D01*
X38659999Y-101808239D01*
X38662764Y-101799723D01*
X38667750Y-101796292D01*
X39800137Y-101394534D01*
X39809078Y-101394998D01*
G37*
G04 #@! TD.AperFunction*
G04 #@! TA.AperFunction,Conductor*
G36*
X44356093Y-113260615D02*
G01*
X44356108Y-113260628D01*
X44791107Y-113651707D01*
X44794968Y-113659787D01*
X44791986Y-113668230D01*
X44791615Y-113668624D01*
X44566383Y-113896977D01*
X44307410Y-114155949D01*
X44299137Y-114159376D01*
X44290864Y-114155949D01*
X44289196Y-114153845D01*
X43988088Y-113668624D01*
X43987295Y-113667346D01*
X43985845Y-113658511D01*
X43988521Y-113653374D01*
X44339573Y-113261521D01*
X44347644Y-113257647D01*
X44356093Y-113260615D01*
G37*
G04 #@! TD.AperFunction*
G04 #@! TA.AperFunction,Conductor*
G36*
X53867203Y-100548868D02*
G01*
X53869366Y-100550998D01*
X54869715Y-101832436D01*
X54872104Y-101841066D01*
X54869358Y-101847271D01*
X54018000Y-102835935D01*
X54010005Y-102839968D01*
X54009134Y-102840000D01*
X53765769Y-102840000D01*
X53757496Y-102836573D01*
X53757008Y-102836054D01*
X52881826Y-101847174D01*
X52878909Y-101838708D01*
X52881255Y-101832363D01*
X53850815Y-100551136D01*
X53858538Y-100546609D01*
X53867203Y-100548868D01*
G37*
G04 #@! TD.AperFunction*
M02*
