G04 #@! TF.GenerationSoftware,KiCad,Pcbnew,7.0.8*
G04 #@! TF.CreationDate,2023-12-05T05:13:53-08:00*
G04 #@! TF.ProjectId,Seismos_5-Key,53656973-6d6f-4735-9f35-2d4b65792e6b,rev?*
G04 #@! TF.SameCoordinates,Original*
G04 #@! TF.FileFunction,Profile,NP*
%FSLAX46Y46*%
G04 Gerber Fmt 4.6, Leading zero omitted, Abs format (unit mm)*
G04 Created by KiCad (PCBNEW 7.0.8) date 2023-12-05 05:13:53*
%MOMM*%
%LPD*%
G01*
G04 APERTURE LIST*
G04 #@! TA.AperFunction,Profile*
%ADD10C,0.100000*%
G04 #@! TD*
G04 #@! TA.AperFunction,Profile*
%ADD11C,0.120000*%
G04 #@! TD*
G04 APERTURE END LIST*
D10*
X37500000Y-128939340D02*
X37500000Y-31000000D01*
X55000000Y-130439340D02*
X39000000Y-130439340D01*
X37500060Y-128939340D02*
G75*
G03*
X39000000Y-130439340I1499940J-60D01*
G01*
X40300000Y-25000000D02*
X40300000Y-31000000D01*
X37500000Y-31000000D02*
X40300000Y-31000000D01*
X56500000Y-31000000D02*
X53700000Y-31000000D01*
X55000000Y-130439400D02*
G75*
G03*
X56500000Y-128939340I-100J1500100D01*
G01*
X56500000Y-31000000D02*
X56500000Y-128939340D01*
X53700000Y-31000000D02*
X53700000Y-25000000D01*
X40300000Y-25000000D02*
X53700000Y-25000000D01*
D11*
X45238000Y-54008600D02*
X48478000Y-54008600D01*
X48478000Y-54008600D02*
X48478000Y-56995400D01*
X48478000Y-56995400D02*
X45238000Y-56995400D01*
X45238000Y-56995400D02*
X45238000Y-54008600D01*
X45238000Y-35008600D02*
X48478000Y-35008600D01*
X48478000Y-35008600D02*
X48478000Y-37995400D01*
X48478000Y-37995400D02*
X45238000Y-37995400D01*
X45238000Y-37995400D02*
X45238000Y-35008600D01*
X45238000Y-73008600D02*
X48478000Y-73008600D01*
X48478000Y-73008600D02*
X48478000Y-75995400D01*
X48478000Y-75995400D02*
X45238000Y-75995400D01*
X45238000Y-75995400D02*
X45238000Y-73008600D01*
X45238000Y-92008600D02*
X48478000Y-92008600D01*
X48478000Y-92008600D02*
X48478000Y-94995400D01*
X48478000Y-94995400D02*
X45238000Y-94995400D01*
X45238000Y-94995400D02*
X45238000Y-92008600D01*
X45238000Y-111008600D02*
X48478000Y-111008600D01*
X48478000Y-111008600D02*
X48478000Y-113995400D01*
X48478000Y-113995400D02*
X45238000Y-113995400D01*
X45238000Y-113995400D02*
X45238000Y-111008600D01*
M02*
