G04 #@! TF.GenerationSoftware,KiCad,Pcbnew,7.0.8*
G04 #@! TF.CreationDate,2023-12-05T05:13:52-08:00*
G04 #@! TF.ProjectId,Seismos_5-Key,53656973-6d6f-4735-9f35-2d4b65792e6b,rev?*
G04 #@! TF.SameCoordinates,Original*
G04 #@! TF.FileFunction,Copper,L1,Top*
G04 #@! TF.FilePolarity,Positive*
%FSLAX46Y46*%
G04 Gerber Fmt 4.6, Leading zero omitted, Abs format (unit mm)*
G04 Created by KiCad (PCBNEW 7.0.8) date 2023-12-05 05:13:52*
%MOMM*%
%LPD*%
G01*
G04 APERTURE LIST*
G04 #@! TA.AperFunction,SMDPad,CuDef*
%ADD10R,0.600000X1.700000*%
G04 #@! TD*
G04 #@! TA.AperFunction,SMDPad,CuDef*
%ADD11R,1.200000X1.800000*%
G04 #@! TD*
G04 #@! TA.AperFunction,ViaPad*
%ADD12C,0.800000*%
G04 #@! TD*
G04 #@! TA.AperFunction,ViaPad*
%ADD13C,0.400000*%
G04 #@! TD*
G04 #@! TA.AperFunction,Conductor*
%ADD14C,0.254000*%
G04 #@! TD*
G04 #@! TA.AperFunction,Conductor*
%ADD15C,0.381000*%
G04 #@! TD*
G04 APERTURE END LIST*
D10*
X51500000Y-30286000D03*
X50500000Y-30286000D03*
X49500000Y-30285000D03*
X48500000Y-30285000D03*
X47500000Y-30285000D03*
X46500000Y-30285000D03*
X45500000Y-30285000D03*
X44500000Y-30285000D03*
X43500000Y-30285000D03*
X42500000Y-30285000D03*
D11*
X52800000Y-26410000D03*
X41200000Y-26410000D03*
D12*
X50100000Y-40100000D03*
X52700000Y-50200000D03*
X41600000Y-107400000D03*
X41600000Y-88400000D03*
X52000000Y-54600000D03*
X45750000Y-26810000D03*
X52000000Y-111600000D03*
X52000000Y-35600000D03*
X52000000Y-73600000D03*
X52000000Y-92600000D03*
X52700000Y-69200000D03*
X50100000Y-59100000D03*
X52700000Y-88200000D03*
X50100000Y-78100000D03*
D13*
X46500000Y-32700000D03*
X44380500Y-53000000D03*
X40200000Y-71300000D03*
X40500000Y-90100000D03*
D12*
X48500000Y-34000000D03*
D13*
X50800000Y-38800000D03*
D12*
X50500000Y-32400000D03*
X53161000Y-114550000D03*
D13*
X39500000Y-109100000D03*
D12*
X50100000Y-97100000D03*
X52700000Y-107200000D03*
D14*
X52700000Y-50200000D02*
X52700000Y-48488657D01*
X52700000Y-48488657D02*
X48700000Y-44488657D01*
X48700000Y-42800000D02*
X50100000Y-41400000D01*
X48700000Y-44488657D02*
X48700000Y-42800000D01*
X50100000Y-41400000D02*
X50100000Y-40100000D01*
D15*
X41200000Y-26810000D02*
X52800000Y-26810000D01*
X47500000Y-30285000D02*
X47500000Y-28560000D01*
X45750000Y-26810000D02*
X47500000Y-28560000D01*
D14*
X48700000Y-61800000D02*
X50100000Y-60400000D01*
X52700000Y-69200000D02*
X52700000Y-67488657D01*
X52700000Y-67488657D02*
X48700000Y-63488657D01*
X50100000Y-60400000D02*
X50100000Y-59100000D01*
X48700000Y-63488657D02*
X48700000Y-61800000D01*
X48700000Y-80800000D02*
X50100000Y-79400000D01*
X52700000Y-88200000D02*
X52700000Y-86488657D01*
X48700000Y-82488657D02*
X48700000Y-80800000D01*
X50100000Y-79400000D02*
X50100000Y-78100000D01*
X52700000Y-86488657D02*
X48700000Y-82488657D01*
X46500000Y-32700000D02*
X46500000Y-30685000D01*
X45988052Y-43846000D02*
X44354000Y-42211948D01*
X49454000Y-48346000D02*
X49454000Y-45884709D01*
X44380500Y-53000000D02*
X44800000Y-53000000D01*
X44800000Y-53000000D02*
X49454000Y-48346000D01*
X44354000Y-34994725D02*
X45500000Y-33848725D01*
X44354000Y-42211948D02*
X44354000Y-34994725D01*
X45500000Y-33848725D02*
X45500000Y-30685000D01*
X47415291Y-43846000D02*
X45988052Y-43846000D01*
X49454000Y-45884709D02*
X47415291Y-43846000D01*
X47300000Y-63200000D02*
X45700000Y-63200000D01*
X48900000Y-67000000D02*
X48900000Y-64800000D01*
X44500000Y-34206673D02*
X44500000Y-30685000D01*
X49000000Y-48000000D02*
X49000000Y-46072761D01*
X47227239Y-44300000D02*
X45800000Y-44300000D01*
X40200000Y-71300000D02*
X44600000Y-71300000D01*
X47300000Y-49700000D02*
X49000000Y-48000000D01*
X45700000Y-63200000D02*
X43854000Y-61354000D01*
X49000000Y-46072761D02*
X47227239Y-44300000D01*
X45900000Y-49700000D02*
X47300000Y-49700000D01*
X43854000Y-61354000D02*
X43854000Y-51746000D01*
X44600000Y-71300000D02*
X48900000Y-67000000D01*
X48900000Y-64800000D02*
X47300000Y-63200000D01*
X43900000Y-42400000D02*
X43900000Y-34806673D01*
X45800000Y-44300000D02*
X43900000Y-42400000D01*
X43854000Y-51746000D02*
X45900000Y-49700000D01*
X43900000Y-34806673D02*
X44500000Y-34206673D01*
X43400000Y-75200000D02*
X42300000Y-74100000D01*
X43400000Y-79700000D02*
X43400000Y-75200000D01*
X42300000Y-55100000D02*
X42254709Y-55100000D01*
X40970186Y-80700000D02*
X42400000Y-80700000D01*
X42300000Y-74100000D02*
X42254709Y-74100000D01*
X43400000Y-56200000D02*
X42300000Y-55100000D01*
X42400000Y-42700000D02*
X40970186Y-42700000D01*
X42400000Y-61700000D02*
X43400000Y-60700000D01*
X39571500Y-71416791D02*
X39571500Y-63098686D01*
X39571500Y-44098686D02*
X39571500Y-52416791D01*
X40970186Y-61700000D02*
X42400000Y-61700000D01*
X43446000Y-34618620D02*
X43446000Y-41654000D01*
X42254709Y-55100000D02*
X39571500Y-52416791D01*
X42254709Y-74100000D02*
X39571500Y-71416791D01*
X39571500Y-82098686D02*
X40970186Y-80700000D01*
X43500000Y-34564620D02*
X43446000Y-34618620D01*
X40500000Y-89350000D02*
X39571500Y-88421500D01*
X40970186Y-42700000D02*
X39571500Y-44098686D01*
X43400000Y-60700000D02*
X43400000Y-56200000D01*
X43446000Y-41654000D02*
X42400000Y-42700000D01*
X42400000Y-80700000D02*
X43400000Y-79700000D01*
X39571500Y-63098686D02*
X40970186Y-61700000D01*
X40500000Y-90100000D02*
X40500000Y-89350000D01*
X39571500Y-88421500D02*
X39571500Y-82098686D01*
X43500000Y-30685000D02*
X43500000Y-34564620D01*
D15*
X48500000Y-34000000D02*
X48500000Y-30285000D01*
D14*
X50800000Y-38800000D02*
X49500000Y-37500000D01*
X49500000Y-37500000D02*
X49500000Y-30685000D01*
D15*
X50500000Y-30286000D02*
X50500000Y-32400000D01*
X55425000Y-34611000D02*
X51500000Y-30686000D01*
X53161000Y-114550000D02*
X53350000Y-114550000D01*
X55425000Y-112475000D02*
X55425000Y-34611000D01*
X53350000Y-114550000D02*
X55425000Y-112475000D01*
D14*
X40127000Y-79409500D02*
X39117500Y-78400000D01*
X40127000Y-42901134D02*
X40127000Y-41795144D01*
X39117500Y-81910634D02*
X40127000Y-80901134D01*
X40127000Y-80901134D02*
X40127000Y-79409500D01*
X39117500Y-43900000D02*
X39128134Y-43900000D01*
X40127000Y-41795144D02*
X39117500Y-40785644D01*
X39117500Y-36100000D02*
X42500000Y-32717500D01*
X39117500Y-62910634D02*
X40127000Y-61901134D01*
X39117500Y-78400000D02*
X39117500Y-62910634D01*
X40053500Y-98336000D02*
X39117500Y-97400000D01*
X40127000Y-61901134D02*
X40127000Y-60709500D01*
X39117500Y-59700000D02*
X39117500Y-43900000D01*
X42500000Y-32717500D02*
X42500000Y-30685000D01*
X39117500Y-97400000D02*
X39117500Y-81910634D01*
X40053500Y-108546500D02*
X40053500Y-98336000D01*
X39128134Y-43900000D02*
X40127000Y-42901134D01*
X39117500Y-40785644D02*
X39117500Y-36100000D01*
X39500000Y-109100000D02*
X40053500Y-108546500D01*
X40127000Y-60709500D02*
X39117500Y-59700000D01*
X52700000Y-105488657D02*
X48700000Y-101488657D01*
X48700000Y-101488657D02*
X48700000Y-99800000D01*
X48700000Y-99800000D02*
X50100000Y-98400000D01*
X50100000Y-98400000D02*
X50100000Y-97100000D01*
X52700000Y-107200000D02*
X52700000Y-105488657D01*
G04 #@! TA.AperFunction,Conductor*
G36*
X50614985Y-38432903D02*
G01*
X50878366Y-38614987D01*
X50929939Y-38650641D01*
X50934796Y-38658164D01*
X50932910Y-38666918D01*
X50931600Y-38668497D01*
X50800707Y-38800707D01*
X50668497Y-38931600D01*
X50660206Y-38934986D01*
X50651951Y-38931518D01*
X50650641Y-38929939D01*
X50561299Y-38800707D01*
X50432903Y-38614985D01*
X50431018Y-38606233D01*
X50434253Y-38600063D01*
X50600062Y-38434254D01*
X50608334Y-38430828D01*
X50614985Y-38432903D01*
G37*
G04 #@! TD.AperFunction*
G04 #@! TA.AperFunction,Conductor*
G36*
X44394220Y-52802504D02*
G01*
X44770901Y-52871248D01*
X44778424Y-52876105D01*
X44780500Y-52882758D01*
X44780500Y-53117241D01*
X44777073Y-53125514D01*
X44770901Y-53128751D01*
X44394231Y-53197494D01*
X44385477Y-53195608D01*
X44380620Y-53188085D01*
X44380430Y-53186043D01*
X44380127Y-53125514D01*
X44379500Y-53000000D01*
X44380430Y-52813955D01*
X44383898Y-52805701D01*
X44392189Y-52802315D01*
X44394220Y-52802504D01*
G37*
G04 #@! TD.AperFunction*
G04 #@! TA.AperFunction,Conductor*
G36*
X50689871Y-31603427D02*
G01*
X50692874Y-31608579D01*
X50866798Y-32236979D01*
X50865702Y-32245867D01*
X50860024Y-32250899D01*
X50504502Y-32399123D01*
X50495548Y-32399144D01*
X50495498Y-32399123D01*
X50139975Y-32250899D01*
X50133657Y-32244552D01*
X50133201Y-32236979D01*
X50307126Y-31608579D01*
X50312635Y-31601520D01*
X50318402Y-31600000D01*
X50681598Y-31600000D01*
X50689871Y-31603427D01*
G37*
G04 #@! TD.AperFunction*
G04 #@! TA.AperFunction,Conductor*
G36*
X53669770Y-113965828D02*
G01*
X53672777Y-113968003D01*
X53929589Y-114224815D01*
X53933016Y-114233088D01*
X53930357Y-114240514D01*
X53452012Y-114822896D01*
X53444113Y-114827114D01*
X53435545Y-114824511D01*
X53434719Y-114823764D01*
X53161964Y-114552369D01*
X53159396Y-114548527D01*
X53029272Y-114232317D01*
X53012711Y-114192073D01*
X53012732Y-114183120D01*
X53019079Y-114176802D01*
X53019840Y-114176519D01*
X53660843Y-113965164D01*
X53669770Y-113965828D01*
G37*
G04 #@! TD.AperFunction*
G04 #@! TA.AperFunction,Conductor*
G36*
X52827165Y-106403427D02*
G01*
X52829847Y-106407593D01*
X53065591Y-107036362D01*
X53065287Y-107045311D01*
X53059138Y-107051268D01*
X52704502Y-107199123D01*
X52695548Y-107199144D01*
X52695498Y-107199123D01*
X52340861Y-107051268D01*
X52334543Y-107044921D01*
X52334408Y-107036364D01*
X52570153Y-106407592D01*
X52576266Y-106401049D01*
X52581108Y-106400000D01*
X52818892Y-106400000D01*
X52827165Y-106403427D01*
G37*
G04 #@! TD.AperFunction*
G04 #@! TA.AperFunction,Conductor*
G36*
X40625515Y-89703427D02*
G01*
X40628752Y-89709599D01*
X40697494Y-90086268D01*
X40695608Y-90095022D01*
X40688085Y-90099879D01*
X40686043Y-90100069D01*
X40500000Y-90101000D01*
X40313956Y-90100069D01*
X40305701Y-90096601D01*
X40302315Y-90088310D01*
X40302503Y-90086280D01*
X40371248Y-89709598D01*
X40376105Y-89702076D01*
X40382758Y-89700000D01*
X40617242Y-89700000D01*
X40625515Y-89703427D01*
G37*
G04 #@! TD.AperFunction*
G04 #@! TA.AperFunction,Conductor*
G36*
X48510553Y-30314137D02*
G01*
X48511034Y-30315299D01*
X48798604Y-31131040D01*
X48798561Y-31138942D01*
X48693306Y-31427312D01*
X48687250Y-31433908D01*
X48682315Y-31435000D01*
X48317685Y-31435000D01*
X48309412Y-31431573D01*
X48306694Y-31427312D01*
X48293398Y-31390886D01*
X48201437Y-31138939D01*
X48201395Y-31131042D01*
X48488966Y-30315298D01*
X48494948Y-30308636D01*
X48503890Y-30308155D01*
X48510553Y-30314137D01*
G37*
G04 #@! TD.AperFunction*
G04 #@! TA.AperFunction,Conductor*
G36*
X50459138Y-97248731D02*
G01*
X50465456Y-97255078D01*
X50465591Y-97263637D01*
X50229847Y-97892407D01*
X50223734Y-97898951D01*
X50218892Y-97900000D01*
X49981108Y-97900000D01*
X49972835Y-97896573D01*
X49970153Y-97892407D01*
X49734408Y-97263635D01*
X49734712Y-97254688D01*
X49740859Y-97248732D01*
X50095500Y-97100875D01*
X50104449Y-97100855D01*
X50459138Y-97248731D01*
G37*
G04 #@! TD.AperFunction*
G04 #@! TA.AperFunction,Conductor*
G36*
X39699938Y-108734255D02*
G01*
X39865744Y-108900061D01*
X39869171Y-108908334D01*
X39867095Y-108914987D01*
X39649358Y-109229939D01*
X39641835Y-109234796D01*
X39633081Y-109232910D01*
X39631502Y-109231600D01*
X39499293Y-109100707D01*
X39368399Y-108968497D01*
X39365013Y-108960206D01*
X39368481Y-108951951D01*
X39370054Y-108950645D01*
X39685014Y-108732903D01*
X39693766Y-108731018D01*
X39699938Y-108734255D01*
G37*
G04 #@! TD.AperFunction*
G04 #@! TA.AperFunction,Conductor*
G36*
X46625515Y-32303427D02*
G01*
X46628752Y-32309599D01*
X46697494Y-32686268D01*
X46695608Y-32695022D01*
X46688085Y-32699879D01*
X46686043Y-32700069D01*
X46500000Y-32701000D01*
X46313956Y-32700069D01*
X46305701Y-32696601D01*
X46302315Y-32688310D01*
X46302503Y-32686280D01*
X46371248Y-32309598D01*
X46376105Y-32302076D01*
X46382758Y-32300000D01*
X46617242Y-32300000D01*
X46625515Y-32303427D01*
G37*
G04 #@! TD.AperFunction*
G04 #@! TA.AperFunction,Conductor*
G36*
X43510553Y-30314137D02*
G01*
X43511034Y-30315299D01*
X43798211Y-31129925D01*
X43797730Y-31138867D01*
X43797315Y-31139654D01*
X43630375Y-31429145D01*
X43623275Y-31434600D01*
X43620241Y-31435000D01*
X43379759Y-31435000D01*
X43371486Y-31431573D01*
X43369624Y-31429145D01*
X43202687Y-31139660D01*
X43201522Y-31130781D01*
X43201780Y-31129950D01*
X43488966Y-30315298D01*
X43494948Y-30308636D01*
X43503890Y-30308155D01*
X43510553Y-30314137D01*
G37*
G04 #@! TD.AperFunction*
G04 #@! TA.AperFunction,Conductor*
G36*
X52827165Y-68403427D02*
G01*
X52829847Y-68407593D01*
X53065591Y-69036362D01*
X53065287Y-69045311D01*
X53059138Y-69051268D01*
X52704502Y-69199123D01*
X52695548Y-69199144D01*
X52695498Y-69199123D01*
X52340861Y-69051268D01*
X52334543Y-69044921D01*
X52334408Y-69036364D01*
X52570153Y-68407592D01*
X52576266Y-68401049D01*
X52581108Y-68400000D01*
X52818892Y-68400000D01*
X52827165Y-68403427D01*
G37*
G04 #@! TD.AperFunction*
G04 #@! TA.AperFunction,Conductor*
G36*
X52827165Y-87403427D02*
G01*
X52829847Y-87407593D01*
X53065591Y-88036362D01*
X53065287Y-88045311D01*
X53059138Y-88051268D01*
X52704502Y-88199123D01*
X52695548Y-88199144D01*
X52695498Y-88199123D01*
X52340861Y-88051268D01*
X52334543Y-88044921D01*
X52334408Y-88036364D01*
X52570153Y-87407592D01*
X52576266Y-87401049D01*
X52581108Y-87400000D01*
X52818892Y-87400000D01*
X52827165Y-87403427D01*
G37*
G04 #@! TD.AperFunction*
G04 #@! TA.AperFunction,Conductor*
G36*
X52827165Y-49403427D02*
G01*
X52829847Y-49407593D01*
X53065591Y-50036362D01*
X53065287Y-50045311D01*
X53059138Y-50051268D01*
X52704502Y-50199123D01*
X52695548Y-50199144D01*
X52695498Y-50199123D01*
X52340861Y-50051268D01*
X52334543Y-50044921D01*
X52334408Y-50036364D01*
X52570153Y-49407592D01*
X52576266Y-49401049D01*
X52581108Y-49400000D01*
X52818892Y-49400000D01*
X52827165Y-49403427D01*
G37*
G04 #@! TD.AperFunction*
G04 #@! TA.AperFunction,Conductor*
G36*
X50459138Y-40248731D02*
G01*
X50465456Y-40255078D01*
X50465591Y-40263637D01*
X50229847Y-40892407D01*
X50223734Y-40898951D01*
X50218892Y-40900000D01*
X49981108Y-40900000D01*
X49972835Y-40896573D01*
X49970153Y-40892407D01*
X49734408Y-40263635D01*
X49734712Y-40254688D01*
X49740859Y-40248732D01*
X50095500Y-40100875D01*
X50104449Y-40100855D01*
X50459138Y-40248731D01*
G37*
G04 #@! TD.AperFunction*
G04 #@! TA.AperFunction,Conductor*
G36*
X48689871Y-33203427D02*
G01*
X48692874Y-33208579D01*
X48866798Y-33836979D01*
X48865702Y-33845867D01*
X48860024Y-33850899D01*
X48504502Y-33999123D01*
X48495548Y-33999144D01*
X48495498Y-33999123D01*
X48139975Y-33850899D01*
X48133657Y-33844552D01*
X48133201Y-33836979D01*
X48307126Y-33208579D01*
X48312635Y-33201520D01*
X48318402Y-33200000D01*
X48681598Y-33200000D01*
X48689871Y-33203427D01*
G37*
G04 #@! TD.AperFunction*
G04 #@! TA.AperFunction,Conductor*
G36*
X40213720Y-71102504D02*
G01*
X40590401Y-71171248D01*
X40597924Y-71176105D01*
X40600000Y-71182758D01*
X40600000Y-71417241D01*
X40596573Y-71425514D01*
X40590401Y-71428751D01*
X40213731Y-71497494D01*
X40204977Y-71495608D01*
X40200120Y-71488085D01*
X40199930Y-71486043D01*
X40199627Y-71425514D01*
X40199000Y-71300000D01*
X40199930Y-71113955D01*
X40203398Y-71105701D01*
X40211689Y-71102315D01*
X40213720Y-71102504D01*
G37*
G04 #@! TD.AperFunction*
G04 #@! TA.AperFunction,Conductor*
G36*
X50459138Y-59248731D02*
G01*
X50465456Y-59255078D01*
X50465591Y-59263637D01*
X50229847Y-59892407D01*
X50223734Y-59898951D01*
X50218892Y-59900000D01*
X49981108Y-59900000D01*
X49972835Y-59896573D01*
X49970153Y-59892407D01*
X49734408Y-59263635D01*
X49734712Y-59254688D01*
X49740859Y-59248732D01*
X50095500Y-59100875D01*
X50104449Y-59100855D01*
X50459138Y-59248731D01*
G37*
G04 #@! TD.AperFunction*
G04 #@! TA.AperFunction,Conductor*
G36*
X50510553Y-30315137D02*
G01*
X50511034Y-30316299D01*
X50798604Y-31132040D01*
X50798561Y-31139942D01*
X50693306Y-31428312D01*
X50687250Y-31434908D01*
X50682315Y-31436000D01*
X50317685Y-31436000D01*
X50309412Y-31432573D01*
X50306694Y-31428312D01*
X50293398Y-31391886D01*
X50201437Y-31139939D01*
X50201395Y-31132042D01*
X50488966Y-30316298D01*
X50494948Y-30309636D01*
X50503890Y-30309155D01*
X50510553Y-30315137D01*
G37*
G04 #@! TD.AperFunction*
G04 #@! TA.AperFunction,Conductor*
G36*
X50459138Y-78248731D02*
G01*
X50465456Y-78255078D01*
X50465591Y-78263637D01*
X50229847Y-78892407D01*
X50223734Y-78898951D01*
X50218892Y-78900000D01*
X49981108Y-78900000D01*
X49972835Y-78896573D01*
X49970153Y-78892407D01*
X49734408Y-78263635D01*
X49734712Y-78254688D01*
X49740859Y-78248732D01*
X50095500Y-78100875D01*
X50104449Y-78100855D01*
X50459138Y-78248731D01*
G37*
G04 #@! TD.AperFunction*
G04 #@! TA.AperFunction,Conductor*
G36*
X51776148Y-25020185D02*
G01*
X51821903Y-25072989D01*
X51831847Y-25142147D01*
X51808375Y-25198812D01*
X51756647Y-25267910D01*
X51756645Y-25267913D01*
X51706403Y-25402620D01*
X51706401Y-25402627D01*
X51700000Y-25462155D01*
X51700000Y-26160000D01*
X52926000Y-26160000D01*
X52993039Y-26179685D01*
X53038794Y-26232489D01*
X53050000Y-26284000D01*
X53050000Y-27810000D01*
X53447828Y-27810000D01*
X53447844Y-27809999D01*
X53507372Y-27803598D01*
X53507377Y-27803597D01*
X53532164Y-27794352D01*
X53601856Y-27789366D01*
X53663180Y-27822850D01*
X53696666Y-27884173D01*
X53699500Y-27910533D01*
X53699500Y-30975467D01*
X53699416Y-30975889D01*
X53699459Y-31000001D01*
X53699500Y-31000099D01*
X53699616Y-31000382D01*
X53699618Y-31000384D01*
X53699808Y-31000462D01*
X53700000Y-31000541D01*
X53700002Y-31000539D01*
X53724616Y-31000524D01*
X53724616Y-31000528D01*
X53724760Y-31000500D01*
X56375500Y-31000500D01*
X56442539Y-31020185D01*
X56488294Y-31072989D01*
X56499500Y-31124500D01*
X56499500Y-128937122D01*
X56499342Y-128941548D01*
X56494517Y-129008987D01*
X56482945Y-129155967D01*
X56481718Y-129164290D01*
X56461099Y-129259073D01*
X56433131Y-129375560D01*
X56430933Y-129382759D01*
X56395006Y-129479080D01*
X56351051Y-129585197D01*
X56348185Y-129591188D01*
X56298450Y-129682271D01*
X56296898Y-129684952D01*
X56238513Y-129780230D01*
X56235281Y-129784993D01*
X56172564Y-129868775D01*
X56170075Y-129871886D01*
X56097993Y-129956286D01*
X56094687Y-129959862D01*
X56020501Y-130034050D01*
X56016926Y-130037355D01*
X55932543Y-130109431D01*
X55929431Y-130111920D01*
X55845632Y-130174654D01*
X55840870Y-130177886D01*
X55745620Y-130236259D01*
X55742939Y-130237811D01*
X55651838Y-130287561D01*
X55645847Y-130290428D01*
X55539746Y-130334381D01*
X55443408Y-130370318D01*
X55436210Y-130372516D01*
X55339365Y-130395772D01*
X55319723Y-130400489D01*
X55224989Y-130421101D01*
X55216651Y-130422330D01*
X55063554Y-130434350D01*
X55038188Y-130436166D01*
X55003033Y-130438682D01*
X54998625Y-130438840D01*
X39002215Y-130438840D01*
X38997791Y-130438682D01*
X38930376Y-130433860D01*
X38783366Y-130422289D01*
X38775042Y-130421061D01*
X38680276Y-130400446D01*
X38563788Y-130372479D01*
X38556588Y-130370281D01*
X38460277Y-130334358D01*
X38354150Y-130290397D01*
X38348158Y-130287530D01*
X38257078Y-130237795D01*
X38254396Y-130236242D01*
X38159135Y-130177864D01*
X38154372Y-130174632D01*
X38070577Y-130111902D01*
X38067485Y-130109429D01*
X38021215Y-130069909D01*
X37983093Y-130037348D01*
X37979517Y-130034043D01*
X37905323Y-129959847D01*
X37902017Y-129956270D01*
X37829935Y-129871868D01*
X37827446Y-129868757D01*
X37806555Y-129840849D01*
X37764730Y-129784973D01*
X37761524Y-129780251D01*
X37703109Y-129684920D01*
X37701568Y-129682258D01*
X37651845Y-129591191D01*
X37648979Y-129585200D01*
X37605022Y-129479071D01*
X37569098Y-129382746D01*
X37566900Y-129375546D01*
X37543192Y-129276782D01*
X37538949Y-129259105D01*
X37518318Y-129164253D01*
X37517095Y-129155964D01*
X37505945Y-129014679D01*
X37500658Y-128940708D01*
X37500500Y-128936286D01*
X37500500Y-127567763D01*
X38645787Y-127567763D01*
X38675413Y-127837013D01*
X38675415Y-127837024D01*
X38743926Y-128099082D01*
X38743928Y-128099088D01*
X38849870Y-128348390D01*
X38921998Y-128466575D01*
X38990979Y-128579605D01*
X38990986Y-128579615D01*
X39164253Y-128787819D01*
X39164259Y-128787824D01*
X39365998Y-128968582D01*
X39591910Y-129118044D01*
X39837176Y-129233020D01*
X39837183Y-129233022D01*
X39837185Y-129233023D01*
X40096557Y-129311057D01*
X40096564Y-129311058D01*
X40096569Y-129311060D01*
X40364561Y-129350500D01*
X40364566Y-129350500D01*
X40567636Y-129350500D01*
X40619133Y-129346730D01*
X40770156Y-129335677D01*
X40882758Y-129310593D01*
X41034546Y-129276782D01*
X41034548Y-129276781D01*
X41034553Y-129276780D01*
X41287558Y-129180014D01*
X41523777Y-129047441D01*
X41738177Y-128881888D01*
X41926186Y-128686881D01*
X42083799Y-128466579D01*
X42157787Y-128322669D01*
X42207649Y-128225690D01*
X42207651Y-128225684D01*
X42207656Y-128225675D01*
X42295118Y-127969305D01*
X42344319Y-127702933D01*
X42349259Y-127567763D01*
X51645787Y-127567763D01*
X51675413Y-127837013D01*
X51675415Y-127837024D01*
X51743926Y-128099082D01*
X51743928Y-128099088D01*
X51849870Y-128348390D01*
X51921998Y-128466575D01*
X51990979Y-128579605D01*
X51990986Y-128579615D01*
X52164253Y-128787819D01*
X52164259Y-128787824D01*
X52365998Y-128968582D01*
X52591910Y-129118044D01*
X52837176Y-129233020D01*
X52837183Y-129233022D01*
X52837185Y-129233023D01*
X53096557Y-129311057D01*
X53096564Y-129311058D01*
X53096569Y-129311060D01*
X53364561Y-129350500D01*
X53364566Y-129350500D01*
X53567636Y-129350500D01*
X53619133Y-129346730D01*
X53770156Y-129335677D01*
X53882758Y-129310593D01*
X54034546Y-129276782D01*
X54034548Y-129276781D01*
X54034553Y-129276780D01*
X54287558Y-129180014D01*
X54523777Y-129047441D01*
X54738177Y-128881888D01*
X54926186Y-128686881D01*
X55083799Y-128466579D01*
X55157787Y-128322669D01*
X55207649Y-128225690D01*
X55207651Y-128225684D01*
X55207656Y-128225675D01*
X55295118Y-127969305D01*
X55344319Y-127702933D01*
X55354212Y-127432235D01*
X55324586Y-127162982D01*
X55256072Y-126900912D01*
X55150130Y-126651610D01*
X55009018Y-126420390D01*
X54919747Y-126313119D01*
X54835746Y-126212180D01*
X54835740Y-126212175D01*
X54634002Y-126031418D01*
X54408092Y-125881957D01*
X54408090Y-125881956D01*
X54162824Y-125766980D01*
X54162819Y-125766978D01*
X54162814Y-125766976D01*
X53903442Y-125688942D01*
X53903428Y-125688939D01*
X53787791Y-125671921D01*
X53635439Y-125649500D01*
X53432369Y-125649500D01*
X53432364Y-125649500D01*
X53229844Y-125664323D01*
X53229831Y-125664325D01*
X52965453Y-125723217D01*
X52965446Y-125723220D01*
X52712439Y-125819987D01*
X52476226Y-125952557D01*
X52261822Y-126118112D01*
X52073822Y-126313109D01*
X52073816Y-126313116D01*
X51916202Y-126533419D01*
X51916199Y-126533424D01*
X51792350Y-126774309D01*
X51792343Y-126774327D01*
X51704884Y-127030685D01*
X51704881Y-127030699D01*
X51655681Y-127297068D01*
X51655680Y-127297075D01*
X51645787Y-127567763D01*
X42349259Y-127567763D01*
X42354212Y-127432235D01*
X42324586Y-127162982D01*
X42256072Y-126900912D01*
X42150130Y-126651610D01*
X42009018Y-126420390D01*
X41919747Y-126313119D01*
X41835746Y-126212180D01*
X41835740Y-126212175D01*
X41634002Y-126031418D01*
X41408092Y-125881957D01*
X41408090Y-125881956D01*
X41162824Y-125766980D01*
X41162819Y-125766978D01*
X41162814Y-125766976D01*
X40903442Y-125688942D01*
X40903428Y-125688939D01*
X40787791Y-125671921D01*
X40635439Y-125649500D01*
X40432369Y-125649500D01*
X40432364Y-125649500D01*
X40229844Y-125664323D01*
X40229831Y-125664325D01*
X39965453Y-125723217D01*
X39965446Y-125723220D01*
X39712439Y-125819987D01*
X39476226Y-125952557D01*
X39261822Y-126118112D01*
X39073822Y-126313109D01*
X39073816Y-126313116D01*
X38916202Y-126533419D01*
X38916199Y-126533424D01*
X38792350Y-126774309D01*
X38792343Y-126774327D01*
X38704884Y-127030685D01*
X38704881Y-127030699D01*
X38655681Y-127297068D01*
X38655680Y-127297075D01*
X38645787Y-127567763D01*
X37500500Y-127567763D01*
X37500500Y-120931187D01*
X40249500Y-120931187D01*
X40269794Y-121065823D01*
X40288604Y-121190615D01*
X40288605Y-121190617D01*
X40288606Y-121190623D01*
X40365938Y-121441326D01*
X40479767Y-121677696D01*
X40479768Y-121677697D01*
X40479770Y-121677700D01*
X40479772Y-121677704D01*
X40627567Y-121894479D01*
X40806014Y-122086801D01*
X40806018Y-122086804D01*
X40806019Y-122086805D01*
X41011143Y-122250386D01*
X41238357Y-122381568D01*
X41482584Y-122477420D01*
X41738370Y-122535802D01*
X41738376Y-122535802D01*
X41738379Y-122535803D01*
X41934500Y-122550500D01*
X41934506Y-122550500D01*
X42065500Y-122550500D01*
X42261620Y-122535803D01*
X42261622Y-122535802D01*
X42261630Y-122535802D01*
X42517416Y-122477420D01*
X42601111Y-122444571D01*
X42670705Y-122438403D01*
X42732588Y-122470840D01*
X42764900Y-122523448D01*
X42825937Y-122721323D01*
X42825938Y-122721326D01*
X42939767Y-122957696D01*
X42939768Y-122957697D01*
X42939770Y-122957700D01*
X42939772Y-122957704D01*
X42989869Y-123031182D01*
X43087567Y-123174479D01*
X43266014Y-123366801D01*
X43266018Y-123366804D01*
X43266019Y-123366805D01*
X43471143Y-123530386D01*
X43698357Y-123661568D01*
X43942584Y-123757420D01*
X44198370Y-123815802D01*
X44198376Y-123815802D01*
X44198379Y-123815803D01*
X44394500Y-123830500D01*
X44394506Y-123830500D01*
X44525500Y-123830500D01*
X44721620Y-123815803D01*
X44721622Y-123815802D01*
X44721630Y-123815802D01*
X44977416Y-123757420D01*
X45221643Y-123661568D01*
X45221646Y-123661566D01*
X45221647Y-123661566D01*
X45264118Y-123637045D01*
X45332018Y-123620571D01*
X45398045Y-123643423D01*
X45437839Y-123690630D01*
X45479767Y-123777695D01*
X45479768Y-123777697D01*
X45479770Y-123777700D01*
X45479772Y-123777704D01*
X45505747Y-123815802D01*
X45627567Y-123994479D01*
X45806014Y-124186801D01*
X45806018Y-124186804D01*
X45806019Y-124186805D01*
X46011143Y-124350386D01*
X46238357Y-124481568D01*
X46482584Y-124577420D01*
X46738370Y-124635802D01*
X46738376Y-124635802D01*
X46738379Y-124635803D01*
X46934500Y-124650500D01*
X46934506Y-124650500D01*
X47065500Y-124650500D01*
X47261620Y-124635803D01*
X47261622Y-124635802D01*
X47261630Y-124635802D01*
X47517416Y-124577420D01*
X47761643Y-124481568D01*
X47988857Y-124350386D01*
X48193981Y-124186805D01*
X48372433Y-123994479D01*
X48520228Y-123777704D01*
X48634063Y-123541323D01*
X48711396Y-123290615D01*
X48750500Y-123031182D01*
X48750500Y-122768818D01*
X48711396Y-122509385D01*
X48634063Y-122258677D01*
X48551292Y-122086801D01*
X48520232Y-122022303D01*
X48520231Y-122022302D01*
X48520230Y-122022301D01*
X48520228Y-122022296D01*
X48372433Y-121805521D01*
X48362441Y-121794753D01*
X48193985Y-121613198D01*
X48154533Y-121581736D01*
X47988857Y-121449614D01*
X47761643Y-121318432D01*
X47517416Y-121222580D01*
X47517411Y-121222578D01*
X47517402Y-121222576D01*
X47299818Y-121172914D01*
X47261630Y-121164198D01*
X47261629Y-121164197D01*
X47261625Y-121164197D01*
X47261620Y-121164196D01*
X47065500Y-121149500D01*
X47065494Y-121149500D01*
X46934506Y-121149500D01*
X46934500Y-121149500D01*
X46738379Y-121164196D01*
X46738374Y-121164197D01*
X46482597Y-121222576D01*
X46482578Y-121222582D01*
X46238363Y-121318429D01*
X46238357Y-121318432D01*
X46195877Y-121342957D01*
X46127977Y-121359427D01*
X46061951Y-121336574D01*
X46022160Y-121289369D01*
X45980232Y-121202303D01*
X45980231Y-121202302D01*
X45980230Y-121202301D01*
X45980228Y-121202296D01*
X45832433Y-120985521D01*
X45782014Y-120931182D01*
X45653985Y-120793198D01*
X45498017Y-120668818D01*
X45448857Y-120629614D01*
X45221643Y-120498432D01*
X44977416Y-120402580D01*
X44977411Y-120402578D01*
X44977402Y-120402576D01*
X44759818Y-120352914D01*
X44721630Y-120344198D01*
X44721629Y-120344197D01*
X44721625Y-120344197D01*
X44721620Y-120344196D01*
X44525500Y-120329500D01*
X44525494Y-120329500D01*
X44394506Y-120329500D01*
X44394500Y-120329500D01*
X44198379Y-120344196D01*
X44198374Y-120344197D01*
X43942585Y-120402579D01*
X43858890Y-120435426D01*
X43789293Y-120441593D01*
X43727410Y-120409155D01*
X43695098Y-120356547D01*
X43641048Y-120181323D01*
X43634063Y-120158677D01*
X43622121Y-120133880D01*
X43520232Y-119922303D01*
X43520231Y-119922302D01*
X43520230Y-119922301D01*
X43520228Y-119922296D01*
X43372433Y-119705521D01*
X43340576Y-119671187D01*
X49059500Y-119671187D01*
X49079794Y-119805823D01*
X49098604Y-119930615D01*
X49098605Y-119930617D01*
X49098606Y-119930623D01*
X49175938Y-120181326D01*
X49289767Y-120417696D01*
X49289768Y-120417697D01*
X49289770Y-120417700D01*
X49289772Y-120417704D01*
X49338126Y-120488626D01*
X49437567Y-120634479D01*
X49616014Y-120826801D01*
X49616018Y-120826804D01*
X49616019Y-120826805D01*
X49821143Y-120990386D01*
X50048357Y-121121568D01*
X50292584Y-121217420D01*
X50548370Y-121275802D01*
X50548376Y-121275802D01*
X50548379Y-121275803D01*
X50744500Y-121290500D01*
X50744506Y-121290500D01*
X50875500Y-121290500D01*
X51071620Y-121275803D01*
X51071622Y-121275802D01*
X51071630Y-121275802D01*
X51327416Y-121217420D01*
X51571643Y-121121568D01*
X51798857Y-120990386D01*
X52003981Y-120826805D01*
X52035167Y-120793195D01*
X52043945Y-120783733D01*
X52182433Y-120634479D01*
X52330228Y-120417704D01*
X52444063Y-120181323D01*
X52521396Y-119930615D01*
X52560500Y-119671182D01*
X52560500Y-119408818D01*
X52521396Y-119149385D01*
X52444063Y-118898677D01*
X52382165Y-118770144D01*
X52330232Y-118662303D01*
X52330225Y-118662292D01*
X52282720Y-118592615D01*
X52261219Y-118526136D01*
X52279073Y-118458586D01*
X52330613Y-118411411D01*
X52374657Y-118399210D01*
X52537536Y-118385347D01*
X52537539Y-118385346D01*
X52537541Y-118385346D01*
X52768249Y-118325275D01*
X52927707Y-118253195D01*
X52985480Y-118227080D01*
X52985481Y-118227078D01*
X52985486Y-118227077D01*
X53183003Y-118093579D01*
X53355118Y-117928621D01*
X53496879Y-117736947D01*
X53604207Y-117524074D01*
X53674016Y-117296123D01*
X53704298Y-117059654D01*
X53694180Y-116821468D01*
X53683999Y-116774230D01*
X53643954Y-116588419D01*
X53555064Y-116367211D01*
X53555064Y-116367210D01*
X53430069Y-116164205D01*
X53272564Y-115985245D01*
X53087080Y-115835477D01*
X52973130Y-115771820D01*
X52878955Y-115719210D01*
X52654170Y-115639788D01*
X52419209Y-115599500D01*
X52419200Y-115599500D01*
X52240503Y-115599500D01*
X52240498Y-115599500D01*
X52062463Y-115614652D01*
X51831751Y-115674724D01*
X51614519Y-115772919D01*
X51614511Y-115772924D01*
X51417006Y-115906413D01*
X51416997Y-115906421D01*
X51244881Y-116071379D01*
X51103123Y-116263050D01*
X51103120Y-116263054D01*
X50995796Y-116475920D01*
X50995793Y-116475926D01*
X50925983Y-116703878D01*
X50895702Y-116940346D01*
X50905819Y-117178528D01*
X50905819Y-117178532D01*
X50956046Y-117411582D01*
X50956046Y-117411583D01*
X51040876Y-117622689D01*
X51047607Y-117692233D01*
X51015671Y-117754377D01*
X50955207Y-117789390D01*
X50916552Y-117792576D01*
X50875500Y-117789500D01*
X50875494Y-117789500D01*
X50744506Y-117789500D01*
X50744500Y-117789500D01*
X50548379Y-117804196D01*
X50548374Y-117804197D01*
X50292597Y-117862576D01*
X50292578Y-117862582D01*
X50048356Y-117958432D01*
X49821143Y-118089614D01*
X49616014Y-118253198D01*
X49437567Y-118445520D01*
X49289768Y-118662302D01*
X49289767Y-118662303D01*
X49175938Y-118898673D01*
X49098606Y-119149376D01*
X49098605Y-119149381D01*
X49098604Y-119149385D01*
X49088197Y-119218432D01*
X49059500Y-119408812D01*
X49059500Y-119671187D01*
X43340576Y-119671187D01*
X43340571Y-119671182D01*
X43193985Y-119513198D01*
X43063095Y-119408817D01*
X42988857Y-119349614D01*
X42761643Y-119218432D01*
X42517416Y-119122580D01*
X42517411Y-119122578D01*
X42517402Y-119122576D01*
X42299818Y-119072914D01*
X42261630Y-119064198D01*
X42261629Y-119064197D01*
X42261625Y-119064197D01*
X42261620Y-119064196D01*
X42065500Y-119049500D01*
X42065494Y-119049500D01*
X41934506Y-119049500D01*
X41934500Y-119049500D01*
X41738379Y-119064196D01*
X41738374Y-119064197D01*
X41482597Y-119122576D01*
X41482578Y-119122582D01*
X41238356Y-119218432D01*
X41011143Y-119349614D01*
X40806014Y-119513198D01*
X40627567Y-119705520D01*
X40479768Y-119922302D01*
X40479767Y-119922303D01*
X40365938Y-120158673D01*
X40288606Y-120409376D01*
X40288605Y-120409381D01*
X40288604Y-120409385D01*
X40276660Y-120488626D01*
X40249500Y-120668812D01*
X40249500Y-120931187D01*
X37500500Y-120931187D01*
X37500500Y-116940346D01*
X40295702Y-116940346D01*
X40305819Y-117178528D01*
X40305819Y-117178532D01*
X40356045Y-117411580D01*
X40440877Y-117622689D01*
X40444936Y-117632790D01*
X40569931Y-117835795D01*
X40727436Y-118014755D01*
X40912920Y-118164523D01*
X41121046Y-118280790D01*
X41246951Y-118325275D01*
X41345829Y-118360211D01*
X41580790Y-118400499D01*
X41580798Y-118400499D01*
X41580800Y-118400500D01*
X41580801Y-118400500D01*
X41759502Y-118400500D01*
X41937536Y-118385347D01*
X41937539Y-118385346D01*
X41937541Y-118385346D01*
X42168249Y-118325275D01*
X42327707Y-118253195D01*
X42385480Y-118227080D01*
X42385481Y-118227078D01*
X42385486Y-118227077D01*
X42583003Y-118093579D01*
X42755118Y-117928621D01*
X42896879Y-117736947D01*
X43004207Y-117524074D01*
X43074016Y-117296123D01*
X43102285Y-117075373D01*
X44745723Y-117075373D01*
X44775881Y-117375160D01*
X44775882Y-117375162D01*
X44845728Y-117668252D01*
X44845733Y-117668266D01*
X44954020Y-117949427D01*
X44954024Y-117949436D01*
X45098825Y-118213665D01*
X45098829Y-118213671D01*
X45206801Y-118360211D01*
X45277554Y-118456238D01*
X45277561Y-118456245D01*
X45487019Y-118672823D01*
X45723478Y-118859553D01*
X45723480Y-118859554D01*
X45723485Y-118859558D01*
X45982730Y-119013109D01*
X46260128Y-119130736D01*
X46550729Y-119210340D01*
X46849347Y-119250500D01*
X46849351Y-119250500D01*
X47075252Y-119250500D01*
X47239164Y-119239526D01*
X47300634Y-119235412D01*
X47595903Y-119175396D01*
X47880537Y-119076560D01*
X48149459Y-118940668D01*
X48397869Y-118770144D01*
X48621333Y-118568032D01*
X48815865Y-118337939D01*
X48977993Y-118083970D01*
X49104823Y-117810658D01*
X49194093Y-117522879D01*
X49244209Y-117225770D01*
X49254277Y-116924631D01*
X49224118Y-116624838D01*
X49154269Y-116331739D01*
X49045977Y-116050566D01*
X48901175Y-115786335D01*
X48722446Y-115543762D01*
X48512980Y-115327176D01*
X48389742Y-115229856D01*
X48276521Y-115140446D01*
X48276517Y-115140443D01*
X48276515Y-115140442D01*
X48017270Y-114986891D01*
X47739872Y-114869264D01*
X47739863Y-114869261D01*
X47449272Y-114789660D01*
X47374616Y-114779620D01*
X47150653Y-114749500D01*
X46924756Y-114749500D01*
X46924748Y-114749500D01*
X46699368Y-114764587D01*
X46699359Y-114764589D01*
X46404094Y-114824604D01*
X46119464Y-114923439D01*
X46119459Y-114923441D01*
X45850546Y-115059328D01*
X45602125Y-115229860D01*
X45378665Y-115431969D01*
X45184132Y-115662064D01*
X45022006Y-115916030D01*
X45022005Y-115916032D01*
X44906842Y-116164205D01*
X44895177Y-116189342D01*
X44895176Y-116189346D01*
X44805907Y-116477118D01*
X44787133Y-116588419D01*
X44755791Y-116774230D01*
X44746249Y-117059654D01*
X44745723Y-117075373D01*
X43102285Y-117075373D01*
X43104298Y-117059654D01*
X43094180Y-116821468D01*
X43083999Y-116774230D01*
X43043954Y-116588419D01*
X42955064Y-116367211D01*
X42955064Y-116367210D01*
X42830069Y-116164205D01*
X42672564Y-115985245D01*
X42487080Y-115835477D01*
X42373130Y-115771820D01*
X42278955Y-115719210D01*
X42054170Y-115639788D01*
X41819209Y-115599500D01*
X41819200Y-115599500D01*
X41640503Y-115599500D01*
X41640498Y-115599500D01*
X41462463Y-115614652D01*
X41231751Y-115674724D01*
X41014519Y-115772919D01*
X41014511Y-115772924D01*
X40817006Y-115906413D01*
X40816997Y-115906421D01*
X40644881Y-116071379D01*
X40503123Y-116263050D01*
X40503120Y-116263054D01*
X40395796Y-116475920D01*
X40395793Y-116475926D01*
X40325983Y-116703878D01*
X40295702Y-116940346D01*
X37500500Y-116940346D01*
X37500500Y-113428133D01*
X41025668Y-113428133D01*
X41050027Y-113566272D01*
X41056135Y-113600911D01*
X41125623Y-113762004D01*
X41125624Y-113762006D01*
X41125626Y-113762009D01*
X41180278Y-113835418D01*
X41230390Y-113902730D01*
X41364786Y-114015502D01*
X41442488Y-114054525D01*
X41521562Y-114094238D01*
X41521563Y-114094238D01*
X41521567Y-114094240D01*
X41692279Y-114134700D01*
X41692282Y-114134700D01*
X41823701Y-114134700D01*
X41823709Y-114134700D01*
X41954255Y-114119441D01*
X42119117Y-114059437D01*
X42253139Y-113971289D01*
X45237416Y-113971289D01*
X45237459Y-113995401D01*
X45237500Y-113995499D01*
X45237616Y-113995782D01*
X45237618Y-113995784D01*
X45237808Y-113995862D01*
X45238000Y-113995941D01*
X45238002Y-113995939D01*
X45262616Y-113995924D01*
X45262616Y-113995928D01*
X45262760Y-113995900D01*
X48453240Y-113995900D01*
X48453383Y-113995928D01*
X48453384Y-113995924D01*
X48477997Y-113995939D01*
X48478000Y-113995941D01*
X48478383Y-113995783D01*
X48478500Y-113995499D01*
X48478541Y-113995400D01*
X48478540Y-113995397D01*
X48478583Y-113971289D01*
X48478500Y-113970867D01*
X48478500Y-111033359D01*
X48478528Y-111033216D01*
X48478524Y-111033216D01*
X48478539Y-111008602D01*
X48478541Y-111008600D01*
X48478462Y-111008408D01*
X48478384Y-111008218D01*
X48478382Y-111008216D01*
X48478099Y-111008100D01*
X48478000Y-111008059D01*
X48453446Y-111008059D01*
X48453240Y-111008100D01*
X45262760Y-111008100D01*
X45262554Y-111008059D01*
X45238000Y-111008059D01*
X45237901Y-111008100D01*
X45237617Y-111008216D01*
X45237615Y-111008218D01*
X45237459Y-111008599D01*
X45237476Y-111033216D01*
X45237471Y-111033216D01*
X45237500Y-111033359D01*
X45237500Y-113970867D01*
X45237416Y-113971289D01*
X42253139Y-113971289D01*
X42265696Y-113963030D01*
X42386092Y-113835418D01*
X42473812Y-113683481D01*
X42524130Y-113515410D01*
X42534331Y-113340265D01*
X42503865Y-113167489D01*
X42434377Y-113006396D01*
X42386381Y-112941927D01*
X42366667Y-112915446D01*
X42329610Y-112865670D01*
X42257747Y-112805370D01*
X42195214Y-112752898D01*
X42195212Y-112752897D01*
X42038437Y-112674161D01*
X42038433Y-112674160D01*
X41867721Y-112633700D01*
X41736291Y-112633700D01*
X41631854Y-112645907D01*
X41605743Y-112648959D01*
X41605740Y-112648960D01*
X41440884Y-112708962D01*
X41440880Y-112708964D01*
X41294306Y-112805367D01*
X41294305Y-112805368D01*
X41173910Y-112932978D01*
X41086188Y-113084918D01*
X41035870Y-113252989D01*
X41035869Y-113252994D01*
X41025668Y-113428133D01*
X37500500Y-113428133D01*
X37500500Y-81890511D01*
X38477265Y-81890511D01*
X38481725Y-81937693D01*
X38482000Y-81943531D01*
X38482000Y-97316151D01*
X38480258Y-97331927D01*
X38480526Y-97331953D01*
X38479792Y-97339718D01*
X38482000Y-97409985D01*
X38482000Y-97439983D01*
X38482887Y-97447013D01*
X38483345Y-97452832D01*
X38484834Y-97500203D01*
X38484835Y-97500207D01*
X38490557Y-97519905D01*
X38494500Y-97538946D01*
X38497071Y-97559288D01*
X38497074Y-97559303D01*
X38514516Y-97603359D01*
X38516407Y-97608883D01*
X38529630Y-97654391D01*
X38540070Y-97672044D01*
X38548628Y-97689514D01*
X38556179Y-97708585D01*
X38556182Y-97708591D01*
X38584042Y-97746936D01*
X38587249Y-97751819D01*
X38611366Y-97792598D01*
X38611370Y-97792602D01*
X38625864Y-97807096D01*
X38638496Y-97821885D01*
X38650558Y-97838487D01*
X38687075Y-97868696D01*
X38691386Y-97872618D01*
X39044538Y-98225770D01*
X39381681Y-98562913D01*
X39415166Y-98624236D01*
X39418000Y-98650594D01*
X39418000Y-108228210D01*
X39398315Y-108295249D01*
X39364515Y-108330208D01*
X39122891Y-108497250D01*
X39116444Y-108501151D01*
X39094573Y-108512631D01*
X39094568Y-108512634D01*
X39075812Y-108529250D01*
X39070022Y-108533796D01*
X39068806Y-108534639D01*
X39050733Y-108548346D01*
X39040462Y-108556873D01*
X39012021Y-108585588D01*
X39009086Y-108588363D01*
X38965786Y-108626725D01*
X38868045Y-108768326D01*
X38807034Y-108929198D01*
X38786296Y-109099999D01*
X38786296Y-109100000D01*
X38807034Y-109270801D01*
X38868045Y-109431673D01*
X38868046Y-109431675D01*
X38941555Y-109538170D01*
X38965786Y-109573274D01*
X38965789Y-109573277D01*
X39094567Y-109687365D01*
X39094568Y-109687365D01*
X39094570Y-109687367D01*
X39246917Y-109767325D01*
X39246919Y-109767325D01*
X39246920Y-109767326D01*
X39413972Y-109808500D01*
X39586028Y-109808500D01*
X39753083Y-109767325D01*
X39905430Y-109687367D01*
X39963560Y-109635865D01*
X39968298Y-109632067D01*
X39972367Y-109629122D01*
X39975787Y-109625432D01*
X39980122Y-109621194D01*
X40034215Y-109573273D01*
X40058448Y-109538164D01*
X40069582Y-109524283D01*
X40071746Y-109521950D01*
X40278064Y-109223512D01*
X40292371Y-109206359D01*
X40443572Y-109055158D01*
X40455961Y-109045235D01*
X40455789Y-109045028D01*
X40461798Y-109040055D01*
X40461803Y-109040053D01*
X40509941Y-108988790D01*
X40531138Y-108967594D01*
X40535479Y-108961997D01*
X40539274Y-108957554D01*
X40571717Y-108923006D01*
X40581602Y-108905024D01*
X40592273Y-108888778D01*
X40604849Y-108872567D01*
X40623672Y-108829067D01*
X40626240Y-108823828D01*
X40649069Y-108782303D01*
X40654170Y-108762431D01*
X40660473Y-108744026D01*
X40668617Y-108725208D01*
X40676033Y-108678375D01*
X40677208Y-108672701D01*
X40689000Y-108626782D01*
X40689000Y-108606274D01*
X40690527Y-108586874D01*
X40690731Y-108585588D01*
X40693735Y-108566621D01*
X40692814Y-108556873D01*
X40689275Y-108519439D01*
X40689000Y-108513601D01*
X40689000Y-103250973D01*
X40708685Y-103183934D01*
X40761489Y-103138179D01*
X40830647Y-103128235D01*
X40890309Y-103154024D01*
X41011143Y-103250386D01*
X41238357Y-103381568D01*
X41482584Y-103477420D01*
X41738370Y-103535802D01*
X41738376Y-103535802D01*
X41738379Y-103535803D01*
X41934500Y-103550500D01*
X41934506Y-103550500D01*
X42065500Y-103550500D01*
X42261620Y-103535803D01*
X42261622Y-103535802D01*
X42261630Y-103535802D01*
X42517416Y-103477420D01*
X42601111Y-103444571D01*
X42670705Y-103438403D01*
X42732588Y-103470840D01*
X42764900Y-103523448D01*
X42825937Y-103721323D01*
X42825938Y-103721326D01*
X42939767Y-103957696D01*
X42939768Y-103957697D01*
X42939770Y-103957700D01*
X42939772Y-103957704D01*
X42989869Y-104031182D01*
X43087567Y-104174479D01*
X43266014Y-104366801D01*
X43266018Y-104366804D01*
X43266019Y-104366805D01*
X43471143Y-104530386D01*
X43698357Y-104661568D01*
X43942584Y-104757420D01*
X44198370Y-104815802D01*
X44198376Y-104815802D01*
X44198379Y-104815803D01*
X44394500Y-104830500D01*
X44394506Y-104830500D01*
X44525500Y-104830500D01*
X44721620Y-104815803D01*
X44721622Y-104815802D01*
X44721630Y-104815802D01*
X44977416Y-104757420D01*
X45221643Y-104661568D01*
X45221646Y-104661566D01*
X45221647Y-104661566D01*
X45264118Y-104637045D01*
X45332018Y-104620571D01*
X45398045Y-104643423D01*
X45437839Y-104690630D01*
X45479767Y-104777695D01*
X45479768Y-104777697D01*
X45479770Y-104777700D01*
X45479772Y-104777704D01*
X45505747Y-104815802D01*
X45627567Y-104994479D01*
X45806014Y-105186801D01*
X45806018Y-105186804D01*
X45806019Y-105186805D01*
X46011143Y-105350386D01*
X46238357Y-105481568D01*
X46482584Y-105577420D01*
X46738370Y-105635802D01*
X46738376Y-105635802D01*
X46738379Y-105635803D01*
X46934500Y-105650500D01*
X46934506Y-105650500D01*
X47065500Y-105650500D01*
X47261620Y-105635803D01*
X47261622Y-105635802D01*
X47261630Y-105635802D01*
X47517416Y-105577420D01*
X47761643Y-105481568D01*
X47988857Y-105350386D01*
X48193981Y-105186805D01*
X48372433Y-104994479D01*
X48520228Y-104777704D01*
X48634063Y-104541323D01*
X48711396Y-104290615D01*
X48750500Y-104031182D01*
X48750500Y-103768818D01*
X48711396Y-103509385D01*
X48634063Y-103258677D01*
X48583666Y-103154026D01*
X48520232Y-103022303D01*
X48520231Y-103022302D01*
X48520230Y-103022301D01*
X48520228Y-103022296D01*
X48372433Y-102805521D01*
X48362441Y-102794753D01*
X48193985Y-102613198D01*
X48050717Y-102498946D01*
X47988857Y-102449614D01*
X47761643Y-102318432D01*
X47517416Y-102222580D01*
X47517411Y-102222578D01*
X47517402Y-102222576D01*
X47299818Y-102172914D01*
X47261630Y-102164198D01*
X47261629Y-102164197D01*
X47261625Y-102164197D01*
X47261620Y-102164196D01*
X47065500Y-102149500D01*
X47065494Y-102149500D01*
X46934506Y-102149500D01*
X46934500Y-102149500D01*
X46738379Y-102164196D01*
X46738374Y-102164197D01*
X46482597Y-102222576D01*
X46482578Y-102222582D01*
X46238363Y-102318429D01*
X46238357Y-102318432D01*
X46195877Y-102342957D01*
X46127977Y-102359427D01*
X46061951Y-102336574D01*
X46022160Y-102289369D01*
X45980232Y-102202303D01*
X45980231Y-102202302D01*
X45980230Y-102202301D01*
X45980228Y-102202296D01*
X45832433Y-101985521D01*
X45809948Y-101961288D01*
X45653985Y-101793198D01*
X45534033Y-101697540D01*
X45448857Y-101629614D01*
X45221643Y-101498432D01*
X44977416Y-101402580D01*
X44977411Y-101402578D01*
X44977402Y-101402576D01*
X44759818Y-101352914D01*
X44721630Y-101344198D01*
X44721629Y-101344197D01*
X44721625Y-101344197D01*
X44721620Y-101344196D01*
X44525500Y-101329500D01*
X44525494Y-101329500D01*
X44394506Y-101329500D01*
X44394500Y-101329500D01*
X44198379Y-101344196D01*
X44198374Y-101344197D01*
X43942585Y-101402579D01*
X43858890Y-101435426D01*
X43789293Y-101441593D01*
X43727410Y-101409155D01*
X43695098Y-101356547D01*
X43641048Y-101181323D01*
X43634063Y-101158677D01*
X43622121Y-101133880D01*
X43520232Y-100922303D01*
X43520231Y-100922302D01*
X43520230Y-100922301D01*
X43520228Y-100922296D01*
X43372433Y-100705521D01*
X43340571Y-100671182D01*
X43193985Y-100513198D01*
X43063095Y-100408817D01*
X42988857Y-100349614D01*
X42761643Y-100218432D01*
X42517416Y-100122580D01*
X42517411Y-100122578D01*
X42517402Y-100122576D01*
X42299818Y-100072914D01*
X42261630Y-100064198D01*
X42261629Y-100064197D01*
X42261625Y-100064197D01*
X42261620Y-100064196D01*
X42065500Y-100049500D01*
X42065494Y-100049500D01*
X41934506Y-100049500D01*
X41934500Y-100049500D01*
X41738379Y-100064196D01*
X41738374Y-100064197D01*
X41482597Y-100122576D01*
X41482578Y-100122582D01*
X41238356Y-100218432D01*
X41011143Y-100349614D01*
X40890313Y-100445973D01*
X40825626Y-100472382D01*
X40756931Y-100459625D01*
X40706037Y-100411755D01*
X40689000Y-100349026D01*
X40689000Y-99243218D01*
X40708685Y-99176179D01*
X40761489Y-99130424D01*
X40830647Y-99120480D01*
X40890897Y-99146740D01*
X40912920Y-99164523D01*
X41121046Y-99280790D01*
X41246951Y-99325275D01*
X41345829Y-99360211D01*
X41580790Y-99400499D01*
X41580798Y-99400499D01*
X41580800Y-99400500D01*
X41580801Y-99400500D01*
X41759502Y-99400500D01*
X41937536Y-99385347D01*
X41937539Y-99385346D01*
X41937541Y-99385346D01*
X42168249Y-99325275D01*
X42300973Y-99265279D01*
X42385480Y-99227080D01*
X42385481Y-99227078D01*
X42385486Y-99227077D01*
X42583003Y-99093579D01*
X42755118Y-98928621D01*
X42896879Y-98736947D01*
X43004207Y-98524074D01*
X43074016Y-98296123D01*
X43102285Y-98075373D01*
X44745723Y-98075373D01*
X44775881Y-98375160D01*
X44775882Y-98375162D01*
X44845728Y-98668252D01*
X44845733Y-98668266D01*
X44954020Y-98949427D01*
X44954024Y-98949436D01*
X45098825Y-99213665D01*
X45098829Y-99213671D01*
X45148282Y-99280789D01*
X45277554Y-99456238D01*
X45277561Y-99456245D01*
X45487019Y-99672823D01*
X45723478Y-99859553D01*
X45723480Y-99859554D01*
X45723485Y-99859558D01*
X45982730Y-100013109D01*
X46260128Y-100130736D01*
X46550729Y-100210340D01*
X46849347Y-100250500D01*
X46849351Y-100250500D01*
X47075252Y-100250500D01*
X47239164Y-100239526D01*
X47300634Y-100235412D01*
X47595903Y-100175396D01*
X47880537Y-100076560D01*
X47884569Y-100074522D01*
X47953276Y-100061851D01*
X48017931Y-100088338D01*
X48058002Y-100145575D01*
X48064500Y-100185191D01*
X48064500Y-101404808D01*
X48062758Y-101420584D01*
X48063026Y-101420610D01*
X48062292Y-101428375D01*
X48064500Y-101498642D01*
X48064500Y-101528640D01*
X48065387Y-101535670D01*
X48065845Y-101541489D01*
X48067334Y-101588860D01*
X48067335Y-101588864D01*
X48073057Y-101608562D01*
X48077000Y-101627603D01*
X48079571Y-101647945D01*
X48079574Y-101647960D01*
X48097016Y-101692016D01*
X48098907Y-101697540D01*
X48112130Y-101743048D01*
X48122570Y-101760701D01*
X48131128Y-101778171D01*
X48138679Y-101797242D01*
X48138682Y-101797248D01*
X48166542Y-101835593D01*
X48169749Y-101840476D01*
X48193866Y-101881255D01*
X48193870Y-101881259D01*
X48208363Y-101895752D01*
X48221001Y-101910549D01*
X48233057Y-101927144D01*
X48269576Y-101957354D01*
X48273888Y-101961277D01*
X50270307Y-103957696D01*
X52028181Y-105715570D01*
X52061666Y-105776893D01*
X52064500Y-105803251D01*
X52064500Y-106271081D01*
X52056608Y-106314613D01*
X51853592Y-106856091D01*
X51839488Y-106899484D01*
X51839082Y-106902663D01*
X51834012Y-106925269D01*
X51806458Y-107010072D01*
X51786496Y-107200000D01*
X51806458Y-107389928D01*
X51806459Y-107389931D01*
X51865470Y-107571549D01*
X51865473Y-107571556D01*
X51960960Y-107736944D01*
X52088747Y-107878866D01*
X52243248Y-107991118D01*
X52417712Y-108068794D01*
X52604513Y-108108500D01*
X52795487Y-108108500D01*
X52982288Y-108068794D01*
X53156752Y-107991118D01*
X53311253Y-107878866D01*
X53439040Y-107736944D01*
X53534527Y-107571556D01*
X53593542Y-107389928D01*
X53613504Y-107200000D01*
X53593542Y-107010072D01*
X53553362Y-106886413D01*
X53551773Y-106880560D01*
X53546407Y-106856090D01*
X53343392Y-106314613D01*
X53335500Y-106271082D01*
X53335500Y-105572504D01*
X53337241Y-105556724D01*
X53336974Y-105556699D01*
X53337706Y-105548945D01*
X53337708Y-105548938D01*
X53335500Y-105478671D01*
X53335500Y-105448674D01*
X53334611Y-105441641D01*
X53334153Y-105435819D01*
X53332665Y-105388452D01*
X53326941Y-105368750D01*
X53322997Y-105349706D01*
X53320427Y-105329358D01*
X53302973Y-105285275D01*
X53301098Y-105279799D01*
X53287869Y-105234264D01*
X53277427Y-105216608D01*
X53268870Y-105199141D01*
X53263984Y-105186801D01*
X53261319Y-105180069D01*
X53233462Y-105141727D01*
X53230253Y-105136842D01*
X53206137Y-105096063D01*
X53206136Y-105096062D01*
X53206134Y-105096058D01*
X53206131Y-105096055D01*
X53206129Y-105096052D01*
X53191633Y-105081556D01*
X53178995Y-105066760D01*
X53166942Y-105050170D01*
X53130422Y-105019958D01*
X53126100Y-105016024D01*
X50609022Y-102498946D01*
X50575537Y-102437623D01*
X50580521Y-102367931D01*
X50622393Y-102311998D01*
X50687857Y-102287581D01*
X50705967Y-102287611D01*
X50724494Y-102289000D01*
X50744501Y-102290500D01*
X50744506Y-102290500D01*
X50875500Y-102290500D01*
X51071620Y-102275803D01*
X51071622Y-102275802D01*
X51071630Y-102275802D01*
X51327416Y-102217420D01*
X51571643Y-102121568D01*
X51798857Y-101990386D01*
X52003981Y-101826805D01*
X52035167Y-101793195D01*
X52123921Y-101697540D01*
X52182433Y-101634479D01*
X52330228Y-101417704D01*
X52444063Y-101181323D01*
X52521396Y-100930615D01*
X52560500Y-100671182D01*
X52560500Y-100408818D01*
X52521396Y-100149385D01*
X52444063Y-99898677D01*
X52425222Y-99859553D01*
X52330232Y-99662303D01*
X52330225Y-99662292D01*
X52282720Y-99592615D01*
X52261219Y-99526136D01*
X52279073Y-99458586D01*
X52330613Y-99411411D01*
X52374657Y-99399210D01*
X52537536Y-99385347D01*
X52537539Y-99385346D01*
X52537541Y-99385346D01*
X52768249Y-99325275D01*
X52900973Y-99265279D01*
X52985480Y-99227080D01*
X52985481Y-99227078D01*
X52985486Y-99227077D01*
X53183003Y-99093579D01*
X53355118Y-98928621D01*
X53496879Y-98736947D01*
X53604207Y-98524074D01*
X53674016Y-98296123D01*
X53704298Y-98059654D01*
X53694180Y-97821468D01*
X53683999Y-97774230D01*
X53643954Y-97588419D01*
X53632254Y-97559303D01*
X53555064Y-97367210D01*
X53430069Y-97164205D01*
X53272564Y-96985245D01*
X53087080Y-96835477D01*
X52973130Y-96771820D01*
X52878955Y-96719210D01*
X52654170Y-96639788D01*
X52419209Y-96599500D01*
X52419200Y-96599500D01*
X52240503Y-96599500D01*
X52240498Y-96599500D01*
X52062463Y-96614652D01*
X51831751Y-96674724D01*
X51614519Y-96772919D01*
X51614511Y-96772924D01*
X51417006Y-96906413D01*
X51416997Y-96906421D01*
X51244882Y-97071379D01*
X51229332Y-97092403D01*
X51173640Y-97134596D01*
X51103979Y-97139982D01*
X51042464Y-97106851D01*
X51008626Y-97045722D01*
X51006319Y-97031640D01*
X50993542Y-96910072D01*
X50934527Y-96728444D01*
X50839040Y-96563056D01*
X50711253Y-96421134D01*
X50556752Y-96308882D01*
X50382288Y-96231206D01*
X50382286Y-96231205D01*
X50195487Y-96191500D01*
X50004513Y-96191500D01*
X49817714Y-96231205D01*
X49643246Y-96308883D01*
X49488745Y-96421135D01*
X49360959Y-96563057D01*
X49265473Y-96728443D01*
X49265470Y-96728450D01*
X49206777Y-96909089D01*
X49167339Y-96966765D01*
X49102981Y-96993963D01*
X49034134Y-96982048D01*
X48982659Y-96934804D01*
X48980104Y-96930363D01*
X48901175Y-96786335D01*
X48722446Y-96543762D01*
X48512980Y-96327176D01*
X48489814Y-96308882D01*
X48276521Y-96140446D01*
X48276517Y-96140443D01*
X48276515Y-96140442D01*
X48017270Y-95986891D01*
X47739872Y-95869264D01*
X47739863Y-95869261D01*
X47449272Y-95789660D01*
X47374616Y-95779620D01*
X47150653Y-95749500D01*
X46924756Y-95749500D01*
X46924748Y-95749500D01*
X46699368Y-95764587D01*
X46699359Y-95764589D01*
X46404094Y-95824604D01*
X46119464Y-95923439D01*
X46119459Y-95923441D01*
X45850546Y-96059328D01*
X45602125Y-96229860D01*
X45378665Y-96431969D01*
X45184132Y-96662064D01*
X45022006Y-96916030D01*
X45022005Y-96916032D01*
X44895181Y-97189333D01*
X44895177Y-97189342D01*
X44895176Y-97189346D01*
X44805907Y-97477118D01*
X44770081Y-97689514D01*
X44755791Y-97774230D01*
X44746249Y-98059654D01*
X44745723Y-98075373D01*
X43102285Y-98075373D01*
X43104298Y-98059654D01*
X43094180Y-97821468D01*
X43083999Y-97774230D01*
X43043954Y-97588419D01*
X43032254Y-97559303D01*
X42955064Y-97367210D01*
X42830069Y-97164205D01*
X42672564Y-96985245D01*
X42487080Y-96835477D01*
X42373130Y-96771820D01*
X42278955Y-96719210D01*
X42054170Y-96639788D01*
X41819209Y-96599500D01*
X41819200Y-96599500D01*
X41640503Y-96599500D01*
X41640498Y-96599500D01*
X41462463Y-96614652D01*
X41231751Y-96674724D01*
X41014519Y-96772919D01*
X41014511Y-96772924D01*
X40817006Y-96906413D01*
X40816997Y-96906421D01*
X40644881Y-97071379D01*
X40503123Y-97263050D01*
X40503120Y-97263054D01*
X40395796Y-97475920D01*
X40395792Y-97475929D01*
X40385003Y-97511157D01*
X40346549Y-97569493D01*
X40282660Y-97597778D01*
X40213622Y-97587033D01*
X40178758Y-97562525D01*
X39789319Y-97173086D01*
X39755834Y-97111763D01*
X39753000Y-97085405D01*
X39753000Y-94428133D01*
X41025668Y-94428133D01*
X41041058Y-94515410D01*
X41056135Y-94600911D01*
X41125623Y-94762004D01*
X41125624Y-94762006D01*
X41125626Y-94762009D01*
X41180278Y-94835418D01*
X41230390Y-94902730D01*
X41364786Y-95015502D01*
X41442488Y-95054525D01*
X41521562Y-95094238D01*
X41521563Y-95094238D01*
X41521567Y-95094240D01*
X41692279Y-95134700D01*
X41692282Y-95134700D01*
X41823701Y-95134700D01*
X41823709Y-95134700D01*
X41954255Y-95119441D01*
X42119117Y-95059437D01*
X42253139Y-94971289D01*
X45237416Y-94971289D01*
X45237459Y-94995401D01*
X45237500Y-94995499D01*
X45237616Y-94995782D01*
X45237618Y-94995784D01*
X45237808Y-94995862D01*
X45238000Y-94995941D01*
X45238002Y-94995939D01*
X45262616Y-94995924D01*
X45262616Y-94995928D01*
X45262760Y-94995900D01*
X48453240Y-94995900D01*
X48453383Y-94995928D01*
X48453384Y-94995924D01*
X48477997Y-94995939D01*
X48478000Y-94995941D01*
X48478383Y-94995783D01*
X48478500Y-94995499D01*
X48478541Y-94995400D01*
X48478540Y-94995397D01*
X48478583Y-94971289D01*
X48478500Y-94970867D01*
X48478500Y-94428133D01*
X51465668Y-94428133D01*
X51481058Y-94515410D01*
X51496135Y-94600911D01*
X51565623Y-94762004D01*
X51565624Y-94762006D01*
X51565626Y-94762009D01*
X51620278Y-94835418D01*
X51670390Y-94902730D01*
X51804786Y-95015502D01*
X51882488Y-95054525D01*
X51961562Y-95094238D01*
X51961563Y-95094238D01*
X51961567Y-95094240D01*
X52132279Y-95134700D01*
X52132282Y-95134700D01*
X52263701Y-95134700D01*
X52263709Y-95134700D01*
X52394255Y-95119441D01*
X52559117Y-95059437D01*
X52705696Y-94963030D01*
X52826092Y-94835418D01*
X52913812Y-94683481D01*
X52964130Y-94515410D01*
X52974331Y-94340265D01*
X52943865Y-94167489D01*
X52874377Y-94006396D01*
X52769610Y-93865670D01*
X52697747Y-93805370D01*
X52635214Y-93752898D01*
X52635212Y-93752897D01*
X52478437Y-93674161D01*
X52478433Y-93674160D01*
X52307721Y-93633700D01*
X52176291Y-93633700D01*
X52071854Y-93645907D01*
X52045743Y-93648959D01*
X52045740Y-93648960D01*
X51880884Y-93708962D01*
X51880880Y-93708964D01*
X51734306Y-93805367D01*
X51734305Y-93805368D01*
X51613910Y-93932978D01*
X51526188Y-94084918D01*
X51475870Y-94252989D01*
X51475869Y-94252994D01*
X51465668Y-94428133D01*
X48478500Y-94428133D01*
X48478500Y-92033359D01*
X48478528Y-92033216D01*
X48478524Y-92033216D01*
X48478539Y-92008602D01*
X48478541Y-92008600D01*
X48478462Y-92008408D01*
X48478384Y-92008218D01*
X48478382Y-92008216D01*
X48478099Y-92008100D01*
X48478000Y-92008059D01*
X48453446Y-92008059D01*
X48453240Y-92008100D01*
X45262760Y-92008100D01*
X45262554Y-92008059D01*
X45238000Y-92008059D01*
X45237901Y-92008100D01*
X45237617Y-92008216D01*
X45237615Y-92008218D01*
X45237459Y-92008599D01*
X45237476Y-92033216D01*
X45237471Y-92033216D01*
X45237500Y-92033359D01*
X45237500Y-94970867D01*
X45237416Y-94971289D01*
X42253139Y-94971289D01*
X42265696Y-94963030D01*
X42386092Y-94835418D01*
X42473812Y-94683481D01*
X42524130Y-94515410D01*
X42534331Y-94340265D01*
X42503865Y-94167489D01*
X42434377Y-94006396D01*
X42329610Y-93865670D01*
X42257747Y-93805370D01*
X42195214Y-93752898D01*
X42195212Y-93752897D01*
X42038437Y-93674161D01*
X42038433Y-93674160D01*
X41867721Y-93633700D01*
X41736291Y-93633700D01*
X41631854Y-93645907D01*
X41605743Y-93648959D01*
X41605740Y-93648960D01*
X41440884Y-93708962D01*
X41440880Y-93708964D01*
X41294306Y-93805367D01*
X41294305Y-93805368D01*
X41173910Y-93932978D01*
X41086188Y-94084918D01*
X41035870Y-94252989D01*
X41035869Y-94252994D01*
X41025668Y-94428133D01*
X39753000Y-94428133D01*
X39753000Y-90660049D01*
X39772685Y-90593010D01*
X39825489Y-90547255D01*
X39894647Y-90537311D01*
X39958203Y-90566336D01*
X39960332Y-90568442D01*
X40094567Y-90687365D01*
X40094568Y-90687365D01*
X40094570Y-90687367D01*
X40246917Y-90767325D01*
X40246919Y-90767325D01*
X40246920Y-90767326D01*
X40413972Y-90808500D01*
X40586028Y-90808500D01*
X40753079Y-90767326D01*
X40753079Y-90767325D01*
X40753083Y-90767325D01*
X40905430Y-90687367D01*
X41034215Y-90573273D01*
X41131954Y-90431675D01*
X41192965Y-90270801D01*
X41213704Y-90100000D01*
X41203772Y-90018216D01*
X41203367Y-90013101D01*
X41202650Y-89994077D01*
X41197581Y-89966304D01*
X41197025Y-89962642D01*
X41192965Y-89929200D01*
X41192823Y-89928825D01*
X41186778Y-89907111D01*
X41137515Y-89637172D01*
X41135500Y-89614910D01*
X41135500Y-89433850D01*
X41137241Y-89418076D01*
X41136974Y-89418051D01*
X41137708Y-89410283D01*
X41135500Y-89340028D01*
X41135500Y-89310023D01*
X41135500Y-89310017D01*
X41134611Y-89302980D01*
X41134152Y-89297152D01*
X41132664Y-89249795D01*
X41126944Y-89230107D01*
X41122996Y-89211045D01*
X41120427Y-89190701D01*
X41102978Y-89146633D01*
X41101087Y-89141106D01*
X41095734Y-89122681D01*
X41087869Y-89095607D01*
X41077427Y-89077951D01*
X41068870Y-89060484D01*
X41068862Y-89060463D01*
X41061319Y-89041412D01*
X41033462Y-89003070D01*
X41030253Y-88998185D01*
X41006137Y-88957406D01*
X41006136Y-88957405D01*
X41006134Y-88957401D01*
X41006131Y-88957398D01*
X41006129Y-88957395D01*
X40991633Y-88942899D01*
X40978995Y-88928103D01*
X40966942Y-88911513D01*
X40930422Y-88881301D01*
X40926100Y-88877367D01*
X40243319Y-88194586D01*
X40209834Y-88133263D01*
X40207000Y-88106905D01*
X40207000Y-83654566D01*
X40226685Y-83587527D01*
X40279489Y-83541772D01*
X40348647Y-83531828D01*
X40412203Y-83560853D01*
X40442720Y-83600765D01*
X40479767Y-83677696D01*
X40479768Y-83677697D01*
X40479770Y-83677700D01*
X40479772Y-83677704D01*
X40627567Y-83894479D01*
X40806014Y-84086801D01*
X40806018Y-84086804D01*
X40806019Y-84086805D01*
X41011143Y-84250386D01*
X41238357Y-84381568D01*
X41482584Y-84477420D01*
X41738370Y-84535802D01*
X41738376Y-84535802D01*
X41738379Y-84535803D01*
X41934500Y-84550500D01*
X41934506Y-84550500D01*
X42065500Y-84550500D01*
X42261620Y-84535803D01*
X42261622Y-84535802D01*
X42261630Y-84535802D01*
X42517416Y-84477420D01*
X42601111Y-84444571D01*
X42670705Y-84438403D01*
X42732588Y-84470840D01*
X42764900Y-84523448D01*
X42825937Y-84721323D01*
X42825938Y-84721326D01*
X42939767Y-84957696D01*
X42939768Y-84957697D01*
X42939770Y-84957700D01*
X42939772Y-84957704D01*
X42989869Y-85031182D01*
X43087567Y-85174479D01*
X43266014Y-85366801D01*
X43266018Y-85366804D01*
X43266019Y-85366805D01*
X43471143Y-85530386D01*
X43698357Y-85661568D01*
X43942584Y-85757420D01*
X44198370Y-85815802D01*
X44198376Y-85815802D01*
X44198379Y-85815803D01*
X44394500Y-85830500D01*
X44394506Y-85830500D01*
X44525500Y-85830500D01*
X44721620Y-85815803D01*
X44721622Y-85815802D01*
X44721630Y-85815802D01*
X44977416Y-85757420D01*
X45221643Y-85661568D01*
X45221646Y-85661566D01*
X45221647Y-85661566D01*
X45264118Y-85637045D01*
X45332018Y-85620571D01*
X45398045Y-85643423D01*
X45437839Y-85690630D01*
X45479767Y-85777695D01*
X45479768Y-85777697D01*
X45479770Y-85777700D01*
X45479772Y-85777704D01*
X45505747Y-85815802D01*
X45627567Y-85994479D01*
X45806014Y-86186801D01*
X45806018Y-86186804D01*
X45806019Y-86186805D01*
X46011143Y-86350386D01*
X46238357Y-86481568D01*
X46482584Y-86577420D01*
X46738370Y-86635802D01*
X46738376Y-86635802D01*
X46738379Y-86635803D01*
X46934500Y-86650500D01*
X46934506Y-86650500D01*
X47065500Y-86650500D01*
X47261620Y-86635803D01*
X47261622Y-86635802D01*
X47261630Y-86635802D01*
X47517416Y-86577420D01*
X47761643Y-86481568D01*
X47988857Y-86350386D01*
X48193981Y-86186805D01*
X48372433Y-85994479D01*
X48520228Y-85777704D01*
X48634063Y-85541323D01*
X48711396Y-85290615D01*
X48750500Y-85031182D01*
X48750500Y-84768818D01*
X48711396Y-84509385D01*
X48634063Y-84258677D01*
X48551292Y-84086801D01*
X48520232Y-84022303D01*
X48520231Y-84022302D01*
X48520230Y-84022301D01*
X48520228Y-84022296D01*
X48372433Y-83805521D01*
X48362441Y-83794753D01*
X48193985Y-83613198D01*
X48050717Y-83498946D01*
X47988857Y-83449614D01*
X47761643Y-83318432D01*
X47517416Y-83222580D01*
X47517411Y-83222578D01*
X47517402Y-83222576D01*
X47299818Y-83172914D01*
X47261630Y-83164198D01*
X47261629Y-83164197D01*
X47261625Y-83164197D01*
X47261620Y-83164196D01*
X47065500Y-83149500D01*
X47065494Y-83149500D01*
X46934506Y-83149500D01*
X46934500Y-83149500D01*
X46738379Y-83164196D01*
X46738374Y-83164197D01*
X46482597Y-83222576D01*
X46482578Y-83222582D01*
X46238363Y-83318429D01*
X46238357Y-83318432D01*
X46195877Y-83342957D01*
X46127977Y-83359427D01*
X46061951Y-83336574D01*
X46022160Y-83289369D01*
X45980232Y-83202303D01*
X45980231Y-83202302D01*
X45980230Y-83202301D01*
X45980228Y-83202296D01*
X45832433Y-82985521D01*
X45809948Y-82961288D01*
X45653985Y-82793198D01*
X45534033Y-82697540D01*
X45448857Y-82629614D01*
X45221643Y-82498432D01*
X44977416Y-82402580D01*
X44977411Y-82402578D01*
X44977402Y-82402576D01*
X44759818Y-82352914D01*
X44721630Y-82344198D01*
X44721629Y-82344197D01*
X44721625Y-82344197D01*
X44721620Y-82344196D01*
X44525500Y-82329500D01*
X44525494Y-82329500D01*
X44394506Y-82329500D01*
X44394500Y-82329500D01*
X44198379Y-82344196D01*
X44198374Y-82344197D01*
X43942585Y-82402579D01*
X43858890Y-82435426D01*
X43789293Y-82441593D01*
X43727410Y-82409155D01*
X43695098Y-82356547D01*
X43641048Y-82181323D01*
X43634063Y-82158677D01*
X43622121Y-82133880D01*
X43520232Y-81922303D01*
X43520231Y-81922302D01*
X43520230Y-81922301D01*
X43520228Y-81922296D01*
X43372433Y-81705521D01*
X43340571Y-81671182D01*
X43193985Y-81513198D01*
X43154533Y-81481736D01*
X42988857Y-81349614D01*
X42913418Y-81306059D01*
X42865203Y-81255493D01*
X42851980Y-81186886D01*
X42877948Y-81122021D01*
X42887729Y-81111001D01*
X43790074Y-80208657D01*
X43802458Y-80198738D01*
X43802286Y-80198530D01*
X43808292Y-80193559D01*
X43808303Y-80193553D01*
X43856426Y-80142306D01*
X43877639Y-80121094D01*
X43881983Y-80115492D01*
X43885770Y-80111057D01*
X43918217Y-80076506D01*
X43928099Y-80058529D01*
X43938771Y-80042282D01*
X43951350Y-80026066D01*
X43970174Y-79982563D01*
X43972739Y-79977329D01*
X43995566Y-79935809D01*
X43995566Y-79935807D01*
X43995569Y-79935803D01*
X44000669Y-79915935D01*
X44006967Y-79897538D01*
X44015117Y-79878707D01*
X44022530Y-79831901D01*
X44023715Y-79826177D01*
X44035500Y-79780282D01*
X44035500Y-79759773D01*
X44037027Y-79740373D01*
X44037570Y-79736945D01*
X44040235Y-79720120D01*
X44035775Y-79672938D01*
X44035500Y-79667100D01*
X44035500Y-79075373D01*
X44745723Y-79075373D01*
X44775881Y-79375160D01*
X44775882Y-79375162D01*
X44845728Y-79668252D01*
X44845733Y-79668266D01*
X44954020Y-79949427D01*
X44954024Y-79949436D01*
X45098825Y-80213665D01*
X45098829Y-80213671D01*
X45108707Y-80227077D01*
X45277554Y-80456238D01*
X45277561Y-80456245D01*
X45487019Y-80672823D01*
X45723478Y-80859553D01*
X45723480Y-80859554D01*
X45723485Y-80859558D01*
X45982730Y-81013109D01*
X46260128Y-81130736D01*
X46550729Y-81210340D01*
X46849347Y-81250500D01*
X46849351Y-81250500D01*
X47075252Y-81250500D01*
X47239164Y-81239526D01*
X47300634Y-81235412D01*
X47595903Y-81175396D01*
X47880537Y-81076560D01*
X47884569Y-81074522D01*
X47953276Y-81061851D01*
X48017931Y-81088338D01*
X48058002Y-81145575D01*
X48064500Y-81185191D01*
X48064500Y-82404808D01*
X48062758Y-82420584D01*
X48063026Y-82420610D01*
X48062292Y-82428375D01*
X48064500Y-82498642D01*
X48064500Y-82528640D01*
X48065387Y-82535670D01*
X48065845Y-82541489D01*
X48067334Y-82588860D01*
X48067335Y-82588864D01*
X48073057Y-82608562D01*
X48077000Y-82627603D01*
X48079571Y-82647945D01*
X48079574Y-82647960D01*
X48097016Y-82692016D01*
X48098907Y-82697540D01*
X48112130Y-82743048D01*
X48122570Y-82760701D01*
X48131128Y-82778171D01*
X48138679Y-82797242D01*
X48138682Y-82797248D01*
X48166542Y-82835593D01*
X48169749Y-82840476D01*
X48193866Y-82881255D01*
X48193870Y-82881259D01*
X48208363Y-82895752D01*
X48221001Y-82910549D01*
X48233057Y-82927144D01*
X48269576Y-82957354D01*
X48273888Y-82961277D01*
X50270307Y-84957696D01*
X52028181Y-86715570D01*
X52061666Y-86776893D01*
X52064500Y-86803251D01*
X52064500Y-87271081D01*
X52056608Y-87314613D01*
X51853592Y-87856091D01*
X51839488Y-87899484D01*
X51839082Y-87902663D01*
X51834012Y-87925269D01*
X51806458Y-88010072D01*
X51786496Y-88200000D01*
X51806458Y-88389928D01*
X51806459Y-88389931D01*
X51865470Y-88571549D01*
X51865473Y-88571556D01*
X51960960Y-88736944D01*
X52088747Y-88878866D01*
X52243248Y-88991118D01*
X52417712Y-89068794D01*
X52604513Y-89108500D01*
X52795487Y-89108500D01*
X52982288Y-89068794D01*
X53156752Y-88991118D01*
X53311253Y-88878866D01*
X53439040Y-88736944D01*
X53534527Y-88571556D01*
X53593542Y-88389928D01*
X53613504Y-88200000D01*
X53593542Y-88010072D01*
X53553362Y-87886413D01*
X53551773Y-87880560D01*
X53546407Y-87856090D01*
X53343392Y-87314613D01*
X53335500Y-87271082D01*
X53335500Y-86572504D01*
X53337241Y-86556724D01*
X53336974Y-86556699D01*
X53337706Y-86548945D01*
X53337708Y-86548938D01*
X53335500Y-86478671D01*
X53335500Y-86448674D01*
X53334611Y-86441641D01*
X53334153Y-86435819D01*
X53332665Y-86388452D01*
X53326941Y-86368750D01*
X53322997Y-86349706D01*
X53320427Y-86329358D01*
X53302973Y-86285275D01*
X53301098Y-86279799D01*
X53287869Y-86234264D01*
X53277427Y-86216608D01*
X53268870Y-86199141D01*
X53263984Y-86186801D01*
X53261319Y-86180069D01*
X53233462Y-86141727D01*
X53230253Y-86136842D01*
X53206137Y-86096063D01*
X53206136Y-86096062D01*
X53206134Y-86096058D01*
X53206131Y-86096055D01*
X53206129Y-86096052D01*
X53191633Y-86081556D01*
X53178995Y-86066760D01*
X53166942Y-86050170D01*
X53130422Y-86019958D01*
X53126100Y-86016024D01*
X50609022Y-83498946D01*
X50575537Y-83437623D01*
X50580521Y-83367931D01*
X50622393Y-83311998D01*
X50687857Y-83287581D01*
X50705967Y-83287611D01*
X50724494Y-83289000D01*
X50744501Y-83290500D01*
X50744506Y-83290500D01*
X50875500Y-83290500D01*
X51071620Y-83275803D01*
X51071622Y-83275802D01*
X51071630Y-83275802D01*
X51327416Y-83217420D01*
X51571643Y-83121568D01*
X51798857Y-82990386D01*
X52003981Y-82826805D01*
X52035167Y-82793195D01*
X52123921Y-82697540D01*
X52182433Y-82634479D01*
X52330228Y-82417704D01*
X52444063Y-82181323D01*
X52521396Y-81930615D01*
X52560500Y-81671182D01*
X52560500Y-81408818D01*
X52521396Y-81149385D01*
X52444063Y-80898677D01*
X52335970Y-80674219D01*
X52330232Y-80662303D01*
X52330225Y-80662292D01*
X52313595Y-80637901D01*
X52282719Y-80592614D01*
X52261219Y-80526136D01*
X52279073Y-80458586D01*
X52330613Y-80411411D01*
X52374657Y-80399210D01*
X52537536Y-80385347D01*
X52537539Y-80385346D01*
X52537541Y-80385346D01*
X52768249Y-80325275D01*
X52900973Y-80265279D01*
X52985480Y-80227080D01*
X52985481Y-80227078D01*
X52985486Y-80227077D01*
X53175632Y-80098561D01*
X53182993Y-80093586D01*
X53182994Y-80093584D01*
X53183003Y-80093579D01*
X53355118Y-79928621D01*
X53496879Y-79736947D01*
X53604207Y-79524074D01*
X53674016Y-79296123D01*
X53704298Y-79059654D01*
X53694180Y-78821468D01*
X53683999Y-78774230D01*
X53643954Y-78588419D01*
X53632254Y-78559303D01*
X53555064Y-78367210D01*
X53430069Y-78164205D01*
X53272564Y-77985245D01*
X53087080Y-77835477D01*
X52973130Y-77771820D01*
X52878955Y-77719210D01*
X52654170Y-77639788D01*
X52419209Y-77599500D01*
X52419200Y-77599500D01*
X52240503Y-77599500D01*
X52240498Y-77599500D01*
X52062463Y-77614652D01*
X51831751Y-77674724D01*
X51614519Y-77772919D01*
X51614511Y-77772924D01*
X51417006Y-77906413D01*
X51416997Y-77906421D01*
X51244882Y-78071379D01*
X51229332Y-78092403D01*
X51173640Y-78134596D01*
X51103979Y-78139982D01*
X51042464Y-78106851D01*
X51008626Y-78045722D01*
X51006319Y-78031640D01*
X50993542Y-77910072D01*
X50934527Y-77728444D01*
X50839040Y-77563056D01*
X50711253Y-77421134D01*
X50556752Y-77308882D01*
X50382288Y-77231206D01*
X50382286Y-77231205D01*
X50195487Y-77191500D01*
X50004513Y-77191500D01*
X49817714Y-77231205D01*
X49643246Y-77308883D01*
X49488745Y-77421135D01*
X49360959Y-77563057D01*
X49265473Y-77728443D01*
X49265470Y-77728450D01*
X49206777Y-77909089D01*
X49167339Y-77966765D01*
X49102981Y-77993963D01*
X49034134Y-77982048D01*
X48982659Y-77934804D01*
X48980104Y-77930363D01*
X48975914Y-77922717D01*
X48901175Y-77786335D01*
X48722446Y-77543762D01*
X48512980Y-77327176D01*
X48489814Y-77308882D01*
X48276521Y-77140446D01*
X48276517Y-77140443D01*
X48276515Y-77140442D01*
X48017270Y-76986891D01*
X47739872Y-76869264D01*
X47739863Y-76869261D01*
X47449272Y-76789660D01*
X47374616Y-76779620D01*
X47150653Y-76749500D01*
X46924756Y-76749500D01*
X46924748Y-76749500D01*
X46699368Y-76764587D01*
X46699359Y-76764589D01*
X46404094Y-76824604D01*
X46119464Y-76923439D01*
X46119459Y-76923441D01*
X45850546Y-77059328D01*
X45602125Y-77229860D01*
X45378665Y-77431969D01*
X45184132Y-77662064D01*
X45022006Y-77916030D01*
X45022005Y-77916032D01*
X44895181Y-78189333D01*
X44895177Y-78189342D01*
X44895176Y-78189346D01*
X44805907Y-78477118D01*
X44770081Y-78689514D01*
X44755791Y-78774230D01*
X44746249Y-79059654D01*
X44745723Y-79075373D01*
X44035500Y-79075373D01*
X44035500Y-75971289D01*
X45237416Y-75971289D01*
X45237459Y-75995401D01*
X45237500Y-75995499D01*
X45237616Y-75995782D01*
X45237618Y-75995784D01*
X45237808Y-75995862D01*
X45238000Y-75995941D01*
X45238002Y-75995939D01*
X45262616Y-75995924D01*
X45262616Y-75995928D01*
X45262760Y-75995900D01*
X48453240Y-75995900D01*
X48453383Y-75995928D01*
X48453384Y-75995924D01*
X48477997Y-75995939D01*
X48478000Y-75995941D01*
X48478383Y-75995783D01*
X48478500Y-75995499D01*
X48478541Y-75995400D01*
X48478540Y-75995397D01*
X48478583Y-75971289D01*
X48478500Y-75970867D01*
X48478500Y-75428133D01*
X51465668Y-75428133D01*
X51481058Y-75515410D01*
X51496135Y-75600911D01*
X51565623Y-75762004D01*
X51565624Y-75762006D01*
X51565626Y-75762009D01*
X51620278Y-75835418D01*
X51670390Y-75902730D01*
X51804786Y-76015502D01*
X51882488Y-76054525D01*
X51961562Y-76094238D01*
X51961563Y-76094238D01*
X51961567Y-76094240D01*
X52132279Y-76134700D01*
X52132282Y-76134700D01*
X52263701Y-76134700D01*
X52263709Y-76134700D01*
X52394255Y-76119441D01*
X52559117Y-76059437D01*
X52705696Y-75963030D01*
X52826092Y-75835418D01*
X52913812Y-75683481D01*
X52964130Y-75515410D01*
X52974331Y-75340265D01*
X52943865Y-75167489D01*
X52874377Y-75006396D01*
X52867116Y-74996643D01*
X52769609Y-74865669D01*
X52635214Y-74752898D01*
X52635212Y-74752897D01*
X52478437Y-74674161D01*
X52478433Y-74674160D01*
X52307721Y-74633700D01*
X52176291Y-74633700D01*
X52071854Y-74645907D01*
X52045743Y-74648959D01*
X52045740Y-74648960D01*
X51880884Y-74708962D01*
X51880880Y-74708964D01*
X51734306Y-74805367D01*
X51734305Y-74805368D01*
X51613910Y-74932978D01*
X51526188Y-75084918D01*
X51475870Y-75252989D01*
X51475869Y-75252994D01*
X51465668Y-75428133D01*
X48478500Y-75428133D01*
X48478500Y-73033359D01*
X48478528Y-73033216D01*
X48478524Y-73033216D01*
X48478539Y-73008602D01*
X48478541Y-73008600D01*
X48478462Y-73008408D01*
X48478384Y-73008218D01*
X48478382Y-73008216D01*
X48478099Y-73008100D01*
X48478000Y-73008059D01*
X48453446Y-73008059D01*
X48453240Y-73008100D01*
X45262760Y-73008100D01*
X45262554Y-73008059D01*
X45238000Y-73008059D01*
X45237901Y-73008100D01*
X45237617Y-73008216D01*
X45237615Y-73008218D01*
X45237459Y-73008599D01*
X45237476Y-73033216D01*
X45237471Y-73033216D01*
X45237500Y-73033359D01*
X45237500Y-75970867D01*
X45237416Y-75971289D01*
X44035500Y-75971289D01*
X44035500Y-75283851D01*
X44037242Y-75268069D01*
X44036975Y-75268044D01*
X44037707Y-75260288D01*
X44037709Y-75260281D01*
X44035500Y-75189996D01*
X44035500Y-75160017D01*
X44034610Y-75152982D01*
X44034153Y-75147164D01*
X44032665Y-75099795D01*
X44026941Y-75080093D01*
X44022997Y-75061049D01*
X44020427Y-75040701D01*
X44002973Y-74996618D01*
X44001098Y-74991142D01*
X43987869Y-74945607D01*
X43977427Y-74927951D01*
X43968869Y-74910482D01*
X43961318Y-74891410D01*
X43955733Y-74883723D01*
X43933448Y-74853052D01*
X43930257Y-74848192D01*
X43906138Y-74807407D01*
X43906129Y-74807397D01*
X43891639Y-74792907D01*
X43879000Y-74778110D01*
X43866942Y-74761513D01*
X43866939Y-74761511D01*
X43866939Y-74761510D01*
X43830422Y-74731301D01*
X43826110Y-74727378D01*
X42808658Y-73709925D01*
X42798732Y-73697535D01*
X42798525Y-73697707D01*
X42793552Y-73691696D01*
X42742306Y-73643573D01*
X42721097Y-73622363D01*
X42715492Y-73618015D01*
X42711046Y-73614218D01*
X42676509Y-73581785D01*
X42676501Y-73581780D01*
X42658540Y-73571906D01*
X42642274Y-73561222D01*
X42626067Y-73548650D01*
X42626065Y-73548649D01*
X42605510Y-73539754D01*
X42567076Y-73513634D01*
X41200623Y-72147181D01*
X41167138Y-72085858D01*
X41172122Y-72016166D01*
X41213994Y-71960233D01*
X41279458Y-71935816D01*
X41288304Y-71935500D01*
X44516153Y-71935500D01*
X44531932Y-71937241D01*
X44531958Y-71936974D01*
X44539711Y-71937706D01*
X44539719Y-71937708D01*
X44609985Y-71935500D01*
X44639983Y-71935500D01*
X44647013Y-71934611D01*
X44652836Y-71934153D01*
X44700205Y-71932665D01*
X44719906Y-71926940D01*
X44738951Y-71922997D01*
X44759299Y-71920427D01*
X44803393Y-71902968D01*
X44808856Y-71901098D01*
X44854393Y-71887869D01*
X44872054Y-71877423D01*
X44889512Y-71868871D01*
X44908588Y-71861319D01*
X44946928Y-71833462D01*
X44951800Y-71830261D01*
X44992598Y-71806134D01*
X45007094Y-71791637D01*
X45021892Y-71778998D01*
X45038487Y-71766942D01*
X45068707Y-71730410D01*
X45072621Y-71726109D01*
X49290072Y-67508658D01*
X49302461Y-67498735D01*
X49302289Y-67498528D01*
X49308298Y-67493555D01*
X49308303Y-67493553D01*
X49356441Y-67442290D01*
X49377638Y-67421094D01*
X49381979Y-67415497D01*
X49385774Y-67411054D01*
X49418217Y-67376506D01*
X49428102Y-67358524D01*
X49438773Y-67342278D01*
X49451349Y-67326067D01*
X49470172Y-67282567D01*
X49472740Y-67277328D01*
X49495569Y-67235803D01*
X49500670Y-67215931D01*
X49506973Y-67197526D01*
X49515117Y-67178708D01*
X49522533Y-67131875D01*
X49523708Y-67126201D01*
X49535500Y-67080282D01*
X49535500Y-67059774D01*
X49537027Y-67040374D01*
X49540235Y-67020121D01*
X49535775Y-66972939D01*
X49535500Y-66967101D01*
X49535500Y-65522251D01*
X49555185Y-65455212D01*
X49607989Y-65409457D01*
X49677147Y-65399513D01*
X49740703Y-65428538D01*
X49747181Y-65434570D01*
X52028181Y-67715570D01*
X52061666Y-67776893D01*
X52064500Y-67803251D01*
X52064500Y-68271081D01*
X52056608Y-68314613D01*
X51853592Y-68856091D01*
X51839488Y-68899484D01*
X51839082Y-68902663D01*
X51834012Y-68925269D01*
X51806458Y-69010072D01*
X51786496Y-69200000D01*
X51806458Y-69389928D01*
X51806459Y-69389931D01*
X51865470Y-69571549D01*
X51865473Y-69571556D01*
X51960960Y-69736944D01*
X52088747Y-69878866D01*
X52243248Y-69991118D01*
X52417712Y-70068794D01*
X52604513Y-70108500D01*
X52795487Y-70108500D01*
X52982288Y-70068794D01*
X53156752Y-69991118D01*
X53311253Y-69878866D01*
X53439040Y-69736944D01*
X53534527Y-69571556D01*
X53593542Y-69389928D01*
X53613504Y-69200000D01*
X53593542Y-69010072D01*
X53553362Y-68886413D01*
X53551773Y-68880560D01*
X53546407Y-68856090D01*
X53343392Y-68314613D01*
X53335500Y-68271082D01*
X53335500Y-67572504D01*
X53337241Y-67556724D01*
X53336974Y-67556699D01*
X53337706Y-67548945D01*
X53337708Y-67548938D01*
X53335500Y-67478671D01*
X53335500Y-67448674D01*
X53334611Y-67441641D01*
X53334153Y-67435819D01*
X53333690Y-67421095D01*
X53332665Y-67388452D01*
X53326941Y-67368750D01*
X53322997Y-67349706D01*
X53320427Y-67329358D01*
X53302973Y-67285275D01*
X53301098Y-67279799D01*
X53290601Y-67243669D01*
X53287870Y-67234266D01*
X53287869Y-67234264D01*
X53277427Y-67216608D01*
X53268870Y-67199141D01*
X53263984Y-67186801D01*
X53261319Y-67180069D01*
X53233462Y-67141727D01*
X53230253Y-67136842D01*
X53227332Y-67131903D01*
X53206134Y-67096058D01*
X53206131Y-67096055D01*
X53206129Y-67096052D01*
X53191633Y-67081556D01*
X53178995Y-67066760D01*
X53166942Y-67050170D01*
X53130422Y-67019958D01*
X53126100Y-67016024D01*
X50609022Y-64498946D01*
X50575537Y-64437623D01*
X50580521Y-64367931D01*
X50622393Y-64311998D01*
X50687857Y-64287581D01*
X50705967Y-64287611D01*
X50724494Y-64289000D01*
X50744501Y-64290500D01*
X50744506Y-64290500D01*
X50875500Y-64290500D01*
X51071620Y-64275803D01*
X51071622Y-64275802D01*
X51071630Y-64275802D01*
X51327416Y-64217420D01*
X51571643Y-64121568D01*
X51798857Y-63990386D01*
X52003981Y-63826805D01*
X52182433Y-63634479D01*
X52330228Y-63417704D01*
X52444063Y-63181323D01*
X52521396Y-62930615D01*
X52560500Y-62671182D01*
X52560500Y-62408818D01*
X52521396Y-62149385D01*
X52444063Y-61898677D01*
X52381131Y-61767997D01*
X52330232Y-61662303D01*
X52330225Y-61662292D01*
X52313595Y-61637901D01*
X52282719Y-61592614D01*
X52261219Y-61526136D01*
X52279073Y-61458586D01*
X52330613Y-61411411D01*
X52374657Y-61399210D01*
X52537536Y-61385347D01*
X52537539Y-61385346D01*
X52537541Y-61385346D01*
X52768249Y-61325275D01*
X52900973Y-61265279D01*
X52985480Y-61227080D01*
X52985481Y-61227078D01*
X52985486Y-61227077D01*
X53175632Y-61098561D01*
X53182993Y-61093586D01*
X53182994Y-61093584D01*
X53183003Y-61093579D01*
X53355118Y-60928621D01*
X53496879Y-60736947D01*
X53604207Y-60524074D01*
X53674016Y-60296123D01*
X53704298Y-60059654D01*
X53701318Y-59989514D01*
X53695787Y-59859299D01*
X53694180Y-59821468D01*
X53689597Y-59800205D01*
X53643954Y-59588419D01*
X53597609Y-59473086D01*
X53555064Y-59367210D01*
X53430069Y-59164205D01*
X53272564Y-58985245D01*
X53087080Y-58835477D01*
X52973130Y-58771820D01*
X52878955Y-58719210D01*
X52654170Y-58639788D01*
X52419209Y-58599500D01*
X52419200Y-58599500D01*
X52240503Y-58599500D01*
X52240498Y-58599500D01*
X52062463Y-58614652D01*
X51831751Y-58674724D01*
X51614519Y-58772919D01*
X51614511Y-58772924D01*
X51417006Y-58906413D01*
X51416997Y-58906421D01*
X51244882Y-59071379D01*
X51229332Y-59092403D01*
X51173640Y-59134596D01*
X51103979Y-59139982D01*
X51042464Y-59106851D01*
X51008626Y-59045722D01*
X51006319Y-59031640D01*
X50993542Y-58910072D01*
X50934527Y-58728444D01*
X50839040Y-58563056D01*
X50711253Y-58421134D01*
X50556752Y-58308882D01*
X50382288Y-58231206D01*
X50382286Y-58231205D01*
X50195487Y-58191500D01*
X50004513Y-58191500D01*
X49817714Y-58231205D01*
X49643246Y-58308883D01*
X49488745Y-58421135D01*
X49360959Y-58563057D01*
X49265473Y-58728443D01*
X49265470Y-58728450D01*
X49206777Y-58909089D01*
X49167339Y-58966765D01*
X49102981Y-58993963D01*
X49034134Y-58982048D01*
X48982659Y-58934804D01*
X48980104Y-58930363D01*
X48975914Y-58922717D01*
X48901175Y-58786335D01*
X48722446Y-58543762D01*
X48512980Y-58327176D01*
X48489814Y-58308882D01*
X48276521Y-58140446D01*
X48276517Y-58140443D01*
X48276515Y-58140442D01*
X48017270Y-57986891D01*
X47739872Y-57869264D01*
X47739863Y-57869261D01*
X47449272Y-57789660D01*
X47374616Y-57779620D01*
X47150653Y-57749500D01*
X46924756Y-57749500D01*
X46924748Y-57749500D01*
X46699368Y-57764587D01*
X46699359Y-57764589D01*
X46404094Y-57824604D01*
X46119464Y-57923439D01*
X46119459Y-57923441D01*
X45850546Y-58059328D01*
X45602125Y-58229860D01*
X45378665Y-58431969D01*
X45184132Y-58662064D01*
X45022006Y-58916030D01*
X45022005Y-58916032D01*
X44906842Y-59164205D01*
X44895177Y-59189342D01*
X44895176Y-59189346D01*
X44805907Y-59477118D01*
X44761568Y-59739983D01*
X44755791Y-59774230D01*
X44746249Y-60059654D01*
X44745723Y-60075373D01*
X44775881Y-60375160D01*
X44775882Y-60375162D01*
X44845728Y-60668252D01*
X44845733Y-60668266D01*
X44954020Y-60949427D01*
X44954024Y-60949436D01*
X45098825Y-61213665D01*
X45098829Y-61213671D01*
X45108707Y-61227077D01*
X45277554Y-61456238D01*
X45277561Y-61456245D01*
X45487019Y-61672823D01*
X45723478Y-61859553D01*
X45723480Y-61859554D01*
X45723485Y-61859558D01*
X45982730Y-62013109D01*
X46260128Y-62130736D01*
X46550729Y-62210340D01*
X46849347Y-62250500D01*
X46849351Y-62250500D01*
X47075252Y-62250500D01*
X47239164Y-62239526D01*
X47300634Y-62235412D01*
X47595903Y-62175396D01*
X47880537Y-62076560D01*
X47884569Y-62074522D01*
X47953276Y-62061851D01*
X48017931Y-62088338D01*
X48058002Y-62145575D01*
X48064500Y-62185191D01*
X48064500Y-62766405D01*
X48044815Y-62833444D01*
X47992011Y-62879199D01*
X47922853Y-62889143D01*
X47859297Y-62860118D01*
X47852819Y-62854086D01*
X47808658Y-62809925D01*
X47798732Y-62797535D01*
X47798525Y-62797707D01*
X47793552Y-62791696D01*
X47742306Y-62743573D01*
X47721097Y-62722363D01*
X47715492Y-62718015D01*
X47711046Y-62714218D01*
X47676509Y-62681785D01*
X47676501Y-62681780D01*
X47658540Y-62671906D01*
X47642274Y-62661222D01*
X47626064Y-62648648D01*
X47582571Y-62629827D01*
X47577323Y-62627256D01*
X47535805Y-62604432D01*
X47535804Y-62604431D01*
X47535803Y-62604431D01*
X47515937Y-62599330D01*
X47497538Y-62593030D01*
X47478709Y-62584883D01*
X47478708Y-62584882D01*
X47431902Y-62577469D01*
X47426181Y-62576284D01*
X47380283Y-62564500D01*
X47380282Y-62564500D01*
X47359774Y-62564500D01*
X47340376Y-62562973D01*
X47325696Y-62560648D01*
X47320122Y-62559765D01*
X47320121Y-62559764D01*
X47272939Y-62564225D01*
X47267101Y-62564500D01*
X46014595Y-62564500D01*
X45947556Y-62544815D01*
X45926914Y-62528181D01*
X44525819Y-61127086D01*
X44492334Y-61065763D01*
X44489500Y-61039405D01*
X44489500Y-56971289D01*
X45237416Y-56971289D01*
X45237459Y-56995401D01*
X45237500Y-56995499D01*
X45237616Y-56995782D01*
X45237618Y-56995784D01*
X45237808Y-56995862D01*
X45238000Y-56995941D01*
X45238002Y-56995939D01*
X45262616Y-56995924D01*
X45262616Y-56995928D01*
X45262760Y-56995900D01*
X48453240Y-56995900D01*
X48453383Y-56995928D01*
X48453384Y-56995924D01*
X48477997Y-56995939D01*
X48478000Y-56995941D01*
X48478383Y-56995783D01*
X48478500Y-56995499D01*
X48478541Y-56995400D01*
X48478540Y-56995397D01*
X48478583Y-56971289D01*
X48478500Y-56970867D01*
X48478500Y-56428133D01*
X51465668Y-56428133D01*
X51481058Y-56515410D01*
X51496135Y-56600911D01*
X51565623Y-56762004D01*
X51565624Y-56762006D01*
X51565626Y-56762009D01*
X51620278Y-56835418D01*
X51670390Y-56902730D01*
X51804786Y-57015502D01*
X51882488Y-57054525D01*
X51961562Y-57094238D01*
X51961563Y-57094238D01*
X51961567Y-57094240D01*
X52132279Y-57134700D01*
X52132282Y-57134700D01*
X52263701Y-57134700D01*
X52263709Y-57134700D01*
X52394255Y-57119441D01*
X52559117Y-57059437D01*
X52705696Y-56963030D01*
X52826092Y-56835418D01*
X52913812Y-56683481D01*
X52964130Y-56515410D01*
X52974331Y-56340265D01*
X52943865Y-56167489D01*
X52874377Y-56006396D01*
X52769610Y-55865670D01*
X52697747Y-55805370D01*
X52635214Y-55752898D01*
X52635212Y-55752897D01*
X52478437Y-55674161D01*
X52478433Y-55674160D01*
X52307721Y-55633700D01*
X52176291Y-55633700D01*
X52071854Y-55645907D01*
X52045743Y-55648959D01*
X52045740Y-55648960D01*
X51880884Y-55708962D01*
X51880880Y-55708964D01*
X51734306Y-55805367D01*
X51734305Y-55805368D01*
X51613910Y-55932978D01*
X51526188Y-56084918D01*
X51475870Y-56252989D01*
X51475869Y-56252994D01*
X51465668Y-56428133D01*
X48478500Y-56428133D01*
X48478500Y-54033359D01*
X48478528Y-54033216D01*
X48478524Y-54033216D01*
X48478539Y-54008602D01*
X48478541Y-54008600D01*
X48478462Y-54008408D01*
X48478384Y-54008218D01*
X48478382Y-54008216D01*
X48478099Y-54008100D01*
X48478000Y-54008059D01*
X48453446Y-54008059D01*
X48453240Y-54008100D01*
X45262760Y-54008100D01*
X45262554Y-54008059D01*
X45238000Y-54008059D01*
X45237901Y-54008100D01*
X45237617Y-54008216D01*
X45237615Y-54008218D01*
X45237459Y-54008599D01*
X45237476Y-54033216D01*
X45237471Y-54033216D01*
X45237500Y-54033359D01*
X45237500Y-56970867D01*
X45237416Y-56971289D01*
X44489500Y-56971289D01*
X44489500Y-53805505D01*
X44509185Y-53738466D01*
X44561989Y-53692711D01*
X44591231Y-53683522D01*
X44854487Y-53635477D01*
X44872849Y-53633524D01*
X44900205Y-53632665D01*
X44919906Y-53626940D01*
X44938951Y-53622997D01*
X44959299Y-53620427D01*
X45003393Y-53602968D01*
X45008856Y-53601098D01*
X45054393Y-53587869D01*
X45072054Y-53577423D01*
X45089512Y-53568871D01*
X45108588Y-53561319D01*
X45146928Y-53533462D01*
X45151800Y-53530261D01*
X45192598Y-53506134D01*
X45207094Y-53491637D01*
X45221892Y-53478998D01*
X45238487Y-53466942D01*
X45268707Y-53430410D01*
X45272621Y-53426109D01*
X49844075Y-48854656D01*
X49856458Y-48844738D01*
X49856286Y-48844530D01*
X49862292Y-48839559D01*
X49862303Y-48839553D01*
X49910426Y-48788306D01*
X49931639Y-48767094D01*
X49935993Y-48761479D01*
X49939768Y-48757058D01*
X49972217Y-48722506D01*
X49982094Y-48704537D01*
X49992779Y-48688272D01*
X50005350Y-48672067D01*
X50024183Y-48628543D01*
X50026732Y-48623341D01*
X50049569Y-48581803D01*
X50054670Y-48561930D01*
X50060969Y-48543534D01*
X50069117Y-48524708D01*
X50076408Y-48478671D01*
X50076530Y-48477902D01*
X50077715Y-48472178D01*
X50083748Y-48448681D01*
X50089500Y-48426282D01*
X50089500Y-48405774D01*
X50091027Y-48386374D01*
X50094235Y-48366121D01*
X50092748Y-48350386D01*
X50089775Y-48318939D01*
X50089500Y-48313101D01*
X50089500Y-47076251D01*
X50109185Y-47009212D01*
X50161989Y-46963457D01*
X50231147Y-46953513D01*
X50294703Y-46982538D01*
X50301181Y-46988570D01*
X52028181Y-48715570D01*
X52061666Y-48776893D01*
X52064500Y-48803251D01*
X52064500Y-49271081D01*
X52056608Y-49314613D01*
X51853592Y-49856091D01*
X51839488Y-49899484D01*
X51839082Y-49902663D01*
X51834012Y-49925269D01*
X51806458Y-50010072D01*
X51786496Y-50200000D01*
X51806458Y-50389928D01*
X51806459Y-50389931D01*
X51865470Y-50571549D01*
X51865473Y-50571556D01*
X51960960Y-50736944D01*
X52088747Y-50878866D01*
X52243248Y-50991118D01*
X52417712Y-51068794D01*
X52604513Y-51108500D01*
X52795487Y-51108500D01*
X52982288Y-51068794D01*
X53156752Y-50991118D01*
X53311253Y-50878866D01*
X53439040Y-50736944D01*
X53534527Y-50571556D01*
X53593542Y-50389928D01*
X53613504Y-50200000D01*
X53593542Y-50010072D01*
X53553362Y-49886413D01*
X53551773Y-49880560D01*
X53546407Y-49856090D01*
X53343392Y-49314613D01*
X53335500Y-49271082D01*
X53335500Y-48572504D01*
X53337241Y-48556724D01*
X53336974Y-48556699D01*
X53337706Y-48548945D01*
X53337708Y-48548938D01*
X53335500Y-48478671D01*
X53335500Y-48448674D01*
X53334611Y-48441641D01*
X53334153Y-48435819D01*
X53333853Y-48426282D01*
X53332665Y-48388452D01*
X53326941Y-48368750D01*
X53322997Y-48349706D01*
X53320427Y-48329358D01*
X53302973Y-48285275D01*
X53301098Y-48279799D01*
X53287869Y-48234264D01*
X53277427Y-48216608D01*
X53268870Y-48199141D01*
X53263984Y-48186801D01*
X53261319Y-48180069D01*
X53233462Y-48141727D01*
X53230253Y-48136842D01*
X53206137Y-48096063D01*
X53206136Y-48096062D01*
X53206134Y-48096058D01*
X53206131Y-48096055D01*
X53206129Y-48096052D01*
X53191633Y-48081556D01*
X53178995Y-48066760D01*
X53166942Y-48050170D01*
X53130422Y-48019958D01*
X53126100Y-48016024D01*
X50609022Y-45498946D01*
X50575537Y-45437623D01*
X50580521Y-45367931D01*
X50622393Y-45311998D01*
X50687857Y-45287581D01*
X50705967Y-45287611D01*
X50724494Y-45289000D01*
X50744501Y-45290500D01*
X50744506Y-45290500D01*
X50875500Y-45290500D01*
X51071620Y-45275803D01*
X51071622Y-45275802D01*
X51071630Y-45275802D01*
X51327416Y-45217420D01*
X51571643Y-45121568D01*
X51798857Y-44990386D01*
X52003981Y-44826805D01*
X52182433Y-44634479D01*
X52330228Y-44417704D01*
X52444063Y-44181323D01*
X52521396Y-43930615D01*
X52560500Y-43671182D01*
X52560500Y-43408818D01*
X52521396Y-43149385D01*
X52444063Y-42898677D01*
X52392978Y-42792598D01*
X52330232Y-42662303D01*
X52330225Y-42662292D01*
X52313595Y-42637901D01*
X52282719Y-42592614D01*
X52261219Y-42526136D01*
X52279073Y-42458586D01*
X52330613Y-42411411D01*
X52374657Y-42399210D01*
X52537536Y-42385347D01*
X52537539Y-42385346D01*
X52537541Y-42385346D01*
X52768249Y-42325275D01*
X52900973Y-42265279D01*
X52985480Y-42227080D01*
X52985481Y-42227078D01*
X52985486Y-42227077D01*
X53175632Y-42098561D01*
X53182993Y-42093586D01*
X53182994Y-42093584D01*
X53183003Y-42093579D01*
X53355118Y-41928621D01*
X53496879Y-41736947D01*
X53604207Y-41524074D01*
X53674016Y-41296123D01*
X53704298Y-41059654D01*
X53704214Y-41057688D01*
X53694902Y-40838476D01*
X53694180Y-40821468D01*
X53671788Y-40717571D01*
X53643954Y-40588419D01*
X53632024Y-40558730D01*
X53555064Y-40367210D01*
X53430069Y-40164205D01*
X53272564Y-39985245D01*
X53087080Y-39835477D01*
X52973130Y-39771820D01*
X52878955Y-39719210D01*
X52654170Y-39639788D01*
X52419209Y-39599500D01*
X52419200Y-39599500D01*
X52240503Y-39599500D01*
X52240498Y-39599500D01*
X52062463Y-39614652D01*
X51831751Y-39674724D01*
X51614519Y-39772919D01*
X51614511Y-39772924D01*
X51417006Y-39906413D01*
X51416997Y-39906421D01*
X51244882Y-40071379D01*
X51229332Y-40092403D01*
X51173640Y-40134596D01*
X51103979Y-40139982D01*
X51042464Y-40106851D01*
X51008626Y-40045722D01*
X51006319Y-40031640D01*
X50993542Y-39910072D01*
X50934527Y-39728444D01*
X50899825Y-39668339D01*
X50883353Y-39600441D01*
X50906205Y-39534414D01*
X50961127Y-39491223D01*
X50977533Y-39485946D01*
X51053083Y-39467325D01*
X51205430Y-39387367D01*
X51334215Y-39273273D01*
X51431954Y-39131675D01*
X51492965Y-38970801D01*
X51513704Y-38800000D01*
X51512449Y-38789660D01*
X51492965Y-38629198D01*
X51431954Y-38468326D01*
X51431954Y-38468325D01*
X51334215Y-38326727D01*
X51334213Y-38326725D01*
X51334210Y-38326722D01*
X51205434Y-38212636D01*
X51205428Y-38212632D01*
X51183547Y-38201147D01*
X51177099Y-38197245D01*
X50923520Y-38021938D01*
X50906354Y-38007621D01*
X50326866Y-37428133D01*
X51465668Y-37428133D01*
X51496011Y-37600207D01*
X51496135Y-37600911D01*
X51565623Y-37762004D01*
X51565624Y-37762006D01*
X51565626Y-37762009D01*
X51662847Y-37892598D01*
X51670390Y-37902730D01*
X51804786Y-38015502D01*
X51882488Y-38054525D01*
X51961562Y-38094238D01*
X51961563Y-38094238D01*
X51961567Y-38094240D01*
X52132279Y-38134700D01*
X52132282Y-38134700D01*
X52263701Y-38134700D01*
X52263709Y-38134700D01*
X52394255Y-38119441D01*
X52559117Y-38059437D01*
X52705696Y-37963030D01*
X52826092Y-37835418D01*
X52913812Y-37683481D01*
X52964130Y-37515410D01*
X52974331Y-37340265D01*
X52943865Y-37167489D01*
X52874377Y-37006396D01*
X52769610Y-36865670D01*
X52697747Y-36805370D01*
X52635214Y-36752898D01*
X52635212Y-36752897D01*
X52478437Y-36674161D01*
X52478433Y-36674160D01*
X52307721Y-36633700D01*
X52176291Y-36633700D01*
X52071854Y-36645907D01*
X52045743Y-36648959D01*
X52045740Y-36648960D01*
X51880884Y-36708962D01*
X51880880Y-36708964D01*
X51734306Y-36805367D01*
X51734305Y-36805368D01*
X51613910Y-36932978D01*
X51526188Y-37084918D01*
X51475870Y-37252989D01*
X51475869Y-37252994D01*
X51465668Y-37428133D01*
X50326866Y-37428133D01*
X50171819Y-37273086D01*
X50138334Y-37211763D01*
X50135500Y-37185405D01*
X50135500Y-33404446D01*
X50155185Y-33337407D01*
X50207989Y-33291652D01*
X50277147Y-33281708D01*
X50285271Y-33283154D01*
X50404513Y-33308500D01*
X50595487Y-33308500D01*
X50782288Y-33268794D01*
X50956752Y-33191118D01*
X51111253Y-33078866D01*
X51239040Y-32936944D01*
X51334527Y-32771556D01*
X51393542Y-32589928D01*
X51413504Y-32400000D01*
X51393542Y-32210072D01*
X51367821Y-32130913D01*
X51362757Y-32108336D01*
X51361692Y-32100006D01*
X51361690Y-32099997D01*
X51361690Y-32099996D01*
X51279095Y-31801576D01*
X51280184Y-31731715D01*
X51318870Y-31673533D01*
X51382870Y-31645502D01*
X51398602Y-31644500D01*
X51418602Y-31644500D01*
X51485641Y-31664185D01*
X51506283Y-31680819D01*
X54689681Y-34864216D01*
X54723166Y-34925539D01*
X54726000Y-34951897D01*
X54726000Y-112134101D01*
X54706315Y-112201140D01*
X54689681Y-112221782D01*
X53422322Y-113489140D01*
X53373471Y-113519223D01*
X53129114Y-113599794D01*
X53059282Y-113602092D01*
X52999293Y-113566272D01*
X52968193Y-113503705D01*
X52966494Y-113474820D01*
X52974331Y-113340265D01*
X52958942Y-113252994D01*
X52943865Y-113167489D01*
X52874377Y-113006396D01*
X52826381Y-112941927D01*
X52806667Y-112915446D01*
X52769610Y-112865670D01*
X52697747Y-112805370D01*
X52635214Y-112752898D01*
X52635212Y-112752897D01*
X52478437Y-112674161D01*
X52478433Y-112674160D01*
X52307721Y-112633700D01*
X52176291Y-112633700D01*
X52071854Y-112645907D01*
X52045743Y-112648959D01*
X52045740Y-112648960D01*
X51880884Y-112708962D01*
X51880880Y-112708964D01*
X51734306Y-112805367D01*
X51734305Y-112805368D01*
X51613910Y-112932978D01*
X51526188Y-113084918D01*
X51475870Y-113252989D01*
X51475869Y-113252994D01*
X51465668Y-113428133D01*
X51490027Y-113566272D01*
X51496135Y-113600911D01*
X51565623Y-113762004D01*
X51565624Y-113762006D01*
X51565626Y-113762009D01*
X51620278Y-113835418D01*
X51670390Y-113902730D01*
X51804786Y-114015502D01*
X51882488Y-114054525D01*
X51961562Y-114094238D01*
X51961563Y-114094238D01*
X51961567Y-114094240D01*
X52132279Y-114134700D01*
X52132282Y-114134700D01*
X52170015Y-114134700D01*
X52237054Y-114154385D01*
X52282809Y-114207189D01*
X52292753Y-114276347D01*
X52287947Y-114297011D01*
X52267458Y-114360072D01*
X52247496Y-114550000D01*
X52267458Y-114739928D01*
X52267459Y-114739931D01*
X52326470Y-114921549D01*
X52326473Y-114921556D01*
X52421960Y-115086944D01*
X52549747Y-115228866D01*
X52704248Y-115341118D01*
X52878712Y-115418794D01*
X53065513Y-115458500D01*
X53256487Y-115458500D01*
X53443288Y-115418794D01*
X53617752Y-115341118D01*
X53772253Y-115228866D01*
X53821462Y-115174212D01*
X53825694Y-115169949D01*
X53848820Y-115148818D01*
X53894606Y-115093072D01*
X53896441Y-115090940D01*
X53900036Y-115086948D01*
X53900040Y-115086944D01*
X53900044Y-115086936D01*
X53902011Y-115084229D01*
X53904270Y-115081306D01*
X53981819Y-114986891D01*
X54327165Y-114566436D01*
X54342088Y-114547148D01*
X54347263Y-114541271D01*
X55903019Y-112985514D01*
X55905694Y-112982995D01*
X55952052Y-112941927D01*
X55987221Y-112890973D01*
X55989407Y-112888002D01*
X56027584Y-112839275D01*
X56031722Y-112830078D01*
X56042745Y-112810533D01*
X56048480Y-112802227D01*
X56070433Y-112744338D01*
X56071847Y-112740925D01*
X56097251Y-112684483D01*
X56099069Y-112674560D01*
X56105092Y-112652949D01*
X56108673Y-112643510D01*
X56116131Y-112582081D01*
X56116694Y-112578383D01*
X56127849Y-112517516D01*
X56127849Y-112517513D01*
X56124113Y-112455748D01*
X56124000Y-112452004D01*
X56124000Y-34633994D01*
X56124113Y-34630249D01*
X56127849Y-34568485D01*
X56116694Y-34507615D01*
X56116130Y-34503910D01*
X56108673Y-34442490D01*
X56105095Y-34433056D01*
X56099068Y-34411433D01*
X56097251Y-34401517D01*
X56071852Y-34345083D01*
X56070424Y-34341636D01*
X56048482Y-34283777D01*
X56048480Y-34283775D01*
X56048480Y-34283773D01*
X56042745Y-34275465D01*
X56031719Y-34255913D01*
X56027585Y-34246727D01*
X56027584Y-34246726D01*
X56027584Y-34246725D01*
X55996671Y-34207268D01*
X55989420Y-34198012D01*
X55987211Y-34195010D01*
X55952052Y-34144073D01*
X55905730Y-34103035D01*
X55903019Y-34100484D01*
X52344819Y-30542283D01*
X52311334Y-30480960D01*
X52308500Y-30454602D01*
X52308500Y-29387362D01*
X52308499Y-29387345D01*
X52305157Y-29356270D01*
X52301989Y-29326799D01*
X52301615Y-29325797D01*
X52257445Y-29207374D01*
X52250889Y-29189796D01*
X52163261Y-29072739D01*
X52046204Y-28985111D01*
X52043523Y-28984111D01*
X51909203Y-28934011D01*
X51848654Y-28927500D01*
X51848638Y-28927500D01*
X51151362Y-28927500D01*
X51151345Y-28927500D01*
X51090802Y-28934010D01*
X51090791Y-28934012D01*
X51043332Y-28951714D01*
X50973640Y-28956698D01*
X50956668Y-28951714D01*
X50909208Y-28934012D01*
X50909197Y-28934010D01*
X50848654Y-28927500D01*
X50848638Y-28927500D01*
X50151362Y-28927500D01*
X50151345Y-28927500D01*
X50090802Y-28934010D01*
X50090791Y-28934013D01*
X50044672Y-28951214D01*
X49974980Y-28956198D01*
X49958007Y-28951214D01*
X49909202Y-28933011D01*
X49848654Y-28926500D01*
X49848638Y-28926500D01*
X49151362Y-28926500D01*
X49151345Y-28926500D01*
X49090802Y-28933010D01*
X49090791Y-28933012D01*
X49043332Y-28950714D01*
X48973640Y-28955698D01*
X48956668Y-28950714D01*
X48909208Y-28933012D01*
X48909197Y-28933010D01*
X48848654Y-28926500D01*
X48848638Y-28926500D01*
X48151362Y-28926500D01*
X48151345Y-28926500D01*
X48090802Y-28933010D01*
X48090791Y-28933012D01*
X48031170Y-28955250D01*
X47961478Y-28960234D01*
X47944505Y-28955250D01*
X47907379Y-28941403D01*
X47907372Y-28941401D01*
X47847844Y-28935000D01*
X47750000Y-28935000D01*
X47750000Y-29164040D01*
X47742181Y-29207374D01*
X47698012Y-29325792D01*
X47698011Y-29325797D01*
X47691500Y-29386345D01*
X47691500Y-31103492D01*
X47690914Y-31111999D01*
X47687901Y-31133774D01*
X47687944Y-31141670D01*
X47689001Y-31171973D01*
X47689003Y-31171984D01*
X47690911Y-31181067D01*
X47691881Y-31187190D01*
X47698010Y-31244201D01*
X47708898Y-31273391D01*
X47714064Y-31291215D01*
X47719064Y-31315004D01*
X47719065Y-31315006D01*
X47736446Y-31362626D01*
X47742483Y-31379163D01*
X47750000Y-31421680D01*
X47750000Y-31635000D01*
X47764681Y-31649681D01*
X47798166Y-31711004D01*
X47801000Y-31737362D01*
X47801000Y-33095343D01*
X47796507Y-33128418D01*
X47746665Y-33308500D01*
X47638307Y-33700004D01*
X47632695Y-33722191D01*
X47631854Y-33727237D01*
X47631139Y-33727117D01*
X47627449Y-33745466D01*
X47606460Y-33810065D01*
X47606458Y-33810070D01*
X47589134Y-33974903D01*
X47586496Y-34000000D01*
X47606458Y-34189928D01*
X47606459Y-34189931D01*
X47665470Y-34371549D01*
X47665473Y-34371556D01*
X47760960Y-34536944D01*
X47888747Y-34678866D01*
X48033151Y-34783782D01*
X48075816Y-34839112D01*
X48081795Y-34908726D01*
X48049189Y-34970521D01*
X47988350Y-35004878D01*
X47960265Y-35008100D01*
X45538719Y-35008100D01*
X45471680Y-34988415D01*
X45425925Y-34935611D01*
X45415981Y-34866453D01*
X45445006Y-34802897D01*
X45451038Y-34796419D01*
X45669213Y-34578244D01*
X45890075Y-34357381D01*
X45902458Y-34347463D01*
X45902286Y-34347255D01*
X45908292Y-34342284D01*
X45908303Y-34342278D01*
X45956426Y-34291031D01*
X45977639Y-34269819D01*
X45981993Y-34264204D01*
X45985768Y-34259783D01*
X46018217Y-34225231D01*
X46028094Y-34207262D01*
X46038779Y-34190997D01*
X46039608Y-34189928D01*
X46051350Y-34174792D01*
X46070183Y-34131268D01*
X46072732Y-34126066D01*
X46095569Y-34084528D01*
X46100670Y-34064655D01*
X46106969Y-34046259D01*
X46115117Y-34027433D01*
X46119995Y-33996628D01*
X46122530Y-33980627D01*
X46123715Y-33974903D01*
X46124137Y-33973256D01*
X46135500Y-33929007D01*
X46135500Y-33908499D01*
X46137027Y-33889099D01*
X46140235Y-33868846D01*
X46135775Y-33821664D01*
X46135500Y-33815826D01*
X46135500Y-33498137D01*
X46155185Y-33431098D01*
X46207989Y-33385343D01*
X46277147Y-33375399D01*
X46289163Y-33377737D01*
X46413972Y-33408500D01*
X46586028Y-33408500D01*
X46753079Y-33367326D01*
X46753079Y-33367325D01*
X46753083Y-33367325D01*
X46905430Y-33287367D01*
X47034215Y-33173273D01*
X47131954Y-33031675D01*
X47192965Y-32870801D01*
X47213704Y-32700000D01*
X47203772Y-32618216D01*
X47203367Y-32613101D01*
X47202650Y-32594077D01*
X47197581Y-32566304D01*
X47197025Y-32562642D01*
X47192965Y-32529200D01*
X47192823Y-32528825D01*
X47186778Y-32507111D01*
X47167230Y-32399999D01*
X47137515Y-32237172D01*
X47135500Y-32214910D01*
X47135500Y-31759000D01*
X47155185Y-31691961D01*
X47207989Y-31646206D01*
X47247358Y-31637641D01*
X47250000Y-31635000D01*
X47250000Y-31405960D01*
X47257819Y-31362626D01*
X47301987Y-31244207D01*
X47301988Y-31244204D01*
X47301989Y-31244201D01*
X47305591Y-31210692D01*
X47308499Y-31183654D01*
X47308500Y-31183637D01*
X47308500Y-29386362D01*
X47308499Y-29386345D01*
X47305157Y-29355270D01*
X47301989Y-29325799D01*
X47301987Y-29325795D01*
X47301987Y-29325792D01*
X47257819Y-29207374D01*
X47250000Y-29164040D01*
X47250000Y-28935000D01*
X47152155Y-28935000D01*
X47092627Y-28941401D01*
X47092621Y-28941403D01*
X47055491Y-28955251D01*
X46985800Y-28960234D01*
X46968826Y-28955250D01*
X46909201Y-28933010D01*
X46848654Y-28926500D01*
X46848638Y-28926500D01*
X46151362Y-28926500D01*
X46151345Y-28926500D01*
X46090802Y-28933010D01*
X46090791Y-28933012D01*
X46043332Y-28950714D01*
X45973640Y-28955698D01*
X45956668Y-28950714D01*
X45909208Y-28933012D01*
X45909197Y-28933010D01*
X45848654Y-28926500D01*
X45848638Y-28926500D01*
X45151362Y-28926500D01*
X45151345Y-28926500D01*
X45090802Y-28933010D01*
X45090791Y-28933012D01*
X45043332Y-28950714D01*
X44973640Y-28955698D01*
X44956668Y-28950714D01*
X44909208Y-28933012D01*
X44909197Y-28933010D01*
X44848654Y-28926500D01*
X44848638Y-28926500D01*
X44151362Y-28926500D01*
X44151345Y-28926500D01*
X44090802Y-28933010D01*
X44090791Y-28933012D01*
X44043332Y-28950714D01*
X43973640Y-28955698D01*
X43956668Y-28950714D01*
X43909208Y-28933012D01*
X43909197Y-28933010D01*
X43848654Y-28926500D01*
X43848638Y-28926500D01*
X43151362Y-28926500D01*
X43151345Y-28926500D01*
X43090802Y-28933010D01*
X43090791Y-28933012D01*
X43043332Y-28950714D01*
X42973640Y-28955698D01*
X42956668Y-28950714D01*
X42909208Y-28933012D01*
X42909197Y-28933010D01*
X42848654Y-28926500D01*
X42848638Y-28926500D01*
X42151362Y-28926500D01*
X42151345Y-28926500D01*
X42090797Y-28933011D01*
X42090795Y-28933011D01*
X41953795Y-28984111D01*
X41836739Y-29071739D01*
X41749111Y-29188795D01*
X41698011Y-29325795D01*
X41698011Y-29325797D01*
X41691500Y-29386345D01*
X41691500Y-31183654D01*
X41698011Y-31244202D01*
X41698011Y-31244204D01*
X41708898Y-31273391D01*
X41749111Y-31381204D01*
X41836739Y-31498261D01*
X41836740Y-31498262D01*
X41839767Y-31502305D01*
X41864184Y-31567769D01*
X41864500Y-31576616D01*
X41864500Y-32402904D01*
X41844815Y-32469943D01*
X41828181Y-32490585D01*
X38727421Y-35591344D01*
X38715031Y-35601272D01*
X38715202Y-35601479D01*
X38709196Y-35606447D01*
X38684378Y-35632875D01*
X38661073Y-35657693D01*
X38654003Y-35664763D01*
X38639865Y-35678900D01*
X38639863Y-35678902D01*
X38635508Y-35684516D01*
X38631718Y-35688953D01*
X38599282Y-35723494D01*
X38599281Y-35723496D01*
X38589400Y-35741468D01*
X38578725Y-35757719D01*
X38566152Y-35773929D01*
X38566149Y-35773933D01*
X38547327Y-35817428D01*
X38544757Y-35822674D01*
X38521930Y-35864197D01*
X38516829Y-35884064D01*
X38510530Y-35902462D01*
X38502384Y-35921287D01*
X38502381Y-35921296D01*
X38494969Y-35968098D01*
X38493784Y-35973820D01*
X38482000Y-36019711D01*
X38482000Y-36040225D01*
X38480473Y-36059624D01*
X38477265Y-36079877D01*
X38481725Y-36127059D01*
X38482000Y-36132897D01*
X38482000Y-40701795D01*
X38480258Y-40717571D01*
X38480526Y-40717597D01*
X38479792Y-40725362D01*
X38482000Y-40795629D01*
X38482000Y-40825627D01*
X38482887Y-40832657D01*
X38483345Y-40838476D01*
X38484834Y-40885847D01*
X38484835Y-40885851D01*
X38490557Y-40905549D01*
X38494500Y-40924590D01*
X38497071Y-40944932D01*
X38497074Y-40944947D01*
X38514516Y-40989003D01*
X38516407Y-40994527D01*
X38529630Y-41040035D01*
X38540070Y-41057688D01*
X38548628Y-41075158D01*
X38556179Y-41094229D01*
X38556182Y-41094235D01*
X38584042Y-41132580D01*
X38587249Y-41137463D01*
X38611366Y-41178242D01*
X38611370Y-41178246D01*
X38625864Y-41192740D01*
X38638496Y-41207529D01*
X38650558Y-41224131D01*
X38687075Y-41254340D01*
X38691386Y-41258262D01*
X39080977Y-41647853D01*
X39455181Y-42022057D01*
X39488666Y-42083380D01*
X39491500Y-42109738D01*
X39491500Y-42586538D01*
X39471815Y-42653577D01*
X39455181Y-42674219D01*
X38756526Y-43372873D01*
X38735290Y-43389887D01*
X38709196Y-43406446D01*
X38709195Y-43406448D01*
X38703380Y-43412640D01*
X38685885Y-43428064D01*
X38679015Y-43433055D01*
X38641815Y-43478021D01*
X38639240Y-43480942D01*
X38599284Y-43523491D01*
X38595191Y-43530937D01*
X38582078Y-43550231D01*
X38576665Y-43556774D01*
X38576664Y-43556774D01*
X38551809Y-43609592D01*
X38550042Y-43613059D01*
X38521933Y-43664192D01*
X38521930Y-43664200D01*
X38519817Y-43672428D01*
X38511917Y-43694372D01*
X38508299Y-43702060D01*
X38508298Y-43702065D01*
X38497364Y-43759378D01*
X38496515Y-43763178D01*
X38482000Y-43819713D01*
X38482000Y-43828205D01*
X38479804Y-43851436D01*
X38478213Y-43859776D01*
X38478213Y-43859779D01*
X38481878Y-43918042D01*
X38482000Y-43921915D01*
X38482000Y-59616151D01*
X38480258Y-59631927D01*
X38480526Y-59631953D01*
X38479792Y-59639718D01*
X38482000Y-59709985D01*
X38482000Y-59739983D01*
X38482887Y-59747013D01*
X38483345Y-59752832D01*
X38484834Y-59800203D01*
X38484835Y-59800207D01*
X38490557Y-59819905D01*
X38494500Y-59838946D01*
X38497071Y-59859288D01*
X38497074Y-59859303D01*
X38514516Y-59903359D01*
X38516407Y-59908883D01*
X38529630Y-59954391D01*
X38540070Y-59972044D01*
X38548628Y-59989514D01*
X38556179Y-60008585D01*
X38556182Y-60008591D01*
X38584042Y-60046936D01*
X38587250Y-60051821D01*
X38601176Y-60075369D01*
X38611366Y-60092598D01*
X38611370Y-60092602D01*
X38625864Y-60107096D01*
X38638496Y-60121885D01*
X38650558Y-60138487D01*
X38687075Y-60168696D01*
X38691386Y-60172618D01*
X39097476Y-60578708D01*
X39455181Y-60936413D01*
X39488666Y-60997736D01*
X39491500Y-61024094D01*
X39491500Y-61586538D01*
X39471815Y-61653577D01*
X39455181Y-61674219D01*
X38727421Y-62401978D01*
X38715031Y-62411906D01*
X38715202Y-62412113D01*
X38709196Y-62417081D01*
X38684378Y-62443509D01*
X38661073Y-62468327D01*
X38654003Y-62475397D01*
X38639865Y-62489534D01*
X38639863Y-62489536D01*
X38635508Y-62495150D01*
X38631718Y-62499587D01*
X38599282Y-62534128D01*
X38599281Y-62534130D01*
X38589400Y-62552102D01*
X38578725Y-62568353D01*
X38566152Y-62584563D01*
X38566149Y-62584567D01*
X38547327Y-62628062D01*
X38544757Y-62633308D01*
X38521930Y-62674831D01*
X38516829Y-62694698D01*
X38510530Y-62713096D01*
X38502384Y-62731921D01*
X38502381Y-62731930D01*
X38494969Y-62778732D01*
X38493784Y-62784454D01*
X38482000Y-62830345D01*
X38482000Y-62850859D01*
X38480473Y-62870258D01*
X38477265Y-62890511D01*
X38481725Y-62937693D01*
X38482000Y-62943531D01*
X38482000Y-78316151D01*
X38480258Y-78331927D01*
X38480526Y-78331953D01*
X38479792Y-78339718D01*
X38482000Y-78409985D01*
X38482000Y-78439983D01*
X38482887Y-78447013D01*
X38483345Y-78452832D01*
X38484834Y-78500203D01*
X38484835Y-78500207D01*
X38490557Y-78519905D01*
X38494500Y-78538946D01*
X38497071Y-78559288D01*
X38497074Y-78559303D01*
X38514516Y-78603359D01*
X38516407Y-78608883D01*
X38529630Y-78654391D01*
X38540070Y-78672044D01*
X38548628Y-78689514D01*
X38556179Y-78708585D01*
X38556182Y-78708591D01*
X38584042Y-78746936D01*
X38587249Y-78751819D01*
X38611366Y-78792598D01*
X38611370Y-78792602D01*
X38625864Y-78807096D01*
X38638496Y-78821885D01*
X38650558Y-78838487D01*
X38687075Y-78868696D01*
X38691386Y-78872618D01*
X39114889Y-79296121D01*
X39455181Y-79636413D01*
X39488666Y-79697736D01*
X39491500Y-79724094D01*
X39491500Y-80586538D01*
X39471815Y-80653577D01*
X39455181Y-80674219D01*
X38727421Y-81401978D01*
X38715031Y-81411906D01*
X38715202Y-81412113D01*
X38709196Y-81417081D01*
X38684378Y-81443509D01*
X38661073Y-81468327D01*
X38654003Y-81475397D01*
X38639865Y-81489534D01*
X38639863Y-81489536D01*
X38635508Y-81495150D01*
X38631718Y-81499587D01*
X38599282Y-81534128D01*
X38599281Y-81534130D01*
X38589400Y-81552102D01*
X38578725Y-81568353D01*
X38566152Y-81584563D01*
X38566149Y-81584567D01*
X38547327Y-81628062D01*
X38544757Y-81633308D01*
X38521930Y-81674831D01*
X38516829Y-81694698D01*
X38510530Y-81713096D01*
X38502384Y-81731921D01*
X38502381Y-81731930D01*
X38494969Y-81778732D01*
X38493784Y-81784454D01*
X38482000Y-81830345D01*
X38482000Y-81850859D01*
X38480473Y-81870258D01*
X38477265Y-81890511D01*
X37500500Y-81890511D01*
X37500500Y-31124500D01*
X37520185Y-31057461D01*
X37572989Y-31011706D01*
X37624500Y-31000500D01*
X40275240Y-31000500D01*
X40275383Y-31000528D01*
X40275384Y-31000524D01*
X40299997Y-31000539D01*
X40300000Y-31000541D01*
X40300383Y-31000383D01*
X40300500Y-31000099D01*
X40300541Y-31000000D01*
X40300540Y-30999997D01*
X40300583Y-30975889D01*
X40300500Y-30975467D01*
X40300500Y-27910533D01*
X40320185Y-27843494D01*
X40372989Y-27797739D01*
X40442147Y-27787795D01*
X40467836Y-27794352D01*
X40492622Y-27803597D01*
X40492627Y-27803598D01*
X40552155Y-27809999D01*
X40552172Y-27810000D01*
X40950000Y-27810000D01*
X40950000Y-26660000D01*
X41450000Y-26660000D01*
X41450000Y-27810000D01*
X41847828Y-27810000D01*
X41847844Y-27809999D01*
X41907372Y-27803598D01*
X41907379Y-27803596D01*
X42042086Y-27753354D01*
X42042093Y-27753350D01*
X42157187Y-27667190D01*
X42157190Y-27667187D01*
X42243350Y-27552093D01*
X42243354Y-27552086D01*
X42293596Y-27417379D01*
X42293598Y-27417372D01*
X42299999Y-27357844D01*
X42300000Y-27357827D01*
X42300000Y-26660000D01*
X51700000Y-26660000D01*
X51700000Y-27357844D01*
X51706401Y-27417372D01*
X51706403Y-27417379D01*
X51756645Y-27552086D01*
X51756649Y-27552093D01*
X51842809Y-27667187D01*
X51842812Y-27667190D01*
X51957906Y-27753350D01*
X51957913Y-27753354D01*
X52092620Y-27803596D01*
X52092627Y-27803598D01*
X52152155Y-27809999D01*
X52152172Y-27810000D01*
X52550000Y-27810000D01*
X52550000Y-26660000D01*
X51700000Y-26660000D01*
X42300000Y-26660000D01*
X41450000Y-26660000D01*
X40950000Y-26660000D01*
X40950000Y-26284000D01*
X40969685Y-26216961D01*
X41022489Y-26171206D01*
X41074000Y-26160000D01*
X42300000Y-26160000D01*
X42300000Y-25462172D01*
X42299999Y-25462155D01*
X42293598Y-25402627D01*
X42293596Y-25402620D01*
X42243354Y-25267913D01*
X42243352Y-25267910D01*
X42191625Y-25198812D01*
X42167207Y-25133348D01*
X42182058Y-25065074D01*
X42231463Y-25015669D01*
X42290891Y-25000500D01*
X51709109Y-25000500D01*
X51776148Y-25020185D01*
G37*
G04 #@! TD.AperFunction*
M02*
