M48
; DRILL file {KiCad 8.0.1-8.0.1-1~ubuntu22.04.1} date 2024-05-03T20:10:16-0700
; FORMAT={-:-/ absolute / inch / decimal}
; #@! TF.CreationDate,2024-05-03T20:10:16-07:00
; #@! TF.GenerationSoftware,Kicad,Pcbnew,8.0.1-8.0.1-1~ubuntu22.04.1
; #@! TF.FileFunction,NonPlated,1,2,NPTH
FMAT,2
INCH
; #@! TA.AperFunction,NonPlated,NPTH,ComponentDrill
T1C0.0394
; #@! TA.AperFunction,NonPlated,NPTH,ComponentDrill
T2C0.0906
; #@! TA.AperFunction,NonPlated,NPTH,ComponentDrill
T3C0.1181
; #@! TA.AperFunction,NonPlated,NPTH,ComponentDrill
T4C0.1260
; #@! TA.AperFunction,NonPlated,NPTH,ComponentDrill
T5C0.1575
%
G90
G05
T1
X2.1232Y-2.2317
X2.5343Y-2.2317
X2.6843Y-3.3537
X3.0953Y-3.3537
X3.2453Y-1.1096
X3.2453Y-2.2317
X3.6563Y-1.1096
X3.6563Y-2.2317
X4.3673Y-1.1096
X4.3673Y-2.2317
X4.7783Y-1.1096
X4.7783Y-2.2317
X4.9283Y-3.3537
X5.3394Y-3.3537
X5.4894Y-2.2317
X5.9004Y-2.2317
T2
X2.1201Y-2.374
X2.5374Y-2.374
X2.6811Y-3.4961
X3.0984Y-3.4961
X3.2421Y-1.252
X3.2421Y-2.374
X3.6594Y-1.252
X3.6594Y-2.374
X4.3642Y-1.252
X4.3642Y-2.374
X4.7815Y-1.252
X4.7815Y-2.374
X4.9252Y-3.4961
X5.3425Y-3.4961
X5.4862Y-2.374
X5.9035Y-2.374
T3
X2.1319Y-2.5236
X2.2287Y-2.574
X2.3287Y-2.6063
X2.4787Y-2.474
X2.6929Y-3.6457
X2.7898Y-3.6961
X2.8898Y-3.7283
X3.0398Y-3.5961
X3.2539Y-1.4016
X3.2539Y-2.5236
X3.3508Y-1.452
X3.3508Y-2.574
X3.4508Y-1.4843
X3.4508Y-2.6063
X3.6008Y-1.352
X3.6008Y-2.474
X4.376Y-1.4016
X4.376Y-2.5236
X4.4728Y-1.452
X4.4728Y-2.574
X4.5728Y-1.4843
X4.5728Y-2.6063
X4.7228Y-1.352
X4.7228Y-2.474
X4.937Y-3.6457
X5.0339Y-3.6961
X5.1339Y-3.7283
X5.2839Y-3.5961
X5.498Y-2.5236
X5.5949Y-2.574
X5.6949Y-2.6063
X5.8449Y-2.474
T4
X2.0906Y-3.7126
X5.9957Y-3.728
T5
X2.3287Y-2.374
X2.8898Y-3.4961
X3.4508Y-1.252
X3.4508Y-2.374
X4.5728Y-1.252
X4.5728Y-2.374
X5.1339Y-3.4961
X5.6949Y-2.374
M30
