G04 #@! TF.GenerationSoftware,KiCad,Pcbnew,8.0.1-8.0.1-1~ubuntu22.04.1*
G04 #@! TF.CreationDate,2024-05-03T20:10:14-07:00*
G04 #@! TF.ProjectId,Seismos_4-Rhythm,53656973-6d6f-4735-9f34-2d5268797468,rev?*
G04 #@! TF.SameCoordinates,Original*
G04 #@! TF.FileFunction,Profile,NP*
%FSLAX46Y46*%
G04 Gerber Fmt 4.6, Leading zero omitted, Abs format (unit mm)*
G04 Created by KiCad (PCBNEW 8.0.1-8.0.1-1~ubuntu22.04.1) date 2024-05-03 20:10:14*
%MOMM*%
%LPD*%
G01*
G04 APERTURE LIST*
G04 #@! TA.AperFunction,Profile*
%ADD10C,0.100000*%
G04 #@! TD*
G04 #@! TA.AperFunction,Profile*
%ADD11C,0.120000*%
G04 #@! TD*
G04 APERTURE END LIST*
D10*
X154150000Y-98300000D02*
X49650000Y-98300000D01*
X155650000Y-23800000D02*
X155650000Y-96800000D01*
X48150000Y-96800000D02*
X48150000Y-23800000D01*
X154150000Y-22300000D02*
G75*
G02*
X155650000Y-23800000I0J-1500000D01*
G01*
X155650000Y-96800000D02*
G75*
G02*
X154150000Y-98300000I-1500000J0D01*
G01*
X49650000Y-98300000D02*
G75*
G02*
X48150000Y-96800000I0J1500000D01*
G01*
X49650000Y-22300000D02*
X154150000Y-22300000D01*
X48150000Y-23800000D02*
G75*
G02*
X49650000Y-22300000I1500000J0D01*
G01*
D11*
X74878000Y-85795400D02*
X71638000Y-85795400D01*
X71638000Y-82808600D01*
X74878000Y-82808600D01*
X74878000Y-85795400D01*
X131878000Y-85795400D02*
X128638000Y-85795400D01*
X128638000Y-82808600D01*
X131878000Y-82808600D01*
X131878000Y-85795400D01*
X117628000Y-57295400D02*
X114388000Y-57295400D01*
X114388000Y-54308600D01*
X117628000Y-54308600D01*
X117628000Y-57295400D01*
X89128000Y-28795400D02*
X85888000Y-28795400D01*
X85888000Y-25808600D01*
X89128000Y-25808600D01*
X89128000Y-28795400D01*
X117628000Y-28795400D02*
X114388000Y-28795400D01*
X114388000Y-25808600D01*
X117628000Y-25808600D01*
X117628000Y-28795400D01*
X146128000Y-57295400D02*
X142888000Y-57295400D01*
X142888000Y-54308600D01*
X146128000Y-54308600D01*
X146128000Y-57295400D01*
X89128000Y-57295400D02*
X85888000Y-57295400D01*
X85888000Y-54308600D01*
X89128000Y-54308600D01*
X89128000Y-57295400D01*
X60628000Y-57295400D02*
X57388000Y-57295400D01*
X57388000Y-54308600D01*
X60628000Y-54308600D01*
X60628000Y-57295400D01*
M02*
