G04 #@! TF.GenerationSoftware,KiCad,Pcbnew,8.0.1-8.0.1-1~ubuntu22.04.1*
G04 #@! TF.CreationDate,2024-05-03T20:10:14-07:00*
G04 #@! TF.ProjectId,Seismos_4-Rhythm,53656973-6d6f-4735-9f34-2d5268797468,rev?*
G04 #@! TF.SameCoordinates,Original*
G04 #@! TF.FileFunction,Legend,Top*
G04 #@! TF.FilePolarity,Positive*
%FSLAX46Y46*%
G04 Gerber Fmt 4.6, Leading zero omitted, Abs format (unit mm)*
G04 Created by KiCad (PCBNEW 8.0.1-8.0.1-1~ubuntu22.04.1) date 2024-05-03 20:10:14*
%MOMM*%
%LPD*%
G01*
G04 APERTURE LIST*
G04 Aperture macros list*
%AMRoundRect*
0 Rectangle with rounded corners*
0 $1 Rounding radius*
0 $2 $3 $4 $5 $6 $7 $8 $9 X,Y pos of 4 corners*
0 Add a 4 corners polygon primitive as box body*
4,1,4,$2,$3,$4,$5,$6,$7,$8,$9,$2,$3,0*
0 Add four circle primitives for the rounded corners*
1,1,$1+$1,$2,$3*
1,1,$1+$1,$4,$5*
1,1,$1+$1,$6,$7*
1,1,$1+$1,$8,$9*
0 Add four rect primitives between the rounded corners*
20,1,$1+$1,$2,$3,$4,$5,0*
20,1,$1+$1,$4,$5,$6,$7,0*
20,1,$1+$1,$6,$7,$8,$9,0*
20,1,$1+$1,$8,$9,$2,$3,0*%
G04 Aperture macros list end*
%ADD10C,0.150000*%
%ADD11C,0.120000*%
%ADD12RoundRect,0.225000X-0.375000X0.225000X-0.375000X-0.225000X0.375000X-0.225000X0.375000X0.225000X0*%
%ADD13C,3.200000*%
%ADD14C,2.300000*%
%ADD15C,1.000000*%
%ADD16C,3.000000*%
%ADD17C,4.000000*%
G04 APERTURE END LIST*
D10*
X113579819Y-46788094D02*
X112579819Y-46788094D01*
X112579819Y-46788094D02*
X112579819Y-46549999D01*
X112579819Y-46549999D02*
X112627438Y-46407142D01*
X112627438Y-46407142D02*
X112722676Y-46311904D01*
X112722676Y-46311904D02*
X112817914Y-46264285D01*
X112817914Y-46264285D02*
X113008390Y-46216666D01*
X113008390Y-46216666D02*
X113151247Y-46216666D01*
X113151247Y-46216666D02*
X113341723Y-46264285D01*
X113341723Y-46264285D02*
X113436961Y-46311904D01*
X113436961Y-46311904D02*
X113532200Y-46407142D01*
X113532200Y-46407142D02*
X113579819Y-46549999D01*
X113579819Y-46549999D02*
X113579819Y-46788094D01*
X112579819Y-45311904D02*
X112579819Y-45788094D01*
X112579819Y-45788094D02*
X113056009Y-45835713D01*
X113056009Y-45835713D02*
X113008390Y-45788094D01*
X113008390Y-45788094D02*
X112960771Y-45692856D01*
X112960771Y-45692856D02*
X112960771Y-45454761D01*
X112960771Y-45454761D02*
X113008390Y-45359523D01*
X113008390Y-45359523D02*
X113056009Y-45311904D01*
X113056009Y-45311904D02*
X113151247Y-45264285D01*
X113151247Y-45264285D02*
X113389342Y-45264285D01*
X113389342Y-45264285D02*
X113484580Y-45311904D01*
X113484580Y-45311904D02*
X113532200Y-45359523D01*
X113532200Y-45359523D02*
X113579819Y-45454761D01*
X113579819Y-45454761D02*
X113579819Y-45692856D01*
X113579819Y-45692856D02*
X113532200Y-45788094D01*
X113532200Y-45788094D02*
X113484580Y-45835713D01*
X91779819Y-46788094D02*
X90779819Y-46788094D01*
X90779819Y-46788094D02*
X90779819Y-46549999D01*
X90779819Y-46549999D02*
X90827438Y-46407142D01*
X90827438Y-46407142D02*
X90922676Y-46311904D01*
X90922676Y-46311904D02*
X91017914Y-46264285D01*
X91017914Y-46264285D02*
X91208390Y-46216666D01*
X91208390Y-46216666D02*
X91351247Y-46216666D01*
X91351247Y-46216666D02*
X91541723Y-46264285D01*
X91541723Y-46264285D02*
X91636961Y-46311904D01*
X91636961Y-46311904D02*
X91732200Y-46407142D01*
X91732200Y-46407142D02*
X91779819Y-46549999D01*
X91779819Y-46549999D02*
X91779819Y-46788094D01*
X90875057Y-45835713D02*
X90827438Y-45788094D01*
X90827438Y-45788094D02*
X90779819Y-45692856D01*
X90779819Y-45692856D02*
X90779819Y-45454761D01*
X90779819Y-45454761D02*
X90827438Y-45359523D01*
X90827438Y-45359523D02*
X90875057Y-45311904D01*
X90875057Y-45311904D02*
X90970295Y-45264285D01*
X90970295Y-45264285D02*
X91065533Y-45264285D01*
X91065533Y-45264285D02*
X91208390Y-45311904D01*
X91208390Y-45311904D02*
X91779819Y-45883332D01*
X91779819Y-45883332D02*
X91779819Y-45264285D01*
X95129819Y-46788094D02*
X94129819Y-46788094D01*
X94129819Y-46788094D02*
X94129819Y-46549999D01*
X94129819Y-46549999D02*
X94177438Y-46407142D01*
X94177438Y-46407142D02*
X94272676Y-46311904D01*
X94272676Y-46311904D02*
X94367914Y-46264285D01*
X94367914Y-46264285D02*
X94558390Y-46216666D01*
X94558390Y-46216666D02*
X94701247Y-46216666D01*
X94701247Y-46216666D02*
X94891723Y-46264285D01*
X94891723Y-46264285D02*
X94986961Y-46311904D01*
X94986961Y-46311904D02*
X95082200Y-46407142D01*
X95082200Y-46407142D02*
X95129819Y-46549999D01*
X95129819Y-46549999D02*
X95129819Y-46788094D01*
X95129819Y-45264285D02*
X95129819Y-45835713D01*
X95129819Y-45549999D02*
X94129819Y-45549999D01*
X94129819Y-45549999D02*
X94272676Y-45645237D01*
X94272676Y-45645237D02*
X94367914Y-45740475D01*
X94367914Y-45740475D02*
X94415533Y-45835713D01*
X85079819Y-46788094D02*
X84079819Y-46788094D01*
X84079819Y-46788094D02*
X84079819Y-46549999D01*
X84079819Y-46549999D02*
X84127438Y-46407142D01*
X84127438Y-46407142D02*
X84222676Y-46311904D01*
X84222676Y-46311904D02*
X84317914Y-46264285D01*
X84317914Y-46264285D02*
X84508390Y-46216666D01*
X84508390Y-46216666D02*
X84651247Y-46216666D01*
X84651247Y-46216666D02*
X84841723Y-46264285D01*
X84841723Y-46264285D02*
X84936961Y-46311904D01*
X84936961Y-46311904D02*
X85032200Y-46407142D01*
X85032200Y-46407142D02*
X85079819Y-46549999D01*
X85079819Y-46549999D02*
X85079819Y-46788094D01*
X84413152Y-45359523D02*
X85079819Y-45359523D01*
X84032200Y-45597618D02*
X84746485Y-45835713D01*
X84746485Y-45835713D02*
X84746485Y-45216666D01*
X123629819Y-46788094D02*
X122629819Y-46788094D01*
X122629819Y-46788094D02*
X122629819Y-46549999D01*
X122629819Y-46549999D02*
X122677438Y-46407142D01*
X122677438Y-46407142D02*
X122772676Y-46311904D01*
X122772676Y-46311904D02*
X122867914Y-46264285D01*
X122867914Y-46264285D02*
X123058390Y-46216666D01*
X123058390Y-46216666D02*
X123201247Y-46216666D01*
X123201247Y-46216666D02*
X123391723Y-46264285D01*
X123391723Y-46264285D02*
X123486961Y-46311904D01*
X123486961Y-46311904D02*
X123582200Y-46407142D01*
X123582200Y-46407142D02*
X123629819Y-46549999D01*
X123629819Y-46549999D02*
X123629819Y-46788094D01*
X123058390Y-45645237D02*
X123010771Y-45740475D01*
X123010771Y-45740475D02*
X122963152Y-45788094D01*
X122963152Y-45788094D02*
X122867914Y-45835713D01*
X122867914Y-45835713D02*
X122820295Y-45835713D01*
X122820295Y-45835713D02*
X122725057Y-45788094D01*
X122725057Y-45788094D02*
X122677438Y-45740475D01*
X122677438Y-45740475D02*
X122629819Y-45645237D01*
X122629819Y-45645237D02*
X122629819Y-45454761D01*
X122629819Y-45454761D02*
X122677438Y-45359523D01*
X122677438Y-45359523D02*
X122725057Y-45311904D01*
X122725057Y-45311904D02*
X122820295Y-45264285D01*
X122820295Y-45264285D02*
X122867914Y-45264285D01*
X122867914Y-45264285D02*
X122963152Y-45311904D01*
X122963152Y-45311904D02*
X123010771Y-45359523D01*
X123010771Y-45359523D02*
X123058390Y-45454761D01*
X123058390Y-45454761D02*
X123058390Y-45645237D01*
X123058390Y-45645237D02*
X123106009Y-45740475D01*
X123106009Y-45740475D02*
X123153628Y-45788094D01*
X123153628Y-45788094D02*
X123248866Y-45835713D01*
X123248866Y-45835713D02*
X123439342Y-45835713D01*
X123439342Y-45835713D02*
X123534580Y-45788094D01*
X123534580Y-45788094D02*
X123582200Y-45740475D01*
X123582200Y-45740475D02*
X123629819Y-45645237D01*
X123629819Y-45645237D02*
X123629819Y-45454761D01*
X123629819Y-45454761D02*
X123582200Y-45359523D01*
X123582200Y-45359523D02*
X123534580Y-45311904D01*
X123534580Y-45311904D02*
X123439342Y-45264285D01*
X123439342Y-45264285D02*
X123248866Y-45264285D01*
X123248866Y-45264285D02*
X123153628Y-45311904D01*
X123153628Y-45311904D02*
X123106009Y-45359523D01*
X123106009Y-45359523D02*
X123058390Y-45454761D01*
X116929819Y-46788094D02*
X115929819Y-46788094D01*
X115929819Y-46788094D02*
X115929819Y-46549999D01*
X115929819Y-46549999D02*
X115977438Y-46407142D01*
X115977438Y-46407142D02*
X116072676Y-46311904D01*
X116072676Y-46311904D02*
X116167914Y-46264285D01*
X116167914Y-46264285D02*
X116358390Y-46216666D01*
X116358390Y-46216666D02*
X116501247Y-46216666D01*
X116501247Y-46216666D02*
X116691723Y-46264285D01*
X116691723Y-46264285D02*
X116786961Y-46311904D01*
X116786961Y-46311904D02*
X116882200Y-46407142D01*
X116882200Y-46407142D02*
X116929819Y-46549999D01*
X116929819Y-46549999D02*
X116929819Y-46788094D01*
X115929819Y-45359523D02*
X115929819Y-45549999D01*
X115929819Y-45549999D02*
X115977438Y-45645237D01*
X115977438Y-45645237D02*
X116025057Y-45692856D01*
X116025057Y-45692856D02*
X116167914Y-45788094D01*
X116167914Y-45788094D02*
X116358390Y-45835713D01*
X116358390Y-45835713D02*
X116739342Y-45835713D01*
X116739342Y-45835713D02*
X116834580Y-45788094D01*
X116834580Y-45788094D02*
X116882200Y-45740475D01*
X116882200Y-45740475D02*
X116929819Y-45645237D01*
X116929819Y-45645237D02*
X116929819Y-45454761D01*
X116929819Y-45454761D02*
X116882200Y-45359523D01*
X116882200Y-45359523D02*
X116834580Y-45311904D01*
X116834580Y-45311904D02*
X116739342Y-45264285D01*
X116739342Y-45264285D02*
X116501247Y-45264285D01*
X116501247Y-45264285D02*
X116406009Y-45311904D01*
X116406009Y-45311904D02*
X116358390Y-45359523D01*
X116358390Y-45359523D02*
X116310771Y-45454761D01*
X116310771Y-45454761D02*
X116310771Y-45645237D01*
X116310771Y-45645237D02*
X116358390Y-45740475D01*
X116358390Y-45740475D02*
X116406009Y-45788094D01*
X116406009Y-45788094D02*
X116501247Y-45835713D01*
X120279819Y-46788094D02*
X119279819Y-46788094D01*
X119279819Y-46788094D02*
X119279819Y-46549999D01*
X119279819Y-46549999D02*
X119327438Y-46407142D01*
X119327438Y-46407142D02*
X119422676Y-46311904D01*
X119422676Y-46311904D02*
X119517914Y-46264285D01*
X119517914Y-46264285D02*
X119708390Y-46216666D01*
X119708390Y-46216666D02*
X119851247Y-46216666D01*
X119851247Y-46216666D02*
X120041723Y-46264285D01*
X120041723Y-46264285D02*
X120136961Y-46311904D01*
X120136961Y-46311904D02*
X120232200Y-46407142D01*
X120232200Y-46407142D02*
X120279819Y-46549999D01*
X120279819Y-46549999D02*
X120279819Y-46788094D01*
X119279819Y-45883332D02*
X119279819Y-45216666D01*
X119279819Y-45216666D02*
X120279819Y-45645237D01*
X88429819Y-46788094D02*
X87429819Y-46788094D01*
X87429819Y-46788094D02*
X87429819Y-46549999D01*
X87429819Y-46549999D02*
X87477438Y-46407142D01*
X87477438Y-46407142D02*
X87572676Y-46311904D01*
X87572676Y-46311904D02*
X87667914Y-46264285D01*
X87667914Y-46264285D02*
X87858390Y-46216666D01*
X87858390Y-46216666D02*
X88001247Y-46216666D01*
X88001247Y-46216666D02*
X88191723Y-46264285D01*
X88191723Y-46264285D02*
X88286961Y-46311904D01*
X88286961Y-46311904D02*
X88382200Y-46407142D01*
X88382200Y-46407142D02*
X88429819Y-46549999D01*
X88429819Y-46549999D02*
X88429819Y-46788094D01*
X87429819Y-45883332D02*
X87429819Y-45264285D01*
X87429819Y-45264285D02*
X87810771Y-45597618D01*
X87810771Y-45597618D02*
X87810771Y-45454761D01*
X87810771Y-45454761D02*
X87858390Y-45359523D01*
X87858390Y-45359523D02*
X87906009Y-45311904D01*
X87906009Y-45311904D02*
X88001247Y-45264285D01*
X88001247Y-45264285D02*
X88239342Y-45264285D01*
X88239342Y-45264285D02*
X88334580Y-45311904D01*
X88334580Y-45311904D02*
X88382200Y-45359523D01*
X88382200Y-45359523D02*
X88429819Y-45454761D01*
X88429819Y-45454761D02*
X88429819Y-45740475D01*
X88429819Y-45740475D02*
X88382200Y-45835713D01*
X88382200Y-45835713D02*
X88334580Y-45883332D01*
X71924667Y-88819200D02*
X72067524Y-88866819D01*
X72067524Y-88866819D02*
X72305619Y-88866819D01*
X72305619Y-88866819D02*
X72400857Y-88819200D01*
X72400857Y-88819200D02*
X72448476Y-88771580D01*
X72448476Y-88771580D02*
X72496095Y-88676342D01*
X72496095Y-88676342D02*
X72496095Y-88581104D01*
X72496095Y-88581104D02*
X72448476Y-88485866D01*
X72448476Y-88485866D02*
X72400857Y-88438247D01*
X72400857Y-88438247D02*
X72305619Y-88390628D01*
X72305619Y-88390628D02*
X72115143Y-88343009D01*
X72115143Y-88343009D02*
X72019905Y-88295390D01*
X72019905Y-88295390D02*
X71972286Y-88247771D01*
X71972286Y-88247771D02*
X71924667Y-88152533D01*
X71924667Y-88152533D02*
X71924667Y-88057295D01*
X71924667Y-88057295D02*
X71972286Y-87962057D01*
X71972286Y-87962057D02*
X72019905Y-87914438D01*
X72019905Y-87914438D02*
X72115143Y-87866819D01*
X72115143Y-87866819D02*
X72353238Y-87866819D01*
X72353238Y-87866819D02*
X72496095Y-87914438D01*
X72829429Y-87866819D02*
X73067524Y-88866819D01*
X73067524Y-88866819D02*
X73258000Y-88152533D01*
X73258000Y-88152533D02*
X73448476Y-88866819D01*
X73448476Y-88866819D02*
X73686572Y-87866819D01*
X74496095Y-88200152D02*
X74496095Y-88866819D01*
X74258000Y-87819200D02*
X74019905Y-88533485D01*
X74019905Y-88533485D02*
X74638952Y-88533485D01*
X128924667Y-88819200D02*
X129067524Y-88866819D01*
X129067524Y-88866819D02*
X129305619Y-88866819D01*
X129305619Y-88866819D02*
X129400857Y-88819200D01*
X129400857Y-88819200D02*
X129448476Y-88771580D01*
X129448476Y-88771580D02*
X129496095Y-88676342D01*
X129496095Y-88676342D02*
X129496095Y-88581104D01*
X129496095Y-88581104D02*
X129448476Y-88485866D01*
X129448476Y-88485866D02*
X129400857Y-88438247D01*
X129400857Y-88438247D02*
X129305619Y-88390628D01*
X129305619Y-88390628D02*
X129115143Y-88343009D01*
X129115143Y-88343009D02*
X129019905Y-88295390D01*
X129019905Y-88295390D02*
X128972286Y-88247771D01*
X128972286Y-88247771D02*
X128924667Y-88152533D01*
X128924667Y-88152533D02*
X128924667Y-88057295D01*
X128924667Y-88057295D02*
X128972286Y-87962057D01*
X128972286Y-87962057D02*
X129019905Y-87914438D01*
X129019905Y-87914438D02*
X129115143Y-87866819D01*
X129115143Y-87866819D02*
X129353238Y-87866819D01*
X129353238Y-87866819D02*
X129496095Y-87914438D01*
X129829429Y-87866819D02*
X130067524Y-88866819D01*
X130067524Y-88866819D02*
X130258000Y-88152533D01*
X130258000Y-88152533D02*
X130448476Y-88866819D01*
X130448476Y-88866819D02*
X130686572Y-87866819D01*
X131210381Y-88295390D02*
X131115143Y-88247771D01*
X131115143Y-88247771D02*
X131067524Y-88200152D01*
X131067524Y-88200152D02*
X131019905Y-88104914D01*
X131019905Y-88104914D02*
X131019905Y-88057295D01*
X131019905Y-88057295D02*
X131067524Y-87962057D01*
X131067524Y-87962057D02*
X131115143Y-87914438D01*
X131115143Y-87914438D02*
X131210381Y-87866819D01*
X131210381Y-87866819D02*
X131400857Y-87866819D01*
X131400857Y-87866819D02*
X131496095Y-87914438D01*
X131496095Y-87914438D02*
X131543714Y-87962057D01*
X131543714Y-87962057D02*
X131591333Y-88057295D01*
X131591333Y-88057295D02*
X131591333Y-88104914D01*
X131591333Y-88104914D02*
X131543714Y-88200152D01*
X131543714Y-88200152D02*
X131496095Y-88247771D01*
X131496095Y-88247771D02*
X131400857Y-88295390D01*
X131400857Y-88295390D02*
X131210381Y-88295390D01*
X131210381Y-88295390D02*
X131115143Y-88343009D01*
X131115143Y-88343009D02*
X131067524Y-88390628D01*
X131067524Y-88390628D02*
X131019905Y-88485866D01*
X131019905Y-88485866D02*
X131019905Y-88676342D01*
X131019905Y-88676342D02*
X131067524Y-88771580D01*
X131067524Y-88771580D02*
X131115143Y-88819200D01*
X131115143Y-88819200D02*
X131210381Y-88866819D01*
X131210381Y-88866819D02*
X131400857Y-88866819D01*
X131400857Y-88866819D02*
X131496095Y-88819200D01*
X131496095Y-88819200D02*
X131543714Y-88771580D01*
X131543714Y-88771580D02*
X131591333Y-88676342D01*
X131591333Y-88676342D02*
X131591333Y-88485866D01*
X131591333Y-88485866D02*
X131543714Y-88390628D01*
X131543714Y-88390628D02*
X131496095Y-88343009D01*
X131496095Y-88343009D02*
X131400857Y-88295390D01*
X114674667Y-60319200D02*
X114817524Y-60366819D01*
X114817524Y-60366819D02*
X115055619Y-60366819D01*
X115055619Y-60366819D02*
X115150857Y-60319200D01*
X115150857Y-60319200D02*
X115198476Y-60271580D01*
X115198476Y-60271580D02*
X115246095Y-60176342D01*
X115246095Y-60176342D02*
X115246095Y-60081104D01*
X115246095Y-60081104D02*
X115198476Y-59985866D01*
X115198476Y-59985866D02*
X115150857Y-59938247D01*
X115150857Y-59938247D02*
X115055619Y-59890628D01*
X115055619Y-59890628D02*
X114865143Y-59843009D01*
X114865143Y-59843009D02*
X114769905Y-59795390D01*
X114769905Y-59795390D02*
X114722286Y-59747771D01*
X114722286Y-59747771D02*
X114674667Y-59652533D01*
X114674667Y-59652533D02*
X114674667Y-59557295D01*
X114674667Y-59557295D02*
X114722286Y-59462057D01*
X114722286Y-59462057D02*
X114769905Y-59414438D01*
X114769905Y-59414438D02*
X114865143Y-59366819D01*
X114865143Y-59366819D02*
X115103238Y-59366819D01*
X115103238Y-59366819D02*
X115246095Y-59414438D01*
X115579429Y-59366819D02*
X115817524Y-60366819D01*
X115817524Y-60366819D02*
X116008000Y-59652533D01*
X116008000Y-59652533D02*
X116198476Y-60366819D01*
X116198476Y-60366819D02*
X116436572Y-59366819D01*
X117246095Y-59366819D02*
X117055619Y-59366819D01*
X117055619Y-59366819D02*
X116960381Y-59414438D01*
X116960381Y-59414438D02*
X116912762Y-59462057D01*
X116912762Y-59462057D02*
X116817524Y-59604914D01*
X116817524Y-59604914D02*
X116769905Y-59795390D01*
X116769905Y-59795390D02*
X116769905Y-60176342D01*
X116769905Y-60176342D02*
X116817524Y-60271580D01*
X116817524Y-60271580D02*
X116865143Y-60319200D01*
X116865143Y-60319200D02*
X116960381Y-60366819D01*
X116960381Y-60366819D02*
X117150857Y-60366819D01*
X117150857Y-60366819D02*
X117246095Y-60319200D01*
X117246095Y-60319200D02*
X117293714Y-60271580D01*
X117293714Y-60271580D02*
X117341333Y-60176342D01*
X117341333Y-60176342D02*
X117341333Y-59938247D01*
X117341333Y-59938247D02*
X117293714Y-59843009D01*
X117293714Y-59843009D02*
X117246095Y-59795390D01*
X117246095Y-59795390D02*
X117150857Y-59747771D01*
X117150857Y-59747771D02*
X116960381Y-59747771D01*
X116960381Y-59747771D02*
X116865143Y-59795390D01*
X116865143Y-59795390D02*
X116817524Y-59843009D01*
X116817524Y-59843009D02*
X116769905Y-59938247D01*
X86174667Y-31819200D02*
X86317524Y-31866819D01*
X86317524Y-31866819D02*
X86555619Y-31866819D01*
X86555619Y-31866819D02*
X86650857Y-31819200D01*
X86650857Y-31819200D02*
X86698476Y-31771580D01*
X86698476Y-31771580D02*
X86746095Y-31676342D01*
X86746095Y-31676342D02*
X86746095Y-31581104D01*
X86746095Y-31581104D02*
X86698476Y-31485866D01*
X86698476Y-31485866D02*
X86650857Y-31438247D01*
X86650857Y-31438247D02*
X86555619Y-31390628D01*
X86555619Y-31390628D02*
X86365143Y-31343009D01*
X86365143Y-31343009D02*
X86269905Y-31295390D01*
X86269905Y-31295390D02*
X86222286Y-31247771D01*
X86222286Y-31247771D02*
X86174667Y-31152533D01*
X86174667Y-31152533D02*
X86174667Y-31057295D01*
X86174667Y-31057295D02*
X86222286Y-30962057D01*
X86222286Y-30962057D02*
X86269905Y-30914438D01*
X86269905Y-30914438D02*
X86365143Y-30866819D01*
X86365143Y-30866819D02*
X86603238Y-30866819D01*
X86603238Y-30866819D02*
X86746095Y-30914438D01*
X87079429Y-30866819D02*
X87317524Y-31866819D01*
X87317524Y-31866819D02*
X87508000Y-31152533D01*
X87508000Y-31152533D02*
X87698476Y-31866819D01*
X87698476Y-31866819D02*
X87936572Y-30866819D01*
X88841333Y-31866819D02*
X88269905Y-31866819D01*
X88555619Y-31866819D02*
X88555619Y-30866819D01*
X88555619Y-30866819D02*
X88460381Y-31009676D01*
X88460381Y-31009676D02*
X88365143Y-31104914D01*
X88365143Y-31104914D02*
X88269905Y-31152533D01*
X114674667Y-31819200D02*
X114817524Y-31866819D01*
X114817524Y-31866819D02*
X115055619Y-31866819D01*
X115055619Y-31866819D02*
X115150857Y-31819200D01*
X115150857Y-31819200D02*
X115198476Y-31771580D01*
X115198476Y-31771580D02*
X115246095Y-31676342D01*
X115246095Y-31676342D02*
X115246095Y-31581104D01*
X115246095Y-31581104D02*
X115198476Y-31485866D01*
X115198476Y-31485866D02*
X115150857Y-31438247D01*
X115150857Y-31438247D02*
X115055619Y-31390628D01*
X115055619Y-31390628D02*
X114865143Y-31343009D01*
X114865143Y-31343009D02*
X114769905Y-31295390D01*
X114769905Y-31295390D02*
X114722286Y-31247771D01*
X114722286Y-31247771D02*
X114674667Y-31152533D01*
X114674667Y-31152533D02*
X114674667Y-31057295D01*
X114674667Y-31057295D02*
X114722286Y-30962057D01*
X114722286Y-30962057D02*
X114769905Y-30914438D01*
X114769905Y-30914438D02*
X114865143Y-30866819D01*
X114865143Y-30866819D02*
X115103238Y-30866819D01*
X115103238Y-30866819D02*
X115246095Y-30914438D01*
X115579429Y-30866819D02*
X115817524Y-31866819D01*
X115817524Y-31866819D02*
X116008000Y-31152533D01*
X116008000Y-31152533D02*
X116198476Y-31866819D01*
X116198476Y-31866819D02*
X116436572Y-30866819D01*
X117293714Y-30866819D02*
X116817524Y-30866819D01*
X116817524Y-30866819D02*
X116769905Y-31343009D01*
X116769905Y-31343009D02*
X116817524Y-31295390D01*
X116817524Y-31295390D02*
X116912762Y-31247771D01*
X116912762Y-31247771D02*
X117150857Y-31247771D01*
X117150857Y-31247771D02*
X117246095Y-31295390D01*
X117246095Y-31295390D02*
X117293714Y-31343009D01*
X117293714Y-31343009D02*
X117341333Y-31438247D01*
X117341333Y-31438247D02*
X117341333Y-31676342D01*
X117341333Y-31676342D02*
X117293714Y-31771580D01*
X117293714Y-31771580D02*
X117246095Y-31819200D01*
X117246095Y-31819200D02*
X117150857Y-31866819D01*
X117150857Y-31866819D02*
X116912762Y-31866819D01*
X116912762Y-31866819D02*
X116817524Y-31819200D01*
X116817524Y-31819200D02*
X116769905Y-31771580D01*
X143174667Y-60319200D02*
X143317524Y-60366819D01*
X143317524Y-60366819D02*
X143555619Y-60366819D01*
X143555619Y-60366819D02*
X143650857Y-60319200D01*
X143650857Y-60319200D02*
X143698476Y-60271580D01*
X143698476Y-60271580D02*
X143746095Y-60176342D01*
X143746095Y-60176342D02*
X143746095Y-60081104D01*
X143746095Y-60081104D02*
X143698476Y-59985866D01*
X143698476Y-59985866D02*
X143650857Y-59938247D01*
X143650857Y-59938247D02*
X143555619Y-59890628D01*
X143555619Y-59890628D02*
X143365143Y-59843009D01*
X143365143Y-59843009D02*
X143269905Y-59795390D01*
X143269905Y-59795390D02*
X143222286Y-59747771D01*
X143222286Y-59747771D02*
X143174667Y-59652533D01*
X143174667Y-59652533D02*
X143174667Y-59557295D01*
X143174667Y-59557295D02*
X143222286Y-59462057D01*
X143222286Y-59462057D02*
X143269905Y-59414438D01*
X143269905Y-59414438D02*
X143365143Y-59366819D01*
X143365143Y-59366819D02*
X143603238Y-59366819D01*
X143603238Y-59366819D02*
X143746095Y-59414438D01*
X144079429Y-59366819D02*
X144317524Y-60366819D01*
X144317524Y-60366819D02*
X144508000Y-59652533D01*
X144508000Y-59652533D02*
X144698476Y-60366819D01*
X144698476Y-60366819D02*
X144936572Y-59366819D01*
X145222286Y-59366819D02*
X145888952Y-59366819D01*
X145888952Y-59366819D02*
X145460381Y-60366819D01*
X86174667Y-60319200D02*
X86317524Y-60366819D01*
X86317524Y-60366819D02*
X86555619Y-60366819D01*
X86555619Y-60366819D02*
X86650857Y-60319200D01*
X86650857Y-60319200D02*
X86698476Y-60271580D01*
X86698476Y-60271580D02*
X86746095Y-60176342D01*
X86746095Y-60176342D02*
X86746095Y-60081104D01*
X86746095Y-60081104D02*
X86698476Y-59985866D01*
X86698476Y-59985866D02*
X86650857Y-59938247D01*
X86650857Y-59938247D02*
X86555619Y-59890628D01*
X86555619Y-59890628D02*
X86365143Y-59843009D01*
X86365143Y-59843009D02*
X86269905Y-59795390D01*
X86269905Y-59795390D02*
X86222286Y-59747771D01*
X86222286Y-59747771D02*
X86174667Y-59652533D01*
X86174667Y-59652533D02*
X86174667Y-59557295D01*
X86174667Y-59557295D02*
X86222286Y-59462057D01*
X86222286Y-59462057D02*
X86269905Y-59414438D01*
X86269905Y-59414438D02*
X86365143Y-59366819D01*
X86365143Y-59366819D02*
X86603238Y-59366819D01*
X86603238Y-59366819D02*
X86746095Y-59414438D01*
X87079429Y-59366819D02*
X87317524Y-60366819D01*
X87317524Y-60366819D02*
X87508000Y-59652533D01*
X87508000Y-59652533D02*
X87698476Y-60366819D01*
X87698476Y-60366819D02*
X87936572Y-59366819D01*
X88269905Y-59462057D02*
X88317524Y-59414438D01*
X88317524Y-59414438D02*
X88412762Y-59366819D01*
X88412762Y-59366819D02*
X88650857Y-59366819D01*
X88650857Y-59366819D02*
X88746095Y-59414438D01*
X88746095Y-59414438D02*
X88793714Y-59462057D01*
X88793714Y-59462057D02*
X88841333Y-59557295D01*
X88841333Y-59557295D02*
X88841333Y-59652533D01*
X88841333Y-59652533D02*
X88793714Y-59795390D01*
X88793714Y-59795390D02*
X88222286Y-60366819D01*
X88222286Y-60366819D02*
X88841333Y-60366819D01*
X57674667Y-60319200D02*
X57817524Y-60366819D01*
X57817524Y-60366819D02*
X58055619Y-60366819D01*
X58055619Y-60366819D02*
X58150857Y-60319200D01*
X58150857Y-60319200D02*
X58198476Y-60271580D01*
X58198476Y-60271580D02*
X58246095Y-60176342D01*
X58246095Y-60176342D02*
X58246095Y-60081104D01*
X58246095Y-60081104D02*
X58198476Y-59985866D01*
X58198476Y-59985866D02*
X58150857Y-59938247D01*
X58150857Y-59938247D02*
X58055619Y-59890628D01*
X58055619Y-59890628D02*
X57865143Y-59843009D01*
X57865143Y-59843009D02*
X57769905Y-59795390D01*
X57769905Y-59795390D02*
X57722286Y-59747771D01*
X57722286Y-59747771D02*
X57674667Y-59652533D01*
X57674667Y-59652533D02*
X57674667Y-59557295D01*
X57674667Y-59557295D02*
X57722286Y-59462057D01*
X57722286Y-59462057D02*
X57769905Y-59414438D01*
X57769905Y-59414438D02*
X57865143Y-59366819D01*
X57865143Y-59366819D02*
X58103238Y-59366819D01*
X58103238Y-59366819D02*
X58246095Y-59414438D01*
X58579429Y-59366819D02*
X58817524Y-60366819D01*
X58817524Y-60366819D02*
X59008000Y-59652533D01*
X59008000Y-59652533D02*
X59198476Y-60366819D01*
X59198476Y-60366819D02*
X59436572Y-59366819D01*
X59722286Y-59366819D02*
X60341333Y-59366819D01*
X60341333Y-59366819D02*
X60008000Y-59747771D01*
X60008000Y-59747771D02*
X60150857Y-59747771D01*
X60150857Y-59747771D02*
X60246095Y-59795390D01*
X60246095Y-59795390D02*
X60293714Y-59843009D01*
X60293714Y-59843009D02*
X60341333Y-59938247D01*
X60341333Y-59938247D02*
X60341333Y-60176342D01*
X60341333Y-60176342D02*
X60293714Y-60271580D01*
X60293714Y-60271580D02*
X60246095Y-60319200D01*
X60246095Y-60319200D02*
X60150857Y-60366819D01*
X60150857Y-60366819D02*
X59865143Y-60366819D01*
X59865143Y-60366819D02*
X59769905Y-60319200D01*
X59769905Y-60319200D02*
X59722286Y-60271580D01*
D11*
X110125000Y-43690000D02*
X110125000Y-47700000D01*
X112125000Y-43690000D02*
X112125000Y-47700000D01*
X112125000Y-43690000D02*
X110125000Y-43690000D01*
X88325000Y-43690000D02*
X88325000Y-47700000D01*
X90325000Y-43690000D02*
X90325000Y-47700000D01*
X90325000Y-43690000D02*
X88325000Y-43690000D01*
X91675000Y-43690000D02*
X91675000Y-47700000D01*
X93675000Y-43690000D02*
X93675000Y-47700000D01*
X93675000Y-43690000D02*
X91675000Y-43690000D01*
X81625000Y-43690000D02*
X81625000Y-47700000D01*
X83625000Y-43690000D02*
X83625000Y-47700000D01*
X83625000Y-43690000D02*
X81625000Y-43690000D01*
X120175000Y-43690000D02*
X120175000Y-47700000D01*
X122175000Y-43690000D02*
X122175000Y-47700000D01*
X122175000Y-43690000D02*
X120175000Y-43690000D01*
X113475000Y-43690000D02*
X113475000Y-47700000D01*
X115475000Y-43690000D02*
X115475000Y-47700000D01*
X115475000Y-43690000D02*
X113475000Y-43690000D01*
X116825000Y-43690000D02*
X116825000Y-47700000D01*
X118825000Y-43690000D02*
X118825000Y-47700000D01*
X118825000Y-43690000D02*
X116825000Y-43690000D01*
X84975000Y-43690000D02*
X84975000Y-47700000D01*
X86975000Y-43690000D02*
X86975000Y-47700000D01*
X86975000Y-43690000D02*
X84975000Y-43690000D01*
%LPC*%
D12*
X111125000Y-47700000D03*
X111125000Y-44400000D03*
X89325000Y-47700000D03*
X89325000Y-44400000D03*
X92675000Y-47700000D03*
X92675000Y-44400000D03*
D13*
X152290000Y-94690000D03*
D12*
X82625000Y-47700000D03*
X82625000Y-44400000D03*
X121175000Y-47700000D03*
X121175000Y-44400000D03*
X114475000Y-47700000D03*
X114475000Y-44400000D03*
X117825000Y-47700000D03*
X117825000Y-44400000D03*
X85975000Y-47700000D03*
X85975000Y-44400000D03*
D13*
X53100000Y-94300000D03*
D14*
X78700000Y-88800000D03*
D15*
X78620000Y-85184200D03*
D16*
X77210000Y-91340000D03*
X73400000Y-94700000D03*
D17*
X73400000Y-88800000D03*
D16*
X70860000Y-93880000D03*
X68400000Y-92600000D03*
D15*
X68180000Y-85184200D03*
D14*
X68100000Y-88800000D03*
X135700000Y-88800000D03*
D15*
X135620000Y-85184200D03*
D16*
X134210000Y-91340000D03*
X130400000Y-94700000D03*
D17*
X130400000Y-88800000D03*
D16*
X127860000Y-93880000D03*
X125400000Y-92600000D03*
D15*
X125180000Y-85184200D03*
D14*
X125100000Y-88800000D03*
X121450000Y-60300000D03*
D15*
X121370000Y-56684200D03*
D16*
X119960000Y-62840000D03*
X116150000Y-66200000D03*
D17*
X116150000Y-60300000D03*
D16*
X113610000Y-65380000D03*
X111150000Y-64100000D03*
D15*
X110930000Y-56684200D03*
D14*
X110850000Y-60300000D03*
X92950000Y-31800000D03*
D15*
X92870000Y-28184200D03*
D16*
X91460000Y-34340000D03*
X87650000Y-37700000D03*
D17*
X87650000Y-31800000D03*
D16*
X85110000Y-36880000D03*
X82650000Y-35600000D03*
D15*
X82430000Y-28184200D03*
D14*
X82350000Y-31800000D03*
X110850000Y-31800000D03*
D15*
X110930000Y-28184200D03*
D16*
X111150000Y-35600000D03*
X113610000Y-36880000D03*
D17*
X116150000Y-31800000D03*
D16*
X116150000Y-37700000D03*
X119960000Y-34340000D03*
D15*
X121370000Y-28184200D03*
D14*
X121450000Y-31800000D03*
X149950000Y-60300000D03*
D15*
X149870000Y-56684200D03*
D16*
X148460000Y-62840000D03*
X144650000Y-66200000D03*
D17*
X144650000Y-60300000D03*
D16*
X142110000Y-65380000D03*
X139650000Y-64100000D03*
D15*
X139430000Y-56684200D03*
D14*
X139350000Y-60300000D03*
X92950000Y-60300000D03*
D15*
X92870000Y-56684200D03*
D16*
X91460000Y-62840000D03*
X87650000Y-66200000D03*
D17*
X87650000Y-60300000D03*
D16*
X85110000Y-65380000D03*
X82650000Y-64100000D03*
D15*
X82430000Y-56684200D03*
D14*
X82350000Y-60300000D03*
X64450000Y-60300000D03*
D15*
X64370000Y-56684200D03*
D16*
X62960000Y-62840000D03*
X59150000Y-66200000D03*
D17*
X59150000Y-60300000D03*
D16*
X56610000Y-65380000D03*
X54150000Y-64100000D03*
D15*
X53930000Y-56684200D03*
D14*
X53850000Y-60300000D03*
%LPD*%
M02*
