G04 #@! TF.GenerationSoftware,KiCad,Pcbnew,8.0.1-8.0.1-1~ubuntu22.04.1*
G04 #@! TF.CreationDate,2024-05-03T20:10:14-07:00*
G04 #@! TF.ProjectId,Seismos_4-Rhythm,53656973-6d6f-4735-9f34-2d5268797468,rev?*
G04 #@! TF.SameCoordinates,Original*
G04 #@! TF.FileFunction,Soldermask,Top*
G04 #@! TF.FilePolarity,Negative*
%FSLAX46Y46*%
G04 Gerber Fmt 4.6, Leading zero omitted, Abs format (unit mm)*
G04 Created by KiCad (PCBNEW 8.0.1-8.0.1-1~ubuntu22.04.1) date 2024-05-03 20:10:14*
%MOMM*%
%LPD*%
G01*
G04 APERTURE LIST*
G04 Aperture macros list*
%AMRoundRect*
0 Rectangle with rounded corners*
0 $1 Rounding radius*
0 $2 $3 $4 $5 $6 $7 $8 $9 X,Y pos of 4 corners*
0 Add a 4 corners polygon primitive as box body*
4,1,4,$2,$3,$4,$5,$6,$7,$8,$9,$2,$3,0*
0 Add four circle primitives for the rounded corners*
1,1,$1+$1,$2,$3*
1,1,$1+$1,$4,$5*
1,1,$1+$1,$6,$7*
1,1,$1+$1,$8,$9*
0 Add four rect primitives between the rounded corners*
20,1,$1+$1,$2,$3,$4,$5,0*
20,1,$1+$1,$4,$5,$6,$7,0*
20,1,$1+$1,$6,$7,$8,$9,0*
20,1,$1+$1,$8,$9,$2,$3,0*%
G04 Aperture macros list end*
%ADD10RoundRect,0.225000X-0.375000X0.225000X-0.375000X-0.225000X0.375000X-0.225000X0.375000X0.225000X0*%
%ADD11C,3.200000*%
%ADD12C,2.300000*%
%ADD13C,1.000000*%
%ADD14C,3.000000*%
%ADD15C,4.000000*%
G04 APERTURE END LIST*
D10*
X111125000Y-47700000D03*
X111125000Y-44400000D03*
X89325000Y-47700000D03*
X89325000Y-44400000D03*
X92675000Y-47700000D03*
X92675000Y-44400000D03*
D11*
X152290000Y-94690000D03*
D10*
X82625000Y-47700000D03*
X82625000Y-44400000D03*
X121175000Y-47700000D03*
X121175000Y-44400000D03*
X114475000Y-47700000D03*
X114475000Y-44400000D03*
X117825000Y-47700000D03*
X117825000Y-44400000D03*
X85975000Y-47700000D03*
X85975000Y-44400000D03*
D11*
X53100000Y-94300000D03*
D12*
X78700000Y-88800000D03*
D13*
X78620000Y-85184200D03*
D14*
X77210000Y-91340000D03*
X73400000Y-94700000D03*
D15*
X73400000Y-88800000D03*
D14*
X70860000Y-93880000D03*
X68400000Y-92600000D03*
D13*
X68180000Y-85184200D03*
D12*
X68100000Y-88800000D03*
X135700000Y-88800000D03*
D13*
X135620000Y-85184200D03*
D14*
X134210000Y-91340000D03*
X130400000Y-94700000D03*
D15*
X130400000Y-88800000D03*
D14*
X127860000Y-93880000D03*
X125400000Y-92600000D03*
D13*
X125180000Y-85184200D03*
D12*
X125100000Y-88800000D03*
X121450000Y-60300000D03*
D13*
X121370000Y-56684200D03*
D14*
X119960000Y-62840000D03*
X116150000Y-66200000D03*
D15*
X116150000Y-60300000D03*
D14*
X113610000Y-65380000D03*
X111150000Y-64100000D03*
D13*
X110930000Y-56684200D03*
D12*
X110850000Y-60300000D03*
X92950000Y-31800000D03*
D13*
X92870000Y-28184200D03*
D14*
X91460000Y-34340000D03*
X87650000Y-37700000D03*
D15*
X87650000Y-31800000D03*
D14*
X85110000Y-36880000D03*
X82650000Y-35600000D03*
D13*
X82430000Y-28184200D03*
D12*
X82350000Y-31800000D03*
X110850000Y-31800000D03*
D13*
X110930000Y-28184200D03*
D14*
X111150000Y-35600000D03*
X113610000Y-36880000D03*
D15*
X116150000Y-31800000D03*
D14*
X116150000Y-37700000D03*
X119960000Y-34340000D03*
D13*
X121370000Y-28184200D03*
D12*
X121450000Y-31800000D03*
X149950000Y-60300000D03*
D13*
X149870000Y-56684200D03*
D14*
X148460000Y-62840000D03*
X144650000Y-66200000D03*
D15*
X144650000Y-60300000D03*
D14*
X142110000Y-65380000D03*
X139650000Y-64100000D03*
D13*
X139430000Y-56684200D03*
D12*
X139350000Y-60300000D03*
X92950000Y-60300000D03*
D13*
X92870000Y-56684200D03*
D14*
X91460000Y-62840000D03*
X87650000Y-66200000D03*
D15*
X87650000Y-60300000D03*
D14*
X85110000Y-65380000D03*
X82650000Y-64100000D03*
D13*
X82430000Y-56684200D03*
D12*
X82350000Y-60300000D03*
X64450000Y-60300000D03*
D13*
X64370000Y-56684200D03*
D14*
X62960000Y-62840000D03*
X59150000Y-66200000D03*
D15*
X59150000Y-60300000D03*
D14*
X56610000Y-65380000D03*
X54150000Y-64100000D03*
D13*
X53930000Y-56684200D03*
D12*
X53850000Y-60300000D03*
M02*
