G04 #@! TF.GenerationSoftware,KiCad,Pcbnew,8.0.1-8.0.1-1~ubuntu22.04.1*
G04 #@! TF.CreationDate,2024-05-03T20:10:14-07:00*
G04 #@! TF.ProjectId,Seismos_4-Rhythm,53656973-6d6f-4735-9f34-2d5268797468,rev?*
G04 #@! TF.SameCoordinates,Original*
G04 #@! TF.FileFunction,Paste,Bot*
G04 #@! TF.FilePolarity,Positive*
%FSLAX46Y46*%
G04 Gerber Fmt 4.6, Leading zero omitted, Abs format (unit mm)*
G04 Created by KiCad (PCBNEW 8.0.1-8.0.1-1~ubuntu22.04.1) date 2024-05-03 20:10:14*
%MOMM*%
%LPD*%
G01*
G04 APERTURE LIST*
%ADD10R,1.700000X0.600000*%
%ADD11R,1.800000X1.200000*%
%ADD12R,1.750000X0.812800*%
%ADD13R,2.300000X2.600000*%
%ADD14R,3.500000X3.500000*%
%ADD15R,2.400000X2.600000*%
G04 APERTURE END LIST*
D10*
X142518500Y-27300000D03*
X142518500Y-28300000D03*
X142519500Y-29300000D03*
X142519500Y-30300000D03*
X142519500Y-31300000D03*
X142519500Y-32300000D03*
X142519500Y-33300000D03*
X142519500Y-34300000D03*
X142519500Y-35300000D03*
X142519500Y-36300000D03*
D11*
X146394500Y-26000000D03*
X146394500Y-37600000D03*
D12*
X70748100Y-83554900D03*
D13*
X65060000Y-92600000D03*
X76960000Y-94700000D03*
D12*
X75778000Y-83554900D03*
X70748100Y-85053500D03*
X75778000Y-85053500D03*
D14*
X67310000Y-94315000D03*
D15*
X80260000Y-91340000D03*
D12*
X127748100Y-83554900D03*
D13*
X122060000Y-92600000D03*
X133960000Y-94700000D03*
D12*
X132778000Y-83554900D03*
X127748100Y-85053500D03*
X132778000Y-85053500D03*
D14*
X124310000Y-94315000D03*
D15*
X137260000Y-91340000D03*
D12*
X113498100Y-55054900D03*
D13*
X107810000Y-64100000D03*
X119710000Y-66200000D03*
D12*
X118528000Y-55054900D03*
X113498100Y-56553500D03*
X118528000Y-56553500D03*
D14*
X110060000Y-65815000D03*
D15*
X123010000Y-62840000D03*
D12*
X84998100Y-26554900D03*
D13*
X79310000Y-35600000D03*
X91210000Y-37700000D03*
D12*
X90028000Y-26554900D03*
X84998100Y-28053500D03*
X90028000Y-28053500D03*
D14*
X81560000Y-37315000D03*
D15*
X94510000Y-34340000D03*
X123010000Y-34340000D03*
D14*
X110060000Y-37315000D03*
D12*
X118528000Y-28053500D03*
X113498100Y-28053500D03*
X118528000Y-26554900D03*
D13*
X119710000Y-37700000D03*
X107810000Y-35600000D03*
D12*
X113498100Y-26554900D03*
X141998100Y-55054900D03*
D13*
X136310000Y-64100000D03*
X148210000Y-66200000D03*
D12*
X147028000Y-55054900D03*
X141998100Y-56553500D03*
X147028000Y-56553500D03*
D14*
X138560000Y-65815000D03*
D15*
X151510000Y-62840000D03*
D10*
X61281500Y-36300000D03*
X61281500Y-35300000D03*
X61280500Y-34300000D03*
X61280500Y-33300000D03*
X61280500Y-32300000D03*
X61280500Y-31300000D03*
X61280500Y-30300000D03*
X61280500Y-29300000D03*
X61280500Y-28300000D03*
X61280500Y-27300000D03*
D11*
X57405500Y-37600000D03*
X57405500Y-26000000D03*
D12*
X84998100Y-55054900D03*
D13*
X79310000Y-64100000D03*
X91210000Y-66200000D03*
D12*
X90028000Y-55054900D03*
X84998100Y-56553500D03*
X90028000Y-56553500D03*
D14*
X81560000Y-65815000D03*
D15*
X94510000Y-62840000D03*
D12*
X56498100Y-55054900D03*
D13*
X50810000Y-64100000D03*
X62710000Y-66200000D03*
D12*
X61528000Y-55054900D03*
X56498100Y-56553500D03*
X61528000Y-56553500D03*
D14*
X53060000Y-65815000D03*
D15*
X66010000Y-62840000D03*
M02*
