M48
; DRILL file {KiCad 8.0.1-8.0.1-1~ubuntu22.04.1} date 2024-05-03T20:10:16-0700
; FORMAT={-:-/ absolute / inch / decimal}
; #@! TF.CreationDate,2024-05-03T20:10:16-07:00
; #@! TF.GenerationSoftware,Kicad,Pcbnew,8.0.1-8.0.1-1~ubuntu22.04.1
; #@! TF.FileFunction,Plated,1,2,PTH
FMAT,2
INCH
; #@! TA.AperFunction,Plated,PTH,ViaDrill
T1C0.0118
; #@! TA.AperFunction,Plated,PTH,ViaDrill
T2C0.0157
%
G90
G05
T1
X2.2559Y-1.3543
X2.3071Y-1.1142
X2.3071Y-1.1535
X2.3091Y-1.1929
X2.3091Y-1.2323
X2.5846Y-1.3504
X2.689Y-2.3858
X3.6752Y-1.687
X4.8701Y-1.2283
X5.6929Y-1.2717
X5.6929Y-1.311
X5.6929Y-1.3504
X5.6929Y-1.3898
X5.7224Y-1.1535
T2
X2.061Y-2.3071
X2.3406Y-1.4291
X2.4327Y-2.0311
X2.5614Y-3.3421
X2.5945Y-2.3071
X2.6929Y-2.0641
X2.7165Y-3.0571
X2.7992Y-2.3051
X2.8228Y-2.0698
X2.8642Y-2.3031
X3.122Y-2.4075
X3.2047Y-2.187
X3.2972Y-1.1732
X3.378Y-1.5512
X3.6476Y-1.8091
X4.0177Y-3.0384
X4.374Y-1.811
X4.5059Y-1.9291
X4.6161Y-2.4882
X4.6693Y-2.2736
X4.8051Y-3.5295
X4.8327Y-2.5886
X4.8602Y-2.0295
X4.9263Y-2.0492
X5.0295Y-3.3957
X5.1358Y-2.4823
X5.4557Y-2.1683
X5.6909Y-1.1969
X5.7087Y-1.0728
X5.7772Y-1.1168
M30
