M48
; DRILL file {KiCad 7.0.8} date Tue 05 Dec 2023 05:14:51 AM PST
; FORMAT={-:-/ absolute / metric / decimal}
; #@! TF.CreationDate,2023-12-05T05:14:51-08:00
; #@! TF.GenerationSoftware,Kicad,Pcbnew,7.0.8
; #@! TF.FileFunction,Plated,1,2,PTH
FMAT,2
METRIC
; #@! TA.AperFunction,Plated,PTH,ViaDrill
T1C0.300
; #@! TA.AperFunction,Plated,PTH,ViaDrill
T2C0.400
%
G90
G05
T1
X39.5Y-53.05
X53.0Y-28.15
X53.15Y-32.76
X53.9Y-34.25
X54.0Y-31.7
X54.6Y-47.5
X69.6Y-50.0
T2
X39.5Y-55.9
X44.3Y-53.6
X47.0Y-34.227
X50.7Y-39.0
X50.7Y-50.5
X52.112Y-33.51
X55.15Y-26.4
X57.8Y-49.1
X60.0Y-32.3
X61.6Y-53.0
X63.4Y-38.9
X70.0Y-55.6
X73.0Y-35.8
T0
M30
