%TF.GenerationSoftware,KiCad,Pcbnew,7.0.8*%
%TF.CreationDate,2023-12-05T05:14:52-08:00*%
%TF.ProjectId,Seismos_4-Thumb,53656973-6d6f-4735-9f34-2d5468756d62,rev?*%
%TF.SameCoordinates,Original*%
%TF.FileFunction,Drillmap*%
%TF.FilePolarity,Positive*%
%FSLAX45Y45*%
G04 Gerber Fmt 4.5, Leading zero omitted, Abs format (unit mm)*
G04 Created by KiCad (PCBNEW 7.0.8) date 2023-12-05 05:14:52*
%MOMM*%
%LPD*%
G01*
G04 APERTURE LIST*
%ADD10C,0.100000*%
%ADD11C,0.200000*%
%ADD12C,0.030000*%
%ADD13C,0.040000*%
G04 APERTURE END LIST*
D10*
X3750000Y-7193934D02*
X3750000Y-3100000D01*
X7400000Y-7343934D02*
X3900000Y-7343934D01*
X3750006Y-7193934D02*
G75*
G03*
X3900000Y-7343934I149994J-6D01*
G01*
X4980000Y-2500000D02*
X4980000Y-3100000D01*
X4700000Y-3100000D02*
X4980000Y-3100000D01*
X6600000Y-3100000D02*
X6320000Y-3100000D01*
X4700000Y-3100000D02*
X3750000Y-3100000D01*
X6600000Y-3100000D02*
X7550000Y-3100000D01*
X7400000Y-7343940D02*
G75*
G03*
X7550000Y-7193934I-10J150010D01*
G01*
X7550000Y-3100000D02*
X7550000Y-7193934D01*
X6320000Y-3100000D02*
X6320000Y-2500000D01*
X4980000Y-2500000D02*
X6320000Y-2500000D01*
D11*
D12*
X3935000Y-5290000D02*
X3965000Y-5320000D01*
X3965000Y-5290000D02*
X3935000Y-5320000D01*
X5285000Y-2800000D02*
X5315000Y-2830000D01*
X5315000Y-2800000D02*
X5285000Y-2830000D01*
X5300000Y-3261037D02*
X5330000Y-3291037D01*
X5330000Y-3261037D02*
X5300000Y-3291037D01*
X5375000Y-3410000D02*
X5405000Y-3440000D01*
X5405000Y-3410000D02*
X5375000Y-3440000D01*
X5385000Y-3155000D02*
X5415000Y-3185000D01*
X5415000Y-3155000D02*
X5385000Y-3185000D01*
X5445000Y-4735000D02*
X5475000Y-4765000D01*
X5475000Y-4735000D02*
X5445000Y-4765000D01*
X6945000Y-4985000D02*
X6975000Y-5015000D01*
X6975000Y-4985000D02*
X6945000Y-5015000D01*
D13*
X3970000Y-5590000D02*
G75*
G03*
X3970000Y-5590000I-20000J0D01*
G01*
X4450000Y-5360000D02*
G75*
G03*
X4450000Y-5360000I-20000J0D01*
G01*
X4720000Y-3422650D02*
G75*
G03*
X4720000Y-3422650I-20000J0D01*
G01*
X5090000Y-3900000D02*
G75*
G03*
X5090000Y-3900000I-20000J0D01*
G01*
X5090000Y-5050000D02*
G75*
G03*
X5090000Y-5050000I-20000J0D01*
G01*
X5231181Y-3351000D02*
G75*
G03*
X5231181Y-3351000I-20000J0D01*
G01*
X5535000Y-2640000D02*
G75*
G03*
X5535000Y-2640000I-20000J0D01*
G01*
X5800000Y-4910000D02*
G75*
G03*
X5800000Y-4910000I-20000J0D01*
G01*
X6020000Y-3230000D02*
G75*
G03*
X6020000Y-3230000I-20000J0D01*
G01*
X6180000Y-5300000D02*
G75*
G03*
X6180000Y-5300000I-20000J0D01*
G01*
X6360000Y-3890000D02*
G75*
G03*
X6360000Y-3890000I-20000J0D01*
G01*
X7020000Y-5560000D02*
G75*
G03*
X7020000Y-5560000I-20000J0D01*
G01*
X7320000Y-3580000D02*
G75*
G03*
X7320000Y-3580000I-20000J0D01*
G01*
D11*
X4005777Y-7660418D02*
X4005777Y-7460418D01*
X4005777Y-7460418D02*
X4053396Y-7460418D01*
X4053396Y-7460418D02*
X4081967Y-7469942D01*
X4081967Y-7469942D02*
X4101015Y-7488989D01*
X4101015Y-7488989D02*
X4110539Y-7508037D01*
X4110539Y-7508037D02*
X4120062Y-7546132D01*
X4120062Y-7546132D02*
X4120062Y-7574703D01*
X4120062Y-7574703D02*
X4110539Y-7612799D01*
X4110539Y-7612799D02*
X4101015Y-7631846D01*
X4101015Y-7631846D02*
X4081967Y-7650894D01*
X4081967Y-7650894D02*
X4053396Y-7660418D01*
X4053396Y-7660418D02*
X4005777Y-7660418D01*
X4205777Y-7660418D02*
X4205777Y-7527084D01*
X4205777Y-7565180D02*
X4215301Y-7546132D01*
X4215301Y-7546132D02*
X4224824Y-7536608D01*
X4224824Y-7536608D02*
X4243872Y-7527084D01*
X4243872Y-7527084D02*
X4262920Y-7527084D01*
X4329586Y-7660418D02*
X4329586Y-7527084D01*
X4329586Y-7460418D02*
X4320063Y-7469942D01*
X4320063Y-7469942D02*
X4329586Y-7479465D01*
X4329586Y-7479465D02*
X4339110Y-7469942D01*
X4339110Y-7469942D02*
X4329586Y-7460418D01*
X4329586Y-7460418D02*
X4329586Y-7479465D01*
X4453396Y-7660418D02*
X4434348Y-7650894D01*
X4434348Y-7650894D02*
X4424824Y-7631846D01*
X4424824Y-7631846D02*
X4424824Y-7460418D01*
X4558158Y-7660418D02*
X4539110Y-7650894D01*
X4539110Y-7650894D02*
X4529586Y-7631846D01*
X4529586Y-7631846D02*
X4529586Y-7460418D01*
X4786729Y-7660418D02*
X4786729Y-7460418D01*
X4786729Y-7460418D02*
X4853396Y-7603275D01*
X4853396Y-7603275D02*
X4920063Y-7460418D01*
X4920063Y-7460418D02*
X4920063Y-7660418D01*
X5101015Y-7660418D02*
X5101015Y-7555656D01*
X5101015Y-7555656D02*
X5091491Y-7536608D01*
X5091491Y-7536608D02*
X5072444Y-7527084D01*
X5072444Y-7527084D02*
X5034348Y-7527084D01*
X5034348Y-7527084D02*
X5015301Y-7536608D01*
X5101015Y-7650894D02*
X5081967Y-7660418D01*
X5081967Y-7660418D02*
X5034348Y-7660418D01*
X5034348Y-7660418D02*
X5015301Y-7650894D01*
X5015301Y-7650894D02*
X5005777Y-7631846D01*
X5005777Y-7631846D02*
X5005777Y-7612799D01*
X5005777Y-7612799D02*
X5015301Y-7593751D01*
X5015301Y-7593751D02*
X5034348Y-7584227D01*
X5034348Y-7584227D02*
X5081967Y-7584227D01*
X5081967Y-7584227D02*
X5101015Y-7574703D01*
X5196253Y-7527084D02*
X5196253Y-7727084D01*
X5196253Y-7536608D02*
X5215301Y-7527084D01*
X5215301Y-7527084D02*
X5253396Y-7527084D01*
X5253396Y-7527084D02*
X5272444Y-7536608D01*
X5272444Y-7536608D02*
X5281967Y-7546132D01*
X5281967Y-7546132D02*
X5291491Y-7565180D01*
X5291491Y-7565180D02*
X5291491Y-7622322D01*
X5291491Y-7622322D02*
X5281967Y-7641370D01*
X5281967Y-7641370D02*
X5272444Y-7650894D01*
X5272444Y-7650894D02*
X5253396Y-7660418D01*
X5253396Y-7660418D02*
X5215301Y-7660418D01*
X5215301Y-7660418D02*
X5196253Y-7650894D01*
X5377205Y-7641370D02*
X5386729Y-7650894D01*
X5386729Y-7650894D02*
X5377205Y-7660418D01*
X5377205Y-7660418D02*
X5367682Y-7650894D01*
X5367682Y-7650894D02*
X5377205Y-7641370D01*
X5377205Y-7641370D02*
X5377205Y-7660418D01*
X5377205Y-7536608D02*
X5386729Y-7546132D01*
X5386729Y-7546132D02*
X5377205Y-7555656D01*
X5377205Y-7555656D02*
X5367682Y-7546132D01*
X5367682Y-7546132D02*
X5377205Y-7536608D01*
X5377205Y-7536608D02*
X5377205Y-7555656D01*
D12*
X3715000Y-7973934D02*
X3745000Y-8003934D01*
X3745000Y-7973934D02*
X3715000Y-8003934D01*
D11*
X4043872Y-7880418D02*
X4062920Y-7880418D01*
X4062920Y-7880418D02*
X4081967Y-7889942D01*
X4081967Y-7889942D02*
X4091491Y-7899465D01*
X4091491Y-7899465D02*
X4101015Y-7918513D01*
X4101015Y-7918513D02*
X4110539Y-7956608D01*
X4110539Y-7956608D02*
X4110539Y-8004227D01*
X4110539Y-8004227D02*
X4101015Y-8042322D01*
X4101015Y-8042322D02*
X4091491Y-8061370D01*
X4091491Y-8061370D02*
X4081967Y-8070894D01*
X4081967Y-8070894D02*
X4062920Y-8080418D01*
X4062920Y-8080418D02*
X4043872Y-8080418D01*
X4043872Y-8080418D02*
X4024824Y-8070894D01*
X4024824Y-8070894D02*
X4015301Y-8061370D01*
X4015301Y-8061370D02*
X4005777Y-8042322D01*
X4005777Y-8042322D02*
X3996253Y-8004227D01*
X3996253Y-8004227D02*
X3996253Y-7956608D01*
X3996253Y-7956608D02*
X4005777Y-7918513D01*
X4005777Y-7918513D02*
X4015301Y-7899465D01*
X4015301Y-7899465D02*
X4024824Y-7889942D01*
X4024824Y-7889942D02*
X4043872Y-7880418D01*
X4196253Y-8061370D02*
X4205777Y-8070894D01*
X4205777Y-8070894D02*
X4196253Y-8080418D01*
X4196253Y-8080418D02*
X4186729Y-8070894D01*
X4186729Y-8070894D02*
X4196253Y-8061370D01*
X4196253Y-8061370D02*
X4196253Y-8080418D01*
X4272444Y-7880418D02*
X4396253Y-7880418D01*
X4396253Y-7880418D02*
X4329586Y-7956608D01*
X4329586Y-7956608D02*
X4358158Y-7956608D01*
X4358158Y-7956608D02*
X4377205Y-7966132D01*
X4377205Y-7966132D02*
X4386729Y-7975656D01*
X4386729Y-7975656D02*
X4396253Y-7994703D01*
X4396253Y-7994703D02*
X4396253Y-8042322D01*
X4396253Y-8042322D02*
X4386729Y-8061370D01*
X4386729Y-8061370D02*
X4377205Y-8070894D01*
X4377205Y-8070894D02*
X4358158Y-8080418D01*
X4358158Y-8080418D02*
X4301015Y-8080418D01*
X4301015Y-8080418D02*
X4281967Y-8070894D01*
X4281967Y-8070894D02*
X4272444Y-8061370D01*
X4520063Y-7880418D02*
X4539110Y-7880418D01*
X4539110Y-7880418D02*
X4558158Y-7889942D01*
X4558158Y-7889942D02*
X4567682Y-7899465D01*
X4567682Y-7899465D02*
X4577205Y-7918513D01*
X4577205Y-7918513D02*
X4586729Y-7956608D01*
X4586729Y-7956608D02*
X4586729Y-8004227D01*
X4586729Y-8004227D02*
X4577205Y-8042322D01*
X4577205Y-8042322D02*
X4567682Y-8061370D01*
X4567682Y-8061370D02*
X4558158Y-8070894D01*
X4558158Y-8070894D02*
X4539110Y-8080418D01*
X4539110Y-8080418D02*
X4520063Y-8080418D01*
X4520063Y-8080418D02*
X4501015Y-8070894D01*
X4501015Y-8070894D02*
X4491491Y-8061370D01*
X4491491Y-8061370D02*
X4481967Y-8042322D01*
X4481967Y-8042322D02*
X4472444Y-8004227D01*
X4472444Y-8004227D02*
X4472444Y-7956608D01*
X4472444Y-7956608D02*
X4481967Y-7918513D01*
X4481967Y-7918513D02*
X4491491Y-7899465D01*
X4491491Y-7899465D02*
X4501015Y-7889942D01*
X4501015Y-7889942D02*
X4520063Y-7880418D01*
X4710539Y-7880418D02*
X4729586Y-7880418D01*
X4729586Y-7880418D02*
X4748634Y-7889942D01*
X4748634Y-7889942D02*
X4758158Y-7899465D01*
X4758158Y-7899465D02*
X4767682Y-7918513D01*
X4767682Y-7918513D02*
X4777205Y-7956608D01*
X4777205Y-7956608D02*
X4777205Y-8004227D01*
X4777205Y-8004227D02*
X4767682Y-8042322D01*
X4767682Y-8042322D02*
X4758158Y-8061370D01*
X4758158Y-8061370D02*
X4748634Y-8070894D01*
X4748634Y-8070894D02*
X4729586Y-8080418D01*
X4729586Y-8080418D02*
X4710539Y-8080418D01*
X4710539Y-8080418D02*
X4691491Y-8070894D01*
X4691491Y-8070894D02*
X4681967Y-8061370D01*
X4681967Y-8061370D02*
X4672444Y-8042322D01*
X4672444Y-8042322D02*
X4662920Y-8004227D01*
X4662920Y-8004227D02*
X4662920Y-7956608D01*
X4662920Y-7956608D02*
X4672444Y-7918513D01*
X4672444Y-7918513D02*
X4681967Y-7899465D01*
X4681967Y-7899465D02*
X4691491Y-7889942D01*
X4691491Y-7889942D02*
X4710539Y-7880418D01*
X4862920Y-8080418D02*
X4862920Y-7947084D01*
X4862920Y-7966132D02*
X4872444Y-7956608D01*
X4872444Y-7956608D02*
X4891491Y-7947084D01*
X4891491Y-7947084D02*
X4920063Y-7947084D01*
X4920063Y-7947084D02*
X4939110Y-7956608D01*
X4939110Y-7956608D02*
X4948634Y-7975656D01*
X4948634Y-7975656D02*
X4948634Y-8080418D01*
X4948634Y-7975656D02*
X4958158Y-7956608D01*
X4958158Y-7956608D02*
X4977205Y-7947084D01*
X4977205Y-7947084D02*
X5005777Y-7947084D01*
X5005777Y-7947084D02*
X5024825Y-7956608D01*
X5024825Y-7956608D02*
X5034348Y-7975656D01*
X5034348Y-7975656D02*
X5034348Y-8080418D01*
X5129586Y-8080418D02*
X5129586Y-7947084D01*
X5129586Y-7966132D02*
X5139110Y-7956608D01*
X5139110Y-7956608D02*
X5158158Y-7947084D01*
X5158158Y-7947084D02*
X5186729Y-7947084D01*
X5186729Y-7947084D02*
X5205777Y-7956608D01*
X5205777Y-7956608D02*
X5215301Y-7975656D01*
X5215301Y-7975656D02*
X5215301Y-8080418D01*
X5215301Y-7975656D02*
X5224825Y-7956608D01*
X5224825Y-7956608D02*
X5243872Y-7947084D01*
X5243872Y-7947084D02*
X5272444Y-7947084D01*
X5272444Y-7947084D02*
X5291491Y-7956608D01*
X5291491Y-7956608D02*
X5301015Y-7975656D01*
X5301015Y-7975656D02*
X5301015Y-8080418D01*
X5691491Y-7870894D02*
X5520063Y-8128037D01*
X5948634Y-7880418D02*
X5967682Y-7880418D01*
X5967682Y-7880418D02*
X5986729Y-7889942D01*
X5986729Y-7889942D02*
X5996253Y-7899465D01*
X5996253Y-7899465D02*
X6005777Y-7918513D01*
X6005777Y-7918513D02*
X6015301Y-7956608D01*
X6015301Y-7956608D02*
X6015301Y-8004227D01*
X6015301Y-8004227D02*
X6005777Y-8042322D01*
X6005777Y-8042322D02*
X5996253Y-8061370D01*
X5996253Y-8061370D02*
X5986729Y-8070894D01*
X5986729Y-8070894D02*
X5967682Y-8080418D01*
X5967682Y-8080418D02*
X5948634Y-8080418D01*
X5948634Y-8080418D02*
X5929586Y-8070894D01*
X5929586Y-8070894D02*
X5920063Y-8061370D01*
X5920063Y-8061370D02*
X5910539Y-8042322D01*
X5910539Y-8042322D02*
X5901015Y-8004227D01*
X5901015Y-8004227D02*
X5901015Y-7956608D01*
X5901015Y-7956608D02*
X5910539Y-7918513D01*
X5910539Y-7918513D02*
X5920063Y-7899465D01*
X5920063Y-7899465D02*
X5929586Y-7889942D01*
X5929586Y-7889942D02*
X5948634Y-7880418D01*
X6101015Y-8061370D02*
X6110539Y-8070894D01*
X6110539Y-8070894D02*
X6101015Y-8080418D01*
X6101015Y-8080418D02*
X6091491Y-8070894D01*
X6091491Y-8070894D02*
X6101015Y-8061370D01*
X6101015Y-8061370D02*
X6101015Y-8080418D01*
X6234348Y-7880418D02*
X6253396Y-7880418D01*
X6253396Y-7880418D02*
X6272444Y-7889942D01*
X6272444Y-7889942D02*
X6281967Y-7899465D01*
X6281967Y-7899465D02*
X6291491Y-7918513D01*
X6291491Y-7918513D02*
X6301015Y-7956608D01*
X6301015Y-7956608D02*
X6301015Y-8004227D01*
X6301015Y-8004227D02*
X6291491Y-8042322D01*
X6291491Y-8042322D02*
X6281967Y-8061370D01*
X6281967Y-8061370D02*
X6272444Y-8070894D01*
X6272444Y-8070894D02*
X6253396Y-8080418D01*
X6253396Y-8080418D02*
X6234348Y-8080418D01*
X6234348Y-8080418D02*
X6215301Y-8070894D01*
X6215301Y-8070894D02*
X6205777Y-8061370D01*
X6205777Y-8061370D02*
X6196253Y-8042322D01*
X6196253Y-8042322D02*
X6186729Y-8004227D01*
X6186729Y-8004227D02*
X6186729Y-7956608D01*
X6186729Y-7956608D02*
X6196253Y-7918513D01*
X6196253Y-7918513D02*
X6205777Y-7899465D01*
X6205777Y-7899465D02*
X6215301Y-7889942D01*
X6215301Y-7889942D02*
X6234348Y-7880418D01*
X6491491Y-8080418D02*
X6377206Y-8080418D01*
X6434348Y-8080418D02*
X6434348Y-7880418D01*
X6434348Y-7880418D02*
X6415301Y-7908989D01*
X6415301Y-7908989D02*
X6396253Y-7928037D01*
X6396253Y-7928037D02*
X6377206Y-7937561D01*
X6681967Y-8080418D02*
X6567682Y-8080418D01*
X6624825Y-8080418D02*
X6624825Y-7880418D01*
X6624825Y-7880418D02*
X6605777Y-7908989D01*
X6605777Y-7908989D02*
X6586729Y-7928037D01*
X6586729Y-7928037D02*
X6567682Y-7937561D01*
X6796253Y-7966132D02*
X6777206Y-7956608D01*
X6777206Y-7956608D02*
X6767682Y-7947084D01*
X6767682Y-7947084D02*
X6758158Y-7928037D01*
X6758158Y-7928037D02*
X6758158Y-7918513D01*
X6758158Y-7918513D02*
X6767682Y-7899465D01*
X6767682Y-7899465D02*
X6777206Y-7889942D01*
X6777206Y-7889942D02*
X6796253Y-7880418D01*
X6796253Y-7880418D02*
X6834348Y-7880418D01*
X6834348Y-7880418D02*
X6853396Y-7889942D01*
X6853396Y-7889942D02*
X6862920Y-7899465D01*
X6862920Y-7899465D02*
X6872444Y-7918513D01*
X6872444Y-7918513D02*
X6872444Y-7928037D01*
X6872444Y-7928037D02*
X6862920Y-7947084D01*
X6862920Y-7947084D02*
X6853396Y-7956608D01*
X6853396Y-7956608D02*
X6834348Y-7966132D01*
X6834348Y-7966132D02*
X6796253Y-7966132D01*
X6796253Y-7966132D02*
X6777206Y-7975656D01*
X6777206Y-7975656D02*
X6767682Y-7985180D01*
X6767682Y-7985180D02*
X6758158Y-8004227D01*
X6758158Y-8004227D02*
X6758158Y-8042322D01*
X6758158Y-8042322D02*
X6767682Y-8061370D01*
X6767682Y-8061370D02*
X6777206Y-8070894D01*
X6777206Y-8070894D02*
X6796253Y-8080418D01*
X6796253Y-8080418D02*
X6834348Y-8080418D01*
X6834348Y-8080418D02*
X6853396Y-8070894D01*
X6853396Y-8070894D02*
X6862920Y-8061370D01*
X6862920Y-8061370D02*
X6872444Y-8042322D01*
X6872444Y-8042322D02*
X6872444Y-8004227D01*
X6872444Y-8004227D02*
X6862920Y-7985180D01*
X6862920Y-7985180D02*
X6853396Y-7975656D01*
X6853396Y-7975656D02*
X6834348Y-7966132D01*
X6948634Y-7880418D02*
X6948634Y-7918513D01*
X7024825Y-7880418D02*
X7024825Y-7918513D01*
X7320063Y-8156608D02*
X7310539Y-8147084D01*
X7310539Y-8147084D02*
X7291491Y-8118513D01*
X7291491Y-8118513D02*
X7281968Y-8099465D01*
X7281968Y-8099465D02*
X7272444Y-8070894D01*
X7272444Y-8070894D02*
X7262920Y-8023275D01*
X7262920Y-8023275D02*
X7262920Y-7985180D01*
X7262920Y-7985180D02*
X7272444Y-7937561D01*
X7272444Y-7937561D02*
X7281968Y-7908989D01*
X7281968Y-7908989D02*
X7291491Y-7889942D01*
X7291491Y-7889942D02*
X7310539Y-7861370D01*
X7310539Y-7861370D02*
X7320063Y-7851846D01*
X7377206Y-7880418D02*
X7510539Y-7880418D01*
X7510539Y-7880418D02*
X7424825Y-8080418D01*
X7739110Y-8080418D02*
X7739110Y-7880418D01*
X7824825Y-8080418D02*
X7824825Y-7975656D01*
X7824825Y-7975656D02*
X7815301Y-7956608D01*
X7815301Y-7956608D02*
X7796253Y-7947084D01*
X7796253Y-7947084D02*
X7767682Y-7947084D01*
X7767682Y-7947084D02*
X7748634Y-7956608D01*
X7748634Y-7956608D02*
X7739110Y-7966132D01*
X7948634Y-8080418D02*
X7929587Y-8070894D01*
X7929587Y-8070894D02*
X7920063Y-8061370D01*
X7920063Y-8061370D02*
X7910539Y-8042322D01*
X7910539Y-8042322D02*
X7910539Y-7985180D01*
X7910539Y-7985180D02*
X7920063Y-7966132D01*
X7920063Y-7966132D02*
X7929587Y-7956608D01*
X7929587Y-7956608D02*
X7948634Y-7947084D01*
X7948634Y-7947084D02*
X7977206Y-7947084D01*
X7977206Y-7947084D02*
X7996253Y-7956608D01*
X7996253Y-7956608D02*
X8005777Y-7966132D01*
X8005777Y-7966132D02*
X8015301Y-7985180D01*
X8015301Y-7985180D02*
X8015301Y-8042322D01*
X8015301Y-8042322D02*
X8005777Y-8061370D01*
X8005777Y-8061370D02*
X7996253Y-8070894D01*
X7996253Y-8070894D02*
X7977206Y-8080418D01*
X7977206Y-8080418D02*
X7948634Y-8080418D01*
X8129587Y-8080418D02*
X8110539Y-8070894D01*
X8110539Y-8070894D02*
X8101015Y-8051846D01*
X8101015Y-8051846D02*
X8101015Y-7880418D01*
X8281968Y-8070894D02*
X8262920Y-8080418D01*
X8262920Y-8080418D02*
X8224825Y-8080418D01*
X8224825Y-8080418D02*
X8205777Y-8070894D01*
X8205777Y-8070894D02*
X8196253Y-8051846D01*
X8196253Y-8051846D02*
X8196253Y-7975656D01*
X8196253Y-7975656D02*
X8205777Y-7956608D01*
X8205777Y-7956608D02*
X8224825Y-7947084D01*
X8224825Y-7947084D02*
X8262920Y-7947084D01*
X8262920Y-7947084D02*
X8281968Y-7956608D01*
X8281968Y-7956608D02*
X8291491Y-7975656D01*
X8291491Y-7975656D02*
X8291491Y-7994703D01*
X8291491Y-7994703D02*
X8196253Y-8013751D01*
X8367682Y-8070894D02*
X8386730Y-8080418D01*
X8386730Y-8080418D02*
X8424825Y-8080418D01*
X8424825Y-8080418D02*
X8443873Y-8070894D01*
X8443873Y-8070894D02*
X8453396Y-8051846D01*
X8453396Y-8051846D02*
X8453396Y-8042322D01*
X8453396Y-8042322D02*
X8443873Y-8023275D01*
X8443873Y-8023275D02*
X8424825Y-8013751D01*
X8424825Y-8013751D02*
X8396253Y-8013751D01*
X8396253Y-8013751D02*
X8377206Y-8004227D01*
X8377206Y-8004227D02*
X8367682Y-7985180D01*
X8367682Y-7985180D02*
X8367682Y-7975656D01*
X8367682Y-7975656D02*
X8377206Y-7956608D01*
X8377206Y-7956608D02*
X8396253Y-7947084D01*
X8396253Y-7947084D02*
X8424825Y-7947084D01*
X8424825Y-7947084D02*
X8443873Y-7956608D01*
X8520063Y-8156608D02*
X8529587Y-8147084D01*
X8529587Y-8147084D02*
X8548634Y-8118513D01*
X8548634Y-8118513D02*
X8558158Y-8099465D01*
X8558158Y-8099465D02*
X8567682Y-8070894D01*
X8567682Y-8070894D02*
X8577206Y-8023275D01*
X8577206Y-8023275D02*
X8577206Y-7985180D01*
X8577206Y-7985180D02*
X8567682Y-7937561D01*
X8567682Y-7937561D02*
X8558158Y-7908989D01*
X8558158Y-7908989D02*
X8548634Y-7889942D01*
X8548634Y-7889942D02*
X8529587Y-7861370D01*
X8529587Y-7861370D02*
X8520063Y-7851846D01*
D13*
X3745000Y-8252934D02*
G75*
G03*
X3745000Y-8252934I-20000J0D01*
G01*
D11*
X4043872Y-8144418D02*
X4062920Y-8144418D01*
X4062920Y-8144418D02*
X4081967Y-8153942D01*
X4081967Y-8153942D02*
X4091491Y-8163465D01*
X4091491Y-8163465D02*
X4101015Y-8182513D01*
X4101015Y-8182513D02*
X4110539Y-8220608D01*
X4110539Y-8220608D02*
X4110539Y-8268227D01*
X4110539Y-8268227D02*
X4101015Y-8306322D01*
X4101015Y-8306322D02*
X4091491Y-8325370D01*
X4091491Y-8325370D02*
X4081967Y-8334894D01*
X4081967Y-8334894D02*
X4062920Y-8344418D01*
X4062920Y-8344418D02*
X4043872Y-8344418D01*
X4043872Y-8344418D02*
X4024824Y-8334894D01*
X4024824Y-8334894D02*
X4015301Y-8325370D01*
X4015301Y-8325370D02*
X4005777Y-8306322D01*
X4005777Y-8306322D02*
X3996253Y-8268227D01*
X3996253Y-8268227D02*
X3996253Y-8220608D01*
X3996253Y-8220608D02*
X4005777Y-8182513D01*
X4005777Y-8182513D02*
X4015301Y-8163465D01*
X4015301Y-8163465D02*
X4024824Y-8153942D01*
X4024824Y-8153942D02*
X4043872Y-8144418D01*
X4196253Y-8325370D02*
X4205777Y-8334894D01*
X4205777Y-8334894D02*
X4196253Y-8344418D01*
X4196253Y-8344418D02*
X4186729Y-8334894D01*
X4186729Y-8334894D02*
X4196253Y-8325370D01*
X4196253Y-8325370D02*
X4196253Y-8344418D01*
X4377205Y-8211084D02*
X4377205Y-8344418D01*
X4329586Y-8134894D02*
X4281967Y-8277751D01*
X4281967Y-8277751D02*
X4405777Y-8277751D01*
X4520063Y-8144418D02*
X4539110Y-8144418D01*
X4539110Y-8144418D02*
X4558158Y-8153942D01*
X4558158Y-8153942D02*
X4567682Y-8163465D01*
X4567682Y-8163465D02*
X4577205Y-8182513D01*
X4577205Y-8182513D02*
X4586729Y-8220608D01*
X4586729Y-8220608D02*
X4586729Y-8268227D01*
X4586729Y-8268227D02*
X4577205Y-8306322D01*
X4577205Y-8306322D02*
X4567682Y-8325370D01*
X4567682Y-8325370D02*
X4558158Y-8334894D01*
X4558158Y-8334894D02*
X4539110Y-8344418D01*
X4539110Y-8344418D02*
X4520063Y-8344418D01*
X4520063Y-8344418D02*
X4501015Y-8334894D01*
X4501015Y-8334894D02*
X4491491Y-8325370D01*
X4491491Y-8325370D02*
X4481967Y-8306322D01*
X4481967Y-8306322D02*
X4472444Y-8268227D01*
X4472444Y-8268227D02*
X4472444Y-8220608D01*
X4472444Y-8220608D02*
X4481967Y-8182513D01*
X4481967Y-8182513D02*
X4491491Y-8163465D01*
X4491491Y-8163465D02*
X4501015Y-8153942D01*
X4501015Y-8153942D02*
X4520063Y-8144418D01*
X4710539Y-8144418D02*
X4729586Y-8144418D01*
X4729586Y-8144418D02*
X4748634Y-8153942D01*
X4748634Y-8153942D02*
X4758158Y-8163465D01*
X4758158Y-8163465D02*
X4767682Y-8182513D01*
X4767682Y-8182513D02*
X4777205Y-8220608D01*
X4777205Y-8220608D02*
X4777205Y-8268227D01*
X4777205Y-8268227D02*
X4767682Y-8306322D01*
X4767682Y-8306322D02*
X4758158Y-8325370D01*
X4758158Y-8325370D02*
X4748634Y-8334894D01*
X4748634Y-8334894D02*
X4729586Y-8344418D01*
X4729586Y-8344418D02*
X4710539Y-8344418D01*
X4710539Y-8344418D02*
X4691491Y-8334894D01*
X4691491Y-8334894D02*
X4681967Y-8325370D01*
X4681967Y-8325370D02*
X4672444Y-8306322D01*
X4672444Y-8306322D02*
X4662920Y-8268227D01*
X4662920Y-8268227D02*
X4662920Y-8220608D01*
X4662920Y-8220608D02*
X4672444Y-8182513D01*
X4672444Y-8182513D02*
X4681967Y-8163465D01*
X4681967Y-8163465D02*
X4691491Y-8153942D01*
X4691491Y-8153942D02*
X4710539Y-8144418D01*
X4862920Y-8344418D02*
X4862920Y-8211084D01*
X4862920Y-8230132D02*
X4872444Y-8220608D01*
X4872444Y-8220608D02*
X4891491Y-8211084D01*
X4891491Y-8211084D02*
X4920063Y-8211084D01*
X4920063Y-8211084D02*
X4939110Y-8220608D01*
X4939110Y-8220608D02*
X4948634Y-8239656D01*
X4948634Y-8239656D02*
X4948634Y-8344418D01*
X4948634Y-8239656D02*
X4958158Y-8220608D01*
X4958158Y-8220608D02*
X4977205Y-8211084D01*
X4977205Y-8211084D02*
X5005777Y-8211084D01*
X5005777Y-8211084D02*
X5024825Y-8220608D01*
X5024825Y-8220608D02*
X5034348Y-8239656D01*
X5034348Y-8239656D02*
X5034348Y-8344418D01*
X5129586Y-8344418D02*
X5129586Y-8211084D01*
X5129586Y-8230132D02*
X5139110Y-8220608D01*
X5139110Y-8220608D02*
X5158158Y-8211084D01*
X5158158Y-8211084D02*
X5186729Y-8211084D01*
X5186729Y-8211084D02*
X5205777Y-8220608D01*
X5205777Y-8220608D02*
X5215301Y-8239656D01*
X5215301Y-8239656D02*
X5215301Y-8344418D01*
X5215301Y-8239656D02*
X5224825Y-8220608D01*
X5224825Y-8220608D02*
X5243872Y-8211084D01*
X5243872Y-8211084D02*
X5272444Y-8211084D01*
X5272444Y-8211084D02*
X5291491Y-8220608D01*
X5291491Y-8220608D02*
X5301015Y-8239656D01*
X5301015Y-8239656D02*
X5301015Y-8344418D01*
X5691491Y-8134894D02*
X5520063Y-8392037D01*
X5948634Y-8144418D02*
X5967682Y-8144418D01*
X5967682Y-8144418D02*
X5986729Y-8153942D01*
X5986729Y-8153942D02*
X5996253Y-8163465D01*
X5996253Y-8163465D02*
X6005777Y-8182513D01*
X6005777Y-8182513D02*
X6015301Y-8220608D01*
X6015301Y-8220608D02*
X6015301Y-8268227D01*
X6015301Y-8268227D02*
X6005777Y-8306322D01*
X6005777Y-8306322D02*
X5996253Y-8325370D01*
X5996253Y-8325370D02*
X5986729Y-8334894D01*
X5986729Y-8334894D02*
X5967682Y-8344418D01*
X5967682Y-8344418D02*
X5948634Y-8344418D01*
X5948634Y-8344418D02*
X5929586Y-8334894D01*
X5929586Y-8334894D02*
X5920063Y-8325370D01*
X5920063Y-8325370D02*
X5910539Y-8306322D01*
X5910539Y-8306322D02*
X5901015Y-8268227D01*
X5901015Y-8268227D02*
X5901015Y-8220608D01*
X5901015Y-8220608D02*
X5910539Y-8182513D01*
X5910539Y-8182513D02*
X5920063Y-8163465D01*
X5920063Y-8163465D02*
X5929586Y-8153942D01*
X5929586Y-8153942D02*
X5948634Y-8144418D01*
X6101015Y-8325370D02*
X6110539Y-8334894D01*
X6110539Y-8334894D02*
X6101015Y-8344418D01*
X6101015Y-8344418D02*
X6091491Y-8334894D01*
X6091491Y-8334894D02*
X6101015Y-8325370D01*
X6101015Y-8325370D02*
X6101015Y-8344418D01*
X6234348Y-8144418D02*
X6253396Y-8144418D01*
X6253396Y-8144418D02*
X6272444Y-8153942D01*
X6272444Y-8153942D02*
X6281967Y-8163465D01*
X6281967Y-8163465D02*
X6291491Y-8182513D01*
X6291491Y-8182513D02*
X6301015Y-8220608D01*
X6301015Y-8220608D02*
X6301015Y-8268227D01*
X6301015Y-8268227D02*
X6291491Y-8306322D01*
X6291491Y-8306322D02*
X6281967Y-8325370D01*
X6281967Y-8325370D02*
X6272444Y-8334894D01*
X6272444Y-8334894D02*
X6253396Y-8344418D01*
X6253396Y-8344418D02*
X6234348Y-8344418D01*
X6234348Y-8344418D02*
X6215301Y-8334894D01*
X6215301Y-8334894D02*
X6205777Y-8325370D01*
X6205777Y-8325370D02*
X6196253Y-8306322D01*
X6196253Y-8306322D02*
X6186729Y-8268227D01*
X6186729Y-8268227D02*
X6186729Y-8220608D01*
X6186729Y-8220608D02*
X6196253Y-8182513D01*
X6196253Y-8182513D02*
X6205777Y-8163465D01*
X6205777Y-8163465D02*
X6215301Y-8153942D01*
X6215301Y-8153942D02*
X6234348Y-8144418D01*
X6491491Y-8344418D02*
X6377206Y-8344418D01*
X6434348Y-8344418D02*
X6434348Y-8144418D01*
X6434348Y-8144418D02*
X6415301Y-8172989D01*
X6415301Y-8172989D02*
X6396253Y-8192037D01*
X6396253Y-8192037D02*
X6377206Y-8201561D01*
X6672444Y-8144418D02*
X6577206Y-8144418D01*
X6577206Y-8144418D02*
X6567682Y-8239656D01*
X6567682Y-8239656D02*
X6577206Y-8230132D01*
X6577206Y-8230132D02*
X6596253Y-8220608D01*
X6596253Y-8220608D02*
X6643872Y-8220608D01*
X6643872Y-8220608D02*
X6662920Y-8230132D01*
X6662920Y-8230132D02*
X6672444Y-8239656D01*
X6672444Y-8239656D02*
X6681967Y-8258703D01*
X6681967Y-8258703D02*
X6681967Y-8306322D01*
X6681967Y-8306322D02*
X6672444Y-8325370D01*
X6672444Y-8325370D02*
X6662920Y-8334894D01*
X6662920Y-8334894D02*
X6643872Y-8344418D01*
X6643872Y-8344418D02*
X6596253Y-8344418D01*
X6596253Y-8344418D02*
X6577206Y-8334894D01*
X6577206Y-8334894D02*
X6567682Y-8325370D01*
X6748634Y-8144418D02*
X6881967Y-8144418D01*
X6881967Y-8144418D02*
X6796253Y-8344418D01*
X6948634Y-8144418D02*
X6948634Y-8182513D01*
X7024825Y-8144418D02*
X7024825Y-8182513D01*
X7320063Y-8420608D02*
X7310539Y-8411084D01*
X7310539Y-8411084D02*
X7291491Y-8382513D01*
X7291491Y-8382513D02*
X7281968Y-8363465D01*
X7281968Y-8363465D02*
X7272444Y-8334894D01*
X7272444Y-8334894D02*
X7262920Y-8287275D01*
X7262920Y-8287275D02*
X7262920Y-8249180D01*
X7262920Y-8249180D02*
X7272444Y-8201561D01*
X7272444Y-8201561D02*
X7281968Y-8172989D01*
X7281968Y-8172989D02*
X7291491Y-8153942D01*
X7291491Y-8153942D02*
X7310539Y-8125370D01*
X7310539Y-8125370D02*
X7320063Y-8115846D01*
X7501015Y-8344418D02*
X7386729Y-8344418D01*
X7443872Y-8344418D02*
X7443872Y-8144418D01*
X7443872Y-8144418D02*
X7424825Y-8172989D01*
X7424825Y-8172989D02*
X7405777Y-8192037D01*
X7405777Y-8192037D02*
X7386729Y-8201561D01*
X7567682Y-8144418D02*
X7691491Y-8144418D01*
X7691491Y-8144418D02*
X7624825Y-8220608D01*
X7624825Y-8220608D02*
X7653396Y-8220608D01*
X7653396Y-8220608D02*
X7672444Y-8230132D01*
X7672444Y-8230132D02*
X7681968Y-8239656D01*
X7681968Y-8239656D02*
X7691491Y-8258703D01*
X7691491Y-8258703D02*
X7691491Y-8306322D01*
X7691491Y-8306322D02*
X7681968Y-8325370D01*
X7681968Y-8325370D02*
X7672444Y-8334894D01*
X7672444Y-8334894D02*
X7653396Y-8344418D01*
X7653396Y-8344418D02*
X7596253Y-8344418D01*
X7596253Y-8344418D02*
X7577206Y-8334894D01*
X7577206Y-8334894D02*
X7567682Y-8325370D01*
X7929587Y-8344418D02*
X7929587Y-8144418D01*
X8015301Y-8344418D02*
X8015301Y-8239656D01*
X8015301Y-8239656D02*
X8005777Y-8220608D01*
X8005777Y-8220608D02*
X7986730Y-8211084D01*
X7986730Y-8211084D02*
X7958158Y-8211084D01*
X7958158Y-8211084D02*
X7939110Y-8220608D01*
X7939110Y-8220608D02*
X7929587Y-8230132D01*
X8139110Y-8344418D02*
X8120063Y-8334894D01*
X8120063Y-8334894D02*
X8110539Y-8325370D01*
X8110539Y-8325370D02*
X8101015Y-8306322D01*
X8101015Y-8306322D02*
X8101015Y-8249180D01*
X8101015Y-8249180D02*
X8110539Y-8230132D01*
X8110539Y-8230132D02*
X8120063Y-8220608D01*
X8120063Y-8220608D02*
X8139110Y-8211084D01*
X8139110Y-8211084D02*
X8167682Y-8211084D01*
X8167682Y-8211084D02*
X8186730Y-8220608D01*
X8186730Y-8220608D02*
X8196253Y-8230132D01*
X8196253Y-8230132D02*
X8205777Y-8249180D01*
X8205777Y-8249180D02*
X8205777Y-8306322D01*
X8205777Y-8306322D02*
X8196253Y-8325370D01*
X8196253Y-8325370D02*
X8186730Y-8334894D01*
X8186730Y-8334894D02*
X8167682Y-8344418D01*
X8167682Y-8344418D02*
X8139110Y-8344418D01*
X8320063Y-8344418D02*
X8301015Y-8334894D01*
X8301015Y-8334894D02*
X8291491Y-8315846D01*
X8291491Y-8315846D02*
X8291491Y-8144418D01*
X8472444Y-8334894D02*
X8453396Y-8344418D01*
X8453396Y-8344418D02*
X8415301Y-8344418D01*
X8415301Y-8344418D02*
X8396253Y-8334894D01*
X8396253Y-8334894D02*
X8386730Y-8315846D01*
X8386730Y-8315846D02*
X8386730Y-8239656D01*
X8386730Y-8239656D02*
X8396253Y-8220608D01*
X8396253Y-8220608D02*
X8415301Y-8211084D01*
X8415301Y-8211084D02*
X8453396Y-8211084D01*
X8453396Y-8211084D02*
X8472444Y-8220608D01*
X8472444Y-8220608D02*
X8481968Y-8239656D01*
X8481968Y-8239656D02*
X8481968Y-8258703D01*
X8481968Y-8258703D02*
X8386730Y-8277751D01*
X8558158Y-8334894D02*
X8577206Y-8344418D01*
X8577206Y-8344418D02*
X8615301Y-8344418D01*
X8615301Y-8344418D02*
X8634349Y-8334894D01*
X8634349Y-8334894D02*
X8643873Y-8315846D01*
X8643873Y-8315846D02*
X8643873Y-8306322D01*
X8643873Y-8306322D02*
X8634349Y-8287275D01*
X8634349Y-8287275D02*
X8615301Y-8277751D01*
X8615301Y-8277751D02*
X8586730Y-8277751D01*
X8586730Y-8277751D02*
X8567682Y-8268227D01*
X8567682Y-8268227D02*
X8558158Y-8249180D01*
X8558158Y-8249180D02*
X8558158Y-8239656D01*
X8558158Y-8239656D02*
X8567682Y-8220608D01*
X8567682Y-8220608D02*
X8586730Y-8211084D01*
X8586730Y-8211084D02*
X8615301Y-8211084D01*
X8615301Y-8211084D02*
X8634349Y-8220608D01*
X8710539Y-8420608D02*
X8720063Y-8411084D01*
X8720063Y-8411084D02*
X8739111Y-8382513D01*
X8739111Y-8382513D02*
X8748634Y-8363465D01*
X8748634Y-8363465D02*
X8758158Y-8334894D01*
X8758158Y-8334894D02*
X8767682Y-8287275D01*
X8767682Y-8287275D02*
X8767682Y-8249180D01*
X8767682Y-8249180D02*
X8758158Y-8201561D01*
X8758158Y-8201561D02*
X8748634Y-8172989D01*
X8748634Y-8172989D02*
X8739111Y-8153942D01*
X8739111Y-8153942D02*
X8720063Y-8125370D01*
X8720063Y-8125370D02*
X8710539Y-8115846D01*
M02*
