G04 #@! TF.GenerationSoftware,KiCad,Pcbnew,7.0.8*
G04 #@! TF.CreationDate,2023-12-05T05:14:49-08:00*
G04 #@! TF.ProjectId,Seismos_4-Thumb,53656973-6d6f-4735-9f34-2d5468756d62,rev?*
G04 #@! TF.SameCoordinates,Original*
G04 #@! TF.FileFunction,Copper,L1,Top*
G04 #@! TF.FilePolarity,Positive*
%FSLAX46Y46*%
G04 Gerber Fmt 4.6, Leading zero omitted, Abs format (unit mm)*
G04 Created by KiCad (PCBNEW 7.0.8) date 2023-12-05 05:14:49*
%MOMM*%
%LPD*%
G01*
G04 APERTURE LIST*
G04 #@! TA.AperFunction,SMDPad,CuDef*
%ADD10R,0.600000X1.700000*%
G04 #@! TD*
G04 #@! TA.AperFunction,SMDPad,CuDef*
%ADD11R,1.200000X1.800000*%
G04 #@! TD*
G04 #@! TA.AperFunction,ViaPad*
%ADD12C,0.800000*%
G04 #@! TD*
G04 #@! TA.AperFunction,ViaPad*
%ADD13C,0.400000*%
G04 #@! TD*
G04 #@! TA.AperFunction,Conductor*
%ADD14C,0.381000*%
G04 #@! TD*
G04 #@! TA.AperFunction,Conductor*
%ADD15C,0.254000*%
G04 #@! TD*
G04 APERTURE END LIST*
D10*
X61000000Y-30286000D03*
X60000000Y-30286000D03*
X59000000Y-30285000D03*
X58000000Y-30285000D03*
X57000000Y-30285000D03*
X56000000Y-30285000D03*
X55000000Y-30285000D03*
X54000000Y-30285000D03*
X53000000Y-30285000D03*
X52000000Y-30285000D03*
D11*
X62300000Y-26410000D03*
X50700000Y-26410000D03*
D12*
X50700000Y-39000000D03*
X39500000Y-55900000D03*
X50700000Y-50500000D03*
X70000000Y-55600000D03*
X55150000Y-26400000D03*
X61600000Y-53000000D03*
X73000000Y-35800000D03*
D13*
X53150000Y-32760369D03*
X39500000Y-53050000D03*
X54000000Y-31700000D03*
X53000000Y-28150000D03*
D12*
X52111806Y-33510000D03*
D13*
X53900000Y-34250000D03*
X54600000Y-47500000D03*
X69600000Y-50000000D03*
D12*
X60000000Y-32300000D03*
X57800000Y-49100000D03*
X47000000Y-34226500D03*
X44300000Y-53600000D03*
X63400000Y-38900000D03*
D14*
X51200000Y-26400000D02*
X61800000Y-26400000D01*
X57000000Y-28250000D02*
X57000000Y-30285000D01*
X55150000Y-26400000D02*
X57000000Y-28250000D01*
D15*
X68400000Y-53000000D02*
X61600000Y-53000000D01*
X73000000Y-35800000D02*
X73000000Y-48400000D01*
X73000000Y-48400000D02*
X68400000Y-53000000D01*
X55089631Y-32760369D02*
X56000000Y-31850000D01*
X53150000Y-32760369D02*
X55089631Y-32760369D01*
X56000000Y-31850000D02*
X56000000Y-30285000D01*
X54466131Y-32233869D02*
X55000000Y-31700000D01*
X51373000Y-32233869D02*
X54466131Y-32233869D01*
X39500000Y-53050000D02*
X39500000Y-38423935D01*
X44423935Y-33500000D02*
X50106869Y-33500000D01*
X55000000Y-31700000D02*
X55000000Y-30285000D01*
X39500000Y-38423935D02*
X44423935Y-33500000D01*
X50106869Y-33500000D02*
X51373000Y-32233869D01*
X54000000Y-31700000D02*
X54000000Y-30285000D01*
X53000000Y-28150000D02*
X53000000Y-30285000D01*
D14*
X57090000Y-33510000D02*
X58000000Y-32600000D01*
X52111806Y-33510000D02*
X57090000Y-33510000D01*
X58000000Y-32600000D02*
X58000000Y-30285000D01*
D15*
X53900000Y-34250000D02*
X57318144Y-34250000D01*
X57100000Y-50000000D02*
X69600000Y-50000000D01*
X59000000Y-32568144D02*
X59000000Y-30285000D01*
X57318144Y-34250000D02*
X59000000Y-32568144D01*
X54600000Y-47500000D02*
X57100000Y-50000000D01*
D14*
X53000000Y-45700000D02*
X56100000Y-42600000D01*
X47000000Y-34226500D02*
X51710370Y-34226500D01*
X57200000Y-35100000D02*
X60000000Y-32300000D01*
X53000000Y-50400000D02*
X53000000Y-45700000D01*
X49800000Y-53600000D02*
X53000000Y-50400000D01*
X51710370Y-34226500D02*
X52583870Y-35100000D01*
X44300000Y-53600000D02*
X49800000Y-53600000D01*
X60000000Y-30286000D02*
X60000000Y-32300000D01*
X57200000Y-35100000D02*
X56100000Y-36200000D01*
X56100000Y-36200000D02*
X56100000Y-42600000D01*
X52583870Y-35100000D02*
X57200000Y-35100000D01*
X57800000Y-49100000D02*
X56100000Y-47400000D01*
X56100000Y-47400000D02*
X56100000Y-42600000D01*
X61000000Y-31400000D02*
X61000000Y-30286000D01*
X63400000Y-38900000D02*
X63400000Y-33800000D01*
X63400000Y-33800000D02*
X61000000Y-31400000D01*
G04 #@! TA.AperFunction,Conductor*
G36*
X53186043Y-28149930D02*
G01*
X53194298Y-28153398D01*
X53197684Y-28161689D01*
X53197494Y-28163731D01*
X53128752Y-28540401D01*
X53123895Y-28547924D01*
X53117242Y-28550000D01*
X52882758Y-28550000D01*
X52874485Y-28546573D01*
X52871248Y-28540401D01*
X52802505Y-28163728D01*
X52804391Y-28154977D01*
X52811914Y-28150120D01*
X52813953Y-28149930D01*
X53000000Y-28149000D01*
X53186043Y-28149930D01*
G37*
G04 #@! TD.AperFunction*
G04 #@! TA.AperFunction,Conductor*
G36*
X73359138Y-35948731D02*
G01*
X73365456Y-35955078D01*
X73365591Y-35963637D01*
X73129847Y-36592407D01*
X73123734Y-36598951D01*
X73118892Y-36600000D01*
X72881108Y-36600000D01*
X72872835Y-36596573D01*
X72870153Y-36592407D01*
X72634408Y-35963635D01*
X72634712Y-35954688D01*
X72640859Y-35948732D01*
X72995500Y-35800875D01*
X73004449Y-35800855D01*
X73359138Y-35948731D01*
G37*
G04 #@! TD.AperFunction*
G04 #@! TA.AperFunction,Conductor*
G36*
X53128514Y-29138427D02*
G01*
X53130376Y-29140855D01*
X53297312Y-29430339D01*
X53298477Y-29439218D01*
X53298211Y-29440074D01*
X53011034Y-30254700D01*
X53005052Y-30261363D01*
X52996110Y-30261844D01*
X52989447Y-30255862D01*
X52988966Y-30254700D01*
X52961010Y-30175400D01*
X52701788Y-29440072D01*
X52702269Y-29431132D01*
X52702678Y-29430356D01*
X52869624Y-29140855D01*
X52876725Y-29135400D01*
X52879759Y-29135000D01*
X53120241Y-29135000D01*
X53128514Y-29138427D01*
G37*
G04 #@! TD.AperFunction*
G04 #@! TA.AperFunction,Conductor*
G36*
X54125515Y-31303427D02*
G01*
X54128752Y-31309599D01*
X54197494Y-31686268D01*
X54195608Y-31695022D01*
X54188085Y-31699879D01*
X54186043Y-31700069D01*
X54000000Y-31701000D01*
X53813956Y-31700069D01*
X53805701Y-31696601D01*
X53802315Y-31688310D01*
X53802503Y-31686280D01*
X53871248Y-31309598D01*
X53876105Y-31302076D01*
X53882758Y-31300000D01*
X54117242Y-31300000D01*
X54125515Y-31303427D01*
G37*
G04 #@! TD.AperFunction*
G04 #@! TA.AperFunction,Conductor*
G36*
X53163731Y-32562875D02*
G01*
X53290429Y-32585997D01*
X53540401Y-32631617D01*
X53547924Y-32636474D01*
X53550000Y-32643127D01*
X53550000Y-32877610D01*
X53546573Y-32885883D01*
X53540401Y-32889120D01*
X53163731Y-32957863D01*
X53154977Y-32955977D01*
X53150120Y-32948454D01*
X53149930Y-32946412D01*
X53149627Y-32885883D01*
X53149000Y-32760369D01*
X53149930Y-32574325D01*
X53153398Y-32566071D01*
X53161689Y-32562685D01*
X53163731Y-32562875D01*
G37*
G04 #@! TD.AperFunction*
G04 #@! TA.AperFunction,Conductor*
G36*
X59010553Y-30314137D02*
G01*
X59011034Y-30315299D01*
X59298211Y-31129925D01*
X59297730Y-31138867D01*
X59297315Y-31139654D01*
X59130375Y-31429145D01*
X59123275Y-31434600D01*
X59120241Y-31435000D01*
X58879759Y-31435000D01*
X58871486Y-31431573D01*
X58869624Y-31429145D01*
X58702687Y-31139660D01*
X58701522Y-31130781D01*
X58701780Y-31129950D01*
X58988966Y-30315298D01*
X58994948Y-30308636D01*
X59003890Y-30308155D01*
X59010553Y-30314137D01*
G37*
G04 #@! TD.AperFunction*
G04 #@! TA.AperFunction,Conductor*
G36*
X61010124Y-30316218D02*
G01*
X61010707Y-30317585D01*
X61297677Y-31129428D01*
X61297203Y-31138370D01*
X61295327Y-31141171D01*
X61160256Y-31290645D01*
X61160052Y-31290860D01*
X60903234Y-31547677D01*
X60894961Y-31551104D01*
X60886688Y-31547677D01*
X60884119Y-31543801D01*
X60720348Y-31139979D01*
X60720080Y-31131921D01*
X60988566Y-30317818D01*
X60994410Y-30311036D01*
X61003340Y-30310373D01*
X61010124Y-30316218D01*
G37*
G04 #@! TD.AperFunction*
G04 #@! TA.AperFunction,Conductor*
G36*
X53913720Y-34052504D02*
G01*
X54290401Y-34121248D01*
X54297924Y-34126105D01*
X54300000Y-34132758D01*
X54300000Y-34367241D01*
X54296573Y-34375514D01*
X54290401Y-34378751D01*
X53913731Y-34447494D01*
X53904977Y-34445608D01*
X53900120Y-34438085D01*
X53899930Y-34436043D01*
X53899627Y-34375514D01*
X53899000Y-34250000D01*
X53899930Y-34063955D01*
X53903398Y-34055701D01*
X53911689Y-34052315D01*
X53913720Y-34052504D01*
G37*
G04 #@! TD.AperFunction*
G04 #@! TA.AperFunction,Conductor*
G36*
X47791422Y-34033625D02*
G01*
X47798480Y-34039134D01*
X47800000Y-34044901D01*
X47800000Y-34408098D01*
X47796573Y-34416371D01*
X47791421Y-34419374D01*
X47163020Y-34593298D01*
X47154132Y-34592202D01*
X47149101Y-34586525D01*
X47000875Y-34230999D01*
X47000855Y-34222050D01*
X47149101Y-33866473D01*
X47155447Y-33860157D01*
X47163020Y-33859701D01*
X47791422Y-34033625D01*
G37*
G04 #@! TD.AperFunction*
G04 #@! TA.AperFunction,Conductor*
G36*
X57376763Y-48403997D02*
G01*
X57944093Y-48725361D01*
X57949601Y-48732419D01*
X57949145Y-48739992D01*
X57802563Y-49096195D01*
X57796245Y-49102542D01*
X57796195Y-49102563D01*
X57439992Y-49249145D01*
X57431038Y-49249124D01*
X57425361Y-49244093D01*
X57103997Y-48676763D01*
X57102902Y-48667876D01*
X57105903Y-48662726D01*
X57362725Y-48405904D01*
X57370997Y-48402478D01*
X57376763Y-48403997D01*
G37*
G04 #@! TD.AperFunction*
G04 #@! TA.AperFunction,Conductor*
G36*
X45091422Y-53407125D02*
G01*
X45098480Y-53412634D01*
X45100000Y-53418401D01*
X45100000Y-53781598D01*
X45096573Y-53789871D01*
X45091421Y-53792874D01*
X44463020Y-53966798D01*
X44454132Y-53965702D01*
X44449101Y-53960025D01*
X44300875Y-53604499D01*
X44300855Y-53595550D01*
X44449101Y-53239973D01*
X44455447Y-53233657D01*
X44463020Y-53233201D01*
X45091422Y-53407125D01*
G37*
G04 #@! TD.AperFunction*
G04 #@! TA.AperFunction,Conductor*
G36*
X54748048Y-47368481D02*
G01*
X54749358Y-47370060D01*
X54930101Y-47631502D01*
X54967095Y-47685012D01*
X54968981Y-47693766D01*
X54965744Y-47699938D01*
X54799938Y-47865744D01*
X54791665Y-47869171D01*
X54785012Y-47867095D01*
X54470060Y-47649358D01*
X54465203Y-47641835D01*
X54467089Y-47633081D01*
X54468399Y-47631502D01*
X54599293Y-47499293D01*
X54731502Y-47368398D01*
X54739792Y-47365013D01*
X54748048Y-47368481D01*
G37*
G04 #@! TD.AperFunction*
G04 #@! TA.AperFunction,Conductor*
G36*
X60189871Y-31503427D02*
G01*
X60192874Y-31508579D01*
X60366798Y-32136979D01*
X60365702Y-32145867D01*
X60360024Y-32150899D01*
X60004502Y-32299123D01*
X59995548Y-32299144D01*
X59995498Y-32299123D01*
X59639975Y-32150899D01*
X59633657Y-32144552D01*
X59633201Y-32136979D01*
X59807126Y-31508579D01*
X59812635Y-31501520D01*
X59818402Y-31500000D01*
X60181598Y-31500000D01*
X60189871Y-31503427D01*
G37*
G04 #@! TD.AperFunction*
G04 #@! TA.AperFunction,Conductor*
G36*
X58010553Y-30314137D02*
G01*
X58011034Y-30315299D01*
X58298604Y-31131040D01*
X58298561Y-31138942D01*
X58193306Y-31427312D01*
X58187250Y-31433908D01*
X58182315Y-31435000D01*
X57817685Y-31435000D01*
X57809412Y-31431573D01*
X57806694Y-31427312D01*
X57793398Y-31390886D01*
X57701437Y-31138939D01*
X57701395Y-31131042D01*
X57988966Y-30315298D01*
X57994948Y-30308636D01*
X58003890Y-30308155D01*
X58010553Y-30314137D01*
G37*
G04 #@! TD.AperFunction*
G04 #@! TA.AperFunction,Conductor*
G36*
X54010553Y-30314137D02*
G01*
X54011034Y-30315299D01*
X54298211Y-31129925D01*
X54297730Y-31138867D01*
X54297315Y-31139654D01*
X54130375Y-31429145D01*
X54123275Y-31434600D01*
X54120241Y-31435000D01*
X53879759Y-31435000D01*
X53871486Y-31431573D01*
X53869624Y-31429145D01*
X53702687Y-31139660D01*
X53701522Y-31130781D01*
X53701780Y-31129950D01*
X53988966Y-30315298D01*
X53994948Y-30308636D01*
X54003890Y-30308155D01*
X54010553Y-30314137D01*
G37*
G04 #@! TD.AperFunction*
G04 #@! TA.AperFunction,Conductor*
G36*
X63589871Y-38103427D02*
G01*
X63592874Y-38108579D01*
X63766798Y-38736979D01*
X63765702Y-38745867D01*
X63760024Y-38750899D01*
X63404502Y-38899123D01*
X63395548Y-38899144D01*
X63395498Y-38899123D01*
X63039975Y-38750899D01*
X63033657Y-38744552D01*
X63033201Y-38736979D01*
X63207126Y-38108579D01*
X63212635Y-38101520D01*
X63218402Y-38100000D01*
X63581598Y-38100000D01*
X63589871Y-38103427D01*
G37*
G04 #@! TD.AperFunction*
G04 #@! TA.AperFunction,Conductor*
G36*
X62392407Y-52870153D02*
G01*
X62398951Y-52876266D01*
X62400000Y-52881108D01*
X62400000Y-53118891D01*
X62396573Y-53127164D01*
X62392407Y-53129846D01*
X61763637Y-53365591D01*
X61754688Y-53365287D01*
X61748731Y-53359138D01*
X61600875Y-53004499D01*
X61600855Y-52995550D01*
X61748732Y-52640859D01*
X61755078Y-52634543D01*
X61763635Y-52634408D01*
X62392407Y-52870153D01*
G37*
G04 #@! TD.AperFunction*
G04 #@! TA.AperFunction,Conductor*
G36*
X39625515Y-52653427D02*
G01*
X39628752Y-52659599D01*
X39697494Y-53036268D01*
X39695608Y-53045022D01*
X39688085Y-53049879D01*
X39686043Y-53050069D01*
X39500000Y-53051000D01*
X39313956Y-53050069D01*
X39305701Y-53046601D01*
X39302315Y-53038310D01*
X39302503Y-53036280D01*
X39371248Y-52659598D01*
X39376105Y-52652076D01*
X39382758Y-52650000D01*
X39617242Y-52650000D01*
X39625515Y-52653427D01*
G37*
G04 #@! TD.AperFunction*
G04 #@! TA.AperFunction,Conductor*
G36*
X56010553Y-30314137D02*
G01*
X56011034Y-30315299D01*
X56298211Y-31129925D01*
X56297730Y-31138867D01*
X56297315Y-31139654D01*
X56130375Y-31429145D01*
X56123275Y-31434600D01*
X56120241Y-31435000D01*
X55879759Y-31435000D01*
X55871486Y-31431573D01*
X55869624Y-31429145D01*
X55702687Y-31139660D01*
X55701522Y-31130781D01*
X55701780Y-31129950D01*
X55988966Y-30315298D01*
X55994948Y-30308636D01*
X56003890Y-30308155D01*
X56010553Y-30314137D01*
G37*
G04 #@! TD.AperFunction*
G04 #@! TA.AperFunction,Conductor*
G36*
X55010553Y-30314137D02*
G01*
X55011034Y-30315299D01*
X55298211Y-31129925D01*
X55297730Y-31138867D01*
X55297315Y-31139654D01*
X55130375Y-31429145D01*
X55123275Y-31434600D01*
X55120241Y-31435000D01*
X54879759Y-31435000D01*
X54871486Y-31431573D01*
X54869624Y-31429145D01*
X54702687Y-31139660D01*
X54701522Y-31130781D01*
X54701780Y-31129950D01*
X54988966Y-30315298D01*
X54994948Y-30308636D01*
X55003890Y-30308155D01*
X55010553Y-30314137D01*
G37*
G04 #@! TD.AperFunction*
G04 #@! TA.AperFunction,Conductor*
G36*
X69595022Y-49804391D02*
G01*
X69599879Y-49811914D01*
X69600069Y-49813956D01*
X69601000Y-50000000D01*
X69600069Y-50186043D01*
X69596601Y-50194298D01*
X69588310Y-50197684D01*
X69586268Y-50197494D01*
X69209599Y-50128751D01*
X69202076Y-50123894D01*
X69200000Y-50117241D01*
X69200000Y-49882758D01*
X69203427Y-49874485D01*
X69209598Y-49871248D01*
X69586270Y-49802505D01*
X69595022Y-49804391D01*
G37*
G04 #@! TD.AperFunction*
G04 #@! TA.AperFunction,Conductor*
G36*
X52903228Y-33317125D02*
G01*
X52910286Y-33322634D01*
X52911806Y-33328401D01*
X52911806Y-33691598D01*
X52908379Y-33699871D01*
X52903227Y-33702874D01*
X52274826Y-33876798D01*
X52265938Y-33875702D01*
X52260907Y-33870025D01*
X52112681Y-33514499D01*
X52112661Y-33505550D01*
X52260907Y-33149973D01*
X52267253Y-33143657D01*
X52274826Y-33143201D01*
X52903228Y-33317125D01*
G37*
G04 #@! TD.AperFunction*
G04 #@! TA.AperFunction,Conductor*
G36*
X59639990Y-32150853D02*
G01*
X59996195Y-32297436D01*
X60002542Y-32303754D01*
X60002563Y-32303804D01*
X60149145Y-32660007D01*
X60149124Y-32668961D01*
X60144092Y-32674639D01*
X59576764Y-32996001D01*
X59567876Y-32997097D01*
X59562724Y-32994094D01*
X59305905Y-32737275D01*
X59302478Y-32729002D01*
X59303997Y-32723237D01*
X59625362Y-32155905D01*
X59632419Y-32150398D01*
X59639990Y-32150853D01*
G37*
G04 #@! TD.AperFunction*
G04 #@! TA.AperFunction,Conductor*
G36*
X60010553Y-30315137D02*
G01*
X60011034Y-30316299D01*
X60298604Y-31132040D01*
X60298561Y-31139942D01*
X60193306Y-31428312D01*
X60187250Y-31434908D01*
X60182315Y-31436000D01*
X59817685Y-31436000D01*
X59809412Y-31432573D01*
X59806694Y-31428312D01*
X59793398Y-31391886D01*
X59701437Y-31139939D01*
X59701395Y-31132042D01*
X59988966Y-30316298D01*
X59994948Y-30309636D01*
X60003890Y-30309155D01*
X60010553Y-30315137D01*
G37*
G04 #@! TD.AperFunction*
G04 #@! TA.AperFunction,Conductor*
G36*
X61276148Y-25020185D02*
G01*
X61321903Y-25072989D01*
X61331847Y-25142147D01*
X61308375Y-25198812D01*
X61256647Y-25267910D01*
X61256645Y-25267913D01*
X61206403Y-25402620D01*
X61206401Y-25402627D01*
X61200000Y-25462155D01*
X61200000Y-26160000D01*
X62426000Y-26160000D01*
X62493039Y-26179685D01*
X62538794Y-26232489D01*
X62550000Y-26284000D01*
X62550000Y-27810000D01*
X62947828Y-27810000D01*
X62947844Y-27809999D01*
X63007372Y-27803598D01*
X63007377Y-27803597D01*
X63032164Y-27794352D01*
X63101856Y-27789366D01*
X63163180Y-27822850D01*
X63196666Y-27884173D01*
X63199500Y-27910533D01*
X63199500Y-30975467D01*
X63199416Y-30975889D01*
X63199459Y-31000001D01*
X63199500Y-31000099D01*
X63199616Y-31000382D01*
X63199618Y-31000384D01*
X63199808Y-31000462D01*
X63200000Y-31000541D01*
X63200002Y-31000539D01*
X63224616Y-31000524D01*
X63224616Y-31000528D01*
X63224760Y-31000500D01*
X65999901Y-31000500D01*
X75375500Y-31000500D01*
X75442539Y-31020185D01*
X75488294Y-31072989D01*
X75499500Y-31124500D01*
X75499500Y-71937121D01*
X75499342Y-71941547D01*
X75494687Y-72006603D01*
X75482856Y-72156385D01*
X75481631Y-72164692D01*
X75461691Y-72256354D01*
X75432960Y-72376020D01*
X75430762Y-72383219D01*
X75395594Y-72477504D01*
X75350781Y-72585691D01*
X75347915Y-72591682D01*
X75299029Y-72681211D01*
X75297476Y-72683892D01*
X75238121Y-72780752D01*
X75234889Y-72785515D01*
X75173121Y-72868029D01*
X75170633Y-72871140D01*
X75097464Y-72956814D01*
X75094158Y-72960390D01*
X75021035Y-73033516D01*
X75017459Y-73036822D01*
X74931794Y-73109990D01*
X74928683Y-73112479D01*
X74846152Y-73174265D01*
X74841389Y-73177498D01*
X74744564Y-73236836D01*
X74741882Y-73238389D01*
X74652335Y-73287290D01*
X74646344Y-73290156D01*
X74538171Y-73334969D01*
X74443871Y-73370146D01*
X74436672Y-73372344D01*
X74357168Y-73391436D01*
X74316997Y-73401082D01*
X74225384Y-73421015D01*
X74217061Y-73422243D01*
X74061300Y-73434511D01*
X74029511Y-73436787D01*
X74003033Y-73438682D01*
X73998624Y-73438840D01*
X39002217Y-73438840D01*
X38997791Y-73438682D01*
X38927771Y-73433673D01*
X38783790Y-73422379D01*
X38775449Y-73421150D01*
X38677521Y-73399847D01*
X38564251Y-73372652D01*
X38557058Y-73370456D01*
X38499058Y-73348823D01*
X38458702Y-73333770D01*
X38354636Y-73290663D01*
X38348645Y-73287796D01*
X38258165Y-73238389D01*
X38256031Y-73237223D01*
X38253359Y-73235677D01*
X38159647Y-73178247D01*
X38154885Y-73175016D01*
X38069847Y-73111355D01*
X38066735Y-73108866D01*
X37983620Y-73037875D01*
X37980045Y-73034570D01*
X37927288Y-72981813D01*
X37904770Y-72959295D01*
X37901491Y-72955746D01*
X37830479Y-72872599D01*
X37828024Y-72869530D01*
X37764339Y-72784452D01*
X37761114Y-72779697D01*
X37703669Y-72685949D01*
X37702163Y-72683349D01*
X37651572Y-72590691D01*
X37648710Y-72584711D01*
X37605610Y-72480648D01*
X37599791Y-72465046D01*
X37568923Y-72382277D01*
X37566729Y-72375089D01*
X37539534Y-72261796D01*
X37518231Y-72163853D01*
X37517008Y-72155552D01*
X37506142Y-72017438D01*
X37500658Y-71940707D01*
X37500500Y-71936285D01*
X37500500Y-70567763D01*
X38645787Y-70567763D01*
X38675413Y-70837013D01*
X38675415Y-70837024D01*
X38743926Y-71099082D01*
X38743928Y-71099088D01*
X38849870Y-71348390D01*
X38921998Y-71466575D01*
X38990979Y-71579605D01*
X38990986Y-71579615D01*
X39164253Y-71787819D01*
X39164259Y-71787824D01*
X39365998Y-71968582D01*
X39591910Y-72118044D01*
X39837176Y-72233020D01*
X39837183Y-72233022D01*
X39837185Y-72233023D01*
X40096557Y-72311057D01*
X40096564Y-72311058D01*
X40096569Y-72311060D01*
X40364561Y-72350500D01*
X40364566Y-72350500D01*
X40567636Y-72350500D01*
X40619133Y-72346730D01*
X40770156Y-72335677D01*
X40882758Y-72310593D01*
X41034546Y-72276782D01*
X41034548Y-72276781D01*
X41034553Y-72276780D01*
X41287558Y-72180014D01*
X41523777Y-72047441D01*
X41738177Y-71881888D01*
X41926186Y-71686881D01*
X42083799Y-71466579D01*
X42157787Y-71322669D01*
X42207649Y-71225690D01*
X42207651Y-71225684D01*
X42207656Y-71225675D01*
X42295118Y-70969305D01*
X42344319Y-70702933D01*
X42349259Y-70567763D01*
X70645787Y-70567763D01*
X70675413Y-70837013D01*
X70675415Y-70837024D01*
X70743926Y-71099082D01*
X70743928Y-71099088D01*
X70849870Y-71348390D01*
X70921998Y-71466575D01*
X70990979Y-71579605D01*
X70990986Y-71579615D01*
X71164253Y-71787819D01*
X71164259Y-71787824D01*
X71365998Y-71968582D01*
X71591910Y-72118044D01*
X71837176Y-72233020D01*
X71837183Y-72233022D01*
X71837185Y-72233023D01*
X72096557Y-72311057D01*
X72096564Y-72311058D01*
X72096569Y-72311060D01*
X72364561Y-72350500D01*
X72364566Y-72350500D01*
X72567636Y-72350500D01*
X72619133Y-72346730D01*
X72770156Y-72335677D01*
X72882758Y-72310593D01*
X73034546Y-72276782D01*
X73034548Y-72276781D01*
X73034553Y-72276780D01*
X73287558Y-72180014D01*
X73523777Y-72047441D01*
X73738177Y-71881888D01*
X73926186Y-71686881D01*
X74083799Y-71466579D01*
X74157787Y-71322669D01*
X74207649Y-71225690D01*
X74207651Y-71225684D01*
X74207656Y-71225675D01*
X74295118Y-70969305D01*
X74344319Y-70702933D01*
X74354212Y-70432235D01*
X74324586Y-70162982D01*
X74256072Y-69900912D01*
X74150130Y-69651610D01*
X74009018Y-69420390D01*
X73919747Y-69313119D01*
X73835746Y-69212180D01*
X73835740Y-69212175D01*
X73634002Y-69031418D01*
X73408092Y-68881957D01*
X73408090Y-68881956D01*
X73162824Y-68766980D01*
X73162819Y-68766978D01*
X73162814Y-68766976D01*
X72903442Y-68688942D01*
X72903428Y-68688939D01*
X72787791Y-68671921D01*
X72635439Y-68649500D01*
X72432369Y-68649500D01*
X72432364Y-68649500D01*
X72229844Y-68664323D01*
X72229831Y-68664325D01*
X71965453Y-68723217D01*
X71965446Y-68723220D01*
X71712439Y-68819987D01*
X71476226Y-68952557D01*
X71261822Y-69118112D01*
X71073822Y-69313109D01*
X71073816Y-69313116D01*
X70916202Y-69533419D01*
X70916199Y-69533424D01*
X70792350Y-69774309D01*
X70792343Y-69774327D01*
X70704884Y-70030685D01*
X70704881Y-70030699D01*
X70655681Y-70297068D01*
X70655680Y-70297075D01*
X70645787Y-70567763D01*
X42349259Y-70567763D01*
X42354212Y-70432235D01*
X42324586Y-70162982D01*
X42256072Y-69900912D01*
X42150130Y-69651610D01*
X42009018Y-69420390D01*
X41919747Y-69313119D01*
X41835746Y-69212180D01*
X41835740Y-69212175D01*
X41634002Y-69031418D01*
X41408092Y-68881957D01*
X41408090Y-68881956D01*
X41162824Y-68766980D01*
X41162819Y-68766978D01*
X41162814Y-68766976D01*
X40903442Y-68688942D01*
X40903428Y-68688939D01*
X40787791Y-68671921D01*
X40635439Y-68649500D01*
X40432369Y-68649500D01*
X40432364Y-68649500D01*
X40229844Y-68664323D01*
X40229831Y-68664325D01*
X39965453Y-68723217D01*
X39965446Y-68723220D01*
X39712439Y-68819987D01*
X39476226Y-68952557D01*
X39261822Y-69118112D01*
X39073822Y-69313109D01*
X39073816Y-69313116D01*
X38916202Y-69533419D01*
X38916199Y-69533424D01*
X38792350Y-69774309D01*
X38792343Y-69774327D01*
X38704884Y-70030685D01*
X38704881Y-70030699D01*
X38655681Y-70297068D01*
X38655680Y-70297075D01*
X38645787Y-70567763D01*
X37500500Y-70567763D01*
X37500500Y-63931187D01*
X40249500Y-63931187D01*
X40269794Y-64065823D01*
X40288604Y-64190615D01*
X40288605Y-64190617D01*
X40288606Y-64190623D01*
X40365938Y-64441326D01*
X40479767Y-64677696D01*
X40479768Y-64677697D01*
X40479770Y-64677700D01*
X40479772Y-64677704D01*
X40627567Y-64894479D01*
X40806014Y-65086801D01*
X40806018Y-65086804D01*
X40806019Y-65086805D01*
X41011143Y-65250386D01*
X41238357Y-65381568D01*
X41482584Y-65477420D01*
X41738370Y-65535802D01*
X41738376Y-65535802D01*
X41738379Y-65535803D01*
X41934500Y-65550500D01*
X41934506Y-65550500D01*
X42065500Y-65550500D01*
X42261620Y-65535803D01*
X42261622Y-65535802D01*
X42261630Y-65535802D01*
X42517416Y-65477420D01*
X42601111Y-65444571D01*
X42670705Y-65438403D01*
X42732588Y-65470840D01*
X42764900Y-65523448D01*
X42825937Y-65721323D01*
X42825938Y-65721326D01*
X42939767Y-65957696D01*
X42939768Y-65957697D01*
X42939770Y-65957700D01*
X42939772Y-65957704D01*
X42989869Y-66031182D01*
X43087567Y-66174479D01*
X43266014Y-66366801D01*
X43266018Y-66366804D01*
X43266019Y-66366805D01*
X43471143Y-66530386D01*
X43698357Y-66661568D01*
X43942584Y-66757420D01*
X44198370Y-66815802D01*
X44198376Y-66815802D01*
X44198379Y-66815803D01*
X44394500Y-66830500D01*
X44394506Y-66830500D01*
X44525500Y-66830500D01*
X44721620Y-66815803D01*
X44721622Y-66815802D01*
X44721630Y-66815802D01*
X44977416Y-66757420D01*
X45221643Y-66661568D01*
X45221646Y-66661566D01*
X45221647Y-66661566D01*
X45264118Y-66637045D01*
X45332018Y-66620571D01*
X45398045Y-66643423D01*
X45437839Y-66690630D01*
X45479767Y-66777695D01*
X45479768Y-66777697D01*
X45479770Y-66777700D01*
X45479772Y-66777704D01*
X45505747Y-66815802D01*
X45627567Y-66994479D01*
X45806014Y-67186801D01*
X45806018Y-67186804D01*
X45806019Y-67186805D01*
X46011143Y-67350386D01*
X46238357Y-67481568D01*
X46482584Y-67577420D01*
X46738370Y-67635802D01*
X46738376Y-67635802D01*
X46738379Y-67635803D01*
X46934500Y-67650500D01*
X46934506Y-67650500D01*
X47065500Y-67650500D01*
X47261620Y-67635803D01*
X47261622Y-67635802D01*
X47261630Y-67635802D01*
X47517416Y-67577420D01*
X47761643Y-67481568D01*
X47988857Y-67350386D01*
X48193981Y-67186805D01*
X48372433Y-66994479D01*
X48520228Y-66777704D01*
X48634063Y-66541323D01*
X48711396Y-66290615D01*
X48750500Y-66031182D01*
X48750500Y-65768818D01*
X48711396Y-65509385D01*
X48634063Y-65258677D01*
X48551292Y-65086801D01*
X48520232Y-65022303D01*
X48520231Y-65022302D01*
X48520230Y-65022301D01*
X48520228Y-65022296D01*
X48372433Y-64805521D01*
X48362441Y-64794753D01*
X48193985Y-64613198D01*
X48154533Y-64581736D01*
X47988857Y-64449614D01*
X47761643Y-64318432D01*
X47517416Y-64222580D01*
X47517411Y-64222578D01*
X47517402Y-64222576D01*
X47299818Y-64172914D01*
X47261630Y-64164198D01*
X47261629Y-64164197D01*
X47261625Y-64164197D01*
X47261620Y-64164196D01*
X47065500Y-64149500D01*
X47065494Y-64149500D01*
X46934506Y-64149500D01*
X46934500Y-64149500D01*
X46738379Y-64164196D01*
X46738374Y-64164197D01*
X46482597Y-64222576D01*
X46482578Y-64222582D01*
X46238363Y-64318429D01*
X46238357Y-64318432D01*
X46195877Y-64342957D01*
X46127977Y-64359427D01*
X46061951Y-64336574D01*
X46022160Y-64289369D01*
X45980232Y-64202303D01*
X45980231Y-64202302D01*
X45980230Y-64202301D01*
X45980228Y-64202296D01*
X45832433Y-63985521D01*
X45782014Y-63931182D01*
X45653985Y-63793198D01*
X45498017Y-63668818D01*
X45448857Y-63629614D01*
X45221643Y-63498432D01*
X44977416Y-63402580D01*
X44977411Y-63402578D01*
X44977402Y-63402576D01*
X44759818Y-63352914D01*
X44721630Y-63344198D01*
X44721629Y-63344197D01*
X44721625Y-63344197D01*
X44721620Y-63344196D01*
X44525500Y-63329500D01*
X44525494Y-63329500D01*
X44394506Y-63329500D01*
X44394500Y-63329500D01*
X44198379Y-63344196D01*
X44198374Y-63344197D01*
X43942585Y-63402579D01*
X43858890Y-63435426D01*
X43789293Y-63441593D01*
X43727410Y-63409155D01*
X43695098Y-63356547D01*
X43641048Y-63181323D01*
X43634063Y-63158677D01*
X43622121Y-63133880D01*
X43520232Y-62922303D01*
X43520231Y-62922302D01*
X43520230Y-62922301D01*
X43520228Y-62922296D01*
X43372433Y-62705521D01*
X43340576Y-62671187D01*
X49059500Y-62671187D01*
X49079794Y-62805823D01*
X49098604Y-62930615D01*
X49098605Y-62930617D01*
X49098606Y-62930623D01*
X49175938Y-63181326D01*
X49289767Y-63417696D01*
X49289768Y-63417697D01*
X49289770Y-63417700D01*
X49289772Y-63417704D01*
X49338126Y-63488626D01*
X49437567Y-63634479D01*
X49616014Y-63826801D01*
X49616018Y-63826804D01*
X49616019Y-63826805D01*
X49821143Y-63990386D01*
X50048357Y-64121568D01*
X50292584Y-64217420D01*
X50548370Y-64275802D01*
X50548376Y-64275802D01*
X50548379Y-64275803D01*
X50744500Y-64290500D01*
X50744506Y-64290500D01*
X50875500Y-64290500D01*
X51071620Y-64275803D01*
X51071622Y-64275802D01*
X51071630Y-64275802D01*
X51327416Y-64217420D01*
X51571643Y-64121568D01*
X51798857Y-63990386D01*
X51873090Y-63931187D01*
X59249500Y-63931187D01*
X59269794Y-64065823D01*
X59288604Y-64190615D01*
X59288605Y-64190617D01*
X59288606Y-64190623D01*
X59365938Y-64441326D01*
X59479767Y-64677696D01*
X59479768Y-64677697D01*
X59479770Y-64677700D01*
X59479772Y-64677704D01*
X59627567Y-64894479D01*
X59806014Y-65086801D01*
X59806018Y-65086804D01*
X59806019Y-65086805D01*
X60011143Y-65250386D01*
X60238357Y-65381568D01*
X60482584Y-65477420D01*
X60738370Y-65535802D01*
X60738376Y-65535802D01*
X60738379Y-65535803D01*
X60934500Y-65550500D01*
X60934506Y-65550500D01*
X61065500Y-65550500D01*
X61261620Y-65535803D01*
X61261622Y-65535802D01*
X61261630Y-65535802D01*
X61517416Y-65477420D01*
X61601111Y-65444571D01*
X61670705Y-65438403D01*
X61732588Y-65470840D01*
X61764900Y-65523448D01*
X61825937Y-65721323D01*
X61825938Y-65721326D01*
X61939767Y-65957696D01*
X61939768Y-65957697D01*
X61939770Y-65957700D01*
X61939772Y-65957704D01*
X61989869Y-66031182D01*
X62087567Y-66174479D01*
X62266014Y-66366801D01*
X62266018Y-66366804D01*
X62266019Y-66366805D01*
X62471143Y-66530386D01*
X62698357Y-66661568D01*
X62942584Y-66757420D01*
X63198370Y-66815802D01*
X63198376Y-66815802D01*
X63198379Y-66815803D01*
X63394500Y-66830500D01*
X63394506Y-66830500D01*
X63525500Y-66830500D01*
X63721620Y-66815803D01*
X63721622Y-66815802D01*
X63721630Y-66815802D01*
X63977416Y-66757420D01*
X64221643Y-66661568D01*
X64221646Y-66661566D01*
X64221647Y-66661566D01*
X64264118Y-66637045D01*
X64332018Y-66620571D01*
X64398045Y-66643423D01*
X64437839Y-66690630D01*
X64479767Y-66777695D01*
X64479768Y-66777697D01*
X64479770Y-66777700D01*
X64479772Y-66777704D01*
X64505747Y-66815802D01*
X64627567Y-66994479D01*
X64806014Y-67186801D01*
X64806018Y-67186804D01*
X64806019Y-67186805D01*
X65011143Y-67350386D01*
X65238357Y-67481568D01*
X65482584Y-67577420D01*
X65738370Y-67635802D01*
X65738376Y-67635802D01*
X65738379Y-67635803D01*
X65934500Y-67650500D01*
X65934506Y-67650500D01*
X66065500Y-67650500D01*
X66261620Y-67635803D01*
X66261622Y-67635802D01*
X66261630Y-67635802D01*
X66517416Y-67577420D01*
X66761643Y-67481568D01*
X66988857Y-67350386D01*
X67193981Y-67186805D01*
X67372433Y-66994479D01*
X67520228Y-66777704D01*
X67634063Y-66541323D01*
X67711396Y-66290615D01*
X67750500Y-66031182D01*
X67750500Y-65768818D01*
X67711396Y-65509385D01*
X67634063Y-65258677D01*
X67551292Y-65086801D01*
X67520232Y-65022303D01*
X67520231Y-65022302D01*
X67520230Y-65022301D01*
X67520228Y-65022296D01*
X67372433Y-64805521D01*
X67362441Y-64794753D01*
X67193985Y-64613198D01*
X67154533Y-64581736D01*
X66988857Y-64449614D01*
X66761643Y-64318432D01*
X66517416Y-64222580D01*
X66517411Y-64222578D01*
X66517402Y-64222576D01*
X66299818Y-64172914D01*
X66261630Y-64164198D01*
X66261629Y-64164197D01*
X66261625Y-64164197D01*
X66261620Y-64164196D01*
X66065500Y-64149500D01*
X66065494Y-64149500D01*
X65934506Y-64149500D01*
X65934500Y-64149500D01*
X65738379Y-64164196D01*
X65738374Y-64164197D01*
X65482597Y-64222576D01*
X65482578Y-64222582D01*
X65238363Y-64318429D01*
X65238357Y-64318432D01*
X65195877Y-64342957D01*
X65127977Y-64359427D01*
X65061951Y-64336574D01*
X65022160Y-64289369D01*
X64980232Y-64202303D01*
X64980231Y-64202302D01*
X64980230Y-64202301D01*
X64980228Y-64202296D01*
X64832433Y-63985521D01*
X64782014Y-63931182D01*
X64653985Y-63793198D01*
X64498017Y-63668818D01*
X64448857Y-63629614D01*
X64221643Y-63498432D01*
X63977416Y-63402580D01*
X63977411Y-63402578D01*
X63977402Y-63402576D01*
X63759818Y-63352914D01*
X63721630Y-63344198D01*
X63721629Y-63344197D01*
X63721625Y-63344197D01*
X63721620Y-63344196D01*
X63525500Y-63329500D01*
X63525494Y-63329500D01*
X63394506Y-63329500D01*
X63394500Y-63329500D01*
X63198379Y-63344196D01*
X63198374Y-63344197D01*
X62942585Y-63402579D01*
X62858890Y-63435426D01*
X62789293Y-63441593D01*
X62727410Y-63409155D01*
X62695098Y-63356547D01*
X62641048Y-63181323D01*
X62634063Y-63158677D01*
X62622121Y-63133880D01*
X62520232Y-62922303D01*
X62520231Y-62922302D01*
X62520230Y-62922301D01*
X62520228Y-62922296D01*
X62372433Y-62705521D01*
X62340576Y-62671187D01*
X68059500Y-62671187D01*
X68079794Y-62805823D01*
X68098604Y-62930615D01*
X68098605Y-62930617D01*
X68098606Y-62930623D01*
X68175938Y-63181326D01*
X68289767Y-63417696D01*
X68289768Y-63417697D01*
X68289770Y-63417700D01*
X68289772Y-63417704D01*
X68338126Y-63488626D01*
X68437567Y-63634479D01*
X68616014Y-63826801D01*
X68616018Y-63826804D01*
X68616019Y-63826805D01*
X68821143Y-63990386D01*
X69048357Y-64121568D01*
X69292584Y-64217420D01*
X69548370Y-64275802D01*
X69548376Y-64275802D01*
X69548379Y-64275803D01*
X69744500Y-64290500D01*
X69744506Y-64290500D01*
X69875500Y-64290500D01*
X70071620Y-64275803D01*
X70071622Y-64275802D01*
X70071630Y-64275802D01*
X70327416Y-64217420D01*
X70571643Y-64121568D01*
X70798857Y-63990386D01*
X71003981Y-63826805D01*
X71035167Y-63793195D01*
X71043945Y-63783733D01*
X71182433Y-63634479D01*
X71330228Y-63417704D01*
X71444063Y-63181323D01*
X71521396Y-62930615D01*
X71560500Y-62671182D01*
X71560500Y-62408818D01*
X71521396Y-62149385D01*
X71444063Y-61898677D01*
X71382165Y-61770144D01*
X71330232Y-61662303D01*
X71330225Y-61662292D01*
X71282720Y-61592615D01*
X71261219Y-61526136D01*
X71279073Y-61458586D01*
X71330613Y-61411411D01*
X71374657Y-61399210D01*
X71537536Y-61385347D01*
X71537539Y-61385346D01*
X71537541Y-61385346D01*
X71768249Y-61325275D01*
X71927707Y-61253195D01*
X71985480Y-61227080D01*
X71985481Y-61227078D01*
X71985486Y-61227077D01*
X72183003Y-61093579D01*
X72355118Y-60928621D01*
X72496879Y-60736947D01*
X72604207Y-60524074D01*
X72674016Y-60296123D01*
X72704298Y-60059654D01*
X72694180Y-59821468D01*
X72683999Y-59774230D01*
X72643954Y-59588419D01*
X72555064Y-59367211D01*
X72555064Y-59367210D01*
X72430069Y-59164205D01*
X72272564Y-58985245D01*
X72087080Y-58835477D01*
X71973130Y-58771820D01*
X71878955Y-58719210D01*
X71654170Y-58639788D01*
X71419209Y-58599500D01*
X71419200Y-58599500D01*
X71240503Y-58599500D01*
X71240498Y-58599500D01*
X71062463Y-58614652D01*
X70831751Y-58674724D01*
X70614519Y-58772919D01*
X70614511Y-58772924D01*
X70417006Y-58906413D01*
X70416997Y-58906421D01*
X70244881Y-59071379D01*
X70103123Y-59263050D01*
X70103120Y-59263054D01*
X69995796Y-59475920D01*
X69995793Y-59475926D01*
X69925983Y-59703878D01*
X69895702Y-59940346D01*
X69905819Y-60178528D01*
X69905819Y-60178532D01*
X69956046Y-60411582D01*
X69956046Y-60411583D01*
X70040876Y-60622689D01*
X70047607Y-60692233D01*
X70015671Y-60754377D01*
X69955207Y-60789390D01*
X69916552Y-60792576D01*
X69875500Y-60789500D01*
X69875494Y-60789500D01*
X69744506Y-60789500D01*
X69744500Y-60789500D01*
X69548379Y-60804196D01*
X69548374Y-60804197D01*
X69292597Y-60862576D01*
X69292578Y-60862582D01*
X69048356Y-60958432D01*
X68821143Y-61089614D01*
X68616014Y-61253198D01*
X68437567Y-61445520D01*
X68289768Y-61662302D01*
X68289767Y-61662303D01*
X68175938Y-61898673D01*
X68098606Y-62149376D01*
X68098605Y-62149381D01*
X68098604Y-62149385D01*
X68088197Y-62218432D01*
X68059500Y-62408812D01*
X68059500Y-62671187D01*
X62340576Y-62671187D01*
X62340571Y-62671182D01*
X62193985Y-62513198D01*
X62063095Y-62408817D01*
X61988857Y-62349614D01*
X61761643Y-62218432D01*
X61517416Y-62122580D01*
X61517411Y-62122578D01*
X61517402Y-62122576D01*
X61299818Y-62072914D01*
X61261630Y-62064198D01*
X61261629Y-62064197D01*
X61261625Y-62064197D01*
X61261620Y-62064196D01*
X61065500Y-62049500D01*
X61065494Y-62049500D01*
X60934506Y-62049500D01*
X60934500Y-62049500D01*
X60738379Y-62064196D01*
X60738374Y-62064197D01*
X60482597Y-62122576D01*
X60482578Y-62122582D01*
X60238356Y-62218432D01*
X60011143Y-62349614D01*
X59806014Y-62513198D01*
X59627567Y-62705520D01*
X59479768Y-62922302D01*
X59479767Y-62922303D01*
X59365938Y-63158673D01*
X59288606Y-63409376D01*
X59288605Y-63409381D01*
X59288604Y-63409385D01*
X59276660Y-63488626D01*
X59249500Y-63668812D01*
X59249500Y-63931187D01*
X51873090Y-63931187D01*
X52003981Y-63826805D01*
X52035167Y-63793195D01*
X52043945Y-63783733D01*
X52182433Y-63634479D01*
X52330228Y-63417704D01*
X52444063Y-63181323D01*
X52521396Y-62930615D01*
X52560500Y-62671182D01*
X52560500Y-62408818D01*
X52521396Y-62149385D01*
X52444063Y-61898677D01*
X52382165Y-61770144D01*
X52330232Y-61662303D01*
X52330225Y-61662292D01*
X52282720Y-61592615D01*
X52261219Y-61526136D01*
X52279073Y-61458586D01*
X52330613Y-61411411D01*
X52374657Y-61399210D01*
X52537536Y-61385347D01*
X52537539Y-61385346D01*
X52537541Y-61385346D01*
X52768249Y-61325275D01*
X52927707Y-61253195D01*
X52985480Y-61227080D01*
X52985481Y-61227078D01*
X52985486Y-61227077D01*
X53183003Y-61093579D01*
X53355118Y-60928621D01*
X53496879Y-60736947D01*
X53604207Y-60524074D01*
X53674016Y-60296123D01*
X53704298Y-60059654D01*
X53699230Y-59940346D01*
X59295702Y-59940346D01*
X59305819Y-60178528D01*
X59305819Y-60178532D01*
X59356045Y-60411580D01*
X59440877Y-60622689D01*
X59444936Y-60632790D01*
X59569931Y-60835795D01*
X59727436Y-61014755D01*
X59912920Y-61164523D01*
X60121046Y-61280790D01*
X60246951Y-61325275D01*
X60345829Y-61360211D01*
X60580790Y-61400499D01*
X60580798Y-61400499D01*
X60580800Y-61400500D01*
X60580801Y-61400500D01*
X60759502Y-61400500D01*
X60937536Y-61385347D01*
X60937539Y-61385346D01*
X60937541Y-61385346D01*
X61168249Y-61325275D01*
X61327707Y-61253195D01*
X61385480Y-61227080D01*
X61385481Y-61227078D01*
X61385486Y-61227077D01*
X61583003Y-61093579D01*
X61755118Y-60928621D01*
X61896879Y-60736947D01*
X62004207Y-60524074D01*
X62074016Y-60296123D01*
X62102285Y-60075373D01*
X63745723Y-60075373D01*
X63775881Y-60375160D01*
X63775882Y-60375162D01*
X63845728Y-60668252D01*
X63845733Y-60668266D01*
X63954020Y-60949427D01*
X63954024Y-60949436D01*
X64098825Y-61213665D01*
X64098829Y-61213671D01*
X64206801Y-61360211D01*
X64277554Y-61456238D01*
X64277561Y-61456245D01*
X64487019Y-61672823D01*
X64723478Y-61859553D01*
X64723480Y-61859554D01*
X64723485Y-61859558D01*
X64982730Y-62013109D01*
X65260128Y-62130736D01*
X65550729Y-62210340D01*
X65849347Y-62250500D01*
X65849351Y-62250500D01*
X66075252Y-62250500D01*
X66239164Y-62239526D01*
X66300634Y-62235412D01*
X66595903Y-62175396D01*
X66880537Y-62076560D01*
X67149459Y-61940668D01*
X67397869Y-61770144D01*
X67621333Y-61568032D01*
X67815865Y-61337939D01*
X67977993Y-61083970D01*
X68104823Y-60810658D01*
X68194093Y-60522879D01*
X68244209Y-60225770D01*
X68254277Y-59924631D01*
X68224118Y-59624838D01*
X68154269Y-59331739D01*
X68045977Y-59050566D01*
X67901175Y-58786335D01*
X67722446Y-58543762D01*
X67512980Y-58327176D01*
X67389742Y-58229856D01*
X67276521Y-58140446D01*
X67276517Y-58140443D01*
X67276515Y-58140442D01*
X67017270Y-57986891D01*
X66739872Y-57869264D01*
X66739863Y-57869261D01*
X66449272Y-57789660D01*
X66374616Y-57779620D01*
X66150653Y-57749500D01*
X65924756Y-57749500D01*
X65924748Y-57749500D01*
X65699368Y-57764587D01*
X65699359Y-57764589D01*
X65404094Y-57824604D01*
X65119464Y-57923439D01*
X65119459Y-57923441D01*
X64850546Y-58059328D01*
X64602125Y-58229860D01*
X64378665Y-58431969D01*
X64184132Y-58662064D01*
X64022006Y-58916030D01*
X64022005Y-58916032D01*
X63906842Y-59164205D01*
X63895177Y-59189342D01*
X63895176Y-59189346D01*
X63805907Y-59477118D01*
X63787133Y-59588419D01*
X63755791Y-59774230D01*
X63746249Y-60059654D01*
X63745723Y-60075373D01*
X62102285Y-60075373D01*
X62104298Y-60059654D01*
X62094180Y-59821468D01*
X62083999Y-59774230D01*
X62043954Y-59588419D01*
X61955064Y-59367211D01*
X61955064Y-59367210D01*
X61830069Y-59164205D01*
X61672564Y-58985245D01*
X61487080Y-58835477D01*
X61373130Y-58771820D01*
X61278955Y-58719210D01*
X61054170Y-58639788D01*
X60819209Y-58599500D01*
X60819200Y-58599500D01*
X60640503Y-58599500D01*
X60640498Y-58599500D01*
X60462463Y-58614652D01*
X60231751Y-58674724D01*
X60014519Y-58772919D01*
X60014511Y-58772924D01*
X59817006Y-58906413D01*
X59816997Y-58906421D01*
X59644881Y-59071379D01*
X59503123Y-59263050D01*
X59503120Y-59263054D01*
X59395796Y-59475920D01*
X59395793Y-59475926D01*
X59325983Y-59703878D01*
X59295702Y-59940346D01*
X53699230Y-59940346D01*
X53694180Y-59821468D01*
X53683999Y-59774230D01*
X53643954Y-59588419D01*
X53555064Y-59367211D01*
X53555064Y-59367210D01*
X53430069Y-59164205D01*
X53272564Y-58985245D01*
X53087080Y-58835477D01*
X52973130Y-58771820D01*
X52878955Y-58719210D01*
X52654170Y-58639788D01*
X52419209Y-58599500D01*
X52419200Y-58599500D01*
X52240503Y-58599500D01*
X52240498Y-58599500D01*
X52062463Y-58614652D01*
X51831751Y-58674724D01*
X51614519Y-58772919D01*
X51614511Y-58772924D01*
X51417006Y-58906413D01*
X51416997Y-58906421D01*
X51244881Y-59071379D01*
X51103123Y-59263050D01*
X51103120Y-59263054D01*
X50995796Y-59475920D01*
X50995793Y-59475926D01*
X50925983Y-59703878D01*
X50895702Y-59940346D01*
X50905819Y-60178528D01*
X50905819Y-60178532D01*
X50956046Y-60411582D01*
X50956046Y-60411583D01*
X51040876Y-60622689D01*
X51047607Y-60692233D01*
X51015671Y-60754377D01*
X50955207Y-60789390D01*
X50916552Y-60792576D01*
X50875500Y-60789500D01*
X50875494Y-60789500D01*
X50744506Y-60789500D01*
X50744500Y-60789500D01*
X50548379Y-60804196D01*
X50548374Y-60804197D01*
X50292597Y-60862576D01*
X50292578Y-60862582D01*
X50048356Y-60958432D01*
X49821143Y-61089614D01*
X49616014Y-61253198D01*
X49437567Y-61445520D01*
X49289768Y-61662302D01*
X49289767Y-61662303D01*
X49175938Y-61898673D01*
X49098606Y-62149376D01*
X49098605Y-62149381D01*
X49098604Y-62149385D01*
X49088197Y-62218432D01*
X49059500Y-62408812D01*
X49059500Y-62671187D01*
X43340576Y-62671187D01*
X43340571Y-62671182D01*
X43193985Y-62513198D01*
X43063095Y-62408817D01*
X42988857Y-62349614D01*
X42761643Y-62218432D01*
X42517416Y-62122580D01*
X42517411Y-62122578D01*
X42517402Y-62122576D01*
X42299818Y-62072914D01*
X42261630Y-62064198D01*
X42261629Y-62064197D01*
X42261625Y-62064197D01*
X42261620Y-62064196D01*
X42065500Y-62049500D01*
X42065494Y-62049500D01*
X41934506Y-62049500D01*
X41934500Y-62049500D01*
X41738379Y-62064196D01*
X41738374Y-62064197D01*
X41482597Y-62122576D01*
X41482578Y-62122582D01*
X41238356Y-62218432D01*
X41011143Y-62349614D01*
X40806014Y-62513198D01*
X40627567Y-62705520D01*
X40479768Y-62922302D01*
X40479767Y-62922303D01*
X40365938Y-63158673D01*
X40288606Y-63409376D01*
X40288605Y-63409381D01*
X40288604Y-63409385D01*
X40276660Y-63488626D01*
X40249500Y-63668812D01*
X40249500Y-63931187D01*
X37500500Y-63931187D01*
X37500500Y-59940346D01*
X40295702Y-59940346D01*
X40305819Y-60178528D01*
X40305819Y-60178532D01*
X40356045Y-60411580D01*
X40440877Y-60622689D01*
X40444936Y-60632790D01*
X40569931Y-60835795D01*
X40727436Y-61014755D01*
X40912920Y-61164523D01*
X41121046Y-61280790D01*
X41246951Y-61325275D01*
X41345829Y-61360211D01*
X41580790Y-61400499D01*
X41580798Y-61400499D01*
X41580800Y-61400500D01*
X41580801Y-61400500D01*
X41759502Y-61400500D01*
X41937536Y-61385347D01*
X41937539Y-61385346D01*
X41937541Y-61385346D01*
X42168249Y-61325275D01*
X42327707Y-61253195D01*
X42385480Y-61227080D01*
X42385481Y-61227078D01*
X42385486Y-61227077D01*
X42583003Y-61093579D01*
X42755118Y-60928621D01*
X42896879Y-60736947D01*
X43004207Y-60524074D01*
X43074016Y-60296123D01*
X43102285Y-60075373D01*
X44745723Y-60075373D01*
X44775881Y-60375160D01*
X44775882Y-60375162D01*
X44845728Y-60668252D01*
X44845733Y-60668266D01*
X44954020Y-60949427D01*
X44954024Y-60949436D01*
X45098825Y-61213665D01*
X45098829Y-61213671D01*
X45206801Y-61360211D01*
X45277554Y-61456238D01*
X45277561Y-61456245D01*
X45487019Y-61672823D01*
X45723478Y-61859553D01*
X45723480Y-61859554D01*
X45723485Y-61859558D01*
X45982730Y-62013109D01*
X46260128Y-62130736D01*
X46550729Y-62210340D01*
X46849347Y-62250500D01*
X46849351Y-62250500D01*
X47075252Y-62250500D01*
X47239164Y-62239526D01*
X47300634Y-62235412D01*
X47595903Y-62175396D01*
X47880537Y-62076560D01*
X48149459Y-61940668D01*
X48397869Y-61770144D01*
X48621333Y-61568032D01*
X48815865Y-61337939D01*
X48977993Y-61083970D01*
X49104823Y-60810658D01*
X49194093Y-60522879D01*
X49244209Y-60225770D01*
X49254277Y-59924631D01*
X49224118Y-59624838D01*
X49154269Y-59331739D01*
X49045977Y-59050566D01*
X48901175Y-58786335D01*
X48722446Y-58543762D01*
X48512980Y-58327176D01*
X48389742Y-58229856D01*
X48276521Y-58140446D01*
X48276517Y-58140443D01*
X48276515Y-58140442D01*
X48017270Y-57986891D01*
X47739872Y-57869264D01*
X47739863Y-57869261D01*
X47449272Y-57789660D01*
X47374616Y-57779620D01*
X47150653Y-57749500D01*
X46924756Y-57749500D01*
X46924748Y-57749500D01*
X46699368Y-57764587D01*
X46699359Y-57764589D01*
X46404094Y-57824604D01*
X46119464Y-57923439D01*
X46119459Y-57923441D01*
X45850546Y-58059328D01*
X45602125Y-58229860D01*
X45378665Y-58431969D01*
X45184132Y-58662064D01*
X45022006Y-58916030D01*
X45022005Y-58916032D01*
X44906842Y-59164205D01*
X44895177Y-59189342D01*
X44895176Y-59189346D01*
X44805907Y-59477118D01*
X44787133Y-59588419D01*
X44755791Y-59774230D01*
X44746249Y-60059654D01*
X44745723Y-60075373D01*
X43102285Y-60075373D01*
X43104298Y-60059654D01*
X43094180Y-59821468D01*
X43083999Y-59774230D01*
X43043954Y-59588419D01*
X42955064Y-59367211D01*
X42955064Y-59367210D01*
X42830069Y-59164205D01*
X42672564Y-58985245D01*
X42487080Y-58835477D01*
X42373130Y-58771820D01*
X42278955Y-58719210D01*
X42054170Y-58639788D01*
X41819209Y-58599500D01*
X41819200Y-58599500D01*
X41640503Y-58599500D01*
X41640498Y-58599500D01*
X41462463Y-58614652D01*
X41231751Y-58674724D01*
X41014519Y-58772919D01*
X41014511Y-58772924D01*
X40817006Y-58906413D01*
X40816997Y-58906421D01*
X40644881Y-59071379D01*
X40503123Y-59263050D01*
X40503120Y-59263054D01*
X40395796Y-59475920D01*
X40395793Y-59475926D01*
X40325983Y-59703878D01*
X40295702Y-59940346D01*
X37500500Y-59940346D01*
X37500500Y-56428133D01*
X41025668Y-56428133D01*
X41041058Y-56515410D01*
X41056135Y-56600911D01*
X41125623Y-56762004D01*
X41125624Y-56762006D01*
X41125626Y-56762009D01*
X41180278Y-56835418D01*
X41230390Y-56902730D01*
X41364786Y-57015502D01*
X41442488Y-57054525D01*
X41521562Y-57094238D01*
X41521563Y-57094238D01*
X41521567Y-57094240D01*
X41692279Y-57134700D01*
X41692282Y-57134700D01*
X41823701Y-57134700D01*
X41823709Y-57134700D01*
X41954255Y-57119441D01*
X42119117Y-57059437D01*
X42265696Y-56963030D01*
X42386092Y-56835418D01*
X42473812Y-56683481D01*
X42524130Y-56515410D01*
X42534331Y-56340265D01*
X42503865Y-56167489D01*
X42434377Y-56006396D01*
X42329610Y-55865670D01*
X42257747Y-55805370D01*
X42195214Y-55752898D01*
X42195212Y-55752897D01*
X42038437Y-55674161D01*
X42038433Y-55674160D01*
X41867721Y-55633700D01*
X41736291Y-55633700D01*
X41631854Y-55645907D01*
X41605743Y-55648959D01*
X41605740Y-55648960D01*
X41440884Y-55708962D01*
X41440880Y-55708964D01*
X41294306Y-55805367D01*
X41294305Y-55805368D01*
X41173910Y-55932978D01*
X41086188Y-56084918D01*
X41035870Y-56252989D01*
X41035869Y-56252994D01*
X41025668Y-56428133D01*
X37500500Y-56428133D01*
X37500500Y-53050000D01*
X38786296Y-53050000D01*
X38807034Y-53220801D01*
X38864208Y-53371556D01*
X38868046Y-53381675D01*
X38953955Y-53506134D01*
X38965786Y-53523274D01*
X38965789Y-53523277D01*
X39094567Y-53637365D01*
X39094568Y-53637365D01*
X39094570Y-53637367D01*
X39246917Y-53717325D01*
X39246919Y-53717325D01*
X39246920Y-53717326D01*
X39413972Y-53758500D01*
X39586028Y-53758500D01*
X39753079Y-53717326D01*
X39753079Y-53717325D01*
X39753083Y-53717325D01*
X39905430Y-53637367D01*
X40034215Y-53523273D01*
X40131954Y-53381675D01*
X40192965Y-53220801D01*
X40213704Y-53050000D01*
X40203772Y-52968216D01*
X40203367Y-52963101D01*
X40202650Y-52944077D01*
X40197579Y-52916291D01*
X40197025Y-52912642D01*
X40192965Y-52879200D01*
X40192823Y-52878825D01*
X40186778Y-52857111D01*
X40177976Y-52808882D01*
X40137515Y-52587172D01*
X40135500Y-52564910D01*
X40135500Y-45506094D01*
X40155185Y-45439055D01*
X40207989Y-45393300D01*
X40277147Y-45383356D01*
X40340703Y-45412381D01*
X40371220Y-45452293D01*
X40479767Y-45677696D01*
X40479768Y-45677697D01*
X40479770Y-45677700D01*
X40479772Y-45677704D01*
X40627567Y-45894479D01*
X40806014Y-46086801D01*
X40806018Y-46086804D01*
X40806019Y-46086805D01*
X41011143Y-46250386D01*
X41238357Y-46381568D01*
X41482584Y-46477420D01*
X41738370Y-46535802D01*
X41738376Y-46535802D01*
X41738379Y-46535803D01*
X41934500Y-46550500D01*
X41934506Y-46550500D01*
X42065500Y-46550500D01*
X42261620Y-46535803D01*
X42261622Y-46535802D01*
X42261630Y-46535802D01*
X42517416Y-46477420D01*
X42601111Y-46444571D01*
X42670705Y-46438403D01*
X42732588Y-46470840D01*
X42764900Y-46523448D01*
X42825937Y-46721323D01*
X42825938Y-46721326D01*
X42939767Y-46957696D01*
X42939768Y-46957697D01*
X42939770Y-46957700D01*
X42939772Y-46957704D01*
X43015510Y-47068791D01*
X43087567Y-47174479D01*
X43266014Y-47366801D01*
X43266018Y-47366804D01*
X43266019Y-47366805D01*
X43471143Y-47530386D01*
X43698357Y-47661568D01*
X43942584Y-47757420D01*
X44198370Y-47815802D01*
X44198376Y-47815802D01*
X44198379Y-47815803D01*
X44394500Y-47830500D01*
X44394506Y-47830500D01*
X44525500Y-47830500D01*
X44721620Y-47815803D01*
X44721622Y-47815802D01*
X44721630Y-47815802D01*
X44977416Y-47757420D01*
X45221643Y-47661568D01*
X45221646Y-47661566D01*
X45221647Y-47661566D01*
X45264118Y-47637045D01*
X45332018Y-47620571D01*
X45398045Y-47643423D01*
X45437839Y-47690630D01*
X45479767Y-47777695D01*
X45479768Y-47777697D01*
X45479770Y-47777700D01*
X45479772Y-47777704D01*
X45505747Y-47815802D01*
X45627567Y-47994479D01*
X45806014Y-48186801D01*
X45806018Y-48186804D01*
X45806019Y-48186805D01*
X46011143Y-48350386D01*
X46238357Y-48481568D01*
X46482584Y-48577420D01*
X46738370Y-48635802D01*
X46738376Y-48635802D01*
X46738379Y-48635803D01*
X46934500Y-48650500D01*
X46934506Y-48650500D01*
X47065500Y-48650500D01*
X47261620Y-48635803D01*
X47261622Y-48635802D01*
X47261630Y-48635802D01*
X47517416Y-48577420D01*
X47761643Y-48481568D01*
X47988857Y-48350386D01*
X48193981Y-48186805D01*
X48372433Y-47994479D01*
X48520228Y-47777704D01*
X48634063Y-47541323D01*
X48711396Y-47290615D01*
X48750500Y-47031182D01*
X48750500Y-46768818D01*
X48711396Y-46509385D01*
X48634063Y-46258677D01*
X48529186Y-46040897D01*
X48520232Y-46022303D01*
X48520231Y-46022302D01*
X48520230Y-46022301D01*
X48520228Y-46022296D01*
X48372433Y-45805521D01*
X48362441Y-45794753D01*
X48193985Y-45613198D01*
X48091516Y-45531482D01*
X47988857Y-45449614D01*
X47761643Y-45318432D01*
X47517416Y-45222580D01*
X47517411Y-45222578D01*
X47517402Y-45222576D01*
X47299818Y-45172914D01*
X47261630Y-45164198D01*
X47261629Y-45164197D01*
X47261625Y-45164197D01*
X47261620Y-45164196D01*
X47065500Y-45149500D01*
X47065494Y-45149500D01*
X46934506Y-45149500D01*
X46934500Y-45149500D01*
X46738379Y-45164196D01*
X46738374Y-45164197D01*
X46482597Y-45222576D01*
X46482578Y-45222582D01*
X46238363Y-45318429D01*
X46238357Y-45318432D01*
X46195877Y-45342957D01*
X46127977Y-45359427D01*
X46061951Y-45336574D01*
X46022160Y-45289369D01*
X45980232Y-45202303D01*
X45980231Y-45202302D01*
X45980230Y-45202301D01*
X45980228Y-45202296D01*
X45832433Y-44985521D01*
X45782014Y-44931182D01*
X45653985Y-44793198D01*
X45498017Y-44668818D01*
X45448857Y-44629614D01*
X45221643Y-44498432D01*
X44977416Y-44402580D01*
X44977411Y-44402578D01*
X44977402Y-44402576D01*
X44759818Y-44352914D01*
X44721630Y-44344198D01*
X44721629Y-44344197D01*
X44721625Y-44344197D01*
X44721620Y-44344196D01*
X44525500Y-44329500D01*
X44525494Y-44329500D01*
X44394506Y-44329500D01*
X44394500Y-44329500D01*
X44198379Y-44344196D01*
X44198374Y-44344197D01*
X43942585Y-44402579D01*
X43858890Y-44435426D01*
X43789293Y-44441593D01*
X43727410Y-44409155D01*
X43695098Y-44356547D01*
X43652324Y-44217879D01*
X43634063Y-44158677D01*
X43622121Y-44133880D01*
X43520232Y-43922303D01*
X43520231Y-43922302D01*
X43520230Y-43922300D01*
X43520228Y-43922296D01*
X43372433Y-43705521D01*
X43340576Y-43671187D01*
X49059500Y-43671187D01*
X49079794Y-43805823D01*
X49098604Y-43930615D01*
X49098605Y-43930617D01*
X49098606Y-43930623D01*
X49175938Y-44181326D01*
X49289767Y-44417696D01*
X49289768Y-44417697D01*
X49289770Y-44417700D01*
X49289772Y-44417704D01*
X49399095Y-44578051D01*
X49437567Y-44634479D01*
X49616014Y-44826801D01*
X49616018Y-44826804D01*
X49616019Y-44826805D01*
X49821143Y-44990386D01*
X50048357Y-45121568D01*
X50292584Y-45217420D01*
X50548370Y-45275802D01*
X50548376Y-45275802D01*
X50548379Y-45275803D01*
X50744500Y-45290500D01*
X50744506Y-45290500D01*
X50875500Y-45290500D01*
X51071620Y-45275803D01*
X51071622Y-45275802D01*
X51071630Y-45275802D01*
X51327416Y-45217420D01*
X51571643Y-45121568D01*
X51798857Y-44990386D01*
X52003981Y-44826805D01*
X52035167Y-44793195D01*
X52043945Y-44783733D01*
X52182433Y-44634479D01*
X52330228Y-44417704D01*
X52444063Y-44181323D01*
X52521396Y-43930615D01*
X52560500Y-43671182D01*
X52560500Y-43408818D01*
X52521396Y-43149385D01*
X52444063Y-42898677D01*
X52382165Y-42770144D01*
X52330232Y-42662303D01*
X52330225Y-42662292D01*
X52316741Y-42642515D01*
X52282719Y-42592614D01*
X52261219Y-42526136D01*
X52279073Y-42458586D01*
X52330613Y-42411411D01*
X52374657Y-42399210D01*
X52537536Y-42385347D01*
X52537539Y-42385346D01*
X52537541Y-42385346D01*
X52768249Y-42325275D01*
X52900973Y-42265279D01*
X52985480Y-42227080D01*
X52985481Y-42227078D01*
X52985486Y-42227077D01*
X53183003Y-42093579D01*
X53355118Y-41928621D01*
X53496879Y-41736947D01*
X53604207Y-41524074D01*
X53674016Y-41296123D01*
X53704298Y-41059654D01*
X53694180Y-40821468D01*
X53683999Y-40774230D01*
X53643954Y-40588419D01*
X53555064Y-40367210D01*
X53430069Y-40164205D01*
X53272564Y-39985245D01*
X53087080Y-39835477D01*
X52967713Y-39768794D01*
X52878955Y-39719210D01*
X52654170Y-39639788D01*
X52419209Y-39599500D01*
X52419200Y-39599500D01*
X52240503Y-39599500D01*
X52240498Y-39599500D01*
X52062463Y-39614652D01*
X51831751Y-39674724D01*
X51614519Y-39772919D01*
X51614511Y-39772924D01*
X51417006Y-39906413D01*
X51416997Y-39906421D01*
X51244881Y-40071379D01*
X51103123Y-40263050D01*
X51103120Y-40263054D01*
X50995796Y-40475920D01*
X50995793Y-40475926D01*
X50925983Y-40703878D01*
X50895702Y-40940346D01*
X50905819Y-41178528D01*
X50905819Y-41178532D01*
X50956046Y-41411582D01*
X50956046Y-41411583D01*
X51040876Y-41622689D01*
X51047607Y-41692233D01*
X51015671Y-41754377D01*
X50955207Y-41789390D01*
X50916552Y-41792576D01*
X50875500Y-41789500D01*
X50875494Y-41789500D01*
X50744506Y-41789500D01*
X50744500Y-41789500D01*
X50548379Y-41804196D01*
X50548374Y-41804197D01*
X50292597Y-41862576D01*
X50292578Y-41862582D01*
X50048356Y-41958432D01*
X49821143Y-42089614D01*
X49616014Y-42253198D01*
X49437567Y-42445520D01*
X49337280Y-42592615D01*
X49303259Y-42642515D01*
X49289768Y-42662302D01*
X49289767Y-42662303D01*
X49175938Y-42898673D01*
X49098606Y-43149376D01*
X49098605Y-43149381D01*
X49098604Y-43149385D01*
X49088197Y-43218432D01*
X49059500Y-43408812D01*
X49059500Y-43671187D01*
X43340576Y-43671187D01*
X43340571Y-43671182D01*
X43193985Y-43513198D01*
X43063095Y-43408817D01*
X42988857Y-43349614D01*
X42761643Y-43218432D01*
X42517416Y-43122580D01*
X42517411Y-43122578D01*
X42517402Y-43122576D01*
X42299818Y-43072914D01*
X42261630Y-43064198D01*
X42261629Y-43064197D01*
X42261625Y-43064197D01*
X42261620Y-43064196D01*
X42065500Y-43049500D01*
X42065494Y-43049500D01*
X41934506Y-43049500D01*
X41934500Y-43049500D01*
X41738379Y-43064196D01*
X41738374Y-43064197D01*
X41482597Y-43122576D01*
X41482578Y-43122582D01*
X41238356Y-43218432D01*
X41011143Y-43349614D01*
X40806014Y-43513198D01*
X40627567Y-43705520D01*
X40479769Y-43922300D01*
X40371220Y-44147707D01*
X40324398Y-44199566D01*
X40256971Y-44217879D01*
X40190347Y-44196831D01*
X40145678Y-44143105D01*
X40135500Y-44093905D01*
X40135500Y-41503883D01*
X40155185Y-41436844D01*
X40207989Y-41391089D01*
X40277147Y-41381145D01*
X40340703Y-41410170D01*
X40374557Y-41457648D01*
X40444936Y-41632790D01*
X40569931Y-41835795D01*
X40727436Y-42014755D01*
X40912920Y-42164523D01*
X41121046Y-42280790D01*
X41246951Y-42325275D01*
X41345829Y-42360211D01*
X41580790Y-42400499D01*
X41580798Y-42400499D01*
X41580800Y-42400500D01*
X41580801Y-42400500D01*
X41759502Y-42400500D01*
X41937536Y-42385347D01*
X41937539Y-42385346D01*
X41937541Y-42385346D01*
X42168249Y-42325275D01*
X42300973Y-42265279D01*
X42385480Y-42227080D01*
X42385481Y-42227078D01*
X42385486Y-42227077D01*
X42583003Y-42093579D01*
X42755118Y-41928621D01*
X42896879Y-41736947D01*
X43004207Y-41524074D01*
X43074016Y-41296123D01*
X43102285Y-41075373D01*
X44745723Y-41075373D01*
X44775881Y-41375160D01*
X44775882Y-41375162D01*
X44845728Y-41668252D01*
X44845733Y-41668266D01*
X44954020Y-41949427D01*
X44954024Y-41949436D01*
X45098825Y-42213665D01*
X45098829Y-42213671D01*
X45196906Y-42346782D01*
X45277554Y-42456238D01*
X45277561Y-42456245D01*
X45487019Y-42672823D01*
X45723478Y-42859553D01*
X45723480Y-42859554D01*
X45723485Y-42859558D01*
X45982730Y-43013109D01*
X46260128Y-43130736D01*
X46550729Y-43210340D01*
X46849347Y-43250500D01*
X46849351Y-43250500D01*
X47075252Y-43250500D01*
X47239164Y-43239526D01*
X47300634Y-43235412D01*
X47595903Y-43175396D01*
X47880537Y-43076560D01*
X48149459Y-42940668D01*
X48397869Y-42770144D01*
X48621333Y-42568032D01*
X48815865Y-42337939D01*
X48977993Y-42083970D01*
X49104823Y-41810658D01*
X49194093Y-41522879D01*
X49244209Y-41225770D01*
X49254277Y-40924631D01*
X49224118Y-40624838D01*
X49154269Y-40331739D01*
X49045977Y-40050566D01*
X48901175Y-39786335D01*
X48722446Y-39543762D01*
X48512980Y-39327176D01*
X48276521Y-39140446D01*
X48276517Y-39140443D01*
X48276515Y-39140442D01*
X48017270Y-38986891D01*
X47739872Y-38869264D01*
X47739863Y-38869261D01*
X47449272Y-38789660D01*
X47374616Y-38779620D01*
X47150653Y-38749500D01*
X46924756Y-38749500D01*
X46924748Y-38749500D01*
X46699368Y-38764587D01*
X46699359Y-38764589D01*
X46404094Y-38824604D01*
X46119464Y-38923439D01*
X46119459Y-38923441D01*
X45850546Y-39059328D01*
X45602125Y-39229860D01*
X45378665Y-39431969D01*
X45184132Y-39662064D01*
X45022006Y-39916030D01*
X45022005Y-39916032D01*
X44906842Y-40164205D01*
X44895177Y-40189342D01*
X44895176Y-40189346D01*
X44805907Y-40477118D01*
X44783544Y-40609696D01*
X44755791Y-40774230D01*
X44746249Y-41059654D01*
X44745723Y-41075373D01*
X43102285Y-41075373D01*
X43104298Y-41059654D01*
X43094180Y-40821468D01*
X43083999Y-40774230D01*
X43043954Y-40588419D01*
X42955064Y-40367210D01*
X42830069Y-40164205D01*
X42672564Y-39985245D01*
X42487080Y-39835477D01*
X42367713Y-39768794D01*
X42278955Y-39719210D01*
X42054170Y-39639788D01*
X41819209Y-39599500D01*
X41819200Y-39599500D01*
X41640503Y-39599500D01*
X41640498Y-39599500D01*
X41462463Y-39614652D01*
X41231751Y-39674724D01*
X41014519Y-39772919D01*
X41014511Y-39772924D01*
X40817006Y-39906413D01*
X40816997Y-39906421D01*
X40644881Y-40071379D01*
X40557637Y-40189342D01*
X40503121Y-40263053D01*
X40395793Y-40475926D01*
X40378063Y-40533817D01*
X40339612Y-40592153D01*
X40275725Y-40620440D01*
X40206686Y-40609696D01*
X40154415Y-40563333D01*
X40135500Y-40497506D01*
X40135500Y-38738528D01*
X40155185Y-38671489D01*
X40171815Y-38650851D01*
X40996442Y-37826223D01*
X41057763Y-37792740D01*
X41127454Y-37797724D01*
X41183388Y-37839596D01*
X41183584Y-37839859D01*
X41230387Y-37902727D01*
X41230389Y-37902729D01*
X41230390Y-37902730D01*
X41364786Y-38015502D01*
X41428358Y-38047429D01*
X41521562Y-38094238D01*
X41521563Y-38094238D01*
X41521567Y-38094240D01*
X41692279Y-38134700D01*
X41692282Y-38134700D01*
X41823701Y-38134700D01*
X41823709Y-38134700D01*
X41954255Y-38119441D01*
X42119117Y-38059437D01*
X42265696Y-37963030D01*
X42386092Y-37835418D01*
X42473812Y-37683481D01*
X42524130Y-37515410D01*
X42534331Y-37340265D01*
X42503865Y-37167489D01*
X42434377Y-37006396D01*
X42329610Y-36865670D01*
X42257747Y-36805370D01*
X42230665Y-36782645D01*
X42191963Y-36724474D01*
X42190855Y-36654613D01*
X42222688Y-36599977D01*
X44650849Y-34171819D01*
X44712172Y-34138334D01*
X44738530Y-34135500D01*
X45965281Y-34135500D01*
X46032320Y-34155185D01*
X46078075Y-34207989D01*
X46088602Y-34246538D01*
X46106458Y-34416428D01*
X46106459Y-34416431D01*
X46165470Y-34598049D01*
X46165473Y-34598056D01*
X46260960Y-34763444D01*
X46294891Y-34801128D01*
X46325121Y-34864119D01*
X46316496Y-34933454D01*
X46271755Y-34987120D01*
X46205102Y-35008078D01*
X46202741Y-35008100D01*
X45262760Y-35008100D01*
X45262554Y-35008059D01*
X45238000Y-35008059D01*
X45237901Y-35008100D01*
X45237617Y-35008216D01*
X45237615Y-35008218D01*
X45237459Y-35008599D01*
X45237476Y-35033216D01*
X45237471Y-35033216D01*
X45237500Y-35033359D01*
X45237500Y-37970867D01*
X45237416Y-37971289D01*
X45237459Y-37995401D01*
X45237500Y-37995499D01*
X45237616Y-37995782D01*
X45237618Y-37995784D01*
X45237808Y-37995862D01*
X45238000Y-37995941D01*
X45238002Y-37995939D01*
X45262616Y-37995924D01*
X45262616Y-37995928D01*
X45262760Y-37995900D01*
X48453240Y-37995900D01*
X48453383Y-37995928D01*
X48453384Y-37995924D01*
X48477997Y-37995939D01*
X48478000Y-37995941D01*
X48478383Y-37995783D01*
X48478500Y-37995499D01*
X48478541Y-37995400D01*
X48478540Y-37995397D01*
X48478583Y-37971289D01*
X48478500Y-37970867D01*
X48478500Y-37428133D01*
X51465668Y-37428133D01*
X51481058Y-37515410D01*
X51496135Y-37600911D01*
X51565623Y-37762004D01*
X51565624Y-37762006D01*
X51565626Y-37762009D01*
X51613434Y-37826225D01*
X51670390Y-37902730D01*
X51804786Y-38015502D01*
X51868358Y-38047429D01*
X51961562Y-38094238D01*
X51961563Y-38094238D01*
X51961567Y-38094240D01*
X52132279Y-38134700D01*
X52132282Y-38134700D01*
X52263701Y-38134700D01*
X52263709Y-38134700D01*
X52394255Y-38119441D01*
X52559117Y-38059437D01*
X52705696Y-37963030D01*
X52826092Y-37835418D01*
X52913812Y-37683481D01*
X52964130Y-37515410D01*
X52974331Y-37340265D01*
X52943865Y-37167489D01*
X52874377Y-37006396D01*
X52769610Y-36865670D01*
X52697747Y-36805370D01*
X52635214Y-36752898D01*
X52635212Y-36752897D01*
X52478437Y-36674161D01*
X52478433Y-36674160D01*
X52307721Y-36633700D01*
X52176291Y-36633700D01*
X52071854Y-36645907D01*
X52045743Y-36648959D01*
X52045740Y-36648960D01*
X51880884Y-36708962D01*
X51880880Y-36708964D01*
X51734306Y-36805367D01*
X51734305Y-36805368D01*
X51613910Y-36932978D01*
X51526188Y-37084918D01*
X51475870Y-37252989D01*
X51475869Y-37252994D01*
X51465668Y-37428133D01*
X48478500Y-37428133D01*
X48478500Y-35049500D01*
X48498185Y-34982461D01*
X48550989Y-34936706D01*
X48602500Y-34925500D01*
X51369472Y-34925500D01*
X51436511Y-34945185D01*
X51457153Y-34961819D01*
X52073354Y-35578019D01*
X52075905Y-35580730D01*
X52116943Y-35627052D01*
X52167865Y-35662201D01*
X52170881Y-35664421D01*
X52219588Y-35702580D01*
X52219590Y-35702581D01*
X52219595Y-35702585D01*
X52227717Y-35706240D01*
X52228794Y-35706725D01*
X52248341Y-35717750D01*
X52256642Y-35723480D01*
X52289907Y-35736095D01*
X52314495Y-35745420D01*
X52317923Y-35746839D01*
X52374388Y-35772252D01*
X52384312Y-35774070D01*
X52405934Y-35780097D01*
X52415360Y-35783673D01*
X52438115Y-35786435D01*
X52476773Y-35791130D01*
X52480469Y-35791692D01*
X52541356Y-35802850D01*
X52541357Y-35802849D01*
X52541358Y-35802850D01*
X52603139Y-35799113D01*
X52606883Y-35799000D01*
X55322156Y-35799000D01*
X55389195Y-35818685D01*
X55434950Y-35871489D01*
X55444894Y-35940647D01*
X55435232Y-35973890D01*
X55427749Y-35990516D01*
X55425930Y-36000441D01*
X55419906Y-36022049D01*
X55416329Y-36031482D01*
X55416326Y-36031490D01*
X55408867Y-36092921D01*
X55408304Y-36096624D01*
X55397151Y-36157482D01*
X55397151Y-36157485D01*
X55400887Y-36219249D01*
X55401000Y-36222994D01*
X55401000Y-42259101D01*
X55381315Y-42326140D01*
X55364681Y-42346782D01*
X52521985Y-45189477D01*
X52519258Y-45192044D01*
X52472950Y-45233071D01*
X52472947Y-45233073D01*
X52437794Y-45284001D01*
X52435575Y-45287016D01*
X52397418Y-45335722D01*
X52397414Y-45335729D01*
X52393277Y-45344921D01*
X52382256Y-45364462D01*
X52376519Y-45372772D01*
X52354571Y-45430642D01*
X52353139Y-45434100D01*
X52327748Y-45490517D01*
X52325930Y-45500441D01*
X52319906Y-45522049D01*
X52316329Y-45531482D01*
X52316326Y-45531490D01*
X52308867Y-45592921D01*
X52308304Y-45596624D01*
X52297151Y-45657482D01*
X52297151Y-45657485D01*
X52300887Y-45719249D01*
X52301000Y-45722994D01*
X52301000Y-50059102D01*
X52281315Y-50126141D01*
X52264681Y-50146783D01*
X49546783Y-52864681D01*
X49485460Y-52898166D01*
X49459102Y-52901000D01*
X45204662Y-52901000D01*
X45171586Y-52896507D01*
X44604262Y-52739487D01*
X44586915Y-52733265D01*
X44582294Y-52731208D01*
X44582286Y-52731205D01*
X44395487Y-52691500D01*
X44204513Y-52691500D01*
X44017714Y-52731205D01*
X43843246Y-52808883D01*
X43688745Y-52921135D01*
X43560959Y-53063057D01*
X43465473Y-53228443D01*
X43465470Y-53228450D01*
X43406459Y-53410068D01*
X43406458Y-53410072D01*
X43386496Y-53600000D01*
X43406458Y-53789928D01*
X43406459Y-53789931D01*
X43465470Y-53971549D01*
X43465473Y-53971556D01*
X43560960Y-54136944D01*
X43688747Y-54278866D01*
X43843248Y-54391118D01*
X44017712Y-54468794D01*
X44204513Y-54508500D01*
X44395487Y-54508500D01*
X44582288Y-54468794D01*
X44586906Y-54466737D01*
X44604260Y-54460511D01*
X45080424Y-54328723D01*
X45150285Y-54329812D01*
X45208467Y-54368498D01*
X45236498Y-54432498D01*
X45237500Y-54448230D01*
X45237500Y-56970867D01*
X45237416Y-56971289D01*
X45237459Y-56995401D01*
X45237500Y-56995499D01*
X45237616Y-56995782D01*
X45237618Y-56995784D01*
X45237808Y-56995862D01*
X45238000Y-56995941D01*
X45238002Y-56995939D01*
X45262616Y-56995924D01*
X45262616Y-56995928D01*
X45262760Y-56995900D01*
X48453240Y-56995900D01*
X48453383Y-56995928D01*
X48453384Y-56995924D01*
X48477997Y-56995939D01*
X48478000Y-56995941D01*
X48478383Y-56995783D01*
X48478500Y-56995499D01*
X48478541Y-56995400D01*
X48478540Y-56995397D01*
X48478583Y-56971289D01*
X48478500Y-56970867D01*
X48478500Y-56428133D01*
X51465668Y-56428133D01*
X51481058Y-56515410D01*
X51496135Y-56600911D01*
X51565623Y-56762004D01*
X51565624Y-56762006D01*
X51565626Y-56762009D01*
X51620278Y-56835418D01*
X51670390Y-56902730D01*
X51804786Y-57015502D01*
X51882488Y-57054525D01*
X51961562Y-57094238D01*
X51961563Y-57094238D01*
X51961567Y-57094240D01*
X52132279Y-57134700D01*
X52132282Y-57134700D01*
X52263701Y-57134700D01*
X52263709Y-57134700D01*
X52394255Y-57119441D01*
X52559117Y-57059437D01*
X52705696Y-56963030D01*
X52826092Y-56835418D01*
X52913812Y-56683481D01*
X52964130Y-56515410D01*
X52969213Y-56428133D01*
X60025668Y-56428133D01*
X60041058Y-56515410D01*
X60056135Y-56600911D01*
X60125623Y-56762004D01*
X60125624Y-56762006D01*
X60125626Y-56762009D01*
X60180278Y-56835418D01*
X60230390Y-56902730D01*
X60364786Y-57015502D01*
X60442488Y-57054525D01*
X60521562Y-57094238D01*
X60521563Y-57094238D01*
X60521567Y-57094240D01*
X60692279Y-57134700D01*
X60692282Y-57134700D01*
X60823701Y-57134700D01*
X60823709Y-57134700D01*
X60954255Y-57119441D01*
X61119117Y-57059437D01*
X61253139Y-56971289D01*
X64237416Y-56971289D01*
X64237459Y-56995401D01*
X64237500Y-56995499D01*
X64237616Y-56995782D01*
X64237618Y-56995784D01*
X64237808Y-56995862D01*
X64238000Y-56995941D01*
X64238002Y-56995939D01*
X64262616Y-56995924D01*
X64262616Y-56995928D01*
X64262760Y-56995900D01*
X67453240Y-56995900D01*
X67453383Y-56995928D01*
X67453384Y-56995924D01*
X67477997Y-56995939D01*
X67478000Y-56995941D01*
X67478383Y-56995783D01*
X67478500Y-56995499D01*
X67478541Y-56995400D01*
X67478540Y-56995397D01*
X67478583Y-56971289D01*
X67478500Y-56970867D01*
X67478500Y-56428133D01*
X70465668Y-56428133D01*
X70481058Y-56515410D01*
X70496135Y-56600911D01*
X70565623Y-56762004D01*
X70565624Y-56762006D01*
X70565626Y-56762009D01*
X70620278Y-56835418D01*
X70670390Y-56902730D01*
X70804786Y-57015502D01*
X70882488Y-57054525D01*
X70961562Y-57094238D01*
X70961563Y-57094238D01*
X70961567Y-57094240D01*
X71132279Y-57134700D01*
X71132282Y-57134700D01*
X71263701Y-57134700D01*
X71263709Y-57134700D01*
X71394255Y-57119441D01*
X71559117Y-57059437D01*
X71705696Y-56963030D01*
X71826092Y-56835418D01*
X71913812Y-56683481D01*
X71964130Y-56515410D01*
X71974331Y-56340265D01*
X71943865Y-56167489D01*
X71874377Y-56006396D01*
X71769610Y-55865670D01*
X71697747Y-55805370D01*
X71635214Y-55752898D01*
X71635212Y-55752897D01*
X71478437Y-55674161D01*
X71478433Y-55674160D01*
X71307721Y-55633700D01*
X71176291Y-55633700D01*
X71071854Y-55645907D01*
X71045743Y-55648959D01*
X71045740Y-55648960D01*
X70880884Y-55708962D01*
X70880880Y-55708964D01*
X70734306Y-55805367D01*
X70734305Y-55805368D01*
X70613910Y-55932978D01*
X70526188Y-56084918D01*
X70475870Y-56252989D01*
X70475869Y-56252994D01*
X70465668Y-56428133D01*
X67478500Y-56428133D01*
X67478500Y-54033359D01*
X67478528Y-54033216D01*
X67478524Y-54033216D01*
X67478539Y-54008602D01*
X67478541Y-54008600D01*
X67478462Y-54008408D01*
X67478384Y-54008218D01*
X67478382Y-54008216D01*
X67478099Y-54008100D01*
X67478000Y-54008059D01*
X67453446Y-54008059D01*
X67453240Y-54008100D01*
X64262760Y-54008100D01*
X64262554Y-54008059D01*
X64238000Y-54008059D01*
X64237901Y-54008100D01*
X64237617Y-54008216D01*
X64237615Y-54008218D01*
X64237459Y-54008599D01*
X64237476Y-54033216D01*
X64237471Y-54033216D01*
X64237500Y-54033359D01*
X64237500Y-56970867D01*
X64237416Y-56971289D01*
X61253139Y-56971289D01*
X61265696Y-56963030D01*
X61386092Y-56835418D01*
X61473812Y-56683481D01*
X61524130Y-56515410D01*
X61534331Y-56340265D01*
X61503865Y-56167489D01*
X61434377Y-56006396D01*
X61329610Y-55865670D01*
X61257747Y-55805370D01*
X61195214Y-55752898D01*
X61195212Y-55752897D01*
X61038437Y-55674161D01*
X61038433Y-55674160D01*
X60867721Y-55633700D01*
X60736291Y-55633700D01*
X60631854Y-55645907D01*
X60605743Y-55648959D01*
X60605740Y-55648960D01*
X60440884Y-55708962D01*
X60440880Y-55708964D01*
X60294306Y-55805367D01*
X60294305Y-55805368D01*
X60173910Y-55932978D01*
X60086188Y-56084918D01*
X60035870Y-56252989D01*
X60035869Y-56252994D01*
X60025668Y-56428133D01*
X52969213Y-56428133D01*
X52974331Y-56340265D01*
X52943865Y-56167489D01*
X52874377Y-56006396D01*
X52769610Y-55865670D01*
X52697747Y-55805370D01*
X52635214Y-55752898D01*
X52635212Y-55752897D01*
X52478437Y-55674161D01*
X52478433Y-55674160D01*
X52307721Y-55633700D01*
X52176291Y-55633700D01*
X52071854Y-55645907D01*
X52045743Y-55648959D01*
X52045740Y-55648960D01*
X51880884Y-55708962D01*
X51880880Y-55708964D01*
X51734306Y-55805367D01*
X51734305Y-55805368D01*
X51613910Y-55932978D01*
X51526188Y-56084918D01*
X51475870Y-56252989D01*
X51475869Y-56252994D01*
X51465668Y-56428133D01*
X48478500Y-56428133D01*
X48478500Y-54423000D01*
X48498185Y-54355961D01*
X48550989Y-54310206D01*
X48602500Y-54299000D01*
X49777004Y-54299000D01*
X49780748Y-54299113D01*
X49842513Y-54302849D01*
X49842513Y-54302848D01*
X49842515Y-54302849D01*
X49863517Y-54299000D01*
X49903383Y-54291694D01*
X49907081Y-54291131D01*
X49968510Y-54283673D01*
X49977949Y-54280092D01*
X49999560Y-54274069D01*
X50009483Y-54272251D01*
X50065925Y-54246847D01*
X50069338Y-54245433D01*
X50127227Y-54223480D01*
X50135533Y-54217745D01*
X50155078Y-54206722D01*
X50164275Y-54202584D01*
X50212999Y-54164410D01*
X50215991Y-54162209D01*
X50266927Y-54127052D01*
X50307987Y-54080703D01*
X50310506Y-54078028D01*
X53478019Y-50910514D01*
X53480694Y-50907995D01*
X53527052Y-50866927D01*
X53562210Y-50815988D01*
X53564413Y-50812995D01*
X53602584Y-50764276D01*
X53606723Y-50755078D01*
X53617749Y-50735530D01*
X53623477Y-50727231D01*
X53623476Y-50727231D01*
X53623480Y-50727227D01*
X53645430Y-50669346D01*
X53646846Y-50665928D01*
X53672251Y-50609483D01*
X53674069Y-50599560D01*
X53680092Y-50577949D01*
X53683673Y-50568510D01*
X53691131Y-50507081D01*
X53691694Y-50503383D01*
X53702849Y-50442516D01*
X53702849Y-50442513D01*
X53699113Y-50380748D01*
X53699000Y-50377004D01*
X53699000Y-47798904D01*
X53718685Y-47731865D01*
X53771489Y-47686110D01*
X53840647Y-47676166D01*
X53904203Y-47705191D01*
X53938942Y-47754933D01*
X53962026Y-47815803D01*
X53968046Y-47831675D01*
X54065785Y-47973273D01*
X54065786Y-47973274D01*
X54065789Y-47973277D01*
X54139376Y-48038469D01*
X54194570Y-48087367D01*
X54216460Y-48098856D01*
X54222893Y-48102748D01*
X54344480Y-48186805D01*
X54476480Y-48278061D01*
X54493646Y-48292378D01*
X56591342Y-50390075D01*
X56601267Y-50402463D01*
X56601474Y-50402292D01*
X56606445Y-50408301D01*
X56657692Y-50456426D01*
X56678907Y-50477640D01*
X56684501Y-50481979D01*
X56688949Y-50485777D01*
X56723487Y-50518211D01*
X56723490Y-50518213D01*
X56723494Y-50518217D01*
X56723497Y-50518219D01*
X56723499Y-50518220D01*
X56741462Y-50528095D01*
X56757726Y-50538778D01*
X56773933Y-50551350D01*
X56817422Y-50570169D01*
X56822665Y-50572736D01*
X56864197Y-50595569D01*
X56864201Y-50595570D01*
X56884054Y-50600667D01*
X56902469Y-50606972D01*
X56921286Y-50615115D01*
X56921288Y-50615115D01*
X56921292Y-50615117D01*
X56954358Y-50620353D01*
X56968098Y-50622530D01*
X56973817Y-50623714D01*
X57019718Y-50635500D01*
X57040226Y-50635500D01*
X57059623Y-50637026D01*
X57079877Y-50640234D01*
X57079878Y-50640235D01*
X57079878Y-50640234D01*
X57079879Y-50640235D01*
X57108653Y-50637515D01*
X57127061Y-50635775D01*
X57132899Y-50635500D01*
X69114914Y-50635500D01*
X69137176Y-50637515D01*
X69188930Y-50646960D01*
X69477462Y-50699617D01*
X69481101Y-50700397D01*
X69506045Y-50706546D01*
X69521259Y-50710297D01*
X69520670Y-50712685D01*
X69573931Y-50735601D01*
X69612994Y-50793530D01*
X69614538Y-50863383D01*
X69582499Y-50918766D01*
X68173086Y-52328181D01*
X68111763Y-52361666D01*
X68085405Y-52364500D01*
X62528917Y-52364500D01*
X62485385Y-52356608D01*
X61943907Y-52153592D01*
X61904991Y-52140942D01*
X61898938Y-52138618D01*
X61882294Y-52131208D01*
X61882286Y-52131205D01*
X61695487Y-52091500D01*
X61504513Y-52091500D01*
X61317714Y-52131205D01*
X61143246Y-52208883D01*
X60988745Y-52321135D01*
X60860959Y-52463057D01*
X60765473Y-52628443D01*
X60765470Y-52628450D01*
X60706844Y-52808883D01*
X60706458Y-52810072D01*
X60686496Y-53000000D01*
X60706458Y-53189928D01*
X60706459Y-53189931D01*
X60765470Y-53371549D01*
X60765473Y-53371556D01*
X60860960Y-53536944D01*
X60988747Y-53678866D01*
X61143248Y-53791118D01*
X61317712Y-53868794D01*
X61504513Y-53908500D01*
X61695487Y-53908500D01*
X61882288Y-53868794D01*
X61910027Y-53856442D01*
X61933893Y-53848603D01*
X61943910Y-53846407D01*
X62485381Y-53643392D01*
X62528913Y-53635500D01*
X68316153Y-53635500D01*
X68331932Y-53637241D01*
X68331958Y-53636974D01*
X68339711Y-53637706D01*
X68339719Y-53637708D01*
X68409985Y-53635500D01*
X68439983Y-53635500D01*
X68447013Y-53634611D01*
X68452836Y-53634153D01*
X68500205Y-53632665D01*
X68519906Y-53626940D01*
X68538951Y-53622997D01*
X68559299Y-53620427D01*
X68603393Y-53602968D01*
X68608856Y-53601098D01*
X68654393Y-53587869D01*
X68672054Y-53577423D01*
X68689512Y-53568871D01*
X68708588Y-53561319D01*
X68746928Y-53533462D01*
X68751800Y-53530261D01*
X68792598Y-53506134D01*
X68807094Y-53491637D01*
X68821892Y-53478998D01*
X68838487Y-53466942D01*
X68868707Y-53430410D01*
X68872621Y-53426109D01*
X73390072Y-48908658D01*
X73402461Y-48898735D01*
X73402289Y-48898528D01*
X73408298Y-48893555D01*
X73408303Y-48893553D01*
X73456441Y-48842290D01*
X73477638Y-48821094D01*
X73481979Y-48815497D01*
X73485774Y-48811054D01*
X73518217Y-48776506D01*
X73528102Y-48758524D01*
X73538773Y-48742278D01*
X73551349Y-48726067D01*
X73570172Y-48682567D01*
X73572740Y-48677328D01*
X73587489Y-48650500D01*
X73595569Y-48635803D01*
X73600670Y-48615931D01*
X73606973Y-48597526D01*
X73615117Y-48578708D01*
X73622533Y-48531875D01*
X73623708Y-48526201D01*
X73635500Y-48480282D01*
X73635500Y-48459774D01*
X73637027Y-48440374D01*
X73640074Y-48421135D01*
X73640235Y-48420121D01*
X73635775Y-48372939D01*
X73635500Y-48367101D01*
X73635500Y-36728916D01*
X73643392Y-36685384D01*
X73657049Y-36648960D01*
X73846407Y-36143909D01*
X73860511Y-36100518D01*
X73860914Y-36097355D01*
X73865985Y-36074735D01*
X73893542Y-35989928D01*
X73913504Y-35800000D01*
X73893542Y-35610072D01*
X73834527Y-35428444D01*
X73739040Y-35263056D01*
X73611253Y-35121134D01*
X73456752Y-35008882D01*
X73282288Y-34931206D01*
X73282286Y-34931205D01*
X73095487Y-34891500D01*
X72904513Y-34891500D01*
X72717714Y-34931205D01*
X72717712Y-34931206D01*
X72543882Y-35008600D01*
X72543246Y-35008883D01*
X72388745Y-35121135D01*
X72260959Y-35263057D01*
X72165473Y-35428443D01*
X72165470Y-35428450D01*
X72115988Y-35580741D01*
X72106458Y-35610072D01*
X72086496Y-35800000D01*
X72106458Y-35989928D01*
X72106459Y-35989930D01*
X72106459Y-35989931D01*
X72146630Y-36113565D01*
X72148226Y-36119443D01*
X72153592Y-36143907D01*
X72342951Y-36648960D01*
X72356608Y-36685384D01*
X72364500Y-36728916D01*
X72364500Y-39799979D01*
X72344815Y-39867018D01*
X72292011Y-39912773D01*
X72222853Y-39922717D01*
X72162601Y-39896456D01*
X72162408Y-39896300D01*
X72087080Y-39835477D01*
X72023536Y-39799979D01*
X71878955Y-39719210D01*
X71654170Y-39639788D01*
X71419209Y-39599500D01*
X71419200Y-39599500D01*
X71240503Y-39599500D01*
X71240498Y-39599500D01*
X71062463Y-39614652D01*
X70831751Y-39674724D01*
X70614519Y-39772919D01*
X70614511Y-39772924D01*
X70417006Y-39906413D01*
X70416997Y-39906421D01*
X70244881Y-40071379D01*
X70103123Y-40263050D01*
X70103120Y-40263054D01*
X69995796Y-40475920D01*
X69995793Y-40475926D01*
X69925983Y-40703878D01*
X69895702Y-40940346D01*
X69905819Y-41178528D01*
X69905819Y-41178532D01*
X69956046Y-41411582D01*
X69956046Y-41411583D01*
X70040876Y-41622689D01*
X70047607Y-41692233D01*
X70015671Y-41754377D01*
X69955207Y-41789390D01*
X69916552Y-41792576D01*
X69875500Y-41789500D01*
X69875494Y-41789500D01*
X69744506Y-41789500D01*
X69744500Y-41789500D01*
X69548379Y-41804196D01*
X69548374Y-41804197D01*
X69292597Y-41862576D01*
X69292578Y-41862582D01*
X69048356Y-41958432D01*
X68821143Y-42089614D01*
X68616014Y-42253198D01*
X68437567Y-42445520D01*
X68337280Y-42592615D01*
X68303259Y-42642515D01*
X68289768Y-42662302D01*
X68289767Y-42662303D01*
X68175938Y-42898673D01*
X68098606Y-43149376D01*
X68098605Y-43149381D01*
X68098604Y-43149385D01*
X68088197Y-43218432D01*
X68059500Y-43408812D01*
X68059500Y-43671187D01*
X68079794Y-43805823D01*
X68098604Y-43930615D01*
X68098605Y-43930617D01*
X68098606Y-43930623D01*
X68175938Y-44181326D01*
X68289767Y-44417696D01*
X68289768Y-44417697D01*
X68289770Y-44417700D01*
X68289772Y-44417704D01*
X68399095Y-44578051D01*
X68437567Y-44634479D01*
X68616014Y-44826801D01*
X68616018Y-44826804D01*
X68616019Y-44826805D01*
X68821143Y-44990386D01*
X69048357Y-45121568D01*
X69292584Y-45217420D01*
X69548370Y-45275802D01*
X69548376Y-45275802D01*
X69548379Y-45275803D01*
X69744500Y-45290500D01*
X69744506Y-45290500D01*
X69875500Y-45290500D01*
X70071620Y-45275803D01*
X70071622Y-45275802D01*
X70071630Y-45275802D01*
X70327416Y-45217420D01*
X70571643Y-45121568D01*
X70798857Y-44990386D01*
X71003981Y-44826805D01*
X71035167Y-44793195D01*
X71043945Y-44783733D01*
X71182433Y-44634479D01*
X71330228Y-44417704D01*
X71444063Y-44181323D01*
X71521396Y-43930615D01*
X71560500Y-43671182D01*
X71560500Y-43408818D01*
X71521396Y-43149385D01*
X71444063Y-42898677D01*
X71382165Y-42770144D01*
X71330232Y-42662303D01*
X71330225Y-42662292D01*
X71316741Y-42642515D01*
X71282719Y-42592614D01*
X71261219Y-42526136D01*
X71279073Y-42458586D01*
X71330613Y-42411411D01*
X71374657Y-42399210D01*
X71537536Y-42385347D01*
X71537539Y-42385346D01*
X71537541Y-42385346D01*
X71768249Y-42325275D01*
X71900973Y-42265279D01*
X71985480Y-42227080D01*
X71985481Y-42227078D01*
X71985486Y-42227077D01*
X72171063Y-42101648D01*
X72237629Y-42080417D01*
X72305106Y-42098544D01*
X72352071Y-42150275D01*
X72364500Y-42204384D01*
X72364500Y-48085404D01*
X72344815Y-48152443D01*
X72328181Y-48173085D01*
X70514092Y-49987174D01*
X70452769Y-50020659D01*
X70383077Y-50015675D01*
X70327144Y-49973803D01*
X70303315Y-49914439D01*
X70292965Y-49829199D01*
X70231954Y-49668325D01*
X70134215Y-49526727D01*
X70134213Y-49526725D01*
X70134210Y-49526722D01*
X70005432Y-49412634D01*
X69853079Y-49332673D01*
X69686028Y-49291500D01*
X69513972Y-49291500D01*
X69513968Y-49291500D01*
X69486643Y-49298235D01*
X69481136Y-49299592D01*
X69477438Y-49300385D01*
X69137170Y-49362485D01*
X69114907Y-49364500D01*
X58823420Y-49364500D01*
X58756381Y-49344815D01*
X58710626Y-49292011D01*
X58700099Y-49227539D01*
X58713504Y-49100000D01*
X58693542Y-48910072D01*
X58634527Y-48728444D01*
X58539040Y-48563056D01*
X58411253Y-48421134D01*
X58313876Y-48350385D01*
X58256750Y-48308880D01*
X58222379Y-48293578D01*
X58201008Y-48280810D01*
X58200872Y-48281016D01*
X58197185Y-48278565D01*
X58197183Y-48278564D01*
X58197182Y-48278563D01*
X57681138Y-47986249D01*
X57654573Y-47966037D01*
X56835319Y-47146783D01*
X56801834Y-47085460D01*
X56799000Y-47059102D01*
X56799000Y-44931187D01*
X59249500Y-44931187D01*
X59269794Y-45065823D01*
X59288604Y-45190615D01*
X59288605Y-45190617D01*
X59288606Y-45190623D01*
X59365938Y-45441326D01*
X59479767Y-45677696D01*
X59479768Y-45677697D01*
X59479770Y-45677700D01*
X59479772Y-45677704D01*
X59627567Y-45894479D01*
X59806014Y-46086801D01*
X59806018Y-46086804D01*
X59806019Y-46086805D01*
X60011143Y-46250386D01*
X60238357Y-46381568D01*
X60482584Y-46477420D01*
X60738370Y-46535802D01*
X60738376Y-46535802D01*
X60738379Y-46535803D01*
X60934500Y-46550500D01*
X60934506Y-46550500D01*
X61065500Y-46550500D01*
X61261620Y-46535803D01*
X61261622Y-46535802D01*
X61261630Y-46535802D01*
X61517416Y-46477420D01*
X61601111Y-46444571D01*
X61670705Y-46438403D01*
X61732588Y-46470840D01*
X61764900Y-46523448D01*
X61825937Y-46721323D01*
X61825938Y-46721326D01*
X61939767Y-46957696D01*
X61939768Y-46957697D01*
X61939770Y-46957700D01*
X61939772Y-46957704D01*
X62015510Y-47068791D01*
X62087567Y-47174479D01*
X62266014Y-47366801D01*
X62266018Y-47366804D01*
X62266019Y-47366805D01*
X62471143Y-47530386D01*
X62698357Y-47661568D01*
X62942584Y-47757420D01*
X63198370Y-47815802D01*
X63198376Y-47815802D01*
X63198379Y-47815803D01*
X63394500Y-47830500D01*
X63394506Y-47830500D01*
X63525500Y-47830500D01*
X63721620Y-47815803D01*
X63721622Y-47815802D01*
X63721630Y-47815802D01*
X63977416Y-47757420D01*
X64221643Y-47661568D01*
X64221646Y-47661566D01*
X64221647Y-47661566D01*
X64264118Y-47637045D01*
X64332018Y-47620571D01*
X64398045Y-47643423D01*
X64437839Y-47690630D01*
X64479767Y-47777695D01*
X64479768Y-47777697D01*
X64479770Y-47777700D01*
X64479772Y-47777704D01*
X64505747Y-47815802D01*
X64627567Y-47994479D01*
X64806014Y-48186801D01*
X64806018Y-48186804D01*
X64806019Y-48186805D01*
X65011143Y-48350386D01*
X65238357Y-48481568D01*
X65482584Y-48577420D01*
X65738370Y-48635802D01*
X65738376Y-48635802D01*
X65738379Y-48635803D01*
X65934500Y-48650500D01*
X65934506Y-48650500D01*
X66065500Y-48650500D01*
X66261620Y-48635803D01*
X66261622Y-48635802D01*
X66261630Y-48635802D01*
X66517416Y-48577420D01*
X66761643Y-48481568D01*
X66988857Y-48350386D01*
X67193981Y-48186805D01*
X67372433Y-47994479D01*
X67520228Y-47777704D01*
X67634063Y-47541323D01*
X67711396Y-47290615D01*
X67750500Y-47031182D01*
X67750500Y-46768818D01*
X67711396Y-46509385D01*
X67634063Y-46258677D01*
X67529186Y-46040897D01*
X67520232Y-46022303D01*
X67520231Y-46022302D01*
X67520230Y-46022301D01*
X67520228Y-46022296D01*
X67372433Y-45805521D01*
X67362441Y-45794753D01*
X67193985Y-45613198D01*
X67091516Y-45531482D01*
X66988857Y-45449614D01*
X66761643Y-45318432D01*
X66517416Y-45222580D01*
X66517411Y-45222578D01*
X66517402Y-45222576D01*
X66299818Y-45172914D01*
X66261630Y-45164198D01*
X66261629Y-45164197D01*
X66261625Y-45164197D01*
X66261620Y-45164196D01*
X66065500Y-45149500D01*
X66065494Y-45149500D01*
X65934506Y-45149500D01*
X65934500Y-45149500D01*
X65738379Y-45164196D01*
X65738374Y-45164197D01*
X65482597Y-45222576D01*
X65482578Y-45222582D01*
X65238363Y-45318429D01*
X65238357Y-45318432D01*
X65195877Y-45342957D01*
X65127977Y-45359427D01*
X65061951Y-45336574D01*
X65022160Y-45289369D01*
X64980232Y-45202303D01*
X64980231Y-45202302D01*
X64980230Y-45202301D01*
X64980228Y-45202296D01*
X64832433Y-44985521D01*
X64782014Y-44931182D01*
X64653985Y-44793198D01*
X64498017Y-44668818D01*
X64448857Y-44629614D01*
X64221643Y-44498432D01*
X63977416Y-44402580D01*
X63977411Y-44402578D01*
X63977402Y-44402576D01*
X63759818Y-44352914D01*
X63721630Y-44344198D01*
X63721629Y-44344197D01*
X63721625Y-44344197D01*
X63721620Y-44344196D01*
X63525500Y-44329500D01*
X63525494Y-44329500D01*
X63394506Y-44329500D01*
X63394500Y-44329500D01*
X63198379Y-44344196D01*
X63198374Y-44344197D01*
X62942585Y-44402579D01*
X62858890Y-44435426D01*
X62789293Y-44441593D01*
X62727410Y-44409155D01*
X62695098Y-44356547D01*
X62652324Y-44217879D01*
X62634063Y-44158677D01*
X62622121Y-44133880D01*
X62520232Y-43922303D01*
X62520231Y-43922302D01*
X62520230Y-43922300D01*
X62520228Y-43922296D01*
X62372433Y-43705521D01*
X62340571Y-43671182D01*
X62193985Y-43513198D01*
X62063095Y-43408817D01*
X61988857Y-43349614D01*
X61761643Y-43218432D01*
X61517416Y-43122580D01*
X61517411Y-43122578D01*
X61517402Y-43122576D01*
X61299818Y-43072914D01*
X61261630Y-43064198D01*
X61261629Y-43064197D01*
X61261625Y-43064197D01*
X61261620Y-43064196D01*
X61065500Y-43049500D01*
X61065494Y-43049500D01*
X60934506Y-43049500D01*
X60934500Y-43049500D01*
X60738379Y-43064196D01*
X60738374Y-43064197D01*
X60482597Y-43122576D01*
X60482578Y-43122582D01*
X60238356Y-43218432D01*
X60011143Y-43349614D01*
X59806014Y-43513198D01*
X59627567Y-43705520D01*
X59479768Y-43922302D01*
X59479767Y-43922303D01*
X59365938Y-44158673D01*
X59288606Y-44409376D01*
X59288605Y-44409381D01*
X59288604Y-44409385D01*
X59280111Y-44465731D01*
X59249500Y-44668812D01*
X59249500Y-44931187D01*
X56799000Y-44931187D01*
X56799000Y-42674787D01*
X56801031Y-42652435D01*
X56802849Y-42642515D01*
X56799113Y-42580748D01*
X56799000Y-42577004D01*
X56799000Y-40940346D01*
X59295702Y-40940346D01*
X59305819Y-41178528D01*
X59305819Y-41178532D01*
X59356045Y-41411580D01*
X59440877Y-41622689D01*
X59444936Y-41632790D01*
X59569931Y-41835795D01*
X59727436Y-42014755D01*
X59912920Y-42164523D01*
X60121046Y-42280790D01*
X60246951Y-42325275D01*
X60345829Y-42360211D01*
X60580790Y-42400499D01*
X60580798Y-42400499D01*
X60580800Y-42400500D01*
X60580801Y-42400500D01*
X60759502Y-42400500D01*
X60937536Y-42385347D01*
X60937539Y-42385346D01*
X60937541Y-42385346D01*
X61168249Y-42325275D01*
X61300973Y-42265279D01*
X61385480Y-42227080D01*
X61385481Y-42227078D01*
X61385486Y-42227077D01*
X61583003Y-42093579D01*
X61755118Y-41928621D01*
X61896879Y-41736947D01*
X62004207Y-41524074D01*
X62074016Y-41296123D01*
X62104298Y-41059654D01*
X62094180Y-40821468D01*
X62083999Y-40774230D01*
X62043954Y-40588419D01*
X61955064Y-40367210D01*
X61830069Y-40164205D01*
X61672564Y-39985245D01*
X61487080Y-39835477D01*
X61367713Y-39768794D01*
X61278955Y-39719210D01*
X61054170Y-39639788D01*
X60819209Y-39599500D01*
X60819200Y-39599500D01*
X60640503Y-39599500D01*
X60640498Y-39599500D01*
X60462463Y-39614652D01*
X60231751Y-39674724D01*
X60014519Y-39772919D01*
X60014511Y-39772924D01*
X59817006Y-39906413D01*
X59816997Y-39906421D01*
X59644881Y-40071379D01*
X59503123Y-40263050D01*
X59503120Y-40263054D01*
X59395796Y-40475920D01*
X59395793Y-40475926D01*
X59325983Y-40703878D01*
X59295702Y-40940346D01*
X56799000Y-40940346D01*
X56799000Y-37428133D01*
X60025668Y-37428133D01*
X60041058Y-37515410D01*
X60056135Y-37600911D01*
X60125623Y-37762004D01*
X60125624Y-37762006D01*
X60125626Y-37762009D01*
X60173434Y-37826225D01*
X60230390Y-37902730D01*
X60364786Y-38015502D01*
X60428358Y-38047429D01*
X60521562Y-38094238D01*
X60521563Y-38094238D01*
X60521567Y-38094240D01*
X60692279Y-38134700D01*
X60692282Y-38134700D01*
X60823701Y-38134700D01*
X60823709Y-38134700D01*
X60954255Y-38119441D01*
X61119117Y-38059437D01*
X61265696Y-37963030D01*
X61386092Y-37835418D01*
X61473812Y-37683481D01*
X61524130Y-37515410D01*
X61534331Y-37340265D01*
X61503865Y-37167489D01*
X61434377Y-37006396D01*
X61329610Y-36865670D01*
X61257747Y-36805370D01*
X61195214Y-36752898D01*
X61195212Y-36752897D01*
X61038437Y-36674161D01*
X61038433Y-36674160D01*
X60867721Y-36633700D01*
X60736291Y-36633700D01*
X60631854Y-36645907D01*
X60605743Y-36648959D01*
X60605740Y-36648960D01*
X60440884Y-36708962D01*
X60440880Y-36708964D01*
X60294306Y-36805367D01*
X60294305Y-36805368D01*
X60173910Y-36932978D01*
X60086188Y-37084918D01*
X60035870Y-37252989D01*
X60035869Y-37252994D01*
X60025668Y-37428133D01*
X56799000Y-37428133D01*
X56799000Y-36540897D01*
X56818685Y-36473858D01*
X56835315Y-36453220D01*
X57641389Y-35647145D01*
X57658623Y-35632783D01*
X57666927Y-35627052D01*
X57707963Y-35580731D01*
X57710508Y-35578026D01*
X57724166Y-35564370D01*
X59854583Y-33433951D01*
X59881139Y-33413746D01*
X60397180Y-33121437D01*
X60416875Y-33109693D01*
X60416878Y-33109689D01*
X60419139Y-33108342D01*
X60425672Y-33104954D01*
X60456752Y-33091118D01*
X60611253Y-32978866D01*
X60739040Y-32836944D01*
X60834527Y-32671556D01*
X60881985Y-32525495D01*
X60921422Y-32467820D01*
X60985781Y-32440622D01*
X61054627Y-32452537D01*
X61087597Y-32476133D01*
X62664681Y-34053216D01*
X62698166Y-34114539D01*
X62701000Y-34140897D01*
X62701000Y-37995343D01*
X62696507Y-38028418D01*
X62671315Y-38119439D01*
X62538307Y-38600004D01*
X62532695Y-38622191D01*
X62531854Y-38627237D01*
X62531139Y-38627117D01*
X62527449Y-38645466D01*
X62506460Y-38710065D01*
X62506458Y-38710070D01*
X62506458Y-38710072D01*
X62486496Y-38900000D01*
X62506458Y-39089928D01*
X62506459Y-39089931D01*
X62565470Y-39271549D01*
X62565473Y-39271556D01*
X62660960Y-39436944D01*
X62788747Y-39578866D01*
X62943248Y-39691118D01*
X63117712Y-39768794D01*
X63304513Y-39808500D01*
X63495487Y-39808500D01*
X63682288Y-39768794D01*
X63856752Y-39691118D01*
X63902995Y-39657520D01*
X63968799Y-39634040D01*
X64036853Y-39649865D01*
X64085549Y-39699970D01*
X64099425Y-39768448D01*
X64080399Y-39824560D01*
X64022007Y-39916030D01*
X64022005Y-39916032D01*
X63906842Y-40164205D01*
X63895177Y-40189342D01*
X63895176Y-40189346D01*
X63805907Y-40477118D01*
X63783544Y-40609696D01*
X63755791Y-40774230D01*
X63746249Y-41059654D01*
X63745723Y-41075373D01*
X63775881Y-41375160D01*
X63775882Y-41375162D01*
X63845728Y-41668252D01*
X63845733Y-41668266D01*
X63954020Y-41949427D01*
X63954024Y-41949436D01*
X64098825Y-42213665D01*
X64098829Y-42213671D01*
X64196906Y-42346782D01*
X64277554Y-42456238D01*
X64277561Y-42456245D01*
X64487019Y-42672823D01*
X64723478Y-42859553D01*
X64723480Y-42859554D01*
X64723485Y-42859558D01*
X64982730Y-43013109D01*
X65260128Y-43130736D01*
X65550729Y-43210340D01*
X65849347Y-43250500D01*
X65849351Y-43250500D01*
X66075252Y-43250500D01*
X66239164Y-43239526D01*
X66300634Y-43235412D01*
X66595903Y-43175396D01*
X66880537Y-43076560D01*
X67149459Y-42940668D01*
X67397869Y-42770144D01*
X67621333Y-42568032D01*
X67815865Y-42337939D01*
X67977993Y-42083970D01*
X68104823Y-41810658D01*
X68194093Y-41522879D01*
X68244209Y-41225770D01*
X68254277Y-40924631D01*
X68224118Y-40624838D01*
X68154269Y-40331739D01*
X68045977Y-40050566D01*
X67901175Y-39786335D01*
X67722446Y-39543762D01*
X67512980Y-39327176D01*
X67276521Y-39140446D01*
X67276517Y-39140443D01*
X67276515Y-39140442D01*
X67017270Y-38986891D01*
X66739872Y-38869264D01*
X66739863Y-38869261D01*
X66449272Y-38789660D01*
X66374616Y-38779620D01*
X66150653Y-38749500D01*
X65924756Y-38749500D01*
X65924748Y-38749500D01*
X65699368Y-38764587D01*
X65699359Y-38764589D01*
X65404094Y-38824604D01*
X65119464Y-38923439D01*
X65119459Y-38923441D01*
X64850546Y-39059328D01*
X64719479Y-39149301D01*
X64602131Y-39229856D01*
X64602128Y-39229858D01*
X64602123Y-39229862D01*
X64602119Y-39229865D01*
X64445480Y-39371537D01*
X64382556Y-39401907D01*
X64313202Y-39393436D01*
X64259437Y-39348814D01*
X64238331Y-39282209D01*
X64244371Y-39241259D01*
X64293542Y-39089928D01*
X64313504Y-38900000D01*
X64293542Y-38710072D01*
X64267821Y-38630913D01*
X64262757Y-38608336D01*
X64261692Y-38600006D01*
X64261690Y-38599997D01*
X64261690Y-38599996D01*
X64137974Y-38153003D01*
X64139063Y-38083142D01*
X64177749Y-38024960D01*
X64216401Y-38008031D01*
X64215290Y-38005346D01*
X64215348Y-38005322D01*
X64228598Y-38002688D01*
X64241749Y-37996929D01*
X64257410Y-37995927D01*
X64262631Y-37995924D01*
X64262631Y-37995925D01*
X64262760Y-37995900D01*
X67453240Y-37995900D01*
X67453383Y-37995928D01*
X67453384Y-37995924D01*
X67477997Y-37995939D01*
X67478000Y-37995941D01*
X67478383Y-37995783D01*
X67478500Y-37995499D01*
X67478541Y-37995400D01*
X67478540Y-37995397D01*
X67478583Y-37971289D01*
X67478500Y-37970867D01*
X67478500Y-37428133D01*
X70465668Y-37428133D01*
X70481058Y-37515410D01*
X70496135Y-37600911D01*
X70565623Y-37762004D01*
X70565624Y-37762006D01*
X70565626Y-37762009D01*
X70613434Y-37826225D01*
X70670390Y-37902730D01*
X70804786Y-38015502D01*
X70868358Y-38047429D01*
X70961562Y-38094238D01*
X70961563Y-38094238D01*
X70961567Y-38094240D01*
X71132279Y-38134700D01*
X71132282Y-38134700D01*
X71263701Y-38134700D01*
X71263709Y-38134700D01*
X71394255Y-38119441D01*
X71559117Y-38059437D01*
X71705696Y-37963030D01*
X71826092Y-37835418D01*
X71913812Y-37683481D01*
X71964130Y-37515410D01*
X71974331Y-37340265D01*
X71943865Y-37167489D01*
X71874377Y-37006396D01*
X71769610Y-36865670D01*
X71697747Y-36805370D01*
X71635214Y-36752898D01*
X71635212Y-36752897D01*
X71478437Y-36674161D01*
X71478433Y-36674160D01*
X71307721Y-36633700D01*
X71176291Y-36633700D01*
X71071854Y-36645907D01*
X71045743Y-36648959D01*
X71045740Y-36648960D01*
X70880884Y-36708962D01*
X70880880Y-36708964D01*
X70734306Y-36805367D01*
X70734305Y-36805368D01*
X70613910Y-36932978D01*
X70526188Y-37084918D01*
X70475870Y-37252989D01*
X70475869Y-37252994D01*
X70465668Y-37428133D01*
X67478500Y-37428133D01*
X67478500Y-35033359D01*
X67478528Y-35033216D01*
X67478524Y-35033216D01*
X67478539Y-35008602D01*
X67478541Y-35008600D01*
X67478462Y-35008408D01*
X67478384Y-35008218D01*
X67478382Y-35008216D01*
X67478099Y-35008100D01*
X67478000Y-35008059D01*
X67453446Y-35008059D01*
X67453240Y-35008100D01*
X64262760Y-35008100D01*
X64262554Y-35008059D01*
X64223000Y-35008059D01*
X64155961Y-34988374D01*
X64110206Y-34935570D01*
X64099000Y-34884059D01*
X64099000Y-33823011D01*
X64099113Y-33819266D01*
X64102850Y-33757486D01*
X64091692Y-33696599D01*
X64091130Y-33692903D01*
X64083673Y-33631492D01*
X64083673Y-33631490D01*
X64080099Y-33622068D01*
X64074070Y-33600442D01*
X64072252Y-33590518D01*
X64046839Y-33534053D01*
X64045417Y-33530617D01*
X64023480Y-33472772D01*
X64017750Y-33464471D01*
X64006725Y-33444924D01*
X64006240Y-33443847D01*
X64002585Y-33435725D01*
X64002580Y-33435718D01*
X63964421Y-33387011D01*
X63962201Y-33383995D01*
X63927051Y-33333072D01*
X63880731Y-33292036D01*
X63878019Y-33289484D01*
X61846239Y-31257703D01*
X61812754Y-31196380D01*
X61810094Y-31163457D01*
X61810457Y-31156610D01*
X61810424Y-31101624D01*
X61810422Y-31101617D01*
X61809823Y-31095556D01*
X61810060Y-31095532D01*
X61808500Y-31079729D01*
X61808500Y-29387362D01*
X61808499Y-29387345D01*
X61805157Y-29356270D01*
X61801989Y-29326799D01*
X61801615Y-29325797D01*
X61757445Y-29207374D01*
X61750889Y-29189796D01*
X61663261Y-29072739D01*
X61546204Y-28985111D01*
X61543523Y-28984111D01*
X61409203Y-28934011D01*
X61348654Y-28927500D01*
X61348638Y-28927500D01*
X60651362Y-28927500D01*
X60651345Y-28927500D01*
X60590802Y-28934010D01*
X60590791Y-28934012D01*
X60543332Y-28951714D01*
X60473640Y-28956698D01*
X60456668Y-28951714D01*
X60409208Y-28934012D01*
X60409197Y-28934010D01*
X60348654Y-28927500D01*
X60348638Y-28927500D01*
X59651362Y-28927500D01*
X59651345Y-28927500D01*
X59590802Y-28934010D01*
X59590791Y-28934013D01*
X59544672Y-28951214D01*
X59474980Y-28956198D01*
X59458007Y-28951214D01*
X59409202Y-28933011D01*
X59348654Y-28926500D01*
X59348638Y-28926500D01*
X58651362Y-28926500D01*
X58651345Y-28926500D01*
X58590802Y-28933010D01*
X58590791Y-28933012D01*
X58543332Y-28950714D01*
X58473640Y-28955698D01*
X58456668Y-28950714D01*
X58409208Y-28933012D01*
X58409197Y-28933010D01*
X58348654Y-28926500D01*
X58348638Y-28926500D01*
X57651362Y-28926500D01*
X57651345Y-28926500D01*
X57590802Y-28933010D01*
X57590791Y-28933012D01*
X57531170Y-28955250D01*
X57461478Y-28960234D01*
X57444505Y-28955250D01*
X57407379Y-28941403D01*
X57407372Y-28941401D01*
X57347844Y-28935000D01*
X57250000Y-28935000D01*
X57250000Y-29164040D01*
X57242181Y-29207374D01*
X57198012Y-29325792D01*
X57198011Y-29325797D01*
X57191500Y-29386345D01*
X57191500Y-31103492D01*
X57190914Y-31111999D01*
X57187901Y-31133774D01*
X57187944Y-31141670D01*
X57189001Y-31171973D01*
X57189003Y-31171984D01*
X57190911Y-31181067D01*
X57191881Y-31187190D01*
X57198010Y-31244201D01*
X57208898Y-31273391D01*
X57214064Y-31291215D01*
X57219064Y-31315004D01*
X57219065Y-31315006D01*
X57242216Y-31378433D01*
X57242483Y-31379163D01*
X57250000Y-31421680D01*
X57250000Y-31635000D01*
X57264681Y-31649681D01*
X57298166Y-31711004D01*
X57301000Y-31737362D01*
X57301000Y-32259102D01*
X57281315Y-32326141D01*
X57264681Y-32346783D01*
X56836783Y-32774681D01*
X56775460Y-32808166D01*
X56749102Y-32811000D01*
X56237094Y-32811000D01*
X56170055Y-32791315D01*
X56124300Y-32738511D01*
X56114356Y-32669353D01*
X56143381Y-32605797D01*
X56149404Y-32599326D01*
X56390076Y-32358654D01*
X56402460Y-32348735D01*
X56402289Y-32348528D01*
X56408298Y-32343555D01*
X56408303Y-32343553D01*
X56456441Y-32292290D01*
X56477638Y-32271094D01*
X56481979Y-32265497D01*
X56485774Y-32261054D01*
X56487607Y-32259102D01*
X56518217Y-32226506D01*
X56528102Y-32208524D01*
X56538773Y-32192278D01*
X56551349Y-32176067D01*
X56570172Y-32132567D01*
X56572740Y-32127328D01*
X56595569Y-32085803D01*
X56600670Y-32065931D01*
X56606973Y-32047526D01*
X56615117Y-32028708D01*
X56622533Y-31981875D01*
X56623708Y-31976201D01*
X56635500Y-31930282D01*
X56635500Y-31909774D01*
X56637027Y-31890374D01*
X56640235Y-31870121D01*
X56635775Y-31822939D01*
X56635500Y-31817101D01*
X56635500Y-31759000D01*
X56655185Y-31691961D01*
X56707989Y-31646206D01*
X56747358Y-31637641D01*
X56750000Y-31635000D01*
X56750000Y-31408769D01*
X56760391Y-31359080D01*
X56781948Y-31309792D01*
X56785066Y-31294128D01*
X56790498Y-31275007D01*
X56801989Y-31244201D01*
X56801989Y-31244200D01*
X56808499Y-31183649D01*
X56808552Y-31182670D01*
X56810036Y-31170851D01*
X56809936Y-31170839D01*
X56810487Y-31166457D01*
X56810489Y-31166449D01*
X56810970Y-31157507D01*
X56810981Y-31102556D01*
X56810876Y-31102032D01*
X56808500Y-31077869D01*
X56808500Y-29386362D01*
X56808499Y-29386345D01*
X56805157Y-29355270D01*
X56801989Y-29325799D01*
X56801987Y-29325795D01*
X56801987Y-29325792D01*
X56757819Y-29207374D01*
X56750000Y-29164040D01*
X56750000Y-28935000D01*
X56652155Y-28935000D01*
X56592627Y-28941401D01*
X56592621Y-28941403D01*
X56555491Y-28955251D01*
X56485800Y-28960234D01*
X56468826Y-28955250D01*
X56409201Y-28933010D01*
X56348654Y-28926500D01*
X56348638Y-28926500D01*
X55651362Y-28926500D01*
X55651345Y-28926500D01*
X55590802Y-28933010D01*
X55590791Y-28933012D01*
X55543332Y-28950714D01*
X55473640Y-28955698D01*
X55456668Y-28950714D01*
X55409208Y-28933012D01*
X55409197Y-28933010D01*
X55348654Y-28926500D01*
X55348638Y-28926500D01*
X54651362Y-28926500D01*
X54651345Y-28926500D01*
X54590802Y-28933010D01*
X54590791Y-28933012D01*
X54543332Y-28950714D01*
X54473640Y-28955698D01*
X54456668Y-28950714D01*
X54409208Y-28933012D01*
X54409197Y-28933010D01*
X54348654Y-28926500D01*
X54348638Y-28926500D01*
X53759500Y-28926500D01*
X53692461Y-28906815D01*
X53646706Y-28854011D01*
X53635500Y-28802500D01*
X53635500Y-28635094D01*
X53637515Y-28612833D01*
X53640811Y-28594769D01*
X53686780Y-28342877D01*
X53692824Y-28321172D01*
X53692965Y-28320801D01*
X53697025Y-28287355D01*
X53697580Y-28283703D01*
X53704673Y-28244841D01*
X53707742Y-28222519D01*
X53708976Y-28209263D01*
X53708902Y-28193588D01*
X53709354Y-28185818D01*
X53713704Y-28150000D01*
X53692965Y-27979199D01*
X53631954Y-27818325D01*
X53534215Y-27676727D01*
X53534213Y-27676725D01*
X53534210Y-27676722D01*
X53405432Y-27562634D01*
X53253079Y-27482673D01*
X53086028Y-27441500D01*
X52913972Y-27441500D01*
X52746920Y-27482673D01*
X52594567Y-27562634D01*
X52465789Y-27676722D01*
X52465786Y-27676725D01*
X52368045Y-27818326D01*
X52307034Y-27979198D01*
X52286296Y-28149999D01*
X52286296Y-28150001D01*
X52296221Y-28231751D01*
X52296629Y-28236885D01*
X52297348Y-28255915D01*
X52302417Y-28283693D01*
X52302972Y-28287347D01*
X52307033Y-28320795D01*
X52307034Y-28320799D01*
X52307035Y-28320801D01*
X52307180Y-28321184D01*
X52313218Y-28342877D01*
X52362485Y-28612827D01*
X52364500Y-28635090D01*
X52364500Y-28802500D01*
X52344815Y-28869539D01*
X52292011Y-28915294D01*
X52240500Y-28926500D01*
X51651345Y-28926500D01*
X51590797Y-28933011D01*
X51590795Y-28933011D01*
X51453795Y-28984111D01*
X51336739Y-29071739D01*
X51249111Y-29188795D01*
X51198011Y-29325795D01*
X51198011Y-29325797D01*
X51191500Y-29386345D01*
X51191500Y-31183654D01*
X51198011Y-31244202D01*
X51198011Y-31244204D01*
X51249111Y-31381206D01*
X51249112Y-31381207D01*
X51278183Y-31420041D01*
X51302600Y-31485505D01*
X51287748Y-31553778D01*
X51238342Y-31603183D01*
X51220770Y-31610112D01*
X51220952Y-31610572D01*
X51213702Y-31613441D01*
X51213701Y-31613442D01*
X51192365Y-31621888D01*
X51169646Y-31630883D01*
X51164121Y-31632775D01*
X51118606Y-31646000D01*
X51118604Y-31646001D01*
X51100952Y-31656440D01*
X51083491Y-31664994D01*
X51064417Y-31672547D01*
X51064414Y-31672548D01*
X51026073Y-31700403D01*
X51021191Y-31703610D01*
X50980401Y-31727733D01*
X50965898Y-31742237D01*
X50951108Y-31754869D01*
X50934515Y-31766924D01*
X50934512Y-31766927D01*
X50904301Y-31803445D01*
X50900368Y-31807766D01*
X50381995Y-32326141D01*
X49879955Y-32828181D01*
X49818632Y-32861666D01*
X49792274Y-32864500D01*
X44507787Y-32864500D01*
X44492004Y-32862757D01*
X44491979Y-32863025D01*
X44484217Y-32862291D01*
X44484216Y-32862291D01*
X44413932Y-32864500D01*
X44383952Y-32864500D01*
X44383949Y-32864500D01*
X44383934Y-32864501D01*
X44376916Y-32865387D01*
X44371099Y-32865845D01*
X44323735Y-32867334D01*
X44323729Y-32867335D01*
X44304028Y-32873058D01*
X44284989Y-32877000D01*
X44264646Y-32879571D01*
X44264640Y-32879572D01*
X44264636Y-32879573D01*
X44252649Y-32884318D01*
X44220581Y-32897014D01*
X44215056Y-32898906D01*
X44169541Y-32912131D01*
X44169539Y-32912132D01*
X44151887Y-32922571D01*
X44134426Y-32931125D01*
X44115352Y-32938678D01*
X44115349Y-32938679D01*
X44077008Y-32966534D01*
X44072126Y-32969741D01*
X44031336Y-32993864D01*
X44016833Y-33008368D01*
X44002043Y-33021000D01*
X43985450Y-33033055D01*
X43985447Y-33033058D01*
X43955236Y-33069576D01*
X43951304Y-33073897D01*
X39109921Y-37915279D01*
X39097531Y-37925207D01*
X39097702Y-37925414D01*
X39091696Y-37930382D01*
X39066878Y-37956810D01*
X39043573Y-37981628D01*
X39036503Y-37988698D01*
X39022365Y-38002835D01*
X39022363Y-38002837D01*
X39018008Y-38008451D01*
X39014218Y-38012888D01*
X38981782Y-38047429D01*
X38981781Y-38047431D01*
X38971900Y-38065403D01*
X38961225Y-38081654D01*
X38948652Y-38097864D01*
X38948649Y-38097868D01*
X38929827Y-38141363D01*
X38927257Y-38146609D01*
X38904430Y-38188132D01*
X38899329Y-38207999D01*
X38893030Y-38226397D01*
X38884884Y-38245222D01*
X38884881Y-38245231D01*
X38877469Y-38292033D01*
X38876284Y-38297755D01*
X38864500Y-38343646D01*
X38864500Y-38364160D01*
X38862973Y-38383559D01*
X38859765Y-38403812D01*
X38864225Y-38450994D01*
X38864500Y-38456832D01*
X38864500Y-52564906D01*
X38862485Y-52587169D01*
X38813216Y-52857124D01*
X38807181Y-52878811D01*
X38807036Y-52879192D01*
X38807035Y-52879195D01*
X38802975Y-52912634D01*
X38802419Y-52916291D01*
X38797349Y-52944077D01*
X38795314Y-52955226D01*
X38792234Y-52977657D01*
X38791003Y-52990951D01*
X38791078Y-53006550D01*
X38790627Y-53014329D01*
X38786296Y-53049999D01*
X38786296Y-53050000D01*
X37500500Y-53050000D01*
X37500500Y-31124500D01*
X37520185Y-31057461D01*
X37572989Y-31011706D01*
X37624500Y-31000500D01*
X46999901Y-31000500D01*
X49775240Y-31000500D01*
X49775383Y-31000528D01*
X49775384Y-31000524D01*
X49799997Y-31000539D01*
X49800000Y-31000541D01*
X49800383Y-31000383D01*
X49800500Y-31000099D01*
X49800541Y-31000000D01*
X49800540Y-30999997D01*
X49800583Y-30975889D01*
X49800500Y-30975467D01*
X49800500Y-27910533D01*
X49820185Y-27843494D01*
X49872989Y-27797739D01*
X49942147Y-27787795D01*
X49967836Y-27794352D01*
X49992622Y-27803597D01*
X49992627Y-27803598D01*
X50052155Y-27809999D01*
X50052172Y-27810000D01*
X50450000Y-27810000D01*
X50450000Y-26660000D01*
X50950000Y-26660000D01*
X50950000Y-27810000D01*
X51347828Y-27810000D01*
X51347844Y-27809999D01*
X51407372Y-27803598D01*
X51407379Y-27803596D01*
X51542086Y-27753354D01*
X51542093Y-27753350D01*
X51657187Y-27667190D01*
X51657190Y-27667187D01*
X51743350Y-27552093D01*
X51743354Y-27552086D01*
X51793596Y-27417379D01*
X51793598Y-27417372D01*
X51799999Y-27357844D01*
X51800000Y-27357827D01*
X51800000Y-26660000D01*
X61200000Y-26660000D01*
X61200000Y-27357844D01*
X61206401Y-27417372D01*
X61206403Y-27417379D01*
X61256645Y-27552086D01*
X61256649Y-27552093D01*
X61342809Y-27667187D01*
X61342812Y-27667190D01*
X61457906Y-27753350D01*
X61457913Y-27753354D01*
X61592620Y-27803596D01*
X61592627Y-27803598D01*
X61652155Y-27809999D01*
X61652172Y-27810000D01*
X62050000Y-27810000D01*
X62050000Y-26660000D01*
X61200000Y-26660000D01*
X51800000Y-26660000D01*
X50950000Y-26660000D01*
X50450000Y-26660000D01*
X50450000Y-26284000D01*
X50469685Y-26216961D01*
X50522489Y-26171206D01*
X50574000Y-26160000D01*
X51800000Y-26160000D01*
X51800000Y-25462172D01*
X51799999Y-25462155D01*
X51793598Y-25402627D01*
X51793596Y-25402620D01*
X51743354Y-25267913D01*
X51743352Y-25267910D01*
X51691625Y-25198812D01*
X51667207Y-25133348D01*
X51682058Y-25065074D01*
X51731463Y-25015669D01*
X51790891Y-25000500D01*
X61209109Y-25000500D01*
X61276148Y-25020185D01*
G37*
G04 #@! TD.AperFunction*
M02*
