G04 #@! TF.GenerationSoftware,KiCad,Pcbnew,7.0.8*
G04 #@! TF.CreationDate,2023-10-22T00:36:51-07:00*
G04 #@! TF.ProjectId,Seismos_4-Thumb,53656973-6d6f-4735-9f34-2d5468756d62,rev?*
G04 #@! TF.SameCoordinates,Original*
G04 #@! TF.FileFunction,Soldermask,Bot*
G04 #@! TF.FilePolarity,Negative*
%FSLAX46Y46*%
G04 Gerber Fmt 4.6, Leading zero omitted, Abs format (unit mm)*
G04 Created by KiCad (PCBNEW 7.0.8) date 2023-10-22 00:36:51*
%MOMM*%
%LPD*%
G01*
G04 APERTURE LIST*
G04 Aperture macros list*
%AMRoundRect*
0 Rectangle with rounded corners*
0 $1 Rounding radius*
0 $2 $3 $4 $5 $6 $7 $8 $9 X,Y pos of 4 corners*
0 Add a 4 corners polygon primitive as box body*
4,1,4,$2,$3,$4,$5,$6,$7,$8,$9,$2,$3,0*
0 Add four circle primitives for the rounded corners*
1,1,$1+$1,$2,$3*
1,1,$1+$1,$4,$5*
1,1,$1+$1,$6,$7*
1,1,$1+$1,$8,$9*
0 Add four rect primitives between the rounded corners*
20,1,$1+$1,$2,$3,$4,$5,0*
20,1,$1+$1,$4,$5,$6,$7,0*
20,1,$1+$1,$6,$7,$8,$9,0*
20,1,$1+$1,$8,$9,$2,$3,0*%
G04 Aperture macros list end*
%ADD10RoundRect,0.225000X-0.375000X0.225000X-0.375000X-0.225000X0.375000X-0.225000X0.375000X0.225000X0*%
%ADD11C,2.300000*%
%ADD12C,1.000000*%
%ADD13C,3.000000*%
%ADD14C,4.000000*%
%ADD15R,1.750000X0.812800*%
%ADD16RoundRect,0.063500X-1.150000X-1.300000X1.150000X-1.300000X1.150000X1.300000X-1.150000X1.300000X0*%
%ADD17RoundRect,0.063500X-1.750000X-1.750000X1.750000X-1.750000X1.750000X1.750000X-1.750000X1.750000X0*%
%ADD18RoundRect,0.063500X-1.200000X-1.300000X1.200000X-1.300000X1.200000X1.300000X-1.200000X1.300000X0*%
%ADD19C,3.200000*%
G04 APERTURE END LIST*
D10*
X58500000Y-35350000D03*
X58500000Y-38650000D03*
X39500000Y-57650000D03*
X39500000Y-54350000D03*
X39500000Y-38650000D03*
X39500000Y-35350000D03*
X58500000Y-54350000D03*
X58500000Y-57650000D03*
D11*
X41700000Y-60000000D03*
D12*
X41780000Y-56384200D03*
D13*
X42000000Y-63800000D03*
X44460000Y-65080000D03*
D14*
X47000000Y-60000000D03*
D13*
X47000000Y-65900000D03*
X50810000Y-62540000D03*
D12*
X52220000Y-56384200D03*
D11*
X52300000Y-60000000D03*
D15*
X49378000Y-54754900D03*
D16*
X38660000Y-63800000D03*
X50560000Y-65900000D03*
D15*
X44348100Y-54754900D03*
X49378000Y-56253500D03*
X44348100Y-56253500D03*
D17*
X40910000Y-65515000D03*
D18*
X53860000Y-62540000D03*
D11*
X41700000Y-41000000D03*
D12*
X41780000Y-37384200D03*
D13*
X42000000Y-44800000D03*
X44460000Y-46080000D03*
D14*
X47000000Y-41000000D03*
D13*
X47000000Y-46900000D03*
X50810000Y-43540000D03*
D12*
X52220000Y-37384200D03*
D11*
X52300000Y-41000000D03*
D15*
X49378000Y-35754900D03*
D16*
X38660000Y-44800000D03*
X50560000Y-46900000D03*
D15*
X44348100Y-35754900D03*
X49378000Y-37253500D03*
X44348100Y-37253500D03*
D17*
X40910000Y-46515000D03*
D18*
X53860000Y-43540000D03*
D11*
X60700000Y-60000000D03*
D12*
X60780000Y-56384200D03*
D13*
X61000000Y-63800000D03*
X63460000Y-65080000D03*
D14*
X66000000Y-60000000D03*
D13*
X66000000Y-65900000D03*
X69810000Y-62540000D03*
D12*
X71220000Y-56384200D03*
D11*
X71300000Y-60000000D03*
D15*
X68378000Y-54754900D03*
D16*
X57660000Y-63800000D03*
X69560000Y-65900000D03*
D15*
X63348100Y-54754900D03*
X68378000Y-56253500D03*
X63348100Y-56253500D03*
D17*
X59910000Y-65515000D03*
D18*
X72860000Y-62540000D03*
D11*
X60700000Y-41000000D03*
D12*
X60780000Y-37384200D03*
D13*
X61000000Y-44800000D03*
X63460000Y-46080000D03*
D14*
X66000000Y-41000000D03*
D13*
X66000000Y-46900000D03*
X69810000Y-43540000D03*
D12*
X71220000Y-37384200D03*
D11*
X71300000Y-41000000D03*
D15*
X68378000Y-35754900D03*
D16*
X57660000Y-44800000D03*
X69560000Y-46900000D03*
D15*
X63348100Y-35754900D03*
X68378000Y-37253500D03*
X63348100Y-37253500D03*
D17*
X59910000Y-46515000D03*
D18*
X72860000Y-43540000D03*
D19*
X40500000Y-70500000D03*
X72500000Y-70500000D03*
M02*
