%TF.GenerationSoftware,KiCad,Pcbnew,7.0.8*%
%TF.CreationDate,2023-10-22T00:36:53-07:00*%
%TF.ProjectId,Seismos_4-Thumb,53656973-6d6f-4735-9f34-2d5468756d62,rev?*%
%TF.SameCoordinates,Original*%
%TF.FileFunction,Drillmap*%
%TF.FilePolarity,Positive*%
%FSLAX45Y45*%
G04 Gerber Fmt 4.5, Leading zero omitted, Abs format (unit mm)*
G04 Created by KiCad (PCBNEW 7.0.8) date 2023-10-22 00:36:53*
%MOMM*%
%LPD*%
G01*
G04 APERTURE LIST*
%ADD10C,0.100000*%
%ADD11C,0.200000*%
%ADD12C,0.230000*%
%ADD13C,0.300000*%
%ADD14C,0.320000*%
%ADD15C,0.400000*%
G04 APERTURE END LIST*
D10*
X3750000Y-7193934D02*
X3750000Y-3100000D01*
X7400000Y-7343934D02*
X3900000Y-7343934D01*
X3750006Y-7193934D02*
G75*
G03*
X3900000Y-7343934I149994J-6D01*
G01*
X4980000Y-2500000D02*
X4980000Y-3100000D01*
X4700000Y-3100000D02*
X4980000Y-3100000D01*
X6600000Y-3100000D02*
X6320000Y-3100000D01*
X4700000Y-3100000D02*
X3750000Y-3100000D01*
X6600000Y-3100000D02*
X7550000Y-3100000D01*
X7400000Y-7343940D02*
G75*
G03*
X7550000Y-7193934I-10J150010D01*
G01*
X7550000Y-3100000D02*
X7550000Y-7193934D01*
X6320000Y-3100000D02*
X6320000Y-2500000D01*
X4980000Y-2500000D02*
X6320000Y-2500000D01*
D11*
D10*
X4128000Y-3688420D02*
X4228000Y-3788420D01*
X4228000Y-3688420D02*
X4128000Y-3788420D01*
X4128000Y-5588420D02*
X4228000Y-5688420D01*
X4228000Y-5588420D02*
X4128000Y-5688420D01*
X5172000Y-3688420D02*
X5272000Y-3788420D01*
X5272000Y-3688420D02*
X5172000Y-3788420D01*
X5172000Y-5588420D02*
X5272000Y-5688420D01*
X5272000Y-5588420D02*
X5172000Y-5688420D01*
X6028000Y-3688420D02*
X6128000Y-3788420D01*
X6128000Y-3688420D02*
X6028000Y-3788420D01*
X6028000Y-5588420D02*
X6128000Y-5688420D01*
X6128000Y-5588420D02*
X6028000Y-5688420D01*
X7072000Y-3688420D02*
X7172000Y-3788420D01*
X7172000Y-3688420D02*
X7072000Y-3788420D01*
X7072000Y-5588420D02*
X7172000Y-5688420D01*
X7172000Y-5588420D02*
X7072000Y-5688420D01*
D12*
X4285000Y-4100000D02*
G75*
G03*
X4285000Y-4100000I-115000J0D01*
G01*
X4285000Y-6000000D02*
G75*
G03*
X4285000Y-6000000I-115000J0D01*
G01*
X5345000Y-4100000D02*
G75*
G03*
X5345000Y-4100000I-115000J0D01*
G01*
X5345000Y-6000000D02*
G75*
G03*
X5345000Y-6000000I-115000J0D01*
G01*
X6185000Y-4100000D02*
G75*
G03*
X6185000Y-4100000I-115000J0D01*
G01*
X6185000Y-6000000D02*
G75*
G03*
X6185000Y-6000000I-115000J0D01*
G01*
X7245000Y-4100000D02*
G75*
G03*
X7245000Y-4100000I-115000J0D01*
G01*
X7245000Y-6000000D02*
G75*
G03*
X7245000Y-6000000I-115000J0D01*
G01*
D13*
X4200000Y-4330000D02*
X4200000Y-4630000D01*
X4050000Y-4480000D02*
X4350000Y-4480000D01*
X4200000Y-6230000D02*
X4200000Y-6530000D01*
X4050000Y-6380000D02*
X4350000Y-6380000D01*
X4446000Y-4458000D02*
X4446000Y-4758000D01*
X4296000Y-4608000D02*
X4596000Y-4608000D01*
X4446000Y-6358000D02*
X4446000Y-6658000D01*
X4296000Y-6508000D02*
X4596000Y-6508000D01*
X4700000Y-4540000D02*
X4700000Y-4840000D01*
X4550000Y-4690000D02*
X4850000Y-4690000D01*
X4700000Y-6440000D02*
X4700000Y-6740000D01*
X4550000Y-6590000D02*
X4850000Y-6590000D01*
X5081000Y-4204000D02*
X5081000Y-4504000D01*
X4931000Y-4354000D02*
X5231000Y-4354000D01*
X5081000Y-6104000D02*
X5081000Y-6404000D01*
X4931000Y-6254000D02*
X5231000Y-6254000D01*
X6100000Y-4330000D02*
X6100000Y-4630000D01*
X5950000Y-4480000D02*
X6250000Y-4480000D01*
X6100000Y-6230000D02*
X6100000Y-6530000D01*
X5950000Y-6380000D02*
X6250000Y-6380000D01*
X6346000Y-4458000D02*
X6346000Y-4758000D01*
X6196000Y-4608000D02*
X6496000Y-4608000D01*
X6346000Y-6358000D02*
X6346000Y-6658000D01*
X6196000Y-6508000D02*
X6496000Y-6508000D01*
X6600000Y-4540000D02*
X6600000Y-4840000D01*
X6450000Y-4690000D02*
X6750000Y-4690000D01*
X6600000Y-6440000D02*
X6600000Y-6740000D01*
X6450000Y-6590000D02*
X6750000Y-6590000D01*
X6981000Y-4204000D02*
X6981000Y-4504000D01*
X6831000Y-4354000D02*
X7131000Y-4354000D01*
X6981000Y-6104000D02*
X6981000Y-6404000D01*
X6831000Y-6254000D02*
X7131000Y-6254000D01*
D14*
X4163138Y-7163138D02*
X4163138Y-6936862D01*
X3936862Y-6936862D01*
X3936862Y-7163138D01*
X4163138Y-7163138D01*
X7363138Y-7163138D02*
X7363138Y-6936862D01*
X7136862Y-6936862D01*
X7136862Y-7163138D01*
X7363138Y-7163138D01*
D15*
X4700000Y-4300000D02*
X4900000Y-4100000D01*
X4700000Y-3900000D01*
X4500000Y-4100000D01*
X4700000Y-4300000D01*
X4700000Y-6200000D02*
X4900000Y-6000000D01*
X4700000Y-5800000D01*
X4500000Y-6000000D01*
X4700000Y-6200000D01*
X6600000Y-4300000D02*
X6800000Y-4100000D01*
X6600000Y-3900000D01*
X6400000Y-4100000D01*
X6600000Y-4300000D01*
X6600000Y-6200000D02*
X6800000Y-6000000D01*
X6600000Y-5800000D01*
X6400000Y-6000000D01*
X6600000Y-6200000D01*
D11*
X4005777Y-7660418D02*
X4005777Y-7460418D01*
X4005777Y-7460418D02*
X4053396Y-7460418D01*
X4053396Y-7460418D02*
X4081967Y-7469942D01*
X4081967Y-7469942D02*
X4101015Y-7488989D01*
X4101015Y-7488989D02*
X4110539Y-7508037D01*
X4110539Y-7508037D02*
X4120062Y-7546132D01*
X4120062Y-7546132D02*
X4120062Y-7574703D01*
X4120062Y-7574703D02*
X4110539Y-7612799D01*
X4110539Y-7612799D02*
X4101015Y-7631846D01*
X4101015Y-7631846D02*
X4081967Y-7650894D01*
X4081967Y-7650894D02*
X4053396Y-7660418D01*
X4053396Y-7660418D02*
X4005777Y-7660418D01*
X4205777Y-7660418D02*
X4205777Y-7527084D01*
X4205777Y-7565180D02*
X4215301Y-7546132D01*
X4215301Y-7546132D02*
X4224824Y-7536608D01*
X4224824Y-7536608D02*
X4243872Y-7527084D01*
X4243872Y-7527084D02*
X4262920Y-7527084D01*
X4329586Y-7660418D02*
X4329586Y-7527084D01*
X4329586Y-7460418D02*
X4320063Y-7469942D01*
X4320063Y-7469942D02*
X4329586Y-7479465D01*
X4329586Y-7479465D02*
X4339110Y-7469942D01*
X4339110Y-7469942D02*
X4329586Y-7460418D01*
X4329586Y-7460418D02*
X4329586Y-7479465D01*
X4453396Y-7660418D02*
X4434348Y-7650894D01*
X4434348Y-7650894D02*
X4424824Y-7631846D01*
X4424824Y-7631846D02*
X4424824Y-7460418D01*
X4558158Y-7660418D02*
X4539110Y-7650894D01*
X4539110Y-7650894D02*
X4529586Y-7631846D01*
X4529586Y-7631846D02*
X4529586Y-7460418D01*
X4786729Y-7660418D02*
X4786729Y-7460418D01*
X4786729Y-7460418D02*
X4853396Y-7603275D01*
X4853396Y-7603275D02*
X4920063Y-7460418D01*
X4920063Y-7460418D02*
X4920063Y-7660418D01*
X5101015Y-7660418D02*
X5101015Y-7555656D01*
X5101015Y-7555656D02*
X5091491Y-7536608D01*
X5091491Y-7536608D02*
X5072444Y-7527084D01*
X5072444Y-7527084D02*
X5034348Y-7527084D01*
X5034348Y-7527084D02*
X5015301Y-7536608D01*
X5101015Y-7650894D02*
X5081967Y-7660418D01*
X5081967Y-7660418D02*
X5034348Y-7660418D01*
X5034348Y-7660418D02*
X5015301Y-7650894D01*
X5015301Y-7650894D02*
X5005777Y-7631846D01*
X5005777Y-7631846D02*
X5005777Y-7612799D01*
X5005777Y-7612799D02*
X5015301Y-7593751D01*
X5015301Y-7593751D02*
X5034348Y-7584227D01*
X5034348Y-7584227D02*
X5081967Y-7584227D01*
X5081967Y-7584227D02*
X5101015Y-7574703D01*
X5196253Y-7527084D02*
X5196253Y-7727084D01*
X5196253Y-7536608D02*
X5215301Y-7527084D01*
X5215301Y-7527084D02*
X5253396Y-7527084D01*
X5253396Y-7527084D02*
X5272444Y-7536608D01*
X5272444Y-7536608D02*
X5281967Y-7546132D01*
X5281967Y-7546132D02*
X5291491Y-7565180D01*
X5291491Y-7565180D02*
X5291491Y-7622322D01*
X5291491Y-7622322D02*
X5281967Y-7641370D01*
X5281967Y-7641370D02*
X5272444Y-7650894D01*
X5272444Y-7650894D02*
X5253396Y-7660418D01*
X5253396Y-7660418D02*
X5215301Y-7660418D01*
X5215301Y-7660418D02*
X5196253Y-7650894D01*
X5377205Y-7641370D02*
X5386729Y-7650894D01*
X5386729Y-7650894D02*
X5377205Y-7660418D01*
X5377205Y-7660418D02*
X5367682Y-7650894D01*
X5367682Y-7650894D02*
X5377205Y-7641370D01*
X5377205Y-7641370D02*
X5377205Y-7660418D01*
X5377205Y-7536608D02*
X5386729Y-7546132D01*
X5386729Y-7546132D02*
X5377205Y-7555656D01*
X5377205Y-7555656D02*
X5367682Y-7546132D01*
X5367682Y-7546132D02*
X5377205Y-7536608D01*
X5377205Y-7536608D02*
X5377205Y-7555656D01*
D10*
X3645000Y-7938934D02*
X3745000Y-8038934D01*
X3745000Y-7938934D02*
X3645000Y-8038934D01*
D11*
X4110539Y-8080418D02*
X3996253Y-8080418D01*
X4053396Y-8080418D02*
X4053396Y-7880418D01*
X4053396Y-7880418D02*
X4034348Y-7908989D01*
X4034348Y-7908989D02*
X4015301Y-7928037D01*
X4015301Y-7928037D02*
X3996253Y-7937561D01*
X4196253Y-8061370D02*
X4205777Y-8070894D01*
X4205777Y-8070894D02*
X4196253Y-8080418D01*
X4196253Y-8080418D02*
X4186729Y-8070894D01*
X4186729Y-8070894D02*
X4196253Y-8061370D01*
X4196253Y-8061370D02*
X4196253Y-8080418D01*
X4329586Y-7880418D02*
X4348634Y-7880418D01*
X4348634Y-7880418D02*
X4367682Y-7889942D01*
X4367682Y-7889942D02*
X4377205Y-7899465D01*
X4377205Y-7899465D02*
X4386729Y-7918513D01*
X4386729Y-7918513D02*
X4396253Y-7956608D01*
X4396253Y-7956608D02*
X4396253Y-8004227D01*
X4396253Y-8004227D02*
X4386729Y-8042322D01*
X4386729Y-8042322D02*
X4377205Y-8061370D01*
X4377205Y-8061370D02*
X4367682Y-8070894D01*
X4367682Y-8070894D02*
X4348634Y-8080418D01*
X4348634Y-8080418D02*
X4329586Y-8080418D01*
X4329586Y-8080418D02*
X4310539Y-8070894D01*
X4310539Y-8070894D02*
X4301015Y-8061370D01*
X4301015Y-8061370D02*
X4291491Y-8042322D01*
X4291491Y-8042322D02*
X4281967Y-8004227D01*
X4281967Y-8004227D02*
X4281967Y-7956608D01*
X4281967Y-7956608D02*
X4291491Y-7918513D01*
X4291491Y-7918513D02*
X4301015Y-7899465D01*
X4301015Y-7899465D02*
X4310539Y-7889942D01*
X4310539Y-7889942D02*
X4329586Y-7880418D01*
X4520063Y-7880418D02*
X4539110Y-7880418D01*
X4539110Y-7880418D02*
X4558158Y-7889942D01*
X4558158Y-7889942D02*
X4567682Y-7899465D01*
X4567682Y-7899465D02*
X4577205Y-7918513D01*
X4577205Y-7918513D02*
X4586729Y-7956608D01*
X4586729Y-7956608D02*
X4586729Y-8004227D01*
X4586729Y-8004227D02*
X4577205Y-8042322D01*
X4577205Y-8042322D02*
X4567682Y-8061370D01*
X4567682Y-8061370D02*
X4558158Y-8070894D01*
X4558158Y-8070894D02*
X4539110Y-8080418D01*
X4539110Y-8080418D02*
X4520063Y-8080418D01*
X4520063Y-8080418D02*
X4501015Y-8070894D01*
X4501015Y-8070894D02*
X4491491Y-8061370D01*
X4491491Y-8061370D02*
X4481967Y-8042322D01*
X4481967Y-8042322D02*
X4472444Y-8004227D01*
X4472444Y-8004227D02*
X4472444Y-7956608D01*
X4472444Y-7956608D02*
X4481967Y-7918513D01*
X4481967Y-7918513D02*
X4491491Y-7899465D01*
X4491491Y-7899465D02*
X4501015Y-7889942D01*
X4501015Y-7889942D02*
X4520063Y-7880418D01*
X4710539Y-7880418D02*
X4729586Y-7880418D01*
X4729586Y-7880418D02*
X4748634Y-7889942D01*
X4748634Y-7889942D02*
X4758158Y-7899465D01*
X4758158Y-7899465D02*
X4767682Y-7918513D01*
X4767682Y-7918513D02*
X4777205Y-7956608D01*
X4777205Y-7956608D02*
X4777205Y-8004227D01*
X4777205Y-8004227D02*
X4767682Y-8042322D01*
X4767682Y-8042322D02*
X4758158Y-8061370D01*
X4758158Y-8061370D02*
X4748634Y-8070894D01*
X4748634Y-8070894D02*
X4729586Y-8080418D01*
X4729586Y-8080418D02*
X4710539Y-8080418D01*
X4710539Y-8080418D02*
X4691491Y-8070894D01*
X4691491Y-8070894D02*
X4681967Y-8061370D01*
X4681967Y-8061370D02*
X4672444Y-8042322D01*
X4672444Y-8042322D02*
X4662920Y-8004227D01*
X4662920Y-8004227D02*
X4662920Y-7956608D01*
X4662920Y-7956608D02*
X4672444Y-7918513D01*
X4672444Y-7918513D02*
X4681967Y-7899465D01*
X4681967Y-7899465D02*
X4691491Y-7889942D01*
X4691491Y-7889942D02*
X4710539Y-7880418D01*
X4862920Y-8080418D02*
X4862920Y-7947084D01*
X4862920Y-7966132D02*
X4872444Y-7956608D01*
X4872444Y-7956608D02*
X4891491Y-7947084D01*
X4891491Y-7947084D02*
X4920063Y-7947084D01*
X4920063Y-7947084D02*
X4939110Y-7956608D01*
X4939110Y-7956608D02*
X4948634Y-7975656D01*
X4948634Y-7975656D02*
X4948634Y-8080418D01*
X4948634Y-7975656D02*
X4958158Y-7956608D01*
X4958158Y-7956608D02*
X4977205Y-7947084D01*
X4977205Y-7947084D02*
X5005777Y-7947084D01*
X5005777Y-7947084D02*
X5024825Y-7956608D01*
X5024825Y-7956608D02*
X5034348Y-7975656D01*
X5034348Y-7975656D02*
X5034348Y-8080418D01*
X5129586Y-8080418D02*
X5129586Y-7947084D01*
X5129586Y-7966132D02*
X5139110Y-7956608D01*
X5139110Y-7956608D02*
X5158158Y-7947084D01*
X5158158Y-7947084D02*
X5186729Y-7947084D01*
X5186729Y-7947084D02*
X5205777Y-7956608D01*
X5205777Y-7956608D02*
X5215301Y-7975656D01*
X5215301Y-7975656D02*
X5215301Y-8080418D01*
X5215301Y-7975656D02*
X5224825Y-7956608D01*
X5224825Y-7956608D02*
X5243872Y-7947084D01*
X5243872Y-7947084D02*
X5272444Y-7947084D01*
X5272444Y-7947084D02*
X5291491Y-7956608D01*
X5291491Y-7956608D02*
X5301015Y-7975656D01*
X5301015Y-7975656D02*
X5301015Y-8080418D01*
X5691491Y-7870894D02*
X5520063Y-8128037D01*
X5948634Y-7880418D02*
X5967682Y-7880418D01*
X5967682Y-7880418D02*
X5986729Y-7889942D01*
X5986729Y-7889942D02*
X5996253Y-7899465D01*
X5996253Y-7899465D02*
X6005777Y-7918513D01*
X6005777Y-7918513D02*
X6015301Y-7956608D01*
X6015301Y-7956608D02*
X6015301Y-8004227D01*
X6015301Y-8004227D02*
X6005777Y-8042322D01*
X6005777Y-8042322D02*
X5996253Y-8061370D01*
X5996253Y-8061370D02*
X5986729Y-8070894D01*
X5986729Y-8070894D02*
X5967682Y-8080418D01*
X5967682Y-8080418D02*
X5948634Y-8080418D01*
X5948634Y-8080418D02*
X5929586Y-8070894D01*
X5929586Y-8070894D02*
X5920063Y-8061370D01*
X5920063Y-8061370D02*
X5910539Y-8042322D01*
X5910539Y-8042322D02*
X5901015Y-8004227D01*
X5901015Y-8004227D02*
X5901015Y-7956608D01*
X5901015Y-7956608D02*
X5910539Y-7918513D01*
X5910539Y-7918513D02*
X5920063Y-7899465D01*
X5920063Y-7899465D02*
X5929586Y-7889942D01*
X5929586Y-7889942D02*
X5948634Y-7880418D01*
X6101015Y-8061370D02*
X6110539Y-8070894D01*
X6110539Y-8070894D02*
X6101015Y-8080418D01*
X6101015Y-8080418D02*
X6091491Y-8070894D01*
X6091491Y-8070894D02*
X6101015Y-8061370D01*
X6101015Y-8061370D02*
X6101015Y-8080418D01*
X6234348Y-7880418D02*
X6253396Y-7880418D01*
X6253396Y-7880418D02*
X6272444Y-7889942D01*
X6272444Y-7889942D02*
X6281967Y-7899465D01*
X6281967Y-7899465D02*
X6291491Y-7918513D01*
X6291491Y-7918513D02*
X6301015Y-7956608D01*
X6301015Y-7956608D02*
X6301015Y-8004227D01*
X6301015Y-8004227D02*
X6291491Y-8042322D01*
X6291491Y-8042322D02*
X6281967Y-8061370D01*
X6281967Y-8061370D02*
X6272444Y-8070894D01*
X6272444Y-8070894D02*
X6253396Y-8080418D01*
X6253396Y-8080418D02*
X6234348Y-8080418D01*
X6234348Y-8080418D02*
X6215301Y-8070894D01*
X6215301Y-8070894D02*
X6205777Y-8061370D01*
X6205777Y-8061370D02*
X6196253Y-8042322D01*
X6196253Y-8042322D02*
X6186729Y-8004227D01*
X6186729Y-8004227D02*
X6186729Y-7956608D01*
X6186729Y-7956608D02*
X6196253Y-7918513D01*
X6196253Y-7918513D02*
X6205777Y-7899465D01*
X6205777Y-7899465D02*
X6215301Y-7889942D01*
X6215301Y-7889942D02*
X6234348Y-7880418D01*
X6367682Y-7880418D02*
X6491491Y-7880418D01*
X6491491Y-7880418D02*
X6424825Y-7956608D01*
X6424825Y-7956608D02*
X6453396Y-7956608D01*
X6453396Y-7956608D02*
X6472444Y-7966132D01*
X6472444Y-7966132D02*
X6481967Y-7975656D01*
X6481967Y-7975656D02*
X6491491Y-7994703D01*
X6491491Y-7994703D02*
X6491491Y-8042322D01*
X6491491Y-8042322D02*
X6481967Y-8061370D01*
X6481967Y-8061370D02*
X6472444Y-8070894D01*
X6472444Y-8070894D02*
X6453396Y-8080418D01*
X6453396Y-8080418D02*
X6396253Y-8080418D01*
X6396253Y-8080418D02*
X6377206Y-8070894D01*
X6377206Y-8070894D02*
X6367682Y-8061370D01*
X6586729Y-8080418D02*
X6624825Y-8080418D01*
X6624825Y-8080418D02*
X6643872Y-8070894D01*
X6643872Y-8070894D02*
X6653396Y-8061370D01*
X6653396Y-8061370D02*
X6672444Y-8032799D01*
X6672444Y-8032799D02*
X6681967Y-7994703D01*
X6681967Y-7994703D02*
X6681967Y-7918513D01*
X6681967Y-7918513D02*
X6672444Y-7899465D01*
X6672444Y-7899465D02*
X6662920Y-7889942D01*
X6662920Y-7889942D02*
X6643872Y-7880418D01*
X6643872Y-7880418D02*
X6605777Y-7880418D01*
X6605777Y-7880418D02*
X6586729Y-7889942D01*
X6586729Y-7889942D02*
X6577206Y-7899465D01*
X6577206Y-7899465D02*
X6567682Y-7918513D01*
X6567682Y-7918513D02*
X6567682Y-7966132D01*
X6567682Y-7966132D02*
X6577206Y-7985180D01*
X6577206Y-7985180D02*
X6586729Y-7994703D01*
X6586729Y-7994703D02*
X6605777Y-8004227D01*
X6605777Y-8004227D02*
X6643872Y-8004227D01*
X6643872Y-8004227D02*
X6662920Y-7994703D01*
X6662920Y-7994703D02*
X6672444Y-7985180D01*
X6672444Y-7985180D02*
X6681967Y-7966132D01*
X6853396Y-7947084D02*
X6853396Y-8080418D01*
X6805777Y-7870894D02*
X6758158Y-8013751D01*
X6758158Y-8013751D02*
X6881967Y-8013751D01*
X6948634Y-7880418D02*
X6948634Y-7918513D01*
X7024825Y-7880418D02*
X7024825Y-7918513D01*
X7320063Y-8156608D02*
X7310539Y-8147084D01*
X7310539Y-8147084D02*
X7291491Y-8118513D01*
X7291491Y-8118513D02*
X7281968Y-8099465D01*
X7281968Y-8099465D02*
X7272444Y-8070894D01*
X7272444Y-8070894D02*
X7262920Y-8023275D01*
X7262920Y-8023275D02*
X7262920Y-7985180D01*
X7262920Y-7985180D02*
X7272444Y-7937561D01*
X7272444Y-7937561D02*
X7281968Y-7908989D01*
X7281968Y-7908989D02*
X7291491Y-7889942D01*
X7291491Y-7889942D02*
X7310539Y-7861370D01*
X7310539Y-7861370D02*
X7320063Y-7851846D01*
X7424825Y-7966132D02*
X7405777Y-7956608D01*
X7405777Y-7956608D02*
X7396253Y-7947084D01*
X7396253Y-7947084D02*
X7386729Y-7928037D01*
X7386729Y-7928037D02*
X7386729Y-7918513D01*
X7386729Y-7918513D02*
X7396253Y-7899465D01*
X7396253Y-7899465D02*
X7405777Y-7889942D01*
X7405777Y-7889942D02*
X7424825Y-7880418D01*
X7424825Y-7880418D02*
X7462920Y-7880418D01*
X7462920Y-7880418D02*
X7481968Y-7889942D01*
X7481968Y-7889942D02*
X7491491Y-7899465D01*
X7491491Y-7899465D02*
X7501015Y-7918513D01*
X7501015Y-7918513D02*
X7501015Y-7928037D01*
X7501015Y-7928037D02*
X7491491Y-7947084D01*
X7491491Y-7947084D02*
X7481968Y-7956608D01*
X7481968Y-7956608D02*
X7462920Y-7966132D01*
X7462920Y-7966132D02*
X7424825Y-7966132D01*
X7424825Y-7966132D02*
X7405777Y-7975656D01*
X7405777Y-7975656D02*
X7396253Y-7985180D01*
X7396253Y-7985180D02*
X7386729Y-8004227D01*
X7386729Y-8004227D02*
X7386729Y-8042322D01*
X7386729Y-8042322D02*
X7396253Y-8061370D01*
X7396253Y-8061370D02*
X7405777Y-8070894D01*
X7405777Y-8070894D02*
X7424825Y-8080418D01*
X7424825Y-8080418D02*
X7462920Y-8080418D01*
X7462920Y-8080418D02*
X7481968Y-8070894D01*
X7481968Y-8070894D02*
X7491491Y-8061370D01*
X7491491Y-8061370D02*
X7501015Y-8042322D01*
X7501015Y-8042322D02*
X7501015Y-8004227D01*
X7501015Y-8004227D02*
X7491491Y-7985180D01*
X7491491Y-7985180D02*
X7481968Y-7975656D01*
X7481968Y-7975656D02*
X7462920Y-7966132D01*
X7739110Y-8080418D02*
X7739110Y-7880418D01*
X7824825Y-8080418D02*
X7824825Y-7975656D01*
X7824825Y-7975656D02*
X7815301Y-7956608D01*
X7815301Y-7956608D02*
X7796253Y-7947084D01*
X7796253Y-7947084D02*
X7767682Y-7947084D01*
X7767682Y-7947084D02*
X7748634Y-7956608D01*
X7748634Y-7956608D02*
X7739110Y-7966132D01*
X7948634Y-8080418D02*
X7929587Y-8070894D01*
X7929587Y-8070894D02*
X7920063Y-8061370D01*
X7920063Y-8061370D02*
X7910539Y-8042322D01*
X7910539Y-8042322D02*
X7910539Y-7985180D01*
X7910539Y-7985180D02*
X7920063Y-7966132D01*
X7920063Y-7966132D02*
X7929587Y-7956608D01*
X7929587Y-7956608D02*
X7948634Y-7947084D01*
X7948634Y-7947084D02*
X7977206Y-7947084D01*
X7977206Y-7947084D02*
X7996253Y-7956608D01*
X7996253Y-7956608D02*
X8005777Y-7966132D01*
X8005777Y-7966132D02*
X8015301Y-7985180D01*
X8015301Y-7985180D02*
X8015301Y-8042322D01*
X8015301Y-8042322D02*
X8005777Y-8061370D01*
X8005777Y-8061370D02*
X7996253Y-8070894D01*
X7996253Y-8070894D02*
X7977206Y-8080418D01*
X7977206Y-8080418D02*
X7948634Y-8080418D01*
X8129587Y-8080418D02*
X8110539Y-8070894D01*
X8110539Y-8070894D02*
X8101015Y-8051846D01*
X8101015Y-8051846D02*
X8101015Y-7880418D01*
X8281968Y-8070894D02*
X8262920Y-8080418D01*
X8262920Y-8080418D02*
X8224825Y-8080418D01*
X8224825Y-8080418D02*
X8205777Y-8070894D01*
X8205777Y-8070894D02*
X8196253Y-8051846D01*
X8196253Y-8051846D02*
X8196253Y-7975656D01*
X8196253Y-7975656D02*
X8205777Y-7956608D01*
X8205777Y-7956608D02*
X8224825Y-7947084D01*
X8224825Y-7947084D02*
X8262920Y-7947084D01*
X8262920Y-7947084D02*
X8281968Y-7956608D01*
X8281968Y-7956608D02*
X8291491Y-7975656D01*
X8291491Y-7975656D02*
X8291491Y-7994703D01*
X8291491Y-7994703D02*
X8196253Y-8013751D01*
X8367682Y-8070894D02*
X8386730Y-8080418D01*
X8386730Y-8080418D02*
X8424825Y-8080418D01*
X8424825Y-8080418D02*
X8443873Y-8070894D01*
X8443873Y-8070894D02*
X8453396Y-8051846D01*
X8453396Y-8051846D02*
X8453396Y-8042322D01*
X8453396Y-8042322D02*
X8443873Y-8023275D01*
X8443873Y-8023275D02*
X8424825Y-8013751D01*
X8424825Y-8013751D02*
X8396253Y-8013751D01*
X8396253Y-8013751D02*
X8377206Y-8004227D01*
X8377206Y-8004227D02*
X8367682Y-7985180D01*
X8367682Y-7985180D02*
X8367682Y-7975656D01*
X8367682Y-7975656D02*
X8377206Y-7956608D01*
X8377206Y-7956608D02*
X8396253Y-7947084D01*
X8396253Y-7947084D02*
X8424825Y-7947084D01*
X8424825Y-7947084D02*
X8443873Y-7956608D01*
X8520063Y-8156608D02*
X8529587Y-8147084D01*
X8529587Y-8147084D02*
X8548634Y-8118513D01*
X8548634Y-8118513D02*
X8558158Y-8099465D01*
X8558158Y-8099465D02*
X8567682Y-8070894D01*
X8567682Y-8070894D02*
X8577206Y-8023275D01*
X8577206Y-8023275D02*
X8577206Y-7985180D01*
X8577206Y-7985180D02*
X8567682Y-7937561D01*
X8567682Y-7937561D02*
X8558158Y-7908989D01*
X8558158Y-7908989D02*
X8548634Y-7889942D01*
X8548634Y-7889942D02*
X8529587Y-7861370D01*
X8529587Y-7861370D02*
X8520063Y-7851846D01*
X8881968Y-8156608D02*
X8872444Y-8147084D01*
X8872444Y-8147084D02*
X8853396Y-8118513D01*
X8853396Y-8118513D02*
X8843873Y-8099465D01*
X8843873Y-8099465D02*
X8834349Y-8070894D01*
X8834349Y-8070894D02*
X8824825Y-8023275D01*
X8824825Y-8023275D02*
X8824825Y-7985180D01*
X8824825Y-7985180D02*
X8834349Y-7937561D01*
X8834349Y-7937561D02*
X8843873Y-7908989D01*
X8843873Y-7908989D02*
X8853396Y-7889942D01*
X8853396Y-7889942D02*
X8872444Y-7861370D01*
X8872444Y-7861370D02*
X8881968Y-7851846D01*
X8958158Y-7947084D02*
X8958158Y-8080418D01*
X8958158Y-7966132D02*
X8967682Y-7956608D01*
X8967682Y-7956608D02*
X8986730Y-7947084D01*
X8986730Y-7947084D02*
X9015301Y-7947084D01*
X9015301Y-7947084D02*
X9034349Y-7956608D01*
X9034349Y-7956608D02*
X9043873Y-7975656D01*
X9043873Y-7975656D02*
X9043873Y-8080418D01*
X9167682Y-8080418D02*
X9148634Y-8070894D01*
X9148634Y-8070894D02*
X9139111Y-8061370D01*
X9139111Y-8061370D02*
X9129587Y-8042322D01*
X9129587Y-8042322D02*
X9129587Y-7985180D01*
X9129587Y-7985180D02*
X9139111Y-7966132D01*
X9139111Y-7966132D02*
X9148634Y-7956608D01*
X9148634Y-7956608D02*
X9167682Y-7947084D01*
X9167682Y-7947084D02*
X9196254Y-7947084D01*
X9196254Y-7947084D02*
X9215301Y-7956608D01*
X9215301Y-7956608D02*
X9224825Y-7966132D01*
X9224825Y-7966132D02*
X9234349Y-7985180D01*
X9234349Y-7985180D02*
X9234349Y-8042322D01*
X9234349Y-8042322D02*
X9224825Y-8061370D01*
X9224825Y-8061370D02*
X9215301Y-8070894D01*
X9215301Y-8070894D02*
X9196254Y-8080418D01*
X9196254Y-8080418D02*
X9167682Y-8080418D01*
X9291492Y-7947084D02*
X9367682Y-7947084D01*
X9320063Y-7880418D02*
X9320063Y-8051846D01*
X9320063Y-8051846D02*
X9329587Y-8070894D01*
X9329587Y-8070894D02*
X9348634Y-8080418D01*
X9348634Y-8080418D02*
X9367682Y-8080418D01*
X9586730Y-7947084D02*
X9586730Y-8147084D01*
X9586730Y-7956608D02*
X9605777Y-7947084D01*
X9605777Y-7947084D02*
X9643873Y-7947084D01*
X9643873Y-7947084D02*
X9662920Y-7956608D01*
X9662920Y-7956608D02*
X9672444Y-7966132D01*
X9672444Y-7966132D02*
X9681968Y-7985180D01*
X9681968Y-7985180D02*
X9681968Y-8042322D01*
X9681968Y-8042322D02*
X9672444Y-8061370D01*
X9672444Y-8061370D02*
X9662920Y-8070894D01*
X9662920Y-8070894D02*
X9643873Y-8080418D01*
X9643873Y-8080418D02*
X9605777Y-8080418D01*
X9605777Y-8080418D02*
X9586730Y-8070894D01*
X9796254Y-8080418D02*
X9777206Y-8070894D01*
X9777206Y-8070894D02*
X9767682Y-8051846D01*
X9767682Y-8051846D02*
X9767682Y-7880418D01*
X9958158Y-8080418D02*
X9958158Y-7975656D01*
X9958158Y-7975656D02*
X9948635Y-7956608D01*
X9948635Y-7956608D02*
X9929587Y-7947084D01*
X9929587Y-7947084D02*
X9891492Y-7947084D01*
X9891492Y-7947084D02*
X9872444Y-7956608D01*
X9958158Y-8070894D02*
X9939111Y-8080418D01*
X9939111Y-8080418D02*
X9891492Y-8080418D01*
X9891492Y-8080418D02*
X9872444Y-8070894D01*
X9872444Y-8070894D02*
X9862920Y-8051846D01*
X9862920Y-8051846D02*
X9862920Y-8032799D01*
X9862920Y-8032799D02*
X9872444Y-8013751D01*
X9872444Y-8013751D02*
X9891492Y-8004227D01*
X9891492Y-8004227D02*
X9939111Y-8004227D01*
X9939111Y-8004227D02*
X9958158Y-7994703D01*
X10024825Y-7947084D02*
X10101015Y-7947084D01*
X10053396Y-7880418D02*
X10053396Y-8051846D01*
X10053396Y-8051846D02*
X10062920Y-8070894D01*
X10062920Y-8070894D02*
X10081968Y-8080418D01*
X10081968Y-8080418D02*
X10101015Y-8080418D01*
X10243873Y-8070894D02*
X10224825Y-8080418D01*
X10224825Y-8080418D02*
X10186730Y-8080418D01*
X10186730Y-8080418D02*
X10167682Y-8070894D01*
X10167682Y-8070894D02*
X10158158Y-8051846D01*
X10158158Y-8051846D02*
X10158158Y-7975656D01*
X10158158Y-7975656D02*
X10167682Y-7956608D01*
X10167682Y-7956608D02*
X10186730Y-7947084D01*
X10186730Y-7947084D02*
X10224825Y-7947084D01*
X10224825Y-7947084D02*
X10243873Y-7956608D01*
X10243873Y-7956608D02*
X10253396Y-7975656D01*
X10253396Y-7975656D02*
X10253396Y-7994703D01*
X10253396Y-7994703D02*
X10158158Y-8013751D01*
X10424825Y-8080418D02*
X10424825Y-7880418D01*
X10424825Y-8070894D02*
X10405777Y-8080418D01*
X10405777Y-8080418D02*
X10367682Y-8080418D01*
X10367682Y-8080418D02*
X10348635Y-8070894D01*
X10348635Y-8070894D02*
X10339111Y-8061370D01*
X10339111Y-8061370D02*
X10329587Y-8042322D01*
X10329587Y-8042322D02*
X10329587Y-7985180D01*
X10329587Y-7985180D02*
X10339111Y-7966132D01*
X10339111Y-7966132D02*
X10348635Y-7956608D01*
X10348635Y-7956608D02*
X10367682Y-7947084D01*
X10367682Y-7947084D02*
X10405777Y-7947084D01*
X10405777Y-7947084D02*
X10424825Y-7956608D01*
X10501016Y-8156608D02*
X10510539Y-8147084D01*
X10510539Y-8147084D02*
X10529587Y-8118513D01*
X10529587Y-8118513D02*
X10539111Y-8099465D01*
X10539111Y-8099465D02*
X10548635Y-8070894D01*
X10548635Y-8070894D02*
X10558158Y-8023275D01*
X10558158Y-8023275D02*
X10558158Y-7985180D01*
X10558158Y-7985180D02*
X10548635Y-7937561D01*
X10548635Y-7937561D02*
X10539111Y-7908989D01*
X10539111Y-7908989D02*
X10529587Y-7889942D01*
X10529587Y-7889942D02*
X10510539Y-7861370D01*
X10510539Y-7861370D02*
X10501016Y-7851846D01*
X3745000Y-8252934D02*
G75*
G03*
X3745000Y-8252934I-100000J0D01*
G01*
X3996253Y-8163465D02*
X4005777Y-8153942D01*
X4005777Y-8153942D02*
X4024824Y-8144418D01*
X4024824Y-8144418D02*
X4072443Y-8144418D01*
X4072443Y-8144418D02*
X4091491Y-8153942D01*
X4091491Y-8153942D02*
X4101015Y-8163465D01*
X4101015Y-8163465D02*
X4110539Y-8182513D01*
X4110539Y-8182513D02*
X4110539Y-8201561D01*
X4110539Y-8201561D02*
X4101015Y-8230132D01*
X4101015Y-8230132D02*
X3986729Y-8344418D01*
X3986729Y-8344418D02*
X4110539Y-8344418D01*
X4196253Y-8325370D02*
X4205777Y-8334894D01*
X4205777Y-8334894D02*
X4196253Y-8344418D01*
X4196253Y-8344418D02*
X4186729Y-8334894D01*
X4186729Y-8334894D02*
X4196253Y-8325370D01*
X4196253Y-8325370D02*
X4196253Y-8344418D01*
X4272444Y-8144418D02*
X4396253Y-8144418D01*
X4396253Y-8144418D02*
X4329586Y-8220608D01*
X4329586Y-8220608D02*
X4358158Y-8220608D01*
X4358158Y-8220608D02*
X4377205Y-8230132D01*
X4377205Y-8230132D02*
X4386729Y-8239656D01*
X4386729Y-8239656D02*
X4396253Y-8258703D01*
X4396253Y-8258703D02*
X4396253Y-8306322D01*
X4396253Y-8306322D02*
X4386729Y-8325370D01*
X4386729Y-8325370D02*
X4377205Y-8334894D01*
X4377205Y-8334894D02*
X4358158Y-8344418D01*
X4358158Y-8344418D02*
X4301015Y-8344418D01*
X4301015Y-8344418D02*
X4281967Y-8334894D01*
X4281967Y-8334894D02*
X4272444Y-8325370D01*
X4520063Y-8144418D02*
X4539110Y-8144418D01*
X4539110Y-8144418D02*
X4558158Y-8153942D01*
X4558158Y-8153942D02*
X4567682Y-8163465D01*
X4567682Y-8163465D02*
X4577205Y-8182513D01*
X4577205Y-8182513D02*
X4586729Y-8220608D01*
X4586729Y-8220608D02*
X4586729Y-8268227D01*
X4586729Y-8268227D02*
X4577205Y-8306322D01*
X4577205Y-8306322D02*
X4567682Y-8325370D01*
X4567682Y-8325370D02*
X4558158Y-8334894D01*
X4558158Y-8334894D02*
X4539110Y-8344418D01*
X4539110Y-8344418D02*
X4520063Y-8344418D01*
X4520063Y-8344418D02*
X4501015Y-8334894D01*
X4501015Y-8334894D02*
X4491491Y-8325370D01*
X4491491Y-8325370D02*
X4481967Y-8306322D01*
X4481967Y-8306322D02*
X4472444Y-8268227D01*
X4472444Y-8268227D02*
X4472444Y-8220608D01*
X4472444Y-8220608D02*
X4481967Y-8182513D01*
X4481967Y-8182513D02*
X4491491Y-8163465D01*
X4491491Y-8163465D02*
X4501015Y-8153942D01*
X4501015Y-8153942D02*
X4520063Y-8144418D01*
X4710539Y-8144418D02*
X4729586Y-8144418D01*
X4729586Y-8144418D02*
X4748634Y-8153942D01*
X4748634Y-8153942D02*
X4758158Y-8163465D01*
X4758158Y-8163465D02*
X4767682Y-8182513D01*
X4767682Y-8182513D02*
X4777205Y-8220608D01*
X4777205Y-8220608D02*
X4777205Y-8268227D01*
X4777205Y-8268227D02*
X4767682Y-8306322D01*
X4767682Y-8306322D02*
X4758158Y-8325370D01*
X4758158Y-8325370D02*
X4748634Y-8334894D01*
X4748634Y-8334894D02*
X4729586Y-8344418D01*
X4729586Y-8344418D02*
X4710539Y-8344418D01*
X4710539Y-8344418D02*
X4691491Y-8334894D01*
X4691491Y-8334894D02*
X4681967Y-8325370D01*
X4681967Y-8325370D02*
X4672444Y-8306322D01*
X4672444Y-8306322D02*
X4662920Y-8268227D01*
X4662920Y-8268227D02*
X4662920Y-8220608D01*
X4662920Y-8220608D02*
X4672444Y-8182513D01*
X4672444Y-8182513D02*
X4681967Y-8163465D01*
X4681967Y-8163465D02*
X4691491Y-8153942D01*
X4691491Y-8153942D02*
X4710539Y-8144418D01*
X4862920Y-8344418D02*
X4862920Y-8211084D01*
X4862920Y-8230132D02*
X4872444Y-8220608D01*
X4872444Y-8220608D02*
X4891491Y-8211084D01*
X4891491Y-8211084D02*
X4920063Y-8211084D01*
X4920063Y-8211084D02*
X4939110Y-8220608D01*
X4939110Y-8220608D02*
X4948634Y-8239656D01*
X4948634Y-8239656D02*
X4948634Y-8344418D01*
X4948634Y-8239656D02*
X4958158Y-8220608D01*
X4958158Y-8220608D02*
X4977205Y-8211084D01*
X4977205Y-8211084D02*
X5005777Y-8211084D01*
X5005777Y-8211084D02*
X5024825Y-8220608D01*
X5024825Y-8220608D02*
X5034348Y-8239656D01*
X5034348Y-8239656D02*
X5034348Y-8344418D01*
X5129586Y-8344418D02*
X5129586Y-8211084D01*
X5129586Y-8230132D02*
X5139110Y-8220608D01*
X5139110Y-8220608D02*
X5158158Y-8211084D01*
X5158158Y-8211084D02*
X5186729Y-8211084D01*
X5186729Y-8211084D02*
X5205777Y-8220608D01*
X5205777Y-8220608D02*
X5215301Y-8239656D01*
X5215301Y-8239656D02*
X5215301Y-8344418D01*
X5215301Y-8239656D02*
X5224825Y-8220608D01*
X5224825Y-8220608D02*
X5243872Y-8211084D01*
X5243872Y-8211084D02*
X5272444Y-8211084D01*
X5272444Y-8211084D02*
X5291491Y-8220608D01*
X5291491Y-8220608D02*
X5301015Y-8239656D01*
X5301015Y-8239656D02*
X5301015Y-8344418D01*
X5691491Y-8134894D02*
X5520063Y-8392037D01*
X5948634Y-8144418D02*
X5967682Y-8144418D01*
X5967682Y-8144418D02*
X5986729Y-8153942D01*
X5986729Y-8153942D02*
X5996253Y-8163465D01*
X5996253Y-8163465D02*
X6005777Y-8182513D01*
X6005777Y-8182513D02*
X6015301Y-8220608D01*
X6015301Y-8220608D02*
X6015301Y-8268227D01*
X6015301Y-8268227D02*
X6005777Y-8306322D01*
X6005777Y-8306322D02*
X5996253Y-8325370D01*
X5996253Y-8325370D02*
X5986729Y-8334894D01*
X5986729Y-8334894D02*
X5967682Y-8344418D01*
X5967682Y-8344418D02*
X5948634Y-8344418D01*
X5948634Y-8344418D02*
X5929586Y-8334894D01*
X5929586Y-8334894D02*
X5920063Y-8325370D01*
X5920063Y-8325370D02*
X5910539Y-8306322D01*
X5910539Y-8306322D02*
X5901015Y-8268227D01*
X5901015Y-8268227D02*
X5901015Y-8220608D01*
X5901015Y-8220608D02*
X5910539Y-8182513D01*
X5910539Y-8182513D02*
X5920063Y-8163465D01*
X5920063Y-8163465D02*
X5929586Y-8153942D01*
X5929586Y-8153942D02*
X5948634Y-8144418D01*
X6101015Y-8325370D02*
X6110539Y-8334894D01*
X6110539Y-8334894D02*
X6101015Y-8344418D01*
X6101015Y-8344418D02*
X6091491Y-8334894D01*
X6091491Y-8334894D02*
X6101015Y-8325370D01*
X6101015Y-8325370D02*
X6101015Y-8344418D01*
X6234348Y-8144418D02*
X6253396Y-8144418D01*
X6253396Y-8144418D02*
X6272444Y-8153942D01*
X6272444Y-8153942D02*
X6281967Y-8163465D01*
X6281967Y-8163465D02*
X6291491Y-8182513D01*
X6291491Y-8182513D02*
X6301015Y-8220608D01*
X6301015Y-8220608D02*
X6301015Y-8268227D01*
X6301015Y-8268227D02*
X6291491Y-8306322D01*
X6291491Y-8306322D02*
X6281967Y-8325370D01*
X6281967Y-8325370D02*
X6272444Y-8334894D01*
X6272444Y-8334894D02*
X6253396Y-8344418D01*
X6253396Y-8344418D02*
X6234348Y-8344418D01*
X6234348Y-8344418D02*
X6215301Y-8334894D01*
X6215301Y-8334894D02*
X6205777Y-8325370D01*
X6205777Y-8325370D02*
X6196253Y-8306322D01*
X6196253Y-8306322D02*
X6186729Y-8268227D01*
X6186729Y-8268227D02*
X6186729Y-8220608D01*
X6186729Y-8220608D02*
X6196253Y-8182513D01*
X6196253Y-8182513D02*
X6205777Y-8163465D01*
X6205777Y-8163465D02*
X6215301Y-8153942D01*
X6215301Y-8153942D02*
X6234348Y-8144418D01*
X6396253Y-8344418D02*
X6434348Y-8344418D01*
X6434348Y-8344418D02*
X6453396Y-8334894D01*
X6453396Y-8334894D02*
X6462920Y-8325370D01*
X6462920Y-8325370D02*
X6481967Y-8296799D01*
X6481967Y-8296799D02*
X6491491Y-8258703D01*
X6491491Y-8258703D02*
X6491491Y-8182513D01*
X6491491Y-8182513D02*
X6481967Y-8163465D01*
X6481967Y-8163465D02*
X6472444Y-8153942D01*
X6472444Y-8153942D02*
X6453396Y-8144418D01*
X6453396Y-8144418D02*
X6415301Y-8144418D01*
X6415301Y-8144418D02*
X6396253Y-8153942D01*
X6396253Y-8153942D02*
X6386729Y-8163465D01*
X6386729Y-8163465D02*
X6377206Y-8182513D01*
X6377206Y-8182513D02*
X6377206Y-8230132D01*
X6377206Y-8230132D02*
X6386729Y-8249180D01*
X6386729Y-8249180D02*
X6396253Y-8258703D01*
X6396253Y-8258703D02*
X6415301Y-8268227D01*
X6415301Y-8268227D02*
X6453396Y-8268227D01*
X6453396Y-8268227D02*
X6472444Y-8258703D01*
X6472444Y-8258703D02*
X6481967Y-8249180D01*
X6481967Y-8249180D02*
X6491491Y-8230132D01*
X6615301Y-8144418D02*
X6634348Y-8144418D01*
X6634348Y-8144418D02*
X6653396Y-8153942D01*
X6653396Y-8153942D02*
X6662920Y-8163465D01*
X6662920Y-8163465D02*
X6672444Y-8182513D01*
X6672444Y-8182513D02*
X6681967Y-8220608D01*
X6681967Y-8220608D02*
X6681967Y-8268227D01*
X6681967Y-8268227D02*
X6672444Y-8306322D01*
X6672444Y-8306322D02*
X6662920Y-8325370D01*
X6662920Y-8325370D02*
X6653396Y-8334894D01*
X6653396Y-8334894D02*
X6634348Y-8344418D01*
X6634348Y-8344418D02*
X6615301Y-8344418D01*
X6615301Y-8344418D02*
X6596253Y-8334894D01*
X6596253Y-8334894D02*
X6586729Y-8325370D01*
X6586729Y-8325370D02*
X6577206Y-8306322D01*
X6577206Y-8306322D02*
X6567682Y-8268227D01*
X6567682Y-8268227D02*
X6567682Y-8220608D01*
X6567682Y-8220608D02*
X6577206Y-8182513D01*
X6577206Y-8182513D02*
X6586729Y-8163465D01*
X6586729Y-8163465D02*
X6596253Y-8153942D01*
X6596253Y-8153942D02*
X6615301Y-8144418D01*
X6853396Y-8144418D02*
X6815301Y-8144418D01*
X6815301Y-8144418D02*
X6796253Y-8153942D01*
X6796253Y-8153942D02*
X6786729Y-8163465D01*
X6786729Y-8163465D02*
X6767682Y-8192037D01*
X6767682Y-8192037D02*
X6758158Y-8230132D01*
X6758158Y-8230132D02*
X6758158Y-8306322D01*
X6758158Y-8306322D02*
X6767682Y-8325370D01*
X6767682Y-8325370D02*
X6777206Y-8334894D01*
X6777206Y-8334894D02*
X6796253Y-8344418D01*
X6796253Y-8344418D02*
X6834348Y-8344418D01*
X6834348Y-8344418D02*
X6853396Y-8334894D01*
X6853396Y-8334894D02*
X6862920Y-8325370D01*
X6862920Y-8325370D02*
X6872444Y-8306322D01*
X6872444Y-8306322D02*
X6872444Y-8258703D01*
X6872444Y-8258703D02*
X6862920Y-8239656D01*
X6862920Y-8239656D02*
X6853396Y-8230132D01*
X6853396Y-8230132D02*
X6834348Y-8220608D01*
X6834348Y-8220608D02*
X6796253Y-8220608D01*
X6796253Y-8220608D02*
X6777206Y-8230132D01*
X6777206Y-8230132D02*
X6767682Y-8239656D01*
X6767682Y-8239656D02*
X6758158Y-8258703D01*
X6948634Y-8144418D02*
X6948634Y-8182513D01*
X7024825Y-8144418D02*
X7024825Y-8182513D01*
X7320063Y-8420608D02*
X7310539Y-8411084D01*
X7310539Y-8411084D02*
X7291491Y-8382513D01*
X7291491Y-8382513D02*
X7281968Y-8363465D01*
X7281968Y-8363465D02*
X7272444Y-8334894D01*
X7272444Y-8334894D02*
X7262920Y-8287275D01*
X7262920Y-8287275D02*
X7262920Y-8249180D01*
X7262920Y-8249180D02*
X7272444Y-8201561D01*
X7272444Y-8201561D02*
X7281968Y-8172989D01*
X7281968Y-8172989D02*
X7291491Y-8153942D01*
X7291491Y-8153942D02*
X7310539Y-8125370D01*
X7310539Y-8125370D02*
X7320063Y-8115846D01*
X7424825Y-8230132D02*
X7405777Y-8220608D01*
X7405777Y-8220608D02*
X7396253Y-8211084D01*
X7396253Y-8211084D02*
X7386729Y-8192037D01*
X7386729Y-8192037D02*
X7386729Y-8182513D01*
X7386729Y-8182513D02*
X7396253Y-8163465D01*
X7396253Y-8163465D02*
X7405777Y-8153942D01*
X7405777Y-8153942D02*
X7424825Y-8144418D01*
X7424825Y-8144418D02*
X7462920Y-8144418D01*
X7462920Y-8144418D02*
X7481968Y-8153942D01*
X7481968Y-8153942D02*
X7491491Y-8163465D01*
X7491491Y-8163465D02*
X7501015Y-8182513D01*
X7501015Y-8182513D02*
X7501015Y-8192037D01*
X7501015Y-8192037D02*
X7491491Y-8211084D01*
X7491491Y-8211084D02*
X7481968Y-8220608D01*
X7481968Y-8220608D02*
X7462920Y-8230132D01*
X7462920Y-8230132D02*
X7424825Y-8230132D01*
X7424825Y-8230132D02*
X7405777Y-8239656D01*
X7405777Y-8239656D02*
X7396253Y-8249180D01*
X7396253Y-8249180D02*
X7386729Y-8268227D01*
X7386729Y-8268227D02*
X7386729Y-8306322D01*
X7386729Y-8306322D02*
X7396253Y-8325370D01*
X7396253Y-8325370D02*
X7405777Y-8334894D01*
X7405777Y-8334894D02*
X7424825Y-8344418D01*
X7424825Y-8344418D02*
X7462920Y-8344418D01*
X7462920Y-8344418D02*
X7481968Y-8334894D01*
X7481968Y-8334894D02*
X7491491Y-8325370D01*
X7491491Y-8325370D02*
X7501015Y-8306322D01*
X7501015Y-8306322D02*
X7501015Y-8268227D01*
X7501015Y-8268227D02*
X7491491Y-8249180D01*
X7491491Y-8249180D02*
X7481968Y-8239656D01*
X7481968Y-8239656D02*
X7462920Y-8230132D01*
X7739110Y-8344418D02*
X7739110Y-8144418D01*
X7824825Y-8344418D02*
X7824825Y-8239656D01*
X7824825Y-8239656D02*
X7815301Y-8220608D01*
X7815301Y-8220608D02*
X7796253Y-8211084D01*
X7796253Y-8211084D02*
X7767682Y-8211084D01*
X7767682Y-8211084D02*
X7748634Y-8220608D01*
X7748634Y-8220608D02*
X7739110Y-8230132D01*
X7948634Y-8344418D02*
X7929587Y-8334894D01*
X7929587Y-8334894D02*
X7920063Y-8325370D01*
X7920063Y-8325370D02*
X7910539Y-8306322D01*
X7910539Y-8306322D02*
X7910539Y-8249180D01*
X7910539Y-8249180D02*
X7920063Y-8230132D01*
X7920063Y-8230132D02*
X7929587Y-8220608D01*
X7929587Y-8220608D02*
X7948634Y-8211084D01*
X7948634Y-8211084D02*
X7977206Y-8211084D01*
X7977206Y-8211084D02*
X7996253Y-8220608D01*
X7996253Y-8220608D02*
X8005777Y-8230132D01*
X8005777Y-8230132D02*
X8015301Y-8249180D01*
X8015301Y-8249180D02*
X8015301Y-8306322D01*
X8015301Y-8306322D02*
X8005777Y-8325370D01*
X8005777Y-8325370D02*
X7996253Y-8334894D01*
X7996253Y-8334894D02*
X7977206Y-8344418D01*
X7977206Y-8344418D02*
X7948634Y-8344418D01*
X8129587Y-8344418D02*
X8110539Y-8334894D01*
X8110539Y-8334894D02*
X8101015Y-8315846D01*
X8101015Y-8315846D02*
X8101015Y-8144418D01*
X8281968Y-8334894D02*
X8262920Y-8344418D01*
X8262920Y-8344418D02*
X8224825Y-8344418D01*
X8224825Y-8344418D02*
X8205777Y-8334894D01*
X8205777Y-8334894D02*
X8196253Y-8315846D01*
X8196253Y-8315846D02*
X8196253Y-8239656D01*
X8196253Y-8239656D02*
X8205777Y-8220608D01*
X8205777Y-8220608D02*
X8224825Y-8211084D01*
X8224825Y-8211084D02*
X8262920Y-8211084D01*
X8262920Y-8211084D02*
X8281968Y-8220608D01*
X8281968Y-8220608D02*
X8291491Y-8239656D01*
X8291491Y-8239656D02*
X8291491Y-8258703D01*
X8291491Y-8258703D02*
X8196253Y-8277751D01*
X8367682Y-8334894D02*
X8386730Y-8344418D01*
X8386730Y-8344418D02*
X8424825Y-8344418D01*
X8424825Y-8344418D02*
X8443873Y-8334894D01*
X8443873Y-8334894D02*
X8453396Y-8315846D01*
X8453396Y-8315846D02*
X8453396Y-8306322D01*
X8453396Y-8306322D02*
X8443873Y-8287275D01*
X8443873Y-8287275D02*
X8424825Y-8277751D01*
X8424825Y-8277751D02*
X8396253Y-8277751D01*
X8396253Y-8277751D02*
X8377206Y-8268227D01*
X8377206Y-8268227D02*
X8367682Y-8249180D01*
X8367682Y-8249180D02*
X8367682Y-8239656D01*
X8367682Y-8239656D02*
X8377206Y-8220608D01*
X8377206Y-8220608D02*
X8396253Y-8211084D01*
X8396253Y-8211084D02*
X8424825Y-8211084D01*
X8424825Y-8211084D02*
X8443873Y-8220608D01*
X8520063Y-8420608D02*
X8529587Y-8411084D01*
X8529587Y-8411084D02*
X8548634Y-8382513D01*
X8548634Y-8382513D02*
X8558158Y-8363465D01*
X8558158Y-8363465D02*
X8567682Y-8334894D01*
X8567682Y-8334894D02*
X8577206Y-8287275D01*
X8577206Y-8287275D02*
X8577206Y-8249180D01*
X8577206Y-8249180D02*
X8567682Y-8201561D01*
X8567682Y-8201561D02*
X8558158Y-8172989D01*
X8558158Y-8172989D02*
X8548634Y-8153942D01*
X8548634Y-8153942D02*
X8529587Y-8125370D01*
X8529587Y-8125370D02*
X8520063Y-8115846D01*
X8881968Y-8420608D02*
X8872444Y-8411084D01*
X8872444Y-8411084D02*
X8853396Y-8382513D01*
X8853396Y-8382513D02*
X8843873Y-8363465D01*
X8843873Y-8363465D02*
X8834349Y-8334894D01*
X8834349Y-8334894D02*
X8824825Y-8287275D01*
X8824825Y-8287275D02*
X8824825Y-8249180D01*
X8824825Y-8249180D02*
X8834349Y-8201561D01*
X8834349Y-8201561D02*
X8843873Y-8172989D01*
X8843873Y-8172989D02*
X8853396Y-8153942D01*
X8853396Y-8153942D02*
X8872444Y-8125370D01*
X8872444Y-8125370D02*
X8881968Y-8115846D01*
X8958158Y-8211084D02*
X8958158Y-8344418D01*
X8958158Y-8230132D02*
X8967682Y-8220608D01*
X8967682Y-8220608D02*
X8986730Y-8211084D01*
X8986730Y-8211084D02*
X9015301Y-8211084D01*
X9015301Y-8211084D02*
X9034349Y-8220608D01*
X9034349Y-8220608D02*
X9043873Y-8239656D01*
X9043873Y-8239656D02*
X9043873Y-8344418D01*
X9167682Y-8344418D02*
X9148634Y-8334894D01*
X9148634Y-8334894D02*
X9139111Y-8325370D01*
X9139111Y-8325370D02*
X9129587Y-8306322D01*
X9129587Y-8306322D02*
X9129587Y-8249180D01*
X9129587Y-8249180D02*
X9139111Y-8230132D01*
X9139111Y-8230132D02*
X9148634Y-8220608D01*
X9148634Y-8220608D02*
X9167682Y-8211084D01*
X9167682Y-8211084D02*
X9196254Y-8211084D01*
X9196254Y-8211084D02*
X9215301Y-8220608D01*
X9215301Y-8220608D02*
X9224825Y-8230132D01*
X9224825Y-8230132D02*
X9234349Y-8249180D01*
X9234349Y-8249180D02*
X9234349Y-8306322D01*
X9234349Y-8306322D02*
X9224825Y-8325370D01*
X9224825Y-8325370D02*
X9215301Y-8334894D01*
X9215301Y-8334894D02*
X9196254Y-8344418D01*
X9196254Y-8344418D02*
X9167682Y-8344418D01*
X9291492Y-8211084D02*
X9367682Y-8211084D01*
X9320063Y-8144418D02*
X9320063Y-8315846D01*
X9320063Y-8315846D02*
X9329587Y-8334894D01*
X9329587Y-8334894D02*
X9348634Y-8344418D01*
X9348634Y-8344418D02*
X9367682Y-8344418D01*
X9586730Y-8211084D02*
X9586730Y-8411084D01*
X9586730Y-8220608D02*
X9605777Y-8211084D01*
X9605777Y-8211084D02*
X9643873Y-8211084D01*
X9643873Y-8211084D02*
X9662920Y-8220608D01*
X9662920Y-8220608D02*
X9672444Y-8230132D01*
X9672444Y-8230132D02*
X9681968Y-8249180D01*
X9681968Y-8249180D02*
X9681968Y-8306322D01*
X9681968Y-8306322D02*
X9672444Y-8325370D01*
X9672444Y-8325370D02*
X9662920Y-8334894D01*
X9662920Y-8334894D02*
X9643873Y-8344418D01*
X9643873Y-8344418D02*
X9605777Y-8344418D01*
X9605777Y-8344418D02*
X9586730Y-8334894D01*
X9796254Y-8344418D02*
X9777206Y-8334894D01*
X9777206Y-8334894D02*
X9767682Y-8315846D01*
X9767682Y-8315846D02*
X9767682Y-8144418D01*
X9958158Y-8344418D02*
X9958158Y-8239656D01*
X9958158Y-8239656D02*
X9948635Y-8220608D01*
X9948635Y-8220608D02*
X9929587Y-8211084D01*
X9929587Y-8211084D02*
X9891492Y-8211084D01*
X9891492Y-8211084D02*
X9872444Y-8220608D01*
X9958158Y-8334894D02*
X9939111Y-8344418D01*
X9939111Y-8344418D02*
X9891492Y-8344418D01*
X9891492Y-8344418D02*
X9872444Y-8334894D01*
X9872444Y-8334894D02*
X9862920Y-8315846D01*
X9862920Y-8315846D02*
X9862920Y-8296799D01*
X9862920Y-8296799D02*
X9872444Y-8277751D01*
X9872444Y-8277751D02*
X9891492Y-8268227D01*
X9891492Y-8268227D02*
X9939111Y-8268227D01*
X9939111Y-8268227D02*
X9958158Y-8258703D01*
X10024825Y-8211084D02*
X10101015Y-8211084D01*
X10053396Y-8144418D02*
X10053396Y-8315846D01*
X10053396Y-8315846D02*
X10062920Y-8334894D01*
X10062920Y-8334894D02*
X10081968Y-8344418D01*
X10081968Y-8344418D02*
X10101015Y-8344418D01*
X10243873Y-8334894D02*
X10224825Y-8344418D01*
X10224825Y-8344418D02*
X10186730Y-8344418D01*
X10186730Y-8344418D02*
X10167682Y-8334894D01*
X10167682Y-8334894D02*
X10158158Y-8315846D01*
X10158158Y-8315846D02*
X10158158Y-8239656D01*
X10158158Y-8239656D02*
X10167682Y-8220608D01*
X10167682Y-8220608D02*
X10186730Y-8211084D01*
X10186730Y-8211084D02*
X10224825Y-8211084D01*
X10224825Y-8211084D02*
X10243873Y-8220608D01*
X10243873Y-8220608D02*
X10253396Y-8239656D01*
X10253396Y-8239656D02*
X10253396Y-8258703D01*
X10253396Y-8258703D02*
X10158158Y-8277751D01*
X10424825Y-8344418D02*
X10424825Y-8144418D01*
X10424825Y-8334894D02*
X10405777Y-8344418D01*
X10405777Y-8344418D02*
X10367682Y-8344418D01*
X10367682Y-8344418D02*
X10348635Y-8334894D01*
X10348635Y-8334894D02*
X10339111Y-8325370D01*
X10339111Y-8325370D02*
X10329587Y-8306322D01*
X10329587Y-8306322D02*
X10329587Y-8249180D01*
X10329587Y-8249180D02*
X10339111Y-8230132D01*
X10339111Y-8230132D02*
X10348635Y-8220608D01*
X10348635Y-8220608D02*
X10367682Y-8211084D01*
X10367682Y-8211084D02*
X10405777Y-8211084D01*
X10405777Y-8211084D02*
X10424825Y-8220608D01*
X10501016Y-8420608D02*
X10510539Y-8411084D01*
X10510539Y-8411084D02*
X10529587Y-8382513D01*
X10529587Y-8382513D02*
X10539111Y-8363465D01*
X10539111Y-8363465D02*
X10548635Y-8334894D01*
X10548635Y-8334894D02*
X10558158Y-8287275D01*
X10558158Y-8287275D02*
X10558158Y-8249180D01*
X10558158Y-8249180D02*
X10548635Y-8201561D01*
X10548635Y-8201561D02*
X10539111Y-8172989D01*
X10539111Y-8172989D02*
X10529587Y-8153942D01*
X10529587Y-8153942D02*
X10510539Y-8125370D01*
X10510539Y-8125370D02*
X10501016Y-8115846D01*
X3645000Y-8472934D02*
X3645000Y-8672934D01*
X3545000Y-8572934D02*
X3745000Y-8572934D01*
X3986729Y-8464418D02*
X4110539Y-8464418D01*
X4110539Y-8464418D02*
X4043872Y-8540608D01*
X4043872Y-8540608D02*
X4072443Y-8540608D01*
X4072443Y-8540608D02*
X4091491Y-8550132D01*
X4091491Y-8550132D02*
X4101015Y-8559656D01*
X4101015Y-8559656D02*
X4110539Y-8578704D01*
X4110539Y-8578704D02*
X4110539Y-8626323D01*
X4110539Y-8626323D02*
X4101015Y-8645370D01*
X4101015Y-8645370D02*
X4091491Y-8654894D01*
X4091491Y-8654894D02*
X4072443Y-8664418D01*
X4072443Y-8664418D02*
X4015301Y-8664418D01*
X4015301Y-8664418D02*
X3996253Y-8654894D01*
X3996253Y-8654894D02*
X3986729Y-8645370D01*
X4196253Y-8645370D02*
X4205777Y-8654894D01*
X4205777Y-8654894D02*
X4196253Y-8664418D01*
X4196253Y-8664418D02*
X4186729Y-8654894D01*
X4186729Y-8654894D02*
X4196253Y-8645370D01*
X4196253Y-8645370D02*
X4196253Y-8664418D01*
X4329586Y-8464418D02*
X4348634Y-8464418D01*
X4348634Y-8464418D02*
X4367682Y-8473942D01*
X4367682Y-8473942D02*
X4377205Y-8483465D01*
X4377205Y-8483465D02*
X4386729Y-8502513D01*
X4386729Y-8502513D02*
X4396253Y-8540608D01*
X4396253Y-8540608D02*
X4396253Y-8588227D01*
X4396253Y-8588227D02*
X4386729Y-8626323D01*
X4386729Y-8626323D02*
X4377205Y-8645370D01*
X4377205Y-8645370D02*
X4367682Y-8654894D01*
X4367682Y-8654894D02*
X4348634Y-8664418D01*
X4348634Y-8664418D02*
X4329586Y-8664418D01*
X4329586Y-8664418D02*
X4310539Y-8654894D01*
X4310539Y-8654894D02*
X4301015Y-8645370D01*
X4301015Y-8645370D02*
X4291491Y-8626323D01*
X4291491Y-8626323D02*
X4281967Y-8588227D01*
X4281967Y-8588227D02*
X4281967Y-8540608D01*
X4281967Y-8540608D02*
X4291491Y-8502513D01*
X4291491Y-8502513D02*
X4301015Y-8483465D01*
X4301015Y-8483465D02*
X4310539Y-8473942D01*
X4310539Y-8473942D02*
X4329586Y-8464418D01*
X4520063Y-8464418D02*
X4539110Y-8464418D01*
X4539110Y-8464418D02*
X4558158Y-8473942D01*
X4558158Y-8473942D02*
X4567682Y-8483465D01*
X4567682Y-8483465D02*
X4577205Y-8502513D01*
X4577205Y-8502513D02*
X4586729Y-8540608D01*
X4586729Y-8540608D02*
X4586729Y-8588227D01*
X4586729Y-8588227D02*
X4577205Y-8626323D01*
X4577205Y-8626323D02*
X4567682Y-8645370D01*
X4567682Y-8645370D02*
X4558158Y-8654894D01*
X4558158Y-8654894D02*
X4539110Y-8664418D01*
X4539110Y-8664418D02*
X4520063Y-8664418D01*
X4520063Y-8664418D02*
X4501015Y-8654894D01*
X4501015Y-8654894D02*
X4491491Y-8645370D01*
X4491491Y-8645370D02*
X4481967Y-8626323D01*
X4481967Y-8626323D02*
X4472444Y-8588227D01*
X4472444Y-8588227D02*
X4472444Y-8540608D01*
X4472444Y-8540608D02*
X4481967Y-8502513D01*
X4481967Y-8502513D02*
X4491491Y-8483465D01*
X4491491Y-8483465D02*
X4501015Y-8473942D01*
X4501015Y-8473942D02*
X4520063Y-8464418D01*
X4710539Y-8464418D02*
X4729586Y-8464418D01*
X4729586Y-8464418D02*
X4748634Y-8473942D01*
X4748634Y-8473942D02*
X4758158Y-8483465D01*
X4758158Y-8483465D02*
X4767682Y-8502513D01*
X4767682Y-8502513D02*
X4777205Y-8540608D01*
X4777205Y-8540608D02*
X4777205Y-8588227D01*
X4777205Y-8588227D02*
X4767682Y-8626323D01*
X4767682Y-8626323D02*
X4758158Y-8645370D01*
X4758158Y-8645370D02*
X4748634Y-8654894D01*
X4748634Y-8654894D02*
X4729586Y-8664418D01*
X4729586Y-8664418D02*
X4710539Y-8664418D01*
X4710539Y-8664418D02*
X4691491Y-8654894D01*
X4691491Y-8654894D02*
X4681967Y-8645370D01*
X4681967Y-8645370D02*
X4672444Y-8626323D01*
X4672444Y-8626323D02*
X4662920Y-8588227D01*
X4662920Y-8588227D02*
X4662920Y-8540608D01*
X4662920Y-8540608D02*
X4672444Y-8502513D01*
X4672444Y-8502513D02*
X4681967Y-8483465D01*
X4681967Y-8483465D02*
X4691491Y-8473942D01*
X4691491Y-8473942D02*
X4710539Y-8464418D01*
X4862920Y-8664418D02*
X4862920Y-8531084D01*
X4862920Y-8550132D02*
X4872444Y-8540608D01*
X4872444Y-8540608D02*
X4891491Y-8531084D01*
X4891491Y-8531084D02*
X4920063Y-8531084D01*
X4920063Y-8531084D02*
X4939110Y-8540608D01*
X4939110Y-8540608D02*
X4948634Y-8559656D01*
X4948634Y-8559656D02*
X4948634Y-8664418D01*
X4948634Y-8559656D02*
X4958158Y-8540608D01*
X4958158Y-8540608D02*
X4977205Y-8531084D01*
X4977205Y-8531084D02*
X5005777Y-8531084D01*
X5005777Y-8531084D02*
X5024825Y-8540608D01*
X5024825Y-8540608D02*
X5034348Y-8559656D01*
X5034348Y-8559656D02*
X5034348Y-8664418D01*
X5129586Y-8664418D02*
X5129586Y-8531084D01*
X5129586Y-8550132D02*
X5139110Y-8540608D01*
X5139110Y-8540608D02*
X5158158Y-8531084D01*
X5158158Y-8531084D02*
X5186729Y-8531084D01*
X5186729Y-8531084D02*
X5205777Y-8540608D01*
X5205777Y-8540608D02*
X5215301Y-8559656D01*
X5215301Y-8559656D02*
X5215301Y-8664418D01*
X5215301Y-8559656D02*
X5224825Y-8540608D01*
X5224825Y-8540608D02*
X5243872Y-8531084D01*
X5243872Y-8531084D02*
X5272444Y-8531084D01*
X5272444Y-8531084D02*
X5291491Y-8540608D01*
X5291491Y-8540608D02*
X5301015Y-8559656D01*
X5301015Y-8559656D02*
X5301015Y-8664418D01*
X5691491Y-8454894D02*
X5520063Y-8712037D01*
X5948634Y-8464418D02*
X5967682Y-8464418D01*
X5967682Y-8464418D02*
X5986729Y-8473942D01*
X5986729Y-8473942D02*
X5996253Y-8483465D01*
X5996253Y-8483465D02*
X6005777Y-8502513D01*
X6005777Y-8502513D02*
X6015301Y-8540608D01*
X6015301Y-8540608D02*
X6015301Y-8588227D01*
X6015301Y-8588227D02*
X6005777Y-8626323D01*
X6005777Y-8626323D02*
X5996253Y-8645370D01*
X5996253Y-8645370D02*
X5986729Y-8654894D01*
X5986729Y-8654894D02*
X5967682Y-8664418D01*
X5967682Y-8664418D02*
X5948634Y-8664418D01*
X5948634Y-8664418D02*
X5929586Y-8654894D01*
X5929586Y-8654894D02*
X5920063Y-8645370D01*
X5920063Y-8645370D02*
X5910539Y-8626323D01*
X5910539Y-8626323D02*
X5901015Y-8588227D01*
X5901015Y-8588227D02*
X5901015Y-8540608D01*
X5901015Y-8540608D02*
X5910539Y-8502513D01*
X5910539Y-8502513D02*
X5920063Y-8483465D01*
X5920063Y-8483465D02*
X5929586Y-8473942D01*
X5929586Y-8473942D02*
X5948634Y-8464418D01*
X6101015Y-8645370D02*
X6110539Y-8654894D01*
X6110539Y-8654894D02*
X6101015Y-8664418D01*
X6101015Y-8664418D02*
X6091491Y-8654894D01*
X6091491Y-8654894D02*
X6101015Y-8645370D01*
X6101015Y-8645370D02*
X6101015Y-8664418D01*
X6301015Y-8664418D02*
X6186729Y-8664418D01*
X6243872Y-8664418D02*
X6243872Y-8464418D01*
X6243872Y-8464418D02*
X6224825Y-8492989D01*
X6224825Y-8492989D02*
X6205777Y-8512037D01*
X6205777Y-8512037D02*
X6186729Y-8521561D01*
X6491491Y-8664418D02*
X6377206Y-8664418D01*
X6434348Y-8664418D02*
X6434348Y-8464418D01*
X6434348Y-8464418D02*
X6415301Y-8492989D01*
X6415301Y-8492989D02*
X6396253Y-8512037D01*
X6396253Y-8512037D02*
X6377206Y-8521561D01*
X6605777Y-8550132D02*
X6586729Y-8540608D01*
X6586729Y-8540608D02*
X6577206Y-8531084D01*
X6577206Y-8531084D02*
X6567682Y-8512037D01*
X6567682Y-8512037D02*
X6567682Y-8502513D01*
X6567682Y-8502513D02*
X6577206Y-8483465D01*
X6577206Y-8483465D02*
X6586729Y-8473942D01*
X6586729Y-8473942D02*
X6605777Y-8464418D01*
X6605777Y-8464418D02*
X6643872Y-8464418D01*
X6643872Y-8464418D02*
X6662920Y-8473942D01*
X6662920Y-8473942D02*
X6672444Y-8483465D01*
X6672444Y-8483465D02*
X6681967Y-8502513D01*
X6681967Y-8502513D02*
X6681967Y-8512037D01*
X6681967Y-8512037D02*
X6672444Y-8531084D01*
X6672444Y-8531084D02*
X6662920Y-8540608D01*
X6662920Y-8540608D02*
X6643872Y-8550132D01*
X6643872Y-8550132D02*
X6605777Y-8550132D01*
X6605777Y-8550132D02*
X6586729Y-8559656D01*
X6586729Y-8559656D02*
X6577206Y-8569180D01*
X6577206Y-8569180D02*
X6567682Y-8588227D01*
X6567682Y-8588227D02*
X6567682Y-8626323D01*
X6567682Y-8626323D02*
X6577206Y-8645370D01*
X6577206Y-8645370D02*
X6586729Y-8654894D01*
X6586729Y-8654894D02*
X6605777Y-8664418D01*
X6605777Y-8664418D02*
X6643872Y-8664418D01*
X6643872Y-8664418D02*
X6662920Y-8654894D01*
X6662920Y-8654894D02*
X6672444Y-8645370D01*
X6672444Y-8645370D02*
X6681967Y-8626323D01*
X6681967Y-8626323D02*
X6681967Y-8588227D01*
X6681967Y-8588227D02*
X6672444Y-8569180D01*
X6672444Y-8569180D02*
X6662920Y-8559656D01*
X6662920Y-8559656D02*
X6643872Y-8550132D01*
X6872444Y-8664418D02*
X6758158Y-8664418D01*
X6815301Y-8664418D02*
X6815301Y-8464418D01*
X6815301Y-8464418D02*
X6796253Y-8492989D01*
X6796253Y-8492989D02*
X6777206Y-8512037D01*
X6777206Y-8512037D02*
X6758158Y-8521561D01*
X6948634Y-8464418D02*
X6948634Y-8502513D01*
X7024825Y-8464418D02*
X7024825Y-8502513D01*
X7320063Y-8740608D02*
X7310539Y-8731084D01*
X7310539Y-8731084D02*
X7291491Y-8702513D01*
X7291491Y-8702513D02*
X7281968Y-8683465D01*
X7281968Y-8683465D02*
X7272444Y-8654894D01*
X7272444Y-8654894D02*
X7262920Y-8607275D01*
X7262920Y-8607275D02*
X7262920Y-8569180D01*
X7262920Y-8569180D02*
X7272444Y-8521561D01*
X7272444Y-8521561D02*
X7281968Y-8492989D01*
X7281968Y-8492989D02*
X7291491Y-8473942D01*
X7291491Y-8473942D02*
X7310539Y-8445370D01*
X7310539Y-8445370D02*
X7320063Y-8435846D01*
X7501015Y-8664418D02*
X7386729Y-8664418D01*
X7443872Y-8664418D02*
X7443872Y-8464418D01*
X7443872Y-8464418D02*
X7424825Y-8492989D01*
X7424825Y-8492989D02*
X7405777Y-8512037D01*
X7405777Y-8512037D02*
X7386729Y-8521561D01*
X7672444Y-8464418D02*
X7634348Y-8464418D01*
X7634348Y-8464418D02*
X7615301Y-8473942D01*
X7615301Y-8473942D02*
X7605777Y-8483465D01*
X7605777Y-8483465D02*
X7586729Y-8512037D01*
X7586729Y-8512037D02*
X7577206Y-8550132D01*
X7577206Y-8550132D02*
X7577206Y-8626323D01*
X7577206Y-8626323D02*
X7586729Y-8645370D01*
X7586729Y-8645370D02*
X7596253Y-8654894D01*
X7596253Y-8654894D02*
X7615301Y-8664418D01*
X7615301Y-8664418D02*
X7653396Y-8664418D01*
X7653396Y-8664418D02*
X7672444Y-8654894D01*
X7672444Y-8654894D02*
X7681968Y-8645370D01*
X7681968Y-8645370D02*
X7691491Y-8626323D01*
X7691491Y-8626323D02*
X7691491Y-8578704D01*
X7691491Y-8578704D02*
X7681968Y-8559656D01*
X7681968Y-8559656D02*
X7672444Y-8550132D01*
X7672444Y-8550132D02*
X7653396Y-8540608D01*
X7653396Y-8540608D02*
X7615301Y-8540608D01*
X7615301Y-8540608D02*
X7596253Y-8550132D01*
X7596253Y-8550132D02*
X7586729Y-8559656D01*
X7586729Y-8559656D02*
X7577206Y-8578704D01*
X7929587Y-8664418D02*
X7929587Y-8464418D01*
X8015301Y-8664418D02*
X8015301Y-8559656D01*
X8015301Y-8559656D02*
X8005777Y-8540608D01*
X8005777Y-8540608D02*
X7986730Y-8531084D01*
X7986730Y-8531084D02*
X7958158Y-8531084D01*
X7958158Y-8531084D02*
X7939110Y-8540608D01*
X7939110Y-8540608D02*
X7929587Y-8550132D01*
X8139110Y-8664418D02*
X8120063Y-8654894D01*
X8120063Y-8654894D02*
X8110539Y-8645370D01*
X8110539Y-8645370D02*
X8101015Y-8626323D01*
X8101015Y-8626323D02*
X8101015Y-8569180D01*
X8101015Y-8569180D02*
X8110539Y-8550132D01*
X8110539Y-8550132D02*
X8120063Y-8540608D01*
X8120063Y-8540608D02*
X8139110Y-8531084D01*
X8139110Y-8531084D02*
X8167682Y-8531084D01*
X8167682Y-8531084D02*
X8186730Y-8540608D01*
X8186730Y-8540608D02*
X8196253Y-8550132D01*
X8196253Y-8550132D02*
X8205777Y-8569180D01*
X8205777Y-8569180D02*
X8205777Y-8626323D01*
X8205777Y-8626323D02*
X8196253Y-8645370D01*
X8196253Y-8645370D02*
X8186730Y-8654894D01*
X8186730Y-8654894D02*
X8167682Y-8664418D01*
X8167682Y-8664418D02*
X8139110Y-8664418D01*
X8320063Y-8664418D02*
X8301015Y-8654894D01*
X8301015Y-8654894D02*
X8291491Y-8635846D01*
X8291491Y-8635846D02*
X8291491Y-8464418D01*
X8472444Y-8654894D02*
X8453396Y-8664418D01*
X8453396Y-8664418D02*
X8415301Y-8664418D01*
X8415301Y-8664418D02*
X8396253Y-8654894D01*
X8396253Y-8654894D02*
X8386730Y-8635846D01*
X8386730Y-8635846D02*
X8386730Y-8559656D01*
X8386730Y-8559656D02*
X8396253Y-8540608D01*
X8396253Y-8540608D02*
X8415301Y-8531084D01*
X8415301Y-8531084D02*
X8453396Y-8531084D01*
X8453396Y-8531084D02*
X8472444Y-8540608D01*
X8472444Y-8540608D02*
X8481968Y-8559656D01*
X8481968Y-8559656D02*
X8481968Y-8578704D01*
X8481968Y-8578704D02*
X8386730Y-8597751D01*
X8558158Y-8654894D02*
X8577206Y-8664418D01*
X8577206Y-8664418D02*
X8615301Y-8664418D01*
X8615301Y-8664418D02*
X8634349Y-8654894D01*
X8634349Y-8654894D02*
X8643873Y-8635846D01*
X8643873Y-8635846D02*
X8643873Y-8626323D01*
X8643873Y-8626323D02*
X8634349Y-8607275D01*
X8634349Y-8607275D02*
X8615301Y-8597751D01*
X8615301Y-8597751D02*
X8586730Y-8597751D01*
X8586730Y-8597751D02*
X8567682Y-8588227D01*
X8567682Y-8588227D02*
X8558158Y-8569180D01*
X8558158Y-8569180D02*
X8558158Y-8559656D01*
X8558158Y-8559656D02*
X8567682Y-8540608D01*
X8567682Y-8540608D02*
X8586730Y-8531084D01*
X8586730Y-8531084D02*
X8615301Y-8531084D01*
X8615301Y-8531084D02*
X8634349Y-8540608D01*
X8710539Y-8740608D02*
X8720063Y-8731084D01*
X8720063Y-8731084D02*
X8739111Y-8702513D01*
X8739111Y-8702513D02*
X8748634Y-8683465D01*
X8748634Y-8683465D02*
X8758158Y-8654894D01*
X8758158Y-8654894D02*
X8767682Y-8607275D01*
X8767682Y-8607275D02*
X8767682Y-8569180D01*
X8767682Y-8569180D02*
X8758158Y-8521561D01*
X8758158Y-8521561D02*
X8748634Y-8492989D01*
X8748634Y-8492989D02*
X8739111Y-8473942D01*
X8739111Y-8473942D02*
X8720063Y-8445370D01*
X8720063Y-8445370D02*
X8710539Y-8435846D01*
X9072444Y-8740608D02*
X9062920Y-8731084D01*
X9062920Y-8731084D02*
X9043873Y-8702513D01*
X9043873Y-8702513D02*
X9034349Y-8683465D01*
X9034349Y-8683465D02*
X9024825Y-8654894D01*
X9024825Y-8654894D02*
X9015301Y-8607275D01*
X9015301Y-8607275D02*
X9015301Y-8569180D01*
X9015301Y-8569180D02*
X9024825Y-8521561D01*
X9024825Y-8521561D02*
X9034349Y-8492989D01*
X9034349Y-8492989D02*
X9043873Y-8473942D01*
X9043873Y-8473942D02*
X9062920Y-8445370D01*
X9062920Y-8445370D02*
X9072444Y-8435846D01*
X9148634Y-8531084D02*
X9148634Y-8664418D01*
X9148634Y-8550132D02*
X9158158Y-8540608D01*
X9158158Y-8540608D02*
X9177206Y-8531084D01*
X9177206Y-8531084D02*
X9205777Y-8531084D01*
X9205777Y-8531084D02*
X9224825Y-8540608D01*
X9224825Y-8540608D02*
X9234349Y-8559656D01*
X9234349Y-8559656D02*
X9234349Y-8664418D01*
X9358158Y-8664418D02*
X9339111Y-8654894D01*
X9339111Y-8654894D02*
X9329587Y-8645370D01*
X9329587Y-8645370D02*
X9320063Y-8626323D01*
X9320063Y-8626323D02*
X9320063Y-8569180D01*
X9320063Y-8569180D02*
X9329587Y-8550132D01*
X9329587Y-8550132D02*
X9339111Y-8540608D01*
X9339111Y-8540608D02*
X9358158Y-8531084D01*
X9358158Y-8531084D02*
X9386730Y-8531084D01*
X9386730Y-8531084D02*
X9405777Y-8540608D01*
X9405777Y-8540608D02*
X9415301Y-8550132D01*
X9415301Y-8550132D02*
X9424825Y-8569180D01*
X9424825Y-8569180D02*
X9424825Y-8626323D01*
X9424825Y-8626323D02*
X9415301Y-8645370D01*
X9415301Y-8645370D02*
X9405777Y-8654894D01*
X9405777Y-8654894D02*
X9386730Y-8664418D01*
X9386730Y-8664418D02*
X9358158Y-8664418D01*
X9481968Y-8531084D02*
X9558158Y-8531084D01*
X9510539Y-8464418D02*
X9510539Y-8635846D01*
X9510539Y-8635846D02*
X9520063Y-8654894D01*
X9520063Y-8654894D02*
X9539111Y-8664418D01*
X9539111Y-8664418D02*
X9558158Y-8664418D01*
X9777206Y-8531084D02*
X9777206Y-8731084D01*
X9777206Y-8540608D02*
X9796254Y-8531084D01*
X9796254Y-8531084D02*
X9834349Y-8531084D01*
X9834349Y-8531084D02*
X9853396Y-8540608D01*
X9853396Y-8540608D02*
X9862920Y-8550132D01*
X9862920Y-8550132D02*
X9872444Y-8569180D01*
X9872444Y-8569180D02*
X9872444Y-8626323D01*
X9872444Y-8626323D02*
X9862920Y-8645370D01*
X9862920Y-8645370D02*
X9853396Y-8654894D01*
X9853396Y-8654894D02*
X9834349Y-8664418D01*
X9834349Y-8664418D02*
X9796254Y-8664418D01*
X9796254Y-8664418D02*
X9777206Y-8654894D01*
X9986730Y-8664418D02*
X9967682Y-8654894D01*
X9967682Y-8654894D02*
X9958158Y-8635846D01*
X9958158Y-8635846D02*
X9958158Y-8464418D01*
X10148635Y-8664418D02*
X10148635Y-8559656D01*
X10148635Y-8559656D02*
X10139111Y-8540608D01*
X10139111Y-8540608D02*
X10120063Y-8531084D01*
X10120063Y-8531084D02*
X10081968Y-8531084D01*
X10081968Y-8531084D02*
X10062920Y-8540608D01*
X10148635Y-8654894D02*
X10129587Y-8664418D01*
X10129587Y-8664418D02*
X10081968Y-8664418D01*
X10081968Y-8664418D02*
X10062920Y-8654894D01*
X10062920Y-8654894D02*
X10053396Y-8635846D01*
X10053396Y-8635846D02*
X10053396Y-8616799D01*
X10053396Y-8616799D02*
X10062920Y-8597751D01*
X10062920Y-8597751D02*
X10081968Y-8588227D01*
X10081968Y-8588227D02*
X10129587Y-8588227D01*
X10129587Y-8588227D02*
X10148635Y-8578704D01*
X10215301Y-8531084D02*
X10291492Y-8531084D01*
X10243873Y-8464418D02*
X10243873Y-8635846D01*
X10243873Y-8635846D02*
X10253396Y-8654894D01*
X10253396Y-8654894D02*
X10272444Y-8664418D01*
X10272444Y-8664418D02*
X10291492Y-8664418D01*
X10434349Y-8654894D02*
X10415301Y-8664418D01*
X10415301Y-8664418D02*
X10377206Y-8664418D01*
X10377206Y-8664418D02*
X10358158Y-8654894D01*
X10358158Y-8654894D02*
X10348635Y-8635846D01*
X10348635Y-8635846D02*
X10348635Y-8559656D01*
X10348635Y-8559656D02*
X10358158Y-8540608D01*
X10358158Y-8540608D02*
X10377206Y-8531084D01*
X10377206Y-8531084D02*
X10415301Y-8531084D01*
X10415301Y-8531084D02*
X10434349Y-8540608D01*
X10434349Y-8540608D02*
X10443873Y-8559656D01*
X10443873Y-8559656D02*
X10443873Y-8578704D01*
X10443873Y-8578704D02*
X10348635Y-8597751D01*
X10615301Y-8664418D02*
X10615301Y-8464418D01*
X10615301Y-8654894D02*
X10596254Y-8664418D01*
X10596254Y-8664418D02*
X10558158Y-8664418D01*
X10558158Y-8664418D02*
X10539111Y-8654894D01*
X10539111Y-8654894D02*
X10529587Y-8645370D01*
X10529587Y-8645370D02*
X10520063Y-8626323D01*
X10520063Y-8626323D02*
X10520063Y-8569180D01*
X10520063Y-8569180D02*
X10529587Y-8550132D01*
X10529587Y-8550132D02*
X10539111Y-8540608D01*
X10539111Y-8540608D02*
X10558158Y-8531084D01*
X10558158Y-8531084D02*
X10596254Y-8531084D01*
X10596254Y-8531084D02*
X10615301Y-8540608D01*
X10691492Y-8740608D02*
X10701016Y-8731084D01*
X10701016Y-8731084D02*
X10720063Y-8702513D01*
X10720063Y-8702513D02*
X10729587Y-8683465D01*
X10729587Y-8683465D02*
X10739111Y-8654894D01*
X10739111Y-8654894D02*
X10748635Y-8607275D01*
X10748635Y-8607275D02*
X10748635Y-8569180D01*
X10748635Y-8569180D02*
X10739111Y-8521561D01*
X10739111Y-8521561D02*
X10729587Y-8492989D01*
X10729587Y-8492989D02*
X10720063Y-8473942D01*
X10720063Y-8473942D02*
X10701016Y-8445370D01*
X10701016Y-8445370D02*
X10691492Y-8435846D01*
X3715711Y-8963645D02*
X3715711Y-8822223D01*
X3574289Y-8822223D01*
X3574289Y-8963645D01*
X3715711Y-8963645D01*
X3986729Y-8784418D02*
X4110539Y-8784418D01*
X4110539Y-8784418D02*
X4043872Y-8860608D01*
X4043872Y-8860608D02*
X4072443Y-8860608D01*
X4072443Y-8860608D02*
X4091491Y-8870132D01*
X4091491Y-8870132D02*
X4101015Y-8879656D01*
X4101015Y-8879656D02*
X4110539Y-8898704D01*
X4110539Y-8898704D02*
X4110539Y-8946323D01*
X4110539Y-8946323D02*
X4101015Y-8965370D01*
X4101015Y-8965370D02*
X4091491Y-8974894D01*
X4091491Y-8974894D02*
X4072443Y-8984418D01*
X4072443Y-8984418D02*
X4015301Y-8984418D01*
X4015301Y-8984418D02*
X3996253Y-8974894D01*
X3996253Y-8974894D02*
X3986729Y-8965370D01*
X4196253Y-8965370D02*
X4205777Y-8974894D01*
X4205777Y-8974894D02*
X4196253Y-8984418D01*
X4196253Y-8984418D02*
X4186729Y-8974894D01*
X4186729Y-8974894D02*
X4196253Y-8965370D01*
X4196253Y-8965370D02*
X4196253Y-8984418D01*
X4281967Y-8803465D02*
X4291491Y-8793942D01*
X4291491Y-8793942D02*
X4310539Y-8784418D01*
X4310539Y-8784418D02*
X4358158Y-8784418D01*
X4358158Y-8784418D02*
X4377205Y-8793942D01*
X4377205Y-8793942D02*
X4386729Y-8803465D01*
X4386729Y-8803465D02*
X4396253Y-8822513D01*
X4396253Y-8822513D02*
X4396253Y-8841561D01*
X4396253Y-8841561D02*
X4386729Y-8870132D01*
X4386729Y-8870132D02*
X4272444Y-8984418D01*
X4272444Y-8984418D02*
X4396253Y-8984418D01*
X4520063Y-8784418D02*
X4539110Y-8784418D01*
X4539110Y-8784418D02*
X4558158Y-8793942D01*
X4558158Y-8793942D02*
X4567682Y-8803465D01*
X4567682Y-8803465D02*
X4577205Y-8822513D01*
X4577205Y-8822513D02*
X4586729Y-8860608D01*
X4586729Y-8860608D02*
X4586729Y-8908227D01*
X4586729Y-8908227D02*
X4577205Y-8946323D01*
X4577205Y-8946323D02*
X4567682Y-8965370D01*
X4567682Y-8965370D02*
X4558158Y-8974894D01*
X4558158Y-8974894D02*
X4539110Y-8984418D01*
X4539110Y-8984418D02*
X4520063Y-8984418D01*
X4520063Y-8984418D02*
X4501015Y-8974894D01*
X4501015Y-8974894D02*
X4491491Y-8965370D01*
X4491491Y-8965370D02*
X4481967Y-8946323D01*
X4481967Y-8946323D02*
X4472444Y-8908227D01*
X4472444Y-8908227D02*
X4472444Y-8860608D01*
X4472444Y-8860608D02*
X4481967Y-8822513D01*
X4481967Y-8822513D02*
X4491491Y-8803465D01*
X4491491Y-8803465D02*
X4501015Y-8793942D01*
X4501015Y-8793942D02*
X4520063Y-8784418D01*
X4710539Y-8784418D02*
X4729586Y-8784418D01*
X4729586Y-8784418D02*
X4748634Y-8793942D01*
X4748634Y-8793942D02*
X4758158Y-8803465D01*
X4758158Y-8803465D02*
X4767682Y-8822513D01*
X4767682Y-8822513D02*
X4777205Y-8860608D01*
X4777205Y-8860608D02*
X4777205Y-8908227D01*
X4777205Y-8908227D02*
X4767682Y-8946323D01*
X4767682Y-8946323D02*
X4758158Y-8965370D01*
X4758158Y-8965370D02*
X4748634Y-8974894D01*
X4748634Y-8974894D02*
X4729586Y-8984418D01*
X4729586Y-8984418D02*
X4710539Y-8984418D01*
X4710539Y-8984418D02*
X4691491Y-8974894D01*
X4691491Y-8974894D02*
X4681967Y-8965370D01*
X4681967Y-8965370D02*
X4672444Y-8946323D01*
X4672444Y-8946323D02*
X4662920Y-8908227D01*
X4662920Y-8908227D02*
X4662920Y-8860608D01*
X4662920Y-8860608D02*
X4672444Y-8822513D01*
X4672444Y-8822513D02*
X4681967Y-8803465D01*
X4681967Y-8803465D02*
X4691491Y-8793942D01*
X4691491Y-8793942D02*
X4710539Y-8784418D01*
X4862920Y-8984418D02*
X4862920Y-8851084D01*
X4862920Y-8870132D02*
X4872444Y-8860608D01*
X4872444Y-8860608D02*
X4891491Y-8851084D01*
X4891491Y-8851084D02*
X4920063Y-8851084D01*
X4920063Y-8851084D02*
X4939110Y-8860608D01*
X4939110Y-8860608D02*
X4948634Y-8879656D01*
X4948634Y-8879656D02*
X4948634Y-8984418D01*
X4948634Y-8879656D02*
X4958158Y-8860608D01*
X4958158Y-8860608D02*
X4977205Y-8851084D01*
X4977205Y-8851084D02*
X5005777Y-8851084D01*
X5005777Y-8851084D02*
X5024825Y-8860608D01*
X5024825Y-8860608D02*
X5034348Y-8879656D01*
X5034348Y-8879656D02*
X5034348Y-8984418D01*
X5129586Y-8984418D02*
X5129586Y-8851084D01*
X5129586Y-8870132D02*
X5139110Y-8860608D01*
X5139110Y-8860608D02*
X5158158Y-8851084D01*
X5158158Y-8851084D02*
X5186729Y-8851084D01*
X5186729Y-8851084D02*
X5205777Y-8860608D01*
X5205777Y-8860608D02*
X5215301Y-8879656D01*
X5215301Y-8879656D02*
X5215301Y-8984418D01*
X5215301Y-8879656D02*
X5224825Y-8860608D01*
X5224825Y-8860608D02*
X5243872Y-8851084D01*
X5243872Y-8851084D02*
X5272444Y-8851084D01*
X5272444Y-8851084D02*
X5291491Y-8860608D01*
X5291491Y-8860608D02*
X5301015Y-8879656D01*
X5301015Y-8879656D02*
X5301015Y-8984418D01*
X5691491Y-8774894D02*
X5520063Y-9032037D01*
X5948634Y-8784418D02*
X5967682Y-8784418D01*
X5967682Y-8784418D02*
X5986729Y-8793942D01*
X5986729Y-8793942D02*
X5996253Y-8803465D01*
X5996253Y-8803465D02*
X6005777Y-8822513D01*
X6005777Y-8822513D02*
X6015301Y-8860608D01*
X6015301Y-8860608D02*
X6015301Y-8908227D01*
X6015301Y-8908227D02*
X6005777Y-8946323D01*
X6005777Y-8946323D02*
X5996253Y-8965370D01*
X5996253Y-8965370D02*
X5986729Y-8974894D01*
X5986729Y-8974894D02*
X5967682Y-8984418D01*
X5967682Y-8984418D02*
X5948634Y-8984418D01*
X5948634Y-8984418D02*
X5929586Y-8974894D01*
X5929586Y-8974894D02*
X5920063Y-8965370D01*
X5920063Y-8965370D02*
X5910539Y-8946323D01*
X5910539Y-8946323D02*
X5901015Y-8908227D01*
X5901015Y-8908227D02*
X5901015Y-8860608D01*
X5901015Y-8860608D02*
X5910539Y-8822513D01*
X5910539Y-8822513D02*
X5920063Y-8803465D01*
X5920063Y-8803465D02*
X5929586Y-8793942D01*
X5929586Y-8793942D02*
X5948634Y-8784418D01*
X6101015Y-8965370D02*
X6110539Y-8974894D01*
X6110539Y-8974894D02*
X6101015Y-8984418D01*
X6101015Y-8984418D02*
X6091491Y-8974894D01*
X6091491Y-8974894D02*
X6101015Y-8965370D01*
X6101015Y-8965370D02*
X6101015Y-8984418D01*
X6301015Y-8984418D02*
X6186729Y-8984418D01*
X6243872Y-8984418D02*
X6243872Y-8784418D01*
X6243872Y-8784418D02*
X6224825Y-8812989D01*
X6224825Y-8812989D02*
X6205777Y-8832037D01*
X6205777Y-8832037D02*
X6186729Y-8841561D01*
X6377206Y-8803465D02*
X6386729Y-8793942D01*
X6386729Y-8793942D02*
X6405777Y-8784418D01*
X6405777Y-8784418D02*
X6453396Y-8784418D01*
X6453396Y-8784418D02*
X6472444Y-8793942D01*
X6472444Y-8793942D02*
X6481967Y-8803465D01*
X6481967Y-8803465D02*
X6491491Y-8822513D01*
X6491491Y-8822513D02*
X6491491Y-8841561D01*
X6491491Y-8841561D02*
X6481967Y-8870132D01*
X6481967Y-8870132D02*
X6367682Y-8984418D01*
X6367682Y-8984418D02*
X6491491Y-8984418D01*
X6662920Y-8784418D02*
X6624825Y-8784418D01*
X6624825Y-8784418D02*
X6605777Y-8793942D01*
X6605777Y-8793942D02*
X6596253Y-8803465D01*
X6596253Y-8803465D02*
X6577206Y-8832037D01*
X6577206Y-8832037D02*
X6567682Y-8870132D01*
X6567682Y-8870132D02*
X6567682Y-8946323D01*
X6567682Y-8946323D02*
X6577206Y-8965370D01*
X6577206Y-8965370D02*
X6586729Y-8974894D01*
X6586729Y-8974894D02*
X6605777Y-8984418D01*
X6605777Y-8984418D02*
X6643872Y-8984418D01*
X6643872Y-8984418D02*
X6662920Y-8974894D01*
X6662920Y-8974894D02*
X6672444Y-8965370D01*
X6672444Y-8965370D02*
X6681967Y-8946323D01*
X6681967Y-8946323D02*
X6681967Y-8898704D01*
X6681967Y-8898704D02*
X6672444Y-8879656D01*
X6672444Y-8879656D02*
X6662920Y-8870132D01*
X6662920Y-8870132D02*
X6643872Y-8860608D01*
X6643872Y-8860608D02*
X6605777Y-8860608D01*
X6605777Y-8860608D02*
X6586729Y-8870132D01*
X6586729Y-8870132D02*
X6577206Y-8879656D01*
X6577206Y-8879656D02*
X6567682Y-8898704D01*
X6805777Y-8784418D02*
X6824825Y-8784418D01*
X6824825Y-8784418D02*
X6843872Y-8793942D01*
X6843872Y-8793942D02*
X6853396Y-8803465D01*
X6853396Y-8803465D02*
X6862920Y-8822513D01*
X6862920Y-8822513D02*
X6872444Y-8860608D01*
X6872444Y-8860608D02*
X6872444Y-8908227D01*
X6872444Y-8908227D02*
X6862920Y-8946323D01*
X6862920Y-8946323D02*
X6853396Y-8965370D01*
X6853396Y-8965370D02*
X6843872Y-8974894D01*
X6843872Y-8974894D02*
X6824825Y-8984418D01*
X6824825Y-8984418D02*
X6805777Y-8984418D01*
X6805777Y-8984418D02*
X6786729Y-8974894D01*
X6786729Y-8974894D02*
X6777206Y-8965370D01*
X6777206Y-8965370D02*
X6767682Y-8946323D01*
X6767682Y-8946323D02*
X6758158Y-8908227D01*
X6758158Y-8908227D02*
X6758158Y-8860608D01*
X6758158Y-8860608D02*
X6767682Y-8822513D01*
X6767682Y-8822513D02*
X6777206Y-8803465D01*
X6777206Y-8803465D02*
X6786729Y-8793942D01*
X6786729Y-8793942D02*
X6805777Y-8784418D01*
X6948634Y-8784418D02*
X6948634Y-8822513D01*
X7024825Y-8784418D02*
X7024825Y-8822513D01*
X7320063Y-9060608D02*
X7310539Y-9051084D01*
X7310539Y-9051084D02*
X7291491Y-9022513D01*
X7291491Y-9022513D02*
X7281968Y-9003465D01*
X7281968Y-9003465D02*
X7272444Y-8974894D01*
X7272444Y-8974894D02*
X7262920Y-8927275D01*
X7262920Y-8927275D02*
X7262920Y-8889180D01*
X7262920Y-8889180D02*
X7272444Y-8841561D01*
X7272444Y-8841561D02*
X7281968Y-8812989D01*
X7281968Y-8812989D02*
X7291491Y-8793942D01*
X7291491Y-8793942D02*
X7310539Y-8765370D01*
X7310539Y-8765370D02*
X7320063Y-8755846D01*
X7386729Y-8803465D02*
X7396253Y-8793942D01*
X7396253Y-8793942D02*
X7415301Y-8784418D01*
X7415301Y-8784418D02*
X7462920Y-8784418D01*
X7462920Y-8784418D02*
X7481968Y-8793942D01*
X7481968Y-8793942D02*
X7491491Y-8803465D01*
X7491491Y-8803465D02*
X7501015Y-8822513D01*
X7501015Y-8822513D02*
X7501015Y-8841561D01*
X7501015Y-8841561D02*
X7491491Y-8870132D01*
X7491491Y-8870132D02*
X7377206Y-8984418D01*
X7377206Y-8984418D02*
X7501015Y-8984418D01*
X7739110Y-8984418D02*
X7739110Y-8784418D01*
X7824825Y-8984418D02*
X7824825Y-8879656D01*
X7824825Y-8879656D02*
X7815301Y-8860608D01*
X7815301Y-8860608D02*
X7796253Y-8851084D01*
X7796253Y-8851084D02*
X7767682Y-8851084D01*
X7767682Y-8851084D02*
X7748634Y-8860608D01*
X7748634Y-8860608D02*
X7739110Y-8870132D01*
X7948634Y-8984418D02*
X7929587Y-8974894D01*
X7929587Y-8974894D02*
X7920063Y-8965370D01*
X7920063Y-8965370D02*
X7910539Y-8946323D01*
X7910539Y-8946323D02*
X7910539Y-8889180D01*
X7910539Y-8889180D02*
X7920063Y-8870132D01*
X7920063Y-8870132D02*
X7929587Y-8860608D01*
X7929587Y-8860608D02*
X7948634Y-8851084D01*
X7948634Y-8851084D02*
X7977206Y-8851084D01*
X7977206Y-8851084D02*
X7996253Y-8860608D01*
X7996253Y-8860608D02*
X8005777Y-8870132D01*
X8005777Y-8870132D02*
X8015301Y-8889180D01*
X8015301Y-8889180D02*
X8015301Y-8946323D01*
X8015301Y-8946323D02*
X8005777Y-8965370D01*
X8005777Y-8965370D02*
X7996253Y-8974894D01*
X7996253Y-8974894D02*
X7977206Y-8984418D01*
X7977206Y-8984418D02*
X7948634Y-8984418D01*
X8129587Y-8984418D02*
X8110539Y-8974894D01*
X8110539Y-8974894D02*
X8101015Y-8955846D01*
X8101015Y-8955846D02*
X8101015Y-8784418D01*
X8281968Y-8974894D02*
X8262920Y-8984418D01*
X8262920Y-8984418D02*
X8224825Y-8984418D01*
X8224825Y-8984418D02*
X8205777Y-8974894D01*
X8205777Y-8974894D02*
X8196253Y-8955846D01*
X8196253Y-8955846D02*
X8196253Y-8879656D01*
X8196253Y-8879656D02*
X8205777Y-8860608D01*
X8205777Y-8860608D02*
X8224825Y-8851084D01*
X8224825Y-8851084D02*
X8262920Y-8851084D01*
X8262920Y-8851084D02*
X8281968Y-8860608D01*
X8281968Y-8860608D02*
X8291491Y-8879656D01*
X8291491Y-8879656D02*
X8291491Y-8898704D01*
X8291491Y-8898704D02*
X8196253Y-8917751D01*
X8367682Y-8974894D02*
X8386730Y-8984418D01*
X8386730Y-8984418D02*
X8424825Y-8984418D01*
X8424825Y-8984418D02*
X8443873Y-8974894D01*
X8443873Y-8974894D02*
X8453396Y-8955846D01*
X8453396Y-8955846D02*
X8453396Y-8946323D01*
X8453396Y-8946323D02*
X8443873Y-8927275D01*
X8443873Y-8927275D02*
X8424825Y-8917751D01*
X8424825Y-8917751D02*
X8396253Y-8917751D01*
X8396253Y-8917751D02*
X8377206Y-8908227D01*
X8377206Y-8908227D02*
X8367682Y-8889180D01*
X8367682Y-8889180D02*
X8367682Y-8879656D01*
X8367682Y-8879656D02*
X8377206Y-8860608D01*
X8377206Y-8860608D02*
X8396253Y-8851084D01*
X8396253Y-8851084D02*
X8424825Y-8851084D01*
X8424825Y-8851084D02*
X8443873Y-8860608D01*
X8520063Y-9060608D02*
X8529587Y-9051084D01*
X8529587Y-9051084D02*
X8548634Y-9022513D01*
X8548634Y-9022513D02*
X8558158Y-9003465D01*
X8558158Y-9003465D02*
X8567682Y-8974894D01*
X8567682Y-8974894D02*
X8577206Y-8927275D01*
X8577206Y-8927275D02*
X8577206Y-8889180D01*
X8577206Y-8889180D02*
X8567682Y-8841561D01*
X8567682Y-8841561D02*
X8558158Y-8812989D01*
X8558158Y-8812989D02*
X8548634Y-8793942D01*
X8548634Y-8793942D02*
X8529587Y-8765370D01*
X8529587Y-8765370D02*
X8520063Y-8755846D01*
X8881968Y-9060608D02*
X8872444Y-9051084D01*
X8872444Y-9051084D02*
X8853396Y-9022513D01*
X8853396Y-9022513D02*
X8843873Y-9003465D01*
X8843873Y-9003465D02*
X8834349Y-8974894D01*
X8834349Y-8974894D02*
X8824825Y-8927275D01*
X8824825Y-8927275D02*
X8824825Y-8889180D01*
X8824825Y-8889180D02*
X8834349Y-8841561D01*
X8834349Y-8841561D02*
X8843873Y-8812989D01*
X8843873Y-8812989D02*
X8853396Y-8793942D01*
X8853396Y-8793942D02*
X8872444Y-8765370D01*
X8872444Y-8765370D02*
X8881968Y-8755846D01*
X8958158Y-8851084D02*
X8958158Y-8984418D01*
X8958158Y-8870132D02*
X8967682Y-8860608D01*
X8967682Y-8860608D02*
X8986730Y-8851084D01*
X8986730Y-8851084D02*
X9015301Y-8851084D01*
X9015301Y-8851084D02*
X9034349Y-8860608D01*
X9034349Y-8860608D02*
X9043873Y-8879656D01*
X9043873Y-8879656D02*
X9043873Y-8984418D01*
X9167682Y-8984418D02*
X9148634Y-8974894D01*
X9148634Y-8974894D02*
X9139111Y-8965370D01*
X9139111Y-8965370D02*
X9129587Y-8946323D01*
X9129587Y-8946323D02*
X9129587Y-8889180D01*
X9129587Y-8889180D02*
X9139111Y-8870132D01*
X9139111Y-8870132D02*
X9148634Y-8860608D01*
X9148634Y-8860608D02*
X9167682Y-8851084D01*
X9167682Y-8851084D02*
X9196254Y-8851084D01*
X9196254Y-8851084D02*
X9215301Y-8860608D01*
X9215301Y-8860608D02*
X9224825Y-8870132D01*
X9224825Y-8870132D02*
X9234349Y-8889180D01*
X9234349Y-8889180D02*
X9234349Y-8946323D01*
X9234349Y-8946323D02*
X9224825Y-8965370D01*
X9224825Y-8965370D02*
X9215301Y-8974894D01*
X9215301Y-8974894D02*
X9196254Y-8984418D01*
X9196254Y-8984418D02*
X9167682Y-8984418D01*
X9291492Y-8851084D02*
X9367682Y-8851084D01*
X9320063Y-8784418D02*
X9320063Y-8955846D01*
X9320063Y-8955846D02*
X9329587Y-8974894D01*
X9329587Y-8974894D02*
X9348634Y-8984418D01*
X9348634Y-8984418D02*
X9367682Y-8984418D01*
X9586730Y-8851084D02*
X9586730Y-9051084D01*
X9586730Y-8860608D02*
X9605777Y-8851084D01*
X9605777Y-8851084D02*
X9643873Y-8851084D01*
X9643873Y-8851084D02*
X9662920Y-8860608D01*
X9662920Y-8860608D02*
X9672444Y-8870132D01*
X9672444Y-8870132D02*
X9681968Y-8889180D01*
X9681968Y-8889180D02*
X9681968Y-8946323D01*
X9681968Y-8946323D02*
X9672444Y-8965370D01*
X9672444Y-8965370D02*
X9662920Y-8974894D01*
X9662920Y-8974894D02*
X9643873Y-8984418D01*
X9643873Y-8984418D02*
X9605777Y-8984418D01*
X9605777Y-8984418D02*
X9586730Y-8974894D01*
X9796254Y-8984418D02*
X9777206Y-8974894D01*
X9777206Y-8974894D02*
X9767682Y-8955846D01*
X9767682Y-8955846D02*
X9767682Y-8784418D01*
X9958158Y-8984418D02*
X9958158Y-8879656D01*
X9958158Y-8879656D02*
X9948635Y-8860608D01*
X9948635Y-8860608D02*
X9929587Y-8851084D01*
X9929587Y-8851084D02*
X9891492Y-8851084D01*
X9891492Y-8851084D02*
X9872444Y-8860608D01*
X9958158Y-8974894D02*
X9939111Y-8984418D01*
X9939111Y-8984418D02*
X9891492Y-8984418D01*
X9891492Y-8984418D02*
X9872444Y-8974894D01*
X9872444Y-8974894D02*
X9862920Y-8955846D01*
X9862920Y-8955846D02*
X9862920Y-8936799D01*
X9862920Y-8936799D02*
X9872444Y-8917751D01*
X9872444Y-8917751D02*
X9891492Y-8908227D01*
X9891492Y-8908227D02*
X9939111Y-8908227D01*
X9939111Y-8908227D02*
X9958158Y-8898704D01*
X10024825Y-8851084D02*
X10101015Y-8851084D01*
X10053396Y-8784418D02*
X10053396Y-8955846D01*
X10053396Y-8955846D02*
X10062920Y-8974894D01*
X10062920Y-8974894D02*
X10081968Y-8984418D01*
X10081968Y-8984418D02*
X10101015Y-8984418D01*
X10243873Y-8974894D02*
X10224825Y-8984418D01*
X10224825Y-8984418D02*
X10186730Y-8984418D01*
X10186730Y-8984418D02*
X10167682Y-8974894D01*
X10167682Y-8974894D02*
X10158158Y-8955846D01*
X10158158Y-8955846D02*
X10158158Y-8879656D01*
X10158158Y-8879656D02*
X10167682Y-8860608D01*
X10167682Y-8860608D02*
X10186730Y-8851084D01*
X10186730Y-8851084D02*
X10224825Y-8851084D01*
X10224825Y-8851084D02*
X10243873Y-8860608D01*
X10243873Y-8860608D02*
X10253396Y-8879656D01*
X10253396Y-8879656D02*
X10253396Y-8898704D01*
X10253396Y-8898704D02*
X10158158Y-8917751D01*
X10424825Y-8984418D02*
X10424825Y-8784418D01*
X10424825Y-8974894D02*
X10405777Y-8984418D01*
X10405777Y-8984418D02*
X10367682Y-8984418D01*
X10367682Y-8984418D02*
X10348635Y-8974894D01*
X10348635Y-8974894D02*
X10339111Y-8965370D01*
X10339111Y-8965370D02*
X10329587Y-8946323D01*
X10329587Y-8946323D02*
X10329587Y-8889180D01*
X10329587Y-8889180D02*
X10339111Y-8870132D01*
X10339111Y-8870132D02*
X10348635Y-8860608D01*
X10348635Y-8860608D02*
X10367682Y-8851084D01*
X10367682Y-8851084D02*
X10405777Y-8851084D01*
X10405777Y-8851084D02*
X10424825Y-8860608D01*
X10501016Y-9060608D02*
X10510539Y-9051084D01*
X10510539Y-9051084D02*
X10529587Y-9022513D01*
X10529587Y-9022513D02*
X10539111Y-9003465D01*
X10539111Y-9003465D02*
X10548635Y-8974894D01*
X10548635Y-8974894D02*
X10558158Y-8927275D01*
X10558158Y-8927275D02*
X10558158Y-8889180D01*
X10558158Y-8889180D02*
X10548635Y-8841561D01*
X10548635Y-8841561D02*
X10539111Y-8812989D01*
X10539111Y-8812989D02*
X10529587Y-8793942D01*
X10529587Y-8793942D02*
X10510539Y-8765370D01*
X10510539Y-8765370D02*
X10501016Y-8755846D01*
X3645000Y-9312934D02*
X3745000Y-9212934D01*
X3645000Y-9112934D01*
X3545000Y-9212934D01*
X3645000Y-9312934D01*
X4091491Y-9171084D02*
X4091491Y-9304418D01*
X4043872Y-9094894D02*
X3996253Y-9237751D01*
X3996253Y-9237751D02*
X4120062Y-9237751D01*
X4196253Y-9285370D02*
X4205777Y-9294894D01*
X4205777Y-9294894D02*
X4196253Y-9304418D01*
X4196253Y-9304418D02*
X4186729Y-9294894D01*
X4186729Y-9294894D02*
X4196253Y-9285370D01*
X4196253Y-9285370D02*
X4196253Y-9304418D01*
X4329586Y-9104418D02*
X4348634Y-9104418D01*
X4348634Y-9104418D02*
X4367682Y-9113942D01*
X4367682Y-9113942D02*
X4377205Y-9123465D01*
X4377205Y-9123465D02*
X4386729Y-9142513D01*
X4386729Y-9142513D02*
X4396253Y-9180608D01*
X4396253Y-9180608D02*
X4396253Y-9228227D01*
X4396253Y-9228227D02*
X4386729Y-9266323D01*
X4386729Y-9266323D02*
X4377205Y-9285370D01*
X4377205Y-9285370D02*
X4367682Y-9294894D01*
X4367682Y-9294894D02*
X4348634Y-9304418D01*
X4348634Y-9304418D02*
X4329586Y-9304418D01*
X4329586Y-9304418D02*
X4310539Y-9294894D01*
X4310539Y-9294894D02*
X4301015Y-9285370D01*
X4301015Y-9285370D02*
X4291491Y-9266323D01*
X4291491Y-9266323D02*
X4281967Y-9228227D01*
X4281967Y-9228227D02*
X4281967Y-9180608D01*
X4281967Y-9180608D02*
X4291491Y-9142513D01*
X4291491Y-9142513D02*
X4301015Y-9123465D01*
X4301015Y-9123465D02*
X4310539Y-9113942D01*
X4310539Y-9113942D02*
X4329586Y-9104418D01*
X4520063Y-9104418D02*
X4539110Y-9104418D01*
X4539110Y-9104418D02*
X4558158Y-9113942D01*
X4558158Y-9113942D02*
X4567682Y-9123465D01*
X4567682Y-9123465D02*
X4577205Y-9142513D01*
X4577205Y-9142513D02*
X4586729Y-9180608D01*
X4586729Y-9180608D02*
X4586729Y-9228227D01*
X4586729Y-9228227D02*
X4577205Y-9266323D01*
X4577205Y-9266323D02*
X4567682Y-9285370D01*
X4567682Y-9285370D02*
X4558158Y-9294894D01*
X4558158Y-9294894D02*
X4539110Y-9304418D01*
X4539110Y-9304418D02*
X4520063Y-9304418D01*
X4520063Y-9304418D02*
X4501015Y-9294894D01*
X4501015Y-9294894D02*
X4491491Y-9285370D01*
X4491491Y-9285370D02*
X4481967Y-9266323D01*
X4481967Y-9266323D02*
X4472444Y-9228227D01*
X4472444Y-9228227D02*
X4472444Y-9180608D01*
X4472444Y-9180608D02*
X4481967Y-9142513D01*
X4481967Y-9142513D02*
X4491491Y-9123465D01*
X4491491Y-9123465D02*
X4501015Y-9113942D01*
X4501015Y-9113942D02*
X4520063Y-9104418D01*
X4710539Y-9104418D02*
X4729586Y-9104418D01*
X4729586Y-9104418D02*
X4748634Y-9113942D01*
X4748634Y-9113942D02*
X4758158Y-9123465D01*
X4758158Y-9123465D02*
X4767682Y-9142513D01*
X4767682Y-9142513D02*
X4777205Y-9180608D01*
X4777205Y-9180608D02*
X4777205Y-9228227D01*
X4777205Y-9228227D02*
X4767682Y-9266323D01*
X4767682Y-9266323D02*
X4758158Y-9285370D01*
X4758158Y-9285370D02*
X4748634Y-9294894D01*
X4748634Y-9294894D02*
X4729586Y-9304418D01*
X4729586Y-9304418D02*
X4710539Y-9304418D01*
X4710539Y-9304418D02*
X4691491Y-9294894D01*
X4691491Y-9294894D02*
X4681967Y-9285370D01*
X4681967Y-9285370D02*
X4672444Y-9266323D01*
X4672444Y-9266323D02*
X4662920Y-9228227D01*
X4662920Y-9228227D02*
X4662920Y-9180608D01*
X4662920Y-9180608D02*
X4672444Y-9142513D01*
X4672444Y-9142513D02*
X4681967Y-9123465D01*
X4681967Y-9123465D02*
X4691491Y-9113942D01*
X4691491Y-9113942D02*
X4710539Y-9104418D01*
X4862920Y-9304418D02*
X4862920Y-9171084D01*
X4862920Y-9190132D02*
X4872444Y-9180608D01*
X4872444Y-9180608D02*
X4891491Y-9171084D01*
X4891491Y-9171084D02*
X4920063Y-9171084D01*
X4920063Y-9171084D02*
X4939110Y-9180608D01*
X4939110Y-9180608D02*
X4948634Y-9199656D01*
X4948634Y-9199656D02*
X4948634Y-9304418D01*
X4948634Y-9199656D02*
X4958158Y-9180608D01*
X4958158Y-9180608D02*
X4977205Y-9171084D01*
X4977205Y-9171084D02*
X5005777Y-9171084D01*
X5005777Y-9171084D02*
X5024825Y-9180608D01*
X5024825Y-9180608D02*
X5034348Y-9199656D01*
X5034348Y-9199656D02*
X5034348Y-9304418D01*
X5129586Y-9304418D02*
X5129586Y-9171084D01*
X5129586Y-9190132D02*
X5139110Y-9180608D01*
X5139110Y-9180608D02*
X5158158Y-9171084D01*
X5158158Y-9171084D02*
X5186729Y-9171084D01*
X5186729Y-9171084D02*
X5205777Y-9180608D01*
X5205777Y-9180608D02*
X5215301Y-9199656D01*
X5215301Y-9199656D02*
X5215301Y-9304418D01*
X5215301Y-9199656D02*
X5224825Y-9180608D01*
X5224825Y-9180608D02*
X5243872Y-9171084D01*
X5243872Y-9171084D02*
X5272444Y-9171084D01*
X5272444Y-9171084D02*
X5291491Y-9180608D01*
X5291491Y-9180608D02*
X5301015Y-9199656D01*
X5301015Y-9199656D02*
X5301015Y-9304418D01*
X5691491Y-9094894D02*
X5520063Y-9352037D01*
X5948634Y-9104418D02*
X5967682Y-9104418D01*
X5967682Y-9104418D02*
X5986729Y-9113942D01*
X5986729Y-9113942D02*
X5996253Y-9123465D01*
X5996253Y-9123465D02*
X6005777Y-9142513D01*
X6005777Y-9142513D02*
X6015301Y-9180608D01*
X6015301Y-9180608D02*
X6015301Y-9228227D01*
X6015301Y-9228227D02*
X6005777Y-9266323D01*
X6005777Y-9266323D02*
X5996253Y-9285370D01*
X5996253Y-9285370D02*
X5986729Y-9294894D01*
X5986729Y-9294894D02*
X5967682Y-9304418D01*
X5967682Y-9304418D02*
X5948634Y-9304418D01*
X5948634Y-9304418D02*
X5929586Y-9294894D01*
X5929586Y-9294894D02*
X5920063Y-9285370D01*
X5920063Y-9285370D02*
X5910539Y-9266323D01*
X5910539Y-9266323D02*
X5901015Y-9228227D01*
X5901015Y-9228227D02*
X5901015Y-9180608D01*
X5901015Y-9180608D02*
X5910539Y-9142513D01*
X5910539Y-9142513D02*
X5920063Y-9123465D01*
X5920063Y-9123465D02*
X5929586Y-9113942D01*
X5929586Y-9113942D02*
X5948634Y-9104418D01*
X6101015Y-9285370D02*
X6110539Y-9294894D01*
X6110539Y-9294894D02*
X6101015Y-9304418D01*
X6101015Y-9304418D02*
X6091491Y-9294894D01*
X6091491Y-9294894D02*
X6101015Y-9285370D01*
X6101015Y-9285370D02*
X6101015Y-9304418D01*
X6301015Y-9304418D02*
X6186729Y-9304418D01*
X6243872Y-9304418D02*
X6243872Y-9104418D01*
X6243872Y-9104418D02*
X6224825Y-9132989D01*
X6224825Y-9132989D02*
X6205777Y-9152037D01*
X6205777Y-9152037D02*
X6186729Y-9161561D01*
X6481967Y-9104418D02*
X6386729Y-9104418D01*
X6386729Y-9104418D02*
X6377206Y-9199656D01*
X6377206Y-9199656D02*
X6386729Y-9190132D01*
X6386729Y-9190132D02*
X6405777Y-9180608D01*
X6405777Y-9180608D02*
X6453396Y-9180608D01*
X6453396Y-9180608D02*
X6472444Y-9190132D01*
X6472444Y-9190132D02*
X6481967Y-9199656D01*
X6481967Y-9199656D02*
X6491491Y-9218704D01*
X6491491Y-9218704D02*
X6491491Y-9266323D01*
X6491491Y-9266323D02*
X6481967Y-9285370D01*
X6481967Y-9285370D02*
X6472444Y-9294894D01*
X6472444Y-9294894D02*
X6453396Y-9304418D01*
X6453396Y-9304418D02*
X6405777Y-9304418D01*
X6405777Y-9304418D02*
X6386729Y-9294894D01*
X6386729Y-9294894D02*
X6377206Y-9285370D01*
X6558158Y-9104418D02*
X6691491Y-9104418D01*
X6691491Y-9104418D02*
X6605777Y-9304418D01*
X6862920Y-9104418D02*
X6767682Y-9104418D01*
X6767682Y-9104418D02*
X6758158Y-9199656D01*
X6758158Y-9199656D02*
X6767682Y-9190132D01*
X6767682Y-9190132D02*
X6786729Y-9180608D01*
X6786729Y-9180608D02*
X6834348Y-9180608D01*
X6834348Y-9180608D02*
X6853396Y-9190132D01*
X6853396Y-9190132D02*
X6862920Y-9199656D01*
X6862920Y-9199656D02*
X6872444Y-9218704D01*
X6872444Y-9218704D02*
X6872444Y-9266323D01*
X6872444Y-9266323D02*
X6862920Y-9285370D01*
X6862920Y-9285370D02*
X6853396Y-9294894D01*
X6853396Y-9294894D02*
X6834348Y-9304418D01*
X6834348Y-9304418D02*
X6786729Y-9304418D01*
X6786729Y-9304418D02*
X6767682Y-9294894D01*
X6767682Y-9294894D02*
X6758158Y-9285370D01*
X6948634Y-9104418D02*
X6948634Y-9142513D01*
X7024825Y-9104418D02*
X7024825Y-9142513D01*
X7320063Y-9380608D02*
X7310539Y-9371084D01*
X7310539Y-9371084D02*
X7291491Y-9342513D01*
X7291491Y-9342513D02*
X7281968Y-9323465D01*
X7281968Y-9323465D02*
X7272444Y-9294894D01*
X7272444Y-9294894D02*
X7262920Y-9247275D01*
X7262920Y-9247275D02*
X7262920Y-9209180D01*
X7262920Y-9209180D02*
X7272444Y-9161561D01*
X7272444Y-9161561D02*
X7281968Y-9132989D01*
X7281968Y-9132989D02*
X7291491Y-9113942D01*
X7291491Y-9113942D02*
X7310539Y-9085370D01*
X7310539Y-9085370D02*
X7320063Y-9075846D01*
X7481968Y-9171084D02*
X7481968Y-9304418D01*
X7434348Y-9094894D02*
X7386729Y-9237751D01*
X7386729Y-9237751D02*
X7510539Y-9237751D01*
X7739110Y-9304418D02*
X7739110Y-9104418D01*
X7824825Y-9304418D02*
X7824825Y-9199656D01*
X7824825Y-9199656D02*
X7815301Y-9180608D01*
X7815301Y-9180608D02*
X7796253Y-9171084D01*
X7796253Y-9171084D02*
X7767682Y-9171084D01*
X7767682Y-9171084D02*
X7748634Y-9180608D01*
X7748634Y-9180608D02*
X7739110Y-9190132D01*
X7948634Y-9304418D02*
X7929587Y-9294894D01*
X7929587Y-9294894D02*
X7920063Y-9285370D01*
X7920063Y-9285370D02*
X7910539Y-9266323D01*
X7910539Y-9266323D02*
X7910539Y-9209180D01*
X7910539Y-9209180D02*
X7920063Y-9190132D01*
X7920063Y-9190132D02*
X7929587Y-9180608D01*
X7929587Y-9180608D02*
X7948634Y-9171084D01*
X7948634Y-9171084D02*
X7977206Y-9171084D01*
X7977206Y-9171084D02*
X7996253Y-9180608D01*
X7996253Y-9180608D02*
X8005777Y-9190132D01*
X8005777Y-9190132D02*
X8015301Y-9209180D01*
X8015301Y-9209180D02*
X8015301Y-9266323D01*
X8015301Y-9266323D02*
X8005777Y-9285370D01*
X8005777Y-9285370D02*
X7996253Y-9294894D01*
X7996253Y-9294894D02*
X7977206Y-9304418D01*
X7977206Y-9304418D02*
X7948634Y-9304418D01*
X8129587Y-9304418D02*
X8110539Y-9294894D01*
X8110539Y-9294894D02*
X8101015Y-9275846D01*
X8101015Y-9275846D02*
X8101015Y-9104418D01*
X8281968Y-9294894D02*
X8262920Y-9304418D01*
X8262920Y-9304418D02*
X8224825Y-9304418D01*
X8224825Y-9304418D02*
X8205777Y-9294894D01*
X8205777Y-9294894D02*
X8196253Y-9275846D01*
X8196253Y-9275846D02*
X8196253Y-9199656D01*
X8196253Y-9199656D02*
X8205777Y-9180608D01*
X8205777Y-9180608D02*
X8224825Y-9171084D01*
X8224825Y-9171084D02*
X8262920Y-9171084D01*
X8262920Y-9171084D02*
X8281968Y-9180608D01*
X8281968Y-9180608D02*
X8291491Y-9199656D01*
X8291491Y-9199656D02*
X8291491Y-9218704D01*
X8291491Y-9218704D02*
X8196253Y-9237751D01*
X8367682Y-9294894D02*
X8386730Y-9304418D01*
X8386730Y-9304418D02*
X8424825Y-9304418D01*
X8424825Y-9304418D02*
X8443873Y-9294894D01*
X8443873Y-9294894D02*
X8453396Y-9275846D01*
X8453396Y-9275846D02*
X8453396Y-9266323D01*
X8453396Y-9266323D02*
X8443873Y-9247275D01*
X8443873Y-9247275D02*
X8424825Y-9237751D01*
X8424825Y-9237751D02*
X8396253Y-9237751D01*
X8396253Y-9237751D02*
X8377206Y-9228227D01*
X8377206Y-9228227D02*
X8367682Y-9209180D01*
X8367682Y-9209180D02*
X8367682Y-9199656D01*
X8367682Y-9199656D02*
X8377206Y-9180608D01*
X8377206Y-9180608D02*
X8396253Y-9171084D01*
X8396253Y-9171084D02*
X8424825Y-9171084D01*
X8424825Y-9171084D02*
X8443873Y-9180608D01*
X8520063Y-9380608D02*
X8529587Y-9371084D01*
X8529587Y-9371084D02*
X8548634Y-9342513D01*
X8548634Y-9342513D02*
X8558158Y-9323465D01*
X8558158Y-9323465D02*
X8567682Y-9294894D01*
X8567682Y-9294894D02*
X8577206Y-9247275D01*
X8577206Y-9247275D02*
X8577206Y-9209180D01*
X8577206Y-9209180D02*
X8567682Y-9161561D01*
X8567682Y-9161561D02*
X8558158Y-9132989D01*
X8558158Y-9132989D02*
X8548634Y-9113942D01*
X8548634Y-9113942D02*
X8529587Y-9085370D01*
X8529587Y-9085370D02*
X8520063Y-9075846D01*
X8881968Y-9380608D02*
X8872444Y-9371084D01*
X8872444Y-9371084D02*
X8853396Y-9342513D01*
X8853396Y-9342513D02*
X8843873Y-9323465D01*
X8843873Y-9323465D02*
X8834349Y-9294894D01*
X8834349Y-9294894D02*
X8824825Y-9247275D01*
X8824825Y-9247275D02*
X8824825Y-9209180D01*
X8824825Y-9209180D02*
X8834349Y-9161561D01*
X8834349Y-9161561D02*
X8843873Y-9132989D01*
X8843873Y-9132989D02*
X8853396Y-9113942D01*
X8853396Y-9113942D02*
X8872444Y-9085370D01*
X8872444Y-9085370D02*
X8881968Y-9075846D01*
X8958158Y-9171084D02*
X8958158Y-9304418D01*
X8958158Y-9190132D02*
X8967682Y-9180608D01*
X8967682Y-9180608D02*
X8986730Y-9171084D01*
X8986730Y-9171084D02*
X9015301Y-9171084D01*
X9015301Y-9171084D02*
X9034349Y-9180608D01*
X9034349Y-9180608D02*
X9043873Y-9199656D01*
X9043873Y-9199656D02*
X9043873Y-9304418D01*
X9167682Y-9304418D02*
X9148634Y-9294894D01*
X9148634Y-9294894D02*
X9139111Y-9285370D01*
X9139111Y-9285370D02*
X9129587Y-9266323D01*
X9129587Y-9266323D02*
X9129587Y-9209180D01*
X9129587Y-9209180D02*
X9139111Y-9190132D01*
X9139111Y-9190132D02*
X9148634Y-9180608D01*
X9148634Y-9180608D02*
X9167682Y-9171084D01*
X9167682Y-9171084D02*
X9196254Y-9171084D01*
X9196254Y-9171084D02*
X9215301Y-9180608D01*
X9215301Y-9180608D02*
X9224825Y-9190132D01*
X9224825Y-9190132D02*
X9234349Y-9209180D01*
X9234349Y-9209180D02*
X9234349Y-9266323D01*
X9234349Y-9266323D02*
X9224825Y-9285370D01*
X9224825Y-9285370D02*
X9215301Y-9294894D01*
X9215301Y-9294894D02*
X9196254Y-9304418D01*
X9196254Y-9304418D02*
X9167682Y-9304418D01*
X9291492Y-9171084D02*
X9367682Y-9171084D01*
X9320063Y-9104418D02*
X9320063Y-9275846D01*
X9320063Y-9275846D02*
X9329587Y-9294894D01*
X9329587Y-9294894D02*
X9348634Y-9304418D01*
X9348634Y-9304418D02*
X9367682Y-9304418D01*
X9586730Y-9171084D02*
X9586730Y-9371084D01*
X9586730Y-9180608D02*
X9605777Y-9171084D01*
X9605777Y-9171084D02*
X9643873Y-9171084D01*
X9643873Y-9171084D02*
X9662920Y-9180608D01*
X9662920Y-9180608D02*
X9672444Y-9190132D01*
X9672444Y-9190132D02*
X9681968Y-9209180D01*
X9681968Y-9209180D02*
X9681968Y-9266323D01*
X9681968Y-9266323D02*
X9672444Y-9285370D01*
X9672444Y-9285370D02*
X9662920Y-9294894D01*
X9662920Y-9294894D02*
X9643873Y-9304418D01*
X9643873Y-9304418D02*
X9605777Y-9304418D01*
X9605777Y-9304418D02*
X9586730Y-9294894D01*
X9796254Y-9304418D02*
X9777206Y-9294894D01*
X9777206Y-9294894D02*
X9767682Y-9275846D01*
X9767682Y-9275846D02*
X9767682Y-9104418D01*
X9958158Y-9304418D02*
X9958158Y-9199656D01*
X9958158Y-9199656D02*
X9948635Y-9180608D01*
X9948635Y-9180608D02*
X9929587Y-9171084D01*
X9929587Y-9171084D02*
X9891492Y-9171084D01*
X9891492Y-9171084D02*
X9872444Y-9180608D01*
X9958158Y-9294894D02*
X9939111Y-9304418D01*
X9939111Y-9304418D02*
X9891492Y-9304418D01*
X9891492Y-9304418D02*
X9872444Y-9294894D01*
X9872444Y-9294894D02*
X9862920Y-9275846D01*
X9862920Y-9275846D02*
X9862920Y-9256799D01*
X9862920Y-9256799D02*
X9872444Y-9237751D01*
X9872444Y-9237751D02*
X9891492Y-9228227D01*
X9891492Y-9228227D02*
X9939111Y-9228227D01*
X9939111Y-9228227D02*
X9958158Y-9218704D01*
X10024825Y-9171084D02*
X10101015Y-9171084D01*
X10053396Y-9104418D02*
X10053396Y-9275846D01*
X10053396Y-9275846D02*
X10062920Y-9294894D01*
X10062920Y-9294894D02*
X10081968Y-9304418D01*
X10081968Y-9304418D02*
X10101015Y-9304418D01*
X10243873Y-9294894D02*
X10224825Y-9304418D01*
X10224825Y-9304418D02*
X10186730Y-9304418D01*
X10186730Y-9304418D02*
X10167682Y-9294894D01*
X10167682Y-9294894D02*
X10158158Y-9275846D01*
X10158158Y-9275846D02*
X10158158Y-9199656D01*
X10158158Y-9199656D02*
X10167682Y-9180608D01*
X10167682Y-9180608D02*
X10186730Y-9171084D01*
X10186730Y-9171084D02*
X10224825Y-9171084D01*
X10224825Y-9171084D02*
X10243873Y-9180608D01*
X10243873Y-9180608D02*
X10253396Y-9199656D01*
X10253396Y-9199656D02*
X10253396Y-9218704D01*
X10253396Y-9218704D02*
X10158158Y-9237751D01*
X10424825Y-9304418D02*
X10424825Y-9104418D01*
X10424825Y-9294894D02*
X10405777Y-9304418D01*
X10405777Y-9304418D02*
X10367682Y-9304418D01*
X10367682Y-9304418D02*
X10348635Y-9294894D01*
X10348635Y-9294894D02*
X10339111Y-9285370D01*
X10339111Y-9285370D02*
X10329587Y-9266323D01*
X10329587Y-9266323D02*
X10329587Y-9209180D01*
X10329587Y-9209180D02*
X10339111Y-9190132D01*
X10339111Y-9190132D02*
X10348635Y-9180608D01*
X10348635Y-9180608D02*
X10367682Y-9171084D01*
X10367682Y-9171084D02*
X10405777Y-9171084D01*
X10405777Y-9171084D02*
X10424825Y-9180608D01*
X10501016Y-9380608D02*
X10510539Y-9371084D01*
X10510539Y-9371084D02*
X10529587Y-9342513D01*
X10529587Y-9342513D02*
X10539111Y-9323465D01*
X10539111Y-9323465D02*
X10548635Y-9294894D01*
X10548635Y-9294894D02*
X10558158Y-9247275D01*
X10558158Y-9247275D02*
X10558158Y-9209180D01*
X10558158Y-9209180D02*
X10548635Y-9161561D01*
X10548635Y-9161561D02*
X10539111Y-9132989D01*
X10539111Y-9132989D02*
X10529587Y-9113942D01*
X10529587Y-9113942D02*
X10510539Y-9085370D01*
X10510539Y-9085370D02*
X10501016Y-9075846D01*
M02*
