G04 #@! TF.GenerationSoftware,KiCad,Pcbnew,7.0.8*
G04 #@! TF.CreationDate,2023-12-05T05:14:50-08:00*
G04 #@! TF.ProjectId,Seismos_4-Thumb,53656973-6d6f-4735-9f34-2d5468756d62,rev?*
G04 #@! TF.SameCoordinates,Original*
G04 #@! TF.FileFunction,Profile,NP*
%FSLAX46Y46*%
G04 Gerber Fmt 4.6, Leading zero omitted, Abs format (unit mm)*
G04 Created by KiCad (PCBNEW 7.0.8) date 2023-12-05 05:14:50*
%MOMM*%
%LPD*%
G01*
G04 APERTURE LIST*
G04 #@! TA.AperFunction,Profile*
%ADD10C,0.100000*%
G04 #@! TD*
G04 #@! TA.AperFunction,Profile*
%ADD11C,0.120000*%
G04 #@! TD*
G04 APERTURE END LIST*
D10*
X37500000Y-71939340D02*
X37500000Y-31000000D01*
X74000000Y-73439340D02*
X39000000Y-73439340D01*
X37500060Y-71939340D02*
G75*
G03*
X39000000Y-73439340I1499940J-60D01*
G01*
X49800000Y-25000000D02*
X49800000Y-31000000D01*
X47000000Y-31000000D02*
X49800000Y-31000000D01*
X66000000Y-31000000D02*
X63200000Y-31000000D01*
X47000000Y-31000000D02*
X37500000Y-31000000D01*
X66000000Y-31000000D02*
X75500000Y-31000000D01*
X74000000Y-73439400D02*
G75*
G03*
X75500000Y-71939340I-100J1500100D01*
G01*
X75500000Y-31000000D02*
X75500000Y-71939340D01*
X63200000Y-31000000D02*
X63200000Y-25000000D01*
X49800000Y-25000000D02*
X63200000Y-25000000D01*
D11*
X45238000Y-54008600D02*
X48478000Y-54008600D01*
X48478000Y-54008600D02*
X48478000Y-56995400D01*
X48478000Y-56995400D02*
X45238000Y-56995400D01*
X45238000Y-56995400D02*
X45238000Y-54008600D01*
X45238000Y-35008600D02*
X48478000Y-35008600D01*
X48478000Y-35008600D02*
X48478000Y-37995400D01*
X48478000Y-37995400D02*
X45238000Y-37995400D01*
X45238000Y-37995400D02*
X45238000Y-35008600D01*
X64238000Y-54008600D02*
X67478000Y-54008600D01*
X67478000Y-54008600D02*
X67478000Y-56995400D01*
X67478000Y-56995400D02*
X64238000Y-56995400D01*
X64238000Y-56995400D02*
X64238000Y-54008600D01*
X64238000Y-35008600D02*
X67478000Y-35008600D01*
X67478000Y-35008600D02*
X67478000Y-37995400D01*
X67478000Y-37995400D02*
X64238000Y-37995400D01*
X64238000Y-37995400D02*
X64238000Y-35008600D01*
M02*
