G04 #@! TF.GenerationSoftware,KiCad,Pcbnew,7.0.8*
G04 #@! TF.CreationDate,2023-10-17T04:22:42-07:00*
G04 #@! TF.ProjectId,Seismos_4-Key,53656973-6d6f-4735-9f34-2d4b65792e6b,rev?*
G04 #@! TF.SameCoordinates,Original*
G04 #@! TF.FileFunction,Soldermask,Top*
G04 #@! TF.FilePolarity,Negative*
%FSLAX46Y46*%
G04 Gerber Fmt 4.6, Leading zero omitted, Abs format (unit mm)*
G04 Created by KiCad (PCBNEW 7.0.8) date 2023-10-17 04:22:42*
%MOMM*%
%LPD*%
G01*
G04 APERTURE LIST*
%ADD10C,2.300000*%
%ADD11C,1.000000*%
%ADD12C,3.000000*%
%ADD13C,4.000000*%
%ADD14R,0.600000X1.550000*%
%ADD15R,1.200000X1.800000*%
%ADD16C,3.200000*%
G04 APERTURE END LIST*
D10*
X41700000Y-60000000D03*
D11*
X41780000Y-56384200D03*
D12*
X42000000Y-63800000D03*
X44460000Y-65080000D03*
D13*
X47000000Y-60000000D03*
D12*
X47000000Y-65900000D03*
X50810000Y-62540000D03*
D11*
X52220000Y-56384200D03*
D10*
X52300000Y-60000000D03*
X41700000Y-41000000D03*
D11*
X41780000Y-37384200D03*
D12*
X42000000Y-44800000D03*
X44460000Y-46080000D03*
D13*
X47000000Y-41000000D03*
D12*
X47000000Y-46900000D03*
X50810000Y-43540000D03*
D11*
X52220000Y-37384200D03*
D10*
X52300000Y-41000000D03*
X41700000Y-79000000D03*
D11*
X41780000Y-75384200D03*
D12*
X42000000Y-82800000D03*
X44460000Y-84080000D03*
D13*
X47000000Y-79000000D03*
D12*
X47000000Y-84900000D03*
X50810000Y-81540000D03*
D11*
X52220000Y-75384200D03*
D10*
X52300000Y-79000000D03*
X41700000Y-98000000D03*
D11*
X41780000Y-94384200D03*
D12*
X42000000Y-101800000D03*
X44460000Y-103080000D03*
D13*
X47000000Y-98000000D03*
D12*
X47000000Y-103900000D03*
X50810000Y-100540000D03*
D11*
X52220000Y-94384200D03*
D10*
X52300000Y-98000000D03*
D14*
X51000000Y-30275000D03*
X50000000Y-30275000D03*
X49000000Y-30275000D03*
X48000000Y-30275000D03*
X47000000Y-30275000D03*
X46000000Y-30275000D03*
X45000000Y-30275000D03*
X44000000Y-30275000D03*
X43000000Y-30275000D03*
D15*
X52300000Y-26400000D03*
X41700000Y-26400000D03*
D16*
X53500000Y-108500000D03*
X40500000Y-108500000D03*
M02*
