G04 #@! TF.GenerationSoftware,KiCad,Pcbnew,7.0.8*
G04 #@! TF.CreationDate,2023-10-16T23:51:03-07:00*
G04 #@! TF.ProjectId,Seismos_CoreR,53656973-6d6f-4735-9f43-6f7265522e6b,rev?*
G04 #@! TF.SameCoordinates,Original*
G04 #@! TF.FileFunction,Legend,Bot*
G04 #@! TF.FilePolarity,Positive*
%FSLAX46Y46*%
G04 Gerber Fmt 4.6, Leading zero omitted, Abs format (unit mm)*
G04 Created by KiCad (PCBNEW 7.0.8) date 2023-10-16 23:51:03*
%MOMM*%
%LPD*%
G01*
G04 APERTURE LIST*
G04 Aperture macros list*
%AMFreePoly0*
4,1,6,0.600000,0.200000,0.000000,-0.400000,-0.600000,0.200000,-0.600000,0.400000,0.600000,0.400000,0.600000,0.200000,0.600000,0.200000,$1*%
%AMFreePoly1*
4,1,6,0.600000,-0.250000,-0.600000,-0.250000,-0.600000,1.000000,0.000000,0.400000,0.600000,1.000000,0.600000,-0.250000,0.600000,-0.250000,$1*%
G04 Aperture macros list end*
%ADD10C,0.150000*%
%ADD11C,0.120000*%
%ADD12C,0.127000*%
%ADD13C,0.200000*%
%ADD14C,0.254000*%
%ADD15C,0.250000*%
%ADD16C,0.100000*%
%ADD17C,3.200000*%
%ADD18C,2.000000*%
%ADD19R,3.200000X2.000000*%
%ADD20C,1.200000*%
%ADD21O,2.500000X1.700000*%
%ADD22R,1.700000X1.700000*%
%ADD23O,1.700000X1.700000*%
%ADD24C,0.900000*%
%ADD25C,1.400000*%
%ADD26C,1.600000*%
%ADD27R,1.600000X1.600000*%
%ADD28FreePoly0,270.000000*%
%ADD29FreePoly0,90.000000*%
%ADD30FreePoly1,90.000000*%
%ADD31FreePoly1,270.000000*%
%ADD32R,0.600000X1.550000*%
%ADD33R,1.200000X1.800000*%
%ADD34R,1.550000X1.000000*%
G04 APERTURE END LIST*
D10*
X67445332Y-27054676D02*
X67445332Y-27511819D01*
X67445332Y-27511819D02*
X67475809Y-27603247D01*
X67475809Y-27603247D02*
X67536761Y-27664200D01*
X67536761Y-27664200D02*
X67628190Y-27694676D01*
X67628190Y-27694676D02*
X67689142Y-27694676D01*
X66866285Y-27054676D02*
X66988190Y-27054676D01*
X66988190Y-27054676D02*
X67049142Y-27085152D01*
X67049142Y-27085152D02*
X67079618Y-27115628D01*
X67079618Y-27115628D02*
X67140571Y-27207057D01*
X67140571Y-27207057D02*
X67171047Y-27328961D01*
X67171047Y-27328961D02*
X67171047Y-27572771D01*
X67171047Y-27572771D02*
X67140571Y-27633723D01*
X67140571Y-27633723D02*
X67110094Y-27664200D01*
X67110094Y-27664200D02*
X67049142Y-27694676D01*
X67049142Y-27694676D02*
X66927237Y-27694676D01*
X66927237Y-27694676D02*
X66866285Y-27664200D01*
X66866285Y-27664200D02*
X66835809Y-27633723D01*
X66835809Y-27633723D02*
X66805332Y-27572771D01*
X66805332Y-27572771D02*
X66805332Y-27420390D01*
X66805332Y-27420390D02*
X66835809Y-27359438D01*
X66835809Y-27359438D02*
X66866285Y-27328961D01*
X66866285Y-27328961D02*
X66927237Y-27298485D01*
X66927237Y-27298485D02*
X67049142Y-27298485D01*
X67049142Y-27298485D02*
X67110094Y-27328961D01*
X67110094Y-27328961D02*
X67140571Y-27359438D01*
X67140571Y-27359438D02*
X67171047Y-27420390D01*
X86745332Y-27054676D02*
X86745332Y-27511819D01*
X86745332Y-27511819D02*
X86775809Y-27603247D01*
X86775809Y-27603247D02*
X86836761Y-27664200D01*
X86836761Y-27664200D02*
X86928190Y-27694676D01*
X86928190Y-27694676D02*
X86989142Y-27694676D01*
X86135809Y-27054676D02*
X86440571Y-27054676D01*
X86440571Y-27054676D02*
X86471047Y-27359438D01*
X86471047Y-27359438D02*
X86440571Y-27328961D01*
X86440571Y-27328961D02*
X86379618Y-27298485D01*
X86379618Y-27298485D02*
X86227237Y-27298485D01*
X86227237Y-27298485D02*
X86166285Y-27328961D01*
X86166285Y-27328961D02*
X86135809Y-27359438D01*
X86135809Y-27359438D02*
X86105332Y-27420390D01*
X86105332Y-27420390D02*
X86105332Y-27572771D01*
X86105332Y-27572771D02*
X86135809Y-27633723D01*
X86135809Y-27633723D02*
X86166285Y-27664200D01*
X86166285Y-27664200D02*
X86227237Y-27694676D01*
X86227237Y-27694676D02*
X86379618Y-27694676D01*
X86379618Y-27694676D02*
X86440571Y-27664200D01*
X86440571Y-27664200D02*
X86471047Y-27633723D01*
X59326700Y-20093673D02*
X59374319Y-20236530D01*
X59374319Y-20236530D02*
X59374319Y-20474625D01*
X59374319Y-20474625D02*
X59326700Y-20569863D01*
X59326700Y-20569863D02*
X59279080Y-20617482D01*
X59279080Y-20617482D02*
X59183842Y-20665101D01*
X59183842Y-20665101D02*
X59088604Y-20665101D01*
X59088604Y-20665101D02*
X58993366Y-20617482D01*
X58993366Y-20617482D02*
X58945747Y-20569863D01*
X58945747Y-20569863D02*
X58898128Y-20474625D01*
X58898128Y-20474625D02*
X58850509Y-20284149D01*
X58850509Y-20284149D02*
X58802890Y-20188911D01*
X58802890Y-20188911D02*
X58755271Y-20141292D01*
X58755271Y-20141292D02*
X58660033Y-20093673D01*
X58660033Y-20093673D02*
X58564795Y-20093673D01*
X58564795Y-20093673D02*
X58469557Y-20141292D01*
X58469557Y-20141292D02*
X58421938Y-20188911D01*
X58421938Y-20188911D02*
X58374319Y-20284149D01*
X58374319Y-20284149D02*
X58374319Y-20522244D01*
X58374319Y-20522244D02*
X58421938Y-20665101D01*
X58374319Y-20998435D02*
X59374319Y-21236530D01*
X59374319Y-21236530D02*
X58660033Y-21427006D01*
X58660033Y-21427006D02*
X59374319Y-21617482D01*
X59374319Y-21617482D02*
X58374319Y-21855578D01*
X58374319Y-22141292D02*
X58374319Y-22760339D01*
X58374319Y-22760339D02*
X58755271Y-22427006D01*
X58755271Y-22427006D02*
X58755271Y-22569863D01*
X58755271Y-22569863D02*
X58802890Y-22665101D01*
X58802890Y-22665101D02*
X58850509Y-22712720D01*
X58850509Y-22712720D02*
X58945747Y-22760339D01*
X58945747Y-22760339D02*
X59183842Y-22760339D01*
X59183842Y-22760339D02*
X59279080Y-22712720D01*
X59279080Y-22712720D02*
X59326700Y-22665101D01*
X59326700Y-22665101D02*
X59374319Y-22569863D01*
X59374319Y-22569863D02*
X59374319Y-22284149D01*
X59374319Y-22284149D02*
X59326700Y-22188911D01*
X59326700Y-22188911D02*
X59279080Y-22141292D01*
X45481332Y-88741876D02*
X45481332Y-89199019D01*
X45481332Y-89199019D02*
X45511809Y-89290447D01*
X45511809Y-89290447D02*
X45572761Y-89351400D01*
X45572761Y-89351400D02*
X45664190Y-89381876D01*
X45664190Y-89381876D02*
X45725142Y-89381876D01*
X45146094Y-89381876D02*
X45024190Y-89381876D01*
X45024190Y-89381876D02*
X44963237Y-89351400D01*
X44963237Y-89351400D02*
X44932761Y-89320923D01*
X44932761Y-89320923D02*
X44871809Y-89229495D01*
X44871809Y-89229495D02*
X44841332Y-89107590D01*
X44841332Y-89107590D02*
X44841332Y-88863780D01*
X44841332Y-88863780D02*
X44871809Y-88802828D01*
X44871809Y-88802828D02*
X44902285Y-88772352D01*
X44902285Y-88772352D02*
X44963237Y-88741876D01*
X44963237Y-88741876D02*
X45085142Y-88741876D01*
X45085142Y-88741876D02*
X45146094Y-88772352D01*
X45146094Y-88772352D02*
X45176571Y-88802828D01*
X45176571Y-88802828D02*
X45207047Y-88863780D01*
X45207047Y-88863780D02*
X45207047Y-89016161D01*
X45207047Y-89016161D02*
X45176571Y-89077114D01*
X45176571Y-89077114D02*
X45146094Y-89107590D01*
X45146094Y-89107590D02*
X45085142Y-89138066D01*
X45085142Y-89138066D02*
X44963237Y-89138066D01*
X44963237Y-89138066D02*
X44902285Y-89107590D01*
X44902285Y-89107590D02*
X44871809Y-89077114D01*
X44871809Y-89077114D02*
X44841332Y-89016161D01*
X163945332Y-27054676D02*
X163945332Y-27511819D01*
X163945332Y-27511819D02*
X163975809Y-27603247D01*
X163975809Y-27603247D02*
X164036761Y-27664200D01*
X164036761Y-27664200D02*
X164128190Y-27694676D01*
X164128190Y-27694676D02*
X164189142Y-27694676D01*
X163305332Y-27694676D02*
X163671047Y-27694676D01*
X163488190Y-27694676D02*
X163488190Y-27054676D01*
X163488190Y-27054676D02*
X163549142Y-27146104D01*
X163549142Y-27146104D02*
X163610094Y-27207057D01*
X163610094Y-27207057D02*
X163671047Y-27237533D01*
X125345332Y-27054676D02*
X125345332Y-27511819D01*
X125345332Y-27511819D02*
X125375809Y-27603247D01*
X125375809Y-27603247D02*
X125436761Y-27664200D01*
X125436761Y-27664200D02*
X125528190Y-27694676D01*
X125528190Y-27694676D02*
X125589142Y-27694676D01*
X125101523Y-27054676D02*
X124705332Y-27054676D01*
X124705332Y-27054676D02*
X124918666Y-27298485D01*
X124918666Y-27298485D02*
X124827237Y-27298485D01*
X124827237Y-27298485D02*
X124766285Y-27328961D01*
X124766285Y-27328961D02*
X124735809Y-27359438D01*
X124735809Y-27359438D02*
X124705332Y-27420390D01*
X124705332Y-27420390D02*
X124705332Y-27572771D01*
X124705332Y-27572771D02*
X124735809Y-27633723D01*
X124735809Y-27633723D02*
X124766285Y-27664200D01*
X124766285Y-27664200D02*
X124827237Y-27694676D01*
X124827237Y-27694676D02*
X125010094Y-27694676D01*
X125010094Y-27694676D02*
X125071047Y-27664200D01*
X125071047Y-27664200D02*
X125101523Y-27633723D01*
X106045332Y-27054676D02*
X106045332Y-27511819D01*
X106045332Y-27511819D02*
X106075809Y-27603247D01*
X106075809Y-27603247D02*
X106136761Y-27664200D01*
X106136761Y-27664200D02*
X106228190Y-27694676D01*
X106228190Y-27694676D02*
X106289142Y-27694676D01*
X105466285Y-27268009D02*
X105466285Y-27694676D01*
X105618666Y-27024200D02*
X105771047Y-27481342D01*
X105771047Y-27481342D02*
X105374856Y-27481342D01*
X144645332Y-27054676D02*
X144645332Y-27511819D01*
X144645332Y-27511819D02*
X144675809Y-27603247D01*
X144675809Y-27603247D02*
X144736761Y-27664200D01*
X144736761Y-27664200D02*
X144828190Y-27694676D01*
X144828190Y-27694676D02*
X144889142Y-27694676D01*
X144371047Y-27115628D02*
X144340571Y-27085152D01*
X144340571Y-27085152D02*
X144279618Y-27054676D01*
X144279618Y-27054676D02*
X144127237Y-27054676D01*
X144127237Y-27054676D02*
X144066285Y-27085152D01*
X144066285Y-27085152D02*
X144035809Y-27115628D01*
X144035809Y-27115628D02*
X144005332Y-27176580D01*
X144005332Y-27176580D02*
X144005332Y-27237533D01*
X144005332Y-27237533D02*
X144035809Y-27328961D01*
X144035809Y-27328961D02*
X144401523Y-27694676D01*
X144401523Y-27694676D02*
X144005332Y-27694676D01*
D11*
X35010000Y-75060000D02*
X35010000Y-86860000D01*
X39110000Y-75060000D02*
X35010000Y-75060000D01*
X39110000Y-86860000D02*
X35010000Y-86860000D01*
X40610000Y-80960000D02*
X41610000Y-80960000D01*
X41110000Y-80460000D02*
X41110000Y-81460000D01*
X43110000Y-75060000D02*
X47210000Y-75060000D01*
X47210000Y-75060000D02*
X47210000Y-77460000D01*
X47210000Y-79660000D02*
X47210000Y-82260000D01*
X47210000Y-84460000D02*
X47210000Y-86860000D01*
X47210000Y-86860000D02*
X43110000Y-86860000D01*
X44110000Y-80960000D02*
G75*
G03*
X44110000Y-80960000I-3000000J0D01*
G01*
D10*
X50240000Y-21016000D02*
X50240000Y-51496000D01*
X32460000Y-21016000D02*
X50240000Y-21016000D01*
X32460000Y-21016000D02*
X32460000Y-51496000D01*
X50240000Y-51496000D02*
X32460000Y-51496000D01*
D12*
X65500000Y-25050000D02*
X65500000Y-22720000D01*
X66380000Y-25050000D02*
X65500000Y-25050000D01*
X66610000Y-20800000D02*
X75390000Y-20800000D01*
X75620000Y-25050000D02*
X76500000Y-25050000D01*
X76500000Y-25050000D02*
X76500000Y-22720000D01*
D13*
X67100000Y-26700000D02*
G75*
G03*
X67100000Y-26700000I-100000J0D01*
G01*
D12*
X84800000Y-25050000D02*
X84800000Y-22720000D01*
X85680000Y-25050000D02*
X84800000Y-25050000D01*
X85910000Y-20800000D02*
X94690000Y-20800000D01*
X94920000Y-25050000D02*
X95800000Y-25050000D01*
X95800000Y-25050000D02*
X95800000Y-22720000D01*
D13*
X86400000Y-26700000D02*
G75*
G03*
X86400000Y-26700000I-100000J0D01*
G01*
D14*
X53362500Y-24799500D02*
X53362500Y-24630500D01*
X55173500Y-24799500D02*
X53426500Y-24799500D01*
X58062500Y-24799500D02*
X56251500Y-24799500D01*
X58062500Y-24630500D02*
X58062500Y-24799500D01*
X54696500Y-23811500D02*
X56728500Y-23811500D01*
X56728500Y-23811500D02*
X56728500Y-22541500D01*
X55077500Y-23430500D02*
X56347500Y-23430500D01*
X56347500Y-23430500D02*
X56347500Y-22541500D01*
X53362500Y-23168500D02*
X53362500Y-22930500D01*
X55331500Y-23049500D02*
X56093500Y-23049500D01*
X58062500Y-22930500D02*
X58062500Y-23168500D01*
X55331500Y-22668500D02*
X56093500Y-22668500D01*
X54696500Y-22541500D02*
X54696500Y-23811500D01*
X54696500Y-22541500D02*
X55077500Y-22541500D01*
X55077500Y-22541500D02*
X55077500Y-23430500D01*
X56347500Y-22541500D02*
X56728500Y-22541500D01*
X53362500Y-21468500D02*
X53362500Y-21299500D01*
X55173500Y-21299500D02*
X53362500Y-21299500D01*
X58062500Y-21299500D02*
X58062500Y-21468500D01*
X58062500Y-21299500D02*
X56251500Y-21299500D01*
X54412500Y-20763500D02*
X57012500Y-20763500D01*
X54621500Y-20763500D02*
X54621500Y-21299500D01*
X55283500Y-20763500D02*
X55283500Y-21299500D01*
X56138500Y-20763500D02*
X56138500Y-21299500D01*
X56706500Y-20763500D02*
X56706500Y-21299500D01*
X54412500Y-20299500D02*
X54412500Y-20763500D01*
X54412500Y-20299500D02*
X57012500Y-20299500D01*
X57012500Y-20299500D02*
X57012500Y-20763500D01*
D12*
X47000000Y-91450000D02*
X47000000Y-93780000D01*
X46120000Y-91450000D02*
X47000000Y-91450000D01*
X45890000Y-95700000D02*
X37110000Y-95700000D01*
X36880000Y-91450000D02*
X36000000Y-91450000D01*
X36000000Y-91450000D02*
X36000000Y-93780000D01*
D13*
X45600000Y-89800000D02*
G75*
G03*
X45600000Y-89800000I-100000J0D01*
G01*
D12*
X162000000Y-25050000D02*
X162000000Y-22720000D01*
X162880000Y-25050000D02*
X162000000Y-25050000D01*
X163110000Y-20800000D02*
X171890000Y-20800000D01*
X172120000Y-25050000D02*
X173000000Y-25050000D01*
X173000000Y-25050000D02*
X173000000Y-22720000D01*
D13*
X163600000Y-26700000D02*
G75*
G03*
X163600000Y-26700000I-100000J0D01*
G01*
D12*
X123400000Y-25050000D02*
X123400000Y-22720000D01*
X124280000Y-25050000D02*
X123400000Y-25050000D01*
X124510000Y-20800000D02*
X133290000Y-20800000D01*
X133520000Y-25050000D02*
X134400000Y-25050000D01*
X134400000Y-25050000D02*
X134400000Y-22720000D01*
D13*
X125000000Y-26700000D02*
G75*
G03*
X125000000Y-26700000I-100000J0D01*
G01*
D12*
X104100000Y-25050000D02*
X104100000Y-22720000D01*
X104980000Y-25050000D02*
X104100000Y-25050000D01*
X105210000Y-20800000D02*
X113990000Y-20800000D01*
X114220000Y-25050000D02*
X115100000Y-25050000D01*
X115100000Y-25050000D02*
X115100000Y-22720000D01*
D13*
X105700000Y-26700000D02*
G75*
G03*
X105700000Y-26700000I-100000J0D01*
G01*
D12*
X142700000Y-25050000D02*
X142700000Y-22720000D01*
X143580000Y-25050000D02*
X142700000Y-25050000D01*
X143810000Y-20800000D02*
X152590000Y-20800000D01*
X152820000Y-25050000D02*
X153700000Y-25050000D01*
X153700000Y-25050000D02*
X153700000Y-22720000D01*
D13*
X144300000Y-26700000D02*
G75*
G03*
X144300000Y-26700000I-100000J0D01*
G01*
%LPC*%
D15*
X42237000Y-22286000D02*
G75*
G03*
X42237000Y-22286000I-125000J0D01*
G01*
X40713000Y-22286000D02*
G75*
G03*
X40713000Y-22286000I-125000J0D01*
G01*
X42237000Y-24826000D02*
G75*
G03*
X42237000Y-24826000I-125000J0D01*
G01*
X40713000Y-24826000D02*
G75*
G03*
X40713000Y-24826000I-125000J0D01*
G01*
X42237000Y-27366000D02*
G75*
G03*
X42237000Y-27366000I-125000J0D01*
G01*
X40713000Y-27366000D02*
G75*
G03*
X40713000Y-27366000I-125000J0D01*
G01*
X42237000Y-29906000D02*
G75*
G03*
X42237000Y-29906000I-125000J0D01*
G01*
X40713000Y-29906000D02*
G75*
G03*
X40713000Y-29906000I-125000J0D01*
G01*
X42237000Y-32446000D02*
G75*
G03*
X42237000Y-32446000I-125000J0D01*
G01*
X40713000Y-32446000D02*
G75*
G03*
X40713000Y-32446000I-125000J0D01*
G01*
X42237000Y-34986000D02*
G75*
G03*
X42237000Y-34986000I-125000J0D01*
G01*
X40713000Y-34986000D02*
G75*
G03*
X40713000Y-34986000I-125000J0D01*
G01*
X42237000Y-37526000D02*
G75*
G03*
X42237000Y-37526000I-125000J0D01*
G01*
X40713000Y-37526000D02*
G75*
G03*
X40713000Y-37526000I-125000J0D01*
G01*
X42237000Y-40066000D02*
G75*
G03*
X42237000Y-40066000I-125000J0D01*
G01*
X40713000Y-40066000D02*
G75*
G03*
X40713000Y-40066000I-125000J0D01*
G01*
X42237000Y-42606000D02*
G75*
G03*
X42237000Y-42606000I-125000J0D01*
G01*
X40713000Y-42606000D02*
G75*
G03*
X40713000Y-42606000I-125000J0D01*
G01*
X42237000Y-45146000D02*
G75*
G03*
X42237000Y-45146000I-125000J0D01*
G01*
X40713000Y-45146000D02*
G75*
G03*
X40713000Y-45146000I-125000J0D01*
G01*
X42237000Y-47686000D02*
G75*
G03*
X42237000Y-47686000I-125000J0D01*
G01*
X40713000Y-47686000D02*
G75*
G03*
X40713000Y-47686000I-125000J0D01*
G01*
X42237000Y-50226000D02*
G75*
G03*
X42237000Y-50226000I-125000J0D01*
G01*
X40713000Y-50226000D02*
G75*
G03*
X40713000Y-50226000I-125000J0D01*
G01*
D16*
X36270000Y-22794000D02*
X35254000Y-22794000D01*
X35254000Y-21778000D01*
X36270000Y-21778000D01*
X36270000Y-22794000D01*
G36*
X36270000Y-22794000D02*
G01*
X35254000Y-22794000D01*
X35254000Y-21778000D01*
X36270000Y-21778000D01*
X36270000Y-22794000D01*
G37*
X47446000Y-22794000D02*
X46430000Y-22794000D01*
X46430000Y-21778000D01*
X47446000Y-21778000D01*
X47446000Y-22794000D01*
G36*
X47446000Y-22794000D02*
G01*
X46430000Y-22794000D01*
X46430000Y-21778000D01*
X47446000Y-21778000D01*
X47446000Y-22794000D01*
G37*
X36270000Y-25334000D02*
X35254000Y-25334000D01*
X35254000Y-24318000D01*
X36270000Y-24318000D01*
X36270000Y-25334000D01*
G36*
X36270000Y-25334000D02*
G01*
X35254000Y-25334000D01*
X35254000Y-24318000D01*
X36270000Y-24318000D01*
X36270000Y-25334000D01*
G37*
X47446000Y-25334000D02*
X46430000Y-25334000D01*
X46430000Y-24318000D01*
X47446000Y-24318000D01*
X47446000Y-25334000D01*
G36*
X47446000Y-25334000D02*
G01*
X46430000Y-25334000D01*
X46430000Y-24318000D01*
X47446000Y-24318000D01*
X47446000Y-25334000D01*
G37*
X36270000Y-27874000D02*
X35254000Y-27874000D01*
X35254000Y-26858000D01*
X36270000Y-26858000D01*
X36270000Y-27874000D01*
G36*
X36270000Y-27874000D02*
G01*
X35254000Y-27874000D01*
X35254000Y-26858000D01*
X36270000Y-26858000D01*
X36270000Y-27874000D01*
G37*
X47446000Y-27874000D02*
X46430000Y-27874000D01*
X46430000Y-26858000D01*
X47446000Y-26858000D01*
X47446000Y-27874000D01*
G36*
X47446000Y-27874000D02*
G01*
X46430000Y-27874000D01*
X46430000Y-26858000D01*
X47446000Y-26858000D01*
X47446000Y-27874000D01*
G37*
X36270000Y-30414000D02*
X35254000Y-30414000D01*
X35254000Y-29398000D01*
X36270000Y-29398000D01*
X36270000Y-30414000D01*
G36*
X36270000Y-30414000D02*
G01*
X35254000Y-30414000D01*
X35254000Y-29398000D01*
X36270000Y-29398000D01*
X36270000Y-30414000D01*
G37*
X47446000Y-30414000D02*
X46430000Y-30414000D01*
X46430000Y-29398000D01*
X47446000Y-29398000D01*
X47446000Y-30414000D01*
G36*
X47446000Y-30414000D02*
G01*
X46430000Y-30414000D01*
X46430000Y-29398000D01*
X47446000Y-29398000D01*
X47446000Y-30414000D01*
G37*
X36270000Y-32954000D02*
X35254000Y-32954000D01*
X35254000Y-31938000D01*
X36270000Y-31938000D01*
X36270000Y-32954000D01*
G36*
X36270000Y-32954000D02*
G01*
X35254000Y-32954000D01*
X35254000Y-31938000D01*
X36270000Y-31938000D01*
X36270000Y-32954000D01*
G37*
X47446000Y-32954000D02*
X46430000Y-32954000D01*
X46430000Y-31938000D01*
X47446000Y-31938000D01*
X47446000Y-32954000D01*
G36*
X47446000Y-32954000D02*
G01*
X46430000Y-32954000D01*
X46430000Y-31938000D01*
X47446000Y-31938000D01*
X47446000Y-32954000D01*
G37*
X36270000Y-35494000D02*
X35254000Y-35494000D01*
X35254000Y-34478000D01*
X36270000Y-34478000D01*
X36270000Y-35494000D01*
G36*
X36270000Y-35494000D02*
G01*
X35254000Y-35494000D01*
X35254000Y-34478000D01*
X36270000Y-34478000D01*
X36270000Y-35494000D01*
G37*
X47446000Y-35494000D02*
X46430000Y-35494000D01*
X46430000Y-34478000D01*
X47446000Y-34478000D01*
X47446000Y-35494000D01*
G36*
X47446000Y-35494000D02*
G01*
X46430000Y-35494000D01*
X46430000Y-34478000D01*
X47446000Y-34478000D01*
X47446000Y-35494000D01*
G37*
X36270000Y-38034000D02*
X35254000Y-38034000D01*
X35254000Y-37018000D01*
X36270000Y-37018000D01*
X36270000Y-38034000D01*
G36*
X36270000Y-38034000D02*
G01*
X35254000Y-38034000D01*
X35254000Y-37018000D01*
X36270000Y-37018000D01*
X36270000Y-38034000D01*
G37*
X47446000Y-38034000D02*
X46430000Y-38034000D01*
X46430000Y-37018000D01*
X47446000Y-37018000D01*
X47446000Y-38034000D01*
G36*
X47446000Y-38034000D02*
G01*
X46430000Y-38034000D01*
X46430000Y-37018000D01*
X47446000Y-37018000D01*
X47446000Y-38034000D01*
G37*
X36270000Y-40574000D02*
X35254000Y-40574000D01*
X35254000Y-39558000D01*
X36270000Y-39558000D01*
X36270000Y-40574000D01*
G36*
X36270000Y-40574000D02*
G01*
X35254000Y-40574000D01*
X35254000Y-39558000D01*
X36270000Y-39558000D01*
X36270000Y-40574000D01*
G37*
X47446000Y-40574000D02*
X46430000Y-40574000D01*
X46430000Y-39558000D01*
X47446000Y-39558000D01*
X47446000Y-40574000D01*
G36*
X47446000Y-40574000D02*
G01*
X46430000Y-40574000D01*
X46430000Y-39558000D01*
X47446000Y-39558000D01*
X47446000Y-40574000D01*
G37*
X36270000Y-43114000D02*
X35254000Y-43114000D01*
X35254000Y-42098000D01*
X36270000Y-42098000D01*
X36270000Y-43114000D01*
G36*
X36270000Y-43114000D02*
G01*
X35254000Y-43114000D01*
X35254000Y-42098000D01*
X36270000Y-42098000D01*
X36270000Y-43114000D01*
G37*
X47446000Y-43114000D02*
X46430000Y-43114000D01*
X46430000Y-42098000D01*
X47446000Y-42098000D01*
X47446000Y-43114000D01*
G36*
X47446000Y-43114000D02*
G01*
X46430000Y-43114000D01*
X46430000Y-42098000D01*
X47446000Y-42098000D01*
X47446000Y-43114000D01*
G37*
X36270000Y-45654000D02*
X35254000Y-45654000D01*
X35254000Y-44638000D01*
X36270000Y-44638000D01*
X36270000Y-45654000D01*
G36*
X36270000Y-45654000D02*
G01*
X35254000Y-45654000D01*
X35254000Y-44638000D01*
X36270000Y-44638000D01*
X36270000Y-45654000D01*
G37*
X47446000Y-45654000D02*
X46430000Y-45654000D01*
X46430000Y-44638000D01*
X47446000Y-44638000D01*
X47446000Y-45654000D01*
G36*
X47446000Y-45654000D02*
G01*
X46430000Y-45654000D01*
X46430000Y-44638000D01*
X47446000Y-44638000D01*
X47446000Y-45654000D01*
G37*
X36270000Y-48194000D02*
X35254000Y-48194000D01*
X35254000Y-47178000D01*
X36270000Y-47178000D01*
X36270000Y-48194000D01*
G36*
X36270000Y-48194000D02*
G01*
X35254000Y-48194000D01*
X35254000Y-47178000D01*
X36270000Y-47178000D01*
X36270000Y-48194000D01*
G37*
X47446000Y-48194000D02*
X46430000Y-48194000D01*
X46430000Y-47178000D01*
X47446000Y-47178000D01*
X47446000Y-48194000D01*
G36*
X47446000Y-48194000D02*
G01*
X46430000Y-48194000D01*
X46430000Y-47178000D01*
X47446000Y-47178000D01*
X47446000Y-48194000D01*
G37*
X36270000Y-50734000D02*
X35254000Y-50734000D01*
X35254000Y-49718000D01*
X36270000Y-49718000D01*
X36270000Y-50734000D01*
G36*
X36270000Y-50734000D02*
G01*
X35254000Y-50734000D01*
X35254000Y-49718000D01*
X36270000Y-49718000D01*
X36270000Y-50734000D01*
G37*
X47446000Y-50734000D02*
X46430000Y-50734000D01*
X46430000Y-49718000D01*
X47446000Y-49718000D01*
X47446000Y-50734000D01*
G36*
X47446000Y-50734000D02*
G01*
X46430000Y-50734000D01*
X46430000Y-49718000D01*
X47446000Y-49718000D01*
X47446000Y-50734000D01*
G37*
D17*
X51000000Y-64750000D03*
D18*
X33610000Y-78460000D03*
X33610000Y-83460000D03*
X33610000Y-80960000D03*
D19*
X41110000Y-75360000D03*
X41110000Y-86560000D03*
D18*
X48110000Y-83460000D03*
X48110000Y-78460000D03*
D20*
X33670000Y-70775000D03*
X40670000Y-70775000D03*
X33670000Y-69025000D03*
X40670000Y-69025000D03*
D21*
X42470000Y-66925000D03*
X38470000Y-66925000D03*
X35470000Y-66925000D03*
X43470000Y-71125000D03*
D22*
X36284000Y-53766000D03*
D23*
X38824000Y-53766000D03*
X41364000Y-53766000D03*
X43904000Y-53766000D03*
X46444000Y-53766000D03*
D24*
X32200000Y-58632000D03*
X32200000Y-61632000D03*
D25*
X38949500Y-60632000D03*
X38949500Y-58632000D03*
D17*
X80800000Y-25000000D03*
D26*
X48970000Y-22286000D03*
D27*
X48970000Y-22286000D03*
D28*
X47192000Y-22286000D03*
D29*
X35508000Y-22286000D03*
D26*
X33730000Y-22286000D03*
X48970000Y-24826000D03*
D28*
X47192000Y-24826000D03*
D29*
X35508000Y-24826000D03*
D26*
X33730000Y-24826000D03*
X48970000Y-27366000D03*
D28*
X47192000Y-27366000D03*
D29*
X35508000Y-27366000D03*
D26*
X33730000Y-27366000D03*
X48970000Y-29906000D03*
D28*
X47192000Y-29906000D03*
D29*
X35508000Y-29906000D03*
D26*
X33730000Y-29906000D03*
X48970000Y-32446000D03*
D28*
X47192000Y-32446000D03*
D29*
X35508000Y-32446000D03*
D26*
X33730000Y-32446000D03*
X48970000Y-34986000D03*
D28*
X47192000Y-34986000D03*
D29*
X35508000Y-34986000D03*
D26*
X33730000Y-34986000D03*
X48970000Y-37526000D03*
D28*
X47192000Y-37526000D03*
D29*
X35508000Y-37526000D03*
D26*
X33730000Y-37526000D03*
X48970000Y-40066000D03*
D28*
X47192000Y-40066000D03*
D29*
X35508000Y-40066000D03*
D26*
X33730000Y-40066000D03*
X48970000Y-42606000D03*
D28*
X47192000Y-42606000D03*
D29*
X35508000Y-42606000D03*
D26*
X33730000Y-42606000D03*
X48970000Y-45146000D03*
D28*
X47192000Y-45146000D03*
D29*
X35508000Y-45146000D03*
D26*
X33730000Y-45146000D03*
X48970000Y-47686000D03*
D28*
X47192000Y-47686000D03*
D29*
X35508000Y-47686000D03*
D26*
X33730000Y-47686000D03*
X48970000Y-50226000D03*
D28*
X47192000Y-50226000D03*
D29*
X35508000Y-50226000D03*
D26*
X33730000Y-50226000D03*
D30*
X36524000Y-22286000D03*
X36524000Y-24826000D03*
X36524000Y-27366000D03*
X36524000Y-29906000D03*
X36524000Y-32446000D03*
X36524000Y-34986000D03*
X36524000Y-37526000D03*
X36524000Y-40066000D03*
X36524000Y-42606000D03*
X36524000Y-45146000D03*
X36524000Y-47686000D03*
X36524000Y-50226000D03*
D31*
X46176000Y-50226000D03*
X46176000Y-47686000D03*
X46176000Y-45146000D03*
X46176000Y-42606000D03*
X46176000Y-40066000D03*
X46176000Y-37526000D03*
X46176000Y-34986000D03*
X46176000Y-32446000D03*
X46176000Y-29906000D03*
X46176000Y-27366000D03*
X46176000Y-24826000D03*
X46176000Y-22286000D03*
D17*
X158000000Y-25000000D03*
X52500000Y-92500000D03*
X119400000Y-25000000D03*
D32*
X67000000Y-25375000D03*
X68000000Y-25375000D03*
X69000000Y-25375000D03*
X70000000Y-25375000D03*
X71000000Y-25375000D03*
X72000000Y-25375000D03*
X73000000Y-25375000D03*
X74000000Y-25375000D03*
X75000000Y-25375000D03*
D33*
X65700000Y-21500000D03*
X76300000Y-21500000D03*
D32*
X86300000Y-25375000D03*
X87300000Y-25375000D03*
X88300000Y-25375000D03*
X89300000Y-25375000D03*
X90300000Y-25375000D03*
X91300000Y-25375000D03*
X92300000Y-25375000D03*
X93300000Y-25375000D03*
X94300000Y-25375000D03*
D33*
X85000000Y-21500000D03*
X95600000Y-21500000D03*
D24*
X55712500Y-24449500D03*
X55712500Y-21649500D03*
D34*
X58312500Y-23899500D03*
X58312500Y-22199500D03*
X53112500Y-23899500D03*
X53112500Y-22199500D03*
D32*
X45500000Y-91125000D03*
X44500000Y-91125000D03*
X43500000Y-91125000D03*
X42500000Y-91125000D03*
X41500000Y-91125000D03*
X40500000Y-91125000D03*
X39500000Y-91125000D03*
X38500000Y-91125000D03*
X37500000Y-91125000D03*
D33*
X46800000Y-95000000D03*
X36200000Y-95000000D03*
D32*
X163500000Y-25375000D03*
X164500000Y-25375000D03*
X165500000Y-25375000D03*
X166500000Y-25375000D03*
X167500000Y-25375000D03*
X168500000Y-25375000D03*
X169500000Y-25375000D03*
X170500000Y-25375000D03*
X171500000Y-25375000D03*
D33*
X162200000Y-21500000D03*
X172800000Y-21500000D03*
D32*
X124900000Y-25375000D03*
X125900000Y-25375000D03*
X126900000Y-25375000D03*
X127900000Y-25375000D03*
X128900000Y-25375000D03*
X129900000Y-25375000D03*
X130900000Y-25375000D03*
X131900000Y-25375000D03*
X132900000Y-25375000D03*
D33*
X123600000Y-21500000D03*
X134200000Y-21500000D03*
D32*
X105600000Y-25375000D03*
X106600000Y-25375000D03*
X107600000Y-25375000D03*
X108600000Y-25375000D03*
X109600000Y-25375000D03*
X110600000Y-25375000D03*
X111600000Y-25375000D03*
X112600000Y-25375000D03*
X113600000Y-25375000D03*
D33*
X104300000Y-21500000D03*
X114900000Y-21500000D03*
D32*
X144200000Y-25375000D03*
X145200000Y-25375000D03*
X146200000Y-25375000D03*
X147200000Y-25375000D03*
X148200000Y-25375000D03*
X149200000Y-25375000D03*
X150200000Y-25375000D03*
X151200000Y-25375000D03*
X152200000Y-25375000D03*
D33*
X142900000Y-21500000D03*
X153500000Y-21500000D03*
%LPD*%
M02*
