%TF.GenerationSoftware,KiCad,Pcbnew,7.0.5-7.0.5~ubuntu22.04.1*%
%TF.CreationDate,2023-06-01T20:12:16-07:00*%
%TF.ProjectId,KeysOnRails,4b657973-4f6e-4526-9169-6c732e6b6963,rev?*%
%TF.SameCoordinates,Original*%
%TF.FileFunction,Drillmap*%
%TF.FilePolarity,Positive*%
%FSLAX45Y45*%
G04 Gerber Fmt 4.5, Leading zero omitted, Abs format (unit mm)*
G04 Created by KiCad (PCBNEW 7.0.5-7.0.5~ubuntu22.04.1) date 2023-06-01 20:12:16*
%MOMM*%
%LPD*%
G01*
G04 APERTURE LIST*
%ADD10C,0.100000*%
%ADD11C,0.200000*%
%ADD12C,0.230000*%
%ADD13C,0.300000*%
%ADD14C,0.400000*%
G04 APERTURE END LIST*
D10*
X4320000Y-10870000D02*
G75*
G03*
X4320000Y-10870000I-150000J0D01*
G01*
X3825000Y-3100000D02*
X5875000Y-3100000D01*
X5875000Y-11149000D01*
X3825000Y-11149000D01*
X3825000Y-3100000D01*
D11*
D10*
X4271000Y-4262220D02*
X4371000Y-4362220D01*
X4371000Y-4262220D02*
X4271000Y-4362220D01*
X4271000Y-6013070D02*
X4371000Y-6113070D01*
X4371000Y-6013070D02*
X4271000Y-6113070D01*
X4271000Y-9512930D02*
X4371000Y-9612930D01*
X4371000Y-9512930D02*
X4271000Y-9612930D01*
X4277810Y-7762930D02*
X4377810Y-7862930D01*
X4377810Y-7762930D02*
X4277810Y-7862930D01*
X5315000Y-4262220D02*
X5415000Y-4362220D01*
X5415000Y-4262220D02*
X5315000Y-4362220D01*
X5315000Y-6013070D02*
X5415000Y-6113070D01*
X5415000Y-6013070D02*
X5315000Y-6113070D01*
X5315000Y-9512930D02*
X5415000Y-9612930D01*
X5415000Y-9512930D02*
X5315000Y-9612930D01*
X5321810Y-7762930D02*
X5421810Y-7862930D01*
X5421810Y-7762930D02*
X5321810Y-7862930D01*
D12*
X4428000Y-4673800D02*
G75*
G03*
X4428000Y-4673800I-115000J0D01*
G01*
X4428000Y-6424650D02*
G75*
G03*
X4428000Y-6424650I-115000J0D01*
G01*
X4428000Y-9924510D02*
G75*
G03*
X4428000Y-9924510I-115000J0D01*
G01*
X4434810Y-8174510D02*
G75*
G03*
X4434810Y-8174510I-115000J0D01*
G01*
X5488000Y-4673800D02*
G75*
G03*
X5488000Y-4673800I-115000J0D01*
G01*
X5488000Y-6424650D02*
G75*
G03*
X5488000Y-6424650I-115000J0D01*
G01*
X5488000Y-9924510D02*
G75*
G03*
X5488000Y-9924510I-115000J0D01*
G01*
X5494810Y-8174510D02*
G75*
G03*
X5494810Y-8174510I-115000J0D01*
G01*
D13*
X4343000Y-4903800D02*
X4343000Y-5203800D01*
X4193000Y-5053800D02*
X4493000Y-5053800D01*
X4343000Y-6654650D02*
X4343000Y-6954650D01*
X4193000Y-6804650D02*
X4493000Y-6804650D01*
X4343000Y-10154510D02*
X4343000Y-10454510D01*
X4193000Y-10304510D02*
X4493000Y-10304510D01*
X4349810Y-8404510D02*
X4349810Y-8704510D01*
X4199810Y-8554510D02*
X4499810Y-8554510D01*
X4589000Y-5031800D02*
X4589000Y-5331800D01*
X4439000Y-5181800D02*
X4739000Y-5181800D01*
X4589000Y-6782650D02*
X4589000Y-7082650D01*
X4439000Y-6932650D02*
X4739000Y-6932650D01*
X4589000Y-10282510D02*
X4589000Y-10582510D01*
X4439000Y-10432510D02*
X4739000Y-10432510D01*
X4595810Y-8532510D02*
X4595810Y-8832510D01*
X4445810Y-8682510D02*
X4745810Y-8682510D01*
X4843000Y-5113800D02*
X4843000Y-5413800D01*
X4693000Y-5263800D02*
X4993000Y-5263800D01*
X4843000Y-6864650D02*
X4843000Y-7164650D01*
X4693000Y-7014650D02*
X4993000Y-7014650D01*
X4843000Y-10364510D02*
X4843000Y-10664510D01*
X4693000Y-10514510D02*
X4993000Y-10514510D01*
X4849810Y-8614510D02*
X4849810Y-8914510D01*
X4699810Y-8764510D02*
X4999810Y-8764510D01*
X5224000Y-4777800D02*
X5224000Y-5077800D01*
X5074000Y-4927800D02*
X5374000Y-4927800D01*
X5224000Y-6528650D02*
X5224000Y-6828650D01*
X5074000Y-6678650D02*
X5374000Y-6678650D01*
X5224000Y-10028510D02*
X5224000Y-10328510D01*
X5074000Y-10178510D02*
X5374000Y-10178510D01*
X5230810Y-8278510D02*
X5230810Y-8578510D01*
X5080810Y-8428510D02*
X5380810Y-8428510D01*
D14*
X4984423Y-4815223D02*
X4984423Y-4532377D01*
X4701577Y-4532377D01*
X4701577Y-4815223D01*
X4984423Y-4815223D01*
X4984423Y-6566073D02*
X4984423Y-6283227D01*
X4701577Y-6283227D01*
X4701577Y-6566073D01*
X4984423Y-6566073D01*
X4984423Y-10065933D02*
X4984423Y-9783087D01*
X4701577Y-9783087D01*
X4701577Y-10065933D01*
X4984423Y-10065933D01*
X4991233Y-8315933D02*
X4991233Y-8033087D01*
X4708387Y-8033087D01*
X4708387Y-8315933D01*
X4991233Y-8315933D01*
D11*
X4080777Y-11465484D02*
X4080777Y-11265484D01*
X4080777Y-11265484D02*
X4128396Y-11265484D01*
X4128396Y-11265484D02*
X4156967Y-11275008D01*
X4156967Y-11275008D02*
X4176015Y-11294055D01*
X4176015Y-11294055D02*
X4185539Y-11313103D01*
X4185539Y-11313103D02*
X4195063Y-11351198D01*
X4195063Y-11351198D02*
X4195063Y-11379769D01*
X4195063Y-11379769D02*
X4185539Y-11417865D01*
X4185539Y-11417865D02*
X4176015Y-11436912D01*
X4176015Y-11436912D02*
X4156967Y-11455960D01*
X4156967Y-11455960D02*
X4128396Y-11465484D01*
X4128396Y-11465484D02*
X4080777Y-11465484D01*
X4280777Y-11465484D02*
X4280777Y-11332150D01*
X4280777Y-11370246D02*
X4290301Y-11351198D01*
X4290301Y-11351198D02*
X4299824Y-11341674D01*
X4299824Y-11341674D02*
X4318872Y-11332150D01*
X4318872Y-11332150D02*
X4337920Y-11332150D01*
X4404586Y-11465484D02*
X4404586Y-11332150D01*
X4404586Y-11265484D02*
X4395063Y-11275008D01*
X4395063Y-11275008D02*
X4404586Y-11284531D01*
X4404586Y-11284531D02*
X4414110Y-11275008D01*
X4414110Y-11275008D02*
X4404586Y-11265484D01*
X4404586Y-11265484D02*
X4404586Y-11284531D01*
X4528396Y-11465484D02*
X4509348Y-11455960D01*
X4509348Y-11455960D02*
X4499824Y-11436912D01*
X4499824Y-11436912D02*
X4499824Y-11265484D01*
X4633158Y-11465484D02*
X4614110Y-11455960D01*
X4614110Y-11455960D02*
X4604586Y-11436912D01*
X4604586Y-11436912D02*
X4604586Y-11265484D01*
X4861729Y-11465484D02*
X4861729Y-11265484D01*
X4861729Y-11265484D02*
X4928396Y-11408341D01*
X4928396Y-11408341D02*
X4995063Y-11265484D01*
X4995063Y-11265484D02*
X4995063Y-11465484D01*
X5176015Y-11465484D02*
X5176015Y-11360722D01*
X5176015Y-11360722D02*
X5166491Y-11341674D01*
X5166491Y-11341674D02*
X5147444Y-11332150D01*
X5147444Y-11332150D02*
X5109348Y-11332150D01*
X5109348Y-11332150D02*
X5090301Y-11341674D01*
X5176015Y-11455960D02*
X5156967Y-11465484D01*
X5156967Y-11465484D02*
X5109348Y-11465484D01*
X5109348Y-11465484D02*
X5090301Y-11455960D01*
X5090301Y-11455960D02*
X5080777Y-11436912D01*
X5080777Y-11436912D02*
X5080777Y-11417865D01*
X5080777Y-11417865D02*
X5090301Y-11398817D01*
X5090301Y-11398817D02*
X5109348Y-11389293D01*
X5109348Y-11389293D02*
X5156967Y-11389293D01*
X5156967Y-11389293D02*
X5176015Y-11379769D01*
X5271253Y-11332150D02*
X5271253Y-11532150D01*
X5271253Y-11341674D02*
X5290301Y-11332150D01*
X5290301Y-11332150D02*
X5328396Y-11332150D01*
X5328396Y-11332150D02*
X5347444Y-11341674D01*
X5347444Y-11341674D02*
X5356967Y-11351198D01*
X5356967Y-11351198D02*
X5366491Y-11370246D01*
X5366491Y-11370246D02*
X5366491Y-11427388D01*
X5366491Y-11427388D02*
X5356967Y-11446436D01*
X5356967Y-11446436D02*
X5347444Y-11455960D01*
X5347444Y-11455960D02*
X5328396Y-11465484D01*
X5328396Y-11465484D02*
X5290301Y-11465484D01*
X5290301Y-11465484D02*
X5271253Y-11455960D01*
X5452205Y-11446436D02*
X5461729Y-11455960D01*
X5461729Y-11455960D02*
X5452205Y-11465484D01*
X5452205Y-11465484D02*
X5442682Y-11455960D01*
X5442682Y-11455960D02*
X5452205Y-11446436D01*
X5452205Y-11446436D02*
X5452205Y-11465484D01*
X5452205Y-11341674D02*
X5461729Y-11351198D01*
X5461729Y-11351198D02*
X5452205Y-11360722D01*
X5452205Y-11360722D02*
X5442682Y-11351198D01*
X5442682Y-11351198D02*
X5452205Y-11341674D01*
X5452205Y-11341674D02*
X5452205Y-11360722D01*
D10*
X3720000Y-11744000D02*
X3820000Y-11844000D01*
X3820000Y-11744000D02*
X3720000Y-11844000D01*
D11*
X4185539Y-11885484D02*
X4071253Y-11885484D01*
X4128396Y-11885484D02*
X4128396Y-11685484D01*
X4128396Y-11685484D02*
X4109348Y-11714055D01*
X4109348Y-11714055D02*
X4090301Y-11733103D01*
X4090301Y-11733103D02*
X4071253Y-11742627D01*
X4271253Y-11866436D02*
X4280777Y-11875960D01*
X4280777Y-11875960D02*
X4271253Y-11885484D01*
X4271253Y-11885484D02*
X4261729Y-11875960D01*
X4261729Y-11875960D02*
X4271253Y-11866436D01*
X4271253Y-11866436D02*
X4271253Y-11885484D01*
X4404586Y-11685484D02*
X4423634Y-11685484D01*
X4423634Y-11685484D02*
X4442682Y-11695008D01*
X4442682Y-11695008D02*
X4452205Y-11704531D01*
X4452205Y-11704531D02*
X4461729Y-11723579D01*
X4461729Y-11723579D02*
X4471253Y-11761674D01*
X4471253Y-11761674D02*
X4471253Y-11809293D01*
X4471253Y-11809293D02*
X4461729Y-11847388D01*
X4461729Y-11847388D02*
X4452205Y-11866436D01*
X4452205Y-11866436D02*
X4442682Y-11875960D01*
X4442682Y-11875960D02*
X4423634Y-11885484D01*
X4423634Y-11885484D02*
X4404586Y-11885484D01*
X4404586Y-11885484D02*
X4385539Y-11875960D01*
X4385539Y-11875960D02*
X4376015Y-11866436D01*
X4376015Y-11866436D02*
X4366491Y-11847388D01*
X4366491Y-11847388D02*
X4356967Y-11809293D01*
X4356967Y-11809293D02*
X4356967Y-11761674D01*
X4356967Y-11761674D02*
X4366491Y-11723579D01*
X4366491Y-11723579D02*
X4376015Y-11704531D01*
X4376015Y-11704531D02*
X4385539Y-11695008D01*
X4385539Y-11695008D02*
X4404586Y-11685484D01*
X4595063Y-11685484D02*
X4614110Y-11685484D01*
X4614110Y-11685484D02*
X4633158Y-11695008D01*
X4633158Y-11695008D02*
X4642682Y-11704531D01*
X4642682Y-11704531D02*
X4652205Y-11723579D01*
X4652205Y-11723579D02*
X4661729Y-11761674D01*
X4661729Y-11761674D02*
X4661729Y-11809293D01*
X4661729Y-11809293D02*
X4652205Y-11847388D01*
X4652205Y-11847388D02*
X4642682Y-11866436D01*
X4642682Y-11866436D02*
X4633158Y-11875960D01*
X4633158Y-11875960D02*
X4614110Y-11885484D01*
X4614110Y-11885484D02*
X4595063Y-11885484D01*
X4595063Y-11885484D02*
X4576015Y-11875960D01*
X4576015Y-11875960D02*
X4566491Y-11866436D01*
X4566491Y-11866436D02*
X4556967Y-11847388D01*
X4556967Y-11847388D02*
X4547444Y-11809293D01*
X4547444Y-11809293D02*
X4547444Y-11761674D01*
X4547444Y-11761674D02*
X4556967Y-11723579D01*
X4556967Y-11723579D02*
X4566491Y-11704531D01*
X4566491Y-11704531D02*
X4576015Y-11695008D01*
X4576015Y-11695008D02*
X4595063Y-11685484D01*
X4785539Y-11685484D02*
X4804586Y-11685484D01*
X4804586Y-11685484D02*
X4823634Y-11695008D01*
X4823634Y-11695008D02*
X4833158Y-11704531D01*
X4833158Y-11704531D02*
X4842682Y-11723579D01*
X4842682Y-11723579D02*
X4852205Y-11761674D01*
X4852205Y-11761674D02*
X4852205Y-11809293D01*
X4852205Y-11809293D02*
X4842682Y-11847388D01*
X4842682Y-11847388D02*
X4833158Y-11866436D01*
X4833158Y-11866436D02*
X4823634Y-11875960D01*
X4823634Y-11875960D02*
X4804586Y-11885484D01*
X4804586Y-11885484D02*
X4785539Y-11885484D01*
X4785539Y-11885484D02*
X4766491Y-11875960D01*
X4766491Y-11875960D02*
X4756967Y-11866436D01*
X4756967Y-11866436D02*
X4747444Y-11847388D01*
X4747444Y-11847388D02*
X4737920Y-11809293D01*
X4737920Y-11809293D02*
X4737920Y-11761674D01*
X4737920Y-11761674D02*
X4747444Y-11723579D01*
X4747444Y-11723579D02*
X4756967Y-11704531D01*
X4756967Y-11704531D02*
X4766491Y-11695008D01*
X4766491Y-11695008D02*
X4785539Y-11685484D01*
X4937920Y-11885484D02*
X4937920Y-11752150D01*
X4937920Y-11771198D02*
X4947444Y-11761674D01*
X4947444Y-11761674D02*
X4966491Y-11752150D01*
X4966491Y-11752150D02*
X4995063Y-11752150D01*
X4995063Y-11752150D02*
X5014110Y-11761674D01*
X5014110Y-11761674D02*
X5023634Y-11780722D01*
X5023634Y-11780722D02*
X5023634Y-11885484D01*
X5023634Y-11780722D02*
X5033158Y-11761674D01*
X5033158Y-11761674D02*
X5052205Y-11752150D01*
X5052205Y-11752150D02*
X5080777Y-11752150D01*
X5080777Y-11752150D02*
X5099825Y-11761674D01*
X5099825Y-11761674D02*
X5109348Y-11780722D01*
X5109348Y-11780722D02*
X5109348Y-11885484D01*
X5204586Y-11885484D02*
X5204586Y-11752150D01*
X5204586Y-11771198D02*
X5214110Y-11761674D01*
X5214110Y-11761674D02*
X5233158Y-11752150D01*
X5233158Y-11752150D02*
X5261729Y-11752150D01*
X5261729Y-11752150D02*
X5280777Y-11761674D01*
X5280777Y-11761674D02*
X5290301Y-11780722D01*
X5290301Y-11780722D02*
X5290301Y-11885484D01*
X5290301Y-11780722D02*
X5299825Y-11761674D01*
X5299825Y-11761674D02*
X5318872Y-11752150D01*
X5318872Y-11752150D02*
X5347444Y-11752150D01*
X5347444Y-11752150D02*
X5366491Y-11761674D01*
X5366491Y-11761674D02*
X5376015Y-11780722D01*
X5376015Y-11780722D02*
X5376015Y-11885484D01*
X5766491Y-11675960D02*
X5595063Y-11933103D01*
X6023634Y-11685484D02*
X6042682Y-11685484D01*
X6042682Y-11685484D02*
X6061729Y-11695008D01*
X6061729Y-11695008D02*
X6071253Y-11704531D01*
X6071253Y-11704531D02*
X6080777Y-11723579D01*
X6080777Y-11723579D02*
X6090301Y-11761674D01*
X6090301Y-11761674D02*
X6090301Y-11809293D01*
X6090301Y-11809293D02*
X6080777Y-11847388D01*
X6080777Y-11847388D02*
X6071253Y-11866436D01*
X6071253Y-11866436D02*
X6061729Y-11875960D01*
X6061729Y-11875960D02*
X6042682Y-11885484D01*
X6042682Y-11885484D02*
X6023634Y-11885484D01*
X6023634Y-11885484D02*
X6004586Y-11875960D01*
X6004586Y-11875960D02*
X5995063Y-11866436D01*
X5995063Y-11866436D02*
X5985539Y-11847388D01*
X5985539Y-11847388D02*
X5976015Y-11809293D01*
X5976015Y-11809293D02*
X5976015Y-11761674D01*
X5976015Y-11761674D02*
X5985539Y-11723579D01*
X5985539Y-11723579D02*
X5995063Y-11704531D01*
X5995063Y-11704531D02*
X6004586Y-11695008D01*
X6004586Y-11695008D02*
X6023634Y-11685484D01*
X6176015Y-11866436D02*
X6185539Y-11875960D01*
X6185539Y-11875960D02*
X6176015Y-11885484D01*
X6176015Y-11885484D02*
X6166491Y-11875960D01*
X6166491Y-11875960D02*
X6176015Y-11866436D01*
X6176015Y-11866436D02*
X6176015Y-11885484D01*
X6309348Y-11685484D02*
X6328396Y-11685484D01*
X6328396Y-11685484D02*
X6347444Y-11695008D01*
X6347444Y-11695008D02*
X6356967Y-11704531D01*
X6356967Y-11704531D02*
X6366491Y-11723579D01*
X6366491Y-11723579D02*
X6376015Y-11761674D01*
X6376015Y-11761674D02*
X6376015Y-11809293D01*
X6376015Y-11809293D02*
X6366491Y-11847388D01*
X6366491Y-11847388D02*
X6356967Y-11866436D01*
X6356967Y-11866436D02*
X6347444Y-11875960D01*
X6347444Y-11875960D02*
X6328396Y-11885484D01*
X6328396Y-11885484D02*
X6309348Y-11885484D01*
X6309348Y-11885484D02*
X6290301Y-11875960D01*
X6290301Y-11875960D02*
X6280777Y-11866436D01*
X6280777Y-11866436D02*
X6271253Y-11847388D01*
X6271253Y-11847388D02*
X6261729Y-11809293D01*
X6261729Y-11809293D02*
X6261729Y-11761674D01*
X6261729Y-11761674D02*
X6271253Y-11723579D01*
X6271253Y-11723579D02*
X6280777Y-11704531D01*
X6280777Y-11704531D02*
X6290301Y-11695008D01*
X6290301Y-11695008D02*
X6309348Y-11685484D01*
X6442682Y-11685484D02*
X6566491Y-11685484D01*
X6566491Y-11685484D02*
X6499825Y-11761674D01*
X6499825Y-11761674D02*
X6528396Y-11761674D01*
X6528396Y-11761674D02*
X6547444Y-11771198D01*
X6547444Y-11771198D02*
X6556967Y-11780722D01*
X6556967Y-11780722D02*
X6566491Y-11799769D01*
X6566491Y-11799769D02*
X6566491Y-11847388D01*
X6566491Y-11847388D02*
X6556967Y-11866436D01*
X6556967Y-11866436D02*
X6547444Y-11875960D01*
X6547444Y-11875960D02*
X6528396Y-11885484D01*
X6528396Y-11885484D02*
X6471253Y-11885484D01*
X6471253Y-11885484D02*
X6452206Y-11875960D01*
X6452206Y-11875960D02*
X6442682Y-11866436D01*
X6661729Y-11885484D02*
X6699825Y-11885484D01*
X6699825Y-11885484D02*
X6718872Y-11875960D01*
X6718872Y-11875960D02*
X6728396Y-11866436D01*
X6728396Y-11866436D02*
X6747444Y-11837865D01*
X6747444Y-11837865D02*
X6756967Y-11799769D01*
X6756967Y-11799769D02*
X6756967Y-11723579D01*
X6756967Y-11723579D02*
X6747444Y-11704531D01*
X6747444Y-11704531D02*
X6737920Y-11695008D01*
X6737920Y-11695008D02*
X6718872Y-11685484D01*
X6718872Y-11685484D02*
X6680777Y-11685484D01*
X6680777Y-11685484D02*
X6661729Y-11695008D01*
X6661729Y-11695008D02*
X6652206Y-11704531D01*
X6652206Y-11704531D02*
X6642682Y-11723579D01*
X6642682Y-11723579D02*
X6642682Y-11771198D01*
X6642682Y-11771198D02*
X6652206Y-11790246D01*
X6652206Y-11790246D02*
X6661729Y-11799769D01*
X6661729Y-11799769D02*
X6680777Y-11809293D01*
X6680777Y-11809293D02*
X6718872Y-11809293D01*
X6718872Y-11809293D02*
X6737920Y-11799769D01*
X6737920Y-11799769D02*
X6747444Y-11790246D01*
X6747444Y-11790246D02*
X6756967Y-11771198D01*
X6928396Y-11752150D02*
X6928396Y-11885484D01*
X6880777Y-11675960D02*
X6833158Y-11818817D01*
X6833158Y-11818817D02*
X6956967Y-11818817D01*
X7023634Y-11685484D02*
X7023634Y-11723579D01*
X7099825Y-11685484D02*
X7099825Y-11723579D01*
X7395063Y-11961674D02*
X7385539Y-11952150D01*
X7385539Y-11952150D02*
X7366491Y-11923579D01*
X7366491Y-11923579D02*
X7356968Y-11904531D01*
X7356968Y-11904531D02*
X7347444Y-11875960D01*
X7347444Y-11875960D02*
X7337920Y-11828341D01*
X7337920Y-11828341D02*
X7337920Y-11790246D01*
X7337920Y-11790246D02*
X7347444Y-11742627D01*
X7347444Y-11742627D02*
X7356968Y-11714055D01*
X7356968Y-11714055D02*
X7366491Y-11695008D01*
X7366491Y-11695008D02*
X7385539Y-11666436D01*
X7385539Y-11666436D02*
X7395063Y-11656912D01*
X7499825Y-11771198D02*
X7480777Y-11761674D01*
X7480777Y-11761674D02*
X7471253Y-11752150D01*
X7471253Y-11752150D02*
X7461729Y-11733103D01*
X7461729Y-11733103D02*
X7461729Y-11723579D01*
X7461729Y-11723579D02*
X7471253Y-11704531D01*
X7471253Y-11704531D02*
X7480777Y-11695008D01*
X7480777Y-11695008D02*
X7499825Y-11685484D01*
X7499825Y-11685484D02*
X7537920Y-11685484D01*
X7537920Y-11685484D02*
X7556968Y-11695008D01*
X7556968Y-11695008D02*
X7566491Y-11704531D01*
X7566491Y-11704531D02*
X7576015Y-11723579D01*
X7576015Y-11723579D02*
X7576015Y-11733103D01*
X7576015Y-11733103D02*
X7566491Y-11752150D01*
X7566491Y-11752150D02*
X7556968Y-11761674D01*
X7556968Y-11761674D02*
X7537920Y-11771198D01*
X7537920Y-11771198D02*
X7499825Y-11771198D01*
X7499825Y-11771198D02*
X7480777Y-11780722D01*
X7480777Y-11780722D02*
X7471253Y-11790246D01*
X7471253Y-11790246D02*
X7461729Y-11809293D01*
X7461729Y-11809293D02*
X7461729Y-11847388D01*
X7461729Y-11847388D02*
X7471253Y-11866436D01*
X7471253Y-11866436D02*
X7480777Y-11875960D01*
X7480777Y-11875960D02*
X7499825Y-11885484D01*
X7499825Y-11885484D02*
X7537920Y-11885484D01*
X7537920Y-11885484D02*
X7556968Y-11875960D01*
X7556968Y-11875960D02*
X7566491Y-11866436D01*
X7566491Y-11866436D02*
X7576015Y-11847388D01*
X7576015Y-11847388D02*
X7576015Y-11809293D01*
X7576015Y-11809293D02*
X7566491Y-11790246D01*
X7566491Y-11790246D02*
X7556968Y-11780722D01*
X7556968Y-11780722D02*
X7537920Y-11771198D01*
X7814110Y-11885484D02*
X7814110Y-11685484D01*
X7899825Y-11885484D02*
X7899825Y-11780722D01*
X7899825Y-11780722D02*
X7890301Y-11761674D01*
X7890301Y-11761674D02*
X7871253Y-11752150D01*
X7871253Y-11752150D02*
X7842682Y-11752150D01*
X7842682Y-11752150D02*
X7823634Y-11761674D01*
X7823634Y-11761674D02*
X7814110Y-11771198D01*
X8023634Y-11885484D02*
X8004587Y-11875960D01*
X8004587Y-11875960D02*
X7995063Y-11866436D01*
X7995063Y-11866436D02*
X7985539Y-11847388D01*
X7985539Y-11847388D02*
X7985539Y-11790246D01*
X7985539Y-11790246D02*
X7995063Y-11771198D01*
X7995063Y-11771198D02*
X8004587Y-11761674D01*
X8004587Y-11761674D02*
X8023634Y-11752150D01*
X8023634Y-11752150D02*
X8052206Y-11752150D01*
X8052206Y-11752150D02*
X8071253Y-11761674D01*
X8071253Y-11761674D02*
X8080777Y-11771198D01*
X8080777Y-11771198D02*
X8090301Y-11790246D01*
X8090301Y-11790246D02*
X8090301Y-11847388D01*
X8090301Y-11847388D02*
X8080777Y-11866436D01*
X8080777Y-11866436D02*
X8071253Y-11875960D01*
X8071253Y-11875960D02*
X8052206Y-11885484D01*
X8052206Y-11885484D02*
X8023634Y-11885484D01*
X8204587Y-11885484D02*
X8185539Y-11875960D01*
X8185539Y-11875960D02*
X8176015Y-11856912D01*
X8176015Y-11856912D02*
X8176015Y-11685484D01*
X8356968Y-11875960D02*
X8337920Y-11885484D01*
X8337920Y-11885484D02*
X8299825Y-11885484D01*
X8299825Y-11885484D02*
X8280777Y-11875960D01*
X8280777Y-11875960D02*
X8271253Y-11856912D01*
X8271253Y-11856912D02*
X8271253Y-11780722D01*
X8271253Y-11780722D02*
X8280777Y-11761674D01*
X8280777Y-11761674D02*
X8299825Y-11752150D01*
X8299825Y-11752150D02*
X8337920Y-11752150D01*
X8337920Y-11752150D02*
X8356968Y-11761674D01*
X8356968Y-11761674D02*
X8366491Y-11780722D01*
X8366491Y-11780722D02*
X8366491Y-11799769D01*
X8366491Y-11799769D02*
X8271253Y-11818817D01*
X8442682Y-11875960D02*
X8461730Y-11885484D01*
X8461730Y-11885484D02*
X8499825Y-11885484D01*
X8499825Y-11885484D02*
X8518873Y-11875960D01*
X8518873Y-11875960D02*
X8528396Y-11856912D01*
X8528396Y-11856912D02*
X8528396Y-11847388D01*
X8528396Y-11847388D02*
X8518873Y-11828341D01*
X8518873Y-11828341D02*
X8499825Y-11818817D01*
X8499825Y-11818817D02*
X8471253Y-11818817D01*
X8471253Y-11818817D02*
X8452206Y-11809293D01*
X8452206Y-11809293D02*
X8442682Y-11790246D01*
X8442682Y-11790246D02*
X8442682Y-11780722D01*
X8442682Y-11780722D02*
X8452206Y-11761674D01*
X8452206Y-11761674D02*
X8471253Y-11752150D01*
X8471253Y-11752150D02*
X8499825Y-11752150D01*
X8499825Y-11752150D02*
X8518873Y-11761674D01*
X8595063Y-11961674D02*
X8604587Y-11952150D01*
X8604587Y-11952150D02*
X8623634Y-11923579D01*
X8623634Y-11923579D02*
X8633158Y-11904531D01*
X8633158Y-11904531D02*
X8642682Y-11875960D01*
X8642682Y-11875960D02*
X8652206Y-11828341D01*
X8652206Y-11828341D02*
X8652206Y-11790246D01*
X8652206Y-11790246D02*
X8642682Y-11742627D01*
X8642682Y-11742627D02*
X8633158Y-11714055D01*
X8633158Y-11714055D02*
X8623634Y-11695008D01*
X8623634Y-11695008D02*
X8604587Y-11666436D01*
X8604587Y-11666436D02*
X8595063Y-11656912D01*
X8956968Y-11961674D02*
X8947444Y-11952150D01*
X8947444Y-11952150D02*
X8928396Y-11923579D01*
X8928396Y-11923579D02*
X8918873Y-11904531D01*
X8918873Y-11904531D02*
X8909349Y-11875960D01*
X8909349Y-11875960D02*
X8899825Y-11828341D01*
X8899825Y-11828341D02*
X8899825Y-11790246D01*
X8899825Y-11790246D02*
X8909349Y-11742627D01*
X8909349Y-11742627D02*
X8918873Y-11714055D01*
X8918873Y-11714055D02*
X8928396Y-11695008D01*
X8928396Y-11695008D02*
X8947444Y-11666436D01*
X8947444Y-11666436D02*
X8956968Y-11656912D01*
X9033158Y-11752150D02*
X9033158Y-11885484D01*
X9033158Y-11771198D02*
X9042682Y-11761674D01*
X9042682Y-11761674D02*
X9061730Y-11752150D01*
X9061730Y-11752150D02*
X9090301Y-11752150D01*
X9090301Y-11752150D02*
X9109349Y-11761674D01*
X9109349Y-11761674D02*
X9118873Y-11780722D01*
X9118873Y-11780722D02*
X9118873Y-11885484D01*
X9242682Y-11885484D02*
X9223634Y-11875960D01*
X9223634Y-11875960D02*
X9214111Y-11866436D01*
X9214111Y-11866436D02*
X9204587Y-11847388D01*
X9204587Y-11847388D02*
X9204587Y-11790246D01*
X9204587Y-11790246D02*
X9214111Y-11771198D01*
X9214111Y-11771198D02*
X9223634Y-11761674D01*
X9223634Y-11761674D02*
X9242682Y-11752150D01*
X9242682Y-11752150D02*
X9271254Y-11752150D01*
X9271254Y-11752150D02*
X9290301Y-11761674D01*
X9290301Y-11761674D02*
X9299825Y-11771198D01*
X9299825Y-11771198D02*
X9309349Y-11790246D01*
X9309349Y-11790246D02*
X9309349Y-11847388D01*
X9309349Y-11847388D02*
X9299825Y-11866436D01*
X9299825Y-11866436D02*
X9290301Y-11875960D01*
X9290301Y-11875960D02*
X9271254Y-11885484D01*
X9271254Y-11885484D02*
X9242682Y-11885484D01*
X9366492Y-11752150D02*
X9442682Y-11752150D01*
X9395063Y-11685484D02*
X9395063Y-11856912D01*
X9395063Y-11856912D02*
X9404587Y-11875960D01*
X9404587Y-11875960D02*
X9423634Y-11885484D01*
X9423634Y-11885484D02*
X9442682Y-11885484D01*
X9661730Y-11752150D02*
X9661730Y-11952150D01*
X9661730Y-11761674D02*
X9680777Y-11752150D01*
X9680777Y-11752150D02*
X9718873Y-11752150D01*
X9718873Y-11752150D02*
X9737920Y-11761674D01*
X9737920Y-11761674D02*
X9747444Y-11771198D01*
X9747444Y-11771198D02*
X9756968Y-11790246D01*
X9756968Y-11790246D02*
X9756968Y-11847388D01*
X9756968Y-11847388D02*
X9747444Y-11866436D01*
X9747444Y-11866436D02*
X9737920Y-11875960D01*
X9737920Y-11875960D02*
X9718873Y-11885484D01*
X9718873Y-11885484D02*
X9680777Y-11885484D01*
X9680777Y-11885484D02*
X9661730Y-11875960D01*
X9871254Y-11885484D02*
X9852206Y-11875960D01*
X9852206Y-11875960D02*
X9842682Y-11856912D01*
X9842682Y-11856912D02*
X9842682Y-11685484D01*
X10033158Y-11885484D02*
X10033158Y-11780722D01*
X10033158Y-11780722D02*
X10023635Y-11761674D01*
X10023635Y-11761674D02*
X10004587Y-11752150D01*
X10004587Y-11752150D02*
X9966492Y-11752150D01*
X9966492Y-11752150D02*
X9947444Y-11761674D01*
X10033158Y-11875960D02*
X10014111Y-11885484D01*
X10014111Y-11885484D02*
X9966492Y-11885484D01*
X9966492Y-11885484D02*
X9947444Y-11875960D01*
X9947444Y-11875960D02*
X9937920Y-11856912D01*
X9937920Y-11856912D02*
X9937920Y-11837865D01*
X9937920Y-11837865D02*
X9947444Y-11818817D01*
X9947444Y-11818817D02*
X9966492Y-11809293D01*
X9966492Y-11809293D02*
X10014111Y-11809293D01*
X10014111Y-11809293D02*
X10033158Y-11799769D01*
X10099825Y-11752150D02*
X10176015Y-11752150D01*
X10128396Y-11685484D02*
X10128396Y-11856912D01*
X10128396Y-11856912D02*
X10137920Y-11875960D01*
X10137920Y-11875960D02*
X10156968Y-11885484D01*
X10156968Y-11885484D02*
X10176015Y-11885484D01*
X10318873Y-11875960D02*
X10299825Y-11885484D01*
X10299825Y-11885484D02*
X10261730Y-11885484D01*
X10261730Y-11885484D02*
X10242682Y-11875960D01*
X10242682Y-11875960D02*
X10233158Y-11856912D01*
X10233158Y-11856912D02*
X10233158Y-11780722D01*
X10233158Y-11780722D02*
X10242682Y-11761674D01*
X10242682Y-11761674D02*
X10261730Y-11752150D01*
X10261730Y-11752150D02*
X10299825Y-11752150D01*
X10299825Y-11752150D02*
X10318873Y-11761674D01*
X10318873Y-11761674D02*
X10328396Y-11780722D01*
X10328396Y-11780722D02*
X10328396Y-11799769D01*
X10328396Y-11799769D02*
X10233158Y-11818817D01*
X10499825Y-11885484D02*
X10499825Y-11685484D01*
X10499825Y-11875960D02*
X10480777Y-11885484D01*
X10480777Y-11885484D02*
X10442682Y-11885484D01*
X10442682Y-11885484D02*
X10423635Y-11875960D01*
X10423635Y-11875960D02*
X10414111Y-11866436D01*
X10414111Y-11866436D02*
X10404587Y-11847388D01*
X10404587Y-11847388D02*
X10404587Y-11790246D01*
X10404587Y-11790246D02*
X10414111Y-11771198D01*
X10414111Y-11771198D02*
X10423635Y-11761674D01*
X10423635Y-11761674D02*
X10442682Y-11752150D01*
X10442682Y-11752150D02*
X10480777Y-11752150D01*
X10480777Y-11752150D02*
X10499825Y-11761674D01*
X10576016Y-11961674D02*
X10585539Y-11952150D01*
X10585539Y-11952150D02*
X10604587Y-11923579D01*
X10604587Y-11923579D02*
X10614111Y-11904531D01*
X10614111Y-11904531D02*
X10623635Y-11875960D01*
X10623635Y-11875960D02*
X10633158Y-11828341D01*
X10633158Y-11828341D02*
X10633158Y-11790246D01*
X10633158Y-11790246D02*
X10623635Y-11742627D01*
X10623635Y-11742627D02*
X10614111Y-11714055D01*
X10614111Y-11714055D02*
X10604587Y-11695008D01*
X10604587Y-11695008D02*
X10585539Y-11666436D01*
X10585539Y-11666436D02*
X10576016Y-11656912D01*
X3820000Y-12058000D02*
G75*
G03*
X3820000Y-12058000I-100000J0D01*
G01*
X4071253Y-11968531D02*
X4080777Y-11959008D01*
X4080777Y-11959008D02*
X4099824Y-11949484D01*
X4099824Y-11949484D02*
X4147443Y-11949484D01*
X4147443Y-11949484D02*
X4166491Y-11959008D01*
X4166491Y-11959008D02*
X4176015Y-11968531D01*
X4176015Y-11968531D02*
X4185539Y-11987579D01*
X4185539Y-11987579D02*
X4185539Y-12006627D01*
X4185539Y-12006627D02*
X4176015Y-12035198D01*
X4176015Y-12035198D02*
X4061729Y-12149484D01*
X4061729Y-12149484D02*
X4185539Y-12149484D01*
X4271253Y-12130436D02*
X4280777Y-12139960D01*
X4280777Y-12139960D02*
X4271253Y-12149484D01*
X4271253Y-12149484D02*
X4261729Y-12139960D01*
X4261729Y-12139960D02*
X4271253Y-12130436D01*
X4271253Y-12130436D02*
X4271253Y-12149484D01*
X4347444Y-11949484D02*
X4471253Y-11949484D01*
X4471253Y-11949484D02*
X4404586Y-12025674D01*
X4404586Y-12025674D02*
X4433158Y-12025674D01*
X4433158Y-12025674D02*
X4452205Y-12035198D01*
X4452205Y-12035198D02*
X4461729Y-12044722D01*
X4461729Y-12044722D02*
X4471253Y-12063769D01*
X4471253Y-12063769D02*
X4471253Y-12111388D01*
X4471253Y-12111388D02*
X4461729Y-12130436D01*
X4461729Y-12130436D02*
X4452205Y-12139960D01*
X4452205Y-12139960D02*
X4433158Y-12149484D01*
X4433158Y-12149484D02*
X4376015Y-12149484D01*
X4376015Y-12149484D02*
X4356967Y-12139960D01*
X4356967Y-12139960D02*
X4347444Y-12130436D01*
X4595063Y-11949484D02*
X4614110Y-11949484D01*
X4614110Y-11949484D02*
X4633158Y-11959008D01*
X4633158Y-11959008D02*
X4642682Y-11968531D01*
X4642682Y-11968531D02*
X4652205Y-11987579D01*
X4652205Y-11987579D02*
X4661729Y-12025674D01*
X4661729Y-12025674D02*
X4661729Y-12073293D01*
X4661729Y-12073293D02*
X4652205Y-12111388D01*
X4652205Y-12111388D02*
X4642682Y-12130436D01*
X4642682Y-12130436D02*
X4633158Y-12139960D01*
X4633158Y-12139960D02*
X4614110Y-12149484D01*
X4614110Y-12149484D02*
X4595063Y-12149484D01*
X4595063Y-12149484D02*
X4576015Y-12139960D01*
X4576015Y-12139960D02*
X4566491Y-12130436D01*
X4566491Y-12130436D02*
X4556967Y-12111388D01*
X4556967Y-12111388D02*
X4547444Y-12073293D01*
X4547444Y-12073293D02*
X4547444Y-12025674D01*
X4547444Y-12025674D02*
X4556967Y-11987579D01*
X4556967Y-11987579D02*
X4566491Y-11968531D01*
X4566491Y-11968531D02*
X4576015Y-11959008D01*
X4576015Y-11959008D02*
X4595063Y-11949484D01*
X4785539Y-11949484D02*
X4804586Y-11949484D01*
X4804586Y-11949484D02*
X4823634Y-11959008D01*
X4823634Y-11959008D02*
X4833158Y-11968531D01*
X4833158Y-11968531D02*
X4842682Y-11987579D01*
X4842682Y-11987579D02*
X4852205Y-12025674D01*
X4852205Y-12025674D02*
X4852205Y-12073293D01*
X4852205Y-12073293D02*
X4842682Y-12111388D01*
X4842682Y-12111388D02*
X4833158Y-12130436D01*
X4833158Y-12130436D02*
X4823634Y-12139960D01*
X4823634Y-12139960D02*
X4804586Y-12149484D01*
X4804586Y-12149484D02*
X4785539Y-12149484D01*
X4785539Y-12149484D02*
X4766491Y-12139960D01*
X4766491Y-12139960D02*
X4756967Y-12130436D01*
X4756967Y-12130436D02*
X4747444Y-12111388D01*
X4747444Y-12111388D02*
X4737920Y-12073293D01*
X4737920Y-12073293D02*
X4737920Y-12025674D01*
X4737920Y-12025674D02*
X4747444Y-11987579D01*
X4747444Y-11987579D02*
X4756967Y-11968531D01*
X4756967Y-11968531D02*
X4766491Y-11959008D01*
X4766491Y-11959008D02*
X4785539Y-11949484D01*
X4937920Y-12149484D02*
X4937920Y-12016150D01*
X4937920Y-12035198D02*
X4947444Y-12025674D01*
X4947444Y-12025674D02*
X4966491Y-12016150D01*
X4966491Y-12016150D02*
X4995063Y-12016150D01*
X4995063Y-12016150D02*
X5014110Y-12025674D01*
X5014110Y-12025674D02*
X5023634Y-12044722D01*
X5023634Y-12044722D02*
X5023634Y-12149484D01*
X5023634Y-12044722D02*
X5033158Y-12025674D01*
X5033158Y-12025674D02*
X5052205Y-12016150D01*
X5052205Y-12016150D02*
X5080777Y-12016150D01*
X5080777Y-12016150D02*
X5099825Y-12025674D01*
X5099825Y-12025674D02*
X5109348Y-12044722D01*
X5109348Y-12044722D02*
X5109348Y-12149484D01*
X5204586Y-12149484D02*
X5204586Y-12016150D01*
X5204586Y-12035198D02*
X5214110Y-12025674D01*
X5214110Y-12025674D02*
X5233158Y-12016150D01*
X5233158Y-12016150D02*
X5261729Y-12016150D01*
X5261729Y-12016150D02*
X5280777Y-12025674D01*
X5280777Y-12025674D02*
X5290301Y-12044722D01*
X5290301Y-12044722D02*
X5290301Y-12149484D01*
X5290301Y-12044722D02*
X5299825Y-12025674D01*
X5299825Y-12025674D02*
X5318872Y-12016150D01*
X5318872Y-12016150D02*
X5347444Y-12016150D01*
X5347444Y-12016150D02*
X5366491Y-12025674D01*
X5366491Y-12025674D02*
X5376015Y-12044722D01*
X5376015Y-12044722D02*
X5376015Y-12149484D01*
X5766491Y-11939960D02*
X5595063Y-12197103D01*
X6023634Y-11949484D02*
X6042682Y-11949484D01*
X6042682Y-11949484D02*
X6061729Y-11959008D01*
X6061729Y-11959008D02*
X6071253Y-11968531D01*
X6071253Y-11968531D02*
X6080777Y-11987579D01*
X6080777Y-11987579D02*
X6090301Y-12025674D01*
X6090301Y-12025674D02*
X6090301Y-12073293D01*
X6090301Y-12073293D02*
X6080777Y-12111388D01*
X6080777Y-12111388D02*
X6071253Y-12130436D01*
X6071253Y-12130436D02*
X6061729Y-12139960D01*
X6061729Y-12139960D02*
X6042682Y-12149484D01*
X6042682Y-12149484D02*
X6023634Y-12149484D01*
X6023634Y-12149484D02*
X6004586Y-12139960D01*
X6004586Y-12139960D02*
X5995063Y-12130436D01*
X5995063Y-12130436D02*
X5985539Y-12111388D01*
X5985539Y-12111388D02*
X5976015Y-12073293D01*
X5976015Y-12073293D02*
X5976015Y-12025674D01*
X5976015Y-12025674D02*
X5985539Y-11987579D01*
X5985539Y-11987579D02*
X5995063Y-11968531D01*
X5995063Y-11968531D02*
X6004586Y-11959008D01*
X6004586Y-11959008D02*
X6023634Y-11949484D01*
X6176015Y-12130436D02*
X6185539Y-12139960D01*
X6185539Y-12139960D02*
X6176015Y-12149484D01*
X6176015Y-12149484D02*
X6166491Y-12139960D01*
X6166491Y-12139960D02*
X6176015Y-12130436D01*
X6176015Y-12130436D02*
X6176015Y-12149484D01*
X6309348Y-11949484D02*
X6328396Y-11949484D01*
X6328396Y-11949484D02*
X6347444Y-11959008D01*
X6347444Y-11959008D02*
X6356967Y-11968531D01*
X6356967Y-11968531D02*
X6366491Y-11987579D01*
X6366491Y-11987579D02*
X6376015Y-12025674D01*
X6376015Y-12025674D02*
X6376015Y-12073293D01*
X6376015Y-12073293D02*
X6366491Y-12111388D01*
X6366491Y-12111388D02*
X6356967Y-12130436D01*
X6356967Y-12130436D02*
X6347444Y-12139960D01*
X6347444Y-12139960D02*
X6328396Y-12149484D01*
X6328396Y-12149484D02*
X6309348Y-12149484D01*
X6309348Y-12149484D02*
X6290301Y-12139960D01*
X6290301Y-12139960D02*
X6280777Y-12130436D01*
X6280777Y-12130436D02*
X6271253Y-12111388D01*
X6271253Y-12111388D02*
X6261729Y-12073293D01*
X6261729Y-12073293D02*
X6261729Y-12025674D01*
X6261729Y-12025674D02*
X6271253Y-11987579D01*
X6271253Y-11987579D02*
X6280777Y-11968531D01*
X6280777Y-11968531D02*
X6290301Y-11959008D01*
X6290301Y-11959008D02*
X6309348Y-11949484D01*
X6471253Y-12149484D02*
X6509348Y-12149484D01*
X6509348Y-12149484D02*
X6528396Y-12139960D01*
X6528396Y-12139960D02*
X6537920Y-12130436D01*
X6537920Y-12130436D02*
X6556967Y-12101865D01*
X6556967Y-12101865D02*
X6566491Y-12063769D01*
X6566491Y-12063769D02*
X6566491Y-11987579D01*
X6566491Y-11987579D02*
X6556967Y-11968531D01*
X6556967Y-11968531D02*
X6547444Y-11959008D01*
X6547444Y-11959008D02*
X6528396Y-11949484D01*
X6528396Y-11949484D02*
X6490301Y-11949484D01*
X6490301Y-11949484D02*
X6471253Y-11959008D01*
X6471253Y-11959008D02*
X6461729Y-11968531D01*
X6461729Y-11968531D02*
X6452206Y-11987579D01*
X6452206Y-11987579D02*
X6452206Y-12035198D01*
X6452206Y-12035198D02*
X6461729Y-12054246D01*
X6461729Y-12054246D02*
X6471253Y-12063769D01*
X6471253Y-12063769D02*
X6490301Y-12073293D01*
X6490301Y-12073293D02*
X6528396Y-12073293D01*
X6528396Y-12073293D02*
X6547444Y-12063769D01*
X6547444Y-12063769D02*
X6556967Y-12054246D01*
X6556967Y-12054246D02*
X6566491Y-12035198D01*
X6690301Y-11949484D02*
X6709348Y-11949484D01*
X6709348Y-11949484D02*
X6728396Y-11959008D01*
X6728396Y-11959008D02*
X6737920Y-11968531D01*
X6737920Y-11968531D02*
X6747444Y-11987579D01*
X6747444Y-11987579D02*
X6756967Y-12025674D01*
X6756967Y-12025674D02*
X6756967Y-12073293D01*
X6756967Y-12073293D02*
X6747444Y-12111388D01*
X6747444Y-12111388D02*
X6737920Y-12130436D01*
X6737920Y-12130436D02*
X6728396Y-12139960D01*
X6728396Y-12139960D02*
X6709348Y-12149484D01*
X6709348Y-12149484D02*
X6690301Y-12149484D01*
X6690301Y-12149484D02*
X6671253Y-12139960D01*
X6671253Y-12139960D02*
X6661729Y-12130436D01*
X6661729Y-12130436D02*
X6652206Y-12111388D01*
X6652206Y-12111388D02*
X6642682Y-12073293D01*
X6642682Y-12073293D02*
X6642682Y-12025674D01*
X6642682Y-12025674D02*
X6652206Y-11987579D01*
X6652206Y-11987579D02*
X6661729Y-11968531D01*
X6661729Y-11968531D02*
X6671253Y-11959008D01*
X6671253Y-11959008D02*
X6690301Y-11949484D01*
X6928396Y-11949484D02*
X6890301Y-11949484D01*
X6890301Y-11949484D02*
X6871253Y-11959008D01*
X6871253Y-11959008D02*
X6861729Y-11968531D01*
X6861729Y-11968531D02*
X6842682Y-11997103D01*
X6842682Y-11997103D02*
X6833158Y-12035198D01*
X6833158Y-12035198D02*
X6833158Y-12111388D01*
X6833158Y-12111388D02*
X6842682Y-12130436D01*
X6842682Y-12130436D02*
X6852206Y-12139960D01*
X6852206Y-12139960D02*
X6871253Y-12149484D01*
X6871253Y-12149484D02*
X6909348Y-12149484D01*
X6909348Y-12149484D02*
X6928396Y-12139960D01*
X6928396Y-12139960D02*
X6937920Y-12130436D01*
X6937920Y-12130436D02*
X6947444Y-12111388D01*
X6947444Y-12111388D02*
X6947444Y-12063769D01*
X6947444Y-12063769D02*
X6937920Y-12044722D01*
X6937920Y-12044722D02*
X6928396Y-12035198D01*
X6928396Y-12035198D02*
X6909348Y-12025674D01*
X6909348Y-12025674D02*
X6871253Y-12025674D01*
X6871253Y-12025674D02*
X6852206Y-12035198D01*
X6852206Y-12035198D02*
X6842682Y-12044722D01*
X6842682Y-12044722D02*
X6833158Y-12063769D01*
X7023634Y-11949484D02*
X7023634Y-11987579D01*
X7099825Y-11949484D02*
X7099825Y-11987579D01*
X7395063Y-12225674D02*
X7385539Y-12216150D01*
X7385539Y-12216150D02*
X7366491Y-12187579D01*
X7366491Y-12187579D02*
X7356968Y-12168531D01*
X7356968Y-12168531D02*
X7347444Y-12139960D01*
X7347444Y-12139960D02*
X7337920Y-12092341D01*
X7337920Y-12092341D02*
X7337920Y-12054246D01*
X7337920Y-12054246D02*
X7347444Y-12006627D01*
X7347444Y-12006627D02*
X7356968Y-11978055D01*
X7356968Y-11978055D02*
X7366491Y-11959008D01*
X7366491Y-11959008D02*
X7385539Y-11930436D01*
X7385539Y-11930436D02*
X7395063Y-11920912D01*
X7499825Y-12035198D02*
X7480777Y-12025674D01*
X7480777Y-12025674D02*
X7471253Y-12016150D01*
X7471253Y-12016150D02*
X7461729Y-11997103D01*
X7461729Y-11997103D02*
X7461729Y-11987579D01*
X7461729Y-11987579D02*
X7471253Y-11968531D01*
X7471253Y-11968531D02*
X7480777Y-11959008D01*
X7480777Y-11959008D02*
X7499825Y-11949484D01*
X7499825Y-11949484D02*
X7537920Y-11949484D01*
X7537920Y-11949484D02*
X7556968Y-11959008D01*
X7556968Y-11959008D02*
X7566491Y-11968531D01*
X7566491Y-11968531D02*
X7576015Y-11987579D01*
X7576015Y-11987579D02*
X7576015Y-11997103D01*
X7576015Y-11997103D02*
X7566491Y-12016150D01*
X7566491Y-12016150D02*
X7556968Y-12025674D01*
X7556968Y-12025674D02*
X7537920Y-12035198D01*
X7537920Y-12035198D02*
X7499825Y-12035198D01*
X7499825Y-12035198D02*
X7480777Y-12044722D01*
X7480777Y-12044722D02*
X7471253Y-12054246D01*
X7471253Y-12054246D02*
X7461729Y-12073293D01*
X7461729Y-12073293D02*
X7461729Y-12111388D01*
X7461729Y-12111388D02*
X7471253Y-12130436D01*
X7471253Y-12130436D02*
X7480777Y-12139960D01*
X7480777Y-12139960D02*
X7499825Y-12149484D01*
X7499825Y-12149484D02*
X7537920Y-12149484D01*
X7537920Y-12149484D02*
X7556968Y-12139960D01*
X7556968Y-12139960D02*
X7566491Y-12130436D01*
X7566491Y-12130436D02*
X7576015Y-12111388D01*
X7576015Y-12111388D02*
X7576015Y-12073293D01*
X7576015Y-12073293D02*
X7566491Y-12054246D01*
X7566491Y-12054246D02*
X7556968Y-12044722D01*
X7556968Y-12044722D02*
X7537920Y-12035198D01*
X7814110Y-12149484D02*
X7814110Y-11949484D01*
X7899825Y-12149484D02*
X7899825Y-12044722D01*
X7899825Y-12044722D02*
X7890301Y-12025674D01*
X7890301Y-12025674D02*
X7871253Y-12016150D01*
X7871253Y-12016150D02*
X7842682Y-12016150D01*
X7842682Y-12016150D02*
X7823634Y-12025674D01*
X7823634Y-12025674D02*
X7814110Y-12035198D01*
X8023634Y-12149484D02*
X8004587Y-12139960D01*
X8004587Y-12139960D02*
X7995063Y-12130436D01*
X7995063Y-12130436D02*
X7985539Y-12111388D01*
X7985539Y-12111388D02*
X7985539Y-12054246D01*
X7985539Y-12054246D02*
X7995063Y-12035198D01*
X7995063Y-12035198D02*
X8004587Y-12025674D01*
X8004587Y-12025674D02*
X8023634Y-12016150D01*
X8023634Y-12016150D02*
X8052206Y-12016150D01*
X8052206Y-12016150D02*
X8071253Y-12025674D01*
X8071253Y-12025674D02*
X8080777Y-12035198D01*
X8080777Y-12035198D02*
X8090301Y-12054246D01*
X8090301Y-12054246D02*
X8090301Y-12111388D01*
X8090301Y-12111388D02*
X8080777Y-12130436D01*
X8080777Y-12130436D02*
X8071253Y-12139960D01*
X8071253Y-12139960D02*
X8052206Y-12149484D01*
X8052206Y-12149484D02*
X8023634Y-12149484D01*
X8204587Y-12149484D02*
X8185539Y-12139960D01*
X8185539Y-12139960D02*
X8176015Y-12120912D01*
X8176015Y-12120912D02*
X8176015Y-11949484D01*
X8356968Y-12139960D02*
X8337920Y-12149484D01*
X8337920Y-12149484D02*
X8299825Y-12149484D01*
X8299825Y-12149484D02*
X8280777Y-12139960D01*
X8280777Y-12139960D02*
X8271253Y-12120912D01*
X8271253Y-12120912D02*
X8271253Y-12044722D01*
X8271253Y-12044722D02*
X8280777Y-12025674D01*
X8280777Y-12025674D02*
X8299825Y-12016150D01*
X8299825Y-12016150D02*
X8337920Y-12016150D01*
X8337920Y-12016150D02*
X8356968Y-12025674D01*
X8356968Y-12025674D02*
X8366491Y-12044722D01*
X8366491Y-12044722D02*
X8366491Y-12063769D01*
X8366491Y-12063769D02*
X8271253Y-12082817D01*
X8442682Y-12139960D02*
X8461730Y-12149484D01*
X8461730Y-12149484D02*
X8499825Y-12149484D01*
X8499825Y-12149484D02*
X8518873Y-12139960D01*
X8518873Y-12139960D02*
X8528396Y-12120912D01*
X8528396Y-12120912D02*
X8528396Y-12111388D01*
X8528396Y-12111388D02*
X8518873Y-12092341D01*
X8518873Y-12092341D02*
X8499825Y-12082817D01*
X8499825Y-12082817D02*
X8471253Y-12082817D01*
X8471253Y-12082817D02*
X8452206Y-12073293D01*
X8452206Y-12073293D02*
X8442682Y-12054246D01*
X8442682Y-12054246D02*
X8442682Y-12044722D01*
X8442682Y-12044722D02*
X8452206Y-12025674D01*
X8452206Y-12025674D02*
X8471253Y-12016150D01*
X8471253Y-12016150D02*
X8499825Y-12016150D01*
X8499825Y-12016150D02*
X8518873Y-12025674D01*
X8595063Y-12225674D02*
X8604587Y-12216150D01*
X8604587Y-12216150D02*
X8623634Y-12187579D01*
X8623634Y-12187579D02*
X8633158Y-12168531D01*
X8633158Y-12168531D02*
X8642682Y-12139960D01*
X8642682Y-12139960D02*
X8652206Y-12092341D01*
X8652206Y-12092341D02*
X8652206Y-12054246D01*
X8652206Y-12054246D02*
X8642682Y-12006627D01*
X8642682Y-12006627D02*
X8633158Y-11978055D01*
X8633158Y-11978055D02*
X8623634Y-11959008D01*
X8623634Y-11959008D02*
X8604587Y-11930436D01*
X8604587Y-11930436D02*
X8595063Y-11920912D01*
X8956968Y-12225674D02*
X8947444Y-12216150D01*
X8947444Y-12216150D02*
X8928396Y-12187579D01*
X8928396Y-12187579D02*
X8918873Y-12168531D01*
X8918873Y-12168531D02*
X8909349Y-12139960D01*
X8909349Y-12139960D02*
X8899825Y-12092341D01*
X8899825Y-12092341D02*
X8899825Y-12054246D01*
X8899825Y-12054246D02*
X8909349Y-12006627D01*
X8909349Y-12006627D02*
X8918873Y-11978055D01*
X8918873Y-11978055D02*
X8928396Y-11959008D01*
X8928396Y-11959008D02*
X8947444Y-11930436D01*
X8947444Y-11930436D02*
X8956968Y-11920912D01*
X9033158Y-12016150D02*
X9033158Y-12149484D01*
X9033158Y-12035198D02*
X9042682Y-12025674D01*
X9042682Y-12025674D02*
X9061730Y-12016150D01*
X9061730Y-12016150D02*
X9090301Y-12016150D01*
X9090301Y-12016150D02*
X9109349Y-12025674D01*
X9109349Y-12025674D02*
X9118873Y-12044722D01*
X9118873Y-12044722D02*
X9118873Y-12149484D01*
X9242682Y-12149484D02*
X9223634Y-12139960D01*
X9223634Y-12139960D02*
X9214111Y-12130436D01*
X9214111Y-12130436D02*
X9204587Y-12111388D01*
X9204587Y-12111388D02*
X9204587Y-12054246D01*
X9204587Y-12054246D02*
X9214111Y-12035198D01*
X9214111Y-12035198D02*
X9223634Y-12025674D01*
X9223634Y-12025674D02*
X9242682Y-12016150D01*
X9242682Y-12016150D02*
X9271254Y-12016150D01*
X9271254Y-12016150D02*
X9290301Y-12025674D01*
X9290301Y-12025674D02*
X9299825Y-12035198D01*
X9299825Y-12035198D02*
X9309349Y-12054246D01*
X9309349Y-12054246D02*
X9309349Y-12111388D01*
X9309349Y-12111388D02*
X9299825Y-12130436D01*
X9299825Y-12130436D02*
X9290301Y-12139960D01*
X9290301Y-12139960D02*
X9271254Y-12149484D01*
X9271254Y-12149484D02*
X9242682Y-12149484D01*
X9366492Y-12016150D02*
X9442682Y-12016150D01*
X9395063Y-11949484D02*
X9395063Y-12120912D01*
X9395063Y-12120912D02*
X9404587Y-12139960D01*
X9404587Y-12139960D02*
X9423634Y-12149484D01*
X9423634Y-12149484D02*
X9442682Y-12149484D01*
X9661730Y-12016150D02*
X9661730Y-12216150D01*
X9661730Y-12025674D02*
X9680777Y-12016150D01*
X9680777Y-12016150D02*
X9718873Y-12016150D01*
X9718873Y-12016150D02*
X9737920Y-12025674D01*
X9737920Y-12025674D02*
X9747444Y-12035198D01*
X9747444Y-12035198D02*
X9756968Y-12054246D01*
X9756968Y-12054246D02*
X9756968Y-12111388D01*
X9756968Y-12111388D02*
X9747444Y-12130436D01*
X9747444Y-12130436D02*
X9737920Y-12139960D01*
X9737920Y-12139960D02*
X9718873Y-12149484D01*
X9718873Y-12149484D02*
X9680777Y-12149484D01*
X9680777Y-12149484D02*
X9661730Y-12139960D01*
X9871254Y-12149484D02*
X9852206Y-12139960D01*
X9852206Y-12139960D02*
X9842682Y-12120912D01*
X9842682Y-12120912D02*
X9842682Y-11949484D01*
X10033158Y-12149484D02*
X10033158Y-12044722D01*
X10033158Y-12044722D02*
X10023635Y-12025674D01*
X10023635Y-12025674D02*
X10004587Y-12016150D01*
X10004587Y-12016150D02*
X9966492Y-12016150D01*
X9966492Y-12016150D02*
X9947444Y-12025674D01*
X10033158Y-12139960D02*
X10014111Y-12149484D01*
X10014111Y-12149484D02*
X9966492Y-12149484D01*
X9966492Y-12149484D02*
X9947444Y-12139960D01*
X9947444Y-12139960D02*
X9937920Y-12120912D01*
X9937920Y-12120912D02*
X9937920Y-12101865D01*
X9937920Y-12101865D02*
X9947444Y-12082817D01*
X9947444Y-12082817D02*
X9966492Y-12073293D01*
X9966492Y-12073293D02*
X10014111Y-12073293D01*
X10014111Y-12073293D02*
X10033158Y-12063769D01*
X10099825Y-12016150D02*
X10176015Y-12016150D01*
X10128396Y-11949484D02*
X10128396Y-12120912D01*
X10128396Y-12120912D02*
X10137920Y-12139960D01*
X10137920Y-12139960D02*
X10156968Y-12149484D01*
X10156968Y-12149484D02*
X10176015Y-12149484D01*
X10318873Y-12139960D02*
X10299825Y-12149484D01*
X10299825Y-12149484D02*
X10261730Y-12149484D01*
X10261730Y-12149484D02*
X10242682Y-12139960D01*
X10242682Y-12139960D02*
X10233158Y-12120912D01*
X10233158Y-12120912D02*
X10233158Y-12044722D01*
X10233158Y-12044722D02*
X10242682Y-12025674D01*
X10242682Y-12025674D02*
X10261730Y-12016150D01*
X10261730Y-12016150D02*
X10299825Y-12016150D01*
X10299825Y-12016150D02*
X10318873Y-12025674D01*
X10318873Y-12025674D02*
X10328396Y-12044722D01*
X10328396Y-12044722D02*
X10328396Y-12063769D01*
X10328396Y-12063769D02*
X10233158Y-12082817D01*
X10499825Y-12149484D02*
X10499825Y-11949484D01*
X10499825Y-12139960D02*
X10480777Y-12149484D01*
X10480777Y-12149484D02*
X10442682Y-12149484D01*
X10442682Y-12149484D02*
X10423635Y-12139960D01*
X10423635Y-12139960D02*
X10414111Y-12130436D01*
X10414111Y-12130436D02*
X10404587Y-12111388D01*
X10404587Y-12111388D02*
X10404587Y-12054246D01*
X10404587Y-12054246D02*
X10414111Y-12035198D01*
X10414111Y-12035198D02*
X10423635Y-12025674D01*
X10423635Y-12025674D02*
X10442682Y-12016150D01*
X10442682Y-12016150D02*
X10480777Y-12016150D01*
X10480777Y-12016150D02*
X10499825Y-12025674D01*
X10576016Y-12225674D02*
X10585539Y-12216150D01*
X10585539Y-12216150D02*
X10604587Y-12187579D01*
X10604587Y-12187579D02*
X10614111Y-12168531D01*
X10614111Y-12168531D02*
X10623635Y-12139960D01*
X10623635Y-12139960D02*
X10633158Y-12092341D01*
X10633158Y-12092341D02*
X10633158Y-12054246D01*
X10633158Y-12054246D02*
X10623635Y-12006627D01*
X10623635Y-12006627D02*
X10614111Y-11978055D01*
X10614111Y-11978055D02*
X10604587Y-11959008D01*
X10604587Y-11959008D02*
X10585539Y-11930436D01*
X10585539Y-11930436D02*
X10576016Y-11920912D01*
X3720000Y-12278000D02*
X3720000Y-12478000D01*
X3620000Y-12378000D02*
X3820000Y-12378000D01*
X4061729Y-12269484D02*
X4185539Y-12269484D01*
X4185539Y-12269484D02*
X4118872Y-12345674D01*
X4118872Y-12345674D02*
X4147443Y-12345674D01*
X4147443Y-12345674D02*
X4166491Y-12355198D01*
X4166491Y-12355198D02*
X4176015Y-12364722D01*
X4176015Y-12364722D02*
X4185539Y-12383769D01*
X4185539Y-12383769D02*
X4185539Y-12431388D01*
X4185539Y-12431388D02*
X4176015Y-12450436D01*
X4176015Y-12450436D02*
X4166491Y-12459960D01*
X4166491Y-12459960D02*
X4147443Y-12469484D01*
X4147443Y-12469484D02*
X4090301Y-12469484D01*
X4090301Y-12469484D02*
X4071253Y-12459960D01*
X4071253Y-12459960D02*
X4061729Y-12450436D01*
X4271253Y-12450436D02*
X4280777Y-12459960D01*
X4280777Y-12459960D02*
X4271253Y-12469484D01*
X4271253Y-12469484D02*
X4261729Y-12459960D01*
X4261729Y-12459960D02*
X4271253Y-12450436D01*
X4271253Y-12450436D02*
X4271253Y-12469484D01*
X4404586Y-12269484D02*
X4423634Y-12269484D01*
X4423634Y-12269484D02*
X4442682Y-12279008D01*
X4442682Y-12279008D02*
X4452205Y-12288531D01*
X4452205Y-12288531D02*
X4461729Y-12307579D01*
X4461729Y-12307579D02*
X4471253Y-12345674D01*
X4471253Y-12345674D02*
X4471253Y-12393293D01*
X4471253Y-12393293D02*
X4461729Y-12431388D01*
X4461729Y-12431388D02*
X4452205Y-12450436D01*
X4452205Y-12450436D02*
X4442682Y-12459960D01*
X4442682Y-12459960D02*
X4423634Y-12469484D01*
X4423634Y-12469484D02*
X4404586Y-12469484D01*
X4404586Y-12469484D02*
X4385539Y-12459960D01*
X4385539Y-12459960D02*
X4376015Y-12450436D01*
X4376015Y-12450436D02*
X4366491Y-12431388D01*
X4366491Y-12431388D02*
X4356967Y-12393293D01*
X4356967Y-12393293D02*
X4356967Y-12345674D01*
X4356967Y-12345674D02*
X4366491Y-12307579D01*
X4366491Y-12307579D02*
X4376015Y-12288531D01*
X4376015Y-12288531D02*
X4385539Y-12279008D01*
X4385539Y-12279008D02*
X4404586Y-12269484D01*
X4595063Y-12269484D02*
X4614110Y-12269484D01*
X4614110Y-12269484D02*
X4633158Y-12279008D01*
X4633158Y-12279008D02*
X4642682Y-12288531D01*
X4642682Y-12288531D02*
X4652205Y-12307579D01*
X4652205Y-12307579D02*
X4661729Y-12345674D01*
X4661729Y-12345674D02*
X4661729Y-12393293D01*
X4661729Y-12393293D02*
X4652205Y-12431388D01*
X4652205Y-12431388D02*
X4642682Y-12450436D01*
X4642682Y-12450436D02*
X4633158Y-12459960D01*
X4633158Y-12459960D02*
X4614110Y-12469484D01*
X4614110Y-12469484D02*
X4595063Y-12469484D01*
X4595063Y-12469484D02*
X4576015Y-12459960D01*
X4576015Y-12459960D02*
X4566491Y-12450436D01*
X4566491Y-12450436D02*
X4556967Y-12431388D01*
X4556967Y-12431388D02*
X4547444Y-12393293D01*
X4547444Y-12393293D02*
X4547444Y-12345674D01*
X4547444Y-12345674D02*
X4556967Y-12307579D01*
X4556967Y-12307579D02*
X4566491Y-12288531D01*
X4566491Y-12288531D02*
X4576015Y-12279008D01*
X4576015Y-12279008D02*
X4595063Y-12269484D01*
X4785539Y-12269484D02*
X4804586Y-12269484D01*
X4804586Y-12269484D02*
X4823634Y-12279008D01*
X4823634Y-12279008D02*
X4833158Y-12288531D01*
X4833158Y-12288531D02*
X4842682Y-12307579D01*
X4842682Y-12307579D02*
X4852205Y-12345674D01*
X4852205Y-12345674D02*
X4852205Y-12393293D01*
X4852205Y-12393293D02*
X4842682Y-12431388D01*
X4842682Y-12431388D02*
X4833158Y-12450436D01*
X4833158Y-12450436D02*
X4823634Y-12459960D01*
X4823634Y-12459960D02*
X4804586Y-12469484D01*
X4804586Y-12469484D02*
X4785539Y-12469484D01*
X4785539Y-12469484D02*
X4766491Y-12459960D01*
X4766491Y-12459960D02*
X4756967Y-12450436D01*
X4756967Y-12450436D02*
X4747444Y-12431388D01*
X4747444Y-12431388D02*
X4737920Y-12393293D01*
X4737920Y-12393293D02*
X4737920Y-12345674D01*
X4737920Y-12345674D02*
X4747444Y-12307579D01*
X4747444Y-12307579D02*
X4756967Y-12288531D01*
X4756967Y-12288531D02*
X4766491Y-12279008D01*
X4766491Y-12279008D02*
X4785539Y-12269484D01*
X4937920Y-12469484D02*
X4937920Y-12336150D01*
X4937920Y-12355198D02*
X4947444Y-12345674D01*
X4947444Y-12345674D02*
X4966491Y-12336150D01*
X4966491Y-12336150D02*
X4995063Y-12336150D01*
X4995063Y-12336150D02*
X5014110Y-12345674D01*
X5014110Y-12345674D02*
X5023634Y-12364722D01*
X5023634Y-12364722D02*
X5023634Y-12469484D01*
X5023634Y-12364722D02*
X5033158Y-12345674D01*
X5033158Y-12345674D02*
X5052205Y-12336150D01*
X5052205Y-12336150D02*
X5080777Y-12336150D01*
X5080777Y-12336150D02*
X5099825Y-12345674D01*
X5099825Y-12345674D02*
X5109348Y-12364722D01*
X5109348Y-12364722D02*
X5109348Y-12469484D01*
X5204586Y-12469484D02*
X5204586Y-12336150D01*
X5204586Y-12355198D02*
X5214110Y-12345674D01*
X5214110Y-12345674D02*
X5233158Y-12336150D01*
X5233158Y-12336150D02*
X5261729Y-12336150D01*
X5261729Y-12336150D02*
X5280777Y-12345674D01*
X5280777Y-12345674D02*
X5290301Y-12364722D01*
X5290301Y-12364722D02*
X5290301Y-12469484D01*
X5290301Y-12364722D02*
X5299825Y-12345674D01*
X5299825Y-12345674D02*
X5318872Y-12336150D01*
X5318872Y-12336150D02*
X5347444Y-12336150D01*
X5347444Y-12336150D02*
X5366491Y-12345674D01*
X5366491Y-12345674D02*
X5376015Y-12364722D01*
X5376015Y-12364722D02*
X5376015Y-12469484D01*
X5766491Y-12259960D02*
X5595063Y-12517103D01*
X6023634Y-12269484D02*
X6042682Y-12269484D01*
X6042682Y-12269484D02*
X6061729Y-12279008D01*
X6061729Y-12279008D02*
X6071253Y-12288531D01*
X6071253Y-12288531D02*
X6080777Y-12307579D01*
X6080777Y-12307579D02*
X6090301Y-12345674D01*
X6090301Y-12345674D02*
X6090301Y-12393293D01*
X6090301Y-12393293D02*
X6080777Y-12431388D01*
X6080777Y-12431388D02*
X6071253Y-12450436D01*
X6071253Y-12450436D02*
X6061729Y-12459960D01*
X6061729Y-12459960D02*
X6042682Y-12469484D01*
X6042682Y-12469484D02*
X6023634Y-12469484D01*
X6023634Y-12469484D02*
X6004586Y-12459960D01*
X6004586Y-12459960D02*
X5995063Y-12450436D01*
X5995063Y-12450436D02*
X5985539Y-12431388D01*
X5985539Y-12431388D02*
X5976015Y-12393293D01*
X5976015Y-12393293D02*
X5976015Y-12345674D01*
X5976015Y-12345674D02*
X5985539Y-12307579D01*
X5985539Y-12307579D02*
X5995063Y-12288531D01*
X5995063Y-12288531D02*
X6004586Y-12279008D01*
X6004586Y-12279008D02*
X6023634Y-12269484D01*
X6176015Y-12450436D02*
X6185539Y-12459960D01*
X6185539Y-12459960D02*
X6176015Y-12469484D01*
X6176015Y-12469484D02*
X6166491Y-12459960D01*
X6166491Y-12459960D02*
X6176015Y-12450436D01*
X6176015Y-12450436D02*
X6176015Y-12469484D01*
X6376015Y-12469484D02*
X6261729Y-12469484D01*
X6318872Y-12469484D02*
X6318872Y-12269484D01*
X6318872Y-12269484D02*
X6299825Y-12298055D01*
X6299825Y-12298055D02*
X6280777Y-12317103D01*
X6280777Y-12317103D02*
X6261729Y-12326627D01*
X6566491Y-12469484D02*
X6452206Y-12469484D01*
X6509348Y-12469484D02*
X6509348Y-12269484D01*
X6509348Y-12269484D02*
X6490301Y-12298055D01*
X6490301Y-12298055D02*
X6471253Y-12317103D01*
X6471253Y-12317103D02*
X6452206Y-12326627D01*
X6680777Y-12355198D02*
X6661729Y-12345674D01*
X6661729Y-12345674D02*
X6652206Y-12336150D01*
X6652206Y-12336150D02*
X6642682Y-12317103D01*
X6642682Y-12317103D02*
X6642682Y-12307579D01*
X6642682Y-12307579D02*
X6652206Y-12288531D01*
X6652206Y-12288531D02*
X6661729Y-12279008D01*
X6661729Y-12279008D02*
X6680777Y-12269484D01*
X6680777Y-12269484D02*
X6718872Y-12269484D01*
X6718872Y-12269484D02*
X6737920Y-12279008D01*
X6737920Y-12279008D02*
X6747444Y-12288531D01*
X6747444Y-12288531D02*
X6756967Y-12307579D01*
X6756967Y-12307579D02*
X6756967Y-12317103D01*
X6756967Y-12317103D02*
X6747444Y-12336150D01*
X6747444Y-12336150D02*
X6737920Y-12345674D01*
X6737920Y-12345674D02*
X6718872Y-12355198D01*
X6718872Y-12355198D02*
X6680777Y-12355198D01*
X6680777Y-12355198D02*
X6661729Y-12364722D01*
X6661729Y-12364722D02*
X6652206Y-12374246D01*
X6652206Y-12374246D02*
X6642682Y-12393293D01*
X6642682Y-12393293D02*
X6642682Y-12431388D01*
X6642682Y-12431388D02*
X6652206Y-12450436D01*
X6652206Y-12450436D02*
X6661729Y-12459960D01*
X6661729Y-12459960D02*
X6680777Y-12469484D01*
X6680777Y-12469484D02*
X6718872Y-12469484D01*
X6718872Y-12469484D02*
X6737920Y-12459960D01*
X6737920Y-12459960D02*
X6747444Y-12450436D01*
X6747444Y-12450436D02*
X6756967Y-12431388D01*
X6756967Y-12431388D02*
X6756967Y-12393293D01*
X6756967Y-12393293D02*
X6747444Y-12374246D01*
X6747444Y-12374246D02*
X6737920Y-12364722D01*
X6737920Y-12364722D02*
X6718872Y-12355198D01*
X6947444Y-12469484D02*
X6833158Y-12469484D01*
X6890301Y-12469484D02*
X6890301Y-12269484D01*
X6890301Y-12269484D02*
X6871253Y-12298055D01*
X6871253Y-12298055D02*
X6852206Y-12317103D01*
X6852206Y-12317103D02*
X6833158Y-12326627D01*
X7023634Y-12269484D02*
X7023634Y-12307579D01*
X7099825Y-12269484D02*
X7099825Y-12307579D01*
X7395063Y-12545674D02*
X7385539Y-12536150D01*
X7385539Y-12536150D02*
X7366491Y-12507579D01*
X7366491Y-12507579D02*
X7356968Y-12488531D01*
X7356968Y-12488531D02*
X7347444Y-12459960D01*
X7347444Y-12459960D02*
X7337920Y-12412341D01*
X7337920Y-12412341D02*
X7337920Y-12374246D01*
X7337920Y-12374246D02*
X7347444Y-12326627D01*
X7347444Y-12326627D02*
X7356968Y-12298055D01*
X7356968Y-12298055D02*
X7366491Y-12279008D01*
X7366491Y-12279008D02*
X7385539Y-12250436D01*
X7385539Y-12250436D02*
X7395063Y-12240912D01*
X7576015Y-12469484D02*
X7461729Y-12469484D01*
X7518872Y-12469484D02*
X7518872Y-12269484D01*
X7518872Y-12269484D02*
X7499825Y-12298055D01*
X7499825Y-12298055D02*
X7480777Y-12317103D01*
X7480777Y-12317103D02*
X7461729Y-12326627D01*
X7747444Y-12269484D02*
X7709348Y-12269484D01*
X7709348Y-12269484D02*
X7690301Y-12279008D01*
X7690301Y-12279008D02*
X7680777Y-12288531D01*
X7680777Y-12288531D02*
X7661729Y-12317103D01*
X7661729Y-12317103D02*
X7652206Y-12355198D01*
X7652206Y-12355198D02*
X7652206Y-12431388D01*
X7652206Y-12431388D02*
X7661729Y-12450436D01*
X7661729Y-12450436D02*
X7671253Y-12459960D01*
X7671253Y-12459960D02*
X7690301Y-12469484D01*
X7690301Y-12469484D02*
X7728396Y-12469484D01*
X7728396Y-12469484D02*
X7747444Y-12459960D01*
X7747444Y-12459960D02*
X7756968Y-12450436D01*
X7756968Y-12450436D02*
X7766491Y-12431388D01*
X7766491Y-12431388D02*
X7766491Y-12383769D01*
X7766491Y-12383769D02*
X7756968Y-12364722D01*
X7756968Y-12364722D02*
X7747444Y-12355198D01*
X7747444Y-12355198D02*
X7728396Y-12345674D01*
X7728396Y-12345674D02*
X7690301Y-12345674D01*
X7690301Y-12345674D02*
X7671253Y-12355198D01*
X7671253Y-12355198D02*
X7661729Y-12364722D01*
X7661729Y-12364722D02*
X7652206Y-12383769D01*
X8004587Y-12469484D02*
X8004587Y-12269484D01*
X8090301Y-12469484D02*
X8090301Y-12364722D01*
X8090301Y-12364722D02*
X8080777Y-12345674D01*
X8080777Y-12345674D02*
X8061730Y-12336150D01*
X8061730Y-12336150D02*
X8033158Y-12336150D01*
X8033158Y-12336150D02*
X8014110Y-12345674D01*
X8014110Y-12345674D02*
X8004587Y-12355198D01*
X8214110Y-12469484D02*
X8195063Y-12459960D01*
X8195063Y-12459960D02*
X8185539Y-12450436D01*
X8185539Y-12450436D02*
X8176015Y-12431388D01*
X8176015Y-12431388D02*
X8176015Y-12374246D01*
X8176015Y-12374246D02*
X8185539Y-12355198D01*
X8185539Y-12355198D02*
X8195063Y-12345674D01*
X8195063Y-12345674D02*
X8214110Y-12336150D01*
X8214110Y-12336150D02*
X8242682Y-12336150D01*
X8242682Y-12336150D02*
X8261730Y-12345674D01*
X8261730Y-12345674D02*
X8271253Y-12355198D01*
X8271253Y-12355198D02*
X8280777Y-12374246D01*
X8280777Y-12374246D02*
X8280777Y-12431388D01*
X8280777Y-12431388D02*
X8271253Y-12450436D01*
X8271253Y-12450436D02*
X8261730Y-12459960D01*
X8261730Y-12459960D02*
X8242682Y-12469484D01*
X8242682Y-12469484D02*
X8214110Y-12469484D01*
X8395063Y-12469484D02*
X8376015Y-12459960D01*
X8376015Y-12459960D02*
X8366491Y-12440912D01*
X8366491Y-12440912D02*
X8366491Y-12269484D01*
X8547444Y-12459960D02*
X8528396Y-12469484D01*
X8528396Y-12469484D02*
X8490301Y-12469484D01*
X8490301Y-12469484D02*
X8471253Y-12459960D01*
X8471253Y-12459960D02*
X8461730Y-12440912D01*
X8461730Y-12440912D02*
X8461730Y-12364722D01*
X8461730Y-12364722D02*
X8471253Y-12345674D01*
X8471253Y-12345674D02*
X8490301Y-12336150D01*
X8490301Y-12336150D02*
X8528396Y-12336150D01*
X8528396Y-12336150D02*
X8547444Y-12345674D01*
X8547444Y-12345674D02*
X8556968Y-12364722D01*
X8556968Y-12364722D02*
X8556968Y-12383769D01*
X8556968Y-12383769D02*
X8461730Y-12402817D01*
X8633158Y-12459960D02*
X8652206Y-12469484D01*
X8652206Y-12469484D02*
X8690301Y-12469484D01*
X8690301Y-12469484D02*
X8709349Y-12459960D01*
X8709349Y-12459960D02*
X8718873Y-12440912D01*
X8718873Y-12440912D02*
X8718873Y-12431388D01*
X8718873Y-12431388D02*
X8709349Y-12412341D01*
X8709349Y-12412341D02*
X8690301Y-12402817D01*
X8690301Y-12402817D02*
X8661730Y-12402817D01*
X8661730Y-12402817D02*
X8642682Y-12393293D01*
X8642682Y-12393293D02*
X8633158Y-12374246D01*
X8633158Y-12374246D02*
X8633158Y-12364722D01*
X8633158Y-12364722D02*
X8642682Y-12345674D01*
X8642682Y-12345674D02*
X8661730Y-12336150D01*
X8661730Y-12336150D02*
X8690301Y-12336150D01*
X8690301Y-12336150D02*
X8709349Y-12345674D01*
X8785539Y-12545674D02*
X8795063Y-12536150D01*
X8795063Y-12536150D02*
X8814111Y-12507579D01*
X8814111Y-12507579D02*
X8823634Y-12488531D01*
X8823634Y-12488531D02*
X8833158Y-12459960D01*
X8833158Y-12459960D02*
X8842682Y-12412341D01*
X8842682Y-12412341D02*
X8842682Y-12374246D01*
X8842682Y-12374246D02*
X8833158Y-12326627D01*
X8833158Y-12326627D02*
X8823634Y-12298055D01*
X8823634Y-12298055D02*
X8814111Y-12279008D01*
X8814111Y-12279008D02*
X8795063Y-12250436D01*
X8795063Y-12250436D02*
X8785539Y-12240912D01*
X9147444Y-12545674D02*
X9137920Y-12536150D01*
X9137920Y-12536150D02*
X9118873Y-12507579D01*
X9118873Y-12507579D02*
X9109349Y-12488531D01*
X9109349Y-12488531D02*
X9099825Y-12459960D01*
X9099825Y-12459960D02*
X9090301Y-12412341D01*
X9090301Y-12412341D02*
X9090301Y-12374246D01*
X9090301Y-12374246D02*
X9099825Y-12326627D01*
X9099825Y-12326627D02*
X9109349Y-12298055D01*
X9109349Y-12298055D02*
X9118873Y-12279008D01*
X9118873Y-12279008D02*
X9137920Y-12250436D01*
X9137920Y-12250436D02*
X9147444Y-12240912D01*
X9223634Y-12336150D02*
X9223634Y-12469484D01*
X9223634Y-12355198D02*
X9233158Y-12345674D01*
X9233158Y-12345674D02*
X9252206Y-12336150D01*
X9252206Y-12336150D02*
X9280777Y-12336150D01*
X9280777Y-12336150D02*
X9299825Y-12345674D01*
X9299825Y-12345674D02*
X9309349Y-12364722D01*
X9309349Y-12364722D02*
X9309349Y-12469484D01*
X9433158Y-12469484D02*
X9414111Y-12459960D01*
X9414111Y-12459960D02*
X9404587Y-12450436D01*
X9404587Y-12450436D02*
X9395063Y-12431388D01*
X9395063Y-12431388D02*
X9395063Y-12374246D01*
X9395063Y-12374246D02*
X9404587Y-12355198D01*
X9404587Y-12355198D02*
X9414111Y-12345674D01*
X9414111Y-12345674D02*
X9433158Y-12336150D01*
X9433158Y-12336150D02*
X9461730Y-12336150D01*
X9461730Y-12336150D02*
X9480777Y-12345674D01*
X9480777Y-12345674D02*
X9490301Y-12355198D01*
X9490301Y-12355198D02*
X9499825Y-12374246D01*
X9499825Y-12374246D02*
X9499825Y-12431388D01*
X9499825Y-12431388D02*
X9490301Y-12450436D01*
X9490301Y-12450436D02*
X9480777Y-12459960D01*
X9480777Y-12459960D02*
X9461730Y-12469484D01*
X9461730Y-12469484D02*
X9433158Y-12469484D01*
X9556968Y-12336150D02*
X9633158Y-12336150D01*
X9585539Y-12269484D02*
X9585539Y-12440912D01*
X9585539Y-12440912D02*
X9595063Y-12459960D01*
X9595063Y-12459960D02*
X9614111Y-12469484D01*
X9614111Y-12469484D02*
X9633158Y-12469484D01*
X9852206Y-12336150D02*
X9852206Y-12536150D01*
X9852206Y-12345674D02*
X9871254Y-12336150D01*
X9871254Y-12336150D02*
X9909349Y-12336150D01*
X9909349Y-12336150D02*
X9928396Y-12345674D01*
X9928396Y-12345674D02*
X9937920Y-12355198D01*
X9937920Y-12355198D02*
X9947444Y-12374246D01*
X9947444Y-12374246D02*
X9947444Y-12431388D01*
X9947444Y-12431388D02*
X9937920Y-12450436D01*
X9937920Y-12450436D02*
X9928396Y-12459960D01*
X9928396Y-12459960D02*
X9909349Y-12469484D01*
X9909349Y-12469484D02*
X9871254Y-12469484D01*
X9871254Y-12469484D02*
X9852206Y-12459960D01*
X10061730Y-12469484D02*
X10042682Y-12459960D01*
X10042682Y-12459960D02*
X10033158Y-12440912D01*
X10033158Y-12440912D02*
X10033158Y-12269484D01*
X10223635Y-12469484D02*
X10223635Y-12364722D01*
X10223635Y-12364722D02*
X10214111Y-12345674D01*
X10214111Y-12345674D02*
X10195063Y-12336150D01*
X10195063Y-12336150D02*
X10156968Y-12336150D01*
X10156968Y-12336150D02*
X10137920Y-12345674D01*
X10223635Y-12459960D02*
X10204587Y-12469484D01*
X10204587Y-12469484D02*
X10156968Y-12469484D01*
X10156968Y-12469484D02*
X10137920Y-12459960D01*
X10137920Y-12459960D02*
X10128396Y-12440912D01*
X10128396Y-12440912D02*
X10128396Y-12421865D01*
X10128396Y-12421865D02*
X10137920Y-12402817D01*
X10137920Y-12402817D02*
X10156968Y-12393293D01*
X10156968Y-12393293D02*
X10204587Y-12393293D01*
X10204587Y-12393293D02*
X10223635Y-12383769D01*
X10290301Y-12336150D02*
X10366492Y-12336150D01*
X10318873Y-12269484D02*
X10318873Y-12440912D01*
X10318873Y-12440912D02*
X10328396Y-12459960D01*
X10328396Y-12459960D02*
X10347444Y-12469484D01*
X10347444Y-12469484D02*
X10366492Y-12469484D01*
X10509349Y-12459960D02*
X10490301Y-12469484D01*
X10490301Y-12469484D02*
X10452206Y-12469484D01*
X10452206Y-12469484D02*
X10433158Y-12459960D01*
X10433158Y-12459960D02*
X10423635Y-12440912D01*
X10423635Y-12440912D02*
X10423635Y-12364722D01*
X10423635Y-12364722D02*
X10433158Y-12345674D01*
X10433158Y-12345674D02*
X10452206Y-12336150D01*
X10452206Y-12336150D02*
X10490301Y-12336150D01*
X10490301Y-12336150D02*
X10509349Y-12345674D01*
X10509349Y-12345674D02*
X10518873Y-12364722D01*
X10518873Y-12364722D02*
X10518873Y-12383769D01*
X10518873Y-12383769D02*
X10423635Y-12402817D01*
X10690301Y-12469484D02*
X10690301Y-12269484D01*
X10690301Y-12459960D02*
X10671254Y-12469484D01*
X10671254Y-12469484D02*
X10633158Y-12469484D01*
X10633158Y-12469484D02*
X10614111Y-12459960D01*
X10614111Y-12459960D02*
X10604587Y-12450436D01*
X10604587Y-12450436D02*
X10595063Y-12431388D01*
X10595063Y-12431388D02*
X10595063Y-12374246D01*
X10595063Y-12374246D02*
X10604587Y-12355198D01*
X10604587Y-12355198D02*
X10614111Y-12345674D01*
X10614111Y-12345674D02*
X10633158Y-12336150D01*
X10633158Y-12336150D02*
X10671254Y-12336150D01*
X10671254Y-12336150D02*
X10690301Y-12345674D01*
X10766492Y-12545674D02*
X10776016Y-12536150D01*
X10776016Y-12536150D02*
X10795063Y-12507579D01*
X10795063Y-12507579D02*
X10804587Y-12488531D01*
X10804587Y-12488531D02*
X10814111Y-12459960D01*
X10814111Y-12459960D02*
X10823635Y-12412341D01*
X10823635Y-12412341D02*
X10823635Y-12374246D01*
X10823635Y-12374246D02*
X10814111Y-12326627D01*
X10814111Y-12326627D02*
X10804587Y-12298055D01*
X10804587Y-12298055D02*
X10795063Y-12279008D01*
X10795063Y-12279008D02*
X10776016Y-12250436D01*
X10776016Y-12250436D02*
X10766492Y-12240912D01*
X3790711Y-12768711D02*
X3790711Y-12627289D01*
X3649289Y-12627289D01*
X3649289Y-12768711D01*
X3790711Y-12768711D01*
X4166491Y-12656150D02*
X4166491Y-12789484D01*
X4118872Y-12579960D02*
X4071253Y-12722817D01*
X4071253Y-12722817D02*
X4195063Y-12722817D01*
X4271253Y-12770436D02*
X4280777Y-12779960D01*
X4280777Y-12779960D02*
X4271253Y-12789484D01*
X4271253Y-12789484D02*
X4261729Y-12779960D01*
X4261729Y-12779960D02*
X4271253Y-12770436D01*
X4271253Y-12770436D02*
X4271253Y-12789484D01*
X4404586Y-12589484D02*
X4423634Y-12589484D01*
X4423634Y-12589484D02*
X4442682Y-12599008D01*
X4442682Y-12599008D02*
X4452205Y-12608531D01*
X4452205Y-12608531D02*
X4461729Y-12627579D01*
X4461729Y-12627579D02*
X4471253Y-12665674D01*
X4471253Y-12665674D02*
X4471253Y-12713293D01*
X4471253Y-12713293D02*
X4461729Y-12751388D01*
X4461729Y-12751388D02*
X4452205Y-12770436D01*
X4452205Y-12770436D02*
X4442682Y-12779960D01*
X4442682Y-12779960D02*
X4423634Y-12789484D01*
X4423634Y-12789484D02*
X4404586Y-12789484D01*
X4404586Y-12789484D02*
X4385539Y-12779960D01*
X4385539Y-12779960D02*
X4376015Y-12770436D01*
X4376015Y-12770436D02*
X4366491Y-12751388D01*
X4366491Y-12751388D02*
X4356967Y-12713293D01*
X4356967Y-12713293D02*
X4356967Y-12665674D01*
X4356967Y-12665674D02*
X4366491Y-12627579D01*
X4366491Y-12627579D02*
X4376015Y-12608531D01*
X4376015Y-12608531D02*
X4385539Y-12599008D01*
X4385539Y-12599008D02*
X4404586Y-12589484D01*
X4595063Y-12589484D02*
X4614110Y-12589484D01*
X4614110Y-12589484D02*
X4633158Y-12599008D01*
X4633158Y-12599008D02*
X4642682Y-12608531D01*
X4642682Y-12608531D02*
X4652205Y-12627579D01*
X4652205Y-12627579D02*
X4661729Y-12665674D01*
X4661729Y-12665674D02*
X4661729Y-12713293D01*
X4661729Y-12713293D02*
X4652205Y-12751388D01*
X4652205Y-12751388D02*
X4642682Y-12770436D01*
X4642682Y-12770436D02*
X4633158Y-12779960D01*
X4633158Y-12779960D02*
X4614110Y-12789484D01*
X4614110Y-12789484D02*
X4595063Y-12789484D01*
X4595063Y-12789484D02*
X4576015Y-12779960D01*
X4576015Y-12779960D02*
X4566491Y-12770436D01*
X4566491Y-12770436D02*
X4556967Y-12751388D01*
X4556967Y-12751388D02*
X4547444Y-12713293D01*
X4547444Y-12713293D02*
X4547444Y-12665674D01*
X4547444Y-12665674D02*
X4556967Y-12627579D01*
X4556967Y-12627579D02*
X4566491Y-12608531D01*
X4566491Y-12608531D02*
X4576015Y-12599008D01*
X4576015Y-12599008D02*
X4595063Y-12589484D01*
X4785539Y-12589484D02*
X4804586Y-12589484D01*
X4804586Y-12589484D02*
X4823634Y-12599008D01*
X4823634Y-12599008D02*
X4833158Y-12608531D01*
X4833158Y-12608531D02*
X4842682Y-12627579D01*
X4842682Y-12627579D02*
X4852205Y-12665674D01*
X4852205Y-12665674D02*
X4852205Y-12713293D01*
X4852205Y-12713293D02*
X4842682Y-12751388D01*
X4842682Y-12751388D02*
X4833158Y-12770436D01*
X4833158Y-12770436D02*
X4823634Y-12779960D01*
X4823634Y-12779960D02*
X4804586Y-12789484D01*
X4804586Y-12789484D02*
X4785539Y-12789484D01*
X4785539Y-12789484D02*
X4766491Y-12779960D01*
X4766491Y-12779960D02*
X4756967Y-12770436D01*
X4756967Y-12770436D02*
X4747444Y-12751388D01*
X4747444Y-12751388D02*
X4737920Y-12713293D01*
X4737920Y-12713293D02*
X4737920Y-12665674D01*
X4737920Y-12665674D02*
X4747444Y-12627579D01*
X4747444Y-12627579D02*
X4756967Y-12608531D01*
X4756967Y-12608531D02*
X4766491Y-12599008D01*
X4766491Y-12599008D02*
X4785539Y-12589484D01*
X4937920Y-12789484D02*
X4937920Y-12656150D01*
X4937920Y-12675198D02*
X4947444Y-12665674D01*
X4947444Y-12665674D02*
X4966491Y-12656150D01*
X4966491Y-12656150D02*
X4995063Y-12656150D01*
X4995063Y-12656150D02*
X5014110Y-12665674D01*
X5014110Y-12665674D02*
X5023634Y-12684722D01*
X5023634Y-12684722D02*
X5023634Y-12789484D01*
X5023634Y-12684722D02*
X5033158Y-12665674D01*
X5033158Y-12665674D02*
X5052205Y-12656150D01*
X5052205Y-12656150D02*
X5080777Y-12656150D01*
X5080777Y-12656150D02*
X5099825Y-12665674D01*
X5099825Y-12665674D02*
X5109348Y-12684722D01*
X5109348Y-12684722D02*
X5109348Y-12789484D01*
X5204586Y-12789484D02*
X5204586Y-12656150D01*
X5204586Y-12675198D02*
X5214110Y-12665674D01*
X5214110Y-12665674D02*
X5233158Y-12656150D01*
X5233158Y-12656150D02*
X5261729Y-12656150D01*
X5261729Y-12656150D02*
X5280777Y-12665674D01*
X5280777Y-12665674D02*
X5290301Y-12684722D01*
X5290301Y-12684722D02*
X5290301Y-12789484D01*
X5290301Y-12684722D02*
X5299825Y-12665674D01*
X5299825Y-12665674D02*
X5318872Y-12656150D01*
X5318872Y-12656150D02*
X5347444Y-12656150D01*
X5347444Y-12656150D02*
X5366491Y-12665674D01*
X5366491Y-12665674D02*
X5376015Y-12684722D01*
X5376015Y-12684722D02*
X5376015Y-12789484D01*
X5766491Y-12579960D02*
X5595063Y-12837103D01*
X6023634Y-12589484D02*
X6042682Y-12589484D01*
X6042682Y-12589484D02*
X6061729Y-12599008D01*
X6061729Y-12599008D02*
X6071253Y-12608531D01*
X6071253Y-12608531D02*
X6080777Y-12627579D01*
X6080777Y-12627579D02*
X6090301Y-12665674D01*
X6090301Y-12665674D02*
X6090301Y-12713293D01*
X6090301Y-12713293D02*
X6080777Y-12751388D01*
X6080777Y-12751388D02*
X6071253Y-12770436D01*
X6071253Y-12770436D02*
X6061729Y-12779960D01*
X6061729Y-12779960D02*
X6042682Y-12789484D01*
X6042682Y-12789484D02*
X6023634Y-12789484D01*
X6023634Y-12789484D02*
X6004586Y-12779960D01*
X6004586Y-12779960D02*
X5995063Y-12770436D01*
X5995063Y-12770436D02*
X5985539Y-12751388D01*
X5985539Y-12751388D02*
X5976015Y-12713293D01*
X5976015Y-12713293D02*
X5976015Y-12665674D01*
X5976015Y-12665674D02*
X5985539Y-12627579D01*
X5985539Y-12627579D02*
X5995063Y-12608531D01*
X5995063Y-12608531D02*
X6004586Y-12599008D01*
X6004586Y-12599008D02*
X6023634Y-12589484D01*
X6176015Y-12770436D02*
X6185539Y-12779960D01*
X6185539Y-12779960D02*
X6176015Y-12789484D01*
X6176015Y-12789484D02*
X6166491Y-12779960D01*
X6166491Y-12779960D02*
X6176015Y-12770436D01*
X6176015Y-12770436D02*
X6176015Y-12789484D01*
X6376015Y-12789484D02*
X6261729Y-12789484D01*
X6318872Y-12789484D02*
X6318872Y-12589484D01*
X6318872Y-12589484D02*
X6299825Y-12618055D01*
X6299825Y-12618055D02*
X6280777Y-12637103D01*
X6280777Y-12637103D02*
X6261729Y-12646627D01*
X6556967Y-12589484D02*
X6461729Y-12589484D01*
X6461729Y-12589484D02*
X6452206Y-12684722D01*
X6452206Y-12684722D02*
X6461729Y-12675198D01*
X6461729Y-12675198D02*
X6480777Y-12665674D01*
X6480777Y-12665674D02*
X6528396Y-12665674D01*
X6528396Y-12665674D02*
X6547444Y-12675198D01*
X6547444Y-12675198D02*
X6556967Y-12684722D01*
X6556967Y-12684722D02*
X6566491Y-12703769D01*
X6566491Y-12703769D02*
X6566491Y-12751388D01*
X6566491Y-12751388D02*
X6556967Y-12770436D01*
X6556967Y-12770436D02*
X6547444Y-12779960D01*
X6547444Y-12779960D02*
X6528396Y-12789484D01*
X6528396Y-12789484D02*
X6480777Y-12789484D01*
X6480777Y-12789484D02*
X6461729Y-12779960D01*
X6461729Y-12779960D02*
X6452206Y-12770436D01*
X6633158Y-12589484D02*
X6766491Y-12589484D01*
X6766491Y-12589484D02*
X6680777Y-12789484D01*
X6937920Y-12589484D02*
X6842682Y-12589484D01*
X6842682Y-12589484D02*
X6833158Y-12684722D01*
X6833158Y-12684722D02*
X6842682Y-12675198D01*
X6842682Y-12675198D02*
X6861729Y-12665674D01*
X6861729Y-12665674D02*
X6909348Y-12665674D01*
X6909348Y-12665674D02*
X6928396Y-12675198D01*
X6928396Y-12675198D02*
X6937920Y-12684722D01*
X6937920Y-12684722D02*
X6947444Y-12703769D01*
X6947444Y-12703769D02*
X6947444Y-12751388D01*
X6947444Y-12751388D02*
X6937920Y-12770436D01*
X6937920Y-12770436D02*
X6928396Y-12779960D01*
X6928396Y-12779960D02*
X6909348Y-12789484D01*
X6909348Y-12789484D02*
X6861729Y-12789484D01*
X6861729Y-12789484D02*
X6842682Y-12779960D01*
X6842682Y-12779960D02*
X6833158Y-12770436D01*
X7023634Y-12589484D02*
X7023634Y-12627579D01*
X7099825Y-12589484D02*
X7099825Y-12627579D01*
X7395063Y-12865674D02*
X7385539Y-12856150D01*
X7385539Y-12856150D02*
X7366491Y-12827579D01*
X7366491Y-12827579D02*
X7356968Y-12808531D01*
X7356968Y-12808531D02*
X7347444Y-12779960D01*
X7347444Y-12779960D02*
X7337920Y-12732341D01*
X7337920Y-12732341D02*
X7337920Y-12694246D01*
X7337920Y-12694246D02*
X7347444Y-12646627D01*
X7347444Y-12646627D02*
X7356968Y-12618055D01*
X7356968Y-12618055D02*
X7366491Y-12599008D01*
X7366491Y-12599008D02*
X7385539Y-12570436D01*
X7385539Y-12570436D02*
X7395063Y-12560912D01*
X7556968Y-12656150D02*
X7556968Y-12789484D01*
X7509348Y-12579960D02*
X7461729Y-12722817D01*
X7461729Y-12722817D02*
X7585539Y-12722817D01*
X7814110Y-12789484D02*
X7814110Y-12589484D01*
X7899825Y-12789484D02*
X7899825Y-12684722D01*
X7899825Y-12684722D02*
X7890301Y-12665674D01*
X7890301Y-12665674D02*
X7871253Y-12656150D01*
X7871253Y-12656150D02*
X7842682Y-12656150D01*
X7842682Y-12656150D02*
X7823634Y-12665674D01*
X7823634Y-12665674D02*
X7814110Y-12675198D01*
X8023634Y-12789484D02*
X8004587Y-12779960D01*
X8004587Y-12779960D02*
X7995063Y-12770436D01*
X7995063Y-12770436D02*
X7985539Y-12751388D01*
X7985539Y-12751388D02*
X7985539Y-12694246D01*
X7985539Y-12694246D02*
X7995063Y-12675198D01*
X7995063Y-12675198D02*
X8004587Y-12665674D01*
X8004587Y-12665674D02*
X8023634Y-12656150D01*
X8023634Y-12656150D02*
X8052206Y-12656150D01*
X8052206Y-12656150D02*
X8071253Y-12665674D01*
X8071253Y-12665674D02*
X8080777Y-12675198D01*
X8080777Y-12675198D02*
X8090301Y-12694246D01*
X8090301Y-12694246D02*
X8090301Y-12751388D01*
X8090301Y-12751388D02*
X8080777Y-12770436D01*
X8080777Y-12770436D02*
X8071253Y-12779960D01*
X8071253Y-12779960D02*
X8052206Y-12789484D01*
X8052206Y-12789484D02*
X8023634Y-12789484D01*
X8204587Y-12789484D02*
X8185539Y-12779960D01*
X8185539Y-12779960D02*
X8176015Y-12760912D01*
X8176015Y-12760912D02*
X8176015Y-12589484D01*
X8356968Y-12779960D02*
X8337920Y-12789484D01*
X8337920Y-12789484D02*
X8299825Y-12789484D01*
X8299825Y-12789484D02*
X8280777Y-12779960D01*
X8280777Y-12779960D02*
X8271253Y-12760912D01*
X8271253Y-12760912D02*
X8271253Y-12684722D01*
X8271253Y-12684722D02*
X8280777Y-12665674D01*
X8280777Y-12665674D02*
X8299825Y-12656150D01*
X8299825Y-12656150D02*
X8337920Y-12656150D01*
X8337920Y-12656150D02*
X8356968Y-12665674D01*
X8356968Y-12665674D02*
X8366491Y-12684722D01*
X8366491Y-12684722D02*
X8366491Y-12703769D01*
X8366491Y-12703769D02*
X8271253Y-12722817D01*
X8442682Y-12779960D02*
X8461730Y-12789484D01*
X8461730Y-12789484D02*
X8499825Y-12789484D01*
X8499825Y-12789484D02*
X8518873Y-12779960D01*
X8518873Y-12779960D02*
X8528396Y-12760912D01*
X8528396Y-12760912D02*
X8528396Y-12751388D01*
X8528396Y-12751388D02*
X8518873Y-12732341D01*
X8518873Y-12732341D02*
X8499825Y-12722817D01*
X8499825Y-12722817D02*
X8471253Y-12722817D01*
X8471253Y-12722817D02*
X8452206Y-12713293D01*
X8452206Y-12713293D02*
X8442682Y-12694246D01*
X8442682Y-12694246D02*
X8442682Y-12684722D01*
X8442682Y-12684722D02*
X8452206Y-12665674D01*
X8452206Y-12665674D02*
X8471253Y-12656150D01*
X8471253Y-12656150D02*
X8499825Y-12656150D01*
X8499825Y-12656150D02*
X8518873Y-12665674D01*
X8595063Y-12865674D02*
X8604587Y-12856150D01*
X8604587Y-12856150D02*
X8623634Y-12827579D01*
X8623634Y-12827579D02*
X8633158Y-12808531D01*
X8633158Y-12808531D02*
X8642682Y-12779960D01*
X8642682Y-12779960D02*
X8652206Y-12732341D01*
X8652206Y-12732341D02*
X8652206Y-12694246D01*
X8652206Y-12694246D02*
X8642682Y-12646627D01*
X8642682Y-12646627D02*
X8633158Y-12618055D01*
X8633158Y-12618055D02*
X8623634Y-12599008D01*
X8623634Y-12599008D02*
X8604587Y-12570436D01*
X8604587Y-12570436D02*
X8595063Y-12560912D01*
X8956968Y-12865674D02*
X8947444Y-12856150D01*
X8947444Y-12856150D02*
X8928396Y-12827579D01*
X8928396Y-12827579D02*
X8918873Y-12808531D01*
X8918873Y-12808531D02*
X8909349Y-12779960D01*
X8909349Y-12779960D02*
X8899825Y-12732341D01*
X8899825Y-12732341D02*
X8899825Y-12694246D01*
X8899825Y-12694246D02*
X8909349Y-12646627D01*
X8909349Y-12646627D02*
X8918873Y-12618055D01*
X8918873Y-12618055D02*
X8928396Y-12599008D01*
X8928396Y-12599008D02*
X8947444Y-12570436D01*
X8947444Y-12570436D02*
X8956968Y-12560912D01*
X9033158Y-12656150D02*
X9033158Y-12789484D01*
X9033158Y-12675198D02*
X9042682Y-12665674D01*
X9042682Y-12665674D02*
X9061730Y-12656150D01*
X9061730Y-12656150D02*
X9090301Y-12656150D01*
X9090301Y-12656150D02*
X9109349Y-12665674D01*
X9109349Y-12665674D02*
X9118873Y-12684722D01*
X9118873Y-12684722D02*
X9118873Y-12789484D01*
X9242682Y-12789484D02*
X9223634Y-12779960D01*
X9223634Y-12779960D02*
X9214111Y-12770436D01*
X9214111Y-12770436D02*
X9204587Y-12751388D01*
X9204587Y-12751388D02*
X9204587Y-12694246D01*
X9204587Y-12694246D02*
X9214111Y-12675198D01*
X9214111Y-12675198D02*
X9223634Y-12665674D01*
X9223634Y-12665674D02*
X9242682Y-12656150D01*
X9242682Y-12656150D02*
X9271254Y-12656150D01*
X9271254Y-12656150D02*
X9290301Y-12665674D01*
X9290301Y-12665674D02*
X9299825Y-12675198D01*
X9299825Y-12675198D02*
X9309349Y-12694246D01*
X9309349Y-12694246D02*
X9309349Y-12751388D01*
X9309349Y-12751388D02*
X9299825Y-12770436D01*
X9299825Y-12770436D02*
X9290301Y-12779960D01*
X9290301Y-12779960D02*
X9271254Y-12789484D01*
X9271254Y-12789484D02*
X9242682Y-12789484D01*
X9366492Y-12656150D02*
X9442682Y-12656150D01*
X9395063Y-12589484D02*
X9395063Y-12760912D01*
X9395063Y-12760912D02*
X9404587Y-12779960D01*
X9404587Y-12779960D02*
X9423634Y-12789484D01*
X9423634Y-12789484D02*
X9442682Y-12789484D01*
X9661730Y-12656150D02*
X9661730Y-12856150D01*
X9661730Y-12665674D02*
X9680777Y-12656150D01*
X9680777Y-12656150D02*
X9718873Y-12656150D01*
X9718873Y-12656150D02*
X9737920Y-12665674D01*
X9737920Y-12665674D02*
X9747444Y-12675198D01*
X9747444Y-12675198D02*
X9756968Y-12694246D01*
X9756968Y-12694246D02*
X9756968Y-12751388D01*
X9756968Y-12751388D02*
X9747444Y-12770436D01*
X9747444Y-12770436D02*
X9737920Y-12779960D01*
X9737920Y-12779960D02*
X9718873Y-12789484D01*
X9718873Y-12789484D02*
X9680777Y-12789484D01*
X9680777Y-12789484D02*
X9661730Y-12779960D01*
X9871254Y-12789484D02*
X9852206Y-12779960D01*
X9852206Y-12779960D02*
X9842682Y-12760912D01*
X9842682Y-12760912D02*
X9842682Y-12589484D01*
X10033158Y-12789484D02*
X10033158Y-12684722D01*
X10033158Y-12684722D02*
X10023635Y-12665674D01*
X10023635Y-12665674D02*
X10004587Y-12656150D01*
X10004587Y-12656150D02*
X9966492Y-12656150D01*
X9966492Y-12656150D02*
X9947444Y-12665674D01*
X10033158Y-12779960D02*
X10014111Y-12789484D01*
X10014111Y-12789484D02*
X9966492Y-12789484D01*
X9966492Y-12789484D02*
X9947444Y-12779960D01*
X9947444Y-12779960D02*
X9937920Y-12760912D01*
X9937920Y-12760912D02*
X9937920Y-12741865D01*
X9937920Y-12741865D02*
X9947444Y-12722817D01*
X9947444Y-12722817D02*
X9966492Y-12713293D01*
X9966492Y-12713293D02*
X10014111Y-12713293D01*
X10014111Y-12713293D02*
X10033158Y-12703769D01*
X10099825Y-12656150D02*
X10176015Y-12656150D01*
X10128396Y-12589484D02*
X10128396Y-12760912D01*
X10128396Y-12760912D02*
X10137920Y-12779960D01*
X10137920Y-12779960D02*
X10156968Y-12789484D01*
X10156968Y-12789484D02*
X10176015Y-12789484D01*
X10318873Y-12779960D02*
X10299825Y-12789484D01*
X10299825Y-12789484D02*
X10261730Y-12789484D01*
X10261730Y-12789484D02*
X10242682Y-12779960D01*
X10242682Y-12779960D02*
X10233158Y-12760912D01*
X10233158Y-12760912D02*
X10233158Y-12684722D01*
X10233158Y-12684722D02*
X10242682Y-12665674D01*
X10242682Y-12665674D02*
X10261730Y-12656150D01*
X10261730Y-12656150D02*
X10299825Y-12656150D01*
X10299825Y-12656150D02*
X10318873Y-12665674D01*
X10318873Y-12665674D02*
X10328396Y-12684722D01*
X10328396Y-12684722D02*
X10328396Y-12703769D01*
X10328396Y-12703769D02*
X10233158Y-12722817D01*
X10499825Y-12789484D02*
X10499825Y-12589484D01*
X10499825Y-12779960D02*
X10480777Y-12789484D01*
X10480777Y-12789484D02*
X10442682Y-12789484D01*
X10442682Y-12789484D02*
X10423635Y-12779960D01*
X10423635Y-12779960D02*
X10414111Y-12770436D01*
X10414111Y-12770436D02*
X10404587Y-12751388D01*
X10404587Y-12751388D02*
X10404587Y-12694246D01*
X10404587Y-12694246D02*
X10414111Y-12675198D01*
X10414111Y-12675198D02*
X10423635Y-12665674D01*
X10423635Y-12665674D02*
X10442682Y-12656150D01*
X10442682Y-12656150D02*
X10480777Y-12656150D01*
X10480777Y-12656150D02*
X10499825Y-12665674D01*
X10576016Y-12865674D02*
X10585539Y-12856150D01*
X10585539Y-12856150D02*
X10604587Y-12827579D01*
X10604587Y-12827579D02*
X10614111Y-12808531D01*
X10614111Y-12808531D02*
X10623635Y-12779960D01*
X10623635Y-12779960D02*
X10633158Y-12732341D01*
X10633158Y-12732341D02*
X10633158Y-12694246D01*
X10633158Y-12694246D02*
X10623635Y-12646627D01*
X10623635Y-12646627D02*
X10614111Y-12618055D01*
X10614111Y-12618055D02*
X10604587Y-12599008D01*
X10604587Y-12599008D02*
X10585539Y-12570436D01*
X10585539Y-12570436D02*
X10576016Y-12560912D01*
M02*
