M48
; DRILL file {KiCad 7.0.5-7.0.5~ubuntu22.04.1} date Thu 01 Jun 2023 08:12:15 PM PDT
; FORMAT={-:-/ absolute / metric / decimal}
; #@! TF.CreationDate,2023-06-01T20:12:15-07:00
; #@! TF.GenerationSoftware,Kicad,Pcbnew,7.0.5-7.0.5~ubuntu22.04.1
; #@! TF.FileFunction,NonPlated,1,2,NPTH
FMAT,2
METRIC
; #@! TA.AperFunction,NonPlated,NPTH,ComponentDrill
T1C1.000
; #@! TA.AperFunction,NonPlated,NPTH,ComponentDrill
T2C2.300
; #@! TA.AperFunction,NonPlated,NPTH,ComponentDrill
T3C3.000
; #@! TA.AperFunction,NonPlated,NPTH,ComponentDrill
T4C4.000
%
G90
G05
T1
X43.21Y-43.122
X43.21Y-60.631
X43.21Y-95.629
X43.278Y-78.129
X53.65Y-43.122
X53.65Y-60.631
X53.65Y-95.629
X53.718Y-78.129
T2
X43.13Y-46.738
X43.13Y-64.246
X43.13Y-99.245
X43.198Y-81.745
X53.73Y-46.738
X53.73Y-64.246
X53.73Y-99.245
X53.798Y-81.745
T3
X43.43Y-50.538
X43.43Y-68.046
X43.43Y-103.045
X43.498Y-85.545
X45.89Y-51.818
X45.89Y-69.326
X45.89Y-104.325
X45.958Y-86.825
X48.43Y-52.638
X48.43Y-70.147
X48.43Y-105.145
X48.498Y-87.645
X52.24Y-49.278
X52.24Y-66.787
X52.24Y-101.785
X52.308Y-84.285
T4
X48.43Y-46.738
X48.43Y-64.246
X48.43Y-99.245
X48.498Y-81.745
T0
M30
