G04 #@! TF.GenerationSoftware,KiCad,Pcbnew,7.0.8*
G04 #@! TF.CreationDate,2023-10-16T23:51:03-07:00*
G04 #@! TF.ProjectId,Seismos_CoreR,53656973-6d6f-4735-9f43-6f7265522e6b,rev?*
G04 #@! TF.SameCoordinates,Original*
G04 #@! TF.FileFunction,Legend,Top*
G04 #@! TF.FilePolarity,Positive*
%FSLAX46Y46*%
G04 Gerber Fmt 4.6, Leading zero omitted, Abs format (unit mm)*
G04 Created by KiCad (PCBNEW 7.0.8) date 2023-10-16 23:51:03*
%MOMM*%
%LPD*%
G01*
G04 APERTURE LIST*
G04 Aperture macros list*
%AMRoundRect*
0 Rectangle with rounded corners*
0 $1 Rounding radius*
0 $2 $3 $4 $5 $6 $7 $8 $9 X,Y pos of 4 corners*
0 Add a 4 corners polygon primitive as box body*
4,1,4,$2,$3,$4,$5,$6,$7,$8,$9,$2,$3,0*
0 Add four circle primitives for the rounded corners*
1,1,$1+$1,$2,$3*
1,1,$1+$1,$4,$5*
1,1,$1+$1,$6,$7*
1,1,$1+$1,$8,$9*
0 Add four rect primitives between the rounded corners*
20,1,$1+$1,$2,$3,$4,$5,0*
20,1,$1+$1,$4,$5,$6,$7,0*
20,1,$1+$1,$6,$7,$8,$9,0*
20,1,$1+$1,$8,$9,$2,$3,0*%
%AMFreePoly0*
4,1,6,0.600000,0.200000,0.000000,-0.400000,-0.600000,0.200000,-0.600000,0.400000,0.600000,0.400000,0.600000,0.200000,0.600000,0.200000,$1*%
%AMFreePoly1*
4,1,6,0.600000,-0.250000,-0.600000,-0.250000,-0.600000,1.000000,0.000000,0.400000,0.600000,1.000000,0.600000,-0.250000,0.600000,-0.250000,$1*%
G04 Aperture macros list end*
%ADD10C,0.150000*%
%ADD11C,0.120000*%
%ADD12C,0.127000*%
%ADD13C,0.250000*%
%ADD14C,0.254000*%
%ADD15C,1.200000*%
%ADD16O,2.500000X1.700000*%
%ADD17C,0.100000*%
%ADD18C,3.200000*%
%ADD19C,2.000000*%
%ADD20R,3.200000X2.000000*%
%ADD21R,1.700000X1.700000*%
%ADD22O,1.700000X1.700000*%
%ADD23C,0.900000*%
%ADD24R,1.500000X0.700000*%
%ADD25R,0.800000X1.000000*%
%ADD26C,1.400000*%
%ADD27C,1.600000*%
%ADD28FreePoly0,270.000000*%
%ADD29FreePoly0,90.000000*%
%ADD30R,1.600000X1.600000*%
%ADD31FreePoly1,270.000000*%
%ADD32FreePoly1,90.000000*%
%ADD33RoundRect,0.225000X-0.375000X0.225000X-0.375000X-0.225000X0.375000X-0.225000X0.375000X0.225000X0*%
%ADD34R,1.803400X0.812800*%
G04 APERTURE END LIST*
D10*
X61200000Y-20000000D02*
X61200000Y-39000000D01*
X80500000Y-20000000D02*
X80500000Y-39000000D01*
X119100000Y-20000000D02*
X119100000Y-39000000D01*
X99800000Y-20000000D02*
X99800000Y-39000000D01*
X157700000Y-20000000D02*
X157700000Y-39000000D01*
X138400000Y-20000000D02*
X138400000Y-39000000D01*
X106616666Y-25974580D02*
X106569047Y-26022200D01*
X106569047Y-26022200D02*
X106426190Y-26069819D01*
X106426190Y-26069819D02*
X106330952Y-26069819D01*
X106330952Y-26069819D02*
X106188095Y-26022200D01*
X106188095Y-26022200D02*
X106092857Y-25926961D01*
X106092857Y-25926961D02*
X106045238Y-25831723D01*
X106045238Y-25831723D02*
X105997619Y-25641247D01*
X105997619Y-25641247D02*
X105997619Y-25498390D01*
X105997619Y-25498390D02*
X106045238Y-25307914D01*
X106045238Y-25307914D02*
X106092857Y-25212676D01*
X106092857Y-25212676D02*
X106188095Y-25117438D01*
X106188095Y-25117438D02*
X106330952Y-25069819D01*
X106330952Y-25069819D02*
X106426190Y-25069819D01*
X106426190Y-25069819D02*
X106569047Y-25117438D01*
X106569047Y-25117438D02*
X106616666Y-25165057D01*
X107188095Y-26069819D02*
X107092857Y-26022200D01*
X107092857Y-26022200D02*
X107045238Y-25974580D01*
X107045238Y-25974580D02*
X106997619Y-25879342D01*
X106997619Y-25879342D02*
X106997619Y-25593628D01*
X106997619Y-25593628D02*
X107045238Y-25498390D01*
X107045238Y-25498390D02*
X107092857Y-25450771D01*
X107092857Y-25450771D02*
X107188095Y-25403152D01*
X107188095Y-25403152D02*
X107330952Y-25403152D01*
X107330952Y-25403152D02*
X107426190Y-25450771D01*
X107426190Y-25450771D02*
X107473809Y-25498390D01*
X107473809Y-25498390D02*
X107521428Y-25593628D01*
X107521428Y-25593628D02*
X107521428Y-25879342D01*
X107521428Y-25879342D02*
X107473809Y-25974580D01*
X107473809Y-25974580D02*
X107426190Y-26022200D01*
X107426190Y-26022200D02*
X107330952Y-26069819D01*
X107330952Y-26069819D02*
X107188095Y-26069819D01*
X108092857Y-26069819D02*
X107997619Y-26022200D01*
X107997619Y-26022200D02*
X107950000Y-25926961D01*
X107950000Y-25926961D02*
X107950000Y-25069819D01*
X108902381Y-25403152D02*
X108902381Y-26069819D01*
X108473810Y-25403152D02*
X108473810Y-25926961D01*
X108473810Y-25926961D02*
X108521429Y-26022200D01*
X108521429Y-26022200D02*
X108616667Y-26069819D01*
X108616667Y-26069819D02*
X108759524Y-26069819D01*
X108759524Y-26069819D02*
X108854762Y-26022200D01*
X108854762Y-26022200D02*
X108902381Y-25974580D01*
X109378572Y-26069819D02*
X109378572Y-25403152D01*
X109378572Y-25498390D02*
X109426191Y-25450771D01*
X109426191Y-25450771D02*
X109521429Y-25403152D01*
X109521429Y-25403152D02*
X109664286Y-25403152D01*
X109664286Y-25403152D02*
X109759524Y-25450771D01*
X109759524Y-25450771D02*
X109807143Y-25546009D01*
X109807143Y-25546009D02*
X109807143Y-26069819D01*
X109807143Y-25546009D02*
X109854762Y-25450771D01*
X109854762Y-25450771D02*
X109950000Y-25403152D01*
X109950000Y-25403152D02*
X110092857Y-25403152D01*
X110092857Y-25403152D02*
X110188096Y-25450771D01*
X110188096Y-25450771D02*
X110235715Y-25546009D01*
X110235715Y-25546009D02*
X110235715Y-26069819D01*
X110711905Y-25403152D02*
X110711905Y-26069819D01*
X110711905Y-25498390D02*
X110759524Y-25450771D01*
X110759524Y-25450771D02*
X110854762Y-25403152D01*
X110854762Y-25403152D02*
X110997619Y-25403152D01*
X110997619Y-25403152D02*
X111092857Y-25450771D01*
X111092857Y-25450771D02*
X111140476Y-25546009D01*
X111140476Y-25546009D02*
X111140476Y-26069819D01*
X112807143Y-25403152D02*
X112807143Y-26069819D01*
X112569048Y-25022200D02*
X112330953Y-25736485D01*
X112330953Y-25736485D02*
X112950000Y-25736485D01*
X87316666Y-25974580D02*
X87269047Y-26022200D01*
X87269047Y-26022200D02*
X87126190Y-26069819D01*
X87126190Y-26069819D02*
X87030952Y-26069819D01*
X87030952Y-26069819D02*
X86888095Y-26022200D01*
X86888095Y-26022200D02*
X86792857Y-25926961D01*
X86792857Y-25926961D02*
X86745238Y-25831723D01*
X86745238Y-25831723D02*
X86697619Y-25641247D01*
X86697619Y-25641247D02*
X86697619Y-25498390D01*
X86697619Y-25498390D02*
X86745238Y-25307914D01*
X86745238Y-25307914D02*
X86792857Y-25212676D01*
X86792857Y-25212676D02*
X86888095Y-25117438D01*
X86888095Y-25117438D02*
X87030952Y-25069819D01*
X87030952Y-25069819D02*
X87126190Y-25069819D01*
X87126190Y-25069819D02*
X87269047Y-25117438D01*
X87269047Y-25117438D02*
X87316666Y-25165057D01*
X87888095Y-26069819D02*
X87792857Y-26022200D01*
X87792857Y-26022200D02*
X87745238Y-25974580D01*
X87745238Y-25974580D02*
X87697619Y-25879342D01*
X87697619Y-25879342D02*
X87697619Y-25593628D01*
X87697619Y-25593628D02*
X87745238Y-25498390D01*
X87745238Y-25498390D02*
X87792857Y-25450771D01*
X87792857Y-25450771D02*
X87888095Y-25403152D01*
X87888095Y-25403152D02*
X88030952Y-25403152D01*
X88030952Y-25403152D02*
X88126190Y-25450771D01*
X88126190Y-25450771D02*
X88173809Y-25498390D01*
X88173809Y-25498390D02*
X88221428Y-25593628D01*
X88221428Y-25593628D02*
X88221428Y-25879342D01*
X88221428Y-25879342D02*
X88173809Y-25974580D01*
X88173809Y-25974580D02*
X88126190Y-26022200D01*
X88126190Y-26022200D02*
X88030952Y-26069819D01*
X88030952Y-26069819D02*
X87888095Y-26069819D01*
X88792857Y-26069819D02*
X88697619Y-26022200D01*
X88697619Y-26022200D02*
X88650000Y-25926961D01*
X88650000Y-25926961D02*
X88650000Y-25069819D01*
X89602381Y-25403152D02*
X89602381Y-26069819D01*
X89173810Y-25403152D02*
X89173810Y-25926961D01*
X89173810Y-25926961D02*
X89221429Y-26022200D01*
X89221429Y-26022200D02*
X89316667Y-26069819D01*
X89316667Y-26069819D02*
X89459524Y-26069819D01*
X89459524Y-26069819D02*
X89554762Y-26022200D01*
X89554762Y-26022200D02*
X89602381Y-25974580D01*
X90078572Y-26069819D02*
X90078572Y-25403152D01*
X90078572Y-25498390D02*
X90126191Y-25450771D01*
X90126191Y-25450771D02*
X90221429Y-25403152D01*
X90221429Y-25403152D02*
X90364286Y-25403152D01*
X90364286Y-25403152D02*
X90459524Y-25450771D01*
X90459524Y-25450771D02*
X90507143Y-25546009D01*
X90507143Y-25546009D02*
X90507143Y-26069819D01*
X90507143Y-25546009D02*
X90554762Y-25450771D01*
X90554762Y-25450771D02*
X90650000Y-25403152D01*
X90650000Y-25403152D02*
X90792857Y-25403152D01*
X90792857Y-25403152D02*
X90888096Y-25450771D01*
X90888096Y-25450771D02*
X90935715Y-25546009D01*
X90935715Y-25546009D02*
X90935715Y-26069819D01*
X91411905Y-25403152D02*
X91411905Y-26069819D01*
X91411905Y-25498390D02*
X91459524Y-25450771D01*
X91459524Y-25450771D02*
X91554762Y-25403152D01*
X91554762Y-25403152D02*
X91697619Y-25403152D01*
X91697619Y-25403152D02*
X91792857Y-25450771D01*
X91792857Y-25450771D02*
X91840476Y-25546009D01*
X91840476Y-25546009D02*
X91840476Y-26069819D01*
X93554762Y-25069819D02*
X93078572Y-25069819D01*
X93078572Y-25069819D02*
X93030953Y-25546009D01*
X93030953Y-25546009D02*
X93078572Y-25498390D01*
X93078572Y-25498390D02*
X93173810Y-25450771D01*
X93173810Y-25450771D02*
X93411905Y-25450771D01*
X93411905Y-25450771D02*
X93507143Y-25498390D01*
X93507143Y-25498390D02*
X93554762Y-25546009D01*
X93554762Y-25546009D02*
X93602381Y-25641247D01*
X93602381Y-25641247D02*
X93602381Y-25879342D01*
X93602381Y-25879342D02*
X93554762Y-25974580D01*
X93554762Y-25974580D02*
X93507143Y-26022200D01*
X93507143Y-26022200D02*
X93411905Y-26069819D01*
X93411905Y-26069819D02*
X93173810Y-26069819D01*
X93173810Y-26069819D02*
X93078572Y-26022200D01*
X93078572Y-26022200D02*
X93030953Y-25974580D01*
X145216666Y-25974580D02*
X145169047Y-26022200D01*
X145169047Y-26022200D02*
X145026190Y-26069819D01*
X145026190Y-26069819D02*
X144930952Y-26069819D01*
X144930952Y-26069819D02*
X144788095Y-26022200D01*
X144788095Y-26022200D02*
X144692857Y-25926961D01*
X144692857Y-25926961D02*
X144645238Y-25831723D01*
X144645238Y-25831723D02*
X144597619Y-25641247D01*
X144597619Y-25641247D02*
X144597619Y-25498390D01*
X144597619Y-25498390D02*
X144645238Y-25307914D01*
X144645238Y-25307914D02*
X144692857Y-25212676D01*
X144692857Y-25212676D02*
X144788095Y-25117438D01*
X144788095Y-25117438D02*
X144930952Y-25069819D01*
X144930952Y-25069819D02*
X145026190Y-25069819D01*
X145026190Y-25069819D02*
X145169047Y-25117438D01*
X145169047Y-25117438D02*
X145216666Y-25165057D01*
X145788095Y-26069819D02*
X145692857Y-26022200D01*
X145692857Y-26022200D02*
X145645238Y-25974580D01*
X145645238Y-25974580D02*
X145597619Y-25879342D01*
X145597619Y-25879342D02*
X145597619Y-25593628D01*
X145597619Y-25593628D02*
X145645238Y-25498390D01*
X145645238Y-25498390D02*
X145692857Y-25450771D01*
X145692857Y-25450771D02*
X145788095Y-25403152D01*
X145788095Y-25403152D02*
X145930952Y-25403152D01*
X145930952Y-25403152D02*
X146026190Y-25450771D01*
X146026190Y-25450771D02*
X146073809Y-25498390D01*
X146073809Y-25498390D02*
X146121428Y-25593628D01*
X146121428Y-25593628D02*
X146121428Y-25879342D01*
X146121428Y-25879342D02*
X146073809Y-25974580D01*
X146073809Y-25974580D02*
X146026190Y-26022200D01*
X146026190Y-26022200D02*
X145930952Y-26069819D01*
X145930952Y-26069819D02*
X145788095Y-26069819D01*
X146692857Y-26069819D02*
X146597619Y-26022200D01*
X146597619Y-26022200D02*
X146550000Y-25926961D01*
X146550000Y-25926961D02*
X146550000Y-25069819D01*
X147502381Y-25403152D02*
X147502381Y-26069819D01*
X147073810Y-25403152D02*
X147073810Y-25926961D01*
X147073810Y-25926961D02*
X147121429Y-26022200D01*
X147121429Y-26022200D02*
X147216667Y-26069819D01*
X147216667Y-26069819D02*
X147359524Y-26069819D01*
X147359524Y-26069819D02*
X147454762Y-26022200D01*
X147454762Y-26022200D02*
X147502381Y-25974580D01*
X147978572Y-26069819D02*
X147978572Y-25403152D01*
X147978572Y-25498390D02*
X148026191Y-25450771D01*
X148026191Y-25450771D02*
X148121429Y-25403152D01*
X148121429Y-25403152D02*
X148264286Y-25403152D01*
X148264286Y-25403152D02*
X148359524Y-25450771D01*
X148359524Y-25450771D02*
X148407143Y-25546009D01*
X148407143Y-25546009D02*
X148407143Y-26069819D01*
X148407143Y-25546009D02*
X148454762Y-25450771D01*
X148454762Y-25450771D02*
X148550000Y-25403152D01*
X148550000Y-25403152D02*
X148692857Y-25403152D01*
X148692857Y-25403152D02*
X148788096Y-25450771D01*
X148788096Y-25450771D02*
X148835715Y-25546009D01*
X148835715Y-25546009D02*
X148835715Y-26069819D01*
X149311905Y-25403152D02*
X149311905Y-26069819D01*
X149311905Y-25498390D02*
X149359524Y-25450771D01*
X149359524Y-25450771D02*
X149454762Y-25403152D01*
X149454762Y-25403152D02*
X149597619Y-25403152D01*
X149597619Y-25403152D02*
X149692857Y-25450771D01*
X149692857Y-25450771D02*
X149740476Y-25546009D01*
X149740476Y-25546009D02*
X149740476Y-26069819D01*
X150930953Y-25165057D02*
X150978572Y-25117438D01*
X150978572Y-25117438D02*
X151073810Y-25069819D01*
X151073810Y-25069819D02*
X151311905Y-25069819D01*
X151311905Y-25069819D02*
X151407143Y-25117438D01*
X151407143Y-25117438D02*
X151454762Y-25165057D01*
X151454762Y-25165057D02*
X151502381Y-25260295D01*
X151502381Y-25260295D02*
X151502381Y-25355533D01*
X151502381Y-25355533D02*
X151454762Y-25498390D01*
X151454762Y-25498390D02*
X150883334Y-26069819D01*
X150883334Y-26069819D02*
X151502381Y-26069819D01*
X125916666Y-25974580D02*
X125869047Y-26022200D01*
X125869047Y-26022200D02*
X125726190Y-26069819D01*
X125726190Y-26069819D02*
X125630952Y-26069819D01*
X125630952Y-26069819D02*
X125488095Y-26022200D01*
X125488095Y-26022200D02*
X125392857Y-25926961D01*
X125392857Y-25926961D02*
X125345238Y-25831723D01*
X125345238Y-25831723D02*
X125297619Y-25641247D01*
X125297619Y-25641247D02*
X125297619Y-25498390D01*
X125297619Y-25498390D02*
X125345238Y-25307914D01*
X125345238Y-25307914D02*
X125392857Y-25212676D01*
X125392857Y-25212676D02*
X125488095Y-25117438D01*
X125488095Y-25117438D02*
X125630952Y-25069819D01*
X125630952Y-25069819D02*
X125726190Y-25069819D01*
X125726190Y-25069819D02*
X125869047Y-25117438D01*
X125869047Y-25117438D02*
X125916666Y-25165057D01*
X126488095Y-26069819D02*
X126392857Y-26022200D01*
X126392857Y-26022200D02*
X126345238Y-25974580D01*
X126345238Y-25974580D02*
X126297619Y-25879342D01*
X126297619Y-25879342D02*
X126297619Y-25593628D01*
X126297619Y-25593628D02*
X126345238Y-25498390D01*
X126345238Y-25498390D02*
X126392857Y-25450771D01*
X126392857Y-25450771D02*
X126488095Y-25403152D01*
X126488095Y-25403152D02*
X126630952Y-25403152D01*
X126630952Y-25403152D02*
X126726190Y-25450771D01*
X126726190Y-25450771D02*
X126773809Y-25498390D01*
X126773809Y-25498390D02*
X126821428Y-25593628D01*
X126821428Y-25593628D02*
X126821428Y-25879342D01*
X126821428Y-25879342D02*
X126773809Y-25974580D01*
X126773809Y-25974580D02*
X126726190Y-26022200D01*
X126726190Y-26022200D02*
X126630952Y-26069819D01*
X126630952Y-26069819D02*
X126488095Y-26069819D01*
X127392857Y-26069819D02*
X127297619Y-26022200D01*
X127297619Y-26022200D02*
X127250000Y-25926961D01*
X127250000Y-25926961D02*
X127250000Y-25069819D01*
X128202381Y-25403152D02*
X128202381Y-26069819D01*
X127773810Y-25403152D02*
X127773810Y-25926961D01*
X127773810Y-25926961D02*
X127821429Y-26022200D01*
X127821429Y-26022200D02*
X127916667Y-26069819D01*
X127916667Y-26069819D02*
X128059524Y-26069819D01*
X128059524Y-26069819D02*
X128154762Y-26022200D01*
X128154762Y-26022200D02*
X128202381Y-25974580D01*
X128678572Y-26069819D02*
X128678572Y-25403152D01*
X128678572Y-25498390D02*
X128726191Y-25450771D01*
X128726191Y-25450771D02*
X128821429Y-25403152D01*
X128821429Y-25403152D02*
X128964286Y-25403152D01*
X128964286Y-25403152D02*
X129059524Y-25450771D01*
X129059524Y-25450771D02*
X129107143Y-25546009D01*
X129107143Y-25546009D02*
X129107143Y-26069819D01*
X129107143Y-25546009D02*
X129154762Y-25450771D01*
X129154762Y-25450771D02*
X129250000Y-25403152D01*
X129250000Y-25403152D02*
X129392857Y-25403152D01*
X129392857Y-25403152D02*
X129488096Y-25450771D01*
X129488096Y-25450771D02*
X129535715Y-25546009D01*
X129535715Y-25546009D02*
X129535715Y-26069819D01*
X130011905Y-25403152D02*
X130011905Y-26069819D01*
X130011905Y-25498390D02*
X130059524Y-25450771D01*
X130059524Y-25450771D02*
X130154762Y-25403152D01*
X130154762Y-25403152D02*
X130297619Y-25403152D01*
X130297619Y-25403152D02*
X130392857Y-25450771D01*
X130392857Y-25450771D02*
X130440476Y-25546009D01*
X130440476Y-25546009D02*
X130440476Y-26069819D01*
X131583334Y-25069819D02*
X132202381Y-25069819D01*
X132202381Y-25069819D02*
X131869048Y-25450771D01*
X131869048Y-25450771D02*
X132011905Y-25450771D01*
X132011905Y-25450771D02*
X132107143Y-25498390D01*
X132107143Y-25498390D02*
X132154762Y-25546009D01*
X132154762Y-25546009D02*
X132202381Y-25641247D01*
X132202381Y-25641247D02*
X132202381Y-25879342D01*
X132202381Y-25879342D02*
X132154762Y-25974580D01*
X132154762Y-25974580D02*
X132107143Y-26022200D01*
X132107143Y-26022200D02*
X132011905Y-26069819D01*
X132011905Y-26069819D02*
X131726191Y-26069819D01*
X131726191Y-26069819D02*
X131630953Y-26022200D01*
X131630953Y-26022200D02*
X131583334Y-25974580D01*
X164516666Y-25974580D02*
X164469047Y-26022200D01*
X164469047Y-26022200D02*
X164326190Y-26069819D01*
X164326190Y-26069819D02*
X164230952Y-26069819D01*
X164230952Y-26069819D02*
X164088095Y-26022200D01*
X164088095Y-26022200D02*
X163992857Y-25926961D01*
X163992857Y-25926961D02*
X163945238Y-25831723D01*
X163945238Y-25831723D02*
X163897619Y-25641247D01*
X163897619Y-25641247D02*
X163897619Y-25498390D01*
X163897619Y-25498390D02*
X163945238Y-25307914D01*
X163945238Y-25307914D02*
X163992857Y-25212676D01*
X163992857Y-25212676D02*
X164088095Y-25117438D01*
X164088095Y-25117438D02*
X164230952Y-25069819D01*
X164230952Y-25069819D02*
X164326190Y-25069819D01*
X164326190Y-25069819D02*
X164469047Y-25117438D01*
X164469047Y-25117438D02*
X164516666Y-25165057D01*
X165088095Y-26069819D02*
X164992857Y-26022200D01*
X164992857Y-26022200D02*
X164945238Y-25974580D01*
X164945238Y-25974580D02*
X164897619Y-25879342D01*
X164897619Y-25879342D02*
X164897619Y-25593628D01*
X164897619Y-25593628D02*
X164945238Y-25498390D01*
X164945238Y-25498390D02*
X164992857Y-25450771D01*
X164992857Y-25450771D02*
X165088095Y-25403152D01*
X165088095Y-25403152D02*
X165230952Y-25403152D01*
X165230952Y-25403152D02*
X165326190Y-25450771D01*
X165326190Y-25450771D02*
X165373809Y-25498390D01*
X165373809Y-25498390D02*
X165421428Y-25593628D01*
X165421428Y-25593628D02*
X165421428Y-25879342D01*
X165421428Y-25879342D02*
X165373809Y-25974580D01*
X165373809Y-25974580D02*
X165326190Y-26022200D01*
X165326190Y-26022200D02*
X165230952Y-26069819D01*
X165230952Y-26069819D02*
X165088095Y-26069819D01*
X165992857Y-26069819D02*
X165897619Y-26022200D01*
X165897619Y-26022200D02*
X165850000Y-25926961D01*
X165850000Y-25926961D02*
X165850000Y-25069819D01*
X166802381Y-25403152D02*
X166802381Y-26069819D01*
X166373810Y-25403152D02*
X166373810Y-25926961D01*
X166373810Y-25926961D02*
X166421429Y-26022200D01*
X166421429Y-26022200D02*
X166516667Y-26069819D01*
X166516667Y-26069819D02*
X166659524Y-26069819D01*
X166659524Y-26069819D02*
X166754762Y-26022200D01*
X166754762Y-26022200D02*
X166802381Y-25974580D01*
X167278572Y-26069819D02*
X167278572Y-25403152D01*
X167278572Y-25498390D02*
X167326191Y-25450771D01*
X167326191Y-25450771D02*
X167421429Y-25403152D01*
X167421429Y-25403152D02*
X167564286Y-25403152D01*
X167564286Y-25403152D02*
X167659524Y-25450771D01*
X167659524Y-25450771D02*
X167707143Y-25546009D01*
X167707143Y-25546009D02*
X167707143Y-26069819D01*
X167707143Y-25546009D02*
X167754762Y-25450771D01*
X167754762Y-25450771D02*
X167850000Y-25403152D01*
X167850000Y-25403152D02*
X167992857Y-25403152D01*
X167992857Y-25403152D02*
X168088096Y-25450771D01*
X168088096Y-25450771D02*
X168135715Y-25546009D01*
X168135715Y-25546009D02*
X168135715Y-26069819D01*
X168611905Y-25403152D02*
X168611905Y-26069819D01*
X168611905Y-25498390D02*
X168659524Y-25450771D01*
X168659524Y-25450771D02*
X168754762Y-25403152D01*
X168754762Y-25403152D02*
X168897619Y-25403152D01*
X168897619Y-25403152D02*
X168992857Y-25450771D01*
X168992857Y-25450771D02*
X169040476Y-25546009D01*
X169040476Y-25546009D02*
X169040476Y-26069819D01*
X170802381Y-26069819D02*
X170230953Y-26069819D01*
X170516667Y-26069819D02*
X170516667Y-25069819D01*
X170516667Y-25069819D02*
X170421429Y-25212676D01*
X170421429Y-25212676D02*
X170326191Y-25307914D01*
X170326191Y-25307914D02*
X170230953Y-25355533D01*
X68016666Y-25974580D02*
X67969047Y-26022200D01*
X67969047Y-26022200D02*
X67826190Y-26069819D01*
X67826190Y-26069819D02*
X67730952Y-26069819D01*
X67730952Y-26069819D02*
X67588095Y-26022200D01*
X67588095Y-26022200D02*
X67492857Y-25926961D01*
X67492857Y-25926961D02*
X67445238Y-25831723D01*
X67445238Y-25831723D02*
X67397619Y-25641247D01*
X67397619Y-25641247D02*
X67397619Y-25498390D01*
X67397619Y-25498390D02*
X67445238Y-25307914D01*
X67445238Y-25307914D02*
X67492857Y-25212676D01*
X67492857Y-25212676D02*
X67588095Y-25117438D01*
X67588095Y-25117438D02*
X67730952Y-25069819D01*
X67730952Y-25069819D02*
X67826190Y-25069819D01*
X67826190Y-25069819D02*
X67969047Y-25117438D01*
X67969047Y-25117438D02*
X68016666Y-25165057D01*
X68588095Y-26069819D02*
X68492857Y-26022200D01*
X68492857Y-26022200D02*
X68445238Y-25974580D01*
X68445238Y-25974580D02*
X68397619Y-25879342D01*
X68397619Y-25879342D02*
X68397619Y-25593628D01*
X68397619Y-25593628D02*
X68445238Y-25498390D01*
X68445238Y-25498390D02*
X68492857Y-25450771D01*
X68492857Y-25450771D02*
X68588095Y-25403152D01*
X68588095Y-25403152D02*
X68730952Y-25403152D01*
X68730952Y-25403152D02*
X68826190Y-25450771D01*
X68826190Y-25450771D02*
X68873809Y-25498390D01*
X68873809Y-25498390D02*
X68921428Y-25593628D01*
X68921428Y-25593628D02*
X68921428Y-25879342D01*
X68921428Y-25879342D02*
X68873809Y-25974580D01*
X68873809Y-25974580D02*
X68826190Y-26022200D01*
X68826190Y-26022200D02*
X68730952Y-26069819D01*
X68730952Y-26069819D02*
X68588095Y-26069819D01*
X69492857Y-26069819D02*
X69397619Y-26022200D01*
X69397619Y-26022200D02*
X69350000Y-25926961D01*
X69350000Y-25926961D02*
X69350000Y-25069819D01*
X70302381Y-25403152D02*
X70302381Y-26069819D01*
X69873810Y-25403152D02*
X69873810Y-25926961D01*
X69873810Y-25926961D02*
X69921429Y-26022200D01*
X69921429Y-26022200D02*
X70016667Y-26069819D01*
X70016667Y-26069819D02*
X70159524Y-26069819D01*
X70159524Y-26069819D02*
X70254762Y-26022200D01*
X70254762Y-26022200D02*
X70302381Y-25974580D01*
X70778572Y-26069819D02*
X70778572Y-25403152D01*
X70778572Y-25498390D02*
X70826191Y-25450771D01*
X70826191Y-25450771D02*
X70921429Y-25403152D01*
X70921429Y-25403152D02*
X71064286Y-25403152D01*
X71064286Y-25403152D02*
X71159524Y-25450771D01*
X71159524Y-25450771D02*
X71207143Y-25546009D01*
X71207143Y-25546009D02*
X71207143Y-26069819D01*
X71207143Y-25546009D02*
X71254762Y-25450771D01*
X71254762Y-25450771D02*
X71350000Y-25403152D01*
X71350000Y-25403152D02*
X71492857Y-25403152D01*
X71492857Y-25403152D02*
X71588096Y-25450771D01*
X71588096Y-25450771D02*
X71635715Y-25546009D01*
X71635715Y-25546009D02*
X71635715Y-26069819D01*
X72111905Y-25403152D02*
X72111905Y-26069819D01*
X72111905Y-25498390D02*
X72159524Y-25450771D01*
X72159524Y-25450771D02*
X72254762Y-25403152D01*
X72254762Y-25403152D02*
X72397619Y-25403152D01*
X72397619Y-25403152D02*
X72492857Y-25450771D01*
X72492857Y-25450771D02*
X72540476Y-25546009D01*
X72540476Y-25546009D02*
X72540476Y-26069819D01*
X74207143Y-25069819D02*
X74016667Y-25069819D01*
X74016667Y-25069819D02*
X73921429Y-25117438D01*
X73921429Y-25117438D02*
X73873810Y-25165057D01*
X73873810Y-25165057D02*
X73778572Y-25307914D01*
X73778572Y-25307914D02*
X73730953Y-25498390D01*
X73730953Y-25498390D02*
X73730953Y-25879342D01*
X73730953Y-25879342D02*
X73778572Y-25974580D01*
X73778572Y-25974580D02*
X73826191Y-26022200D01*
X73826191Y-26022200D02*
X73921429Y-26069819D01*
X73921429Y-26069819D02*
X74111905Y-26069819D01*
X74111905Y-26069819D02*
X74207143Y-26022200D01*
X74207143Y-26022200D02*
X74254762Y-25974580D01*
X74254762Y-25974580D02*
X74302381Y-25879342D01*
X74302381Y-25879342D02*
X74302381Y-25641247D01*
X74302381Y-25641247D02*
X74254762Y-25546009D01*
X74254762Y-25546009D02*
X74207143Y-25498390D01*
X74207143Y-25498390D02*
X74111905Y-25450771D01*
X74111905Y-25450771D02*
X73921429Y-25450771D01*
X73921429Y-25450771D02*
X73826191Y-25498390D01*
X73826191Y-25498390D02*
X73778572Y-25546009D01*
X73778572Y-25546009D02*
X73730953Y-25641247D01*
X51341666Y-34209819D02*
X51341666Y-33209819D01*
X51341666Y-33209819D02*
X51579761Y-33209819D01*
X51579761Y-33209819D02*
X51722618Y-33257438D01*
X51722618Y-33257438D02*
X51817856Y-33352676D01*
X51817856Y-33352676D02*
X51865475Y-33447914D01*
X51865475Y-33447914D02*
X51913094Y-33638390D01*
X51913094Y-33638390D02*
X51913094Y-33781247D01*
X51913094Y-33781247D02*
X51865475Y-33971723D01*
X51865475Y-33971723D02*
X51817856Y-34066961D01*
X51817856Y-34066961D02*
X51722618Y-34162200D01*
X51722618Y-34162200D02*
X51579761Y-34209819D01*
X51579761Y-34209819D02*
X51341666Y-34209819D01*
X52722618Y-34162200D02*
X52627380Y-34209819D01*
X52627380Y-34209819D02*
X52436904Y-34209819D01*
X52436904Y-34209819D02*
X52341666Y-34162200D01*
X52341666Y-34162200D02*
X52294047Y-34066961D01*
X52294047Y-34066961D02*
X52294047Y-33686009D01*
X52294047Y-33686009D02*
X52341666Y-33590771D01*
X52341666Y-33590771D02*
X52436904Y-33543152D01*
X52436904Y-33543152D02*
X52627380Y-33543152D01*
X52627380Y-33543152D02*
X52722618Y-33590771D01*
X52722618Y-33590771D02*
X52770237Y-33686009D01*
X52770237Y-33686009D02*
X52770237Y-33781247D01*
X52770237Y-33781247D02*
X52294047Y-33876485D01*
X53151190Y-34162200D02*
X53246428Y-34209819D01*
X53246428Y-34209819D02*
X53436904Y-34209819D01*
X53436904Y-34209819D02*
X53532142Y-34162200D01*
X53532142Y-34162200D02*
X53579761Y-34066961D01*
X53579761Y-34066961D02*
X53579761Y-34019342D01*
X53579761Y-34019342D02*
X53532142Y-33924104D01*
X53532142Y-33924104D02*
X53436904Y-33876485D01*
X53436904Y-33876485D02*
X53294047Y-33876485D01*
X53294047Y-33876485D02*
X53198809Y-33828866D01*
X53198809Y-33828866D02*
X53151190Y-33733628D01*
X53151190Y-33733628D02*
X53151190Y-33686009D01*
X53151190Y-33686009D02*
X53198809Y-33590771D01*
X53198809Y-33590771D02*
X53294047Y-33543152D01*
X53294047Y-33543152D02*
X53436904Y-33543152D01*
X53436904Y-33543152D02*
X53532142Y-33590771D01*
X54008333Y-34209819D02*
X54008333Y-33543152D01*
X54008333Y-33209819D02*
X53960714Y-33257438D01*
X53960714Y-33257438D02*
X54008333Y-33305057D01*
X54008333Y-33305057D02*
X54055952Y-33257438D01*
X54055952Y-33257438D02*
X54008333Y-33209819D01*
X54008333Y-33209819D02*
X54008333Y-33305057D01*
X54913094Y-33543152D02*
X54913094Y-34352676D01*
X54913094Y-34352676D02*
X54865475Y-34447914D01*
X54865475Y-34447914D02*
X54817856Y-34495533D01*
X54817856Y-34495533D02*
X54722618Y-34543152D01*
X54722618Y-34543152D02*
X54579761Y-34543152D01*
X54579761Y-34543152D02*
X54484523Y-34495533D01*
X54913094Y-34162200D02*
X54817856Y-34209819D01*
X54817856Y-34209819D02*
X54627380Y-34209819D01*
X54627380Y-34209819D02*
X54532142Y-34162200D01*
X54532142Y-34162200D02*
X54484523Y-34114580D01*
X54484523Y-34114580D02*
X54436904Y-34019342D01*
X54436904Y-34019342D02*
X54436904Y-33733628D01*
X54436904Y-33733628D02*
X54484523Y-33638390D01*
X54484523Y-33638390D02*
X54532142Y-33590771D01*
X54532142Y-33590771D02*
X54627380Y-33543152D01*
X54627380Y-33543152D02*
X54817856Y-33543152D01*
X54817856Y-33543152D02*
X54913094Y-33590771D01*
X55389285Y-33543152D02*
X55389285Y-34209819D01*
X55389285Y-33638390D02*
X55436904Y-33590771D01*
X55436904Y-33590771D02*
X55532142Y-33543152D01*
X55532142Y-33543152D02*
X55674999Y-33543152D01*
X55674999Y-33543152D02*
X55770237Y-33590771D01*
X55770237Y-33590771D02*
X55817856Y-33686009D01*
X55817856Y-33686009D02*
X55817856Y-34209819D01*
X56674999Y-34162200D02*
X56579761Y-34209819D01*
X56579761Y-34209819D02*
X56389285Y-34209819D01*
X56389285Y-34209819D02*
X56294047Y-34162200D01*
X56294047Y-34162200D02*
X56246428Y-34066961D01*
X56246428Y-34066961D02*
X56246428Y-33686009D01*
X56246428Y-33686009D02*
X56294047Y-33590771D01*
X56294047Y-33590771D02*
X56389285Y-33543152D01*
X56389285Y-33543152D02*
X56579761Y-33543152D01*
X56579761Y-33543152D02*
X56674999Y-33590771D01*
X56674999Y-33590771D02*
X56722618Y-33686009D01*
X56722618Y-33686009D02*
X56722618Y-33781247D01*
X56722618Y-33781247D02*
X56246428Y-33876485D01*
X57579761Y-34209819D02*
X57579761Y-33209819D01*
X57579761Y-34162200D02*
X57484523Y-34209819D01*
X57484523Y-34209819D02*
X57294047Y-34209819D01*
X57294047Y-34209819D02*
X57198809Y-34162200D01*
X57198809Y-34162200D02*
X57151190Y-34114580D01*
X57151190Y-34114580D02*
X57103571Y-34019342D01*
X57103571Y-34019342D02*
X57103571Y-33733628D01*
X57103571Y-33733628D02*
X57151190Y-33638390D01*
X57151190Y-33638390D02*
X57198809Y-33590771D01*
X57198809Y-33590771D02*
X57294047Y-33543152D01*
X57294047Y-33543152D02*
X57484523Y-33543152D01*
X57484523Y-33543152D02*
X57579761Y-33590771D01*
X58817857Y-34209819D02*
X58817857Y-33209819D01*
X58817857Y-33590771D02*
X58913095Y-33543152D01*
X58913095Y-33543152D02*
X59103571Y-33543152D01*
X59103571Y-33543152D02*
X59198809Y-33590771D01*
X59198809Y-33590771D02*
X59246428Y-33638390D01*
X59246428Y-33638390D02*
X59294047Y-33733628D01*
X59294047Y-33733628D02*
X59294047Y-34019342D01*
X59294047Y-34019342D02*
X59246428Y-34114580D01*
X59246428Y-34114580D02*
X59198809Y-34162200D01*
X59198809Y-34162200D02*
X59103571Y-34209819D01*
X59103571Y-34209819D02*
X58913095Y-34209819D01*
X58913095Y-34209819D02*
X58817857Y-34162200D01*
X59627381Y-33543152D02*
X59865476Y-34209819D01*
X60103571Y-33543152D02*
X59865476Y-34209819D01*
X59865476Y-34209819D02*
X59770238Y-34447914D01*
X59770238Y-34447914D02*
X59722619Y-34495533D01*
X59722619Y-34495533D02*
X59627381Y-34543152D01*
X52770238Y-35819819D02*
X52436905Y-35343628D01*
X52198810Y-35819819D02*
X52198810Y-34819819D01*
X52198810Y-34819819D02*
X52579762Y-34819819D01*
X52579762Y-34819819D02*
X52675000Y-34867438D01*
X52675000Y-34867438D02*
X52722619Y-34915057D01*
X52722619Y-34915057D02*
X52770238Y-35010295D01*
X52770238Y-35010295D02*
X52770238Y-35153152D01*
X52770238Y-35153152D02*
X52722619Y-35248390D01*
X52722619Y-35248390D02*
X52675000Y-35296009D01*
X52675000Y-35296009D02*
X52579762Y-35343628D01*
X52579762Y-35343628D02*
X52198810Y-35343628D01*
X53579762Y-35772200D02*
X53484524Y-35819819D01*
X53484524Y-35819819D02*
X53294048Y-35819819D01*
X53294048Y-35819819D02*
X53198810Y-35772200D01*
X53198810Y-35772200D02*
X53151191Y-35676961D01*
X53151191Y-35676961D02*
X53151191Y-35296009D01*
X53151191Y-35296009D02*
X53198810Y-35200771D01*
X53198810Y-35200771D02*
X53294048Y-35153152D01*
X53294048Y-35153152D02*
X53484524Y-35153152D01*
X53484524Y-35153152D02*
X53579762Y-35200771D01*
X53579762Y-35200771D02*
X53627381Y-35296009D01*
X53627381Y-35296009D02*
X53627381Y-35391247D01*
X53627381Y-35391247D02*
X53151191Y-35486485D01*
X54008334Y-35772200D02*
X54151191Y-35819819D01*
X54151191Y-35819819D02*
X54389286Y-35819819D01*
X54389286Y-35819819D02*
X54484524Y-35772200D01*
X54484524Y-35772200D02*
X54532143Y-35724580D01*
X54532143Y-35724580D02*
X54579762Y-35629342D01*
X54579762Y-35629342D02*
X54579762Y-35534104D01*
X54579762Y-35534104D02*
X54532143Y-35438866D01*
X54532143Y-35438866D02*
X54484524Y-35391247D01*
X54484524Y-35391247D02*
X54389286Y-35343628D01*
X54389286Y-35343628D02*
X54198810Y-35296009D01*
X54198810Y-35296009D02*
X54103572Y-35248390D01*
X54103572Y-35248390D02*
X54055953Y-35200771D01*
X54055953Y-35200771D02*
X54008334Y-35105533D01*
X54008334Y-35105533D02*
X54008334Y-35010295D01*
X54008334Y-35010295D02*
X54055953Y-34915057D01*
X54055953Y-34915057D02*
X54103572Y-34867438D01*
X54103572Y-34867438D02*
X54198810Y-34819819D01*
X54198810Y-34819819D02*
X54436905Y-34819819D01*
X54436905Y-34819819D02*
X54579762Y-34867438D01*
X55436905Y-35153152D02*
X55436905Y-35819819D01*
X55008334Y-35153152D02*
X55008334Y-35676961D01*
X55008334Y-35676961D02*
X55055953Y-35772200D01*
X55055953Y-35772200D02*
X55151191Y-35819819D01*
X55151191Y-35819819D02*
X55294048Y-35819819D01*
X55294048Y-35819819D02*
X55389286Y-35772200D01*
X55389286Y-35772200D02*
X55436905Y-35724580D01*
X55913096Y-35819819D02*
X55913096Y-35153152D01*
X55913096Y-35248390D02*
X55960715Y-35200771D01*
X55960715Y-35200771D02*
X56055953Y-35153152D01*
X56055953Y-35153152D02*
X56198810Y-35153152D01*
X56198810Y-35153152D02*
X56294048Y-35200771D01*
X56294048Y-35200771D02*
X56341667Y-35296009D01*
X56341667Y-35296009D02*
X56341667Y-35819819D01*
X56341667Y-35296009D02*
X56389286Y-35200771D01*
X56389286Y-35200771D02*
X56484524Y-35153152D01*
X56484524Y-35153152D02*
X56627381Y-35153152D01*
X56627381Y-35153152D02*
X56722620Y-35200771D01*
X56722620Y-35200771D02*
X56770239Y-35296009D01*
X56770239Y-35296009D02*
X56770239Y-35819819D01*
X57246429Y-35819819D02*
X57246429Y-35153152D01*
X57246429Y-35248390D02*
X57294048Y-35200771D01*
X57294048Y-35200771D02*
X57389286Y-35153152D01*
X57389286Y-35153152D02*
X57532143Y-35153152D01*
X57532143Y-35153152D02*
X57627381Y-35200771D01*
X57627381Y-35200771D02*
X57675000Y-35296009D01*
X57675000Y-35296009D02*
X57675000Y-35819819D01*
X57675000Y-35296009D02*
X57722619Y-35200771D01*
X57722619Y-35200771D02*
X57817857Y-35153152D01*
X57817857Y-35153152D02*
X57960714Y-35153152D01*
X57960714Y-35153152D02*
X58055953Y-35200771D01*
X58055953Y-35200771D02*
X58103572Y-35296009D01*
X58103572Y-35296009D02*
X58103572Y-35819819D01*
X58579762Y-35819819D02*
X58579762Y-35153152D01*
X58579762Y-34819819D02*
X58532143Y-34867438D01*
X58532143Y-34867438D02*
X58579762Y-34915057D01*
X58579762Y-34915057D02*
X58627381Y-34867438D01*
X58627381Y-34867438D02*
X58579762Y-34819819D01*
X58579762Y-34819819D02*
X58579762Y-34915057D01*
X58913095Y-35153152D02*
X59294047Y-35153152D01*
X59055952Y-34819819D02*
X59055952Y-35676961D01*
X59055952Y-35676961D02*
X59103571Y-35772200D01*
X59103571Y-35772200D02*
X59198809Y-35819819D01*
X59198809Y-35819819D02*
X59294047Y-35819819D01*
X38074819Y-71536904D02*
X38074819Y-70965476D01*
X39074819Y-71251190D02*
X38074819Y-71251190D01*
X39074819Y-70060714D02*
X38598628Y-70394047D01*
X39074819Y-70632142D02*
X38074819Y-70632142D01*
X38074819Y-70632142D02*
X38074819Y-70251190D01*
X38074819Y-70251190D02*
X38122438Y-70155952D01*
X38122438Y-70155952D02*
X38170057Y-70108333D01*
X38170057Y-70108333D02*
X38265295Y-70060714D01*
X38265295Y-70060714D02*
X38408152Y-70060714D01*
X38408152Y-70060714D02*
X38503390Y-70108333D01*
X38503390Y-70108333D02*
X38551009Y-70155952D01*
X38551009Y-70155952D02*
X38598628Y-70251190D01*
X38598628Y-70251190D02*
X38598628Y-70632142D01*
X39074819Y-69060714D02*
X38598628Y-69394047D01*
X39074819Y-69632142D02*
X38074819Y-69632142D01*
X38074819Y-69632142D02*
X38074819Y-69251190D01*
X38074819Y-69251190D02*
X38122438Y-69155952D01*
X38122438Y-69155952D02*
X38170057Y-69108333D01*
X38170057Y-69108333D02*
X38265295Y-69060714D01*
X38265295Y-69060714D02*
X38408152Y-69060714D01*
X38408152Y-69060714D02*
X38503390Y-69108333D01*
X38503390Y-69108333D02*
X38551009Y-69155952D01*
X38551009Y-69155952D02*
X38598628Y-69251190D01*
X38598628Y-69251190D02*
X38598628Y-69632142D01*
X39027200Y-68679761D02*
X39074819Y-68536904D01*
X39074819Y-68536904D02*
X39074819Y-68298809D01*
X39074819Y-68298809D02*
X39027200Y-68203571D01*
X39027200Y-68203571D02*
X38979580Y-68155952D01*
X38979580Y-68155952D02*
X38884342Y-68108333D01*
X38884342Y-68108333D02*
X38789104Y-68108333D01*
X38789104Y-68108333D02*
X38693866Y-68155952D01*
X38693866Y-68155952D02*
X38646247Y-68203571D01*
X38646247Y-68203571D02*
X38598628Y-68298809D01*
X38598628Y-68298809D02*
X38551009Y-68489285D01*
X38551009Y-68489285D02*
X38503390Y-68584523D01*
X38503390Y-68584523D02*
X38455771Y-68632142D01*
X38455771Y-68632142D02*
X38360533Y-68679761D01*
X38360533Y-68679761D02*
X38265295Y-68679761D01*
X38265295Y-68679761D02*
X38170057Y-68632142D01*
X38170057Y-68632142D02*
X38122438Y-68584523D01*
X38122438Y-68584523D02*
X38074819Y-68489285D01*
X38074819Y-68489285D02*
X38074819Y-68251190D01*
X38074819Y-68251190D02*
X38122438Y-68108333D01*
X38074819Y-71536904D02*
X38074819Y-70965476D01*
X39074819Y-71251190D02*
X38074819Y-71251190D01*
X39074819Y-70060714D02*
X38598628Y-70394047D01*
X39074819Y-70632142D02*
X38074819Y-70632142D01*
X38074819Y-70632142D02*
X38074819Y-70251190D01*
X38074819Y-70251190D02*
X38122438Y-70155952D01*
X38122438Y-70155952D02*
X38170057Y-70108333D01*
X38170057Y-70108333D02*
X38265295Y-70060714D01*
X38265295Y-70060714D02*
X38408152Y-70060714D01*
X38408152Y-70060714D02*
X38503390Y-70108333D01*
X38503390Y-70108333D02*
X38551009Y-70155952D01*
X38551009Y-70155952D02*
X38598628Y-70251190D01*
X38598628Y-70251190D02*
X38598628Y-70632142D01*
X39074819Y-69060714D02*
X38598628Y-69394047D01*
X39074819Y-69632142D02*
X38074819Y-69632142D01*
X38074819Y-69632142D02*
X38074819Y-69251190D01*
X38074819Y-69251190D02*
X38122438Y-69155952D01*
X38122438Y-69155952D02*
X38170057Y-69108333D01*
X38170057Y-69108333D02*
X38265295Y-69060714D01*
X38265295Y-69060714D02*
X38408152Y-69060714D01*
X38408152Y-69060714D02*
X38503390Y-69108333D01*
X38503390Y-69108333D02*
X38551009Y-69155952D01*
X38551009Y-69155952D02*
X38598628Y-69251190D01*
X38598628Y-69251190D02*
X38598628Y-69632142D01*
X39027200Y-68679761D02*
X39074819Y-68536904D01*
X39074819Y-68536904D02*
X39074819Y-68298809D01*
X39074819Y-68298809D02*
X39027200Y-68203571D01*
X39027200Y-68203571D02*
X38979580Y-68155952D01*
X38979580Y-68155952D02*
X38884342Y-68108333D01*
X38884342Y-68108333D02*
X38789104Y-68108333D01*
X38789104Y-68108333D02*
X38693866Y-68155952D01*
X38693866Y-68155952D02*
X38646247Y-68203571D01*
X38646247Y-68203571D02*
X38598628Y-68298809D01*
X38598628Y-68298809D02*
X38551009Y-68489285D01*
X38551009Y-68489285D02*
X38503390Y-68584523D01*
X38503390Y-68584523D02*
X38455771Y-68632142D01*
X38455771Y-68632142D02*
X38360533Y-68679761D01*
X38360533Y-68679761D02*
X38265295Y-68679761D01*
X38265295Y-68679761D02*
X38170057Y-68632142D01*
X38170057Y-68632142D02*
X38122438Y-68584523D01*
X38122438Y-68584523D02*
X38074819Y-68489285D01*
X38074819Y-68489285D02*
X38074819Y-68251190D01*
X38074819Y-68251190D02*
X38122438Y-68108333D01*
X33408819Y-54099333D02*
X34123104Y-54099333D01*
X34123104Y-54099333D02*
X34265961Y-54146952D01*
X34265961Y-54146952D02*
X34361200Y-54242190D01*
X34361200Y-54242190D02*
X34408819Y-54385047D01*
X34408819Y-54385047D02*
X34408819Y-54480285D01*
X33408819Y-53718380D02*
X33408819Y-53051714D01*
X33408819Y-53051714D02*
X34408819Y-53480285D01*
X36138866Y-60563666D02*
X37272200Y-60563666D01*
X37272200Y-60563666D02*
X37405533Y-60497000D01*
X37405533Y-60497000D02*
X37472200Y-60430333D01*
X37472200Y-60430333D02*
X37538866Y-60297000D01*
X37538866Y-60297000D02*
X37538866Y-60030333D01*
X37538866Y-60030333D02*
X37472200Y-59897000D01*
X37472200Y-59897000D02*
X37405533Y-59830333D01*
X37405533Y-59830333D02*
X37272200Y-59763666D01*
X37272200Y-59763666D02*
X36138866Y-59763666D01*
X36272200Y-59163666D02*
X36205533Y-59096999D01*
X36205533Y-59096999D02*
X36138866Y-58963666D01*
X36138866Y-58963666D02*
X36138866Y-58630333D01*
X36138866Y-58630333D02*
X36205533Y-58496999D01*
X36205533Y-58496999D02*
X36272200Y-58430333D01*
X36272200Y-58430333D02*
X36405533Y-58363666D01*
X36405533Y-58363666D02*
X36538866Y-58363666D01*
X36538866Y-58363666D02*
X36738866Y-58430333D01*
X36738866Y-58430333D02*
X37538866Y-59230333D01*
X37538866Y-59230333D02*
X37538866Y-58363666D01*
X41611319Y-61492588D02*
X42420842Y-61492588D01*
X42420842Y-61492588D02*
X42516080Y-61444969D01*
X42516080Y-61444969D02*
X42563700Y-61397350D01*
X42563700Y-61397350D02*
X42611319Y-61302112D01*
X42611319Y-61302112D02*
X42611319Y-61111636D01*
X42611319Y-61111636D02*
X42563700Y-61016398D01*
X42563700Y-61016398D02*
X42516080Y-60968779D01*
X42516080Y-60968779D02*
X42420842Y-60921160D01*
X42420842Y-60921160D02*
X41611319Y-60921160D01*
X41611319Y-60540207D02*
X41611319Y-59921160D01*
X41611319Y-59921160D02*
X41992271Y-60254493D01*
X41992271Y-60254493D02*
X41992271Y-60111636D01*
X41992271Y-60111636D02*
X42039890Y-60016398D01*
X42039890Y-60016398D02*
X42087509Y-59968779D01*
X42087509Y-59968779D02*
X42182747Y-59921160D01*
X42182747Y-59921160D02*
X42420842Y-59921160D01*
X42420842Y-59921160D02*
X42516080Y-59968779D01*
X42516080Y-59968779D02*
X42563700Y-60016398D01*
X42563700Y-60016398D02*
X42611319Y-60111636D01*
X42611319Y-60111636D02*
X42611319Y-60397350D01*
X42611319Y-60397350D02*
X42563700Y-60492588D01*
X42563700Y-60492588D02*
X42516080Y-60540207D01*
X53954819Y-82438094D02*
X52954819Y-82438094D01*
X52954819Y-82438094D02*
X52954819Y-82199999D01*
X52954819Y-82199999D02*
X53002438Y-82057142D01*
X53002438Y-82057142D02*
X53097676Y-81961904D01*
X53097676Y-81961904D02*
X53192914Y-81914285D01*
X53192914Y-81914285D02*
X53383390Y-81866666D01*
X53383390Y-81866666D02*
X53526247Y-81866666D01*
X53526247Y-81866666D02*
X53716723Y-81914285D01*
X53716723Y-81914285D02*
X53811961Y-81961904D01*
X53811961Y-81961904D02*
X53907200Y-82057142D01*
X53907200Y-82057142D02*
X53954819Y-82199999D01*
X53954819Y-82199999D02*
X53954819Y-82438094D01*
X53954819Y-80914285D02*
X53954819Y-81485713D01*
X53954819Y-81199999D02*
X52954819Y-81199999D01*
X52954819Y-81199999D02*
X53097676Y-81295237D01*
X53097676Y-81295237D02*
X53192914Y-81390475D01*
X53192914Y-81390475D02*
X53240533Y-81485713D01*
X69880952Y-32954819D02*
X69404762Y-32954819D01*
X69404762Y-32954819D02*
X69404762Y-31954819D01*
X70214286Y-32431009D02*
X70547619Y-32431009D01*
X70690476Y-32954819D02*
X70214286Y-32954819D01*
X70214286Y-32954819D02*
X70214286Y-31954819D01*
X70214286Y-31954819D02*
X70690476Y-31954819D01*
X71119048Y-32954819D02*
X71119048Y-31954819D01*
X71119048Y-31954819D02*
X71357143Y-31954819D01*
X71357143Y-31954819D02*
X71500000Y-32002438D01*
X71500000Y-32002438D02*
X71595238Y-32097676D01*
X71595238Y-32097676D02*
X71642857Y-32192914D01*
X71642857Y-32192914D02*
X71690476Y-32383390D01*
X71690476Y-32383390D02*
X71690476Y-32526247D01*
X71690476Y-32526247D02*
X71642857Y-32716723D01*
X71642857Y-32716723D02*
X71595238Y-32811961D01*
X71595238Y-32811961D02*
X71500000Y-32907200D01*
X71500000Y-32907200D02*
X71357143Y-32954819D01*
X71357143Y-32954819D02*
X71119048Y-32954819D01*
X72547619Y-31954819D02*
X72357143Y-31954819D01*
X72357143Y-31954819D02*
X72261905Y-32002438D01*
X72261905Y-32002438D02*
X72214286Y-32050057D01*
X72214286Y-32050057D02*
X72119048Y-32192914D01*
X72119048Y-32192914D02*
X72071429Y-32383390D01*
X72071429Y-32383390D02*
X72071429Y-32764342D01*
X72071429Y-32764342D02*
X72119048Y-32859580D01*
X72119048Y-32859580D02*
X72166667Y-32907200D01*
X72166667Y-32907200D02*
X72261905Y-32954819D01*
X72261905Y-32954819D02*
X72452381Y-32954819D01*
X72452381Y-32954819D02*
X72547619Y-32907200D01*
X72547619Y-32907200D02*
X72595238Y-32859580D01*
X72595238Y-32859580D02*
X72642857Y-32764342D01*
X72642857Y-32764342D02*
X72642857Y-32526247D01*
X72642857Y-32526247D02*
X72595238Y-32431009D01*
X72595238Y-32431009D02*
X72547619Y-32383390D01*
X72547619Y-32383390D02*
X72452381Y-32335771D01*
X72452381Y-32335771D02*
X72261905Y-32335771D01*
X72261905Y-32335771D02*
X72166667Y-32383390D01*
X72166667Y-32383390D02*
X72119048Y-32431009D01*
X72119048Y-32431009D02*
X72071429Y-32526247D01*
X71000000Y-31954819D02*
X71000000Y-32192914D01*
X70761905Y-32097676D02*
X71000000Y-32192914D01*
X71000000Y-32192914D02*
X71238095Y-32097676D01*
X70857143Y-32383390D02*
X71000000Y-32192914D01*
X71000000Y-32192914D02*
X71142857Y-32383390D01*
X166380952Y-32954819D02*
X165904762Y-32954819D01*
X165904762Y-32954819D02*
X165904762Y-31954819D01*
X166714286Y-32431009D02*
X167047619Y-32431009D01*
X167190476Y-32954819D02*
X166714286Y-32954819D01*
X166714286Y-32954819D02*
X166714286Y-31954819D01*
X166714286Y-31954819D02*
X167190476Y-31954819D01*
X167619048Y-32954819D02*
X167619048Y-31954819D01*
X167619048Y-31954819D02*
X167857143Y-31954819D01*
X167857143Y-31954819D02*
X168000000Y-32002438D01*
X168000000Y-32002438D02*
X168095238Y-32097676D01*
X168095238Y-32097676D02*
X168142857Y-32192914D01*
X168142857Y-32192914D02*
X168190476Y-32383390D01*
X168190476Y-32383390D02*
X168190476Y-32526247D01*
X168190476Y-32526247D02*
X168142857Y-32716723D01*
X168142857Y-32716723D02*
X168095238Y-32811961D01*
X168095238Y-32811961D02*
X168000000Y-32907200D01*
X168000000Y-32907200D02*
X167857143Y-32954819D01*
X167857143Y-32954819D02*
X167619048Y-32954819D01*
X169142857Y-32954819D02*
X168571429Y-32954819D01*
X168857143Y-32954819D02*
X168857143Y-31954819D01*
X168857143Y-31954819D02*
X168761905Y-32097676D01*
X168761905Y-32097676D02*
X168666667Y-32192914D01*
X168666667Y-32192914D02*
X168571429Y-32240533D01*
X167500000Y-31954819D02*
X167500000Y-32192914D01*
X167261905Y-32097676D02*
X167500000Y-32192914D01*
X167500000Y-32192914D02*
X167738095Y-32097676D01*
X167357143Y-32383390D02*
X167500000Y-32192914D01*
X167500000Y-32192914D02*
X167642857Y-32383390D01*
X127780952Y-32954819D02*
X127304762Y-32954819D01*
X127304762Y-32954819D02*
X127304762Y-31954819D01*
X128114286Y-32431009D02*
X128447619Y-32431009D01*
X128590476Y-32954819D02*
X128114286Y-32954819D01*
X128114286Y-32954819D02*
X128114286Y-31954819D01*
X128114286Y-31954819D02*
X128590476Y-31954819D01*
X129019048Y-32954819D02*
X129019048Y-31954819D01*
X129019048Y-31954819D02*
X129257143Y-31954819D01*
X129257143Y-31954819D02*
X129400000Y-32002438D01*
X129400000Y-32002438D02*
X129495238Y-32097676D01*
X129495238Y-32097676D02*
X129542857Y-32192914D01*
X129542857Y-32192914D02*
X129590476Y-32383390D01*
X129590476Y-32383390D02*
X129590476Y-32526247D01*
X129590476Y-32526247D02*
X129542857Y-32716723D01*
X129542857Y-32716723D02*
X129495238Y-32811961D01*
X129495238Y-32811961D02*
X129400000Y-32907200D01*
X129400000Y-32907200D02*
X129257143Y-32954819D01*
X129257143Y-32954819D02*
X129019048Y-32954819D01*
X129923810Y-31954819D02*
X130542857Y-31954819D01*
X130542857Y-31954819D02*
X130209524Y-32335771D01*
X130209524Y-32335771D02*
X130352381Y-32335771D01*
X130352381Y-32335771D02*
X130447619Y-32383390D01*
X130447619Y-32383390D02*
X130495238Y-32431009D01*
X130495238Y-32431009D02*
X130542857Y-32526247D01*
X130542857Y-32526247D02*
X130542857Y-32764342D01*
X130542857Y-32764342D02*
X130495238Y-32859580D01*
X130495238Y-32859580D02*
X130447619Y-32907200D01*
X130447619Y-32907200D02*
X130352381Y-32954819D01*
X130352381Y-32954819D02*
X130066667Y-32954819D01*
X130066667Y-32954819D02*
X129971429Y-32907200D01*
X129971429Y-32907200D02*
X129923810Y-32859580D01*
X128900000Y-31954819D02*
X128900000Y-32192914D01*
X128661905Y-32097676D02*
X128900000Y-32192914D01*
X128900000Y-32192914D02*
X129138095Y-32097676D01*
X128757143Y-32383390D02*
X128900000Y-32192914D01*
X128900000Y-32192914D02*
X129042857Y-32383390D01*
X108480952Y-32954819D02*
X108004762Y-32954819D01*
X108004762Y-32954819D02*
X108004762Y-31954819D01*
X108814286Y-32431009D02*
X109147619Y-32431009D01*
X109290476Y-32954819D02*
X108814286Y-32954819D01*
X108814286Y-32954819D02*
X108814286Y-31954819D01*
X108814286Y-31954819D02*
X109290476Y-31954819D01*
X109719048Y-32954819D02*
X109719048Y-31954819D01*
X109719048Y-31954819D02*
X109957143Y-31954819D01*
X109957143Y-31954819D02*
X110100000Y-32002438D01*
X110100000Y-32002438D02*
X110195238Y-32097676D01*
X110195238Y-32097676D02*
X110242857Y-32192914D01*
X110242857Y-32192914D02*
X110290476Y-32383390D01*
X110290476Y-32383390D02*
X110290476Y-32526247D01*
X110290476Y-32526247D02*
X110242857Y-32716723D01*
X110242857Y-32716723D02*
X110195238Y-32811961D01*
X110195238Y-32811961D02*
X110100000Y-32907200D01*
X110100000Y-32907200D02*
X109957143Y-32954819D01*
X109957143Y-32954819D02*
X109719048Y-32954819D01*
X111147619Y-32288152D02*
X111147619Y-32954819D01*
X110909524Y-31907200D02*
X110671429Y-32621485D01*
X110671429Y-32621485D02*
X111290476Y-32621485D01*
X109600000Y-31954819D02*
X109600000Y-32192914D01*
X109361905Y-32097676D02*
X109600000Y-32192914D01*
X109600000Y-32192914D02*
X109838095Y-32097676D01*
X109457143Y-32383390D02*
X109600000Y-32192914D01*
X109600000Y-32192914D02*
X109742857Y-32383390D01*
X147080952Y-32954819D02*
X146604762Y-32954819D01*
X146604762Y-32954819D02*
X146604762Y-31954819D01*
X147414286Y-32431009D02*
X147747619Y-32431009D01*
X147890476Y-32954819D02*
X147414286Y-32954819D01*
X147414286Y-32954819D02*
X147414286Y-31954819D01*
X147414286Y-31954819D02*
X147890476Y-31954819D01*
X148319048Y-32954819D02*
X148319048Y-31954819D01*
X148319048Y-31954819D02*
X148557143Y-31954819D01*
X148557143Y-31954819D02*
X148700000Y-32002438D01*
X148700000Y-32002438D02*
X148795238Y-32097676D01*
X148795238Y-32097676D02*
X148842857Y-32192914D01*
X148842857Y-32192914D02*
X148890476Y-32383390D01*
X148890476Y-32383390D02*
X148890476Y-32526247D01*
X148890476Y-32526247D02*
X148842857Y-32716723D01*
X148842857Y-32716723D02*
X148795238Y-32811961D01*
X148795238Y-32811961D02*
X148700000Y-32907200D01*
X148700000Y-32907200D02*
X148557143Y-32954819D01*
X148557143Y-32954819D02*
X148319048Y-32954819D01*
X149271429Y-32050057D02*
X149319048Y-32002438D01*
X149319048Y-32002438D02*
X149414286Y-31954819D01*
X149414286Y-31954819D02*
X149652381Y-31954819D01*
X149652381Y-31954819D02*
X149747619Y-32002438D01*
X149747619Y-32002438D02*
X149795238Y-32050057D01*
X149795238Y-32050057D02*
X149842857Y-32145295D01*
X149842857Y-32145295D02*
X149842857Y-32240533D01*
X149842857Y-32240533D02*
X149795238Y-32383390D01*
X149795238Y-32383390D02*
X149223810Y-32954819D01*
X149223810Y-32954819D02*
X149842857Y-32954819D01*
X148200000Y-31954819D02*
X148200000Y-32192914D01*
X147961905Y-32097676D02*
X148200000Y-32192914D01*
X148200000Y-32192914D02*
X148438095Y-32097676D01*
X148057143Y-32383390D02*
X148200000Y-32192914D01*
X148200000Y-32192914D02*
X148342857Y-32383390D01*
X89180952Y-32954819D02*
X88704762Y-32954819D01*
X88704762Y-32954819D02*
X88704762Y-31954819D01*
X89514286Y-32431009D02*
X89847619Y-32431009D01*
X89990476Y-32954819D02*
X89514286Y-32954819D01*
X89514286Y-32954819D02*
X89514286Y-31954819D01*
X89514286Y-31954819D02*
X89990476Y-31954819D01*
X90419048Y-32954819D02*
X90419048Y-31954819D01*
X90419048Y-31954819D02*
X90657143Y-31954819D01*
X90657143Y-31954819D02*
X90800000Y-32002438D01*
X90800000Y-32002438D02*
X90895238Y-32097676D01*
X90895238Y-32097676D02*
X90942857Y-32192914D01*
X90942857Y-32192914D02*
X90990476Y-32383390D01*
X90990476Y-32383390D02*
X90990476Y-32526247D01*
X90990476Y-32526247D02*
X90942857Y-32716723D01*
X90942857Y-32716723D02*
X90895238Y-32811961D01*
X90895238Y-32811961D02*
X90800000Y-32907200D01*
X90800000Y-32907200D02*
X90657143Y-32954819D01*
X90657143Y-32954819D02*
X90419048Y-32954819D01*
X91895238Y-31954819D02*
X91419048Y-31954819D01*
X91419048Y-31954819D02*
X91371429Y-32431009D01*
X91371429Y-32431009D02*
X91419048Y-32383390D01*
X91419048Y-32383390D02*
X91514286Y-32335771D01*
X91514286Y-32335771D02*
X91752381Y-32335771D01*
X91752381Y-32335771D02*
X91847619Y-32383390D01*
X91847619Y-32383390D02*
X91895238Y-32431009D01*
X91895238Y-32431009D02*
X91942857Y-32526247D01*
X91942857Y-32526247D02*
X91942857Y-32764342D01*
X91942857Y-32764342D02*
X91895238Y-32859580D01*
X91895238Y-32859580D02*
X91847619Y-32907200D01*
X91847619Y-32907200D02*
X91752381Y-32954819D01*
X91752381Y-32954819D02*
X91514286Y-32954819D01*
X91514286Y-32954819D02*
X91419048Y-32907200D01*
X91419048Y-32907200D02*
X91371429Y-32859580D01*
X90300000Y-31954819D02*
X90300000Y-32192914D01*
X90061905Y-32097676D02*
X90300000Y-32192914D01*
X90300000Y-32192914D02*
X90538095Y-32097676D01*
X90157143Y-32383390D02*
X90300000Y-32192914D01*
X90300000Y-32192914D02*
X90442857Y-32383390D01*
D11*
X35010000Y-75060000D02*
X35010000Y-86860000D01*
X39110000Y-75060000D02*
X35010000Y-75060000D01*
X39110000Y-86860000D02*
X35010000Y-86860000D01*
X40610000Y-80960000D02*
X41610000Y-80960000D01*
X41110000Y-80460000D02*
X41110000Y-81460000D01*
X43110000Y-75060000D02*
X47210000Y-75060000D01*
X47210000Y-75060000D02*
X47210000Y-77460000D01*
X47210000Y-79660000D02*
X47210000Y-82260000D01*
X47210000Y-84460000D02*
X47210000Y-86860000D01*
X47210000Y-86860000D02*
X43110000Y-86860000D01*
X44110000Y-80960000D02*
G75*
G03*
X44110000Y-80960000I-3000000J0D01*
G01*
D10*
X32170000Y-72025000D02*
X32170000Y-66025000D01*
X44170000Y-72025000D02*
X32170000Y-72025000D01*
X32170000Y-66025000D02*
X44170000Y-66025000D01*
X43670000Y-66025000D02*
X43670000Y-72025000D01*
D11*
X34954000Y-55096000D02*
X34954000Y-53766000D01*
X36284000Y-55096000D02*
X34954000Y-55096000D01*
X37554000Y-55096000D02*
X47774000Y-55096000D01*
X37554000Y-55096000D02*
X37554000Y-52436000D01*
X47774000Y-55096000D02*
X47774000Y-52436000D01*
X37554000Y-52436000D02*
X47774000Y-52436000D01*
D12*
X31900000Y-56782000D02*
X32500000Y-56782000D01*
X30900000Y-57232000D02*
X30900000Y-63032000D01*
X33500000Y-58532000D02*
X33500000Y-60232000D01*
X32500000Y-63482000D02*
X31900000Y-63482000D01*
D13*
X34800000Y-56932000D02*
G75*
G03*
X34800000Y-56932000I-100000J0D01*
G01*
D14*
X45199500Y-56632000D02*
X45199500Y-62632000D01*
X39199500Y-56632000D02*
X45199500Y-56632000D01*
X39199500Y-56632000D02*
X37599500Y-56632000D01*
X39199500Y-56632000D02*
X39199500Y-57735000D01*
X37599500Y-56632000D02*
X37599500Y-57532000D01*
X43499500Y-57532000D02*
X43499500Y-58482000D01*
X41599500Y-57532000D02*
X41599500Y-58482000D01*
X39199500Y-57532000D02*
X43499500Y-57532000D01*
X37599500Y-57532000D02*
X39199500Y-57532000D01*
X43499500Y-58482000D02*
X39199500Y-58482000D01*
X45199500Y-58932000D02*
X45200500Y-58933000D01*
X45200500Y-58933000D02*
X40948500Y-58933000D01*
X40948500Y-58933000D02*
X40948500Y-60282000D01*
X39199500Y-59529000D02*
X39199500Y-59735000D01*
X40948500Y-60282000D02*
X45200500Y-60282000D01*
X43499500Y-60757000D02*
X43499500Y-61707000D01*
X41599500Y-60757000D02*
X41599500Y-61707000D01*
X39199500Y-60757000D02*
X43499500Y-60757000D01*
X39199500Y-61529000D02*
X39199500Y-62632000D01*
X43499500Y-61707000D02*
X39199500Y-61707000D01*
X37599500Y-61732000D02*
X39199500Y-61732000D01*
X38699500Y-62032000D02*
X38699500Y-62332000D01*
X37999500Y-62182000D02*
X38699500Y-62032000D01*
X38699500Y-62332000D02*
X37999500Y-62182000D01*
X45199500Y-62632000D02*
X39199500Y-62632000D01*
X39199500Y-62632000D02*
X37599500Y-62632000D01*
X37599500Y-62632000D02*
X37599500Y-61732000D01*
D10*
X50240000Y-21016000D02*
X50240000Y-51496000D01*
X32460000Y-21016000D02*
X50240000Y-21016000D01*
X32460000Y-21016000D02*
X32460000Y-51496000D01*
X50240000Y-51496000D02*
X32460000Y-51496000D01*
G36*
X53414000Y-29120192D02*
G01*
X53409115Y-29125077D01*
X53404230Y-29120192D01*
X53409115Y-29115307D01*
X53414000Y-29120192D01*
G37*
G36*
X53599615Y-31201038D02*
G01*
X53594730Y-31205923D01*
X53589846Y-31201038D01*
X53594730Y-31196153D01*
X53599615Y-31201038D01*
G37*
G36*
X53648461Y-28670807D02*
G01*
X53643577Y-28675692D01*
X53638692Y-28670807D01*
X53643577Y-28665923D01*
X53648461Y-28670807D01*
G37*
G36*
X53726615Y-28719653D02*
G01*
X53721730Y-28724538D01*
X53716846Y-28719653D01*
X53721730Y-28714769D01*
X53726615Y-28719653D01*
G37*
G36*
X53804769Y-28534038D02*
G01*
X53799884Y-28538923D01*
X53795000Y-28534038D01*
X53799884Y-28529153D01*
X53804769Y-28534038D01*
G37*
G36*
X53804769Y-31367115D02*
G01*
X53799884Y-31372000D01*
X53795000Y-31367115D01*
X53799884Y-31362230D01*
X53804769Y-31367115D01*
G37*
G36*
X53941538Y-28504730D02*
G01*
X53936653Y-28509615D01*
X53931769Y-28504730D01*
X53936653Y-28499846D01*
X53941538Y-28504730D01*
G37*
G36*
X54312769Y-28240961D02*
G01*
X54307884Y-28245846D01*
X54303000Y-28240961D01*
X54307884Y-28236077D01*
X54312769Y-28240961D01*
G37*
G36*
X54312769Y-28690346D02*
G01*
X54307884Y-28695230D01*
X54303000Y-28690346D01*
X54307884Y-28685461D01*
X54312769Y-28690346D01*
G37*
G36*
X54371384Y-28582884D02*
G01*
X54366500Y-28587769D01*
X54361615Y-28582884D01*
X54366500Y-28578000D01*
X54371384Y-28582884D01*
G37*
G36*
X54400692Y-31386653D02*
G01*
X54395807Y-31391538D01*
X54390923Y-31386653D01*
X54395807Y-31381769D01*
X54400692Y-31386653D01*
G37*
G36*
X54449538Y-28612192D02*
G01*
X54444653Y-28617077D01*
X54439769Y-28612192D01*
X54444653Y-28607307D01*
X54449538Y-28612192D01*
G37*
G36*
X54742615Y-28026038D02*
G01*
X54737730Y-28030923D01*
X54732846Y-28026038D01*
X54737730Y-28021153D01*
X54742615Y-28026038D01*
G37*
G36*
X56344769Y-31982577D02*
G01*
X56339884Y-31987461D01*
X56335000Y-31982577D01*
X56339884Y-31977692D01*
X56344769Y-31982577D01*
G37*
G36*
X56452230Y-28074884D02*
G01*
X56447346Y-28079769D01*
X56442461Y-28074884D01*
X56447346Y-28070000D01*
X56452230Y-28074884D01*
G37*
G36*
X56501077Y-28104192D02*
G01*
X56496192Y-28109077D01*
X56491307Y-28104192D01*
X56496192Y-28099307D01*
X56501077Y-28104192D01*
G37*
G36*
X56667153Y-31894653D02*
G01*
X56662269Y-31899538D01*
X56657384Y-31894653D01*
X56662269Y-31889769D01*
X56667153Y-31894653D01*
G37*
G36*
X56823461Y-31308500D02*
G01*
X56818577Y-31313384D01*
X56813692Y-31308500D01*
X56818577Y-31303615D01*
X56823461Y-31308500D01*
G37*
G36*
X56882077Y-28289807D02*
G01*
X56877192Y-28294692D01*
X56872307Y-28289807D01*
X56877192Y-28284923D01*
X56882077Y-28289807D01*
G37*
G36*
X56882077Y-28612192D02*
G01*
X56877192Y-28617077D01*
X56872307Y-28612192D01*
X56877192Y-28607307D01*
X56882077Y-28612192D01*
G37*
G36*
X56930923Y-28319115D02*
G01*
X56926038Y-28324000D01*
X56921153Y-28319115D01*
X56926038Y-28314230D01*
X56930923Y-28319115D01*
G37*
G36*
X57175153Y-28612192D02*
G01*
X57170269Y-28617077D01*
X57165384Y-28612192D01*
X57170269Y-28607307D01*
X57175153Y-28612192D01*
G37*
G36*
X57331461Y-28455884D02*
G01*
X57326577Y-28460769D01*
X57321692Y-28455884D01*
X57326577Y-28451000D01*
X57331461Y-28455884D01*
G37*
G36*
X57360769Y-28426577D02*
G01*
X57355884Y-28431461D01*
X57351000Y-28426577D01*
X57355884Y-28421692D01*
X57360769Y-28426577D01*
G37*
G36*
X57546384Y-31415961D02*
G01*
X57541500Y-31420846D01*
X57536615Y-31415961D01*
X57541500Y-31411077D01*
X57546384Y-31415961D01*
G37*
G36*
X57575692Y-31367115D02*
G01*
X57570807Y-31372000D01*
X57565923Y-31367115D01*
X57570807Y-31362230D01*
X57575692Y-31367115D01*
G37*
G36*
X57653846Y-28504730D02*
G01*
X57648961Y-28509615D01*
X57644077Y-28504730D01*
X57648961Y-28499846D01*
X57653846Y-28504730D01*
G37*
G36*
X57790615Y-28856423D02*
G01*
X57785730Y-28861307D01*
X57780846Y-28856423D01*
X57785730Y-28851538D01*
X57790615Y-28856423D01*
G37*
G36*
X57946923Y-29120192D02*
G01*
X57942038Y-29125077D01*
X57937153Y-29120192D01*
X57942038Y-29115307D01*
X57946923Y-29120192D01*
G37*
G36*
X57946923Y-30800500D02*
G01*
X57942038Y-30805384D01*
X57937153Y-30800500D01*
X57942038Y-30795615D01*
X57946923Y-30800500D01*
G37*
G36*
X57976230Y-30722346D02*
G01*
X57971346Y-30727230D01*
X57966461Y-30722346D01*
X57971346Y-30717461D01*
X57976230Y-30722346D01*
G37*
G36*
X53410743Y-30798871D02*
G01*
X53409402Y-30804679D01*
X53404230Y-30805384D01*
X53396189Y-30801810D01*
X53397718Y-30798871D01*
X53409311Y-30797702D01*
X53410743Y-30798871D01*
G37*
G36*
X53518205Y-31013794D02*
G01*
X53516864Y-31019602D01*
X53511692Y-31020307D01*
X53503651Y-31016733D01*
X53505179Y-31013794D01*
X53516773Y-31012625D01*
X53518205Y-31013794D01*
G37*
G36*
X53596359Y-29147871D02*
G01*
X53595018Y-29153679D01*
X53589846Y-29154384D01*
X53581805Y-29150810D01*
X53583333Y-29147871D01*
X53594927Y-29146702D01*
X53596359Y-29147871D01*
G37*
G36*
X53703820Y-28610564D02*
G01*
X53702479Y-28616371D01*
X53697307Y-28617077D01*
X53689266Y-28613502D01*
X53690794Y-28610564D01*
X53702388Y-28609394D01*
X53703820Y-28610564D01*
G37*
G36*
X54182512Y-31570641D02*
G01*
X54183682Y-31582234D01*
X54182512Y-31583666D01*
X54176705Y-31582325D01*
X54176000Y-31577153D01*
X54179574Y-31569112D01*
X54182512Y-31570641D01*
G37*
G36*
X54319282Y-31521794D02*
G01*
X54317941Y-31527602D01*
X54312769Y-31528307D01*
X54304728Y-31524733D01*
X54306256Y-31521794D01*
X54317850Y-31520625D01*
X54319282Y-31521794D01*
G37*
G36*
X54446282Y-31492487D02*
G01*
X54447451Y-31504081D01*
X54446282Y-31505512D01*
X54440474Y-31504171D01*
X54439769Y-31499000D01*
X54443343Y-31490958D01*
X54446282Y-31492487D01*
G37*
G36*
X54504897Y-31258025D02*
G01*
X54503556Y-31263833D01*
X54498384Y-31264538D01*
X54490343Y-31260964D01*
X54491871Y-31258025D01*
X54503465Y-31256856D01*
X54504897Y-31258025D01*
G37*
G36*
X54661205Y-31277564D02*
G01*
X54662374Y-31289157D01*
X54661205Y-31290589D01*
X54655397Y-31289248D01*
X54654692Y-31284077D01*
X54658266Y-31276035D01*
X54661205Y-31277564D01*
G37*
G36*
X56771359Y-31785564D02*
G01*
X56772528Y-31797157D01*
X56771359Y-31798589D01*
X56765551Y-31797248D01*
X56764846Y-31792077D01*
X56768420Y-31784035D01*
X56771359Y-31785564D01*
G37*
G36*
X56800666Y-28102564D02*
G01*
X56799325Y-28108371D01*
X56794153Y-28109077D01*
X56786112Y-28105502D01*
X56787641Y-28102564D01*
X56799234Y-28101394D01*
X56800666Y-28102564D01*
G37*
G36*
X56986282Y-28903641D02*
G01*
X56984941Y-28909448D01*
X56979769Y-28910153D01*
X56971728Y-28906579D01*
X56973256Y-28903641D01*
X56984850Y-28902471D01*
X56986282Y-28903641D01*
G37*
G36*
X57005820Y-29274871D02*
G01*
X57006989Y-29286465D01*
X57005820Y-29287897D01*
X57000012Y-29286556D01*
X56999307Y-29281384D01*
X57002882Y-29273343D01*
X57005820Y-29274871D01*
G37*
G36*
X57201205Y-31580410D02*
G01*
X57199864Y-31586218D01*
X57194692Y-31586923D01*
X57186651Y-31583348D01*
X57188179Y-31580410D01*
X57199773Y-31579241D01*
X57201205Y-31580410D01*
G37*
G36*
X57230512Y-28317487D02*
G01*
X57229171Y-28323295D01*
X57224000Y-28324000D01*
X57215958Y-28320425D01*
X57217487Y-28317487D01*
X57229081Y-28316318D01*
X57230512Y-28317487D01*
G37*
G36*
X57250051Y-28581256D02*
G01*
X57251220Y-28592850D01*
X57250051Y-28594282D01*
X57244243Y-28592941D01*
X57243538Y-28587769D01*
X57247112Y-28579728D01*
X57250051Y-28581256D01*
G37*
G36*
X57738512Y-31150564D02*
G01*
X57737171Y-31156371D01*
X57732000Y-31157077D01*
X57723958Y-31153502D01*
X57725487Y-31150564D01*
X57737081Y-31149394D01*
X57738512Y-31150564D01*
G37*
G36*
X57816666Y-28796179D02*
G01*
X57815325Y-28801987D01*
X57810153Y-28802692D01*
X57802112Y-28799117D01*
X57803641Y-28796179D01*
X57815234Y-28795010D01*
X57816666Y-28796179D01*
G37*
G36*
X57845974Y-28825487D02*
G01*
X57844633Y-28831295D01*
X57839461Y-28832000D01*
X57831420Y-28828425D01*
X57832948Y-28825487D01*
X57844542Y-28824318D01*
X57845974Y-28825487D01*
G37*
G36*
X57865512Y-28932948D02*
G01*
X57864171Y-28938756D01*
X57859000Y-28939461D01*
X57850958Y-28935887D01*
X57852487Y-28932948D01*
X57864081Y-28931779D01*
X57865512Y-28932948D01*
G37*
G36*
X57924128Y-29069718D02*
G01*
X57922787Y-29075525D01*
X57917615Y-29076230D01*
X57909574Y-29072656D01*
X57911102Y-29069718D01*
X57922696Y-29068548D01*
X57924128Y-29069718D01*
G37*
G36*
X57924128Y-29226025D02*
G01*
X57922787Y-29231833D01*
X57917615Y-29232538D01*
X57909574Y-29228964D01*
X57911102Y-29226025D01*
X57922696Y-29224856D01*
X57924128Y-29226025D01*
G37*
G36*
X54127828Y-31465224D02*
G01*
X54136491Y-31474655D01*
X54126625Y-31479270D01*
X54121692Y-31479461D01*
X54111630Y-31474655D01*
X54112598Y-31469533D01*
X54124306Y-31463897D01*
X54127828Y-31465224D01*
G37*
G36*
X54264598Y-31650840D02*
G01*
X54273260Y-31660271D01*
X54263394Y-31664885D01*
X54258461Y-31665077D01*
X54248400Y-31660270D01*
X54249367Y-31655148D01*
X54261075Y-31649512D01*
X54264598Y-31650840D01*
G37*
G36*
X53677485Y-28634280D02*
G01*
X53677769Y-28636615D01*
X53670335Y-28646100D01*
X53668000Y-28646384D01*
X53658514Y-28638950D01*
X53658230Y-28636615D01*
X53665664Y-28627130D01*
X53668000Y-28626846D01*
X53677485Y-28634280D01*
G37*
G36*
X53733026Y-28583985D02*
G01*
X53731500Y-28587769D01*
X53722721Y-28597088D01*
X53721154Y-28597538D01*
X53716958Y-28589980D01*
X53716846Y-28587769D01*
X53724356Y-28578375D01*
X53727192Y-28578000D01*
X53733026Y-28583985D01*
G37*
G36*
X53921716Y-28448664D02*
G01*
X53922000Y-28451000D01*
X53914565Y-28460485D01*
X53912230Y-28460769D01*
X53902745Y-28453335D01*
X53902461Y-28451000D01*
X53909895Y-28441514D01*
X53912230Y-28441230D01*
X53921716Y-28448664D01*
G37*
G36*
X53999870Y-28399818D02*
G01*
X54000153Y-28402153D01*
X53992719Y-28411639D01*
X53990384Y-28411923D01*
X53980899Y-28404489D01*
X53980615Y-28402153D01*
X53988049Y-28392668D01*
X53990384Y-28392384D01*
X53999870Y-28399818D01*
G37*
G36*
X54185657Y-31438173D02*
G01*
X54185769Y-31440384D01*
X54178259Y-31449778D01*
X54175423Y-31450153D01*
X54169588Y-31444168D01*
X54171115Y-31440384D01*
X54179894Y-31431065D01*
X54181461Y-31430615D01*
X54185657Y-31438173D01*
G37*
G36*
X54293118Y-31252558D02*
G01*
X54293230Y-31254769D01*
X54285720Y-31264163D01*
X54282885Y-31264538D01*
X54277050Y-31258553D01*
X54278577Y-31254769D01*
X54287355Y-31245449D01*
X54288922Y-31245000D01*
X54293118Y-31252558D01*
G37*
G36*
X54322254Y-31174280D02*
G01*
X54322538Y-31176615D01*
X54315104Y-31186100D01*
X54312769Y-31186384D01*
X54303283Y-31178950D01*
X54303000Y-31176615D01*
X54310434Y-31167130D01*
X54312769Y-31166846D01*
X54322254Y-31174280D01*
G37*
G36*
X54400408Y-28233741D02*
G01*
X54400692Y-28236077D01*
X54393258Y-28245562D01*
X54390923Y-28245846D01*
X54381437Y-28238412D01*
X54381153Y-28236077D01*
X54388588Y-28226591D01*
X54390923Y-28226307D01*
X54400408Y-28233741D01*
G37*
G36*
X54478734Y-31360019D02*
G01*
X54478846Y-31362230D01*
X54471336Y-31371624D01*
X54468500Y-31372000D01*
X54462665Y-31366015D01*
X54464192Y-31362230D01*
X54472971Y-31352911D01*
X54474538Y-31352461D01*
X54478734Y-31360019D01*
G37*
G36*
X54534103Y-31280292D02*
G01*
X54532577Y-31284077D01*
X54523798Y-31293396D01*
X54522231Y-31293846D01*
X54518035Y-31286287D01*
X54517923Y-31284077D01*
X54525433Y-31274683D01*
X54528268Y-31274307D01*
X54534103Y-31280292D01*
G37*
G36*
X54664064Y-31789399D02*
G01*
X54664461Y-31792077D01*
X54661128Y-31801592D01*
X54660153Y-31801846D01*
X54651812Y-31795000D01*
X54649807Y-31792077D01*
X54650582Y-31783074D01*
X54654115Y-31782307D01*
X54664064Y-31789399D01*
G37*
G36*
X54664349Y-28634404D02*
G01*
X54664461Y-28636615D01*
X54656951Y-28646009D01*
X54654115Y-28646384D01*
X54648281Y-28640399D01*
X54649807Y-28636615D01*
X54658586Y-28627295D01*
X54660153Y-28626846D01*
X54664349Y-28634404D01*
G37*
G36*
X54830254Y-28018818D02*
G01*
X54830538Y-28021153D01*
X54823104Y-28030639D01*
X54820769Y-28030923D01*
X54811283Y-28023489D01*
X54811000Y-28021153D01*
X54818434Y-28011668D01*
X54820769Y-28011384D01*
X54830254Y-28018818D01*
G37*
G36*
X56481254Y-32004664D02*
G01*
X56481538Y-32007000D01*
X56474104Y-32016485D01*
X56471769Y-32016769D01*
X56462283Y-32009335D01*
X56462000Y-32007000D01*
X56469434Y-31997514D01*
X56471769Y-31997230D01*
X56481254Y-32004664D01*
G37*
G36*
X56510562Y-28048126D02*
G01*
X56510846Y-28050461D01*
X56503412Y-28059946D01*
X56501077Y-28060230D01*
X56491591Y-28052796D01*
X56491307Y-28050461D01*
X56498741Y-28040976D01*
X56501077Y-28040692D01*
X56510562Y-28048126D01*
G37*
G36*
X56559294Y-27969630D02*
G01*
X56559692Y-27972307D01*
X56556359Y-27981823D01*
X56555384Y-27982077D01*
X56547043Y-27975231D01*
X56545038Y-27972307D01*
X56545813Y-27963305D01*
X56549346Y-27962538D01*
X56559294Y-27969630D01*
G37*
G36*
X56911100Y-31789741D02*
G01*
X56911384Y-31792077D01*
X56903950Y-31801562D01*
X56901615Y-31801846D01*
X56892130Y-31794412D01*
X56891846Y-31792077D01*
X56899280Y-31782591D01*
X56901615Y-31782307D01*
X56911100Y-31789741D01*
G37*
G36*
X56940408Y-28263049D02*
G01*
X56940692Y-28265384D01*
X56933258Y-28274870D01*
X56930923Y-28275153D01*
X56921437Y-28267719D01*
X56921153Y-28265384D01*
X56928588Y-28255899D01*
X56930923Y-28255615D01*
X56940408Y-28263049D01*
G37*
G36*
X56989140Y-28184553D02*
G01*
X56989538Y-28187230D01*
X56986205Y-28196746D01*
X56985230Y-28197000D01*
X56976889Y-28190154D01*
X56974884Y-28187230D01*
X56975659Y-28178228D01*
X56979192Y-28177461D01*
X56989140Y-28184553D01*
G37*
G36*
X57015488Y-31202138D02*
G01*
X57013961Y-31205923D01*
X57005182Y-31215242D01*
X57003615Y-31215692D01*
X56999419Y-31208134D01*
X56999307Y-31205923D01*
X57006817Y-31196529D01*
X57009653Y-31196153D01*
X57015488Y-31202138D01*
G37*
G36*
X57017744Y-28820374D02*
G01*
X57018846Y-28827115D01*
X57013571Y-28840116D01*
X57009077Y-28841769D01*
X57000409Y-28833856D01*
X56999307Y-28827115D01*
X57004582Y-28814114D01*
X57009077Y-28812461D01*
X57017744Y-28820374D01*
G37*
G36*
X57044795Y-28720754D02*
G01*
X57043269Y-28724538D01*
X57034490Y-28733858D01*
X57032923Y-28734307D01*
X57028727Y-28726749D01*
X57028615Y-28724538D01*
X57036125Y-28715144D01*
X57038961Y-28714769D01*
X57044795Y-28720754D01*
G37*
G36*
X57096888Y-28634404D02*
G01*
X57097000Y-28636615D01*
X57089489Y-28646009D01*
X57086654Y-28646384D01*
X57080819Y-28640399D01*
X57082346Y-28636615D01*
X57091124Y-28627295D01*
X57092692Y-28626846D01*
X57096888Y-28634404D01*
G37*
G36*
X57096888Y-28741866D02*
G01*
X57097000Y-28744077D01*
X57089489Y-28753470D01*
X57086654Y-28753846D01*
X57080819Y-28747861D01*
X57082346Y-28744077D01*
X57091124Y-28734757D01*
X57092692Y-28734307D01*
X57096888Y-28741866D01*
G37*
G36*
X57126023Y-28477972D02*
G01*
X57126307Y-28480307D01*
X57118873Y-28489793D01*
X57116538Y-28490077D01*
X57107053Y-28482642D01*
X57106769Y-28480307D01*
X57114203Y-28470822D01*
X57116538Y-28470538D01*
X57126023Y-28477972D01*
G37*
G36*
X57175041Y-28448789D02*
G01*
X57175153Y-28451000D01*
X57167643Y-28460393D01*
X57164808Y-28460769D01*
X57158973Y-28454784D01*
X57160500Y-28451000D01*
X57169278Y-28441680D01*
X57170845Y-28441230D01*
X57175041Y-28448789D01*
G37*
G36*
X57230411Y-28720754D02*
G01*
X57228884Y-28724538D01*
X57220105Y-28733858D01*
X57218538Y-28734307D01*
X57214342Y-28726749D01*
X57214230Y-28724538D01*
X57221740Y-28715144D01*
X57224576Y-28714769D01*
X57230411Y-28720754D01*
G37*
G36*
X57497140Y-31388860D02*
G01*
X57497538Y-31391538D01*
X57494205Y-31401053D01*
X57493230Y-31401307D01*
X57484889Y-31394462D01*
X57482884Y-31391538D01*
X57483659Y-31382536D01*
X57487192Y-31381769D01*
X57497140Y-31388860D01*
G37*
G36*
X57526562Y-31438049D02*
G01*
X57526846Y-31440384D01*
X57519412Y-31449870D01*
X57517077Y-31450153D01*
X57507591Y-31442719D01*
X57507307Y-31440384D01*
X57514741Y-31430899D01*
X57517077Y-31430615D01*
X57526562Y-31438049D01*
G37*
G36*
X57575408Y-31467357D02*
G01*
X57575692Y-31469692D01*
X57568258Y-31479177D01*
X57565923Y-31479461D01*
X57556437Y-31472027D01*
X57556153Y-31469692D01*
X57563588Y-31460207D01*
X57565923Y-31459923D01*
X57575408Y-31467357D01*
G37*
G36*
X57767718Y-31202138D02*
G01*
X57766192Y-31205923D01*
X57757413Y-31215242D01*
X57755846Y-31215692D01*
X57751650Y-31208134D01*
X57751538Y-31205923D01*
X57759048Y-31196529D01*
X57761884Y-31196153D01*
X57767718Y-31202138D01*
G37*
G36*
X53510614Y-29862389D02*
G01*
X53516577Y-29867538D01*
X53512720Y-29874422D01*
X53493598Y-29877298D01*
X53492153Y-29877307D01*
X53472295Y-29874706D01*
X53467471Y-29868003D01*
X53467730Y-29867538D01*
X53481550Y-29859246D01*
X53492153Y-29857769D01*
X53510614Y-29862389D01*
G37*
G36*
X55501640Y-31709017D02*
G01*
X55503657Y-31725696D01*
X55498458Y-31750557D01*
X55490091Y-31769372D01*
X55481854Y-31770145D01*
X55476297Y-31754224D01*
X55475307Y-31738346D01*
X55478485Y-31713057D01*
X55488627Y-31704215D01*
X55489961Y-31704153D01*
X55501640Y-31709017D01*
G37*
G36*
X55813847Y-32084053D02*
G01*
X55817000Y-32105707D01*
X55817230Y-32114461D01*
X55814698Y-32140493D01*
X55808658Y-32152675D01*
X55801451Y-32149125D01*
X55796011Y-32131557D01*
X55794372Y-32103639D01*
X55799148Y-32082853D01*
X55808177Y-32075384D01*
X55813847Y-32084053D01*
G37*
G36*
X54288649Y-30283086D02*
G01*
X54293230Y-30292500D01*
X54284947Y-30301706D01*
X54265442Y-30306856D01*
X54242733Y-30307298D01*
X54224840Y-30302379D01*
X54220594Y-30298408D01*
X54223100Y-30288477D01*
X54240505Y-30280978D01*
X54268175Y-30277852D01*
X54269606Y-30277846D01*
X54288649Y-30283086D01*
G37*
G36*
X54966241Y-30495067D02*
G01*
X54985214Y-30500503D01*
X54991730Y-30507423D01*
X54983345Y-30514794D01*
X54963433Y-30519235D01*
X54939858Y-30520206D01*
X54920484Y-30517165D01*
X54913865Y-30512774D01*
X54915527Y-30501044D01*
X54921901Y-30496856D01*
X54942514Y-30493454D01*
X54966241Y-30495067D01*
G37*
G36*
X55172700Y-30609617D02*
G01*
X55179397Y-30633727D01*
X55180378Y-30642505D01*
X55180344Y-30667317D01*
X55173632Y-30677480D01*
X55168166Y-30678384D01*
X55157804Y-30672704D01*
X55153362Y-30653226D01*
X55152923Y-30638493D01*
X55156206Y-30611524D01*
X55163884Y-30602058D01*
X55172700Y-30609617D01*
G37*
G36*
X55651084Y-32236534D02*
G01*
X55657656Y-32248836D01*
X55660557Y-32270053D01*
X55659758Y-32292222D01*
X55655233Y-32307379D01*
X55651340Y-32309846D01*
X55642078Y-32301557D01*
X55635632Y-32285444D01*
X55633122Y-32260741D01*
X55637381Y-32242057D01*
X55646636Y-32235003D01*
X55651084Y-32236534D01*
G37*
G36*
X57770010Y-29830759D02*
G01*
X57788983Y-29836195D01*
X57795500Y-29843115D01*
X57787114Y-29850486D01*
X57767202Y-29854928D01*
X57743627Y-29855898D01*
X57724253Y-29852857D01*
X57717634Y-29848466D01*
X57719296Y-29836736D01*
X57725671Y-29832548D01*
X57746283Y-29829146D01*
X57770010Y-29830759D01*
G37*
G36*
X53412556Y-29888834D02*
G01*
X53430242Y-29893327D01*
X53433538Y-29896846D01*
X53424752Y-29902419D01*
X53402287Y-29905956D01*
X53384692Y-29906615D01*
X53356828Y-29904858D01*
X53339142Y-29900365D01*
X53335846Y-29896846D01*
X53344632Y-29891273D01*
X53367097Y-29887736D01*
X53384692Y-29887077D01*
X53412556Y-29888834D01*
G37*
G36*
X53484179Y-30045325D02*
G01*
X53499905Y-30050234D01*
X53501923Y-30053153D01*
X53493191Y-30058980D01*
X53471099Y-30062474D01*
X53457961Y-30062923D01*
X53431743Y-30060982D01*
X53416017Y-30056073D01*
X53414000Y-30053153D01*
X53422731Y-30047327D01*
X53444823Y-30043832D01*
X53457961Y-30043384D01*
X53484179Y-30045325D01*
G37*
G36*
X53585008Y-30074859D02*
G01*
X53598619Y-30080271D01*
X53599615Y-30082461D01*
X53590948Y-30088579D01*
X53569297Y-30091981D01*
X53560538Y-30092230D01*
X53536068Y-30090064D01*
X53522458Y-30084651D01*
X53521461Y-30082461D01*
X53530128Y-30076344D01*
X53551779Y-30072941D01*
X53560538Y-30072692D01*
X53585008Y-30074859D01*
G37*
G36*
X53751085Y-30123705D02*
G01*
X53764695Y-30129117D01*
X53765692Y-30131307D01*
X53757025Y-30137425D01*
X53735374Y-30140827D01*
X53726615Y-30141077D01*
X53702145Y-30138910D01*
X53688534Y-30133497D01*
X53687538Y-30131307D01*
X53696205Y-30125190D01*
X53717856Y-30121787D01*
X53726615Y-30121538D01*
X53751085Y-30123705D01*
G37*
G36*
X54063336Y-29703598D02*
G01*
X54077206Y-29708946D01*
X54078307Y-29711230D01*
X54069730Y-29717731D01*
X54048683Y-29720931D01*
X54044692Y-29721000D01*
X54020358Y-29718411D01*
X54005701Y-29712092D01*
X54005038Y-29711230D01*
X54009435Y-29704817D01*
X54030072Y-29701644D01*
X54038654Y-29701461D01*
X54063336Y-29703598D01*
G37*
G36*
X54151623Y-29674320D02*
G01*
X54165234Y-29679733D01*
X54166230Y-29681923D01*
X54157564Y-29688040D01*
X54135913Y-29691443D01*
X54127153Y-29691692D01*
X54102683Y-29689525D01*
X54089073Y-29684113D01*
X54088077Y-29681923D01*
X54096743Y-29675805D01*
X54118394Y-29672403D01*
X54127153Y-29672153D01*
X54151623Y-29674320D01*
G37*
G36*
X54200470Y-30260474D02*
G01*
X54214080Y-30265887D01*
X54215077Y-30268077D01*
X54206410Y-30274194D01*
X54184759Y-30277597D01*
X54176000Y-30277846D01*
X54151530Y-30275679D01*
X54137919Y-30270266D01*
X54136923Y-30268077D01*
X54145589Y-30261959D01*
X54167240Y-30258556D01*
X54176000Y-30258307D01*
X54200470Y-30260474D01*
G37*
G36*
X54339634Y-30309006D02*
G01*
X54363200Y-30313261D01*
X54375675Y-30320006D01*
X54376269Y-30321807D01*
X54367627Y-30328807D01*
X54346204Y-30333906D01*
X54339634Y-30334609D01*
X54314704Y-30334719D01*
X54304226Y-30328437D01*
X54303000Y-30321807D01*
X54307518Y-30311407D01*
X54324061Y-30308247D01*
X54339634Y-30309006D01*
G37*
G36*
X54464309Y-30338067D02*
G01*
X54483825Y-30342210D01*
X54488615Y-30346230D01*
X54479782Y-30351580D01*
X54456997Y-30355129D01*
X54434884Y-30356000D01*
X54405459Y-30354394D01*
X54385943Y-30350251D01*
X54381153Y-30346230D01*
X54389986Y-30340880D01*
X54412772Y-30337332D01*
X54434884Y-30336461D01*
X54464309Y-30338067D01*
G37*
G36*
X54513155Y-29566298D02*
G01*
X54532671Y-29570441D01*
X54537461Y-29574461D01*
X54528628Y-29579811D01*
X54505843Y-29583360D01*
X54483730Y-29584230D01*
X54454306Y-29582624D01*
X54434789Y-29578482D01*
X54430000Y-29574461D01*
X54438832Y-29569111D01*
X54461618Y-29565563D01*
X54483730Y-29564692D01*
X54513155Y-29566298D01*
G37*
G36*
X54603709Y-29537804D02*
G01*
X54614906Y-29545825D01*
X54615615Y-29550038D01*
X54607803Y-29561125D01*
X54583292Y-29564692D01*
X54583051Y-29564692D01*
X54558912Y-29562905D01*
X54544415Y-29558564D01*
X54543974Y-29558179D01*
X54537660Y-29545163D01*
X54550038Y-29537552D01*
X54576538Y-29535384D01*
X54603709Y-29537804D01*
G37*
G36*
X54780248Y-29488295D02*
G01*
X54797934Y-29492788D01*
X54801230Y-29496307D01*
X54792444Y-29501880D01*
X54769979Y-29505417D01*
X54752384Y-29506077D01*
X54724520Y-29504319D01*
X54706834Y-29499826D01*
X54703538Y-29496307D01*
X54712324Y-29490734D01*
X54734789Y-29487197D01*
X54752384Y-29486538D01*
X54780248Y-29488295D01*
G37*
G36*
X54887710Y-30474988D02*
G01*
X54905396Y-30479481D01*
X54908692Y-30483000D01*
X54899906Y-30488572D01*
X54877441Y-30492110D01*
X54859846Y-30492769D01*
X54831982Y-30491012D01*
X54814296Y-30486519D01*
X54811000Y-30483000D01*
X54819786Y-30477427D01*
X54842251Y-30473890D01*
X54859846Y-30473230D01*
X54887710Y-30474988D01*
G37*
G36*
X55078033Y-30524029D02*
G01*
X55091946Y-30529728D01*
X55092292Y-30533007D01*
X55081286Y-30540253D01*
X55058745Y-30545854D01*
X55032662Y-30548761D01*
X55011030Y-30547925D01*
X55002976Y-30544720D01*
X54996752Y-30532506D01*
X55008062Y-30525114D01*
X55037626Y-30522166D01*
X55046275Y-30522077D01*
X55078033Y-30524029D01*
G37*
G36*
X55197857Y-30688300D02*
G01*
X55201180Y-30710519D01*
X55201769Y-30731538D01*
X55200179Y-30761142D01*
X55196074Y-30780867D01*
X55192000Y-30785846D01*
X55186399Y-30777066D01*
X55182865Y-30754642D01*
X55182230Y-30737576D01*
X55184055Y-30708441D01*
X55188703Y-30688152D01*
X55192000Y-30683269D01*
X55197857Y-30688300D01*
G37*
G36*
X55227425Y-29094666D02*
G01*
X55230827Y-29116317D01*
X55231077Y-29125077D01*
X55228910Y-29149547D01*
X55223497Y-29163157D01*
X55221307Y-29164153D01*
X55215190Y-29155487D01*
X55211787Y-29133836D01*
X55211538Y-29125077D01*
X55213705Y-29100606D01*
X55219117Y-29086996D01*
X55221307Y-29086000D01*
X55227425Y-29094666D01*
G37*
G36*
X55227425Y-30794513D02*
G01*
X55230827Y-30816163D01*
X55231077Y-30824923D01*
X55228910Y-30849393D01*
X55223497Y-30863003D01*
X55221307Y-30864000D01*
X55215190Y-30855333D01*
X55211787Y-30833682D01*
X55211538Y-30824923D01*
X55213705Y-30800453D01*
X55219117Y-30786842D01*
X55221307Y-30785846D01*
X55227425Y-30794513D01*
G37*
G36*
X55254946Y-28983767D02*
G01*
X55259446Y-29001872D01*
X55260384Y-29027384D01*
X55258815Y-29058102D01*
X55253384Y-29073105D01*
X55245730Y-29076230D01*
X55236515Y-29071001D01*
X55232014Y-29052896D01*
X55231077Y-29027384D01*
X55232645Y-28996667D01*
X55238077Y-28981664D01*
X55245730Y-28978538D01*
X55254946Y-28983767D01*
G37*
G36*
X55282038Y-28904141D02*
G01*
X55287137Y-28925564D01*
X55287839Y-28932134D01*
X55287950Y-28957064D01*
X55281667Y-28967542D01*
X55275038Y-28968769D01*
X55264637Y-28964250D01*
X55261478Y-28947708D01*
X55262237Y-28932134D01*
X55266492Y-28908568D01*
X55273237Y-28896094D01*
X55275038Y-28895500D01*
X55282038Y-28904141D01*
G37*
G36*
X55305579Y-28821128D02*
G01*
X55308981Y-28842779D01*
X55309230Y-28851538D01*
X55307064Y-28876008D01*
X55301651Y-28889619D01*
X55299461Y-28890615D01*
X55293344Y-28881948D01*
X55289941Y-28860297D01*
X55289692Y-28851538D01*
X55291859Y-28827068D01*
X55297271Y-28813458D01*
X55299461Y-28812461D01*
X55305579Y-28821128D01*
G37*
G36*
X55305579Y-31068051D02*
G01*
X55308981Y-31089702D01*
X55309230Y-31098461D01*
X55307064Y-31122931D01*
X55301651Y-31136542D01*
X55299461Y-31137538D01*
X55293344Y-31128871D01*
X55289941Y-31107221D01*
X55289692Y-31098461D01*
X55291859Y-31073991D01*
X55297271Y-31060381D01*
X55299461Y-31059384D01*
X55305579Y-31068051D01*
G37*
G36*
X55412273Y-28450063D02*
G01*
X55415821Y-28472849D01*
X55416692Y-28494961D01*
X55415086Y-28524386D01*
X55410943Y-28543902D01*
X55406923Y-28548692D01*
X55401573Y-28539859D01*
X55398024Y-28517074D01*
X55397153Y-28494961D01*
X55398759Y-28465536D01*
X55402902Y-28446020D01*
X55406923Y-28441230D01*
X55412273Y-28450063D01*
G37*
G36*
X55413040Y-31409974D02*
G01*
X55416443Y-31431625D01*
X55416692Y-31440384D01*
X55414525Y-31464854D01*
X55409113Y-31478465D01*
X55406923Y-31479461D01*
X55400805Y-31470794D01*
X55397403Y-31449144D01*
X55397153Y-31440384D01*
X55399320Y-31415914D01*
X55404733Y-31402304D01*
X55406923Y-31401307D01*
X55413040Y-31409974D01*
G37*
G36*
X55441803Y-31498017D02*
G01*
X55445340Y-31520481D01*
X55446000Y-31538077D01*
X55444242Y-31565940D01*
X55439749Y-31583626D01*
X55436230Y-31586923D01*
X55430658Y-31578136D01*
X55427120Y-31555672D01*
X55426461Y-31538077D01*
X55428218Y-31510213D01*
X55432711Y-31492527D01*
X55436230Y-31489230D01*
X55441803Y-31498017D01*
G37*
G36*
X55442348Y-28371743D02*
G01*
X55445750Y-28393394D01*
X55446000Y-28402153D01*
X55443833Y-28426623D01*
X55438420Y-28440234D01*
X55436230Y-28441230D01*
X55430113Y-28432564D01*
X55426710Y-28410913D01*
X55426461Y-28402153D01*
X55428628Y-28377683D01*
X55434040Y-28364073D01*
X55436230Y-28363077D01*
X55442348Y-28371743D01*
G37*
G36*
X55469869Y-28260844D02*
G01*
X55474370Y-28278949D01*
X55475307Y-28304461D01*
X55473739Y-28335179D01*
X55468307Y-28350182D01*
X55460653Y-28353307D01*
X55451438Y-28348078D01*
X55446937Y-28329973D01*
X55446000Y-28304461D01*
X55447568Y-28273744D01*
X55453000Y-28258741D01*
X55460653Y-28255615D01*
X55469869Y-28260844D01*
G37*
G36*
X55469869Y-31601921D02*
G01*
X55474370Y-31620026D01*
X55475307Y-31645538D01*
X55473739Y-31676256D01*
X55468307Y-31691259D01*
X55460653Y-31694384D01*
X55451438Y-31689155D01*
X55446937Y-31671050D01*
X55446000Y-31645538D01*
X55447568Y-31614821D01*
X55453000Y-31599818D01*
X55460653Y-31596692D01*
X55469869Y-31601921D01*
G37*
G36*
X55519957Y-31791093D02*
G01*
X55523494Y-31813558D01*
X55524153Y-31831153D01*
X55522396Y-31859017D01*
X55517903Y-31876703D01*
X55514384Y-31880000D01*
X55508811Y-31871213D01*
X55505274Y-31848749D01*
X55504615Y-31831153D01*
X55506372Y-31803289D01*
X55510865Y-31785604D01*
X55514384Y-31782307D01*
X55519957Y-31791093D01*
G37*
G36*
X55520885Y-28078577D02*
G01*
X55524084Y-28099624D01*
X55524153Y-28103615D01*
X55521565Y-28127949D01*
X55515246Y-28142606D01*
X55514384Y-28143269D01*
X55507970Y-28138872D01*
X55504798Y-28118234D01*
X55504615Y-28109653D01*
X55506752Y-28084971D01*
X55512100Y-28071101D01*
X55514384Y-28070000D01*
X55520885Y-28078577D01*
G37*
G36*
X55597888Y-32054909D02*
G01*
X55601436Y-32077695D01*
X55602307Y-32099807D01*
X55600701Y-32129232D01*
X55596559Y-32148748D01*
X55592538Y-32153538D01*
X55587188Y-32144705D01*
X55583640Y-32121920D01*
X55582769Y-32099807D01*
X55584375Y-32070382D01*
X55588518Y-32050866D01*
X55592538Y-32046077D01*
X55597888Y-32054909D01*
G37*
G36*
X55627963Y-27726974D02*
G01*
X55631366Y-27748625D01*
X55631615Y-27757384D01*
X55629448Y-27781854D01*
X55624036Y-27795465D01*
X55621846Y-27796461D01*
X55615728Y-27787794D01*
X55612326Y-27766144D01*
X55612077Y-27757384D01*
X55614243Y-27732914D01*
X55619656Y-27719304D01*
X55621846Y-27718307D01*
X55627963Y-27726974D01*
G37*
G36*
X55627963Y-32162205D02*
G01*
X55631366Y-32183856D01*
X55631615Y-32192615D01*
X55629448Y-32217085D01*
X55624036Y-32230695D01*
X55621846Y-32231692D01*
X55615728Y-32223025D01*
X55612326Y-32201374D01*
X55612077Y-32192615D01*
X55614243Y-32168145D01*
X55619656Y-32154534D01*
X55621846Y-32153538D01*
X55627963Y-32162205D01*
G37*
G36*
X55760437Y-32249524D02*
G01*
X55763416Y-32271825D01*
X55762891Y-32298582D01*
X55759088Y-32322455D01*
X55752229Y-32336106D01*
X55750743Y-32336893D01*
X55743328Y-32334546D01*
X55740317Y-32318910D01*
X55740974Y-32288861D01*
X55744255Y-32260418D01*
X55749546Y-32242480D01*
X55753730Y-32239019D01*
X55760437Y-32249524D01*
G37*
G36*
X55784271Y-27726974D02*
G01*
X55787674Y-27748625D01*
X55787923Y-27757384D01*
X55785756Y-27781854D01*
X55780343Y-27795465D01*
X55778153Y-27796461D01*
X55772036Y-27787794D01*
X55768633Y-27766144D01*
X55768384Y-27757384D01*
X55770551Y-27732914D01*
X55775964Y-27719304D01*
X55778153Y-27718307D01*
X55784271Y-27726974D01*
G37*
G36*
X55784271Y-32162205D02*
G01*
X55787674Y-32183856D01*
X55787923Y-32192615D01*
X55785756Y-32217085D01*
X55780343Y-32230695D01*
X55778153Y-32231692D01*
X55772036Y-32223025D01*
X55768633Y-32201374D01*
X55768384Y-32192615D01*
X55770551Y-32168145D01*
X55775964Y-32154534D01*
X55778153Y-32153538D01*
X55784271Y-32162205D01*
G37*
G36*
X55812811Y-27805294D02*
G01*
X55816360Y-27828079D01*
X55817230Y-27850192D01*
X55815624Y-27879617D01*
X55811482Y-27899133D01*
X55807461Y-27903923D01*
X55802111Y-27895090D01*
X55798563Y-27872304D01*
X55797692Y-27850192D01*
X55799298Y-27820767D01*
X55803441Y-27801251D01*
X55807461Y-27796461D01*
X55812811Y-27805294D01*
G37*
G36*
X55891188Y-28078786D02*
G01*
X55894725Y-28101251D01*
X55895384Y-28118846D01*
X55893627Y-28146710D01*
X55889134Y-28164396D01*
X55885615Y-28167692D01*
X55880042Y-28158906D01*
X55876505Y-28136441D01*
X55875846Y-28118846D01*
X55877603Y-28090982D01*
X55882096Y-28073296D01*
X55885615Y-28070000D01*
X55891188Y-28078786D01*
G37*
G36*
X55892029Y-31811127D02*
G01*
X55895201Y-31831765D01*
X55895384Y-31840346D01*
X55893247Y-31865028D01*
X55887899Y-31878898D01*
X55885615Y-31880000D01*
X55879114Y-31871422D01*
X55875915Y-31850376D01*
X55875846Y-31846384D01*
X55878434Y-31822050D01*
X55884753Y-31807394D01*
X55885615Y-31806730D01*
X55892029Y-31811127D01*
G37*
G36*
X55916402Y-31711434D02*
G01*
X55920839Y-31733006D01*
X55922969Y-31759444D01*
X55922409Y-31783894D01*
X55918777Y-31799500D01*
X55915619Y-31801846D01*
X55905841Y-31793579D01*
X55899692Y-31778603D01*
X55896246Y-31752441D01*
X55897460Y-31726597D01*
X55902469Y-31707526D01*
X55910038Y-31701583D01*
X55916402Y-31711434D01*
G37*
G36*
X55920876Y-28184876D02*
G01*
X55924665Y-28208539D01*
X55924692Y-28211653D01*
X55921514Y-28236943D01*
X55911373Y-28245784D01*
X55910038Y-28245846D01*
X55899200Y-28238431D01*
X55895411Y-28214768D01*
X55895384Y-28211653D01*
X55898562Y-28186364D01*
X55908703Y-28177523D01*
X55910038Y-28177461D01*
X55920876Y-28184876D01*
G37*
G36*
X55948561Y-28260844D02*
G01*
X55953062Y-28278949D01*
X55954000Y-28304461D01*
X55952431Y-28335179D01*
X55946999Y-28350182D01*
X55939346Y-28353307D01*
X55930130Y-28348078D01*
X55925630Y-28329973D01*
X55924692Y-28304461D01*
X55926261Y-28273744D01*
X55931692Y-28258741D01*
X55939346Y-28255615D01*
X55948561Y-28260844D01*
G37*
G36*
X55948561Y-31601921D02*
G01*
X55953062Y-31620026D01*
X55954000Y-31645538D01*
X55952431Y-31676256D01*
X55946999Y-31691259D01*
X55939346Y-31694384D01*
X55930130Y-31689155D01*
X55925630Y-31671050D01*
X55924692Y-31645538D01*
X55926261Y-31614821D01*
X55931692Y-31599818D01*
X55939346Y-31596692D01*
X55948561Y-31601921D01*
G37*
G36*
X55969342Y-28371863D02*
G01*
X55972879Y-28394328D01*
X55973538Y-28411923D01*
X55971781Y-28439787D01*
X55967288Y-28457472D01*
X55963769Y-28460769D01*
X55958196Y-28451983D01*
X55954659Y-28429518D01*
X55954000Y-28411923D01*
X55955757Y-28384059D01*
X55960250Y-28366373D01*
X55963769Y-28363077D01*
X55969342Y-28371863D01*
G37*
G36*
X55969886Y-31517436D02*
G01*
X55973289Y-31539086D01*
X55973538Y-31547846D01*
X55971371Y-31572316D01*
X55965959Y-31585926D01*
X55963769Y-31586923D01*
X55957651Y-31578256D01*
X55954249Y-31556605D01*
X55954000Y-31547846D01*
X55956166Y-31523376D01*
X55961579Y-31509765D01*
X55963769Y-31508769D01*
X55969886Y-31517436D01*
G37*
G36*
X56106656Y-28821128D02*
G01*
X56110058Y-28842779D01*
X56110307Y-28851538D01*
X56108141Y-28876008D01*
X56102728Y-28889619D01*
X56100538Y-28890615D01*
X56094421Y-28881948D01*
X56091018Y-28860297D01*
X56090769Y-28851538D01*
X56092936Y-28827068D01*
X56098348Y-28813458D01*
X56100538Y-28812461D01*
X56106656Y-28821128D01*
G37*
G36*
X56106656Y-31068051D02*
G01*
X56110058Y-31089702D01*
X56110307Y-31098461D01*
X56108141Y-31122931D01*
X56102728Y-31136542D01*
X56100538Y-31137538D01*
X56094421Y-31128871D01*
X56091018Y-31107221D01*
X56090769Y-31098461D01*
X56092936Y-31073991D01*
X56098348Y-31060381D01*
X56100538Y-31059384D01*
X56106656Y-31068051D01*
G37*
G36*
X56161268Y-29011602D02*
G01*
X56166368Y-29033026D01*
X56167070Y-29039596D01*
X56167181Y-29064526D01*
X56160898Y-29075004D01*
X56154269Y-29076230D01*
X56143868Y-29071712D01*
X56140709Y-29055169D01*
X56141468Y-29039596D01*
X56145722Y-29016030D01*
X56152468Y-29003555D01*
X56154269Y-29002961D01*
X56161268Y-29011602D01*
G37*
G36*
X56163484Y-30878998D02*
G01*
X56167985Y-30897103D01*
X56168923Y-30922615D01*
X56167354Y-30953332D01*
X56161922Y-30968335D01*
X56154269Y-30971461D01*
X56145054Y-30966232D01*
X56140553Y-30948127D01*
X56139615Y-30922615D01*
X56141184Y-30891897D01*
X56146615Y-30876894D01*
X56154269Y-30873769D01*
X56163484Y-30878998D01*
G37*
G36*
X56184809Y-29094666D02*
G01*
X56188212Y-29116317D01*
X56188461Y-29125077D01*
X56186294Y-29149547D01*
X56180882Y-29163157D01*
X56178692Y-29164153D01*
X56172574Y-29155487D01*
X56169172Y-29133836D01*
X56168923Y-29125077D01*
X56171089Y-29100606D01*
X56176502Y-29086996D01*
X56178692Y-29086000D01*
X56184809Y-29094666D01*
G37*
G36*
X56184809Y-30794513D02*
G01*
X56188212Y-30816163D01*
X56188461Y-30824923D01*
X56186294Y-30849393D01*
X56180882Y-30863003D01*
X56178692Y-30864000D01*
X56172574Y-30855333D01*
X56169172Y-30833682D01*
X56168923Y-30824923D01*
X56171089Y-30800453D01*
X56176502Y-30786842D01*
X56178692Y-30785846D01*
X56184809Y-30794513D01*
G37*
G36*
X56568017Y-29458988D02*
G01*
X56585703Y-29463481D01*
X56589000Y-29467000D01*
X56580213Y-29472572D01*
X56557749Y-29476110D01*
X56540153Y-29476769D01*
X56512289Y-29475012D01*
X56494604Y-29470519D01*
X56491307Y-29467000D01*
X56500093Y-29461427D01*
X56522558Y-29457890D01*
X56540153Y-29457230D01*
X56568017Y-29458988D01*
G37*
G36*
X56675479Y-30445680D02*
G01*
X56693165Y-30450173D01*
X56696461Y-30453692D01*
X56687675Y-30459265D01*
X56665210Y-30462802D01*
X56647615Y-30463461D01*
X56619751Y-30461704D01*
X56602065Y-30457211D01*
X56598769Y-30453692D01*
X56607555Y-30448119D01*
X56630020Y-30444582D01*
X56647615Y-30443923D01*
X56675479Y-30445680D01*
G37*
G36*
X56742865Y-30416468D02*
G01*
X56766431Y-30420722D01*
X56778905Y-30427468D01*
X56779500Y-30429269D01*
X56770858Y-30436268D01*
X56749435Y-30441368D01*
X56742865Y-30442070D01*
X56717935Y-30442181D01*
X56707457Y-30435898D01*
X56706230Y-30429269D01*
X56710749Y-30418868D01*
X56727291Y-30415709D01*
X56742865Y-30416468D01*
G37*
G36*
X56994540Y-29595606D02*
G01*
X57014056Y-29599748D01*
X57018846Y-29603769D01*
X57010013Y-29609119D01*
X56987228Y-29612667D01*
X56965115Y-29613538D01*
X56935690Y-29611932D01*
X56916174Y-29607789D01*
X56911384Y-29603769D01*
X56920217Y-29598419D01*
X56943002Y-29594870D01*
X56965115Y-29594000D01*
X56994540Y-29595606D01*
G37*
G36*
X57143403Y-29644698D02*
G01*
X57166970Y-29648953D01*
X57179444Y-29655698D01*
X57180038Y-29657500D01*
X57171397Y-29664499D01*
X57149974Y-29669599D01*
X57143403Y-29670301D01*
X57118473Y-29670411D01*
X57107995Y-29664129D01*
X57106769Y-29657500D01*
X57111287Y-29647099D01*
X57127830Y-29643939D01*
X57143403Y-29644698D01*
G37*
G36*
X57248470Y-29674320D02*
G01*
X57262080Y-29679733D01*
X57263077Y-29681923D01*
X57254410Y-29688040D01*
X57232759Y-29691443D01*
X57224000Y-29691692D01*
X57199530Y-29689525D01*
X57185919Y-29684113D01*
X57184923Y-29681923D01*
X57193589Y-29675805D01*
X57215240Y-29672403D01*
X57224000Y-29672153D01*
X57248470Y-29674320D01*
G37*
G36*
X57586871Y-30171953D02*
G01*
X57601874Y-30177384D01*
X57605000Y-30185038D01*
X57599770Y-30194253D01*
X57581666Y-30198754D01*
X57556153Y-30199692D01*
X57525436Y-30198123D01*
X57510433Y-30192692D01*
X57507307Y-30185038D01*
X57512536Y-30175823D01*
X57530641Y-30171322D01*
X57556153Y-30170384D01*
X57586871Y-30171953D01*
G37*
G36*
X57678316Y-30153012D02*
G01*
X57691926Y-30158425D01*
X57692923Y-30160615D01*
X57684256Y-30166732D01*
X57662605Y-30170135D01*
X57653846Y-30170384D01*
X57629376Y-30168217D01*
X57615765Y-30162805D01*
X57614769Y-30160615D01*
X57623436Y-30154497D01*
X57645086Y-30151095D01*
X57653846Y-30150846D01*
X57678316Y-30153012D01*
G37*
G36*
X57697854Y-29811089D02*
G01*
X57711465Y-29816502D01*
X57712461Y-29818692D01*
X57703794Y-29824809D01*
X57682144Y-29828212D01*
X57673384Y-29828461D01*
X57648914Y-29826294D01*
X57635304Y-29820882D01*
X57634307Y-29818692D01*
X57642974Y-29812574D01*
X57664625Y-29809172D01*
X57673384Y-29808923D01*
X57697854Y-29811089D01*
G37*
G36*
X57863931Y-29859936D02*
G01*
X57877542Y-29865348D01*
X57878538Y-29867538D01*
X57869871Y-29873656D01*
X57848221Y-29877058D01*
X57839461Y-29877307D01*
X57814991Y-29875141D01*
X57801381Y-29869728D01*
X57800384Y-29867538D01*
X57809051Y-29861421D01*
X57830702Y-29858018D01*
X57839461Y-29857769D01*
X57863931Y-29859936D01*
G37*
G36*
X57928424Y-30075522D02*
G01*
X57937151Y-30082340D01*
X57937153Y-30082461D01*
X57928664Y-30089320D01*
X57908210Y-30092230D01*
X57907846Y-30092230D01*
X57887268Y-30089401D01*
X57878540Y-30082583D01*
X57878538Y-30082461D01*
X57887027Y-30075602D01*
X57907481Y-30072693D01*
X57907846Y-30072692D01*
X57928424Y-30075522D01*
G37*
G36*
X57965017Y-29888834D02*
G01*
X57982703Y-29893327D01*
X57986000Y-29896846D01*
X57977213Y-29902419D01*
X57954749Y-29905956D01*
X57937153Y-29906615D01*
X57909289Y-29904858D01*
X57891604Y-29900365D01*
X57888307Y-29896846D01*
X57897093Y-29891273D01*
X57919558Y-29887736D01*
X57937153Y-29887077D01*
X57965017Y-29888834D01*
G37*
G36*
X58043171Y-30045141D02*
G01*
X58060857Y-30049634D01*
X58064153Y-30053153D01*
X58055367Y-30058726D01*
X58032902Y-30062263D01*
X58015307Y-30062923D01*
X57987443Y-30061165D01*
X57969757Y-30056672D01*
X57966461Y-30053153D01*
X57975247Y-30047581D01*
X57997712Y-30044043D01*
X58015307Y-30043384D01*
X58043171Y-30045141D01*
G37*
G36*
X58137449Y-29416063D02*
G01*
X58141395Y-29440205D01*
X58142307Y-29471884D01*
X58140573Y-29510990D01*
X58136269Y-29530956D01*
X58130740Y-29531782D01*
X58125331Y-29513470D01*
X58121389Y-29476022D01*
X58121160Y-29471864D01*
X58120459Y-29434781D01*
X58123365Y-29414453D01*
X58130096Y-29408364D01*
X58137449Y-29416063D01*
G37*
G36*
X53669213Y-30095522D02*
G01*
X53677740Y-30105966D01*
X53677769Y-30106884D01*
X53669956Y-30117971D01*
X53645446Y-30121538D01*
X53645205Y-30121538D01*
X53621157Y-30119827D01*
X53606830Y-30115669D01*
X53606393Y-30115291D01*
X53603283Y-30103870D01*
X53616587Y-30095556D01*
X53643220Y-30092233D01*
X53644153Y-30092230D01*
X53669213Y-30095522D01*
G37*
G36*
X53874563Y-29751876D02*
G01*
X53889566Y-29757307D01*
X53892692Y-29764961D01*
X53886213Y-29775224D01*
X53864749Y-29778851D01*
X53856057Y-29778844D01*
X53828651Y-29777083D01*
X53809006Y-29773762D01*
X53807211Y-29773145D01*
X53794581Y-29764381D01*
X53799324Y-29756776D01*
X53819277Y-29751677D01*
X53843846Y-29750307D01*
X53874563Y-29751876D01*
G37*
G36*
X53982399Y-29722604D02*
G01*
X53997196Y-29728147D01*
X54000153Y-29735653D01*
X53994765Y-29745008D01*
X53976210Y-29749483D01*
X53952935Y-29750307D01*
X53924062Y-29749113D01*
X53904037Y-29746080D01*
X53899470Y-29744060D01*
X53896114Y-29732772D01*
X53910446Y-29724906D01*
X53940799Y-29721195D01*
X53951884Y-29721000D01*
X53982399Y-29722604D01*
G37*
G36*
X54685213Y-29509368D02*
G01*
X54693740Y-29519813D01*
X54693769Y-29520730D01*
X54685956Y-29531817D01*
X54661446Y-29535384D01*
X54661205Y-29535384D01*
X54637157Y-29533673D01*
X54622830Y-29529515D01*
X54622393Y-29529137D01*
X54619283Y-29517716D01*
X54632587Y-29509402D01*
X54659220Y-29506079D01*
X54660153Y-29506077D01*
X54685213Y-29509368D01*
G37*
G36*
X55764655Y-27647704D02*
G01*
X55768372Y-27671664D01*
X55768384Y-27673769D01*
X55765233Y-27700741D01*
X55757037Y-27714471D01*
X55745679Y-27711876D01*
X55745324Y-27711529D01*
X55741039Y-27698322D01*
X55739088Y-27674698D01*
X55739077Y-27672718D01*
X55742592Y-27648081D01*
X55753622Y-27640154D01*
X55753730Y-27640153D01*
X55764655Y-27647704D01*
G37*
G36*
X56129903Y-28904570D02*
G01*
X56135663Y-28927970D01*
X56137683Y-28949102D01*
X56138301Y-28978913D01*
X56134730Y-28993781D01*
X56125838Y-28998061D01*
X56124961Y-28998077D01*
X56115798Y-28994515D01*
X56111801Y-28980957D01*
X56111901Y-28953094D01*
X56112239Y-28946788D01*
X56116422Y-28913818D01*
X56122900Y-28899799D01*
X56129903Y-28904570D01*
G37*
G36*
X56135885Y-30988781D02*
G01*
X56139602Y-31012741D01*
X56139615Y-31014846D01*
X56136464Y-31041818D01*
X56128267Y-31055548D01*
X56116909Y-31052953D01*
X56116554Y-31052606D01*
X56112269Y-31039399D01*
X56110319Y-31015775D01*
X56110307Y-31013794D01*
X56113823Y-30989158D01*
X56124853Y-30981231D01*
X56124961Y-30981230D01*
X56135885Y-30988781D01*
G37*
G36*
X56385630Y-29400219D02*
G01*
X56400427Y-29405763D01*
X56403384Y-29413269D01*
X56397996Y-29422624D01*
X56379440Y-29427098D01*
X56356166Y-29427923D01*
X56327293Y-29426729D01*
X56307268Y-29423695D01*
X56302701Y-29421675D01*
X56299345Y-29410387D01*
X56313676Y-29402521D01*
X56344030Y-29398810D01*
X56355115Y-29398615D01*
X56385630Y-29400219D01*
G37*
G36*
X56472982Y-29431214D02*
G01*
X56481509Y-29441659D01*
X56481538Y-29442577D01*
X56473726Y-29453663D01*
X56449215Y-29457230D01*
X56448974Y-29457230D01*
X56424927Y-29455519D01*
X56410600Y-29451361D01*
X56410163Y-29450983D01*
X56407052Y-29439562D01*
X56420356Y-29431248D01*
X56446989Y-29427926D01*
X56447922Y-29427923D01*
X56472982Y-29431214D01*
G37*
G36*
X57088444Y-29616829D02*
G01*
X57096971Y-29627274D01*
X57097000Y-29628192D01*
X57089187Y-29639278D01*
X57064676Y-29642846D01*
X57064435Y-29642846D01*
X57040388Y-29641134D01*
X57026061Y-29636976D01*
X57025624Y-29636599D01*
X57022513Y-29625177D01*
X57035817Y-29616863D01*
X57062451Y-29613541D01*
X57063384Y-29613538D01*
X57088444Y-29616829D01*
G37*
G36*
X58134808Y-30419726D02*
G01*
X58139587Y-30439031D01*
X58142171Y-30468768D01*
X58142307Y-30478115D01*
X58140831Y-30516342D01*
X58136196Y-30536860D01*
X58130096Y-30541613D01*
X58121425Y-30532816D01*
X58119175Y-30509863D01*
X58120534Y-30475277D01*
X58121617Y-30446365D01*
X58124392Y-30421197D01*
X58129266Y-30413049D01*
X58134808Y-30419726D01*
G37*
G36*
X55490777Y-28156748D02*
G01*
X55496602Y-28177832D01*
X55500483Y-28204358D01*
X55501464Y-28229276D01*
X55498589Y-28245538D01*
X55497412Y-28247187D01*
X55485129Y-28251126D01*
X55481983Y-28249265D01*
X55477610Y-28236151D01*
X55475593Y-28212629D01*
X55475796Y-28185640D01*
X55478083Y-28162123D01*
X55482317Y-28149017D01*
X55483967Y-28148153D01*
X55490777Y-28156748D01*
G37*
G36*
X53273073Y-30423393D02*
G01*
X53276606Y-30445801D01*
X53277230Y-30462662D01*
X53278393Y-30494178D01*
X53281338Y-30519080D01*
X53283160Y-30526162D01*
X53282253Y-30539223D01*
X53273391Y-30541615D01*
X53264704Y-30538121D01*
X53259865Y-30525020D01*
X53257900Y-30498383D01*
X53257692Y-30478115D01*
X53259072Y-30444932D01*
X53262729Y-30422214D01*
X53267461Y-30414615D01*
X53273073Y-30423393D01*
G37*
G36*
X53284425Y-29414210D02*
G01*
X53283160Y-29423837D01*
X53279644Y-29442418D01*
X53277518Y-29471823D01*
X53277230Y-29487337D01*
X53275446Y-29514938D01*
X53270889Y-29532313D01*
X53267461Y-29535384D01*
X53262356Y-29526412D01*
X53258861Y-29502645D01*
X53257692Y-29471884D01*
X53258556Y-29436749D01*
X53261795Y-29417173D01*
X53268380Y-29409225D01*
X53273391Y-29408384D01*
X53284425Y-29414210D01*
G37*
G36*
X57843253Y-30100018D02*
G01*
X57866657Y-30105540D01*
X57872120Y-30112714D01*
X57860770Y-30118919D01*
X57834000Y-30121538D01*
X57811630Y-30124031D01*
X57800622Y-30130147D01*
X57800384Y-30131307D01*
X57791551Y-30136657D01*
X57768766Y-30140206D01*
X57746653Y-30141077D01*
X57717229Y-30139471D01*
X57697712Y-30135328D01*
X57692923Y-30131307D01*
X57701746Y-30125912D01*
X57724467Y-30122364D01*
X57745608Y-30121538D01*
X57782168Y-30119057D01*
X57801129Y-30111778D01*
X57803210Y-30108727D01*
X57816821Y-30099988D01*
X57843253Y-30100018D01*
G37*
G36*
X54042817Y-30203889D02*
G01*
X54055236Y-30214346D01*
X54069733Y-30225450D01*
X54098891Y-30229000D01*
X54122972Y-30231222D01*
X54136106Y-30236756D01*
X54136923Y-30238769D01*
X54128256Y-30244886D01*
X54106605Y-30248289D01*
X54097846Y-30248538D01*
X54073376Y-30246371D01*
X54059765Y-30240959D01*
X54058769Y-30238769D01*
X54050102Y-30232651D01*
X54028451Y-30229249D01*
X54019692Y-30229000D01*
X53992521Y-30226580D01*
X53981324Y-30218559D01*
X53980615Y-30214346D01*
X53987959Y-30203552D01*
X54011467Y-30199728D01*
X54015114Y-30199692D01*
X54042817Y-30203889D01*
G37*
G36*
X55549809Y-31898436D02*
G01*
X55553212Y-31920086D01*
X55553461Y-31928846D01*
X55555724Y-31955654D01*
X55563445Y-31966944D01*
X55568705Y-31967923D01*
X55578822Y-31972936D01*
X55581634Y-31990757D01*
X55580916Y-32003802D01*
X55575285Y-32032073D01*
X55566701Y-32043916D01*
X55558421Y-32038854D01*
X55553703Y-32016413D01*
X55553461Y-32007814D01*
X55551336Y-31983045D01*
X55546014Y-31969069D01*
X55543692Y-31967923D01*
X55537574Y-31959256D01*
X55534172Y-31937605D01*
X55533923Y-31928846D01*
X55536089Y-31904376D01*
X55541502Y-31890765D01*
X55543692Y-31889769D01*
X55549809Y-31898436D01*
G37*
G36*
X55841560Y-27910871D02*
G01*
X55846293Y-27932837D01*
X55846538Y-27941371D01*
X55848401Y-27966769D01*
X55853045Y-27982132D01*
X55854789Y-27983705D01*
X55861510Y-27994568D01*
X55867728Y-28017343D01*
X55868828Y-28023596D01*
X55870933Y-28048564D01*
X55866019Y-28059093D01*
X55860578Y-28060230D01*
X55850642Y-28052932D01*
X55846687Y-28029536D01*
X55846538Y-28021153D01*
X55844276Y-27994345D01*
X55836554Y-27983055D01*
X55831294Y-27982077D01*
X55821177Y-27977063D01*
X55818365Y-27959243D01*
X55819083Y-27946197D01*
X55824692Y-27918125D01*
X55833273Y-27906158D01*
X55841560Y-27910871D01*
G37*
G36*
X56212751Y-29170308D02*
G01*
X56216842Y-29192820D01*
X56217769Y-29217884D01*
X56219084Y-29250287D01*
X56223701Y-29266969D01*
X56232423Y-29271615D01*
X56242612Y-29278068D01*
X56246811Y-29299458D01*
X56247077Y-29310692D01*
X56244317Y-29339544D01*
X56236086Y-29349796D01*
X56224282Y-29343256D01*
X56219751Y-29329798D01*
X56217772Y-29306236D01*
X56217769Y-29305224D01*
X56214362Y-29282131D01*
X56206106Y-29269262D01*
X56205557Y-29269020D01*
X56197766Y-29256088D01*
X56196148Y-29225290D01*
X56196731Y-29214244D01*
X56201013Y-29180729D01*
X56206914Y-29166181D01*
X56212751Y-29170308D01*
G37*
G36*
X55198117Y-29172820D02*
G01*
X55201520Y-29194471D01*
X55201769Y-29203230D01*
X55199715Y-29227702D01*
X55194585Y-29241312D01*
X55192510Y-29242307D01*
X55186787Y-29251117D01*
X55182108Y-29273711D01*
X55180299Y-29292828D01*
X55175720Y-29328386D01*
X55168569Y-29346495D01*
X55160971Y-29346843D01*
X55155053Y-29329117D01*
X55152923Y-29296852D01*
X55154203Y-29264174D01*
X55158703Y-29247221D01*
X55167414Y-29242308D01*
X55167577Y-29242307D01*
X55177766Y-29235855D01*
X55181964Y-29214465D01*
X55182230Y-29203230D01*
X55184397Y-29178760D01*
X55189810Y-29165150D01*
X55192000Y-29164153D01*
X55198117Y-29172820D01*
G37*
G36*
X55255920Y-30880221D02*
G01*
X55260118Y-30901611D01*
X55260384Y-30912846D01*
X55262804Y-30940017D01*
X55270825Y-30951213D01*
X55275038Y-30951923D01*
X55284302Y-30957207D01*
X55288794Y-30975467D01*
X55289692Y-31000192D01*
X55287268Y-31034713D01*
X55280486Y-31053675D01*
X55270078Y-31055414D01*
X55266631Y-31052606D01*
X55262933Y-31039890D01*
X55260692Y-31014789D01*
X55260384Y-31000186D01*
X55257669Y-30966905D01*
X55249117Y-30950295D01*
X55245730Y-30948390D01*
X55234647Y-30934256D01*
X55231077Y-30908268D01*
X55234196Y-30882857D01*
X55244181Y-30873853D01*
X55245730Y-30873769D01*
X55255920Y-30880221D01*
G37*
G36*
X56244946Y-30620882D02*
G01*
X56247077Y-30653147D01*
X56245796Y-30685826D01*
X56241296Y-30702778D01*
X56232585Y-30707691D01*
X56232423Y-30707692D01*
X56222233Y-30714145D01*
X56218035Y-30735534D01*
X56217769Y-30746769D01*
X56215602Y-30771239D01*
X56210189Y-30784849D01*
X56208000Y-30785846D01*
X56201882Y-30777179D01*
X56198479Y-30755528D01*
X56198230Y-30746769D01*
X56200284Y-30722297D01*
X56205415Y-30708687D01*
X56207489Y-30707692D01*
X56213212Y-30698883D01*
X56217891Y-30676288D01*
X56219701Y-30657171D01*
X56224279Y-30621613D01*
X56231430Y-30603504D01*
X56239029Y-30603156D01*
X56244946Y-30620882D01*
G37*
G36*
X56945694Y-30367375D02*
G01*
X56965210Y-30371518D01*
X56970000Y-30375538D01*
X56961167Y-30380888D01*
X56938381Y-30384436D01*
X56916269Y-30385307D01*
X56883866Y-30386623D01*
X56867184Y-30391239D01*
X56862538Y-30399961D01*
X56856085Y-30410150D01*
X56834695Y-30414349D01*
X56823461Y-30414615D01*
X56796290Y-30412195D01*
X56785093Y-30404174D01*
X56784384Y-30399961D01*
X56790837Y-30389772D01*
X56812227Y-30385573D01*
X56823461Y-30385307D01*
X56847931Y-30383141D01*
X56861542Y-30377728D01*
X56862538Y-30375538D01*
X56871371Y-30370188D01*
X56894156Y-30366640D01*
X56916269Y-30365769D01*
X56945694Y-30367375D01*
G37*
G36*
X57326623Y-29703628D02*
G01*
X57340234Y-29709040D01*
X57341230Y-29711230D01*
X57349897Y-29717348D01*
X57371548Y-29720750D01*
X57380307Y-29721000D01*
X57407479Y-29723419D01*
X57418675Y-29731441D01*
X57419384Y-29735653D01*
X57412932Y-29745843D01*
X57391542Y-29750041D01*
X57380307Y-29750307D01*
X57353136Y-29747888D01*
X57341940Y-29739866D01*
X57341230Y-29735653D01*
X57334778Y-29725464D01*
X57313388Y-29721266D01*
X57302153Y-29721000D01*
X57277683Y-29718833D01*
X57264073Y-29713420D01*
X57263077Y-29711230D01*
X57271743Y-29705113D01*
X57293394Y-29701710D01*
X57302153Y-29701461D01*
X57326623Y-29703628D01*
G37*
G36*
X57479409Y-30201261D02*
G01*
X57494412Y-30206692D01*
X57497538Y-30214346D01*
X57492309Y-30223561D01*
X57474204Y-30228062D01*
X57448692Y-30229000D01*
X57420828Y-30230757D01*
X57403142Y-30235250D01*
X57399846Y-30238769D01*
X57391179Y-30244886D01*
X57369528Y-30248289D01*
X57360769Y-30248538D01*
X57336299Y-30246371D01*
X57322688Y-30240959D01*
X57321692Y-30238769D01*
X57330359Y-30232651D01*
X57352009Y-30229249D01*
X57360769Y-30229000D01*
X57387940Y-30226580D01*
X57399137Y-30218559D01*
X57399846Y-30214346D01*
X57405075Y-30205130D01*
X57423180Y-30200630D01*
X57448692Y-30199692D01*
X57479409Y-30201261D01*
G37*
G36*
X53849688Y-30153060D02*
G01*
X53869341Y-30157573D01*
X53875311Y-30162203D01*
X53886490Y-30169242D01*
X53910257Y-30173723D01*
X53922529Y-30174414D01*
X53955211Y-30177469D01*
X53969490Y-30183547D01*
X53965190Y-30190492D01*
X53942133Y-30196144D01*
X53924442Y-30197760D01*
X53893620Y-30198390D01*
X53877928Y-30195035D01*
X53873186Y-30186701D01*
X53873153Y-30185549D01*
X53868768Y-30176482D01*
X53853011Y-30171796D01*
X53821978Y-30170388D01*
X53819423Y-30170384D01*
X53789998Y-30168778D01*
X53770482Y-30164635D01*
X53765692Y-30160615D01*
X53774253Y-30154693D01*
X53795521Y-30151524D01*
X53822874Y-30151012D01*
X53849688Y-30153060D01*
G37*
G36*
X55865925Y-31897546D02*
G01*
X55866891Y-31901980D01*
X55868563Y-31921100D01*
X55870209Y-31937080D01*
X55867294Y-31956711D01*
X55859626Y-31964991D01*
X55850551Y-31978568D01*
X55846654Y-32009189D01*
X55846538Y-32017237D01*
X55844075Y-32051229D01*
X55837212Y-32069832D01*
X55826737Y-32071293D01*
X55823478Y-32068606D01*
X55819815Y-32055919D01*
X55817567Y-32030743D01*
X55817230Y-32015141D01*
X55818903Y-31984997D01*
X55824661Y-31970579D01*
X55831884Y-31967923D01*
X55842073Y-31961470D01*
X55846272Y-31940080D01*
X55846538Y-31928846D01*
X55848705Y-31904376D01*
X55854117Y-31890765D01*
X55856307Y-31889769D01*
X55865925Y-31897546D01*
G37*
G36*
X57522772Y-29755358D02*
G01*
X57526846Y-29764353D01*
X57526846Y-29764451D01*
X57531231Y-29773517D01*
X57546988Y-29778203D01*
X57578021Y-29779611D01*
X57580577Y-29779615D01*
X57610001Y-29781221D01*
X57629518Y-29785364D01*
X57634307Y-29789384D01*
X57625762Y-29795544D01*
X57604521Y-29798728D01*
X57577176Y-29799083D01*
X57550318Y-29796755D01*
X57530539Y-29791891D01*
X57524395Y-29786942D01*
X57512208Y-29778903D01*
X57485001Y-29774958D01*
X57474857Y-29774730D01*
X57443532Y-29772336D01*
X57430654Y-29766623D01*
X57435926Y-29759794D01*
X57459054Y-29754053D01*
X57477871Y-29752239D01*
X57507852Y-29751671D01*
X57522772Y-29755358D01*
G37*
G36*
X55386367Y-28554260D02*
G01*
X55391224Y-28564145D01*
X55397000Y-28592977D01*
X55391858Y-28615164D01*
X55382500Y-28623313D01*
X55371396Y-28637810D01*
X55367846Y-28666968D01*
X55365290Y-28693744D01*
X55356876Y-28704474D01*
X55353192Y-28705000D01*
X55344355Y-28709823D01*
X55339805Y-28726750D01*
X55338538Y-28758730D01*
X55336932Y-28788155D01*
X55332789Y-28807671D01*
X55328769Y-28812461D01*
X55323419Y-28803628D01*
X55319870Y-28780843D01*
X55319000Y-28758730D01*
X55320606Y-28729306D01*
X55324748Y-28709789D01*
X55328769Y-28705000D01*
X55335203Y-28696406D01*
X55338445Y-28675252D01*
X55338538Y-28670501D01*
X55342735Y-28642797D01*
X55353192Y-28630379D01*
X55364296Y-28615881D01*
X55367846Y-28586724D01*
X55370561Y-28560548D01*
X55377392Y-28549092D01*
X55386367Y-28554260D01*
G37*
G36*
X55334886Y-31146205D02*
G01*
X55338289Y-31167856D01*
X55338538Y-31176615D01*
X55340958Y-31203786D01*
X55348979Y-31214983D01*
X55353192Y-31215692D01*
X55362105Y-31220594D01*
X55366648Y-31237753D01*
X55367846Y-31268377D01*
X55369673Y-31302525D01*
X55375804Y-31321149D01*
X55383124Y-31326926D01*
X55392831Y-31339617D01*
X55395611Y-31361602D01*
X55391840Y-31384051D01*
X55381895Y-31398134D01*
X55380057Y-31398927D01*
X55371470Y-31394235D01*
X55367973Y-31371988D01*
X55367846Y-31364090D01*
X55363956Y-31333159D01*
X55353192Y-31319621D01*
X55343336Y-31308009D01*
X55338934Y-31281211D01*
X55338538Y-31264845D01*
X55336791Y-31236880D01*
X55332322Y-31219076D01*
X55328769Y-31215692D01*
X55322651Y-31207025D01*
X55319249Y-31185374D01*
X55319000Y-31176615D01*
X55321166Y-31152145D01*
X55326579Y-31138534D01*
X55328769Y-31137538D01*
X55334886Y-31146205D01*
G37*
G36*
X55600609Y-27804671D02*
G01*
X55604158Y-27824165D01*
X55603275Y-27847244D01*
X55598050Y-27866205D01*
X55591643Y-27872987D01*
X55586722Y-27883735D01*
X55583499Y-27907924D01*
X55582769Y-27929160D01*
X55581416Y-27961286D01*
X55576679Y-27977695D01*
X55568115Y-27982077D01*
X55557926Y-27988529D01*
X55553727Y-28009919D01*
X55553461Y-28021153D01*
X55551294Y-28045623D01*
X55545882Y-28059234D01*
X55543692Y-28060230D01*
X55537574Y-28051564D01*
X55534172Y-28029913D01*
X55533923Y-28021153D01*
X55536089Y-27996683D01*
X55541502Y-27983073D01*
X55543692Y-27982077D01*
X55549250Y-27973287D01*
X55552789Y-27950801D01*
X55553461Y-27932924D01*
X55555795Y-27898968D01*
X55563281Y-27881332D01*
X55568115Y-27878148D01*
X55579219Y-27863650D01*
X55582769Y-27834493D01*
X55584991Y-27810412D01*
X55590525Y-27797278D01*
X55592538Y-27796461D01*
X55600609Y-27804671D01*
G37*
G36*
X53781439Y-29783984D02*
G01*
X53785230Y-29789384D01*
X53776564Y-29795502D01*
X53754913Y-29798904D01*
X53746153Y-29799153D01*
X53718982Y-29801573D01*
X53707786Y-29809594D01*
X53707077Y-29813807D01*
X53702253Y-29822644D01*
X53685326Y-29827194D01*
X53653346Y-29828461D01*
X53623921Y-29830067D01*
X53604405Y-29834210D01*
X53599615Y-29838230D01*
X53590948Y-29844348D01*
X53569297Y-29847750D01*
X53560538Y-29848000D01*
X53536068Y-29845833D01*
X53522458Y-29840420D01*
X53521461Y-29838230D01*
X53530128Y-29832113D01*
X53551779Y-29828710D01*
X53560538Y-29828461D01*
X53585008Y-29826294D01*
X53598619Y-29820882D01*
X53599615Y-29818692D01*
X53608338Y-29812827D01*
X53630372Y-29809341D01*
X53642879Y-29808923D01*
X53675571Y-29805444D01*
X53698359Y-29796347D01*
X53700796Y-29794269D01*
X53717247Y-29785559D01*
X53740903Y-29780668D01*
X53764667Y-29780006D01*
X53781439Y-29783984D01*
G37*
G36*
X54415393Y-29596166D02*
G01*
X54429003Y-29601579D01*
X54430000Y-29603769D01*
X54421333Y-29609886D01*
X54399682Y-29613289D01*
X54390923Y-29613538D01*
X54363751Y-29615958D01*
X54352555Y-29623979D01*
X54351846Y-29628192D01*
X54345213Y-29638509D01*
X54323375Y-29642643D01*
X54313814Y-29642846D01*
X54283482Y-29646790D01*
X54270159Y-29657500D01*
X54256963Y-29667235D01*
X54230934Y-29671115D01*
X54198041Y-29668593D01*
X54183327Y-29665419D01*
X54166960Y-29658286D01*
X54167880Y-29651253D01*
X54183873Y-29645682D01*
X54212727Y-29642936D01*
X54219961Y-29642846D01*
X54252364Y-29641530D01*
X54269046Y-29636914D01*
X54273692Y-29628192D01*
X54280145Y-29618003D01*
X54301534Y-29613804D01*
X54312769Y-29613538D01*
X54337239Y-29611371D01*
X54350849Y-29605959D01*
X54351846Y-29603769D01*
X54360513Y-29597651D01*
X54382163Y-29594249D01*
X54390923Y-29594000D01*
X54415393Y-29596166D01*
G37*
G36*
X55065100Y-29400261D02*
G01*
X55079463Y-29402579D01*
X55098112Y-29409917D01*
X55099228Y-29417142D01*
X55084795Y-29423211D01*
X55056796Y-29427080D01*
X55031276Y-29427923D01*
X54994066Y-29429322D01*
X54972710Y-29434027D01*
X54963774Y-29442577D01*
X54949641Y-29453660D01*
X54923652Y-29457230D01*
X54900931Y-29459664D01*
X54889482Y-29465654D01*
X54889153Y-29467000D01*
X54880487Y-29473117D01*
X54858836Y-29476520D01*
X54850077Y-29476769D01*
X54825606Y-29474602D01*
X54811996Y-29469189D01*
X54811000Y-29467000D01*
X54819666Y-29460882D01*
X54841317Y-29457479D01*
X54850077Y-29457230D01*
X54877248Y-29454811D01*
X54888444Y-29446789D01*
X54889153Y-29442577D01*
X54895745Y-29432288D01*
X54917482Y-29428139D01*
X54927416Y-29427923D01*
X54952582Y-29425526D01*
X54967718Y-29419566D01*
X54969146Y-29417523D01*
X54980696Y-29409427D01*
X55005027Y-29403243D01*
X55035406Y-29399884D01*
X55065100Y-29400261D01*
G37*
G36*
X56574393Y-30475397D02*
G01*
X56588003Y-30480810D01*
X56589000Y-30483000D01*
X56580333Y-30489117D01*
X56558682Y-30492520D01*
X56549923Y-30492769D01*
X56522751Y-30495189D01*
X56511555Y-30503210D01*
X56510846Y-30507423D01*
X56504213Y-30517740D01*
X56482375Y-30521874D01*
X56472814Y-30522077D01*
X56442482Y-30526021D01*
X56429159Y-30536730D01*
X56418324Y-30546230D01*
X56393167Y-30550744D01*
X56371127Y-30551384D01*
X56340634Y-30550258D01*
X56318725Y-30547367D01*
X56312205Y-30544871D01*
X56305857Y-30533414D01*
X56315252Y-30526196D01*
X56341753Y-30522662D01*
X56368147Y-30522077D01*
X56405511Y-30520704D01*
X56427024Y-30516082D01*
X56436214Y-30507449D01*
X56436225Y-30507423D01*
X56450359Y-30496339D01*
X56476347Y-30492769D01*
X56499068Y-30490335D01*
X56510517Y-30484345D01*
X56510846Y-30483000D01*
X56519513Y-30476882D01*
X56541163Y-30473479D01*
X56549923Y-30473230D01*
X56574393Y-30475397D01*
G37*
G36*
X56076580Y-31146371D02*
G01*
X56080129Y-31169156D01*
X56081000Y-31191269D01*
X56079394Y-31220694D01*
X56075251Y-31240210D01*
X56071230Y-31245000D01*
X56064796Y-31253593D01*
X56061554Y-31274747D01*
X56061461Y-31279498D01*
X56057264Y-31307202D01*
X56046807Y-31319621D01*
X56035703Y-31334118D01*
X56032153Y-31363276D01*
X56029598Y-31390052D01*
X56021183Y-31400782D01*
X56017500Y-31401307D01*
X56008662Y-31406131D01*
X56004113Y-31423058D01*
X56002846Y-31455038D01*
X56001240Y-31484463D01*
X55997097Y-31503979D01*
X55993077Y-31508769D01*
X55987727Y-31499936D01*
X55984178Y-31477151D01*
X55983307Y-31455038D01*
X55984913Y-31425613D01*
X55989056Y-31406097D01*
X55993077Y-31401307D01*
X55999511Y-31392714D01*
X56002753Y-31371560D01*
X56002846Y-31366808D01*
X56007043Y-31339105D01*
X56017500Y-31326686D01*
X56028604Y-31312189D01*
X56032153Y-31283031D01*
X56034709Y-31256255D01*
X56043123Y-31245525D01*
X56046807Y-31245000D01*
X56055644Y-31240176D01*
X56060194Y-31223249D01*
X56061461Y-31191269D01*
X56063067Y-31161844D01*
X56067210Y-31142328D01*
X56071230Y-31137538D01*
X56076580Y-31146371D01*
G37*
G36*
X54552162Y-30367936D02*
G01*
X54565772Y-30373348D01*
X54566769Y-30375538D01*
X54575436Y-30381656D01*
X54597086Y-30385058D01*
X54605846Y-30385307D01*
X54633017Y-30387727D01*
X54644213Y-30395748D01*
X54644923Y-30399961D01*
X54651375Y-30410150D01*
X54672765Y-30414349D01*
X54684000Y-30414615D01*
X54711171Y-30417035D01*
X54722367Y-30425056D01*
X54723077Y-30429269D01*
X54729529Y-30439458D01*
X54750919Y-30443657D01*
X54762153Y-30443923D01*
X54786623Y-30446089D01*
X54800234Y-30451502D01*
X54801230Y-30453692D01*
X54792564Y-30459809D01*
X54770913Y-30463212D01*
X54762153Y-30463461D01*
X54737683Y-30461294D01*
X54724073Y-30455882D01*
X54723077Y-30453692D01*
X54714483Y-30447258D01*
X54693329Y-30444016D01*
X54688578Y-30443923D01*
X54660874Y-30439726D01*
X54648455Y-30429269D01*
X54633958Y-30418165D01*
X54604801Y-30414615D01*
X54578024Y-30412059D01*
X54567294Y-30403645D01*
X54566769Y-30399961D01*
X54560316Y-30389772D01*
X54538926Y-30385573D01*
X54527692Y-30385307D01*
X54503222Y-30383141D01*
X54489611Y-30377728D01*
X54488615Y-30375538D01*
X54497282Y-30369421D01*
X54518932Y-30366018D01*
X54527692Y-30365769D01*
X54552162Y-30367936D01*
G37*
G36*
X55999194Y-28479205D02*
G01*
X56002597Y-28500856D01*
X56002846Y-28509615D01*
X56005265Y-28536786D01*
X56013287Y-28547983D01*
X56017500Y-28548692D01*
X56027817Y-28555325D01*
X56031951Y-28577163D01*
X56032153Y-28586724D01*
X56036098Y-28617056D01*
X56046807Y-28630379D01*
X56056664Y-28641990D01*
X56061065Y-28668788D01*
X56061461Y-28685155D01*
X56063208Y-28713119D01*
X56067677Y-28730923D01*
X56071230Y-28734307D01*
X56077348Y-28742974D01*
X56080750Y-28764625D01*
X56081000Y-28773384D01*
X56078833Y-28797854D01*
X56073420Y-28811465D01*
X56071230Y-28812461D01*
X56065113Y-28803794D01*
X56061710Y-28782144D01*
X56061461Y-28773384D01*
X56059041Y-28746213D01*
X56051020Y-28735016D01*
X56046807Y-28734307D01*
X56037894Y-28729405D01*
X56033351Y-28712246D01*
X56032153Y-28681622D01*
X56030167Y-28646807D01*
X56023688Y-28628067D01*
X56017500Y-28623313D01*
X56006416Y-28609179D01*
X56002846Y-28583191D01*
X56000412Y-28560469D01*
X55994422Y-28549020D01*
X55993077Y-28548692D01*
X55986959Y-28540025D01*
X55983556Y-28518374D01*
X55983307Y-28509615D01*
X55985474Y-28485145D01*
X55990887Y-28471534D01*
X55993077Y-28470538D01*
X55999194Y-28479205D01*
G37*
G36*
X56662316Y-29488705D02*
G01*
X56675926Y-29494117D01*
X56676923Y-29496307D01*
X56685516Y-29502741D01*
X56706670Y-29505983D01*
X56711422Y-29506077D01*
X56739125Y-29510274D01*
X56751544Y-29520730D01*
X56766041Y-29531834D01*
X56795199Y-29535384D01*
X56821975Y-29537940D01*
X56832705Y-29546354D01*
X56833230Y-29550038D01*
X56839683Y-29560227D01*
X56861073Y-29564426D01*
X56872307Y-29564692D01*
X56896777Y-29566859D01*
X56910388Y-29572271D01*
X56911384Y-29574461D01*
X56902717Y-29580579D01*
X56881067Y-29583981D01*
X56872307Y-29584230D01*
X56847837Y-29582064D01*
X56834227Y-29576651D01*
X56833230Y-29574461D01*
X56824564Y-29568344D01*
X56802913Y-29564941D01*
X56794153Y-29564692D01*
X56766982Y-29562272D01*
X56755786Y-29554251D01*
X56755077Y-29550038D01*
X56748624Y-29539849D01*
X56727234Y-29535650D01*
X56716000Y-29535384D01*
X56688828Y-29532964D01*
X56677632Y-29524943D01*
X56676923Y-29520730D01*
X56670470Y-29510541D01*
X56649080Y-29506342D01*
X56637846Y-29506077D01*
X56613376Y-29503910D01*
X56599765Y-29498497D01*
X56598769Y-29496307D01*
X56607436Y-29490190D01*
X56629086Y-29486787D01*
X56637846Y-29486538D01*
X56662316Y-29488705D01*
G37*
G36*
X57297316Y-30260474D02*
G01*
X57310926Y-30265887D01*
X57311923Y-30268077D01*
X57303256Y-30274194D01*
X57281605Y-30277597D01*
X57272846Y-30277846D01*
X57245674Y-30280265D01*
X57234478Y-30288287D01*
X57233769Y-30292500D01*
X57228866Y-30301413D01*
X57211707Y-30305955D01*
X57181083Y-30307153D01*
X57146269Y-30309140D01*
X57127528Y-30315619D01*
X57122774Y-30321807D01*
X57108641Y-30332891D01*
X57082652Y-30336461D01*
X57059931Y-30338895D01*
X57048482Y-30344885D01*
X57048153Y-30346230D01*
X57039487Y-30352348D01*
X57017836Y-30355750D01*
X57009077Y-30356000D01*
X56984606Y-30353833D01*
X56970996Y-30348420D01*
X56970000Y-30346230D01*
X56978666Y-30340113D01*
X57000317Y-30336710D01*
X57009077Y-30336461D01*
X57036248Y-30334041D01*
X57047444Y-30326020D01*
X57048153Y-30321807D01*
X57054786Y-30311490D01*
X57076624Y-30307356D01*
X57086185Y-30307153D01*
X57116517Y-30303209D01*
X57129840Y-30292500D01*
X57141452Y-30282643D01*
X57168250Y-30278242D01*
X57184616Y-30277846D01*
X57212580Y-30276099D01*
X57230385Y-30271630D01*
X57233769Y-30268077D01*
X57242436Y-30261959D01*
X57264086Y-30258556D01*
X57272846Y-30258307D01*
X57297316Y-30260474D01*
G37*
G36*
X55793057Y-27475856D02*
G01*
X55871839Y-27478914D01*
X55946548Y-27483757D01*
X56014826Y-27490443D01*
X56074316Y-27499029D01*
X56078557Y-27499788D01*
X56100513Y-27507460D01*
X56110258Y-27518338D01*
X56110307Y-27519125D01*
X56115720Y-27526963D01*
X56134031Y-27531256D01*
X56168346Y-27532681D01*
X56172762Y-27532692D01*
X56210126Y-27534064D01*
X56231639Y-27538687D01*
X56240830Y-27547319D01*
X56240840Y-27547346D01*
X56251633Y-27558818D01*
X56266232Y-27561618D01*
X56275806Y-27554804D01*
X56276384Y-27551143D01*
X56284947Y-27545788D01*
X56309073Y-27547457D01*
X56346415Y-27555356D01*
X56394628Y-27568696D01*
X56451367Y-27586684D01*
X56514286Y-27608530D01*
X56581039Y-27633443D01*
X56649281Y-27660631D01*
X56716666Y-27689303D01*
X56780849Y-27718668D01*
X56799038Y-27727450D01*
X56977900Y-27823364D01*
X57143190Y-27929987D01*
X57298828Y-28050121D01*
X57448735Y-28186572D01*
X57468676Y-28206324D01*
X57607535Y-28355759D01*
X57729701Y-28510398D01*
X57837978Y-28674161D01*
X57935169Y-28850969D01*
X57947549Y-28875961D01*
X57982456Y-28950430D01*
X58015320Y-29026479D01*
X58045191Y-29101371D01*
X58071115Y-29172365D01*
X58092142Y-29236724D01*
X58107319Y-29291707D01*
X58115696Y-29334577D01*
X58116426Y-29361980D01*
X58109773Y-29387075D01*
X58101968Y-29397823D01*
X58095663Y-29392806D01*
X58093461Y-29374268D01*
X58093461Y-29349921D01*
X57504865Y-29347403D01*
X56916269Y-29344884D01*
X56913677Y-29064019D01*
X56912885Y-28992210D01*
X56911920Y-28927182D01*
X56910838Y-28871375D01*
X56910171Y-28845603D01*
X56948316Y-28845603D01*
X56948320Y-28888453D01*
X56948447Y-28945368D01*
X56948679Y-29010876D01*
X56948996Y-29079506D01*
X56949296Y-29132524D01*
X56950461Y-29320702D01*
X57517077Y-29320303D01*
X57645222Y-29320051D01*
X57758262Y-29319493D01*
X57855562Y-29318640D01*
X57936484Y-29317503D01*
X58000393Y-29316094D01*
X58046653Y-29314423D01*
X58074628Y-29312502D01*
X58083692Y-29310413D01*
X58076249Y-29301196D01*
X58073923Y-29300923D01*
X58067000Y-29292450D01*
X58064153Y-29272313D01*
X58058969Y-29245892D01*
X58048523Y-29228072D01*
X58037816Y-29207918D01*
X58032923Y-29180063D01*
X58032892Y-29177847D01*
X58029163Y-29151504D01*
X58019383Y-29138070D01*
X58019215Y-29138004D01*
X58009345Y-29124452D01*
X58005545Y-29096192D01*
X58005538Y-29094724D01*
X58002982Y-29067947D01*
X57994568Y-29057218D01*
X57990884Y-29056692D01*
X57979098Y-29048199D01*
X57976230Y-29032269D01*
X57972886Y-29013909D01*
X57966461Y-29007846D01*
X57959602Y-28999357D01*
X57956693Y-28978903D01*
X57956692Y-28978538D01*
X57952323Y-28955270D01*
X57942038Y-28949230D01*
X57930252Y-28940738D01*
X57927384Y-28924807D01*
X57922289Y-28905164D01*
X57912730Y-28900384D01*
X57901097Y-28891646D01*
X57898077Y-28871077D01*
X57893708Y-28847809D01*
X57883423Y-28841769D01*
X57871637Y-28833276D01*
X57868769Y-28817346D01*
X57865425Y-28798986D01*
X57859000Y-28792923D01*
X57851689Y-28784553D01*
X57849230Y-28768193D01*
X57844056Y-28747387D01*
X57834577Y-28737840D01*
X57823190Y-28724765D01*
X57819923Y-28708839D01*
X57814636Y-28689981D01*
X57805269Y-28685461D01*
X57792317Y-28677641D01*
X57790615Y-28670807D01*
X57782709Y-28658125D01*
X57774822Y-28656153D01*
X57763642Y-28650670D01*
X57763686Y-28631796D01*
X57763698Y-28631730D01*
X57763281Y-28611928D01*
X57755068Y-28607307D01*
X57743300Y-28599458D01*
X57741769Y-28592653D01*
X57733949Y-28579702D01*
X57727115Y-28578000D01*
X57715099Y-28569908D01*
X57712461Y-28559157D01*
X57705100Y-28538569D01*
X57686739Y-28513777D01*
X57662963Y-28490492D01*
X57639355Y-28474428D01*
X57625827Y-28470538D01*
X57608911Y-28464725D01*
X57605000Y-28455884D01*
X57596566Y-28444064D01*
X57581622Y-28441230D01*
X57561485Y-28436065D01*
X57552912Y-28427335D01*
X57540126Y-28417784D01*
X57527562Y-28418674D01*
X57508074Y-28416868D01*
X57501496Y-28408146D01*
X57488083Y-28395946D01*
X57471763Y-28392384D01*
X57451379Y-28386994D01*
X57442455Y-28377730D01*
X57429381Y-28366343D01*
X57413454Y-28363077D01*
X57394597Y-28357790D01*
X57390077Y-28348423D01*
X57382560Y-28335464D01*
X57376015Y-28333769D01*
X57363975Y-28340336D01*
X57342360Y-28357692D01*
X57314800Y-28382324D01*
X57284925Y-28410716D01*
X57256365Y-28439353D01*
X57232751Y-28464719D01*
X57217712Y-28483300D01*
X57214230Y-28490430D01*
X57206757Y-28499543D01*
X57204247Y-28499846D01*
X57194447Y-28506463D01*
X57173387Y-28524830D01*
X57143461Y-28552723D01*
X57107062Y-28587915D01*
X57071383Y-28623353D01*
X56948501Y-28746861D01*
X56948316Y-28845603D01*
X56910171Y-28845603D01*
X56909696Y-28827227D01*
X56908549Y-28797177D01*
X56907453Y-28783665D01*
X56907214Y-28783153D01*
X56898598Y-28789807D01*
X56878747Y-28808214D01*
X56849966Y-28836038D01*
X56814562Y-28870948D01*
X56774839Y-28910608D01*
X56733104Y-28952685D01*
X56691660Y-28994845D01*
X56652815Y-29034755D01*
X56618872Y-29070081D01*
X56592139Y-29098488D01*
X56574919Y-29117643D01*
X56569461Y-29125064D01*
X56562309Y-29134562D01*
X56560067Y-29134846D01*
X56547755Y-29141469D01*
X56527512Y-29158214D01*
X56504089Y-29180391D01*
X56482233Y-29203311D01*
X56466695Y-29222286D01*
X56462000Y-29231667D01*
X56455329Y-29241849D01*
X56452605Y-29242307D01*
X56440293Y-29248931D01*
X56420051Y-29265676D01*
X56396627Y-29287853D01*
X56374772Y-29310773D01*
X56359234Y-29329747D01*
X56354538Y-29339128D01*
X56346053Y-29346598D01*
X56325607Y-29349768D01*
X56325230Y-29349769D01*
X56304285Y-29352397D01*
X56296623Y-29363571D01*
X56295923Y-29374192D01*
X56291888Y-29392783D01*
X56276000Y-29398512D01*
X56271500Y-29398615D01*
X56251857Y-29403710D01*
X56247077Y-29413269D01*
X56239257Y-29426221D01*
X56232423Y-29427923D01*
X56219471Y-29435743D01*
X56217769Y-29442577D01*
X56210799Y-29455547D01*
X56204766Y-29457230D01*
X56191092Y-29465025D01*
X56178692Y-29481653D01*
X56164990Y-29499501D01*
X56152618Y-29506077D01*
X56141109Y-29513932D01*
X56139615Y-29520730D01*
X56131795Y-29533682D01*
X56124961Y-29535384D01*
X56112009Y-29543204D01*
X56110307Y-29550038D01*
X56104663Y-29563033D01*
X56099840Y-29564692D01*
X56083268Y-29572092D01*
X56067528Y-29588334D01*
X56061461Y-29603071D01*
X56053560Y-29612353D01*
X56046807Y-29613538D01*
X56033856Y-29621358D01*
X56032153Y-29628192D01*
X56024333Y-29641144D01*
X56017500Y-29642846D01*
X56004548Y-29650666D01*
X56002846Y-29657500D01*
X55997202Y-29670494D01*
X55992379Y-29672153D01*
X55975806Y-29679553D01*
X55960067Y-29695795D01*
X55954000Y-29710533D01*
X55946098Y-29719815D01*
X55939346Y-29721000D01*
X55926394Y-29728820D01*
X55924692Y-29735653D01*
X55916872Y-29748605D01*
X55910038Y-29750307D01*
X55897068Y-29757277D01*
X55895384Y-29763310D01*
X55887590Y-29776984D01*
X55870961Y-29789384D01*
X55853113Y-29803086D01*
X55846538Y-29815458D01*
X55839895Y-29827350D01*
X55835403Y-29828461D01*
X55821084Y-29835489D01*
X55811291Y-29845557D01*
X55802026Y-29855714D01*
X55798565Y-29850050D01*
X55798003Y-29835788D01*
X55800840Y-29816299D01*
X55807461Y-29808923D01*
X55816128Y-29801010D01*
X55817230Y-29794269D01*
X55825050Y-29781317D01*
X55831884Y-29779615D01*
X55844836Y-29771795D01*
X55846538Y-29764961D01*
X55854358Y-29752009D01*
X55861192Y-29750307D01*
X55874187Y-29744663D01*
X55875846Y-29739840D01*
X55883246Y-29723268D01*
X55899487Y-29707528D01*
X55914225Y-29701461D01*
X55923507Y-29693560D01*
X55924692Y-29686807D01*
X55932512Y-29673856D01*
X55939346Y-29672153D01*
X55952297Y-29664333D01*
X55954000Y-29657500D01*
X55961820Y-29644548D01*
X55968653Y-29642846D01*
X55981648Y-29637202D01*
X55983307Y-29632379D01*
X55990707Y-29615806D01*
X56006949Y-29600067D01*
X56021686Y-29594000D01*
X56030968Y-29586098D01*
X56032153Y-29579346D01*
X56039973Y-29566394D01*
X56046807Y-29564692D01*
X56059811Y-29559595D01*
X56061461Y-29555259D01*
X56068171Y-29542021D01*
X56084397Y-29522714D01*
X56104281Y-29503254D01*
X56121967Y-29489553D01*
X56129516Y-29486538D01*
X56138474Y-29478631D01*
X56139615Y-29471884D01*
X56147435Y-29458932D01*
X56154269Y-29457230D01*
X56167263Y-29451558D01*
X56168923Y-29446710D01*
X56175749Y-29432847D01*
X56192217Y-29413309D01*
X56212316Y-29394108D01*
X56230030Y-29381258D01*
X56236556Y-29379077D01*
X56246647Y-29372565D01*
X56247077Y-29370003D01*
X56254094Y-29355488D01*
X56271425Y-29334979D01*
X56293486Y-29313844D01*
X56314693Y-29297450D01*
X56329105Y-29291153D01*
X56338478Y-29284533D01*
X56359733Y-29265900D01*
X56390992Y-29237095D01*
X56430375Y-29199960D01*
X56476004Y-29156335D01*
X56525999Y-29108062D01*
X56578481Y-29056981D01*
X56631571Y-29004936D01*
X56683390Y-28953765D01*
X56732058Y-28905311D01*
X56775697Y-28861415D01*
X56812427Y-28823918D01*
X56840369Y-28794662D01*
X56857645Y-28775486D01*
X56862538Y-28768494D01*
X56853167Y-28767272D01*
X56826646Y-28766161D01*
X56785363Y-28765203D01*
X56731706Y-28764436D01*
X56668064Y-28763900D01*
X56596825Y-28763636D01*
X56569551Y-28763615D01*
X56276563Y-28763615D01*
X56276363Y-28724538D01*
X56305692Y-28724538D01*
X56608538Y-28724538D01*
X56702463Y-28724226D01*
X56779790Y-28723305D01*
X56839900Y-28721793D01*
X56882176Y-28719710D01*
X56905998Y-28717078D01*
X56911384Y-28714769D01*
X56919745Y-28707425D01*
X56935807Y-28705000D01*
X56955450Y-28699904D01*
X56960230Y-28690346D01*
X56968050Y-28677394D01*
X56974884Y-28675692D01*
X56987836Y-28667872D01*
X56989538Y-28661038D01*
X56994626Y-28648035D01*
X56998954Y-28646384D01*
X57008230Y-28639764D01*
X57029250Y-28621168D01*
X57060001Y-28592494D01*
X57098468Y-28555641D01*
X57142638Y-28512507D01*
X57175153Y-28480307D01*
X57227624Y-28427807D01*
X57267310Y-28387385D01*
X57295481Y-28357552D01*
X57313411Y-28336816D01*
X57322371Y-28323686D01*
X57323633Y-28316673D01*
X57318470Y-28314284D01*
X57316854Y-28314230D01*
X57295907Y-28309125D01*
X57286148Y-28299577D01*
X57273022Y-28287999D01*
X57258192Y-28284923D01*
X57238361Y-28279225D01*
X57230236Y-28270269D01*
X57217225Y-28259117D01*
X57199883Y-28255615D01*
X57181377Y-28252371D01*
X57175153Y-28246032D01*
X57166864Y-28236772D01*
X57150730Y-28230319D01*
X57132442Y-28222776D01*
X57126307Y-28215479D01*
X57117932Y-28208959D01*
X57101578Y-28206769D01*
X57080772Y-28201595D01*
X57071225Y-28192115D01*
X57058150Y-28180728D01*
X57042224Y-28177461D01*
X57023366Y-28172175D01*
X57018846Y-28162807D01*
X57010412Y-28150987D01*
X56995468Y-28148153D01*
X56975028Y-28142271D01*
X56966041Y-28132391D01*
X56952914Y-28121024D01*
X56939976Y-28121864D01*
X56920887Y-28120524D01*
X56914626Y-28113203D01*
X56901747Y-28102231D01*
X56886961Y-28099307D01*
X56867130Y-28093610D01*
X56859005Y-28084653D01*
X56845994Y-28073501D01*
X56828652Y-28070000D01*
X56808780Y-28064958D01*
X56803923Y-28055346D01*
X56795185Y-28043712D01*
X56774615Y-28040692D01*
X56754037Y-28037862D01*
X56745310Y-28031044D01*
X56745307Y-28030923D01*
X56737112Y-28023026D01*
X56725462Y-28021153D01*
X56706677Y-28014788D01*
X56699994Y-28006500D01*
X56686919Y-27995113D01*
X56670993Y-27991846D01*
X56652135Y-27986559D01*
X56647615Y-27977192D01*
X56638877Y-27965558D01*
X56618307Y-27962538D01*
X56595040Y-27958169D01*
X56589000Y-27947884D01*
X56580566Y-27936064D01*
X56565622Y-27933230D01*
X56545253Y-27927515D01*
X56536362Y-27917903D01*
X56523826Y-27907198D01*
X56510846Y-27908807D01*
X56491828Y-27908264D01*
X56485329Y-27899712D01*
X56472039Y-27887795D01*
X56456070Y-27884384D01*
X56437212Y-27879098D01*
X56432692Y-27869730D01*
X56423954Y-27858097D01*
X56403384Y-27855077D01*
X56380117Y-27850708D01*
X56374077Y-27840423D01*
X56365809Y-27828523D01*
X56353173Y-27825769D01*
X56330400Y-27818391D01*
X56319291Y-27808673D01*
X56316249Y-27807278D01*
X56313701Y-27812749D01*
X56311603Y-27826516D01*
X56309914Y-27850011D01*
X56308591Y-27884665D01*
X56307593Y-27931909D01*
X56306876Y-27993173D01*
X56306398Y-28069889D01*
X56306118Y-28163487D01*
X56306003Y-28258057D01*
X56305692Y-28724538D01*
X56276363Y-28724538D01*
X56274031Y-28267827D01*
X56271500Y-27772038D01*
X56244634Y-27768947D01*
X56225119Y-27763833D01*
X56217769Y-27756735D01*
X56209405Y-27749878D01*
X56193346Y-27747615D01*
X56173703Y-27742520D01*
X56168923Y-27732961D01*
X56160414Y-27721186D01*
X56144193Y-27718307D01*
X56123387Y-27713133D01*
X56113840Y-27703653D01*
X56100715Y-27692076D01*
X56085884Y-27689000D01*
X56066053Y-27683302D01*
X56057928Y-27674346D01*
X56044917Y-27663194D01*
X56027575Y-27659692D01*
X56009070Y-27656386D01*
X56002846Y-27649923D01*
X55994485Y-27642579D01*
X55978423Y-27640153D01*
X55958780Y-27635058D01*
X55954000Y-27625500D01*
X55945491Y-27613724D01*
X55929270Y-27610846D01*
X55908464Y-27605672D01*
X55898917Y-27596192D01*
X55885791Y-27584614D01*
X55870961Y-27581538D01*
X55851130Y-27575841D01*
X55843005Y-27566884D01*
X55829994Y-27555732D01*
X55812652Y-27552230D01*
X55794147Y-27548924D01*
X55787923Y-27542461D01*
X55779562Y-27535117D01*
X55763500Y-27532692D01*
X55743857Y-27527596D01*
X55739077Y-27518038D01*
X55787923Y-27518038D01*
X55796067Y-27529972D01*
X55807461Y-27532692D01*
X55823373Y-27526583D01*
X55827000Y-27518038D01*
X55818855Y-27506104D01*
X55807461Y-27503384D01*
X55791549Y-27509493D01*
X55787923Y-27518038D01*
X55739077Y-27518038D01*
X55731257Y-27505086D01*
X55724423Y-27503384D01*
X55711471Y-27511204D01*
X55709769Y-27518038D01*
X55717589Y-27530990D01*
X55724423Y-27532692D01*
X55733638Y-27537921D01*
X55738139Y-27556026D01*
X55739077Y-27581538D01*
X55737508Y-27612256D01*
X55732076Y-27627259D01*
X55724423Y-27630384D01*
X55722201Y-27632038D01*
X55720212Y-27637664D01*
X55718443Y-27648264D01*
X55716882Y-27664834D01*
X55715515Y-27688375D01*
X55714332Y-27719887D01*
X55713318Y-27760367D01*
X55712462Y-27810815D01*
X55711750Y-27872231D01*
X55711171Y-27945614D01*
X55710712Y-28031962D01*
X55710361Y-28132275D01*
X55710104Y-28247552D01*
X55709929Y-28378793D01*
X55709824Y-28526996D01*
X55709775Y-28693160D01*
X55709769Y-28797807D01*
X55709769Y-29965230D01*
X56886961Y-29965230D01*
X57064742Y-29965210D01*
X57223980Y-29965140D01*
X57365670Y-29965008D01*
X57490806Y-29964802D01*
X57600384Y-29964510D01*
X57695398Y-29964118D01*
X57776845Y-29963616D01*
X57845719Y-29962989D01*
X57903014Y-29962227D01*
X57949727Y-29961316D01*
X57986852Y-29960244D01*
X58015384Y-29958999D01*
X58036318Y-29957568D01*
X58050649Y-29955939D01*
X58059373Y-29954100D01*
X58063483Y-29952038D01*
X58064153Y-29950577D01*
X58055444Y-29938926D01*
X58035422Y-29935923D01*
X58012470Y-29932791D01*
X58000511Y-29925385D01*
X58002943Y-29916690D01*
X58009537Y-29913191D01*
X58028788Y-29911124D01*
X58049501Y-29915357D01*
X58062849Y-29923612D01*
X58064153Y-29927293D01*
X58072823Y-29932698D01*
X58094480Y-29935703D01*
X58103230Y-29935923D01*
X58130402Y-29938342D01*
X58141598Y-29946364D01*
X58142307Y-29950577D01*
X58150127Y-29963528D01*
X58156961Y-29965230D01*
X58163169Y-29962348D01*
X58167385Y-29951741D01*
X58169963Y-29930472D01*
X58171256Y-29895602D01*
X58171615Y-29844193D01*
X58171615Y-29843115D01*
X58171269Y-29791386D01*
X58169996Y-29756248D01*
X58167444Y-29734764D01*
X58163260Y-29723994D01*
X58157090Y-29721000D01*
X58156961Y-29721000D01*
X58149812Y-29717573D01*
X58145359Y-29705068D01*
X58143046Y-29680145D01*
X58142315Y-29639466D01*
X58142307Y-29633077D01*
X58143000Y-29589284D01*
X58145378Y-29562026D01*
X58149894Y-29548336D01*
X58155704Y-29545153D01*
X58165282Y-29554695D01*
X58173788Y-29582456D01*
X58181100Y-29627139D01*
X58187098Y-29687448D01*
X58191659Y-29762088D01*
X58194661Y-29849761D01*
X58195984Y-29949172D01*
X58196038Y-29975000D01*
X58195143Y-30077071D01*
X58192538Y-30167720D01*
X58188345Y-30245652D01*
X58182686Y-30309569D01*
X58175682Y-30358176D01*
X58167456Y-30390175D01*
X58158127Y-30404271D01*
X58155704Y-30404846D01*
X58149031Y-30400302D01*
X58144878Y-30384692D01*
X58142792Y-30355052D01*
X58142307Y-30316923D01*
X58142878Y-30274028D01*
X58144963Y-30247310D01*
X58149116Y-30233429D01*
X58155896Y-30229046D01*
X58156961Y-30229000D01*
X58163520Y-30225930D01*
X58167839Y-30214657D01*
X58170340Y-30192083D01*
X58171445Y-30155113D01*
X58171615Y-30121538D01*
X58171196Y-30073437D01*
X58169659Y-30041765D01*
X58166581Y-30023426D01*
X58161540Y-30015322D01*
X58156961Y-30014077D01*
X58144009Y-30021896D01*
X58142307Y-30028730D01*
X58134342Y-30039580D01*
X58115253Y-30043905D01*
X58092252Y-30041934D01*
X58072548Y-30033895D01*
X58065327Y-30026288D01*
X58063098Y-30023718D01*
X58058755Y-30021418D01*
X58051263Y-30019373D01*
X58039591Y-30017570D01*
X58022702Y-30015991D01*
X57999565Y-30014624D01*
X57969145Y-30013452D01*
X57930408Y-30012461D01*
X57882322Y-30011635D01*
X57823851Y-30010961D01*
X57753962Y-30010422D01*
X57671621Y-30010004D01*
X57575796Y-30009691D01*
X57465451Y-30009470D01*
X57339554Y-30009324D01*
X57197070Y-30009239D01*
X57036966Y-30009200D01*
X56885207Y-30009192D01*
X55714653Y-30009192D01*
X55712171Y-31174464D01*
X55711815Y-31351354D01*
X55711549Y-31509712D01*
X55711383Y-31650544D01*
X55711327Y-31774856D01*
X55711392Y-31883656D01*
X55711588Y-31977948D01*
X55711927Y-32058740D01*
X55712418Y-32127038D01*
X55713072Y-32183847D01*
X55713899Y-32230175D01*
X55714911Y-32267028D01*
X55716117Y-32295411D01*
X55717528Y-32316331D01*
X55719154Y-32330795D01*
X55721007Y-32339808D01*
X55723095Y-32344378D01*
X55724383Y-32345375D01*
X55734775Y-32357395D01*
X55739314Y-32378099D01*
X55737996Y-32399782D01*
X55730817Y-32414739D01*
X55724423Y-32417307D01*
X55711471Y-32425127D01*
X55709769Y-32431961D01*
X55717589Y-32444913D01*
X55724423Y-32446615D01*
X55737374Y-32438795D01*
X55739077Y-32431961D01*
X55747569Y-32420175D01*
X55763500Y-32417307D01*
X55781859Y-32413963D01*
X55787923Y-32407538D01*
X55796292Y-32400228D01*
X55812652Y-32397769D01*
X55833458Y-32392595D01*
X55843005Y-32383115D01*
X55856131Y-32371537D01*
X55870961Y-32368461D01*
X55890792Y-32362764D01*
X55898917Y-32353807D01*
X55911928Y-32342655D01*
X55929270Y-32339153D01*
X55949142Y-32334111D01*
X55954000Y-32324500D01*
X55962492Y-32312714D01*
X55978423Y-32309846D01*
X55996782Y-32306502D01*
X56002846Y-32300077D01*
X56011215Y-32292766D01*
X56027575Y-32290307D01*
X56048381Y-32285133D01*
X56057928Y-32275653D01*
X56071003Y-32264267D01*
X56086929Y-32261000D01*
X56105787Y-32255713D01*
X56110307Y-32246346D01*
X56118994Y-32234681D01*
X56138570Y-32231692D01*
X56161460Y-32226998D01*
X56172455Y-32217038D01*
X56185707Y-32204971D01*
X56197924Y-32202384D01*
X56213968Y-32198615D01*
X56217769Y-32193264D01*
X56226217Y-32185667D01*
X56244634Y-32181052D01*
X56271500Y-32177961D01*
X56274034Y-31696827D01*
X56276414Y-31245000D01*
X56305372Y-31245000D01*
X56306058Y-31701711D01*
X56306299Y-31809874D01*
X56306696Y-31899924D01*
X56307292Y-31973288D01*
X56308132Y-32031391D01*
X56309259Y-32075659D01*
X56310717Y-32107518D01*
X56312548Y-32128394D01*
X56314798Y-32139711D01*
X56317509Y-32142897D01*
X56319507Y-32141327D01*
X56339069Y-32127259D01*
X56353173Y-32124230D01*
X56370148Y-32118434D01*
X56374077Y-32109577D01*
X56382814Y-32097943D01*
X56403384Y-32094923D01*
X56426652Y-32090554D01*
X56432692Y-32080269D01*
X56441126Y-32068448D01*
X56456070Y-32065615D01*
X56474206Y-32060730D01*
X56628077Y-32060730D01*
X56632961Y-32065615D01*
X56637846Y-32060730D01*
X56632961Y-32055846D01*
X56628077Y-32060730D01*
X56474206Y-32060730D01*
X56476330Y-32060158D01*
X56485071Y-32050961D01*
X56498353Y-32038773D01*
X56509963Y-32036307D01*
X56528792Y-32031890D01*
X56535269Y-32026538D01*
X56548735Y-32018976D01*
X56565153Y-32016769D01*
X56584364Y-32011570D01*
X56589000Y-32002115D01*
X56597508Y-31990339D01*
X56613729Y-31987461D01*
X56634535Y-31982287D01*
X56644082Y-31972807D01*
X56657157Y-31961420D01*
X56673083Y-31958153D01*
X56690936Y-31954674D01*
X56696461Y-31948384D01*
X56704788Y-31940924D01*
X56719839Y-31938615D01*
X56740099Y-31933158D01*
X56748840Y-31923961D01*
X57165384Y-31923961D01*
X57170269Y-31928846D01*
X57175153Y-31923961D01*
X57170269Y-31919077D01*
X57165384Y-31923961D01*
X56748840Y-31923961D01*
X56761851Y-31912809D01*
X56779193Y-31909307D01*
X56799065Y-31904265D01*
X56803923Y-31894653D01*
X56812357Y-31882833D01*
X56827301Y-31880000D01*
X56847560Y-31874543D01*
X56856302Y-31865346D01*
X56869362Y-31854013D01*
X56885609Y-31850692D01*
X56906172Y-31844881D01*
X56915342Y-31834930D01*
X56928512Y-31823543D01*
X56940811Y-31824246D01*
X56957042Y-31823408D01*
X56960230Y-31815585D01*
X56969036Y-31804929D01*
X56989538Y-31801846D01*
X57012806Y-31797477D01*
X57018846Y-31787192D01*
X57027280Y-31775371D01*
X57042224Y-31772538D01*
X57062483Y-31767081D01*
X57071225Y-31757884D01*
X57084236Y-31746732D01*
X57101578Y-31743230D01*
X57120083Y-31739924D01*
X57126307Y-31733461D01*
X57134668Y-31726117D01*
X57150730Y-31723692D01*
X57170373Y-31718596D01*
X57175153Y-31709038D01*
X57183891Y-31697404D01*
X57204461Y-31694384D01*
X57227729Y-31690015D01*
X57233769Y-31679730D01*
X57242203Y-31667910D01*
X57257147Y-31665077D01*
X57277586Y-31659194D01*
X57286573Y-31649314D01*
X57299743Y-31637927D01*
X57312032Y-31638628D01*
X57329663Y-31639771D01*
X57335836Y-31636594D01*
X57332638Y-31626054D01*
X57319379Y-31611818D01*
X57302839Y-31600097D01*
X57292273Y-31596692D01*
X57282877Y-31589377D01*
X57282615Y-31587180D01*
X57275971Y-31575288D01*
X57259163Y-31555383D01*
X57236877Y-31532151D01*
X57213797Y-31510276D01*
X57194609Y-31494444D01*
X57184666Y-31489230D01*
X57175476Y-31481747D01*
X57175153Y-31479149D01*
X57168540Y-31469193D01*
X57150257Y-31448139D01*
X57122638Y-31418514D01*
X57088020Y-31382846D01*
X57062285Y-31357034D01*
X56949416Y-31245000D01*
X56627394Y-31245000D01*
X56305372Y-31245000D01*
X56276414Y-31245000D01*
X56276568Y-31215692D01*
X56584207Y-31215692D01*
X56659499Y-31215533D01*
X56728118Y-31215084D01*
X56787735Y-31214382D01*
X56836017Y-31213469D01*
X56870635Y-31212382D01*
X56889257Y-31211163D01*
X56891846Y-31210489D01*
X56885114Y-31201368D01*
X56866128Y-31180586D01*
X56836700Y-31149922D01*
X56798642Y-31111151D01*
X56753767Y-31066049D01*
X56703888Y-31016394D01*
X56650817Y-30963962D01*
X56596367Y-30910529D01*
X56542350Y-30857873D01*
X56490579Y-30807769D01*
X56442867Y-30761995D01*
X56401026Y-30722326D01*
X56366868Y-30690540D01*
X56342207Y-30668413D01*
X56328854Y-30657722D01*
X56327161Y-30657015D01*
X56314055Y-30652026D01*
X56294174Y-30636827D01*
X56272849Y-30616545D01*
X56255411Y-30596309D01*
X56247190Y-30581244D01*
X56247077Y-30579996D01*
X56239668Y-30571134D01*
X56237644Y-30570923D01*
X56224405Y-30564213D01*
X56205099Y-30547987D01*
X56185638Y-30528103D01*
X56171938Y-30510417D01*
X56168923Y-30502867D01*
X56161015Y-30493910D01*
X56154269Y-30492769D01*
X56141317Y-30484949D01*
X56139615Y-30478115D01*
X56134166Y-30465117D01*
X56129516Y-30463461D01*
X56116406Y-30456685D01*
X56097287Y-30440301D01*
X56078015Y-30420222D01*
X56064447Y-30402363D01*
X56061461Y-30394740D01*
X56053543Y-30386370D01*
X56046807Y-30385307D01*
X56033856Y-30377487D01*
X56032153Y-30370653D01*
X56026509Y-30357659D01*
X56021686Y-30356000D01*
X56005114Y-30348600D01*
X55989374Y-30332358D01*
X55983307Y-30317620D01*
X55975406Y-30308338D01*
X55968653Y-30307153D01*
X55955702Y-30299333D01*
X55954000Y-30292500D01*
X55946180Y-30279548D01*
X55939346Y-30277846D01*
X55926394Y-30270026D01*
X55924692Y-30263192D01*
X55919243Y-30250194D01*
X55914593Y-30248538D01*
X55901483Y-30241762D01*
X55882364Y-30225378D01*
X55863092Y-30205299D01*
X55849524Y-30187440D01*
X55846538Y-30179817D01*
X55838786Y-30171104D01*
X55833991Y-30170384D01*
X55819546Y-30162583D01*
X55805456Y-30144047D01*
X55795602Y-30122080D01*
X55793868Y-30103984D01*
X55796299Y-30099485D01*
X55806953Y-30095724D01*
X55813071Y-30105251D01*
X55825069Y-30119223D01*
X55832929Y-30121538D01*
X55845239Y-30127554D01*
X55846538Y-30132005D01*
X55853938Y-30148578D01*
X55870180Y-30164317D01*
X55884917Y-30170384D01*
X55894199Y-30178286D01*
X55895384Y-30185038D01*
X55903204Y-30197990D01*
X55910038Y-30199692D01*
X55922990Y-30207512D01*
X55924692Y-30214346D01*
X55932512Y-30227297D01*
X55939346Y-30229000D01*
X55952340Y-30234644D01*
X55954000Y-30239467D01*
X55961399Y-30256039D01*
X55977641Y-30271779D01*
X55992379Y-30277846D01*
X56001661Y-30285747D01*
X56002846Y-30292500D01*
X56010666Y-30305451D01*
X56017500Y-30307153D01*
X56030451Y-30314973D01*
X56032153Y-30321807D01*
X56039973Y-30334759D01*
X56046807Y-30336461D01*
X56059802Y-30342105D01*
X56061461Y-30346928D01*
X56068861Y-30363501D01*
X56085103Y-30379240D01*
X56099840Y-30385307D01*
X56109122Y-30393209D01*
X56110307Y-30399961D01*
X56118127Y-30412913D01*
X56124961Y-30414615D01*
X56137913Y-30422435D01*
X56139615Y-30429269D01*
X56146585Y-30442239D01*
X56152618Y-30443923D01*
X56166292Y-30451717D01*
X56178692Y-30468346D01*
X56192394Y-30486194D01*
X56204766Y-30492769D01*
X56216275Y-30500624D01*
X56217769Y-30507423D01*
X56225589Y-30520374D01*
X56232423Y-30522077D01*
X56245374Y-30529896D01*
X56247077Y-30536730D01*
X56255569Y-30548516D01*
X56271500Y-30551384D01*
X56290091Y-30555419D01*
X56295820Y-30571306D01*
X56295923Y-30575807D01*
X56300366Y-30594817D01*
X56316130Y-30600230D01*
X56316307Y-30600230D01*
X56333694Y-30607233D01*
X56359381Y-30626184D01*
X56389150Y-30653961D01*
X56415433Y-30679607D01*
X56437265Y-30698596D01*
X56450584Y-30707445D01*
X56451804Y-30707692D01*
X56461636Y-30714631D01*
X56462000Y-30717124D01*
X56468710Y-30730363D01*
X56484935Y-30749670D01*
X56504819Y-30769130D01*
X56522506Y-30782831D01*
X56530055Y-30785846D01*
X56539012Y-30793753D01*
X56540153Y-30800500D01*
X56547973Y-30813451D01*
X56554807Y-30815153D01*
X56567802Y-30820826D01*
X56569461Y-30825674D01*
X56575851Y-30838678D01*
X56591797Y-30858278D01*
X56598017Y-30864751D01*
X56618324Y-30882703D01*
X56634116Y-30892620D01*
X56637094Y-30893307D01*
X56647183Y-30900068D01*
X56647615Y-30902740D01*
X56654325Y-30915978D01*
X56670550Y-30935285D01*
X56690435Y-30954746D01*
X56708121Y-30968446D01*
X56715670Y-30971461D01*
X56724628Y-30979369D01*
X56725769Y-30986115D01*
X56733589Y-30999067D01*
X56740423Y-31000769D01*
X56753426Y-31005857D01*
X56755077Y-31010185D01*
X56761501Y-31019806D01*
X56778462Y-31039420D01*
X56802493Y-31065450D01*
X56830126Y-31094318D01*
X56857892Y-31122448D01*
X56882325Y-31146263D01*
X56899957Y-31162186D01*
X56906949Y-31166846D01*
X56908066Y-31157473D01*
X56909239Y-31130940D01*
X56910414Y-31089625D01*
X56911536Y-31035906D01*
X56912551Y-30972160D01*
X56913405Y-30900766D01*
X56913683Y-30871327D01*
X56914184Y-30814089D01*
X56948999Y-30814089D01*
X56949139Y-30885759D01*
X56949264Y-30912325D01*
X56950847Y-31205358D01*
X57018567Y-31274025D01*
X57048359Y-31303241D01*
X57073711Y-31326275D01*
X57091174Y-31340090D01*
X57096528Y-31342692D01*
X57106396Y-31349579D01*
X57106769Y-31352086D01*
X57113392Y-31364398D01*
X57130137Y-31384641D01*
X57152314Y-31408064D01*
X57175235Y-31429920D01*
X57194209Y-31445458D01*
X57203590Y-31450153D01*
X57213772Y-31456824D01*
X57214230Y-31459548D01*
X57220854Y-31471860D01*
X57237599Y-31492102D01*
X57259776Y-31515526D01*
X57282696Y-31537381D01*
X57301670Y-31552919D01*
X57311051Y-31557615D01*
X57321230Y-31564543D01*
X57321692Y-31567384D01*
X57329324Y-31584753D01*
X57347050Y-31602812D01*
X57367120Y-31614301D01*
X57372980Y-31615416D01*
X57387389Y-31609312D01*
X57390077Y-31601577D01*
X57398510Y-31589756D01*
X57413454Y-31586923D01*
X57433714Y-31581466D01*
X57442455Y-31572269D01*
X57455516Y-31560936D01*
X57471763Y-31557615D01*
X57492148Y-31552225D01*
X57501071Y-31542961D01*
X57514082Y-31531809D01*
X57531424Y-31528307D01*
X57549929Y-31525001D01*
X57556153Y-31518538D01*
X57564514Y-31511194D01*
X57580577Y-31508769D01*
X57600219Y-31503673D01*
X57605000Y-31494115D01*
X57613190Y-31482191D01*
X57625005Y-31479461D01*
X57645202Y-31472616D01*
X57666696Y-31456043D01*
X57667644Y-31455038D01*
X57686075Y-31438384D01*
X57700512Y-31430678D01*
X57701370Y-31430615D01*
X57709155Y-31422132D01*
X57712460Y-31401691D01*
X57712461Y-31401307D01*
X57716830Y-31378040D01*
X57727115Y-31372000D01*
X57740067Y-31364180D01*
X57741769Y-31357346D01*
X57749675Y-31344663D01*
X57757562Y-31342692D01*
X57768861Y-31336892D01*
X57768090Y-31322556D01*
X57769376Y-31303376D01*
X57776719Y-31297088D01*
X57789220Y-31284606D01*
X57790615Y-31278147D01*
X57798458Y-31266108D01*
X57805269Y-31264538D01*
X57817089Y-31256104D01*
X57819923Y-31241160D01*
X57825638Y-31220791D01*
X57835250Y-31211901D01*
X57845955Y-31199365D01*
X57844346Y-31186384D01*
X57844889Y-31167366D01*
X57853441Y-31160868D01*
X57865358Y-31147577D01*
X57868769Y-31131608D01*
X57874055Y-31112750D01*
X57883423Y-31108230D01*
X57895056Y-31099492D01*
X57898077Y-31078923D01*
X57902445Y-31055655D01*
X57912730Y-31049615D01*
X57924516Y-31041123D01*
X57927384Y-31025192D01*
X57930728Y-31006832D01*
X57937153Y-31000769D01*
X57944464Y-30992399D01*
X57946923Y-30976039D01*
X57952097Y-30955233D01*
X57961577Y-30945686D01*
X57972963Y-30932612D01*
X57976230Y-30916685D01*
X57981517Y-30897827D01*
X57990884Y-30893307D01*
X58001073Y-30886855D01*
X58005272Y-30865465D01*
X58005538Y-30854230D01*
X58007958Y-30827059D01*
X58015979Y-30815863D01*
X58020192Y-30815153D01*
X58031826Y-30806416D01*
X58034846Y-30785846D01*
X58031292Y-30764647D01*
X58022734Y-30756538D01*
X58021230Y-30750933D01*
X58032118Y-30736913D01*
X58038166Y-30730998D01*
X58056994Y-30708902D01*
X58061049Y-30688656D01*
X58059807Y-30681937D01*
X58059783Y-30660605D01*
X58068798Y-30652701D01*
X58080842Y-30639426D01*
X58083695Y-30626051D01*
X58083698Y-30605115D01*
X57520252Y-30607641D01*
X57417183Y-30608180D01*
X57320047Y-30608836D01*
X57230584Y-30609587D01*
X57150534Y-30610413D01*
X57081638Y-30611290D01*
X57025638Y-30612198D01*
X56984275Y-30613114D01*
X56959288Y-30614018D01*
X56952244Y-30614730D01*
X56951149Y-30625278D01*
X56950253Y-30652925D01*
X56949580Y-30695235D01*
X56949154Y-30749769D01*
X56948999Y-30814089D01*
X56914184Y-30814089D01*
X56916269Y-30575807D01*
X57502423Y-30573176D01*
X57632998Y-30572432D01*
X57748596Y-30571445D01*
X57848575Y-30570229D01*
X57932292Y-30568797D01*
X57999103Y-30567162D01*
X58048365Y-30565338D01*
X58079437Y-30563339D01*
X58091674Y-30561177D01*
X58091833Y-30560965D01*
X58101098Y-30551615D01*
X58110824Y-30556938D01*
X58113000Y-30566038D01*
X58117944Y-30579044D01*
X58122146Y-30580692D01*
X58125848Y-30589236D01*
X58122608Y-30613231D01*
X58113301Y-30650220D01*
X58098801Y-30697748D01*
X58079985Y-30753358D01*
X58057727Y-30814595D01*
X58032901Y-30879002D01*
X58006382Y-30944124D01*
X57979047Y-31007504D01*
X57951768Y-31066687D01*
X57941560Y-31087643D01*
X57841389Y-31270790D01*
X57727993Y-31441823D01*
X57599331Y-31603575D01*
X57468676Y-31743676D01*
X57319297Y-31882483D01*
X57164625Y-32004678D01*
X57000628Y-32113144D01*
X56823275Y-32210766D01*
X56799038Y-32222806D01*
X56736837Y-32252028D01*
X56670585Y-32280841D01*
X56602635Y-32308452D01*
X56535344Y-32334068D01*
X56471067Y-32356894D01*
X56412158Y-32376138D01*
X56360974Y-32391007D01*
X56319869Y-32400707D01*
X56291199Y-32404444D01*
X56277318Y-32401426D01*
X56276384Y-32398856D01*
X56269721Y-32389249D01*
X56255618Y-32389515D01*
X56242907Y-32398710D01*
X56240840Y-32402653D01*
X56231675Y-32411297D01*
X56210196Y-32415928D01*
X56172875Y-32417307D01*
X56172762Y-32417307D01*
X56136681Y-32418483D01*
X56116915Y-32422461D01*
X56110356Y-32429915D01*
X56110307Y-32430874D01*
X56107683Y-32438092D01*
X56098037Y-32444105D01*
X56078709Y-32449530D01*
X56047037Y-32454980D01*
X56000361Y-32461072D01*
X55958884Y-32465872D01*
X55913774Y-32469454D01*
X55853995Y-32472049D01*
X55784190Y-32473660D01*
X55708999Y-32474290D01*
X55633066Y-32473941D01*
X55561031Y-32472615D01*
X55497535Y-32470314D01*
X55447222Y-32467041D01*
X55433075Y-32465608D01*
X55375887Y-32458547D01*
X55335577Y-32452403D01*
X55309542Y-32446552D01*
X55295184Y-32440366D01*
X55289900Y-32433220D01*
X55289776Y-32431961D01*
X55573000Y-32431961D01*
X55581144Y-32443895D01*
X55592538Y-32446615D01*
X55608450Y-32440507D01*
X55612077Y-32431961D01*
X55603932Y-32420027D01*
X55592538Y-32417307D01*
X55576626Y-32423416D01*
X55573000Y-32431961D01*
X55289776Y-32431961D01*
X55289692Y-32431102D01*
X55284632Y-32423253D01*
X55267281Y-32418902D01*
X55234382Y-32417345D01*
X55225885Y-32417307D01*
X55188159Y-32415995D01*
X55166279Y-32411557D01*
X55156700Y-32403247D01*
X55156455Y-32402653D01*
X55145810Y-32390936D01*
X55132017Y-32388543D01*
X55123822Y-32396488D01*
X55123615Y-32398856D01*
X55115052Y-32404242D01*
X55090933Y-32402615D01*
X55053614Y-32394767D01*
X55005449Y-32381493D01*
X54948795Y-32363584D01*
X54886005Y-32341836D01*
X54819436Y-32317041D01*
X54751442Y-32289992D01*
X54684379Y-32261482D01*
X54620602Y-32232306D01*
X54600961Y-32222806D01*
X54421577Y-32126381D01*
X54256072Y-32019488D01*
X54100416Y-31899240D01*
X53950578Y-31762754D01*
X53931324Y-31743676D01*
X53899137Y-31709038D01*
X53961077Y-31709038D01*
X53965961Y-31713923D01*
X53970846Y-31709038D01*
X53965961Y-31704153D01*
X53961077Y-31709038D01*
X53899137Y-31709038D01*
X53831898Y-31636677D01*
X54065075Y-31636677D01*
X54065458Y-31636850D01*
X54080794Y-31636995D01*
X54095403Y-31636151D01*
X54113589Y-31640177D01*
X54117384Y-31649724D01*
X54125777Y-31662220D01*
X54141807Y-31665077D01*
X54161450Y-31670172D01*
X54166230Y-31679730D01*
X54174213Y-31689981D01*
X54192605Y-31694385D01*
X54213075Y-31692615D01*
X54227290Y-31684346D01*
X54228529Y-31682173D01*
X54230547Y-31681487D01*
X54228347Y-31696179D01*
X54227903Y-31698342D01*
X54225336Y-31717831D01*
X54231535Y-31723284D01*
X54243542Y-31721081D01*
X54263817Y-31721729D01*
X54270450Y-31729335D01*
X54283268Y-31740074D01*
X54299467Y-31743230D01*
X54319851Y-31748620D01*
X54328774Y-31757884D01*
X54341849Y-31769271D01*
X54357776Y-31772538D01*
X54376633Y-31777825D01*
X54381153Y-31787192D01*
X54389891Y-31798826D01*
X54410461Y-31801846D01*
X54431040Y-31804622D01*
X54439767Y-31811310D01*
X54439769Y-31811429D01*
X54448058Y-31820689D01*
X54464192Y-31827142D01*
X54482480Y-31834684D01*
X54488615Y-31841982D01*
X54496991Y-31848502D01*
X54513345Y-31850692D01*
X54534150Y-31855866D01*
X54543698Y-31865346D01*
X54556772Y-31876733D01*
X54572699Y-31880000D01*
X54591556Y-31885286D01*
X54596077Y-31894653D01*
X54604814Y-31906287D01*
X54625384Y-31909307D01*
X54648116Y-31913435D01*
X54654692Y-31923047D01*
X54661876Y-31932652D01*
X54674112Y-31931707D01*
X54693209Y-31933856D01*
X54699580Y-31942391D01*
X54712993Y-31954592D01*
X54729313Y-31958153D01*
X54749697Y-31963543D01*
X54758621Y-31972807D01*
X54771695Y-31984194D01*
X54787622Y-31987461D01*
X54806480Y-31992748D01*
X54811000Y-32002115D01*
X54819737Y-32013749D01*
X54840307Y-32016769D01*
X54860886Y-32019545D01*
X54869613Y-32026233D01*
X54869615Y-32026352D01*
X54877904Y-32035612D01*
X54894038Y-32042065D01*
X54912326Y-32049608D01*
X54918461Y-32056905D01*
X54926837Y-32063425D01*
X54943191Y-32065615D01*
X54963996Y-32070789D01*
X54973544Y-32080269D01*
X54986618Y-32091656D01*
X55002545Y-32094923D01*
X55021403Y-32100209D01*
X55025923Y-32109577D01*
X55034415Y-32121362D01*
X55050346Y-32124230D01*
X55068705Y-32127574D01*
X55074769Y-32134000D01*
X55082203Y-32143485D01*
X55084538Y-32143769D01*
X55087086Y-32134058D01*
X55089262Y-32105154D01*
X55091059Y-32057399D01*
X55092469Y-31991133D01*
X55093485Y-31906699D01*
X55094100Y-31804439D01*
X55094307Y-31684693D01*
X55094307Y-31684615D01*
X55094203Y-31573519D01*
X55093867Y-31480600D01*
X55093263Y-31404497D01*
X55092354Y-31343850D01*
X55091105Y-31297299D01*
X55089479Y-31263482D01*
X55087441Y-31241039D01*
X55084953Y-31228610D01*
X55082096Y-31224836D01*
X55069555Y-31224619D01*
X55040010Y-31224308D01*
X54995994Y-31223924D01*
X54940043Y-31223488D01*
X54874690Y-31223020D01*
X54802468Y-31222540D01*
X54779248Y-31222393D01*
X54692594Y-31222023D01*
X54623790Y-31222156D01*
X54571154Y-31222851D01*
X54533004Y-31224168D01*
X54507657Y-31226169D01*
X54493430Y-31228912D01*
X54488640Y-31232459D01*
X54488614Y-31232788D01*
X54480271Y-31241960D01*
X54464192Y-31245000D01*
X54444549Y-31250095D01*
X54439769Y-31259653D01*
X54434494Y-31272654D01*
X54430000Y-31274307D01*
X54418792Y-31280899D01*
X54398562Y-31298006D01*
X54373339Y-31321623D01*
X54347154Y-31347745D01*
X54324039Y-31372367D01*
X54308023Y-31391485D01*
X54303000Y-31400493D01*
X54310536Y-31412223D01*
X54315211Y-31415057D01*
X54316999Y-31417405D01*
X54305371Y-31415190D01*
X54284307Y-31416505D01*
X54260718Y-31432586D01*
X54254083Y-31438952D01*
X54235887Y-31459448D01*
X54225660Y-31475433D01*
X54224846Y-31478710D01*
X54218073Y-31488798D01*
X54215397Y-31489230D01*
X54205286Y-31495328D01*
X54186091Y-31511452D01*
X54161112Y-31534352D01*
X54133654Y-31560776D01*
X54107019Y-31587472D01*
X54084509Y-31611188D01*
X54069426Y-31628674D01*
X54065075Y-31636677D01*
X53831898Y-31636677D01*
X53792465Y-31594241D01*
X53670298Y-31439601D01*
X53562021Y-31275838D01*
X53464830Y-31099030D01*
X53452450Y-31074038D01*
X53417543Y-30999569D01*
X53384679Y-30923520D01*
X53354809Y-30848628D01*
X53328884Y-30777634D01*
X53307858Y-30713275D01*
X53292680Y-30658292D01*
X53289882Y-30643974D01*
X53317049Y-30643974D01*
X53319537Y-30647832D01*
X53328030Y-30651356D01*
X53335694Y-30662721D01*
X53339619Y-30685765D01*
X53339753Y-30691247D01*
X53342956Y-30717576D01*
X53352072Y-30727221D01*
X53352453Y-30727230D01*
X53361413Y-30736255D01*
X53365053Y-30763611D01*
X53365153Y-30771192D01*
X53367071Y-30800168D01*
X53373592Y-30813366D01*
X53379807Y-30815153D01*
X53389997Y-30821606D01*
X53394195Y-30842996D01*
X53394461Y-30854230D01*
X53396881Y-30881402D01*
X53404902Y-30892598D01*
X53409115Y-30893307D01*
X53420901Y-30901800D01*
X53423769Y-30917730D01*
X53427113Y-30936090D01*
X53433538Y-30942153D01*
X53440848Y-30950523D01*
X53443307Y-30966883D01*
X53448481Y-30987689D01*
X53457961Y-30997236D01*
X53469348Y-31010311D01*
X53472615Y-31026237D01*
X53477902Y-31045095D01*
X53487269Y-31049615D01*
X53498903Y-31058353D01*
X53501923Y-31078923D01*
X53506292Y-31102190D01*
X53516577Y-31108230D01*
X53528362Y-31116723D01*
X53531230Y-31132653D01*
X53534574Y-31151013D01*
X53541000Y-31157077D01*
X53548310Y-31165446D01*
X53550769Y-31181806D01*
X53555943Y-31202612D01*
X53565423Y-31212159D01*
X53576810Y-31225234D01*
X53580077Y-31241160D01*
X53585363Y-31260018D01*
X53594730Y-31264538D01*
X53607694Y-31271821D01*
X53609384Y-31278147D01*
X53617308Y-31292982D01*
X53625146Y-31297804D01*
X53636533Y-31310973D01*
X53635830Y-31323272D01*
X53636668Y-31339504D01*
X53644491Y-31342692D01*
X53656644Y-31350532D01*
X53658230Y-31357346D01*
X53666050Y-31370297D01*
X53672884Y-31372000D01*
X53684518Y-31380737D01*
X53687538Y-31401307D01*
X53690748Y-31421879D01*
X53698484Y-31430612D01*
X53698629Y-31430615D01*
X53712308Y-31437214D01*
X53730695Y-31453278D01*
X53732355Y-31455038D01*
X53753636Y-31471951D01*
X53774153Y-31479441D01*
X53774995Y-31479461D01*
X53791272Y-31485461D01*
X53795000Y-31494115D01*
X53803492Y-31505901D01*
X53819423Y-31508769D01*
X53837782Y-31512113D01*
X53843846Y-31518538D01*
X53852215Y-31525848D01*
X53868575Y-31528307D01*
X53889381Y-31533481D01*
X53898928Y-31542961D01*
X53912003Y-31554348D01*
X53927929Y-31557615D01*
X53946787Y-31562902D01*
X53951307Y-31572269D01*
X53960045Y-31583903D01*
X53980615Y-31586923D01*
X54003883Y-31591292D01*
X54009923Y-31601577D01*
X54014827Y-31614583D01*
X54018994Y-31616230D01*
X54032629Y-31610005D01*
X54042719Y-31601577D01*
X54056772Y-31589721D01*
X54062680Y-31586923D01*
X54071266Y-31580401D01*
X54090540Y-31562700D01*
X54117537Y-31536618D01*
X54145512Y-31508769D01*
X54177436Y-31477491D01*
X54204985Y-31452173D01*
X54224966Y-31435643D01*
X54233711Y-31430615D01*
X54243175Y-31422717D01*
X54244384Y-31415961D01*
X54249659Y-31402961D01*
X54254153Y-31401307D01*
X54262820Y-31393395D01*
X54263923Y-31386653D01*
X54268981Y-31373650D01*
X54273283Y-31372000D01*
X54283780Y-31365635D01*
X54303913Y-31348619D01*
X54330548Y-31324070D01*
X54360553Y-31295105D01*
X54390792Y-31264841D01*
X54418133Y-31236396D01*
X54439442Y-31212888D01*
X54451585Y-31197433D01*
X54453052Y-31193155D01*
X54451633Y-31182326D01*
X54450558Y-31155173D01*
X54449818Y-31114906D01*
X54449398Y-31064735D01*
X54449289Y-31007873D01*
X54449477Y-30947529D01*
X54449950Y-30886914D01*
X54450698Y-30829240D01*
X54451707Y-30777716D01*
X54452966Y-30735553D01*
X54454462Y-30705963D01*
X54454886Y-30700755D01*
X54456555Y-30685903D01*
X54457647Y-30673253D01*
X54456730Y-30662631D01*
X54452374Y-30653861D01*
X54443149Y-30646770D01*
X54427623Y-30641184D01*
X54404366Y-30636928D01*
X54371948Y-30633827D01*
X54328937Y-30631709D01*
X54273903Y-30630397D01*
X54205415Y-30629719D01*
X54122043Y-30629499D01*
X54022355Y-30629564D01*
X53904922Y-30629739D01*
X53872259Y-30629780D01*
X53746529Y-30630036D01*
X53639277Y-30630525D01*
X53549447Y-30631288D01*
X53475980Y-30632367D01*
X53417817Y-30633805D01*
X53373901Y-30635642D01*
X53343173Y-30637921D01*
X53324575Y-30640685D01*
X53317049Y-30643974D01*
X53289882Y-30643974D01*
X53284303Y-30615422D01*
X53283574Y-30588019D01*
X53290226Y-30562924D01*
X53298031Y-30552176D01*
X53304337Y-30557193D01*
X53306538Y-30575731D01*
X53306538Y-30600078D01*
X53895134Y-30602596D01*
X54483730Y-30605115D01*
X54486322Y-30885980D01*
X54487164Y-30957789D01*
X54488269Y-31022817D01*
X54489570Y-31078625D01*
X54490996Y-31122773D01*
X54492479Y-31152822D01*
X54493949Y-31166334D01*
X54494278Y-31166846D01*
X54503865Y-31160177D01*
X54523028Y-31142579D01*
X54548293Y-31117663D01*
X54576188Y-31089041D01*
X54603239Y-31060324D01*
X54625972Y-31035124D01*
X54640912Y-31017053D01*
X54644923Y-31010218D01*
X54652477Y-31001176D01*
X54655563Y-31000769D01*
X54667719Y-30994060D01*
X54687704Y-30977099D01*
X54710830Y-30954637D01*
X54732408Y-30931422D01*
X54747748Y-30912203D01*
X54752384Y-30902702D01*
X54759887Y-30893644D01*
X54762591Y-30893307D01*
X54772215Y-30886651D01*
X54793303Y-30868047D01*
X54823688Y-30839541D01*
X54861201Y-30803183D01*
X54903674Y-30761018D01*
X54917824Y-30746769D01*
X54975926Y-30689110D01*
X55022051Y-30645636D01*
X55055989Y-30616532D01*
X55077526Y-30601987D01*
X55083463Y-30600230D01*
X55099479Y-30595004D01*
X55104075Y-30576336D01*
X55104077Y-30575807D01*
X55108111Y-30557216D01*
X55123999Y-30551487D01*
X55128500Y-30551384D01*
X55148142Y-30546289D01*
X55152923Y-30536730D01*
X55160743Y-30523779D01*
X55167577Y-30522077D01*
X55180528Y-30514257D01*
X55182230Y-30507423D01*
X55189200Y-30494452D01*
X55195233Y-30492769D01*
X55208907Y-30484974D01*
X55221307Y-30468346D01*
X55235009Y-30450498D01*
X55247381Y-30443923D01*
X55258890Y-30436068D01*
X55260384Y-30429269D01*
X55268204Y-30416317D01*
X55275038Y-30414615D01*
X55287990Y-30406795D01*
X55289692Y-30399961D01*
X55295336Y-30386966D01*
X55300159Y-30385307D01*
X55316732Y-30377907D01*
X55332471Y-30361666D01*
X55338538Y-30346928D01*
X55346440Y-30337646D01*
X55353192Y-30336461D01*
X55366144Y-30328641D01*
X55367846Y-30321807D01*
X55375666Y-30308856D01*
X55382500Y-30307153D01*
X55395451Y-30299333D01*
X55397153Y-30292500D01*
X55402797Y-30279505D01*
X55407620Y-30277846D01*
X55424193Y-30270446D01*
X55439933Y-30254204D01*
X55446000Y-30239467D01*
X55453901Y-30230185D01*
X55460653Y-30229000D01*
X55473605Y-30221180D01*
X55475307Y-30214346D01*
X55483127Y-30201394D01*
X55489961Y-30199692D01*
X55502913Y-30191872D01*
X55504615Y-30185038D01*
X55510259Y-30172043D01*
X55515082Y-30170384D01*
X55531655Y-30162984D01*
X55547394Y-30146743D01*
X55553461Y-30132005D01*
X55561363Y-30122723D01*
X55568115Y-30121538D01*
X55581116Y-30116263D01*
X55582769Y-30111769D01*
X55590203Y-30102283D01*
X55592538Y-30102000D01*
X55600475Y-30110182D01*
X55602307Y-30121538D01*
X55598216Y-30137413D01*
X55592538Y-30141077D01*
X55583871Y-30148989D01*
X55582769Y-30155730D01*
X55574949Y-30168682D01*
X55568115Y-30170384D01*
X55555163Y-30178204D01*
X55553461Y-30185038D01*
X55545641Y-30197990D01*
X55538807Y-30199692D01*
X55525809Y-30205141D01*
X55524153Y-30209790D01*
X55517378Y-30222901D01*
X55500994Y-30242020D01*
X55480915Y-30261292D01*
X55463055Y-30274860D01*
X55455432Y-30277846D01*
X55446222Y-30285243D01*
X55446000Y-30287278D01*
X55439290Y-30300517D01*
X55423064Y-30319823D01*
X55403180Y-30339284D01*
X55385494Y-30352984D01*
X55377944Y-30356000D01*
X55368987Y-30363907D01*
X55367846Y-30370653D01*
X55360026Y-30383605D01*
X55353192Y-30385307D01*
X55340240Y-30393127D01*
X55338538Y-30399961D01*
X55330718Y-30412913D01*
X55323884Y-30414615D01*
X55310889Y-30420259D01*
X55309230Y-30425082D01*
X55301830Y-30441655D01*
X55285589Y-30457394D01*
X55270851Y-30463461D01*
X55261569Y-30471363D01*
X55260384Y-30478115D01*
X55252564Y-30491067D01*
X55245730Y-30492769D01*
X55232724Y-30497645D01*
X55231077Y-30501787D01*
X55224396Y-30514321D01*
X55208210Y-30533235D01*
X55188303Y-30552745D01*
X55170460Y-30567066D01*
X55161940Y-30570923D01*
X55153260Y-30578450D01*
X55152923Y-30581243D01*
X55146214Y-30593195D01*
X55129902Y-30611663D01*
X55109714Y-30631045D01*
X55091373Y-30645738D01*
X55082361Y-30650298D01*
X55067006Y-30652740D01*
X55058717Y-30659643D01*
X55038584Y-30678574D01*
X55008448Y-30707692D01*
X54970153Y-30745157D01*
X54925541Y-30789127D01*
X54876456Y-30837763D01*
X54824740Y-30889222D01*
X54772236Y-30941666D01*
X54720788Y-30993251D01*
X54672238Y-31042139D01*
X54628429Y-31086488D01*
X54591204Y-31124458D01*
X54562406Y-31154207D01*
X54543879Y-31173895D01*
X54537461Y-31181657D01*
X54546832Y-31182841D01*
X54573353Y-31183917D01*
X54614636Y-31184846D01*
X54668293Y-31185589D01*
X54731935Y-31186108D01*
X54803174Y-31186364D01*
X54830449Y-31186384D01*
X55123436Y-31186384D01*
X55125968Y-31682173D01*
X55128500Y-32177961D01*
X55155365Y-32181052D01*
X55174880Y-32186166D01*
X55182230Y-32193264D01*
X55190431Y-32200638D01*
X55202075Y-32202384D01*
X55220861Y-32208750D01*
X55227544Y-32217038D01*
X55240604Y-32228370D01*
X55256851Y-32231692D01*
X55277236Y-32237082D01*
X55286159Y-32246346D01*
X55299285Y-32257923D01*
X55314115Y-32261000D01*
X55333946Y-32266697D01*
X55342071Y-32275653D01*
X55355082Y-32286806D01*
X55372424Y-32290307D01*
X55390929Y-32293614D01*
X55397153Y-32300077D01*
X55405514Y-32307420D01*
X55421577Y-32309846D01*
X55441219Y-32314941D01*
X55446000Y-32324500D01*
X55454508Y-32336275D01*
X55470729Y-32339153D01*
X55491535Y-32344327D01*
X55501082Y-32353807D01*
X55514208Y-32365385D01*
X55529038Y-32368461D01*
X55548869Y-32374158D01*
X55556994Y-32383115D01*
X55570005Y-32394267D01*
X55587347Y-32397769D01*
X55605852Y-32401075D01*
X55612077Y-32407538D01*
X55620437Y-32414882D01*
X55636500Y-32417307D01*
X55656142Y-32422403D01*
X55660923Y-32431961D01*
X55668743Y-32444913D01*
X55675577Y-32446615D01*
X55688528Y-32438795D01*
X55690230Y-32431961D01*
X55682410Y-32419009D01*
X55675577Y-32417307D01*
X55666361Y-32412078D01*
X55661860Y-32393973D01*
X55660923Y-32368461D01*
X55662484Y-32337768D01*
X55667899Y-32322768D01*
X55675616Y-32319615D01*
X55677828Y-32317998D01*
X55679802Y-32312484D01*
X55681546Y-32302076D01*
X55683072Y-32285780D01*
X55684390Y-32262600D01*
X55685510Y-32231541D01*
X55686442Y-32191607D01*
X55687197Y-32141803D01*
X55687784Y-32081132D01*
X55688215Y-32008601D01*
X55688500Y-31923212D01*
X55688649Y-31823972D01*
X55688671Y-31709883D01*
X55688579Y-31579951D01*
X55688381Y-31433181D01*
X55688088Y-31268577D01*
X55687827Y-31139980D01*
X55685346Y-29960346D01*
X54547230Y-29958796D01*
X54399032Y-29958638D01*
X54255837Y-29958569D01*
X54118911Y-29958586D01*
X53989517Y-29958685D01*
X53868921Y-29958863D01*
X53758385Y-29959115D01*
X53659175Y-29959438D01*
X53572555Y-29959828D01*
X53499789Y-29960281D01*
X53442141Y-29960793D01*
X53400876Y-29961362D01*
X53377258Y-29961982D01*
X53372480Y-29962307D01*
X53347957Y-29967758D01*
X53337582Y-29977668D01*
X53335846Y-29990722D01*
X53339321Y-30007589D01*
X53353609Y-30013633D01*
X53364577Y-30014077D01*
X53389009Y-30017389D01*
X53398968Y-30025213D01*
X53392706Y-30034376D01*
X53378687Y-30039654D01*
X53354066Y-30040534D01*
X53340576Y-30030171D01*
X53321048Y-30017999D01*
X53293250Y-30014077D01*
X53269541Y-30012413D01*
X53259586Y-30004820D01*
X53257692Y-29989653D01*
X53252596Y-29970011D01*
X53243038Y-29965230D01*
X53237034Y-29968013D01*
X53232884Y-29978255D01*
X53230273Y-29998802D01*
X53228883Y-30032496D01*
X53228400Y-30082182D01*
X53228384Y-30097115D01*
X53228693Y-30151151D01*
X53229831Y-30188500D01*
X53232114Y-30212004D01*
X53235858Y-30224507D01*
X53241379Y-30228854D01*
X53243038Y-30229000D01*
X53250187Y-30232426D01*
X53254640Y-30244931D01*
X53256954Y-30269854D01*
X53257684Y-30310533D01*
X53257692Y-30316923D01*
X53256999Y-30360715D01*
X53254621Y-30387973D01*
X53250105Y-30401663D01*
X53244295Y-30404846D01*
X53234717Y-30395304D01*
X53226211Y-30367543D01*
X53218899Y-30322860D01*
X53212901Y-30262551D01*
X53208340Y-30187911D01*
X53205338Y-30100238D01*
X53204015Y-30000828D01*
X53203961Y-29975000D01*
X53204856Y-29872928D01*
X53207461Y-29782279D01*
X53211654Y-29704347D01*
X53217313Y-29640430D01*
X53224317Y-29591824D01*
X53232544Y-29559824D01*
X53241872Y-29545728D01*
X53244295Y-29545153D01*
X53250968Y-29549698D01*
X53255121Y-29565307D01*
X53257207Y-29594947D01*
X53257692Y-29633077D01*
X53257121Y-29675971D01*
X53255037Y-29702689D01*
X53250883Y-29716570D01*
X53244103Y-29720953D01*
X53243038Y-29721000D01*
X53236479Y-29724069D01*
X53232160Y-29735342D01*
X53229659Y-29757916D01*
X53228554Y-29794886D01*
X53228384Y-29828461D01*
X53229047Y-29879534D01*
X53231531Y-29913038D01*
X53236580Y-29930910D01*
X53244936Y-29935090D01*
X53257345Y-29927517D01*
X53263972Y-29921269D01*
X53286682Y-29908845D01*
X53312146Y-29908438D01*
X53331953Y-29919755D01*
X53334672Y-29923711D01*
X53336901Y-29926282D01*
X53341245Y-29928581D01*
X53348736Y-29930626D01*
X53360409Y-29932430D01*
X53377297Y-29934008D01*
X53400434Y-29935375D01*
X53430854Y-29936547D01*
X53469591Y-29937538D01*
X53517678Y-29938364D01*
X53576149Y-29939038D01*
X53646038Y-29939577D01*
X53728378Y-29939996D01*
X53824204Y-29940308D01*
X53934548Y-29940530D01*
X54060446Y-29940675D01*
X54202929Y-29940760D01*
X54363033Y-29940799D01*
X54514792Y-29940807D01*
X55685346Y-29940807D01*
X55687828Y-28775827D01*
X55688182Y-28598537D01*
X55688444Y-28439797D01*
X55688601Y-28298617D01*
X55688645Y-28174006D01*
X55688566Y-28064975D01*
X55688354Y-27970536D01*
X55687998Y-27889698D01*
X55687489Y-27821472D01*
X55686817Y-27764869D01*
X55685972Y-27718899D01*
X55684944Y-27682572D01*
X55683723Y-27654900D01*
X55682299Y-27634893D01*
X55680662Y-27621561D01*
X55678803Y-27613915D01*
X55676711Y-27610965D01*
X55676127Y-27610846D01*
X55666466Y-27617761D01*
X55660754Y-27640176D01*
X55658991Y-27659820D01*
X55655581Y-27687142D01*
X55650068Y-27703720D01*
X55646269Y-27706224D01*
X55639100Y-27695521D01*
X55635839Y-27673308D01*
X55636354Y-27647188D01*
X55640514Y-27624769D01*
X55647874Y-27613763D01*
X55656939Y-27600848D01*
X55660877Y-27574377D01*
X55660923Y-27570724D01*
X55663478Y-27543947D01*
X55671893Y-27533218D01*
X55675577Y-27532692D01*
X55688528Y-27524872D01*
X55690230Y-27518038D01*
X55682410Y-27505086D01*
X55675577Y-27503384D01*
X55662625Y-27511204D01*
X55660923Y-27518038D01*
X55652430Y-27529824D01*
X55636500Y-27532692D01*
X55618140Y-27536036D01*
X55612077Y-27542461D01*
X55603707Y-27549772D01*
X55587347Y-27552230D01*
X55566541Y-27557404D01*
X55556994Y-27566884D01*
X55543868Y-27578462D01*
X55529038Y-27581538D01*
X55509207Y-27587235D01*
X55501082Y-27596192D01*
X55488071Y-27607344D01*
X55470729Y-27610846D01*
X55450857Y-27615888D01*
X55446000Y-27625500D01*
X55437507Y-27637285D01*
X55421577Y-27640153D01*
X55403217Y-27643498D01*
X55397153Y-27649923D01*
X55388784Y-27657233D01*
X55372424Y-27659692D01*
X55351618Y-27664866D01*
X55342071Y-27674346D01*
X55328945Y-27685923D01*
X55314115Y-27689000D01*
X55294284Y-27694697D01*
X55286159Y-27703653D01*
X55273148Y-27714806D01*
X55255806Y-27718307D01*
X55235934Y-27723349D01*
X55231077Y-27732961D01*
X55222584Y-27744747D01*
X55206653Y-27747615D01*
X55188291Y-27750738D01*
X55182230Y-27756735D01*
X55173782Y-27764332D01*
X55155365Y-27768947D01*
X55128500Y-27772038D01*
X55125965Y-28253173D01*
X55123431Y-28734307D01*
X54815792Y-28734307D01*
X54740500Y-28734463D01*
X54671881Y-28734903D01*
X54612264Y-28735590D01*
X54563982Y-28736485D01*
X54529364Y-28737549D01*
X54510742Y-28738744D01*
X54508153Y-28739404D01*
X54514843Y-28748343D01*
X54533718Y-28768927D01*
X54562985Y-28799395D01*
X54600853Y-28837985D01*
X54645528Y-28882936D01*
X54695218Y-28932489D01*
X54748132Y-28984882D01*
X54802477Y-29038353D01*
X54856461Y-29091143D01*
X54908290Y-29141490D01*
X54956174Y-29187633D01*
X54998319Y-29227811D01*
X55032933Y-29260264D01*
X55058225Y-29283230D01*
X55072401Y-29294949D01*
X55074735Y-29296059D01*
X55084650Y-29300283D01*
X55104304Y-29315496D01*
X55130200Y-29338315D01*
X55158842Y-29365355D01*
X55186732Y-29393235D01*
X55210373Y-29418570D01*
X55226268Y-29437978D01*
X55231077Y-29447304D01*
X55238987Y-29456110D01*
X55245730Y-29457230D01*
X55258682Y-29465050D01*
X55260384Y-29471884D01*
X55265834Y-29484882D01*
X55270483Y-29486538D01*
X55283593Y-29493314D01*
X55302712Y-29509698D01*
X55321984Y-29529777D01*
X55335552Y-29547636D01*
X55338538Y-29555259D01*
X55346456Y-29563629D01*
X55353192Y-29564692D01*
X55366144Y-29572512D01*
X55367846Y-29579346D01*
X55373295Y-29592344D01*
X55377944Y-29594000D01*
X55391055Y-29600775D01*
X55410174Y-29617159D01*
X55429446Y-29637238D01*
X55443014Y-29655098D01*
X55446000Y-29662721D01*
X55453397Y-29671931D01*
X55455432Y-29672153D01*
X55468671Y-29678863D01*
X55487977Y-29695089D01*
X55507438Y-29714973D01*
X55521138Y-29732659D01*
X55524153Y-29740209D01*
X55532061Y-29749166D01*
X55538807Y-29750307D01*
X55551759Y-29758127D01*
X55553461Y-29764961D01*
X55560654Y-29777927D01*
X55566895Y-29779615D01*
X55579575Y-29787771D01*
X55593098Y-29807066D01*
X55603352Y-29829739D01*
X55606221Y-29848030D01*
X55605012Y-29851526D01*
X55595844Y-29852475D01*
X55587528Y-29844595D01*
X55572876Y-29831252D01*
X55564596Y-29828461D01*
X55554045Y-29821331D01*
X55553461Y-29817994D01*
X55546061Y-29801421D01*
X55529819Y-29785682D01*
X55515082Y-29779615D01*
X55505800Y-29771713D01*
X55504615Y-29764961D01*
X55496795Y-29752009D01*
X55489961Y-29750307D01*
X55477009Y-29742487D01*
X55475307Y-29735653D01*
X55467487Y-29722702D01*
X55460653Y-29721000D01*
X55447659Y-29715356D01*
X55446000Y-29710533D01*
X55438600Y-29693960D01*
X55422358Y-29678220D01*
X55407620Y-29672153D01*
X55398338Y-29664252D01*
X55397153Y-29657500D01*
X55389333Y-29644548D01*
X55382500Y-29642846D01*
X55369548Y-29635026D01*
X55367846Y-29628192D01*
X55360026Y-29615240D01*
X55353192Y-29613538D01*
X55340197Y-29607894D01*
X55338538Y-29603071D01*
X55331138Y-29586498D01*
X55314896Y-29570759D01*
X55300159Y-29564692D01*
X55290877Y-29556790D01*
X55289692Y-29550038D01*
X55281872Y-29537086D01*
X55275038Y-29535384D01*
X55262086Y-29527564D01*
X55260384Y-29520730D01*
X55253414Y-29507760D01*
X55247381Y-29506076D01*
X55233707Y-29498282D01*
X55221307Y-29481653D01*
X55207606Y-29463806D01*
X55195233Y-29457230D01*
X55183724Y-29449375D01*
X55182230Y-29442577D01*
X55174410Y-29429625D01*
X55167577Y-29427923D01*
X55154625Y-29420103D01*
X55152923Y-29413269D01*
X55144430Y-29401483D01*
X55128500Y-29398615D01*
X55109909Y-29394580D01*
X55104180Y-29378693D01*
X55104077Y-29374192D01*
X55100922Y-29356737D01*
X55087514Y-29350352D01*
X55074769Y-29349769D01*
X55054195Y-29346688D01*
X55045464Y-29339265D01*
X55045461Y-29339128D01*
X55038752Y-29326973D01*
X55021792Y-29306987D01*
X54999329Y-29283861D01*
X54976114Y-29262284D01*
X54956896Y-29246943D01*
X54947394Y-29242307D01*
X54938404Y-29234751D01*
X54938000Y-29231667D01*
X54931291Y-29219511D01*
X54914330Y-29199526D01*
X54891868Y-29176400D01*
X54868652Y-29154822D01*
X54849434Y-29139482D01*
X54839932Y-29134846D01*
X54830924Y-29127304D01*
X54830538Y-29124325D01*
X54823712Y-29110463D01*
X54807243Y-29090925D01*
X54787145Y-29071724D01*
X54769430Y-29058874D01*
X54762905Y-29056692D01*
X54752817Y-29049876D01*
X54752384Y-29047180D01*
X54745740Y-29035288D01*
X54728933Y-29015383D01*
X54706646Y-28992151D01*
X54683566Y-28970276D01*
X54664378Y-28954444D01*
X54654435Y-28949230D01*
X54645994Y-28941314D01*
X54644923Y-28934577D01*
X54637103Y-28921625D01*
X54630269Y-28919923D01*
X54617271Y-28914473D01*
X54615615Y-28909824D01*
X54608839Y-28896714D01*
X54592455Y-28877594D01*
X54572376Y-28858322D01*
X54554517Y-28844755D01*
X54546894Y-28841769D01*
X54537733Y-28834324D01*
X54537461Y-28832000D01*
X54531300Y-28819407D01*
X54517281Y-28802147D01*
X54502104Y-28787687D01*
X54493643Y-28783153D01*
X54492378Y-28792526D01*
X54491070Y-28819059D01*
X54489780Y-28860374D01*
X54488565Y-28914094D01*
X54487484Y-28977840D01*
X54486597Y-29049234D01*
X54486316Y-29078673D01*
X54483730Y-29374192D01*
X53897698Y-29376271D01*
X53757032Y-29376931D01*
X53635771Y-29377846D01*
X53533784Y-29379018D01*
X53450939Y-29380451D01*
X53387104Y-29382148D01*
X53342147Y-29384109D01*
X53315937Y-29386340D01*
X53308287Y-29388482D01*
X53298968Y-29398290D01*
X53289194Y-29393182D01*
X53287000Y-29383961D01*
X53282055Y-29370956D01*
X53277853Y-29369307D01*
X53274151Y-29360763D01*
X53276295Y-29344884D01*
X53316303Y-29344884D01*
X53879752Y-29342354D01*
X53982815Y-29341817D01*
X54079941Y-29341168D01*
X54169390Y-29340429D01*
X54249422Y-29339620D01*
X54318297Y-29338762D01*
X54374274Y-29337878D01*
X54415614Y-29336987D01*
X54440576Y-29336112D01*
X54447601Y-29335424D01*
X54449448Y-29324117D01*
X54450760Y-29296385D01*
X54451574Y-29255131D01*
X54451929Y-29203259D01*
X54451862Y-29143673D01*
X54451411Y-29079275D01*
X54450613Y-29012970D01*
X54449506Y-28947660D01*
X54448128Y-28886249D01*
X54446516Y-28831641D01*
X54444708Y-28786738D01*
X54442742Y-28754445D01*
X54440655Y-28737664D01*
X54439824Y-28735954D01*
X54430849Y-28724737D01*
X54430000Y-28718839D01*
X54423971Y-28706378D01*
X54419354Y-28705000D01*
X54409046Y-28698399D01*
X54387821Y-28680234D01*
X54358370Y-28652956D01*
X54323387Y-28619018D01*
X54306752Y-28602423D01*
X54270267Y-28566332D01*
X54238238Y-28535801D01*
X54213324Y-28513278D01*
X54198187Y-28501212D01*
X54195282Y-28499846D01*
X54186005Y-28492528D01*
X54185769Y-28490451D01*
X54179145Y-28478140D01*
X54162400Y-28457897D01*
X54140223Y-28434473D01*
X54117303Y-28412618D01*
X54098329Y-28397080D01*
X54088948Y-28392384D01*
X54079513Y-28384486D01*
X54078307Y-28377730D01*
X54070487Y-28364779D01*
X54063653Y-28363077D01*
X54050702Y-28355257D01*
X54049000Y-28348423D01*
X54040855Y-28336489D01*
X54029461Y-28333769D01*
X54013549Y-28339877D01*
X54009923Y-28348423D01*
X54001185Y-28360056D01*
X53980615Y-28363077D01*
X53957347Y-28367445D01*
X53951307Y-28377730D01*
X53942873Y-28389551D01*
X53927929Y-28392384D01*
X53907670Y-28397841D01*
X53898928Y-28407038D01*
X53885917Y-28418190D01*
X53868575Y-28421692D01*
X53850064Y-28424642D01*
X53843846Y-28430402D01*
X53835566Y-28439002D01*
X53819423Y-28445242D01*
X53801126Y-28453087D01*
X53795000Y-28460955D01*
X53786830Y-28468785D01*
X53775787Y-28470538D01*
X53755999Y-28477951D01*
X53731699Y-28496441D01*
X53708513Y-28520379D01*
X53692068Y-28544142D01*
X53687538Y-28558787D01*
X53681352Y-28574443D01*
X53672884Y-28578000D01*
X53659932Y-28585820D01*
X53658230Y-28592653D01*
X53653054Y-28605656D01*
X53648647Y-28607307D01*
X53639387Y-28615596D01*
X53632934Y-28631730D01*
X53625392Y-28650018D01*
X53618094Y-28656153D01*
X53610362Y-28664082D01*
X53609384Y-28670807D01*
X53601564Y-28683759D01*
X53594730Y-28685461D01*
X53582910Y-28693895D01*
X53580077Y-28708839D01*
X53574620Y-28729099D01*
X53565423Y-28737840D01*
X53554271Y-28750851D01*
X53550769Y-28768193D01*
X53547462Y-28786699D01*
X53541000Y-28792923D01*
X53533656Y-28801283D01*
X53531230Y-28817346D01*
X53526135Y-28836989D01*
X53516577Y-28841769D01*
X53504943Y-28850507D01*
X53501923Y-28871077D01*
X53497554Y-28894344D01*
X53487269Y-28900384D01*
X53475448Y-28908818D01*
X53472615Y-28923762D01*
X53467449Y-28943899D01*
X53458719Y-28952472D01*
X53449169Y-28965258D01*
X53450059Y-28977822D01*
X53448252Y-28997310D01*
X53439531Y-29003888D01*
X53427272Y-29017317D01*
X53423769Y-29033314D01*
X53418482Y-29052172D01*
X53409115Y-29056692D01*
X53398779Y-29063352D01*
X53394655Y-29085256D01*
X53394461Y-29094573D01*
X53390687Y-29123734D01*
X53381095Y-29143419D01*
X53379807Y-29144615D01*
X53369662Y-29162278D01*
X53365166Y-29188391D01*
X53365153Y-29189773D01*
X53361531Y-29214739D01*
X53351860Y-29222769D01*
X53342692Y-29230226D01*
X53341068Y-29253859D01*
X53341328Y-29257561D01*
X53339493Y-29286316D01*
X53330198Y-29297683D01*
X53318975Y-29310624D01*
X53316305Y-29323949D01*
X53316303Y-29344884D01*
X53276295Y-29344884D01*
X53277391Y-29336769D01*
X53286699Y-29299779D01*
X53301198Y-29252251D01*
X53320014Y-29196641D01*
X53342273Y-29135404D01*
X53367098Y-29070997D01*
X53393617Y-29005875D01*
X53420953Y-28942495D01*
X53448231Y-28883313D01*
X53458439Y-28862356D01*
X53558610Y-28679209D01*
X53672006Y-28508176D01*
X53800668Y-28346425D01*
X53824021Y-28321384D01*
X54073506Y-28321384D01*
X54081770Y-28333761D01*
X54101108Y-28355059D01*
X54132982Y-28387500D01*
X54163883Y-28417659D01*
X54190206Y-28441790D01*
X54208679Y-28456986D01*
X54215430Y-28460769D01*
X54224586Y-28468204D01*
X54224846Y-28470465D01*
X54231396Y-28481195D01*
X54248938Y-28501793D01*
X54274309Y-28528659D01*
X54288346Y-28542730D01*
X54316375Y-28571462D01*
X54338081Y-28595831D01*
X54350290Y-28612172D01*
X54351846Y-28616072D01*
X54359742Y-28625624D01*
X54366500Y-28626846D01*
X54379500Y-28632121D01*
X54381153Y-28636615D01*
X54389066Y-28645282D01*
X54395807Y-28646384D01*
X54408759Y-28654204D01*
X54410461Y-28661038D01*
X54418281Y-28673990D01*
X54425115Y-28675692D01*
X54438074Y-28683180D01*
X54439769Y-28689699D01*
X54449069Y-28693978D01*
X54475115Y-28697633D01*
X54515123Y-28700657D01*
X54566309Y-28703043D01*
X54625891Y-28704785D01*
X54691085Y-28705874D01*
X54759107Y-28706306D01*
X54827174Y-28706072D01*
X54892504Y-28705166D01*
X54952311Y-28703581D01*
X55003814Y-28701310D01*
X55044229Y-28698347D01*
X55070772Y-28694684D01*
X55080122Y-28691273D01*
X55083568Y-28685336D01*
X55086425Y-28673945D01*
X55088745Y-28655454D01*
X55090579Y-28628219D01*
X55091979Y-28590594D01*
X55092998Y-28540934D01*
X55093687Y-28477594D01*
X55094098Y-28398928D01*
X55094283Y-28303292D01*
X55094307Y-28241659D01*
X55094090Y-28125494D01*
X55093442Y-28026715D01*
X55092372Y-27945692D01*
X55090889Y-27882793D01*
X55089001Y-27838387D01*
X55086716Y-27812843D01*
X55084538Y-27806230D01*
X55075053Y-27813664D01*
X55074769Y-27816000D01*
X55066408Y-27823343D01*
X55050346Y-27825769D01*
X55030703Y-27830864D01*
X55025923Y-27840423D01*
X55017414Y-27852198D01*
X55001193Y-27855076D01*
X54980387Y-27860251D01*
X54970840Y-27869730D01*
X54957715Y-27881308D01*
X54942884Y-27884384D01*
X54923053Y-27890081D01*
X54914928Y-27899038D01*
X54901868Y-27910370D01*
X54885621Y-27913692D01*
X54865358Y-27918794D01*
X54856604Y-27927587D01*
X54843808Y-27937136D01*
X54831136Y-27936217D01*
X54814795Y-27936493D01*
X54811000Y-27946745D01*
X54802738Y-27959711D01*
X54787622Y-27962538D01*
X54767362Y-27967995D01*
X54758621Y-27977192D01*
X54745571Y-27988484D01*
X54729082Y-27991846D01*
X54709583Y-27994479D01*
X54701910Y-27999173D01*
X54690033Y-28010002D01*
X54667120Y-28022913D01*
X54640815Y-28034260D01*
X54618764Y-28040398D01*
X54614823Y-28040692D01*
X54599425Y-28047013D01*
X54596077Y-28055346D01*
X54587643Y-28067166D01*
X54572699Y-28070000D01*
X54552439Y-28075456D01*
X54543698Y-28084653D01*
X54530637Y-28095986D01*
X54514390Y-28099307D01*
X54493827Y-28105118D01*
X54484657Y-28115069D01*
X54471487Y-28126457D01*
X54459189Y-28125753D01*
X54442957Y-28126591D01*
X54439769Y-28134414D01*
X54430963Y-28145071D01*
X54410461Y-28148153D01*
X54387194Y-28152522D01*
X54381153Y-28162807D01*
X54372720Y-28174628D01*
X54357776Y-28177461D01*
X54337516Y-28182918D01*
X54328774Y-28192115D01*
X54315725Y-28203407D01*
X54299236Y-28206769D01*
X54279692Y-28210433D01*
X54271919Y-28216972D01*
X54260642Y-28225712D01*
X54246682Y-28228820D01*
X54229578Y-28234889D01*
X54224846Y-28243040D01*
X54216156Y-28252356D01*
X54195538Y-28255615D01*
X54172270Y-28259984D01*
X54166230Y-28270269D01*
X54157796Y-28282089D01*
X54142852Y-28284923D01*
X54122593Y-28290379D01*
X54113851Y-28299577D01*
X54100813Y-28310830D01*
X54084089Y-28314230D01*
X54074788Y-28315637D01*
X54073506Y-28321384D01*
X53824021Y-28321384D01*
X53931324Y-28206324D01*
X54072775Y-28074884D01*
X54361615Y-28074884D01*
X54366500Y-28079769D01*
X54371384Y-28074884D01*
X54366500Y-28070000D01*
X54361615Y-28074884D01*
X54072775Y-28074884D01*
X54080759Y-28067465D01*
X54235398Y-27945298D01*
X54399161Y-27837021D01*
X54575969Y-27739830D01*
X54600961Y-27727450D01*
X54663733Y-27698032D01*
X54730408Y-27669070D01*
X54798640Y-27641356D01*
X54866083Y-27615682D01*
X54930392Y-27592837D01*
X54989221Y-27573614D01*
X55040225Y-27558804D01*
X55081058Y-27549198D01*
X55109374Y-27545587D01*
X55122828Y-27548763D01*
X55123615Y-27551143D01*
X55130279Y-27560750D01*
X55144381Y-27560484D01*
X55157092Y-27551289D01*
X55159159Y-27547346D01*
X55168324Y-27538702D01*
X55189803Y-27534071D01*
X55227124Y-27532692D01*
X55227237Y-27532692D01*
X55263318Y-27531516D01*
X55283084Y-27527539D01*
X55289643Y-27520085D01*
X55289692Y-27519125D01*
X55299050Y-27508719D01*
X55325551Y-27499577D01*
X55366838Y-27491758D01*
X55420555Y-27485319D01*
X55484342Y-27480319D01*
X55555844Y-27476815D01*
X55632702Y-27474864D01*
X55712559Y-27474526D01*
X55793057Y-27475856D01*
G37*
D11*
X52500000Y-79340000D02*
X50500000Y-79340000D01*
X52500000Y-79340000D02*
X52500000Y-83350000D01*
X50500000Y-79340000D02*
X50500000Y-83350000D01*
X69272800Y-30976000D02*
X72727200Y-30976000D01*
X72727200Y-34024000D02*
X69272800Y-34024000D01*
X75381000Y-33249300D02*
G75*
G03*
X75381000Y-33249300I-381000J0D01*
G01*
X165772800Y-30976000D02*
X169227200Y-30976000D01*
X169227200Y-34024000D02*
X165772800Y-34024000D01*
X171881000Y-33249300D02*
G75*
G03*
X171881000Y-33249300I-381000J0D01*
G01*
X127172800Y-30976000D02*
X130627200Y-30976000D01*
X130627200Y-34024000D02*
X127172800Y-34024000D01*
X133281000Y-33249300D02*
G75*
G03*
X133281000Y-33249300I-381000J0D01*
G01*
X107872800Y-30976000D02*
X111327200Y-30976000D01*
X111327200Y-34024000D02*
X107872800Y-34024000D01*
X113981000Y-33249300D02*
G75*
G03*
X113981000Y-33249300I-381000J0D01*
G01*
X146472800Y-30976000D02*
X149927200Y-30976000D01*
X149927200Y-34024000D02*
X146472800Y-34024000D01*
X152581000Y-33249300D02*
G75*
G03*
X152581000Y-33249300I-381000J0D01*
G01*
X88572800Y-30976000D02*
X92027200Y-30976000D01*
X92027200Y-34024000D02*
X88572800Y-34024000D01*
X94681000Y-33249300D02*
G75*
G03*
X94681000Y-33249300I-381000J0D01*
G01*
D15*
X33670000Y-70775000D03*
X40670000Y-70775000D03*
X33670000Y-69025000D03*
X40670000Y-69025000D03*
D16*
X42470000Y-66925000D03*
X38470000Y-66925000D03*
X35470000Y-66925000D03*
X43470000Y-71125000D03*
%LPC*%
D13*
X42237000Y-22286000D02*
G75*
G03*
X42237000Y-22286000I-125000J0D01*
G01*
X40713000Y-22286000D02*
G75*
G03*
X40713000Y-22286000I-125000J0D01*
G01*
X42237000Y-24826000D02*
G75*
G03*
X42237000Y-24826000I-125000J0D01*
G01*
X40713000Y-24826000D02*
G75*
G03*
X40713000Y-24826000I-125000J0D01*
G01*
X42237000Y-27366000D02*
G75*
G03*
X42237000Y-27366000I-125000J0D01*
G01*
X40713000Y-27366000D02*
G75*
G03*
X40713000Y-27366000I-125000J0D01*
G01*
X42237000Y-29906000D02*
G75*
G03*
X42237000Y-29906000I-125000J0D01*
G01*
X40713000Y-29906000D02*
G75*
G03*
X40713000Y-29906000I-125000J0D01*
G01*
X42237000Y-32446000D02*
G75*
G03*
X42237000Y-32446000I-125000J0D01*
G01*
X40713000Y-32446000D02*
G75*
G03*
X40713000Y-32446000I-125000J0D01*
G01*
X42237000Y-34986000D02*
G75*
G03*
X42237000Y-34986000I-125000J0D01*
G01*
X40713000Y-34986000D02*
G75*
G03*
X40713000Y-34986000I-125000J0D01*
G01*
X42237000Y-37526000D02*
G75*
G03*
X42237000Y-37526000I-125000J0D01*
G01*
X40713000Y-37526000D02*
G75*
G03*
X40713000Y-37526000I-125000J0D01*
G01*
X42237000Y-40066000D02*
G75*
G03*
X42237000Y-40066000I-125000J0D01*
G01*
X40713000Y-40066000D02*
G75*
G03*
X40713000Y-40066000I-125000J0D01*
G01*
X42237000Y-42606000D02*
G75*
G03*
X42237000Y-42606000I-125000J0D01*
G01*
X40713000Y-42606000D02*
G75*
G03*
X40713000Y-42606000I-125000J0D01*
G01*
X42237000Y-45146000D02*
G75*
G03*
X42237000Y-45146000I-125000J0D01*
G01*
X40713000Y-45146000D02*
G75*
G03*
X40713000Y-45146000I-125000J0D01*
G01*
X42237000Y-47686000D02*
G75*
G03*
X42237000Y-47686000I-125000J0D01*
G01*
X40713000Y-47686000D02*
G75*
G03*
X40713000Y-47686000I-125000J0D01*
G01*
X42237000Y-50226000D02*
G75*
G03*
X42237000Y-50226000I-125000J0D01*
G01*
X40713000Y-50226000D02*
G75*
G03*
X40713000Y-50226000I-125000J0D01*
G01*
D17*
X36270000Y-22794000D02*
X35254000Y-22794000D01*
X35254000Y-21778000D01*
X36270000Y-21778000D01*
X36270000Y-22794000D01*
G36*
X36270000Y-22794000D02*
G01*
X35254000Y-22794000D01*
X35254000Y-21778000D01*
X36270000Y-21778000D01*
X36270000Y-22794000D01*
G37*
X47446000Y-22794000D02*
X46430000Y-22794000D01*
X46430000Y-21778000D01*
X47446000Y-21778000D01*
X47446000Y-22794000D01*
G36*
X47446000Y-22794000D02*
G01*
X46430000Y-22794000D01*
X46430000Y-21778000D01*
X47446000Y-21778000D01*
X47446000Y-22794000D01*
G37*
X36270000Y-25334000D02*
X35254000Y-25334000D01*
X35254000Y-24318000D01*
X36270000Y-24318000D01*
X36270000Y-25334000D01*
G36*
X36270000Y-25334000D02*
G01*
X35254000Y-25334000D01*
X35254000Y-24318000D01*
X36270000Y-24318000D01*
X36270000Y-25334000D01*
G37*
X47446000Y-25334000D02*
X46430000Y-25334000D01*
X46430000Y-24318000D01*
X47446000Y-24318000D01*
X47446000Y-25334000D01*
G36*
X47446000Y-25334000D02*
G01*
X46430000Y-25334000D01*
X46430000Y-24318000D01*
X47446000Y-24318000D01*
X47446000Y-25334000D01*
G37*
X36270000Y-27874000D02*
X35254000Y-27874000D01*
X35254000Y-26858000D01*
X36270000Y-26858000D01*
X36270000Y-27874000D01*
G36*
X36270000Y-27874000D02*
G01*
X35254000Y-27874000D01*
X35254000Y-26858000D01*
X36270000Y-26858000D01*
X36270000Y-27874000D01*
G37*
X47446000Y-27874000D02*
X46430000Y-27874000D01*
X46430000Y-26858000D01*
X47446000Y-26858000D01*
X47446000Y-27874000D01*
G36*
X47446000Y-27874000D02*
G01*
X46430000Y-27874000D01*
X46430000Y-26858000D01*
X47446000Y-26858000D01*
X47446000Y-27874000D01*
G37*
X36270000Y-30414000D02*
X35254000Y-30414000D01*
X35254000Y-29398000D01*
X36270000Y-29398000D01*
X36270000Y-30414000D01*
G36*
X36270000Y-30414000D02*
G01*
X35254000Y-30414000D01*
X35254000Y-29398000D01*
X36270000Y-29398000D01*
X36270000Y-30414000D01*
G37*
X47446000Y-30414000D02*
X46430000Y-30414000D01*
X46430000Y-29398000D01*
X47446000Y-29398000D01*
X47446000Y-30414000D01*
G36*
X47446000Y-30414000D02*
G01*
X46430000Y-30414000D01*
X46430000Y-29398000D01*
X47446000Y-29398000D01*
X47446000Y-30414000D01*
G37*
X36270000Y-32954000D02*
X35254000Y-32954000D01*
X35254000Y-31938000D01*
X36270000Y-31938000D01*
X36270000Y-32954000D01*
G36*
X36270000Y-32954000D02*
G01*
X35254000Y-32954000D01*
X35254000Y-31938000D01*
X36270000Y-31938000D01*
X36270000Y-32954000D01*
G37*
X47446000Y-32954000D02*
X46430000Y-32954000D01*
X46430000Y-31938000D01*
X47446000Y-31938000D01*
X47446000Y-32954000D01*
G36*
X47446000Y-32954000D02*
G01*
X46430000Y-32954000D01*
X46430000Y-31938000D01*
X47446000Y-31938000D01*
X47446000Y-32954000D01*
G37*
X36270000Y-35494000D02*
X35254000Y-35494000D01*
X35254000Y-34478000D01*
X36270000Y-34478000D01*
X36270000Y-35494000D01*
G36*
X36270000Y-35494000D02*
G01*
X35254000Y-35494000D01*
X35254000Y-34478000D01*
X36270000Y-34478000D01*
X36270000Y-35494000D01*
G37*
X47446000Y-35494000D02*
X46430000Y-35494000D01*
X46430000Y-34478000D01*
X47446000Y-34478000D01*
X47446000Y-35494000D01*
G36*
X47446000Y-35494000D02*
G01*
X46430000Y-35494000D01*
X46430000Y-34478000D01*
X47446000Y-34478000D01*
X47446000Y-35494000D01*
G37*
X36270000Y-38034000D02*
X35254000Y-38034000D01*
X35254000Y-37018000D01*
X36270000Y-37018000D01*
X36270000Y-38034000D01*
G36*
X36270000Y-38034000D02*
G01*
X35254000Y-38034000D01*
X35254000Y-37018000D01*
X36270000Y-37018000D01*
X36270000Y-38034000D01*
G37*
X47446000Y-38034000D02*
X46430000Y-38034000D01*
X46430000Y-37018000D01*
X47446000Y-37018000D01*
X47446000Y-38034000D01*
G36*
X47446000Y-38034000D02*
G01*
X46430000Y-38034000D01*
X46430000Y-37018000D01*
X47446000Y-37018000D01*
X47446000Y-38034000D01*
G37*
X36270000Y-40574000D02*
X35254000Y-40574000D01*
X35254000Y-39558000D01*
X36270000Y-39558000D01*
X36270000Y-40574000D01*
G36*
X36270000Y-40574000D02*
G01*
X35254000Y-40574000D01*
X35254000Y-39558000D01*
X36270000Y-39558000D01*
X36270000Y-40574000D01*
G37*
X47446000Y-40574000D02*
X46430000Y-40574000D01*
X46430000Y-39558000D01*
X47446000Y-39558000D01*
X47446000Y-40574000D01*
G36*
X47446000Y-40574000D02*
G01*
X46430000Y-40574000D01*
X46430000Y-39558000D01*
X47446000Y-39558000D01*
X47446000Y-40574000D01*
G37*
X36270000Y-43114000D02*
X35254000Y-43114000D01*
X35254000Y-42098000D01*
X36270000Y-42098000D01*
X36270000Y-43114000D01*
G36*
X36270000Y-43114000D02*
G01*
X35254000Y-43114000D01*
X35254000Y-42098000D01*
X36270000Y-42098000D01*
X36270000Y-43114000D01*
G37*
X47446000Y-43114000D02*
X46430000Y-43114000D01*
X46430000Y-42098000D01*
X47446000Y-42098000D01*
X47446000Y-43114000D01*
G36*
X47446000Y-43114000D02*
G01*
X46430000Y-43114000D01*
X46430000Y-42098000D01*
X47446000Y-42098000D01*
X47446000Y-43114000D01*
G37*
X36270000Y-45654000D02*
X35254000Y-45654000D01*
X35254000Y-44638000D01*
X36270000Y-44638000D01*
X36270000Y-45654000D01*
G36*
X36270000Y-45654000D02*
G01*
X35254000Y-45654000D01*
X35254000Y-44638000D01*
X36270000Y-44638000D01*
X36270000Y-45654000D01*
G37*
X47446000Y-45654000D02*
X46430000Y-45654000D01*
X46430000Y-44638000D01*
X47446000Y-44638000D01*
X47446000Y-45654000D01*
G36*
X47446000Y-45654000D02*
G01*
X46430000Y-45654000D01*
X46430000Y-44638000D01*
X47446000Y-44638000D01*
X47446000Y-45654000D01*
G37*
X36270000Y-48194000D02*
X35254000Y-48194000D01*
X35254000Y-47178000D01*
X36270000Y-47178000D01*
X36270000Y-48194000D01*
G36*
X36270000Y-48194000D02*
G01*
X35254000Y-48194000D01*
X35254000Y-47178000D01*
X36270000Y-47178000D01*
X36270000Y-48194000D01*
G37*
X47446000Y-48194000D02*
X46430000Y-48194000D01*
X46430000Y-47178000D01*
X47446000Y-47178000D01*
X47446000Y-48194000D01*
G36*
X47446000Y-48194000D02*
G01*
X46430000Y-48194000D01*
X46430000Y-47178000D01*
X47446000Y-47178000D01*
X47446000Y-48194000D01*
G37*
X36270000Y-50734000D02*
X35254000Y-50734000D01*
X35254000Y-49718000D01*
X36270000Y-49718000D01*
X36270000Y-50734000D01*
G36*
X36270000Y-50734000D02*
G01*
X35254000Y-50734000D01*
X35254000Y-49718000D01*
X36270000Y-49718000D01*
X36270000Y-50734000D01*
G37*
X47446000Y-50734000D02*
X46430000Y-50734000D01*
X46430000Y-49718000D01*
X47446000Y-49718000D01*
X47446000Y-50734000D01*
G36*
X47446000Y-50734000D02*
G01*
X46430000Y-50734000D01*
X46430000Y-49718000D01*
X47446000Y-49718000D01*
X47446000Y-50734000D01*
G37*
D18*
X51000000Y-64750000D03*
D19*
X33610000Y-78460000D03*
X33610000Y-83460000D03*
X33610000Y-80960000D03*
D20*
X41110000Y-75360000D03*
X41110000Y-86560000D03*
D19*
X48110000Y-83460000D03*
X48110000Y-78460000D03*
D15*
X33670000Y-70775000D03*
X40670000Y-70775000D03*
X33670000Y-69025000D03*
X40670000Y-69025000D03*
D16*
X42470000Y-66925000D03*
X38470000Y-66925000D03*
X35470000Y-66925000D03*
X43470000Y-71125000D03*
D21*
X36284000Y-53766000D03*
D22*
X38824000Y-53766000D03*
X41364000Y-53766000D03*
X43904000Y-53766000D03*
X46444000Y-53766000D03*
D23*
X32200000Y-58632000D03*
X32200000Y-61632000D03*
D24*
X33950000Y-60882000D03*
D25*
X33165000Y-56482000D03*
X31235000Y-56482000D03*
X33165000Y-63782000D03*
X31235000Y-63782000D03*
D24*
X33950000Y-62382000D03*
X33950000Y-57882000D03*
D26*
X38949500Y-60632000D03*
X38949500Y-58632000D03*
D18*
X80800000Y-25000000D03*
D27*
X48970000Y-22286000D03*
D28*
X47192000Y-22286000D03*
D29*
X35508000Y-22286000D03*
D27*
X33730000Y-22286000D03*
D30*
X33730000Y-22286000D03*
D27*
X48970000Y-24826000D03*
D28*
X47192000Y-24826000D03*
D29*
X35508000Y-24826000D03*
D27*
X33730000Y-24826000D03*
X48970000Y-27366000D03*
D28*
X47192000Y-27366000D03*
D29*
X35508000Y-27366000D03*
D27*
X33730000Y-27366000D03*
X48970000Y-29906000D03*
D28*
X47192000Y-29906000D03*
D29*
X35508000Y-29906000D03*
D27*
X33730000Y-29906000D03*
X48970000Y-32446000D03*
D28*
X47192000Y-32446000D03*
D29*
X35508000Y-32446000D03*
D27*
X33730000Y-32446000D03*
X48970000Y-34986000D03*
D28*
X47192000Y-34986000D03*
D29*
X35508000Y-34986000D03*
D27*
X33730000Y-34986000D03*
X48970000Y-37526000D03*
D28*
X47192000Y-37526000D03*
D29*
X35508000Y-37526000D03*
D27*
X33730000Y-37526000D03*
X48970000Y-40066000D03*
D28*
X47192000Y-40066000D03*
D29*
X35508000Y-40066000D03*
D27*
X33730000Y-40066000D03*
X48970000Y-42606000D03*
D28*
X47192000Y-42606000D03*
D29*
X35508000Y-42606000D03*
D27*
X33730000Y-42606000D03*
X48970000Y-45146000D03*
D28*
X47192000Y-45146000D03*
D29*
X35508000Y-45146000D03*
D27*
X33730000Y-45146000D03*
X48970000Y-47686000D03*
D28*
X47192000Y-47686000D03*
D29*
X35508000Y-47686000D03*
D27*
X33730000Y-47686000D03*
X48970000Y-50226000D03*
D28*
X47192000Y-50226000D03*
D29*
X35508000Y-50226000D03*
D27*
X33730000Y-50226000D03*
D31*
X46176000Y-22286000D03*
X46176000Y-24826000D03*
X46176000Y-27366000D03*
X46176000Y-29906000D03*
X46176000Y-32446000D03*
X46176000Y-34986000D03*
X46176000Y-37526000D03*
X46176000Y-40066000D03*
X46176000Y-42606000D03*
X46176000Y-45146000D03*
X46176000Y-47686000D03*
X46176000Y-50226000D03*
D32*
X36524000Y-50226000D03*
X36524000Y-47686000D03*
X36524000Y-45146000D03*
X36524000Y-42606000D03*
X36524000Y-40066000D03*
X36524000Y-37526000D03*
X36524000Y-34986000D03*
X36524000Y-32446000D03*
X36524000Y-29906000D03*
X36524000Y-27366000D03*
X36524000Y-24826000D03*
X36524000Y-22286000D03*
D18*
X158000000Y-25000000D03*
X52500000Y-92500000D03*
X119400000Y-25000000D03*
D33*
X51500000Y-80050000D03*
X51500000Y-83350000D03*
D34*
X73501900Y-33249300D03*
X73501900Y-31750700D03*
X68498100Y-31750700D03*
X68498100Y-33249300D03*
X170001900Y-33249300D03*
X170001900Y-31750700D03*
X164998100Y-31750700D03*
X164998100Y-33249300D03*
X131401900Y-33249300D03*
X131401900Y-31750700D03*
X126398100Y-31750700D03*
X126398100Y-33249300D03*
X112101900Y-33249300D03*
X112101900Y-31750700D03*
X107098100Y-31750700D03*
X107098100Y-33249300D03*
D23*
X55712500Y-24449500D03*
X55712500Y-21649500D03*
D34*
X150701900Y-33249300D03*
X150701900Y-31750700D03*
X145698100Y-31750700D03*
X145698100Y-33249300D03*
X92801900Y-33249300D03*
X92801900Y-31750700D03*
X87798100Y-31750700D03*
X87798100Y-33249300D03*
%LPD*%
M02*
