M48
; DRILL file {KiCad 7.0.5} date Sun Jan 21 02:43:00 2024
; FORMAT={-:-/ absolute / inch / decimal}
; #@! TF.CreationDate,2024-01-21T02:43:00-08:00
; #@! TF.GenerationSoftware,Kicad,Pcbnew,7.0.5
; #@! TF.FileFunction,Plated,1,2,PTH
FMAT,2
INCH
; #@! TA.AperFunction,Plated,PTH,ViaDrill
T1C0.0118
; #@! TA.AperFunction,Plated,PTH,ViaDrill
T2C0.0157
; #@! TA.AperFunction,Plated,PTH,ComponentDrill
T3C0.0157
; #@! TA.AperFunction,Plated,PTH,ComponentDrill
T4C0.0354
; #@! TA.AperFunction,Plated,PTH,ComponentDrill
T5C0.0394
; #@! TA.AperFunction,Plated,PTH,ComponentDrill
T6C0.0433
; #@! TA.AperFunction,Plated,PTH,ComponentDrill
T7C0.0591
%
G90
G05
T1
X1.3839Y-0.929
X1.4232Y-0.9082
X1.4626Y-0.8875
X1.502Y-0.8668
X1.5413Y-0.8461
X1.6594Y-1.0512
X2.1437Y-0.929
X2.1831Y-0.9082
X2.2224Y-0.8875
X2.2618Y-0.8668
X2.3012Y-0.8461
X2.4193Y-1.0748
X2.9035Y-0.929
X2.9429Y-0.9082
X2.9823Y-0.8875
X3.0217Y-0.8668
X3.061Y-0.8461
X3.1791Y-1.0512
X3.6634Y-0.929
X3.7028Y-0.9082
X3.7421Y-0.8875
X3.7815Y-0.8668
X3.8209Y-0.8461
X3.939Y-1.0684
X4.4232Y-0.929
X4.4626Y-0.9082
X4.502Y-0.8875
X4.5413Y-0.8668
X4.5807Y-0.8461
X4.6988Y-1.0512
X5.1831Y-0.929
X5.2224Y-0.9082
X5.2618Y-0.8875
X5.3012Y-0.8668
X5.3406Y-0.8461
X5.4587Y-1.0512
X5.6716Y-1.0509
X5.702Y-1.052
X5.7304Y-1.0511
X5.759Y-1.0521
X5.7874Y-1.0512
X5.9484Y-1.9291
X5.9759Y-1.5689
X5.999Y-1.5626
X6.0014Y-1.5064
X6.0025Y-1.5368
X6.1339Y-1.7283
X6.2224Y-3.0098
X6.3071Y-2.2047
X6.3776Y-3.4206
X6.3786Y-3.0896
X6.4358Y-3.1469
X6.5354Y-3.4803
X6.6131Y-3.4043
X6.7992Y-2.0827
X6.8268Y-2.0895
X6.8483Y-2.1331
X6.8681Y-2.1555
X6.902Y-2.1575
T2
X1.3819Y-1.25
X1.3937Y-1.25
X1.6575Y-1.189
X1.752Y-1.1654
X1.7992Y-1.2087
X1.8583Y-1.3228
X2.1417Y-1.25
X2.4173Y-1.189
X2.5118Y-1.1654
X2.5591Y-1.2087
X2.6181Y-1.3228
X2.9016Y-1.25
X3.1772Y-1.189
X3.2717Y-1.1654
X3.3189Y-1.2087
X3.378Y-1.3228
X3.6614Y-1.25
X3.937Y-1.189
X4.0315Y-1.1654
X4.0787Y-1.2087
X4.1378Y-1.3228
X4.4213Y-1.25
X4.6969Y-1.189
X4.7913Y-1.1654
X4.8386Y-1.2087
X4.8976Y-1.3228
X5.1811Y-1.25
X5.4587Y-1.2008
X5.5984Y-1.2087
X5.626Y-1.3091
X5.7392Y-0.9596
X5.7411Y-0.8974
X5.7598Y-1.4567
X5.9567Y-1.1811
X6.0148Y-1.4779
X6.0626Y-1.4857
X6.4062Y-3.4969
X6.4961Y-3.685
X6.5984Y-3.685
X6.7402Y-2.3465
X6.9252Y-2.3661
T3
X6.4911Y-0.8774
X6.4911Y-0.9774
X6.4911Y-1.0774
X6.4911Y-1.1774
X6.4911Y-1.2774
X6.4911Y-1.3774
X6.4911Y-1.4774
X6.4911Y-1.5774
X6.4911Y-1.6774
X6.4911Y-1.7774
X6.4911Y-1.8774
X6.4911Y-1.9774
X6.5511Y-0.8774
X6.5511Y-0.9774
X6.5511Y-1.0774
X6.5511Y-1.1774
X6.5511Y-1.2774
X6.5511Y-1.3774
X6.5511Y-1.4774
X6.5511Y-1.5774
X6.5511Y-1.6774
X6.5511Y-1.7774
X6.5511Y-1.8774
X6.5511Y-1.9774
T4
X6.6162Y-2.3083
X6.6162Y-2.3871
T5
X6.2555Y-3.089
X6.2555Y-3.2858
X6.3211Y-2.1168
X6.4211Y-2.1168
X6.5211Y-2.1168
X6.6211Y-2.1168
X6.7211Y-2.1168
X6.8264Y-3.089
X6.8264Y-3.1874
X6.8264Y-3.2858
T6
X6.2211Y-0.8774
X6.2211Y-0.8774
X6.2211Y-0.8774
X6.2211Y-0.9774
X6.2211Y-1.0774
X6.2211Y-1.1774
X6.2211Y-1.2774
X6.2211Y-1.3774
X6.2211Y-1.4774
X6.2211Y-1.5774
X6.2211Y-1.6774
X6.2211Y-1.7774
X6.2211Y-1.8774
X6.2211Y-1.9774
X6.8211Y-0.8774
X6.8211Y-0.9774
X6.8211Y-1.0774
X6.8211Y-1.1774
X6.8211Y-1.2774
X6.8211Y-1.3774
X6.8211Y-1.4774
X6.8211Y-1.5774
X6.8211Y-1.6774
X6.8211Y-1.7774
X6.8211Y-1.8774
X6.8211Y-1.9774
T5
G00X6.448Y-2.6348
M15
G01X6.4283Y-2.6348
M16
G05
G00X6.4874Y-2.8002
M15
G01X6.4677Y-2.8002
M16
G05
G00X6.6449Y-2.8002
M15
G01X6.6252Y-2.8002
M16
G05
G00X6.763Y-2.8002
M15
G01X6.7433Y-2.8002
M16
G05
T7
G00X6.5567Y-2.9669
M15
G01X6.5055Y-2.9669
M16
G05
G00X6.5567Y-3.4079
M15
G01X6.5055Y-3.4079
M16
G05
T0
M30
