G04 #@! TF.GenerationSoftware,KiCad,Pcbnew,7.0.5*
G04 #@! TF.CreationDate,2024-01-21T02:42:58-08:00*
G04 #@! TF.ProjectId,Seismos_5CoreLShift,53656973-6d6f-4735-9f35-436f72654c53,rev?*
G04 #@! TF.SameCoordinates,Original*
G04 #@! TF.FileFunction,Paste,Bot*
G04 #@! TF.FilePolarity,Positive*
%FSLAX46Y46*%
G04 Gerber Fmt 4.6, Leading zero omitted, Abs format (unit mm)*
G04 Created by KiCad (PCBNEW 7.0.5) date 2024-01-21 02:42:58*
%MOMM*%
%LPD*%
G01*
G04 APERTURE LIST*
G04 Aperture macros list*
%AMRoundRect*
0 Rectangle with rounded corners*
0 $1 Rounding radius*
0 $2 $3 $4 $5 $6 $7 $8 $9 X,Y pos of 4 corners*
0 Add a 4 corners polygon primitive as box body*
4,1,4,$2,$3,$4,$5,$6,$7,$8,$9,$2,$3,0*
0 Add four circle primitives for the rounded corners*
1,1,$1+$1,$2,$3*
1,1,$1+$1,$4,$5*
1,1,$1+$1,$6,$7*
1,1,$1+$1,$8,$9*
0 Add four rect primitives between the rounded corners*
20,1,$1+$1,$2,$3,$4,$5,0*
20,1,$1+$1,$4,$5,$6,$7,0*
20,1,$1+$1,$6,$7,$8,$9,0*
20,1,$1+$1,$8,$9,$2,$3,0*%
G04 Aperture macros list end*
%ADD10R,0.600000X1.700000*%
%ADD11R,1.200000X1.800000*%
%ADD12RoundRect,0.237500X-0.237500X0.250000X-0.237500X-0.250000X0.237500X-0.250000X0.237500X0.250000X0*%
%ADD13R,1.550000X1.000000*%
G04 APERTURE END LIST*
D10*
X35150000Y-25386000D03*
X36150000Y-25386000D03*
X37150000Y-25385000D03*
X38150000Y-25385000D03*
X39150000Y-25385000D03*
X40150000Y-25385000D03*
X41150000Y-25385000D03*
X42150000Y-25385000D03*
X43150000Y-25385000D03*
X44150000Y-25385000D03*
D11*
X33850000Y-21510000D03*
X45450000Y-21510000D03*
D12*
X166300000Y-62787500D03*
X166300000Y-64612500D03*
D10*
X54450000Y-25386000D03*
X55450000Y-25386000D03*
X56450000Y-25385000D03*
X57450000Y-25385000D03*
X58450000Y-25385000D03*
X59450000Y-25385000D03*
X60450000Y-25385000D03*
X61450000Y-25385000D03*
X62450000Y-25385000D03*
X63450000Y-25385000D03*
D11*
X53150000Y-21510000D03*
X64750000Y-21510000D03*
D13*
X153887500Y-23899500D03*
X153887500Y-22199500D03*
X148687500Y-23899500D03*
X148687500Y-22199500D03*
D10*
X131650000Y-25386000D03*
X132650000Y-25386000D03*
X133650000Y-25385000D03*
X134650000Y-25385000D03*
X135650000Y-25385000D03*
X136650000Y-25385000D03*
X137650000Y-25385000D03*
X138650000Y-25385000D03*
X139650000Y-25385000D03*
X140650000Y-25385000D03*
D11*
X130350000Y-21510000D03*
X141950000Y-21510000D03*
D10*
X170000000Y-91114000D03*
X169000000Y-91114000D03*
X168000000Y-91115000D03*
X167000000Y-91115000D03*
X166000000Y-91115000D03*
X165000000Y-91115000D03*
X164000000Y-91115000D03*
X163000000Y-91115000D03*
X162000000Y-91115000D03*
X161000000Y-91115000D03*
D11*
X171300000Y-94990000D03*
X159700000Y-94990000D03*
D10*
X93050000Y-25386000D03*
X94050000Y-25386000D03*
X95050000Y-25385000D03*
X96050000Y-25385000D03*
X97050000Y-25385000D03*
X98050000Y-25385000D03*
X99050000Y-25385000D03*
X100050000Y-25385000D03*
X101050000Y-25385000D03*
X102050000Y-25385000D03*
D11*
X91750000Y-21510000D03*
X103350000Y-21510000D03*
D10*
X73750000Y-25386000D03*
X74750000Y-25386000D03*
X75750000Y-25385000D03*
X76750000Y-25385000D03*
X77750000Y-25385000D03*
X78750000Y-25385000D03*
X79750000Y-25385000D03*
X80750000Y-25385000D03*
X81750000Y-25385000D03*
X82750000Y-25385000D03*
D11*
X72450000Y-21510000D03*
X84050000Y-21510000D03*
D12*
X164300000Y-62787500D03*
X164300000Y-64612500D03*
D10*
X112350000Y-25386000D03*
X113350000Y-25386000D03*
X114350000Y-25385000D03*
X115350000Y-25385000D03*
X116350000Y-25385000D03*
X117350000Y-25385000D03*
X118350000Y-25385000D03*
X119350000Y-25385000D03*
X120350000Y-25385000D03*
X121350000Y-25385000D03*
D11*
X111050000Y-21510000D03*
X122650000Y-21510000D03*
M02*
