G04 #@! TF.GenerationSoftware,KiCad,Pcbnew,8.0.1-8.0.1-1~ubuntu22.04.1*
G04 #@! TF.CreationDate,2024-05-02T22:11:55-07:00*
G04 #@! TF.ProjectId,Seismos_5CoreLShift,53656973-6d6f-4735-9f35-436f72654c53,rev?*
G04 #@! TF.SameCoordinates,Original*
G04 #@! TF.FileFunction,Soldermask,Top*
G04 #@! TF.FilePolarity,Negative*
%FSLAX46Y46*%
G04 Gerber Fmt 4.6, Leading zero omitted, Abs format (unit mm)*
G04 Created by KiCad (PCBNEW 8.0.1-8.0.1-1~ubuntu22.04.1) date 2024-05-02 22:11:55*
%MOMM*%
%LPD*%
G01*
G04 APERTURE LIST*
G04 Aperture macros list*
%AMRoundRect*
0 Rectangle with rounded corners*
0 $1 Rounding radius*
0 $2 $3 $4 $5 $6 $7 $8 $9 X,Y pos of 4 corners*
0 Add a 4 corners polygon primitive as box body*
4,1,4,$2,$3,$4,$5,$6,$7,$8,$9,$2,$3,0*
0 Add four circle primitives for the rounded corners*
1,1,$1+$1,$2,$3*
1,1,$1+$1,$4,$5*
1,1,$1+$1,$6,$7*
1,1,$1+$1,$8,$9*
0 Add four rect primitives between the rounded corners*
20,1,$1+$1,$2,$3,$4,$5,0*
20,1,$1+$1,$4,$5,$6,$7,0*
20,1,$1+$1,$6,$7,$8,$9,0*
20,1,$1+$1,$8,$9,$2,$3,0*%
%AMFreePoly0*
4,1,6,0.600000,0.200000,0.000000,-0.400000,-0.600000,0.200000,-0.600000,0.400000,0.600000,0.400000,0.600000,0.200000,0.600000,0.200000,$1*%
%AMFreePoly1*
4,1,6,0.600000,-0.250000,-0.600000,-0.250000,-0.600000,1.000000,0.000000,0.400000,0.600000,1.000000,0.600000,-0.250000,0.600000,-0.250000,$1*%
G04 Aperture macros list end*
%ADD10C,0.250000*%
%ADD11C,0.100000*%
%ADD12C,2.000000*%
%ADD13R,3.200000X2.000000*%
%ADD14C,1.200000*%
%ADD15O,2.500000X1.700000*%
%ADD16R,1.803400X0.812800*%
%ADD17C,3.200000*%
%ADD18R,1.700000X1.700000*%
%ADD19O,1.700000X1.700000*%
%ADD20R,0.600000X1.700000*%
%ADD21R,1.200000X1.800000*%
%ADD22C,0.900000*%
%ADD23R,1.500000X0.700000*%
%ADD24R,0.800000X1.000000*%
%ADD25C,1.400000*%
%ADD26C,1.600000*%
%ADD27FreePoly0,270.000000*%
%ADD28FreePoly0,90.000000*%
%ADD29R,1.600000X1.600000*%
%ADD30FreePoly1,270.000000*%
%ADD31FreePoly1,90.000000*%
%ADD32RoundRect,0.225000X-0.375000X0.225000X-0.375000X-0.225000X0.375000X-0.225000X0.375000X0.225000X0*%
%ADD33RoundRect,0.102000X-0.600000X0.300000X-0.600000X-0.300000X0.600000X-0.300000X0.600000X0.300000X0*%
G04 APERTURE END LIST*
D10*
X164999000Y-22286000D02*
G75*
G02*
X164749000Y-22286000I-125000J0D01*
G01*
X164749000Y-22286000D02*
G75*
G02*
X164999000Y-22286000I125000J0D01*
G01*
X164999000Y-24826000D02*
G75*
G02*
X164749000Y-24826000I-125000J0D01*
G01*
X164749000Y-24826000D02*
G75*
G02*
X164999000Y-24826000I125000J0D01*
G01*
X164999000Y-27366000D02*
G75*
G02*
X164749000Y-27366000I-125000J0D01*
G01*
X164749000Y-27366000D02*
G75*
G02*
X164999000Y-27366000I125000J0D01*
G01*
X164999000Y-29906000D02*
G75*
G02*
X164749000Y-29906000I-125000J0D01*
G01*
X164749000Y-29906000D02*
G75*
G02*
X164999000Y-29906000I125000J0D01*
G01*
X164999000Y-32446000D02*
G75*
G02*
X164749000Y-32446000I-125000J0D01*
G01*
X164749000Y-32446000D02*
G75*
G02*
X164999000Y-32446000I125000J0D01*
G01*
X164999000Y-34986000D02*
G75*
G02*
X164749000Y-34986000I-125000J0D01*
G01*
X164749000Y-34986000D02*
G75*
G02*
X164999000Y-34986000I125000J0D01*
G01*
X164999000Y-37526000D02*
G75*
G02*
X164749000Y-37526000I-125000J0D01*
G01*
X164749000Y-37526000D02*
G75*
G02*
X164999000Y-37526000I125000J0D01*
G01*
X164999000Y-40066000D02*
G75*
G02*
X164749000Y-40066000I-125000J0D01*
G01*
X164749000Y-40066000D02*
G75*
G02*
X164999000Y-40066000I125000J0D01*
G01*
X164999000Y-42606000D02*
G75*
G02*
X164749000Y-42606000I-125000J0D01*
G01*
X164749000Y-42606000D02*
G75*
G02*
X164999000Y-42606000I125000J0D01*
G01*
X164999000Y-45146000D02*
G75*
G02*
X164749000Y-45146000I-125000J0D01*
G01*
X164749000Y-45146000D02*
G75*
G02*
X164999000Y-45146000I125000J0D01*
G01*
X164999000Y-47686000D02*
G75*
G02*
X164749000Y-47686000I-125000J0D01*
G01*
X164749000Y-47686000D02*
G75*
G02*
X164999000Y-47686000I125000J0D01*
G01*
X164999000Y-50226000D02*
G75*
G02*
X164749000Y-50226000I-125000J0D01*
G01*
X164749000Y-50226000D02*
G75*
G02*
X164999000Y-50226000I125000J0D01*
G01*
X166523000Y-22286000D02*
G75*
G02*
X166273000Y-22286000I-125000J0D01*
G01*
X166273000Y-22286000D02*
G75*
G02*
X166523000Y-22286000I125000J0D01*
G01*
X166523000Y-24826000D02*
G75*
G02*
X166273000Y-24826000I-125000J0D01*
G01*
X166273000Y-24826000D02*
G75*
G02*
X166523000Y-24826000I125000J0D01*
G01*
X166523000Y-27366000D02*
G75*
G02*
X166273000Y-27366000I-125000J0D01*
G01*
X166273000Y-27366000D02*
G75*
G02*
X166523000Y-27366000I125000J0D01*
G01*
X166523000Y-29906000D02*
G75*
G02*
X166273000Y-29906000I-125000J0D01*
G01*
X166273000Y-29906000D02*
G75*
G02*
X166523000Y-29906000I125000J0D01*
G01*
X166523000Y-32446000D02*
G75*
G02*
X166273000Y-32446000I-125000J0D01*
G01*
X166273000Y-32446000D02*
G75*
G02*
X166523000Y-32446000I125000J0D01*
G01*
X166523000Y-34986000D02*
G75*
G02*
X166273000Y-34986000I-125000J0D01*
G01*
X166273000Y-34986000D02*
G75*
G02*
X166523000Y-34986000I125000J0D01*
G01*
X166523000Y-37526000D02*
G75*
G02*
X166273000Y-37526000I-125000J0D01*
G01*
X166273000Y-37526000D02*
G75*
G02*
X166523000Y-37526000I125000J0D01*
G01*
X166523000Y-40066000D02*
G75*
G02*
X166273000Y-40066000I-125000J0D01*
G01*
X166273000Y-40066000D02*
G75*
G02*
X166523000Y-40066000I125000J0D01*
G01*
X166523000Y-42606000D02*
G75*
G02*
X166273000Y-42606000I-125000J0D01*
G01*
X166273000Y-42606000D02*
G75*
G02*
X166523000Y-42606000I125000J0D01*
G01*
X166523000Y-45146000D02*
G75*
G02*
X166273000Y-45146000I-125000J0D01*
G01*
X166273000Y-45146000D02*
G75*
G02*
X166523000Y-45146000I125000J0D01*
G01*
X166523000Y-47686000D02*
G75*
G02*
X166273000Y-47686000I-125000J0D01*
G01*
X166273000Y-47686000D02*
G75*
G02*
X166523000Y-47686000I125000J0D01*
G01*
X166523000Y-50226000D02*
G75*
G02*
X166273000Y-50226000I-125000J0D01*
G01*
X166273000Y-50226000D02*
G75*
G02*
X166523000Y-50226000I125000J0D01*
G01*
D11*
X160556000Y-22794000D02*
X159540000Y-22794000D01*
X159540000Y-21778000D01*
X160556000Y-21778000D01*
X160556000Y-22794000D01*
G36*
X160556000Y-22794000D02*
G01*
X159540000Y-22794000D01*
X159540000Y-21778000D01*
X160556000Y-21778000D01*
X160556000Y-22794000D01*
G37*
X160556000Y-25334000D02*
X159540000Y-25334000D01*
X159540000Y-24318000D01*
X160556000Y-24318000D01*
X160556000Y-25334000D01*
G36*
X160556000Y-25334000D02*
G01*
X159540000Y-25334000D01*
X159540000Y-24318000D01*
X160556000Y-24318000D01*
X160556000Y-25334000D01*
G37*
X160556000Y-27874000D02*
X159540000Y-27874000D01*
X159540000Y-26858000D01*
X160556000Y-26858000D01*
X160556000Y-27874000D01*
G36*
X160556000Y-27874000D02*
G01*
X159540000Y-27874000D01*
X159540000Y-26858000D01*
X160556000Y-26858000D01*
X160556000Y-27874000D01*
G37*
X160556000Y-30414000D02*
X159540000Y-30414000D01*
X159540000Y-29398000D01*
X160556000Y-29398000D01*
X160556000Y-30414000D01*
G36*
X160556000Y-30414000D02*
G01*
X159540000Y-30414000D01*
X159540000Y-29398000D01*
X160556000Y-29398000D01*
X160556000Y-30414000D01*
G37*
X160556000Y-32954000D02*
X159540000Y-32954000D01*
X159540000Y-31938000D01*
X160556000Y-31938000D01*
X160556000Y-32954000D01*
G36*
X160556000Y-32954000D02*
G01*
X159540000Y-32954000D01*
X159540000Y-31938000D01*
X160556000Y-31938000D01*
X160556000Y-32954000D01*
G37*
X160556000Y-35494000D02*
X159540000Y-35494000D01*
X159540000Y-34478000D01*
X160556000Y-34478000D01*
X160556000Y-35494000D01*
G36*
X160556000Y-35494000D02*
G01*
X159540000Y-35494000D01*
X159540000Y-34478000D01*
X160556000Y-34478000D01*
X160556000Y-35494000D01*
G37*
X160556000Y-38034000D02*
X159540000Y-38034000D01*
X159540000Y-37018000D01*
X160556000Y-37018000D01*
X160556000Y-38034000D01*
G36*
X160556000Y-38034000D02*
G01*
X159540000Y-38034000D01*
X159540000Y-37018000D01*
X160556000Y-37018000D01*
X160556000Y-38034000D01*
G37*
X160556000Y-40574000D02*
X159540000Y-40574000D01*
X159540000Y-39558000D01*
X160556000Y-39558000D01*
X160556000Y-40574000D01*
G36*
X160556000Y-40574000D02*
G01*
X159540000Y-40574000D01*
X159540000Y-39558000D01*
X160556000Y-39558000D01*
X160556000Y-40574000D01*
G37*
X160556000Y-43114000D02*
X159540000Y-43114000D01*
X159540000Y-42098000D01*
X160556000Y-42098000D01*
X160556000Y-43114000D01*
G36*
X160556000Y-43114000D02*
G01*
X159540000Y-43114000D01*
X159540000Y-42098000D01*
X160556000Y-42098000D01*
X160556000Y-43114000D01*
G37*
X160556000Y-45654000D02*
X159540000Y-45654000D01*
X159540000Y-44638000D01*
X160556000Y-44638000D01*
X160556000Y-45654000D01*
G36*
X160556000Y-45654000D02*
G01*
X159540000Y-45654000D01*
X159540000Y-44638000D01*
X160556000Y-44638000D01*
X160556000Y-45654000D01*
G37*
X160556000Y-48194000D02*
X159540000Y-48194000D01*
X159540000Y-47178000D01*
X160556000Y-47178000D01*
X160556000Y-48194000D01*
G36*
X160556000Y-48194000D02*
G01*
X159540000Y-48194000D01*
X159540000Y-47178000D01*
X160556000Y-47178000D01*
X160556000Y-48194000D01*
G37*
X160556000Y-50734000D02*
X159540000Y-50734000D01*
X159540000Y-49718000D01*
X160556000Y-49718000D01*
X160556000Y-50734000D01*
G36*
X160556000Y-50734000D02*
G01*
X159540000Y-50734000D01*
X159540000Y-49718000D01*
X160556000Y-49718000D01*
X160556000Y-50734000D01*
G37*
X171732000Y-22794000D02*
X170716000Y-22794000D01*
X170716000Y-21778000D01*
X171732000Y-21778000D01*
X171732000Y-22794000D01*
G36*
X171732000Y-22794000D02*
G01*
X170716000Y-22794000D01*
X170716000Y-21778000D01*
X171732000Y-21778000D01*
X171732000Y-22794000D01*
G37*
X171732000Y-25334000D02*
X170716000Y-25334000D01*
X170716000Y-24318000D01*
X171732000Y-24318000D01*
X171732000Y-25334000D01*
G36*
X171732000Y-25334000D02*
G01*
X170716000Y-25334000D01*
X170716000Y-24318000D01*
X171732000Y-24318000D01*
X171732000Y-25334000D01*
G37*
X171732000Y-27874000D02*
X170716000Y-27874000D01*
X170716000Y-26858000D01*
X171732000Y-26858000D01*
X171732000Y-27874000D01*
G36*
X171732000Y-27874000D02*
G01*
X170716000Y-27874000D01*
X170716000Y-26858000D01*
X171732000Y-26858000D01*
X171732000Y-27874000D01*
G37*
X171732000Y-30414000D02*
X170716000Y-30414000D01*
X170716000Y-29398000D01*
X171732000Y-29398000D01*
X171732000Y-30414000D01*
G36*
X171732000Y-30414000D02*
G01*
X170716000Y-30414000D01*
X170716000Y-29398000D01*
X171732000Y-29398000D01*
X171732000Y-30414000D01*
G37*
X171732000Y-32954000D02*
X170716000Y-32954000D01*
X170716000Y-31938000D01*
X171732000Y-31938000D01*
X171732000Y-32954000D01*
G36*
X171732000Y-32954000D02*
G01*
X170716000Y-32954000D01*
X170716000Y-31938000D01*
X171732000Y-31938000D01*
X171732000Y-32954000D01*
G37*
X171732000Y-35494000D02*
X170716000Y-35494000D01*
X170716000Y-34478000D01*
X171732000Y-34478000D01*
X171732000Y-35494000D01*
G36*
X171732000Y-35494000D02*
G01*
X170716000Y-35494000D01*
X170716000Y-34478000D01*
X171732000Y-34478000D01*
X171732000Y-35494000D01*
G37*
X171732000Y-38034000D02*
X170716000Y-38034000D01*
X170716000Y-37018000D01*
X171732000Y-37018000D01*
X171732000Y-38034000D01*
G36*
X171732000Y-38034000D02*
G01*
X170716000Y-38034000D01*
X170716000Y-37018000D01*
X171732000Y-37018000D01*
X171732000Y-38034000D01*
G37*
X171732000Y-40574000D02*
X170716000Y-40574000D01*
X170716000Y-39558000D01*
X171732000Y-39558000D01*
X171732000Y-40574000D01*
G36*
X171732000Y-40574000D02*
G01*
X170716000Y-40574000D01*
X170716000Y-39558000D01*
X171732000Y-39558000D01*
X171732000Y-40574000D01*
G37*
X171732000Y-43114000D02*
X170716000Y-43114000D01*
X170716000Y-42098000D01*
X171732000Y-42098000D01*
X171732000Y-43114000D01*
G36*
X171732000Y-43114000D02*
G01*
X170716000Y-43114000D01*
X170716000Y-42098000D01*
X171732000Y-42098000D01*
X171732000Y-43114000D01*
G37*
X171732000Y-45654000D02*
X170716000Y-45654000D01*
X170716000Y-44638000D01*
X171732000Y-44638000D01*
X171732000Y-45654000D01*
G36*
X171732000Y-45654000D02*
G01*
X170716000Y-45654000D01*
X170716000Y-44638000D01*
X171732000Y-44638000D01*
X171732000Y-45654000D01*
G37*
X171732000Y-48194000D02*
X170716000Y-48194000D01*
X170716000Y-47178000D01*
X171732000Y-47178000D01*
X171732000Y-48194000D01*
G36*
X171732000Y-48194000D02*
G01*
X170716000Y-48194000D01*
X170716000Y-47178000D01*
X171732000Y-47178000D01*
X171732000Y-48194000D01*
G37*
X171732000Y-50734000D02*
X170716000Y-50734000D01*
X170716000Y-49718000D01*
X171732000Y-49718000D01*
X171732000Y-50734000D01*
G36*
X171732000Y-50734000D02*
G01*
X170716000Y-50734000D01*
X170716000Y-49718000D01*
X171732000Y-49718000D01*
X171732000Y-50734000D01*
G37*
D12*
X173390000Y-83460000D03*
X173390000Y-78460000D03*
X173390000Y-80960000D03*
D13*
X165890000Y-86560000D03*
X165890000Y-75360000D03*
D12*
X158890000Y-78460000D03*
X158890000Y-83460000D03*
D14*
X173330000Y-67275000D03*
X166330000Y-67275000D03*
X173330000Y-69025000D03*
X166330000Y-69025000D03*
D15*
X164530000Y-71125000D03*
X168530000Y-71125000D03*
X171530000Y-71125000D03*
X163530000Y-66925000D03*
D16*
X37148100Y-33249300D03*
X37148100Y-31750700D03*
X42151900Y-31750700D03*
X42151900Y-33249300D03*
X133648100Y-33249300D03*
X133648100Y-31750700D03*
X138651900Y-31750700D03*
X138651900Y-33249300D03*
X95048100Y-33249300D03*
X95048100Y-31750700D03*
X100051900Y-31750700D03*
X100051900Y-33249300D03*
X75748100Y-33249300D03*
X75748100Y-31750700D03*
X80751900Y-31750700D03*
X80751900Y-33249300D03*
D17*
X156000000Y-64750000D03*
X87900000Y-26000000D03*
D18*
X160556000Y-53766000D03*
D19*
X163096000Y-53766000D03*
X165636000Y-53766000D03*
X168176000Y-53766000D03*
X170716000Y-53766000D03*
D20*
X161000000Y-91114000D03*
X162000000Y-91114000D03*
X163000000Y-91115000D03*
X164000000Y-91115000D03*
X165000000Y-91115000D03*
X166000000Y-91115000D03*
X167000000Y-91115000D03*
X168000000Y-91115000D03*
X169000000Y-91115000D03*
X170000000Y-91115000D03*
D21*
X159700000Y-94990000D03*
X171300000Y-94990000D03*
D22*
X174800000Y-61632000D03*
X174800000Y-58632000D03*
D23*
X173050000Y-59382000D03*
D24*
X173835000Y-63782000D03*
X175765000Y-63782000D03*
X173835000Y-56482000D03*
X175765000Y-56482000D03*
D23*
X173050000Y-57882000D03*
X173050000Y-62382000D03*
D17*
X49300000Y-26000000D03*
D25*
X168050500Y-58632000D03*
X168050500Y-60632000D03*
D17*
X126500000Y-26000000D03*
D26*
X173256000Y-22286000D03*
D27*
X171478000Y-22286000D03*
D28*
X159794000Y-22286000D03*
D26*
X158016000Y-22286000D03*
D29*
X158016000Y-22286000D03*
D26*
X173256000Y-24826000D03*
D27*
X171478000Y-24826000D03*
D28*
X159794000Y-24826000D03*
D26*
X158016000Y-24826000D03*
X173256000Y-27366000D03*
D27*
X171478000Y-27366000D03*
D28*
X159794000Y-27366000D03*
D26*
X158016000Y-27366000D03*
X173256000Y-29906000D03*
D27*
X171478000Y-29906000D03*
D28*
X159794000Y-29906000D03*
D26*
X158016000Y-29906000D03*
X173256000Y-32446000D03*
D27*
X171478000Y-32446000D03*
D28*
X159794000Y-32446000D03*
D26*
X158016000Y-32446000D03*
X173256000Y-34986000D03*
D27*
X171478000Y-34986000D03*
D28*
X159794000Y-34986000D03*
D26*
X158016000Y-34986000D03*
X173256000Y-37526000D03*
D27*
X171478000Y-37526000D03*
D28*
X159794000Y-37526000D03*
D26*
X158016000Y-37526000D03*
X173256000Y-40066000D03*
D27*
X171478000Y-40066000D03*
D28*
X159794000Y-40066000D03*
D26*
X158016000Y-40066000D03*
X173256000Y-42606000D03*
D27*
X171478000Y-42606000D03*
D28*
X159794000Y-42606000D03*
D26*
X158016000Y-42606000D03*
X173256000Y-45146000D03*
D27*
X171478000Y-45146000D03*
D28*
X159794000Y-45146000D03*
D26*
X158016000Y-45146000D03*
X173256000Y-47686000D03*
D27*
X171478000Y-47686000D03*
D28*
X159794000Y-47686000D03*
D26*
X158016000Y-47686000D03*
X173256000Y-50226000D03*
D27*
X171478000Y-50226000D03*
D28*
X159794000Y-50226000D03*
D26*
X158016000Y-50226000D03*
D30*
X170462000Y-22286000D03*
X170462000Y-24826000D03*
X170462000Y-27366000D03*
X170462000Y-29906000D03*
X170462000Y-32446000D03*
X170462000Y-34986000D03*
X170462000Y-37526000D03*
X170462000Y-40066000D03*
X170462000Y-42606000D03*
X170462000Y-45146000D03*
X170462000Y-47686000D03*
X170462000Y-50226000D03*
D31*
X160810000Y-50226000D03*
X160810000Y-47686000D03*
X160810000Y-45146000D03*
X160810000Y-42606000D03*
X160810000Y-40066000D03*
X160810000Y-37526000D03*
X160810000Y-34986000D03*
X160810000Y-32446000D03*
X160810000Y-29906000D03*
X160810000Y-27366000D03*
X160810000Y-24826000D03*
X160810000Y-22286000D03*
D16*
X114348100Y-33249300D03*
X114348100Y-31750700D03*
X119351900Y-31750700D03*
X119351900Y-33249300D03*
D17*
X154500000Y-92500000D03*
D32*
X155500000Y-80050000D03*
X155500000Y-83350000D03*
D16*
X56448100Y-33249300D03*
X56448100Y-31750700D03*
X61451900Y-31750700D03*
X61451900Y-33249300D03*
D33*
X148500000Y-27155000D03*
X148500000Y-28425000D03*
X148500000Y-29695000D03*
X148500000Y-30965000D03*
X148500000Y-32235000D03*
X148500000Y-33505000D03*
X148500000Y-34775000D03*
X148500000Y-36045000D03*
X154100000Y-36045000D03*
X154100000Y-34775000D03*
X154100000Y-33505000D03*
X154100000Y-32235000D03*
X154100000Y-30965000D03*
X154100000Y-29695000D03*
X154100000Y-28425000D03*
X154100000Y-27155000D03*
D22*
X151287500Y-24449500D03*
X151287500Y-21649500D03*
M02*
