G04 #@! TF.GenerationSoftware,KiCad,Pcbnew,7.0.5*
G04 #@! TF.CreationDate,2023-12-27T01:10:25-08:00*
G04 #@! TF.ProjectId,Seismos_5CoreL,53656973-6d6f-4735-9f35-436f72654c2e,rev?*
G04 #@! TF.SameCoordinates,Original*
G04 #@! TF.FileFunction,Soldermask,Bot*
G04 #@! TF.FilePolarity,Negative*
%FSLAX46Y46*%
G04 Gerber Fmt 4.6, Leading zero omitted, Abs format (unit mm)*
G04 Created by KiCad (PCBNEW 7.0.5) date 2023-12-27 01:10:25*
%MOMM*%
%LPD*%
G01*
G04 APERTURE LIST*
G04 Aperture macros list*
%AMRoundRect*
0 Rectangle with rounded corners*
0 $1 Rounding radius*
0 $2 $3 $4 $5 $6 $7 $8 $9 X,Y pos of 4 corners*
0 Add a 4 corners polygon primitive as box body*
4,1,4,$2,$3,$4,$5,$6,$7,$8,$9,$2,$3,0*
0 Add four circle primitives for the rounded corners*
1,1,$1+$1,$2,$3*
1,1,$1+$1,$4,$5*
1,1,$1+$1,$6,$7*
1,1,$1+$1,$8,$9*
0 Add four rect primitives between the rounded corners*
20,1,$1+$1,$2,$3,$4,$5,0*
20,1,$1+$1,$4,$5,$6,$7,0*
20,1,$1+$1,$6,$7,$8,$9,0*
20,1,$1+$1,$8,$9,$2,$3,0*%
%AMFreePoly0*
4,1,6,0.600000,0.200000,0.000000,-0.400000,-0.600000,0.200000,-0.600000,0.400000,0.600000,0.400000,0.600000,0.200000,0.600000,0.200000,$1*%
%AMFreePoly1*
4,1,6,0.600000,-0.250000,-0.600000,-0.250000,-0.600000,1.000000,0.000000,0.400000,0.600000,1.000000,0.600000,-0.250000,0.600000,-0.250000,$1*%
%AMFreePoly2*
4,1,6,1.000000,0.000000,0.500000,-0.750000,-0.500000,-0.750000,-0.500000,0.750000,0.500000,0.750000,1.000000,0.000000,1.000000,0.000000,$1*%
%AMFreePoly3*
4,1,6,0.500000,-0.750000,-0.650000,-0.750000,-0.150000,0.000000,-0.650000,0.750000,0.500000,0.750000,0.500000,-0.750000,0.500000,-0.750000,$1*%
G04 Aperture macros list end*
%ADD10C,0.250000*%
%ADD11C,0.100000*%
%ADD12C,2.000000*%
%ADD13R,3.200000X2.000000*%
%ADD14C,1.200000*%
%ADD15O,2.500000X1.700000*%
%ADD16C,3.200000*%
%ADD17R,1.700000X1.700000*%
%ADD18O,1.700000X1.700000*%
%ADD19C,0.900000*%
%ADD20C,1.400000*%
%ADD21C,1.600000*%
%ADD22R,1.600000X1.600000*%
%ADD23FreePoly0,270.000000*%
%ADD24FreePoly0,90.000000*%
%ADD25FreePoly1,90.000000*%
%ADD26FreePoly1,270.000000*%
%ADD27FreePoly2,180.000000*%
%ADD28FreePoly3,180.000000*%
%ADD29R,0.600000X1.700000*%
%ADD30R,1.200000X1.800000*%
%ADD31RoundRect,0.237500X-0.237500X0.250000X-0.237500X-0.250000X0.237500X-0.250000X0.237500X0.250000X0*%
%ADD32R,1.550000X1.000000*%
G04 APERTURE END LIST*
D10*
X166523000Y-22286000D02*
G75*
G03*
X166523000Y-22286000I-125000J0D01*
G01*
X164999000Y-22286000D02*
G75*
G03*
X164999000Y-22286000I-125000J0D01*
G01*
X166523000Y-24826000D02*
G75*
G03*
X166523000Y-24826000I-125000J0D01*
G01*
X164999000Y-24826000D02*
G75*
G03*
X164999000Y-24826000I-125000J0D01*
G01*
X166523000Y-27366000D02*
G75*
G03*
X166523000Y-27366000I-125000J0D01*
G01*
X164999000Y-27366000D02*
G75*
G03*
X164999000Y-27366000I-125000J0D01*
G01*
X166523000Y-29906000D02*
G75*
G03*
X166523000Y-29906000I-125000J0D01*
G01*
X164999000Y-29906000D02*
G75*
G03*
X164999000Y-29906000I-125000J0D01*
G01*
X166523000Y-32446000D02*
G75*
G03*
X166523000Y-32446000I-125000J0D01*
G01*
X164999000Y-32446000D02*
G75*
G03*
X164999000Y-32446000I-125000J0D01*
G01*
X166523000Y-34986000D02*
G75*
G03*
X166523000Y-34986000I-125000J0D01*
G01*
X164999000Y-34986000D02*
G75*
G03*
X164999000Y-34986000I-125000J0D01*
G01*
X166523000Y-37526000D02*
G75*
G03*
X166523000Y-37526000I-125000J0D01*
G01*
X164999000Y-37526000D02*
G75*
G03*
X164999000Y-37526000I-125000J0D01*
G01*
X166523000Y-40066000D02*
G75*
G03*
X166523000Y-40066000I-125000J0D01*
G01*
X164999000Y-40066000D02*
G75*
G03*
X164999000Y-40066000I-125000J0D01*
G01*
X166523000Y-42606000D02*
G75*
G03*
X166523000Y-42606000I-125000J0D01*
G01*
X164999000Y-42606000D02*
G75*
G03*
X164999000Y-42606000I-125000J0D01*
G01*
X166523000Y-45146000D02*
G75*
G03*
X166523000Y-45146000I-125000J0D01*
G01*
X164999000Y-45146000D02*
G75*
G03*
X164999000Y-45146000I-125000J0D01*
G01*
X166523000Y-47686000D02*
G75*
G03*
X166523000Y-47686000I-125000J0D01*
G01*
X164999000Y-47686000D02*
G75*
G03*
X164999000Y-47686000I-125000J0D01*
G01*
X166523000Y-50226000D02*
G75*
G03*
X166523000Y-50226000I-125000J0D01*
G01*
X164999000Y-50226000D02*
G75*
G03*
X164999000Y-50226000I-125000J0D01*
G01*
D11*
X160556000Y-22794000D02*
X159540000Y-22794000D01*
X159540000Y-21778000D01*
X160556000Y-21778000D01*
X160556000Y-22794000D01*
G36*
X160556000Y-22794000D02*
G01*
X159540000Y-22794000D01*
X159540000Y-21778000D01*
X160556000Y-21778000D01*
X160556000Y-22794000D01*
G37*
X171732000Y-22794000D02*
X170716000Y-22794000D01*
X170716000Y-21778000D01*
X171732000Y-21778000D01*
X171732000Y-22794000D01*
G36*
X171732000Y-22794000D02*
G01*
X170716000Y-22794000D01*
X170716000Y-21778000D01*
X171732000Y-21778000D01*
X171732000Y-22794000D01*
G37*
X160556000Y-25334000D02*
X159540000Y-25334000D01*
X159540000Y-24318000D01*
X160556000Y-24318000D01*
X160556000Y-25334000D01*
G36*
X160556000Y-25334000D02*
G01*
X159540000Y-25334000D01*
X159540000Y-24318000D01*
X160556000Y-24318000D01*
X160556000Y-25334000D01*
G37*
X171732000Y-25334000D02*
X170716000Y-25334000D01*
X170716000Y-24318000D01*
X171732000Y-24318000D01*
X171732000Y-25334000D01*
G36*
X171732000Y-25334000D02*
G01*
X170716000Y-25334000D01*
X170716000Y-24318000D01*
X171732000Y-24318000D01*
X171732000Y-25334000D01*
G37*
X160556000Y-27874000D02*
X159540000Y-27874000D01*
X159540000Y-26858000D01*
X160556000Y-26858000D01*
X160556000Y-27874000D01*
G36*
X160556000Y-27874000D02*
G01*
X159540000Y-27874000D01*
X159540000Y-26858000D01*
X160556000Y-26858000D01*
X160556000Y-27874000D01*
G37*
X171732000Y-27874000D02*
X170716000Y-27874000D01*
X170716000Y-26858000D01*
X171732000Y-26858000D01*
X171732000Y-27874000D01*
G36*
X171732000Y-27874000D02*
G01*
X170716000Y-27874000D01*
X170716000Y-26858000D01*
X171732000Y-26858000D01*
X171732000Y-27874000D01*
G37*
X160556000Y-30414000D02*
X159540000Y-30414000D01*
X159540000Y-29398000D01*
X160556000Y-29398000D01*
X160556000Y-30414000D01*
G36*
X160556000Y-30414000D02*
G01*
X159540000Y-30414000D01*
X159540000Y-29398000D01*
X160556000Y-29398000D01*
X160556000Y-30414000D01*
G37*
X171732000Y-30414000D02*
X170716000Y-30414000D01*
X170716000Y-29398000D01*
X171732000Y-29398000D01*
X171732000Y-30414000D01*
G36*
X171732000Y-30414000D02*
G01*
X170716000Y-30414000D01*
X170716000Y-29398000D01*
X171732000Y-29398000D01*
X171732000Y-30414000D01*
G37*
X160556000Y-32954000D02*
X159540000Y-32954000D01*
X159540000Y-31938000D01*
X160556000Y-31938000D01*
X160556000Y-32954000D01*
G36*
X160556000Y-32954000D02*
G01*
X159540000Y-32954000D01*
X159540000Y-31938000D01*
X160556000Y-31938000D01*
X160556000Y-32954000D01*
G37*
X171732000Y-32954000D02*
X170716000Y-32954000D01*
X170716000Y-31938000D01*
X171732000Y-31938000D01*
X171732000Y-32954000D01*
G36*
X171732000Y-32954000D02*
G01*
X170716000Y-32954000D01*
X170716000Y-31938000D01*
X171732000Y-31938000D01*
X171732000Y-32954000D01*
G37*
X160556000Y-35494000D02*
X159540000Y-35494000D01*
X159540000Y-34478000D01*
X160556000Y-34478000D01*
X160556000Y-35494000D01*
G36*
X160556000Y-35494000D02*
G01*
X159540000Y-35494000D01*
X159540000Y-34478000D01*
X160556000Y-34478000D01*
X160556000Y-35494000D01*
G37*
X171732000Y-35494000D02*
X170716000Y-35494000D01*
X170716000Y-34478000D01*
X171732000Y-34478000D01*
X171732000Y-35494000D01*
G36*
X171732000Y-35494000D02*
G01*
X170716000Y-35494000D01*
X170716000Y-34478000D01*
X171732000Y-34478000D01*
X171732000Y-35494000D01*
G37*
X160556000Y-38034000D02*
X159540000Y-38034000D01*
X159540000Y-37018000D01*
X160556000Y-37018000D01*
X160556000Y-38034000D01*
G36*
X160556000Y-38034000D02*
G01*
X159540000Y-38034000D01*
X159540000Y-37018000D01*
X160556000Y-37018000D01*
X160556000Y-38034000D01*
G37*
X171732000Y-38034000D02*
X170716000Y-38034000D01*
X170716000Y-37018000D01*
X171732000Y-37018000D01*
X171732000Y-38034000D01*
G36*
X171732000Y-38034000D02*
G01*
X170716000Y-38034000D01*
X170716000Y-37018000D01*
X171732000Y-37018000D01*
X171732000Y-38034000D01*
G37*
X160556000Y-40574000D02*
X159540000Y-40574000D01*
X159540000Y-39558000D01*
X160556000Y-39558000D01*
X160556000Y-40574000D01*
G36*
X160556000Y-40574000D02*
G01*
X159540000Y-40574000D01*
X159540000Y-39558000D01*
X160556000Y-39558000D01*
X160556000Y-40574000D01*
G37*
X171732000Y-40574000D02*
X170716000Y-40574000D01*
X170716000Y-39558000D01*
X171732000Y-39558000D01*
X171732000Y-40574000D01*
G36*
X171732000Y-40574000D02*
G01*
X170716000Y-40574000D01*
X170716000Y-39558000D01*
X171732000Y-39558000D01*
X171732000Y-40574000D01*
G37*
X160556000Y-43114000D02*
X159540000Y-43114000D01*
X159540000Y-42098000D01*
X160556000Y-42098000D01*
X160556000Y-43114000D01*
G36*
X160556000Y-43114000D02*
G01*
X159540000Y-43114000D01*
X159540000Y-42098000D01*
X160556000Y-42098000D01*
X160556000Y-43114000D01*
G37*
X171732000Y-43114000D02*
X170716000Y-43114000D01*
X170716000Y-42098000D01*
X171732000Y-42098000D01*
X171732000Y-43114000D01*
G36*
X171732000Y-43114000D02*
G01*
X170716000Y-43114000D01*
X170716000Y-42098000D01*
X171732000Y-42098000D01*
X171732000Y-43114000D01*
G37*
X160556000Y-45654000D02*
X159540000Y-45654000D01*
X159540000Y-44638000D01*
X160556000Y-44638000D01*
X160556000Y-45654000D01*
G36*
X160556000Y-45654000D02*
G01*
X159540000Y-45654000D01*
X159540000Y-44638000D01*
X160556000Y-44638000D01*
X160556000Y-45654000D01*
G37*
X171732000Y-45654000D02*
X170716000Y-45654000D01*
X170716000Y-44638000D01*
X171732000Y-44638000D01*
X171732000Y-45654000D01*
G36*
X171732000Y-45654000D02*
G01*
X170716000Y-45654000D01*
X170716000Y-44638000D01*
X171732000Y-44638000D01*
X171732000Y-45654000D01*
G37*
X160556000Y-48194000D02*
X159540000Y-48194000D01*
X159540000Y-47178000D01*
X160556000Y-47178000D01*
X160556000Y-48194000D01*
G36*
X160556000Y-48194000D02*
G01*
X159540000Y-48194000D01*
X159540000Y-47178000D01*
X160556000Y-47178000D01*
X160556000Y-48194000D01*
G37*
X171732000Y-48194000D02*
X170716000Y-48194000D01*
X170716000Y-47178000D01*
X171732000Y-47178000D01*
X171732000Y-48194000D01*
G36*
X171732000Y-48194000D02*
G01*
X170716000Y-48194000D01*
X170716000Y-47178000D01*
X171732000Y-47178000D01*
X171732000Y-48194000D01*
G37*
X160556000Y-50734000D02*
X159540000Y-50734000D01*
X159540000Y-49718000D01*
X160556000Y-49718000D01*
X160556000Y-50734000D01*
G36*
X160556000Y-50734000D02*
G01*
X159540000Y-50734000D01*
X159540000Y-49718000D01*
X160556000Y-49718000D01*
X160556000Y-50734000D01*
G37*
X171732000Y-50734000D02*
X170716000Y-50734000D01*
X170716000Y-49718000D01*
X171732000Y-49718000D01*
X171732000Y-50734000D01*
G36*
X171732000Y-50734000D02*
G01*
X170716000Y-50734000D01*
X170716000Y-49718000D01*
X171732000Y-49718000D01*
X171732000Y-50734000D01*
G37*
D12*
X173390000Y-83460000D03*
X173390000Y-78460000D03*
X173390000Y-80960000D03*
D13*
X165890000Y-86560000D03*
X165890000Y-75360000D03*
D12*
X158890000Y-78460000D03*
X158890000Y-83460000D03*
D14*
X173330000Y-67275000D03*
X166330000Y-67275000D03*
X173330000Y-69025000D03*
X166330000Y-69025000D03*
D15*
X164530000Y-71125000D03*
X168530000Y-71125000D03*
X171530000Y-71125000D03*
X163530000Y-66925000D03*
D16*
X156000000Y-64750000D03*
X87900000Y-26000000D03*
D17*
X160556000Y-53766000D03*
D18*
X163096000Y-53766000D03*
X165636000Y-53766000D03*
X168176000Y-53766000D03*
X170716000Y-53766000D03*
D19*
X174800000Y-61632000D03*
X174800000Y-58632000D03*
D16*
X49300000Y-26000000D03*
D20*
X168050500Y-58632000D03*
X168050500Y-60632000D03*
D16*
X126500000Y-26000000D03*
D21*
X173256000Y-22286000D03*
D22*
X173256000Y-22286000D03*
D23*
X171478000Y-22286000D03*
D24*
X159794000Y-22286000D03*
D21*
X158016000Y-22286000D03*
X173256000Y-24826000D03*
D23*
X171478000Y-24826000D03*
D24*
X159794000Y-24826000D03*
D21*
X158016000Y-24826000D03*
X173256000Y-27366000D03*
D23*
X171478000Y-27366000D03*
D24*
X159794000Y-27366000D03*
D21*
X158016000Y-27366000D03*
X173256000Y-29906000D03*
D23*
X171478000Y-29906000D03*
D24*
X159794000Y-29906000D03*
D21*
X158016000Y-29906000D03*
X173256000Y-32446000D03*
D23*
X171478000Y-32446000D03*
D24*
X159794000Y-32446000D03*
D21*
X158016000Y-32446000D03*
X173256000Y-34986000D03*
D23*
X171478000Y-34986000D03*
D24*
X159794000Y-34986000D03*
D21*
X158016000Y-34986000D03*
X173256000Y-37526000D03*
D23*
X171478000Y-37526000D03*
D24*
X159794000Y-37526000D03*
D21*
X158016000Y-37526000D03*
X173256000Y-40066000D03*
D23*
X171478000Y-40066000D03*
D24*
X159794000Y-40066000D03*
D21*
X158016000Y-40066000D03*
X173256000Y-42606000D03*
D23*
X171478000Y-42606000D03*
D24*
X159794000Y-42606000D03*
D21*
X158016000Y-42606000D03*
X173256000Y-45146000D03*
D23*
X171478000Y-45146000D03*
D24*
X159794000Y-45146000D03*
D21*
X158016000Y-45146000D03*
X173256000Y-47686000D03*
D23*
X171478000Y-47686000D03*
D24*
X159794000Y-47686000D03*
D21*
X158016000Y-47686000D03*
X173256000Y-50226000D03*
D23*
X171478000Y-50226000D03*
D24*
X159794000Y-50226000D03*
D21*
X158016000Y-50226000D03*
D25*
X160810000Y-22286000D03*
X160810000Y-24826000D03*
X160810000Y-27366000D03*
X160810000Y-29906000D03*
X160810000Y-32446000D03*
X160810000Y-34986000D03*
X160810000Y-37526000D03*
X160810000Y-40066000D03*
X160810000Y-42606000D03*
X160810000Y-45146000D03*
X160810000Y-47686000D03*
X160810000Y-50226000D03*
D26*
X170462000Y-50226000D03*
X170462000Y-47686000D03*
X170462000Y-45146000D03*
X170462000Y-42606000D03*
X170462000Y-40066000D03*
X170462000Y-37526000D03*
X170462000Y-34986000D03*
X170462000Y-32446000D03*
X170462000Y-29906000D03*
X170462000Y-27366000D03*
X170462000Y-24826000D03*
X170462000Y-22286000D03*
D16*
X154500000Y-92500000D03*
D27*
X163600000Y-71200000D03*
D28*
X162150000Y-71200000D03*
D29*
X35150000Y-25386000D03*
X36150000Y-25386000D03*
X37150000Y-25385000D03*
X38150000Y-25385000D03*
X39150000Y-25385000D03*
X40150000Y-25385000D03*
X41150000Y-25385000D03*
X42150000Y-25385000D03*
X43150000Y-25385000D03*
X44150000Y-25385000D03*
D30*
X33850000Y-21510000D03*
X45450000Y-21510000D03*
D31*
X166300000Y-62787500D03*
X166300000Y-64612500D03*
D29*
X54450000Y-25386000D03*
X55450000Y-25386000D03*
X56450000Y-25385000D03*
X57450000Y-25385000D03*
X58450000Y-25385000D03*
X59450000Y-25385000D03*
X60450000Y-25385000D03*
X61450000Y-25385000D03*
X62450000Y-25385000D03*
X63450000Y-25385000D03*
D30*
X53150000Y-21510000D03*
X64750000Y-21510000D03*
D19*
X151287500Y-24449500D03*
X151287500Y-21649500D03*
D32*
X153887500Y-23899500D03*
X153887500Y-22199500D03*
X148687500Y-23899500D03*
X148687500Y-22199500D03*
D29*
X131650000Y-25386000D03*
X132650000Y-25386000D03*
X133650000Y-25385000D03*
X134650000Y-25385000D03*
X135650000Y-25385000D03*
X136650000Y-25385000D03*
X137650000Y-25385000D03*
X138650000Y-25385000D03*
X139650000Y-25385000D03*
X140650000Y-25385000D03*
D30*
X130350000Y-21510000D03*
X141950000Y-21510000D03*
D29*
X170000000Y-91114000D03*
X169000000Y-91114000D03*
X168000000Y-91115000D03*
X167000000Y-91115000D03*
X166000000Y-91115000D03*
X165000000Y-91115000D03*
X164000000Y-91115000D03*
X163000000Y-91115000D03*
X162000000Y-91115000D03*
X161000000Y-91115000D03*
D30*
X171300000Y-94990000D03*
X159700000Y-94990000D03*
D29*
X93050000Y-25386000D03*
X94050000Y-25386000D03*
X95050000Y-25385000D03*
X96050000Y-25385000D03*
X97050000Y-25385000D03*
X98050000Y-25385000D03*
X99050000Y-25385000D03*
X100050000Y-25385000D03*
X101050000Y-25385000D03*
X102050000Y-25385000D03*
D30*
X91750000Y-21510000D03*
X103350000Y-21510000D03*
D29*
X73750000Y-25386000D03*
X74750000Y-25386000D03*
X75750000Y-25385000D03*
X76750000Y-25385000D03*
X77750000Y-25385000D03*
X78750000Y-25385000D03*
X79750000Y-25385000D03*
X80750000Y-25385000D03*
X81750000Y-25385000D03*
X82750000Y-25385000D03*
D30*
X72450000Y-21510000D03*
X84050000Y-21510000D03*
D31*
X164300000Y-62787500D03*
X164300000Y-64612500D03*
D29*
X112350000Y-25386000D03*
X113350000Y-25386000D03*
X114350000Y-25385000D03*
X115350000Y-25385000D03*
X116350000Y-25385000D03*
X117350000Y-25385000D03*
X118350000Y-25385000D03*
X119350000Y-25385000D03*
X120350000Y-25385000D03*
X121350000Y-25385000D03*
D30*
X111050000Y-21510000D03*
X122650000Y-21510000D03*
M02*
