G04 #@! TF.GenerationSoftware,KiCad,Pcbnew,7.0.8*
G04 #@! TF.CreationDate,2023-12-09T01:27:00-08:00*
G04 #@! TF.ProjectId,Seismos_5CoreL,53656973-6d6f-4735-9f35-436f72654c2e,rev?*
G04 #@! TF.SameCoordinates,Original*
G04 #@! TF.FileFunction,Profile,NP*
%FSLAX46Y46*%
G04 Gerber Fmt 4.6, Leading zero omitted, Abs format (unit mm)*
G04 Created by KiCad (PCBNEW 7.0.8) date 2023-12-09 01:27:00*
%MOMM*%
%LPD*%
G01*
G04 APERTURE LIST*
G04 #@! TA.AperFunction,Profile*
%ADD10C,0.100000*%
G04 #@! TD*
G04 #@! TA.AperFunction,Profile*
%ADD11C,0.120000*%
G04 #@! TD*
G04 APERTURE END LIST*
D10*
X151134000Y-98000000D02*
X175500000Y-98000000D01*
X177000000Y-21500000D02*
G75*
G03*
X175500000Y-20000000I-1500000J0D01*
G01*
X149634000Y-42810000D02*
X149634000Y-96500000D01*
X149634000Y-96500000D02*
G75*
G03*
X151134000Y-98000000I1500000J0D01*
G01*
X31500000Y-39000000D02*
X145824000Y-39000000D01*
X30000000Y-37500000D02*
G75*
G03*
X31500000Y-39000000I1500000J0D01*
G01*
X31500000Y-20000000D02*
G75*
G03*
X30000000Y-21500000I0J-1500000D01*
G01*
X177000000Y-21500000D02*
X177000000Y-96500000D01*
X175500000Y-98000000D02*
G75*
G03*
X177000000Y-96500000I0J1500000D01*
G01*
X149634000Y-42810000D02*
G75*
G03*
X145824000Y-39000000I-3810000J0D01*
G01*
X175500000Y-20000000D02*
X31500000Y-20000000D01*
X30000000Y-21500000D02*
X30000000Y-37500000D01*
D11*
X38024400Y-33922400D02*
X41224800Y-33922400D01*
X41224800Y-33922400D02*
X41224800Y-31077600D01*
X41224800Y-31077600D02*
X38024400Y-31077600D01*
X38024400Y-31077600D02*
X38024400Y-33922400D01*
X134524400Y-33922400D02*
X137724800Y-33922400D01*
X137724800Y-33922400D02*
X137724800Y-31077600D01*
X137724800Y-31077600D02*
X134524400Y-31077600D01*
X134524400Y-31077600D02*
X134524400Y-33922400D01*
X95924400Y-33922400D02*
X99124800Y-33922400D01*
X99124800Y-33922400D02*
X99124800Y-31077600D01*
X99124800Y-31077600D02*
X95924400Y-31077600D01*
X95924400Y-31077600D02*
X95924400Y-33922400D01*
X76624400Y-33922400D02*
X79824800Y-33922400D01*
X79824800Y-33922400D02*
X79824800Y-31077600D01*
X79824800Y-31077600D02*
X76624400Y-31077600D01*
X76624400Y-31077600D02*
X76624400Y-33922400D01*
X115224400Y-33922400D02*
X118424800Y-33922400D01*
X118424800Y-33922400D02*
X118424800Y-31077600D01*
X118424800Y-31077600D02*
X115224400Y-31077600D01*
X115224400Y-31077600D02*
X115224400Y-33922400D01*
X57324400Y-33922400D02*
X60524800Y-33922400D01*
X60524800Y-33922400D02*
X60524800Y-31077600D01*
X60524800Y-31077600D02*
X57324400Y-31077600D01*
X57324400Y-31077600D02*
X57324400Y-33922400D01*
M02*
