G04 #@! TF.GenerationSoftware,KiCad,Pcbnew,7.0.8*
G04 #@! TF.CreationDate,2023-11-08T21:34:38-08:00*
G04 #@! TF.ProjectId,Seismos_5CoreStencil,53656973-6d6f-4735-9f35-436f72655374,rev?*
G04 #@! TF.SameCoordinates,Original*
G04 #@! TF.FileFunction,Profile,NP*
%FSLAX46Y46*%
G04 Gerber Fmt 4.6, Leading zero omitted, Abs format (unit mm)*
G04 Created by KiCad (PCBNEW 7.0.8) date 2023-11-08 21:34:38*
%MOMM*%
%LPD*%
G01*
G04 APERTURE LIST*
G04 #@! TA.AperFunction,Profile*
%ADD10C,0.100000*%
G04 #@! TD*
G04 #@! TA.AperFunction,Profile*
%ADD11C,0.120000*%
G04 #@! TD*
G04 APERTURE END LIST*
D10*
X49150000Y-26100000D02*
X46350000Y-26100000D01*
X30150000Y-124039340D02*
G75*
G03*
X31650000Y-125539340I1500042J42D01*
G01*
X30150000Y-26100000D02*
X32950000Y-26100000D01*
X47650000Y-125539340D02*
X31650000Y-125539340D01*
X32950000Y-20100000D02*
X46350000Y-20100000D01*
X46350000Y-26100000D02*
X46350000Y-20100000D01*
X30150000Y-124039340D02*
X30150000Y-26100000D01*
X47650000Y-125539340D02*
G75*
G03*
X49150000Y-124039340I3J1499997D01*
G01*
X49150000Y-26100000D02*
X49150000Y-124039340D01*
X68450000Y-26100000D02*
X65650000Y-26100000D01*
X49450000Y-124039340D02*
G75*
G03*
X50950000Y-125539340I1500042J42D01*
G01*
X49450000Y-26100000D02*
X52250000Y-26100000D01*
X66950000Y-125539340D02*
X50950000Y-125539340D01*
X52250000Y-20100000D02*
X65650000Y-20100000D01*
X65650000Y-26100000D02*
X65650000Y-20100000D01*
X49450000Y-124039340D02*
X49450000Y-26100000D01*
X66950000Y-125539340D02*
G75*
G03*
X68450000Y-124039340I3J1499997D01*
G01*
X68450000Y-26100000D02*
X68450000Y-124039340D01*
X87750000Y-26100000D02*
X84950000Y-26100000D01*
X68750000Y-124039340D02*
G75*
G03*
X70250000Y-125539340I1500042J42D01*
G01*
X68750000Y-26100000D02*
X71550000Y-26100000D01*
X86250000Y-125539340D02*
X70250000Y-125539340D01*
X71550000Y-20100000D02*
X84950000Y-20100000D01*
X84950000Y-26100000D02*
X84950000Y-20100000D01*
X68750000Y-124039340D02*
X68750000Y-26100000D01*
X86250000Y-125539340D02*
G75*
G03*
X87750000Y-124039340I3J1499997D01*
G01*
X87750000Y-26100000D02*
X87750000Y-124039340D01*
X107050000Y-26100000D02*
X104250000Y-26100000D01*
X88050000Y-124039340D02*
G75*
G03*
X89550000Y-125539340I1500042J42D01*
G01*
X88050000Y-26100000D02*
X90850000Y-26100000D01*
X105550000Y-125539340D02*
X89550000Y-125539340D01*
X90850000Y-20100000D02*
X104250000Y-20100000D01*
X104250000Y-26100000D02*
X104250000Y-20100000D01*
X88050000Y-124039340D02*
X88050000Y-26100000D01*
X105550000Y-125539340D02*
G75*
G03*
X107050000Y-124039340I3J1499997D01*
G01*
X107050000Y-26100000D02*
X107050000Y-124039340D01*
X126350000Y-26100000D02*
X123550000Y-26100000D01*
X107350000Y-124039340D02*
G75*
G03*
X108850000Y-125539340I1500042J42D01*
G01*
X107350000Y-26100000D02*
X110150000Y-26100000D01*
X124850000Y-125539340D02*
X108850000Y-125539340D01*
X110150000Y-20100000D02*
X123550000Y-20100000D01*
X123550000Y-26100000D02*
X123550000Y-20100000D01*
X107350000Y-124039340D02*
X107350000Y-26100000D01*
X124850000Y-125539340D02*
G75*
G03*
X126350000Y-124039340I3J1499997D01*
G01*
X126350000Y-26100000D02*
X126350000Y-124039340D01*
X144150000Y-125539340D02*
X128150000Y-125539340D01*
X145650000Y-26100000D02*
X142850000Y-26100000D01*
X129450000Y-20100000D02*
X142850000Y-20100000D01*
X142850000Y-26100000D02*
X142850000Y-20100000D01*
X126650000Y-124039340D02*
G75*
G03*
X128150000Y-125539340I1500042J42D01*
G01*
X126650000Y-124039340D02*
X126650000Y-26100000D01*
X145650000Y-26100000D02*
X145650000Y-124039340D01*
X144150000Y-125539340D02*
G75*
G03*
X145650000Y-124039340I3J1499997D01*
G01*
X126650000Y-26100000D02*
X129450000Y-26100000D01*
X148000000Y-47960660D02*
X183000000Y-47960660D01*
X156000000Y-90400000D02*
X146500000Y-90400000D01*
X172200000Y-96400000D02*
X172200000Y-90400000D01*
X158800000Y-90400000D02*
X158800000Y-96400000D01*
X146500000Y-90400000D02*
X146500000Y-49460660D01*
X184500000Y-49460660D02*
X184500000Y-90400000D01*
X172200000Y-96400000D02*
X158800000Y-96400000D01*
X184500000Y-49460660D02*
G75*
G03*
X183000000Y-47960660I-1500042J-42D01*
G01*
X148000000Y-47960660D02*
G75*
G03*
X146500000Y-49460660I-3J-1499997D01*
G01*
X156000000Y-90400000D02*
X158800000Y-90400000D01*
X175000000Y-90400000D02*
X184500000Y-90400000D01*
X175000000Y-90400000D02*
X172200000Y-90400000D01*
X46350000Y-27000000D02*
X46350000Y-21000000D01*
X49150000Y-27000000D02*
X46350000Y-27000000D01*
X30150000Y-27000000D02*
X32950000Y-27000000D01*
X32950000Y-21000000D02*
X46350000Y-21000000D01*
X65650000Y-27000000D02*
X65650000Y-21000000D01*
X68450000Y-27000000D02*
X65650000Y-27000000D01*
X49450000Y-27000000D02*
X52250000Y-27000000D01*
X52250000Y-21000000D02*
X65650000Y-21000000D01*
X84950000Y-27000000D02*
X84950000Y-21000000D01*
X87750000Y-27000000D02*
X84950000Y-27000000D01*
X68750000Y-27000000D02*
X71550000Y-27000000D01*
X71550000Y-21000000D02*
X84950000Y-21000000D01*
X104250000Y-27000000D02*
X104250000Y-21000000D01*
X107050000Y-27000000D02*
X104250000Y-27000000D01*
X88050000Y-27000000D02*
X90850000Y-27000000D01*
X90850000Y-21000000D02*
X104250000Y-21000000D01*
X123550000Y-27000000D02*
X123550000Y-21000000D01*
X126350000Y-27000000D02*
X123550000Y-27000000D01*
X107350000Y-27000000D02*
X110150000Y-27000000D01*
X110150000Y-21000000D02*
X123550000Y-21000000D01*
X129450000Y-21000000D02*
X142850000Y-21000000D01*
X142850000Y-27000000D02*
X142850000Y-21000000D01*
X126650000Y-27000000D02*
X129450000Y-27000000D01*
X145650000Y-27000000D02*
X142850000Y-27000000D01*
X151134000Y-98000000D02*
X175500000Y-98000000D01*
X177000000Y-21500000D02*
G75*
G03*
X175500000Y-20000000I-1500000J0D01*
G01*
X149634000Y-42810000D02*
X149634000Y-96500000D01*
X149634000Y-96500000D02*
G75*
G03*
X151134000Y-98000000I1500000J0D01*
G01*
X31500000Y-39000000D02*
X145824000Y-39000000D01*
X30000000Y-37500000D02*
G75*
G03*
X31500000Y-39000000I1500000J0D01*
G01*
X31500000Y-20000000D02*
G75*
G03*
X30000000Y-21500000I0J-1500000D01*
G01*
X177000000Y-21500000D02*
X177000000Y-96500000D01*
X175500000Y-98000000D02*
G75*
G03*
X177000000Y-96500000I0J1500000D01*
G01*
X149634000Y-42810000D02*
G75*
G03*
X145824000Y-39000000I-3810000J0D01*
G01*
X175500000Y-20000000D02*
X31500000Y-20000000D01*
X30000000Y-21500000D02*
X30000000Y-37500000D01*
D11*
X37888000Y-106108600D02*
X41128000Y-106108600D01*
X41128000Y-106108600D02*
X41128000Y-109095400D01*
X41128000Y-109095400D02*
X37888000Y-109095400D01*
X37888000Y-109095400D02*
X37888000Y-106108600D01*
X37888000Y-49108600D02*
X41128000Y-49108600D01*
X41128000Y-49108600D02*
X41128000Y-52095400D01*
X41128000Y-52095400D02*
X37888000Y-52095400D01*
X37888000Y-52095400D02*
X37888000Y-49108600D01*
X37888000Y-87108600D02*
X41128000Y-87108600D01*
X41128000Y-87108600D02*
X41128000Y-90095400D01*
X41128000Y-90095400D02*
X37888000Y-90095400D01*
X37888000Y-90095400D02*
X37888000Y-87108600D01*
X37888000Y-30108600D02*
X41128000Y-30108600D01*
X41128000Y-30108600D02*
X41128000Y-33095400D01*
X41128000Y-33095400D02*
X37888000Y-33095400D01*
X37888000Y-33095400D02*
X37888000Y-30108600D01*
X37888000Y-68108600D02*
X41128000Y-68108600D01*
X41128000Y-68108600D02*
X41128000Y-71095400D01*
X41128000Y-71095400D02*
X37888000Y-71095400D01*
X37888000Y-71095400D02*
X37888000Y-68108600D01*
X57188000Y-106108600D02*
X60428000Y-106108600D01*
X60428000Y-106108600D02*
X60428000Y-109095400D01*
X60428000Y-109095400D02*
X57188000Y-109095400D01*
X57188000Y-109095400D02*
X57188000Y-106108600D01*
X57188000Y-49108600D02*
X60428000Y-49108600D01*
X60428000Y-49108600D02*
X60428000Y-52095400D01*
X60428000Y-52095400D02*
X57188000Y-52095400D01*
X57188000Y-52095400D02*
X57188000Y-49108600D01*
X57188000Y-87108600D02*
X60428000Y-87108600D01*
X60428000Y-87108600D02*
X60428000Y-90095400D01*
X60428000Y-90095400D02*
X57188000Y-90095400D01*
X57188000Y-90095400D02*
X57188000Y-87108600D01*
X57188000Y-30108600D02*
X60428000Y-30108600D01*
X60428000Y-30108600D02*
X60428000Y-33095400D01*
X60428000Y-33095400D02*
X57188000Y-33095400D01*
X57188000Y-33095400D02*
X57188000Y-30108600D01*
X57188000Y-68108600D02*
X60428000Y-68108600D01*
X60428000Y-68108600D02*
X60428000Y-71095400D01*
X60428000Y-71095400D02*
X57188000Y-71095400D01*
X57188000Y-71095400D02*
X57188000Y-68108600D01*
X76488000Y-106108600D02*
X79728000Y-106108600D01*
X79728000Y-106108600D02*
X79728000Y-109095400D01*
X79728000Y-109095400D02*
X76488000Y-109095400D01*
X76488000Y-109095400D02*
X76488000Y-106108600D01*
X76488000Y-49108600D02*
X79728000Y-49108600D01*
X79728000Y-49108600D02*
X79728000Y-52095400D01*
X79728000Y-52095400D02*
X76488000Y-52095400D01*
X76488000Y-52095400D02*
X76488000Y-49108600D01*
X76488000Y-87108600D02*
X79728000Y-87108600D01*
X79728000Y-87108600D02*
X79728000Y-90095400D01*
X79728000Y-90095400D02*
X76488000Y-90095400D01*
X76488000Y-90095400D02*
X76488000Y-87108600D01*
X76488000Y-30108600D02*
X79728000Y-30108600D01*
X79728000Y-30108600D02*
X79728000Y-33095400D01*
X79728000Y-33095400D02*
X76488000Y-33095400D01*
X76488000Y-33095400D02*
X76488000Y-30108600D01*
X76488000Y-68108600D02*
X79728000Y-68108600D01*
X79728000Y-68108600D02*
X79728000Y-71095400D01*
X79728000Y-71095400D02*
X76488000Y-71095400D01*
X76488000Y-71095400D02*
X76488000Y-68108600D01*
X95788000Y-106108600D02*
X99028000Y-106108600D01*
X99028000Y-106108600D02*
X99028000Y-109095400D01*
X99028000Y-109095400D02*
X95788000Y-109095400D01*
X95788000Y-109095400D02*
X95788000Y-106108600D01*
X95788000Y-49108600D02*
X99028000Y-49108600D01*
X99028000Y-49108600D02*
X99028000Y-52095400D01*
X99028000Y-52095400D02*
X95788000Y-52095400D01*
X95788000Y-52095400D02*
X95788000Y-49108600D01*
X95788000Y-87108600D02*
X99028000Y-87108600D01*
X99028000Y-87108600D02*
X99028000Y-90095400D01*
X99028000Y-90095400D02*
X95788000Y-90095400D01*
X95788000Y-90095400D02*
X95788000Y-87108600D01*
X95788000Y-30108600D02*
X99028000Y-30108600D01*
X99028000Y-30108600D02*
X99028000Y-33095400D01*
X99028000Y-33095400D02*
X95788000Y-33095400D01*
X95788000Y-33095400D02*
X95788000Y-30108600D01*
X95788000Y-68108600D02*
X99028000Y-68108600D01*
X99028000Y-68108600D02*
X99028000Y-71095400D01*
X99028000Y-71095400D02*
X95788000Y-71095400D01*
X95788000Y-71095400D02*
X95788000Y-68108600D01*
X115088000Y-106108600D02*
X118328000Y-106108600D01*
X118328000Y-106108600D02*
X118328000Y-109095400D01*
X118328000Y-109095400D02*
X115088000Y-109095400D01*
X115088000Y-109095400D02*
X115088000Y-106108600D01*
X115088000Y-49108600D02*
X118328000Y-49108600D01*
X118328000Y-49108600D02*
X118328000Y-52095400D01*
X118328000Y-52095400D02*
X115088000Y-52095400D01*
X115088000Y-52095400D02*
X115088000Y-49108600D01*
X115088000Y-87108600D02*
X118328000Y-87108600D01*
X118328000Y-87108600D02*
X118328000Y-90095400D01*
X118328000Y-90095400D02*
X115088000Y-90095400D01*
X115088000Y-90095400D02*
X115088000Y-87108600D01*
X115088000Y-30108600D02*
X118328000Y-30108600D01*
X118328000Y-30108600D02*
X118328000Y-33095400D01*
X118328000Y-33095400D02*
X115088000Y-33095400D01*
X115088000Y-33095400D02*
X115088000Y-30108600D01*
X115088000Y-68108600D02*
X118328000Y-68108600D01*
X118328000Y-68108600D02*
X118328000Y-71095400D01*
X118328000Y-71095400D02*
X115088000Y-71095400D01*
X115088000Y-71095400D02*
X115088000Y-68108600D01*
X134388000Y-68108600D02*
X137628000Y-68108600D01*
X137628000Y-68108600D02*
X137628000Y-71095400D01*
X137628000Y-71095400D02*
X134388000Y-71095400D01*
X134388000Y-71095400D02*
X134388000Y-68108600D01*
X134388000Y-87108600D02*
X137628000Y-87108600D01*
X137628000Y-87108600D02*
X137628000Y-90095400D01*
X137628000Y-90095400D02*
X134388000Y-90095400D01*
X134388000Y-90095400D02*
X134388000Y-87108600D01*
X134388000Y-106108600D02*
X137628000Y-106108600D01*
X137628000Y-106108600D02*
X137628000Y-109095400D01*
X137628000Y-109095400D02*
X134388000Y-109095400D01*
X134388000Y-109095400D02*
X134388000Y-106108600D01*
X134388000Y-49108600D02*
X137628000Y-49108600D01*
X137628000Y-49108600D02*
X137628000Y-52095400D01*
X137628000Y-52095400D02*
X134388000Y-52095400D01*
X134388000Y-52095400D02*
X134388000Y-49108600D01*
X134388000Y-30108600D02*
X137628000Y-30108600D01*
X137628000Y-30108600D02*
X137628000Y-33095400D01*
X137628000Y-33095400D02*
X134388000Y-33095400D01*
X134388000Y-33095400D02*
X134388000Y-30108600D01*
X157762000Y-86391400D02*
X154522000Y-86391400D01*
X154522000Y-86391400D02*
X154522000Y-83404600D01*
X154522000Y-83404600D02*
X157762000Y-83404600D01*
X157762000Y-83404600D02*
X157762000Y-86391400D01*
X176762000Y-86391400D02*
X173522000Y-86391400D01*
X173522000Y-86391400D02*
X173522000Y-83404600D01*
X173522000Y-83404600D02*
X176762000Y-83404600D01*
X176762000Y-83404600D02*
X176762000Y-86391400D01*
X157762000Y-67391400D02*
X154522000Y-67391400D01*
X154522000Y-67391400D02*
X154522000Y-64404600D01*
X154522000Y-64404600D02*
X157762000Y-64404600D01*
X157762000Y-64404600D02*
X157762000Y-67391400D01*
X176762000Y-67391400D02*
X173522000Y-67391400D01*
X173522000Y-67391400D02*
X173522000Y-64404600D01*
X173522000Y-64404600D02*
X176762000Y-64404600D01*
X176762000Y-64404600D02*
X176762000Y-67391400D01*
X38024400Y-33922400D02*
X41224800Y-33922400D01*
X41224800Y-33922400D02*
X41224800Y-31077600D01*
X41224800Y-31077600D02*
X38024400Y-31077600D01*
X38024400Y-31077600D02*
X38024400Y-33922400D01*
X134524400Y-33922400D02*
X137724800Y-33922400D01*
X137724800Y-33922400D02*
X137724800Y-31077600D01*
X137724800Y-31077600D02*
X134524400Y-31077600D01*
X134524400Y-31077600D02*
X134524400Y-33922400D01*
X95924400Y-33922400D02*
X99124800Y-33922400D01*
X99124800Y-33922400D02*
X99124800Y-31077600D01*
X99124800Y-31077600D02*
X95924400Y-31077600D01*
X95924400Y-31077600D02*
X95924400Y-33922400D01*
X76624400Y-33922400D02*
X79824800Y-33922400D01*
X79824800Y-33922400D02*
X79824800Y-31077600D01*
X79824800Y-31077600D02*
X76624400Y-31077600D01*
X76624400Y-31077600D02*
X76624400Y-33922400D01*
X115224400Y-33922400D02*
X118424800Y-33922400D01*
X118424800Y-33922400D02*
X118424800Y-31077600D01*
X118424800Y-31077600D02*
X115224400Y-31077600D01*
X115224400Y-31077600D02*
X115224400Y-33922400D01*
X57324400Y-33922400D02*
X60524800Y-33922400D01*
X60524800Y-33922400D02*
X60524800Y-31077600D01*
X60524800Y-31077600D02*
X57324400Y-31077600D01*
X57324400Y-31077600D02*
X57324400Y-33922400D01*
M02*
