M48
; DRILL file {KiCad 7.0.8} date Sat 21 Oct 2023 10:22:23 PM PDT
; FORMAT={-:-/ absolute / metric / decimal}
; #@! TF.CreationDate,2023-10-21T22:22:23-07:00
; #@! TF.GenerationSoftware,Kicad,Pcbnew,7.0.8
; #@! TF.FileFunction,Plated,1,2,PTH
FMAT,2
METRIC
; #@! TA.AperFunction,Plated,PTH,ViaDrill
T1C0.300
; #@! TA.AperFunction,Plated,PTH,ViaDrill
T2C0.400
; #@! TA.AperFunction,Plated,PTH,ComponentDrill
T3C0.400
; #@! TA.AperFunction,Plated,PTH,ComponentDrill
T4C0.900
; #@! TA.AperFunction,Plated,PTH,ComponentDrill
T5C1.000
; #@! TA.AperFunction,Plated,PTH,ComponentDrill
T6C1.100
; #@! TA.AperFunction,Plated,PTH,ComponentDrill
T7C1.500
%
G90
G05
T1
X46.0Y-88.0
X53.4Y-31.873
X53.926Y-32.4
X53.926Y-33.664
X61.601Y-30.442
X62.201Y-30.442
X62.8Y-30.442
X63.4Y-30.442
X64.75Y-27.3
X65.06Y-27.826
X65.337Y-25.887
X65.419Y-28.353
X65.767Y-28.88
X66.088Y-29.386
X66.465Y-29.851
X66.615Y-23.969
X67.999Y-23.951
X68.551Y-23.648
X69.126Y-23.397
X73.35Y-27.25
X85.65Y-23.496
X86.65Y-22.97
X87.65Y-22.443
X88.65Y-21.916
X89.65Y-21.39
X92.65Y-26.6
X104.95Y-23.496
X105.95Y-22.97
X106.95Y-22.443
X107.95Y-21.916
X108.95Y-21.39
X111.95Y-26.6
X124.25Y-23.496
X125.25Y-22.97
X126.25Y-22.443
X127.25Y-21.916
X128.25Y-21.39
X131.25Y-26.65
X143.55Y-23.496
X144.55Y-22.97
X145.55Y-22.443
X146.55Y-21.916
X147.55Y-21.39
X150.55Y-26.7
X162.85Y-23.496
X163.85Y-22.97
X164.85Y-22.443
X165.85Y-21.916
X166.85Y-21.39
X169.85Y-26.8
T2
X34.4Y-59.4
X40.0Y-92.75
X45.279Y-55.921
X46.005Y-55.195
X50.927Y-48.926
X55.7Y-29.975
X62.05Y-23.45
X65.1Y-31.75
X68.35Y-35.299
X70.05Y-22.5
X72.3Y-22.55
X76.4Y-33.25
X84.4Y-31.75
X87.65Y-35.299
X89.171Y-30.274
X95.7Y-33.25
X103.7Y-31.75
X106.95Y-35.299
X108.471Y-30.274
X115.0Y-33.25
X123.0Y-31.75
X126.25Y-35.299
X127.771Y-30.274
X134.3Y-33.25
X142.3Y-31.75
X145.55Y-35.299
X147.071Y-30.274
X153.6Y-33.25
X161.6Y-31.75
X164.85Y-35.299
X166.371Y-30.274
X172.9Y-33.25
T3
X40.588Y-22.286
X40.588Y-24.826
X40.588Y-27.366
X40.588Y-29.906
X40.588Y-32.446
X40.588Y-34.986
X40.588Y-37.526
X40.588Y-40.066
X40.588Y-42.606
X40.588Y-45.146
X40.588Y-47.686
X40.588Y-50.226
X42.112Y-22.286
X42.112Y-24.826
X42.112Y-27.366
X42.112Y-29.906
X42.112Y-32.446
X42.112Y-34.986
X42.112Y-37.526
X42.112Y-40.066
X42.112Y-42.606
X42.112Y-45.146
X42.112Y-47.686
X42.112Y-50.226
T4
X38.95Y-58.632
X38.95Y-60.632
T5
X33.61Y-78.46
X33.61Y-80.96
X33.61Y-83.46
X36.284Y-53.766
X38.824Y-53.766
X41.364Y-53.766
X43.904Y-53.766
X46.444Y-53.766
X48.11Y-78.46
X48.11Y-83.46
T6
X33.73Y-22.286
X33.73Y-22.286
X33.73Y-24.826
X33.73Y-27.366
X33.73Y-29.906
X33.73Y-32.446
X33.73Y-34.986
X33.73Y-37.526
X33.73Y-40.066
X33.73Y-42.606
X33.73Y-45.146
X33.73Y-47.686
X33.73Y-50.226
X48.97Y-22.286
X48.97Y-22.286
X48.97Y-24.826
X48.97Y-27.366
X48.97Y-29.906
X48.97Y-32.446
X48.97Y-34.986
X48.97Y-37.526
X48.97Y-40.066
X48.97Y-42.606
X48.97Y-45.146
X48.97Y-47.686
X48.97Y-50.226
T5
X35.22Y-66.925G85X35.72Y-66.925
G05
X38.22Y-66.925G85X38.72Y-66.925
G05
X42.22Y-66.925G85X42.72Y-66.925
G05
X43.22Y-71.125G85X43.72Y-71.125
G05
T7
X40.46Y-75.36G85X41.76Y-75.36
G05
X40.46Y-86.56G85X41.76Y-86.56
G05
T0
M30
