G04 #@! TF.GenerationSoftware,KiCad,Pcbnew,7.0.8*
G04 #@! TF.CreationDate,2023-10-21T22:22:20-07:00*
G04 #@! TF.ProjectId,Seismos_5CoreR,53656973-6d6f-4735-9f35-436f7265522e,rev?*
G04 #@! TF.SameCoordinates,Original*
G04 #@! TF.FileFunction,Legend,Bot*
G04 #@! TF.FilePolarity,Positive*
%FSLAX46Y46*%
G04 Gerber Fmt 4.6, Leading zero omitted, Abs format (unit mm)*
G04 Created by KiCad (PCBNEW 7.0.8) date 2023-10-21 22:22:20*
%MOMM*%
%LPD*%
G01*
G04 APERTURE LIST*
G04 Aperture macros list*
%AMFreePoly0*
4,1,6,0.600000,0.200000,0.000000,-0.400000,-0.600000,0.200000,-0.600000,0.400000,0.600000,0.400000,0.600000,0.200000,0.600000,0.200000,$1*%
%AMFreePoly1*
4,1,6,0.600000,-0.250000,-0.600000,-0.250000,-0.600000,1.000000,0.000000,0.400000,0.600000,1.000000,0.600000,-0.250000,0.600000,-0.250000,$1*%
G04 Aperture macros list end*
%ADD10C,0.150000*%
%ADD11C,0.120000*%
%ADD12C,0.254000*%
%ADD13C,0.250000*%
%ADD14C,0.100000*%
%ADD15C,3.200000*%
%ADD16C,2.000000*%
%ADD17R,3.200000X2.000000*%
%ADD18C,1.200000*%
%ADD19O,2.500000X1.700000*%
%ADD20R,1.700000X1.700000*%
%ADD21O,1.700000X1.700000*%
%ADD22C,0.900000*%
%ADD23C,1.400000*%
%ADD24C,1.600000*%
%ADD25R,1.600000X1.600000*%
%ADD26FreePoly0,270.000000*%
%ADD27FreePoly0,90.000000*%
%ADD28FreePoly1,90.000000*%
%ADD29FreePoly1,270.000000*%
%ADD30R,0.600000X1.700000*%
%ADD31R,1.200000X1.800000*%
%ADD32R,1.550000X1.000000*%
G04 APERTURE END LIST*
D10*
X72139160Y-26109819D02*
X72139160Y-26824104D01*
X72139160Y-26824104D02*
X72186779Y-26966961D01*
X72186779Y-26966961D02*
X72282017Y-27062200D01*
X72282017Y-27062200D02*
X72424874Y-27109819D01*
X72424874Y-27109819D02*
X72520112Y-27109819D01*
X71234398Y-26109819D02*
X71424874Y-26109819D01*
X71424874Y-26109819D02*
X71520112Y-26157438D01*
X71520112Y-26157438D02*
X71567731Y-26205057D01*
X71567731Y-26205057D02*
X71662969Y-26347914D01*
X71662969Y-26347914D02*
X71710588Y-26538390D01*
X71710588Y-26538390D02*
X71710588Y-26919342D01*
X71710588Y-26919342D02*
X71662969Y-27014580D01*
X71662969Y-27014580D02*
X71615350Y-27062200D01*
X71615350Y-27062200D02*
X71520112Y-27109819D01*
X71520112Y-27109819D02*
X71329636Y-27109819D01*
X71329636Y-27109819D02*
X71234398Y-27062200D01*
X71234398Y-27062200D02*
X71186779Y-27014580D01*
X71186779Y-27014580D02*
X71139160Y-26919342D01*
X71139160Y-26919342D02*
X71139160Y-26681247D01*
X71139160Y-26681247D02*
X71186779Y-26586009D01*
X71186779Y-26586009D02*
X71234398Y-26538390D01*
X71234398Y-26538390D02*
X71329636Y-26490771D01*
X71329636Y-26490771D02*
X71520112Y-26490771D01*
X71520112Y-26490771D02*
X71615350Y-26538390D01*
X71615350Y-26538390D02*
X71662969Y-26586009D01*
X71662969Y-26586009D02*
X71710588Y-26681247D01*
X91439160Y-26109819D02*
X91439160Y-26824104D01*
X91439160Y-26824104D02*
X91486779Y-26966961D01*
X91486779Y-26966961D02*
X91582017Y-27062200D01*
X91582017Y-27062200D02*
X91724874Y-27109819D01*
X91724874Y-27109819D02*
X91820112Y-27109819D01*
X90486779Y-26109819D02*
X90962969Y-26109819D01*
X90962969Y-26109819D02*
X91010588Y-26586009D01*
X91010588Y-26586009D02*
X90962969Y-26538390D01*
X90962969Y-26538390D02*
X90867731Y-26490771D01*
X90867731Y-26490771D02*
X90629636Y-26490771D01*
X90629636Y-26490771D02*
X90534398Y-26538390D01*
X90534398Y-26538390D02*
X90486779Y-26586009D01*
X90486779Y-26586009D02*
X90439160Y-26681247D01*
X90439160Y-26681247D02*
X90439160Y-26919342D01*
X90439160Y-26919342D02*
X90486779Y-27014580D01*
X90486779Y-27014580D02*
X90534398Y-27062200D01*
X90534398Y-27062200D02*
X90629636Y-27109819D01*
X90629636Y-27109819D02*
X90867731Y-27109819D01*
X90867731Y-27109819D02*
X90962969Y-27062200D01*
X90962969Y-27062200D02*
X91010588Y-27014580D01*
X59326700Y-20093673D02*
X59374319Y-20236530D01*
X59374319Y-20236530D02*
X59374319Y-20474625D01*
X59374319Y-20474625D02*
X59326700Y-20569863D01*
X59326700Y-20569863D02*
X59279080Y-20617482D01*
X59279080Y-20617482D02*
X59183842Y-20665101D01*
X59183842Y-20665101D02*
X59088604Y-20665101D01*
X59088604Y-20665101D02*
X58993366Y-20617482D01*
X58993366Y-20617482D02*
X58945747Y-20569863D01*
X58945747Y-20569863D02*
X58898128Y-20474625D01*
X58898128Y-20474625D02*
X58850509Y-20284149D01*
X58850509Y-20284149D02*
X58802890Y-20188911D01*
X58802890Y-20188911D02*
X58755271Y-20141292D01*
X58755271Y-20141292D02*
X58660033Y-20093673D01*
X58660033Y-20093673D02*
X58564795Y-20093673D01*
X58564795Y-20093673D02*
X58469557Y-20141292D01*
X58469557Y-20141292D02*
X58421938Y-20188911D01*
X58421938Y-20188911D02*
X58374319Y-20284149D01*
X58374319Y-20284149D02*
X58374319Y-20522244D01*
X58374319Y-20522244D02*
X58421938Y-20665101D01*
X58374319Y-20998435D02*
X59374319Y-21236530D01*
X59374319Y-21236530D02*
X58660033Y-21427006D01*
X58660033Y-21427006D02*
X59374319Y-21617482D01*
X59374319Y-21617482D02*
X58374319Y-21855578D01*
X58374319Y-22141292D02*
X58374319Y-22760339D01*
X58374319Y-22760339D02*
X58755271Y-22427006D01*
X58755271Y-22427006D02*
X58755271Y-22569863D01*
X58755271Y-22569863D02*
X58802890Y-22665101D01*
X58802890Y-22665101D02*
X58850509Y-22712720D01*
X58850509Y-22712720D02*
X58945747Y-22760339D01*
X58945747Y-22760339D02*
X59183842Y-22760339D01*
X59183842Y-22760339D02*
X59279080Y-22712720D01*
X59279080Y-22712720D02*
X59326700Y-22665101D01*
X59326700Y-22665101D02*
X59374319Y-22569863D01*
X59374319Y-22569863D02*
X59374319Y-22284149D01*
X59374319Y-22284149D02*
X59326700Y-22188911D01*
X59326700Y-22188911D02*
X59279080Y-22141292D01*
X40877506Y-89299819D02*
X40877506Y-90014104D01*
X40877506Y-90014104D02*
X40925125Y-90156961D01*
X40925125Y-90156961D02*
X41020363Y-90252200D01*
X41020363Y-90252200D02*
X41163220Y-90299819D01*
X41163220Y-90299819D02*
X41258458Y-90299819D01*
X40353696Y-90299819D02*
X40163220Y-90299819D01*
X40163220Y-90299819D02*
X40067982Y-90252200D01*
X40067982Y-90252200D02*
X40020363Y-90204580D01*
X40020363Y-90204580D02*
X39925125Y-90061723D01*
X39925125Y-90061723D02*
X39877506Y-89871247D01*
X39877506Y-89871247D02*
X39877506Y-89490295D01*
X39877506Y-89490295D02*
X39925125Y-89395057D01*
X39925125Y-89395057D02*
X39972744Y-89347438D01*
X39972744Y-89347438D02*
X40067982Y-89299819D01*
X40067982Y-89299819D02*
X40258458Y-89299819D01*
X40258458Y-89299819D02*
X40353696Y-89347438D01*
X40353696Y-89347438D02*
X40401315Y-89395057D01*
X40401315Y-89395057D02*
X40448934Y-89490295D01*
X40448934Y-89490295D02*
X40448934Y-89728390D01*
X40448934Y-89728390D02*
X40401315Y-89823628D01*
X40401315Y-89823628D02*
X40353696Y-89871247D01*
X40353696Y-89871247D02*
X40258458Y-89918866D01*
X40258458Y-89918866D02*
X40067982Y-89918866D01*
X40067982Y-89918866D02*
X39972744Y-89871247D01*
X39972744Y-89871247D02*
X39925125Y-89823628D01*
X39925125Y-89823628D02*
X39877506Y-89728390D01*
X168639160Y-26109819D02*
X168639160Y-26824104D01*
X168639160Y-26824104D02*
X168686779Y-26966961D01*
X168686779Y-26966961D02*
X168782017Y-27062200D01*
X168782017Y-27062200D02*
X168924874Y-27109819D01*
X168924874Y-27109819D02*
X169020112Y-27109819D01*
X167639160Y-27109819D02*
X168210588Y-27109819D01*
X167924874Y-27109819D02*
X167924874Y-26109819D01*
X167924874Y-26109819D02*
X168020112Y-26252676D01*
X168020112Y-26252676D02*
X168115350Y-26347914D01*
X168115350Y-26347914D02*
X168210588Y-26395533D01*
X130039160Y-26109819D02*
X130039160Y-26824104D01*
X130039160Y-26824104D02*
X130086779Y-26966961D01*
X130086779Y-26966961D02*
X130182017Y-27062200D01*
X130182017Y-27062200D02*
X130324874Y-27109819D01*
X130324874Y-27109819D02*
X130420112Y-27109819D01*
X129658207Y-26109819D02*
X129039160Y-26109819D01*
X129039160Y-26109819D02*
X129372493Y-26490771D01*
X129372493Y-26490771D02*
X129229636Y-26490771D01*
X129229636Y-26490771D02*
X129134398Y-26538390D01*
X129134398Y-26538390D02*
X129086779Y-26586009D01*
X129086779Y-26586009D02*
X129039160Y-26681247D01*
X129039160Y-26681247D02*
X129039160Y-26919342D01*
X129039160Y-26919342D02*
X129086779Y-27014580D01*
X129086779Y-27014580D02*
X129134398Y-27062200D01*
X129134398Y-27062200D02*
X129229636Y-27109819D01*
X129229636Y-27109819D02*
X129515350Y-27109819D01*
X129515350Y-27109819D02*
X129610588Y-27062200D01*
X129610588Y-27062200D02*
X129658207Y-27014580D01*
X110739160Y-26109819D02*
X110739160Y-26824104D01*
X110739160Y-26824104D02*
X110786779Y-26966961D01*
X110786779Y-26966961D02*
X110882017Y-27062200D01*
X110882017Y-27062200D02*
X111024874Y-27109819D01*
X111024874Y-27109819D02*
X111120112Y-27109819D01*
X109834398Y-26443152D02*
X109834398Y-27109819D01*
X110072493Y-26062200D02*
X110310588Y-26776485D01*
X110310588Y-26776485D02*
X109691541Y-26776485D01*
X149339160Y-26109819D02*
X149339160Y-26824104D01*
X149339160Y-26824104D02*
X149386779Y-26966961D01*
X149386779Y-26966961D02*
X149482017Y-27062200D01*
X149482017Y-27062200D02*
X149624874Y-27109819D01*
X149624874Y-27109819D02*
X149720112Y-27109819D01*
X148910588Y-26205057D02*
X148862969Y-26157438D01*
X148862969Y-26157438D02*
X148767731Y-26109819D01*
X148767731Y-26109819D02*
X148529636Y-26109819D01*
X148529636Y-26109819D02*
X148434398Y-26157438D01*
X148434398Y-26157438D02*
X148386779Y-26205057D01*
X148386779Y-26205057D02*
X148339160Y-26300295D01*
X148339160Y-26300295D02*
X148339160Y-26395533D01*
X148339160Y-26395533D02*
X148386779Y-26538390D01*
X148386779Y-26538390D02*
X148958207Y-27109819D01*
X148958207Y-27109819D02*
X148339160Y-27109819D01*
D11*
X35010000Y-75060000D02*
X35010000Y-86860000D01*
X39110000Y-75060000D02*
X35010000Y-75060000D01*
X39110000Y-86860000D02*
X35010000Y-86860000D01*
X40610000Y-80960000D02*
X41610000Y-80960000D01*
X41110000Y-80460000D02*
X41110000Y-81460000D01*
X43110000Y-75060000D02*
X47210000Y-75060000D01*
X47210000Y-75060000D02*
X47210000Y-77460000D01*
X47210000Y-79660000D02*
X47210000Y-82260000D01*
X47210000Y-84460000D02*
X47210000Y-86860000D01*
X47210000Y-86860000D02*
X43110000Y-86860000D01*
X44110000Y-80960000D02*
G75*
G03*
X44110000Y-80960000I-3000000J0D01*
G01*
D10*
X50240000Y-21016000D02*
X50240000Y-51496000D01*
X32460000Y-21016000D02*
X50240000Y-21016000D01*
X32460000Y-21016000D02*
X32460000Y-51496000D01*
X50240000Y-51496000D02*
X32460000Y-51496000D01*
D12*
X64650000Y-22538000D02*
X64650000Y-25078000D01*
X64650000Y-25078000D02*
X65819000Y-25078000D01*
X75881000Y-25078000D02*
X76990000Y-25078000D01*
X75958000Y-20400000D02*
X65742000Y-20400000D01*
X76990000Y-25078000D02*
X76990000Y-22641000D01*
X65475000Y-24760000D02*
G75*
G03*
X65475000Y-24760000I-125000J0D01*
G01*
X83950000Y-22538000D02*
X83950000Y-25078000D01*
X83950000Y-25078000D02*
X85119000Y-25078000D01*
X95181000Y-25078000D02*
X96290000Y-25078000D01*
X95258000Y-20400000D02*
X85042000Y-20400000D01*
X96290000Y-25078000D02*
X96290000Y-22641000D01*
X84775000Y-24760000D02*
G75*
G03*
X84775000Y-24760000I-125000J0D01*
G01*
X53362500Y-24799500D02*
X53362500Y-24630500D01*
X55173500Y-24799500D02*
X53426500Y-24799500D01*
X58062500Y-24799500D02*
X56251500Y-24799500D01*
X58062500Y-24630500D02*
X58062500Y-24799500D01*
X54696500Y-23811500D02*
X56728500Y-23811500D01*
X56728500Y-23811500D02*
X56728500Y-22541500D01*
X55077500Y-23430500D02*
X56347500Y-23430500D01*
X56347500Y-23430500D02*
X56347500Y-22541500D01*
X53362500Y-23168500D02*
X53362500Y-22930500D01*
X55331500Y-23049500D02*
X56093500Y-23049500D01*
X58062500Y-22930500D02*
X58062500Y-23168500D01*
X55331500Y-22668500D02*
X56093500Y-22668500D01*
X54696500Y-22541500D02*
X54696500Y-23811500D01*
X54696500Y-22541500D02*
X55077500Y-22541500D01*
X55077500Y-22541500D02*
X55077500Y-23430500D01*
X56347500Y-22541500D02*
X56728500Y-22541500D01*
X53362500Y-21468500D02*
X53362500Y-21299500D01*
X55173500Y-21299500D02*
X53362500Y-21299500D01*
X58062500Y-21299500D02*
X58062500Y-21468500D01*
X58062500Y-21299500D02*
X56251500Y-21299500D01*
X54412500Y-20763500D02*
X57012500Y-20763500D01*
X54621500Y-20763500D02*
X54621500Y-21299500D01*
X55283500Y-20763500D02*
X55283500Y-21299500D01*
X56138500Y-20763500D02*
X56138500Y-21299500D01*
X56706500Y-20763500D02*
X56706500Y-21299500D01*
X54412500Y-20299500D02*
X54412500Y-20763500D01*
X54412500Y-20299500D02*
X57012500Y-20299500D01*
X57012500Y-20299500D02*
X57012500Y-20763500D01*
X47700000Y-93962000D02*
X47700000Y-91422000D01*
X47700000Y-91422000D02*
X46531000Y-91422000D01*
X36469000Y-91422000D02*
X35360000Y-91422000D01*
X36392000Y-96100000D02*
X46608000Y-96100000D01*
X35360000Y-91422000D02*
X35360000Y-93859000D01*
X47125000Y-91740000D02*
G75*
G03*
X47125000Y-91740000I-125000J0D01*
G01*
X161150000Y-22538000D02*
X161150000Y-25078000D01*
X161150000Y-25078000D02*
X162319000Y-25078000D01*
X172381000Y-25078000D02*
X173490000Y-25078000D01*
X172458000Y-20400000D02*
X162242000Y-20400000D01*
X173490000Y-25078000D02*
X173490000Y-22641000D01*
X161975000Y-24760000D02*
G75*
G03*
X161975000Y-24760000I-125000J0D01*
G01*
X122550000Y-22538000D02*
X122550000Y-25078000D01*
X122550000Y-25078000D02*
X123719000Y-25078000D01*
X133781000Y-25078000D02*
X134890000Y-25078000D01*
X133858000Y-20400000D02*
X123642000Y-20400000D01*
X134890000Y-25078000D02*
X134890000Y-22641000D01*
X123375000Y-24760000D02*
G75*
G03*
X123375000Y-24760000I-125000J0D01*
G01*
X103250000Y-22538000D02*
X103250000Y-25078000D01*
X103250000Y-25078000D02*
X104419000Y-25078000D01*
X114481000Y-25078000D02*
X115590000Y-25078000D01*
X114558000Y-20400000D02*
X104342000Y-20400000D01*
X115590000Y-25078000D02*
X115590000Y-22641000D01*
X104075000Y-24760000D02*
G75*
G03*
X104075000Y-24760000I-125000J0D01*
G01*
X141850000Y-22538000D02*
X141850000Y-25078000D01*
X141850000Y-25078000D02*
X143019000Y-25078000D01*
X153081000Y-25078000D02*
X154190000Y-25078000D01*
X153158000Y-20400000D02*
X142942000Y-20400000D01*
X154190000Y-25078000D02*
X154190000Y-22641000D01*
X142675000Y-24760000D02*
G75*
G03*
X142675000Y-24760000I-125000J0D01*
G01*
%LPC*%
D13*
X42237000Y-22286000D02*
G75*
G03*
X42237000Y-22286000I-125000J0D01*
G01*
X40713000Y-22286000D02*
G75*
G03*
X40713000Y-22286000I-125000J0D01*
G01*
X42237000Y-24826000D02*
G75*
G03*
X42237000Y-24826000I-125000J0D01*
G01*
X40713000Y-24826000D02*
G75*
G03*
X40713000Y-24826000I-125000J0D01*
G01*
X42237000Y-27366000D02*
G75*
G03*
X42237000Y-27366000I-125000J0D01*
G01*
X40713000Y-27366000D02*
G75*
G03*
X40713000Y-27366000I-125000J0D01*
G01*
X42237000Y-29906000D02*
G75*
G03*
X42237000Y-29906000I-125000J0D01*
G01*
X40713000Y-29906000D02*
G75*
G03*
X40713000Y-29906000I-125000J0D01*
G01*
X42237000Y-32446000D02*
G75*
G03*
X42237000Y-32446000I-125000J0D01*
G01*
X40713000Y-32446000D02*
G75*
G03*
X40713000Y-32446000I-125000J0D01*
G01*
X42237000Y-34986000D02*
G75*
G03*
X42237000Y-34986000I-125000J0D01*
G01*
X40713000Y-34986000D02*
G75*
G03*
X40713000Y-34986000I-125000J0D01*
G01*
X42237000Y-37526000D02*
G75*
G03*
X42237000Y-37526000I-125000J0D01*
G01*
X40713000Y-37526000D02*
G75*
G03*
X40713000Y-37526000I-125000J0D01*
G01*
X42237000Y-40066000D02*
G75*
G03*
X42237000Y-40066000I-125000J0D01*
G01*
X40713000Y-40066000D02*
G75*
G03*
X40713000Y-40066000I-125000J0D01*
G01*
X42237000Y-42606000D02*
G75*
G03*
X42237000Y-42606000I-125000J0D01*
G01*
X40713000Y-42606000D02*
G75*
G03*
X40713000Y-42606000I-125000J0D01*
G01*
X42237000Y-45146000D02*
G75*
G03*
X42237000Y-45146000I-125000J0D01*
G01*
X40713000Y-45146000D02*
G75*
G03*
X40713000Y-45146000I-125000J0D01*
G01*
X42237000Y-47686000D02*
G75*
G03*
X42237000Y-47686000I-125000J0D01*
G01*
X40713000Y-47686000D02*
G75*
G03*
X40713000Y-47686000I-125000J0D01*
G01*
X42237000Y-50226000D02*
G75*
G03*
X42237000Y-50226000I-125000J0D01*
G01*
X40713000Y-50226000D02*
G75*
G03*
X40713000Y-50226000I-125000J0D01*
G01*
D14*
X36270000Y-22794000D02*
X35254000Y-22794000D01*
X35254000Y-21778000D01*
X36270000Y-21778000D01*
X36270000Y-22794000D01*
G36*
X36270000Y-22794000D02*
G01*
X35254000Y-22794000D01*
X35254000Y-21778000D01*
X36270000Y-21778000D01*
X36270000Y-22794000D01*
G37*
X47446000Y-22794000D02*
X46430000Y-22794000D01*
X46430000Y-21778000D01*
X47446000Y-21778000D01*
X47446000Y-22794000D01*
G36*
X47446000Y-22794000D02*
G01*
X46430000Y-22794000D01*
X46430000Y-21778000D01*
X47446000Y-21778000D01*
X47446000Y-22794000D01*
G37*
X36270000Y-25334000D02*
X35254000Y-25334000D01*
X35254000Y-24318000D01*
X36270000Y-24318000D01*
X36270000Y-25334000D01*
G36*
X36270000Y-25334000D02*
G01*
X35254000Y-25334000D01*
X35254000Y-24318000D01*
X36270000Y-24318000D01*
X36270000Y-25334000D01*
G37*
X47446000Y-25334000D02*
X46430000Y-25334000D01*
X46430000Y-24318000D01*
X47446000Y-24318000D01*
X47446000Y-25334000D01*
G36*
X47446000Y-25334000D02*
G01*
X46430000Y-25334000D01*
X46430000Y-24318000D01*
X47446000Y-24318000D01*
X47446000Y-25334000D01*
G37*
X36270000Y-27874000D02*
X35254000Y-27874000D01*
X35254000Y-26858000D01*
X36270000Y-26858000D01*
X36270000Y-27874000D01*
G36*
X36270000Y-27874000D02*
G01*
X35254000Y-27874000D01*
X35254000Y-26858000D01*
X36270000Y-26858000D01*
X36270000Y-27874000D01*
G37*
X47446000Y-27874000D02*
X46430000Y-27874000D01*
X46430000Y-26858000D01*
X47446000Y-26858000D01*
X47446000Y-27874000D01*
G36*
X47446000Y-27874000D02*
G01*
X46430000Y-27874000D01*
X46430000Y-26858000D01*
X47446000Y-26858000D01*
X47446000Y-27874000D01*
G37*
X36270000Y-30414000D02*
X35254000Y-30414000D01*
X35254000Y-29398000D01*
X36270000Y-29398000D01*
X36270000Y-30414000D01*
G36*
X36270000Y-30414000D02*
G01*
X35254000Y-30414000D01*
X35254000Y-29398000D01*
X36270000Y-29398000D01*
X36270000Y-30414000D01*
G37*
X47446000Y-30414000D02*
X46430000Y-30414000D01*
X46430000Y-29398000D01*
X47446000Y-29398000D01*
X47446000Y-30414000D01*
G36*
X47446000Y-30414000D02*
G01*
X46430000Y-30414000D01*
X46430000Y-29398000D01*
X47446000Y-29398000D01*
X47446000Y-30414000D01*
G37*
X36270000Y-32954000D02*
X35254000Y-32954000D01*
X35254000Y-31938000D01*
X36270000Y-31938000D01*
X36270000Y-32954000D01*
G36*
X36270000Y-32954000D02*
G01*
X35254000Y-32954000D01*
X35254000Y-31938000D01*
X36270000Y-31938000D01*
X36270000Y-32954000D01*
G37*
X47446000Y-32954000D02*
X46430000Y-32954000D01*
X46430000Y-31938000D01*
X47446000Y-31938000D01*
X47446000Y-32954000D01*
G36*
X47446000Y-32954000D02*
G01*
X46430000Y-32954000D01*
X46430000Y-31938000D01*
X47446000Y-31938000D01*
X47446000Y-32954000D01*
G37*
X36270000Y-35494000D02*
X35254000Y-35494000D01*
X35254000Y-34478000D01*
X36270000Y-34478000D01*
X36270000Y-35494000D01*
G36*
X36270000Y-35494000D02*
G01*
X35254000Y-35494000D01*
X35254000Y-34478000D01*
X36270000Y-34478000D01*
X36270000Y-35494000D01*
G37*
X47446000Y-35494000D02*
X46430000Y-35494000D01*
X46430000Y-34478000D01*
X47446000Y-34478000D01*
X47446000Y-35494000D01*
G36*
X47446000Y-35494000D02*
G01*
X46430000Y-35494000D01*
X46430000Y-34478000D01*
X47446000Y-34478000D01*
X47446000Y-35494000D01*
G37*
X36270000Y-38034000D02*
X35254000Y-38034000D01*
X35254000Y-37018000D01*
X36270000Y-37018000D01*
X36270000Y-38034000D01*
G36*
X36270000Y-38034000D02*
G01*
X35254000Y-38034000D01*
X35254000Y-37018000D01*
X36270000Y-37018000D01*
X36270000Y-38034000D01*
G37*
X47446000Y-38034000D02*
X46430000Y-38034000D01*
X46430000Y-37018000D01*
X47446000Y-37018000D01*
X47446000Y-38034000D01*
G36*
X47446000Y-38034000D02*
G01*
X46430000Y-38034000D01*
X46430000Y-37018000D01*
X47446000Y-37018000D01*
X47446000Y-38034000D01*
G37*
X36270000Y-40574000D02*
X35254000Y-40574000D01*
X35254000Y-39558000D01*
X36270000Y-39558000D01*
X36270000Y-40574000D01*
G36*
X36270000Y-40574000D02*
G01*
X35254000Y-40574000D01*
X35254000Y-39558000D01*
X36270000Y-39558000D01*
X36270000Y-40574000D01*
G37*
X47446000Y-40574000D02*
X46430000Y-40574000D01*
X46430000Y-39558000D01*
X47446000Y-39558000D01*
X47446000Y-40574000D01*
G36*
X47446000Y-40574000D02*
G01*
X46430000Y-40574000D01*
X46430000Y-39558000D01*
X47446000Y-39558000D01*
X47446000Y-40574000D01*
G37*
X36270000Y-43114000D02*
X35254000Y-43114000D01*
X35254000Y-42098000D01*
X36270000Y-42098000D01*
X36270000Y-43114000D01*
G36*
X36270000Y-43114000D02*
G01*
X35254000Y-43114000D01*
X35254000Y-42098000D01*
X36270000Y-42098000D01*
X36270000Y-43114000D01*
G37*
X47446000Y-43114000D02*
X46430000Y-43114000D01*
X46430000Y-42098000D01*
X47446000Y-42098000D01*
X47446000Y-43114000D01*
G36*
X47446000Y-43114000D02*
G01*
X46430000Y-43114000D01*
X46430000Y-42098000D01*
X47446000Y-42098000D01*
X47446000Y-43114000D01*
G37*
X36270000Y-45654000D02*
X35254000Y-45654000D01*
X35254000Y-44638000D01*
X36270000Y-44638000D01*
X36270000Y-45654000D01*
G36*
X36270000Y-45654000D02*
G01*
X35254000Y-45654000D01*
X35254000Y-44638000D01*
X36270000Y-44638000D01*
X36270000Y-45654000D01*
G37*
X47446000Y-45654000D02*
X46430000Y-45654000D01*
X46430000Y-44638000D01*
X47446000Y-44638000D01*
X47446000Y-45654000D01*
G36*
X47446000Y-45654000D02*
G01*
X46430000Y-45654000D01*
X46430000Y-44638000D01*
X47446000Y-44638000D01*
X47446000Y-45654000D01*
G37*
X36270000Y-48194000D02*
X35254000Y-48194000D01*
X35254000Y-47178000D01*
X36270000Y-47178000D01*
X36270000Y-48194000D01*
G36*
X36270000Y-48194000D02*
G01*
X35254000Y-48194000D01*
X35254000Y-47178000D01*
X36270000Y-47178000D01*
X36270000Y-48194000D01*
G37*
X47446000Y-48194000D02*
X46430000Y-48194000D01*
X46430000Y-47178000D01*
X47446000Y-47178000D01*
X47446000Y-48194000D01*
G36*
X47446000Y-48194000D02*
G01*
X46430000Y-48194000D01*
X46430000Y-47178000D01*
X47446000Y-47178000D01*
X47446000Y-48194000D01*
G37*
X36270000Y-50734000D02*
X35254000Y-50734000D01*
X35254000Y-49718000D01*
X36270000Y-49718000D01*
X36270000Y-50734000D01*
G36*
X36270000Y-50734000D02*
G01*
X35254000Y-50734000D01*
X35254000Y-49718000D01*
X36270000Y-49718000D01*
X36270000Y-50734000D01*
G37*
X47446000Y-50734000D02*
X46430000Y-50734000D01*
X46430000Y-49718000D01*
X47446000Y-49718000D01*
X47446000Y-50734000D01*
G36*
X47446000Y-50734000D02*
G01*
X46430000Y-50734000D01*
X46430000Y-49718000D01*
X47446000Y-49718000D01*
X47446000Y-50734000D01*
G37*
D15*
X51000000Y-64750000D03*
D16*
X33610000Y-78460000D03*
X33610000Y-83460000D03*
X33610000Y-80960000D03*
D17*
X41110000Y-75360000D03*
X41110000Y-86560000D03*
D16*
X48110000Y-83460000D03*
X48110000Y-78460000D03*
D18*
X33670000Y-70775000D03*
X40670000Y-70775000D03*
X33670000Y-69025000D03*
X40670000Y-69025000D03*
D19*
X42470000Y-66925000D03*
X38470000Y-66925000D03*
X35470000Y-66925000D03*
X43470000Y-71125000D03*
D20*
X36284000Y-53766000D03*
D21*
X38824000Y-53766000D03*
X41364000Y-53766000D03*
X43904000Y-53766000D03*
X46444000Y-53766000D03*
D22*
X32200000Y-58632000D03*
X32200000Y-61632000D03*
D23*
X38949500Y-60632000D03*
X38949500Y-58632000D03*
D15*
X80500000Y-26500000D03*
D24*
X48970000Y-22286000D03*
D25*
X48970000Y-22286000D03*
D26*
X47192000Y-22286000D03*
D27*
X35508000Y-22286000D03*
D24*
X33730000Y-22286000D03*
X48970000Y-24826000D03*
D26*
X47192000Y-24826000D03*
D27*
X35508000Y-24826000D03*
D24*
X33730000Y-24826000D03*
X48970000Y-27366000D03*
D26*
X47192000Y-27366000D03*
D27*
X35508000Y-27366000D03*
D24*
X33730000Y-27366000D03*
X48970000Y-29906000D03*
D26*
X47192000Y-29906000D03*
D27*
X35508000Y-29906000D03*
D24*
X33730000Y-29906000D03*
X48970000Y-32446000D03*
D26*
X47192000Y-32446000D03*
D27*
X35508000Y-32446000D03*
D24*
X33730000Y-32446000D03*
X48970000Y-34986000D03*
D26*
X47192000Y-34986000D03*
D27*
X35508000Y-34986000D03*
D24*
X33730000Y-34986000D03*
X48970000Y-37526000D03*
D26*
X47192000Y-37526000D03*
D27*
X35508000Y-37526000D03*
D24*
X33730000Y-37526000D03*
X48970000Y-40066000D03*
D26*
X47192000Y-40066000D03*
D27*
X35508000Y-40066000D03*
D24*
X33730000Y-40066000D03*
X48970000Y-42606000D03*
D26*
X47192000Y-42606000D03*
D27*
X35508000Y-42606000D03*
D24*
X33730000Y-42606000D03*
X48970000Y-45146000D03*
D26*
X47192000Y-45146000D03*
D27*
X35508000Y-45146000D03*
D24*
X33730000Y-45146000D03*
X48970000Y-47686000D03*
D26*
X47192000Y-47686000D03*
D27*
X35508000Y-47686000D03*
D24*
X33730000Y-47686000D03*
X48970000Y-50226000D03*
D26*
X47192000Y-50226000D03*
D27*
X35508000Y-50226000D03*
D24*
X33730000Y-50226000D03*
D28*
X36524000Y-22286000D03*
X36524000Y-24826000D03*
X36524000Y-27366000D03*
X36524000Y-29906000D03*
X36524000Y-32446000D03*
X36524000Y-34986000D03*
X36524000Y-37526000D03*
X36524000Y-40066000D03*
X36524000Y-42606000D03*
X36524000Y-45146000D03*
X36524000Y-47686000D03*
X36524000Y-50226000D03*
D29*
X46176000Y-50226000D03*
X46176000Y-47686000D03*
X46176000Y-45146000D03*
X46176000Y-42606000D03*
X46176000Y-40066000D03*
X46176000Y-37526000D03*
X46176000Y-34986000D03*
X46176000Y-32446000D03*
X46176000Y-29906000D03*
X46176000Y-27366000D03*
X46176000Y-24826000D03*
X46176000Y-22286000D03*
D15*
X157700000Y-26500000D03*
X52500000Y-92500000D03*
X119100000Y-26500000D03*
D30*
X66350000Y-25386000D03*
X67350000Y-25386000D03*
X68350000Y-25385000D03*
X69350000Y-25385000D03*
X70350000Y-25385000D03*
X71350000Y-25385000D03*
X72350000Y-25385000D03*
X73350000Y-25385000D03*
X74350000Y-25385000D03*
X75350000Y-25385000D03*
D31*
X65050000Y-21510000D03*
X76650000Y-21510000D03*
D30*
X85650000Y-25386000D03*
X86650000Y-25386000D03*
X87650000Y-25385000D03*
X88650000Y-25385000D03*
X89650000Y-25385000D03*
X90650000Y-25385000D03*
X91650000Y-25385000D03*
X92650000Y-25385000D03*
X93650000Y-25385000D03*
X94650000Y-25385000D03*
D31*
X84350000Y-21510000D03*
X95950000Y-21510000D03*
D22*
X55712500Y-24449500D03*
X55712500Y-21649500D03*
D32*
X58312500Y-23899500D03*
X58312500Y-22199500D03*
X53112500Y-23899500D03*
X53112500Y-22199500D03*
D30*
X46000000Y-91114000D03*
X45000000Y-91114000D03*
X44000000Y-91115000D03*
X43000000Y-91115000D03*
X42000000Y-91115000D03*
X41000000Y-91115000D03*
X40000000Y-91115000D03*
X39000000Y-91115000D03*
X38000000Y-91115000D03*
X37000000Y-91115000D03*
D31*
X47300000Y-94990000D03*
X35700000Y-94990000D03*
D30*
X162850000Y-25386000D03*
X163850000Y-25386000D03*
X164850000Y-25385000D03*
X165850000Y-25385000D03*
X166850000Y-25385000D03*
X167850000Y-25385000D03*
X168850000Y-25385000D03*
X169850000Y-25385000D03*
X170850000Y-25385000D03*
X171850000Y-25385000D03*
D31*
X161550000Y-21510000D03*
X173150000Y-21510000D03*
D30*
X124250000Y-25386000D03*
X125250000Y-25386000D03*
X126250000Y-25385000D03*
X127250000Y-25385000D03*
X128250000Y-25385000D03*
X129250000Y-25385000D03*
X130250000Y-25385000D03*
X131250000Y-25385000D03*
X132250000Y-25385000D03*
X133250000Y-25385000D03*
D31*
X122950000Y-21510000D03*
X134550000Y-21510000D03*
D30*
X104950000Y-25386000D03*
X105950000Y-25386000D03*
X106950000Y-25385000D03*
X107950000Y-25385000D03*
X108950000Y-25385000D03*
X109950000Y-25385000D03*
X110950000Y-25385000D03*
X111950000Y-25385000D03*
X112950000Y-25385000D03*
X113950000Y-25385000D03*
D31*
X103650000Y-21510000D03*
X115250000Y-21510000D03*
D30*
X143550000Y-25386000D03*
X144550000Y-25386000D03*
X145550000Y-25385000D03*
X146550000Y-25385000D03*
X147550000Y-25385000D03*
X148550000Y-25385000D03*
X149550000Y-25385000D03*
X150550000Y-25385000D03*
X151550000Y-25385000D03*
X152550000Y-25385000D03*
D31*
X142250000Y-21510000D03*
X153850000Y-21510000D03*
%LPD*%
M02*
