M48
; DRILL file {KiCad 7.0.8} date Sat 21 Oct 2023 10:21:05 PM PDT
; FORMAT={-:-/ absolute / metric / decimal}
; #@! TF.CreationDate,2023-10-21T22:21:05-07:00
; #@! TF.GenerationSoftware,Kicad,Pcbnew,7.0.8
; #@! TF.FileFunction,Plated,1,2,PTH
FMAT,2
METRIC
; #@! TA.AperFunction,Plated,PTH,ViaDrill
T1C0.300
; #@! TA.AperFunction,Plated,PTH,ViaDrill
T2C0.400
; #@! TA.AperFunction,Plated,PTH,ComponentDrill
T3C0.400
; #@! TA.AperFunction,Plated,PTH,ComponentDrill
T4C0.900
; #@! TA.AperFunction,Plated,PTH,ComponentDrill
T5C1.000
; #@! TA.AperFunction,Plated,PTH,ComponentDrill
T6C1.100
; #@! TA.AperFunction,Plated,PTH,ComponentDrill
T7C1.500
%
G90
G05
T1
X35.15Y-23.596
X36.15Y-23.069
X37.15Y-22.543
X38.15Y-22.017
X39.15Y-21.49
X42.15Y-26.7
X54.45Y-23.596
X55.45Y-23.069
X56.45Y-22.543
X57.45Y-22.017
X58.45Y-21.49
X61.45Y-26.7
X73.75Y-23.596
X74.75Y-23.069
X75.75Y-22.543
X76.75Y-22.017
X77.75Y-21.49
X80.75Y-26.7
X93.05Y-23.596
X94.05Y-23.069
X95.05Y-22.543
X96.05Y-22.017
X97.05Y-21.49
X100.05Y-26.7
X112.35Y-23.596
X113.35Y-23.069
X114.35Y-22.543
X115.35Y-22.017
X116.35Y-21.49
X119.35Y-26.7
X131.65Y-23.596
X132.65Y-23.069
X133.65Y-22.543
X134.65Y-22.017
X135.65Y-21.49
X138.65Y-26.7
X144.058Y-26.692
X144.83Y-26.72
X145.553Y-26.697
X146.278Y-26.722
X147.0Y-26.7
X150.566Y-38.935
X150.987Y-38.509
X151.418Y-38.092
X151.894Y-37.728
X156.5Y-78.0
X158.75Y-54.5
X162.1Y-84.9
X162.7Y-85.55
X166.0Y-89.75
X166.5Y-93.5
X167.4Y-84.25
X167.974Y-88.5
X174.393Y-55.463
X175.0Y-55.6
T2
X33.85Y-31.75
X37.15Y-35.349
X42.648Y-30.299
X45.2Y-33.25
X46.4Y-31.75
X53.15Y-31.75
X56.45Y-35.349
X61.948Y-30.299
X64.5Y-33.25
X72.45Y-31.75
X75.75Y-35.349
X81.248Y-30.299
X83.8Y-33.25
X91.75Y-31.75
X95.05Y-35.349
X100.548Y-30.299
X103.1Y-33.25
X111.05Y-31.75
X114.35Y-35.349
X119.848Y-30.299
X122.4Y-33.25
X130.35Y-31.75
X133.65Y-35.349
X141.7Y-33.25
X145.775Y-24.375
X145.824Y-22.794
X146.3Y-37.0
X151.3Y-29.975
X152.291Y-35.809
X153.153Y-36.703
X163.8Y-89.5
X168.53Y-66.047
X173.276Y-53.676
X173.309Y-52.526
X175.726Y-54.5
T3
X164.874Y-22.286
X164.874Y-24.826
X164.874Y-27.366
X164.874Y-29.906
X164.874Y-32.446
X164.874Y-34.986
X164.874Y-37.526
X164.874Y-40.066
X164.874Y-42.606
X164.874Y-45.146
X164.874Y-47.686
X164.874Y-50.226
X166.398Y-22.286
X166.398Y-24.826
X166.398Y-27.366
X166.398Y-29.906
X166.398Y-32.446
X166.398Y-34.986
X166.398Y-37.526
X166.398Y-40.066
X166.398Y-42.606
X166.398Y-45.146
X166.398Y-47.686
X166.398Y-50.226
T4
X168.05Y-58.632
X168.05Y-60.632
T5
X158.89Y-78.46
X158.89Y-83.46
X160.556Y-53.766
X163.096Y-53.766
X165.636Y-53.766
X168.176Y-53.766
X170.716Y-53.766
X173.39Y-78.46
X173.39Y-80.96
X173.39Y-83.46
T6
X158.016Y-22.286
X158.016Y-22.286
X158.016Y-24.826
X158.016Y-27.366
X158.016Y-29.906
X158.016Y-32.446
X158.016Y-34.986
X158.016Y-37.526
X158.016Y-40.066
X158.016Y-42.606
X158.016Y-45.146
X158.016Y-47.686
X158.016Y-50.226
X173.256Y-22.286
X173.256Y-22.286
X173.256Y-24.826
X173.256Y-27.366
X173.256Y-29.906
X173.256Y-32.446
X173.256Y-34.986
X173.256Y-37.526
X173.256Y-40.066
X173.256Y-42.606
X173.256Y-45.146
X173.256Y-47.686
X173.256Y-50.226
T5
X163.78Y-66.925G85X163.28Y-66.925
G05
X164.78Y-71.125G85X164.28Y-71.125
G05
X168.78Y-71.125G85X168.28Y-71.125
G05
X171.78Y-71.125G85X171.28Y-71.125
G05
T7
X166.54Y-75.36G85X165.24Y-75.36
G05
X166.54Y-86.56G85X165.24Y-86.56
G05
T0
M30
