%TF.GenerationSoftware,KiCad,Pcbnew,7.0.5-7.0.5~ubuntu22.04.1*%
%TF.CreationDate,2023-06-01T20:12:16-07:00*%
%TF.ProjectId,KeysOnRails,4b657973-4f6e-4526-9169-6c732e6b6963,rev?*%
%TF.SameCoordinates,Original*%
%TF.FileFunction,Drillmap*%
%TF.FilePolarity,Positive*%
%FSLAX45Y45*%
G04 Gerber Fmt 4.5, Leading zero omitted, Abs format (unit mm)*
G04 Created by KiCad (PCBNEW 7.0.5-7.0.5~ubuntu22.04.1) date 2023-06-01 20:12:16*
%MOMM*%
%LPD*%
G01*
G04 APERTURE LIST*
%ADD10C,0.100000*%
%ADD11C,0.200000*%
%ADD12C,0.040000*%
G04 APERTURE END LIST*
D10*
X4320000Y-10870000D02*
G75*
G03*
X4320000Y-10870000I-150000J0D01*
G01*
X3825000Y-3100000D02*
X5875000Y-3100000D01*
X5875000Y-11149000D01*
X3825000Y-11149000D01*
X3825000Y-3100000D01*
D11*
D12*
X4591000Y-3849000D02*
X4631000Y-3889000D01*
X4631000Y-3849000D02*
X4591000Y-3889000D01*
X4691000Y-3849000D02*
X4731000Y-3889000D01*
X4731000Y-3849000D02*
X4691000Y-3889000D01*
X4790950Y-3849000D02*
X4830950Y-3889000D01*
X4830950Y-3849000D02*
X4790950Y-3889000D01*
X4890901Y-3849000D02*
X4930901Y-3889000D01*
X4930901Y-3849000D02*
X4890901Y-3889000D01*
X4991000Y-3849000D02*
X5031000Y-3889000D01*
X5031000Y-3849000D02*
X4991000Y-3889000D01*
X5508390Y-10577290D02*
X5548390Y-10617290D01*
X5548390Y-10577290D02*
X5508390Y-10617290D01*
X5512580Y-5246780D02*
X5552580Y-5286780D01*
X5552580Y-5246780D02*
X5512580Y-5286780D01*
X5512580Y-7026780D02*
X5552580Y-7066780D01*
X5552580Y-7026780D02*
X5512580Y-7066780D01*
X5512580Y-8806780D02*
X5552580Y-8846780D01*
X5552580Y-8806780D02*
X5512580Y-8846780D01*
X5601000Y-7169000D02*
X5641000Y-7209000D01*
X5641000Y-7169000D02*
X5601000Y-7209000D01*
X5605000Y-5396000D02*
X5645000Y-5436000D01*
X5645000Y-5396000D02*
X5605000Y-5436000D01*
X5605000Y-8946000D02*
X5645000Y-8986000D01*
X5645000Y-8946000D02*
X5605000Y-8986000D01*
X5605000Y-10726000D02*
X5645000Y-10766000D01*
X5645000Y-10726000D02*
X5605000Y-10766000D01*
D11*
X4080777Y-11465484D02*
X4080777Y-11265484D01*
X4080777Y-11265484D02*
X4128396Y-11265484D01*
X4128396Y-11265484D02*
X4156967Y-11275008D01*
X4156967Y-11275008D02*
X4176015Y-11294055D01*
X4176015Y-11294055D02*
X4185539Y-11313103D01*
X4185539Y-11313103D02*
X4195063Y-11351198D01*
X4195063Y-11351198D02*
X4195063Y-11379769D01*
X4195063Y-11379769D02*
X4185539Y-11417865D01*
X4185539Y-11417865D02*
X4176015Y-11436912D01*
X4176015Y-11436912D02*
X4156967Y-11455960D01*
X4156967Y-11455960D02*
X4128396Y-11465484D01*
X4128396Y-11465484D02*
X4080777Y-11465484D01*
X4280777Y-11465484D02*
X4280777Y-11332150D01*
X4280777Y-11370246D02*
X4290301Y-11351198D01*
X4290301Y-11351198D02*
X4299824Y-11341674D01*
X4299824Y-11341674D02*
X4318872Y-11332150D01*
X4318872Y-11332150D02*
X4337920Y-11332150D01*
X4404586Y-11465484D02*
X4404586Y-11332150D01*
X4404586Y-11265484D02*
X4395063Y-11275008D01*
X4395063Y-11275008D02*
X4404586Y-11284531D01*
X4404586Y-11284531D02*
X4414110Y-11275008D01*
X4414110Y-11275008D02*
X4404586Y-11265484D01*
X4404586Y-11265484D02*
X4404586Y-11284531D01*
X4528396Y-11465484D02*
X4509348Y-11455960D01*
X4509348Y-11455960D02*
X4499824Y-11436912D01*
X4499824Y-11436912D02*
X4499824Y-11265484D01*
X4633158Y-11465484D02*
X4614110Y-11455960D01*
X4614110Y-11455960D02*
X4604586Y-11436912D01*
X4604586Y-11436912D02*
X4604586Y-11265484D01*
X4861729Y-11465484D02*
X4861729Y-11265484D01*
X4861729Y-11265484D02*
X4928396Y-11408341D01*
X4928396Y-11408341D02*
X4995063Y-11265484D01*
X4995063Y-11265484D02*
X4995063Y-11465484D01*
X5176015Y-11465484D02*
X5176015Y-11360722D01*
X5176015Y-11360722D02*
X5166491Y-11341674D01*
X5166491Y-11341674D02*
X5147444Y-11332150D01*
X5147444Y-11332150D02*
X5109348Y-11332150D01*
X5109348Y-11332150D02*
X5090301Y-11341674D01*
X5176015Y-11455960D02*
X5156967Y-11465484D01*
X5156967Y-11465484D02*
X5109348Y-11465484D01*
X5109348Y-11465484D02*
X5090301Y-11455960D01*
X5090301Y-11455960D02*
X5080777Y-11436912D01*
X5080777Y-11436912D02*
X5080777Y-11417865D01*
X5080777Y-11417865D02*
X5090301Y-11398817D01*
X5090301Y-11398817D02*
X5109348Y-11389293D01*
X5109348Y-11389293D02*
X5156967Y-11389293D01*
X5156967Y-11389293D02*
X5176015Y-11379769D01*
X5271253Y-11332150D02*
X5271253Y-11532150D01*
X5271253Y-11341674D02*
X5290301Y-11332150D01*
X5290301Y-11332150D02*
X5328396Y-11332150D01*
X5328396Y-11332150D02*
X5347444Y-11341674D01*
X5347444Y-11341674D02*
X5356967Y-11351198D01*
X5356967Y-11351198D02*
X5366491Y-11370246D01*
X5366491Y-11370246D02*
X5366491Y-11427388D01*
X5366491Y-11427388D02*
X5356967Y-11446436D01*
X5356967Y-11446436D02*
X5347444Y-11455960D01*
X5347444Y-11455960D02*
X5328396Y-11465484D01*
X5328396Y-11465484D02*
X5290301Y-11465484D01*
X5290301Y-11465484D02*
X5271253Y-11455960D01*
X5452205Y-11446436D02*
X5461729Y-11455960D01*
X5461729Y-11455960D02*
X5452205Y-11465484D01*
X5452205Y-11465484D02*
X5442682Y-11455960D01*
X5442682Y-11455960D02*
X5452205Y-11446436D01*
X5452205Y-11446436D02*
X5452205Y-11465484D01*
X5452205Y-11341674D02*
X5461729Y-11351198D01*
X5461729Y-11351198D02*
X5452205Y-11360722D01*
X5452205Y-11360722D02*
X5442682Y-11351198D01*
X5442682Y-11351198D02*
X5452205Y-11341674D01*
X5452205Y-11341674D02*
X5452205Y-11360722D01*
D12*
X3780000Y-11774000D02*
X3820000Y-11814000D01*
X3820000Y-11774000D02*
X3780000Y-11814000D01*
D11*
X4118872Y-11685484D02*
X4137920Y-11685484D01*
X4137920Y-11685484D02*
X4156967Y-11695008D01*
X4156967Y-11695008D02*
X4166491Y-11704531D01*
X4166491Y-11704531D02*
X4176015Y-11723579D01*
X4176015Y-11723579D02*
X4185539Y-11761674D01*
X4185539Y-11761674D02*
X4185539Y-11809293D01*
X4185539Y-11809293D02*
X4176015Y-11847388D01*
X4176015Y-11847388D02*
X4166491Y-11866436D01*
X4166491Y-11866436D02*
X4156967Y-11875960D01*
X4156967Y-11875960D02*
X4137920Y-11885484D01*
X4137920Y-11885484D02*
X4118872Y-11885484D01*
X4118872Y-11885484D02*
X4099824Y-11875960D01*
X4099824Y-11875960D02*
X4090301Y-11866436D01*
X4090301Y-11866436D02*
X4080777Y-11847388D01*
X4080777Y-11847388D02*
X4071253Y-11809293D01*
X4071253Y-11809293D02*
X4071253Y-11761674D01*
X4071253Y-11761674D02*
X4080777Y-11723579D01*
X4080777Y-11723579D02*
X4090301Y-11704531D01*
X4090301Y-11704531D02*
X4099824Y-11695008D01*
X4099824Y-11695008D02*
X4118872Y-11685484D01*
X4271253Y-11866436D02*
X4280777Y-11875960D01*
X4280777Y-11875960D02*
X4271253Y-11885484D01*
X4271253Y-11885484D02*
X4261729Y-11875960D01*
X4261729Y-11875960D02*
X4271253Y-11866436D01*
X4271253Y-11866436D02*
X4271253Y-11885484D01*
X4452205Y-11752150D02*
X4452205Y-11885484D01*
X4404586Y-11675960D02*
X4356967Y-11818817D01*
X4356967Y-11818817D02*
X4480777Y-11818817D01*
X4595063Y-11685484D02*
X4614110Y-11685484D01*
X4614110Y-11685484D02*
X4633158Y-11695008D01*
X4633158Y-11695008D02*
X4642682Y-11704531D01*
X4642682Y-11704531D02*
X4652205Y-11723579D01*
X4652205Y-11723579D02*
X4661729Y-11761674D01*
X4661729Y-11761674D02*
X4661729Y-11809293D01*
X4661729Y-11809293D02*
X4652205Y-11847388D01*
X4652205Y-11847388D02*
X4642682Y-11866436D01*
X4642682Y-11866436D02*
X4633158Y-11875960D01*
X4633158Y-11875960D02*
X4614110Y-11885484D01*
X4614110Y-11885484D02*
X4595063Y-11885484D01*
X4595063Y-11885484D02*
X4576015Y-11875960D01*
X4576015Y-11875960D02*
X4566491Y-11866436D01*
X4566491Y-11866436D02*
X4556967Y-11847388D01*
X4556967Y-11847388D02*
X4547444Y-11809293D01*
X4547444Y-11809293D02*
X4547444Y-11761674D01*
X4547444Y-11761674D02*
X4556967Y-11723579D01*
X4556967Y-11723579D02*
X4566491Y-11704531D01*
X4566491Y-11704531D02*
X4576015Y-11695008D01*
X4576015Y-11695008D02*
X4595063Y-11685484D01*
X4785539Y-11685484D02*
X4804586Y-11685484D01*
X4804586Y-11685484D02*
X4823634Y-11695008D01*
X4823634Y-11695008D02*
X4833158Y-11704531D01*
X4833158Y-11704531D02*
X4842682Y-11723579D01*
X4842682Y-11723579D02*
X4852205Y-11761674D01*
X4852205Y-11761674D02*
X4852205Y-11809293D01*
X4852205Y-11809293D02*
X4842682Y-11847388D01*
X4842682Y-11847388D02*
X4833158Y-11866436D01*
X4833158Y-11866436D02*
X4823634Y-11875960D01*
X4823634Y-11875960D02*
X4804586Y-11885484D01*
X4804586Y-11885484D02*
X4785539Y-11885484D01*
X4785539Y-11885484D02*
X4766491Y-11875960D01*
X4766491Y-11875960D02*
X4756967Y-11866436D01*
X4756967Y-11866436D02*
X4747444Y-11847388D01*
X4747444Y-11847388D02*
X4737920Y-11809293D01*
X4737920Y-11809293D02*
X4737920Y-11761674D01*
X4737920Y-11761674D02*
X4747444Y-11723579D01*
X4747444Y-11723579D02*
X4756967Y-11704531D01*
X4756967Y-11704531D02*
X4766491Y-11695008D01*
X4766491Y-11695008D02*
X4785539Y-11685484D01*
X4937920Y-11885484D02*
X4937920Y-11752150D01*
X4937920Y-11771198D02*
X4947444Y-11761674D01*
X4947444Y-11761674D02*
X4966491Y-11752150D01*
X4966491Y-11752150D02*
X4995063Y-11752150D01*
X4995063Y-11752150D02*
X5014110Y-11761674D01*
X5014110Y-11761674D02*
X5023634Y-11780722D01*
X5023634Y-11780722D02*
X5023634Y-11885484D01*
X5023634Y-11780722D02*
X5033158Y-11761674D01*
X5033158Y-11761674D02*
X5052205Y-11752150D01*
X5052205Y-11752150D02*
X5080777Y-11752150D01*
X5080777Y-11752150D02*
X5099825Y-11761674D01*
X5099825Y-11761674D02*
X5109348Y-11780722D01*
X5109348Y-11780722D02*
X5109348Y-11885484D01*
X5204586Y-11885484D02*
X5204586Y-11752150D01*
X5204586Y-11771198D02*
X5214110Y-11761674D01*
X5214110Y-11761674D02*
X5233158Y-11752150D01*
X5233158Y-11752150D02*
X5261729Y-11752150D01*
X5261729Y-11752150D02*
X5280777Y-11761674D01*
X5280777Y-11761674D02*
X5290301Y-11780722D01*
X5290301Y-11780722D02*
X5290301Y-11885484D01*
X5290301Y-11780722D02*
X5299825Y-11761674D01*
X5299825Y-11761674D02*
X5318872Y-11752150D01*
X5318872Y-11752150D02*
X5347444Y-11752150D01*
X5347444Y-11752150D02*
X5366491Y-11761674D01*
X5366491Y-11761674D02*
X5376015Y-11780722D01*
X5376015Y-11780722D02*
X5376015Y-11885484D01*
X5766491Y-11675960D02*
X5595063Y-11933103D01*
X6023634Y-11685484D02*
X6042682Y-11685484D01*
X6042682Y-11685484D02*
X6061729Y-11695008D01*
X6061729Y-11695008D02*
X6071253Y-11704531D01*
X6071253Y-11704531D02*
X6080777Y-11723579D01*
X6080777Y-11723579D02*
X6090301Y-11761674D01*
X6090301Y-11761674D02*
X6090301Y-11809293D01*
X6090301Y-11809293D02*
X6080777Y-11847388D01*
X6080777Y-11847388D02*
X6071253Y-11866436D01*
X6071253Y-11866436D02*
X6061729Y-11875960D01*
X6061729Y-11875960D02*
X6042682Y-11885484D01*
X6042682Y-11885484D02*
X6023634Y-11885484D01*
X6023634Y-11885484D02*
X6004586Y-11875960D01*
X6004586Y-11875960D02*
X5995063Y-11866436D01*
X5995063Y-11866436D02*
X5985539Y-11847388D01*
X5985539Y-11847388D02*
X5976015Y-11809293D01*
X5976015Y-11809293D02*
X5976015Y-11761674D01*
X5976015Y-11761674D02*
X5985539Y-11723579D01*
X5985539Y-11723579D02*
X5995063Y-11704531D01*
X5995063Y-11704531D02*
X6004586Y-11695008D01*
X6004586Y-11695008D02*
X6023634Y-11685484D01*
X6176015Y-11866436D02*
X6185539Y-11875960D01*
X6185539Y-11875960D02*
X6176015Y-11885484D01*
X6176015Y-11885484D02*
X6166491Y-11875960D01*
X6166491Y-11875960D02*
X6176015Y-11866436D01*
X6176015Y-11866436D02*
X6176015Y-11885484D01*
X6309348Y-11685484D02*
X6328396Y-11685484D01*
X6328396Y-11685484D02*
X6347444Y-11695008D01*
X6347444Y-11695008D02*
X6356967Y-11704531D01*
X6356967Y-11704531D02*
X6366491Y-11723579D01*
X6366491Y-11723579D02*
X6376015Y-11761674D01*
X6376015Y-11761674D02*
X6376015Y-11809293D01*
X6376015Y-11809293D02*
X6366491Y-11847388D01*
X6366491Y-11847388D02*
X6356967Y-11866436D01*
X6356967Y-11866436D02*
X6347444Y-11875960D01*
X6347444Y-11875960D02*
X6328396Y-11885484D01*
X6328396Y-11885484D02*
X6309348Y-11885484D01*
X6309348Y-11885484D02*
X6290301Y-11875960D01*
X6290301Y-11875960D02*
X6280777Y-11866436D01*
X6280777Y-11866436D02*
X6271253Y-11847388D01*
X6271253Y-11847388D02*
X6261729Y-11809293D01*
X6261729Y-11809293D02*
X6261729Y-11761674D01*
X6261729Y-11761674D02*
X6271253Y-11723579D01*
X6271253Y-11723579D02*
X6280777Y-11704531D01*
X6280777Y-11704531D02*
X6290301Y-11695008D01*
X6290301Y-11695008D02*
X6309348Y-11685484D01*
X6566491Y-11885484D02*
X6452206Y-11885484D01*
X6509348Y-11885484D02*
X6509348Y-11685484D01*
X6509348Y-11685484D02*
X6490301Y-11714055D01*
X6490301Y-11714055D02*
X6471253Y-11733103D01*
X6471253Y-11733103D02*
X6452206Y-11742627D01*
X6747444Y-11685484D02*
X6652206Y-11685484D01*
X6652206Y-11685484D02*
X6642682Y-11780722D01*
X6642682Y-11780722D02*
X6652206Y-11771198D01*
X6652206Y-11771198D02*
X6671253Y-11761674D01*
X6671253Y-11761674D02*
X6718872Y-11761674D01*
X6718872Y-11761674D02*
X6737920Y-11771198D01*
X6737920Y-11771198D02*
X6747444Y-11780722D01*
X6747444Y-11780722D02*
X6756967Y-11799769D01*
X6756967Y-11799769D02*
X6756967Y-11847388D01*
X6756967Y-11847388D02*
X6747444Y-11866436D01*
X6747444Y-11866436D02*
X6737920Y-11875960D01*
X6737920Y-11875960D02*
X6718872Y-11885484D01*
X6718872Y-11885484D02*
X6671253Y-11885484D01*
X6671253Y-11885484D02*
X6652206Y-11875960D01*
X6652206Y-11875960D02*
X6642682Y-11866436D01*
X6823634Y-11685484D02*
X6956967Y-11685484D01*
X6956967Y-11685484D02*
X6871253Y-11885484D01*
X7023634Y-11685484D02*
X7023634Y-11723579D01*
X7099825Y-11685484D02*
X7099825Y-11723579D01*
X7395063Y-11961674D02*
X7385539Y-11952150D01*
X7385539Y-11952150D02*
X7366491Y-11923579D01*
X7366491Y-11923579D02*
X7356968Y-11904531D01*
X7356968Y-11904531D02*
X7347444Y-11875960D01*
X7347444Y-11875960D02*
X7337920Y-11828341D01*
X7337920Y-11828341D02*
X7337920Y-11790246D01*
X7337920Y-11790246D02*
X7347444Y-11742627D01*
X7347444Y-11742627D02*
X7356968Y-11714055D01*
X7356968Y-11714055D02*
X7366491Y-11695008D01*
X7366491Y-11695008D02*
X7385539Y-11666436D01*
X7385539Y-11666436D02*
X7395063Y-11656912D01*
X7576015Y-11885484D02*
X7461729Y-11885484D01*
X7518872Y-11885484D02*
X7518872Y-11685484D01*
X7518872Y-11685484D02*
X7499825Y-11714055D01*
X7499825Y-11714055D02*
X7480777Y-11733103D01*
X7480777Y-11733103D02*
X7461729Y-11742627D01*
X7642682Y-11685484D02*
X7766491Y-11685484D01*
X7766491Y-11685484D02*
X7699825Y-11761674D01*
X7699825Y-11761674D02*
X7728396Y-11761674D01*
X7728396Y-11761674D02*
X7747444Y-11771198D01*
X7747444Y-11771198D02*
X7756968Y-11780722D01*
X7756968Y-11780722D02*
X7766491Y-11799769D01*
X7766491Y-11799769D02*
X7766491Y-11847388D01*
X7766491Y-11847388D02*
X7756968Y-11866436D01*
X7756968Y-11866436D02*
X7747444Y-11875960D01*
X7747444Y-11875960D02*
X7728396Y-11885484D01*
X7728396Y-11885484D02*
X7671253Y-11885484D01*
X7671253Y-11885484D02*
X7652206Y-11875960D01*
X7652206Y-11875960D02*
X7642682Y-11866436D01*
X8004587Y-11885484D02*
X8004587Y-11685484D01*
X8090301Y-11885484D02*
X8090301Y-11780722D01*
X8090301Y-11780722D02*
X8080777Y-11761674D01*
X8080777Y-11761674D02*
X8061730Y-11752150D01*
X8061730Y-11752150D02*
X8033158Y-11752150D01*
X8033158Y-11752150D02*
X8014110Y-11761674D01*
X8014110Y-11761674D02*
X8004587Y-11771198D01*
X8214110Y-11885484D02*
X8195063Y-11875960D01*
X8195063Y-11875960D02*
X8185539Y-11866436D01*
X8185539Y-11866436D02*
X8176015Y-11847388D01*
X8176015Y-11847388D02*
X8176015Y-11790246D01*
X8176015Y-11790246D02*
X8185539Y-11771198D01*
X8185539Y-11771198D02*
X8195063Y-11761674D01*
X8195063Y-11761674D02*
X8214110Y-11752150D01*
X8214110Y-11752150D02*
X8242682Y-11752150D01*
X8242682Y-11752150D02*
X8261730Y-11761674D01*
X8261730Y-11761674D02*
X8271253Y-11771198D01*
X8271253Y-11771198D02*
X8280777Y-11790246D01*
X8280777Y-11790246D02*
X8280777Y-11847388D01*
X8280777Y-11847388D02*
X8271253Y-11866436D01*
X8271253Y-11866436D02*
X8261730Y-11875960D01*
X8261730Y-11875960D02*
X8242682Y-11885484D01*
X8242682Y-11885484D02*
X8214110Y-11885484D01*
X8395063Y-11885484D02*
X8376015Y-11875960D01*
X8376015Y-11875960D02*
X8366491Y-11856912D01*
X8366491Y-11856912D02*
X8366491Y-11685484D01*
X8547444Y-11875960D02*
X8528396Y-11885484D01*
X8528396Y-11885484D02*
X8490301Y-11885484D01*
X8490301Y-11885484D02*
X8471253Y-11875960D01*
X8471253Y-11875960D02*
X8461730Y-11856912D01*
X8461730Y-11856912D02*
X8461730Y-11780722D01*
X8461730Y-11780722D02*
X8471253Y-11761674D01*
X8471253Y-11761674D02*
X8490301Y-11752150D01*
X8490301Y-11752150D02*
X8528396Y-11752150D01*
X8528396Y-11752150D02*
X8547444Y-11761674D01*
X8547444Y-11761674D02*
X8556968Y-11780722D01*
X8556968Y-11780722D02*
X8556968Y-11799769D01*
X8556968Y-11799769D02*
X8461730Y-11818817D01*
X8633158Y-11875960D02*
X8652206Y-11885484D01*
X8652206Y-11885484D02*
X8690301Y-11885484D01*
X8690301Y-11885484D02*
X8709349Y-11875960D01*
X8709349Y-11875960D02*
X8718873Y-11856912D01*
X8718873Y-11856912D02*
X8718873Y-11847388D01*
X8718873Y-11847388D02*
X8709349Y-11828341D01*
X8709349Y-11828341D02*
X8690301Y-11818817D01*
X8690301Y-11818817D02*
X8661730Y-11818817D01*
X8661730Y-11818817D02*
X8642682Y-11809293D01*
X8642682Y-11809293D02*
X8633158Y-11790246D01*
X8633158Y-11790246D02*
X8633158Y-11780722D01*
X8633158Y-11780722D02*
X8642682Y-11761674D01*
X8642682Y-11761674D02*
X8661730Y-11752150D01*
X8661730Y-11752150D02*
X8690301Y-11752150D01*
X8690301Y-11752150D02*
X8709349Y-11761674D01*
X8785539Y-11961674D02*
X8795063Y-11952150D01*
X8795063Y-11952150D02*
X8814111Y-11923579D01*
X8814111Y-11923579D02*
X8823634Y-11904531D01*
X8823634Y-11904531D02*
X8833158Y-11875960D01*
X8833158Y-11875960D02*
X8842682Y-11828341D01*
X8842682Y-11828341D02*
X8842682Y-11790246D01*
X8842682Y-11790246D02*
X8833158Y-11742627D01*
X8833158Y-11742627D02*
X8823634Y-11714055D01*
X8823634Y-11714055D02*
X8814111Y-11695008D01*
X8814111Y-11695008D02*
X8795063Y-11666436D01*
X8795063Y-11666436D02*
X8785539Y-11656912D01*
M02*
