G04 #@! TF.GenerationSoftware,KiCad,Pcbnew,7.0.8*
G04 #@! TF.CreationDate,2023-11-08T21:34:37-08:00*
G04 #@! TF.ProjectId,Seismos_5CoreStencil,53656973-6d6f-4735-9f35-436f72655374,rev?*
G04 #@! TF.SameCoordinates,Original*
G04 #@! TF.FileFunction,Copper,L2,Bot*
G04 #@! TF.FilePolarity,Positive*
%FSLAX46Y46*%
G04 Gerber Fmt 4.6, Leading zero omitted, Abs format (unit mm)*
G04 Created by KiCad (PCBNEW 7.0.8) date 2023-11-08 21:34:37*
%MOMM*%
%LPD*%
G01*
G04 APERTURE LIST*
G04 Aperture macros list*
%AMRoundRect*
0 Rectangle with rounded corners*
0 $1 Rounding radius*
0 $2 $3 $4 $5 $6 $7 $8 $9 X,Y pos of 4 corners*
0 Add a 4 corners polygon primitive as box body*
4,1,4,$2,$3,$4,$5,$6,$7,$8,$9,$2,$3,0*
0 Add four circle primitives for the rounded corners*
1,1,$1+$1,$2,$3*
1,1,$1+$1,$4,$5*
1,1,$1+$1,$6,$7*
1,1,$1+$1,$8,$9*
0 Add four rect primitives between the rounded corners*
20,1,$1+$1,$2,$3,$4,$5,0*
20,1,$1+$1,$4,$5,$6,$7,0*
20,1,$1+$1,$6,$7,$8,$9,0*
20,1,$1+$1,$8,$9,$2,$3,0*%
G04 Aperture macros list end*
G04 #@! TA.AperFunction,SMDPad,CuDef*
%ADD10R,2.400000X2.600000*%
G04 #@! TD*
G04 #@! TA.AperFunction,SMDPad,CuDef*
%ADD11R,3.500000X3.500000*%
G04 #@! TD*
G04 #@! TA.AperFunction,SMDPad,CuDef*
%ADD12R,1.750000X0.812800*%
G04 #@! TD*
G04 #@! TA.AperFunction,SMDPad,CuDef*
%ADD13R,2.300000X2.600000*%
G04 #@! TD*
G04 #@! TA.AperFunction,SMDPad,CuDef*
%ADD14RoundRect,0.225000X-0.375000X0.225000X-0.375000X-0.225000X0.375000X-0.225000X0.375000X0.225000X0*%
G04 #@! TD*
G04 #@! TA.AperFunction,SMDPad,CuDef*
%ADD15RoundRect,0.225000X0.375000X-0.225000X0.375000X0.225000X-0.375000X0.225000X-0.375000X-0.225000X0*%
G04 #@! TD*
G04 #@! TA.AperFunction,SMDPad,CuDef*
%ADD16R,0.600000X1.700000*%
G04 #@! TD*
G04 #@! TA.AperFunction,SMDPad,CuDef*
%ADD17R,1.200000X1.800000*%
G04 #@! TD*
G04 #@! TA.AperFunction,SMDPad,CuDef*
%ADD18R,1.550000X1.000000*%
G04 #@! TD*
G04 APERTURE END LIST*
D10*
X46510000Y-114640000D03*
D11*
X33560000Y-117615000D03*
D12*
X36998100Y-108353500D03*
X42028000Y-108353500D03*
X36998100Y-106854900D03*
D13*
X43210000Y-118000000D03*
X31310000Y-115900000D03*
D12*
X42028000Y-106854900D03*
D10*
X46510000Y-57640000D03*
D11*
X33560000Y-60615000D03*
D12*
X36998100Y-51353500D03*
X42028000Y-51353500D03*
X36998100Y-49854900D03*
D13*
X43210000Y-61000000D03*
X31310000Y-58900000D03*
D12*
X42028000Y-49854900D03*
D14*
X32150000Y-90750000D03*
X32150000Y-87450000D03*
D10*
X46510000Y-95640000D03*
D11*
X33560000Y-98615000D03*
D12*
X36998100Y-89353500D03*
X42028000Y-89353500D03*
X36998100Y-87854900D03*
D13*
X43210000Y-99000000D03*
X31310000Y-96900000D03*
D12*
X42028000Y-87854900D03*
D14*
X32150000Y-109750000D03*
X32150000Y-106450000D03*
X32150000Y-52750000D03*
X32150000Y-49450000D03*
D10*
X46510000Y-38640000D03*
D11*
X33560000Y-41615000D03*
D12*
X36998100Y-32353500D03*
X42028000Y-32353500D03*
X36998100Y-30854900D03*
D13*
X43210000Y-42000000D03*
X31310000Y-39900000D03*
D12*
X42028000Y-30854900D03*
D14*
X32150000Y-33750000D03*
X32150000Y-30450000D03*
D10*
X46510000Y-76640000D03*
D11*
X33560000Y-79615000D03*
D12*
X36998100Y-70353500D03*
X42028000Y-70353500D03*
X36998100Y-68854900D03*
D13*
X43210000Y-80000000D03*
X31310000Y-77900000D03*
D12*
X42028000Y-68854900D03*
D14*
X32150000Y-71750000D03*
X32150000Y-68450000D03*
D10*
X65810000Y-114640000D03*
D11*
X52860000Y-117615000D03*
D12*
X56298100Y-108353500D03*
X61328000Y-108353500D03*
X56298100Y-106854900D03*
D13*
X62510000Y-118000000D03*
X50610000Y-115900000D03*
D12*
X61328000Y-106854900D03*
D10*
X65810000Y-57640000D03*
D11*
X52860000Y-60615000D03*
D12*
X56298100Y-51353500D03*
X61328000Y-51353500D03*
X56298100Y-49854900D03*
D13*
X62510000Y-61000000D03*
X50610000Y-58900000D03*
D12*
X61328000Y-49854900D03*
D14*
X51450000Y-90750000D03*
X51450000Y-87450000D03*
D10*
X65810000Y-95640000D03*
D11*
X52860000Y-98615000D03*
D12*
X56298100Y-89353500D03*
X61328000Y-89353500D03*
X56298100Y-87854900D03*
D13*
X62510000Y-99000000D03*
X50610000Y-96900000D03*
D12*
X61328000Y-87854900D03*
D14*
X51450000Y-109750000D03*
X51450000Y-106450000D03*
X51450000Y-52750000D03*
X51450000Y-49450000D03*
D10*
X65810000Y-38640000D03*
D11*
X52860000Y-41615000D03*
D12*
X56298100Y-32353500D03*
X61328000Y-32353500D03*
X56298100Y-30854900D03*
D13*
X62510000Y-42000000D03*
X50610000Y-39900000D03*
D12*
X61328000Y-30854900D03*
D14*
X51450000Y-33750000D03*
X51450000Y-30450000D03*
D10*
X65810000Y-76640000D03*
D11*
X52860000Y-79615000D03*
D12*
X56298100Y-70353500D03*
X61328000Y-70353500D03*
X56298100Y-68854900D03*
D13*
X62510000Y-80000000D03*
X50610000Y-77900000D03*
D12*
X61328000Y-68854900D03*
D14*
X51450000Y-71750000D03*
X51450000Y-68450000D03*
D10*
X85110000Y-114640000D03*
D11*
X72160000Y-117615000D03*
D12*
X75598100Y-108353500D03*
X80628000Y-108353500D03*
X75598100Y-106854900D03*
D13*
X81810000Y-118000000D03*
X69910000Y-115900000D03*
D12*
X80628000Y-106854900D03*
D10*
X85110000Y-57640000D03*
D11*
X72160000Y-60615000D03*
D12*
X75598100Y-51353500D03*
X80628000Y-51353500D03*
X75598100Y-49854900D03*
D13*
X81810000Y-61000000D03*
X69910000Y-58900000D03*
D12*
X80628000Y-49854900D03*
D14*
X70750000Y-90750000D03*
X70750000Y-87450000D03*
D10*
X85110000Y-95640000D03*
D11*
X72160000Y-98615000D03*
D12*
X75598100Y-89353500D03*
X80628000Y-89353500D03*
X75598100Y-87854900D03*
D13*
X81810000Y-99000000D03*
X69910000Y-96900000D03*
D12*
X80628000Y-87854900D03*
D14*
X70750000Y-109750000D03*
X70750000Y-106450000D03*
X70750000Y-52750000D03*
X70750000Y-49450000D03*
D10*
X85110000Y-38640000D03*
D11*
X72160000Y-41615000D03*
D12*
X75598100Y-32353500D03*
X80628000Y-32353500D03*
X75598100Y-30854900D03*
D13*
X81810000Y-42000000D03*
X69910000Y-39900000D03*
D12*
X80628000Y-30854900D03*
D14*
X70750000Y-33750000D03*
X70750000Y-30450000D03*
D10*
X85110000Y-76640000D03*
D11*
X72160000Y-79615000D03*
D12*
X75598100Y-70353500D03*
X80628000Y-70353500D03*
X75598100Y-68854900D03*
D13*
X81810000Y-80000000D03*
X69910000Y-77900000D03*
D12*
X80628000Y-68854900D03*
D14*
X70750000Y-71750000D03*
X70750000Y-68450000D03*
D10*
X104410000Y-114640000D03*
D11*
X91460000Y-117615000D03*
D12*
X94898100Y-108353500D03*
X99928000Y-108353500D03*
X94898100Y-106854900D03*
D13*
X101110000Y-118000000D03*
X89210000Y-115900000D03*
D12*
X99928000Y-106854900D03*
D10*
X104410000Y-57640000D03*
D11*
X91460000Y-60615000D03*
D12*
X94898100Y-51353500D03*
X99928000Y-51353500D03*
X94898100Y-49854900D03*
D13*
X101110000Y-61000000D03*
X89210000Y-58900000D03*
D12*
X99928000Y-49854900D03*
D14*
X90050000Y-90750000D03*
X90050000Y-87450000D03*
D10*
X104410000Y-95640000D03*
D11*
X91460000Y-98615000D03*
D12*
X94898100Y-89353500D03*
X99928000Y-89353500D03*
X94898100Y-87854900D03*
D13*
X101110000Y-99000000D03*
X89210000Y-96900000D03*
D12*
X99928000Y-87854900D03*
D14*
X90050000Y-109750000D03*
X90050000Y-106450000D03*
X90050000Y-52750000D03*
X90050000Y-49450000D03*
D10*
X104410000Y-38640000D03*
D11*
X91460000Y-41615000D03*
D12*
X94898100Y-32353500D03*
X99928000Y-32353500D03*
X94898100Y-30854900D03*
D13*
X101110000Y-42000000D03*
X89210000Y-39900000D03*
D12*
X99928000Y-30854900D03*
D14*
X90050000Y-33750000D03*
X90050000Y-30450000D03*
D10*
X104410000Y-76640000D03*
D11*
X91460000Y-79615000D03*
D12*
X94898100Y-70353500D03*
X99928000Y-70353500D03*
X94898100Y-68854900D03*
D13*
X101110000Y-80000000D03*
X89210000Y-77900000D03*
D12*
X99928000Y-68854900D03*
D14*
X90050000Y-71750000D03*
X90050000Y-68450000D03*
D10*
X123710000Y-114640000D03*
D11*
X110760000Y-117615000D03*
D12*
X114198100Y-108353500D03*
X119228000Y-108353500D03*
X114198100Y-106854900D03*
D13*
X120410000Y-118000000D03*
X108510000Y-115900000D03*
D12*
X119228000Y-106854900D03*
D10*
X123710000Y-57640000D03*
D11*
X110760000Y-60615000D03*
D12*
X114198100Y-51353500D03*
X119228000Y-51353500D03*
X114198100Y-49854900D03*
D13*
X120410000Y-61000000D03*
X108510000Y-58900000D03*
D12*
X119228000Y-49854900D03*
D14*
X109350000Y-90750000D03*
X109350000Y-87450000D03*
D10*
X123710000Y-95640000D03*
D11*
X110760000Y-98615000D03*
D12*
X114198100Y-89353500D03*
X119228000Y-89353500D03*
X114198100Y-87854900D03*
D13*
X120410000Y-99000000D03*
X108510000Y-96900000D03*
D12*
X119228000Y-87854900D03*
D14*
X109350000Y-109750000D03*
X109350000Y-106450000D03*
X109350000Y-52750000D03*
X109350000Y-49450000D03*
D10*
X123710000Y-38640000D03*
D11*
X110760000Y-41615000D03*
D12*
X114198100Y-32353500D03*
X119228000Y-32353500D03*
X114198100Y-30854900D03*
D13*
X120410000Y-42000000D03*
X108510000Y-39900000D03*
D12*
X119228000Y-30854900D03*
D14*
X109350000Y-33750000D03*
X109350000Y-30450000D03*
D10*
X123710000Y-76640000D03*
D11*
X110760000Y-79615000D03*
D12*
X114198100Y-70353500D03*
X119228000Y-70353500D03*
X114198100Y-68854900D03*
D13*
X120410000Y-80000000D03*
X108510000Y-77900000D03*
D12*
X119228000Y-68854900D03*
D14*
X109350000Y-71750000D03*
X109350000Y-68450000D03*
X128650000Y-109750000D03*
X128650000Y-106450000D03*
X128650000Y-71750000D03*
X128650000Y-68450000D03*
D10*
X143010000Y-76640000D03*
D11*
X130060000Y-79615000D03*
D12*
X133498100Y-70353500D03*
X138528000Y-70353500D03*
X133498100Y-68854900D03*
D13*
X139710000Y-80000000D03*
X127810000Y-77900000D03*
D12*
X138528000Y-68854900D03*
D10*
X143010000Y-95640000D03*
D11*
X130060000Y-98615000D03*
D12*
X133498100Y-89353500D03*
X138528000Y-89353500D03*
X133498100Y-87854900D03*
D13*
X139710000Y-99000000D03*
X127810000Y-96900000D03*
D12*
X138528000Y-87854900D03*
D10*
X143010000Y-114640000D03*
D11*
X130060000Y-117615000D03*
D12*
X133498100Y-108353500D03*
X138528000Y-108353500D03*
X133498100Y-106854900D03*
D13*
X139710000Y-118000000D03*
X127810000Y-115900000D03*
D12*
X138528000Y-106854900D03*
D10*
X143010000Y-57640000D03*
D11*
X130060000Y-60615000D03*
D12*
X133498100Y-51353500D03*
X138528000Y-51353500D03*
X133498100Y-49854900D03*
D13*
X139710000Y-61000000D03*
X127810000Y-58900000D03*
D12*
X138528000Y-49854900D03*
D14*
X128650000Y-33750000D03*
X128650000Y-30450000D03*
X128650000Y-52750000D03*
X128650000Y-49450000D03*
D10*
X143010000Y-38640000D03*
D11*
X130060000Y-41615000D03*
D12*
X133498100Y-32353500D03*
X138528000Y-32353500D03*
X133498100Y-30854900D03*
D13*
X139710000Y-42000000D03*
X127810000Y-39900000D03*
D12*
X138528000Y-30854900D03*
D14*
X128650000Y-90750000D03*
X128650000Y-87450000D03*
D15*
X182500000Y-86050000D03*
X182500000Y-82750000D03*
X163500000Y-86050000D03*
X163500000Y-82750000D03*
D12*
X153622000Y-85645100D03*
D13*
X164340000Y-76600000D03*
X152440000Y-74500000D03*
D12*
X158651900Y-85645100D03*
X153622000Y-84146500D03*
X158651900Y-84146500D03*
D11*
X162090000Y-74885000D03*
D10*
X149140000Y-77860000D03*
D15*
X163500000Y-67050000D03*
X163500000Y-63750000D03*
D12*
X172622000Y-85645100D03*
D13*
X183340000Y-76600000D03*
X171440000Y-74500000D03*
D12*
X177651900Y-85645100D03*
X172622000Y-84146500D03*
X177651900Y-84146500D03*
D11*
X181090000Y-74885000D03*
D10*
X168140000Y-77860000D03*
D12*
X153622000Y-66645100D03*
D13*
X164340000Y-57600000D03*
X152440000Y-55500000D03*
D12*
X158651900Y-66645100D03*
X153622000Y-65146500D03*
X158651900Y-65146500D03*
D11*
X162090000Y-55885000D03*
D10*
X149140000Y-58860000D03*
D12*
X172622000Y-66645100D03*
D13*
X183340000Y-57600000D03*
X171440000Y-55500000D03*
D12*
X177651900Y-66645100D03*
X172622000Y-65146500D03*
X177651900Y-65146500D03*
D11*
X181090000Y-55885000D03*
D10*
X168140000Y-58860000D03*
D15*
X182500000Y-67050000D03*
X182500000Y-63750000D03*
D16*
X170000000Y-91114000D03*
X169000000Y-91114000D03*
X168000000Y-91115000D03*
X167000000Y-91115000D03*
X166000000Y-91115000D03*
X165000000Y-91115000D03*
X164000000Y-91115000D03*
X163000000Y-91115000D03*
X162000000Y-91115000D03*
X161000000Y-91115000D03*
D17*
X171300000Y-94990000D03*
X159700000Y-94990000D03*
D16*
X131650000Y-25386000D03*
X132650000Y-25386000D03*
X133650000Y-25385000D03*
X134650000Y-25385000D03*
X135650000Y-25385000D03*
X136650000Y-25385000D03*
X137650000Y-25385000D03*
X138650000Y-25385000D03*
X139650000Y-25385000D03*
X140650000Y-25385000D03*
D17*
X130350000Y-21510000D03*
X141950000Y-21510000D03*
D16*
X35150000Y-25386000D03*
X36150000Y-25386000D03*
X37150000Y-25385000D03*
X38150000Y-25385000D03*
X39150000Y-25385000D03*
X40150000Y-25385000D03*
X41150000Y-25385000D03*
X42150000Y-25385000D03*
X43150000Y-25385000D03*
X44150000Y-25385000D03*
D17*
X33850000Y-21510000D03*
X45450000Y-21510000D03*
D16*
X54450000Y-25386000D03*
X55450000Y-25386000D03*
X56450000Y-25385000D03*
X57450000Y-25385000D03*
X58450000Y-25385000D03*
X59450000Y-25385000D03*
X60450000Y-25385000D03*
X61450000Y-25385000D03*
X62450000Y-25385000D03*
X63450000Y-25385000D03*
D17*
X53150000Y-21510000D03*
X64750000Y-21510000D03*
D18*
X148687500Y-22199500D03*
X148687500Y-23899500D03*
X153887500Y-22199500D03*
X153887500Y-23899500D03*
D16*
X93050000Y-25386000D03*
X94050000Y-25386000D03*
X95050000Y-25385000D03*
X96050000Y-25385000D03*
X97050000Y-25385000D03*
X98050000Y-25385000D03*
X99050000Y-25385000D03*
X100050000Y-25385000D03*
X101050000Y-25385000D03*
X102050000Y-25385000D03*
D17*
X91750000Y-21510000D03*
X103350000Y-21510000D03*
D16*
X73750000Y-25386000D03*
X74750000Y-25386000D03*
X75750000Y-25385000D03*
X76750000Y-25385000D03*
X77750000Y-25385000D03*
X78750000Y-25385000D03*
X79750000Y-25385000D03*
X80750000Y-25385000D03*
X81750000Y-25385000D03*
X82750000Y-25385000D03*
D17*
X72450000Y-21510000D03*
X84050000Y-21510000D03*
D16*
X112350000Y-25386000D03*
X113350000Y-25386000D03*
X114350000Y-25385000D03*
X115350000Y-25385000D03*
X116350000Y-25385000D03*
X117350000Y-25385000D03*
X118350000Y-25385000D03*
X119350000Y-25385000D03*
X120350000Y-25385000D03*
X121350000Y-25385000D03*
D17*
X111050000Y-21510000D03*
X122650000Y-21510000D03*
M02*
