G04 #@! TF.GenerationSoftware,KiCad,Pcbnew,7.0.8*
G04 #@! TF.CreationDate,2023-10-17T04:23:31-07:00*
G04 #@! TF.ProjectId,Seismos_CoreR,53656973-6d6f-4735-9f43-6f7265522e6b,rev?*
G04 #@! TF.SameCoordinates,Original*
G04 #@! TF.FileFunction,Profile,NP*
%FSLAX46Y46*%
G04 Gerber Fmt 4.6, Leading zero omitted, Abs format (unit mm)*
G04 Created by KiCad (PCBNEW 7.0.8) date 2023-10-17 04:23:31*
%MOMM*%
%LPD*%
G01*
G04 APERTURE LIST*
G04 #@! TA.AperFunction,Profile*
%ADD10C,0.100000*%
G04 #@! TD*
G04 #@! TA.AperFunction,Profile*
%ADD11C,0.120000*%
G04 #@! TD*
G04 APERTURE END LIST*
D10*
X57366000Y-96500000D02*
X57366000Y-42810000D01*
X55866000Y-98000000D02*
X31500000Y-98000000D01*
X30000000Y-96500000D02*
X30000000Y-21500000D01*
X31500000Y-20000000D02*
G75*
G03*
X30000000Y-21500000I0J-1500000D01*
G01*
X55866000Y-98000000D02*
G75*
G03*
X57366000Y-96500000I0J1500000D01*
G01*
X175500000Y-39000000D02*
X61176000Y-39000000D01*
X175500000Y-39000000D02*
G75*
G03*
X177000000Y-37500000I0J1500000D01*
G01*
X177000000Y-21500000D02*
G75*
G03*
X175500000Y-20000000I-1500000J0D01*
G01*
X30000000Y-96500000D02*
G75*
G03*
X31500000Y-98000000I1500000J0D01*
G01*
X61176000Y-39000000D02*
G75*
G03*
X57366000Y-42810000I0J-3810000D01*
G01*
X31500000Y-20000000D02*
X175500000Y-20000000D01*
X177000000Y-21500000D02*
X177000000Y-37500000D01*
D11*
X69374400Y-33922400D02*
X72574800Y-33922400D01*
X72574800Y-33922400D02*
X72574800Y-31077600D01*
X72574800Y-31077600D02*
X69374400Y-31077600D01*
X69374400Y-31077600D02*
X69374400Y-33922400D01*
X165874400Y-33922400D02*
X169074800Y-33922400D01*
X169074800Y-33922400D02*
X169074800Y-31077600D01*
X169074800Y-31077600D02*
X165874400Y-31077600D01*
X165874400Y-31077600D02*
X165874400Y-33922400D01*
X127274400Y-33922400D02*
X130474800Y-33922400D01*
X130474800Y-33922400D02*
X130474800Y-31077600D01*
X130474800Y-31077600D02*
X127274400Y-31077600D01*
X127274400Y-31077600D02*
X127274400Y-33922400D01*
X107974400Y-33922400D02*
X111174800Y-33922400D01*
X111174800Y-33922400D02*
X111174800Y-31077600D01*
X111174800Y-31077600D02*
X107974400Y-31077600D01*
X107974400Y-31077600D02*
X107974400Y-33922400D01*
X146574400Y-33922400D02*
X149774800Y-33922400D01*
X149774800Y-33922400D02*
X149774800Y-31077600D01*
X149774800Y-31077600D02*
X146574400Y-31077600D01*
X146574400Y-31077600D02*
X146574400Y-33922400D01*
X88674400Y-33922400D02*
X91874800Y-33922400D01*
X91874800Y-33922400D02*
X91874800Y-31077600D01*
X91874800Y-31077600D02*
X88674400Y-31077600D01*
X88674400Y-31077600D02*
X88674400Y-33922400D01*
M02*
