G04 #@! TF.GenerationSoftware,KiCad,Pcbnew,7.0.8*
G04 #@! TF.CreationDate,2023-10-17T10:22:13-07:00*
G04 #@! TF.ProjectId,Seismos_CoreR,53656973-6d6f-4735-9f43-6f7265522e6b,rev?*
G04 #@! TF.SameCoordinates,Original*
G04 #@! TF.FileFunction,Paste,Bot*
G04 #@! TF.FilePolarity,Positive*
%FSLAX46Y46*%
G04 Gerber Fmt 4.6, Leading zero omitted, Abs format (unit mm)*
G04 Created by KiCad (PCBNEW 7.0.8) date 2023-10-17 10:22:13*
%MOMM*%
%LPD*%
G01*
G04 APERTURE LIST*
%ADD10R,0.600000X1.550000*%
%ADD11R,1.200000X1.800000*%
%ADD12R,1.550000X1.000000*%
G04 APERTURE END LIST*
D10*
X67000000Y-25375000D03*
X68000000Y-25375000D03*
X69000000Y-25375000D03*
X70000000Y-25375000D03*
X71000000Y-25375000D03*
X72000000Y-25375000D03*
X73000000Y-25375000D03*
X74000000Y-25375000D03*
X75000000Y-25375000D03*
D11*
X65700000Y-21500000D03*
X76300000Y-21500000D03*
D10*
X86300000Y-25375000D03*
X87300000Y-25375000D03*
X88300000Y-25375000D03*
X89300000Y-25375000D03*
X90300000Y-25375000D03*
X91300000Y-25375000D03*
X92300000Y-25375000D03*
X93300000Y-25375000D03*
X94300000Y-25375000D03*
D11*
X85000000Y-21500000D03*
X95600000Y-21500000D03*
D12*
X58312500Y-23899500D03*
X58312500Y-22199500D03*
X53112500Y-23899500D03*
X53112500Y-22199500D03*
D10*
X45500000Y-91125000D03*
X44500000Y-91125000D03*
X43500000Y-91125000D03*
X42500000Y-91125000D03*
X41500000Y-91125000D03*
X40500000Y-91125000D03*
X39500000Y-91125000D03*
X38500000Y-91125000D03*
X37500000Y-91125000D03*
D11*
X46800000Y-95000000D03*
X36200000Y-95000000D03*
X172800000Y-21500000D03*
X162200000Y-21500000D03*
D10*
X171500000Y-25375000D03*
X170500000Y-25375000D03*
X169500000Y-25375000D03*
X168500000Y-25375000D03*
X167500000Y-25375000D03*
X166500000Y-25375000D03*
X165500000Y-25375000D03*
X164500000Y-25375000D03*
X163500000Y-25375000D03*
X124900000Y-25375000D03*
X125900000Y-25375000D03*
X126900000Y-25375000D03*
X127900000Y-25375000D03*
X128900000Y-25375000D03*
X129900000Y-25375000D03*
X130900000Y-25375000D03*
X131900000Y-25375000D03*
X132900000Y-25375000D03*
D11*
X123600000Y-21500000D03*
X134200000Y-21500000D03*
D10*
X105600000Y-25375000D03*
X106600000Y-25375000D03*
X107600000Y-25375000D03*
X108600000Y-25375000D03*
X109600000Y-25375000D03*
X110600000Y-25375000D03*
X111600000Y-25375000D03*
X112600000Y-25375000D03*
X113600000Y-25375000D03*
D11*
X104300000Y-21500000D03*
X114900000Y-21500000D03*
D10*
X144200000Y-25375000D03*
X145200000Y-25375000D03*
X146200000Y-25375000D03*
X147200000Y-25375000D03*
X148200000Y-25375000D03*
X149200000Y-25375000D03*
X150200000Y-25375000D03*
X151200000Y-25375000D03*
X152200000Y-25375000D03*
D11*
X142900000Y-21500000D03*
X153500000Y-21500000D03*
M02*
