G04 #@! TF.GenerationSoftware,KiCad,Pcbnew,7.0.8*
G04 #@! TF.CreationDate,2023-10-16T19:48:45-07:00*
G04 #@! TF.ProjectId,Seismos_4-Key,53656973-6d6f-4735-9f34-2d4b65792e6b,rev?*
G04 #@! TF.SameCoordinates,Original*
G04 #@! TF.FileFunction,Copper,L2,Bot*
G04 #@! TF.FilePolarity,Positive*
%FSLAX46Y46*%
G04 Gerber Fmt 4.6, Leading zero omitted, Abs format (unit mm)*
G04 Created by KiCad (PCBNEW 7.0.8) date 2023-10-16 19:48:45*
%MOMM*%
%LPD*%
G01*
G04 APERTURE LIST*
G04 Aperture macros list*
%AMRoundRect*
0 Rectangle with rounded corners*
0 $1 Rounding radius*
0 $2 $3 $4 $5 $6 $7 $8 $9 X,Y pos of 4 corners*
0 Add a 4 corners polygon primitive as box body*
4,1,4,$2,$3,$4,$5,$6,$7,$8,$9,$2,$3,0*
0 Add four circle primitives for the rounded corners*
1,1,$1+$1,$2,$3*
1,1,$1+$1,$4,$5*
1,1,$1+$1,$6,$7*
1,1,$1+$1,$8,$9*
0 Add four rect primitives between the rounded corners*
20,1,$1+$1,$2,$3,$4,$5,0*
20,1,$1+$1,$4,$5,$6,$7,0*
20,1,$1+$1,$6,$7,$8,$9,0*
20,1,$1+$1,$8,$9,$2,$3,0*%
G04 Aperture macros list end*
G04 #@! TA.AperFunction,SMDPad,CuDef*
%ADD10R,1.750000X0.812800*%
G04 #@! TD*
G04 #@! TA.AperFunction,SMDPad,CuDef*
%ADD11R,2.300000X2.600000*%
G04 #@! TD*
G04 #@! TA.AperFunction,SMDPad,CuDef*
%ADD12R,3.500000X3.500000*%
G04 #@! TD*
G04 #@! TA.AperFunction,SMDPad,CuDef*
%ADD13R,2.400000X2.600000*%
G04 #@! TD*
G04 #@! TA.AperFunction,SMDPad,CuDef*
%ADD14RoundRect,0.225000X-0.375000X0.225000X-0.375000X-0.225000X0.375000X-0.225000X0.375000X0.225000X0*%
G04 #@! TD*
G04 #@! TA.AperFunction,ViaPad*
%ADD15C,0.800000*%
G04 #@! TD*
G04 #@! TA.AperFunction,Conductor*
%ADD16C,0.200000*%
G04 #@! TD*
G04 #@! TA.AperFunction,Conductor*
%ADD17C,0.250000*%
G04 #@! TD*
G04 APERTURE END LIST*
D10*
X49378000Y-54754900D03*
D11*
X38660000Y-63800000D03*
X50560000Y-65900000D03*
D10*
X44348100Y-54754900D03*
X49378000Y-56253500D03*
X44348100Y-56253500D03*
D12*
X40910000Y-65515000D03*
D13*
X53860000Y-62540000D03*
D10*
X49378000Y-35754900D03*
D11*
X38660000Y-44800000D03*
X50560000Y-46900000D03*
D10*
X44348100Y-35754900D03*
X49378000Y-37253500D03*
X44348100Y-37253500D03*
D12*
X40910000Y-46515000D03*
D13*
X53860000Y-43540000D03*
D10*
X49378000Y-73754900D03*
D11*
X38660000Y-82800000D03*
X50560000Y-84900000D03*
D10*
X44348100Y-73754900D03*
X49378000Y-75253500D03*
X44348100Y-75253500D03*
D12*
X40910000Y-84515000D03*
D13*
X53860000Y-81540000D03*
D10*
X49378000Y-92754900D03*
D11*
X38660000Y-101800000D03*
X50560000Y-103900000D03*
D10*
X44348100Y-92754900D03*
X49378000Y-94253500D03*
X44348100Y-94253500D03*
D12*
X40910000Y-103515000D03*
D13*
X53860000Y-100540000D03*
D14*
X39500000Y-54350000D03*
X39500000Y-57650000D03*
X39500000Y-92350000D03*
X39500000Y-95650000D03*
X39500000Y-35350000D03*
X39500000Y-38650000D03*
X39500000Y-73350000D03*
X39500000Y-76650000D03*
D15*
X39400000Y-42600000D03*
X39400000Y-61600000D03*
X39400000Y-80600000D03*
X39400000Y-99400000D03*
X41400000Y-33200000D03*
X39400000Y-51600000D03*
X39400000Y-70000000D03*
X39400000Y-89400000D03*
X48000000Y-32400000D03*
X50800000Y-38800000D03*
X53160500Y-90200000D03*
X52200000Y-35800000D03*
X53160500Y-52200000D03*
X53160500Y-71400000D03*
X53160500Y-91600000D03*
D16*
X38600000Y-39550000D02*
X38600000Y-44205000D01*
X39500000Y-38650000D02*
X38600000Y-39550000D01*
X38600000Y-44205000D02*
X40910000Y-46515000D01*
X38600000Y-58550000D02*
X38600000Y-63205000D01*
X38600000Y-63205000D02*
X40910000Y-65515000D01*
X39500000Y-57650000D02*
X38600000Y-58550000D01*
X39500000Y-76650000D02*
X38600000Y-77550000D01*
X38600000Y-77550000D02*
X38600000Y-82205000D01*
X38600000Y-82205000D02*
X40910000Y-84515000D01*
X38600000Y-101205000D02*
X40910000Y-103515000D01*
X38600000Y-96550000D02*
X38600000Y-101205000D01*
X39500000Y-95650000D02*
X38600000Y-96550000D01*
X49000000Y-50103000D02*
X49000000Y-45300000D01*
X49600000Y-37475500D02*
X49378000Y-37253500D01*
X49000000Y-45300000D02*
X48400000Y-44700000D01*
X44348100Y-54754900D02*
X49000000Y-50103000D01*
X49700000Y-37575500D02*
X49378000Y-37253500D01*
X48400000Y-43100000D02*
X49600000Y-41900000D01*
X49600000Y-41900000D02*
X49600000Y-37475500D01*
X48400000Y-44700000D02*
X48400000Y-43100000D01*
X39400000Y-80600000D02*
X39400000Y-79178680D01*
X43235840Y-37253500D02*
X44348100Y-37253500D01*
X39400000Y-61600000D02*
X39400000Y-60178680D01*
X43325180Y-56253500D02*
X44348100Y-56253500D01*
X39400000Y-79178680D02*
X43325180Y-75253500D01*
X43325180Y-75253500D02*
X44348100Y-75253500D01*
X39400000Y-41089340D02*
X43235840Y-37253500D01*
X39400000Y-98178680D02*
X43325180Y-94253500D01*
X39400000Y-99400000D02*
X39400000Y-98178680D01*
X43325180Y-94253500D02*
X44348100Y-94253500D01*
X39400000Y-60178680D02*
X43325180Y-56253500D01*
X39400000Y-42600000D02*
X39400000Y-41089340D01*
X49572000Y-56522000D02*
X49350000Y-56300000D01*
X44320100Y-73801400D02*
X48972000Y-69149500D01*
X49572000Y-60946500D02*
X49572000Y-56522000D01*
X48972000Y-69149500D02*
X48972000Y-64346500D01*
X48972000Y-64346500D02*
X48372000Y-63746500D01*
X48372000Y-62146500D02*
X49572000Y-60946500D01*
X48372000Y-63746500D02*
X48372000Y-62146500D01*
X49572000Y-75472000D02*
X49350000Y-75250000D01*
X48372000Y-82696500D02*
X48372000Y-81096500D01*
X48372000Y-81096500D02*
X49572000Y-79896500D01*
X44320100Y-92751400D02*
X48972000Y-88099500D01*
X48972000Y-83296500D02*
X48372000Y-82696500D01*
X48972000Y-88099500D02*
X48972000Y-83296500D01*
X49572000Y-79896500D02*
X49572000Y-75472000D01*
X41400000Y-33200000D02*
X40400000Y-33200000D01*
X40400000Y-33200000D02*
X39500000Y-34100000D01*
X39500000Y-34100000D02*
X39500000Y-35350000D01*
X39400000Y-51600000D02*
X39400000Y-54250000D01*
X39400000Y-54250000D02*
X39500000Y-54350000D01*
X39400000Y-73250000D02*
X39500000Y-73350000D01*
X39400000Y-70000000D02*
X39400000Y-73250000D01*
X39400000Y-89400000D02*
X39400000Y-92250000D01*
X39400000Y-92250000D02*
X39500000Y-92350000D01*
X48000000Y-32400000D02*
X47703000Y-32400000D01*
X47703000Y-32400000D02*
X44348100Y-35754900D01*
X53860000Y-62540000D02*
X53860000Y-81540000D01*
X53860000Y-100600000D02*
X50560000Y-103900000D01*
X53860000Y-43540000D02*
X53860000Y-62540000D01*
D17*
X53860000Y-62600000D02*
X50560000Y-65900000D01*
D16*
X53860000Y-81600000D02*
X50560000Y-84900000D01*
X50800000Y-38800000D02*
X53000000Y-38800000D01*
X53860000Y-39660000D02*
X53860000Y-43540000D01*
D17*
X53860000Y-43600000D02*
X50560000Y-46900000D01*
D16*
X53000000Y-38800000D02*
X53860000Y-39660000D01*
X53860000Y-100540000D02*
X53860000Y-81540000D01*
X53860000Y-100540000D02*
X53860000Y-100600000D01*
X53860000Y-81540000D02*
X53860000Y-81600000D01*
X52154900Y-35754900D02*
X49378000Y-35754900D01*
X50760500Y-73800000D02*
X49400000Y-73800000D01*
X50605600Y-54754900D02*
X49378000Y-54754900D01*
X52200000Y-35800000D02*
X52154900Y-35754900D01*
X53160500Y-52200000D02*
X50605600Y-54754900D01*
X50560500Y-92800000D02*
X49400000Y-92800000D01*
X53160500Y-71400000D02*
X50760500Y-73800000D01*
X53160500Y-90200000D02*
X50560500Y-92800000D01*
X53160500Y-91600000D02*
X50507000Y-94253500D01*
X50507000Y-94253500D02*
X49378000Y-94253500D01*
G04 #@! TA.AperFunction,Conductor*
G36*
X53642539Y-25020185D02*
G01*
X53688294Y-25072989D01*
X53699500Y-25124500D01*
X53699500Y-30975467D01*
X53699416Y-30975889D01*
X53699459Y-31000001D01*
X53699500Y-31000099D01*
X53699616Y-31000382D01*
X53699618Y-31000384D01*
X53699808Y-31000462D01*
X53700000Y-31000541D01*
X53700002Y-31000539D01*
X53724616Y-31000524D01*
X53724616Y-31000528D01*
X53724760Y-31000500D01*
X56375500Y-31000500D01*
X56442539Y-31020185D01*
X56488294Y-31072989D01*
X56499500Y-31124500D01*
X56499500Y-109937121D01*
X56499342Y-109941547D01*
X56494397Y-110010658D01*
X56483002Y-110155690D01*
X56481774Y-110164023D01*
X56460700Y-110260899D01*
X56433250Y-110375226D01*
X56431051Y-110382426D01*
X56394610Y-110480124D01*
X56351227Y-110584852D01*
X56348361Y-110590842D01*
X56298058Y-110682963D01*
X56296505Y-110685646D01*
X56238774Y-110779849D01*
X56235543Y-110784611D01*
X56172178Y-110869254D01*
X56169689Y-110872365D01*
X56098352Y-110955888D01*
X56095046Y-110959464D01*
X56020139Y-111034368D01*
X56016563Y-111037674D01*
X55933016Y-111109028D01*
X55929905Y-111111517D01*
X55845299Y-111174851D01*
X55840536Y-111178083D01*
X55746279Y-111235843D01*
X55743596Y-111237397D01*
X55651513Y-111287676D01*
X55645522Y-111290541D01*
X55540768Y-111333932D01*
X55538583Y-111334748D01*
X55443100Y-111370359D01*
X55435902Y-111372556D01*
X55321544Y-111400012D01*
X55224667Y-111421086D01*
X55216344Y-111422313D01*
X55075209Y-111433421D01*
X55001648Y-111438682D01*
X54997224Y-111438840D01*
X39002214Y-111438840D01*
X38997792Y-111438682D01*
X38931965Y-111433974D01*
X38783087Y-111422231D01*
X38774774Y-111421004D01*
X38682069Y-111400838D01*
X38563469Y-111372365D01*
X38556269Y-111370167D01*
X38461307Y-111334748D01*
X38354577Y-111290541D01*
X38353804Y-111290221D01*
X38347817Y-111287356D01*
X38257765Y-111238184D01*
X38255084Y-111236632D01*
X38158762Y-111177608D01*
X38153999Y-111174376D01*
X38071048Y-111112281D01*
X38067952Y-111109805D01*
X37982688Y-111036984D01*
X37979123Y-111033689D01*
X37905639Y-110960205D01*
X37902333Y-110956629D01*
X37868050Y-110916490D01*
X37829525Y-110871384D01*
X37827039Y-110868277D01*
X37764945Y-110785331D01*
X37761719Y-110780577D01*
X37702662Y-110684210D01*
X37701143Y-110681586D01*
X37651958Y-110591513D01*
X37649093Y-110585524D01*
X37604569Y-110478041D01*
X37599725Y-110465054D01*
X37569131Y-110383036D01*
X37566952Y-110375897D01*
X37538465Y-110257251D01*
X37537468Y-110252670D01*
X37518302Y-110164575D01*
X37517078Y-110156269D01*
X37505041Y-110003380D01*
X37500658Y-109942119D01*
X37500500Y-109937694D01*
X37500500Y-108500000D01*
X38994357Y-108500000D01*
X39002029Y-108592589D01*
X39002350Y-108596456D01*
X39002562Y-108601579D01*
X39002562Y-108624081D01*
X39006265Y-108646282D01*
X39006899Y-108651365D01*
X39014891Y-108747816D01*
X39014891Y-108747818D01*
X39038654Y-108841657D01*
X39039705Y-108846672D01*
X39043407Y-108868854D01*
X39043409Y-108868862D01*
X39050714Y-108890141D01*
X39052176Y-108895053D01*
X39075935Y-108988874D01*
X39075939Y-108988887D01*
X39114815Y-109077515D01*
X39116677Y-109082286D01*
X39123986Y-109103576D01*
X39123988Y-109103579D01*
X39134698Y-109123371D01*
X39136948Y-109127975D01*
X39175827Y-109216608D01*
X39228764Y-109297634D01*
X39231388Y-109302038D01*
X39242095Y-109321823D01*
X39242098Y-109321828D01*
X39255926Y-109339595D01*
X39258903Y-109343765D01*
X39311834Y-109424782D01*
X39311838Y-109424787D01*
X39377393Y-109496000D01*
X39380706Y-109499911D01*
X39394522Y-109517662D01*
X39411080Y-109532905D01*
X39414694Y-109536519D01*
X39480256Y-109607738D01*
X39556651Y-109667199D01*
X39560547Y-109670499D01*
X39566913Y-109676360D01*
X39577099Y-109685737D01*
X39595936Y-109698044D01*
X39600102Y-109701018D01*
X39676491Y-109760474D01*
X39761640Y-109806554D01*
X39766001Y-109809153D01*
X39784855Y-109821471D01*
X39805494Y-109830524D01*
X39810033Y-109832743D01*
X39895190Y-109878828D01*
X39986754Y-109910262D01*
X39991489Y-109912109D01*
X40012116Y-109921157D01*
X40033932Y-109926681D01*
X40038816Y-109928135D01*
X40110089Y-109952603D01*
X40130385Y-109959571D01*
X40164189Y-109965211D01*
X40225866Y-109975503D01*
X40230879Y-109976555D01*
X40252676Y-109982075D01*
X40252678Y-109982075D01*
X40252685Y-109982077D01*
X40275125Y-109983936D01*
X40280169Y-109984564D01*
X40375665Y-110000500D01*
X40375666Y-110000500D01*
X40472448Y-110000500D01*
X40477561Y-110000711D01*
X40493415Y-110002025D01*
X40499998Y-110002571D01*
X40500000Y-110002571D01*
X40500002Y-110002571D01*
X40506584Y-110002025D01*
X40522438Y-110000711D01*
X40527552Y-110000500D01*
X40624330Y-110000500D01*
X40624335Y-110000500D01*
X40719851Y-109984561D01*
X40724862Y-109983937D01*
X40747315Y-109982077D01*
X40769153Y-109976546D01*
X40774105Y-109975508D01*
X40869614Y-109959571D01*
X40961198Y-109928129D01*
X40966042Y-109926688D01*
X40987884Y-109921157D01*
X41008500Y-109912113D01*
X41013234Y-109910265D01*
X41104810Y-109878828D01*
X41189975Y-109832738D01*
X41194505Y-109830524D01*
X41215145Y-109821471D01*
X41234008Y-109809146D01*
X41238337Y-109806566D01*
X41323509Y-109760474D01*
X41399931Y-109700992D01*
X41404018Y-109698073D01*
X41422898Y-109685739D01*
X41439466Y-109670487D01*
X41443341Y-109667204D01*
X41519744Y-109607738D01*
X41585313Y-109536510D01*
X41588897Y-109532925D01*
X41605477Y-109517663D01*
X41619320Y-109499876D01*
X41622581Y-109496026D01*
X41688164Y-109424785D01*
X41741127Y-109343718D01*
X41744053Y-109339620D01*
X41757902Y-109321828D01*
X41768623Y-109302016D01*
X41771233Y-109297636D01*
X41824173Y-109216607D01*
X41863061Y-109127950D01*
X41865299Y-109123375D01*
X41865301Y-109123371D01*
X41876014Y-109103576D01*
X41883336Y-109082246D01*
X41885162Y-109077564D01*
X41924063Y-108988881D01*
X41947826Y-108895041D01*
X41949278Y-108890162D01*
X41956592Y-108868859D01*
X41960296Y-108846658D01*
X41961340Y-108841677D01*
X41985108Y-108747821D01*
X41993104Y-108651321D01*
X41993733Y-108646282D01*
X41997438Y-108624081D01*
X41998088Y-108592589D01*
X41998283Y-108588812D01*
X42005643Y-108500000D01*
X51994357Y-108500000D01*
X52002029Y-108592589D01*
X52002350Y-108596456D01*
X52002562Y-108601579D01*
X52002562Y-108624081D01*
X52006265Y-108646282D01*
X52006899Y-108651365D01*
X52014891Y-108747816D01*
X52014891Y-108747818D01*
X52038654Y-108841657D01*
X52039705Y-108846672D01*
X52043407Y-108868854D01*
X52043409Y-108868862D01*
X52050714Y-108890141D01*
X52052176Y-108895053D01*
X52075935Y-108988874D01*
X52075939Y-108988887D01*
X52114815Y-109077515D01*
X52116677Y-109082286D01*
X52123986Y-109103576D01*
X52123988Y-109103579D01*
X52134698Y-109123371D01*
X52136948Y-109127975D01*
X52175827Y-109216608D01*
X52228764Y-109297634D01*
X52231388Y-109302038D01*
X52242095Y-109321823D01*
X52242098Y-109321828D01*
X52255926Y-109339595D01*
X52258903Y-109343765D01*
X52311834Y-109424782D01*
X52311838Y-109424787D01*
X52377393Y-109496000D01*
X52380706Y-109499911D01*
X52394522Y-109517662D01*
X52411080Y-109532905D01*
X52414694Y-109536519D01*
X52480256Y-109607738D01*
X52556651Y-109667199D01*
X52560547Y-109670499D01*
X52566913Y-109676360D01*
X52577099Y-109685737D01*
X52595936Y-109698044D01*
X52600102Y-109701018D01*
X52676491Y-109760474D01*
X52761640Y-109806554D01*
X52766001Y-109809153D01*
X52784855Y-109821471D01*
X52805494Y-109830524D01*
X52810033Y-109832743D01*
X52895190Y-109878828D01*
X52986754Y-109910262D01*
X52991489Y-109912109D01*
X53012116Y-109921157D01*
X53033932Y-109926681D01*
X53038816Y-109928135D01*
X53110089Y-109952603D01*
X53130385Y-109959571D01*
X53164189Y-109965211D01*
X53225866Y-109975503D01*
X53230879Y-109976555D01*
X53252676Y-109982075D01*
X53252678Y-109982075D01*
X53252685Y-109982077D01*
X53275125Y-109983936D01*
X53280169Y-109984564D01*
X53375665Y-110000500D01*
X53375666Y-110000500D01*
X53472448Y-110000500D01*
X53477561Y-110000711D01*
X53493415Y-110002025D01*
X53499998Y-110002571D01*
X53500000Y-110002571D01*
X53500002Y-110002571D01*
X53506584Y-110002025D01*
X53522438Y-110000711D01*
X53527552Y-110000500D01*
X53624330Y-110000500D01*
X53624335Y-110000500D01*
X53719851Y-109984561D01*
X53724862Y-109983937D01*
X53747315Y-109982077D01*
X53769153Y-109976546D01*
X53774105Y-109975508D01*
X53869614Y-109959571D01*
X53961198Y-109928129D01*
X53966042Y-109926688D01*
X53987884Y-109921157D01*
X54008500Y-109912113D01*
X54013234Y-109910265D01*
X54104810Y-109878828D01*
X54189975Y-109832738D01*
X54194505Y-109830524D01*
X54215145Y-109821471D01*
X54234008Y-109809146D01*
X54238337Y-109806566D01*
X54323509Y-109760474D01*
X54399931Y-109700992D01*
X54404018Y-109698073D01*
X54422898Y-109685739D01*
X54439466Y-109670487D01*
X54443341Y-109667204D01*
X54519744Y-109607738D01*
X54585313Y-109536510D01*
X54588897Y-109532925D01*
X54605477Y-109517663D01*
X54619320Y-109499876D01*
X54622581Y-109496026D01*
X54688164Y-109424785D01*
X54741127Y-109343718D01*
X54744053Y-109339620D01*
X54757902Y-109321828D01*
X54768623Y-109302016D01*
X54771233Y-109297636D01*
X54824173Y-109216607D01*
X54863061Y-109127950D01*
X54865299Y-109123375D01*
X54865301Y-109123371D01*
X54876014Y-109103576D01*
X54883336Y-109082246D01*
X54885162Y-109077564D01*
X54924063Y-108988881D01*
X54947826Y-108895041D01*
X54949278Y-108890162D01*
X54956592Y-108868859D01*
X54960296Y-108846658D01*
X54961340Y-108841677D01*
X54985108Y-108747821D01*
X54993104Y-108651321D01*
X54993733Y-108646282D01*
X54997438Y-108624081D01*
X54998088Y-108592589D01*
X54998283Y-108588812D01*
X55005643Y-108500000D01*
X54998284Y-108411190D01*
X54998088Y-108407407D01*
X54997438Y-108375919D01*
X54993733Y-108353714D01*
X54993103Y-108348666D01*
X54985108Y-108252179D01*
X54961341Y-108158327D01*
X54960295Y-108153334D01*
X54956592Y-108131143D01*
X54956591Y-108131140D01*
X54949283Y-108109850D01*
X54947825Y-108104952D01*
X54924062Y-108011116D01*
X54885185Y-107922487D01*
X54885174Y-107922461D01*
X54883329Y-107917734D01*
X54876014Y-107896424D01*
X54865298Y-107876622D01*
X54863052Y-107872029D01*
X54824173Y-107783393D01*
X54824173Y-107783392D01*
X54771231Y-107702358D01*
X54768607Y-107697954D01*
X54757904Y-107678177D01*
X54757902Y-107678172D01*
X54744080Y-107660413D01*
X54741102Y-107656242D01*
X54688166Y-107575218D01*
X54688165Y-107575217D01*
X54688164Y-107575215D01*
X54658241Y-107542710D01*
X54622606Y-107503999D01*
X54619295Y-107500090D01*
X54605477Y-107482337D01*
X54605473Y-107482332D01*
X54588919Y-107467093D01*
X54585301Y-107463476D01*
X54519744Y-107392262D01*
X54443352Y-107332804D01*
X54439444Y-107329493D01*
X54422898Y-107314261D01*
X54404063Y-107301955D01*
X54399897Y-107298981D01*
X54323509Y-107239526D01*
X54323508Y-107239525D01*
X54323505Y-107239523D01*
X54323503Y-107239522D01*
X54238385Y-107193459D01*
X54233981Y-107190835D01*
X54215145Y-107178529D01*
X54194547Y-107169494D01*
X54189940Y-107167242D01*
X54104811Y-107121172D01*
X54104802Y-107121169D01*
X54013259Y-107089742D01*
X54008484Y-107087879D01*
X54008312Y-107087803D01*
X53987884Y-107078843D01*
X53987880Y-107078842D01*
X53987878Y-107078841D01*
X53966076Y-107073319D01*
X53961166Y-107071858D01*
X53869614Y-107040429D01*
X53774138Y-107024496D01*
X53769123Y-107023444D01*
X53747312Y-107017922D01*
X53747316Y-107017922D01*
X53724895Y-107016065D01*
X53719810Y-107015431D01*
X53624336Y-106999500D01*
X53624335Y-106999500D01*
X53527541Y-106999500D01*
X53522427Y-106999288D01*
X53506555Y-106997973D01*
X53500002Y-106997430D01*
X53499998Y-106997430D01*
X53493444Y-106997973D01*
X53477572Y-106999288D01*
X53472459Y-106999500D01*
X53375665Y-106999500D01*
X53280188Y-107015431D01*
X53275103Y-107016065D01*
X53252688Y-107017922D01*
X53252683Y-107017923D01*
X53230880Y-107023444D01*
X53225866Y-107024495D01*
X53130382Y-107040429D01*
X53038834Y-107071856D01*
X53033927Y-107073317D01*
X53012126Y-107078839D01*
X53012116Y-107078843D01*
X52991510Y-107087881D01*
X52986738Y-107089742D01*
X52895194Y-107121170D01*
X52895183Y-107121175D01*
X52810062Y-107167240D01*
X52805458Y-107169491D01*
X52784854Y-107178529D01*
X52784845Y-107178534D01*
X52766023Y-107190831D01*
X52761621Y-107193455D01*
X52676492Y-107239524D01*
X52676489Y-107239527D01*
X52600106Y-107298977D01*
X52595938Y-107301954D01*
X52577099Y-107314263D01*
X52560542Y-107329503D01*
X52556635Y-107332812D01*
X52480255Y-107392262D01*
X52414697Y-107463476D01*
X52411075Y-107467098D01*
X52394529Y-107482330D01*
X52394514Y-107482346D01*
X52380699Y-107500094D01*
X52377390Y-107504001D01*
X52311836Y-107575215D01*
X52258901Y-107656236D01*
X52255925Y-107660404D01*
X52242099Y-107678170D01*
X52242094Y-107678177D01*
X52231386Y-107697964D01*
X52228763Y-107702365D01*
X52175828Y-107783390D01*
X52136953Y-107872015D01*
X52134704Y-107876615D01*
X52123985Y-107896424D01*
X52116676Y-107917714D01*
X52114814Y-107922487D01*
X52088724Y-107981967D01*
X52075939Y-108011116D01*
X52075936Y-108011122D01*
X52052177Y-108104942D01*
X52050716Y-108109850D01*
X52043408Y-108131140D01*
X52039705Y-108153327D01*
X52038654Y-108158342D01*
X52014891Y-108252178D01*
X52014891Y-108252182D01*
X52006898Y-108348634D01*
X52006265Y-108353714D01*
X52002562Y-108375919D01*
X52002562Y-108398419D01*
X52002350Y-108403535D01*
X51994357Y-108500000D01*
X42005643Y-108500000D01*
X41998284Y-108411190D01*
X41998088Y-108407407D01*
X41997438Y-108375919D01*
X41993733Y-108353714D01*
X41993103Y-108348666D01*
X41985108Y-108252179D01*
X41961341Y-108158327D01*
X41960295Y-108153334D01*
X41956592Y-108131143D01*
X41956591Y-108131140D01*
X41949283Y-108109850D01*
X41947825Y-108104952D01*
X41924062Y-108011116D01*
X41885185Y-107922487D01*
X41885174Y-107922461D01*
X41883329Y-107917734D01*
X41876014Y-107896424D01*
X41865298Y-107876622D01*
X41863052Y-107872029D01*
X41824173Y-107783393D01*
X41824173Y-107783392D01*
X41771231Y-107702358D01*
X41768607Y-107697954D01*
X41757904Y-107678177D01*
X41757902Y-107678172D01*
X41744080Y-107660413D01*
X41741102Y-107656242D01*
X41688166Y-107575218D01*
X41688165Y-107575217D01*
X41688164Y-107575215D01*
X41658241Y-107542710D01*
X41622606Y-107503999D01*
X41619295Y-107500090D01*
X41605477Y-107482337D01*
X41605473Y-107482332D01*
X41588919Y-107467093D01*
X41585301Y-107463476D01*
X41519744Y-107392262D01*
X41443352Y-107332804D01*
X41439444Y-107329493D01*
X41422898Y-107314261D01*
X41404063Y-107301955D01*
X41399897Y-107298981D01*
X41323509Y-107239526D01*
X41323508Y-107239525D01*
X41323505Y-107239523D01*
X41323503Y-107239522D01*
X41238385Y-107193459D01*
X41233981Y-107190835D01*
X41215145Y-107178529D01*
X41194547Y-107169494D01*
X41189940Y-107167242D01*
X41104811Y-107121172D01*
X41104802Y-107121169D01*
X41013259Y-107089742D01*
X41008484Y-107087879D01*
X41008312Y-107087803D01*
X40987884Y-107078843D01*
X40987880Y-107078842D01*
X40987878Y-107078841D01*
X40966076Y-107073319D01*
X40961166Y-107071858D01*
X40869614Y-107040429D01*
X40774138Y-107024496D01*
X40769123Y-107023444D01*
X40747312Y-107017922D01*
X40747316Y-107017922D01*
X40724895Y-107016065D01*
X40719810Y-107015431D01*
X40624336Y-106999500D01*
X40624335Y-106999500D01*
X40527541Y-106999500D01*
X40522427Y-106999288D01*
X40506555Y-106997973D01*
X40500002Y-106997430D01*
X40499998Y-106997430D01*
X40493444Y-106997973D01*
X40477572Y-106999288D01*
X40472459Y-106999500D01*
X40375665Y-106999500D01*
X40280188Y-107015431D01*
X40275103Y-107016065D01*
X40252688Y-107017922D01*
X40252683Y-107017923D01*
X40230880Y-107023444D01*
X40225866Y-107024495D01*
X40130382Y-107040429D01*
X40038834Y-107071856D01*
X40033927Y-107073317D01*
X40012126Y-107078839D01*
X40012116Y-107078843D01*
X39991510Y-107087881D01*
X39986738Y-107089742D01*
X39895194Y-107121170D01*
X39895183Y-107121175D01*
X39810062Y-107167240D01*
X39805458Y-107169491D01*
X39784854Y-107178529D01*
X39784845Y-107178534D01*
X39766023Y-107190831D01*
X39761621Y-107193455D01*
X39676492Y-107239524D01*
X39676489Y-107239527D01*
X39600106Y-107298977D01*
X39595938Y-107301954D01*
X39577099Y-107314263D01*
X39560542Y-107329503D01*
X39556635Y-107332812D01*
X39480255Y-107392262D01*
X39414697Y-107463476D01*
X39411075Y-107467098D01*
X39394529Y-107482330D01*
X39394514Y-107482346D01*
X39380699Y-107500094D01*
X39377390Y-107504001D01*
X39311836Y-107575215D01*
X39258901Y-107656236D01*
X39255925Y-107660404D01*
X39242099Y-107678170D01*
X39242094Y-107678177D01*
X39231386Y-107697964D01*
X39228763Y-107702365D01*
X39175828Y-107783390D01*
X39136953Y-107872015D01*
X39134704Y-107876615D01*
X39123985Y-107896424D01*
X39116676Y-107917714D01*
X39114814Y-107922487D01*
X39088724Y-107981967D01*
X39075939Y-108011116D01*
X39075936Y-108011122D01*
X39052177Y-108104942D01*
X39050716Y-108109850D01*
X39043408Y-108131140D01*
X39039705Y-108153327D01*
X39038654Y-108158342D01*
X39014891Y-108252178D01*
X39014891Y-108252182D01*
X39006898Y-108348634D01*
X39006265Y-108353714D01*
X39002562Y-108375919D01*
X39002562Y-108398419D01*
X39002350Y-108403535D01*
X38994357Y-108500000D01*
X37500500Y-108500000D01*
X37500500Y-103732500D01*
X37520185Y-103665461D01*
X37572989Y-103619706D01*
X37624500Y-103608500D01*
X38527500Y-103608500D01*
X38594539Y-103628185D01*
X38640294Y-103680989D01*
X38651500Y-103732500D01*
X38651500Y-105313654D01*
X38658011Y-105374202D01*
X38658011Y-105374204D01*
X38698057Y-105481567D01*
X38709111Y-105511204D01*
X38796739Y-105628261D01*
X38913796Y-105715889D01*
X39050799Y-105766989D01*
X39078050Y-105769918D01*
X39111345Y-105773499D01*
X39111362Y-105773500D01*
X42708638Y-105773500D01*
X42708654Y-105773499D01*
X42735692Y-105770591D01*
X42769201Y-105766989D01*
X42906204Y-105715889D01*
X43023261Y-105628261D01*
X43110889Y-105511204D01*
X43161989Y-105374201D01*
X43165591Y-105340692D01*
X43168499Y-105313654D01*
X43168500Y-105313637D01*
X43168500Y-104546524D01*
X43188185Y-104479485D01*
X43240989Y-104433730D01*
X43310147Y-104423786D01*
X43369810Y-104449575D01*
X43471143Y-104530386D01*
X43698357Y-104661568D01*
X43942584Y-104757420D01*
X44198370Y-104815802D01*
X44198376Y-104815802D01*
X44198379Y-104815803D01*
X44394500Y-104830500D01*
X44394506Y-104830500D01*
X44525500Y-104830500D01*
X44721620Y-104815803D01*
X44721622Y-104815802D01*
X44721630Y-104815802D01*
X44977416Y-104757420D01*
X45221643Y-104661568D01*
X45221646Y-104661566D01*
X45221647Y-104661566D01*
X45264118Y-104637045D01*
X45332018Y-104620571D01*
X45398045Y-104643423D01*
X45437839Y-104690630D01*
X45479767Y-104777695D01*
X45479768Y-104777697D01*
X45479770Y-104777700D01*
X45479772Y-104777704D01*
X45505747Y-104815802D01*
X45627567Y-104994479D01*
X45806014Y-105186801D01*
X45806018Y-105186804D01*
X45806019Y-105186805D01*
X46011143Y-105350386D01*
X46238357Y-105481568D01*
X46482584Y-105577420D01*
X46738370Y-105635802D01*
X46738376Y-105635802D01*
X46738379Y-105635803D01*
X46934500Y-105650500D01*
X46934506Y-105650500D01*
X47065500Y-105650500D01*
X47261620Y-105635803D01*
X47261622Y-105635802D01*
X47261630Y-105635802D01*
X47517416Y-105577420D01*
X47761643Y-105481568D01*
X47988857Y-105350386D01*
X48193981Y-105186805D01*
X48372433Y-104994479D01*
X48520228Y-104777704D01*
X48634063Y-104541323D01*
X48659010Y-104460446D01*
X48697579Y-104402189D01*
X48761524Y-104374032D01*
X48830541Y-104384915D01*
X48882717Y-104431383D01*
X48901500Y-104496998D01*
X48901500Y-105248654D01*
X48908011Y-105309202D01*
X48908011Y-105309204D01*
X48932255Y-105374202D01*
X48959111Y-105446204D01*
X49046739Y-105563261D01*
X49163796Y-105650889D01*
X49300799Y-105701989D01*
X49328050Y-105704918D01*
X49361345Y-105708499D01*
X49361362Y-105708500D01*
X51758638Y-105708500D01*
X51758654Y-105708499D01*
X51785692Y-105705591D01*
X51819201Y-105701989D01*
X51956204Y-105650889D01*
X52073261Y-105563261D01*
X52160889Y-105446204D01*
X52210334Y-105313638D01*
X52211988Y-105309204D01*
X52211988Y-105309203D01*
X52211989Y-105309201D01*
X52215591Y-105275692D01*
X52218499Y-105248654D01*
X52218500Y-105248637D01*
X52218500Y-104294237D01*
X52226560Y-104250260D01*
X52737313Y-102903725D01*
X52779494Y-102848026D01*
X52809736Y-102831590D01*
X54077834Y-102356385D01*
X54121347Y-102348500D01*
X55108638Y-102348500D01*
X55108654Y-102348499D01*
X55135692Y-102345591D01*
X55169201Y-102341989D01*
X55306204Y-102290889D01*
X55423261Y-102203261D01*
X55510889Y-102086204D01*
X55561989Y-101949201D01*
X55565591Y-101915692D01*
X55568499Y-101888654D01*
X55568500Y-101888637D01*
X55568500Y-99191362D01*
X55568499Y-99191345D01*
X55565157Y-99160270D01*
X55561989Y-99130799D01*
X55510889Y-98993796D01*
X55423261Y-98876739D01*
X55306204Y-98789111D01*
X55169203Y-98738011D01*
X55138710Y-98734732D01*
X55074159Y-98707992D01*
X55059799Y-98694394D01*
X54500331Y-98072761D01*
X54470116Y-98009763D01*
X54468500Y-97989810D01*
X54468500Y-84090188D01*
X54488185Y-84023149D01*
X54500331Y-84007237D01*
X55059798Y-83385605D01*
X55119277Y-83348943D01*
X55138702Y-83345267D01*
X55169201Y-83341989D01*
X55169206Y-83341987D01*
X55169207Y-83341987D01*
X55195535Y-83332166D01*
X55306204Y-83290889D01*
X55423261Y-83203261D01*
X55510889Y-83086204D01*
X55561989Y-82949201D01*
X55567878Y-82894425D01*
X55568499Y-82888654D01*
X55568500Y-82888637D01*
X55568500Y-80191362D01*
X55568499Y-80191345D01*
X55565157Y-80160270D01*
X55561989Y-80130799D01*
X55510889Y-79993796D01*
X55423261Y-79876739D01*
X55306204Y-79789111D01*
X55169203Y-79738011D01*
X55138710Y-79734732D01*
X55074159Y-79707992D01*
X55059799Y-79694394D01*
X54500331Y-79072761D01*
X54470116Y-79009763D01*
X54468500Y-78989810D01*
X54468500Y-65090188D01*
X54488185Y-65023149D01*
X54500331Y-65007237D01*
X55059798Y-64385605D01*
X55119277Y-64348943D01*
X55138702Y-64345267D01*
X55169201Y-64341989D01*
X55169206Y-64341987D01*
X55169207Y-64341987D01*
X55221940Y-64322318D01*
X55306204Y-64290889D01*
X55423261Y-64203261D01*
X55510889Y-64086204D01*
X55561989Y-63949201D01*
X55566704Y-63905342D01*
X55568499Y-63888654D01*
X55568500Y-63888637D01*
X55568500Y-61191362D01*
X55568499Y-61191345D01*
X55565157Y-61160270D01*
X55561989Y-61130799D01*
X55510889Y-60993796D01*
X55423261Y-60876739D01*
X55306204Y-60789111D01*
X55169203Y-60738011D01*
X55138710Y-60734732D01*
X55074159Y-60707992D01*
X55059799Y-60694394D01*
X54500331Y-60072761D01*
X54470116Y-60009763D01*
X54468500Y-59989810D01*
X54468500Y-46090188D01*
X54488185Y-46023149D01*
X54500331Y-46007237D01*
X55059798Y-45385605D01*
X55119277Y-45348943D01*
X55138702Y-45345267D01*
X55169201Y-45341989D01*
X55169206Y-45341987D01*
X55169207Y-45341987D01*
X55215511Y-45324716D01*
X55306204Y-45290889D01*
X55423261Y-45203261D01*
X55510889Y-45086204D01*
X55561989Y-44949201D01*
X55565591Y-44915692D01*
X55568499Y-44888654D01*
X55568500Y-44888637D01*
X55568500Y-42191362D01*
X55568499Y-42191345D01*
X55565157Y-42160270D01*
X55561989Y-42130799D01*
X55510889Y-41993796D01*
X55423261Y-41876739D01*
X55306204Y-41789111D01*
X55169203Y-41738011D01*
X55138710Y-41734732D01*
X55074159Y-41707992D01*
X55059799Y-41694394D01*
X54500331Y-41072761D01*
X54470116Y-41009763D01*
X54468500Y-40989810D01*
X54468500Y-39703951D01*
X54469031Y-39695850D01*
X54471813Y-39674724D01*
X54473751Y-39660000D01*
X54473096Y-39655028D01*
X54458519Y-39544302D01*
X54452838Y-39501149D01*
X54407275Y-39391150D01*
X54391526Y-39353128D01*
X54391523Y-39353123D01*
X54317235Y-39256308D01*
X54317215Y-39256284D01*
X54307116Y-39243123D01*
X54293987Y-39226013D01*
X54293985Y-39226011D01*
X54293984Y-39226010D01*
X54277939Y-39213699D01*
X54265293Y-39203995D01*
X54259203Y-39198654D01*
X53461354Y-38400805D01*
X53456001Y-38394702D01*
X53441752Y-38376133D01*
X53433987Y-38366013D01*
X53433985Y-38366011D01*
X53433984Y-38366010D01*
X53402075Y-38341526D01*
X53402074Y-38341525D01*
X53402072Y-38341523D01*
X53316244Y-38275664D01*
X53306877Y-38268476D01*
X53306873Y-38268474D01*
X53158850Y-38207161D01*
X53139457Y-38204608D01*
X53037704Y-38191212D01*
X53037678Y-38191210D01*
X53000001Y-38186250D01*
X52999999Y-38186250D01*
X52989527Y-38187628D01*
X52964151Y-38190969D01*
X52956054Y-38191500D01*
X52772513Y-38191500D01*
X52705474Y-38171815D01*
X52659719Y-38119011D01*
X52649775Y-38049853D01*
X52678800Y-37986297D01*
X52704375Y-37963899D01*
X52704633Y-37963728D01*
X52705696Y-37963030D01*
X52826092Y-37835418D01*
X52913812Y-37683481D01*
X52964130Y-37515410D01*
X52974331Y-37340265D01*
X52943865Y-37167489D01*
X52874377Y-37006396D01*
X52769610Y-36865670D01*
X52769609Y-36865669D01*
X52663458Y-36776597D01*
X52624756Y-36718426D01*
X52623648Y-36648565D01*
X52660485Y-36589195D01*
X52670279Y-36581290D01*
X52763345Y-36513673D01*
X52811253Y-36478866D01*
X52939040Y-36336944D01*
X53034527Y-36171556D01*
X53093542Y-35989928D01*
X53113504Y-35800000D01*
X53093542Y-35610072D01*
X53034527Y-35428444D01*
X52939040Y-35263056D01*
X52811253Y-35121134D01*
X52656752Y-35008882D01*
X52482288Y-34931206D01*
X52482286Y-34931205D01*
X52295487Y-34891500D01*
X52104513Y-34891500D01*
X51917715Y-34931205D01*
X51917713Y-34931205D01*
X51917712Y-34931206D01*
X51896871Y-34940484D01*
X51870537Y-34948838D01*
X51866077Y-34949722D01*
X51363012Y-35126715D01*
X51327037Y-35139372D01*
X51285883Y-35146400D01*
X50879423Y-35146400D01*
X50812384Y-35126715D01*
X50804774Y-35121413D01*
X50567733Y-34942699D01*
X50567734Y-34942700D01*
X50510028Y-34905523D01*
X50506474Y-34903053D01*
X50499204Y-34897611D01*
X50415667Y-34866453D01*
X50393074Y-34858026D01*
X50378069Y-34852184D01*
X50374428Y-34851070D01*
X50362204Y-34846511D01*
X50362200Y-34846510D01*
X50301654Y-34840000D01*
X50301638Y-34840000D01*
X50256791Y-34840000D01*
X50250535Y-34839683D01*
X50242819Y-34838900D01*
X50234188Y-34838024D01*
X50225244Y-34838398D01*
X50225243Y-34838398D01*
X50219622Y-34838935D01*
X50211411Y-34839719D01*
X50205519Y-34840000D01*
X48454345Y-34840000D01*
X48393797Y-34846511D01*
X48393795Y-34846511D01*
X48256795Y-34897611D01*
X48211920Y-34931205D01*
X48142238Y-34983367D01*
X48076777Y-35007784D01*
X48067930Y-35008100D01*
X46254811Y-35008100D01*
X46187772Y-34988415D01*
X46142017Y-34935611D01*
X46132073Y-34866453D01*
X46161098Y-34802897D01*
X46167130Y-34796419D01*
X46457518Y-34506031D01*
X47591023Y-33372524D01*
X47652344Y-33339041D01*
X47670492Y-33336479D01*
X47964586Y-33316975D01*
X48023075Y-33313097D01*
X48064497Y-33308827D01*
X48070858Y-33308500D01*
X48095487Y-33308500D01*
X48282288Y-33268794D01*
X48456752Y-33191118D01*
X48611253Y-33078866D01*
X48739040Y-32936944D01*
X48834527Y-32771556D01*
X48893542Y-32589928D01*
X48913504Y-32400000D01*
X48893542Y-32210072D01*
X48834527Y-32028444D01*
X48739040Y-31863056D01*
X48611253Y-31721134D01*
X48456752Y-31608882D01*
X48282288Y-31531206D01*
X48282286Y-31531205D01*
X48095487Y-31491500D01*
X47904513Y-31491500D01*
X47717714Y-31531205D01*
X47543246Y-31608883D01*
X47388744Y-31721136D01*
X47388741Y-31721138D01*
X47328374Y-31788184D01*
X47325236Y-31791424D01*
X47304321Y-31811503D01*
X47304320Y-31811504D01*
X47285677Y-31835377D01*
X47282887Y-31838703D01*
X47260961Y-31863052D01*
X47260960Y-31863054D01*
X47254319Y-31874556D01*
X47249488Y-31881718D01*
X46865184Y-32373843D01*
X46860584Y-32380020D01*
X46848817Y-32393632D01*
X44703117Y-34539332D01*
X44666553Y-34564625D01*
X44082315Y-34828974D01*
X44031198Y-34840000D01*
X43424445Y-34840000D01*
X43363897Y-34846511D01*
X43363895Y-34846511D01*
X43226895Y-34897611D01*
X43109839Y-34985239D01*
X43022211Y-35102295D01*
X42971111Y-35239295D01*
X42971111Y-35239297D01*
X42964600Y-35299845D01*
X42964600Y-36209954D01*
X42971111Y-36270502D01*
X42971111Y-36270504D01*
X43022211Y-36407504D01*
X43044276Y-36436979D01*
X43068693Y-36502443D01*
X43053842Y-36570716D01*
X43044278Y-36585598D01*
X43029748Y-36605008D01*
X43029745Y-36605013D01*
X42979503Y-36739720D01*
X42979501Y-36739727D01*
X42973100Y-36799255D01*
X42973100Y-37003500D01*
X44474100Y-37003500D01*
X44541139Y-37023185D01*
X44586894Y-37075989D01*
X44598100Y-37127500D01*
X44598100Y-38159900D01*
X45270928Y-38159900D01*
X45270944Y-38159899D01*
X45330472Y-38153498D01*
X45330479Y-38153496D01*
X45465186Y-38103254D01*
X45465188Y-38103252D01*
X45575555Y-38020633D01*
X45641019Y-37996216D01*
X45649866Y-37995900D01*
X48062052Y-37995900D01*
X48129091Y-38015585D01*
X48136363Y-38020633D01*
X48139737Y-38023159D01*
X48139739Y-38023161D01*
X48256796Y-38110789D01*
X48371297Y-38153496D01*
X48388463Y-38159899D01*
X48393799Y-38161889D01*
X48421050Y-38164818D01*
X48454345Y-38168399D01*
X48454362Y-38168400D01*
X48809886Y-38168400D01*
X48876925Y-38188085D01*
X48894835Y-38202070D01*
X48952452Y-38256258D01*
X48987801Y-38316525D01*
X48991500Y-38346585D01*
X48991500Y-39531588D01*
X48971815Y-39598627D01*
X48919011Y-39644382D01*
X48849853Y-39654326D01*
X48786297Y-39625301D01*
X48767672Y-39605143D01*
X48727042Y-39550000D01*
X48722446Y-39543762D01*
X48512980Y-39327176D01*
X48425286Y-39257925D01*
X48276521Y-39140446D01*
X48276517Y-39140443D01*
X48276515Y-39140442D01*
X48017270Y-38986891D01*
X47739872Y-38869264D01*
X47739863Y-38869261D01*
X47449272Y-38789660D01*
X47374616Y-38779620D01*
X47150653Y-38749500D01*
X46924756Y-38749500D01*
X46924748Y-38749500D01*
X46699368Y-38764587D01*
X46699359Y-38764589D01*
X46404094Y-38824604D01*
X46119464Y-38923439D01*
X46119459Y-38923441D01*
X45850546Y-39059328D01*
X45602125Y-39229860D01*
X45378665Y-39431969D01*
X45184132Y-39662064D01*
X45022006Y-39916030D01*
X45022005Y-39916032D01*
X44906842Y-40164205D01*
X44895177Y-40189342D01*
X44895176Y-40189346D01*
X44805907Y-40477118D01*
X44787133Y-40588419D01*
X44755791Y-40774230D01*
X44746249Y-41059654D01*
X44745723Y-41075373D01*
X44775881Y-41375160D01*
X44775882Y-41375162D01*
X44845728Y-41668252D01*
X44845733Y-41668266D01*
X44954020Y-41949427D01*
X44954024Y-41949436D01*
X45098825Y-42213665D01*
X45098829Y-42213671D01*
X45226917Y-42387513D01*
X45277554Y-42456238D01*
X45487020Y-42672824D01*
X45507618Y-42689090D01*
X45723478Y-42859553D01*
X45723480Y-42859554D01*
X45723485Y-42859558D01*
X45982730Y-43013109D01*
X46260128Y-43130736D01*
X46550729Y-43210340D01*
X46849347Y-43250500D01*
X46849351Y-43250500D01*
X47075252Y-43250500D01*
X47239164Y-43239526D01*
X47300634Y-43235412D01*
X47595903Y-43175396D01*
X47626823Y-43164658D01*
X47696609Y-43161262D01*
X47757154Y-43196134D01*
X47789235Y-43258204D01*
X47791500Y-43281797D01*
X47791500Y-44656054D01*
X47790969Y-44664156D01*
X47786250Y-44699998D01*
X47791021Y-44736248D01*
X47791023Y-44736262D01*
X47799130Y-44797837D01*
X47807162Y-44858852D01*
X47868473Y-45006871D01*
X47868476Y-45006877D01*
X47906729Y-45056728D01*
X47941523Y-45102072D01*
X47941525Y-45102074D01*
X47941526Y-45102075D01*
X47966012Y-45133986D01*
X47994698Y-45155998D01*
X48000794Y-45161343D01*
X48033152Y-45193701D01*
X48066637Y-45255024D01*
X48061653Y-45324716D01*
X48019781Y-45380649D01*
X47954317Y-45405066D01*
X47886044Y-45390214D01*
X47883471Y-45388769D01*
X47761643Y-45318432D01*
X47517421Y-45222582D01*
X47517416Y-45222580D01*
X47517411Y-45222578D01*
X47517402Y-45222576D01*
X47299818Y-45172914D01*
X47261630Y-45164198D01*
X47261629Y-45164197D01*
X47261625Y-45164197D01*
X47261620Y-45164196D01*
X47065500Y-45149500D01*
X47065494Y-45149500D01*
X46934506Y-45149500D01*
X46934500Y-45149500D01*
X46738379Y-45164196D01*
X46738374Y-45164197D01*
X46482597Y-45222576D01*
X46482578Y-45222582D01*
X46238363Y-45318429D01*
X46238357Y-45318432D01*
X46195877Y-45342957D01*
X46127977Y-45359427D01*
X46061951Y-45336574D01*
X46022160Y-45289369D01*
X45980232Y-45202303D01*
X45980231Y-45202302D01*
X45980230Y-45202301D01*
X45980228Y-45202296D01*
X45832433Y-44985521D01*
X45751159Y-44897928D01*
X45653985Y-44793198D01*
X45537118Y-44700000D01*
X45448857Y-44629614D01*
X45221643Y-44498432D01*
X44977416Y-44402580D01*
X44977411Y-44402578D01*
X44977402Y-44402576D01*
X44759818Y-44352914D01*
X44721630Y-44344198D01*
X44721629Y-44344197D01*
X44721625Y-44344197D01*
X44721620Y-44344196D01*
X44525500Y-44329500D01*
X44525494Y-44329500D01*
X44394506Y-44329500D01*
X44394500Y-44329500D01*
X44198379Y-44344196D01*
X44198374Y-44344197D01*
X43942585Y-44402579D01*
X43858890Y-44435426D01*
X43789293Y-44441593D01*
X43727410Y-44409155D01*
X43695098Y-44356547D01*
X43641048Y-44181323D01*
X43634063Y-44158677D01*
X43595859Y-44079346D01*
X43520232Y-43922303D01*
X43520231Y-43922302D01*
X43520230Y-43922301D01*
X43520228Y-43922296D01*
X43372433Y-43705521D01*
X43340571Y-43671182D01*
X43193985Y-43513198D01*
X43116445Y-43451362D01*
X42988857Y-43349614D01*
X42761643Y-43218432D01*
X42517416Y-43122580D01*
X42517411Y-43122578D01*
X42517402Y-43122576D01*
X42299818Y-43072914D01*
X42261630Y-43064198D01*
X42261629Y-43064197D01*
X42261625Y-43064197D01*
X42261620Y-43064196D01*
X42065500Y-43049500D01*
X42065494Y-43049500D01*
X41934506Y-43049500D01*
X41934500Y-43049500D01*
X41738379Y-43064196D01*
X41738374Y-43064197D01*
X41482597Y-43122576D01*
X41482578Y-43122582D01*
X41238356Y-43218432D01*
X41011143Y-43349614D01*
X40806014Y-43513198D01*
X40627567Y-43705520D01*
X40592578Y-43756841D01*
X40544952Y-43826694D01*
X40490925Y-43870995D01*
X40421521Y-43879054D01*
X40358779Y-43848311D01*
X40322617Y-43788527D01*
X40318500Y-43756841D01*
X40318500Y-43451362D01*
X40318499Y-43451345D01*
X40313926Y-43408818D01*
X40311989Y-43390799D01*
X40260889Y-43253796D01*
X40173261Y-43136739D01*
X40056204Y-43049111D01*
X39919203Y-42998011D01*
X39901113Y-42996066D01*
X39836563Y-42969327D01*
X39823407Y-42957048D01*
X39726894Y-42852869D01*
X39705031Y-42830662D01*
X39586085Y-42745730D01*
X39585645Y-42745502D01*
X39579031Y-42742082D01*
X39550891Y-42728596D01*
X39550888Y-42728595D01*
X39410171Y-42689090D01*
X39410165Y-42689089D01*
X39410161Y-42689088D01*
X39408066Y-42688658D01*
X39407433Y-42688322D01*
X39405908Y-42687894D01*
X39406001Y-42687561D01*
X39346353Y-42655896D01*
X39312150Y-42594970D01*
X39310060Y-42583384D01*
X39304187Y-42538770D01*
X39302546Y-42527303D01*
X39259874Y-42387513D01*
X39256857Y-42381089D01*
X39251817Y-42370665D01*
X39230468Y-42339752D01*
X39208568Y-42273403D01*
X39208500Y-42269286D01*
X39208500Y-40940346D01*
X40295702Y-40940346D01*
X40305819Y-41178528D01*
X40305819Y-41178532D01*
X40356045Y-41411580D01*
X40440877Y-41622689D01*
X40444936Y-41632790D01*
X40569931Y-41835795D01*
X40727436Y-42014755D01*
X40912920Y-42164523D01*
X41121046Y-42280790D01*
X41345829Y-42360211D01*
X41580790Y-42400499D01*
X41580798Y-42400499D01*
X41580800Y-42400500D01*
X41580801Y-42400500D01*
X41759502Y-42400500D01*
X41937536Y-42385347D01*
X41937539Y-42385346D01*
X41937541Y-42385346D01*
X42168249Y-42325275D01*
X42323933Y-42254901D01*
X42385480Y-42227080D01*
X42385481Y-42227078D01*
X42385486Y-42227077D01*
X42583003Y-42093579D01*
X42755118Y-41928621D01*
X42896879Y-41736947D01*
X43004207Y-41524074D01*
X43074016Y-41296123D01*
X43104298Y-41059654D01*
X43103352Y-41037395D01*
X43094180Y-40821471D01*
X43094180Y-40821467D01*
X43043954Y-40588419D01*
X42955064Y-40367211D01*
X42955064Y-40367210D01*
X42830069Y-40164205D01*
X42672564Y-39985245D01*
X42487080Y-39835477D01*
X42373130Y-39771820D01*
X42278955Y-39719210D01*
X42054170Y-39639788D01*
X41819209Y-39599500D01*
X41819200Y-39599500D01*
X41640503Y-39599500D01*
X41640498Y-39599500D01*
X41462463Y-39614652D01*
X41231751Y-39674724D01*
X41014519Y-39772919D01*
X41014511Y-39772924D01*
X40817006Y-39906413D01*
X40816997Y-39906421D01*
X40644881Y-40071379D01*
X40503123Y-40263050D01*
X40503120Y-40263054D01*
X40395796Y-40475920D01*
X40395793Y-40475926D01*
X40325983Y-40703878D01*
X40295702Y-40940346D01*
X39208500Y-40940346D01*
X39208500Y-39947325D01*
X39228185Y-39880286D01*
X39280989Y-39834531D01*
X39283283Y-39833511D01*
X39592603Y-39699885D01*
X39780606Y-39618668D01*
X39829781Y-39608500D01*
X39923867Y-39608500D01*
X39923872Y-39608500D01*
X40024336Y-39598236D01*
X40187101Y-39544302D01*
X40333040Y-39454285D01*
X40454285Y-39333040D01*
X40544302Y-39187101D01*
X40598236Y-39024336D01*
X40608500Y-38923872D01*
X40608500Y-38376128D01*
X40598236Y-38275664D01*
X40544302Y-38112899D01*
X40544298Y-38112893D01*
X40544297Y-38112890D01*
X40454287Y-37966963D01*
X40454284Y-37966959D01*
X40333040Y-37845715D01*
X40333036Y-37845712D01*
X40187109Y-37755702D01*
X40187103Y-37755699D01*
X40187101Y-37755698D01*
X40024336Y-37701764D01*
X39923879Y-37691500D01*
X39923872Y-37691500D01*
X39076128Y-37691500D01*
X39076120Y-37691500D01*
X38975663Y-37701764D01*
X38812901Y-37755697D01*
X38812890Y-37755702D01*
X38666963Y-37845712D01*
X38666959Y-37845715D01*
X38545715Y-37966959D01*
X38545712Y-37966963D01*
X38455702Y-38112890D01*
X38455697Y-38112901D01*
X38401764Y-38275663D01*
X38391500Y-38376120D01*
X38391500Y-38499964D01*
X38385808Y-38537102D01*
X38227899Y-39040146D01*
X38189040Y-39098212D01*
X38185080Y-39101382D01*
X38166012Y-39116013D01*
X38141522Y-39147929D01*
X38068476Y-39243123D01*
X38033661Y-39327176D01*
X38013024Y-39376999D01*
X38007162Y-39391150D01*
X37992681Y-39501149D01*
X37990957Y-39514241D01*
X37990955Y-39514254D01*
X37986250Y-39550000D01*
X37990969Y-39585843D01*
X37991500Y-39593945D01*
X37991500Y-42254901D01*
X37971815Y-42321940D01*
X37960857Y-42336512D01*
X37717851Y-42614466D01*
X37658909Y-42651979D01*
X37589040Y-42651671D01*
X37530429Y-42613637D01*
X37501685Y-42549954D01*
X37500500Y-42532849D01*
X37500500Y-37428133D01*
X41025668Y-37428133D01*
X41041058Y-37515410D01*
X41056135Y-37600911D01*
X41125623Y-37762004D01*
X41125624Y-37762006D01*
X41125626Y-37762009D01*
X41229836Y-37901986D01*
X41230390Y-37902730D01*
X41364786Y-38015502D01*
X41425919Y-38046204D01*
X41521562Y-38094238D01*
X41521563Y-38094238D01*
X41521567Y-38094240D01*
X41692279Y-38134700D01*
X41692282Y-38134700D01*
X41823701Y-38134700D01*
X41823709Y-38134700D01*
X41954255Y-38119441D01*
X42119117Y-38059437D01*
X42265696Y-37963030D01*
X42386092Y-37835418D01*
X42473812Y-37683481D01*
X42524130Y-37515410D01*
X42524824Y-37503500D01*
X42973100Y-37503500D01*
X42973100Y-37707744D01*
X42979501Y-37767272D01*
X42979503Y-37767279D01*
X43029745Y-37901986D01*
X43029749Y-37901993D01*
X43115909Y-38017087D01*
X43115912Y-38017090D01*
X43231006Y-38103250D01*
X43231013Y-38103254D01*
X43365720Y-38153496D01*
X43365727Y-38153498D01*
X43425255Y-38159899D01*
X43425272Y-38159900D01*
X44098100Y-38159900D01*
X44098100Y-37503500D01*
X42973100Y-37503500D01*
X42524824Y-37503500D01*
X42534331Y-37340265D01*
X42503865Y-37167489D01*
X42434377Y-37006396D01*
X42329610Y-36865670D01*
X42257747Y-36805370D01*
X42195214Y-36752898D01*
X42195212Y-36752897D01*
X42038437Y-36674161D01*
X42028319Y-36671763D01*
X41867721Y-36633700D01*
X41736291Y-36633700D01*
X41631854Y-36645907D01*
X41605743Y-36648959D01*
X41605740Y-36648960D01*
X41440884Y-36708962D01*
X41440880Y-36708964D01*
X41294306Y-36805367D01*
X41294305Y-36805368D01*
X41173910Y-36932978D01*
X41086188Y-37084918D01*
X41035870Y-37252989D01*
X41035869Y-37252994D01*
X41025668Y-37428133D01*
X37500500Y-37428133D01*
X37500500Y-35623879D01*
X38391500Y-35623879D01*
X38401764Y-35724336D01*
X38455697Y-35887098D01*
X38455702Y-35887109D01*
X38545712Y-36033036D01*
X38545715Y-36033040D01*
X38666959Y-36154284D01*
X38666963Y-36154287D01*
X38812890Y-36244297D01*
X38812893Y-36244298D01*
X38812899Y-36244302D01*
X38975664Y-36298236D01*
X39076128Y-36308500D01*
X39076133Y-36308500D01*
X39923867Y-36308500D01*
X39923872Y-36308500D01*
X40024336Y-36298236D01*
X40187101Y-36244302D01*
X40333040Y-36154285D01*
X40454285Y-36033040D01*
X40544302Y-35887101D01*
X40598236Y-35724336D01*
X40608500Y-35623872D01*
X40608500Y-35076128D01*
X40598236Y-34975664D01*
X40544302Y-34812899D01*
X40544298Y-34812893D01*
X40544297Y-34812890D01*
X40454287Y-34666963D01*
X40454286Y-34666962D01*
X40454285Y-34666960D01*
X40333040Y-34545715D01*
X40318894Y-34536989D01*
X40284929Y-34506033D01*
X40207817Y-34403603D01*
X40183224Y-34338206D01*
X40197891Y-34269893D01*
X40219200Y-34241347D01*
X40544287Y-33916260D01*
X40605608Y-33882777D01*
X40675300Y-33887761D01*
X40679623Y-33889467D01*
X41038629Y-34039053D01*
X41062267Y-34047449D01*
X41097120Y-34059830D01*
X41101587Y-34061614D01*
X41117712Y-34068794D01*
X41304513Y-34108500D01*
X41495487Y-34108500D01*
X41682288Y-34068794D01*
X41856752Y-33991118D01*
X42011253Y-33878866D01*
X42139040Y-33736944D01*
X42234527Y-33571556D01*
X42293542Y-33389928D01*
X42313504Y-33200000D01*
X42293542Y-33010072D01*
X42234527Y-32828444D01*
X42139040Y-32663056D01*
X42011253Y-32521134D01*
X41856752Y-32408882D01*
X41682288Y-32331206D01*
X41682286Y-32331205D01*
X41495487Y-32291500D01*
X41304513Y-32291500D01*
X41117713Y-32331205D01*
X41117708Y-32331207D01*
X41077233Y-32349227D01*
X41057723Y-32356029D01*
X41038628Y-32360945D01*
X41038628Y-32360946D01*
X40508191Y-32581962D01*
X40460499Y-32591500D01*
X40443945Y-32591500D01*
X40435846Y-32590969D01*
X40400000Y-32586250D01*
X40399996Y-32586250D01*
X40363307Y-32591080D01*
X40363292Y-32591082D01*
X40360117Y-32591500D01*
X40360115Y-32591500D01*
X40241150Y-32607162D01*
X40241146Y-32607163D01*
X40202913Y-32623000D01*
X40093125Y-32668474D01*
X40093123Y-32668476D01*
X39999561Y-32740270D01*
X39966010Y-32766015D01*
X39943996Y-32794703D01*
X39938645Y-32800805D01*
X39100801Y-33638649D01*
X39094698Y-33644000D01*
X39066013Y-33666012D01*
X39041522Y-33697929D01*
X38968476Y-33793123D01*
X38968475Y-33793125D01*
X38908516Y-33937882D01*
X38907163Y-33941147D01*
X38907161Y-33941153D01*
X38890957Y-34064241D01*
X38890955Y-34064254D01*
X38886250Y-34100000D01*
X38890969Y-34135843D01*
X38891500Y-34143945D01*
X38891500Y-34230219D01*
X38871815Y-34297258D01*
X38866570Y-34304792D01*
X38715072Y-34506032D01*
X38681108Y-34536987D01*
X38677308Y-34539332D01*
X38666958Y-34545716D01*
X38545712Y-34666963D01*
X38455702Y-34812890D01*
X38455697Y-34812901D01*
X38401764Y-34975663D01*
X38391500Y-35076120D01*
X38391500Y-35623879D01*
X37500500Y-35623879D01*
X37500500Y-31124500D01*
X37520185Y-31057461D01*
X37572989Y-31011706D01*
X37624500Y-31000500D01*
X40275240Y-31000500D01*
X40275383Y-31000528D01*
X40275384Y-31000524D01*
X40299997Y-31000539D01*
X40300000Y-31000541D01*
X40300383Y-31000383D01*
X40300500Y-31000099D01*
X40300541Y-31000000D01*
X40300540Y-30999997D01*
X40300583Y-30975889D01*
X40300500Y-30975467D01*
X40300500Y-25124500D01*
X40320185Y-25057461D01*
X40372989Y-25011706D01*
X40424500Y-25000500D01*
X53575500Y-25000500D01*
X53642539Y-25020185D01*
G37*
G04 #@! TD.AperFunction*
G04 #@! TA.AperFunction,Conductor*
G36*
X38594539Y-84628185D02*
G01*
X38640294Y-84680989D01*
X38651500Y-84732500D01*
X38651500Y-86313654D01*
X38658011Y-86374202D01*
X38658011Y-86374204D01*
X38698057Y-86481567D01*
X38709111Y-86511204D01*
X38796739Y-86628261D01*
X38913796Y-86715889D01*
X39050799Y-86766989D01*
X39078050Y-86769918D01*
X39111345Y-86773499D01*
X39111362Y-86773500D01*
X42708638Y-86773500D01*
X42708654Y-86773499D01*
X42735692Y-86770591D01*
X42769201Y-86766989D01*
X42906204Y-86715889D01*
X43023261Y-86628261D01*
X43110889Y-86511204D01*
X43161989Y-86374201D01*
X43165591Y-86340692D01*
X43168499Y-86313654D01*
X43168500Y-86313637D01*
X43168500Y-85546524D01*
X43188185Y-85479485D01*
X43240989Y-85433730D01*
X43310147Y-85423786D01*
X43369810Y-85449575D01*
X43471143Y-85530386D01*
X43698357Y-85661568D01*
X43942584Y-85757420D01*
X44198370Y-85815802D01*
X44198376Y-85815802D01*
X44198379Y-85815803D01*
X44394500Y-85830500D01*
X44394506Y-85830500D01*
X44525500Y-85830500D01*
X44721620Y-85815803D01*
X44721622Y-85815802D01*
X44721630Y-85815802D01*
X44977416Y-85757420D01*
X45221643Y-85661568D01*
X45221646Y-85661566D01*
X45221647Y-85661566D01*
X45264118Y-85637045D01*
X45332018Y-85620571D01*
X45398045Y-85643423D01*
X45437839Y-85690630D01*
X45479767Y-85777695D01*
X45479768Y-85777697D01*
X45479770Y-85777700D01*
X45479772Y-85777704D01*
X45505747Y-85815802D01*
X45627567Y-85994479D01*
X45806014Y-86186801D01*
X45806018Y-86186804D01*
X45806019Y-86186805D01*
X46011143Y-86350386D01*
X46238357Y-86481568D01*
X46482584Y-86577420D01*
X46738370Y-86635802D01*
X46738376Y-86635802D01*
X46738379Y-86635803D01*
X46934500Y-86650500D01*
X46934506Y-86650500D01*
X47065500Y-86650500D01*
X47261620Y-86635803D01*
X47261622Y-86635802D01*
X47261630Y-86635802D01*
X47517416Y-86577420D01*
X47761643Y-86481568D01*
X47988857Y-86350386D01*
X48162189Y-86212158D01*
X48226874Y-86185751D01*
X48295569Y-86198506D01*
X48346463Y-86246377D01*
X48363500Y-86309106D01*
X48363500Y-87796088D01*
X48343815Y-87863127D01*
X48327181Y-87883769D01*
X44669046Y-91541903D01*
X44633906Y-91566540D01*
X44074299Y-91828318D01*
X44021758Y-91840000D01*
X43424445Y-91840000D01*
X43363897Y-91846511D01*
X43363895Y-91846511D01*
X43226895Y-91897611D01*
X43109839Y-91985239D01*
X43022211Y-92102295D01*
X42971111Y-92239295D01*
X42971111Y-92239297D01*
X42964600Y-92299845D01*
X42964600Y-93209954D01*
X42971111Y-93270502D01*
X42971111Y-93270504D01*
X43022211Y-93407504D01*
X43044276Y-93436979D01*
X43068693Y-93502443D01*
X43053842Y-93570716D01*
X43044278Y-93585598D01*
X43029748Y-93605008D01*
X43029745Y-93605013D01*
X42979503Y-93739720D01*
X42979501Y-93739727D01*
X42973100Y-93799255D01*
X42973100Y-94003500D01*
X44474100Y-94003500D01*
X44541139Y-94023185D01*
X44586894Y-94075989D01*
X44598100Y-94127500D01*
X44598100Y-95159900D01*
X45270928Y-95159900D01*
X45270944Y-95159899D01*
X45330472Y-95153498D01*
X45330479Y-95153496D01*
X45465186Y-95103254D01*
X45465188Y-95103252D01*
X45575555Y-95020633D01*
X45641019Y-94996216D01*
X45649866Y-94995900D01*
X48062052Y-94995900D01*
X48129091Y-95015585D01*
X48136363Y-95020633D01*
X48139737Y-95023159D01*
X48139739Y-95023161D01*
X48256796Y-95110789D01*
X48371297Y-95153496D01*
X48388463Y-95159899D01*
X48393799Y-95161889D01*
X48421050Y-95164818D01*
X48454345Y-95168399D01*
X48454362Y-95168400D01*
X50301638Y-95168400D01*
X50301654Y-95168399D01*
X50328692Y-95165491D01*
X50362201Y-95161889D01*
X50367537Y-95159899D01*
X50384703Y-95153496D01*
X50499204Y-95110789D01*
X50616261Y-95023161D01*
X50703889Y-94906104D01*
X50709273Y-94891667D01*
X50744976Y-94840664D01*
X50793851Y-94798968D01*
X50812338Y-94785911D01*
X50813862Y-94785029D01*
X50813876Y-94785024D01*
X50909072Y-94711977D01*
X50909073Y-94711975D01*
X50917164Y-94705767D01*
X50917171Y-94705761D01*
X50940983Y-94687490D01*
X50940982Y-94687490D01*
X50940987Y-94687487D01*
X50963010Y-94658785D01*
X50968338Y-94652709D01*
X50984349Y-94636698D01*
X50987913Y-94633406D01*
X51016948Y-94608637D01*
X51025184Y-94601020D01*
X51025185Y-94601020D01*
X51077758Y-94544738D01*
X51087213Y-94533834D01*
X51256352Y-94364695D01*
X51317673Y-94331212D01*
X51387365Y-94336196D01*
X51443298Y-94378068D01*
X51466146Y-94430844D01*
X51496135Y-94600911D01*
X51565623Y-94762004D01*
X51565624Y-94762006D01*
X51565626Y-94762009D01*
X51639722Y-94861536D01*
X51670390Y-94902730D01*
X51804786Y-95015502D01*
X51882488Y-95054525D01*
X51961562Y-95094238D01*
X51961563Y-95094238D01*
X51961567Y-95094240D01*
X52132279Y-95134700D01*
X52132282Y-95134700D01*
X52263701Y-95134700D01*
X52263709Y-95134700D01*
X52394255Y-95119441D01*
X52559117Y-95059437D01*
X52705696Y-94963030D01*
X52826092Y-94835418D01*
X52913812Y-94683481D01*
X52964130Y-94515410D01*
X52974331Y-94340265D01*
X52943865Y-94167489D01*
X52874377Y-94006396D01*
X52769610Y-93865670D01*
X52697747Y-93805370D01*
X52635214Y-93752898D01*
X52635212Y-93752897D01*
X52478437Y-93674161D01*
X52478433Y-93674160D01*
X52307721Y-93633700D01*
X52286710Y-93633700D01*
X52219671Y-93614015D01*
X52173916Y-93561211D01*
X52163972Y-93492053D01*
X52192997Y-93428497D01*
X52199029Y-93422019D01*
X52466764Y-93154284D01*
X52926450Y-92694597D01*
X52966911Y-92667623D01*
X53080289Y-92620937D01*
X53149771Y-92613614D01*
X53212185Y-92645020D01*
X53247712Y-92705183D01*
X53251500Y-92735598D01*
X53251500Y-96716019D01*
X53231815Y-96783058D01*
X53179011Y-96828813D01*
X53109853Y-96838757D01*
X53067026Y-96824273D01*
X52878957Y-96719211D01*
X52654170Y-96639788D01*
X52419209Y-96599500D01*
X52419200Y-96599500D01*
X52240503Y-96599500D01*
X52240498Y-96599500D01*
X52062463Y-96614652D01*
X51831751Y-96674724D01*
X51614519Y-96772919D01*
X51614511Y-96772924D01*
X51417006Y-96906413D01*
X51416997Y-96906421D01*
X51244881Y-97071379D01*
X51103123Y-97263050D01*
X51103120Y-97263054D01*
X50995796Y-97475920D01*
X50995793Y-97475926D01*
X50925983Y-97703878D01*
X50895702Y-97940346D01*
X50905819Y-98178528D01*
X50905819Y-98178532D01*
X50956046Y-98411582D01*
X50956046Y-98411583D01*
X51040876Y-98622689D01*
X51047607Y-98692233D01*
X51015671Y-98754377D01*
X50955207Y-98789390D01*
X50916552Y-98792576D01*
X50875500Y-98789500D01*
X50875494Y-98789500D01*
X50744506Y-98789500D01*
X50744500Y-98789500D01*
X50548379Y-98804196D01*
X50548374Y-98804197D01*
X50292597Y-98862576D01*
X50292578Y-98862582D01*
X50048356Y-98958432D01*
X49821143Y-99089614D01*
X49616014Y-99253198D01*
X49437567Y-99445520D01*
X49289768Y-99662302D01*
X49289767Y-99662303D01*
X49175938Y-99898673D01*
X49098606Y-100149376D01*
X49098605Y-100149381D01*
X49098604Y-100149385D01*
X49088197Y-100218432D01*
X49059500Y-100408812D01*
X49059500Y-100671187D01*
X49072411Y-100756841D01*
X49098604Y-100930615D01*
X49098605Y-100930617D01*
X49098606Y-100930623D01*
X49175938Y-101181326D01*
X49289767Y-101417696D01*
X49289768Y-101417697D01*
X49289770Y-101417700D01*
X49289772Y-101417704D01*
X49338126Y-101488626D01*
X49437567Y-101634479D01*
X49616014Y-101826801D01*
X49616018Y-101826804D01*
X49616019Y-101826805D01*
X49670878Y-101870554D01*
X49711018Y-101927741D01*
X49713868Y-101997553D01*
X49678523Y-102057823D01*
X49616204Y-102089416D01*
X49593565Y-102091500D01*
X49361345Y-102091500D01*
X49300797Y-102098011D01*
X49300795Y-102098011D01*
X49163795Y-102149111D01*
X49046739Y-102236739D01*
X48959111Y-102353795D01*
X48908011Y-102490795D01*
X48908011Y-102490797D01*
X48901500Y-102551345D01*
X48901500Y-103303001D01*
X48881815Y-103370040D01*
X48829011Y-103415795D01*
X48759853Y-103425739D01*
X48696297Y-103396714D01*
X48659009Y-103339551D01*
X48647735Y-103303001D01*
X48634063Y-103258677D01*
X48581071Y-103148638D01*
X48520232Y-103022303D01*
X48520231Y-103022302D01*
X48520230Y-103022301D01*
X48520228Y-103022296D01*
X48372433Y-102805521D01*
X48362441Y-102794753D01*
X48193985Y-102613198D01*
X48116445Y-102551362D01*
X47988857Y-102449614D01*
X47761643Y-102318432D01*
X47517416Y-102222580D01*
X47517411Y-102222578D01*
X47517402Y-102222576D01*
X47299818Y-102172914D01*
X47261630Y-102164198D01*
X47261629Y-102164197D01*
X47261625Y-102164197D01*
X47261620Y-102164196D01*
X47065500Y-102149500D01*
X47065494Y-102149500D01*
X46934506Y-102149500D01*
X46934500Y-102149500D01*
X46738379Y-102164196D01*
X46738374Y-102164197D01*
X46482597Y-102222576D01*
X46482578Y-102222582D01*
X46238363Y-102318429D01*
X46238357Y-102318432D01*
X46195877Y-102342957D01*
X46127977Y-102359427D01*
X46061951Y-102336574D01*
X46022160Y-102289369D01*
X45980232Y-102202303D01*
X45980231Y-102202302D01*
X45980230Y-102202301D01*
X45980228Y-102202296D01*
X45832433Y-101985521D01*
X45742554Y-101888654D01*
X45653985Y-101793198D01*
X45614533Y-101761736D01*
X45448857Y-101629614D01*
X45221643Y-101498432D01*
X44977416Y-101402580D01*
X44977411Y-101402578D01*
X44977402Y-101402576D01*
X44759818Y-101352914D01*
X44721630Y-101344198D01*
X44721629Y-101344197D01*
X44721625Y-101344197D01*
X44721620Y-101344196D01*
X44525500Y-101329500D01*
X44525494Y-101329500D01*
X44394506Y-101329500D01*
X44394500Y-101329500D01*
X44198379Y-101344196D01*
X44198374Y-101344197D01*
X43942585Y-101402579D01*
X43858890Y-101435426D01*
X43789293Y-101441593D01*
X43727410Y-101409155D01*
X43695098Y-101356547D01*
X43641048Y-101181323D01*
X43634063Y-101158677D01*
X43595859Y-101079346D01*
X43520232Y-100922303D01*
X43520231Y-100922302D01*
X43520230Y-100922301D01*
X43520228Y-100922296D01*
X43372433Y-100705521D01*
X43340571Y-100671182D01*
X43193985Y-100513198D01*
X43116445Y-100451362D01*
X42988857Y-100349614D01*
X42761643Y-100218432D01*
X42517416Y-100122580D01*
X42517411Y-100122578D01*
X42517402Y-100122576D01*
X42299818Y-100072914D01*
X42261630Y-100064198D01*
X42261629Y-100064197D01*
X42261625Y-100064197D01*
X42261620Y-100064196D01*
X42065500Y-100049500D01*
X42065494Y-100049500D01*
X41934506Y-100049500D01*
X41934500Y-100049500D01*
X41738379Y-100064196D01*
X41738374Y-100064197D01*
X41482597Y-100122576D01*
X41482578Y-100122582D01*
X41238356Y-100218432D01*
X41011143Y-100349614D01*
X40806014Y-100513198D01*
X40627567Y-100705520D01*
X40592578Y-100756841D01*
X40544952Y-100826694D01*
X40490925Y-100870995D01*
X40421521Y-100879054D01*
X40358779Y-100848311D01*
X40322617Y-100788527D01*
X40318500Y-100756841D01*
X40318500Y-100451362D01*
X40318499Y-100451345D01*
X40313926Y-100408818D01*
X40311989Y-100390799D01*
X40260889Y-100253796D01*
X40173261Y-100136739D01*
X40056204Y-100049111D01*
X39919203Y-99998011D01*
X39901112Y-99996066D01*
X39836561Y-99969328D01*
X39823404Y-99957047D01*
X39808230Y-99940668D01*
X39453775Y-99558057D01*
X39445604Y-99549954D01*
X39438332Y-99542742D01*
X39420821Y-99526790D01*
X39404203Y-99512885D01*
X39350900Y-99471985D01*
X39328010Y-99449095D01*
X39316986Y-99434728D01*
X39305454Y-99416654D01*
X39298520Y-99403380D01*
X39298518Y-99403378D01*
X39298516Y-99403373D01*
X39296290Y-99399900D01*
X39296287Y-99399895D01*
X39240666Y-99328021D01*
X39241501Y-99328922D01*
X39210407Y-99266353D01*
X39208500Y-99244689D01*
X39208500Y-97940346D01*
X40295702Y-97940346D01*
X40305819Y-98178528D01*
X40305819Y-98178532D01*
X40356045Y-98411580D01*
X40440877Y-98622689D01*
X40444936Y-98632790D01*
X40569931Y-98835795D01*
X40727436Y-99014755D01*
X40912920Y-99164523D01*
X41121046Y-99280790D01*
X41237512Y-99321940D01*
X41345829Y-99360211D01*
X41580790Y-99400499D01*
X41580798Y-99400499D01*
X41580800Y-99400500D01*
X41580801Y-99400500D01*
X41759502Y-99400500D01*
X41937536Y-99385347D01*
X41937539Y-99385346D01*
X41937541Y-99385346D01*
X42168249Y-99325275D01*
X42346524Y-99244689D01*
X42385480Y-99227080D01*
X42385481Y-99227078D01*
X42385486Y-99227077D01*
X42583003Y-99093579D01*
X42755118Y-98928621D01*
X42896879Y-98736947D01*
X43004207Y-98524074D01*
X43074016Y-98296123D01*
X43102285Y-98075373D01*
X44745723Y-98075373D01*
X44775881Y-98375160D01*
X44775882Y-98375162D01*
X44845728Y-98668252D01*
X44845733Y-98668266D01*
X44954020Y-98949427D01*
X44954024Y-98949436D01*
X45098825Y-99213665D01*
X45098829Y-99213671D01*
X45206801Y-99360211D01*
X45277554Y-99456238D01*
X45460836Y-99645750D01*
X45487019Y-99672823D01*
X45723478Y-99859553D01*
X45723480Y-99859554D01*
X45723485Y-99859558D01*
X45982730Y-100013109D01*
X46260128Y-100130736D01*
X46550729Y-100210340D01*
X46849347Y-100250500D01*
X46849351Y-100250500D01*
X47075252Y-100250500D01*
X47239164Y-100239526D01*
X47300634Y-100235412D01*
X47595903Y-100175396D01*
X47880537Y-100076560D01*
X48149459Y-99940668D01*
X48397869Y-99770144D01*
X48621333Y-99568032D01*
X48815865Y-99337939D01*
X48977993Y-99083970D01*
X49104823Y-98810658D01*
X49194093Y-98522879D01*
X49244209Y-98225770D01*
X49254277Y-97924631D01*
X49224118Y-97624838D01*
X49154269Y-97331739D01*
X49045977Y-97050566D01*
X48901175Y-96786335D01*
X48898760Y-96783058D01*
X48818939Y-96674724D01*
X48722446Y-96543762D01*
X48512980Y-96327176D01*
X48406545Y-96243125D01*
X48276521Y-96140446D01*
X48276517Y-96140443D01*
X48276515Y-96140442D01*
X48017270Y-95986891D01*
X47739872Y-95869264D01*
X47739863Y-95869261D01*
X47449272Y-95789660D01*
X47374616Y-95779620D01*
X47150653Y-95749500D01*
X46924756Y-95749500D01*
X46924748Y-95749500D01*
X46699368Y-95764587D01*
X46699359Y-95764589D01*
X46404094Y-95824604D01*
X46119464Y-95923439D01*
X46119459Y-95923441D01*
X45850546Y-96059328D01*
X45602125Y-96229860D01*
X45378665Y-96431969D01*
X45184132Y-96662064D01*
X45022006Y-96916030D01*
X45022005Y-96916032D01*
X44906842Y-97164205D01*
X44895177Y-97189342D01*
X44895176Y-97189346D01*
X44805907Y-97477118D01*
X44787133Y-97588419D01*
X44755791Y-97774230D01*
X44746249Y-98059654D01*
X44745723Y-98075373D01*
X43102285Y-98075373D01*
X43104298Y-98059654D01*
X43103352Y-98037395D01*
X43094180Y-97821471D01*
X43094180Y-97821467D01*
X43043954Y-97588419D01*
X42955064Y-97367211D01*
X42955064Y-97367210D01*
X42830069Y-97164205D01*
X42672564Y-96985245D01*
X42487080Y-96835477D01*
X42373130Y-96771820D01*
X42278955Y-96719210D01*
X42054170Y-96639788D01*
X41819209Y-96599500D01*
X41819200Y-96599500D01*
X41640503Y-96599500D01*
X41640498Y-96599500D01*
X41462463Y-96614652D01*
X41231751Y-96674724D01*
X41014519Y-96772919D01*
X41014511Y-96772924D01*
X40817006Y-96906413D01*
X40816997Y-96906421D01*
X40644881Y-97071379D01*
X40503123Y-97263050D01*
X40503120Y-97263054D01*
X40395796Y-97475920D01*
X40395793Y-97475926D01*
X40325983Y-97703878D01*
X40295702Y-97940346D01*
X39208500Y-97940346D01*
X39208500Y-96947325D01*
X39228185Y-96880286D01*
X39280989Y-96834531D01*
X39283283Y-96833511D01*
X39650844Y-96674725D01*
X39780606Y-96618668D01*
X39829781Y-96608500D01*
X39923867Y-96608500D01*
X39923872Y-96608500D01*
X40024336Y-96598236D01*
X40187101Y-96544302D01*
X40333040Y-96454285D01*
X40454285Y-96333040D01*
X40544302Y-96187101D01*
X40598236Y-96024336D01*
X40608500Y-95923872D01*
X40608500Y-95376128D01*
X40598236Y-95275664D01*
X40544302Y-95112899D01*
X40544298Y-95112893D01*
X40544297Y-95112890D01*
X40454287Y-94966963D01*
X40454284Y-94966959D01*
X40333040Y-94845715D01*
X40333036Y-94845712D01*
X40187109Y-94755702D01*
X40187103Y-94755699D01*
X40187101Y-94755698D01*
X40024336Y-94701764D01*
X39923879Y-94691500D01*
X39923872Y-94691500D01*
X39076128Y-94691500D01*
X39076120Y-94691500D01*
X38975663Y-94701764D01*
X38812901Y-94755697D01*
X38812890Y-94755702D01*
X38666963Y-94845712D01*
X38666959Y-94845715D01*
X38545715Y-94966959D01*
X38545712Y-94966963D01*
X38455702Y-95112890D01*
X38455697Y-95112901D01*
X38401764Y-95275663D01*
X38391500Y-95376120D01*
X38391500Y-95499964D01*
X38385808Y-95537102D01*
X38227899Y-96040146D01*
X38189040Y-96098212D01*
X38185080Y-96101382D01*
X38166012Y-96116013D01*
X38141522Y-96147929D01*
X38068476Y-96243123D01*
X38068475Y-96243125D01*
X38013124Y-96376757D01*
X38007162Y-96391147D01*
X37990957Y-96514241D01*
X37990955Y-96514254D01*
X37986250Y-96550000D01*
X37990969Y-96585843D01*
X37991500Y-96593945D01*
X37991500Y-99254901D01*
X37971815Y-99321940D01*
X37960857Y-99336512D01*
X37717851Y-99614466D01*
X37658909Y-99651979D01*
X37589040Y-99651671D01*
X37530429Y-99613637D01*
X37501685Y-99549954D01*
X37500500Y-99532849D01*
X37500500Y-94428133D01*
X41025668Y-94428133D01*
X41041058Y-94515410D01*
X41056135Y-94600911D01*
X41125623Y-94762004D01*
X41125624Y-94762006D01*
X41125626Y-94762009D01*
X41199722Y-94861536D01*
X41230390Y-94902730D01*
X41364786Y-95015502D01*
X41442488Y-95054525D01*
X41521562Y-95094238D01*
X41521563Y-95094238D01*
X41521567Y-95094240D01*
X41692279Y-95134700D01*
X41692282Y-95134700D01*
X41823701Y-95134700D01*
X41823709Y-95134700D01*
X41954255Y-95119441D01*
X42119117Y-95059437D01*
X42265696Y-94963030D01*
X42386092Y-94835418D01*
X42473812Y-94683481D01*
X42524130Y-94515410D01*
X42524824Y-94503500D01*
X42973100Y-94503500D01*
X42973100Y-94707744D01*
X42979501Y-94767272D01*
X42979503Y-94767279D01*
X43029745Y-94901986D01*
X43029749Y-94901993D01*
X43115909Y-95017087D01*
X43115912Y-95017090D01*
X43231006Y-95103250D01*
X43231013Y-95103254D01*
X43365720Y-95153496D01*
X43365727Y-95153498D01*
X43425255Y-95159899D01*
X43425272Y-95159900D01*
X44098100Y-95159900D01*
X44098100Y-94503500D01*
X42973100Y-94503500D01*
X42524824Y-94503500D01*
X42534331Y-94340265D01*
X42503865Y-94167489D01*
X42434377Y-94006396D01*
X42329610Y-93865670D01*
X42257747Y-93805370D01*
X42195214Y-93752898D01*
X42195212Y-93752897D01*
X42038437Y-93674161D01*
X42038433Y-93674160D01*
X41867721Y-93633700D01*
X41736291Y-93633700D01*
X41631854Y-93645907D01*
X41605743Y-93648959D01*
X41605740Y-93648960D01*
X41440884Y-93708962D01*
X41440880Y-93708964D01*
X41294306Y-93805367D01*
X41294305Y-93805368D01*
X41173910Y-93932978D01*
X41086188Y-94084918D01*
X41035870Y-94252989D01*
X41035869Y-94252994D01*
X41025668Y-94428133D01*
X37500500Y-94428133D01*
X37500500Y-92623879D01*
X38391500Y-92623879D01*
X38401764Y-92724336D01*
X38455697Y-92887098D01*
X38455702Y-92887109D01*
X38545712Y-93033036D01*
X38545715Y-93033040D01*
X38666959Y-93154284D01*
X38666963Y-93154287D01*
X38812890Y-93244297D01*
X38812893Y-93244298D01*
X38812899Y-93244302D01*
X38975664Y-93298236D01*
X39076128Y-93308500D01*
X39076133Y-93308500D01*
X39923867Y-93308500D01*
X39923872Y-93308500D01*
X40024336Y-93298236D01*
X40187101Y-93244302D01*
X40333040Y-93154285D01*
X40454285Y-93033040D01*
X40544302Y-92887101D01*
X40598236Y-92724336D01*
X40608500Y-92623872D01*
X40608500Y-92076128D01*
X40598236Y-91975664D01*
X40544302Y-91812899D01*
X40544298Y-91812893D01*
X40544297Y-91812890D01*
X40454287Y-91666963D01*
X40454284Y-91666959D01*
X40333040Y-91545715D01*
X40333036Y-91545712D01*
X40210918Y-91470388D01*
X40183166Y-91447040D01*
X40039651Y-91284913D01*
X40009956Y-91221668D01*
X40008500Y-91202723D01*
X40008500Y-90339498D01*
X40018038Y-90291806D01*
X40239052Y-89761371D01*
X40239053Y-89761369D01*
X40257428Y-89709640D01*
X40258180Y-89704484D01*
X40262949Y-89684080D01*
X40293540Y-89589933D01*
X40293542Y-89589928D01*
X40313504Y-89400000D01*
X40293542Y-89210072D01*
X40234527Y-89028444D01*
X40139040Y-88863056D01*
X40011253Y-88721134D01*
X39856752Y-88608882D01*
X39682288Y-88531206D01*
X39682286Y-88531205D01*
X39495487Y-88491500D01*
X39304513Y-88491500D01*
X39117714Y-88531205D01*
X38943246Y-88608883D01*
X38788745Y-88721135D01*
X38660959Y-88863057D01*
X38565473Y-89028443D01*
X38565470Y-89028450D01*
X38506459Y-89210068D01*
X38506458Y-89210072D01*
X38486496Y-89400000D01*
X38506458Y-89589928D01*
X38506459Y-89589931D01*
X38555702Y-89741486D01*
X38556774Y-89745170D01*
X38558862Y-89753281D01*
X38560945Y-89761370D01*
X38781962Y-90291808D01*
X38791500Y-90339500D01*
X38791500Y-91263619D01*
X38773539Y-91327897D01*
X38610090Y-91597538D01*
X38591733Y-91620940D01*
X38545713Y-91666960D01*
X38455702Y-91812890D01*
X38455697Y-91812901D01*
X38401764Y-91975663D01*
X38391500Y-92076120D01*
X38391500Y-92623879D01*
X37500500Y-92623879D01*
X37500500Y-84732500D01*
X37520185Y-84665461D01*
X37572989Y-84619706D01*
X37624500Y-84608500D01*
X38527500Y-84608500D01*
X38594539Y-84628185D01*
G37*
G04 #@! TD.AperFunction*
G04 #@! TA.AperFunction,Conductor*
G36*
X38594539Y-65628185D02*
G01*
X38640294Y-65680989D01*
X38651500Y-65732500D01*
X38651500Y-67313654D01*
X38658011Y-67374202D01*
X38658011Y-67374204D01*
X38698057Y-67481567D01*
X38709111Y-67511204D01*
X38796739Y-67628261D01*
X38913796Y-67715889D01*
X39050799Y-67766989D01*
X39078050Y-67769918D01*
X39111345Y-67773499D01*
X39111362Y-67773500D01*
X42708638Y-67773500D01*
X42708654Y-67773499D01*
X42735692Y-67770591D01*
X42769201Y-67766989D01*
X42906204Y-67715889D01*
X43023261Y-67628261D01*
X43110889Y-67511204D01*
X43161989Y-67374201D01*
X43165591Y-67340692D01*
X43168499Y-67313654D01*
X43168500Y-67313637D01*
X43168500Y-66546524D01*
X43188185Y-66479485D01*
X43240989Y-66433730D01*
X43310147Y-66423786D01*
X43369810Y-66449575D01*
X43471143Y-66530386D01*
X43698357Y-66661568D01*
X43942584Y-66757420D01*
X44198370Y-66815802D01*
X44198376Y-66815802D01*
X44198379Y-66815803D01*
X44394500Y-66830500D01*
X44394506Y-66830500D01*
X44525500Y-66830500D01*
X44721620Y-66815803D01*
X44721622Y-66815802D01*
X44721630Y-66815802D01*
X44977416Y-66757420D01*
X45221643Y-66661568D01*
X45221646Y-66661566D01*
X45221647Y-66661566D01*
X45264118Y-66637045D01*
X45332018Y-66620571D01*
X45398045Y-66643423D01*
X45437839Y-66690630D01*
X45479767Y-66777695D01*
X45479768Y-66777697D01*
X45479770Y-66777700D01*
X45479772Y-66777704D01*
X45505747Y-66815802D01*
X45627567Y-66994479D01*
X45806014Y-67186801D01*
X45806018Y-67186804D01*
X45806019Y-67186805D01*
X46011143Y-67350386D01*
X46238357Y-67481568D01*
X46482584Y-67577420D01*
X46738370Y-67635802D01*
X46738376Y-67635802D01*
X46738379Y-67635803D01*
X46934500Y-67650500D01*
X46934506Y-67650500D01*
X47065500Y-67650500D01*
X47261620Y-67635803D01*
X47261622Y-67635802D01*
X47261630Y-67635802D01*
X47517416Y-67577420D01*
X47761643Y-67481568D01*
X47988857Y-67350386D01*
X48162189Y-67212158D01*
X48226874Y-67185751D01*
X48295569Y-67198506D01*
X48346463Y-67246377D01*
X48363500Y-67309106D01*
X48363500Y-68846088D01*
X48343815Y-68913127D01*
X48327181Y-68933769D01*
X44723090Y-72537859D01*
X44685714Y-72563515D01*
X44086818Y-72829337D01*
X44036513Y-72840000D01*
X43424445Y-72840000D01*
X43363897Y-72846511D01*
X43363895Y-72846511D01*
X43226895Y-72897611D01*
X43109839Y-72985239D01*
X43022211Y-73102295D01*
X42971111Y-73239295D01*
X42971111Y-73239297D01*
X42964600Y-73299845D01*
X42964600Y-74209954D01*
X42971111Y-74270502D01*
X42971111Y-74270504D01*
X43022211Y-74407504D01*
X43044276Y-74436979D01*
X43068693Y-74502443D01*
X43053842Y-74570716D01*
X43044278Y-74585598D01*
X43029748Y-74605008D01*
X43029745Y-74605013D01*
X42979503Y-74739720D01*
X42979501Y-74739727D01*
X42973100Y-74799255D01*
X42973100Y-75003500D01*
X44474100Y-75003500D01*
X44541139Y-75023185D01*
X44586894Y-75075989D01*
X44598100Y-75127500D01*
X44598100Y-76159900D01*
X45270928Y-76159900D01*
X45270944Y-76159899D01*
X45330472Y-76153498D01*
X45330479Y-76153496D01*
X45465186Y-76103254D01*
X45465188Y-76103252D01*
X45575555Y-76020633D01*
X45641019Y-75996216D01*
X45649866Y-75995900D01*
X48062052Y-75995900D01*
X48129091Y-76015585D01*
X48136363Y-76020633D01*
X48139737Y-76023159D01*
X48139739Y-76023161D01*
X48256796Y-76110789D01*
X48371297Y-76153496D01*
X48388463Y-76159899D01*
X48393799Y-76161889D01*
X48421050Y-76164818D01*
X48454345Y-76168399D01*
X48454362Y-76168400D01*
X48791921Y-76168400D01*
X48858960Y-76188085D01*
X48878714Y-76203839D01*
X48926294Y-76250470D01*
X48960394Y-76311450D01*
X48963500Y-76339029D01*
X48963500Y-77493586D01*
X48943815Y-77560625D01*
X48891011Y-77606380D01*
X48821853Y-77616324D01*
X48758297Y-77587299D01*
X48739674Y-77567144D01*
X48722446Y-77543762D01*
X48512980Y-77327176D01*
X48406545Y-77243125D01*
X48276521Y-77140446D01*
X48276517Y-77140443D01*
X48276515Y-77140442D01*
X48017270Y-76986891D01*
X47739872Y-76869264D01*
X47739863Y-76869261D01*
X47449272Y-76789660D01*
X47374616Y-76779620D01*
X47150653Y-76749500D01*
X46924756Y-76749500D01*
X46924748Y-76749500D01*
X46699368Y-76764587D01*
X46699359Y-76764589D01*
X46404094Y-76824604D01*
X46119464Y-76923439D01*
X46119459Y-76923441D01*
X45850546Y-77059328D01*
X45602125Y-77229860D01*
X45378665Y-77431969D01*
X45184132Y-77662064D01*
X45022006Y-77916030D01*
X45022005Y-77916032D01*
X44906842Y-78164205D01*
X44895177Y-78189342D01*
X44895176Y-78189346D01*
X44805907Y-78477118D01*
X44787133Y-78588419D01*
X44755791Y-78774230D01*
X44746249Y-79059654D01*
X44745723Y-79075373D01*
X44775881Y-79375160D01*
X44775882Y-79375162D01*
X44845728Y-79668252D01*
X44845733Y-79668266D01*
X44954020Y-79949427D01*
X44954024Y-79949436D01*
X45098825Y-80213665D01*
X45098829Y-80213671D01*
X45226917Y-80387513D01*
X45277554Y-80456238D01*
X45487020Y-80672824D01*
X45507618Y-80689090D01*
X45723478Y-80859553D01*
X45723480Y-80859554D01*
X45723485Y-80859558D01*
X45982730Y-81013109D01*
X46260128Y-81130736D01*
X46550729Y-81210340D01*
X46849347Y-81250500D01*
X46849351Y-81250500D01*
X47075252Y-81250500D01*
X47239164Y-81239526D01*
X47300634Y-81235412D01*
X47595903Y-81175396D01*
X47598817Y-81174383D01*
X47599769Y-81174337D01*
X47599910Y-81174299D01*
X47599918Y-81174330D01*
X47668603Y-81170984D01*
X47729150Y-81205852D01*
X47761234Y-81267920D01*
X47763500Y-81291520D01*
X47763500Y-82652554D01*
X47762969Y-82660656D01*
X47758250Y-82696498D01*
X47763021Y-82732748D01*
X47763023Y-82732763D01*
X47774344Y-82818752D01*
X47779161Y-82855348D01*
X47779163Y-82855354D01*
X47840473Y-83003371D01*
X47840476Y-83003377D01*
X47878729Y-83053228D01*
X47913523Y-83098572D01*
X47913525Y-83098574D01*
X47913526Y-83098575D01*
X47938012Y-83130487D01*
X47962391Y-83149193D01*
X48003594Y-83205620D01*
X48007749Y-83275366D01*
X47973537Y-83336287D01*
X47911820Y-83369040D01*
X47842193Y-83363227D01*
X47824905Y-83354956D01*
X47761643Y-83318432D01*
X47517421Y-83222582D01*
X47517416Y-83222580D01*
X47517411Y-83222578D01*
X47517402Y-83222576D01*
X47299818Y-83172914D01*
X47261630Y-83164198D01*
X47261629Y-83164197D01*
X47261625Y-83164197D01*
X47261620Y-83164196D01*
X47065500Y-83149500D01*
X47065494Y-83149500D01*
X46934506Y-83149500D01*
X46934500Y-83149500D01*
X46738379Y-83164196D01*
X46738374Y-83164197D01*
X46482597Y-83222576D01*
X46482578Y-83222582D01*
X46238363Y-83318429D01*
X46238357Y-83318432D01*
X46195877Y-83342957D01*
X46127977Y-83359427D01*
X46061951Y-83336574D01*
X46022160Y-83289369D01*
X45980232Y-83202303D01*
X45980231Y-83202302D01*
X45980230Y-83202301D01*
X45980228Y-83202296D01*
X45832433Y-82985521D01*
X45798733Y-82949201D01*
X45653985Y-82793198D01*
X45614533Y-82761736D01*
X45448857Y-82629614D01*
X45221643Y-82498432D01*
X44977416Y-82402580D01*
X44977411Y-82402578D01*
X44977402Y-82402576D01*
X44759818Y-82352914D01*
X44721630Y-82344198D01*
X44721629Y-82344197D01*
X44721625Y-82344197D01*
X44721620Y-82344196D01*
X44525500Y-82329500D01*
X44525494Y-82329500D01*
X44394506Y-82329500D01*
X44394500Y-82329500D01*
X44198379Y-82344196D01*
X44198374Y-82344197D01*
X43942585Y-82402579D01*
X43858890Y-82435426D01*
X43789293Y-82441593D01*
X43727410Y-82409155D01*
X43695098Y-82356547D01*
X43641048Y-82181323D01*
X43634063Y-82158677D01*
X43595859Y-82079346D01*
X43520232Y-81922303D01*
X43520231Y-81922302D01*
X43520230Y-81922301D01*
X43520228Y-81922296D01*
X43372433Y-81705521D01*
X43340571Y-81671182D01*
X43193985Y-81513198D01*
X43116445Y-81451362D01*
X42988857Y-81349614D01*
X42761643Y-81218432D01*
X42517416Y-81122580D01*
X42517411Y-81122578D01*
X42517402Y-81122576D01*
X42299818Y-81072914D01*
X42261630Y-81064198D01*
X42261629Y-81064197D01*
X42261625Y-81064197D01*
X42261620Y-81064196D01*
X42065500Y-81049500D01*
X42065494Y-81049500D01*
X41934506Y-81049500D01*
X41934500Y-81049500D01*
X41738379Y-81064196D01*
X41738374Y-81064197D01*
X41482597Y-81122576D01*
X41482578Y-81122582D01*
X41238356Y-81218432D01*
X41011143Y-81349614D01*
X40806014Y-81513198D01*
X40627567Y-81705520D01*
X40592578Y-81756841D01*
X40544952Y-81826694D01*
X40490925Y-81870995D01*
X40421521Y-81879054D01*
X40358779Y-81848311D01*
X40322617Y-81788527D01*
X40318500Y-81756841D01*
X40318500Y-81451362D01*
X40318499Y-81451345D01*
X40313926Y-81408818D01*
X40311989Y-81390799D01*
X40296230Y-81348549D01*
X40266157Y-81267920D01*
X40260889Y-81253796D01*
X40173261Y-81136739D01*
X40056204Y-81049111D01*
X39919203Y-80998011D01*
X39901113Y-80996066D01*
X39836563Y-80969327D01*
X39823407Y-80957048D01*
X39726894Y-80852869D01*
X39705031Y-80830662D01*
X39586085Y-80745730D01*
X39585645Y-80745502D01*
X39579031Y-80742082D01*
X39550891Y-80728596D01*
X39550888Y-80728595D01*
X39410171Y-80689090D01*
X39410165Y-80689089D01*
X39410161Y-80689088D01*
X39408066Y-80688658D01*
X39407433Y-80688322D01*
X39405908Y-80687894D01*
X39406001Y-80687561D01*
X39346353Y-80655896D01*
X39312150Y-80594970D01*
X39310060Y-80583384D01*
X39304187Y-80538770D01*
X39302546Y-80527303D01*
X39259874Y-80387513D01*
X39256857Y-80381089D01*
X39251817Y-80370665D01*
X39230468Y-80339752D01*
X39208568Y-80273403D01*
X39208500Y-80269286D01*
X39208500Y-78940346D01*
X40295702Y-78940346D01*
X40305819Y-79178528D01*
X40305819Y-79178532D01*
X40356045Y-79411580D01*
X40440877Y-79622689D01*
X40444936Y-79632790D01*
X40569931Y-79835795D01*
X40727436Y-80014755D01*
X40912920Y-80164523D01*
X41121046Y-80280790D01*
X41345829Y-80360211D01*
X41580790Y-80400499D01*
X41580798Y-80400499D01*
X41580800Y-80400500D01*
X41580801Y-80400500D01*
X41759502Y-80400500D01*
X41937536Y-80385347D01*
X41937539Y-80385346D01*
X41937541Y-80385346D01*
X42168249Y-80325275D01*
X42323933Y-80254901D01*
X42385480Y-80227080D01*
X42385481Y-80227078D01*
X42385486Y-80227077D01*
X42583003Y-80093579D01*
X42755118Y-79928621D01*
X42896879Y-79736947D01*
X43004207Y-79524074D01*
X43074016Y-79296123D01*
X43104298Y-79059654D01*
X43103352Y-79037395D01*
X43094180Y-78821471D01*
X43094180Y-78821467D01*
X43043954Y-78588419D01*
X42955064Y-78367211D01*
X42955064Y-78367210D01*
X42830069Y-78164205D01*
X42672564Y-77985245D01*
X42487080Y-77835477D01*
X42373130Y-77771820D01*
X42278955Y-77719210D01*
X42054170Y-77639788D01*
X41819209Y-77599500D01*
X41819200Y-77599500D01*
X41640503Y-77599500D01*
X41640498Y-77599500D01*
X41462463Y-77614652D01*
X41231751Y-77674724D01*
X41014519Y-77772919D01*
X41014511Y-77772924D01*
X40817006Y-77906413D01*
X40816997Y-77906421D01*
X40644881Y-78071379D01*
X40503123Y-78263050D01*
X40503120Y-78263054D01*
X40395796Y-78475920D01*
X40395793Y-78475926D01*
X40325983Y-78703878D01*
X40295702Y-78940346D01*
X39208500Y-78940346D01*
X39208500Y-77947325D01*
X39228185Y-77880286D01*
X39280989Y-77834531D01*
X39283283Y-77833511D01*
X39650844Y-77674725D01*
X39780606Y-77618668D01*
X39829781Y-77608500D01*
X39923867Y-77608500D01*
X39923872Y-77608500D01*
X40024336Y-77598236D01*
X40187101Y-77544302D01*
X40333040Y-77454285D01*
X40454285Y-77333040D01*
X40544302Y-77187101D01*
X40598236Y-77024336D01*
X40608500Y-76923872D01*
X40608500Y-76376128D01*
X40598236Y-76275664D01*
X40544302Y-76112899D01*
X40544298Y-76112893D01*
X40544297Y-76112890D01*
X40454287Y-75966963D01*
X40454284Y-75966959D01*
X40333040Y-75845715D01*
X40333036Y-75845712D01*
X40187109Y-75755702D01*
X40187103Y-75755699D01*
X40187101Y-75755698D01*
X40024336Y-75701764D01*
X39923879Y-75691500D01*
X39923872Y-75691500D01*
X39076128Y-75691500D01*
X39076120Y-75691500D01*
X38975663Y-75701764D01*
X38812901Y-75755697D01*
X38812890Y-75755702D01*
X38666963Y-75845712D01*
X38666959Y-75845715D01*
X38545715Y-75966959D01*
X38545712Y-75966963D01*
X38455702Y-76112890D01*
X38455697Y-76112901D01*
X38401764Y-76275663D01*
X38391500Y-76376120D01*
X38391500Y-76499964D01*
X38385808Y-76537102D01*
X38227899Y-77040146D01*
X38189040Y-77098212D01*
X38185080Y-77101382D01*
X38166012Y-77116013D01*
X38141522Y-77147929D01*
X38068476Y-77243123D01*
X38068475Y-77243125D01*
X38013124Y-77376757D01*
X38007162Y-77391147D01*
X37990957Y-77514241D01*
X37990955Y-77514254D01*
X37986250Y-77550000D01*
X37990969Y-77585843D01*
X37991500Y-77593945D01*
X37991500Y-80254901D01*
X37971815Y-80321940D01*
X37960857Y-80336512D01*
X37717851Y-80614466D01*
X37658909Y-80651979D01*
X37589040Y-80651671D01*
X37530429Y-80613637D01*
X37501685Y-80549954D01*
X37500500Y-80532849D01*
X37500500Y-75428133D01*
X41025668Y-75428133D01*
X41041058Y-75515410D01*
X41056135Y-75600911D01*
X41125623Y-75762004D01*
X41125624Y-75762006D01*
X41125626Y-75762009D01*
X41229836Y-75901986D01*
X41230390Y-75902730D01*
X41364786Y-76015502D01*
X41442488Y-76054525D01*
X41521562Y-76094238D01*
X41521563Y-76094238D01*
X41521567Y-76094240D01*
X41692279Y-76134700D01*
X41692282Y-76134700D01*
X41823701Y-76134700D01*
X41823709Y-76134700D01*
X41954255Y-76119441D01*
X42119117Y-76059437D01*
X42265696Y-75963030D01*
X42386092Y-75835418D01*
X42473812Y-75683481D01*
X42524130Y-75515410D01*
X42524824Y-75503500D01*
X42973100Y-75503500D01*
X42973100Y-75707744D01*
X42979501Y-75767272D01*
X42979503Y-75767279D01*
X43029745Y-75901986D01*
X43029749Y-75901993D01*
X43115909Y-76017087D01*
X43115912Y-76017090D01*
X43231006Y-76103250D01*
X43231013Y-76103254D01*
X43365720Y-76153496D01*
X43365727Y-76153498D01*
X43425255Y-76159899D01*
X43425272Y-76159900D01*
X44098100Y-76159900D01*
X44098100Y-75503500D01*
X42973100Y-75503500D01*
X42524824Y-75503500D01*
X42534331Y-75340265D01*
X42503865Y-75167489D01*
X42434377Y-75006396D01*
X42329610Y-74865670D01*
X42257747Y-74805370D01*
X42195214Y-74752898D01*
X42195212Y-74752897D01*
X42038437Y-74674161D01*
X42038433Y-74674160D01*
X41867721Y-74633700D01*
X41736291Y-74633700D01*
X41631854Y-74645907D01*
X41605743Y-74648959D01*
X41605740Y-74648960D01*
X41440884Y-74708962D01*
X41440880Y-74708964D01*
X41294306Y-74805367D01*
X41294305Y-74805368D01*
X41173910Y-74932978D01*
X41086188Y-75084918D01*
X41035870Y-75252989D01*
X41035869Y-75252994D01*
X41025668Y-75428133D01*
X37500500Y-75428133D01*
X37500500Y-73623879D01*
X38391500Y-73623879D01*
X38401764Y-73724336D01*
X38455697Y-73887098D01*
X38455702Y-73887109D01*
X38545712Y-74033036D01*
X38545715Y-74033040D01*
X38666959Y-74154284D01*
X38666963Y-74154287D01*
X38812890Y-74244297D01*
X38812893Y-74244298D01*
X38812899Y-74244302D01*
X38975664Y-74298236D01*
X39076128Y-74308500D01*
X39076133Y-74308500D01*
X39923867Y-74308500D01*
X39923872Y-74308500D01*
X40024336Y-74298236D01*
X40187101Y-74244302D01*
X40333040Y-74154285D01*
X40454285Y-74033040D01*
X40544302Y-73887101D01*
X40598236Y-73724336D01*
X40608500Y-73623872D01*
X40608500Y-73076128D01*
X40598236Y-72975664D01*
X40544302Y-72812899D01*
X40544298Y-72812893D01*
X40544297Y-72812890D01*
X40454287Y-72666963D01*
X40454284Y-72666959D01*
X40333040Y-72545715D01*
X40333036Y-72545712D01*
X40210918Y-72470388D01*
X40183166Y-72447040D01*
X40039651Y-72284913D01*
X40009956Y-72221668D01*
X40008500Y-72202723D01*
X40008500Y-70939498D01*
X40018038Y-70891806D01*
X40135923Y-70608883D01*
X40239053Y-70361369D01*
X40257428Y-70309640D01*
X40258180Y-70304484D01*
X40262949Y-70284080D01*
X40293540Y-70189933D01*
X40293542Y-70189928D01*
X40313504Y-70000000D01*
X40293542Y-69810072D01*
X40234527Y-69628444D01*
X40139040Y-69463056D01*
X40011253Y-69321134D01*
X39856752Y-69208882D01*
X39682288Y-69131206D01*
X39682286Y-69131205D01*
X39495487Y-69091500D01*
X39304513Y-69091500D01*
X39117714Y-69131205D01*
X38943246Y-69208883D01*
X38788745Y-69321135D01*
X38660959Y-69463057D01*
X38565473Y-69628443D01*
X38565470Y-69628450D01*
X38506459Y-69810068D01*
X38506458Y-69810072D01*
X38486496Y-70000000D01*
X38506458Y-70189928D01*
X38506459Y-70189931D01*
X38555702Y-70341486D01*
X38556774Y-70345170D01*
X38558862Y-70353281D01*
X38560945Y-70361370D01*
X38781962Y-70891808D01*
X38791500Y-70939500D01*
X38791500Y-72263619D01*
X38773539Y-72327897D01*
X38610090Y-72597538D01*
X38591733Y-72620940D01*
X38545713Y-72666960D01*
X38455702Y-72812890D01*
X38455697Y-72812901D01*
X38401764Y-72975663D01*
X38391500Y-73076120D01*
X38391500Y-73623879D01*
X37500500Y-73623879D01*
X37500500Y-65732500D01*
X37520185Y-65665461D01*
X37572989Y-65619706D01*
X37624500Y-65608500D01*
X38527500Y-65608500D01*
X38594539Y-65628185D01*
G37*
G04 #@! TD.AperFunction*
G04 #@! TA.AperFunction,Conductor*
G36*
X38594539Y-46628185D02*
G01*
X38640294Y-46680989D01*
X38651500Y-46732500D01*
X38651500Y-48313654D01*
X38658011Y-48374202D01*
X38658011Y-48374204D01*
X38698057Y-48481567D01*
X38709111Y-48511204D01*
X38796739Y-48628261D01*
X38913796Y-48715889D01*
X39050799Y-48766989D01*
X39078050Y-48769918D01*
X39111345Y-48773499D01*
X39111362Y-48773500D01*
X42708638Y-48773500D01*
X42708654Y-48773499D01*
X42735692Y-48770591D01*
X42769201Y-48766989D01*
X42906204Y-48715889D01*
X43023261Y-48628261D01*
X43110889Y-48511204D01*
X43161989Y-48374201D01*
X43165591Y-48340692D01*
X43168499Y-48313654D01*
X43168500Y-48313637D01*
X43168500Y-47546524D01*
X43188185Y-47479485D01*
X43240989Y-47433730D01*
X43310147Y-47423786D01*
X43369810Y-47449575D01*
X43471143Y-47530386D01*
X43698357Y-47661568D01*
X43942584Y-47757420D01*
X44198370Y-47815802D01*
X44198376Y-47815802D01*
X44198379Y-47815803D01*
X44394500Y-47830500D01*
X44394506Y-47830500D01*
X44525500Y-47830500D01*
X44721620Y-47815803D01*
X44721622Y-47815802D01*
X44721630Y-47815802D01*
X44977416Y-47757420D01*
X45221643Y-47661568D01*
X45221646Y-47661566D01*
X45221647Y-47661566D01*
X45264118Y-47637045D01*
X45332018Y-47620571D01*
X45398045Y-47643423D01*
X45437839Y-47690630D01*
X45479767Y-47777695D01*
X45479768Y-47777697D01*
X45479770Y-47777700D01*
X45479772Y-47777704D01*
X45505747Y-47815802D01*
X45627567Y-47994479D01*
X45806014Y-48186801D01*
X45806018Y-48186804D01*
X45806019Y-48186805D01*
X46011143Y-48350386D01*
X46238357Y-48481568D01*
X46482584Y-48577420D01*
X46738370Y-48635802D01*
X46738376Y-48635802D01*
X46738379Y-48635803D01*
X46934500Y-48650500D01*
X46934506Y-48650500D01*
X47065500Y-48650500D01*
X47261620Y-48635803D01*
X47261622Y-48635802D01*
X47261630Y-48635802D01*
X47517416Y-48577420D01*
X47761643Y-48481568D01*
X47988857Y-48350386D01*
X48190188Y-48189829D01*
X48254874Y-48163422D01*
X48323569Y-48176178D01*
X48374463Y-48224048D01*
X48391500Y-48286777D01*
X48391500Y-49799588D01*
X48371815Y-49866627D01*
X48355181Y-49887269D01*
X44703117Y-53539332D01*
X44666553Y-53564625D01*
X44082315Y-53828974D01*
X44031198Y-53840000D01*
X43424445Y-53840000D01*
X43363897Y-53846511D01*
X43363895Y-53846511D01*
X43226895Y-53897611D01*
X43109839Y-53985239D01*
X43022211Y-54102295D01*
X42971111Y-54239295D01*
X42971111Y-54239297D01*
X42964600Y-54299845D01*
X42964600Y-55209954D01*
X42971111Y-55270502D01*
X42971111Y-55270504D01*
X43022211Y-55407504D01*
X43044276Y-55436979D01*
X43068693Y-55502443D01*
X43053842Y-55570716D01*
X43044278Y-55585598D01*
X43029748Y-55605008D01*
X43029745Y-55605013D01*
X42979503Y-55739720D01*
X42979501Y-55739727D01*
X42973100Y-55799255D01*
X42973100Y-56003500D01*
X44474100Y-56003500D01*
X44541139Y-56023185D01*
X44586894Y-56075989D01*
X44598100Y-56127500D01*
X44598100Y-57159900D01*
X45270928Y-57159900D01*
X45270944Y-57159899D01*
X45330472Y-57153498D01*
X45330479Y-57153496D01*
X45465186Y-57103254D01*
X45465188Y-57103252D01*
X45575555Y-57020633D01*
X45641019Y-56996216D01*
X45649866Y-56995900D01*
X48062052Y-56995900D01*
X48129091Y-57015585D01*
X48136363Y-57020633D01*
X48139737Y-57023159D01*
X48139739Y-57023161D01*
X48256796Y-57110789D01*
X48371297Y-57153496D01*
X48388463Y-57159899D01*
X48393799Y-57161889D01*
X48421050Y-57164818D01*
X48454345Y-57168399D01*
X48454362Y-57168400D01*
X48791921Y-57168400D01*
X48858960Y-57188085D01*
X48878714Y-57203839D01*
X48926294Y-57250470D01*
X48960394Y-57311450D01*
X48963500Y-57339029D01*
X48963500Y-58493586D01*
X48943815Y-58560625D01*
X48891011Y-58606380D01*
X48821853Y-58616324D01*
X48758297Y-58587299D01*
X48739674Y-58567144D01*
X48722446Y-58543762D01*
X48512980Y-58327176D01*
X48406545Y-58243125D01*
X48276521Y-58140446D01*
X48276517Y-58140443D01*
X48276515Y-58140442D01*
X48017270Y-57986891D01*
X47739872Y-57869264D01*
X47739863Y-57869261D01*
X47449272Y-57789660D01*
X47374616Y-57779620D01*
X47150653Y-57749500D01*
X46924756Y-57749500D01*
X46924748Y-57749500D01*
X46699368Y-57764587D01*
X46699359Y-57764589D01*
X46404094Y-57824604D01*
X46119464Y-57923439D01*
X46119459Y-57923441D01*
X45850546Y-58059328D01*
X45602125Y-58229860D01*
X45378665Y-58431969D01*
X45184132Y-58662064D01*
X45022006Y-58916030D01*
X45022005Y-58916032D01*
X44906842Y-59164205D01*
X44895177Y-59189342D01*
X44895176Y-59189346D01*
X44805907Y-59477118D01*
X44787133Y-59588419D01*
X44755791Y-59774230D01*
X44746249Y-60059654D01*
X44745723Y-60075373D01*
X44775881Y-60375160D01*
X44775882Y-60375162D01*
X44845728Y-60668252D01*
X44845733Y-60668266D01*
X44954020Y-60949427D01*
X44954024Y-60949436D01*
X45098825Y-61213665D01*
X45098829Y-61213671D01*
X45226917Y-61387513D01*
X45277554Y-61456238D01*
X45487020Y-61672824D01*
X45507618Y-61689090D01*
X45723478Y-61859553D01*
X45723480Y-61859554D01*
X45723485Y-61859558D01*
X45982730Y-62013109D01*
X46260128Y-62130736D01*
X46550729Y-62210340D01*
X46849347Y-62250500D01*
X46849351Y-62250500D01*
X47075252Y-62250500D01*
X47239164Y-62239526D01*
X47300634Y-62235412D01*
X47595903Y-62175396D01*
X47598817Y-62174383D01*
X47599769Y-62174337D01*
X47599910Y-62174299D01*
X47599918Y-62174330D01*
X47668603Y-62170984D01*
X47729150Y-62205852D01*
X47761234Y-62267920D01*
X47763500Y-62291520D01*
X47763500Y-63702554D01*
X47762969Y-63710651D01*
X47760383Y-63730290D01*
X47758250Y-63746498D01*
X47763021Y-63782748D01*
X47763023Y-63782762D01*
X47771698Y-63848652D01*
X47779160Y-63905342D01*
X47779163Y-63905354D01*
X47840473Y-64053371D01*
X47840476Y-64053377D01*
X47893939Y-64123050D01*
X47919134Y-64188219D01*
X47905096Y-64256664D01*
X47856282Y-64306654D01*
X47788191Y-64322318D01*
X47750262Y-64313965D01*
X47517421Y-64222582D01*
X47517416Y-64222580D01*
X47517411Y-64222578D01*
X47517402Y-64222576D01*
X47299818Y-64172914D01*
X47261630Y-64164198D01*
X47261629Y-64164197D01*
X47261625Y-64164197D01*
X47261620Y-64164196D01*
X47065500Y-64149500D01*
X47065494Y-64149500D01*
X46934506Y-64149500D01*
X46934500Y-64149500D01*
X46738379Y-64164196D01*
X46738374Y-64164197D01*
X46482597Y-64222576D01*
X46482578Y-64222582D01*
X46238363Y-64318429D01*
X46238357Y-64318432D01*
X46195877Y-64342957D01*
X46127977Y-64359427D01*
X46061951Y-64336574D01*
X46022160Y-64289369D01*
X45980232Y-64202303D01*
X45980231Y-64202302D01*
X45980230Y-64202301D01*
X45980228Y-64202296D01*
X45832433Y-63985521D01*
X45798733Y-63949201D01*
X45653985Y-63793198D01*
X45595425Y-63746498D01*
X45448857Y-63629614D01*
X45221643Y-63498432D01*
X44977416Y-63402580D01*
X44977411Y-63402578D01*
X44977402Y-63402576D01*
X44759818Y-63352914D01*
X44721630Y-63344198D01*
X44721629Y-63344197D01*
X44721625Y-63344197D01*
X44721620Y-63344196D01*
X44525500Y-63329500D01*
X44525494Y-63329500D01*
X44394506Y-63329500D01*
X44394500Y-63329500D01*
X44198379Y-63344196D01*
X44198374Y-63344197D01*
X43942585Y-63402579D01*
X43858890Y-63435426D01*
X43789293Y-63441593D01*
X43727410Y-63409155D01*
X43695098Y-63356547D01*
X43641048Y-63181323D01*
X43634063Y-63158677D01*
X43595859Y-63079346D01*
X43520232Y-62922303D01*
X43520231Y-62922302D01*
X43520230Y-62922301D01*
X43520228Y-62922296D01*
X43372433Y-62705521D01*
X43340571Y-62671182D01*
X43193985Y-62513198D01*
X43116445Y-62451362D01*
X42988857Y-62349614D01*
X42761643Y-62218432D01*
X42517416Y-62122580D01*
X42517411Y-62122578D01*
X42517402Y-62122576D01*
X42299818Y-62072914D01*
X42261630Y-62064198D01*
X42261629Y-62064197D01*
X42261625Y-62064197D01*
X42261620Y-62064196D01*
X42065500Y-62049500D01*
X42065494Y-62049500D01*
X41934506Y-62049500D01*
X41934500Y-62049500D01*
X41738379Y-62064196D01*
X41738374Y-62064197D01*
X41482597Y-62122576D01*
X41482578Y-62122582D01*
X41238356Y-62218432D01*
X41011143Y-62349614D01*
X40806014Y-62513198D01*
X40627567Y-62705520D01*
X40592578Y-62756841D01*
X40544952Y-62826694D01*
X40490925Y-62870995D01*
X40421521Y-62879054D01*
X40358779Y-62848311D01*
X40322617Y-62788527D01*
X40318500Y-62756841D01*
X40318500Y-62451362D01*
X40318499Y-62451345D01*
X40312822Y-62398549D01*
X40311989Y-62390799D01*
X40260889Y-62253796D01*
X40173261Y-62136739D01*
X40056204Y-62049111D01*
X39919203Y-61998011D01*
X39901113Y-61996066D01*
X39836563Y-61969327D01*
X39823407Y-61957048D01*
X39726894Y-61852869D01*
X39705031Y-61830662D01*
X39586085Y-61745730D01*
X39585645Y-61745502D01*
X39579031Y-61742082D01*
X39550891Y-61728596D01*
X39550888Y-61728595D01*
X39410171Y-61689090D01*
X39410165Y-61689089D01*
X39410161Y-61689088D01*
X39408066Y-61688658D01*
X39407433Y-61688322D01*
X39405908Y-61687894D01*
X39406001Y-61687561D01*
X39346353Y-61655896D01*
X39312150Y-61594970D01*
X39310060Y-61583384D01*
X39304187Y-61538770D01*
X39302546Y-61527303D01*
X39259874Y-61387513D01*
X39256857Y-61381089D01*
X39251817Y-61370665D01*
X39230468Y-61339752D01*
X39208568Y-61273403D01*
X39208500Y-61269286D01*
X39208500Y-59940346D01*
X40295702Y-59940346D01*
X40305819Y-60178528D01*
X40305819Y-60178532D01*
X40356045Y-60411580D01*
X40440877Y-60622689D01*
X40444936Y-60632790D01*
X40569931Y-60835795D01*
X40727436Y-61014755D01*
X40912920Y-61164523D01*
X41121046Y-61280790D01*
X41345829Y-61360211D01*
X41580790Y-61400499D01*
X41580798Y-61400499D01*
X41580800Y-61400500D01*
X41580801Y-61400500D01*
X41759502Y-61400500D01*
X41937536Y-61385347D01*
X41937539Y-61385346D01*
X41937541Y-61385346D01*
X42168249Y-61325275D01*
X42323933Y-61254901D01*
X42385480Y-61227080D01*
X42385481Y-61227078D01*
X42385486Y-61227077D01*
X42583003Y-61093579D01*
X42755118Y-60928621D01*
X42896879Y-60736947D01*
X43004207Y-60524074D01*
X43074016Y-60296123D01*
X43104298Y-60059654D01*
X43103352Y-60037395D01*
X43094180Y-59821471D01*
X43094180Y-59821467D01*
X43043954Y-59588419D01*
X42955064Y-59367211D01*
X42955064Y-59367210D01*
X42830069Y-59164205D01*
X42672564Y-58985245D01*
X42487080Y-58835477D01*
X42373130Y-58771820D01*
X42278955Y-58719210D01*
X42054170Y-58639788D01*
X41819209Y-58599500D01*
X41819200Y-58599500D01*
X41640503Y-58599500D01*
X41640498Y-58599500D01*
X41462463Y-58614652D01*
X41231751Y-58674724D01*
X41014519Y-58772919D01*
X41014511Y-58772924D01*
X40817006Y-58906413D01*
X40816997Y-58906421D01*
X40644881Y-59071379D01*
X40503123Y-59263050D01*
X40503120Y-59263054D01*
X40395796Y-59475920D01*
X40395793Y-59475926D01*
X40325983Y-59703878D01*
X40295702Y-59940346D01*
X39208500Y-59940346D01*
X39208500Y-58947325D01*
X39228185Y-58880286D01*
X39280989Y-58834531D01*
X39283283Y-58833511D01*
X39650844Y-58674725D01*
X39780606Y-58618668D01*
X39829781Y-58608500D01*
X39923867Y-58608500D01*
X39923872Y-58608500D01*
X40024336Y-58598236D01*
X40187101Y-58544302D01*
X40333040Y-58454285D01*
X40454285Y-58333040D01*
X40544302Y-58187101D01*
X40598236Y-58024336D01*
X40608500Y-57923872D01*
X40608500Y-57376128D01*
X40598236Y-57275664D01*
X40544302Y-57112899D01*
X40544298Y-57112893D01*
X40544297Y-57112890D01*
X40454287Y-56966963D01*
X40454284Y-56966959D01*
X40333040Y-56845715D01*
X40333036Y-56845712D01*
X40187109Y-56755702D01*
X40187103Y-56755699D01*
X40187101Y-56755698D01*
X40024336Y-56701764D01*
X39923879Y-56691500D01*
X39923872Y-56691500D01*
X39076128Y-56691500D01*
X39076120Y-56691500D01*
X38975663Y-56701764D01*
X38812901Y-56755697D01*
X38812890Y-56755702D01*
X38666963Y-56845712D01*
X38666959Y-56845715D01*
X38545715Y-56966959D01*
X38545712Y-56966963D01*
X38455702Y-57112890D01*
X38455697Y-57112901D01*
X38401764Y-57275663D01*
X38391500Y-57376120D01*
X38391500Y-57499964D01*
X38385808Y-57537102D01*
X38227899Y-58040146D01*
X38189040Y-58098212D01*
X38185080Y-58101382D01*
X38166012Y-58116013D01*
X38141522Y-58147929D01*
X38068476Y-58243123D01*
X38068475Y-58243125D01*
X38013124Y-58376757D01*
X38007162Y-58391147D01*
X37990957Y-58514241D01*
X37990955Y-58514254D01*
X37986250Y-58550000D01*
X37990969Y-58585843D01*
X37991500Y-58593945D01*
X37991500Y-61254901D01*
X37971815Y-61321940D01*
X37960857Y-61336512D01*
X37717851Y-61614466D01*
X37658909Y-61651979D01*
X37589040Y-61651671D01*
X37530429Y-61613637D01*
X37501685Y-61549954D01*
X37500500Y-61532849D01*
X37500500Y-56428133D01*
X41025668Y-56428133D01*
X41041058Y-56515410D01*
X41056135Y-56600911D01*
X41125623Y-56762004D01*
X41125624Y-56762006D01*
X41125626Y-56762009D01*
X41229836Y-56901986D01*
X41230390Y-56902730D01*
X41364786Y-57015502D01*
X41442488Y-57054525D01*
X41521562Y-57094238D01*
X41521563Y-57094238D01*
X41521567Y-57094240D01*
X41692279Y-57134700D01*
X41692282Y-57134700D01*
X41823701Y-57134700D01*
X41823709Y-57134700D01*
X41954255Y-57119441D01*
X42119117Y-57059437D01*
X42265696Y-56963030D01*
X42386092Y-56835418D01*
X42473812Y-56683481D01*
X42524130Y-56515410D01*
X42524824Y-56503500D01*
X42973100Y-56503500D01*
X42973100Y-56707744D01*
X42979501Y-56767272D01*
X42979503Y-56767279D01*
X43029745Y-56901986D01*
X43029749Y-56901993D01*
X43115909Y-57017087D01*
X43115912Y-57017090D01*
X43231006Y-57103250D01*
X43231013Y-57103254D01*
X43365720Y-57153496D01*
X43365727Y-57153498D01*
X43425255Y-57159899D01*
X43425272Y-57159900D01*
X44098100Y-57159900D01*
X44098100Y-56503500D01*
X42973100Y-56503500D01*
X42524824Y-56503500D01*
X42534331Y-56340265D01*
X42503865Y-56167489D01*
X42434377Y-56006396D01*
X42329610Y-55865670D01*
X42257747Y-55805370D01*
X42195214Y-55752898D01*
X42195212Y-55752897D01*
X42038437Y-55674161D01*
X42038433Y-55674160D01*
X41867721Y-55633700D01*
X41736291Y-55633700D01*
X41631854Y-55645907D01*
X41605743Y-55648959D01*
X41605740Y-55648960D01*
X41440884Y-55708962D01*
X41440880Y-55708964D01*
X41294306Y-55805367D01*
X41294305Y-55805368D01*
X41173910Y-55932978D01*
X41086188Y-56084918D01*
X41035870Y-56252989D01*
X41035869Y-56252994D01*
X41025668Y-56428133D01*
X37500500Y-56428133D01*
X37500500Y-54623879D01*
X38391500Y-54623879D01*
X38401764Y-54724336D01*
X38455697Y-54887098D01*
X38455702Y-54887109D01*
X38545712Y-55033036D01*
X38545715Y-55033040D01*
X38666959Y-55154284D01*
X38666963Y-55154287D01*
X38812890Y-55244297D01*
X38812893Y-55244298D01*
X38812899Y-55244302D01*
X38975664Y-55298236D01*
X39076128Y-55308500D01*
X39076133Y-55308500D01*
X39923867Y-55308500D01*
X39923872Y-55308500D01*
X40024336Y-55298236D01*
X40187101Y-55244302D01*
X40333040Y-55154285D01*
X40454285Y-55033040D01*
X40544302Y-54887101D01*
X40598236Y-54724336D01*
X40608500Y-54623872D01*
X40608500Y-54076128D01*
X40598236Y-53975664D01*
X40544302Y-53812899D01*
X40544298Y-53812893D01*
X40544297Y-53812890D01*
X40454287Y-53666963D01*
X40454284Y-53666959D01*
X40333040Y-53545715D01*
X40333036Y-53545712D01*
X40210918Y-53470388D01*
X40183166Y-53447040D01*
X40039651Y-53284913D01*
X40009956Y-53221668D01*
X40008500Y-53202723D01*
X40008500Y-52539498D01*
X40018038Y-52491806D01*
X40239052Y-51961371D01*
X40239053Y-51961369D01*
X40257428Y-51909640D01*
X40258180Y-51904484D01*
X40262949Y-51884080D01*
X40293540Y-51789933D01*
X40293542Y-51789928D01*
X40313504Y-51600000D01*
X40293542Y-51410072D01*
X40234527Y-51228444D01*
X40139040Y-51063056D01*
X40011253Y-50921134D01*
X39856752Y-50808882D01*
X39682288Y-50731206D01*
X39682286Y-50731205D01*
X39495487Y-50691500D01*
X39304513Y-50691500D01*
X39117714Y-50731205D01*
X38943246Y-50808883D01*
X38788745Y-50921135D01*
X38660959Y-51063057D01*
X38565473Y-51228443D01*
X38565470Y-51228450D01*
X38506844Y-51408883D01*
X38506458Y-51410072D01*
X38486496Y-51600000D01*
X38506458Y-51789928D01*
X38506459Y-51789931D01*
X38555702Y-51941486D01*
X38556774Y-51945170D01*
X38558862Y-51953281D01*
X38560945Y-51961370D01*
X38781962Y-52491808D01*
X38791500Y-52539500D01*
X38791500Y-53263619D01*
X38773539Y-53327897D01*
X38610090Y-53597538D01*
X38591733Y-53620940D01*
X38545713Y-53666960D01*
X38455702Y-53812890D01*
X38455697Y-53812901D01*
X38401764Y-53975663D01*
X38391500Y-54076120D01*
X38391500Y-54623879D01*
X37500500Y-54623879D01*
X37500500Y-46732500D01*
X37520185Y-46665461D01*
X37572989Y-46619706D01*
X37624500Y-46608500D01*
X38527500Y-46608500D01*
X38594539Y-46628185D01*
G37*
G04 #@! TD.AperFunction*
G04 #@! TA.AperFunction,Conductor*
G36*
X44976880Y-53996145D02*
G01*
X45111269Y-54130534D01*
X45113418Y-54133490D01*
X45217585Y-54337689D01*
X45218292Y-54346616D01*
X45212480Y-54353428D01*
X45212095Y-54353616D01*
X44358486Y-54750449D01*
X44349540Y-54750829D01*
X44342944Y-54744771D01*
X44342735Y-54744294D01*
X44294620Y-54627444D01*
X44184067Y-54358952D01*
X44184086Y-54349999D01*
X44190061Y-54343840D01*
X44963784Y-53993757D01*
X44972734Y-53993470D01*
X44976880Y-53996145D01*
G37*
G04 #@! TD.AperFunction*
G04 #@! TA.AperFunction,Conductor*
G36*
X52348482Y-82975103D02*
G01*
X52351494Y-82977281D01*
X52482468Y-83108255D01*
X52485895Y-83116528D01*
X52485134Y-83120677D01*
X51713615Y-85154682D01*
X51707477Y-85161202D01*
X51700064Y-85161938D01*
X50567596Y-84902608D01*
X50560297Y-84897421D01*
X50558552Y-84892220D01*
X50446590Y-83609220D01*
X50449285Y-83600683D01*
X50454574Y-83597096D01*
X52339551Y-82974444D01*
X52348482Y-82975103D01*
G37*
G04 #@! TD.AperFunction*
G04 #@! TA.AperFunction,Conductor*
G36*
X49387174Y-75259759D02*
G01*
X49387198Y-75259778D01*
X49885183Y-75653789D01*
X49889544Y-75661609D01*
X49888203Y-75668552D01*
X49675322Y-76060188D01*
X49668360Y-76065820D01*
X49665042Y-76066300D01*
X49476777Y-76066300D01*
X49468588Y-76062956D01*
X49064827Y-75667246D01*
X49061317Y-75659008D01*
X49063822Y-75651654D01*
X49370746Y-75261715D01*
X49378554Y-75257335D01*
X49387174Y-75259759D01*
G37*
G04 #@! TD.AperFunction*
G04 #@! TA.AperFunction,Conductor*
G36*
X53867130Y-81548922D02*
G01*
X53869276Y-81551068D01*
X54854065Y-82832279D01*
X54856390Y-82840927D01*
X54853486Y-82847236D01*
X53963486Y-83836127D01*
X53955404Y-83839984D01*
X53954789Y-83840000D01*
X53765211Y-83840000D01*
X53756938Y-83836573D01*
X53756514Y-83836127D01*
X52866513Y-82847236D01*
X52863526Y-82838794D01*
X52865933Y-82832280D01*
X53850724Y-81551067D01*
X53858482Y-81546597D01*
X53867130Y-81548922D01*
G37*
G04 #@! TD.AperFunction*
G04 #@! TA.AperFunction,Conductor*
G36*
X39493380Y-76648857D02*
G01*
X39501434Y-76652768D01*
X39503503Y-76656079D01*
X39682014Y-77089363D01*
X39681997Y-77098318D01*
X39675836Y-77104561D01*
X38822249Y-77473313D01*
X38813295Y-77473448D01*
X38809336Y-77470845D01*
X38678548Y-77340057D01*
X38675121Y-77331784D01*
X38675658Y-77328280D01*
X38745885Y-77104561D01*
X38897264Y-76622318D01*
X38903010Y-76615453D01*
X38909116Y-76614145D01*
X39493380Y-76648857D01*
G37*
G04 #@! TD.AperFunction*
G04 #@! TA.AperFunction,Conductor*
G36*
X47725458Y-32125535D02*
G01*
X47726509Y-32126462D01*
X47997250Y-32395853D01*
X48000698Y-32404118D01*
X48000698Y-32404168D01*
X48000019Y-32789070D01*
X47996578Y-32797337D01*
X47989093Y-32800723D01*
X47410251Y-32839112D01*
X47401769Y-32836240D01*
X47401204Y-32835711D01*
X47270853Y-32705360D01*
X47267426Y-32697087D01*
X47269904Y-32689888D01*
X47709037Y-32127553D01*
X47716828Y-32123144D01*
X47725458Y-32125535D01*
G37*
G04 #@! TD.AperFunction*
G04 #@! TA.AperFunction,Conductor*
G36*
X39503004Y-91453427D02*
G01*
X39503492Y-91453945D01*
X39896389Y-91897791D01*
X39899306Y-91906257D01*
X39896300Y-91913400D01*
X39507482Y-92342737D01*
X39499389Y-92346569D01*
X39491385Y-92343925D01*
X39009666Y-91948328D01*
X39005447Y-91940429D01*
X39007085Y-91933222D01*
X39296584Y-91455634D01*
X39303803Y-91450337D01*
X39306589Y-91450000D01*
X39494731Y-91450000D01*
X39503004Y-91453427D01*
G37*
G04 #@! TD.AperFunction*
G04 #@! TA.AperFunction,Conductor*
G36*
X38702058Y-43997765D02*
G01*
X40250060Y-44604018D01*
X40256512Y-44610224D01*
X40257361Y-44616655D01*
X40249500Y-44668807D01*
X40249500Y-44931192D01*
X40288602Y-45190607D01*
X40288604Y-45190615D01*
X40365937Y-45441323D01*
X40365939Y-45441328D01*
X40365941Y-45441332D01*
X40479770Y-45677701D01*
X40479772Y-45677704D01*
X40627567Y-45894479D01*
X40790974Y-46070590D01*
X40806018Y-46086804D01*
X40850852Y-46122558D01*
X40855141Y-46130058D01*
X40907565Y-46498872D01*
X40905336Y-46507546D01*
X40897628Y-46512103D01*
X40893197Y-46511883D01*
X40875496Y-46507546D01*
X39166390Y-46088786D01*
X39159171Y-46083490D01*
X39158020Y-46080950D01*
X38693638Y-44610224D01*
X38504807Y-44012182D01*
X38505584Y-44003261D01*
X38512441Y-43997502D01*
X38515964Y-43996959D01*
X38697791Y-43996959D01*
X38702058Y-43997765D01*
G37*
G04 #@! TD.AperFunction*
G04 #@! TA.AperFunction,Conductor*
G36*
X53156695Y-52197436D02*
G01*
X53163042Y-52203754D01*
X53163063Y-52203804D01*
X53309121Y-52558734D01*
X53309100Y-52567688D01*
X53302756Y-52574005D01*
X52672737Y-52833426D01*
X52663782Y-52833407D01*
X52660009Y-52830880D01*
X52529619Y-52700490D01*
X52526192Y-52692217D01*
X52527072Y-52687766D01*
X52786494Y-52057742D01*
X52792813Y-52051398D01*
X52801764Y-52051378D01*
X53156695Y-52197436D01*
G37*
G04 #@! TD.AperFunction*
G04 #@! TA.AperFunction,Conductor*
G36*
X39808939Y-44395048D02*
G01*
X39814503Y-44400648D01*
X40584335Y-46043963D01*
X40584741Y-46052908D01*
X40582013Y-46057199D01*
X40450092Y-46189120D01*
X40441819Y-46192547D01*
X40441175Y-46192529D01*
X38772192Y-46100562D01*
X38764120Y-46096685D01*
X38761173Y-46089803D01*
X38659999Y-44808239D01*
X38662764Y-44799723D01*
X38667750Y-44796292D01*
X39799996Y-44394584D01*
X39808939Y-44395048D01*
G37*
G04 #@! TD.AperFunction*
G04 #@! TA.AperFunction,Conductor*
G36*
X38703163Y-61503427D02*
G01*
X38703473Y-61503749D01*
X38792064Y-61599377D01*
X38795081Y-61605801D01*
X38814955Y-61756759D01*
X38814958Y-61756768D01*
X38875459Y-61902832D01*
X38875463Y-61902838D01*
X38875464Y-61902841D01*
X38971718Y-62028282D01*
X39097159Y-62124536D01*
X39097163Y-62124537D01*
X39097167Y-62124540D01*
X39224573Y-62177312D01*
X39243238Y-62185044D01*
X39343147Y-62198197D01*
X39350199Y-62201844D01*
X39619811Y-62492872D01*
X39622919Y-62501270D01*
X39620620Y-62507800D01*
X38669077Y-63788779D01*
X38661393Y-63793377D01*
X38652708Y-63791194D01*
X38650526Y-63789083D01*
X37631805Y-62507635D01*
X37629341Y-62499027D01*
X37632155Y-62492657D01*
X38496504Y-61503999D01*
X38504529Y-61500026D01*
X38505312Y-61500000D01*
X38694890Y-61500000D01*
X38703163Y-61503427D01*
G37*
G04 #@! TD.AperFunction*
G04 #@! TA.AperFunction,Conductor*
G36*
X50963868Y-38434945D02*
G01*
X51592800Y-38697000D01*
X51599119Y-38703345D01*
X51600000Y-38707800D01*
X51600000Y-38892199D01*
X51596573Y-38900472D01*
X51592800Y-38902999D01*
X50963870Y-39165053D01*
X50954915Y-39165072D01*
X50948571Y-39158755D01*
X50800875Y-38804499D01*
X50800855Y-38795550D01*
X50948572Y-38441242D01*
X50954918Y-38434926D01*
X50963868Y-38434945D01*
G37*
G04 #@! TD.AperFunction*
G04 #@! TA.AperFunction,Conductor*
G36*
X53867130Y-43548922D02*
G01*
X53869276Y-43551068D01*
X54854065Y-44832279D01*
X54856390Y-44840927D01*
X54853486Y-44847236D01*
X53963486Y-45836127D01*
X53955404Y-45839984D01*
X53954789Y-45840000D01*
X53765211Y-45840000D01*
X53756938Y-45836573D01*
X53756514Y-45836127D01*
X52866513Y-44847236D01*
X52863526Y-44838794D01*
X52865933Y-44832280D01*
X53850724Y-43551067D01*
X53858482Y-43546597D01*
X53867130Y-43548922D01*
G37*
G04 #@! TD.AperFunction*
G04 #@! TA.AperFunction,Conductor*
G36*
X49387174Y-56259759D02*
G01*
X49387198Y-56259778D01*
X49885183Y-56653789D01*
X49889544Y-56661609D01*
X49888203Y-56668552D01*
X49675322Y-57060188D01*
X49668360Y-57065820D01*
X49665042Y-57066300D01*
X49476777Y-57066300D01*
X49468588Y-57062956D01*
X49064827Y-56667246D01*
X49061317Y-56659008D01*
X49063822Y-56651654D01*
X49370746Y-56261715D01*
X49378554Y-56257335D01*
X49387174Y-56259759D01*
G37*
G04 #@! TD.AperFunction*
G04 #@! TA.AperFunction,Conductor*
G36*
X52330750Y-63957431D02*
G01*
X52333880Y-63959667D01*
X52500083Y-64125870D01*
X52503510Y-64134143D01*
X52502706Y-64138406D01*
X51713675Y-66154820D01*
X51707469Y-66161276D01*
X51700167Y-66161962D01*
X50567596Y-65902608D01*
X50560297Y-65897421D01*
X50558552Y-65892220D01*
X50446581Y-64609115D01*
X50449276Y-64600577D01*
X50454442Y-64597032D01*
X52321813Y-63956872D01*
X52330750Y-63957431D01*
G37*
G04 #@! TD.AperFunction*
G04 #@! TA.AperFunction,Conductor*
G36*
X50258602Y-35352724D02*
G01*
X50416778Y-35471978D01*
X50654744Y-35651390D01*
X50659287Y-35659105D01*
X50659400Y-35660731D01*
X50659400Y-35849068D01*
X50655973Y-35857341D01*
X50654744Y-35858410D01*
X50258602Y-36157075D01*
X50249932Y-36159320D01*
X50246634Y-36158346D01*
X49399876Y-35765513D01*
X49393813Y-35758923D01*
X49394187Y-35749976D01*
X49399876Y-35744287D01*
X49600119Y-35651389D01*
X50246634Y-35351452D01*
X50255581Y-35351079D01*
X50258602Y-35352724D01*
G37*
G04 #@! TD.AperFunction*
G04 #@! TA.AperFunction,Conductor*
G36*
X53963062Y-79243427D02*
G01*
X53963486Y-79243873D01*
X54853486Y-80232763D01*
X54856473Y-80241205D01*
X54854065Y-80247720D01*
X53869275Y-81528931D01*
X53861517Y-81533402D01*
X53852869Y-81531077D01*
X53850723Y-81528931D01*
X52893983Y-80284212D01*
X52891659Y-80275566D01*
X52896130Y-80267808D01*
X52898433Y-80266427D01*
X52962893Y-80237289D01*
X52985478Y-80227081D01*
X52985479Y-80227080D01*
X52985486Y-80227077D01*
X53183003Y-80093579D01*
X53355118Y-79928621D01*
X53496879Y-79736947D01*
X53604207Y-79524074D01*
X53654962Y-79358339D01*
X53657447Y-79353946D01*
X53756514Y-79243872D01*
X53764596Y-79240016D01*
X53765211Y-79240000D01*
X53954789Y-79240000D01*
X53963062Y-79243427D01*
G37*
G04 #@! TD.AperFunction*
G04 #@! TA.AperFunction,Conductor*
G36*
X44945457Y-91996222D02*
G01*
X45080226Y-92130991D01*
X45081738Y-92132850D01*
X45215680Y-92337181D01*
X45217350Y-92345979D01*
X45212309Y-92353380D01*
X45210827Y-92354205D01*
X44358357Y-92750509D01*
X44349411Y-92750889D01*
X44342815Y-92744831D01*
X44342659Y-92744480D01*
X44312050Y-92672539D01*
X44178601Y-92358890D01*
X44178516Y-92349938D01*
X44184410Y-92343715D01*
X44932228Y-91993896D01*
X44941172Y-91993496D01*
X44945457Y-91996222D01*
G37*
G04 #@! TD.AperFunction*
G04 #@! TA.AperFunction,Conductor*
G36*
X50258463Y-73383370D02*
G01*
X50654951Y-73696486D01*
X50659320Y-73704303D01*
X50659400Y-73705668D01*
X50659400Y-73893612D01*
X50655973Y-73901885D01*
X50654028Y-73903453D01*
X50258413Y-74157819D01*
X50249600Y-74159411D01*
X50247161Y-74158591D01*
X49400776Y-73765930D01*
X49394713Y-73759340D01*
X49395087Y-73750393D01*
X49401085Y-73744566D01*
X50246602Y-73381800D01*
X50255554Y-73381688D01*
X50258463Y-73383370D01*
G37*
G04 #@! TD.AperFunction*
G04 #@! TA.AperFunction,Conductor*
G36*
X53156695Y-91597436D02*
G01*
X53163042Y-91603754D01*
X53163063Y-91603804D01*
X53309121Y-91958734D01*
X53309100Y-91967688D01*
X53302756Y-91974005D01*
X52672737Y-92233426D01*
X52663782Y-92233407D01*
X52660009Y-92230880D01*
X52529619Y-92100490D01*
X52526192Y-92092217D01*
X52527072Y-92087766D01*
X52786494Y-91457742D01*
X52792813Y-91451398D01*
X52801764Y-91451378D01*
X53156695Y-91597436D01*
G37*
G04 #@! TD.AperFunction*
G04 #@! TA.AperFunction,Conductor*
G36*
X39758755Y-70148571D02*
G01*
X39765073Y-70154918D01*
X39765053Y-70163870D01*
X39503000Y-70792800D01*
X39496655Y-70799119D01*
X39492200Y-70800000D01*
X39307800Y-70800000D01*
X39299527Y-70796573D01*
X39297000Y-70792800D01*
X39034945Y-70163868D01*
X39034927Y-70154915D01*
X39041242Y-70148572D01*
X39395500Y-70000875D01*
X39404449Y-70000855D01*
X39758755Y-70148571D01*
G37*
G04 #@! TD.AperFunction*
G04 #@! TA.AperFunction,Conductor*
G36*
X53851874Y-81537835D02*
G01*
X53859479Y-81542563D01*
X53861609Y-81548200D01*
X53991572Y-82831028D01*
X53988997Y-82839604D01*
X53984038Y-82843163D01*
X52030656Y-83575173D01*
X52021706Y-83574867D01*
X52018277Y-83572490D01*
X51887491Y-83441704D01*
X51884064Y-83433431D01*
X51884795Y-83429359D01*
X52177363Y-82641247D01*
X52179752Y-82637367D01*
X52182433Y-82634479D01*
X52330228Y-82417704D01*
X52444063Y-82181323D01*
X52521396Y-81930615D01*
X52532683Y-81855731D01*
X52560499Y-81671192D01*
X52560500Y-81671180D01*
X52560500Y-81611269D01*
X52561230Y-81607200D01*
X52656643Y-81350179D01*
X52662735Y-81343617D01*
X52669514Y-81342708D01*
X53851874Y-81537835D01*
G37*
G04 #@! TD.AperFunction*
G04 #@! TA.AperFunction,Conductor*
G36*
X53156695Y-90197436D02*
G01*
X53163042Y-90203754D01*
X53163063Y-90203804D01*
X53309121Y-90558734D01*
X53309100Y-90567688D01*
X53302756Y-90574005D01*
X52672737Y-90833426D01*
X52663782Y-90833407D01*
X52660009Y-90830880D01*
X52529619Y-90700490D01*
X52526192Y-90692217D01*
X52527072Y-90687766D01*
X52786494Y-90057742D01*
X52792813Y-90051398D01*
X52801764Y-90051378D01*
X53156695Y-90197436D01*
G37*
G04 #@! TD.AperFunction*
G04 #@! TA.AperFunction,Conductor*
G36*
X39808939Y-82395048D02*
G01*
X39814503Y-82400648D01*
X40584335Y-84043963D01*
X40584741Y-84052908D01*
X40582013Y-84057199D01*
X40450092Y-84189120D01*
X40441819Y-84192547D01*
X40441175Y-84192529D01*
X38772192Y-84100562D01*
X38764120Y-84096685D01*
X38761173Y-84089803D01*
X38659999Y-82808239D01*
X38662764Y-82799723D01*
X38667750Y-82796292D01*
X39799996Y-82394584D01*
X39808939Y-82395048D01*
G37*
G04 #@! TD.AperFunction*
G04 #@! TA.AperFunction,Conductor*
G36*
X50258644Y-93851520D02*
G01*
X50543777Y-94074812D01*
X50544298Y-94075273D01*
X50676518Y-94207493D01*
X50679945Y-94215766D01*
X50676518Y-94224039D01*
X50675839Y-94224667D01*
X50258262Y-94580916D01*
X50249744Y-94583678D01*
X50246529Y-94582958D01*
X49403294Y-94264040D01*
X49396768Y-94257909D01*
X49396490Y-94248958D01*
X49402499Y-94242488D01*
X50246499Y-93850121D01*
X50255444Y-93849742D01*
X50258644Y-93851520D01*
G37*
G04 #@! TD.AperFunction*
G04 #@! TA.AperFunction,Conductor*
G36*
X53867130Y-62548922D02*
G01*
X53869276Y-62551068D01*
X54854065Y-63832279D01*
X54856390Y-63840927D01*
X54853486Y-63847236D01*
X53963486Y-64836127D01*
X53955404Y-64839984D01*
X53954789Y-64840000D01*
X53765211Y-64840000D01*
X53756938Y-64836573D01*
X53756514Y-64836127D01*
X52866513Y-63847236D01*
X52863526Y-63838794D01*
X52865933Y-63832280D01*
X53850724Y-62551067D01*
X53858482Y-62546597D01*
X53867130Y-62548922D01*
G37*
G04 #@! TD.AperFunction*
G04 #@! TA.AperFunction,Conductor*
G36*
X38703163Y-80503427D02*
G01*
X38703473Y-80503749D01*
X38792064Y-80599377D01*
X38795081Y-80605801D01*
X38814955Y-80756759D01*
X38814958Y-80756768D01*
X38875459Y-80902832D01*
X38875463Y-80902838D01*
X38875464Y-80902841D01*
X38971718Y-81028282D01*
X39097159Y-81124536D01*
X39097163Y-81124537D01*
X39097167Y-81124540D01*
X39224573Y-81177312D01*
X39243238Y-81185044D01*
X39343147Y-81198197D01*
X39350199Y-81201844D01*
X39619811Y-81492872D01*
X39622919Y-81501270D01*
X39620620Y-81507800D01*
X38669077Y-82788779D01*
X38661393Y-82793377D01*
X38652708Y-82791194D01*
X38650526Y-82789083D01*
X37631805Y-81507635D01*
X37629341Y-81499027D01*
X37632155Y-81492657D01*
X38496504Y-80503999D01*
X38504529Y-80500026D01*
X38505312Y-80500000D01*
X38694890Y-80500000D01*
X38703163Y-80503427D01*
G37*
G04 #@! TD.AperFunction*
G04 #@! TA.AperFunction,Conductor*
G36*
X53963062Y-60243427D02*
G01*
X53963486Y-60243873D01*
X54853486Y-61232763D01*
X54856473Y-61241205D01*
X54854065Y-61247720D01*
X53869275Y-62528931D01*
X53861517Y-62533402D01*
X53852869Y-62531077D01*
X53850723Y-62528931D01*
X52893983Y-61284212D01*
X52891659Y-61275566D01*
X52896130Y-61267808D01*
X52898433Y-61266427D01*
X52962893Y-61237289D01*
X52985478Y-61227081D01*
X52985479Y-61227080D01*
X52985486Y-61227077D01*
X53183003Y-61093579D01*
X53355118Y-60928621D01*
X53496879Y-60736947D01*
X53604207Y-60524074D01*
X53654962Y-60358339D01*
X53657447Y-60353946D01*
X53756514Y-60243872D01*
X53764596Y-60240016D01*
X53765211Y-60240000D01*
X53954789Y-60240000D01*
X53963062Y-60243427D01*
G37*
G04 #@! TD.AperFunction*
G04 #@! TA.AperFunction,Conductor*
G36*
X41251428Y-32841244D02*
G01*
X41399123Y-33195498D01*
X41399144Y-33204452D01*
X41399123Y-33204502D01*
X41251428Y-33558755D01*
X41245081Y-33565073D01*
X41236129Y-33565053D01*
X40607200Y-33302999D01*
X40600881Y-33296654D01*
X40600000Y-33292199D01*
X40600000Y-33107800D01*
X40603427Y-33099527D01*
X40607200Y-33097000D01*
X41236131Y-32834945D01*
X41245084Y-32834927D01*
X41251428Y-32841244D01*
G37*
G04 #@! TD.AperFunction*
G04 #@! TA.AperFunction,Conductor*
G36*
X52348482Y-101975103D02*
G01*
X52351494Y-101977281D01*
X52482468Y-102108255D01*
X52485895Y-102116528D01*
X52485134Y-102120677D01*
X51713615Y-104154682D01*
X51707477Y-104161202D01*
X51700064Y-104161938D01*
X50567596Y-103902608D01*
X50560297Y-103897421D01*
X50558552Y-103892220D01*
X50446590Y-102609220D01*
X50449285Y-102600683D01*
X50454574Y-102597096D01*
X52339551Y-101974444D01*
X52348482Y-101975103D01*
G37*
G04 #@! TD.AperFunction*
G04 #@! TA.AperFunction,Conductor*
G36*
X39758755Y-51748571D02*
G01*
X39765073Y-51754918D01*
X39765053Y-51763870D01*
X39503000Y-52392800D01*
X39496655Y-52399119D01*
X39492200Y-52400000D01*
X39307800Y-52400000D01*
X39299527Y-52396573D01*
X39297000Y-52392800D01*
X39034945Y-51763868D01*
X39034927Y-51754915D01*
X39041242Y-51748572D01*
X39395500Y-51600875D01*
X39404449Y-51600855D01*
X39758755Y-51748571D01*
G37*
G04 #@! TD.AperFunction*
G04 #@! TA.AperFunction,Conductor*
G36*
X39758755Y-89548571D02*
G01*
X39765073Y-89554918D01*
X39765053Y-89563870D01*
X39503000Y-90192800D01*
X39496655Y-90199119D01*
X39492200Y-90200000D01*
X39307800Y-90200000D01*
X39299527Y-90196573D01*
X39297000Y-90192800D01*
X39034945Y-89563868D01*
X39034927Y-89554915D01*
X39041242Y-89548572D01*
X39395500Y-89400875D01*
X39404449Y-89400855D01*
X39758755Y-89548571D01*
G37*
G04 #@! TD.AperFunction*
G04 #@! TA.AperFunction,Conductor*
G36*
X39493380Y-95648857D02*
G01*
X39501434Y-95652768D01*
X39503503Y-95656079D01*
X39682014Y-96089363D01*
X39681997Y-96098318D01*
X39675836Y-96104561D01*
X38822249Y-96473313D01*
X38813295Y-96473448D01*
X38809336Y-96470845D01*
X38678548Y-96340057D01*
X38675121Y-96331784D01*
X38675658Y-96328280D01*
X38745885Y-96104561D01*
X38897264Y-95622318D01*
X38903010Y-95615453D01*
X38909116Y-95614145D01*
X39493380Y-95648857D01*
G37*
G04 #@! TD.AperFunction*
G04 #@! TA.AperFunction,Conductor*
G36*
X53963062Y-41243427D02*
G01*
X53963486Y-41243873D01*
X54853486Y-42232763D01*
X54856473Y-42241205D01*
X54854065Y-42247720D01*
X53869275Y-43528931D01*
X53861517Y-43533402D01*
X53852869Y-43531077D01*
X53850723Y-43528931D01*
X52893983Y-42284212D01*
X52891659Y-42275566D01*
X52896130Y-42267808D01*
X52898433Y-42266427D01*
X52962893Y-42237289D01*
X52985478Y-42227081D01*
X52985479Y-42227080D01*
X52985486Y-42227077D01*
X53183003Y-42093579D01*
X53355118Y-41928621D01*
X53496879Y-41736947D01*
X53604207Y-41524074D01*
X53654962Y-41358339D01*
X53657447Y-41353946D01*
X53756514Y-41243872D01*
X53764596Y-41240016D01*
X53765211Y-41240000D01*
X53954789Y-41240000D01*
X53963062Y-41243427D01*
G37*
G04 #@! TD.AperFunction*
G04 #@! TA.AperFunction,Conductor*
G36*
X44976880Y-34996145D02*
G01*
X45111269Y-35130534D01*
X45113418Y-35133490D01*
X45217585Y-35337689D01*
X45218292Y-35346616D01*
X45212480Y-35353428D01*
X45212095Y-35353616D01*
X44358486Y-35750449D01*
X44349540Y-35750829D01*
X44342944Y-35744771D01*
X44342735Y-35744294D01*
X44294620Y-35627444D01*
X44184067Y-35358952D01*
X44184086Y-35349999D01*
X44190061Y-35343840D01*
X44963784Y-34993757D01*
X44972734Y-34993470D01*
X44976880Y-34996145D01*
G37*
G04 #@! TD.AperFunction*
G04 #@! TA.AperFunction,Conductor*
G36*
X53851874Y-100537835D02*
G01*
X53859479Y-100542563D01*
X53861609Y-100548200D01*
X53991572Y-101831028D01*
X53988997Y-101839604D01*
X53984038Y-101843163D01*
X52030656Y-102575173D01*
X52021706Y-102574867D01*
X52018277Y-102572490D01*
X51887491Y-102441704D01*
X51884064Y-102433431D01*
X51884795Y-102429359D01*
X52177363Y-101641247D01*
X52179752Y-101637367D01*
X52182433Y-101634479D01*
X52330228Y-101417704D01*
X52444063Y-101181323D01*
X52521396Y-100930615D01*
X52532683Y-100855731D01*
X52560499Y-100671192D01*
X52560500Y-100671180D01*
X52560500Y-100611269D01*
X52561230Y-100607200D01*
X52656643Y-100350179D01*
X52662735Y-100343617D01*
X52669514Y-100342708D01*
X53851874Y-100537835D01*
G37*
G04 #@! TD.AperFunction*
G04 #@! TA.AperFunction,Conductor*
G36*
X52045440Y-35434603D02*
G01*
X52051181Y-35440651D01*
X52199123Y-35795498D01*
X52199144Y-35804452D01*
X52199123Y-35804502D01*
X52051723Y-36158047D01*
X52045376Y-36164365D01*
X52036422Y-36164344D01*
X52035749Y-36164038D01*
X51415496Y-35858118D01*
X51409592Y-35851385D01*
X51408971Y-35847625D01*
X51408971Y-35663186D01*
X51412398Y-35654913D01*
X51416785Y-35652150D01*
X52036501Y-35434116D01*
X52045440Y-35434603D01*
G37*
G04 #@! TD.AperFunction*
G04 #@! TA.AperFunction,Conductor*
G36*
X50258787Y-92354365D02*
G01*
X50559723Y-92659357D01*
X50691704Y-92791338D01*
X50695131Y-92799611D01*
X50691704Y-92807884D01*
X50690548Y-92808897D01*
X50258513Y-93140018D01*
X50249862Y-93142331D01*
X50246650Y-93141426D01*
X50243477Y-93140018D01*
X50100432Y-93076534D01*
X49400832Y-92766053D01*
X49394660Y-92759565D01*
X49394884Y-92750613D01*
X49400643Y-92744751D01*
X50245529Y-92351972D01*
X50254473Y-92351593D01*
X50258787Y-92354365D01*
G37*
G04 #@! TD.AperFunction*
G04 #@! TA.AperFunction,Conductor*
G36*
X53963062Y-98243427D02*
G01*
X53963486Y-98243873D01*
X54853486Y-99232763D01*
X54856473Y-99241205D01*
X54854065Y-99247720D01*
X53869275Y-100528931D01*
X53861517Y-100533402D01*
X53852869Y-100531077D01*
X53850723Y-100528931D01*
X52893983Y-99284212D01*
X52891659Y-99275566D01*
X52896130Y-99267808D01*
X52898433Y-99266427D01*
X52962893Y-99237289D01*
X52985478Y-99227081D01*
X52985479Y-99227080D01*
X52985486Y-99227077D01*
X53183003Y-99093579D01*
X53355118Y-98928621D01*
X53496879Y-98736947D01*
X53604207Y-98524074D01*
X53654962Y-98358339D01*
X53657447Y-98353946D01*
X53756514Y-98243872D01*
X53764596Y-98240016D01*
X53765211Y-98240000D01*
X53954789Y-98240000D01*
X53963062Y-98243427D01*
G37*
G04 #@! TD.AperFunction*
G04 #@! TA.AperFunction,Conductor*
G36*
X39493380Y-38648857D02*
G01*
X39501434Y-38652768D01*
X39503503Y-38656079D01*
X39682014Y-39089363D01*
X39681997Y-39098318D01*
X39675836Y-39104561D01*
X38822249Y-39473313D01*
X38813295Y-39473448D01*
X38809336Y-39470845D01*
X38678548Y-39340057D01*
X38675121Y-39331784D01*
X38675658Y-39328280D01*
X38745885Y-39104561D01*
X38897264Y-38622318D01*
X38903010Y-38615453D01*
X38909116Y-38614145D01*
X39493380Y-38648857D01*
G37*
G04 #@! TD.AperFunction*
G04 #@! TA.AperFunction,Conductor*
G36*
X39808939Y-101395048D02*
G01*
X39814503Y-101400648D01*
X40584335Y-103043963D01*
X40584741Y-103052908D01*
X40582013Y-103057199D01*
X40450092Y-103189120D01*
X40441819Y-103192547D01*
X40441175Y-103192529D01*
X38772192Y-103100562D01*
X38764120Y-103096685D01*
X38761173Y-103089803D01*
X38659999Y-101808239D01*
X38662764Y-101799723D01*
X38667750Y-101796292D01*
X39799996Y-101394584D01*
X39808939Y-101395048D01*
G37*
G04 #@! TD.AperFunction*
G04 #@! TA.AperFunction,Conductor*
G36*
X39602436Y-34453427D02*
G01*
X39603510Y-34454663D01*
X39943788Y-34906666D01*
X39946026Y-34915337D01*
X39942583Y-34922105D01*
X39508142Y-35343109D01*
X39499816Y-35346406D01*
X39491858Y-35343109D01*
X39057416Y-34922105D01*
X39053859Y-34913887D01*
X39056210Y-34906668D01*
X39396490Y-34454663D01*
X39404203Y-34450115D01*
X39405837Y-34450000D01*
X39594163Y-34450000D01*
X39602436Y-34453427D01*
G37*
G04 #@! TD.AperFunction*
G04 #@! TA.AperFunction,Conductor*
G36*
X38702058Y-62997765D02*
G01*
X40250060Y-63604018D01*
X40256512Y-63610224D01*
X40257361Y-63616655D01*
X40249500Y-63668807D01*
X40249500Y-63931192D01*
X40288602Y-64190607D01*
X40288604Y-64190615D01*
X40365937Y-64441323D01*
X40365939Y-64441328D01*
X40365941Y-64441332D01*
X40479770Y-64677701D01*
X40479772Y-64677704D01*
X40627567Y-64894479D01*
X40790974Y-65070590D01*
X40806018Y-65086804D01*
X40850852Y-65122558D01*
X40855141Y-65130058D01*
X40907565Y-65498872D01*
X40905336Y-65507546D01*
X40897628Y-65512103D01*
X40893197Y-65511883D01*
X40875496Y-65507546D01*
X39166390Y-65088786D01*
X39159171Y-65083490D01*
X39158020Y-65080950D01*
X38693638Y-63610224D01*
X38504807Y-63012182D01*
X38505584Y-63003261D01*
X38512441Y-62997502D01*
X38515964Y-62996959D01*
X38697791Y-62996959D01*
X38702058Y-62997765D01*
G37*
G04 #@! TD.AperFunction*
G04 #@! TA.AperFunction,Conductor*
G36*
X52330750Y-44957431D02*
G01*
X52333880Y-44959667D01*
X52500083Y-45125870D01*
X52503510Y-45134143D01*
X52502706Y-45138406D01*
X51713675Y-47154820D01*
X51707469Y-47161276D01*
X51700167Y-47161962D01*
X50567596Y-46902608D01*
X50560297Y-46897421D01*
X50558552Y-46892220D01*
X50446581Y-45609115D01*
X50449276Y-45600577D01*
X50454442Y-45597032D01*
X52321813Y-44956872D01*
X52330750Y-44957431D01*
G37*
G04 #@! TD.AperFunction*
G04 #@! TA.AperFunction,Conductor*
G36*
X39503004Y-72453427D02*
G01*
X39503492Y-72453945D01*
X39896389Y-72897791D01*
X39899306Y-72906257D01*
X39896300Y-72913400D01*
X39507482Y-73342737D01*
X39499389Y-73346569D01*
X39491385Y-73343925D01*
X39009666Y-72948328D01*
X39005447Y-72940429D01*
X39007085Y-72933222D01*
X39296584Y-72455634D01*
X39303803Y-72450337D01*
X39306589Y-72450000D01*
X39494731Y-72450000D01*
X39503004Y-72453427D01*
G37*
G04 #@! TD.AperFunction*
G04 #@! TA.AperFunction,Conductor*
G36*
X39808939Y-63395048D02*
G01*
X39814503Y-63400648D01*
X40584335Y-65043963D01*
X40584741Y-65052908D01*
X40582013Y-65057199D01*
X40450092Y-65189120D01*
X40441819Y-65192547D01*
X40441175Y-65192529D01*
X38772192Y-65100562D01*
X38764120Y-65096685D01*
X38761173Y-65089803D01*
X38659999Y-63808239D01*
X38662764Y-63799723D01*
X38667750Y-63796292D01*
X39799996Y-63394584D01*
X39808939Y-63395048D01*
G37*
G04 #@! TD.AperFunction*
G04 #@! TA.AperFunction,Conductor*
G36*
X39493380Y-57648857D02*
G01*
X39501434Y-57652768D01*
X39503503Y-57656079D01*
X39682014Y-58089363D01*
X39681997Y-58098318D01*
X39675836Y-58104561D01*
X38822249Y-58473313D01*
X38813295Y-58473448D01*
X38809336Y-58470845D01*
X38678548Y-58340057D01*
X38675121Y-58331784D01*
X38675658Y-58328280D01*
X38745885Y-58104561D01*
X38897264Y-57622318D01*
X38903010Y-57615453D01*
X38909116Y-57614145D01*
X39493380Y-57648857D01*
G37*
G04 #@! TD.AperFunction*
G04 #@! TA.AperFunction,Conductor*
G36*
X38702058Y-100997765D02*
G01*
X40250060Y-101604018D01*
X40256512Y-101610224D01*
X40257361Y-101616655D01*
X40249500Y-101668807D01*
X40249500Y-101931192D01*
X40288602Y-102190607D01*
X40288604Y-102190615D01*
X40365937Y-102441323D01*
X40365939Y-102441328D01*
X40365941Y-102441332D01*
X40479770Y-102677701D01*
X40479772Y-102677704D01*
X40627567Y-102894479D01*
X40790974Y-103070590D01*
X40806018Y-103086804D01*
X40850852Y-103122558D01*
X40855141Y-103130058D01*
X40907565Y-103498872D01*
X40905336Y-103507546D01*
X40897628Y-103512103D01*
X40893197Y-103511883D01*
X40875496Y-103507546D01*
X39166390Y-103088786D01*
X39159171Y-103083490D01*
X39158020Y-103080950D01*
X38693638Y-101610224D01*
X38504807Y-101012182D01*
X38505584Y-101003261D01*
X38512441Y-100997502D01*
X38515964Y-100996959D01*
X38697791Y-100996959D01*
X38702058Y-100997765D01*
G37*
G04 #@! TD.AperFunction*
G04 #@! TA.AperFunction,Conductor*
G36*
X44995336Y-72996101D02*
G01*
X45129470Y-73130235D01*
X45131966Y-73133934D01*
X45218676Y-73338085D01*
X45218756Y-73347040D01*
X45212839Y-73353269D01*
X44358559Y-73750415D01*
X44349613Y-73750795D01*
X44343017Y-73744737D01*
X44342779Y-73744188D01*
X44187140Y-73358986D01*
X44187218Y-73350034D01*
X44193240Y-73343911D01*
X44982316Y-72993679D01*
X44991268Y-72993456D01*
X44995336Y-72996101D01*
G37*
G04 #@! TD.AperFunction*
G04 #@! TA.AperFunction,Conductor*
G36*
X38703163Y-99503427D02*
G01*
X38703473Y-99503749D01*
X38863969Y-99676994D01*
X38866195Y-99680467D01*
X38875461Y-99702835D01*
X38875465Y-99702842D01*
X38971719Y-99828283D01*
X39083011Y-99913680D01*
X39084472Y-99915011D01*
X39619811Y-100492872D01*
X39622919Y-100501270D01*
X39620620Y-100507800D01*
X38669077Y-101788779D01*
X38661393Y-101793377D01*
X38652708Y-101791194D01*
X38650526Y-101789083D01*
X37631805Y-100507635D01*
X37629341Y-100499027D01*
X37632155Y-100492657D01*
X38496504Y-99503999D01*
X38504529Y-99500026D01*
X38505312Y-99500000D01*
X38694890Y-99500000D01*
X38703163Y-99503427D01*
G37*
G04 #@! TD.AperFunction*
G04 #@! TA.AperFunction,Conductor*
G36*
X38703163Y-42503427D02*
G01*
X38703473Y-42503749D01*
X38792064Y-42599377D01*
X38795081Y-42605801D01*
X38814955Y-42756759D01*
X38814958Y-42756768D01*
X38875459Y-42902832D01*
X38875463Y-42902838D01*
X38875464Y-42902841D01*
X38971718Y-43028282D01*
X39097159Y-43124536D01*
X39097163Y-43124537D01*
X39097167Y-43124540D01*
X39224573Y-43177312D01*
X39243238Y-43185044D01*
X39343147Y-43198197D01*
X39350199Y-43201844D01*
X39619811Y-43492872D01*
X39622919Y-43501270D01*
X39620620Y-43507800D01*
X38669077Y-44788779D01*
X38661393Y-44793377D01*
X38652708Y-44791194D01*
X38650526Y-44789083D01*
X37631805Y-43507635D01*
X37629341Y-43499027D01*
X37632155Y-43492657D01*
X38496504Y-42503999D01*
X38504529Y-42500026D01*
X38505312Y-42500000D01*
X38694890Y-42500000D01*
X38703163Y-42503427D01*
G37*
G04 #@! TD.AperFunction*
G04 #@! TA.AperFunction,Conductor*
G36*
X38702058Y-81997765D02*
G01*
X40250060Y-82604018D01*
X40256512Y-82610224D01*
X40257361Y-82616655D01*
X40249500Y-82668807D01*
X40249500Y-82931192D01*
X40288602Y-83190607D01*
X40288604Y-83190615D01*
X40365937Y-83441323D01*
X40365939Y-83441328D01*
X40365941Y-83441332D01*
X40479770Y-83677701D01*
X40479772Y-83677704D01*
X40627567Y-83894479D01*
X40790974Y-84070590D01*
X40806018Y-84086804D01*
X40850852Y-84122558D01*
X40855141Y-84130058D01*
X40907565Y-84498872D01*
X40905336Y-84507546D01*
X40897628Y-84512103D01*
X40893197Y-84511883D01*
X40875496Y-84507546D01*
X39166390Y-84088786D01*
X39159171Y-84083490D01*
X39158020Y-84080950D01*
X38693638Y-82610224D01*
X38504807Y-82012182D01*
X38505584Y-82003261D01*
X38512441Y-81997502D01*
X38515964Y-81996959D01*
X38697791Y-81996959D01*
X38702058Y-81997765D01*
G37*
G04 #@! TD.AperFunction*
G04 #@! TA.AperFunction,Conductor*
G36*
X53851874Y-43537835D02*
G01*
X53859479Y-43542563D01*
X53861609Y-43548200D01*
X53991582Y-44831129D01*
X53989007Y-44839705D01*
X53984167Y-44843219D01*
X52048389Y-45592742D01*
X52039436Y-45592533D01*
X52035891Y-45590104D01*
X51869872Y-45424085D01*
X51866445Y-45415812D01*
X51867218Y-45411631D01*
X52151579Y-44668971D01*
X52153923Y-44665205D01*
X52182433Y-44634479D01*
X52330228Y-44417704D01*
X52444063Y-44181323D01*
X52521396Y-43930615D01*
X52532683Y-43855731D01*
X52560499Y-43671192D01*
X52560500Y-43671180D01*
X52560500Y-43603162D01*
X52561274Y-43598978D01*
X52584127Y-43539293D01*
X52656587Y-43350050D01*
X52662744Y-43343552D01*
X52669416Y-43342692D01*
X53851874Y-43537835D01*
G37*
G04 #@! TD.AperFunction*
G04 #@! TA.AperFunction,Conductor*
G36*
X50258763Y-54353862D02*
G01*
X50572932Y-54646147D01*
X50704838Y-54778053D01*
X50708265Y-54786326D01*
X50704838Y-54794599D01*
X50703609Y-54795668D01*
X50258444Y-55131296D01*
X50249775Y-55133541D01*
X50246745Y-55132688D01*
X49401189Y-54765970D01*
X49394962Y-54759534D01*
X49395110Y-54750581D01*
X49400910Y-54744627D01*
X50245862Y-54351817D01*
X50254808Y-54351438D01*
X50258763Y-54353862D01*
G37*
G04 #@! TD.AperFunction*
G04 #@! TA.AperFunction,Conductor*
G36*
X53156695Y-71397436D02*
G01*
X53163042Y-71403754D01*
X53163063Y-71403804D01*
X53309121Y-71758734D01*
X53309100Y-71767688D01*
X53302756Y-71774005D01*
X52672737Y-72033426D01*
X52663782Y-72033407D01*
X52660009Y-72030880D01*
X52529619Y-71900490D01*
X52526192Y-71892217D01*
X52527072Y-71887766D01*
X52786494Y-71257742D01*
X52792813Y-71251398D01*
X52801764Y-71251378D01*
X53156695Y-71397436D01*
G37*
G04 #@! TD.AperFunction*
G04 #@! TA.AperFunction,Conductor*
G36*
X53851874Y-62537835D02*
G01*
X53859479Y-62542563D01*
X53861609Y-62548200D01*
X53991582Y-63831129D01*
X53989007Y-63839705D01*
X53984167Y-63843219D01*
X52048389Y-64592742D01*
X52039436Y-64592533D01*
X52035891Y-64590104D01*
X51869872Y-64424085D01*
X51866445Y-64415812D01*
X51867218Y-64411631D01*
X52151579Y-63668971D01*
X52153923Y-63665205D01*
X52182433Y-63634479D01*
X52330228Y-63417704D01*
X52444063Y-63181323D01*
X52521396Y-62930615D01*
X52532683Y-62855731D01*
X52560499Y-62671192D01*
X52560500Y-62671180D01*
X52560500Y-62603162D01*
X52561274Y-62598978D01*
X52584127Y-62539293D01*
X52656587Y-62350050D01*
X52662744Y-62343552D01*
X52669416Y-62342692D01*
X53851874Y-62537835D01*
G37*
G04 #@! TD.AperFunction*
G04 #@! TA.AperFunction,Conductor*
G36*
X39503004Y-53453427D02*
G01*
X39503492Y-53453945D01*
X39896389Y-53897791D01*
X39899306Y-53906257D01*
X39896300Y-53913400D01*
X39507482Y-54342737D01*
X39499389Y-54346569D01*
X39491385Y-54343925D01*
X39009666Y-53948328D01*
X39005447Y-53940429D01*
X39007085Y-53933222D01*
X39296584Y-53455634D01*
X39303803Y-53450337D01*
X39306589Y-53450000D01*
X39494731Y-53450000D01*
X39503004Y-53453427D01*
G37*
G04 #@! TD.AperFunction*
G04 #@! TA.AperFunction,Conductor*
G36*
X49387290Y-37259609D02*
G01*
X49387315Y-37259628D01*
X49902596Y-37653939D01*
X49907084Y-37661689D01*
X49905876Y-37668610D01*
X49703272Y-38059979D01*
X49696426Y-38065750D01*
X49692882Y-38066300D01*
X49504638Y-38066300D01*
X49496622Y-38063123D01*
X49492461Y-38059210D01*
X49075564Y-37667120D01*
X49071886Y-37658958D01*
X49074270Y-37651514D01*
X49370896Y-37261832D01*
X49378633Y-37257326D01*
X49387290Y-37259609D01*
G37*
G04 #@! TD.AperFunction*
M02*
