%TF.GenerationSoftware,KiCad,Pcbnew,7.0.8*%
%TF.CreationDate,2023-10-16T23:50:12-07:00*%
%TF.ProjectId,Seismos_4-Key,53656973-6d6f-4735-9f34-2d4b65792e6b,rev?*%
%TF.SameCoordinates,Original*%
%TF.FileFunction,Drillmap*%
%TF.FilePolarity,Positive*%
%FSLAX45Y45*%
G04 Gerber Fmt 4.5, Leading zero omitted, Abs format (unit mm)*
G04 Created by KiCad (PCBNEW 7.0.8) date 2023-10-16 23:50:12*
%MOMM*%
%LPD*%
G01*
G04 APERTURE LIST*
%ADD10C,0.100000*%
%ADD11C,0.200000*%
%ADD12C,0.230000*%
%ADD13C,0.300000*%
%ADD14C,0.400000*%
G04 APERTURE END LIST*
D10*
X3750000Y-10993934D02*
X3750000Y-3100000D01*
X5500000Y-11143934D02*
X3900000Y-11143934D01*
X3749996Y-10993934D02*
G75*
G03*
X3900000Y-11143934I150004J4D01*
G01*
X4030000Y-2500000D02*
X4030000Y-3100000D01*
X3750000Y-3100000D02*
X4030000Y-3100000D01*
X5500000Y-10850000D02*
G75*
G03*
X5500000Y-10850000I-150000J0D01*
G01*
X5650000Y-3100000D02*
X5370000Y-3100000D01*
X5500000Y-11143930D02*
G75*
G03*
X5650000Y-10993934I0J150000D01*
G01*
X5650000Y-3100000D02*
X5650000Y-10993934D01*
X5370000Y-3100000D02*
X5370000Y-2500000D01*
X4200000Y-10850000D02*
G75*
G03*
X4200000Y-10850000I-150000J0D01*
G01*
X4030000Y-2500000D02*
X5370000Y-2500000D01*
D11*
D10*
X4128000Y-3688420D02*
X4228000Y-3788420D01*
X4228000Y-3688420D02*
X4128000Y-3788420D01*
X4128000Y-5588420D02*
X4228000Y-5688420D01*
X4228000Y-5588420D02*
X4128000Y-5688420D01*
X4128000Y-7488420D02*
X4228000Y-7588420D01*
X4228000Y-7488420D02*
X4128000Y-7588420D01*
X4128000Y-9388420D02*
X4228000Y-9488420D01*
X4228000Y-9388420D02*
X4128000Y-9488420D01*
X5172000Y-3688420D02*
X5272000Y-3788420D01*
X5272000Y-3688420D02*
X5172000Y-3788420D01*
X5172000Y-5588420D02*
X5272000Y-5688420D01*
X5272000Y-5588420D02*
X5172000Y-5688420D01*
X5172000Y-7488420D02*
X5272000Y-7588420D01*
X5272000Y-7488420D02*
X5172000Y-7588420D01*
X5172000Y-9388420D02*
X5272000Y-9488420D01*
X5272000Y-9388420D02*
X5172000Y-9488420D01*
D12*
X4285000Y-4100000D02*
G75*
G03*
X4285000Y-4100000I-115000J0D01*
G01*
X4285000Y-6000000D02*
G75*
G03*
X4285000Y-6000000I-115000J0D01*
G01*
X4285000Y-7900000D02*
G75*
G03*
X4285000Y-7900000I-115000J0D01*
G01*
X4285000Y-9800000D02*
G75*
G03*
X4285000Y-9800000I-115000J0D01*
G01*
X5345000Y-4100000D02*
G75*
G03*
X5345000Y-4100000I-115000J0D01*
G01*
X5345000Y-6000000D02*
G75*
G03*
X5345000Y-6000000I-115000J0D01*
G01*
X5345000Y-7900000D02*
G75*
G03*
X5345000Y-7900000I-115000J0D01*
G01*
X5345000Y-9800000D02*
G75*
G03*
X5345000Y-9800000I-115000J0D01*
G01*
D13*
X4200000Y-4330000D02*
X4200000Y-4630000D01*
X4050000Y-4480000D02*
X4350000Y-4480000D01*
X4200000Y-6230000D02*
X4200000Y-6530000D01*
X4050000Y-6380000D02*
X4350000Y-6380000D01*
X4200000Y-8130000D02*
X4200000Y-8430000D01*
X4050000Y-8280000D02*
X4350000Y-8280000D01*
X4200000Y-10030000D02*
X4200000Y-10330000D01*
X4050000Y-10180000D02*
X4350000Y-10180000D01*
X4446000Y-4458000D02*
X4446000Y-4758000D01*
X4296000Y-4608000D02*
X4596000Y-4608000D01*
X4446000Y-6358000D02*
X4446000Y-6658000D01*
X4296000Y-6508000D02*
X4596000Y-6508000D01*
X4446000Y-8258000D02*
X4446000Y-8558000D01*
X4296000Y-8408000D02*
X4596000Y-8408000D01*
X4446000Y-10158000D02*
X4446000Y-10458000D01*
X4296000Y-10308000D02*
X4596000Y-10308000D01*
X4700000Y-4540000D02*
X4700000Y-4840000D01*
X4550000Y-4690000D02*
X4850000Y-4690000D01*
X4700000Y-6440000D02*
X4700000Y-6740000D01*
X4550000Y-6590000D02*
X4850000Y-6590000D01*
X4700000Y-8340000D02*
X4700000Y-8640000D01*
X4550000Y-8490000D02*
X4850000Y-8490000D01*
X4700000Y-10240000D02*
X4700000Y-10540000D01*
X4550000Y-10390000D02*
X4850000Y-10390000D01*
X5081000Y-4204000D02*
X5081000Y-4504000D01*
X4931000Y-4354000D02*
X5231000Y-4354000D01*
X5081000Y-6104000D02*
X5081000Y-6404000D01*
X4931000Y-6254000D02*
X5231000Y-6254000D01*
X5081000Y-8004000D02*
X5081000Y-8304000D01*
X4931000Y-8154000D02*
X5231000Y-8154000D01*
X5081000Y-9904000D02*
X5081000Y-10204000D01*
X4931000Y-10054000D02*
X5231000Y-10054000D01*
D14*
X4841423Y-4241423D02*
X4841423Y-3958577D01*
X4558577Y-3958577D01*
X4558577Y-4241423D01*
X4841423Y-4241423D01*
X4841423Y-6141423D02*
X4841423Y-5858577D01*
X4558577Y-5858577D01*
X4558577Y-6141423D01*
X4841423Y-6141423D01*
X4841423Y-8041423D02*
X4841423Y-7758577D01*
X4558577Y-7758577D01*
X4558577Y-8041423D01*
X4841423Y-8041423D01*
X4841423Y-9941423D02*
X4841423Y-9658577D01*
X4558577Y-9658577D01*
X4558577Y-9941423D01*
X4841423Y-9941423D01*
D11*
X4005777Y-11460418D02*
X4005777Y-11260418D01*
X4005777Y-11260418D02*
X4053396Y-11260418D01*
X4053396Y-11260418D02*
X4081967Y-11269942D01*
X4081967Y-11269942D02*
X4101015Y-11288989D01*
X4101015Y-11288989D02*
X4110539Y-11308037D01*
X4110539Y-11308037D02*
X4120062Y-11346132D01*
X4120062Y-11346132D02*
X4120062Y-11374703D01*
X4120062Y-11374703D02*
X4110539Y-11412799D01*
X4110539Y-11412799D02*
X4101015Y-11431846D01*
X4101015Y-11431846D02*
X4081967Y-11450894D01*
X4081967Y-11450894D02*
X4053396Y-11460418D01*
X4053396Y-11460418D02*
X4005777Y-11460418D01*
X4205777Y-11460418D02*
X4205777Y-11327084D01*
X4205777Y-11365180D02*
X4215301Y-11346132D01*
X4215301Y-11346132D02*
X4224824Y-11336608D01*
X4224824Y-11336608D02*
X4243872Y-11327084D01*
X4243872Y-11327084D02*
X4262920Y-11327084D01*
X4329586Y-11460418D02*
X4329586Y-11327084D01*
X4329586Y-11260418D02*
X4320063Y-11269942D01*
X4320063Y-11269942D02*
X4329586Y-11279465D01*
X4329586Y-11279465D02*
X4339110Y-11269942D01*
X4339110Y-11269942D02*
X4329586Y-11260418D01*
X4329586Y-11260418D02*
X4329586Y-11279465D01*
X4453396Y-11460418D02*
X4434348Y-11450894D01*
X4434348Y-11450894D02*
X4424824Y-11431846D01*
X4424824Y-11431846D02*
X4424824Y-11260418D01*
X4558158Y-11460418D02*
X4539110Y-11450894D01*
X4539110Y-11450894D02*
X4529586Y-11431846D01*
X4529586Y-11431846D02*
X4529586Y-11260418D01*
X4786729Y-11460418D02*
X4786729Y-11260418D01*
X4786729Y-11260418D02*
X4853396Y-11403275D01*
X4853396Y-11403275D02*
X4920063Y-11260418D01*
X4920063Y-11260418D02*
X4920063Y-11460418D01*
X5101015Y-11460418D02*
X5101015Y-11355656D01*
X5101015Y-11355656D02*
X5091491Y-11336608D01*
X5091491Y-11336608D02*
X5072444Y-11327084D01*
X5072444Y-11327084D02*
X5034348Y-11327084D01*
X5034348Y-11327084D02*
X5015301Y-11336608D01*
X5101015Y-11450894D02*
X5081967Y-11460418D01*
X5081967Y-11460418D02*
X5034348Y-11460418D01*
X5034348Y-11460418D02*
X5015301Y-11450894D01*
X5015301Y-11450894D02*
X5005777Y-11431846D01*
X5005777Y-11431846D02*
X5005777Y-11412799D01*
X5005777Y-11412799D02*
X5015301Y-11393751D01*
X5015301Y-11393751D02*
X5034348Y-11384227D01*
X5034348Y-11384227D02*
X5081967Y-11384227D01*
X5081967Y-11384227D02*
X5101015Y-11374703D01*
X5196253Y-11327084D02*
X5196253Y-11527084D01*
X5196253Y-11336608D02*
X5215301Y-11327084D01*
X5215301Y-11327084D02*
X5253396Y-11327084D01*
X5253396Y-11327084D02*
X5272444Y-11336608D01*
X5272444Y-11336608D02*
X5281967Y-11346132D01*
X5281967Y-11346132D02*
X5291491Y-11365180D01*
X5291491Y-11365180D02*
X5291491Y-11422322D01*
X5291491Y-11422322D02*
X5281967Y-11441370D01*
X5281967Y-11441370D02*
X5272444Y-11450894D01*
X5272444Y-11450894D02*
X5253396Y-11460418D01*
X5253396Y-11460418D02*
X5215301Y-11460418D01*
X5215301Y-11460418D02*
X5196253Y-11450894D01*
X5377205Y-11441370D02*
X5386729Y-11450894D01*
X5386729Y-11450894D02*
X5377205Y-11460418D01*
X5377205Y-11460418D02*
X5367682Y-11450894D01*
X5367682Y-11450894D02*
X5377205Y-11441370D01*
X5377205Y-11441370D02*
X5377205Y-11460418D01*
X5377205Y-11336608D02*
X5386729Y-11346132D01*
X5386729Y-11346132D02*
X5377205Y-11355656D01*
X5377205Y-11355656D02*
X5367682Y-11346132D01*
X5367682Y-11346132D02*
X5377205Y-11336608D01*
X5377205Y-11336608D02*
X5377205Y-11355656D01*
D10*
X3645000Y-11738934D02*
X3745000Y-11838934D01*
X3745000Y-11738934D02*
X3645000Y-11838934D01*
D11*
X4110539Y-11880418D02*
X3996253Y-11880418D01*
X4053396Y-11880418D02*
X4053396Y-11680418D01*
X4053396Y-11680418D02*
X4034348Y-11708989D01*
X4034348Y-11708989D02*
X4015301Y-11728037D01*
X4015301Y-11728037D02*
X3996253Y-11737561D01*
X4196253Y-11861370D02*
X4205777Y-11870894D01*
X4205777Y-11870894D02*
X4196253Y-11880418D01*
X4196253Y-11880418D02*
X4186729Y-11870894D01*
X4186729Y-11870894D02*
X4196253Y-11861370D01*
X4196253Y-11861370D02*
X4196253Y-11880418D01*
X4329586Y-11680418D02*
X4348634Y-11680418D01*
X4348634Y-11680418D02*
X4367682Y-11689942D01*
X4367682Y-11689942D02*
X4377205Y-11699465D01*
X4377205Y-11699465D02*
X4386729Y-11718513D01*
X4386729Y-11718513D02*
X4396253Y-11756608D01*
X4396253Y-11756608D02*
X4396253Y-11804227D01*
X4396253Y-11804227D02*
X4386729Y-11842322D01*
X4386729Y-11842322D02*
X4377205Y-11861370D01*
X4377205Y-11861370D02*
X4367682Y-11870894D01*
X4367682Y-11870894D02*
X4348634Y-11880418D01*
X4348634Y-11880418D02*
X4329586Y-11880418D01*
X4329586Y-11880418D02*
X4310539Y-11870894D01*
X4310539Y-11870894D02*
X4301015Y-11861370D01*
X4301015Y-11861370D02*
X4291491Y-11842322D01*
X4291491Y-11842322D02*
X4281967Y-11804227D01*
X4281967Y-11804227D02*
X4281967Y-11756608D01*
X4281967Y-11756608D02*
X4291491Y-11718513D01*
X4291491Y-11718513D02*
X4301015Y-11699465D01*
X4301015Y-11699465D02*
X4310539Y-11689942D01*
X4310539Y-11689942D02*
X4329586Y-11680418D01*
X4520063Y-11680418D02*
X4539110Y-11680418D01*
X4539110Y-11680418D02*
X4558158Y-11689942D01*
X4558158Y-11689942D02*
X4567682Y-11699465D01*
X4567682Y-11699465D02*
X4577205Y-11718513D01*
X4577205Y-11718513D02*
X4586729Y-11756608D01*
X4586729Y-11756608D02*
X4586729Y-11804227D01*
X4586729Y-11804227D02*
X4577205Y-11842322D01*
X4577205Y-11842322D02*
X4567682Y-11861370D01*
X4567682Y-11861370D02*
X4558158Y-11870894D01*
X4558158Y-11870894D02*
X4539110Y-11880418D01*
X4539110Y-11880418D02*
X4520063Y-11880418D01*
X4520063Y-11880418D02*
X4501015Y-11870894D01*
X4501015Y-11870894D02*
X4491491Y-11861370D01*
X4491491Y-11861370D02*
X4481967Y-11842322D01*
X4481967Y-11842322D02*
X4472444Y-11804227D01*
X4472444Y-11804227D02*
X4472444Y-11756608D01*
X4472444Y-11756608D02*
X4481967Y-11718513D01*
X4481967Y-11718513D02*
X4491491Y-11699465D01*
X4491491Y-11699465D02*
X4501015Y-11689942D01*
X4501015Y-11689942D02*
X4520063Y-11680418D01*
X4710539Y-11680418D02*
X4729586Y-11680418D01*
X4729586Y-11680418D02*
X4748634Y-11689942D01*
X4748634Y-11689942D02*
X4758158Y-11699465D01*
X4758158Y-11699465D02*
X4767682Y-11718513D01*
X4767682Y-11718513D02*
X4777205Y-11756608D01*
X4777205Y-11756608D02*
X4777205Y-11804227D01*
X4777205Y-11804227D02*
X4767682Y-11842322D01*
X4767682Y-11842322D02*
X4758158Y-11861370D01*
X4758158Y-11861370D02*
X4748634Y-11870894D01*
X4748634Y-11870894D02*
X4729586Y-11880418D01*
X4729586Y-11880418D02*
X4710539Y-11880418D01*
X4710539Y-11880418D02*
X4691491Y-11870894D01*
X4691491Y-11870894D02*
X4681967Y-11861370D01*
X4681967Y-11861370D02*
X4672444Y-11842322D01*
X4672444Y-11842322D02*
X4662920Y-11804227D01*
X4662920Y-11804227D02*
X4662920Y-11756608D01*
X4662920Y-11756608D02*
X4672444Y-11718513D01*
X4672444Y-11718513D02*
X4681967Y-11699465D01*
X4681967Y-11699465D02*
X4691491Y-11689942D01*
X4691491Y-11689942D02*
X4710539Y-11680418D01*
X4862920Y-11880418D02*
X4862920Y-11747084D01*
X4862920Y-11766132D02*
X4872444Y-11756608D01*
X4872444Y-11756608D02*
X4891491Y-11747084D01*
X4891491Y-11747084D02*
X4920063Y-11747084D01*
X4920063Y-11747084D02*
X4939110Y-11756608D01*
X4939110Y-11756608D02*
X4948634Y-11775656D01*
X4948634Y-11775656D02*
X4948634Y-11880418D01*
X4948634Y-11775656D02*
X4958158Y-11756608D01*
X4958158Y-11756608D02*
X4977205Y-11747084D01*
X4977205Y-11747084D02*
X5005777Y-11747084D01*
X5005777Y-11747084D02*
X5024825Y-11756608D01*
X5024825Y-11756608D02*
X5034348Y-11775656D01*
X5034348Y-11775656D02*
X5034348Y-11880418D01*
X5129586Y-11880418D02*
X5129586Y-11747084D01*
X5129586Y-11766132D02*
X5139110Y-11756608D01*
X5139110Y-11756608D02*
X5158158Y-11747084D01*
X5158158Y-11747084D02*
X5186729Y-11747084D01*
X5186729Y-11747084D02*
X5205777Y-11756608D01*
X5205777Y-11756608D02*
X5215301Y-11775656D01*
X5215301Y-11775656D02*
X5215301Y-11880418D01*
X5215301Y-11775656D02*
X5224825Y-11756608D01*
X5224825Y-11756608D02*
X5243872Y-11747084D01*
X5243872Y-11747084D02*
X5272444Y-11747084D01*
X5272444Y-11747084D02*
X5291491Y-11756608D01*
X5291491Y-11756608D02*
X5301015Y-11775656D01*
X5301015Y-11775656D02*
X5301015Y-11880418D01*
X5691491Y-11670894D02*
X5520063Y-11928037D01*
X5948634Y-11680418D02*
X5967682Y-11680418D01*
X5967682Y-11680418D02*
X5986729Y-11689942D01*
X5986729Y-11689942D02*
X5996253Y-11699465D01*
X5996253Y-11699465D02*
X6005777Y-11718513D01*
X6005777Y-11718513D02*
X6015301Y-11756608D01*
X6015301Y-11756608D02*
X6015301Y-11804227D01*
X6015301Y-11804227D02*
X6005777Y-11842322D01*
X6005777Y-11842322D02*
X5996253Y-11861370D01*
X5996253Y-11861370D02*
X5986729Y-11870894D01*
X5986729Y-11870894D02*
X5967682Y-11880418D01*
X5967682Y-11880418D02*
X5948634Y-11880418D01*
X5948634Y-11880418D02*
X5929586Y-11870894D01*
X5929586Y-11870894D02*
X5920063Y-11861370D01*
X5920063Y-11861370D02*
X5910539Y-11842322D01*
X5910539Y-11842322D02*
X5901015Y-11804227D01*
X5901015Y-11804227D02*
X5901015Y-11756608D01*
X5901015Y-11756608D02*
X5910539Y-11718513D01*
X5910539Y-11718513D02*
X5920063Y-11699465D01*
X5920063Y-11699465D02*
X5929586Y-11689942D01*
X5929586Y-11689942D02*
X5948634Y-11680418D01*
X6101015Y-11861370D02*
X6110539Y-11870894D01*
X6110539Y-11870894D02*
X6101015Y-11880418D01*
X6101015Y-11880418D02*
X6091491Y-11870894D01*
X6091491Y-11870894D02*
X6101015Y-11861370D01*
X6101015Y-11861370D02*
X6101015Y-11880418D01*
X6234348Y-11680418D02*
X6253396Y-11680418D01*
X6253396Y-11680418D02*
X6272444Y-11689942D01*
X6272444Y-11689942D02*
X6281967Y-11699465D01*
X6281967Y-11699465D02*
X6291491Y-11718513D01*
X6291491Y-11718513D02*
X6301015Y-11756608D01*
X6301015Y-11756608D02*
X6301015Y-11804227D01*
X6301015Y-11804227D02*
X6291491Y-11842322D01*
X6291491Y-11842322D02*
X6281967Y-11861370D01*
X6281967Y-11861370D02*
X6272444Y-11870894D01*
X6272444Y-11870894D02*
X6253396Y-11880418D01*
X6253396Y-11880418D02*
X6234348Y-11880418D01*
X6234348Y-11880418D02*
X6215301Y-11870894D01*
X6215301Y-11870894D02*
X6205777Y-11861370D01*
X6205777Y-11861370D02*
X6196253Y-11842322D01*
X6196253Y-11842322D02*
X6186729Y-11804227D01*
X6186729Y-11804227D02*
X6186729Y-11756608D01*
X6186729Y-11756608D02*
X6196253Y-11718513D01*
X6196253Y-11718513D02*
X6205777Y-11699465D01*
X6205777Y-11699465D02*
X6215301Y-11689942D01*
X6215301Y-11689942D02*
X6234348Y-11680418D01*
X6367682Y-11680418D02*
X6491491Y-11680418D01*
X6491491Y-11680418D02*
X6424825Y-11756608D01*
X6424825Y-11756608D02*
X6453396Y-11756608D01*
X6453396Y-11756608D02*
X6472444Y-11766132D01*
X6472444Y-11766132D02*
X6481967Y-11775656D01*
X6481967Y-11775656D02*
X6491491Y-11794703D01*
X6491491Y-11794703D02*
X6491491Y-11842322D01*
X6491491Y-11842322D02*
X6481967Y-11861370D01*
X6481967Y-11861370D02*
X6472444Y-11870894D01*
X6472444Y-11870894D02*
X6453396Y-11880418D01*
X6453396Y-11880418D02*
X6396253Y-11880418D01*
X6396253Y-11880418D02*
X6377206Y-11870894D01*
X6377206Y-11870894D02*
X6367682Y-11861370D01*
X6586729Y-11880418D02*
X6624825Y-11880418D01*
X6624825Y-11880418D02*
X6643872Y-11870894D01*
X6643872Y-11870894D02*
X6653396Y-11861370D01*
X6653396Y-11861370D02*
X6672444Y-11832799D01*
X6672444Y-11832799D02*
X6681967Y-11794703D01*
X6681967Y-11794703D02*
X6681967Y-11718513D01*
X6681967Y-11718513D02*
X6672444Y-11699465D01*
X6672444Y-11699465D02*
X6662920Y-11689942D01*
X6662920Y-11689942D02*
X6643872Y-11680418D01*
X6643872Y-11680418D02*
X6605777Y-11680418D01*
X6605777Y-11680418D02*
X6586729Y-11689942D01*
X6586729Y-11689942D02*
X6577206Y-11699465D01*
X6577206Y-11699465D02*
X6567682Y-11718513D01*
X6567682Y-11718513D02*
X6567682Y-11766132D01*
X6567682Y-11766132D02*
X6577206Y-11785180D01*
X6577206Y-11785180D02*
X6586729Y-11794703D01*
X6586729Y-11794703D02*
X6605777Y-11804227D01*
X6605777Y-11804227D02*
X6643872Y-11804227D01*
X6643872Y-11804227D02*
X6662920Y-11794703D01*
X6662920Y-11794703D02*
X6672444Y-11785180D01*
X6672444Y-11785180D02*
X6681967Y-11766132D01*
X6853396Y-11747084D02*
X6853396Y-11880418D01*
X6805777Y-11670894D02*
X6758158Y-11813751D01*
X6758158Y-11813751D02*
X6881967Y-11813751D01*
X6948634Y-11680418D02*
X6948634Y-11718513D01*
X7024825Y-11680418D02*
X7024825Y-11718513D01*
X7320063Y-11956608D02*
X7310539Y-11947084D01*
X7310539Y-11947084D02*
X7291491Y-11918513D01*
X7291491Y-11918513D02*
X7281968Y-11899465D01*
X7281968Y-11899465D02*
X7272444Y-11870894D01*
X7272444Y-11870894D02*
X7262920Y-11823275D01*
X7262920Y-11823275D02*
X7262920Y-11785180D01*
X7262920Y-11785180D02*
X7272444Y-11737561D01*
X7272444Y-11737561D02*
X7281968Y-11708989D01*
X7281968Y-11708989D02*
X7291491Y-11689942D01*
X7291491Y-11689942D02*
X7310539Y-11661370D01*
X7310539Y-11661370D02*
X7320063Y-11651846D01*
X7424825Y-11766132D02*
X7405777Y-11756608D01*
X7405777Y-11756608D02*
X7396253Y-11747084D01*
X7396253Y-11747084D02*
X7386729Y-11728037D01*
X7386729Y-11728037D02*
X7386729Y-11718513D01*
X7386729Y-11718513D02*
X7396253Y-11699465D01*
X7396253Y-11699465D02*
X7405777Y-11689942D01*
X7405777Y-11689942D02*
X7424825Y-11680418D01*
X7424825Y-11680418D02*
X7462920Y-11680418D01*
X7462920Y-11680418D02*
X7481968Y-11689942D01*
X7481968Y-11689942D02*
X7491491Y-11699465D01*
X7491491Y-11699465D02*
X7501015Y-11718513D01*
X7501015Y-11718513D02*
X7501015Y-11728037D01*
X7501015Y-11728037D02*
X7491491Y-11747084D01*
X7491491Y-11747084D02*
X7481968Y-11756608D01*
X7481968Y-11756608D02*
X7462920Y-11766132D01*
X7462920Y-11766132D02*
X7424825Y-11766132D01*
X7424825Y-11766132D02*
X7405777Y-11775656D01*
X7405777Y-11775656D02*
X7396253Y-11785180D01*
X7396253Y-11785180D02*
X7386729Y-11804227D01*
X7386729Y-11804227D02*
X7386729Y-11842322D01*
X7386729Y-11842322D02*
X7396253Y-11861370D01*
X7396253Y-11861370D02*
X7405777Y-11870894D01*
X7405777Y-11870894D02*
X7424825Y-11880418D01*
X7424825Y-11880418D02*
X7462920Y-11880418D01*
X7462920Y-11880418D02*
X7481968Y-11870894D01*
X7481968Y-11870894D02*
X7491491Y-11861370D01*
X7491491Y-11861370D02*
X7501015Y-11842322D01*
X7501015Y-11842322D02*
X7501015Y-11804227D01*
X7501015Y-11804227D02*
X7491491Y-11785180D01*
X7491491Y-11785180D02*
X7481968Y-11775656D01*
X7481968Y-11775656D02*
X7462920Y-11766132D01*
X7739110Y-11880418D02*
X7739110Y-11680418D01*
X7824825Y-11880418D02*
X7824825Y-11775656D01*
X7824825Y-11775656D02*
X7815301Y-11756608D01*
X7815301Y-11756608D02*
X7796253Y-11747084D01*
X7796253Y-11747084D02*
X7767682Y-11747084D01*
X7767682Y-11747084D02*
X7748634Y-11756608D01*
X7748634Y-11756608D02*
X7739110Y-11766132D01*
X7948634Y-11880418D02*
X7929587Y-11870894D01*
X7929587Y-11870894D02*
X7920063Y-11861370D01*
X7920063Y-11861370D02*
X7910539Y-11842322D01*
X7910539Y-11842322D02*
X7910539Y-11785180D01*
X7910539Y-11785180D02*
X7920063Y-11766132D01*
X7920063Y-11766132D02*
X7929587Y-11756608D01*
X7929587Y-11756608D02*
X7948634Y-11747084D01*
X7948634Y-11747084D02*
X7977206Y-11747084D01*
X7977206Y-11747084D02*
X7996253Y-11756608D01*
X7996253Y-11756608D02*
X8005777Y-11766132D01*
X8005777Y-11766132D02*
X8015301Y-11785180D01*
X8015301Y-11785180D02*
X8015301Y-11842322D01*
X8015301Y-11842322D02*
X8005777Y-11861370D01*
X8005777Y-11861370D02*
X7996253Y-11870894D01*
X7996253Y-11870894D02*
X7977206Y-11880418D01*
X7977206Y-11880418D02*
X7948634Y-11880418D01*
X8129587Y-11880418D02*
X8110539Y-11870894D01*
X8110539Y-11870894D02*
X8101015Y-11851846D01*
X8101015Y-11851846D02*
X8101015Y-11680418D01*
X8281968Y-11870894D02*
X8262920Y-11880418D01*
X8262920Y-11880418D02*
X8224825Y-11880418D01*
X8224825Y-11880418D02*
X8205777Y-11870894D01*
X8205777Y-11870894D02*
X8196253Y-11851846D01*
X8196253Y-11851846D02*
X8196253Y-11775656D01*
X8196253Y-11775656D02*
X8205777Y-11756608D01*
X8205777Y-11756608D02*
X8224825Y-11747084D01*
X8224825Y-11747084D02*
X8262920Y-11747084D01*
X8262920Y-11747084D02*
X8281968Y-11756608D01*
X8281968Y-11756608D02*
X8291491Y-11775656D01*
X8291491Y-11775656D02*
X8291491Y-11794703D01*
X8291491Y-11794703D02*
X8196253Y-11813751D01*
X8367682Y-11870894D02*
X8386730Y-11880418D01*
X8386730Y-11880418D02*
X8424825Y-11880418D01*
X8424825Y-11880418D02*
X8443873Y-11870894D01*
X8443873Y-11870894D02*
X8453396Y-11851846D01*
X8453396Y-11851846D02*
X8453396Y-11842322D01*
X8453396Y-11842322D02*
X8443873Y-11823275D01*
X8443873Y-11823275D02*
X8424825Y-11813751D01*
X8424825Y-11813751D02*
X8396253Y-11813751D01*
X8396253Y-11813751D02*
X8377206Y-11804227D01*
X8377206Y-11804227D02*
X8367682Y-11785180D01*
X8367682Y-11785180D02*
X8367682Y-11775656D01*
X8367682Y-11775656D02*
X8377206Y-11756608D01*
X8377206Y-11756608D02*
X8396253Y-11747084D01*
X8396253Y-11747084D02*
X8424825Y-11747084D01*
X8424825Y-11747084D02*
X8443873Y-11756608D01*
X8520063Y-11956608D02*
X8529587Y-11947084D01*
X8529587Y-11947084D02*
X8548634Y-11918513D01*
X8548634Y-11918513D02*
X8558158Y-11899465D01*
X8558158Y-11899465D02*
X8567682Y-11870894D01*
X8567682Y-11870894D02*
X8577206Y-11823275D01*
X8577206Y-11823275D02*
X8577206Y-11785180D01*
X8577206Y-11785180D02*
X8567682Y-11737561D01*
X8567682Y-11737561D02*
X8558158Y-11708989D01*
X8558158Y-11708989D02*
X8548634Y-11689942D01*
X8548634Y-11689942D02*
X8529587Y-11661370D01*
X8529587Y-11661370D02*
X8520063Y-11651846D01*
X8881968Y-11956608D02*
X8872444Y-11947084D01*
X8872444Y-11947084D02*
X8853396Y-11918513D01*
X8853396Y-11918513D02*
X8843873Y-11899465D01*
X8843873Y-11899465D02*
X8834349Y-11870894D01*
X8834349Y-11870894D02*
X8824825Y-11823275D01*
X8824825Y-11823275D02*
X8824825Y-11785180D01*
X8824825Y-11785180D02*
X8834349Y-11737561D01*
X8834349Y-11737561D02*
X8843873Y-11708989D01*
X8843873Y-11708989D02*
X8853396Y-11689942D01*
X8853396Y-11689942D02*
X8872444Y-11661370D01*
X8872444Y-11661370D02*
X8881968Y-11651846D01*
X8958158Y-11747084D02*
X8958158Y-11880418D01*
X8958158Y-11766132D02*
X8967682Y-11756608D01*
X8967682Y-11756608D02*
X8986730Y-11747084D01*
X8986730Y-11747084D02*
X9015301Y-11747084D01*
X9015301Y-11747084D02*
X9034349Y-11756608D01*
X9034349Y-11756608D02*
X9043873Y-11775656D01*
X9043873Y-11775656D02*
X9043873Y-11880418D01*
X9167682Y-11880418D02*
X9148634Y-11870894D01*
X9148634Y-11870894D02*
X9139111Y-11861370D01*
X9139111Y-11861370D02*
X9129587Y-11842322D01*
X9129587Y-11842322D02*
X9129587Y-11785180D01*
X9129587Y-11785180D02*
X9139111Y-11766132D01*
X9139111Y-11766132D02*
X9148634Y-11756608D01*
X9148634Y-11756608D02*
X9167682Y-11747084D01*
X9167682Y-11747084D02*
X9196254Y-11747084D01*
X9196254Y-11747084D02*
X9215301Y-11756608D01*
X9215301Y-11756608D02*
X9224825Y-11766132D01*
X9224825Y-11766132D02*
X9234349Y-11785180D01*
X9234349Y-11785180D02*
X9234349Y-11842322D01*
X9234349Y-11842322D02*
X9224825Y-11861370D01*
X9224825Y-11861370D02*
X9215301Y-11870894D01*
X9215301Y-11870894D02*
X9196254Y-11880418D01*
X9196254Y-11880418D02*
X9167682Y-11880418D01*
X9291492Y-11747084D02*
X9367682Y-11747084D01*
X9320063Y-11680418D02*
X9320063Y-11851846D01*
X9320063Y-11851846D02*
X9329587Y-11870894D01*
X9329587Y-11870894D02*
X9348634Y-11880418D01*
X9348634Y-11880418D02*
X9367682Y-11880418D01*
X9586730Y-11747084D02*
X9586730Y-11947084D01*
X9586730Y-11756608D02*
X9605777Y-11747084D01*
X9605777Y-11747084D02*
X9643873Y-11747084D01*
X9643873Y-11747084D02*
X9662920Y-11756608D01*
X9662920Y-11756608D02*
X9672444Y-11766132D01*
X9672444Y-11766132D02*
X9681968Y-11785180D01*
X9681968Y-11785180D02*
X9681968Y-11842322D01*
X9681968Y-11842322D02*
X9672444Y-11861370D01*
X9672444Y-11861370D02*
X9662920Y-11870894D01*
X9662920Y-11870894D02*
X9643873Y-11880418D01*
X9643873Y-11880418D02*
X9605777Y-11880418D01*
X9605777Y-11880418D02*
X9586730Y-11870894D01*
X9796254Y-11880418D02*
X9777206Y-11870894D01*
X9777206Y-11870894D02*
X9767682Y-11851846D01*
X9767682Y-11851846D02*
X9767682Y-11680418D01*
X9958158Y-11880418D02*
X9958158Y-11775656D01*
X9958158Y-11775656D02*
X9948635Y-11756608D01*
X9948635Y-11756608D02*
X9929587Y-11747084D01*
X9929587Y-11747084D02*
X9891492Y-11747084D01*
X9891492Y-11747084D02*
X9872444Y-11756608D01*
X9958158Y-11870894D02*
X9939111Y-11880418D01*
X9939111Y-11880418D02*
X9891492Y-11880418D01*
X9891492Y-11880418D02*
X9872444Y-11870894D01*
X9872444Y-11870894D02*
X9862920Y-11851846D01*
X9862920Y-11851846D02*
X9862920Y-11832799D01*
X9862920Y-11832799D02*
X9872444Y-11813751D01*
X9872444Y-11813751D02*
X9891492Y-11804227D01*
X9891492Y-11804227D02*
X9939111Y-11804227D01*
X9939111Y-11804227D02*
X9958158Y-11794703D01*
X10024825Y-11747084D02*
X10101015Y-11747084D01*
X10053396Y-11680418D02*
X10053396Y-11851846D01*
X10053396Y-11851846D02*
X10062920Y-11870894D01*
X10062920Y-11870894D02*
X10081968Y-11880418D01*
X10081968Y-11880418D02*
X10101015Y-11880418D01*
X10243873Y-11870894D02*
X10224825Y-11880418D01*
X10224825Y-11880418D02*
X10186730Y-11880418D01*
X10186730Y-11880418D02*
X10167682Y-11870894D01*
X10167682Y-11870894D02*
X10158158Y-11851846D01*
X10158158Y-11851846D02*
X10158158Y-11775656D01*
X10158158Y-11775656D02*
X10167682Y-11756608D01*
X10167682Y-11756608D02*
X10186730Y-11747084D01*
X10186730Y-11747084D02*
X10224825Y-11747084D01*
X10224825Y-11747084D02*
X10243873Y-11756608D01*
X10243873Y-11756608D02*
X10253396Y-11775656D01*
X10253396Y-11775656D02*
X10253396Y-11794703D01*
X10253396Y-11794703D02*
X10158158Y-11813751D01*
X10424825Y-11880418D02*
X10424825Y-11680418D01*
X10424825Y-11870894D02*
X10405777Y-11880418D01*
X10405777Y-11880418D02*
X10367682Y-11880418D01*
X10367682Y-11880418D02*
X10348635Y-11870894D01*
X10348635Y-11870894D02*
X10339111Y-11861370D01*
X10339111Y-11861370D02*
X10329587Y-11842322D01*
X10329587Y-11842322D02*
X10329587Y-11785180D01*
X10329587Y-11785180D02*
X10339111Y-11766132D01*
X10339111Y-11766132D02*
X10348635Y-11756608D01*
X10348635Y-11756608D02*
X10367682Y-11747084D01*
X10367682Y-11747084D02*
X10405777Y-11747084D01*
X10405777Y-11747084D02*
X10424825Y-11756608D01*
X10501016Y-11956608D02*
X10510539Y-11947084D01*
X10510539Y-11947084D02*
X10529587Y-11918513D01*
X10529587Y-11918513D02*
X10539111Y-11899465D01*
X10539111Y-11899465D02*
X10548635Y-11870894D01*
X10548635Y-11870894D02*
X10558158Y-11823275D01*
X10558158Y-11823275D02*
X10558158Y-11785180D01*
X10558158Y-11785180D02*
X10548635Y-11737561D01*
X10548635Y-11737561D02*
X10539111Y-11708989D01*
X10539111Y-11708989D02*
X10529587Y-11689942D01*
X10529587Y-11689942D02*
X10510539Y-11661370D01*
X10510539Y-11661370D02*
X10501016Y-11651846D01*
X3745000Y-12052934D02*
G75*
G03*
X3745000Y-12052934I-100000J0D01*
G01*
X3996253Y-11963465D02*
X4005777Y-11953942D01*
X4005777Y-11953942D02*
X4024824Y-11944418D01*
X4024824Y-11944418D02*
X4072443Y-11944418D01*
X4072443Y-11944418D02*
X4091491Y-11953942D01*
X4091491Y-11953942D02*
X4101015Y-11963465D01*
X4101015Y-11963465D02*
X4110539Y-11982513D01*
X4110539Y-11982513D02*
X4110539Y-12001561D01*
X4110539Y-12001561D02*
X4101015Y-12030132D01*
X4101015Y-12030132D02*
X3986729Y-12144418D01*
X3986729Y-12144418D02*
X4110539Y-12144418D01*
X4196253Y-12125370D02*
X4205777Y-12134894D01*
X4205777Y-12134894D02*
X4196253Y-12144418D01*
X4196253Y-12144418D02*
X4186729Y-12134894D01*
X4186729Y-12134894D02*
X4196253Y-12125370D01*
X4196253Y-12125370D02*
X4196253Y-12144418D01*
X4272444Y-11944418D02*
X4396253Y-11944418D01*
X4396253Y-11944418D02*
X4329586Y-12020608D01*
X4329586Y-12020608D02*
X4358158Y-12020608D01*
X4358158Y-12020608D02*
X4377205Y-12030132D01*
X4377205Y-12030132D02*
X4386729Y-12039656D01*
X4386729Y-12039656D02*
X4396253Y-12058703D01*
X4396253Y-12058703D02*
X4396253Y-12106322D01*
X4396253Y-12106322D02*
X4386729Y-12125370D01*
X4386729Y-12125370D02*
X4377205Y-12134894D01*
X4377205Y-12134894D02*
X4358158Y-12144418D01*
X4358158Y-12144418D02*
X4301015Y-12144418D01*
X4301015Y-12144418D02*
X4281967Y-12134894D01*
X4281967Y-12134894D02*
X4272444Y-12125370D01*
X4520063Y-11944418D02*
X4539110Y-11944418D01*
X4539110Y-11944418D02*
X4558158Y-11953942D01*
X4558158Y-11953942D02*
X4567682Y-11963465D01*
X4567682Y-11963465D02*
X4577205Y-11982513D01*
X4577205Y-11982513D02*
X4586729Y-12020608D01*
X4586729Y-12020608D02*
X4586729Y-12068227D01*
X4586729Y-12068227D02*
X4577205Y-12106322D01*
X4577205Y-12106322D02*
X4567682Y-12125370D01*
X4567682Y-12125370D02*
X4558158Y-12134894D01*
X4558158Y-12134894D02*
X4539110Y-12144418D01*
X4539110Y-12144418D02*
X4520063Y-12144418D01*
X4520063Y-12144418D02*
X4501015Y-12134894D01*
X4501015Y-12134894D02*
X4491491Y-12125370D01*
X4491491Y-12125370D02*
X4481967Y-12106322D01*
X4481967Y-12106322D02*
X4472444Y-12068227D01*
X4472444Y-12068227D02*
X4472444Y-12020608D01*
X4472444Y-12020608D02*
X4481967Y-11982513D01*
X4481967Y-11982513D02*
X4491491Y-11963465D01*
X4491491Y-11963465D02*
X4501015Y-11953942D01*
X4501015Y-11953942D02*
X4520063Y-11944418D01*
X4710539Y-11944418D02*
X4729586Y-11944418D01*
X4729586Y-11944418D02*
X4748634Y-11953942D01*
X4748634Y-11953942D02*
X4758158Y-11963465D01*
X4758158Y-11963465D02*
X4767682Y-11982513D01*
X4767682Y-11982513D02*
X4777205Y-12020608D01*
X4777205Y-12020608D02*
X4777205Y-12068227D01*
X4777205Y-12068227D02*
X4767682Y-12106322D01*
X4767682Y-12106322D02*
X4758158Y-12125370D01*
X4758158Y-12125370D02*
X4748634Y-12134894D01*
X4748634Y-12134894D02*
X4729586Y-12144418D01*
X4729586Y-12144418D02*
X4710539Y-12144418D01*
X4710539Y-12144418D02*
X4691491Y-12134894D01*
X4691491Y-12134894D02*
X4681967Y-12125370D01*
X4681967Y-12125370D02*
X4672444Y-12106322D01*
X4672444Y-12106322D02*
X4662920Y-12068227D01*
X4662920Y-12068227D02*
X4662920Y-12020608D01*
X4662920Y-12020608D02*
X4672444Y-11982513D01*
X4672444Y-11982513D02*
X4681967Y-11963465D01*
X4681967Y-11963465D02*
X4691491Y-11953942D01*
X4691491Y-11953942D02*
X4710539Y-11944418D01*
X4862920Y-12144418D02*
X4862920Y-12011084D01*
X4862920Y-12030132D02*
X4872444Y-12020608D01*
X4872444Y-12020608D02*
X4891491Y-12011084D01*
X4891491Y-12011084D02*
X4920063Y-12011084D01*
X4920063Y-12011084D02*
X4939110Y-12020608D01*
X4939110Y-12020608D02*
X4948634Y-12039656D01*
X4948634Y-12039656D02*
X4948634Y-12144418D01*
X4948634Y-12039656D02*
X4958158Y-12020608D01*
X4958158Y-12020608D02*
X4977205Y-12011084D01*
X4977205Y-12011084D02*
X5005777Y-12011084D01*
X5005777Y-12011084D02*
X5024825Y-12020608D01*
X5024825Y-12020608D02*
X5034348Y-12039656D01*
X5034348Y-12039656D02*
X5034348Y-12144418D01*
X5129586Y-12144418D02*
X5129586Y-12011084D01*
X5129586Y-12030132D02*
X5139110Y-12020608D01*
X5139110Y-12020608D02*
X5158158Y-12011084D01*
X5158158Y-12011084D02*
X5186729Y-12011084D01*
X5186729Y-12011084D02*
X5205777Y-12020608D01*
X5205777Y-12020608D02*
X5215301Y-12039656D01*
X5215301Y-12039656D02*
X5215301Y-12144418D01*
X5215301Y-12039656D02*
X5224825Y-12020608D01*
X5224825Y-12020608D02*
X5243872Y-12011084D01*
X5243872Y-12011084D02*
X5272444Y-12011084D01*
X5272444Y-12011084D02*
X5291491Y-12020608D01*
X5291491Y-12020608D02*
X5301015Y-12039656D01*
X5301015Y-12039656D02*
X5301015Y-12144418D01*
X5691491Y-11934894D02*
X5520063Y-12192037D01*
X5948634Y-11944418D02*
X5967682Y-11944418D01*
X5967682Y-11944418D02*
X5986729Y-11953942D01*
X5986729Y-11953942D02*
X5996253Y-11963465D01*
X5996253Y-11963465D02*
X6005777Y-11982513D01*
X6005777Y-11982513D02*
X6015301Y-12020608D01*
X6015301Y-12020608D02*
X6015301Y-12068227D01*
X6015301Y-12068227D02*
X6005777Y-12106322D01*
X6005777Y-12106322D02*
X5996253Y-12125370D01*
X5996253Y-12125370D02*
X5986729Y-12134894D01*
X5986729Y-12134894D02*
X5967682Y-12144418D01*
X5967682Y-12144418D02*
X5948634Y-12144418D01*
X5948634Y-12144418D02*
X5929586Y-12134894D01*
X5929586Y-12134894D02*
X5920063Y-12125370D01*
X5920063Y-12125370D02*
X5910539Y-12106322D01*
X5910539Y-12106322D02*
X5901015Y-12068227D01*
X5901015Y-12068227D02*
X5901015Y-12020608D01*
X5901015Y-12020608D02*
X5910539Y-11982513D01*
X5910539Y-11982513D02*
X5920063Y-11963465D01*
X5920063Y-11963465D02*
X5929586Y-11953942D01*
X5929586Y-11953942D02*
X5948634Y-11944418D01*
X6101015Y-12125370D02*
X6110539Y-12134894D01*
X6110539Y-12134894D02*
X6101015Y-12144418D01*
X6101015Y-12144418D02*
X6091491Y-12134894D01*
X6091491Y-12134894D02*
X6101015Y-12125370D01*
X6101015Y-12125370D02*
X6101015Y-12144418D01*
X6234348Y-11944418D02*
X6253396Y-11944418D01*
X6253396Y-11944418D02*
X6272444Y-11953942D01*
X6272444Y-11953942D02*
X6281967Y-11963465D01*
X6281967Y-11963465D02*
X6291491Y-11982513D01*
X6291491Y-11982513D02*
X6301015Y-12020608D01*
X6301015Y-12020608D02*
X6301015Y-12068227D01*
X6301015Y-12068227D02*
X6291491Y-12106322D01*
X6291491Y-12106322D02*
X6281967Y-12125370D01*
X6281967Y-12125370D02*
X6272444Y-12134894D01*
X6272444Y-12134894D02*
X6253396Y-12144418D01*
X6253396Y-12144418D02*
X6234348Y-12144418D01*
X6234348Y-12144418D02*
X6215301Y-12134894D01*
X6215301Y-12134894D02*
X6205777Y-12125370D01*
X6205777Y-12125370D02*
X6196253Y-12106322D01*
X6196253Y-12106322D02*
X6186729Y-12068227D01*
X6186729Y-12068227D02*
X6186729Y-12020608D01*
X6186729Y-12020608D02*
X6196253Y-11982513D01*
X6196253Y-11982513D02*
X6205777Y-11963465D01*
X6205777Y-11963465D02*
X6215301Y-11953942D01*
X6215301Y-11953942D02*
X6234348Y-11944418D01*
X6396253Y-12144418D02*
X6434348Y-12144418D01*
X6434348Y-12144418D02*
X6453396Y-12134894D01*
X6453396Y-12134894D02*
X6462920Y-12125370D01*
X6462920Y-12125370D02*
X6481967Y-12096799D01*
X6481967Y-12096799D02*
X6491491Y-12058703D01*
X6491491Y-12058703D02*
X6491491Y-11982513D01*
X6491491Y-11982513D02*
X6481967Y-11963465D01*
X6481967Y-11963465D02*
X6472444Y-11953942D01*
X6472444Y-11953942D02*
X6453396Y-11944418D01*
X6453396Y-11944418D02*
X6415301Y-11944418D01*
X6415301Y-11944418D02*
X6396253Y-11953942D01*
X6396253Y-11953942D02*
X6386729Y-11963465D01*
X6386729Y-11963465D02*
X6377206Y-11982513D01*
X6377206Y-11982513D02*
X6377206Y-12030132D01*
X6377206Y-12030132D02*
X6386729Y-12049180D01*
X6386729Y-12049180D02*
X6396253Y-12058703D01*
X6396253Y-12058703D02*
X6415301Y-12068227D01*
X6415301Y-12068227D02*
X6453396Y-12068227D01*
X6453396Y-12068227D02*
X6472444Y-12058703D01*
X6472444Y-12058703D02*
X6481967Y-12049180D01*
X6481967Y-12049180D02*
X6491491Y-12030132D01*
X6615301Y-11944418D02*
X6634348Y-11944418D01*
X6634348Y-11944418D02*
X6653396Y-11953942D01*
X6653396Y-11953942D02*
X6662920Y-11963465D01*
X6662920Y-11963465D02*
X6672444Y-11982513D01*
X6672444Y-11982513D02*
X6681967Y-12020608D01*
X6681967Y-12020608D02*
X6681967Y-12068227D01*
X6681967Y-12068227D02*
X6672444Y-12106322D01*
X6672444Y-12106322D02*
X6662920Y-12125370D01*
X6662920Y-12125370D02*
X6653396Y-12134894D01*
X6653396Y-12134894D02*
X6634348Y-12144418D01*
X6634348Y-12144418D02*
X6615301Y-12144418D01*
X6615301Y-12144418D02*
X6596253Y-12134894D01*
X6596253Y-12134894D02*
X6586729Y-12125370D01*
X6586729Y-12125370D02*
X6577206Y-12106322D01*
X6577206Y-12106322D02*
X6567682Y-12068227D01*
X6567682Y-12068227D02*
X6567682Y-12020608D01*
X6567682Y-12020608D02*
X6577206Y-11982513D01*
X6577206Y-11982513D02*
X6586729Y-11963465D01*
X6586729Y-11963465D02*
X6596253Y-11953942D01*
X6596253Y-11953942D02*
X6615301Y-11944418D01*
X6853396Y-11944418D02*
X6815301Y-11944418D01*
X6815301Y-11944418D02*
X6796253Y-11953942D01*
X6796253Y-11953942D02*
X6786729Y-11963465D01*
X6786729Y-11963465D02*
X6767682Y-11992037D01*
X6767682Y-11992037D02*
X6758158Y-12030132D01*
X6758158Y-12030132D02*
X6758158Y-12106322D01*
X6758158Y-12106322D02*
X6767682Y-12125370D01*
X6767682Y-12125370D02*
X6777206Y-12134894D01*
X6777206Y-12134894D02*
X6796253Y-12144418D01*
X6796253Y-12144418D02*
X6834348Y-12144418D01*
X6834348Y-12144418D02*
X6853396Y-12134894D01*
X6853396Y-12134894D02*
X6862920Y-12125370D01*
X6862920Y-12125370D02*
X6872444Y-12106322D01*
X6872444Y-12106322D02*
X6872444Y-12058703D01*
X6872444Y-12058703D02*
X6862920Y-12039656D01*
X6862920Y-12039656D02*
X6853396Y-12030132D01*
X6853396Y-12030132D02*
X6834348Y-12020608D01*
X6834348Y-12020608D02*
X6796253Y-12020608D01*
X6796253Y-12020608D02*
X6777206Y-12030132D01*
X6777206Y-12030132D02*
X6767682Y-12039656D01*
X6767682Y-12039656D02*
X6758158Y-12058703D01*
X6948634Y-11944418D02*
X6948634Y-11982513D01*
X7024825Y-11944418D02*
X7024825Y-11982513D01*
X7320063Y-12220608D02*
X7310539Y-12211084D01*
X7310539Y-12211084D02*
X7291491Y-12182513D01*
X7291491Y-12182513D02*
X7281968Y-12163465D01*
X7281968Y-12163465D02*
X7272444Y-12134894D01*
X7272444Y-12134894D02*
X7262920Y-12087275D01*
X7262920Y-12087275D02*
X7262920Y-12049180D01*
X7262920Y-12049180D02*
X7272444Y-12001561D01*
X7272444Y-12001561D02*
X7281968Y-11972989D01*
X7281968Y-11972989D02*
X7291491Y-11953942D01*
X7291491Y-11953942D02*
X7310539Y-11925370D01*
X7310539Y-11925370D02*
X7320063Y-11915846D01*
X7424825Y-12030132D02*
X7405777Y-12020608D01*
X7405777Y-12020608D02*
X7396253Y-12011084D01*
X7396253Y-12011084D02*
X7386729Y-11992037D01*
X7386729Y-11992037D02*
X7386729Y-11982513D01*
X7386729Y-11982513D02*
X7396253Y-11963465D01*
X7396253Y-11963465D02*
X7405777Y-11953942D01*
X7405777Y-11953942D02*
X7424825Y-11944418D01*
X7424825Y-11944418D02*
X7462920Y-11944418D01*
X7462920Y-11944418D02*
X7481968Y-11953942D01*
X7481968Y-11953942D02*
X7491491Y-11963465D01*
X7491491Y-11963465D02*
X7501015Y-11982513D01*
X7501015Y-11982513D02*
X7501015Y-11992037D01*
X7501015Y-11992037D02*
X7491491Y-12011084D01*
X7491491Y-12011084D02*
X7481968Y-12020608D01*
X7481968Y-12020608D02*
X7462920Y-12030132D01*
X7462920Y-12030132D02*
X7424825Y-12030132D01*
X7424825Y-12030132D02*
X7405777Y-12039656D01*
X7405777Y-12039656D02*
X7396253Y-12049180D01*
X7396253Y-12049180D02*
X7386729Y-12068227D01*
X7386729Y-12068227D02*
X7386729Y-12106322D01*
X7386729Y-12106322D02*
X7396253Y-12125370D01*
X7396253Y-12125370D02*
X7405777Y-12134894D01*
X7405777Y-12134894D02*
X7424825Y-12144418D01*
X7424825Y-12144418D02*
X7462920Y-12144418D01*
X7462920Y-12144418D02*
X7481968Y-12134894D01*
X7481968Y-12134894D02*
X7491491Y-12125370D01*
X7491491Y-12125370D02*
X7501015Y-12106322D01*
X7501015Y-12106322D02*
X7501015Y-12068227D01*
X7501015Y-12068227D02*
X7491491Y-12049180D01*
X7491491Y-12049180D02*
X7481968Y-12039656D01*
X7481968Y-12039656D02*
X7462920Y-12030132D01*
X7739110Y-12144418D02*
X7739110Y-11944418D01*
X7824825Y-12144418D02*
X7824825Y-12039656D01*
X7824825Y-12039656D02*
X7815301Y-12020608D01*
X7815301Y-12020608D02*
X7796253Y-12011084D01*
X7796253Y-12011084D02*
X7767682Y-12011084D01*
X7767682Y-12011084D02*
X7748634Y-12020608D01*
X7748634Y-12020608D02*
X7739110Y-12030132D01*
X7948634Y-12144418D02*
X7929587Y-12134894D01*
X7929587Y-12134894D02*
X7920063Y-12125370D01*
X7920063Y-12125370D02*
X7910539Y-12106322D01*
X7910539Y-12106322D02*
X7910539Y-12049180D01*
X7910539Y-12049180D02*
X7920063Y-12030132D01*
X7920063Y-12030132D02*
X7929587Y-12020608D01*
X7929587Y-12020608D02*
X7948634Y-12011084D01*
X7948634Y-12011084D02*
X7977206Y-12011084D01*
X7977206Y-12011084D02*
X7996253Y-12020608D01*
X7996253Y-12020608D02*
X8005777Y-12030132D01*
X8005777Y-12030132D02*
X8015301Y-12049180D01*
X8015301Y-12049180D02*
X8015301Y-12106322D01*
X8015301Y-12106322D02*
X8005777Y-12125370D01*
X8005777Y-12125370D02*
X7996253Y-12134894D01*
X7996253Y-12134894D02*
X7977206Y-12144418D01*
X7977206Y-12144418D02*
X7948634Y-12144418D01*
X8129587Y-12144418D02*
X8110539Y-12134894D01*
X8110539Y-12134894D02*
X8101015Y-12115846D01*
X8101015Y-12115846D02*
X8101015Y-11944418D01*
X8281968Y-12134894D02*
X8262920Y-12144418D01*
X8262920Y-12144418D02*
X8224825Y-12144418D01*
X8224825Y-12144418D02*
X8205777Y-12134894D01*
X8205777Y-12134894D02*
X8196253Y-12115846D01*
X8196253Y-12115846D02*
X8196253Y-12039656D01*
X8196253Y-12039656D02*
X8205777Y-12020608D01*
X8205777Y-12020608D02*
X8224825Y-12011084D01*
X8224825Y-12011084D02*
X8262920Y-12011084D01*
X8262920Y-12011084D02*
X8281968Y-12020608D01*
X8281968Y-12020608D02*
X8291491Y-12039656D01*
X8291491Y-12039656D02*
X8291491Y-12058703D01*
X8291491Y-12058703D02*
X8196253Y-12077751D01*
X8367682Y-12134894D02*
X8386730Y-12144418D01*
X8386730Y-12144418D02*
X8424825Y-12144418D01*
X8424825Y-12144418D02*
X8443873Y-12134894D01*
X8443873Y-12134894D02*
X8453396Y-12115846D01*
X8453396Y-12115846D02*
X8453396Y-12106322D01*
X8453396Y-12106322D02*
X8443873Y-12087275D01*
X8443873Y-12087275D02*
X8424825Y-12077751D01*
X8424825Y-12077751D02*
X8396253Y-12077751D01*
X8396253Y-12077751D02*
X8377206Y-12068227D01*
X8377206Y-12068227D02*
X8367682Y-12049180D01*
X8367682Y-12049180D02*
X8367682Y-12039656D01*
X8367682Y-12039656D02*
X8377206Y-12020608D01*
X8377206Y-12020608D02*
X8396253Y-12011084D01*
X8396253Y-12011084D02*
X8424825Y-12011084D01*
X8424825Y-12011084D02*
X8443873Y-12020608D01*
X8520063Y-12220608D02*
X8529587Y-12211084D01*
X8529587Y-12211084D02*
X8548634Y-12182513D01*
X8548634Y-12182513D02*
X8558158Y-12163465D01*
X8558158Y-12163465D02*
X8567682Y-12134894D01*
X8567682Y-12134894D02*
X8577206Y-12087275D01*
X8577206Y-12087275D02*
X8577206Y-12049180D01*
X8577206Y-12049180D02*
X8567682Y-12001561D01*
X8567682Y-12001561D02*
X8558158Y-11972989D01*
X8558158Y-11972989D02*
X8548634Y-11953942D01*
X8548634Y-11953942D02*
X8529587Y-11925370D01*
X8529587Y-11925370D02*
X8520063Y-11915846D01*
X8881968Y-12220608D02*
X8872444Y-12211084D01*
X8872444Y-12211084D02*
X8853396Y-12182513D01*
X8853396Y-12182513D02*
X8843873Y-12163465D01*
X8843873Y-12163465D02*
X8834349Y-12134894D01*
X8834349Y-12134894D02*
X8824825Y-12087275D01*
X8824825Y-12087275D02*
X8824825Y-12049180D01*
X8824825Y-12049180D02*
X8834349Y-12001561D01*
X8834349Y-12001561D02*
X8843873Y-11972989D01*
X8843873Y-11972989D02*
X8853396Y-11953942D01*
X8853396Y-11953942D02*
X8872444Y-11925370D01*
X8872444Y-11925370D02*
X8881968Y-11915846D01*
X8958158Y-12011084D02*
X8958158Y-12144418D01*
X8958158Y-12030132D02*
X8967682Y-12020608D01*
X8967682Y-12020608D02*
X8986730Y-12011084D01*
X8986730Y-12011084D02*
X9015301Y-12011084D01*
X9015301Y-12011084D02*
X9034349Y-12020608D01*
X9034349Y-12020608D02*
X9043873Y-12039656D01*
X9043873Y-12039656D02*
X9043873Y-12144418D01*
X9167682Y-12144418D02*
X9148634Y-12134894D01*
X9148634Y-12134894D02*
X9139111Y-12125370D01*
X9139111Y-12125370D02*
X9129587Y-12106322D01*
X9129587Y-12106322D02*
X9129587Y-12049180D01*
X9129587Y-12049180D02*
X9139111Y-12030132D01*
X9139111Y-12030132D02*
X9148634Y-12020608D01*
X9148634Y-12020608D02*
X9167682Y-12011084D01*
X9167682Y-12011084D02*
X9196254Y-12011084D01*
X9196254Y-12011084D02*
X9215301Y-12020608D01*
X9215301Y-12020608D02*
X9224825Y-12030132D01*
X9224825Y-12030132D02*
X9234349Y-12049180D01*
X9234349Y-12049180D02*
X9234349Y-12106322D01*
X9234349Y-12106322D02*
X9224825Y-12125370D01*
X9224825Y-12125370D02*
X9215301Y-12134894D01*
X9215301Y-12134894D02*
X9196254Y-12144418D01*
X9196254Y-12144418D02*
X9167682Y-12144418D01*
X9291492Y-12011084D02*
X9367682Y-12011084D01*
X9320063Y-11944418D02*
X9320063Y-12115846D01*
X9320063Y-12115846D02*
X9329587Y-12134894D01*
X9329587Y-12134894D02*
X9348634Y-12144418D01*
X9348634Y-12144418D02*
X9367682Y-12144418D01*
X9586730Y-12011084D02*
X9586730Y-12211084D01*
X9586730Y-12020608D02*
X9605777Y-12011084D01*
X9605777Y-12011084D02*
X9643873Y-12011084D01*
X9643873Y-12011084D02*
X9662920Y-12020608D01*
X9662920Y-12020608D02*
X9672444Y-12030132D01*
X9672444Y-12030132D02*
X9681968Y-12049180D01*
X9681968Y-12049180D02*
X9681968Y-12106322D01*
X9681968Y-12106322D02*
X9672444Y-12125370D01*
X9672444Y-12125370D02*
X9662920Y-12134894D01*
X9662920Y-12134894D02*
X9643873Y-12144418D01*
X9643873Y-12144418D02*
X9605777Y-12144418D01*
X9605777Y-12144418D02*
X9586730Y-12134894D01*
X9796254Y-12144418D02*
X9777206Y-12134894D01*
X9777206Y-12134894D02*
X9767682Y-12115846D01*
X9767682Y-12115846D02*
X9767682Y-11944418D01*
X9958158Y-12144418D02*
X9958158Y-12039656D01*
X9958158Y-12039656D02*
X9948635Y-12020608D01*
X9948635Y-12020608D02*
X9929587Y-12011084D01*
X9929587Y-12011084D02*
X9891492Y-12011084D01*
X9891492Y-12011084D02*
X9872444Y-12020608D01*
X9958158Y-12134894D02*
X9939111Y-12144418D01*
X9939111Y-12144418D02*
X9891492Y-12144418D01*
X9891492Y-12144418D02*
X9872444Y-12134894D01*
X9872444Y-12134894D02*
X9862920Y-12115846D01*
X9862920Y-12115846D02*
X9862920Y-12096799D01*
X9862920Y-12096799D02*
X9872444Y-12077751D01*
X9872444Y-12077751D02*
X9891492Y-12068227D01*
X9891492Y-12068227D02*
X9939111Y-12068227D01*
X9939111Y-12068227D02*
X9958158Y-12058703D01*
X10024825Y-12011084D02*
X10101015Y-12011084D01*
X10053396Y-11944418D02*
X10053396Y-12115846D01*
X10053396Y-12115846D02*
X10062920Y-12134894D01*
X10062920Y-12134894D02*
X10081968Y-12144418D01*
X10081968Y-12144418D02*
X10101015Y-12144418D01*
X10243873Y-12134894D02*
X10224825Y-12144418D01*
X10224825Y-12144418D02*
X10186730Y-12144418D01*
X10186730Y-12144418D02*
X10167682Y-12134894D01*
X10167682Y-12134894D02*
X10158158Y-12115846D01*
X10158158Y-12115846D02*
X10158158Y-12039656D01*
X10158158Y-12039656D02*
X10167682Y-12020608D01*
X10167682Y-12020608D02*
X10186730Y-12011084D01*
X10186730Y-12011084D02*
X10224825Y-12011084D01*
X10224825Y-12011084D02*
X10243873Y-12020608D01*
X10243873Y-12020608D02*
X10253396Y-12039656D01*
X10253396Y-12039656D02*
X10253396Y-12058703D01*
X10253396Y-12058703D02*
X10158158Y-12077751D01*
X10424825Y-12144418D02*
X10424825Y-11944418D01*
X10424825Y-12134894D02*
X10405777Y-12144418D01*
X10405777Y-12144418D02*
X10367682Y-12144418D01*
X10367682Y-12144418D02*
X10348635Y-12134894D01*
X10348635Y-12134894D02*
X10339111Y-12125370D01*
X10339111Y-12125370D02*
X10329587Y-12106322D01*
X10329587Y-12106322D02*
X10329587Y-12049180D01*
X10329587Y-12049180D02*
X10339111Y-12030132D01*
X10339111Y-12030132D02*
X10348635Y-12020608D01*
X10348635Y-12020608D02*
X10367682Y-12011084D01*
X10367682Y-12011084D02*
X10405777Y-12011084D01*
X10405777Y-12011084D02*
X10424825Y-12020608D01*
X10501016Y-12220608D02*
X10510539Y-12211084D01*
X10510539Y-12211084D02*
X10529587Y-12182513D01*
X10529587Y-12182513D02*
X10539111Y-12163465D01*
X10539111Y-12163465D02*
X10548635Y-12134894D01*
X10548635Y-12134894D02*
X10558158Y-12087275D01*
X10558158Y-12087275D02*
X10558158Y-12049180D01*
X10558158Y-12049180D02*
X10548635Y-12001561D01*
X10548635Y-12001561D02*
X10539111Y-11972989D01*
X10539111Y-11972989D02*
X10529587Y-11953942D01*
X10529587Y-11953942D02*
X10510539Y-11925370D01*
X10510539Y-11925370D02*
X10501016Y-11915846D01*
X3645000Y-12272934D02*
X3645000Y-12472934D01*
X3545000Y-12372934D02*
X3745000Y-12372934D01*
X3986729Y-12264418D02*
X4110539Y-12264418D01*
X4110539Y-12264418D02*
X4043872Y-12340608D01*
X4043872Y-12340608D02*
X4072443Y-12340608D01*
X4072443Y-12340608D02*
X4091491Y-12350132D01*
X4091491Y-12350132D02*
X4101015Y-12359656D01*
X4101015Y-12359656D02*
X4110539Y-12378703D01*
X4110539Y-12378703D02*
X4110539Y-12426322D01*
X4110539Y-12426322D02*
X4101015Y-12445370D01*
X4101015Y-12445370D02*
X4091491Y-12454894D01*
X4091491Y-12454894D02*
X4072443Y-12464418D01*
X4072443Y-12464418D02*
X4015301Y-12464418D01*
X4015301Y-12464418D02*
X3996253Y-12454894D01*
X3996253Y-12454894D02*
X3986729Y-12445370D01*
X4196253Y-12445370D02*
X4205777Y-12454894D01*
X4205777Y-12454894D02*
X4196253Y-12464418D01*
X4196253Y-12464418D02*
X4186729Y-12454894D01*
X4186729Y-12454894D02*
X4196253Y-12445370D01*
X4196253Y-12445370D02*
X4196253Y-12464418D01*
X4329586Y-12264418D02*
X4348634Y-12264418D01*
X4348634Y-12264418D02*
X4367682Y-12273942D01*
X4367682Y-12273942D02*
X4377205Y-12283465D01*
X4377205Y-12283465D02*
X4386729Y-12302513D01*
X4386729Y-12302513D02*
X4396253Y-12340608D01*
X4396253Y-12340608D02*
X4396253Y-12388227D01*
X4396253Y-12388227D02*
X4386729Y-12426322D01*
X4386729Y-12426322D02*
X4377205Y-12445370D01*
X4377205Y-12445370D02*
X4367682Y-12454894D01*
X4367682Y-12454894D02*
X4348634Y-12464418D01*
X4348634Y-12464418D02*
X4329586Y-12464418D01*
X4329586Y-12464418D02*
X4310539Y-12454894D01*
X4310539Y-12454894D02*
X4301015Y-12445370D01*
X4301015Y-12445370D02*
X4291491Y-12426322D01*
X4291491Y-12426322D02*
X4281967Y-12388227D01*
X4281967Y-12388227D02*
X4281967Y-12340608D01*
X4281967Y-12340608D02*
X4291491Y-12302513D01*
X4291491Y-12302513D02*
X4301015Y-12283465D01*
X4301015Y-12283465D02*
X4310539Y-12273942D01*
X4310539Y-12273942D02*
X4329586Y-12264418D01*
X4520063Y-12264418D02*
X4539110Y-12264418D01*
X4539110Y-12264418D02*
X4558158Y-12273942D01*
X4558158Y-12273942D02*
X4567682Y-12283465D01*
X4567682Y-12283465D02*
X4577205Y-12302513D01*
X4577205Y-12302513D02*
X4586729Y-12340608D01*
X4586729Y-12340608D02*
X4586729Y-12388227D01*
X4586729Y-12388227D02*
X4577205Y-12426322D01*
X4577205Y-12426322D02*
X4567682Y-12445370D01*
X4567682Y-12445370D02*
X4558158Y-12454894D01*
X4558158Y-12454894D02*
X4539110Y-12464418D01*
X4539110Y-12464418D02*
X4520063Y-12464418D01*
X4520063Y-12464418D02*
X4501015Y-12454894D01*
X4501015Y-12454894D02*
X4491491Y-12445370D01*
X4491491Y-12445370D02*
X4481967Y-12426322D01*
X4481967Y-12426322D02*
X4472444Y-12388227D01*
X4472444Y-12388227D02*
X4472444Y-12340608D01*
X4472444Y-12340608D02*
X4481967Y-12302513D01*
X4481967Y-12302513D02*
X4491491Y-12283465D01*
X4491491Y-12283465D02*
X4501015Y-12273942D01*
X4501015Y-12273942D02*
X4520063Y-12264418D01*
X4710539Y-12264418D02*
X4729586Y-12264418D01*
X4729586Y-12264418D02*
X4748634Y-12273942D01*
X4748634Y-12273942D02*
X4758158Y-12283465D01*
X4758158Y-12283465D02*
X4767682Y-12302513D01*
X4767682Y-12302513D02*
X4777205Y-12340608D01*
X4777205Y-12340608D02*
X4777205Y-12388227D01*
X4777205Y-12388227D02*
X4767682Y-12426322D01*
X4767682Y-12426322D02*
X4758158Y-12445370D01*
X4758158Y-12445370D02*
X4748634Y-12454894D01*
X4748634Y-12454894D02*
X4729586Y-12464418D01*
X4729586Y-12464418D02*
X4710539Y-12464418D01*
X4710539Y-12464418D02*
X4691491Y-12454894D01*
X4691491Y-12454894D02*
X4681967Y-12445370D01*
X4681967Y-12445370D02*
X4672444Y-12426322D01*
X4672444Y-12426322D02*
X4662920Y-12388227D01*
X4662920Y-12388227D02*
X4662920Y-12340608D01*
X4662920Y-12340608D02*
X4672444Y-12302513D01*
X4672444Y-12302513D02*
X4681967Y-12283465D01*
X4681967Y-12283465D02*
X4691491Y-12273942D01*
X4691491Y-12273942D02*
X4710539Y-12264418D01*
X4862920Y-12464418D02*
X4862920Y-12331084D01*
X4862920Y-12350132D02*
X4872444Y-12340608D01*
X4872444Y-12340608D02*
X4891491Y-12331084D01*
X4891491Y-12331084D02*
X4920063Y-12331084D01*
X4920063Y-12331084D02*
X4939110Y-12340608D01*
X4939110Y-12340608D02*
X4948634Y-12359656D01*
X4948634Y-12359656D02*
X4948634Y-12464418D01*
X4948634Y-12359656D02*
X4958158Y-12340608D01*
X4958158Y-12340608D02*
X4977205Y-12331084D01*
X4977205Y-12331084D02*
X5005777Y-12331084D01*
X5005777Y-12331084D02*
X5024825Y-12340608D01*
X5024825Y-12340608D02*
X5034348Y-12359656D01*
X5034348Y-12359656D02*
X5034348Y-12464418D01*
X5129586Y-12464418D02*
X5129586Y-12331084D01*
X5129586Y-12350132D02*
X5139110Y-12340608D01*
X5139110Y-12340608D02*
X5158158Y-12331084D01*
X5158158Y-12331084D02*
X5186729Y-12331084D01*
X5186729Y-12331084D02*
X5205777Y-12340608D01*
X5205777Y-12340608D02*
X5215301Y-12359656D01*
X5215301Y-12359656D02*
X5215301Y-12464418D01*
X5215301Y-12359656D02*
X5224825Y-12340608D01*
X5224825Y-12340608D02*
X5243872Y-12331084D01*
X5243872Y-12331084D02*
X5272444Y-12331084D01*
X5272444Y-12331084D02*
X5291491Y-12340608D01*
X5291491Y-12340608D02*
X5301015Y-12359656D01*
X5301015Y-12359656D02*
X5301015Y-12464418D01*
X5691491Y-12254894D02*
X5520063Y-12512037D01*
X5948634Y-12264418D02*
X5967682Y-12264418D01*
X5967682Y-12264418D02*
X5986729Y-12273942D01*
X5986729Y-12273942D02*
X5996253Y-12283465D01*
X5996253Y-12283465D02*
X6005777Y-12302513D01*
X6005777Y-12302513D02*
X6015301Y-12340608D01*
X6015301Y-12340608D02*
X6015301Y-12388227D01*
X6015301Y-12388227D02*
X6005777Y-12426322D01*
X6005777Y-12426322D02*
X5996253Y-12445370D01*
X5996253Y-12445370D02*
X5986729Y-12454894D01*
X5986729Y-12454894D02*
X5967682Y-12464418D01*
X5967682Y-12464418D02*
X5948634Y-12464418D01*
X5948634Y-12464418D02*
X5929586Y-12454894D01*
X5929586Y-12454894D02*
X5920063Y-12445370D01*
X5920063Y-12445370D02*
X5910539Y-12426322D01*
X5910539Y-12426322D02*
X5901015Y-12388227D01*
X5901015Y-12388227D02*
X5901015Y-12340608D01*
X5901015Y-12340608D02*
X5910539Y-12302513D01*
X5910539Y-12302513D02*
X5920063Y-12283465D01*
X5920063Y-12283465D02*
X5929586Y-12273942D01*
X5929586Y-12273942D02*
X5948634Y-12264418D01*
X6101015Y-12445370D02*
X6110539Y-12454894D01*
X6110539Y-12454894D02*
X6101015Y-12464418D01*
X6101015Y-12464418D02*
X6091491Y-12454894D01*
X6091491Y-12454894D02*
X6101015Y-12445370D01*
X6101015Y-12445370D02*
X6101015Y-12464418D01*
X6301015Y-12464418D02*
X6186729Y-12464418D01*
X6243872Y-12464418D02*
X6243872Y-12264418D01*
X6243872Y-12264418D02*
X6224825Y-12292989D01*
X6224825Y-12292989D02*
X6205777Y-12312037D01*
X6205777Y-12312037D02*
X6186729Y-12321561D01*
X6491491Y-12464418D02*
X6377206Y-12464418D01*
X6434348Y-12464418D02*
X6434348Y-12264418D01*
X6434348Y-12264418D02*
X6415301Y-12292989D01*
X6415301Y-12292989D02*
X6396253Y-12312037D01*
X6396253Y-12312037D02*
X6377206Y-12321561D01*
X6605777Y-12350132D02*
X6586729Y-12340608D01*
X6586729Y-12340608D02*
X6577206Y-12331084D01*
X6577206Y-12331084D02*
X6567682Y-12312037D01*
X6567682Y-12312037D02*
X6567682Y-12302513D01*
X6567682Y-12302513D02*
X6577206Y-12283465D01*
X6577206Y-12283465D02*
X6586729Y-12273942D01*
X6586729Y-12273942D02*
X6605777Y-12264418D01*
X6605777Y-12264418D02*
X6643872Y-12264418D01*
X6643872Y-12264418D02*
X6662920Y-12273942D01*
X6662920Y-12273942D02*
X6672444Y-12283465D01*
X6672444Y-12283465D02*
X6681967Y-12302513D01*
X6681967Y-12302513D02*
X6681967Y-12312037D01*
X6681967Y-12312037D02*
X6672444Y-12331084D01*
X6672444Y-12331084D02*
X6662920Y-12340608D01*
X6662920Y-12340608D02*
X6643872Y-12350132D01*
X6643872Y-12350132D02*
X6605777Y-12350132D01*
X6605777Y-12350132D02*
X6586729Y-12359656D01*
X6586729Y-12359656D02*
X6577206Y-12369180D01*
X6577206Y-12369180D02*
X6567682Y-12388227D01*
X6567682Y-12388227D02*
X6567682Y-12426322D01*
X6567682Y-12426322D02*
X6577206Y-12445370D01*
X6577206Y-12445370D02*
X6586729Y-12454894D01*
X6586729Y-12454894D02*
X6605777Y-12464418D01*
X6605777Y-12464418D02*
X6643872Y-12464418D01*
X6643872Y-12464418D02*
X6662920Y-12454894D01*
X6662920Y-12454894D02*
X6672444Y-12445370D01*
X6672444Y-12445370D02*
X6681967Y-12426322D01*
X6681967Y-12426322D02*
X6681967Y-12388227D01*
X6681967Y-12388227D02*
X6672444Y-12369180D01*
X6672444Y-12369180D02*
X6662920Y-12359656D01*
X6662920Y-12359656D02*
X6643872Y-12350132D01*
X6872444Y-12464418D02*
X6758158Y-12464418D01*
X6815301Y-12464418D02*
X6815301Y-12264418D01*
X6815301Y-12264418D02*
X6796253Y-12292989D01*
X6796253Y-12292989D02*
X6777206Y-12312037D01*
X6777206Y-12312037D02*
X6758158Y-12321561D01*
X6948634Y-12264418D02*
X6948634Y-12302513D01*
X7024825Y-12264418D02*
X7024825Y-12302513D01*
X7320063Y-12540608D02*
X7310539Y-12531084D01*
X7310539Y-12531084D02*
X7291491Y-12502513D01*
X7291491Y-12502513D02*
X7281968Y-12483465D01*
X7281968Y-12483465D02*
X7272444Y-12454894D01*
X7272444Y-12454894D02*
X7262920Y-12407275D01*
X7262920Y-12407275D02*
X7262920Y-12369180D01*
X7262920Y-12369180D02*
X7272444Y-12321561D01*
X7272444Y-12321561D02*
X7281968Y-12292989D01*
X7281968Y-12292989D02*
X7291491Y-12273942D01*
X7291491Y-12273942D02*
X7310539Y-12245370D01*
X7310539Y-12245370D02*
X7320063Y-12235846D01*
X7501015Y-12464418D02*
X7386729Y-12464418D01*
X7443872Y-12464418D02*
X7443872Y-12264418D01*
X7443872Y-12264418D02*
X7424825Y-12292989D01*
X7424825Y-12292989D02*
X7405777Y-12312037D01*
X7405777Y-12312037D02*
X7386729Y-12321561D01*
X7672444Y-12264418D02*
X7634348Y-12264418D01*
X7634348Y-12264418D02*
X7615301Y-12273942D01*
X7615301Y-12273942D02*
X7605777Y-12283465D01*
X7605777Y-12283465D02*
X7586729Y-12312037D01*
X7586729Y-12312037D02*
X7577206Y-12350132D01*
X7577206Y-12350132D02*
X7577206Y-12426322D01*
X7577206Y-12426322D02*
X7586729Y-12445370D01*
X7586729Y-12445370D02*
X7596253Y-12454894D01*
X7596253Y-12454894D02*
X7615301Y-12464418D01*
X7615301Y-12464418D02*
X7653396Y-12464418D01*
X7653396Y-12464418D02*
X7672444Y-12454894D01*
X7672444Y-12454894D02*
X7681968Y-12445370D01*
X7681968Y-12445370D02*
X7691491Y-12426322D01*
X7691491Y-12426322D02*
X7691491Y-12378703D01*
X7691491Y-12378703D02*
X7681968Y-12359656D01*
X7681968Y-12359656D02*
X7672444Y-12350132D01*
X7672444Y-12350132D02*
X7653396Y-12340608D01*
X7653396Y-12340608D02*
X7615301Y-12340608D01*
X7615301Y-12340608D02*
X7596253Y-12350132D01*
X7596253Y-12350132D02*
X7586729Y-12359656D01*
X7586729Y-12359656D02*
X7577206Y-12378703D01*
X7929587Y-12464418D02*
X7929587Y-12264418D01*
X8015301Y-12464418D02*
X8015301Y-12359656D01*
X8015301Y-12359656D02*
X8005777Y-12340608D01*
X8005777Y-12340608D02*
X7986730Y-12331084D01*
X7986730Y-12331084D02*
X7958158Y-12331084D01*
X7958158Y-12331084D02*
X7939110Y-12340608D01*
X7939110Y-12340608D02*
X7929587Y-12350132D01*
X8139110Y-12464418D02*
X8120063Y-12454894D01*
X8120063Y-12454894D02*
X8110539Y-12445370D01*
X8110539Y-12445370D02*
X8101015Y-12426322D01*
X8101015Y-12426322D02*
X8101015Y-12369180D01*
X8101015Y-12369180D02*
X8110539Y-12350132D01*
X8110539Y-12350132D02*
X8120063Y-12340608D01*
X8120063Y-12340608D02*
X8139110Y-12331084D01*
X8139110Y-12331084D02*
X8167682Y-12331084D01*
X8167682Y-12331084D02*
X8186730Y-12340608D01*
X8186730Y-12340608D02*
X8196253Y-12350132D01*
X8196253Y-12350132D02*
X8205777Y-12369180D01*
X8205777Y-12369180D02*
X8205777Y-12426322D01*
X8205777Y-12426322D02*
X8196253Y-12445370D01*
X8196253Y-12445370D02*
X8186730Y-12454894D01*
X8186730Y-12454894D02*
X8167682Y-12464418D01*
X8167682Y-12464418D02*
X8139110Y-12464418D01*
X8320063Y-12464418D02*
X8301015Y-12454894D01*
X8301015Y-12454894D02*
X8291491Y-12435846D01*
X8291491Y-12435846D02*
X8291491Y-12264418D01*
X8472444Y-12454894D02*
X8453396Y-12464418D01*
X8453396Y-12464418D02*
X8415301Y-12464418D01*
X8415301Y-12464418D02*
X8396253Y-12454894D01*
X8396253Y-12454894D02*
X8386730Y-12435846D01*
X8386730Y-12435846D02*
X8386730Y-12359656D01*
X8386730Y-12359656D02*
X8396253Y-12340608D01*
X8396253Y-12340608D02*
X8415301Y-12331084D01*
X8415301Y-12331084D02*
X8453396Y-12331084D01*
X8453396Y-12331084D02*
X8472444Y-12340608D01*
X8472444Y-12340608D02*
X8481968Y-12359656D01*
X8481968Y-12359656D02*
X8481968Y-12378703D01*
X8481968Y-12378703D02*
X8386730Y-12397751D01*
X8558158Y-12454894D02*
X8577206Y-12464418D01*
X8577206Y-12464418D02*
X8615301Y-12464418D01*
X8615301Y-12464418D02*
X8634349Y-12454894D01*
X8634349Y-12454894D02*
X8643873Y-12435846D01*
X8643873Y-12435846D02*
X8643873Y-12426322D01*
X8643873Y-12426322D02*
X8634349Y-12407275D01*
X8634349Y-12407275D02*
X8615301Y-12397751D01*
X8615301Y-12397751D02*
X8586730Y-12397751D01*
X8586730Y-12397751D02*
X8567682Y-12388227D01*
X8567682Y-12388227D02*
X8558158Y-12369180D01*
X8558158Y-12369180D02*
X8558158Y-12359656D01*
X8558158Y-12359656D02*
X8567682Y-12340608D01*
X8567682Y-12340608D02*
X8586730Y-12331084D01*
X8586730Y-12331084D02*
X8615301Y-12331084D01*
X8615301Y-12331084D02*
X8634349Y-12340608D01*
X8710539Y-12540608D02*
X8720063Y-12531084D01*
X8720063Y-12531084D02*
X8739111Y-12502513D01*
X8739111Y-12502513D02*
X8748634Y-12483465D01*
X8748634Y-12483465D02*
X8758158Y-12454894D01*
X8758158Y-12454894D02*
X8767682Y-12407275D01*
X8767682Y-12407275D02*
X8767682Y-12369180D01*
X8767682Y-12369180D02*
X8758158Y-12321561D01*
X8758158Y-12321561D02*
X8748634Y-12292989D01*
X8748634Y-12292989D02*
X8739111Y-12273942D01*
X8739111Y-12273942D02*
X8720063Y-12245370D01*
X8720063Y-12245370D02*
X8710539Y-12235846D01*
X9072444Y-12540608D02*
X9062920Y-12531084D01*
X9062920Y-12531084D02*
X9043873Y-12502513D01*
X9043873Y-12502513D02*
X9034349Y-12483465D01*
X9034349Y-12483465D02*
X9024825Y-12454894D01*
X9024825Y-12454894D02*
X9015301Y-12407275D01*
X9015301Y-12407275D02*
X9015301Y-12369180D01*
X9015301Y-12369180D02*
X9024825Y-12321561D01*
X9024825Y-12321561D02*
X9034349Y-12292989D01*
X9034349Y-12292989D02*
X9043873Y-12273942D01*
X9043873Y-12273942D02*
X9062920Y-12245370D01*
X9062920Y-12245370D02*
X9072444Y-12235846D01*
X9148634Y-12331084D02*
X9148634Y-12464418D01*
X9148634Y-12350132D02*
X9158158Y-12340608D01*
X9158158Y-12340608D02*
X9177206Y-12331084D01*
X9177206Y-12331084D02*
X9205777Y-12331084D01*
X9205777Y-12331084D02*
X9224825Y-12340608D01*
X9224825Y-12340608D02*
X9234349Y-12359656D01*
X9234349Y-12359656D02*
X9234349Y-12464418D01*
X9358158Y-12464418D02*
X9339111Y-12454894D01*
X9339111Y-12454894D02*
X9329587Y-12445370D01*
X9329587Y-12445370D02*
X9320063Y-12426322D01*
X9320063Y-12426322D02*
X9320063Y-12369180D01*
X9320063Y-12369180D02*
X9329587Y-12350132D01*
X9329587Y-12350132D02*
X9339111Y-12340608D01*
X9339111Y-12340608D02*
X9358158Y-12331084D01*
X9358158Y-12331084D02*
X9386730Y-12331084D01*
X9386730Y-12331084D02*
X9405777Y-12340608D01*
X9405777Y-12340608D02*
X9415301Y-12350132D01*
X9415301Y-12350132D02*
X9424825Y-12369180D01*
X9424825Y-12369180D02*
X9424825Y-12426322D01*
X9424825Y-12426322D02*
X9415301Y-12445370D01*
X9415301Y-12445370D02*
X9405777Y-12454894D01*
X9405777Y-12454894D02*
X9386730Y-12464418D01*
X9386730Y-12464418D02*
X9358158Y-12464418D01*
X9481968Y-12331084D02*
X9558158Y-12331084D01*
X9510539Y-12264418D02*
X9510539Y-12435846D01*
X9510539Y-12435846D02*
X9520063Y-12454894D01*
X9520063Y-12454894D02*
X9539111Y-12464418D01*
X9539111Y-12464418D02*
X9558158Y-12464418D01*
X9777206Y-12331084D02*
X9777206Y-12531084D01*
X9777206Y-12340608D02*
X9796254Y-12331084D01*
X9796254Y-12331084D02*
X9834349Y-12331084D01*
X9834349Y-12331084D02*
X9853396Y-12340608D01*
X9853396Y-12340608D02*
X9862920Y-12350132D01*
X9862920Y-12350132D02*
X9872444Y-12369180D01*
X9872444Y-12369180D02*
X9872444Y-12426322D01*
X9872444Y-12426322D02*
X9862920Y-12445370D01*
X9862920Y-12445370D02*
X9853396Y-12454894D01*
X9853396Y-12454894D02*
X9834349Y-12464418D01*
X9834349Y-12464418D02*
X9796254Y-12464418D01*
X9796254Y-12464418D02*
X9777206Y-12454894D01*
X9986730Y-12464418D02*
X9967682Y-12454894D01*
X9967682Y-12454894D02*
X9958158Y-12435846D01*
X9958158Y-12435846D02*
X9958158Y-12264418D01*
X10148635Y-12464418D02*
X10148635Y-12359656D01*
X10148635Y-12359656D02*
X10139111Y-12340608D01*
X10139111Y-12340608D02*
X10120063Y-12331084D01*
X10120063Y-12331084D02*
X10081968Y-12331084D01*
X10081968Y-12331084D02*
X10062920Y-12340608D01*
X10148635Y-12454894D02*
X10129587Y-12464418D01*
X10129587Y-12464418D02*
X10081968Y-12464418D01*
X10081968Y-12464418D02*
X10062920Y-12454894D01*
X10062920Y-12454894D02*
X10053396Y-12435846D01*
X10053396Y-12435846D02*
X10053396Y-12416799D01*
X10053396Y-12416799D02*
X10062920Y-12397751D01*
X10062920Y-12397751D02*
X10081968Y-12388227D01*
X10081968Y-12388227D02*
X10129587Y-12388227D01*
X10129587Y-12388227D02*
X10148635Y-12378703D01*
X10215301Y-12331084D02*
X10291492Y-12331084D01*
X10243873Y-12264418D02*
X10243873Y-12435846D01*
X10243873Y-12435846D02*
X10253396Y-12454894D01*
X10253396Y-12454894D02*
X10272444Y-12464418D01*
X10272444Y-12464418D02*
X10291492Y-12464418D01*
X10434349Y-12454894D02*
X10415301Y-12464418D01*
X10415301Y-12464418D02*
X10377206Y-12464418D01*
X10377206Y-12464418D02*
X10358158Y-12454894D01*
X10358158Y-12454894D02*
X10348635Y-12435846D01*
X10348635Y-12435846D02*
X10348635Y-12359656D01*
X10348635Y-12359656D02*
X10358158Y-12340608D01*
X10358158Y-12340608D02*
X10377206Y-12331084D01*
X10377206Y-12331084D02*
X10415301Y-12331084D01*
X10415301Y-12331084D02*
X10434349Y-12340608D01*
X10434349Y-12340608D02*
X10443873Y-12359656D01*
X10443873Y-12359656D02*
X10443873Y-12378703D01*
X10443873Y-12378703D02*
X10348635Y-12397751D01*
X10615301Y-12464418D02*
X10615301Y-12264418D01*
X10615301Y-12454894D02*
X10596254Y-12464418D01*
X10596254Y-12464418D02*
X10558158Y-12464418D01*
X10558158Y-12464418D02*
X10539111Y-12454894D01*
X10539111Y-12454894D02*
X10529587Y-12445370D01*
X10529587Y-12445370D02*
X10520063Y-12426322D01*
X10520063Y-12426322D02*
X10520063Y-12369180D01*
X10520063Y-12369180D02*
X10529587Y-12350132D01*
X10529587Y-12350132D02*
X10539111Y-12340608D01*
X10539111Y-12340608D02*
X10558158Y-12331084D01*
X10558158Y-12331084D02*
X10596254Y-12331084D01*
X10596254Y-12331084D02*
X10615301Y-12340608D01*
X10691492Y-12540608D02*
X10701016Y-12531084D01*
X10701016Y-12531084D02*
X10720063Y-12502513D01*
X10720063Y-12502513D02*
X10729587Y-12483465D01*
X10729587Y-12483465D02*
X10739111Y-12454894D01*
X10739111Y-12454894D02*
X10748635Y-12407275D01*
X10748635Y-12407275D02*
X10748635Y-12369180D01*
X10748635Y-12369180D02*
X10739111Y-12321561D01*
X10739111Y-12321561D02*
X10729587Y-12292989D01*
X10729587Y-12292989D02*
X10720063Y-12273942D01*
X10720063Y-12273942D02*
X10701016Y-12245370D01*
X10701016Y-12245370D02*
X10691492Y-12235846D01*
X3715711Y-12763645D02*
X3715711Y-12622223D01*
X3574289Y-12622223D01*
X3574289Y-12763645D01*
X3715711Y-12763645D01*
X4091491Y-12651084D02*
X4091491Y-12784418D01*
X4043872Y-12574894D02*
X3996253Y-12717751D01*
X3996253Y-12717751D02*
X4120062Y-12717751D01*
X4196253Y-12765370D02*
X4205777Y-12774894D01*
X4205777Y-12774894D02*
X4196253Y-12784418D01*
X4196253Y-12784418D02*
X4186729Y-12774894D01*
X4186729Y-12774894D02*
X4196253Y-12765370D01*
X4196253Y-12765370D02*
X4196253Y-12784418D01*
X4329586Y-12584418D02*
X4348634Y-12584418D01*
X4348634Y-12584418D02*
X4367682Y-12593942D01*
X4367682Y-12593942D02*
X4377205Y-12603465D01*
X4377205Y-12603465D02*
X4386729Y-12622513D01*
X4386729Y-12622513D02*
X4396253Y-12660608D01*
X4396253Y-12660608D02*
X4396253Y-12708227D01*
X4396253Y-12708227D02*
X4386729Y-12746322D01*
X4386729Y-12746322D02*
X4377205Y-12765370D01*
X4377205Y-12765370D02*
X4367682Y-12774894D01*
X4367682Y-12774894D02*
X4348634Y-12784418D01*
X4348634Y-12784418D02*
X4329586Y-12784418D01*
X4329586Y-12784418D02*
X4310539Y-12774894D01*
X4310539Y-12774894D02*
X4301015Y-12765370D01*
X4301015Y-12765370D02*
X4291491Y-12746322D01*
X4291491Y-12746322D02*
X4281967Y-12708227D01*
X4281967Y-12708227D02*
X4281967Y-12660608D01*
X4281967Y-12660608D02*
X4291491Y-12622513D01*
X4291491Y-12622513D02*
X4301015Y-12603465D01*
X4301015Y-12603465D02*
X4310539Y-12593942D01*
X4310539Y-12593942D02*
X4329586Y-12584418D01*
X4520063Y-12584418D02*
X4539110Y-12584418D01*
X4539110Y-12584418D02*
X4558158Y-12593942D01*
X4558158Y-12593942D02*
X4567682Y-12603465D01*
X4567682Y-12603465D02*
X4577205Y-12622513D01*
X4577205Y-12622513D02*
X4586729Y-12660608D01*
X4586729Y-12660608D02*
X4586729Y-12708227D01*
X4586729Y-12708227D02*
X4577205Y-12746322D01*
X4577205Y-12746322D02*
X4567682Y-12765370D01*
X4567682Y-12765370D02*
X4558158Y-12774894D01*
X4558158Y-12774894D02*
X4539110Y-12784418D01*
X4539110Y-12784418D02*
X4520063Y-12784418D01*
X4520063Y-12784418D02*
X4501015Y-12774894D01*
X4501015Y-12774894D02*
X4491491Y-12765370D01*
X4491491Y-12765370D02*
X4481967Y-12746322D01*
X4481967Y-12746322D02*
X4472444Y-12708227D01*
X4472444Y-12708227D02*
X4472444Y-12660608D01*
X4472444Y-12660608D02*
X4481967Y-12622513D01*
X4481967Y-12622513D02*
X4491491Y-12603465D01*
X4491491Y-12603465D02*
X4501015Y-12593942D01*
X4501015Y-12593942D02*
X4520063Y-12584418D01*
X4710539Y-12584418D02*
X4729586Y-12584418D01*
X4729586Y-12584418D02*
X4748634Y-12593942D01*
X4748634Y-12593942D02*
X4758158Y-12603465D01*
X4758158Y-12603465D02*
X4767682Y-12622513D01*
X4767682Y-12622513D02*
X4777205Y-12660608D01*
X4777205Y-12660608D02*
X4777205Y-12708227D01*
X4777205Y-12708227D02*
X4767682Y-12746322D01*
X4767682Y-12746322D02*
X4758158Y-12765370D01*
X4758158Y-12765370D02*
X4748634Y-12774894D01*
X4748634Y-12774894D02*
X4729586Y-12784418D01*
X4729586Y-12784418D02*
X4710539Y-12784418D01*
X4710539Y-12784418D02*
X4691491Y-12774894D01*
X4691491Y-12774894D02*
X4681967Y-12765370D01*
X4681967Y-12765370D02*
X4672444Y-12746322D01*
X4672444Y-12746322D02*
X4662920Y-12708227D01*
X4662920Y-12708227D02*
X4662920Y-12660608D01*
X4662920Y-12660608D02*
X4672444Y-12622513D01*
X4672444Y-12622513D02*
X4681967Y-12603465D01*
X4681967Y-12603465D02*
X4691491Y-12593942D01*
X4691491Y-12593942D02*
X4710539Y-12584418D01*
X4862920Y-12784418D02*
X4862920Y-12651084D01*
X4862920Y-12670132D02*
X4872444Y-12660608D01*
X4872444Y-12660608D02*
X4891491Y-12651084D01*
X4891491Y-12651084D02*
X4920063Y-12651084D01*
X4920063Y-12651084D02*
X4939110Y-12660608D01*
X4939110Y-12660608D02*
X4948634Y-12679656D01*
X4948634Y-12679656D02*
X4948634Y-12784418D01*
X4948634Y-12679656D02*
X4958158Y-12660608D01*
X4958158Y-12660608D02*
X4977205Y-12651084D01*
X4977205Y-12651084D02*
X5005777Y-12651084D01*
X5005777Y-12651084D02*
X5024825Y-12660608D01*
X5024825Y-12660608D02*
X5034348Y-12679656D01*
X5034348Y-12679656D02*
X5034348Y-12784418D01*
X5129586Y-12784418D02*
X5129586Y-12651084D01*
X5129586Y-12670132D02*
X5139110Y-12660608D01*
X5139110Y-12660608D02*
X5158158Y-12651084D01*
X5158158Y-12651084D02*
X5186729Y-12651084D01*
X5186729Y-12651084D02*
X5205777Y-12660608D01*
X5205777Y-12660608D02*
X5215301Y-12679656D01*
X5215301Y-12679656D02*
X5215301Y-12784418D01*
X5215301Y-12679656D02*
X5224825Y-12660608D01*
X5224825Y-12660608D02*
X5243872Y-12651084D01*
X5243872Y-12651084D02*
X5272444Y-12651084D01*
X5272444Y-12651084D02*
X5291491Y-12660608D01*
X5291491Y-12660608D02*
X5301015Y-12679656D01*
X5301015Y-12679656D02*
X5301015Y-12784418D01*
X5691491Y-12574894D02*
X5520063Y-12832037D01*
X5948634Y-12584418D02*
X5967682Y-12584418D01*
X5967682Y-12584418D02*
X5986729Y-12593942D01*
X5986729Y-12593942D02*
X5996253Y-12603465D01*
X5996253Y-12603465D02*
X6005777Y-12622513D01*
X6005777Y-12622513D02*
X6015301Y-12660608D01*
X6015301Y-12660608D02*
X6015301Y-12708227D01*
X6015301Y-12708227D02*
X6005777Y-12746322D01*
X6005777Y-12746322D02*
X5996253Y-12765370D01*
X5996253Y-12765370D02*
X5986729Y-12774894D01*
X5986729Y-12774894D02*
X5967682Y-12784418D01*
X5967682Y-12784418D02*
X5948634Y-12784418D01*
X5948634Y-12784418D02*
X5929586Y-12774894D01*
X5929586Y-12774894D02*
X5920063Y-12765370D01*
X5920063Y-12765370D02*
X5910539Y-12746322D01*
X5910539Y-12746322D02*
X5901015Y-12708227D01*
X5901015Y-12708227D02*
X5901015Y-12660608D01*
X5901015Y-12660608D02*
X5910539Y-12622513D01*
X5910539Y-12622513D02*
X5920063Y-12603465D01*
X5920063Y-12603465D02*
X5929586Y-12593942D01*
X5929586Y-12593942D02*
X5948634Y-12584418D01*
X6101015Y-12765370D02*
X6110539Y-12774894D01*
X6110539Y-12774894D02*
X6101015Y-12784418D01*
X6101015Y-12784418D02*
X6091491Y-12774894D01*
X6091491Y-12774894D02*
X6101015Y-12765370D01*
X6101015Y-12765370D02*
X6101015Y-12784418D01*
X6301015Y-12784418D02*
X6186729Y-12784418D01*
X6243872Y-12784418D02*
X6243872Y-12584418D01*
X6243872Y-12584418D02*
X6224825Y-12612989D01*
X6224825Y-12612989D02*
X6205777Y-12632037D01*
X6205777Y-12632037D02*
X6186729Y-12641561D01*
X6481967Y-12584418D02*
X6386729Y-12584418D01*
X6386729Y-12584418D02*
X6377206Y-12679656D01*
X6377206Y-12679656D02*
X6386729Y-12670132D01*
X6386729Y-12670132D02*
X6405777Y-12660608D01*
X6405777Y-12660608D02*
X6453396Y-12660608D01*
X6453396Y-12660608D02*
X6472444Y-12670132D01*
X6472444Y-12670132D02*
X6481967Y-12679656D01*
X6481967Y-12679656D02*
X6491491Y-12698703D01*
X6491491Y-12698703D02*
X6491491Y-12746322D01*
X6491491Y-12746322D02*
X6481967Y-12765370D01*
X6481967Y-12765370D02*
X6472444Y-12774894D01*
X6472444Y-12774894D02*
X6453396Y-12784418D01*
X6453396Y-12784418D02*
X6405777Y-12784418D01*
X6405777Y-12784418D02*
X6386729Y-12774894D01*
X6386729Y-12774894D02*
X6377206Y-12765370D01*
X6558158Y-12584418D02*
X6691491Y-12584418D01*
X6691491Y-12584418D02*
X6605777Y-12784418D01*
X6862920Y-12584418D02*
X6767682Y-12584418D01*
X6767682Y-12584418D02*
X6758158Y-12679656D01*
X6758158Y-12679656D02*
X6767682Y-12670132D01*
X6767682Y-12670132D02*
X6786729Y-12660608D01*
X6786729Y-12660608D02*
X6834348Y-12660608D01*
X6834348Y-12660608D02*
X6853396Y-12670132D01*
X6853396Y-12670132D02*
X6862920Y-12679656D01*
X6862920Y-12679656D02*
X6872444Y-12698703D01*
X6872444Y-12698703D02*
X6872444Y-12746322D01*
X6872444Y-12746322D02*
X6862920Y-12765370D01*
X6862920Y-12765370D02*
X6853396Y-12774894D01*
X6853396Y-12774894D02*
X6834348Y-12784418D01*
X6834348Y-12784418D02*
X6786729Y-12784418D01*
X6786729Y-12784418D02*
X6767682Y-12774894D01*
X6767682Y-12774894D02*
X6758158Y-12765370D01*
X6948634Y-12584418D02*
X6948634Y-12622513D01*
X7024825Y-12584418D02*
X7024825Y-12622513D01*
X7320063Y-12860608D02*
X7310539Y-12851084D01*
X7310539Y-12851084D02*
X7291491Y-12822513D01*
X7291491Y-12822513D02*
X7281968Y-12803465D01*
X7281968Y-12803465D02*
X7272444Y-12774894D01*
X7272444Y-12774894D02*
X7262920Y-12727275D01*
X7262920Y-12727275D02*
X7262920Y-12689180D01*
X7262920Y-12689180D02*
X7272444Y-12641561D01*
X7272444Y-12641561D02*
X7281968Y-12612989D01*
X7281968Y-12612989D02*
X7291491Y-12593942D01*
X7291491Y-12593942D02*
X7310539Y-12565370D01*
X7310539Y-12565370D02*
X7320063Y-12555846D01*
X7481968Y-12651084D02*
X7481968Y-12784418D01*
X7434348Y-12574894D02*
X7386729Y-12717751D01*
X7386729Y-12717751D02*
X7510539Y-12717751D01*
X7739110Y-12784418D02*
X7739110Y-12584418D01*
X7824825Y-12784418D02*
X7824825Y-12679656D01*
X7824825Y-12679656D02*
X7815301Y-12660608D01*
X7815301Y-12660608D02*
X7796253Y-12651084D01*
X7796253Y-12651084D02*
X7767682Y-12651084D01*
X7767682Y-12651084D02*
X7748634Y-12660608D01*
X7748634Y-12660608D02*
X7739110Y-12670132D01*
X7948634Y-12784418D02*
X7929587Y-12774894D01*
X7929587Y-12774894D02*
X7920063Y-12765370D01*
X7920063Y-12765370D02*
X7910539Y-12746322D01*
X7910539Y-12746322D02*
X7910539Y-12689180D01*
X7910539Y-12689180D02*
X7920063Y-12670132D01*
X7920063Y-12670132D02*
X7929587Y-12660608D01*
X7929587Y-12660608D02*
X7948634Y-12651084D01*
X7948634Y-12651084D02*
X7977206Y-12651084D01*
X7977206Y-12651084D02*
X7996253Y-12660608D01*
X7996253Y-12660608D02*
X8005777Y-12670132D01*
X8005777Y-12670132D02*
X8015301Y-12689180D01*
X8015301Y-12689180D02*
X8015301Y-12746322D01*
X8015301Y-12746322D02*
X8005777Y-12765370D01*
X8005777Y-12765370D02*
X7996253Y-12774894D01*
X7996253Y-12774894D02*
X7977206Y-12784418D01*
X7977206Y-12784418D02*
X7948634Y-12784418D01*
X8129587Y-12784418D02*
X8110539Y-12774894D01*
X8110539Y-12774894D02*
X8101015Y-12755846D01*
X8101015Y-12755846D02*
X8101015Y-12584418D01*
X8281968Y-12774894D02*
X8262920Y-12784418D01*
X8262920Y-12784418D02*
X8224825Y-12784418D01*
X8224825Y-12784418D02*
X8205777Y-12774894D01*
X8205777Y-12774894D02*
X8196253Y-12755846D01*
X8196253Y-12755846D02*
X8196253Y-12679656D01*
X8196253Y-12679656D02*
X8205777Y-12660608D01*
X8205777Y-12660608D02*
X8224825Y-12651084D01*
X8224825Y-12651084D02*
X8262920Y-12651084D01*
X8262920Y-12651084D02*
X8281968Y-12660608D01*
X8281968Y-12660608D02*
X8291491Y-12679656D01*
X8291491Y-12679656D02*
X8291491Y-12698703D01*
X8291491Y-12698703D02*
X8196253Y-12717751D01*
X8367682Y-12774894D02*
X8386730Y-12784418D01*
X8386730Y-12784418D02*
X8424825Y-12784418D01*
X8424825Y-12784418D02*
X8443873Y-12774894D01*
X8443873Y-12774894D02*
X8453396Y-12755846D01*
X8453396Y-12755846D02*
X8453396Y-12746322D01*
X8453396Y-12746322D02*
X8443873Y-12727275D01*
X8443873Y-12727275D02*
X8424825Y-12717751D01*
X8424825Y-12717751D02*
X8396253Y-12717751D01*
X8396253Y-12717751D02*
X8377206Y-12708227D01*
X8377206Y-12708227D02*
X8367682Y-12689180D01*
X8367682Y-12689180D02*
X8367682Y-12679656D01*
X8367682Y-12679656D02*
X8377206Y-12660608D01*
X8377206Y-12660608D02*
X8396253Y-12651084D01*
X8396253Y-12651084D02*
X8424825Y-12651084D01*
X8424825Y-12651084D02*
X8443873Y-12660608D01*
X8520063Y-12860608D02*
X8529587Y-12851084D01*
X8529587Y-12851084D02*
X8548634Y-12822513D01*
X8548634Y-12822513D02*
X8558158Y-12803465D01*
X8558158Y-12803465D02*
X8567682Y-12774894D01*
X8567682Y-12774894D02*
X8577206Y-12727275D01*
X8577206Y-12727275D02*
X8577206Y-12689180D01*
X8577206Y-12689180D02*
X8567682Y-12641561D01*
X8567682Y-12641561D02*
X8558158Y-12612989D01*
X8558158Y-12612989D02*
X8548634Y-12593942D01*
X8548634Y-12593942D02*
X8529587Y-12565370D01*
X8529587Y-12565370D02*
X8520063Y-12555846D01*
X8881968Y-12860608D02*
X8872444Y-12851084D01*
X8872444Y-12851084D02*
X8853396Y-12822513D01*
X8853396Y-12822513D02*
X8843873Y-12803465D01*
X8843873Y-12803465D02*
X8834349Y-12774894D01*
X8834349Y-12774894D02*
X8824825Y-12727275D01*
X8824825Y-12727275D02*
X8824825Y-12689180D01*
X8824825Y-12689180D02*
X8834349Y-12641561D01*
X8834349Y-12641561D02*
X8843873Y-12612989D01*
X8843873Y-12612989D02*
X8853396Y-12593942D01*
X8853396Y-12593942D02*
X8872444Y-12565370D01*
X8872444Y-12565370D02*
X8881968Y-12555846D01*
X8958158Y-12651084D02*
X8958158Y-12784418D01*
X8958158Y-12670132D02*
X8967682Y-12660608D01*
X8967682Y-12660608D02*
X8986730Y-12651084D01*
X8986730Y-12651084D02*
X9015301Y-12651084D01*
X9015301Y-12651084D02*
X9034349Y-12660608D01*
X9034349Y-12660608D02*
X9043873Y-12679656D01*
X9043873Y-12679656D02*
X9043873Y-12784418D01*
X9167682Y-12784418D02*
X9148634Y-12774894D01*
X9148634Y-12774894D02*
X9139111Y-12765370D01*
X9139111Y-12765370D02*
X9129587Y-12746322D01*
X9129587Y-12746322D02*
X9129587Y-12689180D01*
X9129587Y-12689180D02*
X9139111Y-12670132D01*
X9139111Y-12670132D02*
X9148634Y-12660608D01*
X9148634Y-12660608D02*
X9167682Y-12651084D01*
X9167682Y-12651084D02*
X9196254Y-12651084D01*
X9196254Y-12651084D02*
X9215301Y-12660608D01*
X9215301Y-12660608D02*
X9224825Y-12670132D01*
X9224825Y-12670132D02*
X9234349Y-12689180D01*
X9234349Y-12689180D02*
X9234349Y-12746322D01*
X9234349Y-12746322D02*
X9224825Y-12765370D01*
X9224825Y-12765370D02*
X9215301Y-12774894D01*
X9215301Y-12774894D02*
X9196254Y-12784418D01*
X9196254Y-12784418D02*
X9167682Y-12784418D01*
X9291492Y-12651084D02*
X9367682Y-12651084D01*
X9320063Y-12584418D02*
X9320063Y-12755846D01*
X9320063Y-12755846D02*
X9329587Y-12774894D01*
X9329587Y-12774894D02*
X9348634Y-12784418D01*
X9348634Y-12784418D02*
X9367682Y-12784418D01*
X9586730Y-12651084D02*
X9586730Y-12851084D01*
X9586730Y-12660608D02*
X9605777Y-12651084D01*
X9605777Y-12651084D02*
X9643873Y-12651084D01*
X9643873Y-12651084D02*
X9662920Y-12660608D01*
X9662920Y-12660608D02*
X9672444Y-12670132D01*
X9672444Y-12670132D02*
X9681968Y-12689180D01*
X9681968Y-12689180D02*
X9681968Y-12746322D01*
X9681968Y-12746322D02*
X9672444Y-12765370D01*
X9672444Y-12765370D02*
X9662920Y-12774894D01*
X9662920Y-12774894D02*
X9643873Y-12784418D01*
X9643873Y-12784418D02*
X9605777Y-12784418D01*
X9605777Y-12784418D02*
X9586730Y-12774894D01*
X9796254Y-12784418D02*
X9777206Y-12774894D01*
X9777206Y-12774894D02*
X9767682Y-12755846D01*
X9767682Y-12755846D02*
X9767682Y-12584418D01*
X9958158Y-12784418D02*
X9958158Y-12679656D01*
X9958158Y-12679656D02*
X9948635Y-12660608D01*
X9948635Y-12660608D02*
X9929587Y-12651084D01*
X9929587Y-12651084D02*
X9891492Y-12651084D01*
X9891492Y-12651084D02*
X9872444Y-12660608D01*
X9958158Y-12774894D02*
X9939111Y-12784418D01*
X9939111Y-12784418D02*
X9891492Y-12784418D01*
X9891492Y-12784418D02*
X9872444Y-12774894D01*
X9872444Y-12774894D02*
X9862920Y-12755846D01*
X9862920Y-12755846D02*
X9862920Y-12736799D01*
X9862920Y-12736799D02*
X9872444Y-12717751D01*
X9872444Y-12717751D02*
X9891492Y-12708227D01*
X9891492Y-12708227D02*
X9939111Y-12708227D01*
X9939111Y-12708227D02*
X9958158Y-12698703D01*
X10024825Y-12651084D02*
X10101015Y-12651084D01*
X10053396Y-12584418D02*
X10053396Y-12755846D01*
X10053396Y-12755846D02*
X10062920Y-12774894D01*
X10062920Y-12774894D02*
X10081968Y-12784418D01*
X10081968Y-12784418D02*
X10101015Y-12784418D01*
X10243873Y-12774894D02*
X10224825Y-12784418D01*
X10224825Y-12784418D02*
X10186730Y-12784418D01*
X10186730Y-12784418D02*
X10167682Y-12774894D01*
X10167682Y-12774894D02*
X10158158Y-12755846D01*
X10158158Y-12755846D02*
X10158158Y-12679656D01*
X10158158Y-12679656D02*
X10167682Y-12660608D01*
X10167682Y-12660608D02*
X10186730Y-12651084D01*
X10186730Y-12651084D02*
X10224825Y-12651084D01*
X10224825Y-12651084D02*
X10243873Y-12660608D01*
X10243873Y-12660608D02*
X10253396Y-12679656D01*
X10253396Y-12679656D02*
X10253396Y-12698703D01*
X10253396Y-12698703D02*
X10158158Y-12717751D01*
X10424825Y-12784418D02*
X10424825Y-12584418D01*
X10424825Y-12774894D02*
X10405777Y-12784418D01*
X10405777Y-12784418D02*
X10367682Y-12784418D01*
X10367682Y-12784418D02*
X10348635Y-12774894D01*
X10348635Y-12774894D02*
X10339111Y-12765370D01*
X10339111Y-12765370D02*
X10329587Y-12746322D01*
X10329587Y-12746322D02*
X10329587Y-12689180D01*
X10329587Y-12689180D02*
X10339111Y-12670132D01*
X10339111Y-12670132D02*
X10348635Y-12660608D01*
X10348635Y-12660608D02*
X10367682Y-12651084D01*
X10367682Y-12651084D02*
X10405777Y-12651084D01*
X10405777Y-12651084D02*
X10424825Y-12660608D01*
X10501016Y-12860608D02*
X10510539Y-12851084D01*
X10510539Y-12851084D02*
X10529587Y-12822513D01*
X10529587Y-12822513D02*
X10539111Y-12803465D01*
X10539111Y-12803465D02*
X10548635Y-12774894D01*
X10548635Y-12774894D02*
X10558158Y-12727275D01*
X10558158Y-12727275D02*
X10558158Y-12689180D01*
X10558158Y-12689180D02*
X10548635Y-12641561D01*
X10548635Y-12641561D02*
X10539111Y-12612989D01*
X10539111Y-12612989D02*
X10529587Y-12593942D01*
X10529587Y-12593942D02*
X10510539Y-12565370D01*
X10510539Y-12565370D02*
X10501016Y-12555846D01*
M02*
