G04 #@! TF.GenerationSoftware,KiCad,Pcbnew,7.0.8*
G04 #@! TF.CreationDate,2023-10-16T23:50:00-07:00*
G04 #@! TF.ProjectId,Seismos_4-Key,53656973-6d6f-4735-9f34-2d4b65792e6b,rev?*
G04 #@! TF.SameCoordinates,Original*
G04 #@! TF.FileFunction,Copper,L1,Top*
G04 #@! TF.FilePolarity,Positive*
%FSLAX46Y46*%
G04 Gerber Fmt 4.6, Leading zero omitted, Abs format (unit mm)*
G04 Created by KiCad (PCBNEW 7.0.8) date 2023-10-16 23:50:00*
%MOMM*%
%LPD*%
G01*
G04 APERTURE LIST*
G04 #@! TA.AperFunction,SMDPad,CuDef*
%ADD10R,0.600000X1.550000*%
G04 #@! TD*
G04 #@! TA.AperFunction,SMDPad,CuDef*
%ADD11R,1.200000X1.800000*%
G04 #@! TD*
G04 #@! TA.AperFunction,ViaPad*
%ADD12C,0.800000*%
G04 #@! TD*
G04 #@! TA.AperFunction,Conductor*
%ADD13C,0.381000*%
G04 #@! TD*
G04 #@! TA.AperFunction,Conductor*
%ADD14C,0.254000*%
G04 #@! TD*
G04 APERTURE END LIST*
D10*
X51000000Y-30275000D03*
X50000000Y-30275000D03*
X49000000Y-30275000D03*
X48000000Y-30275000D03*
X47000000Y-30275000D03*
X46000000Y-30275000D03*
X45000000Y-30275000D03*
X44000000Y-30275000D03*
X43000000Y-30275000D03*
D11*
X52300000Y-26400000D03*
X41700000Y-26400000D03*
D12*
X42575000Y-51600000D03*
X39400000Y-42600000D03*
X39400000Y-61600000D03*
X39400000Y-80600000D03*
X39400000Y-99400000D03*
X41400000Y-33200000D03*
X39400000Y-51600000D03*
X39400000Y-70000000D03*
X39400000Y-89400000D03*
X48000000Y-32400000D03*
X50800000Y-38800000D03*
X53160500Y-90200000D03*
X52200000Y-35800000D03*
X53160500Y-52200000D03*
X53160500Y-71400000D03*
X53160500Y-91600000D03*
D13*
X43000000Y-30875000D02*
X43000000Y-29800000D01*
X39400000Y-42600000D02*
X39400000Y-41800000D01*
X39400000Y-98600000D02*
X38600000Y-97800000D01*
X39400000Y-80600000D02*
X39400000Y-79600000D01*
X43000000Y-30875000D02*
X43000000Y-28300000D01*
X38600000Y-60000000D02*
X38600000Y-77450000D01*
X38600000Y-77450000D02*
X38600000Y-78800000D01*
X42400000Y-32400000D02*
X40000000Y-32400000D01*
X39400000Y-41800000D02*
X38600000Y-41000000D01*
X38600000Y-97800000D02*
X38600000Y-78800000D01*
X39400000Y-79600000D02*
X38600000Y-78800000D01*
X43000000Y-31800000D02*
X42400000Y-32400000D01*
X39400000Y-60800000D02*
X38600000Y-60000000D01*
X43000000Y-30875000D02*
X43000000Y-31800000D01*
X38600000Y-41000000D02*
X38600000Y-60000000D01*
X43000000Y-29800000D02*
X45800000Y-27000000D01*
X40000000Y-32400000D02*
X38600000Y-33800000D01*
X39400000Y-61600000D02*
X39400000Y-60800000D01*
X45800000Y-27000000D02*
X52300000Y-27000000D01*
X39400000Y-99400000D02*
X39400000Y-98600000D01*
X43000000Y-28300000D02*
X41700000Y-27000000D01*
X38600000Y-33800000D02*
X38600000Y-41000000D01*
D14*
X42650000Y-33200000D02*
X44000000Y-31850000D01*
X41400000Y-33200000D02*
X42650000Y-33200000D01*
X44000000Y-31850000D02*
X44000000Y-30875000D01*
X45000000Y-31850000D02*
X43050000Y-33800000D01*
X40100000Y-35500000D02*
X40100000Y-43000000D01*
X39200000Y-51400000D02*
X39400000Y-51600000D01*
X43050000Y-33800000D02*
X41800000Y-33800000D01*
X39200000Y-43900000D02*
X39200000Y-51400000D01*
X40100000Y-43000000D02*
X39200000Y-43900000D01*
X41800000Y-33800000D02*
X40100000Y-35500000D01*
X45000000Y-30875000D02*
X45000000Y-31850000D01*
X43600000Y-42000000D02*
X42900000Y-42700000D01*
X42900000Y-42700000D02*
X41200000Y-42700000D01*
X43600000Y-34250000D02*
X43600000Y-42000000D01*
X41200000Y-42700000D02*
X39900000Y-44000000D01*
X46000000Y-31850000D02*
X43600000Y-34250000D01*
X39900000Y-44000000D02*
X39900000Y-51110050D01*
X40100000Y-51310050D02*
X40100000Y-61900000D01*
X39900000Y-51110050D02*
X40100000Y-51310050D01*
X40100000Y-61900000D02*
X39400000Y-62600000D01*
X46000000Y-30875000D02*
X46000000Y-31850000D01*
X39400000Y-62600000D02*
X39400000Y-70000000D01*
X43600000Y-60600000D02*
X42400000Y-61800000D01*
X44200000Y-42600000D02*
X45800000Y-44200000D01*
X40127000Y-69698866D02*
X40127000Y-80901134D01*
X47000000Y-30875000D02*
X47000000Y-31800000D01*
X49000000Y-45600000D02*
X49000000Y-48000000D01*
X44200000Y-34600000D02*
X44200000Y-42600000D01*
X41200000Y-61800000D02*
X39975000Y-63025000D01*
X47000000Y-31800000D02*
X44200000Y-34600000D01*
X45800000Y-44200000D02*
X47600000Y-44200000D01*
X47600000Y-44200000D02*
X49000000Y-45600000D01*
X40127000Y-80901134D02*
X39400000Y-81628134D01*
X43600000Y-53400000D02*
X43600000Y-60600000D01*
X42400000Y-61800000D02*
X41200000Y-61800000D01*
X49000000Y-48000000D02*
X43600000Y-53400000D01*
X39400000Y-81628134D02*
X39400000Y-89400000D01*
X39975000Y-69546866D02*
X40127000Y-69698866D01*
X39975000Y-63025000D02*
X39975000Y-69546866D01*
D13*
X48000000Y-30275000D02*
X48000000Y-32400000D01*
D14*
X49000000Y-30875000D02*
X49000000Y-37000000D01*
X49000000Y-37000000D02*
X50800000Y-38800000D01*
D13*
X54450000Y-36850000D02*
X54450000Y-88910500D01*
X52200000Y-34600000D02*
X54450000Y-36850000D01*
X52200000Y-34600000D02*
X52200000Y-35800000D01*
X54450000Y-70110500D02*
X53160500Y-71400000D01*
X50000000Y-32400000D02*
X52200000Y-34600000D01*
X53160500Y-52200000D02*
X54450000Y-50910500D01*
X54450000Y-88910500D02*
X53160500Y-90200000D01*
X50000000Y-30875000D02*
X50000000Y-32400000D01*
X55425000Y-89375000D02*
X55425000Y-35300000D01*
X55425000Y-35300000D02*
X51000000Y-30875000D01*
X53160500Y-91600000D02*
X53200000Y-91600000D01*
X53200000Y-91600000D02*
X55425000Y-89375000D01*
G04 #@! TA.AperFunction,Conductor*
G36*
X49010700Y-30301714D02*
G01*
X49010913Y-30302228D01*
X49297983Y-31044782D01*
X49297770Y-31053734D01*
X49297205Y-31054846D01*
X49130376Y-31344145D01*
X49123275Y-31349600D01*
X49120241Y-31350000D01*
X48879759Y-31350000D01*
X48871486Y-31346573D01*
X48869624Y-31344145D01*
X48799347Y-31222279D01*
X48702793Y-31054844D01*
X48701629Y-31045967D01*
X48702009Y-31044803D01*
X48989087Y-30302227D01*
X48995267Y-30295747D01*
X49004219Y-30295534D01*
X49010700Y-30301714D01*
G37*
G04 #@! TD.AperFunction*
G04 #@! TA.AperFunction,Conductor*
G36*
X53597775Y-51505905D02*
G01*
X53854594Y-51762724D01*
X53858021Y-51770997D01*
X53856501Y-51776764D01*
X53535139Y-52344092D01*
X53528080Y-52349601D01*
X53520507Y-52349145D01*
X53164304Y-52202563D01*
X53157957Y-52196245D01*
X53157936Y-52196195D01*
X53011354Y-51839992D01*
X53011375Y-51831038D01*
X53016404Y-51825362D01*
X53583736Y-51503997D01*
X53592623Y-51502902D01*
X53597775Y-51505905D01*
G37*
G04 #@! TD.AperFunction*
G04 #@! TA.AperFunction,Conductor*
G36*
X52389871Y-35003427D02*
G01*
X52392874Y-35008579D01*
X52566798Y-35636979D01*
X52565702Y-35645867D01*
X52560024Y-35650899D01*
X52204502Y-35799123D01*
X52195548Y-35799144D01*
X52195498Y-35799123D01*
X51839975Y-35650899D01*
X51833657Y-35644552D01*
X51833201Y-35636979D01*
X52007126Y-35008579D01*
X52012635Y-35001520D01*
X52018402Y-35000000D01*
X52381598Y-35000000D01*
X52389871Y-35003427D01*
G37*
G04 #@! TD.AperFunction*
G04 #@! TA.AperFunction,Conductor*
G36*
X48189871Y-31603427D02*
G01*
X48192874Y-31608579D01*
X48366798Y-32236979D01*
X48365702Y-32245867D01*
X48360024Y-32250899D01*
X48004502Y-32399123D01*
X47995548Y-32399144D01*
X47995498Y-32399123D01*
X47639975Y-32250899D01*
X47633657Y-32244552D01*
X47633201Y-32236979D01*
X47807126Y-31608579D01*
X47812635Y-31601520D01*
X47818402Y-31600000D01*
X48181598Y-31600000D01*
X48189871Y-31603427D01*
G37*
G04 #@! TD.AperFunction*
G04 #@! TA.AperFunction,Conductor*
G36*
X39527165Y-88603427D02*
G01*
X39529847Y-88607593D01*
X39765591Y-89236362D01*
X39765287Y-89245311D01*
X39759138Y-89251268D01*
X39404502Y-89399123D01*
X39395548Y-89399144D01*
X39395498Y-89399123D01*
X39040861Y-89251268D01*
X39034543Y-89244921D01*
X39034408Y-89236364D01*
X39270153Y-88607592D01*
X39276266Y-88601049D01*
X39281108Y-88600000D01*
X39518892Y-88600000D01*
X39527165Y-88603427D01*
G37*
G04 #@! TD.AperFunction*
G04 #@! TA.AperFunction,Conductor*
G36*
X53613325Y-90929313D02*
G01*
X53870159Y-91186147D01*
X53873586Y-91194420D01*
X53871836Y-91200575D01*
X53535274Y-91744630D01*
X53528007Y-91749863D01*
X53520872Y-91749295D01*
X53164304Y-91602563D01*
X53157957Y-91596245D01*
X53157936Y-91596195D01*
X53011524Y-91240405D01*
X53011545Y-91231451D01*
X53017010Y-91225541D01*
X53599720Y-90927171D01*
X53608645Y-90926451D01*
X53613325Y-90929313D01*
G37*
G04 #@! TD.AperFunction*
G04 #@! TA.AperFunction,Conductor*
G36*
X46010700Y-30301714D02*
G01*
X46010913Y-30302228D01*
X46297983Y-31044782D01*
X46297770Y-31053734D01*
X46297205Y-31054846D01*
X46130376Y-31344145D01*
X46123275Y-31349600D01*
X46120241Y-31350000D01*
X45879759Y-31350000D01*
X45871486Y-31346573D01*
X45869624Y-31344145D01*
X45799347Y-31222279D01*
X45702793Y-31054844D01*
X45701629Y-31045967D01*
X45702009Y-31044803D01*
X45989087Y-30302227D01*
X45995267Y-30295747D01*
X46004219Y-30295534D01*
X46010700Y-30301714D01*
G37*
G04 #@! TD.AperFunction*
G04 #@! TA.AperFunction,Conductor*
G36*
X47010700Y-30301714D02*
G01*
X47010913Y-30302228D01*
X47297983Y-31044782D01*
X47297770Y-31053734D01*
X47297205Y-31054846D01*
X47130376Y-31344145D01*
X47123275Y-31349600D01*
X47120241Y-31350000D01*
X46879759Y-31350000D01*
X46871486Y-31346573D01*
X46869624Y-31344145D01*
X46799347Y-31222279D01*
X46702793Y-31054844D01*
X46701629Y-31045967D01*
X46702009Y-31044803D01*
X46989087Y-30302227D01*
X46995267Y-30295747D01*
X47004219Y-30295534D01*
X47010700Y-30301714D01*
G37*
G04 #@! TD.AperFunction*
G04 #@! TA.AperFunction,Conductor*
G36*
X39329567Y-50865230D02*
G01*
X39330513Y-50866299D01*
X39579185Y-51184512D01*
X39581488Y-51189684D01*
X39586679Y-51219121D01*
X39587503Y-51223789D01*
X39590809Y-51229515D01*
X39594050Y-51235130D01*
X39595218Y-51237950D01*
X39598606Y-51250593D01*
X39598607Y-51250594D01*
X39623379Y-51285972D01*
X39623653Y-51286403D01*
X39645250Y-51323810D01*
X39645251Y-51323811D01*
X39652347Y-51329765D01*
X39656482Y-51337708D01*
X39653790Y-51346248D01*
X39653115Y-51346986D01*
X39403441Y-51597545D01*
X39395174Y-51600987D01*
X39395124Y-51600987D01*
X39012881Y-51600032D01*
X39004616Y-51596584D01*
X39001210Y-51588303D01*
X39001266Y-51587194D01*
X39071957Y-50872352D01*
X39076181Y-50864456D01*
X39083600Y-50861803D01*
X39321294Y-50861803D01*
X39329567Y-50865230D01*
G37*
G04 #@! TD.AperFunction*
G04 #@! TA.AperFunction,Conductor*
G36*
X48010700Y-30301714D02*
G01*
X48010913Y-30302228D01*
X48298414Y-31045898D01*
X48298492Y-31054129D01*
X48193306Y-31342312D01*
X48187250Y-31348908D01*
X48182315Y-31350000D01*
X47817685Y-31350000D01*
X47809412Y-31346573D01*
X47806694Y-31342312D01*
X47701507Y-31054129D01*
X47701584Y-31045900D01*
X47989087Y-30302227D01*
X47995267Y-30295747D01*
X48004219Y-30295534D01*
X48010700Y-30301714D01*
G37*
G04 #@! TD.AperFunction*
G04 #@! TA.AperFunction,Conductor*
G36*
X50331495Y-38147866D02*
G01*
X50735419Y-38331498D01*
X50942801Y-38425778D01*
X50948914Y-38432322D01*
X50948779Y-38440881D01*
X50802563Y-38796195D01*
X50796245Y-38802542D01*
X50796195Y-38802563D01*
X50440881Y-38948779D01*
X50431927Y-38948758D01*
X50425778Y-38942801D01*
X50362023Y-38802563D01*
X50147866Y-38331496D01*
X50147563Y-38322549D01*
X50150243Y-38318385D01*
X50318384Y-38150244D01*
X50326656Y-38146818D01*
X50331495Y-38147866D01*
G37*
G04 #@! TD.AperFunction*
G04 #@! TA.AperFunction,Conductor*
G36*
X39527165Y-69203427D02*
G01*
X39529846Y-69207592D01*
X39646755Y-69519408D01*
X39647500Y-69523512D01*
X39647500Y-69532318D01*
X39647478Y-69532812D01*
X39646075Y-69548853D01*
X39643712Y-69575847D01*
X39643712Y-69575848D01*
X39654891Y-69617567D01*
X39655001Y-69618063D01*
X39662503Y-69660605D01*
X39665809Y-69666331D01*
X39669050Y-69671946D01*
X39670218Y-69674766D01*
X39673606Y-69687409D01*
X39673607Y-69687410D01*
X39698379Y-69722788D01*
X39698651Y-69723217D01*
X39720250Y-69760626D01*
X39742618Y-69779395D01*
X39746051Y-69784247D01*
X39765590Y-69836362D01*
X39765287Y-69845311D01*
X39759138Y-69851268D01*
X39404502Y-69999123D01*
X39395548Y-69999144D01*
X39395498Y-69999123D01*
X39040861Y-69851268D01*
X39034543Y-69844921D01*
X39034408Y-69836364D01*
X39270153Y-69207592D01*
X39276266Y-69201049D01*
X39281108Y-69200000D01*
X39518892Y-69200000D01*
X39527165Y-69203427D01*
G37*
G04 #@! TD.AperFunction*
G04 #@! TA.AperFunction,Conductor*
G36*
X53597775Y-70705905D02*
G01*
X53854594Y-70962724D01*
X53858021Y-70970997D01*
X53856501Y-70976764D01*
X53535139Y-71544092D01*
X53528080Y-71549601D01*
X53520507Y-71549145D01*
X53164304Y-71402563D01*
X53157957Y-71396245D01*
X53157936Y-71396195D01*
X53011354Y-71039992D01*
X53011375Y-71031038D01*
X53016404Y-71025362D01*
X53583736Y-70703997D01*
X53592623Y-70702902D01*
X53597775Y-70705905D01*
G37*
G04 #@! TD.AperFunction*
G04 #@! TA.AperFunction,Conductor*
G36*
X50010700Y-30301714D02*
G01*
X50010913Y-30302228D01*
X50298414Y-31045898D01*
X50298492Y-31054129D01*
X50193306Y-31342312D01*
X50187250Y-31348908D01*
X50182315Y-31350000D01*
X49817685Y-31350000D01*
X49809412Y-31346573D01*
X49806694Y-31342312D01*
X49701507Y-31054129D01*
X49701584Y-31045900D01*
X49989087Y-30302227D01*
X49995267Y-30295747D01*
X50004219Y-30295534D01*
X50010700Y-30301714D01*
G37*
G04 #@! TD.AperFunction*
G04 #@! TA.AperFunction,Conductor*
G36*
X42192407Y-33070153D02*
G01*
X42198951Y-33076266D01*
X42200000Y-33081108D01*
X42200000Y-33318891D01*
X42196573Y-33327164D01*
X42192407Y-33329846D01*
X41814858Y-33471399D01*
X41809731Y-33472099D01*
X41771019Y-33468712D01*
X41771017Y-33468712D01*
X41729297Y-33479891D01*
X41728796Y-33480002D01*
X41686261Y-33487503D01*
X41682585Y-33489624D01*
X41674918Y-33494050D01*
X41672100Y-33495217D01*
X41659458Y-33498605D01*
X41659452Y-33498608D01*
X41624075Y-33523379D01*
X41623645Y-33523653D01*
X41586244Y-33545246D01*
X41586238Y-33545252D01*
X41573687Y-33560208D01*
X41568832Y-33563642D01*
X41563636Y-33565590D01*
X41554687Y-33565286D01*
X41548731Y-33559138D01*
X41400875Y-33204499D01*
X41400855Y-33195550D01*
X41548732Y-32840859D01*
X41555078Y-32834543D01*
X41563635Y-32834408D01*
X42192407Y-33070153D01*
G37*
G04 #@! TD.AperFunction*
G04 #@! TA.AperFunction,Conductor*
G36*
X45010700Y-30301714D02*
G01*
X45010913Y-30302228D01*
X45297983Y-31044782D01*
X45297770Y-31053734D01*
X45297205Y-31054846D01*
X45130376Y-31344145D01*
X45123275Y-31349600D01*
X45120241Y-31350000D01*
X44879759Y-31350000D01*
X44871486Y-31346573D01*
X44869624Y-31344145D01*
X44799347Y-31222279D01*
X44702793Y-31054844D01*
X44701629Y-31045967D01*
X44702009Y-31044803D01*
X44989087Y-30302227D01*
X44995267Y-30295747D01*
X45004219Y-30295534D01*
X45010700Y-30301714D01*
G37*
G04 #@! TD.AperFunction*
G04 #@! TA.AperFunction,Conductor*
G36*
X53597775Y-89505905D02*
G01*
X53854594Y-89762724D01*
X53858021Y-89770997D01*
X53856501Y-89776764D01*
X53535139Y-90344092D01*
X53528080Y-90349601D01*
X53520507Y-90349145D01*
X53164304Y-90202563D01*
X53157957Y-90196245D01*
X53157936Y-90196195D01*
X53011354Y-89839992D01*
X53011375Y-89831038D01*
X53016404Y-89825362D01*
X53583736Y-89503997D01*
X53592623Y-89502902D01*
X53597775Y-89505905D01*
G37*
G04 #@! TD.AperFunction*
G04 #@! TA.AperFunction,Conductor*
G36*
X40740703Y-46017488D02*
G01*
X40750399Y-46026861D01*
X40806010Y-46086797D01*
X40806012Y-46086799D01*
X40806017Y-46086803D01*
X40806019Y-46086805D01*
X41011143Y-46250386D01*
X41238357Y-46381568D01*
X41482584Y-46477420D01*
X41738370Y-46535802D01*
X41738376Y-46535802D01*
X41738379Y-46535803D01*
X41934500Y-46550500D01*
X41934506Y-46550500D01*
X42065500Y-46550500D01*
X42261620Y-46535803D01*
X42261622Y-46535802D01*
X42261630Y-46535802D01*
X42517416Y-46477420D01*
X42601111Y-46444571D01*
X42670705Y-46438403D01*
X42732588Y-46470840D01*
X42764900Y-46523448D01*
X42825937Y-46721323D01*
X42825938Y-46721326D01*
X42939767Y-46957696D01*
X42939768Y-46957697D01*
X42939770Y-46957700D01*
X42939772Y-46957704D01*
X43087567Y-47174479D01*
X43266014Y-47366801D01*
X43266018Y-47366804D01*
X43266019Y-47366805D01*
X43471143Y-47530386D01*
X43698357Y-47661568D01*
X43942584Y-47757420D01*
X44198370Y-47815802D01*
X44198376Y-47815802D01*
X44198379Y-47815803D01*
X44394500Y-47830500D01*
X44394506Y-47830500D01*
X44525500Y-47830500D01*
X44721620Y-47815803D01*
X44721622Y-47815802D01*
X44721630Y-47815802D01*
X44977416Y-47757420D01*
X45221643Y-47661568D01*
X45221646Y-47661566D01*
X45221647Y-47661566D01*
X45264118Y-47637045D01*
X45332018Y-47620571D01*
X45398045Y-47643423D01*
X45437839Y-47690630D01*
X45479767Y-47777695D01*
X45479768Y-47777697D01*
X45479770Y-47777700D01*
X45479772Y-47777704D01*
X45505747Y-47815802D01*
X45627567Y-47994479D01*
X45806014Y-48186801D01*
X45806018Y-48186804D01*
X45806019Y-48186805D01*
X46011143Y-48350386D01*
X46238357Y-48481568D01*
X46482584Y-48577420D01*
X46738370Y-48635802D01*
X46738376Y-48635802D01*
X46738379Y-48635803D01*
X46934500Y-48650500D01*
X46934506Y-48650500D01*
X47065499Y-48650500D01*
X47111596Y-48647045D01*
X47148720Y-48644263D01*
X47217043Y-48658882D01*
X47266616Y-48708119D01*
X47281700Y-48776340D01*
X47257507Y-48841888D01*
X47245668Y-48855597D01*
X43209921Y-52891344D01*
X43197531Y-52901272D01*
X43197702Y-52901479D01*
X43191696Y-52906447D01*
X43166878Y-52932875D01*
X43143573Y-52957693D01*
X43136503Y-52964763D01*
X43122365Y-52978900D01*
X43122363Y-52978902D01*
X43118008Y-52984516D01*
X43114218Y-52988953D01*
X43081782Y-53023494D01*
X43081781Y-53023496D01*
X43071900Y-53041468D01*
X43061225Y-53057719D01*
X43048652Y-53073929D01*
X43048649Y-53073933D01*
X43029827Y-53117428D01*
X43027257Y-53122674D01*
X43004430Y-53164197D01*
X42999329Y-53184064D01*
X42993030Y-53202462D01*
X42984884Y-53221287D01*
X42984881Y-53221296D01*
X42977469Y-53268098D01*
X42976284Y-53273820D01*
X42964500Y-53319711D01*
X42964500Y-53340225D01*
X42962973Y-53359624D01*
X42959765Y-53379877D01*
X42964225Y-53427059D01*
X42964500Y-53432897D01*
X42964500Y-58988370D01*
X42944815Y-59055409D01*
X42892011Y-59101164D01*
X42822853Y-59111108D01*
X42759297Y-59082083D01*
X42747417Y-59070294D01*
X42672564Y-58985245D01*
X42586845Y-58916032D01*
X42487080Y-58835477D01*
X42373130Y-58771820D01*
X42278955Y-58719210D01*
X42054170Y-58639788D01*
X41819209Y-58599500D01*
X41819200Y-58599500D01*
X41640503Y-58599500D01*
X41640498Y-58599500D01*
X41462463Y-58614652D01*
X41231751Y-58674724D01*
X41014519Y-58772919D01*
X41014505Y-58772927D01*
X40928936Y-58830762D01*
X40862371Y-58851994D01*
X40794893Y-58833866D01*
X40747928Y-58782136D01*
X40735500Y-58728027D01*
X40735500Y-56428133D01*
X41025668Y-56428133D01*
X41041058Y-56515410D01*
X41056135Y-56600911D01*
X41125623Y-56762004D01*
X41125624Y-56762006D01*
X41125626Y-56762009D01*
X41180278Y-56835418D01*
X41230390Y-56902730D01*
X41364786Y-57015502D01*
X41442488Y-57054525D01*
X41521562Y-57094238D01*
X41521563Y-57094238D01*
X41521567Y-57094240D01*
X41692279Y-57134700D01*
X41692282Y-57134700D01*
X41823701Y-57134700D01*
X41823709Y-57134700D01*
X41954255Y-57119441D01*
X42119117Y-57059437D01*
X42265696Y-56963030D01*
X42386092Y-56835418D01*
X42473812Y-56683481D01*
X42524130Y-56515410D01*
X42534331Y-56340265D01*
X42503865Y-56167489D01*
X42434377Y-56006396D01*
X42329610Y-55865670D01*
X42257747Y-55805370D01*
X42195214Y-55752898D01*
X42195212Y-55752897D01*
X42038437Y-55674161D01*
X42038433Y-55674160D01*
X41867721Y-55633700D01*
X41736291Y-55633700D01*
X41631854Y-55645907D01*
X41605743Y-55648959D01*
X41605740Y-55648960D01*
X41440884Y-55708962D01*
X41440880Y-55708964D01*
X41294306Y-55805367D01*
X41294305Y-55805368D01*
X41173910Y-55932978D01*
X41086188Y-56084918D01*
X41035870Y-56252989D01*
X41035869Y-56252994D01*
X41025668Y-56428133D01*
X40735500Y-56428133D01*
X40735500Y-51393901D01*
X40737242Y-51378119D01*
X40736975Y-51378094D01*
X40737707Y-51370338D01*
X40737709Y-51370331D01*
X40735500Y-51300046D01*
X40735500Y-51270067D01*
X40734610Y-51263032D01*
X40734153Y-51257214D01*
X40732665Y-51209845D01*
X40726941Y-51190143D01*
X40722997Y-51171099D01*
X40720427Y-51150751D01*
X40702973Y-51106668D01*
X40701098Y-51101192D01*
X40687869Y-51055657D01*
X40687868Y-51055656D01*
X40687868Y-51055654D01*
X40677428Y-51038002D01*
X40668869Y-51020532D01*
X40661319Y-51001462D01*
X40633468Y-50963130D01*
X40630261Y-50958247D01*
X40620526Y-50941786D01*
X40606135Y-50917452D01*
X40606133Y-50917450D01*
X40606128Y-50917444D01*
X40591633Y-50902949D01*
X40578995Y-50888153D01*
X40562356Y-50865251D01*
X40564104Y-50863980D01*
X40537566Y-50811525D01*
X40535500Y-50788985D01*
X40535500Y-46111201D01*
X40555185Y-46044162D01*
X40607989Y-45998407D01*
X40677147Y-45988463D01*
X40740703Y-46017488D01*
G37*
G04 #@! TD.AperFunction*
G04 #@! TA.AperFunction,Conductor*
G36*
X40668662Y-25020185D02*
G01*
X40714417Y-25072989D01*
X40724361Y-25142147D01*
X40700889Y-25198812D01*
X40656647Y-25257910D01*
X40656645Y-25257913D01*
X40606403Y-25392620D01*
X40606401Y-25392627D01*
X40600000Y-25452155D01*
X40600000Y-26150000D01*
X42800000Y-26150000D01*
X42800000Y-25452172D01*
X42799999Y-25452155D01*
X42793598Y-25392627D01*
X42793596Y-25392620D01*
X42743354Y-25257913D01*
X42743352Y-25257910D01*
X42699111Y-25198812D01*
X42674693Y-25133348D01*
X42689544Y-25065074D01*
X42738949Y-25015669D01*
X42798377Y-25000500D01*
X51201623Y-25000500D01*
X51268662Y-25020185D01*
X51314417Y-25072989D01*
X51324361Y-25142147D01*
X51300889Y-25198812D01*
X51256647Y-25257910D01*
X51256645Y-25257913D01*
X51206403Y-25392620D01*
X51206401Y-25392627D01*
X51200000Y-25452155D01*
X51200000Y-26150000D01*
X53400000Y-26150000D01*
X53400000Y-25452172D01*
X53399999Y-25452155D01*
X53393598Y-25392627D01*
X53393596Y-25392620D01*
X53343354Y-25257913D01*
X53343352Y-25257910D01*
X53299111Y-25198812D01*
X53274693Y-25133348D01*
X53289544Y-25065074D01*
X53338949Y-25015669D01*
X53398377Y-25000500D01*
X53575500Y-25000500D01*
X53642539Y-25020185D01*
X53688294Y-25072989D01*
X53699500Y-25124500D01*
X53699500Y-30975467D01*
X53699416Y-30975889D01*
X53699459Y-31000001D01*
X53699500Y-31000099D01*
X53699616Y-31000382D01*
X53699618Y-31000384D01*
X53699808Y-31000462D01*
X53700000Y-31000541D01*
X53700002Y-31000539D01*
X53724616Y-31000524D01*
X53724616Y-31000528D01*
X53724760Y-31000500D01*
X56375500Y-31000500D01*
X56442539Y-31020185D01*
X56488294Y-31072989D01*
X56499500Y-31124500D01*
X56499500Y-109937120D01*
X56499342Y-109941546D01*
X56494517Y-110008983D01*
X56482945Y-110155961D01*
X56481718Y-110164284D01*
X56461093Y-110259092D01*
X56433133Y-110375537D01*
X56430935Y-110382735D01*
X56395001Y-110479077D01*
X56351052Y-110585173D01*
X56348185Y-110591165D01*
X56298446Y-110682249D01*
X56296894Y-110684930D01*
X56238508Y-110780206D01*
X56235276Y-110784969D01*
X56172556Y-110868750D01*
X56170067Y-110871862D01*
X56097988Y-110956251D01*
X56094683Y-110959827D01*
X56020492Y-111034015D01*
X56016916Y-111037321D01*
X55932542Y-111109382D01*
X55929430Y-111111871D01*
X55845631Y-111174601D01*
X55840869Y-111177832D01*
X55745586Y-111236221D01*
X55742904Y-111237773D01*
X55651843Y-111287495D01*
X55645852Y-111290362D01*
X55539717Y-111334324D01*
X55443408Y-111370243D01*
X55436210Y-111372441D01*
X55319716Y-111400410D01*
X55224935Y-111421027D01*
X55216622Y-111422254D01*
X55073446Y-111433547D01*
X55037656Y-111436106D01*
X55001646Y-111438682D01*
X54997228Y-111438840D01*
X39002214Y-111438840D01*
X38997791Y-111438682D01*
X38976402Y-111437152D01*
X38930331Y-111433857D01*
X38783364Y-111422290D01*
X38775041Y-111421063D01*
X38680251Y-111400443D01*
X38649695Y-111393107D01*
X38563777Y-111372480D01*
X38556578Y-111370282D01*
X38460261Y-111334358D01*
X38354138Y-111290402D01*
X38348147Y-111287535D01*
X38257064Y-111237801D01*
X38254382Y-111236249D01*
X38159102Y-111177862D01*
X38154339Y-111174630D01*
X38070564Y-111111918D01*
X38067453Y-111109430D01*
X37983053Y-111037348D01*
X37979477Y-111034042D01*
X37905276Y-110959842D01*
X37901979Y-110956277D01*
X37829903Y-110871889D01*
X37827417Y-110868782D01*
X37806493Y-110840832D01*
X37764680Y-110784978D01*
X37761460Y-110780233D01*
X37703041Y-110684905D01*
X37701546Y-110682323D01*
X37651767Y-110591164D01*
X37648925Y-110585223D01*
X37604956Y-110479077D01*
X37586962Y-110430839D01*
X37569027Y-110382753D01*
X37566829Y-110375554D01*
X37538863Y-110259082D01*
X37518247Y-110164320D01*
X37517019Y-110155986D01*
X37517017Y-110155961D01*
X37505147Y-110004868D01*
X37500657Y-109942120D01*
X37500500Y-109937695D01*
X37500500Y-108500000D01*
X38994357Y-108500000D01*
X39002029Y-108592589D01*
X39002350Y-108596456D01*
X39002562Y-108601579D01*
X39002562Y-108624081D01*
X39006265Y-108646282D01*
X39006899Y-108651365D01*
X39014891Y-108747816D01*
X39014891Y-108747818D01*
X39038654Y-108841657D01*
X39039705Y-108846672D01*
X39043407Y-108868854D01*
X39043409Y-108868862D01*
X39050714Y-108890141D01*
X39052176Y-108895053D01*
X39075935Y-108988874D01*
X39075939Y-108988887D01*
X39114815Y-109077515D01*
X39116677Y-109082286D01*
X39123986Y-109103576D01*
X39123988Y-109103579D01*
X39134698Y-109123371D01*
X39136948Y-109127975D01*
X39175827Y-109216608D01*
X39228764Y-109297634D01*
X39231388Y-109302038D01*
X39242095Y-109321823D01*
X39242098Y-109321828D01*
X39255926Y-109339595D01*
X39258903Y-109343765D01*
X39311834Y-109424782D01*
X39311838Y-109424787D01*
X39377393Y-109496000D01*
X39380706Y-109499911D01*
X39394522Y-109517662D01*
X39411080Y-109532905D01*
X39414694Y-109536519D01*
X39480256Y-109607738D01*
X39556651Y-109667199D01*
X39560547Y-109670499D01*
X39566913Y-109676360D01*
X39577099Y-109685737D01*
X39595936Y-109698044D01*
X39600102Y-109701018D01*
X39676491Y-109760474D01*
X39761640Y-109806554D01*
X39766001Y-109809153D01*
X39784855Y-109821471D01*
X39805494Y-109830524D01*
X39810033Y-109832743D01*
X39895190Y-109878828D01*
X39986754Y-109910262D01*
X39991489Y-109912109D01*
X40012116Y-109921157D01*
X40033932Y-109926681D01*
X40038816Y-109928135D01*
X40110089Y-109952603D01*
X40130385Y-109959571D01*
X40164189Y-109965211D01*
X40225866Y-109975503D01*
X40230879Y-109976555D01*
X40252676Y-109982075D01*
X40252678Y-109982075D01*
X40252685Y-109982077D01*
X40275125Y-109983936D01*
X40280169Y-109984564D01*
X40375665Y-110000500D01*
X40375666Y-110000500D01*
X40472448Y-110000500D01*
X40477561Y-110000711D01*
X40493415Y-110002025D01*
X40499998Y-110002571D01*
X40500000Y-110002571D01*
X40500002Y-110002571D01*
X40506584Y-110002025D01*
X40522438Y-110000711D01*
X40527552Y-110000500D01*
X40624330Y-110000500D01*
X40624335Y-110000500D01*
X40719851Y-109984561D01*
X40724862Y-109983937D01*
X40747315Y-109982077D01*
X40769153Y-109976546D01*
X40774105Y-109975508D01*
X40869614Y-109959571D01*
X40961198Y-109928129D01*
X40966042Y-109926688D01*
X40987884Y-109921157D01*
X41008500Y-109912113D01*
X41013234Y-109910265D01*
X41104810Y-109878828D01*
X41189975Y-109832738D01*
X41194505Y-109830524D01*
X41215145Y-109821471D01*
X41234008Y-109809146D01*
X41238337Y-109806566D01*
X41323509Y-109760474D01*
X41399931Y-109700992D01*
X41404018Y-109698073D01*
X41422898Y-109685739D01*
X41439466Y-109670487D01*
X41443341Y-109667204D01*
X41519744Y-109607738D01*
X41585313Y-109536510D01*
X41588897Y-109532925D01*
X41605477Y-109517663D01*
X41619320Y-109499876D01*
X41622581Y-109496026D01*
X41688164Y-109424785D01*
X41741127Y-109343718D01*
X41744053Y-109339620D01*
X41757902Y-109321828D01*
X41768623Y-109302016D01*
X41771233Y-109297636D01*
X41824173Y-109216607D01*
X41863061Y-109127950D01*
X41865299Y-109123375D01*
X41865301Y-109123371D01*
X41876014Y-109103576D01*
X41883336Y-109082246D01*
X41885162Y-109077564D01*
X41924063Y-108988881D01*
X41947826Y-108895041D01*
X41949278Y-108890162D01*
X41956592Y-108868859D01*
X41960296Y-108846658D01*
X41961340Y-108841677D01*
X41985108Y-108747821D01*
X41993104Y-108651321D01*
X41993733Y-108646282D01*
X41997438Y-108624081D01*
X41998088Y-108592589D01*
X41998283Y-108588812D01*
X42005643Y-108500000D01*
X51994357Y-108500000D01*
X52002029Y-108592589D01*
X52002350Y-108596456D01*
X52002562Y-108601579D01*
X52002562Y-108624081D01*
X52006265Y-108646282D01*
X52006899Y-108651365D01*
X52014891Y-108747816D01*
X52014891Y-108747818D01*
X52038654Y-108841657D01*
X52039705Y-108846672D01*
X52043407Y-108868854D01*
X52043409Y-108868862D01*
X52050714Y-108890141D01*
X52052176Y-108895053D01*
X52075935Y-108988874D01*
X52075939Y-108988887D01*
X52114815Y-109077515D01*
X52116677Y-109082286D01*
X52123986Y-109103576D01*
X52123988Y-109103579D01*
X52134698Y-109123371D01*
X52136948Y-109127975D01*
X52175827Y-109216608D01*
X52228764Y-109297634D01*
X52231388Y-109302038D01*
X52242095Y-109321823D01*
X52242098Y-109321828D01*
X52255926Y-109339595D01*
X52258903Y-109343765D01*
X52311834Y-109424782D01*
X52311838Y-109424787D01*
X52377393Y-109496000D01*
X52380706Y-109499911D01*
X52394522Y-109517662D01*
X52411080Y-109532905D01*
X52414694Y-109536519D01*
X52480256Y-109607738D01*
X52556651Y-109667199D01*
X52560547Y-109670499D01*
X52566913Y-109676360D01*
X52577099Y-109685737D01*
X52595936Y-109698044D01*
X52600102Y-109701018D01*
X52676491Y-109760474D01*
X52761640Y-109806554D01*
X52766001Y-109809153D01*
X52784855Y-109821471D01*
X52805494Y-109830524D01*
X52810033Y-109832743D01*
X52895190Y-109878828D01*
X52986754Y-109910262D01*
X52991489Y-109912109D01*
X53012116Y-109921157D01*
X53033932Y-109926681D01*
X53038816Y-109928135D01*
X53110089Y-109952603D01*
X53130385Y-109959571D01*
X53164189Y-109965211D01*
X53225866Y-109975503D01*
X53230879Y-109976555D01*
X53252676Y-109982075D01*
X53252678Y-109982075D01*
X53252685Y-109982077D01*
X53275125Y-109983936D01*
X53280169Y-109984564D01*
X53375665Y-110000500D01*
X53375666Y-110000500D01*
X53472448Y-110000500D01*
X53477561Y-110000711D01*
X53493415Y-110002025D01*
X53499998Y-110002571D01*
X53500000Y-110002571D01*
X53500002Y-110002571D01*
X53506584Y-110002025D01*
X53522438Y-110000711D01*
X53527552Y-110000500D01*
X53624330Y-110000500D01*
X53624335Y-110000500D01*
X53719851Y-109984561D01*
X53724862Y-109983937D01*
X53747315Y-109982077D01*
X53769153Y-109976546D01*
X53774105Y-109975508D01*
X53869614Y-109959571D01*
X53961198Y-109928129D01*
X53966042Y-109926688D01*
X53987884Y-109921157D01*
X54008500Y-109912113D01*
X54013234Y-109910265D01*
X54104810Y-109878828D01*
X54189975Y-109832738D01*
X54194505Y-109830524D01*
X54215145Y-109821471D01*
X54234008Y-109809146D01*
X54238337Y-109806566D01*
X54323509Y-109760474D01*
X54399931Y-109700992D01*
X54404018Y-109698073D01*
X54422898Y-109685739D01*
X54439466Y-109670487D01*
X54443341Y-109667204D01*
X54519744Y-109607738D01*
X54585313Y-109536510D01*
X54588897Y-109532925D01*
X54605477Y-109517663D01*
X54619320Y-109499876D01*
X54622581Y-109496026D01*
X54688164Y-109424785D01*
X54741127Y-109343718D01*
X54744053Y-109339620D01*
X54757902Y-109321828D01*
X54768623Y-109302016D01*
X54771233Y-109297636D01*
X54824173Y-109216607D01*
X54863061Y-109127950D01*
X54865299Y-109123375D01*
X54865301Y-109123371D01*
X54876014Y-109103576D01*
X54883336Y-109082246D01*
X54885162Y-109077564D01*
X54924063Y-108988881D01*
X54947826Y-108895041D01*
X54949278Y-108890162D01*
X54956592Y-108868859D01*
X54960296Y-108846658D01*
X54961340Y-108841677D01*
X54985108Y-108747821D01*
X54993104Y-108651321D01*
X54993733Y-108646282D01*
X54997438Y-108624081D01*
X54998088Y-108592589D01*
X54998283Y-108588812D01*
X55005643Y-108500000D01*
X54998284Y-108411190D01*
X54998088Y-108407407D01*
X54997438Y-108375919D01*
X54993733Y-108353714D01*
X54993103Y-108348666D01*
X54985108Y-108252179D01*
X54961341Y-108158327D01*
X54960295Y-108153334D01*
X54956592Y-108131143D01*
X54956591Y-108131140D01*
X54949283Y-108109850D01*
X54947825Y-108104952D01*
X54924062Y-108011116D01*
X54885185Y-107922487D01*
X54885174Y-107922461D01*
X54883329Y-107917734D01*
X54876014Y-107896424D01*
X54865298Y-107876622D01*
X54863052Y-107872029D01*
X54824173Y-107783393D01*
X54824173Y-107783392D01*
X54771231Y-107702358D01*
X54768607Y-107697954D01*
X54757904Y-107678177D01*
X54757902Y-107678172D01*
X54744080Y-107660413D01*
X54741102Y-107656242D01*
X54688166Y-107575218D01*
X54688165Y-107575217D01*
X54688164Y-107575215D01*
X54658241Y-107542710D01*
X54622606Y-107503999D01*
X54619295Y-107500090D01*
X54605477Y-107482337D01*
X54605473Y-107482332D01*
X54588919Y-107467093D01*
X54585301Y-107463476D01*
X54519744Y-107392262D01*
X54443352Y-107332804D01*
X54439444Y-107329493D01*
X54422898Y-107314261D01*
X54404063Y-107301955D01*
X54399897Y-107298981D01*
X54323509Y-107239526D01*
X54323508Y-107239525D01*
X54323505Y-107239523D01*
X54323503Y-107239522D01*
X54238385Y-107193459D01*
X54233981Y-107190835D01*
X54215145Y-107178529D01*
X54194547Y-107169494D01*
X54189940Y-107167242D01*
X54104811Y-107121172D01*
X54104802Y-107121169D01*
X54013259Y-107089742D01*
X54008484Y-107087879D01*
X54008312Y-107087803D01*
X53987884Y-107078843D01*
X53987880Y-107078842D01*
X53987878Y-107078841D01*
X53966076Y-107073319D01*
X53961166Y-107071858D01*
X53869614Y-107040429D01*
X53774138Y-107024496D01*
X53769123Y-107023444D01*
X53747312Y-107017922D01*
X53747316Y-107017922D01*
X53724895Y-107016065D01*
X53719810Y-107015431D01*
X53624336Y-106999500D01*
X53624335Y-106999500D01*
X53527541Y-106999500D01*
X53522427Y-106999288D01*
X53506555Y-106997973D01*
X53500002Y-106997430D01*
X53499998Y-106997430D01*
X53493444Y-106997973D01*
X53477572Y-106999288D01*
X53472459Y-106999500D01*
X53375665Y-106999500D01*
X53280188Y-107015431D01*
X53275103Y-107016065D01*
X53252688Y-107017922D01*
X53252683Y-107017923D01*
X53230880Y-107023444D01*
X53225866Y-107024495D01*
X53130382Y-107040429D01*
X53038834Y-107071856D01*
X53033927Y-107073317D01*
X53012126Y-107078839D01*
X53012116Y-107078843D01*
X52991510Y-107087881D01*
X52986738Y-107089742D01*
X52895194Y-107121170D01*
X52895183Y-107121175D01*
X52810062Y-107167240D01*
X52805458Y-107169491D01*
X52784854Y-107178529D01*
X52784845Y-107178534D01*
X52766023Y-107190831D01*
X52761621Y-107193455D01*
X52676492Y-107239524D01*
X52676489Y-107239527D01*
X52600106Y-107298977D01*
X52595938Y-107301954D01*
X52577099Y-107314263D01*
X52560542Y-107329503D01*
X52556635Y-107332812D01*
X52480255Y-107392262D01*
X52414697Y-107463476D01*
X52411075Y-107467098D01*
X52394529Y-107482330D01*
X52394514Y-107482346D01*
X52380699Y-107500094D01*
X52377390Y-107504001D01*
X52311836Y-107575215D01*
X52258901Y-107656236D01*
X52255925Y-107660404D01*
X52242099Y-107678170D01*
X52242094Y-107678177D01*
X52231386Y-107697964D01*
X52228763Y-107702365D01*
X52175828Y-107783390D01*
X52136953Y-107872015D01*
X52134704Y-107876615D01*
X52123985Y-107896424D01*
X52116676Y-107917714D01*
X52114814Y-107922487D01*
X52088724Y-107981967D01*
X52075939Y-108011116D01*
X52075936Y-108011122D01*
X52052177Y-108104942D01*
X52050716Y-108109850D01*
X52043408Y-108131140D01*
X52039705Y-108153327D01*
X52038654Y-108158342D01*
X52014891Y-108252178D01*
X52014891Y-108252182D01*
X52006898Y-108348634D01*
X52006265Y-108353714D01*
X52002562Y-108375919D01*
X52002562Y-108398419D01*
X52002350Y-108403535D01*
X51994357Y-108500000D01*
X42005643Y-108500000D01*
X41998284Y-108411190D01*
X41998088Y-108407407D01*
X41997438Y-108375919D01*
X41993733Y-108353714D01*
X41993103Y-108348666D01*
X41985108Y-108252179D01*
X41961341Y-108158327D01*
X41960295Y-108153334D01*
X41956592Y-108131143D01*
X41956591Y-108131140D01*
X41949283Y-108109850D01*
X41947825Y-108104952D01*
X41924062Y-108011116D01*
X41885185Y-107922487D01*
X41885174Y-107922461D01*
X41883329Y-107917734D01*
X41876014Y-107896424D01*
X41865298Y-107876622D01*
X41863052Y-107872029D01*
X41824173Y-107783393D01*
X41824173Y-107783392D01*
X41771231Y-107702358D01*
X41768607Y-107697954D01*
X41757904Y-107678177D01*
X41757902Y-107678172D01*
X41744080Y-107660413D01*
X41741102Y-107656242D01*
X41688166Y-107575218D01*
X41688165Y-107575217D01*
X41688164Y-107575215D01*
X41658241Y-107542710D01*
X41622606Y-107503999D01*
X41619295Y-107500090D01*
X41605477Y-107482337D01*
X41605473Y-107482332D01*
X41588919Y-107467093D01*
X41585301Y-107463476D01*
X41519744Y-107392262D01*
X41443352Y-107332804D01*
X41439444Y-107329493D01*
X41422898Y-107314261D01*
X41404063Y-107301955D01*
X41399897Y-107298981D01*
X41323509Y-107239526D01*
X41323508Y-107239525D01*
X41323505Y-107239523D01*
X41323503Y-107239522D01*
X41238385Y-107193459D01*
X41233981Y-107190835D01*
X41215145Y-107178529D01*
X41194547Y-107169494D01*
X41189940Y-107167242D01*
X41104811Y-107121172D01*
X41104802Y-107121169D01*
X41013259Y-107089742D01*
X41008484Y-107087879D01*
X41008312Y-107087803D01*
X40987884Y-107078843D01*
X40987880Y-107078842D01*
X40987878Y-107078841D01*
X40966076Y-107073319D01*
X40961166Y-107071858D01*
X40869614Y-107040429D01*
X40774138Y-107024496D01*
X40769123Y-107023444D01*
X40747312Y-107017922D01*
X40747316Y-107017922D01*
X40724895Y-107016065D01*
X40719810Y-107015431D01*
X40624336Y-106999500D01*
X40624335Y-106999500D01*
X40527541Y-106999500D01*
X40522427Y-106999288D01*
X40506555Y-106997973D01*
X40500002Y-106997430D01*
X40499998Y-106997430D01*
X40493444Y-106997973D01*
X40477572Y-106999288D01*
X40472459Y-106999500D01*
X40375665Y-106999500D01*
X40280188Y-107015431D01*
X40275103Y-107016065D01*
X40252688Y-107017922D01*
X40252683Y-107017923D01*
X40230880Y-107023444D01*
X40225866Y-107024495D01*
X40130382Y-107040429D01*
X40038834Y-107071856D01*
X40033927Y-107073317D01*
X40012126Y-107078839D01*
X40012116Y-107078843D01*
X39991510Y-107087881D01*
X39986738Y-107089742D01*
X39895194Y-107121170D01*
X39895183Y-107121175D01*
X39810062Y-107167240D01*
X39805458Y-107169491D01*
X39784854Y-107178529D01*
X39784845Y-107178534D01*
X39766023Y-107190831D01*
X39761621Y-107193455D01*
X39676492Y-107239524D01*
X39676489Y-107239527D01*
X39600106Y-107298977D01*
X39595938Y-107301954D01*
X39577099Y-107314263D01*
X39560542Y-107329503D01*
X39556635Y-107332812D01*
X39480255Y-107392262D01*
X39414697Y-107463476D01*
X39411075Y-107467098D01*
X39394529Y-107482330D01*
X39394514Y-107482346D01*
X39380699Y-107500094D01*
X39377390Y-107504001D01*
X39311836Y-107575215D01*
X39258901Y-107656236D01*
X39255925Y-107660404D01*
X39242099Y-107678170D01*
X39242094Y-107678177D01*
X39231386Y-107697964D01*
X39228763Y-107702365D01*
X39175828Y-107783390D01*
X39136953Y-107872015D01*
X39134704Y-107876615D01*
X39123985Y-107896424D01*
X39116676Y-107917714D01*
X39114814Y-107922487D01*
X39088724Y-107981967D01*
X39075939Y-108011116D01*
X39075936Y-108011122D01*
X39052177Y-108104942D01*
X39050716Y-108109850D01*
X39043408Y-108131140D01*
X39039705Y-108153327D01*
X39038654Y-108158342D01*
X39014891Y-108252178D01*
X39014891Y-108252182D01*
X39006898Y-108348634D01*
X39006265Y-108353714D01*
X39002562Y-108375919D01*
X39002562Y-108398419D01*
X39002350Y-108403535D01*
X38994357Y-108500000D01*
X37500500Y-108500000D01*
X37500500Y-101931187D01*
X40249500Y-101931187D01*
X40269794Y-102065823D01*
X40288604Y-102190615D01*
X40288605Y-102190617D01*
X40288606Y-102190623D01*
X40365938Y-102441326D01*
X40479767Y-102677696D01*
X40479768Y-102677697D01*
X40479770Y-102677700D01*
X40479772Y-102677704D01*
X40627567Y-102894479D01*
X40806014Y-103086801D01*
X40806018Y-103086804D01*
X40806019Y-103086805D01*
X41011143Y-103250386D01*
X41238357Y-103381568D01*
X41482584Y-103477420D01*
X41738370Y-103535802D01*
X41738376Y-103535802D01*
X41738379Y-103535803D01*
X41934500Y-103550500D01*
X41934506Y-103550500D01*
X42065500Y-103550500D01*
X42261620Y-103535803D01*
X42261622Y-103535802D01*
X42261630Y-103535802D01*
X42517416Y-103477420D01*
X42601111Y-103444571D01*
X42670705Y-103438403D01*
X42732588Y-103470840D01*
X42764900Y-103523448D01*
X42825937Y-103721323D01*
X42825938Y-103721326D01*
X42939767Y-103957696D01*
X42939768Y-103957697D01*
X42939770Y-103957700D01*
X42939772Y-103957704D01*
X42989869Y-104031182D01*
X43087567Y-104174479D01*
X43266014Y-104366801D01*
X43266018Y-104366804D01*
X43266019Y-104366805D01*
X43471143Y-104530386D01*
X43698357Y-104661568D01*
X43942584Y-104757420D01*
X44198370Y-104815802D01*
X44198376Y-104815802D01*
X44198379Y-104815803D01*
X44394500Y-104830500D01*
X44394506Y-104830500D01*
X44525500Y-104830500D01*
X44721620Y-104815803D01*
X44721622Y-104815802D01*
X44721630Y-104815802D01*
X44977416Y-104757420D01*
X45221643Y-104661568D01*
X45221646Y-104661566D01*
X45221647Y-104661566D01*
X45264118Y-104637045D01*
X45332018Y-104620571D01*
X45398045Y-104643423D01*
X45437839Y-104690630D01*
X45479767Y-104777695D01*
X45479768Y-104777697D01*
X45479770Y-104777700D01*
X45479772Y-104777704D01*
X45505747Y-104815802D01*
X45627567Y-104994479D01*
X45806014Y-105186801D01*
X45806018Y-105186804D01*
X45806019Y-105186805D01*
X46011143Y-105350386D01*
X46238357Y-105481568D01*
X46482584Y-105577420D01*
X46738370Y-105635802D01*
X46738376Y-105635802D01*
X46738379Y-105635803D01*
X46934500Y-105650500D01*
X46934506Y-105650500D01*
X47065500Y-105650500D01*
X47261620Y-105635803D01*
X47261622Y-105635802D01*
X47261630Y-105635802D01*
X47517416Y-105577420D01*
X47761643Y-105481568D01*
X47988857Y-105350386D01*
X48193981Y-105186805D01*
X48372433Y-104994479D01*
X48520228Y-104777704D01*
X48634063Y-104541323D01*
X48711396Y-104290615D01*
X48750500Y-104031182D01*
X48750500Y-103768818D01*
X48711396Y-103509385D01*
X48634063Y-103258677D01*
X48551292Y-103086801D01*
X48520232Y-103022303D01*
X48520231Y-103022302D01*
X48520230Y-103022301D01*
X48520228Y-103022296D01*
X48372433Y-102805521D01*
X48362441Y-102794753D01*
X48193985Y-102613198D01*
X48154533Y-102581736D01*
X47988857Y-102449614D01*
X47761643Y-102318432D01*
X47517416Y-102222580D01*
X47517411Y-102222578D01*
X47517402Y-102222576D01*
X47299818Y-102172914D01*
X47261630Y-102164198D01*
X47261629Y-102164197D01*
X47261625Y-102164197D01*
X47261620Y-102164196D01*
X47065500Y-102149500D01*
X47065494Y-102149500D01*
X46934506Y-102149500D01*
X46934500Y-102149500D01*
X46738379Y-102164196D01*
X46738374Y-102164197D01*
X46482597Y-102222576D01*
X46482578Y-102222582D01*
X46238363Y-102318429D01*
X46238357Y-102318432D01*
X46195877Y-102342957D01*
X46127977Y-102359427D01*
X46061951Y-102336574D01*
X46022160Y-102289369D01*
X45980232Y-102202303D01*
X45980231Y-102202302D01*
X45980230Y-102202301D01*
X45980228Y-102202296D01*
X45832433Y-101985521D01*
X45782014Y-101931182D01*
X45653985Y-101793198D01*
X45498017Y-101668818D01*
X45448857Y-101629614D01*
X45221643Y-101498432D01*
X44977416Y-101402580D01*
X44977411Y-101402578D01*
X44977402Y-101402576D01*
X44759818Y-101352914D01*
X44721630Y-101344198D01*
X44721629Y-101344197D01*
X44721625Y-101344197D01*
X44721620Y-101344196D01*
X44525500Y-101329500D01*
X44525494Y-101329500D01*
X44394506Y-101329500D01*
X44394500Y-101329500D01*
X44198379Y-101344196D01*
X44198374Y-101344197D01*
X43942585Y-101402579D01*
X43858890Y-101435426D01*
X43789293Y-101441593D01*
X43727410Y-101409155D01*
X43695098Y-101356547D01*
X43641048Y-101181323D01*
X43634063Y-101158677D01*
X43622121Y-101133880D01*
X43520232Y-100922303D01*
X43520231Y-100922302D01*
X43520230Y-100922301D01*
X43520228Y-100922296D01*
X43372433Y-100705521D01*
X43340576Y-100671187D01*
X49059500Y-100671187D01*
X49079794Y-100805823D01*
X49098604Y-100930615D01*
X49098605Y-100930617D01*
X49098606Y-100930623D01*
X49175938Y-101181326D01*
X49289767Y-101417696D01*
X49289768Y-101417697D01*
X49289770Y-101417700D01*
X49289772Y-101417704D01*
X49338126Y-101488626D01*
X49437567Y-101634479D01*
X49616014Y-101826801D01*
X49616018Y-101826804D01*
X49616019Y-101826805D01*
X49821143Y-101990386D01*
X50048357Y-102121568D01*
X50292584Y-102217420D01*
X50548370Y-102275802D01*
X50548376Y-102275802D01*
X50548379Y-102275803D01*
X50744500Y-102290500D01*
X50744506Y-102290500D01*
X50875500Y-102290500D01*
X51071620Y-102275803D01*
X51071622Y-102275802D01*
X51071630Y-102275802D01*
X51327416Y-102217420D01*
X51571643Y-102121568D01*
X51798857Y-101990386D01*
X52003981Y-101826805D01*
X52035167Y-101793195D01*
X52043945Y-101783733D01*
X52182433Y-101634479D01*
X52330228Y-101417704D01*
X52444063Y-101181323D01*
X52521396Y-100930615D01*
X52560500Y-100671182D01*
X52560500Y-100408818D01*
X52521396Y-100149385D01*
X52444063Y-99898677D01*
X52382165Y-99770144D01*
X52330232Y-99662303D01*
X52330225Y-99662292D01*
X52282720Y-99592615D01*
X52261219Y-99526136D01*
X52279073Y-99458586D01*
X52330613Y-99411411D01*
X52374657Y-99399210D01*
X52537536Y-99385347D01*
X52537539Y-99385346D01*
X52537541Y-99385346D01*
X52768249Y-99325275D01*
X52927707Y-99253195D01*
X52985480Y-99227080D01*
X52985481Y-99227078D01*
X52985486Y-99227077D01*
X53183003Y-99093579D01*
X53355118Y-98928621D01*
X53496879Y-98736947D01*
X53604207Y-98524074D01*
X53674016Y-98296123D01*
X53704298Y-98059654D01*
X53694180Y-97821468D01*
X53683999Y-97774230D01*
X53643954Y-97588419D01*
X53555064Y-97367211D01*
X53555064Y-97367210D01*
X53430069Y-97164205D01*
X53272564Y-96985245D01*
X53087080Y-96835477D01*
X52973130Y-96771820D01*
X52878955Y-96719210D01*
X52654170Y-96639788D01*
X52419209Y-96599500D01*
X52419200Y-96599500D01*
X52240503Y-96599500D01*
X52240498Y-96599500D01*
X52062463Y-96614652D01*
X51831751Y-96674724D01*
X51614519Y-96772919D01*
X51614511Y-96772924D01*
X51417006Y-96906413D01*
X51416997Y-96906421D01*
X51244881Y-97071379D01*
X51103123Y-97263050D01*
X51103120Y-97263054D01*
X50995796Y-97475920D01*
X50995793Y-97475926D01*
X50925983Y-97703878D01*
X50895702Y-97940346D01*
X50905819Y-98178528D01*
X50905819Y-98178532D01*
X50956046Y-98411582D01*
X50956046Y-98411583D01*
X51040876Y-98622689D01*
X51047607Y-98692233D01*
X51015671Y-98754377D01*
X50955207Y-98789390D01*
X50916552Y-98792576D01*
X50875500Y-98789500D01*
X50875494Y-98789500D01*
X50744506Y-98789500D01*
X50744500Y-98789500D01*
X50548379Y-98804196D01*
X50548374Y-98804197D01*
X50292597Y-98862576D01*
X50292578Y-98862582D01*
X50048356Y-98958432D01*
X49821143Y-99089614D01*
X49616014Y-99253198D01*
X49437567Y-99445520D01*
X49289768Y-99662302D01*
X49289767Y-99662303D01*
X49175938Y-99898673D01*
X49098606Y-100149376D01*
X49098605Y-100149381D01*
X49098604Y-100149385D01*
X49088197Y-100218432D01*
X49059500Y-100408812D01*
X49059500Y-100671187D01*
X43340576Y-100671187D01*
X43340571Y-100671182D01*
X43193985Y-100513198D01*
X43063095Y-100408817D01*
X42988857Y-100349614D01*
X42761643Y-100218432D01*
X42517416Y-100122580D01*
X42517411Y-100122578D01*
X42517402Y-100122576D01*
X42299818Y-100072914D01*
X42261630Y-100064198D01*
X42261629Y-100064197D01*
X42261625Y-100064197D01*
X42261620Y-100064196D01*
X42065500Y-100049500D01*
X42065494Y-100049500D01*
X41934506Y-100049500D01*
X41934500Y-100049500D01*
X41738379Y-100064196D01*
X41738374Y-100064197D01*
X41482597Y-100122576D01*
X41482578Y-100122582D01*
X41238356Y-100218432D01*
X41011143Y-100349614D01*
X40806014Y-100513198D01*
X40627567Y-100705520D01*
X40479768Y-100922302D01*
X40479767Y-100922303D01*
X40365938Y-101158673D01*
X40288606Y-101409376D01*
X40288605Y-101409381D01*
X40288604Y-101409385D01*
X40276660Y-101488626D01*
X40249500Y-101668812D01*
X40249500Y-101931187D01*
X37500500Y-101931187D01*
X37500500Y-97940346D01*
X40295702Y-97940346D01*
X40305819Y-98178528D01*
X40305819Y-98178532D01*
X40356045Y-98411580D01*
X40440877Y-98622689D01*
X40444936Y-98632790D01*
X40569931Y-98835795D01*
X40727436Y-99014755D01*
X40912920Y-99164523D01*
X41121046Y-99280790D01*
X41246951Y-99325275D01*
X41345829Y-99360211D01*
X41580790Y-99400499D01*
X41580798Y-99400499D01*
X41580800Y-99400500D01*
X41580801Y-99400500D01*
X41759502Y-99400500D01*
X41937536Y-99385347D01*
X41937539Y-99385346D01*
X41937541Y-99385346D01*
X42168249Y-99325275D01*
X42327707Y-99253195D01*
X42385480Y-99227080D01*
X42385481Y-99227078D01*
X42385486Y-99227077D01*
X42583003Y-99093579D01*
X42755118Y-98928621D01*
X42896879Y-98736947D01*
X43004207Y-98524074D01*
X43074016Y-98296123D01*
X43102285Y-98075373D01*
X44745723Y-98075373D01*
X44775881Y-98375160D01*
X44775882Y-98375162D01*
X44845728Y-98668252D01*
X44845733Y-98668266D01*
X44954020Y-98949427D01*
X44954024Y-98949436D01*
X45098825Y-99213665D01*
X45098829Y-99213671D01*
X45206801Y-99360211D01*
X45277554Y-99456238D01*
X45277561Y-99456245D01*
X45487019Y-99672823D01*
X45723478Y-99859553D01*
X45723480Y-99859554D01*
X45723485Y-99859558D01*
X45982730Y-100013109D01*
X46260128Y-100130736D01*
X46550729Y-100210340D01*
X46849347Y-100250500D01*
X46849351Y-100250500D01*
X47075252Y-100250500D01*
X47239164Y-100239526D01*
X47300634Y-100235412D01*
X47595903Y-100175396D01*
X47880537Y-100076560D01*
X48149459Y-99940668D01*
X48397869Y-99770144D01*
X48621333Y-99568032D01*
X48815865Y-99337939D01*
X48977993Y-99083970D01*
X49104823Y-98810658D01*
X49194093Y-98522879D01*
X49244209Y-98225770D01*
X49254277Y-97924631D01*
X49224118Y-97624838D01*
X49154269Y-97331739D01*
X49045977Y-97050566D01*
X48901175Y-96786335D01*
X48722446Y-96543762D01*
X48512980Y-96327176D01*
X48389742Y-96229856D01*
X48276521Y-96140446D01*
X48276517Y-96140443D01*
X48276515Y-96140442D01*
X48017270Y-95986891D01*
X47739872Y-95869264D01*
X47739863Y-95869261D01*
X47449272Y-95789660D01*
X47374616Y-95779620D01*
X47150653Y-95749500D01*
X46924756Y-95749500D01*
X46924748Y-95749500D01*
X46699368Y-95764587D01*
X46699359Y-95764589D01*
X46404094Y-95824604D01*
X46119464Y-95923439D01*
X46119459Y-95923441D01*
X45850546Y-96059328D01*
X45602125Y-96229860D01*
X45378665Y-96431969D01*
X45184132Y-96662064D01*
X45022006Y-96916030D01*
X45022005Y-96916032D01*
X44906842Y-97164205D01*
X44895177Y-97189342D01*
X44895176Y-97189346D01*
X44805907Y-97477118D01*
X44787133Y-97588419D01*
X44755791Y-97774230D01*
X44746249Y-98059654D01*
X44745723Y-98075373D01*
X43102285Y-98075373D01*
X43104298Y-98059654D01*
X43094180Y-97821468D01*
X43083999Y-97774230D01*
X43043954Y-97588419D01*
X42955064Y-97367211D01*
X42955064Y-97367210D01*
X42830069Y-97164205D01*
X42672564Y-96985245D01*
X42487080Y-96835477D01*
X42373130Y-96771820D01*
X42278955Y-96719210D01*
X42054170Y-96639788D01*
X41819209Y-96599500D01*
X41819200Y-96599500D01*
X41640503Y-96599500D01*
X41640498Y-96599500D01*
X41462463Y-96614652D01*
X41231751Y-96674724D01*
X41014519Y-96772919D01*
X41014511Y-96772924D01*
X40817006Y-96906413D01*
X40816997Y-96906421D01*
X40644881Y-97071379D01*
X40503123Y-97263050D01*
X40503120Y-97263054D01*
X40395796Y-97475920D01*
X40395793Y-97475926D01*
X40325983Y-97703878D01*
X40295702Y-97940346D01*
X37500500Y-97940346D01*
X37500500Y-94428133D01*
X41025668Y-94428133D01*
X41041058Y-94515410D01*
X41056135Y-94600911D01*
X41125623Y-94762004D01*
X41125624Y-94762006D01*
X41125626Y-94762009D01*
X41180278Y-94835418D01*
X41230390Y-94902730D01*
X41364786Y-95015502D01*
X41442488Y-95054525D01*
X41521562Y-95094238D01*
X41521563Y-95094238D01*
X41521567Y-95094240D01*
X41692279Y-95134700D01*
X41692282Y-95134700D01*
X41823701Y-95134700D01*
X41823709Y-95134700D01*
X41954255Y-95119441D01*
X42119117Y-95059437D01*
X42253139Y-94971289D01*
X45237416Y-94971289D01*
X45237459Y-94995401D01*
X45237500Y-94995499D01*
X45237616Y-94995782D01*
X45237618Y-94995784D01*
X45237808Y-94995862D01*
X45238000Y-94995941D01*
X45238002Y-94995939D01*
X45262616Y-94995924D01*
X45262616Y-94995928D01*
X45262760Y-94995900D01*
X48453240Y-94995900D01*
X48453383Y-94995928D01*
X48453384Y-94995924D01*
X48477997Y-94995939D01*
X48478000Y-94995941D01*
X48478383Y-94995783D01*
X48478500Y-94995499D01*
X48478541Y-94995400D01*
X48478540Y-94995397D01*
X48478583Y-94971289D01*
X48478500Y-94970867D01*
X48478500Y-94428133D01*
X51465668Y-94428133D01*
X51481058Y-94515410D01*
X51496135Y-94600911D01*
X51565623Y-94762004D01*
X51565624Y-94762006D01*
X51565626Y-94762009D01*
X51620278Y-94835418D01*
X51670390Y-94902730D01*
X51804786Y-95015502D01*
X51882488Y-95054525D01*
X51961562Y-95094238D01*
X51961563Y-95094238D01*
X51961567Y-95094240D01*
X52132279Y-95134700D01*
X52132282Y-95134700D01*
X52263701Y-95134700D01*
X52263709Y-95134700D01*
X52394255Y-95119441D01*
X52559117Y-95059437D01*
X52705696Y-94963030D01*
X52826092Y-94835418D01*
X52913812Y-94683481D01*
X52964130Y-94515410D01*
X52974331Y-94340265D01*
X52943865Y-94167489D01*
X52874377Y-94006396D01*
X52769610Y-93865670D01*
X52697747Y-93805370D01*
X52635214Y-93752898D01*
X52635212Y-93752897D01*
X52478437Y-93674161D01*
X52478433Y-93674160D01*
X52307721Y-93633700D01*
X52176291Y-93633700D01*
X52071854Y-93645907D01*
X52045743Y-93648959D01*
X52045740Y-93648960D01*
X51880884Y-93708962D01*
X51880880Y-93708964D01*
X51734306Y-93805367D01*
X51734305Y-93805368D01*
X51613910Y-93932978D01*
X51526188Y-94084918D01*
X51475870Y-94252989D01*
X51475869Y-94252994D01*
X51465668Y-94428133D01*
X48478500Y-94428133D01*
X48478500Y-92033359D01*
X48478528Y-92033216D01*
X48478524Y-92033216D01*
X48478539Y-92008602D01*
X48478541Y-92008600D01*
X48478462Y-92008408D01*
X48478384Y-92008218D01*
X48478382Y-92008216D01*
X48478099Y-92008100D01*
X48478000Y-92008059D01*
X48453446Y-92008059D01*
X48453240Y-92008100D01*
X45262760Y-92008100D01*
X45262554Y-92008059D01*
X45238000Y-92008059D01*
X45237901Y-92008100D01*
X45237617Y-92008216D01*
X45237615Y-92008218D01*
X45237459Y-92008599D01*
X45237476Y-92033216D01*
X45237471Y-92033216D01*
X45237500Y-92033359D01*
X45237500Y-94970867D01*
X45237416Y-94971289D01*
X42253139Y-94971289D01*
X42265696Y-94963030D01*
X42386092Y-94835418D01*
X42473812Y-94683481D01*
X42524130Y-94515410D01*
X42534331Y-94340265D01*
X42503865Y-94167489D01*
X42434377Y-94006396D01*
X42329610Y-93865670D01*
X42257747Y-93805370D01*
X42195214Y-93752898D01*
X42195212Y-93752897D01*
X42038437Y-93674161D01*
X42038433Y-93674160D01*
X41867721Y-93633700D01*
X41736291Y-93633700D01*
X41631854Y-93645907D01*
X41605743Y-93648959D01*
X41605740Y-93648960D01*
X41440884Y-93708962D01*
X41440880Y-93708964D01*
X41294306Y-93805367D01*
X41294305Y-93805368D01*
X41173910Y-93932978D01*
X41086188Y-94084918D01*
X41035870Y-94252989D01*
X41035869Y-94252994D01*
X41025668Y-94428133D01*
X37500500Y-94428133D01*
X37500500Y-89400000D01*
X38486496Y-89400000D01*
X38506458Y-89589928D01*
X38506459Y-89589931D01*
X38565470Y-89771549D01*
X38565473Y-89771556D01*
X38660960Y-89936944D01*
X38788747Y-90078866D01*
X38943248Y-90191118D01*
X39117712Y-90268794D01*
X39304513Y-90308500D01*
X39495487Y-90308500D01*
X39682288Y-90268794D01*
X39856752Y-90191118D01*
X40011253Y-90078866D01*
X40139040Y-89936944D01*
X40234527Y-89771556D01*
X40293542Y-89589928D01*
X40313504Y-89400000D01*
X40293542Y-89210072D01*
X40253362Y-89086413D01*
X40251773Y-89080560D01*
X40246407Y-89056090D01*
X40043392Y-88514613D01*
X40035500Y-88471082D01*
X40035500Y-83166043D01*
X40055185Y-83099004D01*
X40107989Y-83053249D01*
X40177147Y-83043305D01*
X40240703Y-83072330D01*
X40278477Y-83131108D01*
X40282113Y-83147554D01*
X40288604Y-83190615D01*
X40288605Y-83190617D01*
X40288606Y-83190623D01*
X40365938Y-83441326D01*
X40479767Y-83677696D01*
X40479768Y-83677697D01*
X40479770Y-83677700D01*
X40479772Y-83677704D01*
X40627567Y-83894479D01*
X40806014Y-84086801D01*
X40806018Y-84086804D01*
X40806019Y-84086805D01*
X41011143Y-84250386D01*
X41238357Y-84381568D01*
X41482584Y-84477420D01*
X41738370Y-84535802D01*
X41738376Y-84535802D01*
X41738379Y-84535803D01*
X41934500Y-84550500D01*
X41934506Y-84550500D01*
X42065500Y-84550500D01*
X42261620Y-84535803D01*
X42261622Y-84535802D01*
X42261630Y-84535802D01*
X42517416Y-84477420D01*
X42601111Y-84444571D01*
X42670705Y-84438403D01*
X42732588Y-84470840D01*
X42764900Y-84523448D01*
X42825937Y-84721323D01*
X42825938Y-84721326D01*
X42939767Y-84957696D01*
X42939768Y-84957697D01*
X42939770Y-84957700D01*
X42939772Y-84957704D01*
X42989869Y-85031182D01*
X43087567Y-85174479D01*
X43266014Y-85366801D01*
X43266018Y-85366804D01*
X43266019Y-85366805D01*
X43471143Y-85530386D01*
X43698357Y-85661568D01*
X43942584Y-85757420D01*
X44198370Y-85815802D01*
X44198376Y-85815802D01*
X44198379Y-85815803D01*
X44394500Y-85830500D01*
X44394506Y-85830500D01*
X44525500Y-85830500D01*
X44721620Y-85815803D01*
X44721622Y-85815802D01*
X44721630Y-85815802D01*
X44977416Y-85757420D01*
X45221643Y-85661568D01*
X45221646Y-85661566D01*
X45221647Y-85661566D01*
X45264118Y-85637045D01*
X45332018Y-85620571D01*
X45398045Y-85643423D01*
X45437839Y-85690630D01*
X45479767Y-85777695D01*
X45479768Y-85777697D01*
X45479770Y-85777700D01*
X45479772Y-85777704D01*
X45505747Y-85815802D01*
X45627567Y-85994479D01*
X45806014Y-86186801D01*
X45806018Y-86186804D01*
X45806019Y-86186805D01*
X46011143Y-86350386D01*
X46238357Y-86481568D01*
X46482584Y-86577420D01*
X46738370Y-86635802D01*
X46738376Y-86635802D01*
X46738379Y-86635803D01*
X46934500Y-86650500D01*
X46934506Y-86650500D01*
X47065500Y-86650500D01*
X47261620Y-86635803D01*
X47261622Y-86635802D01*
X47261630Y-86635802D01*
X47517416Y-86577420D01*
X47761643Y-86481568D01*
X47988857Y-86350386D01*
X48193981Y-86186805D01*
X48372433Y-85994479D01*
X48520228Y-85777704D01*
X48634063Y-85541323D01*
X48711396Y-85290615D01*
X48750500Y-85031182D01*
X48750500Y-84768818D01*
X48711396Y-84509385D01*
X48634063Y-84258677D01*
X48551292Y-84086801D01*
X48520232Y-84022303D01*
X48520231Y-84022302D01*
X48520230Y-84022301D01*
X48520228Y-84022296D01*
X48372433Y-83805521D01*
X48362441Y-83794753D01*
X48193985Y-83613198D01*
X48154533Y-83581736D01*
X47988857Y-83449614D01*
X47761643Y-83318432D01*
X47517416Y-83222580D01*
X47517411Y-83222578D01*
X47517402Y-83222576D01*
X47269713Y-83166043D01*
X47261630Y-83164198D01*
X47261629Y-83164197D01*
X47261625Y-83164197D01*
X47261620Y-83164196D01*
X47065500Y-83149500D01*
X47065494Y-83149500D01*
X46934506Y-83149500D01*
X46934500Y-83149500D01*
X46738379Y-83164196D01*
X46738374Y-83164197D01*
X46482597Y-83222576D01*
X46482578Y-83222582D01*
X46238363Y-83318429D01*
X46238357Y-83318432D01*
X46195877Y-83342957D01*
X46127977Y-83359427D01*
X46061951Y-83336574D01*
X46022160Y-83289369D01*
X45980232Y-83202303D01*
X45980231Y-83202302D01*
X45980230Y-83202301D01*
X45980228Y-83202296D01*
X45832433Y-82985521D01*
X45782014Y-82931182D01*
X45653985Y-82793198D01*
X45498017Y-82668818D01*
X45448857Y-82629614D01*
X45221643Y-82498432D01*
X44977416Y-82402580D01*
X44977411Y-82402578D01*
X44977402Y-82402576D01*
X44759818Y-82352914D01*
X44721630Y-82344198D01*
X44721629Y-82344197D01*
X44721625Y-82344197D01*
X44721620Y-82344196D01*
X44525500Y-82329500D01*
X44525494Y-82329500D01*
X44394506Y-82329500D01*
X44394500Y-82329500D01*
X44198379Y-82344196D01*
X44198374Y-82344197D01*
X43942585Y-82402579D01*
X43858890Y-82435426D01*
X43789293Y-82441593D01*
X43727410Y-82409155D01*
X43695098Y-82356547D01*
X43641048Y-82181323D01*
X43634063Y-82158677D01*
X43622121Y-82133880D01*
X43520232Y-81922303D01*
X43520231Y-81922302D01*
X43520230Y-81922301D01*
X43520228Y-81922296D01*
X43372433Y-81705521D01*
X43340571Y-81671182D01*
X43193985Y-81513198D01*
X43079182Y-81421646D01*
X42988857Y-81349614D01*
X42761643Y-81218432D01*
X42517416Y-81122580D01*
X42517411Y-81122578D01*
X42517402Y-81122576D01*
X42299818Y-81072914D01*
X42261630Y-81064198D01*
X42261629Y-81064197D01*
X42261625Y-81064197D01*
X42261620Y-81064196D01*
X42065500Y-81049500D01*
X42065494Y-81049500D01*
X41934506Y-81049500D01*
X41934500Y-81049500D01*
X41738379Y-81064196D01*
X41738374Y-81064197D01*
X41482597Y-81122576D01*
X41482578Y-81122582D01*
X41238356Y-81218432D01*
X41011143Y-81349614D01*
X40806014Y-81513198D01*
X40627567Y-81705520D01*
X40479768Y-81922302D01*
X40479767Y-81922303D01*
X40365938Y-82158673D01*
X40288606Y-82409376D01*
X40288604Y-82409382D01*
X40282115Y-82452438D01*
X40252658Y-82515795D01*
X40193624Y-82553168D01*
X40123756Y-82552693D01*
X40065236Y-82514519D01*
X40036645Y-82450767D01*
X40035500Y-82433956D01*
X40035500Y-81942727D01*
X40055185Y-81875688D01*
X40071815Y-81855050D01*
X40517072Y-81409792D01*
X40529461Y-81399869D01*
X40529289Y-81399662D01*
X40535298Y-81394689D01*
X40535303Y-81394687D01*
X40583441Y-81343424D01*
X40604638Y-81322228D01*
X40608979Y-81316631D01*
X40612774Y-81312188D01*
X40637504Y-81285853D01*
X40645217Y-81277640D01*
X40655102Y-81259658D01*
X40665773Y-81243412D01*
X40678349Y-81227201D01*
X40697172Y-81183701D01*
X40699740Y-81178462D01*
X40701426Y-81175395D01*
X40722569Y-81136937D01*
X40727670Y-81117065D01*
X40733973Y-81098660D01*
X40742117Y-81079842D01*
X40749533Y-81033009D01*
X40750708Y-81027335D01*
X40762500Y-80981416D01*
X40762500Y-80960908D01*
X40764027Y-80941508D01*
X40764160Y-80940668D01*
X40767235Y-80921255D01*
X40762775Y-80874073D01*
X40762500Y-80868235D01*
X40762500Y-80291801D01*
X40782185Y-80224762D01*
X40834989Y-80179007D01*
X40904147Y-80169063D01*
X40946973Y-80183546D01*
X41121046Y-80280790D01*
X41246951Y-80325275D01*
X41345829Y-80360211D01*
X41580790Y-80400499D01*
X41580798Y-80400499D01*
X41580800Y-80400500D01*
X41580801Y-80400500D01*
X41759502Y-80400500D01*
X41937536Y-80385347D01*
X41937539Y-80385346D01*
X41937541Y-80385346D01*
X42168249Y-80325275D01*
X42327707Y-80253195D01*
X42385480Y-80227080D01*
X42385481Y-80227078D01*
X42385486Y-80227077D01*
X42583003Y-80093579D01*
X42755118Y-79928621D01*
X42896879Y-79736947D01*
X43004207Y-79524074D01*
X43074016Y-79296123D01*
X43102285Y-79075373D01*
X44745723Y-79075373D01*
X44775881Y-79375160D01*
X44775882Y-79375162D01*
X44845728Y-79668252D01*
X44845730Y-79668259D01*
X44845731Y-79668261D01*
X44866997Y-79723477D01*
X44954020Y-79949427D01*
X44954024Y-79949436D01*
X45098825Y-80213665D01*
X45098829Y-80213671D01*
X45206801Y-80360211D01*
X45277554Y-80456238D01*
X45277561Y-80456245D01*
X45487019Y-80672823D01*
X45723478Y-80859553D01*
X45723480Y-80859554D01*
X45723485Y-80859558D01*
X45982730Y-81013109D01*
X46260128Y-81130736D01*
X46550729Y-81210340D01*
X46849347Y-81250500D01*
X46849351Y-81250500D01*
X47075252Y-81250500D01*
X47239164Y-81239526D01*
X47300634Y-81235412D01*
X47595903Y-81175396D01*
X47880537Y-81076560D01*
X48149459Y-80940668D01*
X48397869Y-80770144D01*
X48621333Y-80568032D01*
X48815865Y-80337939D01*
X48977993Y-80083970D01*
X49104823Y-79810658D01*
X49194093Y-79522879D01*
X49244209Y-79225770D01*
X49254277Y-78924631D01*
X49224118Y-78624838D01*
X49154269Y-78331739D01*
X49045977Y-78050566D01*
X48901175Y-77786335D01*
X48722446Y-77543762D01*
X48512980Y-77327176D01*
X48389742Y-77229856D01*
X48276521Y-77140446D01*
X48276517Y-77140443D01*
X48276515Y-77140442D01*
X48017270Y-76986891D01*
X47739872Y-76869264D01*
X47739863Y-76869261D01*
X47449272Y-76789660D01*
X47374616Y-76779620D01*
X47150653Y-76749500D01*
X46924756Y-76749500D01*
X46924748Y-76749500D01*
X46699368Y-76764587D01*
X46699359Y-76764589D01*
X46404094Y-76824604D01*
X46119464Y-76923439D01*
X46119459Y-76923441D01*
X45850546Y-77059328D01*
X45602125Y-77229860D01*
X45378665Y-77431969D01*
X45184132Y-77662064D01*
X45022006Y-77916030D01*
X45022005Y-77916032D01*
X44906842Y-78164205D01*
X44895177Y-78189342D01*
X44895176Y-78189346D01*
X44805907Y-78477118D01*
X44787133Y-78588419D01*
X44755791Y-78774230D01*
X44746249Y-79059654D01*
X44745723Y-79075373D01*
X43102285Y-79075373D01*
X43104298Y-79059654D01*
X43094180Y-78821468D01*
X43083999Y-78774230D01*
X43043954Y-78588419D01*
X42955064Y-78367211D01*
X42955064Y-78367210D01*
X42830069Y-78164205D01*
X42672564Y-77985245D01*
X42487080Y-77835477D01*
X42358929Y-77763887D01*
X42278955Y-77719210D01*
X42054170Y-77639788D01*
X41819209Y-77599500D01*
X41819200Y-77599500D01*
X41640503Y-77599500D01*
X41640498Y-77599500D01*
X41462463Y-77614652D01*
X41231751Y-77674724D01*
X41014519Y-77772919D01*
X41014513Y-77772922D01*
X40955936Y-77812514D01*
X40889370Y-77833745D01*
X40821893Y-77815617D01*
X40774928Y-77763887D01*
X40762500Y-77709778D01*
X40762500Y-75428133D01*
X41025668Y-75428133D01*
X41041058Y-75515410D01*
X41056135Y-75600911D01*
X41125623Y-75762004D01*
X41125624Y-75762006D01*
X41125626Y-75762009D01*
X41180278Y-75835418D01*
X41230390Y-75902730D01*
X41364786Y-76015502D01*
X41442488Y-76054525D01*
X41521562Y-76094238D01*
X41521563Y-76094238D01*
X41521567Y-76094240D01*
X41692279Y-76134700D01*
X41692282Y-76134700D01*
X41823701Y-76134700D01*
X41823709Y-76134700D01*
X41954255Y-76119441D01*
X42119117Y-76059437D01*
X42253139Y-75971289D01*
X45237416Y-75971289D01*
X45237459Y-75995401D01*
X45237500Y-75995499D01*
X45237616Y-75995782D01*
X45237618Y-75995784D01*
X45237808Y-75995862D01*
X45238000Y-75995941D01*
X45238002Y-75995939D01*
X45262616Y-75995924D01*
X45262616Y-75995928D01*
X45262760Y-75995900D01*
X48453240Y-75995900D01*
X48453383Y-75995928D01*
X48453384Y-75995924D01*
X48477997Y-75995939D01*
X48478000Y-75995941D01*
X48478383Y-75995783D01*
X48478500Y-75995499D01*
X48478541Y-75995400D01*
X48478540Y-75995397D01*
X48478583Y-75971289D01*
X48478500Y-75970867D01*
X48478500Y-75428133D01*
X51465668Y-75428133D01*
X51481058Y-75515410D01*
X51496135Y-75600911D01*
X51565623Y-75762004D01*
X51565624Y-75762006D01*
X51565626Y-75762009D01*
X51620278Y-75835418D01*
X51670390Y-75902730D01*
X51804786Y-76015502D01*
X51882488Y-76054525D01*
X51961562Y-76094238D01*
X51961563Y-76094238D01*
X51961567Y-76094240D01*
X52132279Y-76134700D01*
X52132282Y-76134700D01*
X52263701Y-76134700D01*
X52263709Y-76134700D01*
X52394255Y-76119441D01*
X52559117Y-76059437D01*
X52705696Y-75963030D01*
X52826092Y-75835418D01*
X52913812Y-75683481D01*
X52964130Y-75515410D01*
X52974331Y-75340265D01*
X52943865Y-75167489D01*
X52874377Y-75006396D01*
X52769610Y-74865670D01*
X52697747Y-74805370D01*
X52635214Y-74752898D01*
X52635212Y-74752897D01*
X52478437Y-74674161D01*
X52478433Y-74674160D01*
X52307721Y-74633700D01*
X52176291Y-74633700D01*
X52071854Y-74645907D01*
X52045743Y-74648959D01*
X52045740Y-74648960D01*
X51880884Y-74708962D01*
X51880880Y-74708964D01*
X51734306Y-74805367D01*
X51734305Y-74805368D01*
X51613910Y-74932978D01*
X51526188Y-75084918D01*
X51475870Y-75252989D01*
X51475869Y-75252994D01*
X51465668Y-75428133D01*
X48478500Y-75428133D01*
X48478500Y-73033359D01*
X48478528Y-73033216D01*
X48478524Y-73033216D01*
X48478539Y-73008602D01*
X48478541Y-73008600D01*
X48478462Y-73008408D01*
X48478384Y-73008218D01*
X48478382Y-73008216D01*
X48478099Y-73008100D01*
X48478000Y-73008059D01*
X48453446Y-73008059D01*
X48453240Y-73008100D01*
X45262760Y-73008100D01*
X45262554Y-73008059D01*
X45238000Y-73008059D01*
X45237901Y-73008100D01*
X45237617Y-73008216D01*
X45237615Y-73008218D01*
X45237459Y-73008599D01*
X45237476Y-73033216D01*
X45237471Y-73033216D01*
X45237500Y-73033359D01*
X45237500Y-75970867D01*
X45237416Y-75971289D01*
X42253139Y-75971289D01*
X42265696Y-75963030D01*
X42386092Y-75835418D01*
X42473812Y-75683481D01*
X42524130Y-75515410D01*
X42534331Y-75340265D01*
X42503865Y-75167489D01*
X42434377Y-75006396D01*
X42329610Y-74865670D01*
X42257747Y-74805370D01*
X42195214Y-74752898D01*
X42195212Y-74752897D01*
X42038437Y-74674161D01*
X42038433Y-74674160D01*
X41867721Y-74633700D01*
X41736291Y-74633700D01*
X41631854Y-74645907D01*
X41605743Y-74648959D01*
X41605740Y-74648960D01*
X41440884Y-74708962D01*
X41440880Y-74708964D01*
X41294306Y-74805367D01*
X41294305Y-74805368D01*
X41173910Y-74932978D01*
X41086188Y-75084918D01*
X41035870Y-75252989D01*
X41035869Y-75252994D01*
X41025668Y-75428133D01*
X40762500Y-75428133D01*
X40762500Y-69782716D01*
X40764241Y-69766942D01*
X40763974Y-69766917D01*
X40764708Y-69759149D01*
X40762500Y-69688894D01*
X40762500Y-69658889D01*
X40762500Y-69658883D01*
X40761611Y-69651846D01*
X40761152Y-69646018D01*
X40759664Y-69598661D01*
X40753942Y-69578966D01*
X40749999Y-69559933D01*
X40747427Y-69539567D01*
X40729976Y-69495493D01*
X40728087Y-69489973D01*
X40714867Y-69444470D01*
X40704431Y-69426826D01*
X40695870Y-69409351D01*
X40688319Y-69390278D01*
X40660445Y-69351912D01*
X40657254Y-69347053D01*
X40629162Y-69299550D01*
X40631599Y-69298108D01*
X40610984Y-69245577D01*
X40610500Y-69234632D01*
X40610500Y-65188372D01*
X40630185Y-65121333D01*
X40682989Y-65075578D01*
X40752147Y-65065634D01*
X40811811Y-65091424D01*
X41011143Y-65250386D01*
X41238357Y-65381568D01*
X41482584Y-65477420D01*
X41738370Y-65535802D01*
X41738376Y-65535802D01*
X41738379Y-65535803D01*
X41934500Y-65550500D01*
X41934506Y-65550500D01*
X42065500Y-65550500D01*
X42261620Y-65535803D01*
X42261622Y-65535802D01*
X42261630Y-65535802D01*
X42517416Y-65477420D01*
X42601111Y-65444571D01*
X42670705Y-65438403D01*
X42732588Y-65470840D01*
X42764900Y-65523448D01*
X42825937Y-65721323D01*
X42825938Y-65721326D01*
X42939767Y-65957696D01*
X42939768Y-65957697D01*
X42939770Y-65957700D01*
X42939772Y-65957704D01*
X42989869Y-66031182D01*
X43087567Y-66174479D01*
X43266014Y-66366801D01*
X43266018Y-66366804D01*
X43266019Y-66366805D01*
X43471143Y-66530386D01*
X43698357Y-66661568D01*
X43942584Y-66757420D01*
X44198370Y-66815802D01*
X44198376Y-66815802D01*
X44198379Y-66815803D01*
X44394500Y-66830500D01*
X44394506Y-66830500D01*
X44525500Y-66830500D01*
X44721620Y-66815803D01*
X44721622Y-66815802D01*
X44721630Y-66815802D01*
X44977416Y-66757420D01*
X45221643Y-66661568D01*
X45221646Y-66661566D01*
X45221647Y-66661566D01*
X45264118Y-66637045D01*
X45332018Y-66620571D01*
X45398045Y-66643423D01*
X45437839Y-66690630D01*
X45479767Y-66777695D01*
X45479768Y-66777697D01*
X45479770Y-66777700D01*
X45479772Y-66777704D01*
X45505747Y-66815802D01*
X45627567Y-66994479D01*
X45806014Y-67186801D01*
X45806018Y-67186804D01*
X45806019Y-67186805D01*
X46011143Y-67350386D01*
X46238357Y-67481568D01*
X46482584Y-67577420D01*
X46738370Y-67635802D01*
X46738376Y-67635802D01*
X46738379Y-67635803D01*
X46934500Y-67650500D01*
X46934506Y-67650500D01*
X47065500Y-67650500D01*
X47261620Y-67635803D01*
X47261622Y-67635802D01*
X47261630Y-67635802D01*
X47517416Y-67577420D01*
X47761643Y-67481568D01*
X47988857Y-67350386D01*
X48193981Y-67186805D01*
X48372433Y-66994479D01*
X48520228Y-66777704D01*
X48634063Y-66541323D01*
X48711396Y-66290615D01*
X48750500Y-66031182D01*
X48750500Y-65768818D01*
X48711396Y-65509385D01*
X48634063Y-65258677D01*
X48551294Y-65086805D01*
X48520232Y-65022303D01*
X48520231Y-65022302D01*
X48520230Y-65022301D01*
X48520228Y-65022296D01*
X48372433Y-64805521D01*
X48362441Y-64794753D01*
X48193985Y-64613198D01*
X48154533Y-64581736D01*
X47988857Y-64449614D01*
X47761643Y-64318432D01*
X47517416Y-64222580D01*
X47517411Y-64222578D01*
X47517402Y-64222576D01*
X47299818Y-64172914D01*
X47261630Y-64164198D01*
X47261629Y-64164197D01*
X47261625Y-64164197D01*
X47261620Y-64164196D01*
X47065500Y-64149500D01*
X47065494Y-64149500D01*
X46934506Y-64149500D01*
X46934500Y-64149500D01*
X46738379Y-64164196D01*
X46738374Y-64164197D01*
X46482597Y-64222576D01*
X46482578Y-64222582D01*
X46238363Y-64318429D01*
X46238357Y-64318432D01*
X46195877Y-64342957D01*
X46127977Y-64359427D01*
X46061951Y-64336574D01*
X46022160Y-64289369D01*
X45980232Y-64202303D01*
X45980231Y-64202302D01*
X45980230Y-64202301D01*
X45980228Y-64202296D01*
X45832433Y-63985521D01*
X45822441Y-63974753D01*
X45653985Y-63793198D01*
X45614533Y-63761736D01*
X45448857Y-63629614D01*
X45221643Y-63498432D01*
X44977416Y-63402580D01*
X44977411Y-63402578D01*
X44977402Y-63402576D01*
X44759818Y-63352914D01*
X44721630Y-63344198D01*
X44721629Y-63344197D01*
X44721625Y-63344197D01*
X44721620Y-63344196D01*
X44525500Y-63329500D01*
X44525494Y-63329500D01*
X44394506Y-63329500D01*
X44394500Y-63329500D01*
X44198379Y-63344196D01*
X44198374Y-63344197D01*
X43942585Y-63402579D01*
X43858890Y-63435426D01*
X43789293Y-63441593D01*
X43727410Y-63409155D01*
X43695098Y-63356547D01*
X43641048Y-63181323D01*
X43634063Y-63158677D01*
X43622121Y-63133880D01*
X43520232Y-62922303D01*
X43520231Y-62922302D01*
X43520230Y-62922301D01*
X43520228Y-62922296D01*
X43372433Y-62705521D01*
X43305048Y-62632897D01*
X43193985Y-62513198D01*
X43007143Y-62364197D01*
X42988857Y-62349614D01*
X42976811Y-62342659D01*
X42928599Y-62292090D01*
X42915379Y-62223483D01*
X42941350Y-62158619D01*
X42951128Y-62147602D01*
X43990072Y-61108658D01*
X44002461Y-61098735D01*
X44002289Y-61098528D01*
X44008298Y-61093555D01*
X44008303Y-61093553D01*
X44056441Y-61042290D01*
X44077638Y-61021094D01*
X44081979Y-61015497D01*
X44085774Y-61011054D01*
X44118217Y-60976506D01*
X44128102Y-60958524D01*
X44138773Y-60942278D01*
X44151349Y-60926067D01*
X44170172Y-60882567D01*
X44172740Y-60877328D01*
X44180850Y-60862576D01*
X44195569Y-60835803D01*
X44200670Y-60815931D01*
X44206973Y-60797526D01*
X44215117Y-60778708D01*
X44222533Y-60731875D01*
X44223708Y-60726201D01*
X44235500Y-60680282D01*
X44235500Y-60659774D01*
X44237027Y-60640374D01*
X44238228Y-60632790D01*
X44240235Y-60620121D01*
X44235775Y-60572939D01*
X44235500Y-60567101D01*
X44235500Y-60075373D01*
X44745723Y-60075373D01*
X44775881Y-60375160D01*
X44775882Y-60375162D01*
X44845728Y-60668252D01*
X44845730Y-60668259D01*
X44845731Y-60668261D01*
X44866997Y-60723477D01*
X44954020Y-60949427D01*
X44954024Y-60949436D01*
X45098825Y-61213665D01*
X45098829Y-61213671D01*
X45209962Y-61364502D01*
X45277554Y-61456238D01*
X45277561Y-61456245D01*
X45487019Y-61672823D01*
X45723478Y-61859553D01*
X45723480Y-61859554D01*
X45723485Y-61859558D01*
X45982730Y-62013109D01*
X46260128Y-62130736D01*
X46550729Y-62210340D01*
X46849347Y-62250500D01*
X46849351Y-62250500D01*
X47075252Y-62250500D01*
X47239164Y-62239526D01*
X47300634Y-62235412D01*
X47595903Y-62175396D01*
X47880537Y-62076560D01*
X48149459Y-61940668D01*
X48397869Y-61770144D01*
X48621333Y-61568032D01*
X48815865Y-61337939D01*
X48977993Y-61083970D01*
X49104823Y-60810658D01*
X49194093Y-60522879D01*
X49244209Y-60225770D01*
X49254277Y-59924631D01*
X49224118Y-59624838D01*
X49154269Y-59331739D01*
X49045977Y-59050566D01*
X48901175Y-58786335D01*
X48722446Y-58543762D01*
X48512980Y-58327176D01*
X48389742Y-58229856D01*
X48276521Y-58140446D01*
X48276517Y-58140443D01*
X48276515Y-58140442D01*
X48017270Y-57986891D01*
X47739872Y-57869264D01*
X47739863Y-57869261D01*
X47449272Y-57789660D01*
X47374616Y-57779620D01*
X47150653Y-57749500D01*
X46924756Y-57749500D01*
X46924748Y-57749500D01*
X46699368Y-57764587D01*
X46699359Y-57764589D01*
X46404094Y-57824604D01*
X46119464Y-57923439D01*
X46119459Y-57923441D01*
X45850546Y-58059328D01*
X45602125Y-58229860D01*
X45378665Y-58431969D01*
X45184132Y-58662064D01*
X45022006Y-58916030D01*
X45022005Y-58916032D01*
X44906842Y-59164205D01*
X44895177Y-59189342D01*
X44895176Y-59189346D01*
X44805907Y-59477118D01*
X44787133Y-59588419D01*
X44755791Y-59774230D01*
X44746249Y-60059654D01*
X44745723Y-60075373D01*
X44235500Y-60075373D01*
X44235500Y-56971289D01*
X45237416Y-56971289D01*
X45237459Y-56995401D01*
X45237500Y-56995499D01*
X45237616Y-56995782D01*
X45237618Y-56995784D01*
X45237808Y-56995862D01*
X45238000Y-56995941D01*
X45238002Y-56995939D01*
X45262616Y-56995924D01*
X45262616Y-56995928D01*
X45262760Y-56995900D01*
X48453240Y-56995900D01*
X48453383Y-56995928D01*
X48453384Y-56995924D01*
X48477997Y-56995939D01*
X48478000Y-56995941D01*
X48478383Y-56995783D01*
X48478500Y-56995499D01*
X48478541Y-56995400D01*
X48478540Y-56995397D01*
X48478583Y-56971289D01*
X48478500Y-56970867D01*
X48478500Y-56428133D01*
X51465668Y-56428133D01*
X51481058Y-56515410D01*
X51496135Y-56600911D01*
X51565623Y-56762004D01*
X51565624Y-56762006D01*
X51565626Y-56762009D01*
X51620278Y-56835418D01*
X51670390Y-56902730D01*
X51804786Y-57015502D01*
X51882488Y-57054525D01*
X51961562Y-57094238D01*
X51961563Y-57094238D01*
X51961567Y-57094240D01*
X52132279Y-57134700D01*
X52132282Y-57134700D01*
X52263701Y-57134700D01*
X52263709Y-57134700D01*
X52394255Y-57119441D01*
X52559117Y-57059437D01*
X52705696Y-56963030D01*
X52826092Y-56835418D01*
X52913812Y-56683481D01*
X52964130Y-56515410D01*
X52974331Y-56340265D01*
X52943865Y-56167489D01*
X52874377Y-56006396D01*
X52769610Y-55865670D01*
X52697747Y-55805370D01*
X52635214Y-55752898D01*
X52635212Y-55752897D01*
X52478437Y-55674161D01*
X52478433Y-55674160D01*
X52307721Y-55633700D01*
X52176291Y-55633700D01*
X52071854Y-55645907D01*
X52045743Y-55648959D01*
X52045740Y-55648960D01*
X51880884Y-55708962D01*
X51880880Y-55708964D01*
X51734306Y-55805367D01*
X51734305Y-55805368D01*
X51613910Y-55932978D01*
X51526188Y-56084918D01*
X51475870Y-56252989D01*
X51475869Y-56252994D01*
X51465668Y-56428133D01*
X48478500Y-56428133D01*
X48478500Y-54033359D01*
X48478528Y-54033216D01*
X48478524Y-54033216D01*
X48478539Y-54008602D01*
X48478541Y-54008600D01*
X48478462Y-54008408D01*
X48478384Y-54008218D01*
X48478382Y-54008216D01*
X48478099Y-54008100D01*
X48478000Y-54008059D01*
X48453446Y-54008059D01*
X48453240Y-54008100D01*
X45262760Y-54008100D01*
X45262554Y-54008059D01*
X45238000Y-54008059D01*
X45237901Y-54008100D01*
X45237617Y-54008216D01*
X45237615Y-54008218D01*
X45237459Y-54008599D01*
X45237476Y-54033216D01*
X45237471Y-54033216D01*
X45237500Y-54033359D01*
X45237500Y-56970867D01*
X45237416Y-56971289D01*
X44235500Y-56971289D01*
X44235500Y-53714593D01*
X44255185Y-53647554D01*
X44271814Y-53626917D01*
X49390072Y-48508658D01*
X49402461Y-48498735D01*
X49402289Y-48498528D01*
X49408298Y-48493555D01*
X49408303Y-48493553D01*
X49456441Y-48442290D01*
X49477638Y-48421094D01*
X49481979Y-48415497D01*
X49485774Y-48411054D01*
X49518217Y-48376506D01*
X49528102Y-48358524D01*
X49538773Y-48342278D01*
X49551349Y-48326067D01*
X49570172Y-48282567D01*
X49572740Y-48277328D01*
X49595569Y-48235803D01*
X49600670Y-48215931D01*
X49606973Y-48197526D01*
X49615117Y-48178708D01*
X49622533Y-48131875D01*
X49623708Y-48126201D01*
X49635500Y-48080282D01*
X49635500Y-48059774D01*
X49637027Y-48040374D01*
X49640235Y-48020121D01*
X49635775Y-47972939D01*
X49635500Y-47967101D01*
X49635500Y-45683851D01*
X49637242Y-45668069D01*
X49636975Y-45668044D01*
X49637707Y-45660288D01*
X49637709Y-45660281D01*
X49635500Y-45589996D01*
X49635500Y-45560017D01*
X49634610Y-45552982D01*
X49634153Y-45547164D01*
X49632665Y-45499795D01*
X49626941Y-45480093D01*
X49622997Y-45461049D01*
X49620427Y-45440701D01*
X49602973Y-45396618D01*
X49601098Y-45391142D01*
X49587869Y-45345607D01*
X49577427Y-45327951D01*
X49568869Y-45310482D01*
X49561318Y-45291410D01*
X49549978Y-45275803D01*
X49533448Y-45253052D01*
X49530257Y-45248192D01*
X49506138Y-45207407D01*
X49506129Y-45207397D01*
X49491639Y-45192907D01*
X49479000Y-45178110D01*
X49466942Y-45161513D01*
X49466939Y-45161511D01*
X49466939Y-45161510D01*
X49430422Y-45131301D01*
X49426110Y-45127378D01*
X48108658Y-43809925D01*
X48098732Y-43797535D01*
X48098525Y-43797707D01*
X48093552Y-43791696D01*
X48042306Y-43743573D01*
X48021097Y-43722363D01*
X48015492Y-43718015D01*
X48011046Y-43714218D01*
X47976509Y-43681785D01*
X47976501Y-43681780D01*
X47958540Y-43671906D01*
X47942274Y-43661222D01*
X47926064Y-43648648D01*
X47882571Y-43629827D01*
X47877323Y-43627256D01*
X47835805Y-43604432D01*
X47835804Y-43604431D01*
X47835803Y-43604431D01*
X47815937Y-43599330D01*
X47797538Y-43593030D01*
X47778709Y-43584883D01*
X47778708Y-43584882D01*
X47731902Y-43577469D01*
X47726181Y-43576284D01*
X47680283Y-43564500D01*
X47680282Y-43564500D01*
X47659774Y-43564500D01*
X47640376Y-43562973D01*
X47629769Y-43561293D01*
X47620122Y-43559765D01*
X47620121Y-43559764D01*
X47572939Y-43564225D01*
X47567101Y-43564500D01*
X46114595Y-43564500D01*
X46047556Y-43544815D01*
X46026914Y-43528181D01*
X45484456Y-42985723D01*
X45450971Y-42924400D01*
X45455955Y-42854708D01*
X45497827Y-42798775D01*
X45563291Y-42774358D01*
X45631564Y-42789210D01*
X45648986Y-42800727D01*
X45723478Y-42859553D01*
X45723480Y-42859554D01*
X45723485Y-42859558D01*
X45982730Y-43013109D01*
X46260128Y-43130736D01*
X46550729Y-43210340D01*
X46849347Y-43250500D01*
X46849351Y-43250500D01*
X47075252Y-43250500D01*
X47239164Y-43239526D01*
X47300634Y-43235412D01*
X47595903Y-43175396D01*
X47880537Y-43076560D01*
X48149459Y-42940668D01*
X48397869Y-42770144D01*
X48621333Y-42568032D01*
X48815865Y-42337939D01*
X48977993Y-42083970D01*
X49104823Y-41810658D01*
X49194093Y-41522879D01*
X49244209Y-41225770D01*
X49254277Y-40924631D01*
X49224118Y-40624838D01*
X49154269Y-40331739D01*
X49045977Y-40050566D01*
X48901175Y-39786335D01*
X48722446Y-39543762D01*
X48512980Y-39327176D01*
X48354979Y-39202404D01*
X48276521Y-39140446D01*
X48276517Y-39140443D01*
X48276515Y-39140442D01*
X48017270Y-38986891D01*
X47739872Y-38869264D01*
X47739863Y-38869261D01*
X47449272Y-38789660D01*
X47374616Y-38779620D01*
X47150653Y-38749500D01*
X46924756Y-38749500D01*
X46924748Y-38749500D01*
X46699368Y-38764587D01*
X46699359Y-38764589D01*
X46404094Y-38824604D01*
X46119464Y-38923439D01*
X46119459Y-38923441D01*
X45850546Y-39059328D01*
X45602125Y-39229860D01*
X45378665Y-39431969D01*
X45184132Y-39662064D01*
X45064019Y-39850219D01*
X45011354Y-39896134D01*
X44942226Y-39906288D01*
X44878582Y-39877456D01*
X44840630Y-39818793D01*
X44835500Y-39783497D01*
X44835500Y-34914594D01*
X44855185Y-34847555D01*
X44871819Y-34826913D01*
X45889604Y-33809128D01*
X46964486Y-32734245D01*
X47025807Y-32700762D01*
X47095499Y-32705746D01*
X47151432Y-32747618D01*
X47162190Y-32765947D01*
X47162224Y-32765928D01*
X47164901Y-32770564D01*
X47165440Y-32771483D01*
X47165469Y-32771549D01*
X47165472Y-32771555D01*
X47165473Y-32771556D01*
X47260960Y-32936944D01*
X47388747Y-33078866D01*
X47543248Y-33191118D01*
X47717712Y-33268794D01*
X47904513Y-33308500D01*
X48095487Y-33308500D01*
X48214720Y-33283156D01*
X48284386Y-33288472D01*
X48340119Y-33330609D01*
X48364225Y-33396188D01*
X48364500Y-33404446D01*
X48364500Y-34884100D01*
X48344815Y-34951139D01*
X48292011Y-34996894D01*
X48240500Y-35008100D01*
X45262760Y-35008100D01*
X45262554Y-35008059D01*
X45238000Y-35008059D01*
X45237901Y-35008100D01*
X45237617Y-35008216D01*
X45237615Y-35008218D01*
X45237459Y-35008599D01*
X45237476Y-35033216D01*
X45237471Y-35033216D01*
X45237500Y-35033359D01*
X45237500Y-37970867D01*
X45237416Y-37971289D01*
X45237459Y-37995401D01*
X45237500Y-37995499D01*
X45237616Y-37995782D01*
X45237618Y-37995784D01*
X45237808Y-37995862D01*
X45238000Y-37995941D01*
X45238002Y-37995939D01*
X45262616Y-37995924D01*
X45262616Y-37995928D01*
X45262760Y-37995900D01*
X48453240Y-37995900D01*
X48453383Y-37995928D01*
X48453384Y-37995924D01*
X48477997Y-37995939D01*
X48478000Y-37995941D01*
X48478383Y-37995783D01*
X48478500Y-37995499D01*
X48478541Y-37995400D01*
X48478540Y-37995397D01*
X48478583Y-37971289D01*
X48478500Y-37970867D01*
X48478500Y-37676594D01*
X48498185Y-37609555D01*
X48550989Y-37563800D01*
X48620147Y-37553856D01*
X48683703Y-37582881D01*
X48690181Y-37588913D01*
X49693787Y-38592519D01*
X49718988Y-38628881D01*
X49958319Y-39155321D01*
X49959082Y-39156818D01*
X49962747Y-39165667D01*
X49962834Y-39165629D01*
X49965473Y-39171558D01*
X49974163Y-39186607D01*
X49975713Y-39189463D01*
X49979049Y-39196011D01*
X49979054Y-39196018D01*
X49980010Y-39197526D01*
X49983282Y-39202404D01*
X50060958Y-39336942D01*
X50060960Y-39336944D01*
X50188747Y-39478866D01*
X50343248Y-39591118D01*
X50517712Y-39668794D01*
X50704513Y-39708500D01*
X50895487Y-39708500D01*
X51082288Y-39668794D01*
X51256752Y-39591118D01*
X51411253Y-39478866D01*
X51539040Y-39336944D01*
X51634527Y-39171556D01*
X51693542Y-38989928D01*
X51713504Y-38800000D01*
X51693542Y-38610072D01*
X51634527Y-38428444D01*
X51539040Y-38263056D01*
X51411253Y-38121134D01*
X51256752Y-38008882D01*
X51191557Y-37979855D01*
X51175148Y-37971014D01*
X51155318Y-37958318D01*
X51155315Y-37958316D01*
X51155311Y-37958314D01*
X50628884Y-37718990D01*
X50592522Y-37693789D01*
X49671819Y-36773086D01*
X49638334Y-36711763D01*
X49635500Y-36685405D01*
X49635500Y-33323398D01*
X49655185Y-33256359D01*
X49707989Y-33210604D01*
X49777147Y-33200660D01*
X49840703Y-33229685D01*
X49847181Y-33235717D01*
X51454805Y-34843341D01*
X51488290Y-34904664D01*
X51486631Y-34964098D01*
X51338307Y-35500004D01*
X51332695Y-35522191D01*
X51331854Y-35527237D01*
X51331139Y-35527117D01*
X51327449Y-35545466D01*
X51306460Y-35610065D01*
X51306458Y-35610070D01*
X51306458Y-35610072D01*
X51286496Y-35800000D01*
X51306458Y-35989928D01*
X51306459Y-35989931D01*
X51365470Y-36171549D01*
X51365473Y-36171556D01*
X51460960Y-36336944D01*
X51588747Y-36478866D01*
X51729721Y-36581290D01*
X51748506Y-36594938D01*
X51746742Y-36597365D01*
X51786000Y-36638431D01*
X51799312Y-36707021D01*
X51773427Y-36771919D01*
X51744003Y-36798990D01*
X51734304Y-36805369D01*
X51613910Y-36932978D01*
X51526188Y-37084918D01*
X51475870Y-37252989D01*
X51475869Y-37252994D01*
X51465668Y-37428133D01*
X51489591Y-37563800D01*
X51496135Y-37600911D01*
X51565623Y-37762004D01*
X51565624Y-37762006D01*
X51565626Y-37762009D01*
X51620278Y-37835418D01*
X51670390Y-37902730D01*
X51804786Y-38015502D01*
X51882488Y-38054525D01*
X51961562Y-38094238D01*
X51961563Y-38094238D01*
X51961567Y-38094240D01*
X52132279Y-38134700D01*
X52132282Y-38134700D01*
X52263701Y-38134700D01*
X52263709Y-38134700D01*
X52394255Y-38119441D01*
X52559117Y-38059437D01*
X52705696Y-37963030D01*
X52826092Y-37835418D01*
X52913812Y-37683481D01*
X52964130Y-37515410D01*
X52974331Y-37340265D01*
X52943865Y-37167489D01*
X52874377Y-37006396D01*
X52769610Y-36865670D01*
X52769609Y-36865669D01*
X52663458Y-36776597D01*
X52624756Y-36718426D01*
X52623648Y-36648565D01*
X52660485Y-36589195D01*
X52670279Y-36581290D01*
X52811253Y-36478866D01*
X52856046Y-36429117D01*
X52915529Y-36392471D01*
X52985386Y-36393800D01*
X53035875Y-36424410D01*
X53714681Y-37103216D01*
X53748166Y-37164539D01*
X53751000Y-37190897D01*
X53751000Y-40247539D01*
X53731315Y-40314578D01*
X53678511Y-40360333D01*
X53609353Y-40370277D01*
X53545797Y-40341252D01*
X53521410Y-40312553D01*
X53430069Y-40164205D01*
X53272564Y-39985245D01*
X53087080Y-39835477D01*
X52973130Y-39771820D01*
X52878955Y-39719210D01*
X52654170Y-39639788D01*
X52419209Y-39599500D01*
X52419200Y-39599500D01*
X52240503Y-39599500D01*
X52240498Y-39599500D01*
X52062463Y-39614652D01*
X51831751Y-39674724D01*
X51614519Y-39772919D01*
X51614511Y-39772924D01*
X51417006Y-39906413D01*
X51416997Y-39906421D01*
X51244881Y-40071379D01*
X51103123Y-40263050D01*
X51103120Y-40263054D01*
X50995796Y-40475920D01*
X50995793Y-40475926D01*
X50925983Y-40703878D01*
X50895702Y-40940346D01*
X50905819Y-41178528D01*
X50905819Y-41178532D01*
X50956046Y-41411582D01*
X50956046Y-41411583D01*
X51040876Y-41622689D01*
X51047607Y-41692233D01*
X51015671Y-41754377D01*
X50955207Y-41789390D01*
X50916552Y-41792576D01*
X50875500Y-41789500D01*
X50875494Y-41789500D01*
X50744506Y-41789500D01*
X50744500Y-41789500D01*
X50548379Y-41804196D01*
X50548374Y-41804197D01*
X50292597Y-41862576D01*
X50292578Y-41862582D01*
X50048356Y-41958432D01*
X49821143Y-42089614D01*
X49616014Y-42253198D01*
X49437567Y-42445520D01*
X49289768Y-42662302D01*
X49289767Y-42662303D01*
X49175938Y-42898673D01*
X49098606Y-43149376D01*
X49098605Y-43149381D01*
X49098604Y-43149385D01*
X49086415Y-43230255D01*
X49059500Y-43408812D01*
X49059500Y-43671187D01*
X49067214Y-43722361D01*
X49098604Y-43930615D01*
X49098605Y-43930617D01*
X49098606Y-43930623D01*
X49175938Y-44181326D01*
X49289767Y-44417696D01*
X49289768Y-44417697D01*
X49289770Y-44417700D01*
X49289772Y-44417704D01*
X49335146Y-44484255D01*
X49437567Y-44634479D01*
X49616014Y-44826801D01*
X49616018Y-44826804D01*
X49616019Y-44826805D01*
X49821143Y-44990386D01*
X50048357Y-45121568D01*
X50292584Y-45217420D01*
X50548370Y-45275802D01*
X50548376Y-45275802D01*
X50548379Y-45275803D01*
X50744500Y-45290500D01*
X50744506Y-45290500D01*
X50875500Y-45290500D01*
X51071620Y-45275803D01*
X51071622Y-45275802D01*
X51071630Y-45275802D01*
X51327416Y-45217420D01*
X51571643Y-45121568D01*
X51798857Y-44990386D01*
X52003981Y-44826805D01*
X52004197Y-44826573D01*
X52043945Y-44783733D01*
X52182433Y-44634479D01*
X52330228Y-44417704D01*
X52444063Y-44181323D01*
X52521396Y-43930615D01*
X52560500Y-43671182D01*
X52560500Y-43408818D01*
X52521396Y-43149385D01*
X52444063Y-42898677D01*
X52382165Y-42770144D01*
X52330232Y-42662303D01*
X52330225Y-42662292D01*
X52282720Y-42592615D01*
X52261219Y-42526136D01*
X52279073Y-42458586D01*
X52330613Y-42411411D01*
X52374657Y-42399210D01*
X52537536Y-42385347D01*
X52537539Y-42385346D01*
X52537541Y-42385346D01*
X52768249Y-42325275D01*
X52972255Y-42233058D01*
X52985480Y-42227080D01*
X52985481Y-42227078D01*
X52985486Y-42227077D01*
X53183003Y-42093579D01*
X53355118Y-41928621D01*
X53496879Y-41736947D01*
X53516277Y-41698472D01*
X53564035Y-41647473D01*
X53631784Y-41630389D01*
X53698014Y-41652645D01*
X53741698Y-41707175D01*
X53751000Y-41754297D01*
X53751000Y-50569601D01*
X53731315Y-50636640D01*
X53714681Y-50657282D01*
X53305926Y-51066036D01*
X53279361Y-51086248D01*
X53061167Y-51209845D01*
X52763315Y-51378564D01*
X52763312Y-51378566D01*
X52741361Y-51391656D01*
X52734820Y-51395047D01*
X52703750Y-51408880D01*
X52549245Y-51521135D01*
X52421459Y-51663057D01*
X52325973Y-51828443D01*
X52325970Y-51828450D01*
X52266959Y-52010068D01*
X52266958Y-52010072D01*
X52246996Y-52200000D01*
X52266958Y-52389928D01*
X52266959Y-52389931D01*
X52325970Y-52571549D01*
X52325973Y-52571556D01*
X52421460Y-52736944D01*
X52549247Y-52878866D01*
X52703748Y-52991118D01*
X52878212Y-53068794D01*
X53065013Y-53108500D01*
X53255987Y-53108500D01*
X53442783Y-53068795D01*
X53442782Y-53068795D01*
X53442788Y-53068794D01*
X53576568Y-53009231D01*
X53645814Y-52999948D01*
X53709091Y-53029576D01*
X53746304Y-53088711D01*
X53751000Y-53122512D01*
X53751000Y-59247539D01*
X53731315Y-59314578D01*
X53678511Y-59360333D01*
X53609353Y-59370277D01*
X53545797Y-59341252D01*
X53521410Y-59312553D01*
X53430069Y-59164205D01*
X53272564Y-58985245D01*
X53087080Y-58835477D01*
X52973130Y-58771820D01*
X52878955Y-58719210D01*
X52654170Y-58639788D01*
X52419209Y-58599500D01*
X52419200Y-58599500D01*
X52240503Y-58599500D01*
X52240498Y-58599500D01*
X52062463Y-58614652D01*
X51831751Y-58674724D01*
X51614519Y-58772919D01*
X51614511Y-58772924D01*
X51417006Y-58906413D01*
X51416997Y-58906421D01*
X51244881Y-59071379D01*
X51103123Y-59263050D01*
X51103120Y-59263054D01*
X50995796Y-59475920D01*
X50995793Y-59475926D01*
X50925983Y-59703878D01*
X50895702Y-59940346D01*
X50905819Y-60178528D01*
X50905819Y-60178532D01*
X50956046Y-60411582D01*
X50956046Y-60411583D01*
X51040876Y-60622689D01*
X51047607Y-60692233D01*
X51015671Y-60754377D01*
X50955207Y-60789390D01*
X50916552Y-60792576D01*
X50875500Y-60789500D01*
X50875494Y-60789500D01*
X50744506Y-60789500D01*
X50744500Y-60789500D01*
X50548379Y-60804196D01*
X50548374Y-60804197D01*
X50292597Y-60862576D01*
X50292578Y-60862582D01*
X50048356Y-60958432D01*
X49821143Y-61089614D01*
X49616014Y-61253198D01*
X49437567Y-61445520D01*
X49289768Y-61662302D01*
X49289767Y-61662303D01*
X49175938Y-61898673D01*
X49098606Y-62149376D01*
X49098605Y-62149381D01*
X49098604Y-62149385D01*
X49087435Y-62223483D01*
X49059500Y-62408812D01*
X49059500Y-62671187D01*
X49079794Y-62805823D01*
X49098604Y-62930615D01*
X49098605Y-62930617D01*
X49098606Y-62930623D01*
X49175938Y-63181326D01*
X49289767Y-63417696D01*
X49289768Y-63417697D01*
X49289770Y-63417700D01*
X49289772Y-63417704D01*
X49338126Y-63488626D01*
X49437567Y-63634479D01*
X49616014Y-63826801D01*
X49616018Y-63826804D01*
X49616019Y-63826805D01*
X49821143Y-63990386D01*
X50048357Y-64121568D01*
X50292584Y-64217420D01*
X50548370Y-64275802D01*
X50548376Y-64275802D01*
X50548379Y-64275803D01*
X50744500Y-64290500D01*
X50744506Y-64290500D01*
X50875500Y-64290500D01*
X51071620Y-64275803D01*
X51071622Y-64275802D01*
X51071630Y-64275802D01*
X51327416Y-64217420D01*
X51571643Y-64121568D01*
X51798857Y-63990386D01*
X52003981Y-63826805D01*
X52035167Y-63793195D01*
X52043945Y-63783733D01*
X52182433Y-63634479D01*
X52330228Y-63417704D01*
X52444063Y-63181323D01*
X52521396Y-62930615D01*
X52560500Y-62671182D01*
X52560500Y-62408818D01*
X52521396Y-62149385D01*
X52444063Y-61898677D01*
X52382165Y-61770144D01*
X52330232Y-61662303D01*
X52330225Y-61662292D01*
X52312822Y-61636767D01*
X52282719Y-61592614D01*
X52261219Y-61526136D01*
X52279073Y-61458586D01*
X52330613Y-61411411D01*
X52374657Y-61399210D01*
X52537536Y-61385347D01*
X52537539Y-61385346D01*
X52537541Y-61385346D01*
X52768249Y-61325275D01*
X52927707Y-61253195D01*
X52985480Y-61227080D01*
X52985481Y-61227078D01*
X52985486Y-61227077D01*
X53129434Y-61129784D01*
X53182993Y-61093586D01*
X53182994Y-61093584D01*
X53183003Y-61093579D01*
X53355118Y-60928621D01*
X53496879Y-60736947D01*
X53516277Y-60698472D01*
X53564035Y-60647473D01*
X53631784Y-60630389D01*
X53698014Y-60652645D01*
X53741698Y-60707175D01*
X53751000Y-60754297D01*
X53751000Y-69769601D01*
X53731315Y-69836640D01*
X53714681Y-69857282D01*
X53305926Y-70266036D01*
X53279361Y-70286248D01*
X52906154Y-70497652D01*
X52763315Y-70578564D01*
X52763312Y-70578566D01*
X52741361Y-70591656D01*
X52734820Y-70595047D01*
X52703750Y-70608880D01*
X52549245Y-70721135D01*
X52421459Y-70863057D01*
X52325973Y-71028443D01*
X52325970Y-71028450D01*
X52266959Y-71210068D01*
X52266958Y-71210072D01*
X52246996Y-71400000D01*
X52266958Y-71589928D01*
X52266959Y-71589931D01*
X52325970Y-71771549D01*
X52325973Y-71771556D01*
X52421460Y-71936944D01*
X52549247Y-72078866D01*
X52703748Y-72191118D01*
X52878212Y-72268794D01*
X53065013Y-72308500D01*
X53255987Y-72308500D01*
X53442783Y-72268795D01*
X53442782Y-72268795D01*
X53442788Y-72268794D01*
X53576568Y-72209231D01*
X53645814Y-72199948D01*
X53709091Y-72229576D01*
X53746304Y-72288711D01*
X53751000Y-72322512D01*
X53751000Y-78247539D01*
X53731315Y-78314578D01*
X53678511Y-78360333D01*
X53609353Y-78370277D01*
X53545797Y-78341252D01*
X53521410Y-78312553D01*
X53430069Y-78164205D01*
X53272564Y-77985245D01*
X53087080Y-77835477D01*
X52958929Y-77763887D01*
X52878955Y-77719210D01*
X52654170Y-77639788D01*
X52419209Y-77599500D01*
X52419200Y-77599500D01*
X52240503Y-77599500D01*
X52240498Y-77599500D01*
X52062463Y-77614652D01*
X51831751Y-77674724D01*
X51614519Y-77772919D01*
X51614511Y-77772924D01*
X51417006Y-77906413D01*
X51416997Y-77906421D01*
X51244881Y-78071379D01*
X51103123Y-78263050D01*
X51103120Y-78263054D01*
X50995796Y-78475920D01*
X50995793Y-78475926D01*
X50925983Y-78703878D01*
X50895702Y-78940346D01*
X50905819Y-79178528D01*
X50905819Y-79178532D01*
X50956046Y-79411582D01*
X50956046Y-79411583D01*
X51040876Y-79622689D01*
X51047607Y-79692233D01*
X51015671Y-79754377D01*
X50955207Y-79789390D01*
X50916552Y-79792576D01*
X50875500Y-79789500D01*
X50875494Y-79789500D01*
X50744506Y-79789500D01*
X50744500Y-79789500D01*
X50548379Y-79804196D01*
X50548374Y-79804197D01*
X50292597Y-79862576D01*
X50292578Y-79862582D01*
X50048356Y-79958432D01*
X49821143Y-80089614D01*
X49616014Y-80253198D01*
X49437567Y-80445520D01*
X49289768Y-80662302D01*
X49289767Y-80662303D01*
X49175938Y-80898673D01*
X49098606Y-81149376D01*
X49098605Y-81149381D01*
X49098604Y-81149385D01*
X49088197Y-81218432D01*
X49059500Y-81408812D01*
X49059500Y-81671187D01*
X49079794Y-81805823D01*
X49098604Y-81930615D01*
X49098605Y-81930617D01*
X49098606Y-81930623D01*
X49175938Y-82181326D01*
X49289767Y-82417696D01*
X49289768Y-82417697D01*
X49289770Y-82417700D01*
X49289772Y-82417704D01*
X49381806Y-82552693D01*
X49437567Y-82634479D01*
X49616014Y-82826801D01*
X49616018Y-82826804D01*
X49616019Y-82826805D01*
X49821143Y-82990386D01*
X50048357Y-83121568D01*
X50292584Y-83217420D01*
X50548370Y-83275802D01*
X50548376Y-83275802D01*
X50548379Y-83275803D01*
X50744500Y-83290500D01*
X50744506Y-83290500D01*
X50875500Y-83290500D01*
X51071620Y-83275803D01*
X51071622Y-83275802D01*
X51071630Y-83275802D01*
X51327416Y-83217420D01*
X51571643Y-83121568D01*
X51798857Y-82990386D01*
X52003981Y-82826805D01*
X52035167Y-82793195D01*
X52043945Y-82783733D01*
X52182433Y-82634479D01*
X52330228Y-82417704D01*
X52444063Y-82181323D01*
X52521396Y-81930615D01*
X52560500Y-81671182D01*
X52560500Y-81408818D01*
X52521396Y-81149385D01*
X52444063Y-80898677D01*
X52382165Y-80770144D01*
X52330232Y-80662303D01*
X52330225Y-80662292D01*
X52313595Y-80637901D01*
X52282719Y-80592614D01*
X52261219Y-80526136D01*
X52279073Y-80458586D01*
X52330613Y-80411411D01*
X52374657Y-80399210D01*
X52537536Y-80385347D01*
X52537539Y-80385346D01*
X52537541Y-80385346D01*
X52768249Y-80325275D01*
X52927707Y-80253195D01*
X52985480Y-80227080D01*
X52985481Y-80227078D01*
X52985486Y-80227077D01*
X53183003Y-80093579D01*
X53355118Y-79928621D01*
X53496879Y-79736947D01*
X53516277Y-79698472D01*
X53564035Y-79647473D01*
X53631784Y-79630389D01*
X53698014Y-79652645D01*
X53741698Y-79707175D01*
X53751000Y-79754297D01*
X53751000Y-88569601D01*
X53731315Y-88636640D01*
X53714681Y-88657282D01*
X53305926Y-89066036D01*
X53279361Y-89086248D01*
X52906154Y-89297652D01*
X52763315Y-89378564D01*
X52763312Y-89378566D01*
X52741361Y-89391656D01*
X52734820Y-89395047D01*
X52703750Y-89408880D01*
X52549245Y-89521135D01*
X52421459Y-89663057D01*
X52325973Y-89828443D01*
X52325970Y-89828450D01*
X52266959Y-90010068D01*
X52266958Y-90010072D01*
X52246996Y-90200000D01*
X52266958Y-90389928D01*
X52266959Y-90389931D01*
X52325970Y-90571549D01*
X52325973Y-90571556D01*
X52421460Y-90736944D01*
X52493568Y-90817028D01*
X52523797Y-90880020D01*
X52515171Y-90949355D01*
X52493568Y-90982971D01*
X52421460Y-91063056D01*
X52421458Y-91063057D01*
X52421457Y-91063060D01*
X52325973Y-91228443D01*
X52325970Y-91228450D01*
X52266959Y-91410068D01*
X52266958Y-91410072D01*
X52246996Y-91600000D01*
X52266958Y-91789928D01*
X52266959Y-91789931D01*
X52325970Y-91971549D01*
X52325973Y-91971556D01*
X52421460Y-92136944D01*
X52549247Y-92278866D01*
X52703748Y-92391118D01*
X52878212Y-92468794D01*
X53065013Y-92508500D01*
X53255987Y-92508500D01*
X53442788Y-92468794D01*
X53617252Y-92391118D01*
X53771753Y-92278866D01*
X53899540Y-92136944D01*
X53960478Y-92031394D01*
X53969521Y-92018464D01*
X53969380Y-92018362D01*
X53971971Y-92014774D01*
X54111064Y-91789928D01*
X54285895Y-91507311D01*
X54303660Y-91484874D01*
X55903019Y-89885514D01*
X55905694Y-89882995D01*
X55952052Y-89841927D01*
X55987221Y-89790973D01*
X55989407Y-89788002D01*
X56027584Y-89739275D01*
X56031722Y-89730078D01*
X56042745Y-89710533D01*
X56048480Y-89702227D01*
X56070433Y-89644338D01*
X56071847Y-89640925D01*
X56097251Y-89584483D01*
X56099069Y-89574560D01*
X56105092Y-89552949D01*
X56108673Y-89543510D01*
X56116131Y-89482081D01*
X56116694Y-89478383D01*
X56127849Y-89417516D01*
X56127849Y-89417513D01*
X56124113Y-89355748D01*
X56124000Y-89352004D01*
X56124000Y-35322994D01*
X56124113Y-35319249D01*
X56127849Y-35257485D01*
X56116694Y-35196615D01*
X56116130Y-35192910D01*
X56108673Y-35131490D01*
X56105095Y-35122056D01*
X56099068Y-35100433D01*
X56097251Y-35090517D01*
X56071852Y-35034083D01*
X56070424Y-35030636D01*
X56061921Y-35008216D01*
X56048480Y-34972773D01*
X56046500Y-34969905D01*
X56042747Y-34964467D01*
X56031721Y-34944918D01*
X56027584Y-34935725D01*
X56027581Y-34935721D01*
X56027580Y-34935719D01*
X55989428Y-34887021D01*
X55987208Y-34884005D01*
X55952054Y-34833076D01*
X55952052Y-34833073D01*
X55952049Y-34833070D01*
X55952047Y-34833068D01*
X55905739Y-34792043D01*
X55903027Y-34789491D01*
X51844819Y-30731283D01*
X51811334Y-30669960D01*
X51808500Y-30643602D01*
X51808500Y-29451362D01*
X51808499Y-29451345D01*
X51805157Y-29420270D01*
X51801989Y-29390799D01*
X51801986Y-29390792D01*
X51757818Y-29272374D01*
X51750889Y-29253796D01*
X51663261Y-29136739D01*
X51546204Y-29049111D01*
X51409203Y-28998011D01*
X51348654Y-28991500D01*
X51348638Y-28991500D01*
X50651362Y-28991500D01*
X50651345Y-28991500D01*
X50590802Y-28998010D01*
X50590791Y-28998012D01*
X50543332Y-29015714D01*
X50473640Y-29020698D01*
X50456668Y-29015714D01*
X50409208Y-28998012D01*
X50409197Y-28998010D01*
X50348654Y-28991500D01*
X50348638Y-28991500D01*
X49651362Y-28991500D01*
X49651345Y-28991500D01*
X49590802Y-28998010D01*
X49590791Y-28998012D01*
X49543332Y-29015714D01*
X49473640Y-29020698D01*
X49456668Y-29015714D01*
X49409208Y-28998012D01*
X49409197Y-28998010D01*
X49348654Y-28991500D01*
X49348638Y-28991500D01*
X48651362Y-28991500D01*
X48651345Y-28991500D01*
X48590802Y-28998010D01*
X48590791Y-28998012D01*
X48543332Y-29015714D01*
X48473640Y-29020698D01*
X48456668Y-29015714D01*
X48409208Y-28998012D01*
X48409197Y-28998010D01*
X48348654Y-28991500D01*
X48348638Y-28991500D01*
X47651362Y-28991500D01*
X47651345Y-28991500D01*
X47590802Y-28998010D01*
X47590791Y-28998012D01*
X47543332Y-29015714D01*
X47473640Y-29020698D01*
X47456668Y-29015714D01*
X47409208Y-28998012D01*
X47409197Y-28998010D01*
X47348654Y-28991500D01*
X47348638Y-28991500D01*
X46651362Y-28991500D01*
X46651345Y-28991500D01*
X46590802Y-28998010D01*
X46590791Y-28998012D01*
X46543332Y-29015714D01*
X46473640Y-29020698D01*
X46456668Y-29015714D01*
X46409208Y-28998012D01*
X46409197Y-28998010D01*
X46348654Y-28991500D01*
X46348638Y-28991500D01*
X45651362Y-28991500D01*
X45651345Y-28991500D01*
X45590802Y-28998010D01*
X45590791Y-28998012D01*
X45543332Y-29015714D01*
X45473640Y-29020698D01*
X45456668Y-29015714D01*
X45409208Y-28998012D01*
X45409197Y-28998010D01*
X45348654Y-28991500D01*
X45348638Y-28991500D01*
X44651362Y-28991500D01*
X44651345Y-28991500D01*
X44590802Y-28998010D01*
X44590791Y-28998012D01*
X44543332Y-29015714D01*
X44473640Y-29020698D01*
X44456668Y-29015714D01*
X44409208Y-28998012D01*
X44409197Y-28998010D01*
X44348654Y-28991500D01*
X44348638Y-28991500D01*
X43651362Y-28991500D01*
X43651345Y-28991500D01*
X43590802Y-28998010D01*
X43590791Y-28998012D01*
X43531170Y-29020250D01*
X43461478Y-29025234D01*
X43444505Y-29020250D01*
X43407379Y-29006403D01*
X43407372Y-29006401D01*
X43347844Y-29000000D01*
X43250000Y-29000000D01*
X43250000Y-29229040D01*
X43242181Y-29272374D01*
X43198012Y-29390792D01*
X43198011Y-29390797D01*
X43191500Y-29451345D01*
X43191500Y-31098654D01*
X43198011Y-31159202D01*
X43198012Y-31159207D01*
X43242181Y-31277626D01*
X43250000Y-31320960D01*
X43250000Y-31560016D01*
X43271437Y-31599275D01*
X43266453Y-31668967D01*
X43237952Y-31713314D01*
X42423086Y-32528181D01*
X42361763Y-32561666D01*
X42335405Y-32564500D01*
X42328917Y-32564500D01*
X42285385Y-32556608D01*
X41743907Y-32353592D01*
X41704991Y-32340942D01*
X41698938Y-32338618D01*
X41682294Y-32331208D01*
X41682286Y-32331205D01*
X41495487Y-32291500D01*
X41304513Y-32291500D01*
X41117714Y-32331205D01*
X40943246Y-32408883D01*
X40788745Y-32521135D01*
X40660959Y-32663057D01*
X40565473Y-32828443D01*
X40565470Y-32828450D01*
X40506459Y-33010068D01*
X40506458Y-33010072D01*
X40486496Y-33200000D01*
X40506458Y-33389928D01*
X40506459Y-33389931D01*
X40565470Y-33571549D01*
X40565473Y-33571556D01*
X40660959Y-33736943D01*
X40725954Y-33809128D01*
X40756184Y-33872120D01*
X40747558Y-33941455D01*
X40721485Y-33979781D01*
X39709921Y-34991344D01*
X39697531Y-35001272D01*
X39697702Y-35001479D01*
X39691696Y-35006447D01*
X39668982Y-35030636D01*
X39643573Y-35057693D01*
X39636503Y-35064763D01*
X39622365Y-35078900D01*
X39622363Y-35078902D01*
X39618008Y-35084516D01*
X39614218Y-35088953D01*
X39581782Y-35123494D01*
X39581781Y-35123496D01*
X39571900Y-35141468D01*
X39561225Y-35157719D01*
X39548652Y-35173929D01*
X39548649Y-35173933D01*
X39529827Y-35217428D01*
X39527257Y-35222674D01*
X39504430Y-35264197D01*
X39499329Y-35284064D01*
X39493030Y-35302462D01*
X39484884Y-35321287D01*
X39484881Y-35321296D01*
X39477469Y-35368098D01*
X39476284Y-35373820D01*
X39464500Y-35419711D01*
X39464500Y-35440225D01*
X39462972Y-35459624D01*
X39459765Y-35479879D01*
X39461668Y-35500005D01*
X39464225Y-35527059D01*
X39464500Y-35532897D01*
X39464500Y-42685404D01*
X39444815Y-42752443D01*
X39428181Y-42773085D01*
X38809921Y-43391344D01*
X38797531Y-43401272D01*
X38797702Y-43401479D01*
X38791696Y-43406447D01*
X38766878Y-43432875D01*
X38743573Y-43457693D01*
X38736503Y-43464763D01*
X38722365Y-43478900D01*
X38722363Y-43478902D01*
X38718008Y-43484516D01*
X38714218Y-43488953D01*
X38681782Y-43523494D01*
X38681781Y-43523496D01*
X38671900Y-43541468D01*
X38661225Y-43557719D01*
X38648652Y-43573929D01*
X38648649Y-43573933D01*
X38629827Y-43617428D01*
X38627257Y-43622674D01*
X38604430Y-43664197D01*
X38599329Y-43684064D01*
X38593030Y-43702462D01*
X38584884Y-43721287D01*
X38584881Y-43721296D01*
X38577469Y-43768098D01*
X38576284Y-43773820D01*
X38564500Y-43819711D01*
X38564500Y-43840225D01*
X38562973Y-43859624D01*
X38559765Y-43879877D01*
X38564225Y-43927059D01*
X38564500Y-43932897D01*
X38564500Y-50792360D01*
X38561462Y-50817415D01*
X38561699Y-50817456D01*
X38560949Y-50821820D01*
X38489651Y-51542809D01*
X38488731Y-51555125D01*
X38488363Y-51562410D01*
X38488363Y-51562418D01*
X38488678Y-51574084D01*
X38488361Y-51582245D01*
X38486496Y-51599995D01*
X38486496Y-51600001D01*
X38490131Y-51634596D01*
X38490448Y-51639391D01*
X38490516Y-51641920D01*
X38491451Y-51648693D01*
X38491281Y-51648716D01*
X38492100Y-51653331D01*
X38506458Y-51789930D01*
X38506459Y-51789932D01*
X38565470Y-51971549D01*
X38565473Y-51971556D01*
X38660960Y-52136944D01*
X38788747Y-52278866D01*
X38943248Y-52391118D01*
X39117712Y-52468794D01*
X39304513Y-52508500D01*
X39340500Y-52508500D01*
X39407539Y-52528185D01*
X39453294Y-52580989D01*
X39464500Y-52632500D01*
X39464500Y-61585404D01*
X39444815Y-61652443D01*
X39428181Y-61673085D01*
X39009921Y-62091344D01*
X38997531Y-62101272D01*
X38997702Y-62101479D01*
X38991696Y-62106447D01*
X38968889Y-62130735D01*
X38943573Y-62157693D01*
X38936503Y-62164763D01*
X38922365Y-62178900D01*
X38922363Y-62178902D01*
X38918008Y-62184516D01*
X38914218Y-62188953D01*
X38881782Y-62223494D01*
X38881781Y-62223496D01*
X38871900Y-62241468D01*
X38861225Y-62257719D01*
X38848652Y-62273929D01*
X38848649Y-62273933D01*
X38829827Y-62317428D01*
X38827257Y-62322674D01*
X38804430Y-62364197D01*
X38799329Y-62384064D01*
X38793030Y-62402462D01*
X38784884Y-62421287D01*
X38784881Y-62421296D01*
X38777469Y-62468098D01*
X38776284Y-62473820D01*
X38764500Y-62519711D01*
X38764500Y-62540225D01*
X38762973Y-62559624D01*
X38759765Y-62579877D01*
X38764225Y-62627059D01*
X38764500Y-62632897D01*
X38764500Y-69071081D01*
X38756608Y-69114613D01*
X38553592Y-69656091D01*
X38539488Y-69699484D01*
X38539082Y-69702663D01*
X38534012Y-69725269D01*
X38523005Y-69759147D01*
X38506458Y-69810072D01*
X38486496Y-70000000D01*
X38506458Y-70189928D01*
X38506459Y-70189931D01*
X38565470Y-70371549D01*
X38565473Y-70371556D01*
X38660960Y-70536944D01*
X38788747Y-70678866D01*
X38943248Y-70791118D01*
X39117712Y-70868794D01*
X39304513Y-70908500D01*
X39367500Y-70908500D01*
X39434539Y-70928185D01*
X39480294Y-70980989D01*
X39491500Y-71032500D01*
X39491500Y-80586538D01*
X39471815Y-80653577D01*
X39455181Y-80674219D01*
X39009921Y-81119478D01*
X38997531Y-81129406D01*
X38997702Y-81129613D01*
X38991696Y-81134581D01*
X38966878Y-81161009D01*
X38943573Y-81185827D01*
X38936503Y-81192897D01*
X38922365Y-81207034D01*
X38922363Y-81207036D01*
X38918008Y-81212650D01*
X38914218Y-81217087D01*
X38881782Y-81251628D01*
X38881781Y-81251630D01*
X38871900Y-81269602D01*
X38861225Y-81285853D01*
X38848652Y-81302063D01*
X38848649Y-81302067D01*
X38829827Y-81345562D01*
X38827257Y-81350808D01*
X38804430Y-81392331D01*
X38799329Y-81412198D01*
X38793030Y-81430596D01*
X38784884Y-81449421D01*
X38784881Y-81449430D01*
X38777469Y-81496232D01*
X38776284Y-81501954D01*
X38764500Y-81547845D01*
X38764500Y-81568359D01*
X38762973Y-81587758D01*
X38759765Y-81608011D01*
X38764225Y-81655193D01*
X38764500Y-81661031D01*
X38764500Y-88471081D01*
X38756608Y-88514613D01*
X38553592Y-89056091D01*
X38539488Y-89099484D01*
X38539082Y-89102663D01*
X38534012Y-89125269D01*
X38506458Y-89210072D01*
X38486496Y-89400000D01*
X37500500Y-89400000D01*
X37500500Y-31124500D01*
X37520185Y-31057461D01*
X37572989Y-31011706D01*
X37624500Y-31000500D01*
X40275240Y-31000500D01*
X40275383Y-31000528D01*
X40275384Y-31000524D01*
X40299997Y-31000539D01*
X40300000Y-31000541D01*
X40300383Y-31000383D01*
X40300500Y-31000099D01*
X40300541Y-31000000D01*
X40300540Y-30999997D01*
X40300583Y-30975889D01*
X40300500Y-30975467D01*
X40300500Y-30525000D01*
X42200000Y-30525000D01*
X42200000Y-31097844D01*
X42206401Y-31157372D01*
X42206403Y-31157379D01*
X42256645Y-31292086D01*
X42256649Y-31292093D01*
X42342809Y-31407187D01*
X42342812Y-31407190D01*
X42457906Y-31493350D01*
X42457913Y-31493354D01*
X42592620Y-31543596D01*
X42592627Y-31543598D01*
X42652155Y-31549999D01*
X42652172Y-31550000D01*
X42750000Y-31550000D01*
X42750000Y-30525000D01*
X42200000Y-30525000D01*
X40300500Y-30525000D01*
X40300500Y-30025000D01*
X42200000Y-30025000D01*
X42750000Y-30025000D01*
X42750000Y-29000000D01*
X42652155Y-29000000D01*
X42592627Y-29006401D01*
X42592620Y-29006403D01*
X42457913Y-29056645D01*
X42457906Y-29056649D01*
X42342812Y-29142809D01*
X42342809Y-29142812D01*
X42256649Y-29257906D01*
X42256645Y-29257913D01*
X42206403Y-29392620D01*
X42206401Y-29392627D01*
X42200000Y-29452155D01*
X42200000Y-30025000D01*
X40300500Y-30025000D01*
X40300500Y-26650000D01*
X40600000Y-26650000D01*
X40600000Y-27347844D01*
X40606401Y-27407372D01*
X40606403Y-27407379D01*
X40656645Y-27542086D01*
X40656649Y-27542093D01*
X40742809Y-27657187D01*
X40742812Y-27657190D01*
X40857906Y-27743350D01*
X40857913Y-27743354D01*
X40992620Y-27793596D01*
X40992627Y-27793598D01*
X41052155Y-27799999D01*
X41052172Y-27800000D01*
X41450000Y-27800000D01*
X41450000Y-26650000D01*
X41950000Y-26650000D01*
X41950000Y-27800000D01*
X42347828Y-27800000D01*
X42347844Y-27799999D01*
X42407372Y-27793598D01*
X42407379Y-27793596D01*
X42542086Y-27743354D01*
X42542093Y-27743350D01*
X42657187Y-27657190D01*
X42657190Y-27657187D01*
X42743350Y-27542093D01*
X42743354Y-27542086D01*
X42793596Y-27407379D01*
X42793598Y-27407372D01*
X42799999Y-27347844D01*
X42800000Y-27347827D01*
X42800000Y-26650000D01*
X51200000Y-26650000D01*
X51200000Y-27347844D01*
X51206401Y-27407372D01*
X51206403Y-27407379D01*
X51256645Y-27542086D01*
X51256649Y-27542093D01*
X51342809Y-27657187D01*
X51342812Y-27657190D01*
X51457906Y-27743350D01*
X51457913Y-27743354D01*
X51592620Y-27793596D01*
X51592627Y-27793598D01*
X51652155Y-27799999D01*
X51652172Y-27800000D01*
X52050000Y-27800000D01*
X52050000Y-26650000D01*
X52550000Y-26650000D01*
X52550000Y-27800000D01*
X52947828Y-27800000D01*
X52947844Y-27799999D01*
X53007372Y-27793598D01*
X53007379Y-27793596D01*
X53142086Y-27743354D01*
X53142093Y-27743350D01*
X53257187Y-27657190D01*
X53257190Y-27657187D01*
X53343350Y-27542093D01*
X53343354Y-27542086D01*
X53393596Y-27407379D01*
X53393598Y-27407372D01*
X53399999Y-27347844D01*
X53400000Y-27347827D01*
X53400000Y-26650000D01*
X52550000Y-26650000D01*
X52050000Y-26650000D01*
X51200000Y-26650000D01*
X42800000Y-26650000D01*
X41950000Y-26650000D01*
X41450000Y-26650000D01*
X40600000Y-26650000D01*
X40300500Y-26650000D01*
X40300500Y-25124500D01*
X40320185Y-25057461D01*
X40372989Y-25011706D01*
X40424500Y-25000500D01*
X40601623Y-25000500D01*
X40668662Y-25020185D01*
G37*
G04 #@! TD.AperFunction*
M02*
