%TF.GenerationSoftware,KiCad,Pcbnew,7.0.5-7.0.5~ubuntu22.04.1*%
%TF.CreationDate,2023-06-01T20:12:09-07:00*%
%TF.ProjectId,KeysOnRails,4b657973-4f6e-4526-9169-6c732e6b6963,rev?*%
%TF.SameCoordinates,Original*%
%TF.FileFunction,Legend,Top*%
%TF.FilePolarity,Positive*%
%FSLAX46Y46*%
G04 Gerber Fmt 4.6, Leading zero omitted, Abs format (unit mm)*
G04 Created by KiCad (PCBNEW 7.0.5-7.0.5~ubuntu22.04.1) date 2023-06-01 20:12:09*
%MOMM*%
%LPD*%
G01*
G04 APERTURE LIST*
%ADD10C,0.150000*%
%ADD11C,0.127000*%
%ADD12C,0.200000*%
%ADD13C,0.120000*%
%ADD14R,0.600000X1.550000*%
%ADD15R,1.200000X1.800000*%
%ADD16C,2.300000*%
%ADD17C,1.000000*%
%ADD18C,3.000000*%
%ADD19C,4.000000*%
G04 APERTURE END LIST*
D10*
%TO.C,J2*%
X51634667Y-38429676D02*
X51634667Y-38886819D01*
X51634667Y-38886819D02*
X51604190Y-38978247D01*
X51604190Y-38978247D02*
X51543238Y-39039200D01*
X51543238Y-39039200D02*
X51451809Y-39069676D01*
X51451809Y-39069676D02*
X51390857Y-39069676D01*
X51908952Y-38490628D02*
X51939428Y-38460152D01*
X51939428Y-38460152D02*
X52000381Y-38429676D01*
X52000381Y-38429676D02*
X52152762Y-38429676D01*
X52152762Y-38429676D02*
X52213714Y-38460152D01*
X52213714Y-38460152D02*
X52244190Y-38490628D01*
X52244190Y-38490628D02*
X52274667Y-38551580D01*
X52274667Y-38551580D02*
X52274667Y-38612533D01*
X52274667Y-38612533D02*
X52244190Y-38703961D01*
X52244190Y-38703961D02*
X51878476Y-39069676D01*
X51878476Y-39069676D02*
X52274667Y-39069676D01*
%TO.C,SW2*%
X46954667Y-64265700D02*
X47097524Y-64313319D01*
X47097524Y-64313319D02*
X47335619Y-64313319D01*
X47335619Y-64313319D02*
X47430857Y-64265700D01*
X47430857Y-64265700D02*
X47478476Y-64218080D01*
X47478476Y-64218080D02*
X47526095Y-64122842D01*
X47526095Y-64122842D02*
X47526095Y-64027604D01*
X47526095Y-64027604D02*
X47478476Y-63932366D01*
X47478476Y-63932366D02*
X47430857Y-63884747D01*
X47430857Y-63884747D02*
X47335619Y-63837128D01*
X47335619Y-63837128D02*
X47145143Y-63789509D01*
X47145143Y-63789509D02*
X47049905Y-63741890D01*
X47049905Y-63741890D02*
X47002286Y-63694271D01*
X47002286Y-63694271D02*
X46954667Y-63599033D01*
X46954667Y-63599033D02*
X46954667Y-63503795D01*
X46954667Y-63503795D02*
X47002286Y-63408557D01*
X47002286Y-63408557D02*
X47049905Y-63360938D01*
X47049905Y-63360938D02*
X47145143Y-63313319D01*
X47145143Y-63313319D02*
X47383238Y-63313319D01*
X47383238Y-63313319D02*
X47526095Y-63360938D01*
X47859429Y-63313319D02*
X48097524Y-64313319D01*
X48097524Y-64313319D02*
X48288000Y-63599033D01*
X48288000Y-63599033D02*
X48478476Y-64313319D01*
X48478476Y-64313319D02*
X48716572Y-63313319D01*
X49049905Y-63408557D02*
X49097524Y-63360938D01*
X49097524Y-63360938D02*
X49192762Y-63313319D01*
X49192762Y-63313319D02*
X49430857Y-63313319D01*
X49430857Y-63313319D02*
X49526095Y-63360938D01*
X49526095Y-63360938D02*
X49573714Y-63408557D01*
X49573714Y-63408557D02*
X49621333Y-63503795D01*
X49621333Y-63503795D02*
X49621333Y-63599033D01*
X49621333Y-63599033D02*
X49573714Y-63741890D01*
X49573714Y-63741890D02*
X49002286Y-64313319D01*
X49002286Y-64313319D02*
X49621333Y-64313319D01*
%TO.C,SW1*%
X46954667Y-46757200D02*
X47097524Y-46804819D01*
X47097524Y-46804819D02*
X47335619Y-46804819D01*
X47335619Y-46804819D02*
X47430857Y-46757200D01*
X47430857Y-46757200D02*
X47478476Y-46709580D01*
X47478476Y-46709580D02*
X47526095Y-46614342D01*
X47526095Y-46614342D02*
X47526095Y-46519104D01*
X47526095Y-46519104D02*
X47478476Y-46423866D01*
X47478476Y-46423866D02*
X47430857Y-46376247D01*
X47430857Y-46376247D02*
X47335619Y-46328628D01*
X47335619Y-46328628D02*
X47145143Y-46281009D01*
X47145143Y-46281009D02*
X47049905Y-46233390D01*
X47049905Y-46233390D02*
X47002286Y-46185771D01*
X47002286Y-46185771D02*
X46954667Y-46090533D01*
X46954667Y-46090533D02*
X46954667Y-45995295D01*
X46954667Y-45995295D02*
X47002286Y-45900057D01*
X47002286Y-45900057D02*
X47049905Y-45852438D01*
X47049905Y-45852438D02*
X47145143Y-45804819D01*
X47145143Y-45804819D02*
X47383238Y-45804819D01*
X47383238Y-45804819D02*
X47526095Y-45852438D01*
X47859429Y-45804819D02*
X48097524Y-46804819D01*
X48097524Y-46804819D02*
X48288000Y-46090533D01*
X48288000Y-46090533D02*
X48478476Y-46804819D01*
X48478476Y-46804819D02*
X48716572Y-45804819D01*
X49621333Y-46804819D02*
X49049905Y-46804819D01*
X49335619Y-46804819D02*
X49335619Y-45804819D01*
X49335619Y-45804819D02*
X49240381Y-45947676D01*
X49240381Y-45947676D02*
X49145143Y-46042914D01*
X49145143Y-46042914D02*
X49049905Y-46090533D01*
%TO.C,SW3*%
X47022767Y-81764300D02*
X47165624Y-81811919D01*
X47165624Y-81811919D02*
X47403719Y-81811919D01*
X47403719Y-81811919D02*
X47498957Y-81764300D01*
X47498957Y-81764300D02*
X47546576Y-81716680D01*
X47546576Y-81716680D02*
X47594195Y-81621442D01*
X47594195Y-81621442D02*
X47594195Y-81526204D01*
X47594195Y-81526204D02*
X47546576Y-81430966D01*
X47546576Y-81430966D02*
X47498957Y-81383347D01*
X47498957Y-81383347D02*
X47403719Y-81335728D01*
X47403719Y-81335728D02*
X47213243Y-81288109D01*
X47213243Y-81288109D02*
X47118005Y-81240490D01*
X47118005Y-81240490D02*
X47070386Y-81192871D01*
X47070386Y-81192871D02*
X47022767Y-81097633D01*
X47022767Y-81097633D02*
X47022767Y-81002395D01*
X47022767Y-81002395D02*
X47070386Y-80907157D01*
X47070386Y-80907157D02*
X47118005Y-80859538D01*
X47118005Y-80859538D02*
X47213243Y-80811919D01*
X47213243Y-80811919D02*
X47451338Y-80811919D01*
X47451338Y-80811919D02*
X47594195Y-80859538D01*
X47927529Y-80811919D02*
X48165624Y-81811919D01*
X48165624Y-81811919D02*
X48356100Y-81097633D01*
X48356100Y-81097633D02*
X48546576Y-81811919D01*
X48546576Y-81811919D02*
X48784672Y-80811919D01*
X49070386Y-80811919D02*
X49689433Y-80811919D01*
X49689433Y-80811919D02*
X49356100Y-81192871D01*
X49356100Y-81192871D02*
X49498957Y-81192871D01*
X49498957Y-81192871D02*
X49594195Y-81240490D01*
X49594195Y-81240490D02*
X49641814Y-81288109D01*
X49641814Y-81288109D02*
X49689433Y-81383347D01*
X49689433Y-81383347D02*
X49689433Y-81621442D01*
X49689433Y-81621442D02*
X49641814Y-81716680D01*
X49641814Y-81716680D02*
X49594195Y-81764300D01*
X49594195Y-81764300D02*
X49498957Y-81811919D01*
X49498957Y-81811919D02*
X49213243Y-81811919D01*
X49213243Y-81811919D02*
X49118005Y-81764300D01*
X49118005Y-81764300D02*
X49070386Y-81716680D01*
%TO.C,SW4*%
X46954667Y-99264300D02*
X47097524Y-99311919D01*
X47097524Y-99311919D02*
X47335619Y-99311919D01*
X47335619Y-99311919D02*
X47430857Y-99264300D01*
X47430857Y-99264300D02*
X47478476Y-99216680D01*
X47478476Y-99216680D02*
X47526095Y-99121442D01*
X47526095Y-99121442D02*
X47526095Y-99026204D01*
X47526095Y-99026204D02*
X47478476Y-98930966D01*
X47478476Y-98930966D02*
X47430857Y-98883347D01*
X47430857Y-98883347D02*
X47335619Y-98835728D01*
X47335619Y-98835728D02*
X47145143Y-98788109D01*
X47145143Y-98788109D02*
X47049905Y-98740490D01*
X47049905Y-98740490D02*
X47002286Y-98692871D01*
X47002286Y-98692871D02*
X46954667Y-98597633D01*
X46954667Y-98597633D02*
X46954667Y-98502395D01*
X46954667Y-98502395D02*
X47002286Y-98407157D01*
X47002286Y-98407157D02*
X47049905Y-98359538D01*
X47049905Y-98359538D02*
X47145143Y-98311919D01*
X47145143Y-98311919D02*
X47383238Y-98311919D01*
X47383238Y-98311919D02*
X47526095Y-98359538D01*
X47859429Y-98311919D02*
X48097524Y-99311919D01*
X48097524Y-99311919D02*
X48288000Y-98597633D01*
X48288000Y-98597633D02*
X48478476Y-99311919D01*
X48478476Y-99311919D02*
X48716572Y-98311919D01*
X49526095Y-98645252D02*
X49526095Y-99311919D01*
X49288000Y-98264300D02*
X49049905Y-98978585D01*
X49049905Y-98978585D02*
X49668952Y-98978585D01*
D11*
%TO.C,J2*%
X52700000Y-36425000D02*
X53580000Y-36425000D01*
X53580000Y-36425000D02*
X53580000Y-34095000D01*
X52470000Y-32175000D02*
X43690000Y-32175000D01*
X43460000Y-36425000D02*
X42580000Y-36425000D01*
X42580000Y-36425000D02*
X42580000Y-34095000D01*
D12*
X52180000Y-38075000D02*
G75*
G03*
X52180000Y-38075000I-100000J0D01*
G01*
D13*
%TO.C,SW2*%
X51173200Y-59001400D02*
G75*
G03*
X51173200Y-59001400I-381000J0D01*
G01*
%TO.C,SW1*%
X51173200Y-41492900D02*
G75*
G03*
X51173200Y-41492900I-381000J0D01*
G01*
%TO.C,SW3*%
X51241300Y-76500000D02*
G75*
G03*
X51241300Y-76500000I-381000J0D01*
G01*
%TO.C,SW4*%
X51173200Y-94000000D02*
G75*
G03*
X51173200Y-94000000I-381000J0D01*
G01*
%TD*%
%LPC*%
D14*
%TO.C,J2*%
X52080000Y-36750000D03*
D15*
X53380000Y-32875000D03*
X42780000Y-32875000D03*
D14*
X51080000Y-36750000D03*
X50080000Y-36750000D03*
X49080000Y-36750000D03*
X48080000Y-36750000D03*
X47080000Y-36750000D03*
X46080000Y-36750000D03*
X45080000Y-36750000D03*
X44080000Y-36750000D03*
%TD*%
D16*
%TO.C,SW2*%
X43130000Y-64246500D03*
D17*
X43210000Y-60630700D03*
D18*
X43430000Y-68046500D03*
X45890000Y-69326500D03*
D19*
X48430000Y-64246500D03*
D18*
X48430000Y-70146500D03*
X52240000Y-66786500D03*
D17*
X53650000Y-60630700D03*
D16*
X53730000Y-64246500D03*
%TD*%
%TO.C,SW1*%
X43130000Y-46738000D03*
D17*
X43210000Y-43122200D03*
D18*
X43430000Y-50538000D03*
X45890000Y-51818000D03*
D19*
X48430000Y-46738000D03*
D18*
X48430000Y-52638000D03*
X52240000Y-49278000D03*
D17*
X53650000Y-43122200D03*
D16*
X53730000Y-46738000D03*
%TD*%
%TO.C,SW3*%
X43198100Y-81745100D03*
D17*
X43278100Y-78129300D03*
D18*
X43498100Y-85545100D03*
X45958100Y-86825100D03*
D19*
X48498100Y-81745100D03*
D18*
X48498100Y-87645100D03*
X52308100Y-84285100D03*
D17*
X53718100Y-78129300D03*
D16*
X53798100Y-81745100D03*
%TD*%
%TO.C,SW4*%
X43130000Y-99245100D03*
D17*
X43210000Y-95629300D03*
D18*
X43430000Y-103045100D03*
X45890000Y-104325100D03*
D19*
X48430000Y-99245100D03*
D18*
X48430000Y-105145100D03*
X52240000Y-101785100D03*
D17*
X53650000Y-95629300D03*
D16*
X53730000Y-99245100D03*
%TD*%
%LPD*%
M02*
