G04 #@! TF.GenerationSoftware,KiCad,Pcbnew,7.0.8*
G04 #@! TF.CreationDate,2023-10-16T19:48:45-07:00*
G04 #@! TF.ProjectId,Seismos_4-Key,53656973-6d6f-4735-9f34-2d4b65792e6b,rev?*
G04 #@! TF.SameCoordinates,Original*
G04 #@! TF.FileFunction,Copper,L1,Top*
G04 #@! TF.FilePolarity,Positive*
%FSLAX46Y46*%
G04 Gerber Fmt 4.6, Leading zero omitted, Abs format (unit mm)*
G04 Created by KiCad (PCBNEW 7.0.8) date 2023-10-16 19:48:45*
%MOMM*%
%LPD*%
G01*
G04 APERTURE LIST*
G04 #@! TA.AperFunction,SMDPad,CuDef*
%ADD10R,0.600000X1.550000*%
G04 #@! TD*
G04 #@! TA.AperFunction,SMDPad,CuDef*
%ADD11R,1.200000X1.800000*%
G04 #@! TD*
G04 #@! TA.AperFunction,ViaPad*
%ADD12C,0.800000*%
G04 #@! TD*
G04 #@! TA.AperFunction,Conductor*
%ADD13C,0.200000*%
G04 #@! TD*
G04 APERTURE END LIST*
D10*
X51000000Y-30275000D03*
X50000000Y-30275000D03*
X49000000Y-30275000D03*
X48000000Y-30275000D03*
X47000000Y-30275000D03*
X46000000Y-30275000D03*
X45000000Y-30275000D03*
X44000000Y-30275000D03*
X43000000Y-30275000D03*
D11*
X52300000Y-26400000D03*
X41700000Y-26400000D03*
D12*
X39400000Y-42600000D03*
X39400000Y-61600000D03*
X39400000Y-80600000D03*
X39400000Y-99400000D03*
X41400000Y-33200000D03*
X39400000Y-51600000D03*
X39400000Y-70000000D03*
X39400000Y-89400000D03*
X48000000Y-32400000D03*
X50800000Y-38800000D03*
X53160500Y-90200000D03*
X52200000Y-35800000D03*
X53160500Y-52200000D03*
X53160500Y-71400000D03*
X53160500Y-91600000D03*
D13*
X43000000Y-30875000D02*
X43000000Y-29800000D01*
X39400000Y-42600000D02*
X39400000Y-41800000D01*
X39400000Y-98600000D02*
X38600000Y-97800000D01*
X39400000Y-80600000D02*
X39400000Y-79600000D01*
X43000000Y-30875000D02*
X43000000Y-28300000D01*
X38600000Y-60000000D02*
X38600000Y-77450000D01*
X38600000Y-77450000D02*
X38600000Y-78800000D01*
X42400000Y-32400000D02*
X40000000Y-32400000D01*
X39400000Y-41800000D02*
X38600000Y-41000000D01*
X38600000Y-97800000D02*
X38600000Y-78800000D01*
X39400000Y-79600000D02*
X38600000Y-78800000D01*
X43000000Y-31800000D02*
X42400000Y-32400000D01*
X39400000Y-60800000D02*
X38600000Y-60000000D01*
X43000000Y-30875000D02*
X43000000Y-31800000D01*
X38600000Y-41000000D02*
X38600000Y-60000000D01*
X43000000Y-29800000D02*
X45800000Y-27000000D01*
X40000000Y-32400000D02*
X38600000Y-33800000D01*
X39400000Y-61600000D02*
X39400000Y-60800000D01*
X45800000Y-27000000D02*
X52300000Y-27000000D01*
X39400000Y-99400000D02*
X39400000Y-98600000D01*
X43000000Y-28300000D02*
X41700000Y-27000000D01*
X38600000Y-33800000D02*
X38600000Y-41000000D01*
X42650000Y-33200000D02*
X44000000Y-31850000D01*
X41400000Y-33200000D02*
X42650000Y-33200000D01*
X44000000Y-31850000D02*
X44000000Y-30875000D01*
X45000000Y-31850000D02*
X43050000Y-33800000D01*
X40100000Y-35500000D02*
X40100000Y-43000000D01*
X39200000Y-51400000D02*
X39400000Y-51600000D01*
X43050000Y-33800000D02*
X41800000Y-33800000D01*
X39200000Y-43900000D02*
X39200000Y-51400000D01*
X40100000Y-43000000D02*
X39200000Y-43900000D01*
X41800000Y-33800000D02*
X40100000Y-35500000D01*
X45000000Y-30875000D02*
X45000000Y-31850000D01*
X43600000Y-42000000D02*
X42900000Y-42700000D01*
X42900000Y-42700000D02*
X41200000Y-42700000D01*
X43600000Y-34250000D02*
X43600000Y-42000000D01*
X41200000Y-42700000D02*
X39900000Y-44000000D01*
X46000000Y-31850000D02*
X43600000Y-34250000D01*
X39900000Y-44000000D02*
X39900000Y-51110050D01*
X40100000Y-51310050D02*
X40100000Y-61900000D01*
X39900000Y-51110050D02*
X40100000Y-51310050D01*
X40100000Y-61900000D02*
X39400000Y-62600000D01*
X46000000Y-30875000D02*
X46000000Y-31850000D01*
X39400000Y-62600000D02*
X39400000Y-70000000D01*
X44200000Y-42600000D02*
X45800000Y-44200000D01*
X40100000Y-88700000D02*
X39400000Y-89400000D01*
X40100000Y-69710050D02*
X40100000Y-88700000D01*
X45800000Y-44200000D02*
X47600000Y-44200000D01*
X47000000Y-30875000D02*
X47000000Y-31800000D01*
X44200000Y-34600000D02*
X44200000Y-42600000D01*
X47000000Y-31800000D02*
X44200000Y-34600000D01*
X41091853Y-61800000D02*
X39800000Y-63091853D01*
X39800000Y-69410050D02*
X40100000Y-69710050D01*
X39800000Y-63091853D02*
X39800000Y-69410050D01*
X49000000Y-45600000D02*
X49000000Y-48000000D01*
X49000000Y-48000000D02*
X43600000Y-53400000D01*
X43600000Y-60600000D02*
X42400000Y-61800000D01*
X42400000Y-61800000D02*
X41091853Y-61800000D01*
X47600000Y-44200000D02*
X49000000Y-45600000D01*
X43600000Y-53400000D02*
X43600000Y-60600000D01*
X48000000Y-30875000D02*
X48000000Y-32400000D01*
X49000000Y-30875000D02*
X49000000Y-37000000D01*
X49000000Y-37000000D02*
X50800000Y-38800000D01*
X55600000Y-68867100D02*
X55600000Y-68800000D01*
X55600000Y-68800000D02*
X55600000Y-49800000D01*
X55600000Y-49800000D02*
X53200000Y-52200000D01*
X52200000Y-34600000D02*
X52200000Y-35800000D01*
X55600000Y-87800000D02*
X55600000Y-68800000D01*
X55600000Y-38000000D02*
X55600000Y-49800000D01*
X50000000Y-32400000D02*
X52200000Y-34600000D01*
X53200000Y-52200000D02*
X53160500Y-52200000D01*
X53160500Y-71400000D02*
X53160500Y-71306600D01*
X52200000Y-34600000D02*
X55600000Y-38000000D01*
X53160500Y-71306600D02*
X55600000Y-68867100D01*
X50000000Y-30875000D02*
X50000000Y-32400000D01*
X53200000Y-90200000D02*
X55600000Y-87800000D01*
X53160500Y-90200000D02*
X53200000Y-90200000D01*
X53200000Y-91600000D02*
X56150000Y-88650000D01*
X51000000Y-32200000D02*
X51000000Y-30875000D01*
X56150000Y-88650000D02*
X56150000Y-37350000D01*
X56150000Y-37350000D02*
X51000000Y-32200000D01*
X53160500Y-91600000D02*
X53200000Y-91600000D01*
G04 #@! TA.AperFunction,Conductor*
G36*
X53673228Y-90990224D02*
G01*
X53676578Y-90992565D01*
X53806992Y-91122979D01*
X53810419Y-91131252D01*
X53809378Y-91136077D01*
X53534712Y-91742777D01*
X53528178Y-91748901D01*
X53519601Y-91748772D01*
X53164304Y-91602563D01*
X53157957Y-91596245D01*
X53157936Y-91596195D01*
X53012057Y-91241700D01*
X53012078Y-91232746D01*
X53018425Y-91226428D01*
X53018814Y-91226276D01*
X53664282Y-90989852D01*
X53673228Y-90990224D01*
G37*
G04 #@! TD.AperFunction*
G04 #@! TA.AperFunction,Conductor*
G36*
X50010700Y-30301714D02*
G01*
X50010913Y-30302228D01*
X50297811Y-31044340D01*
X50297598Y-31053292D01*
X50296633Y-31055049D01*
X50103473Y-31344790D01*
X50096033Y-31349773D01*
X50093738Y-31350000D01*
X49906262Y-31350000D01*
X49897989Y-31346573D01*
X49896527Y-31344790D01*
X49703366Y-31055049D01*
X49701628Y-31046264D01*
X49702188Y-31044340D01*
X49989087Y-30302228D01*
X49995267Y-30295747D01*
X50004219Y-30295534D01*
X50010700Y-30301714D01*
G37*
G04 #@! TD.AperFunction*
G04 #@! TA.AperFunction,Conductor*
G36*
X49010700Y-30301714D02*
G01*
X49010913Y-30302228D01*
X49297811Y-31044340D01*
X49297598Y-31053292D01*
X49296633Y-31055049D01*
X49103473Y-31344790D01*
X49096033Y-31349773D01*
X49093738Y-31350000D01*
X48906262Y-31350000D01*
X48897989Y-31346573D01*
X48896527Y-31344790D01*
X48703366Y-31055049D01*
X48701628Y-31046264D01*
X48702188Y-31044340D01*
X48989087Y-30302228D01*
X48995267Y-30295747D01*
X49004219Y-30295534D01*
X49010700Y-30301714D01*
G37*
G04 #@! TD.AperFunction*
G04 #@! TA.AperFunction,Conductor*
G36*
X39496073Y-69203427D02*
G01*
X39499500Y-69211700D01*
X39499500Y-69359123D01*
X39498894Y-69362840D01*
X39497227Y-69367815D01*
X39499494Y-69416859D01*
X39499500Y-69417129D01*
X39499500Y-69437894D01*
X39500708Y-69444362D01*
X39500802Y-69445167D01*
X39502414Y-69480039D01*
X39502415Y-69480044D01*
X39510474Y-69498295D01*
X39511272Y-69500870D01*
X39514939Y-69520483D01*
X39533313Y-69550161D01*
X39533691Y-69550878D01*
X39547794Y-69582815D01*
X39547795Y-69582817D01*
X39561903Y-69596924D01*
X39563574Y-69599033D01*
X39563936Y-69599617D01*
X39574081Y-69616002D01*
X39601939Y-69637040D01*
X39602551Y-69637572D01*
X39737662Y-69772683D01*
X39740189Y-69776456D01*
X39765053Y-69836129D01*
X39765072Y-69845084D01*
X39758755Y-69851428D01*
X39404502Y-69999123D01*
X39395548Y-69999144D01*
X39395498Y-69999123D01*
X39041244Y-69851428D01*
X39034926Y-69845081D01*
X39034945Y-69836131D01*
X39297000Y-69207199D01*
X39303345Y-69200881D01*
X39307800Y-69200000D01*
X39487800Y-69200000D01*
X39496073Y-69203427D01*
G37*
G04 #@! TD.AperFunction*
G04 #@! TA.AperFunction,Conductor*
G36*
X53673228Y-89590224D02*
G01*
X53676578Y-89592565D01*
X53806992Y-89722979D01*
X53810419Y-89731252D01*
X53809378Y-89736077D01*
X53534712Y-90342777D01*
X53528178Y-90348901D01*
X53519601Y-90348772D01*
X53164304Y-90202563D01*
X53157957Y-90196245D01*
X53157936Y-90196195D01*
X53012057Y-89841700D01*
X53012078Y-89832746D01*
X53018425Y-89826428D01*
X53018814Y-89826276D01*
X53664282Y-89589852D01*
X53673228Y-89590224D01*
G37*
G04 #@! TD.AperFunction*
G04 #@! TA.AperFunction,Conductor*
G36*
X45010700Y-30301714D02*
G01*
X45010913Y-30302228D01*
X45297811Y-31044340D01*
X45297598Y-31053292D01*
X45296633Y-31055049D01*
X45103473Y-31344790D01*
X45096033Y-31349773D01*
X45093738Y-31350000D01*
X44906262Y-31350000D01*
X44897989Y-31346573D01*
X44896527Y-31344790D01*
X44703366Y-31055049D01*
X44701628Y-31046264D01*
X44702188Y-31044340D01*
X44989087Y-30302228D01*
X44995267Y-30295747D01*
X45004219Y-30295534D01*
X45010700Y-30301714D01*
G37*
G04 #@! TD.AperFunction*
G04 #@! TA.AperFunction,Conductor*
G36*
X46010700Y-30301714D02*
G01*
X46010913Y-30302228D01*
X46297811Y-31044340D01*
X46297598Y-31053292D01*
X46296633Y-31055049D01*
X46103473Y-31344790D01*
X46096033Y-31349773D01*
X46093738Y-31350000D01*
X45906262Y-31350000D01*
X45897989Y-31346573D01*
X45896527Y-31344790D01*
X45703366Y-31055049D01*
X45701628Y-31046264D01*
X45702188Y-31044340D01*
X45989087Y-30302228D01*
X45995267Y-30295747D01*
X46004219Y-30295534D01*
X46010700Y-30301714D01*
G37*
G04 #@! TD.AperFunction*
G04 #@! TA.AperFunction,Conductor*
G36*
X48010700Y-30301714D02*
G01*
X48010913Y-30302228D01*
X48297811Y-31044340D01*
X48297598Y-31053292D01*
X48296633Y-31055049D01*
X48103473Y-31344790D01*
X48096033Y-31349773D01*
X48093738Y-31350000D01*
X47906262Y-31350000D01*
X47897989Y-31346573D01*
X47896527Y-31344790D01*
X47703366Y-31055049D01*
X47701628Y-31046264D01*
X47702188Y-31044340D01*
X47989087Y-30302228D01*
X47995267Y-30295747D01*
X48004219Y-30295534D01*
X48010700Y-30301714D01*
G37*
G04 #@! TD.AperFunction*
G04 #@! TA.AperFunction,Conductor*
G36*
X41563868Y-32834945D02*
G01*
X42192800Y-33097000D01*
X42199119Y-33103345D01*
X42200000Y-33107800D01*
X42200000Y-33292199D01*
X42196573Y-33300472D01*
X42192800Y-33302999D01*
X41563870Y-33565053D01*
X41554915Y-33565072D01*
X41548571Y-33558755D01*
X41400875Y-33204499D01*
X41400855Y-33195550D01*
X41548572Y-32841242D01*
X41554918Y-32834926D01*
X41563868Y-32834945D01*
G37*
G04 #@! TD.AperFunction*
G04 #@! TA.AperFunction,Conductor*
G36*
X48100473Y-31603427D02*
G01*
X48103000Y-31607200D01*
X48365053Y-32236129D01*
X48365072Y-32245084D01*
X48358755Y-32251428D01*
X48004502Y-32399123D01*
X47995548Y-32399144D01*
X47995498Y-32399123D01*
X47641244Y-32251428D01*
X47634926Y-32245081D01*
X47634945Y-32236131D01*
X47897000Y-31607199D01*
X47903345Y-31600881D01*
X47907800Y-31600000D01*
X48092200Y-31600000D01*
X48100473Y-31603427D01*
G37*
G04 #@! TD.AperFunction*
G04 #@! TA.AperFunction,Conductor*
G36*
X47010700Y-30301714D02*
G01*
X47010913Y-30302228D01*
X47297811Y-31044340D01*
X47297598Y-31053292D01*
X47296633Y-31055049D01*
X47103473Y-31344790D01*
X47096033Y-31349773D01*
X47093738Y-31350000D01*
X46906262Y-31350000D01*
X46897989Y-31346573D01*
X46896527Y-31344790D01*
X46703366Y-31055049D01*
X46701628Y-31046264D01*
X46702188Y-31044340D01*
X46989087Y-30302228D01*
X46995267Y-30295747D01*
X47004219Y-30295534D01*
X47010700Y-30301714D01*
G37*
G04 #@! TD.AperFunction*
G04 #@! TA.AperFunction,Conductor*
G36*
X50312233Y-38166572D02*
G01*
X50880944Y-38400747D01*
X50942256Y-38425994D01*
X50948601Y-38432313D01*
X50948621Y-38441265D01*
X50802563Y-38796195D01*
X50796245Y-38802542D01*
X50796195Y-38802563D01*
X50441265Y-38948621D01*
X50432311Y-38948600D01*
X50425994Y-38942256D01*
X50365851Y-38796195D01*
X50166573Y-38312235D01*
X50166592Y-38303282D01*
X50169116Y-38299512D01*
X50299510Y-38169118D01*
X50307782Y-38165692D01*
X50312233Y-38166572D01*
G37*
G04 #@! TD.AperFunction*
G04 #@! TA.AperFunction,Conductor*
G36*
X52300473Y-35003427D02*
G01*
X52303000Y-35007200D01*
X52565053Y-35636129D01*
X52565072Y-35645084D01*
X52558755Y-35651428D01*
X52204502Y-35799123D01*
X52195548Y-35799144D01*
X52195498Y-35799123D01*
X51841244Y-35651428D01*
X51834926Y-35645081D01*
X51834945Y-35636131D01*
X52097000Y-35007199D01*
X52103345Y-35000881D01*
X52107800Y-35000000D01*
X52292200Y-35000000D01*
X52300473Y-35003427D01*
G37*
G04 #@! TD.AperFunction*
G04 #@! TA.AperFunction,Conductor*
G36*
X39896717Y-88766592D02*
G01*
X39900490Y-88769119D01*
X40030880Y-88899509D01*
X40034307Y-88907782D01*
X40033426Y-88912237D01*
X39774005Y-89542256D01*
X39767686Y-89548601D01*
X39758734Y-89548621D01*
X39403804Y-89402563D01*
X39397457Y-89396245D01*
X39397436Y-89396195D01*
X39251378Y-89041265D01*
X39251399Y-89032311D01*
X39257742Y-89025994D01*
X39887764Y-88766573D01*
X39896717Y-88766592D01*
G37*
G04 #@! TD.AperFunction*
G04 #@! TA.AperFunction,Conductor*
G36*
X39302825Y-50865230D02*
G01*
X39303507Y-50865974D01*
X39639887Y-51266065D01*
X39641635Y-51268868D01*
X39647794Y-51282815D01*
X39647795Y-51282817D01*
X39661903Y-51296924D01*
X39663574Y-51299033D01*
X39671257Y-51311442D01*
X39673009Y-51314271D01*
X39674450Y-51323109D01*
X39671349Y-51328689D01*
X39403441Y-51597546D01*
X39395174Y-51600987D01*
X39395124Y-51600987D01*
X39013358Y-51600033D01*
X39005093Y-51596585D01*
X39001687Y-51588304D01*
X39001793Y-51586762D01*
X39042968Y-51282815D01*
X39098628Y-50871932D01*
X39103134Y-50864194D01*
X39110222Y-50861803D01*
X39294552Y-50861803D01*
X39302825Y-50865230D01*
G37*
G04 #@! TD.AperFunction*
G04 #@! TA.AperFunction,Conductor*
G36*
X53673228Y-51590224D02*
G01*
X53676578Y-51592565D01*
X53806992Y-51722979D01*
X53810419Y-51731252D01*
X53809378Y-51736077D01*
X53534712Y-52342777D01*
X53528178Y-52348901D01*
X53519601Y-52348772D01*
X53164304Y-52202563D01*
X53157957Y-52196245D01*
X53157936Y-52196195D01*
X53012057Y-51841700D01*
X53012078Y-51832746D01*
X53018425Y-51826428D01*
X53018814Y-51826276D01*
X53664282Y-51589852D01*
X53673228Y-51590224D01*
G37*
G04 #@! TD.AperFunction*
G04 #@! TA.AperFunction,Conductor*
G36*
X53605518Y-70732225D02*
G01*
X53735926Y-70862633D01*
X53739353Y-70870906D01*
X53738836Y-70874346D01*
X53533823Y-71540811D01*
X53528115Y-71547711D01*
X53519200Y-71548554D01*
X53518188Y-71548191D01*
X53500254Y-71540811D01*
X53394426Y-71497261D01*
X53164304Y-71402563D01*
X53157957Y-71396245D01*
X53157936Y-71396195D01*
X53011518Y-71040389D01*
X53011539Y-71031437D01*
X53016988Y-71025534D01*
X53591899Y-70730091D01*
X53600822Y-70729358D01*
X53605518Y-70732225D01*
G37*
G04 #@! TD.AperFunction*
G04 #@! TA.AperFunction,Conductor*
G36*
X40668662Y-25020185D02*
G01*
X40714417Y-25072989D01*
X40724361Y-25142147D01*
X40700889Y-25198812D01*
X40656647Y-25257910D01*
X40656645Y-25257913D01*
X40606403Y-25392620D01*
X40606401Y-25392627D01*
X40600000Y-25452155D01*
X40600000Y-26150000D01*
X42800000Y-26150000D01*
X42800000Y-25452172D01*
X42799999Y-25452155D01*
X42793598Y-25392627D01*
X42793596Y-25392620D01*
X42743354Y-25257913D01*
X42743352Y-25257910D01*
X42699111Y-25198812D01*
X42674693Y-25133348D01*
X42689544Y-25065074D01*
X42738949Y-25015669D01*
X42798377Y-25000500D01*
X51201623Y-25000500D01*
X51268662Y-25020185D01*
X51314417Y-25072989D01*
X51324361Y-25142147D01*
X51300889Y-25198812D01*
X51256647Y-25257910D01*
X51256645Y-25257913D01*
X51206403Y-25392620D01*
X51206401Y-25392627D01*
X51200000Y-25452155D01*
X51200000Y-26150000D01*
X53400000Y-26150000D01*
X53400000Y-25452172D01*
X53399999Y-25452155D01*
X53393598Y-25392627D01*
X53393596Y-25392620D01*
X53343354Y-25257913D01*
X53343352Y-25257910D01*
X53299111Y-25198812D01*
X53274693Y-25133348D01*
X53289544Y-25065074D01*
X53338949Y-25015669D01*
X53398377Y-25000500D01*
X53575500Y-25000500D01*
X53642539Y-25020185D01*
X53688294Y-25072989D01*
X53699500Y-25124500D01*
X53699500Y-30975467D01*
X53699416Y-30975889D01*
X53699459Y-31000001D01*
X53699500Y-31000099D01*
X53699616Y-31000382D01*
X53699618Y-31000384D01*
X53699808Y-31000462D01*
X53700000Y-31000541D01*
X53700002Y-31000539D01*
X53724616Y-31000524D01*
X53724616Y-31000528D01*
X53724760Y-31000500D01*
X56375500Y-31000500D01*
X56442539Y-31020185D01*
X56488294Y-31072989D01*
X56499500Y-31124500D01*
X56499500Y-36539589D01*
X56479815Y-36606628D01*
X56427011Y-36652383D01*
X56357853Y-36662327D01*
X56294297Y-36633302D01*
X56287819Y-36627270D01*
X51644819Y-31984270D01*
X51611334Y-31922947D01*
X51608500Y-31896589D01*
X51608500Y-31516324D01*
X51628185Y-31449285D01*
X51658195Y-31417053D01*
X51663261Y-31413261D01*
X51750889Y-31296204D01*
X51801989Y-31159201D01*
X51805720Y-31124500D01*
X51808499Y-31098654D01*
X51808500Y-31098637D01*
X51808500Y-29451362D01*
X51808499Y-29451345D01*
X51805157Y-29420270D01*
X51801989Y-29390799D01*
X51801986Y-29390792D01*
X51757818Y-29272374D01*
X51750889Y-29253796D01*
X51663261Y-29136739D01*
X51546204Y-29049111D01*
X51409203Y-28998011D01*
X51348654Y-28991500D01*
X51348638Y-28991500D01*
X50651362Y-28991500D01*
X50651345Y-28991500D01*
X50590802Y-28998010D01*
X50590791Y-28998012D01*
X50543332Y-29015714D01*
X50473640Y-29020698D01*
X50456668Y-29015714D01*
X50409208Y-28998012D01*
X50409197Y-28998010D01*
X50348654Y-28991500D01*
X50348638Y-28991500D01*
X49651362Y-28991500D01*
X49651345Y-28991500D01*
X49590802Y-28998010D01*
X49590791Y-28998012D01*
X49543332Y-29015714D01*
X49473640Y-29020698D01*
X49456668Y-29015714D01*
X49409208Y-28998012D01*
X49409197Y-28998010D01*
X49348654Y-28991500D01*
X49348638Y-28991500D01*
X48651362Y-28991500D01*
X48651345Y-28991500D01*
X48590802Y-28998010D01*
X48590791Y-28998012D01*
X48543332Y-29015714D01*
X48473640Y-29020698D01*
X48456668Y-29015714D01*
X48409208Y-28998012D01*
X48409197Y-28998010D01*
X48348654Y-28991500D01*
X48348638Y-28991500D01*
X47651362Y-28991500D01*
X47651345Y-28991500D01*
X47590802Y-28998010D01*
X47590791Y-28998012D01*
X47543332Y-29015714D01*
X47473640Y-29020698D01*
X47456668Y-29015714D01*
X47409208Y-28998012D01*
X47409197Y-28998010D01*
X47348654Y-28991500D01*
X47348638Y-28991500D01*
X46651362Y-28991500D01*
X46651345Y-28991500D01*
X46590802Y-28998010D01*
X46590791Y-28998012D01*
X46543332Y-29015714D01*
X46473640Y-29020698D01*
X46456668Y-29015714D01*
X46409208Y-28998012D01*
X46409197Y-28998010D01*
X46348654Y-28991500D01*
X46348638Y-28991500D01*
X45651362Y-28991500D01*
X45651345Y-28991500D01*
X45590802Y-28998010D01*
X45590791Y-28998012D01*
X45543332Y-29015714D01*
X45473640Y-29020698D01*
X45456668Y-29015714D01*
X45409208Y-28998012D01*
X45409197Y-28998010D01*
X45348654Y-28991500D01*
X45348638Y-28991500D01*
X44651362Y-28991500D01*
X44651345Y-28991500D01*
X44590802Y-28998010D01*
X44590791Y-28998012D01*
X44543332Y-29015714D01*
X44473640Y-29020698D01*
X44456668Y-29015714D01*
X44409208Y-28998012D01*
X44409197Y-28998010D01*
X44348654Y-28991500D01*
X44348638Y-28991500D01*
X43651362Y-28991500D01*
X43651345Y-28991500D01*
X43590802Y-28998010D01*
X43590791Y-28998012D01*
X43531170Y-29020250D01*
X43461478Y-29025234D01*
X43444505Y-29020250D01*
X43407379Y-29006403D01*
X43407372Y-29006401D01*
X43347844Y-29000000D01*
X43250000Y-29000000D01*
X43250000Y-29229040D01*
X43242181Y-29272374D01*
X43198012Y-29390792D01*
X43198011Y-29390797D01*
X43191500Y-29451345D01*
X43191500Y-31098654D01*
X43198011Y-31159202D01*
X43198012Y-31159207D01*
X43242181Y-31277626D01*
X43250000Y-31320960D01*
X43250000Y-31550000D01*
X43257044Y-31557044D01*
X43290529Y-31618367D01*
X43285545Y-31688059D01*
X43257044Y-31732406D01*
X42434270Y-32555181D01*
X42372947Y-32588666D01*
X42346589Y-32591500D01*
X42339501Y-32591500D01*
X42291809Y-32581962D01*
X41876419Y-32408883D01*
X41761376Y-32360948D01*
X41702925Y-32340189D01*
X41698458Y-32338405D01*
X41682290Y-32331206D01*
X41682286Y-32331205D01*
X41495487Y-32291500D01*
X41304513Y-32291500D01*
X41117714Y-32331205D01*
X40943246Y-32408883D01*
X40788745Y-32521135D01*
X40660959Y-32663057D01*
X40565473Y-32828443D01*
X40565470Y-32828450D01*
X40506459Y-33010068D01*
X40506458Y-33010072D01*
X40486496Y-33200000D01*
X40506458Y-33389928D01*
X40506459Y-33389931D01*
X40565470Y-33571549D01*
X40565473Y-33571556D01*
X40660960Y-33736944D01*
X40708772Y-33790045D01*
X40744045Y-33829220D01*
X40774275Y-33892212D01*
X40765649Y-33961547D01*
X40739576Y-33999873D01*
X39700801Y-35038649D01*
X39694698Y-35044000D01*
X39666013Y-35066012D01*
X39641522Y-35097929D01*
X39568476Y-35193123D01*
X39568476Y-35193124D01*
X39539510Y-35263056D01*
X39507162Y-35341150D01*
X39494329Y-35438631D01*
X39490957Y-35464241D01*
X39490955Y-35464254D01*
X39486250Y-35500000D01*
X39490969Y-35535843D01*
X39491500Y-35543945D01*
X39491500Y-42696588D01*
X39471815Y-42763627D01*
X39455181Y-42784269D01*
X38800801Y-43438649D01*
X38794698Y-43444001D01*
X38766013Y-43466013D01*
X38741522Y-43497929D01*
X38668476Y-43593123D01*
X38668475Y-43593125D01*
X38637265Y-43668476D01*
X38627055Y-43693125D01*
X38607162Y-43741150D01*
X38599688Y-43797925D01*
X38590957Y-43864241D01*
X38590955Y-43864254D01*
X38586250Y-43900000D01*
X38590281Y-43930623D01*
X38590969Y-43935843D01*
X38591500Y-43943945D01*
X38591500Y-50781932D01*
X38589808Y-50798535D01*
X38590371Y-50798612D01*
X38589777Y-50802996D01*
X38589776Y-50803000D01*
X38552547Y-51077817D01*
X38509806Y-51393322D01*
X38507453Y-51403644D01*
X38507808Y-51403720D01*
X38506458Y-51410070D01*
X38502718Y-51445648D01*
X38491803Y-51526230D01*
X38490083Y-51543091D01*
X38489396Y-51553087D01*
X38489396Y-51553091D01*
X38489623Y-51565777D01*
X38489293Y-51573372D01*
X38486496Y-51599996D01*
X38486496Y-51600000D01*
X38506458Y-51789928D01*
X38506459Y-51789931D01*
X38565470Y-51971549D01*
X38565473Y-51971556D01*
X38660960Y-52136944D01*
X38788747Y-52278866D01*
X38943248Y-52391118D01*
X39117712Y-52468794D01*
X39304513Y-52508500D01*
X39367500Y-52508500D01*
X39434539Y-52528185D01*
X39480294Y-52580989D01*
X39491500Y-52632500D01*
X39491500Y-61596588D01*
X39471815Y-61663627D01*
X39455181Y-61684269D01*
X39000801Y-62138649D01*
X38994698Y-62144001D01*
X38966013Y-62166013D01*
X38941522Y-62197929D01*
X38868476Y-62293123D01*
X38868476Y-62293124D01*
X38852571Y-62331524D01*
X38807162Y-62441150D01*
X38790957Y-62564241D01*
X38790955Y-62564254D01*
X38786250Y-62600000D01*
X38790969Y-62635843D01*
X38791500Y-62643945D01*
X38791500Y-69060498D01*
X38781961Y-69108190D01*
X38659051Y-69403178D01*
X38560949Y-69638622D01*
X38560948Y-69638623D01*
X38542553Y-69690415D01*
X38542552Y-69690418D01*
X38541802Y-69695562D01*
X38537034Y-69715965D01*
X38506460Y-69810065D01*
X38506458Y-69810070D01*
X38506458Y-69810072D01*
X38486496Y-70000000D01*
X38506458Y-70189928D01*
X38506459Y-70189931D01*
X38565470Y-70371549D01*
X38565473Y-70371556D01*
X38660960Y-70536944D01*
X38788747Y-70678866D01*
X38943248Y-70791118D01*
X39117712Y-70868794D01*
X39304513Y-70908500D01*
X39367500Y-70908500D01*
X39434539Y-70928185D01*
X39480294Y-70980989D01*
X39491500Y-71032500D01*
X39491500Y-88291370D01*
X39471815Y-88358409D01*
X39419011Y-88404164D01*
X39414713Y-88406030D01*
X39261558Y-88469094D01*
X39062227Y-88551172D01*
X39062223Y-88551174D01*
X39012575Y-88574799D01*
X39007354Y-88577946D01*
X39007289Y-88577839D01*
X38989256Y-88588397D01*
X38943248Y-88608881D01*
X38788745Y-88721135D01*
X38660959Y-88863057D01*
X38565473Y-89028443D01*
X38565470Y-89028450D01*
X38520795Y-89165947D01*
X38506458Y-89210072D01*
X38486496Y-89400000D01*
X38506458Y-89589928D01*
X38506459Y-89589931D01*
X38565470Y-89771549D01*
X38565473Y-89771556D01*
X38660960Y-89936944D01*
X38788747Y-90078866D01*
X38943248Y-90191118D01*
X39117712Y-90268794D01*
X39304513Y-90308500D01*
X39495487Y-90308500D01*
X39682288Y-90268794D01*
X39856752Y-90191118D01*
X40011253Y-90078866D01*
X40139040Y-89936944D01*
X40234527Y-89771556D01*
X40237219Y-89763270D01*
X40246915Y-89741778D01*
X40246849Y-89741745D01*
X40247718Y-89739999D01*
X40248387Y-89738517D01*
X40248827Y-89737772D01*
X40467623Y-89206411D01*
X40494597Y-89165950D01*
X40499202Y-89161345D01*
X40505293Y-89156003D01*
X40533987Y-89133987D01*
X40552267Y-89110164D01*
X40558475Y-89102073D01*
X40558477Y-89102072D01*
X40629726Y-89009217D01*
X40633544Y-89004705D01*
X40637996Y-88999925D01*
X40641462Y-88993922D01*
X40644614Y-88989813D01*
X40644375Y-88988437D01*
X40653020Y-88954978D01*
X40692838Y-88858850D01*
X40708500Y-88739885D01*
X40708500Y-88739884D01*
X40708723Y-88738191D01*
X40708726Y-88738160D01*
X40713750Y-88699999D01*
X40709031Y-88664156D01*
X40708500Y-88656054D01*
X40708500Y-84266524D01*
X40728185Y-84199485D01*
X40780989Y-84153730D01*
X40850147Y-84143786D01*
X40909810Y-84169575D01*
X41011143Y-84250386D01*
X41238357Y-84381568D01*
X41482584Y-84477420D01*
X41738370Y-84535802D01*
X41738376Y-84535802D01*
X41738379Y-84535803D01*
X41934500Y-84550500D01*
X41934506Y-84550500D01*
X42065500Y-84550500D01*
X42261620Y-84535803D01*
X42261622Y-84535802D01*
X42261630Y-84535802D01*
X42517416Y-84477420D01*
X42601111Y-84444571D01*
X42670705Y-84438403D01*
X42732588Y-84470840D01*
X42764900Y-84523448D01*
X42825937Y-84721323D01*
X42825938Y-84721326D01*
X42939767Y-84957696D01*
X42939768Y-84957697D01*
X42939770Y-84957700D01*
X42939772Y-84957704D01*
X42989869Y-85031182D01*
X43087567Y-85174479D01*
X43266014Y-85366801D01*
X43266018Y-85366804D01*
X43266019Y-85366805D01*
X43471143Y-85530386D01*
X43698357Y-85661568D01*
X43942584Y-85757420D01*
X44198370Y-85815802D01*
X44198376Y-85815802D01*
X44198379Y-85815803D01*
X44394500Y-85830500D01*
X44394506Y-85830500D01*
X44525500Y-85830500D01*
X44721620Y-85815803D01*
X44721622Y-85815802D01*
X44721630Y-85815802D01*
X44977416Y-85757420D01*
X45221643Y-85661568D01*
X45221646Y-85661566D01*
X45221647Y-85661566D01*
X45264118Y-85637045D01*
X45332018Y-85620571D01*
X45398045Y-85643423D01*
X45437839Y-85690630D01*
X45479767Y-85777695D01*
X45479768Y-85777697D01*
X45479770Y-85777700D01*
X45479772Y-85777704D01*
X45505747Y-85815802D01*
X45627567Y-85994479D01*
X45806014Y-86186801D01*
X45806018Y-86186804D01*
X45806019Y-86186805D01*
X46011143Y-86350386D01*
X46238357Y-86481568D01*
X46482584Y-86577420D01*
X46738370Y-86635802D01*
X46738376Y-86635802D01*
X46738379Y-86635803D01*
X46934500Y-86650500D01*
X46934506Y-86650500D01*
X47065500Y-86650500D01*
X47261620Y-86635803D01*
X47261622Y-86635802D01*
X47261630Y-86635802D01*
X47517416Y-86577420D01*
X47761643Y-86481568D01*
X47988857Y-86350386D01*
X48193981Y-86186805D01*
X48372433Y-85994479D01*
X48520228Y-85777704D01*
X48634063Y-85541323D01*
X48711396Y-85290615D01*
X48750500Y-85031182D01*
X48750500Y-84768818D01*
X48711396Y-84509385D01*
X48634063Y-84258677D01*
X48583523Y-84153730D01*
X48520232Y-84022303D01*
X48520231Y-84022302D01*
X48520230Y-84022301D01*
X48520228Y-84022296D01*
X48372433Y-83805521D01*
X48362441Y-83794753D01*
X48193985Y-83613198D01*
X48154533Y-83581736D01*
X47988857Y-83449614D01*
X47761643Y-83318432D01*
X47517416Y-83222580D01*
X47517411Y-83222578D01*
X47517402Y-83222576D01*
X47299818Y-83172914D01*
X47261630Y-83164198D01*
X47261629Y-83164197D01*
X47261625Y-83164197D01*
X47261620Y-83164196D01*
X47065500Y-83149500D01*
X47065494Y-83149500D01*
X46934506Y-83149500D01*
X46934500Y-83149500D01*
X46738379Y-83164196D01*
X46738374Y-83164197D01*
X46482597Y-83222576D01*
X46482578Y-83222582D01*
X46238363Y-83318429D01*
X46238357Y-83318432D01*
X46195877Y-83342957D01*
X46127977Y-83359427D01*
X46061951Y-83336574D01*
X46022160Y-83289369D01*
X45980232Y-83202303D01*
X45980231Y-83202302D01*
X45980230Y-83202301D01*
X45980228Y-83202296D01*
X45832433Y-82985521D01*
X45822441Y-82974753D01*
X45653985Y-82793198D01*
X45614533Y-82761736D01*
X45448857Y-82629614D01*
X45221643Y-82498432D01*
X44977416Y-82402580D01*
X44977411Y-82402578D01*
X44977402Y-82402576D01*
X44759818Y-82352914D01*
X44721630Y-82344198D01*
X44721629Y-82344197D01*
X44721625Y-82344197D01*
X44721620Y-82344196D01*
X44525500Y-82329500D01*
X44525494Y-82329500D01*
X44394506Y-82329500D01*
X44394500Y-82329500D01*
X44198379Y-82344196D01*
X44198374Y-82344197D01*
X43942585Y-82402579D01*
X43858890Y-82435426D01*
X43789293Y-82441593D01*
X43727410Y-82409155D01*
X43695098Y-82356547D01*
X43641048Y-82181323D01*
X43634063Y-82158677D01*
X43622121Y-82133880D01*
X43520232Y-81922303D01*
X43520231Y-81922302D01*
X43520230Y-81922301D01*
X43520228Y-81922296D01*
X43372433Y-81705521D01*
X43340576Y-81671187D01*
X49059500Y-81671187D01*
X49079794Y-81805823D01*
X49098604Y-81930615D01*
X49098605Y-81930617D01*
X49098606Y-81930623D01*
X49175938Y-82181326D01*
X49289767Y-82417696D01*
X49289768Y-82417697D01*
X49289770Y-82417700D01*
X49289772Y-82417704D01*
X49338126Y-82488626D01*
X49437567Y-82634479D01*
X49616014Y-82826801D01*
X49616018Y-82826804D01*
X49616019Y-82826805D01*
X49821143Y-82990386D01*
X50048357Y-83121568D01*
X50292584Y-83217420D01*
X50548370Y-83275802D01*
X50548376Y-83275802D01*
X50548379Y-83275803D01*
X50744500Y-83290500D01*
X50744506Y-83290500D01*
X50875500Y-83290500D01*
X51071620Y-83275803D01*
X51071622Y-83275802D01*
X51071630Y-83275802D01*
X51327416Y-83217420D01*
X51571643Y-83121568D01*
X51798857Y-82990386D01*
X52003981Y-82826805D01*
X52035167Y-82793195D01*
X52043945Y-82783733D01*
X52182433Y-82634479D01*
X52330228Y-82417704D01*
X52444063Y-82181323D01*
X52521396Y-81930615D01*
X52560500Y-81671182D01*
X52560500Y-81408818D01*
X52521396Y-81149385D01*
X52444063Y-80898677D01*
X52382165Y-80770144D01*
X52330232Y-80662303D01*
X52330225Y-80662292D01*
X52282720Y-80592615D01*
X52261219Y-80526136D01*
X52279073Y-80458586D01*
X52330613Y-80411411D01*
X52374657Y-80399210D01*
X52537536Y-80385347D01*
X52537539Y-80385346D01*
X52537541Y-80385346D01*
X52768249Y-80325275D01*
X52927707Y-80253195D01*
X52985480Y-80227080D01*
X52985481Y-80227078D01*
X52985486Y-80227077D01*
X53183003Y-80093579D01*
X53355118Y-79928621D01*
X53496879Y-79736947D01*
X53604207Y-79524074D01*
X53674016Y-79296123D01*
X53704298Y-79059654D01*
X53694180Y-78821468D01*
X53683999Y-78774230D01*
X53643954Y-78588419D01*
X53555064Y-78367211D01*
X53555064Y-78367210D01*
X53430069Y-78164205D01*
X53272564Y-77985245D01*
X53087080Y-77835477D01*
X52973130Y-77771820D01*
X52878955Y-77719210D01*
X52654170Y-77639788D01*
X52419209Y-77599500D01*
X52419200Y-77599500D01*
X52240503Y-77599500D01*
X52240498Y-77599500D01*
X52062463Y-77614652D01*
X51831751Y-77674724D01*
X51614519Y-77772919D01*
X51614511Y-77772924D01*
X51417006Y-77906413D01*
X51416997Y-77906421D01*
X51244881Y-78071379D01*
X51103123Y-78263050D01*
X51103120Y-78263054D01*
X50995796Y-78475920D01*
X50995793Y-78475926D01*
X50925983Y-78703878D01*
X50895702Y-78940346D01*
X50905819Y-79178528D01*
X50905819Y-79178532D01*
X50956046Y-79411582D01*
X50956046Y-79411583D01*
X51040876Y-79622689D01*
X51047607Y-79692233D01*
X51015671Y-79754377D01*
X50955207Y-79789390D01*
X50916552Y-79792576D01*
X50875500Y-79789500D01*
X50875494Y-79789500D01*
X50744506Y-79789500D01*
X50744500Y-79789500D01*
X50548379Y-79804196D01*
X50548374Y-79804197D01*
X50292597Y-79862576D01*
X50292578Y-79862582D01*
X50048356Y-79958432D01*
X49821143Y-80089614D01*
X49616014Y-80253198D01*
X49437567Y-80445520D01*
X49289768Y-80662302D01*
X49289767Y-80662303D01*
X49175938Y-80898673D01*
X49098606Y-81149376D01*
X49098605Y-81149381D01*
X49098604Y-81149385D01*
X49088197Y-81218432D01*
X49059500Y-81408812D01*
X49059500Y-81671187D01*
X43340576Y-81671187D01*
X43340571Y-81671182D01*
X43193985Y-81513198D01*
X43063095Y-81408817D01*
X42988857Y-81349614D01*
X42761643Y-81218432D01*
X42517416Y-81122580D01*
X42517411Y-81122578D01*
X42517402Y-81122576D01*
X42299818Y-81072914D01*
X42261630Y-81064198D01*
X42261629Y-81064197D01*
X42261625Y-81064197D01*
X42261620Y-81064196D01*
X42065500Y-81049500D01*
X42065494Y-81049500D01*
X41934506Y-81049500D01*
X41934500Y-81049500D01*
X41738379Y-81064196D01*
X41738374Y-81064197D01*
X41482597Y-81122576D01*
X41482578Y-81122582D01*
X41238356Y-81218432D01*
X41011143Y-81349614D01*
X40909813Y-81430422D01*
X40845126Y-81456831D01*
X40776431Y-81444074D01*
X40725537Y-81396204D01*
X40708500Y-81333475D01*
X40708500Y-80258963D01*
X40728185Y-80191924D01*
X40780989Y-80146169D01*
X40850147Y-80136225D01*
X40908505Y-80161662D01*
X40908563Y-80161578D01*
X40909019Y-80161886D01*
X40910400Y-80162488D01*
X40912920Y-80164523D01*
X41121046Y-80280790D01*
X41246951Y-80325275D01*
X41345829Y-80360211D01*
X41580790Y-80400499D01*
X41580798Y-80400499D01*
X41580800Y-80400500D01*
X41580801Y-80400500D01*
X41759502Y-80400500D01*
X41937536Y-80385347D01*
X41937539Y-80385346D01*
X41937541Y-80385346D01*
X42168249Y-80325275D01*
X42327707Y-80253195D01*
X42385480Y-80227080D01*
X42385481Y-80227078D01*
X42385486Y-80227077D01*
X42583003Y-80093579D01*
X42755118Y-79928621D01*
X42896879Y-79736947D01*
X43004207Y-79524074D01*
X43074016Y-79296123D01*
X43102285Y-79075373D01*
X44745723Y-79075373D01*
X44775881Y-79375160D01*
X44775882Y-79375162D01*
X44845728Y-79668252D01*
X44845733Y-79668266D01*
X44954020Y-79949427D01*
X44954024Y-79949436D01*
X45098825Y-80213665D01*
X45098829Y-80213671D01*
X45206801Y-80360211D01*
X45277554Y-80456238D01*
X45277561Y-80456245D01*
X45487019Y-80672823D01*
X45723478Y-80859553D01*
X45723480Y-80859554D01*
X45723485Y-80859558D01*
X45982730Y-81013109D01*
X46260128Y-81130736D01*
X46550729Y-81210340D01*
X46849347Y-81250500D01*
X46849351Y-81250500D01*
X47075252Y-81250500D01*
X47239164Y-81239526D01*
X47300634Y-81235412D01*
X47595903Y-81175396D01*
X47880537Y-81076560D01*
X48149459Y-80940668D01*
X48397869Y-80770144D01*
X48621333Y-80568032D01*
X48815865Y-80337939D01*
X48977993Y-80083970D01*
X49104823Y-79810658D01*
X49194093Y-79522879D01*
X49244209Y-79225770D01*
X49254277Y-78924631D01*
X49224118Y-78624838D01*
X49154269Y-78331739D01*
X49045977Y-78050566D01*
X48901175Y-77786335D01*
X48722446Y-77543762D01*
X48512980Y-77327176D01*
X48389742Y-77229856D01*
X48276521Y-77140446D01*
X48276517Y-77140443D01*
X48276515Y-77140442D01*
X48017270Y-76986891D01*
X47739872Y-76869264D01*
X47739863Y-76869261D01*
X47449272Y-76789660D01*
X47374616Y-76779620D01*
X47150653Y-76749500D01*
X46924756Y-76749500D01*
X46924748Y-76749500D01*
X46699368Y-76764587D01*
X46699359Y-76764589D01*
X46404094Y-76824604D01*
X46119464Y-76923439D01*
X46119459Y-76923441D01*
X45850546Y-77059328D01*
X45602125Y-77229860D01*
X45378665Y-77431969D01*
X45184132Y-77662064D01*
X45022006Y-77916030D01*
X45022005Y-77916032D01*
X44906842Y-78164205D01*
X44895177Y-78189342D01*
X44895176Y-78189346D01*
X44805907Y-78477118D01*
X44787133Y-78588419D01*
X44755791Y-78774230D01*
X44746249Y-79059654D01*
X44745723Y-79075373D01*
X43102285Y-79075373D01*
X43104298Y-79059654D01*
X43094180Y-78821468D01*
X43083999Y-78774230D01*
X43043954Y-78588419D01*
X42955064Y-78367211D01*
X42955064Y-78367210D01*
X42830069Y-78164205D01*
X42672564Y-77985245D01*
X42487080Y-77835477D01*
X42373130Y-77771820D01*
X42278955Y-77719210D01*
X42054170Y-77639788D01*
X41819209Y-77599500D01*
X41819200Y-77599500D01*
X41640503Y-77599500D01*
X41640498Y-77599500D01*
X41462463Y-77614652D01*
X41231751Y-77674724D01*
X41014519Y-77772919D01*
X41014511Y-77772924D01*
X40901937Y-77849011D01*
X40835371Y-77870243D01*
X40767894Y-77852116D01*
X40720929Y-77800385D01*
X40708500Y-77746276D01*
X40708500Y-75428133D01*
X41025668Y-75428133D01*
X41041058Y-75515410D01*
X41056135Y-75600911D01*
X41125623Y-75762004D01*
X41125624Y-75762006D01*
X41125626Y-75762009D01*
X41180278Y-75835418D01*
X41230390Y-75902730D01*
X41364786Y-76015502D01*
X41442488Y-76054525D01*
X41521562Y-76094238D01*
X41521563Y-76094238D01*
X41521567Y-76094240D01*
X41692279Y-76134700D01*
X41692282Y-76134700D01*
X41823701Y-76134700D01*
X41823709Y-76134700D01*
X41954255Y-76119441D01*
X42119117Y-76059437D01*
X42253139Y-75971289D01*
X45237416Y-75971289D01*
X45237459Y-75995401D01*
X45237500Y-75995499D01*
X45237616Y-75995782D01*
X45237618Y-75995784D01*
X45237808Y-75995862D01*
X45238000Y-75995941D01*
X45238002Y-75995939D01*
X45262616Y-75995924D01*
X45262616Y-75995928D01*
X45262760Y-75995900D01*
X48453240Y-75995900D01*
X48453383Y-75995928D01*
X48453384Y-75995924D01*
X48477997Y-75995939D01*
X48478000Y-75995941D01*
X48478383Y-75995783D01*
X48478500Y-75995499D01*
X48478541Y-75995400D01*
X48478540Y-75995397D01*
X48478583Y-75971289D01*
X48478500Y-75970867D01*
X48478500Y-75428133D01*
X51465668Y-75428133D01*
X51481058Y-75515410D01*
X51496135Y-75600911D01*
X51565623Y-75762004D01*
X51565624Y-75762006D01*
X51565626Y-75762009D01*
X51620278Y-75835418D01*
X51670390Y-75902730D01*
X51804786Y-76015502D01*
X51882488Y-76054525D01*
X51961562Y-76094238D01*
X51961563Y-76094238D01*
X51961567Y-76094240D01*
X52132279Y-76134700D01*
X52132282Y-76134700D01*
X52263701Y-76134700D01*
X52263709Y-76134700D01*
X52394255Y-76119441D01*
X52559117Y-76059437D01*
X52705696Y-75963030D01*
X52826092Y-75835418D01*
X52913812Y-75683481D01*
X52964130Y-75515410D01*
X52974331Y-75340265D01*
X52943865Y-75167489D01*
X52874377Y-75006396D01*
X52769610Y-74865670D01*
X52697747Y-74805370D01*
X52635214Y-74752898D01*
X52635212Y-74752897D01*
X52478437Y-74674161D01*
X52478433Y-74674160D01*
X52307721Y-74633700D01*
X52176291Y-74633700D01*
X52071854Y-74645907D01*
X52045743Y-74648959D01*
X52045740Y-74648960D01*
X51880884Y-74708962D01*
X51880880Y-74708964D01*
X51734306Y-74805367D01*
X51734305Y-74805368D01*
X51613910Y-74932978D01*
X51526188Y-75084918D01*
X51475870Y-75252989D01*
X51475869Y-75252994D01*
X51465668Y-75428133D01*
X48478500Y-75428133D01*
X48478500Y-73033359D01*
X48478528Y-73033216D01*
X48478524Y-73033216D01*
X48478539Y-73008602D01*
X48478541Y-73008600D01*
X48478462Y-73008408D01*
X48478384Y-73008218D01*
X48478382Y-73008216D01*
X48478099Y-73008100D01*
X48478000Y-73008059D01*
X48453446Y-73008059D01*
X48453240Y-73008100D01*
X45262760Y-73008100D01*
X45262554Y-73008059D01*
X45238000Y-73008059D01*
X45237901Y-73008100D01*
X45237617Y-73008216D01*
X45237615Y-73008218D01*
X45237459Y-73008599D01*
X45237476Y-73033216D01*
X45237471Y-73033216D01*
X45237500Y-73033359D01*
X45237500Y-75970867D01*
X45237416Y-75971289D01*
X42253139Y-75971289D01*
X42265696Y-75963030D01*
X42386092Y-75835418D01*
X42473812Y-75683481D01*
X42524130Y-75515410D01*
X42534331Y-75340265D01*
X42503865Y-75167489D01*
X42434377Y-75006396D01*
X42329610Y-74865670D01*
X42257747Y-74805370D01*
X42195214Y-74752898D01*
X42195212Y-74752897D01*
X42038437Y-74674161D01*
X42038433Y-74674160D01*
X41867721Y-74633700D01*
X41736291Y-74633700D01*
X41631854Y-74645907D01*
X41605743Y-74648959D01*
X41605740Y-74648960D01*
X41440884Y-74708962D01*
X41440880Y-74708964D01*
X41294306Y-74805367D01*
X41294305Y-74805368D01*
X41173910Y-74932978D01*
X41086188Y-75084918D01*
X41035870Y-75252989D01*
X41035869Y-75252994D01*
X41025668Y-75428133D01*
X40708500Y-75428133D01*
X40708500Y-69753995D01*
X40709031Y-69745893D01*
X40713750Y-69710049D01*
X40711843Y-69695562D01*
X40708766Y-69672198D01*
X40708765Y-69672179D01*
X40692837Y-69551196D01*
X40667781Y-69490705D01*
X40631526Y-69403178D01*
X40631523Y-69403172D01*
X40556006Y-69304758D01*
X40533986Y-69276062D01*
X40525457Y-69269517D01*
X40505293Y-69254045D01*
X40499203Y-69248704D01*
X40444819Y-69194320D01*
X40411334Y-69132997D01*
X40408500Y-69106639D01*
X40408500Y-64974148D01*
X40428185Y-64907109D01*
X40480989Y-64861354D01*
X40550147Y-64851410D01*
X40613703Y-64880435D01*
X40624150Y-64891320D01*
X40624412Y-64891078D01*
X40627565Y-64894476D01*
X40627567Y-64894479D01*
X40639286Y-64907109D01*
X40806014Y-65086801D01*
X40806018Y-65086804D01*
X40806019Y-65086805D01*
X41011143Y-65250386D01*
X41238357Y-65381568D01*
X41482584Y-65477420D01*
X41738370Y-65535802D01*
X41738376Y-65535802D01*
X41738379Y-65535803D01*
X41934500Y-65550500D01*
X41934506Y-65550500D01*
X42065500Y-65550500D01*
X42261620Y-65535803D01*
X42261622Y-65535802D01*
X42261630Y-65535802D01*
X42517416Y-65477420D01*
X42601111Y-65444571D01*
X42670705Y-65438403D01*
X42732588Y-65470840D01*
X42764900Y-65523448D01*
X42825937Y-65721323D01*
X42825938Y-65721326D01*
X42939767Y-65957696D01*
X42939768Y-65957697D01*
X42939770Y-65957700D01*
X42939772Y-65957704D01*
X42989869Y-66031182D01*
X43087567Y-66174479D01*
X43266014Y-66366801D01*
X43266018Y-66366804D01*
X43266019Y-66366805D01*
X43471143Y-66530386D01*
X43698357Y-66661568D01*
X43942584Y-66757420D01*
X44198370Y-66815802D01*
X44198376Y-66815802D01*
X44198379Y-66815803D01*
X44394500Y-66830500D01*
X44394506Y-66830500D01*
X44525500Y-66830500D01*
X44721620Y-66815803D01*
X44721622Y-66815802D01*
X44721630Y-66815802D01*
X44977416Y-66757420D01*
X45221643Y-66661568D01*
X45221646Y-66661566D01*
X45221647Y-66661566D01*
X45264118Y-66637045D01*
X45332018Y-66620571D01*
X45398045Y-66643423D01*
X45437839Y-66690630D01*
X45479767Y-66777695D01*
X45479768Y-66777697D01*
X45479770Y-66777700D01*
X45479772Y-66777704D01*
X45505747Y-66815802D01*
X45627567Y-66994479D01*
X45806014Y-67186801D01*
X45806018Y-67186804D01*
X45806019Y-67186805D01*
X46011143Y-67350386D01*
X46238357Y-67481568D01*
X46482584Y-67577420D01*
X46738370Y-67635802D01*
X46738376Y-67635802D01*
X46738379Y-67635803D01*
X46934500Y-67650500D01*
X46934506Y-67650500D01*
X47065500Y-67650500D01*
X47261620Y-67635803D01*
X47261622Y-67635802D01*
X47261630Y-67635802D01*
X47517416Y-67577420D01*
X47761643Y-67481568D01*
X47988857Y-67350386D01*
X48193981Y-67186805D01*
X48372433Y-66994479D01*
X48520228Y-66777704D01*
X48634063Y-66541323D01*
X48711396Y-66290615D01*
X48750500Y-66031182D01*
X48750500Y-65768818D01*
X48711396Y-65509385D01*
X48634063Y-65258677D01*
X48551292Y-65086801D01*
X48520232Y-65022303D01*
X48520231Y-65022302D01*
X48520230Y-65022301D01*
X48520228Y-65022296D01*
X48372433Y-64805521D01*
X48362441Y-64794753D01*
X48193985Y-64613198D01*
X48089289Y-64529706D01*
X47988857Y-64449614D01*
X47761643Y-64318432D01*
X47517416Y-64222580D01*
X47517411Y-64222578D01*
X47517402Y-64222576D01*
X47299818Y-64172914D01*
X47261630Y-64164198D01*
X47261629Y-64164197D01*
X47261625Y-64164197D01*
X47261620Y-64164196D01*
X47065500Y-64149500D01*
X47065494Y-64149500D01*
X46934506Y-64149500D01*
X46934500Y-64149500D01*
X46738379Y-64164196D01*
X46738374Y-64164197D01*
X46482597Y-64222576D01*
X46482578Y-64222582D01*
X46238363Y-64318429D01*
X46238357Y-64318432D01*
X46195877Y-64342957D01*
X46127977Y-64359427D01*
X46061951Y-64336574D01*
X46022160Y-64289369D01*
X45980232Y-64202303D01*
X45980231Y-64202302D01*
X45980230Y-64202301D01*
X45980228Y-64202296D01*
X45832433Y-63985521D01*
X45822441Y-63974753D01*
X45653985Y-63793198D01*
X45614533Y-63761736D01*
X45448857Y-63629614D01*
X45221643Y-63498432D01*
X44977416Y-63402580D01*
X44977411Y-63402578D01*
X44977402Y-63402576D01*
X44759818Y-63352914D01*
X44721630Y-63344198D01*
X44721629Y-63344197D01*
X44721625Y-63344197D01*
X44721620Y-63344196D01*
X44525500Y-63329500D01*
X44525494Y-63329500D01*
X44394506Y-63329500D01*
X44394500Y-63329500D01*
X44198379Y-63344196D01*
X44198374Y-63344197D01*
X43942585Y-63402579D01*
X43858890Y-63435426D01*
X43789293Y-63441593D01*
X43727410Y-63409155D01*
X43695098Y-63356547D01*
X43641048Y-63181323D01*
X43634063Y-63158677D01*
X43622121Y-63133880D01*
X43520232Y-62922303D01*
X43520231Y-62922302D01*
X43520230Y-62922301D01*
X43520228Y-62922296D01*
X43372433Y-62705521D01*
X43340576Y-62671187D01*
X49059500Y-62671187D01*
X49079794Y-62805823D01*
X49098604Y-62930615D01*
X49098605Y-62930617D01*
X49098606Y-62930623D01*
X49175938Y-63181326D01*
X49289767Y-63417696D01*
X49289768Y-63417697D01*
X49289770Y-63417700D01*
X49289772Y-63417704D01*
X49338126Y-63488626D01*
X49437567Y-63634479D01*
X49616014Y-63826801D01*
X49616018Y-63826804D01*
X49616019Y-63826805D01*
X49821143Y-63990386D01*
X50048357Y-64121568D01*
X50292584Y-64217420D01*
X50548370Y-64275802D01*
X50548376Y-64275802D01*
X50548379Y-64275803D01*
X50744500Y-64290500D01*
X50744506Y-64290500D01*
X50875500Y-64290500D01*
X51071620Y-64275803D01*
X51071622Y-64275802D01*
X51071630Y-64275802D01*
X51327416Y-64217420D01*
X51571643Y-64121568D01*
X51798857Y-63990386D01*
X52003981Y-63826805D01*
X52035167Y-63793195D01*
X52043945Y-63783733D01*
X52182433Y-63634479D01*
X52330228Y-63417704D01*
X52444063Y-63181323D01*
X52521396Y-62930615D01*
X52560500Y-62671182D01*
X52560500Y-62408818D01*
X52521396Y-62149385D01*
X52444063Y-61898677D01*
X52382165Y-61770144D01*
X52330232Y-61662303D01*
X52330225Y-61662292D01*
X52320447Y-61647951D01*
X52282719Y-61592614D01*
X52261219Y-61526136D01*
X52279073Y-61458586D01*
X52330613Y-61411411D01*
X52374657Y-61399210D01*
X52537536Y-61385347D01*
X52537539Y-61385346D01*
X52537541Y-61385346D01*
X52768249Y-61325275D01*
X52927707Y-61253195D01*
X52985480Y-61227080D01*
X52985481Y-61227078D01*
X52985486Y-61227077D01*
X53183003Y-61093579D01*
X53355118Y-60928621D01*
X53496879Y-60736947D01*
X53604207Y-60524074D01*
X53674016Y-60296123D01*
X53704298Y-60059654D01*
X53694180Y-59821468D01*
X53683999Y-59774230D01*
X53643954Y-59588419D01*
X53555064Y-59367211D01*
X53555064Y-59367210D01*
X53430069Y-59164205D01*
X53272564Y-58985245D01*
X53087080Y-58835477D01*
X52973130Y-58771820D01*
X52878955Y-58719210D01*
X52654170Y-58639788D01*
X52419209Y-58599500D01*
X52419200Y-58599500D01*
X52240503Y-58599500D01*
X52240498Y-58599500D01*
X52062463Y-58614652D01*
X51831751Y-58674724D01*
X51614519Y-58772919D01*
X51614511Y-58772924D01*
X51417006Y-58906413D01*
X51416997Y-58906421D01*
X51244881Y-59071379D01*
X51103123Y-59263050D01*
X51103120Y-59263054D01*
X50995796Y-59475920D01*
X50995793Y-59475926D01*
X50925983Y-59703878D01*
X50895702Y-59940346D01*
X50905819Y-60178528D01*
X50905819Y-60178532D01*
X50956046Y-60411582D01*
X50956046Y-60411583D01*
X51040876Y-60622689D01*
X51047607Y-60692233D01*
X51015671Y-60754377D01*
X50955207Y-60789390D01*
X50916552Y-60792576D01*
X50875500Y-60789500D01*
X50875494Y-60789500D01*
X50744506Y-60789500D01*
X50744500Y-60789500D01*
X50548379Y-60804196D01*
X50548374Y-60804197D01*
X50292597Y-60862576D01*
X50292578Y-60862582D01*
X50048356Y-60958432D01*
X49821143Y-61089614D01*
X49616014Y-61253198D01*
X49437567Y-61445520D01*
X49289768Y-61662302D01*
X49289767Y-61662303D01*
X49175938Y-61898673D01*
X49098606Y-62149376D01*
X49098605Y-62149381D01*
X49098604Y-62149385D01*
X49085852Y-62233987D01*
X49059500Y-62408812D01*
X49059500Y-62671187D01*
X43340576Y-62671187D01*
X43315299Y-62643945D01*
X43193985Y-62513198D01*
X43063095Y-62408817D01*
X42988857Y-62349614D01*
X42952609Y-62328686D01*
X42904394Y-62278120D01*
X42891171Y-62209513D01*
X42917139Y-62144648D01*
X42926921Y-62133627D01*
X43999202Y-61061345D01*
X44005293Y-61056003D01*
X44033987Y-61033987D01*
X44052267Y-61010164D01*
X44058475Y-61002073D01*
X44058477Y-61002072D01*
X44129726Y-60909217D01*
X44133544Y-60904705D01*
X44137996Y-60899925D01*
X44141462Y-60893922D01*
X44144614Y-60889813D01*
X44144375Y-60888437D01*
X44153020Y-60854978D01*
X44192838Y-60758850D01*
X44208500Y-60639885D01*
X44208500Y-60639884D01*
X44208723Y-60638191D01*
X44208726Y-60638160D01*
X44213750Y-60599999D01*
X44209031Y-60564156D01*
X44208500Y-60556054D01*
X44208500Y-60075373D01*
X44745723Y-60075373D01*
X44775881Y-60375160D01*
X44775882Y-60375162D01*
X44845728Y-60668252D01*
X44845733Y-60668266D01*
X44954020Y-60949427D01*
X44954024Y-60949436D01*
X45098825Y-61213665D01*
X45098829Y-61213671D01*
X45225320Y-61385346D01*
X45277554Y-61456238D01*
X45277561Y-61456245D01*
X45487019Y-61672823D01*
X45723478Y-61859553D01*
X45723480Y-61859554D01*
X45723485Y-61859558D01*
X45982730Y-62013109D01*
X46260128Y-62130736D01*
X46550729Y-62210340D01*
X46849347Y-62250500D01*
X46849351Y-62250500D01*
X47075252Y-62250500D01*
X47239164Y-62239526D01*
X47300634Y-62235412D01*
X47595903Y-62175396D01*
X47880537Y-62076560D01*
X48149459Y-61940668D01*
X48397869Y-61770144D01*
X48621333Y-61568032D01*
X48815865Y-61337939D01*
X48977993Y-61083970D01*
X49104823Y-60810658D01*
X49194093Y-60522879D01*
X49244209Y-60225770D01*
X49254277Y-59924631D01*
X49224118Y-59624838D01*
X49154269Y-59331739D01*
X49045977Y-59050566D01*
X48901175Y-58786335D01*
X48722446Y-58543762D01*
X48512980Y-58327176D01*
X48389742Y-58229856D01*
X48276521Y-58140446D01*
X48276517Y-58140443D01*
X48276515Y-58140442D01*
X48017270Y-57986891D01*
X47739872Y-57869264D01*
X47739863Y-57869261D01*
X47449272Y-57789660D01*
X47374616Y-57779620D01*
X47150653Y-57749500D01*
X46924756Y-57749500D01*
X46924748Y-57749500D01*
X46699368Y-57764587D01*
X46699359Y-57764589D01*
X46404094Y-57824604D01*
X46119464Y-57923439D01*
X46119459Y-57923441D01*
X45850546Y-58059328D01*
X45602125Y-58229860D01*
X45378665Y-58431969D01*
X45184132Y-58662064D01*
X45022006Y-58916030D01*
X45022005Y-58916032D01*
X44906842Y-59164205D01*
X44895177Y-59189342D01*
X44895176Y-59189346D01*
X44805907Y-59477118D01*
X44787133Y-59588419D01*
X44755791Y-59774230D01*
X44746249Y-60059654D01*
X44745723Y-60075373D01*
X44208500Y-60075373D01*
X44208500Y-56971289D01*
X45237416Y-56971289D01*
X45237459Y-56995401D01*
X45237500Y-56995499D01*
X45237616Y-56995782D01*
X45237618Y-56995784D01*
X45237808Y-56995862D01*
X45238000Y-56995941D01*
X45238002Y-56995939D01*
X45262616Y-56995924D01*
X45262616Y-56995928D01*
X45262760Y-56995900D01*
X48453240Y-56995900D01*
X48453383Y-56995928D01*
X48453384Y-56995924D01*
X48477997Y-56995939D01*
X48478000Y-56995941D01*
X48478383Y-56995783D01*
X48478500Y-56995499D01*
X48478541Y-56995400D01*
X48478540Y-56995397D01*
X48478583Y-56971289D01*
X48478500Y-56970867D01*
X48478500Y-56428133D01*
X51465668Y-56428133D01*
X51481058Y-56515410D01*
X51496135Y-56600911D01*
X51565623Y-56762004D01*
X51565624Y-56762006D01*
X51565626Y-56762009D01*
X51620278Y-56835418D01*
X51670390Y-56902730D01*
X51804786Y-57015502D01*
X51882488Y-57054525D01*
X51961562Y-57094238D01*
X51961563Y-57094238D01*
X51961567Y-57094240D01*
X52132279Y-57134700D01*
X52132282Y-57134700D01*
X52263701Y-57134700D01*
X52263709Y-57134700D01*
X52394255Y-57119441D01*
X52559117Y-57059437D01*
X52705696Y-56963030D01*
X52826092Y-56835418D01*
X52913812Y-56683481D01*
X52964130Y-56515410D01*
X52974331Y-56340265D01*
X52943865Y-56167489D01*
X52874377Y-56006396D01*
X52769610Y-55865670D01*
X52697747Y-55805370D01*
X52635214Y-55752898D01*
X52635212Y-55752897D01*
X52478437Y-55674161D01*
X52478433Y-55674160D01*
X52307721Y-55633700D01*
X52176291Y-55633700D01*
X52071854Y-55645907D01*
X52045743Y-55648959D01*
X52045740Y-55648960D01*
X51880884Y-55708962D01*
X51880880Y-55708964D01*
X51734306Y-55805367D01*
X51734305Y-55805368D01*
X51613910Y-55932978D01*
X51526188Y-56084918D01*
X51475870Y-56252989D01*
X51475869Y-56252994D01*
X51465668Y-56428133D01*
X48478500Y-56428133D01*
X48478500Y-54033359D01*
X48478528Y-54033216D01*
X48478524Y-54033216D01*
X48478539Y-54008602D01*
X48478541Y-54008600D01*
X48478462Y-54008408D01*
X48478384Y-54008218D01*
X48478382Y-54008216D01*
X48478099Y-54008100D01*
X48478000Y-54008059D01*
X48453446Y-54008059D01*
X48453240Y-54008100D01*
X45262760Y-54008100D01*
X45262554Y-54008059D01*
X45238000Y-54008059D01*
X45237901Y-54008100D01*
X45237617Y-54008216D01*
X45237615Y-54008218D01*
X45237459Y-54008599D01*
X45237476Y-54033216D01*
X45237471Y-54033216D01*
X45237500Y-54033359D01*
X45237500Y-56970867D01*
X45237416Y-56971289D01*
X44208500Y-56971289D01*
X44208500Y-53703410D01*
X44228185Y-53636371D01*
X44244814Y-53615734D01*
X49399202Y-48461345D01*
X49405293Y-48456003D01*
X49433987Y-48433987D01*
X49452267Y-48410164D01*
X49458475Y-48402073D01*
X49458477Y-48402072D01*
X49531524Y-48306876D01*
X49556920Y-48245562D01*
X49592838Y-48158850D01*
X49608500Y-48039885D01*
X49608500Y-48039884D01*
X49608723Y-48038191D01*
X49608726Y-48038160D01*
X49613750Y-47999999D01*
X49609031Y-47964156D01*
X49608500Y-47956054D01*
X49608500Y-45643945D01*
X49609031Y-45635843D01*
X49613750Y-45599999D01*
X49613041Y-45594617D01*
X49608766Y-45562148D01*
X49608765Y-45562129D01*
X49608500Y-45560115D01*
X49592838Y-45441150D01*
X49532300Y-45294999D01*
X49531662Y-45293303D01*
X49461826Y-45202292D01*
X49458477Y-45197928D01*
X49458476Y-45197927D01*
X49456006Y-45194708D01*
X49433986Y-45166012D01*
X49412467Y-45149500D01*
X49405293Y-45143995D01*
X49399203Y-45138654D01*
X48061354Y-43800805D01*
X48056001Y-43794702D01*
X48053216Y-43791073D01*
X48033987Y-43766013D01*
X48033985Y-43766011D01*
X48033984Y-43766010D01*
X48002075Y-43741526D01*
X48002074Y-43741525D01*
X48002072Y-43741523D01*
X47938999Y-43693125D01*
X47910410Y-43671187D01*
X49059500Y-43671187D01*
X49070103Y-43741526D01*
X49098604Y-43930615D01*
X49098605Y-43930617D01*
X49098606Y-43930623D01*
X49175938Y-44181326D01*
X49289767Y-44417696D01*
X49289768Y-44417697D01*
X49289770Y-44417700D01*
X49289772Y-44417704D01*
X49437567Y-44634479D01*
X49616014Y-44826801D01*
X49616018Y-44826804D01*
X49616019Y-44826805D01*
X49821143Y-44990386D01*
X50048357Y-45121568D01*
X50292584Y-45217420D01*
X50548370Y-45275802D01*
X50548376Y-45275802D01*
X50548379Y-45275803D01*
X50744500Y-45290500D01*
X50744506Y-45290500D01*
X50875500Y-45290500D01*
X51071620Y-45275803D01*
X51071622Y-45275802D01*
X51071630Y-45275802D01*
X51327416Y-45217420D01*
X51571643Y-45121568D01*
X51798857Y-44990386D01*
X52003981Y-44826805D01*
X52016094Y-44813751D01*
X52043945Y-44783733D01*
X52182433Y-44634479D01*
X52330228Y-44417704D01*
X52444063Y-44181323D01*
X52521396Y-43930615D01*
X52560500Y-43671182D01*
X52560500Y-43408818D01*
X52521396Y-43149385D01*
X52444063Y-42898677D01*
X52382165Y-42770144D01*
X52330232Y-42662303D01*
X52330225Y-42662292D01*
X52282720Y-42592615D01*
X52261219Y-42526136D01*
X52279073Y-42458586D01*
X52330613Y-42411411D01*
X52374657Y-42399210D01*
X52537536Y-42385347D01*
X52537539Y-42385346D01*
X52537541Y-42385346D01*
X52768249Y-42325275D01*
X52953524Y-42241525D01*
X52985480Y-42227080D01*
X52985481Y-42227078D01*
X52985486Y-42227077D01*
X53129434Y-42129784D01*
X53182993Y-42093586D01*
X53182994Y-42093584D01*
X53183003Y-42093579D01*
X53355118Y-41928621D01*
X53496879Y-41736947D01*
X53604207Y-41524074D01*
X53674016Y-41296123D01*
X53704298Y-41059654D01*
X53694180Y-40821468D01*
X53643954Y-40588419D01*
X53555064Y-40367210D01*
X53430069Y-40164205D01*
X53272564Y-39985245D01*
X53087080Y-39835477D01*
X52973130Y-39771820D01*
X52878955Y-39719210D01*
X52654170Y-39639788D01*
X52419209Y-39599500D01*
X52419200Y-39599500D01*
X52240503Y-39599500D01*
X52240498Y-39599500D01*
X52062463Y-39614652D01*
X51831751Y-39674724D01*
X51614519Y-39772919D01*
X51614511Y-39772924D01*
X51417006Y-39906413D01*
X51416997Y-39906421D01*
X51244881Y-40071379D01*
X51103123Y-40263050D01*
X51103120Y-40263054D01*
X50995796Y-40475920D01*
X50995793Y-40475926D01*
X50925983Y-40703878D01*
X50895702Y-40940346D01*
X50905819Y-41178528D01*
X50905819Y-41178532D01*
X50956046Y-41411582D01*
X50956046Y-41411583D01*
X51040876Y-41622689D01*
X51047607Y-41692233D01*
X51015671Y-41754377D01*
X50955207Y-41789390D01*
X50916552Y-41792576D01*
X50875500Y-41789500D01*
X50875494Y-41789500D01*
X50744506Y-41789500D01*
X50744500Y-41789500D01*
X50548379Y-41804196D01*
X50548374Y-41804197D01*
X50292597Y-41862576D01*
X50292578Y-41862582D01*
X50048356Y-41958432D01*
X49821143Y-42089614D01*
X49616014Y-42253198D01*
X49437567Y-42445520D01*
X49289768Y-42662302D01*
X49289767Y-42662303D01*
X49175938Y-42898673D01*
X49098606Y-43149376D01*
X49098605Y-43149381D01*
X49098604Y-43149385D01*
X49086223Y-43231524D01*
X49059500Y-43408812D01*
X49059500Y-43671187D01*
X47910410Y-43671187D01*
X47906877Y-43668476D01*
X47906873Y-43668474D01*
X47758850Y-43607161D01*
X47739457Y-43604608D01*
X47637704Y-43591212D01*
X47637678Y-43591210D01*
X47600001Y-43586250D01*
X47599999Y-43586250D01*
X47589527Y-43587628D01*
X47564151Y-43590969D01*
X47556054Y-43591500D01*
X46103411Y-43591500D01*
X46036372Y-43571815D01*
X46015730Y-43555181D01*
X44844819Y-42384270D01*
X44811334Y-42322947D01*
X44808500Y-42296589D01*
X44808500Y-42168180D01*
X44828185Y-42101141D01*
X44880989Y-42055386D01*
X44950147Y-42045442D01*
X45013703Y-42074467D01*
X45041240Y-42108585D01*
X45073899Y-42168180D01*
X45098825Y-42213665D01*
X45098829Y-42213671D01*
X45225320Y-42385346D01*
X45277554Y-42456238D01*
X45277561Y-42456245D01*
X45487019Y-42672823D01*
X45723478Y-42859553D01*
X45723480Y-42859554D01*
X45723485Y-42859558D01*
X45982730Y-43013109D01*
X46260128Y-43130736D01*
X46550729Y-43210340D01*
X46849347Y-43250500D01*
X46849351Y-43250500D01*
X47075252Y-43250500D01*
X47239164Y-43239526D01*
X47300634Y-43235412D01*
X47595903Y-43175396D01*
X47880537Y-43076560D01*
X48149459Y-42940668D01*
X48397869Y-42770144D01*
X48621333Y-42568032D01*
X48815865Y-42337939D01*
X48977993Y-42083970D01*
X49104823Y-41810658D01*
X49194093Y-41522879D01*
X49244209Y-41225770D01*
X49254277Y-40924631D01*
X49224118Y-40624838D01*
X49154269Y-40331739D01*
X49045977Y-40050566D01*
X48901175Y-39786335D01*
X48722446Y-39543762D01*
X48512980Y-39327176D01*
X48389742Y-39229856D01*
X48276521Y-39140446D01*
X48276517Y-39140443D01*
X48276515Y-39140442D01*
X48017270Y-38986891D01*
X47739872Y-38869264D01*
X47739863Y-38869261D01*
X47449272Y-38789660D01*
X47374616Y-38779620D01*
X47150653Y-38749500D01*
X46924756Y-38749500D01*
X46924748Y-38749500D01*
X46699368Y-38764587D01*
X46699359Y-38764589D01*
X46404094Y-38824604D01*
X46119464Y-38923439D01*
X46119459Y-38923441D01*
X45850546Y-39059328D01*
X45602125Y-39229860D01*
X45378665Y-39431969D01*
X45184132Y-39662064D01*
X45037019Y-39892514D01*
X44984354Y-39938429D01*
X44915226Y-39948583D01*
X44851582Y-39919751D01*
X44813630Y-39861088D01*
X44808500Y-39825792D01*
X44808500Y-34903410D01*
X44828185Y-34836371D01*
X44844814Y-34815734D01*
X46954588Y-32705959D01*
X47015909Y-32672476D01*
X47085601Y-32677460D01*
X47141534Y-32719332D01*
X47160197Y-32755321D01*
X47165470Y-32771548D01*
X47165473Y-32771556D01*
X47260960Y-32936944D01*
X47326801Y-33010068D01*
X47367813Y-33055617D01*
X47388747Y-33078866D01*
X47543248Y-33191118D01*
X47717712Y-33268794D01*
X47904513Y-33308500D01*
X48095487Y-33308500D01*
X48241719Y-33277417D01*
X48311386Y-33282733D01*
X48367120Y-33324870D01*
X48391225Y-33390449D01*
X48391500Y-33398707D01*
X48391500Y-34884100D01*
X48371815Y-34951139D01*
X48319011Y-34996894D01*
X48267500Y-35008100D01*
X45262760Y-35008100D01*
X45262554Y-35008059D01*
X45238000Y-35008059D01*
X45237901Y-35008100D01*
X45237617Y-35008216D01*
X45237615Y-35008218D01*
X45237459Y-35008599D01*
X45237476Y-35033216D01*
X45237471Y-35033216D01*
X45237500Y-35033359D01*
X45237500Y-37970867D01*
X45237416Y-37971289D01*
X45237459Y-37995401D01*
X45237500Y-37995499D01*
X45237616Y-37995782D01*
X45237618Y-37995784D01*
X45237808Y-37995862D01*
X45238000Y-37995941D01*
X45238002Y-37995939D01*
X45262616Y-37995924D01*
X45262616Y-37995928D01*
X45262760Y-37995900D01*
X48453240Y-37995900D01*
X48453383Y-37995928D01*
X48453384Y-37995924D01*
X48477997Y-37995939D01*
X48478000Y-37995941D01*
X48478383Y-37995783D01*
X48478500Y-37995499D01*
X48478541Y-37995400D01*
X48478540Y-37995397D01*
X48478583Y-37971289D01*
X48478500Y-37970867D01*
X48478500Y-37638411D01*
X48498185Y-37571372D01*
X48550989Y-37525617D01*
X48620147Y-37515673D01*
X48683703Y-37544698D01*
X48690181Y-37550730D01*
X49705399Y-38565948D01*
X49732378Y-38606416D01*
X49951174Y-39137777D01*
X49951174Y-39137776D01*
X49959915Y-39156146D01*
X49962899Y-39163635D01*
X49965470Y-39171549D01*
X49965473Y-39171556D01*
X50060960Y-39336944D01*
X50188747Y-39478866D01*
X50343248Y-39591118D01*
X50517712Y-39668794D01*
X50704513Y-39708500D01*
X50895487Y-39708500D01*
X51082288Y-39668794D01*
X51256752Y-39591118D01*
X51411253Y-39478866D01*
X51539040Y-39336944D01*
X51634527Y-39171556D01*
X51693542Y-38989928D01*
X51713504Y-38800000D01*
X51693542Y-38610072D01*
X51634527Y-38428444D01*
X51539040Y-38263056D01*
X51411253Y-38121134D01*
X51265864Y-38015502D01*
X51256751Y-38008881D01*
X51204537Y-37985634D01*
X51173619Y-37971868D01*
X51167317Y-37968618D01*
X51137772Y-37951172D01*
X51137767Y-37951169D01*
X50606415Y-37732377D01*
X50565947Y-37705398D01*
X49644819Y-36784270D01*
X49611334Y-36722947D01*
X49608500Y-36696589D01*
X49608500Y-33168411D01*
X49628185Y-33101372D01*
X49680989Y-33055617D01*
X49750147Y-33045673D01*
X49813703Y-33074698D01*
X49820181Y-33080730D01*
X51542559Y-34803108D01*
X51576044Y-34864431D01*
X51571060Y-34934123D01*
X51569340Y-34938481D01*
X51360949Y-35438622D01*
X51360948Y-35438623D01*
X51342553Y-35490415D01*
X51342552Y-35490418D01*
X51341802Y-35495562D01*
X51337034Y-35515965D01*
X51306460Y-35610065D01*
X51306458Y-35610070D01*
X51306458Y-35610072D01*
X51286496Y-35800000D01*
X51306458Y-35989928D01*
X51306459Y-35989931D01*
X51365470Y-36171549D01*
X51365473Y-36171556D01*
X51460960Y-36336944D01*
X51588747Y-36478866D01*
X51672325Y-36539589D01*
X51748506Y-36594938D01*
X51746742Y-36597365D01*
X51786000Y-36638431D01*
X51799312Y-36707021D01*
X51773427Y-36771919D01*
X51744003Y-36798990D01*
X51734304Y-36805369D01*
X51613910Y-36932978D01*
X51526188Y-37084918D01*
X51475870Y-37252989D01*
X51475869Y-37252994D01*
X51465668Y-37428133D01*
X51482858Y-37525617D01*
X51496135Y-37600911D01*
X51565623Y-37762004D01*
X51565624Y-37762006D01*
X51565626Y-37762009D01*
X51620278Y-37835418D01*
X51670390Y-37902730D01*
X51804786Y-38015502D01*
X51882488Y-38054525D01*
X51961562Y-38094238D01*
X51961563Y-38094238D01*
X51961567Y-38094240D01*
X52132279Y-38134700D01*
X52132282Y-38134700D01*
X52263701Y-38134700D01*
X52263709Y-38134700D01*
X52394255Y-38119441D01*
X52559117Y-38059437D01*
X52705696Y-37963030D01*
X52826092Y-37835418D01*
X52913812Y-37683481D01*
X52964130Y-37515410D01*
X52974331Y-37340265D01*
X52943865Y-37167489D01*
X52874377Y-37006396D01*
X52869615Y-37000000D01*
X52769609Y-36865669D01*
X52663458Y-36776597D01*
X52624756Y-36718426D01*
X52623648Y-36648565D01*
X52660485Y-36589195D01*
X52670279Y-36581290D01*
X52727675Y-36539589D01*
X52811253Y-36478866D01*
X52916686Y-36361770D01*
X52976169Y-36325124D01*
X53046026Y-36326453D01*
X53096514Y-36357063D01*
X54955181Y-38215730D01*
X54988666Y-38277053D01*
X54991500Y-38303411D01*
X54991500Y-49496588D01*
X54971815Y-49563627D01*
X54955181Y-49584269D01*
X53418807Y-51120642D01*
X53373774Y-51149396D01*
X52837044Y-51345993D01*
X52831538Y-51348144D01*
X52831533Y-51348146D01*
X52831535Y-51348145D01*
X52773360Y-51375179D01*
X52767893Y-51378439D01*
X52767725Y-51378157D01*
X52751737Y-51387515D01*
X52703748Y-51408881D01*
X52549245Y-51521135D01*
X52421459Y-51663057D01*
X52325973Y-51828443D01*
X52325970Y-51828450D01*
X52271274Y-51996789D01*
X52266958Y-52010072D01*
X52246996Y-52200000D01*
X52266958Y-52389928D01*
X52266959Y-52389931D01*
X52325970Y-52571549D01*
X52325973Y-52571556D01*
X52421460Y-52736944D01*
X52549247Y-52878866D01*
X52703748Y-52991118D01*
X52878212Y-53068794D01*
X53065013Y-53108500D01*
X53255987Y-53108500D01*
X53442788Y-53068794D01*
X53617252Y-52991118D01*
X53771753Y-52878866D01*
X53899540Y-52736944D01*
X53995027Y-52571556D01*
X53995030Y-52571544D01*
X53997667Y-52565624D01*
X53997834Y-52565698D01*
X54000849Y-52558671D01*
X54000678Y-52558594D01*
X54023357Y-52508500D01*
X54238477Y-52033326D01*
X54263755Y-51996792D01*
X54779820Y-51480728D01*
X54841142Y-51447244D01*
X54910834Y-51452228D01*
X54966767Y-51494100D01*
X54991184Y-51559564D01*
X54991500Y-51568410D01*
X54991500Y-68563688D01*
X54971815Y-68630727D01*
X54955181Y-68651369D01*
X53321531Y-70285018D01*
X53290527Y-70307626D01*
X52782281Y-70568812D01*
X52748327Y-70587681D01*
X52748278Y-70587592D01*
X52734972Y-70594979D01*
X52703750Y-70608880D01*
X52703748Y-70608881D01*
X52549245Y-70721135D01*
X52421459Y-70863057D01*
X52325973Y-71028443D01*
X52325970Y-71028450D01*
X52292877Y-71130301D01*
X52266958Y-71210072D01*
X52246996Y-71400000D01*
X52266958Y-71589928D01*
X52266959Y-71589931D01*
X52325970Y-71771549D01*
X52325973Y-71771556D01*
X52421460Y-71936944D01*
X52549247Y-72078866D01*
X52703748Y-72191118D01*
X52878212Y-72268794D01*
X53065013Y-72308500D01*
X53255987Y-72308500D01*
X53442788Y-72268794D01*
X53617252Y-72191118D01*
X53771753Y-72078866D01*
X53899540Y-71936944D01*
X53995027Y-71771556D01*
X54011607Y-71720523D01*
X54014511Y-71713205D01*
X54024627Y-71691788D01*
X54188291Y-71159739D01*
X54219126Y-71108521D01*
X54779820Y-70547828D01*
X54841142Y-70514344D01*
X54910834Y-70519328D01*
X54966767Y-70561200D01*
X54991184Y-70626664D01*
X54991500Y-70635510D01*
X54991500Y-87496588D01*
X54971815Y-87563627D01*
X54955181Y-87584269D01*
X53418807Y-89120642D01*
X53373775Y-89149396D01*
X53341961Y-89161049D01*
X52837044Y-89345993D01*
X52831538Y-89348144D01*
X52831533Y-89348146D01*
X52831535Y-89348145D01*
X52773360Y-89375179D01*
X52767893Y-89378439D01*
X52767725Y-89378157D01*
X52751737Y-89387515D01*
X52703748Y-89408881D01*
X52549245Y-89521135D01*
X52421459Y-89663057D01*
X52325973Y-89828443D01*
X52325970Y-89828450D01*
X52266959Y-90010068D01*
X52266958Y-90010072D01*
X52246996Y-90200000D01*
X52266958Y-90389928D01*
X52266959Y-90389931D01*
X52325970Y-90571549D01*
X52325973Y-90571556D01*
X52421460Y-90736944D01*
X52493568Y-90817028D01*
X52523797Y-90880020D01*
X52515171Y-90949355D01*
X52493568Y-90982971D01*
X52421460Y-91063056D01*
X52421458Y-91063057D01*
X52421457Y-91063060D01*
X52325973Y-91228443D01*
X52325970Y-91228450D01*
X52271274Y-91396789D01*
X52266958Y-91410072D01*
X52246996Y-91600000D01*
X52266958Y-91789928D01*
X52266959Y-91789931D01*
X52325970Y-91971549D01*
X52325973Y-91971556D01*
X52421460Y-92136944D01*
X52549247Y-92278866D01*
X52703748Y-92391118D01*
X52878212Y-92468794D01*
X53065013Y-92508500D01*
X53255987Y-92508500D01*
X53442788Y-92468794D01*
X53617252Y-92391118D01*
X53771753Y-92278866D01*
X53899540Y-92136944D01*
X53995027Y-91971556D01*
X53995030Y-91971544D01*
X53997667Y-91965624D01*
X53997834Y-91965698D01*
X54000849Y-91958671D01*
X54000678Y-91958594D01*
X54002506Y-91954557D01*
X54238477Y-91433326D01*
X54263755Y-91396792D01*
X56287820Y-89372727D01*
X56349142Y-89339244D01*
X56418834Y-89344228D01*
X56474767Y-89386100D01*
X56499184Y-89451564D01*
X56499500Y-89460410D01*
X56499500Y-109937121D01*
X56499342Y-109941547D01*
X56494397Y-110010658D01*
X56483002Y-110155690D01*
X56481774Y-110164023D01*
X56460700Y-110260899D01*
X56433250Y-110375226D01*
X56431051Y-110382426D01*
X56394610Y-110480124D01*
X56351227Y-110584852D01*
X56348361Y-110590842D01*
X56298058Y-110682963D01*
X56296505Y-110685646D01*
X56238774Y-110779849D01*
X56235543Y-110784611D01*
X56172178Y-110869254D01*
X56169689Y-110872365D01*
X56098352Y-110955888D01*
X56095046Y-110959464D01*
X56020139Y-111034368D01*
X56016563Y-111037674D01*
X55933016Y-111109028D01*
X55929905Y-111111517D01*
X55845299Y-111174851D01*
X55840536Y-111178083D01*
X55746279Y-111235843D01*
X55743596Y-111237397D01*
X55651513Y-111287676D01*
X55645522Y-111290541D01*
X55540768Y-111333932D01*
X55538583Y-111334748D01*
X55443100Y-111370359D01*
X55435902Y-111372556D01*
X55321544Y-111400012D01*
X55224667Y-111421086D01*
X55216344Y-111422313D01*
X55075209Y-111433421D01*
X55001648Y-111438682D01*
X54997224Y-111438840D01*
X39002214Y-111438840D01*
X38997792Y-111438682D01*
X38931965Y-111433974D01*
X38783087Y-111422231D01*
X38774774Y-111421004D01*
X38682069Y-111400838D01*
X38563469Y-111372365D01*
X38556269Y-111370167D01*
X38461307Y-111334748D01*
X38354577Y-111290541D01*
X38353804Y-111290221D01*
X38347817Y-111287356D01*
X38257765Y-111238184D01*
X38255084Y-111236632D01*
X38158762Y-111177608D01*
X38153999Y-111174376D01*
X38071048Y-111112281D01*
X38067952Y-111109805D01*
X37982688Y-111036984D01*
X37979123Y-111033689D01*
X37905639Y-110960205D01*
X37902333Y-110956629D01*
X37868050Y-110916490D01*
X37829525Y-110871384D01*
X37827039Y-110868277D01*
X37764945Y-110785331D01*
X37761719Y-110780577D01*
X37702662Y-110684210D01*
X37701143Y-110681586D01*
X37651958Y-110591513D01*
X37649093Y-110585524D01*
X37604569Y-110478041D01*
X37599725Y-110465054D01*
X37569131Y-110383036D01*
X37566952Y-110375897D01*
X37538465Y-110257251D01*
X37537468Y-110252670D01*
X37518302Y-110164575D01*
X37517078Y-110156269D01*
X37505041Y-110003380D01*
X37500658Y-109942119D01*
X37500500Y-109937694D01*
X37500500Y-108500000D01*
X38994357Y-108500000D01*
X39002029Y-108592589D01*
X39002350Y-108596456D01*
X39002562Y-108601579D01*
X39002562Y-108624081D01*
X39006265Y-108646282D01*
X39006899Y-108651365D01*
X39014891Y-108747816D01*
X39014891Y-108747818D01*
X39038654Y-108841657D01*
X39039705Y-108846672D01*
X39043407Y-108868854D01*
X39043409Y-108868862D01*
X39050714Y-108890141D01*
X39052176Y-108895053D01*
X39075935Y-108988874D01*
X39075939Y-108988887D01*
X39114815Y-109077515D01*
X39116677Y-109082286D01*
X39123986Y-109103576D01*
X39123988Y-109103579D01*
X39134698Y-109123371D01*
X39136948Y-109127975D01*
X39175827Y-109216608D01*
X39228764Y-109297634D01*
X39231388Y-109302038D01*
X39242095Y-109321823D01*
X39242098Y-109321828D01*
X39255926Y-109339595D01*
X39258903Y-109343765D01*
X39311834Y-109424782D01*
X39311838Y-109424787D01*
X39377393Y-109496000D01*
X39380706Y-109499911D01*
X39394522Y-109517662D01*
X39411080Y-109532905D01*
X39414694Y-109536519D01*
X39480256Y-109607738D01*
X39556651Y-109667199D01*
X39560547Y-109670499D01*
X39566913Y-109676360D01*
X39577099Y-109685737D01*
X39595936Y-109698044D01*
X39600102Y-109701018D01*
X39676491Y-109760474D01*
X39761640Y-109806554D01*
X39766001Y-109809153D01*
X39784855Y-109821471D01*
X39805494Y-109830524D01*
X39810033Y-109832743D01*
X39895190Y-109878828D01*
X39986754Y-109910262D01*
X39991489Y-109912109D01*
X40012116Y-109921157D01*
X40033932Y-109926681D01*
X40038816Y-109928135D01*
X40110089Y-109952603D01*
X40130385Y-109959571D01*
X40164189Y-109965211D01*
X40225866Y-109975503D01*
X40230879Y-109976555D01*
X40252676Y-109982075D01*
X40252678Y-109982075D01*
X40252685Y-109982077D01*
X40275125Y-109983936D01*
X40280169Y-109984564D01*
X40375665Y-110000500D01*
X40375666Y-110000500D01*
X40472448Y-110000500D01*
X40477561Y-110000711D01*
X40493415Y-110002025D01*
X40499998Y-110002571D01*
X40500000Y-110002571D01*
X40500002Y-110002571D01*
X40506584Y-110002025D01*
X40522438Y-110000711D01*
X40527552Y-110000500D01*
X40624330Y-110000500D01*
X40624335Y-110000500D01*
X40719851Y-109984561D01*
X40724862Y-109983937D01*
X40747315Y-109982077D01*
X40769153Y-109976546D01*
X40774105Y-109975508D01*
X40869614Y-109959571D01*
X40961198Y-109928129D01*
X40966042Y-109926688D01*
X40987884Y-109921157D01*
X41008500Y-109912113D01*
X41013234Y-109910265D01*
X41104810Y-109878828D01*
X41189975Y-109832738D01*
X41194505Y-109830524D01*
X41215145Y-109821471D01*
X41234008Y-109809146D01*
X41238337Y-109806566D01*
X41323509Y-109760474D01*
X41399931Y-109700992D01*
X41404018Y-109698073D01*
X41422898Y-109685739D01*
X41439466Y-109670487D01*
X41443341Y-109667204D01*
X41519744Y-109607738D01*
X41585313Y-109536510D01*
X41588897Y-109532925D01*
X41605477Y-109517663D01*
X41619320Y-109499876D01*
X41622581Y-109496026D01*
X41688164Y-109424785D01*
X41741127Y-109343718D01*
X41744053Y-109339620D01*
X41757902Y-109321828D01*
X41768623Y-109302016D01*
X41771233Y-109297636D01*
X41824173Y-109216607D01*
X41863061Y-109127950D01*
X41865299Y-109123375D01*
X41865301Y-109123371D01*
X41876014Y-109103576D01*
X41883336Y-109082246D01*
X41885162Y-109077564D01*
X41924063Y-108988881D01*
X41947826Y-108895041D01*
X41949278Y-108890162D01*
X41956592Y-108868859D01*
X41960296Y-108846658D01*
X41961340Y-108841677D01*
X41985108Y-108747821D01*
X41993104Y-108651321D01*
X41993733Y-108646282D01*
X41997438Y-108624081D01*
X41998088Y-108592589D01*
X41998283Y-108588812D01*
X42005643Y-108500000D01*
X51994357Y-108500000D01*
X52002029Y-108592589D01*
X52002350Y-108596456D01*
X52002562Y-108601579D01*
X52002562Y-108624081D01*
X52006265Y-108646282D01*
X52006899Y-108651365D01*
X52014891Y-108747816D01*
X52014891Y-108747818D01*
X52038654Y-108841657D01*
X52039705Y-108846672D01*
X52043407Y-108868854D01*
X52043409Y-108868862D01*
X52050714Y-108890141D01*
X52052176Y-108895053D01*
X52075935Y-108988874D01*
X52075939Y-108988887D01*
X52114815Y-109077515D01*
X52116677Y-109082286D01*
X52123986Y-109103576D01*
X52123988Y-109103579D01*
X52134698Y-109123371D01*
X52136948Y-109127975D01*
X52175827Y-109216608D01*
X52228764Y-109297634D01*
X52231388Y-109302038D01*
X52242095Y-109321823D01*
X52242098Y-109321828D01*
X52255926Y-109339595D01*
X52258903Y-109343765D01*
X52311834Y-109424782D01*
X52311838Y-109424787D01*
X52377393Y-109496000D01*
X52380706Y-109499911D01*
X52394522Y-109517662D01*
X52411080Y-109532905D01*
X52414694Y-109536519D01*
X52480256Y-109607738D01*
X52556651Y-109667199D01*
X52560547Y-109670499D01*
X52566913Y-109676360D01*
X52577099Y-109685737D01*
X52595936Y-109698044D01*
X52600102Y-109701018D01*
X52676491Y-109760474D01*
X52761640Y-109806554D01*
X52766001Y-109809153D01*
X52784855Y-109821471D01*
X52805494Y-109830524D01*
X52810033Y-109832743D01*
X52895190Y-109878828D01*
X52986754Y-109910262D01*
X52991489Y-109912109D01*
X53012116Y-109921157D01*
X53033932Y-109926681D01*
X53038816Y-109928135D01*
X53110089Y-109952603D01*
X53130385Y-109959571D01*
X53164189Y-109965211D01*
X53225866Y-109975503D01*
X53230879Y-109976555D01*
X53252676Y-109982075D01*
X53252678Y-109982075D01*
X53252685Y-109982077D01*
X53275125Y-109983936D01*
X53280169Y-109984564D01*
X53375665Y-110000500D01*
X53375666Y-110000500D01*
X53472448Y-110000500D01*
X53477561Y-110000711D01*
X53493415Y-110002025D01*
X53499998Y-110002571D01*
X53500000Y-110002571D01*
X53500002Y-110002571D01*
X53506584Y-110002025D01*
X53522438Y-110000711D01*
X53527552Y-110000500D01*
X53624330Y-110000500D01*
X53624335Y-110000500D01*
X53719851Y-109984561D01*
X53724862Y-109983937D01*
X53747315Y-109982077D01*
X53769153Y-109976546D01*
X53774105Y-109975508D01*
X53869614Y-109959571D01*
X53961198Y-109928129D01*
X53966042Y-109926688D01*
X53987884Y-109921157D01*
X54008500Y-109912113D01*
X54013234Y-109910265D01*
X54104810Y-109878828D01*
X54189975Y-109832738D01*
X54194505Y-109830524D01*
X54215145Y-109821471D01*
X54234008Y-109809146D01*
X54238337Y-109806566D01*
X54323509Y-109760474D01*
X54399931Y-109700992D01*
X54404018Y-109698073D01*
X54422898Y-109685739D01*
X54439466Y-109670487D01*
X54443341Y-109667204D01*
X54519744Y-109607738D01*
X54585313Y-109536510D01*
X54588897Y-109532925D01*
X54605477Y-109517663D01*
X54619320Y-109499876D01*
X54622581Y-109496026D01*
X54688164Y-109424785D01*
X54741127Y-109343718D01*
X54744053Y-109339620D01*
X54757902Y-109321828D01*
X54768623Y-109302016D01*
X54771233Y-109297636D01*
X54824173Y-109216607D01*
X54863061Y-109127950D01*
X54865299Y-109123375D01*
X54865301Y-109123371D01*
X54876014Y-109103576D01*
X54883336Y-109082246D01*
X54885162Y-109077564D01*
X54924063Y-108988881D01*
X54947826Y-108895041D01*
X54949278Y-108890162D01*
X54956592Y-108868859D01*
X54960296Y-108846658D01*
X54961340Y-108841677D01*
X54985108Y-108747821D01*
X54993104Y-108651321D01*
X54993733Y-108646282D01*
X54997438Y-108624081D01*
X54998088Y-108592589D01*
X54998283Y-108588812D01*
X55005643Y-108500000D01*
X54998284Y-108411190D01*
X54998088Y-108407407D01*
X54997438Y-108375919D01*
X54993733Y-108353714D01*
X54993103Y-108348666D01*
X54985108Y-108252179D01*
X54961341Y-108158327D01*
X54960295Y-108153334D01*
X54956592Y-108131143D01*
X54956591Y-108131140D01*
X54949283Y-108109850D01*
X54947825Y-108104952D01*
X54924062Y-108011116D01*
X54885185Y-107922487D01*
X54885174Y-107922461D01*
X54883329Y-107917734D01*
X54876014Y-107896424D01*
X54865298Y-107876622D01*
X54863052Y-107872029D01*
X54824173Y-107783393D01*
X54824173Y-107783392D01*
X54771231Y-107702358D01*
X54768607Y-107697954D01*
X54757904Y-107678177D01*
X54757902Y-107678172D01*
X54744080Y-107660413D01*
X54741102Y-107656242D01*
X54688166Y-107575218D01*
X54688165Y-107575217D01*
X54688164Y-107575215D01*
X54658241Y-107542710D01*
X54622606Y-107503999D01*
X54619295Y-107500090D01*
X54605477Y-107482337D01*
X54605473Y-107482332D01*
X54588919Y-107467093D01*
X54585301Y-107463476D01*
X54519744Y-107392262D01*
X54443352Y-107332804D01*
X54439444Y-107329493D01*
X54422898Y-107314261D01*
X54404063Y-107301955D01*
X54399897Y-107298981D01*
X54323509Y-107239526D01*
X54323508Y-107239525D01*
X54323505Y-107239523D01*
X54323503Y-107239522D01*
X54238385Y-107193459D01*
X54233981Y-107190835D01*
X54215145Y-107178529D01*
X54194547Y-107169494D01*
X54189940Y-107167242D01*
X54104811Y-107121172D01*
X54104802Y-107121169D01*
X54013259Y-107089742D01*
X54008484Y-107087879D01*
X54008312Y-107087803D01*
X53987884Y-107078843D01*
X53987880Y-107078842D01*
X53987878Y-107078841D01*
X53966076Y-107073319D01*
X53961166Y-107071858D01*
X53869614Y-107040429D01*
X53774138Y-107024496D01*
X53769123Y-107023444D01*
X53747312Y-107017922D01*
X53747316Y-107017922D01*
X53724895Y-107016065D01*
X53719810Y-107015431D01*
X53624336Y-106999500D01*
X53624335Y-106999500D01*
X53527541Y-106999500D01*
X53522427Y-106999288D01*
X53506555Y-106997973D01*
X53500002Y-106997430D01*
X53499998Y-106997430D01*
X53493444Y-106997973D01*
X53477572Y-106999288D01*
X53472459Y-106999500D01*
X53375665Y-106999500D01*
X53280188Y-107015431D01*
X53275103Y-107016065D01*
X53252688Y-107017922D01*
X53252683Y-107017923D01*
X53230880Y-107023444D01*
X53225866Y-107024495D01*
X53130382Y-107040429D01*
X53038834Y-107071856D01*
X53033927Y-107073317D01*
X53012126Y-107078839D01*
X53012116Y-107078843D01*
X52991510Y-107087881D01*
X52986738Y-107089742D01*
X52895194Y-107121170D01*
X52895183Y-107121175D01*
X52810062Y-107167240D01*
X52805458Y-107169491D01*
X52784854Y-107178529D01*
X52784845Y-107178534D01*
X52766023Y-107190831D01*
X52761621Y-107193455D01*
X52676492Y-107239524D01*
X52676489Y-107239527D01*
X52600106Y-107298977D01*
X52595938Y-107301954D01*
X52577099Y-107314263D01*
X52560542Y-107329503D01*
X52556635Y-107332812D01*
X52480255Y-107392262D01*
X52414697Y-107463476D01*
X52411075Y-107467098D01*
X52394529Y-107482330D01*
X52394514Y-107482346D01*
X52380699Y-107500094D01*
X52377390Y-107504001D01*
X52311836Y-107575215D01*
X52258901Y-107656236D01*
X52255925Y-107660404D01*
X52242099Y-107678170D01*
X52242094Y-107678177D01*
X52231386Y-107697964D01*
X52228763Y-107702365D01*
X52175828Y-107783390D01*
X52136953Y-107872015D01*
X52134704Y-107876615D01*
X52123985Y-107896424D01*
X52116676Y-107917714D01*
X52114814Y-107922487D01*
X52088724Y-107981967D01*
X52075939Y-108011116D01*
X52075936Y-108011122D01*
X52052177Y-108104942D01*
X52050716Y-108109850D01*
X52043408Y-108131140D01*
X52039705Y-108153327D01*
X52038654Y-108158342D01*
X52014891Y-108252178D01*
X52014891Y-108252182D01*
X52006898Y-108348634D01*
X52006265Y-108353714D01*
X52002562Y-108375919D01*
X52002562Y-108398419D01*
X52002350Y-108403535D01*
X51994357Y-108500000D01*
X42005643Y-108500000D01*
X41998284Y-108411190D01*
X41998088Y-108407407D01*
X41997438Y-108375919D01*
X41993733Y-108353714D01*
X41993103Y-108348666D01*
X41985108Y-108252179D01*
X41961341Y-108158327D01*
X41960295Y-108153334D01*
X41956592Y-108131143D01*
X41956591Y-108131140D01*
X41949283Y-108109850D01*
X41947825Y-108104952D01*
X41924062Y-108011116D01*
X41885185Y-107922487D01*
X41885174Y-107922461D01*
X41883329Y-107917734D01*
X41876014Y-107896424D01*
X41865298Y-107876622D01*
X41863052Y-107872029D01*
X41824173Y-107783393D01*
X41824173Y-107783392D01*
X41771231Y-107702358D01*
X41768607Y-107697954D01*
X41757904Y-107678177D01*
X41757902Y-107678172D01*
X41744080Y-107660413D01*
X41741102Y-107656242D01*
X41688166Y-107575218D01*
X41688165Y-107575217D01*
X41688164Y-107575215D01*
X41658241Y-107542710D01*
X41622606Y-107503999D01*
X41619295Y-107500090D01*
X41605477Y-107482337D01*
X41605473Y-107482332D01*
X41588919Y-107467093D01*
X41585301Y-107463476D01*
X41519744Y-107392262D01*
X41443352Y-107332804D01*
X41439444Y-107329493D01*
X41422898Y-107314261D01*
X41404063Y-107301955D01*
X41399897Y-107298981D01*
X41323509Y-107239526D01*
X41323508Y-107239525D01*
X41323505Y-107239523D01*
X41323503Y-107239522D01*
X41238385Y-107193459D01*
X41233981Y-107190835D01*
X41215145Y-107178529D01*
X41194547Y-107169494D01*
X41189940Y-107167242D01*
X41104811Y-107121172D01*
X41104802Y-107121169D01*
X41013259Y-107089742D01*
X41008484Y-107087879D01*
X41008312Y-107087803D01*
X40987884Y-107078843D01*
X40987880Y-107078842D01*
X40987878Y-107078841D01*
X40966076Y-107073319D01*
X40961166Y-107071858D01*
X40869614Y-107040429D01*
X40774138Y-107024496D01*
X40769123Y-107023444D01*
X40747312Y-107017922D01*
X40747316Y-107017922D01*
X40724895Y-107016065D01*
X40719810Y-107015431D01*
X40624336Y-106999500D01*
X40624335Y-106999500D01*
X40527541Y-106999500D01*
X40522427Y-106999288D01*
X40506555Y-106997973D01*
X40500002Y-106997430D01*
X40499998Y-106997430D01*
X40493444Y-106997973D01*
X40477572Y-106999288D01*
X40472459Y-106999500D01*
X40375665Y-106999500D01*
X40280188Y-107015431D01*
X40275103Y-107016065D01*
X40252688Y-107017922D01*
X40252683Y-107017923D01*
X40230880Y-107023444D01*
X40225866Y-107024495D01*
X40130382Y-107040429D01*
X40038834Y-107071856D01*
X40033927Y-107073317D01*
X40012126Y-107078839D01*
X40012116Y-107078843D01*
X39991510Y-107087881D01*
X39986738Y-107089742D01*
X39895194Y-107121170D01*
X39895183Y-107121175D01*
X39810062Y-107167240D01*
X39805458Y-107169491D01*
X39784854Y-107178529D01*
X39784845Y-107178534D01*
X39766023Y-107190831D01*
X39761621Y-107193455D01*
X39676492Y-107239524D01*
X39676489Y-107239527D01*
X39600106Y-107298977D01*
X39595938Y-107301954D01*
X39577099Y-107314263D01*
X39560542Y-107329503D01*
X39556635Y-107332812D01*
X39480255Y-107392262D01*
X39414697Y-107463476D01*
X39411075Y-107467098D01*
X39394529Y-107482330D01*
X39394514Y-107482346D01*
X39380699Y-107500094D01*
X39377390Y-107504001D01*
X39311836Y-107575215D01*
X39258901Y-107656236D01*
X39255925Y-107660404D01*
X39242099Y-107678170D01*
X39242094Y-107678177D01*
X39231386Y-107697964D01*
X39228763Y-107702365D01*
X39175828Y-107783390D01*
X39136953Y-107872015D01*
X39134704Y-107876615D01*
X39123985Y-107896424D01*
X39116676Y-107917714D01*
X39114814Y-107922487D01*
X39088724Y-107981967D01*
X39075939Y-108011116D01*
X39075936Y-108011122D01*
X39052177Y-108104942D01*
X39050716Y-108109850D01*
X39043408Y-108131140D01*
X39039705Y-108153327D01*
X39038654Y-108158342D01*
X39014891Y-108252178D01*
X39014891Y-108252182D01*
X39006898Y-108348634D01*
X39006265Y-108353714D01*
X39002562Y-108375919D01*
X39002562Y-108398419D01*
X39002350Y-108403535D01*
X38994357Y-108500000D01*
X37500500Y-108500000D01*
X37500500Y-101931187D01*
X40249500Y-101931187D01*
X40269794Y-102065823D01*
X40288604Y-102190615D01*
X40288605Y-102190617D01*
X40288606Y-102190623D01*
X40365938Y-102441326D01*
X40479767Y-102677696D01*
X40479768Y-102677697D01*
X40479770Y-102677700D01*
X40479772Y-102677704D01*
X40627567Y-102894479D01*
X40806014Y-103086801D01*
X40806018Y-103086804D01*
X40806019Y-103086805D01*
X41011143Y-103250386D01*
X41238357Y-103381568D01*
X41482584Y-103477420D01*
X41738370Y-103535802D01*
X41738376Y-103535802D01*
X41738379Y-103535803D01*
X41934500Y-103550500D01*
X41934506Y-103550500D01*
X42065500Y-103550500D01*
X42261620Y-103535803D01*
X42261622Y-103535802D01*
X42261630Y-103535802D01*
X42517416Y-103477420D01*
X42601111Y-103444571D01*
X42670705Y-103438403D01*
X42732588Y-103470840D01*
X42764900Y-103523448D01*
X42825937Y-103721323D01*
X42825938Y-103721326D01*
X42939767Y-103957696D01*
X42939768Y-103957697D01*
X42939770Y-103957700D01*
X42939772Y-103957704D01*
X42989869Y-104031182D01*
X43087567Y-104174479D01*
X43266014Y-104366801D01*
X43266018Y-104366804D01*
X43266019Y-104366805D01*
X43471143Y-104530386D01*
X43698357Y-104661568D01*
X43942584Y-104757420D01*
X44198370Y-104815802D01*
X44198376Y-104815802D01*
X44198379Y-104815803D01*
X44394500Y-104830500D01*
X44394506Y-104830500D01*
X44525500Y-104830500D01*
X44721620Y-104815803D01*
X44721622Y-104815802D01*
X44721630Y-104815802D01*
X44977416Y-104757420D01*
X45221643Y-104661568D01*
X45221646Y-104661566D01*
X45221647Y-104661566D01*
X45264118Y-104637045D01*
X45332018Y-104620571D01*
X45398045Y-104643423D01*
X45437839Y-104690630D01*
X45479767Y-104777695D01*
X45479768Y-104777697D01*
X45479770Y-104777700D01*
X45479772Y-104777704D01*
X45505747Y-104815802D01*
X45627567Y-104994479D01*
X45806014Y-105186801D01*
X45806018Y-105186804D01*
X45806019Y-105186805D01*
X46011143Y-105350386D01*
X46238357Y-105481568D01*
X46482584Y-105577420D01*
X46738370Y-105635802D01*
X46738376Y-105635802D01*
X46738379Y-105635803D01*
X46934500Y-105650500D01*
X46934506Y-105650500D01*
X47065500Y-105650500D01*
X47261620Y-105635803D01*
X47261622Y-105635802D01*
X47261630Y-105635802D01*
X47517416Y-105577420D01*
X47761643Y-105481568D01*
X47988857Y-105350386D01*
X48193981Y-105186805D01*
X48372433Y-104994479D01*
X48520228Y-104777704D01*
X48634063Y-104541323D01*
X48711396Y-104290615D01*
X48750500Y-104031182D01*
X48750500Y-103768818D01*
X48711396Y-103509385D01*
X48634063Y-103258677D01*
X48551292Y-103086801D01*
X48520232Y-103022303D01*
X48520231Y-103022302D01*
X48520230Y-103022301D01*
X48520228Y-103022296D01*
X48372433Y-102805521D01*
X48362441Y-102794753D01*
X48193985Y-102613198D01*
X48154533Y-102581736D01*
X47988857Y-102449614D01*
X47761643Y-102318432D01*
X47517416Y-102222580D01*
X47517411Y-102222578D01*
X47517402Y-102222576D01*
X47299818Y-102172914D01*
X47261630Y-102164198D01*
X47261629Y-102164197D01*
X47261625Y-102164197D01*
X47261620Y-102164196D01*
X47065500Y-102149500D01*
X47065494Y-102149500D01*
X46934506Y-102149500D01*
X46934500Y-102149500D01*
X46738379Y-102164196D01*
X46738374Y-102164197D01*
X46482597Y-102222576D01*
X46482578Y-102222582D01*
X46238363Y-102318429D01*
X46238357Y-102318432D01*
X46195877Y-102342957D01*
X46127977Y-102359427D01*
X46061951Y-102336574D01*
X46022160Y-102289369D01*
X45980232Y-102202303D01*
X45980231Y-102202302D01*
X45980230Y-102202301D01*
X45980228Y-102202296D01*
X45832433Y-101985521D01*
X45782014Y-101931182D01*
X45653985Y-101793198D01*
X45498017Y-101668818D01*
X45448857Y-101629614D01*
X45221643Y-101498432D01*
X44977416Y-101402580D01*
X44977411Y-101402578D01*
X44977402Y-101402576D01*
X44759818Y-101352914D01*
X44721630Y-101344198D01*
X44721629Y-101344197D01*
X44721625Y-101344197D01*
X44721620Y-101344196D01*
X44525500Y-101329500D01*
X44525494Y-101329500D01*
X44394506Y-101329500D01*
X44394500Y-101329500D01*
X44198379Y-101344196D01*
X44198374Y-101344197D01*
X43942585Y-101402579D01*
X43858890Y-101435426D01*
X43789293Y-101441593D01*
X43727410Y-101409155D01*
X43695098Y-101356547D01*
X43641048Y-101181323D01*
X43634063Y-101158677D01*
X43622121Y-101133880D01*
X43520232Y-100922303D01*
X43520231Y-100922302D01*
X43520230Y-100922301D01*
X43520228Y-100922296D01*
X43372433Y-100705521D01*
X43340576Y-100671187D01*
X49059500Y-100671187D01*
X49079794Y-100805823D01*
X49098604Y-100930615D01*
X49098605Y-100930617D01*
X49098606Y-100930623D01*
X49175938Y-101181326D01*
X49289767Y-101417696D01*
X49289768Y-101417697D01*
X49289770Y-101417700D01*
X49289772Y-101417704D01*
X49338126Y-101488626D01*
X49437567Y-101634479D01*
X49616014Y-101826801D01*
X49616018Y-101826804D01*
X49616019Y-101826805D01*
X49821143Y-101990386D01*
X50048357Y-102121568D01*
X50292584Y-102217420D01*
X50548370Y-102275802D01*
X50548376Y-102275802D01*
X50548379Y-102275803D01*
X50744500Y-102290500D01*
X50744506Y-102290500D01*
X50875500Y-102290500D01*
X51071620Y-102275803D01*
X51071622Y-102275802D01*
X51071630Y-102275802D01*
X51327416Y-102217420D01*
X51571643Y-102121568D01*
X51798857Y-101990386D01*
X52003981Y-101826805D01*
X52035167Y-101793195D01*
X52043945Y-101783733D01*
X52182433Y-101634479D01*
X52330228Y-101417704D01*
X52444063Y-101181323D01*
X52521396Y-100930615D01*
X52560500Y-100671182D01*
X52560500Y-100408818D01*
X52521396Y-100149385D01*
X52444063Y-99898677D01*
X52382165Y-99770144D01*
X52330232Y-99662303D01*
X52330225Y-99662292D01*
X52282720Y-99592615D01*
X52261219Y-99526136D01*
X52279073Y-99458586D01*
X52330613Y-99411411D01*
X52374657Y-99399210D01*
X52537536Y-99385347D01*
X52537539Y-99385346D01*
X52537541Y-99385346D01*
X52768249Y-99325275D01*
X52927707Y-99253195D01*
X52985480Y-99227080D01*
X52985481Y-99227078D01*
X52985486Y-99227077D01*
X53183003Y-99093579D01*
X53355118Y-98928621D01*
X53496879Y-98736947D01*
X53604207Y-98524074D01*
X53674016Y-98296123D01*
X53704298Y-98059654D01*
X53694180Y-97821468D01*
X53683999Y-97774230D01*
X53643954Y-97588419D01*
X53555064Y-97367211D01*
X53555064Y-97367210D01*
X53430069Y-97164205D01*
X53272564Y-96985245D01*
X53087080Y-96835477D01*
X52973130Y-96771820D01*
X52878955Y-96719210D01*
X52654170Y-96639788D01*
X52419209Y-96599500D01*
X52419200Y-96599500D01*
X52240503Y-96599500D01*
X52240498Y-96599500D01*
X52062463Y-96614652D01*
X51831751Y-96674724D01*
X51614519Y-96772919D01*
X51614511Y-96772924D01*
X51417006Y-96906413D01*
X51416997Y-96906421D01*
X51244881Y-97071379D01*
X51103123Y-97263050D01*
X51103120Y-97263054D01*
X50995796Y-97475920D01*
X50995793Y-97475926D01*
X50925983Y-97703878D01*
X50895702Y-97940346D01*
X50905819Y-98178528D01*
X50905819Y-98178532D01*
X50956046Y-98411582D01*
X50956046Y-98411583D01*
X51040876Y-98622689D01*
X51047607Y-98692233D01*
X51015671Y-98754377D01*
X50955207Y-98789390D01*
X50916552Y-98792576D01*
X50875500Y-98789500D01*
X50875494Y-98789500D01*
X50744506Y-98789500D01*
X50744500Y-98789500D01*
X50548379Y-98804196D01*
X50548374Y-98804197D01*
X50292597Y-98862576D01*
X50292578Y-98862582D01*
X50048356Y-98958432D01*
X49821143Y-99089614D01*
X49616014Y-99253198D01*
X49437567Y-99445520D01*
X49289768Y-99662302D01*
X49289767Y-99662303D01*
X49175938Y-99898673D01*
X49098606Y-100149376D01*
X49098605Y-100149381D01*
X49098604Y-100149385D01*
X49088197Y-100218432D01*
X49059500Y-100408812D01*
X49059500Y-100671187D01*
X43340576Y-100671187D01*
X43340571Y-100671182D01*
X43193985Y-100513198D01*
X43063095Y-100408817D01*
X42988857Y-100349614D01*
X42761643Y-100218432D01*
X42517416Y-100122580D01*
X42517411Y-100122578D01*
X42517402Y-100122576D01*
X42299818Y-100072914D01*
X42261630Y-100064198D01*
X42261629Y-100064197D01*
X42261625Y-100064197D01*
X42261620Y-100064196D01*
X42065500Y-100049500D01*
X42065494Y-100049500D01*
X41934506Y-100049500D01*
X41934500Y-100049500D01*
X41738379Y-100064196D01*
X41738374Y-100064197D01*
X41482597Y-100122576D01*
X41482578Y-100122582D01*
X41238356Y-100218432D01*
X41011143Y-100349614D01*
X40806014Y-100513198D01*
X40627567Y-100705520D01*
X40479768Y-100922302D01*
X40479767Y-100922303D01*
X40365938Y-101158673D01*
X40288606Y-101409376D01*
X40288605Y-101409381D01*
X40288604Y-101409385D01*
X40276660Y-101488626D01*
X40249500Y-101668812D01*
X40249500Y-101931187D01*
X37500500Y-101931187D01*
X37500500Y-97940346D01*
X40295702Y-97940346D01*
X40305819Y-98178528D01*
X40305819Y-98178532D01*
X40356045Y-98411580D01*
X40440877Y-98622689D01*
X40444936Y-98632790D01*
X40569931Y-98835795D01*
X40727436Y-99014755D01*
X40912920Y-99164523D01*
X41121046Y-99280790D01*
X41246951Y-99325275D01*
X41345829Y-99360211D01*
X41580790Y-99400499D01*
X41580798Y-99400499D01*
X41580800Y-99400500D01*
X41580801Y-99400500D01*
X41759502Y-99400500D01*
X41937536Y-99385347D01*
X41937539Y-99385346D01*
X41937541Y-99385346D01*
X42168249Y-99325275D01*
X42327707Y-99253195D01*
X42385480Y-99227080D01*
X42385481Y-99227078D01*
X42385486Y-99227077D01*
X42583003Y-99093579D01*
X42755118Y-98928621D01*
X42896879Y-98736947D01*
X43004207Y-98524074D01*
X43074016Y-98296123D01*
X43102285Y-98075373D01*
X44745723Y-98075373D01*
X44775881Y-98375160D01*
X44775882Y-98375162D01*
X44845728Y-98668252D01*
X44845733Y-98668266D01*
X44954020Y-98949427D01*
X44954024Y-98949436D01*
X45098825Y-99213665D01*
X45098829Y-99213671D01*
X45206801Y-99360211D01*
X45277554Y-99456238D01*
X45277561Y-99456245D01*
X45487019Y-99672823D01*
X45723478Y-99859553D01*
X45723480Y-99859554D01*
X45723485Y-99859558D01*
X45982730Y-100013109D01*
X46260128Y-100130736D01*
X46550729Y-100210340D01*
X46849347Y-100250500D01*
X46849351Y-100250500D01*
X47075252Y-100250500D01*
X47239164Y-100239526D01*
X47300634Y-100235412D01*
X47595903Y-100175396D01*
X47880537Y-100076560D01*
X48149459Y-99940668D01*
X48397869Y-99770144D01*
X48621333Y-99568032D01*
X48815865Y-99337939D01*
X48977993Y-99083970D01*
X49104823Y-98810658D01*
X49194093Y-98522879D01*
X49244209Y-98225770D01*
X49254277Y-97924631D01*
X49224118Y-97624838D01*
X49154269Y-97331739D01*
X49045977Y-97050566D01*
X48901175Y-96786335D01*
X48722446Y-96543762D01*
X48512980Y-96327176D01*
X48389742Y-96229856D01*
X48276521Y-96140446D01*
X48276517Y-96140443D01*
X48276515Y-96140442D01*
X48017270Y-95986891D01*
X47739872Y-95869264D01*
X47739863Y-95869261D01*
X47449272Y-95789660D01*
X47374616Y-95779620D01*
X47150653Y-95749500D01*
X46924756Y-95749500D01*
X46924748Y-95749500D01*
X46699368Y-95764587D01*
X46699359Y-95764589D01*
X46404094Y-95824604D01*
X46119464Y-95923439D01*
X46119459Y-95923441D01*
X45850546Y-96059328D01*
X45602125Y-96229860D01*
X45378665Y-96431969D01*
X45184132Y-96662064D01*
X45022006Y-96916030D01*
X45022005Y-96916032D01*
X44906842Y-97164205D01*
X44895177Y-97189342D01*
X44895176Y-97189346D01*
X44805907Y-97477118D01*
X44787133Y-97588419D01*
X44755791Y-97774230D01*
X44746249Y-98059654D01*
X44745723Y-98075373D01*
X43102285Y-98075373D01*
X43104298Y-98059654D01*
X43094180Y-97821468D01*
X43083999Y-97774230D01*
X43043954Y-97588419D01*
X42955064Y-97367211D01*
X42955064Y-97367210D01*
X42830069Y-97164205D01*
X42672564Y-96985245D01*
X42487080Y-96835477D01*
X42373130Y-96771820D01*
X42278955Y-96719210D01*
X42054170Y-96639788D01*
X41819209Y-96599500D01*
X41819200Y-96599500D01*
X41640503Y-96599500D01*
X41640498Y-96599500D01*
X41462463Y-96614652D01*
X41231751Y-96674724D01*
X41014519Y-96772919D01*
X41014511Y-96772924D01*
X40817006Y-96906413D01*
X40816997Y-96906421D01*
X40644881Y-97071379D01*
X40503123Y-97263050D01*
X40503120Y-97263054D01*
X40395796Y-97475920D01*
X40395793Y-97475926D01*
X40325983Y-97703878D01*
X40295702Y-97940346D01*
X37500500Y-97940346D01*
X37500500Y-94428133D01*
X41025668Y-94428133D01*
X41041058Y-94515410D01*
X41056135Y-94600911D01*
X41125623Y-94762004D01*
X41125624Y-94762006D01*
X41125626Y-94762009D01*
X41180278Y-94835418D01*
X41230390Y-94902730D01*
X41364786Y-95015502D01*
X41442488Y-95054525D01*
X41521562Y-95094238D01*
X41521563Y-95094238D01*
X41521567Y-95094240D01*
X41692279Y-95134700D01*
X41692282Y-95134700D01*
X41823701Y-95134700D01*
X41823709Y-95134700D01*
X41954255Y-95119441D01*
X42119117Y-95059437D01*
X42253139Y-94971289D01*
X45237416Y-94971289D01*
X45237459Y-94995401D01*
X45237500Y-94995499D01*
X45237616Y-94995782D01*
X45237618Y-94995784D01*
X45237808Y-94995862D01*
X45238000Y-94995941D01*
X45238002Y-94995939D01*
X45262616Y-94995924D01*
X45262616Y-94995928D01*
X45262760Y-94995900D01*
X48453240Y-94995900D01*
X48453383Y-94995928D01*
X48453384Y-94995924D01*
X48477997Y-94995939D01*
X48478000Y-94995941D01*
X48478383Y-94995783D01*
X48478500Y-94995499D01*
X48478541Y-94995400D01*
X48478540Y-94995397D01*
X48478583Y-94971289D01*
X48478500Y-94970867D01*
X48478500Y-94428133D01*
X51465668Y-94428133D01*
X51481058Y-94515410D01*
X51496135Y-94600911D01*
X51565623Y-94762004D01*
X51565624Y-94762006D01*
X51565626Y-94762009D01*
X51620278Y-94835418D01*
X51670390Y-94902730D01*
X51804786Y-95015502D01*
X51882488Y-95054525D01*
X51961562Y-95094238D01*
X51961563Y-95094238D01*
X51961567Y-95094240D01*
X52132279Y-95134700D01*
X52132282Y-95134700D01*
X52263701Y-95134700D01*
X52263709Y-95134700D01*
X52394255Y-95119441D01*
X52559117Y-95059437D01*
X52705696Y-94963030D01*
X52826092Y-94835418D01*
X52913812Y-94683481D01*
X52964130Y-94515410D01*
X52974331Y-94340265D01*
X52943865Y-94167489D01*
X52874377Y-94006396D01*
X52769610Y-93865670D01*
X52697747Y-93805370D01*
X52635214Y-93752898D01*
X52635212Y-93752897D01*
X52478437Y-93674161D01*
X52478433Y-93674160D01*
X52307721Y-93633700D01*
X52176291Y-93633700D01*
X52071854Y-93645907D01*
X52045743Y-93648959D01*
X52045740Y-93648960D01*
X51880884Y-93708962D01*
X51880880Y-93708964D01*
X51734306Y-93805367D01*
X51734305Y-93805368D01*
X51613910Y-93932978D01*
X51526188Y-94084918D01*
X51475870Y-94252989D01*
X51475869Y-94252994D01*
X51465668Y-94428133D01*
X48478500Y-94428133D01*
X48478500Y-92033359D01*
X48478528Y-92033216D01*
X48478524Y-92033216D01*
X48478539Y-92008602D01*
X48478541Y-92008600D01*
X48478462Y-92008408D01*
X48478384Y-92008218D01*
X48478382Y-92008216D01*
X48478099Y-92008100D01*
X48478000Y-92008059D01*
X48453446Y-92008059D01*
X48453240Y-92008100D01*
X45262760Y-92008100D01*
X45262554Y-92008059D01*
X45238000Y-92008059D01*
X45237901Y-92008100D01*
X45237617Y-92008216D01*
X45237615Y-92008218D01*
X45237459Y-92008599D01*
X45237476Y-92033216D01*
X45237471Y-92033216D01*
X45237500Y-92033359D01*
X45237500Y-94970867D01*
X45237416Y-94971289D01*
X42253139Y-94971289D01*
X42265696Y-94963030D01*
X42386092Y-94835418D01*
X42473812Y-94683481D01*
X42524130Y-94515410D01*
X42534331Y-94340265D01*
X42503865Y-94167489D01*
X42434377Y-94006396D01*
X42329610Y-93865670D01*
X42257747Y-93805370D01*
X42195214Y-93752898D01*
X42195212Y-93752897D01*
X42038437Y-93674161D01*
X42038433Y-93674160D01*
X41867721Y-93633700D01*
X41736291Y-93633700D01*
X41631854Y-93645907D01*
X41605743Y-93648959D01*
X41605740Y-93648960D01*
X41440884Y-93708962D01*
X41440880Y-93708964D01*
X41294306Y-93805367D01*
X41294305Y-93805368D01*
X41173910Y-93932978D01*
X41086188Y-94084918D01*
X41035870Y-94252989D01*
X41035869Y-94252994D01*
X41025668Y-94428133D01*
X37500500Y-94428133D01*
X37500500Y-31124500D01*
X37520185Y-31057461D01*
X37572989Y-31011706D01*
X37624500Y-31000500D01*
X40275240Y-31000500D01*
X40275383Y-31000528D01*
X40275384Y-31000524D01*
X40299997Y-31000539D01*
X40300000Y-31000541D01*
X40300383Y-31000383D01*
X40300500Y-31000099D01*
X40300541Y-31000000D01*
X40300540Y-30999997D01*
X40300583Y-30975889D01*
X40300500Y-30975467D01*
X40300500Y-30525000D01*
X42200000Y-30525000D01*
X42200000Y-31097844D01*
X42206401Y-31157372D01*
X42206403Y-31157379D01*
X42256645Y-31292086D01*
X42256649Y-31292093D01*
X42342809Y-31407187D01*
X42342812Y-31407190D01*
X42457906Y-31493350D01*
X42457913Y-31493354D01*
X42592620Y-31543596D01*
X42592627Y-31543598D01*
X42652155Y-31549999D01*
X42652172Y-31550000D01*
X42750000Y-31550000D01*
X42750000Y-30525000D01*
X42200000Y-30525000D01*
X40300500Y-30525000D01*
X40300500Y-30025000D01*
X42200000Y-30025000D01*
X42750000Y-30025000D01*
X42750000Y-29000000D01*
X42652155Y-29000000D01*
X42592627Y-29006401D01*
X42592620Y-29006403D01*
X42457913Y-29056645D01*
X42457906Y-29056649D01*
X42342812Y-29142809D01*
X42342809Y-29142812D01*
X42256649Y-29257906D01*
X42256645Y-29257913D01*
X42206403Y-29392620D01*
X42206401Y-29392627D01*
X42200000Y-29452155D01*
X42200000Y-30025000D01*
X40300500Y-30025000D01*
X40300500Y-26650000D01*
X40600000Y-26650000D01*
X40600000Y-27347844D01*
X40606401Y-27407372D01*
X40606403Y-27407379D01*
X40656645Y-27542086D01*
X40656649Y-27542093D01*
X40742809Y-27657187D01*
X40742812Y-27657190D01*
X40857906Y-27743350D01*
X40857913Y-27743354D01*
X40992620Y-27793596D01*
X40992627Y-27793598D01*
X41052155Y-27799999D01*
X41052172Y-27800000D01*
X41450000Y-27800000D01*
X41450000Y-26650000D01*
X41950000Y-26650000D01*
X41950000Y-27800000D01*
X42347828Y-27800000D01*
X42347844Y-27799999D01*
X42407372Y-27793598D01*
X42407379Y-27793596D01*
X42542086Y-27743354D01*
X42542093Y-27743350D01*
X42657187Y-27657190D01*
X42657190Y-27657187D01*
X42743350Y-27542093D01*
X42743354Y-27542086D01*
X42793596Y-27407379D01*
X42793598Y-27407372D01*
X42799999Y-27347844D01*
X42800000Y-27347827D01*
X42800000Y-26650000D01*
X51200000Y-26650000D01*
X51200000Y-27347844D01*
X51206401Y-27407372D01*
X51206403Y-27407379D01*
X51256645Y-27542086D01*
X51256649Y-27542093D01*
X51342809Y-27657187D01*
X51342812Y-27657190D01*
X51457906Y-27743350D01*
X51457913Y-27743354D01*
X51592620Y-27793596D01*
X51592627Y-27793598D01*
X51652155Y-27799999D01*
X51652172Y-27800000D01*
X52050000Y-27800000D01*
X52050000Y-26650000D01*
X52550000Y-26650000D01*
X52550000Y-27800000D01*
X52947828Y-27800000D01*
X52947844Y-27799999D01*
X53007372Y-27793598D01*
X53007379Y-27793596D01*
X53142086Y-27743354D01*
X53142093Y-27743350D01*
X53257187Y-27657190D01*
X53257190Y-27657187D01*
X53343350Y-27542093D01*
X53343354Y-27542086D01*
X53393596Y-27407379D01*
X53393598Y-27407372D01*
X53399999Y-27347844D01*
X53400000Y-27347827D01*
X53400000Y-26650000D01*
X52550000Y-26650000D01*
X52050000Y-26650000D01*
X51200000Y-26650000D01*
X42800000Y-26650000D01*
X41950000Y-26650000D01*
X41450000Y-26650000D01*
X40600000Y-26650000D01*
X40300500Y-26650000D01*
X40300500Y-25124500D01*
X40320185Y-25057461D01*
X40372989Y-25011706D01*
X40424500Y-25000500D01*
X40601623Y-25000500D01*
X40668662Y-25020185D01*
G37*
G04 #@! TD.AperFunction*
M02*
