%TF.GenerationSoftware,KiCad,Pcbnew,7.0.5-7.0.5~ubuntu22.04.1*%
%TF.CreationDate,2023-06-01T20:12:10-07:00*%
%TF.ProjectId,KeysOnRails,4b657973-4f6e-4526-9169-6c732e6b6963,rev?*%
%TF.SameCoordinates,Original*%
%TF.FileFunction,Soldermask,Top*%
%TF.FilePolarity,Negative*%
%FSLAX46Y46*%
G04 Gerber Fmt 4.6, Leading zero omitted, Abs format (unit mm)*
G04 Created by KiCad (PCBNEW 7.0.5-7.0.5~ubuntu22.04.1) date 2023-06-01 20:12:10*
%MOMM*%
%LPD*%
G01*
G04 APERTURE LIST*
%ADD10R,0.600000X1.550000*%
%ADD11R,1.200000X1.800000*%
%ADD12C,2.300000*%
%ADD13C,1.000000*%
%ADD14C,3.000000*%
%ADD15C,4.000000*%
G04 APERTURE END LIST*
D10*
%TO.C,J2*%
X52080000Y-36750000D03*
D11*
X53380000Y-32875000D03*
X42780000Y-32875000D03*
D10*
X51080000Y-36750000D03*
X50080000Y-36750000D03*
X49080000Y-36750000D03*
X48080000Y-36750000D03*
X47080000Y-36750000D03*
X46080000Y-36750000D03*
X45080000Y-36750000D03*
X44080000Y-36750000D03*
%TD*%
D12*
%TO.C,SW2*%
X43130000Y-64246500D03*
D13*
X43210000Y-60630700D03*
D14*
X43430000Y-68046500D03*
X45890000Y-69326500D03*
D15*
X48430000Y-64246500D03*
D14*
X48430000Y-70146500D03*
X52240000Y-66786500D03*
D13*
X53650000Y-60630700D03*
D12*
X53730000Y-64246500D03*
%TD*%
%TO.C,SW1*%
X43130000Y-46738000D03*
D13*
X43210000Y-43122200D03*
D14*
X43430000Y-50538000D03*
X45890000Y-51818000D03*
D15*
X48430000Y-46738000D03*
D14*
X48430000Y-52638000D03*
X52240000Y-49278000D03*
D13*
X53650000Y-43122200D03*
D12*
X53730000Y-46738000D03*
%TD*%
%TO.C,SW3*%
X43198100Y-81745100D03*
D13*
X43278100Y-78129300D03*
D14*
X43498100Y-85545100D03*
X45958100Y-86825100D03*
D15*
X48498100Y-81745100D03*
D14*
X48498100Y-87645100D03*
X52308100Y-84285100D03*
D13*
X53718100Y-78129300D03*
D12*
X53798100Y-81745100D03*
%TD*%
%TO.C,SW4*%
X43130000Y-99245100D03*
D13*
X43210000Y-95629300D03*
D14*
X43430000Y-103045100D03*
X45890000Y-104325100D03*
D15*
X48430000Y-99245100D03*
D14*
X48430000Y-105145100D03*
X52240000Y-101785100D03*
D13*
X53650000Y-95629300D03*
D12*
X53730000Y-99245100D03*
%TD*%
M02*
