%TF.GenerationSoftware,KiCad,Pcbnew,7.0.5-7.0.5~ubuntu22.04.1*%
%TF.CreationDate,2023-06-01T20:12:09-07:00*%
%TF.ProjectId,KeysOnRails,4b657973-4f6e-4526-9169-6c732e6b6963,rev?*%
%TF.SameCoordinates,Original*%
%TF.FileFunction,Copper,L2,Bot*%
%TF.FilePolarity,Positive*%
%FSLAX46Y46*%
G04 Gerber Fmt 4.6, Leading zero omitted, Abs format (unit mm)*
G04 Created by KiCad (PCBNEW 7.0.5-7.0.5~ubuntu22.04.1) date 2023-06-01 20:12:09*
%MOMM*%
%LPD*%
G01*
G04 APERTURE LIST*
%TA.AperFunction,SMDPad,CuDef*%
%ADD10R,0.600000X1.550000*%
%TD*%
%TA.AperFunction,SMDPad,CuDef*%
%ADD11R,1.200000X1.800000*%
%TD*%
%TA.AperFunction,SMDPad,CuDef*%
%ADD12R,1.803400X0.812800*%
%TD*%
%TA.AperFunction,SMDPad,CuDef*%
%ADD13R,2.600000X2.600000*%
%TD*%
%TA.AperFunction,SMDPad,CuDef*%
%ADD14R,3.500000X3.500000*%
%TD*%
%TA.AperFunction,SMDPad,CuDef*%
%ADD15R,0.900000X1.200000*%
%TD*%
%TA.AperFunction,ViaPad*%
%ADD16C,0.800000*%
%TD*%
%TA.AperFunction,Conductor*%
%ADD17C,0.200000*%
%TD*%
G04 APERTURE END LIST*
D10*
%TO.P,J1,1,1*%
%TO.N,GND*%
X44080000Y-36755000D03*
D11*
%TO.P,J1,S1,SHIELD*%
X42780000Y-32880000D03*
%TO.P,J1,S2,SHIELD*%
X53380000Y-32880000D03*
D10*
%TO.P,J1,2,2*%
%TO.N,RGB_In*%
X45080000Y-36755000D03*
%TO.P,J1,3,3*%
%TO.N,Col_In*%
X46080000Y-36755000D03*
%TO.P,J1,4,4*%
%TO.N,Row1*%
X47080000Y-36755000D03*
%TO.P,J1,5,5*%
%TO.N,Row2*%
X48080000Y-36755000D03*
%TO.P,J1,6,6*%
%TO.N,Row3*%
X49080000Y-36755000D03*
%TO.P,J1,7,7*%
%TO.N,Row4*%
X50080000Y-36755000D03*
%TO.P,J1,8,8*%
%TO.N,V+*%
X51080000Y-36755000D03*
%TO.P,J1,9,9*%
%TO.N,RGB_Out*%
X52080000Y-36755000D03*
%TD*%
D12*
%TO.P,SW2,+1,VDD*%
%TO.N,V+*%
X50931900Y-59001400D03*
D13*
%TO.P,SW2,CHOC1,P1*%
%TO.N,Net-(D2-A)*%
X39790000Y-68046500D03*
%TO.P,SW2,CHOC2,P0*%
%TO.N,Col_In*%
X51990000Y-70146500D03*
D12*
%TO.P,SW2,DI1,DIN*%
%TO.N,Net-(SW1B-DOUT)*%
X45928100Y-59001400D03*
%TO.P,SW2,DO1,DOUT*%
%TO.N,Net-(SW2B-DOUT)*%
X50931900Y-60500000D03*
%TO.P,SW2,GND,GND*%
%TO.N,GND*%
X45928100Y-60500000D03*
D14*
%TO.P,SW2,MX1,P1*%
%TO.N,Net-(D2-A)*%
X42340000Y-69761500D03*
D13*
%TO.P,SW2,MX2,P0*%
%TO.N,Col_In*%
X55290000Y-66786500D03*
%TD*%
D12*
%TO.P,SW1,+1,VDD*%
%TO.N,V+*%
X50931900Y-41492900D03*
D13*
%TO.P,SW1,CHOC1,P1*%
%TO.N,Net-(D1-A)*%
X39790000Y-50538000D03*
%TO.P,SW1,CHOC2,P0*%
%TO.N,Col_In*%
X51990000Y-52638000D03*
D12*
%TO.P,SW1,DI1,DIN*%
%TO.N,RGB_In*%
X45928100Y-41492900D03*
%TO.P,SW1,DO1,DOUT*%
%TO.N,Net-(SW1B-DOUT)*%
X50931900Y-42991500D03*
%TO.P,SW1,GND,GND*%
%TO.N,GND*%
X45928100Y-42991500D03*
D14*
%TO.P,SW1,MX1,P1*%
%TO.N,Net-(D1-A)*%
X42340000Y-52253000D03*
D13*
%TO.P,SW1,MX2,P0*%
%TO.N,Col_In*%
X55290000Y-49278000D03*
%TD*%
D12*
%TO.P,SW3,+1,VDD*%
%TO.N,V+*%
X51000000Y-76500000D03*
D13*
%TO.P,SW3,CHOC1,P1*%
%TO.N,Net-(D3-A)*%
X39858100Y-85545100D03*
%TO.P,SW3,CHOC2,P0*%
%TO.N,Col_In*%
X52058100Y-87645100D03*
D12*
%TO.P,SW3,DI1,DIN*%
%TO.N,Net-(SW2B-DOUT)*%
X45996200Y-76500000D03*
%TO.P,SW3,DO1,DOUT*%
%TO.N,Net-(SW3B-DOUT)*%
X51000000Y-77998600D03*
%TO.P,SW3,GND,GND*%
%TO.N,GND*%
X45996200Y-77998600D03*
D14*
%TO.P,SW3,MX1,P1*%
%TO.N,Net-(D3-A)*%
X42408100Y-87260100D03*
D13*
%TO.P,SW3,MX2,P0*%
%TO.N,Col_In*%
X55358100Y-84285100D03*
%TD*%
D12*
%TO.P,SW4,+1,VDD*%
%TO.N,V+*%
X50931900Y-94000000D03*
D13*
%TO.P,SW4,CHOC1,P1*%
%TO.N,Net-(D4-A)*%
X39790000Y-103045100D03*
%TO.P,SW4,CHOC2,P0*%
%TO.N,Col_In*%
X51990000Y-105145100D03*
D12*
%TO.P,SW4,DI1,DIN*%
%TO.N,Net-(SW3B-DOUT)*%
X45928100Y-94000000D03*
%TO.P,SW4,DO1,DOUT*%
%TO.N,RGB_Out*%
X50931900Y-95498600D03*
%TO.P,SW4,GND,GND*%
%TO.N,GND*%
X45928100Y-95498600D03*
D14*
%TO.P,SW4,MX1,P1*%
%TO.N,Net-(D4-A)*%
X42340000Y-104760100D03*
D13*
%TO.P,SW4,MX2,P0*%
%TO.N,Col_In*%
X55290000Y-101785100D03*
%TD*%
D15*
%TO.P,D2,1,K*%
%TO.N,Row2*%
X54870000Y-73000000D03*
%TO.P,D2,2,A*%
%TO.N,Net-(D2-A)*%
X51570000Y-73000000D03*
%TD*%
%TO.P,D4,1,K*%
%TO.N,Row4*%
X54900000Y-108000000D03*
%TO.P,D4,2,A*%
%TO.N,Net-(D4-A)*%
X51600000Y-108000000D03*
%TD*%
%TO.P,D1,1,K*%
%TO.N,Row1*%
X54870000Y-55410000D03*
%TO.P,D1,2,A*%
%TO.N,Net-(D1-A)*%
X51570000Y-55410000D03*
%TD*%
%TO.P,D3,1,K*%
%TO.N,Row3*%
X54870000Y-90500000D03*
%TO.P,D3,2,A*%
%TO.N,Net-(D3-A)*%
X51570000Y-90500000D03*
%TD*%
D16*
%TO.N,Col_In*%
X55325800Y-52667800D03*
X55325800Y-70467800D03*
X55283900Y-105972900D03*
X55325800Y-88267800D03*
%TO.N,Row1*%
X56250000Y-54160000D03*
%TO.N,Row4*%
X56250000Y-107460000D03*
%TO.N,Row3*%
X56250000Y-89660000D03*
%TO.N,Row2*%
X56210000Y-71890000D03*
%TO.N,Row4*%
X50110000Y-38690000D03*
%TO.N,Row3*%
X49109006Y-38690000D03*
%TO.N,Row2*%
X48109503Y-38690000D03*
%TO.N,Row1*%
X47110000Y-38690000D03*
%TO.N,Col_In*%
X46110000Y-38690000D03*
%TD*%
D17*
%TO.N,V+*%
X57600000Y-39289000D02*
X57600000Y-40000000D01*
X57600000Y-40000000D02*
X57600000Y-57200000D01*
X50931900Y-41492900D02*
X56107100Y-41492900D01*
X56107100Y-41492900D02*
X57600000Y-40000000D01*
%TO.N,Net-(SW1B-DOUT)*%
X50931900Y-42991500D02*
X52440400Y-44500000D01*
X55500000Y-44500000D02*
X57200000Y-46200000D01*
X52440400Y-44500000D02*
X55500000Y-44500000D01*
X57200000Y-46200000D02*
X57200000Y-55267800D01*
X55217800Y-57250000D02*
X46750000Y-57250000D01*
X57200000Y-55267800D02*
X55217800Y-57250000D01*
X46750000Y-57250000D02*
X45928100Y-58071900D01*
X45928100Y-58071900D02*
X45928100Y-59001400D01*
%TO.N,V+*%
X57600000Y-57200000D02*
X57600000Y-74400000D01*
X50931900Y-59001400D02*
X55798600Y-59001400D01*
X55798600Y-59001400D02*
X57600000Y-57200000D01*
X51140000Y-36755000D02*
X51140000Y-37730000D01*
X51140000Y-37730000D02*
X51982900Y-38572900D01*
X51982900Y-38572900D02*
X56883900Y-38572900D01*
X56883900Y-38572900D02*
X57600000Y-39289000D01*
%TO.N,Net-(SW3B-DOUT)*%
X50953800Y-78040100D02*
X52462300Y-79548600D01*
X52462300Y-79548600D02*
X55521900Y-79548600D01*
X45950000Y-93120500D02*
X45950000Y-94050000D01*
X55521900Y-79548600D02*
X57200000Y-81226700D01*
X57200000Y-81226700D02*
X57200000Y-90338300D01*
X55239700Y-92298600D02*
X46771900Y-92298600D01*
X57200000Y-90338300D02*
X55239700Y-92298600D01*
X46771900Y-92298600D02*
X45950000Y-93120500D01*
%TO.N,V+*%
X57600000Y-74400000D02*
X57600000Y-92456800D01*
X51000000Y-76500000D02*
X55500000Y-76500000D01*
X55500000Y-76500000D02*
X57600000Y-74400000D01*
%TO.N,Net-(SW2B-DOUT)*%
X50953800Y-60490100D02*
X52462300Y-61998600D01*
X57200000Y-72788300D02*
X55239700Y-74748600D01*
X52462300Y-61998600D02*
X55521900Y-61998600D01*
X55521900Y-61998600D02*
X57200000Y-63676700D01*
X57200000Y-63676700D02*
X57200000Y-72788300D01*
X55239700Y-74748600D02*
X46771900Y-74748600D01*
X46771900Y-74748600D02*
X45950000Y-75570500D01*
X45950000Y-75570500D02*
X45950000Y-76500000D01*
%TO.N,V+*%
X57600000Y-92456800D02*
X56056800Y-94000000D01*
X56056800Y-94000000D02*
X50931900Y-94000000D01*
%TO.N,RGB_Out*%
X52140000Y-36755000D02*
X55954000Y-36755000D01*
X55954000Y-36755000D02*
X58000000Y-38801000D01*
X51498600Y-95498600D02*
X50931900Y-95498600D01*
X58000000Y-38801000D02*
X58000000Y-95300000D01*
X58000000Y-95300000D02*
X56300000Y-97000000D01*
X56300000Y-97000000D02*
X53000000Y-97000000D01*
X53000000Y-97000000D02*
X51498600Y-95498600D01*
%TO.N,GND*%
X50781900Y-89518500D02*
X52481900Y-89518500D01*
X45950000Y-78000000D02*
X45950000Y-83436600D01*
X47471900Y-84958500D02*
X48561900Y-84958500D01*
X44121900Y-92408500D02*
X44121900Y-94089900D01*
X48561900Y-84958500D02*
X50411900Y-86808500D01*
X52971900Y-91058500D02*
X52471900Y-91558500D01*
X50411900Y-89148500D02*
X50781900Y-89518500D01*
X44971900Y-91558500D02*
X44121900Y-92408500D01*
X44121900Y-94089900D02*
X45540500Y-95508500D01*
X50411900Y-86808500D02*
X50411900Y-89148500D01*
X45540500Y-95508500D02*
X45950000Y-95508500D01*
X52971900Y-90008500D02*
X52971900Y-91058500D01*
X52481900Y-89518500D02*
X52971900Y-90008500D01*
X52471900Y-91558500D02*
X44971900Y-91558500D01*
X45950000Y-83436600D02*
X47471900Y-84958500D01*
X50731900Y-72018500D02*
X52431900Y-72018500D01*
X45900000Y-60500000D02*
X45900000Y-65936600D01*
X47421900Y-67458500D02*
X48511900Y-67458500D01*
X44071900Y-74908500D02*
X44071900Y-76589900D01*
X48511900Y-67458500D02*
X50361900Y-69308500D01*
X52921900Y-73558500D02*
X52421900Y-74058500D01*
X50361900Y-71648500D02*
X50731900Y-72018500D01*
X44921900Y-74058500D02*
X44071900Y-74908500D01*
X44071900Y-76589900D02*
X45490500Y-78008500D01*
X50361900Y-69308500D02*
X50361900Y-71648500D01*
X45490500Y-78008500D02*
X45900000Y-78008500D01*
X52921900Y-72508500D02*
X52921900Y-73558500D01*
X52431900Y-72018500D02*
X52921900Y-72508500D01*
X52421900Y-74058500D02*
X44921900Y-74058500D01*
X45900000Y-65936600D02*
X47421900Y-67458500D01*
X44100000Y-57400000D02*
X44100000Y-59081400D01*
X48540000Y-49950000D02*
X50390000Y-51800000D01*
X50390000Y-54140000D02*
X50760000Y-54510000D01*
X44950000Y-56550000D02*
X44100000Y-57400000D01*
X50760000Y-54510000D02*
X52460000Y-54510000D01*
X52950000Y-55000000D02*
X52950000Y-56050000D01*
X52450000Y-56550000D02*
X44950000Y-56550000D01*
X52460000Y-54510000D02*
X52950000Y-55000000D01*
X50390000Y-51800000D02*
X50390000Y-54140000D01*
X47450000Y-49950000D02*
X48540000Y-49950000D01*
X52950000Y-56050000D02*
X52450000Y-56550000D01*
X45928100Y-48428100D02*
X47450000Y-49950000D01*
X45928100Y-42991500D02*
X45928100Y-48428100D01*
X44100000Y-59081400D02*
X45518600Y-60500000D01*
X45518600Y-60500000D02*
X45928100Y-60500000D01*
%TO.N,Net-(D3-A)*%
X51570000Y-90500000D02*
X45648000Y-90500000D01*
X45648000Y-90500000D02*
X42408100Y-87260100D01*
%TO.N,Col_In*%
X52058100Y-87645100D02*
X54703100Y-87645100D01*
X54703100Y-87645100D02*
X55325800Y-88267800D01*
X52058100Y-87645100D02*
X52058100Y-87585100D01*
X52058100Y-87585100D02*
X55358100Y-84285100D01*
%TO.N,Row3*%
X54870000Y-90500000D02*
X55410000Y-90500000D01*
X55410000Y-90500000D02*
X56250000Y-89660000D01*
%TO.N,Row4*%
X55710000Y-108000000D02*
X56250000Y-107460000D01*
X54900000Y-108000000D02*
X55710000Y-108000000D01*
%TO.N,Net-(D4-A)*%
X42340000Y-104760100D02*
X45579900Y-108000000D01*
X45579900Y-108000000D02*
X51600000Y-108000000D01*
%TO.N,Col_In*%
X51990000Y-105145100D02*
X51990000Y-105085100D01*
X51990000Y-105085100D02*
X55290000Y-101785100D01*
X55278800Y-105978000D02*
X55283900Y-105972900D01*
X51842000Y-105978000D02*
X55278800Y-105978000D01*
X51883900Y-70472900D02*
X55320700Y-70472900D01*
X55320700Y-70472900D02*
X55325800Y-70467800D01*
X55320700Y-52672900D02*
X55325800Y-52667800D01*
X51883900Y-52672900D02*
X55320700Y-52672900D01*
X55320700Y-88272900D02*
X55325800Y-88267800D01*
%TO.N,Row1*%
X54910000Y-55790000D02*
X56250000Y-54450000D01*
X56250000Y-54450000D02*
X56250000Y-54160000D01*
%TO.N,Row2*%
X56210000Y-72180000D02*
X56210000Y-71890000D01*
X54870000Y-73520000D02*
X56210000Y-72180000D01*
%TO.N,Row4*%
X50140000Y-38660000D02*
X50110000Y-38690000D01*
X50140000Y-36755000D02*
X50140000Y-38660000D01*
%TO.N,Row3*%
X49140000Y-38659006D02*
X49109006Y-38690000D01*
X49140000Y-36755000D02*
X49140000Y-38659006D01*
%TO.N,Row2*%
X48140000Y-38659503D02*
X48109503Y-38690000D01*
X48140000Y-36755000D02*
X48140000Y-38659503D01*
%TO.N,Row1*%
X47140000Y-38660000D02*
X47110000Y-38690000D01*
X47140000Y-36755000D02*
X47140000Y-38660000D01*
%TO.N,Col_In*%
X46140000Y-38660000D02*
X46110000Y-38690000D01*
X46140000Y-36755000D02*
X46140000Y-38660000D01*
%TO.N,RGB_In*%
X45140000Y-36755000D02*
X45140000Y-40852800D01*
X45140000Y-40852800D02*
X45780100Y-41492900D01*
%TO.N,GND*%
X44140000Y-34180000D02*
X45440000Y-32880000D01*
X45440000Y-32880000D02*
X53440000Y-32880000D01*
X44140000Y-36755000D02*
X44140000Y-34180000D01*
X44140000Y-34180000D02*
X42840000Y-32880000D01*
X42840000Y-32880000D02*
X42840000Y-40460900D01*
X45370600Y-42991500D02*
X45780100Y-42991500D01*
X42840000Y-40460900D02*
X45370600Y-42991500D01*
%TO.N,Col_In*%
X55142000Y-102618000D02*
X55142000Y-102678000D01*
X55142000Y-84838000D02*
X55142000Y-84898000D01*
X55142000Y-67058000D02*
X55142000Y-67118000D01*
X55142000Y-67118000D02*
X51842000Y-70418000D01*
X55142000Y-49278000D02*
X55142000Y-49338000D01*
X55142000Y-49338000D02*
X51842000Y-52638000D01*
%TO.N,Net-(D1-A)*%
X42192000Y-52253000D02*
X45679000Y-55740000D01*
X45679000Y-55740000D02*
X51570000Y-55740000D01*
%TO.N,Net-(D2-A)*%
X42192000Y-70033000D02*
X45679000Y-73520000D01*
X45679000Y-73520000D02*
X51570000Y-73520000D01*
%TD*%
M02*
