G04 #@! TF.GenerationSoftware,KiCad,Pcbnew,7.0.8*
G04 #@! TF.CreationDate,2023-10-16T23:50:01-07:00*
G04 #@! TF.ProjectId,Seismos_4-Key,53656973-6d6f-4735-9f34-2d4b65792e6b,rev?*
G04 #@! TF.SameCoordinates,Original*
G04 #@! TF.FileFunction,Legend,Bot*
G04 #@! TF.FilePolarity,Positive*
%FSLAX46Y46*%
G04 Gerber Fmt 4.6, Leading zero omitted, Abs format (unit mm)*
G04 Created by KiCad (PCBNEW 7.0.8) date 2023-10-16 23:50:01*
%MOMM*%
%LPD*%
G01*
G04 APERTURE LIST*
G04 Aperture macros list*
%AMRoundRect*
0 Rectangle with rounded corners*
0 $1 Rounding radius*
0 $2 $3 $4 $5 $6 $7 $8 $9 X,Y pos of 4 corners*
0 Add a 4 corners polygon primitive as box body*
4,1,4,$2,$3,$4,$5,$6,$7,$8,$9,$2,$3,0*
0 Add four circle primitives for the rounded corners*
1,1,$1+$1,$2,$3*
1,1,$1+$1,$4,$5*
1,1,$1+$1,$6,$7*
1,1,$1+$1,$8,$9*
0 Add four rect primitives between the rounded corners*
20,1,$1+$1,$2,$3,$4,$5,0*
20,1,$1+$1,$4,$5,$6,$7,0*
20,1,$1+$1,$6,$7,$8,$9,0*
20,1,$1+$1,$8,$9,$2,$3,0*%
G04 Aperture macros list end*
%ADD10C,0.150000*%
%ADD11C,0.120000*%
%ADD12C,2.300000*%
%ADD13C,1.000000*%
%ADD14C,3.000000*%
%ADD15C,4.000000*%
%ADD16R,1.750000X0.812800*%
%ADD17RoundRect,0.063500X-1.150000X-1.300000X1.150000X-1.300000X1.150000X1.300000X-1.150000X1.300000X0*%
%ADD18RoundRect,0.063500X-1.750000X-1.750000X1.750000X-1.750000X1.750000X1.750000X-1.750000X1.750000X0*%
%ADD19RoundRect,0.063500X-1.200000X-1.300000X1.200000X-1.300000X1.200000X1.300000X-1.200000X1.300000X0*%
%ADD20RoundRect,0.225000X-0.375000X0.225000X-0.375000X-0.225000X0.375000X-0.225000X0.375000X0.225000X0*%
G04 APERTURE END LIST*
D10*
X51333333Y-51009819D02*
X51333333Y-50009819D01*
X51333333Y-50009819D02*
X51095238Y-50009819D01*
X51095238Y-50009819D02*
X50952381Y-50057438D01*
X50952381Y-50057438D02*
X50857143Y-50152676D01*
X50857143Y-50152676D02*
X50809524Y-50247914D01*
X50809524Y-50247914D02*
X50761905Y-50438390D01*
X50761905Y-50438390D02*
X50761905Y-50581247D01*
X50761905Y-50581247D02*
X50809524Y-50771723D01*
X50809524Y-50771723D02*
X50857143Y-50866961D01*
X50857143Y-50866961D02*
X50952381Y-50962200D01*
X50952381Y-50962200D02*
X51095238Y-51009819D01*
X51095238Y-51009819D02*
X51333333Y-51009819D01*
X49952381Y-50962200D02*
X50047619Y-51009819D01*
X50047619Y-51009819D02*
X50238095Y-51009819D01*
X50238095Y-51009819D02*
X50333333Y-50962200D01*
X50333333Y-50962200D02*
X50380952Y-50866961D01*
X50380952Y-50866961D02*
X50380952Y-50486009D01*
X50380952Y-50486009D02*
X50333333Y-50390771D01*
X50333333Y-50390771D02*
X50238095Y-50343152D01*
X50238095Y-50343152D02*
X50047619Y-50343152D01*
X50047619Y-50343152D02*
X49952381Y-50390771D01*
X49952381Y-50390771D02*
X49904762Y-50486009D01*
X49904762Y-50486009D02*
X49904762Y-50581247D01*
X49904762Y-50581247D02*
X50380952Y-50676485D01*
X49523809Y-50962200D02*
X49428571Y-51009819D01*
X49428571Y-51009819D02*
X49238095Y-51009819D01*
X49238095Y-51009819D02*
X49142857Y-50962200D01*
X49142857Y-50962200D02*
X49095238Y-50866961D01*
X49095238Y-50866961D02*
X49095238Y-50819342D01*
X49095238Y-50819342D02*
X49142857Y-50724104D01*
X49142857Y-50724104D02*
X49238095Y-50676485D01*
X49238095Y-50676485D02*
X49380952Y-50676485D01*
X49380952Y-50676485D02*
X49476190Y-50628866D01*
X49476190Y-50628866D02*
X49523809Y-50533628D01*
X49523809Y-50533628D02*
X49523809Y-50486009D01*
X49523809Y-50486009D02*
X49476190Y-50390771D01*
X49476190Y-50390771D02*
X49380952Y-50343152D01*
X49380952Y-50343152D02*
X49238095Y-50343152D01*
X49238095Y-50343152D02*
X49142857Y-50390771D01*
X48666666Y-51009819D02*
X48666666Y-50343152D01*
X48666666Y-50009819D02*
X48714285Y-50057438D01*
X48714285Y-50057438D02*
X48666666Y-50105057D01*
X48666666Y-50105057D02*
X48619047Y-50057438D01*
X48619047Y-50057438D02*
X48666666Y-50009819D01*
X48666666Y-50009819D02*
X48666666Y-50105057D01*
X47761905Y-50343152D02*
X47761905Y-51152676D01*
X47761905Y-51152676D02*
X47809524Y-51247914D01*
X47809524Y-51247914D02*
X47857143Y-51295533D01*
X47857143Y-51295533D02*
X47952381Y-51343152D01*
X47952381Y-51343152D02*
X48095238Y-51343152D01*
X48095238Y-51343152D02*
X48190476Y-51295533D01*
X47761905Y-50962200D02*
X47857143Y-51009819D01*
X47857143Y-51009819D02*
X48047619Y-51009819D01*
X48047619Y-51009819D02*
X48142857Y-50962200D01*
X48142857Y-50962200D02*
X48190476Y-50914580D01*
X48190476Y-50914580D02*
X48238095Y-50819342D01*
X48238095Y-50819342D02*
X48238095Y-50533628D01*
X48238095Y-50533628D02*
X48190476Y-50438390D01*
X48190476Y-50438390D02*
X48142857Y-50390771D01*
X48142857Y-50390771D02*
X48047619Y-50343152D01*
X48047619Y-50343152D02*
X47857143Y-50343152D01*
X47857143Y-50343152D02*
X47761905Y-50390771D01*
X47285714Y-50343152D02*
X47285714Y-51009819D01*
X47285714Y-50438390D02*
X47238095Y-50390771D01*
X47238095Y-50390771D02*
X47142857Y-50343152D01*
X47142857Y-50343152D02*
X47000000Y-50343152D01*
X47000000Y-50343152D02*
X46904762Y-50390771D01*
X46904762Y-50390771D02*
X46857143Y-50486009D01*
X46857143Y-50486009D02*
X46857143Y-51009819D01*
X46000000Y-50962200D02*
X46095238Y-51009819D01*
X46095238Y-51009819D02*
X46285714Y-51009819D01*
X46285714Y-51009819D02*
X46380952Y-50962200D01*
X46380952Y-50962200D02*
X46428571Y-50866961D01*
X46428571Y-50866961D02*
X46428571Y-50486009D01*
X46428571Y-50486009D02*
X46380952Y-50390771D01*
X46380952Y-50390771D02*
X46285714Y-50343152D01*
X46285714Y-50343152D02*
X46095238Y-50343152D01*
X46095238Y-50343152D02*
X46000000Y-50390771D01*
X46000000Y-50390771D02*
X45952381Y-50486009D01*
X45952381Y-50486009D02*
X45952381Y-50581247D01*
X45952381Y-50581247D02*
X46428571Y-50676485D01*
X45095238Y-51009819D02*
X45095238Y-50009819D01*
X45095238Y-50962200D02*
X45190476Y-51009819D01*
X45190476Y-51009819D02*
X45380952Y-51009819D01*
X45380952Y-51009819D02*
X45476190Y-50962200D01*
X45476190Y-50962200D02*
X45523809Y-50914580D01*
X45523809Y-50914580D02*
X45571428Y-50819342D01*
X45571428Y-50819342D02*
X45571428Y-50533628D01*
X45571428Y-50533628D02*
X45523809Y-50438390D01*
X45523809Y-50438390D02*
X45476190Y-50390771D01*
X45476190Y-50390771D02*
X45380952Y-50343152D01*
X45380952Y-50343152D02*
X45190476Y-50343152D01*
X45190476Y-50343152D02*
X45095238Y-50390771D01*
X43857142Y-51009819D02*
X43857142Y-50009819D01*
X43857142Y-50390771D02*
X43761904Y-50343152D01*
X43761904Y-50343152D02*
X43571428Y-50343152D01*
X43571428Y-50343152D02*
X43476190Y-50390771D01*
X43476190Y-50390771D02*
X43428571Y-50438390D01*
X43428571Y-50438390D02*
X43380952Y-50533628D01*
X43380952Y-50533628D02*
X43380952Y-50819342D01*
X43380952Y-50819342D02*
X43428571Y-50914580D01*
X43428571Y-50914580D02*
X43476190Y-50962200D01*
X43476190Y-50962200D02*
X43571428Y-51009819D01*
X43571428Y-51009819D02*
X43761904Y-51009819D01*
X43761904Y-51009819D02*
X43857142Y-50962200D01*
X43047618Y-50343152D02*
X42809523Y-51009819D01*
X42571428Y-50343152D02*
X42809523Y-51009819D01*
X42809523Y-51009819D02*
X42904761Y-51247914D01*
X42904761Y-51247914D02*
X42952380Y-51295533D01*
X42952380Y-51295533D02*
X43047618Y-51343152D01*
X49904761Y-52619819D02*
X50238094Y-52143628D01*
X50476189Y-52619819D02*
X50476189Y-51619819D01*
X50476189Y-51619819D02*
X50095237Y-51619819D01*
X50095237Y-51619819D02*
X49999999Y-51667438D01*
X49999999Y-51667438D02*
X49952380Y-51715057D01*
X49952380Y-51715057D02*
X49904761Y-51810295D01*
X49904761Y-51810295D02*
X49904761Y-51953152D01*
X49904761Y-51953152D02*
X49952380Y-52048390D01*
X49952380Y-52048390D02*
X49999999Y-52096009D01*
X49999999Y-52096009D02*
X50095237Y-52143628D01*
X50095237Y-52143628D02*
X50476189Y-52143628D01*
X49095237Y-52572200D02*
X49190475Y-52619819D01*
X49190475Y-52619819D02*
X49380951Y-52619819D01*
X49380951Y-52619819D02*
X49476189Y-52572200D01*
X49476189Y-52572200D02*
X49523808Y-52476961D01*
X49523808Y-52476961D02*
X49523808Y-52096009D01*
X49523808Y-52096009D02*
X49476189Y-52000771D01*
X49476189Y-52000771D02*
X49380951Y-51953152D01*
X49380951Y-51953152D02*
X49190475Y-51953152D01*
X49190475Y-51953152D02*
X49095237Y-52000771D01*
X49095237Y-52000771D02*
X49047618Y-52096009D01*
X49047618Y-52096009D02*
X49047618Y-52191247D01*
X49047618Y-52191247D02*
X49523808Y-52286485D01*
X48666665Y-52572200D02*
X48523808Y-52619819D01*
X48523808Y-52619819D02*
X48285713Y-52619819D01*
X48285713Y-52619819D02*
X48190475Y-52572200D01*
X48190475Y-52572200D02*
X48142856Y-52524580D01*
X48142856Y-52524580D02*
X48095237Y-52429342D01*
X48095237Y-52429342D02*
X48095237Y-52334104D01*
X48095237Y-52334104D02*
X48142856Y-52238866D01*
X48142856Y-52238866D02*
X48190475Y-52191247D01*
X48190475Y-52191247D02*
X48285713Y-52143628D01*
X48285713Y-52143628D02*
X48476189Y-52096009D01*
X48476189Y-52096009D02*
X48571427Y-52048390D01*
X48571427Y-52048390D02*
X48619046Y-52000771D01*
X48619046Y-52000771D02*
X48666665Y-51905533D01*
X48666665Y-51905533D02*
X48666665Y-51810295D01*
X48666665Y-51810295D02*
X48619046Y-51715057D01*
X48619046Y-51715057D02*
X48571427Y-51667438D01*
X48571427Y-51667438D02*
X48476189Y-51619819D01*
X48476189Y-51619819D02*
X48238094Y-51619819D01*
X48238094Y-51619819D02*
X48095237Y-51667438D01*
X47238094Y-51953152D02*
X47238094Y-52619819D01*
X47666665Y-51953152D02*
X47666665Y-52476961D01*
X47666665Y-52476961D02*
X47619046Y-52572200D01*
X47619046Y-52572200D02*
X47523808Y-52619819D01*
X47523808Y-52619819D02*
X47380951Y-52619819D01*
X47380951Y-52619819D02*
X47285713Y-52572200D01*
X47285713Y-52572200D02*
X47238094Y-52524580D01*
X46761903Y-52619819D02*
X46761903Y-51953152D01*
X46761903Y-52048390D02*
X46714284Y-52000771D01*
X46714284Y-52000771D02*
X46619046Y-51953152D01*
X46619046Y-51953152D02*
X46476189Y-51953152D01*
X46476189Y-51953152D02*
X46380951Y-52000771D01*
X46380951Y-52000771D02*
X46333332Y-52096009D01*
X46333332Y-52096009D02*
X46333332Y-52619819D01*
X46333332Y-52096009D02*
X46285713Y-52000771D01*
X46285713Y-52000771D02*
X46190475Y-51953152D01*
X46190475Y-51953152D02*
X46047618Y-51953152D01*
X46047618Y-51953152D02*
X45952379Y-52000771D01*
X45952379Y-52000771D02*
X45904760Y-52096009D01*
X45904760Y-52096009D02*
X45904760Y-52619819D01*
X45428570Y-52619819D02*
X45428570Y-51953152D01*
X45428570Y-52048390D02*
X45380951Y-52000771D01*
X45380951Y-52000771D02*
X45285713Y-51953152D01*
X45285713Y-51953152D02*
X45142856Y-51953152D01*
X45142856Y-51953152D02*
X45047618Y-52000771D01*
X45047618Y-52000771D02*
X44999999Y-52096009D01*
X44999999Y-52096009D02*
X44999999Y-52619819D01*
X44999999Y-52096009D02*
X44952380Y-52000771D01*
X44952380Y-52000771D02*
X44857142Y-51953152D01*
X44857142Y-51953152D02*
X44714285Y-51953152D01*
X44714285Y-51953152D02*
X44619046Y-52000771D01*
X44619046Y-52000771D02*
X44571427Y-52096009D01*
X44571427Y-52096009D02*
X44571427Y-52619819D01*
X44095237Y-52619819D02*
X44095237Y-51953152D01*
X44095237Y-51619819D02*
X44142856Y-51667438D01*
X44142856Y-51667438D02*
X44095237Y-51715057D01*
X44095237Y-51715057D02*
X44047618Y-51667438D01*
X44047618Y-51667438D02*
X44095237Y-51619819D01*
X44095237Y-51619819D02*
X44095237Y-51715057D01*
X43761904Y-51953152D02*
X43380952Y-51953152D01*
X43619047Y-51619819D02*
X43619047Y-52476961D01*
X43619047Y-52476961D02*
X43571428Y-52572200D01*
X43571428Y-52572200D02*
X43476190Y-52619819D01*
X43476190Y-52619819D02*
X43380952Y-52619819D01*
X46849999Y-54959019D02*
X46849999Y-55197114D01*
X47088094Y-55101876D02*
X46849999Y-55197114D01*
X46849999Y-55197114D02*
X46611904Y-55101876D01*
X46992856Y-55387590D02*
X46849999Y-55197114D01*
X46849999Y-55197114D02*
X46707142Y-55387590D01*
X46849999Y-35959019D02*
X46849999Y-36197114D01*
X47088094Y-36101876D02*
X46849999Y-36197114D01*
X46849999Y-36197114D02*
X46611904Y-36101876D01*
X46992856Y-36387590D02*
X46849999Y-36197114D01*
X46849999Y-36197114D02*
X46707142Y-36387590D01*
X46849999Y-73959019D02*
X46849999Y-74197114D01*
X47088094Y-74101876D02*
X46849999Y-74197114D01*
X46849999Y-74197114D02*
X46611904Y-74101876D01*
X46992856Y-74387590D02*
X46849999Y-74197114D01*
X46849999Y-74197114D02*
X46707142Y-74387590D01*
X46849999Y-92959019D02*
X46849999Y-93197114D01*
X47088094Y-93101876D02*
X46849999Y-93197114D01*
X46849999Y-93197114D02*
X46611904Y-93101876D01*
X46992856Y-93387590D02*
X46849999Y-93197114D01*
X46849999Y-93197114D02*
X46707142Y-93387590D01*
X42154819Y-55181905D02*
X41154819Y-55181905D01*
X41154819Y-55181905D02*
X41154819Y-55420000D01*
X41154819Y-55420000D02*
X41202438Y-55562857D01*
X41202438Y-55562857D02*
X41297676Y-55658095D01*
X41297676Y-55658095D02*
X41392914Y-55705714D01*
X41392914Y-55705714D02*
X41583390Y-55753333D01*
X41583390Y-55753333D02*
X41726247Y-55753333D01*
X41726247Y-55753333D02*
X41916723Y-55705714D01*
X41916723Y-55705714D02*
X42011961Y-55658095D01*
X42011961Y-55658095D02*
X42107200Y-55562857D01*
X42107200Y-55562857D02*
X42154819Y-55420000D01*
X42154819Y-55420000D02*
X42154819Y-55181905D01*
X41250057Y-56134286D02*
X41202438Y-56181905D01*
X41202438Y-56181905D02*
X41154819Y-56277143D01*
X41154819Y-56277143D02*
X41154819Y-56515238D01*
X41154819Y-56515238D02*
X41202438Y-56610476D01*
X41202438Y-56610476D02*
X41250057Y-56658095D01*
X41250057Y-56658095D02*
X41345295Y-56705714D01*
X41345295Y-56705714D02*
X41440533Y-56705714D01*
X41440533Y-56705714D02*
X41583390Y-56658095D01*
X41583390Y-56658095D02*
X42154819Y-56086667D01*
X42154819Y-56086667D02*
X42154819Y-56705714D01*
X40554819Y-97011905D02*
X39554819Y-97011905D01*
X39554819Y-97011905D02*
X39554819Y-97250000D01*
X39554819Y-97250000D02*
X39602438Y-97392857D01*
X39602438Y-97392857D02*
X39697676Y-97488095D01*
X39697676Y-97488095D02*
X39792914Y-97535714D01*
X39792914Y-97535714D02*
X39983390Y-97583333D01*
X39983390Y-97583333D02*
X40126247Y-97583333D01*
X40126247Y-97583333D02*
X40316723Y-97535714D01*
X40316723Y-97535714D02*
X40411961Y-97488095D01*
X40411961Y-97488095D02*
X40507200Y-97392857D01*
X40507200Y-97392857D02*
X40554819Y-97250000D01*
X40554819Y-97250000D02*
X40554819Y-97011905D01*
X39888152Y-98440476D02*
X40554819Y-98440476D01*
X39507200Y-98202381D02*
X40221485Y-97964286D01*
X40221485Y-97964286D02*
X40221485Y-98583333D01*
X42144819Y-36281905D02*
X41144819Y-36281905D01*
X41144819Y-36281905D02*
X41144819Y-36520000D01*
X41144819Y-36520000D02*
X41192438Y-36662857D01*
X41192438Y-36662857D02*
X41287676Y-36758095D01*
X41287676Y-36758095D02*
X41382914Y-36805714D01*
X41382914Y-36805714D02*
X41573390Y-36853333D01*
X41573390Y-36853333D02*
X41716247Y-36853333D01*
X41716247Y-36853333D02*
X41906723Y-36805714D01*
X41906723Y-36805714D02*
X42001961Y-36758095D01*
X42001961Y-36758095D02*
X42097200Y-36662857D01*
X42097200Y-36662857D02*
X42144819Y-36520000D01*
X42144819Y-36520000D02*
X42144819Y-36281905D01*
X42144819Y-37805714D02*
X42144819Y-37234286D01*
X42144819Y-37520000D02*
X41144819Y-37520000D01*
X41144819Y-37520000D02*
X41287676Y-37424762D01*
X41287676Y-37424762D02*
X41382914Y-37329524D01*
X41382914Y-37329524D02*
X41430533Y-37234286D01*
X42154819Y-74281905D02*
X41154819Y-74281905D01*
X41154819Y-74281905D02*
X41154819Y-74520000D01*
X41154819Y-74520000D02*
X41202438Y-74662857D01*
X41202438Y-74662857D02*
X41297676Y-74758095D01*
X41297676Y-74758095D02*
X41392914Y-74805714D01*
X41392914Y-74805714D02*
X41583390Y-74853333D01*
X41583390Y-74853333D02*
X41726247Y-74853333D01*
X41726247Y-74853333D02*
X41916723Y-74805714D01*
X41916723Y-74805714D02*
X42011961Y-74758095D01*
X42011961Y-74758095D02*
X42107200Y-74662857D01*
X42107200Y-74662857D02*
X42154819Y-74520000D01*
X42154819Y-74520000D02*
X42154819Y-74281905D01*
X41154819Y-75186667D02*
X41154819Y-75805714D01*
X41154819Y-75805714D02*
X41535771Y-75472381D01*
X41535771Y-75472381D02*
X41535771Y-75615238D01*
X41535771Y-75615238D02*
X41583390Y-75710476D01*
X41583390Y-75710476D02*
X41631009Y-75758095D01*
X41631009Y-75758095D02*
X41726247Y-75805714D01*
X41726247Y-75805714D02*
X41964342Y-75805714D01*
X41964342Y-75805714D02*
X42059580Y-75758095D01*
X42059580Y-75758095D02*
X42107200Y-75710476D01*
X42107200Y-75710476D02*
X42154819Y-75615238D01*
X42154819Y-75615238D02*
X42154819Y-75329524D01*
X42154819Y-75329524D02*
X42107200Y-75234286D01*
X42107200Y-75234286D02*
X42059580Y-75186667D01*
X39750000Y-61450000D02*
X39750000Y-66350000D01*
X39750000Y-66350000D02*
X44460000Y-66350000D01*
X42700000Y-66800000D02*
X42700000Y-63850000D01*
X43300000Y-63300000D02*
X47300000Y-63300000D01*
X44460000Y-61450000D02*
X39750000Y-61450000D01*
X44460000Y-63175000D02*
X44460000Y-61450000D01*
X44460000Y-66350000D02*
X44460000Y-68250000D01*
X44460000Y-68250000D02*
X49250000Y-68250000D01*
D11*
X45122800Y-57028200D02*
X48577200Y-57028200D01*
X48577200Y-53980200D02*
X45122800Y-53980200D01*
D10*
X49250000Y-63175000D02*
X44460000Y-63175000D01*
X49250000Y-68250000D02*
X49250000Y-63175000D01*
X49300000Y-61500000D02*
X49300000Y-61350000D01*
X49650000Y-60800000D02*
X52500000Y-60800000D01*
X50300000Y-66800000D02*
X42700000Y-66800000D01*
X52500000Y-60800000D02*
X52500000Y-64600000D01*
X43300000Y-63300000D02*
G75*
G03*
X42700000Y-63850000I-25000J-575000D01*
G01*
X47300000Y-63299999D02*
G75*
G03*
X49299998Y-61499999I99998J1900000D01*
G01*
X49650000Y-60800000D02*
G75*
G03*
X49300000Y-61350000I100000J-450000D01*
G01*
X50300000Y-66800000D02*
G75*
G03*
X52500000Y-64600000I0J2200000D01*
G01*
D11*
X51593200Y-54754900D02*
G75*
G03*
X51593200Y-54754900I-381000J0D01*
G01*
D10*
X39750000Y-42450000D02*
X39750000Y-47350000D01*
X39750000Y-47350000D02*
X44460000Y-47350000D01*
X42700000Y-47800000D02*
X42700000Y-44850000D01*
X43300000Y-44300000D02*
X47300000Y-44300000D01*
X44460000Y-42450000D02*
X39750000Y-42450000D01*
X44460000Y-44175000D02*
X44460000Y-42450000D01*
X44460000Y-47350000D02*
X44460000Y-49250000D01*
X44460000Y-49250000D02*
X49250000Y-49250000D01*
D11*
X45122800Y-38028200D02*
X48577200Y-38028200D01*
X48577200Y-34980200D02*
X45122800Y-34980200D01*
D10*
X49250000Y-44175000D02*
X44460000Y-44175000D01*
X49250000Y-49250000D02*
X49250000Y-44175000D01*
X49300000Y-42500000D02*
X49300000Y-42350000D01*
X49650000Y-41800000D02*
X52500000Y-41800000D01*
X50300000Y-47800000D02*
X42700000Y-47800000D01*
X52500000Y-41800000D02*
X52500000Y-45600000D01*
X43300000Y-44300000D02*
G75*
G03*
X42700000Y-44850000I-25000J-575000D01*
G01*
X47300000Y-44299999D02*
G75*
G03*
X49299998Y-42499999I99998J1900000D01*
G01*
X49650000Y-41800000D02*
G75*
G03*
X49300000Y-42350000I100000J-450000D01*
G01*
X50300000Y-47800000D02*
G75*
G03*
X52500000Y-45600000I0J2200000D01*
G01*
D11*
X51593200Y-35754900D02*
G75*
G03*
X51593200Y-35754900I-381000J0D01*
G01*
D10*
X39750000Y-80450000D02*
X39750000Y-85350000D01*
X39750000Y-85350000D02*
X44460000Y-85350000D01*
X42700000Y-85800000D02*
X42700000Y-82850000D01*
X43300000Y-82300000D02*
X47300000Y-82300000D01*
X44460000Y-80450000D02*
X39750000Y-80450000D01*
X44460000Y-82175000D02*
X44460000Y-80450000D01*
X44460000Y-85350000D02*
X44460000Y-87250000D01*
X44460000Y-87250000D02*
X49250000Y-87250000D01*
D11*
X45122800Y-76028200D02*
X48577200Y-76028200D01*
X48577200Y-72980200D02*
X45122800Y-72980200D01*
D10*
X49250000Y-82175000D02*
X44460000Y-82175000D01*
X49250000Y-87250000D02*
X49250000Y-82175000D01*
X49300000Y-80500000D02*
X49300000Y-80350000D01*
X49650000Y-79800000D02*
X52500000Y-79800000D01*
X50300000Y-85800000D02*
X42700000Y-85800000D01*
X52500000Y-79800000D02*
X52500000Y-83600000D01*
X43300000Y-82300000D02*
G75*
G03*
X42700000Y-82850000I-25000J-575000D01*
G01*
X47300000Y-82299999D02*
G75*
G03*
X49299998Y-80499999I99998J1900000D01*
G01*
X49650000Y-79800000D02*
G75*
G03*
X49300000Y-80350000I100000J-450000D01*
G01*
X50300000Y-85800000D02*
G75*
G03*
X52500000Y-83600000I0J2200000D01*
G01*
D11*
X51593200Y-73754900D02*
G75*
G03*
X51593200Y-73754900I-381000J0D01*
G01*
D10*
X39750000Y-99450000D02*
X39750000Y-104350000D01*
X39750000Y-104350000D02*
X44460000Y-104350000D01*
X42700000Y-104800000D02*
X42700000Y-101850000D01*
X43300000Y-101300000D02*
X47300000Y-101300000D01*
X44460000Y-99450000D02*
X39750000Y-99450000D01*
X44460000Y-101175000D02*
X44460000Y-99450000D01*
X44460000Y-104350000D02*
X44460000Y-106250000D01*
X44460000Y-106250000D02*
X49250000Y-106250000D01*
D11*
X45122800Y-95028200D02*
X48577200Y-95028200D01*
X48577200Y-91980200D02*
X45122800Y-91980200D01*
D10*
X49250000Y-101175000D02*
X44460000Y-101175000D01*
X49250000Y-106250000D02*
X49250000Y-101175000D01*
X49300000Y-99500000D02*
X49300000Y-99350000D01*
X49650000Y-98800000D02*
X52500000Y-98800000D01*
X50300000Y-104800000D02*
X42700000Y-104800000D01*
X52500000Y-98800000D02*
X52500000Y-102600000D01*
X43300000Y-101300000D02*
G75*
G03*
X42700000Y-101850000I-25000J-575000D01*
G01*
X47300000Y-101299999D02*
G75*
G03*
X49299998Y-99499999I99998J1900000D01*
G01*
X49650000Y-98800000D02*
G75*
G03*
X49300000Y-99350000I100000J-450000D01*
G01*
X50300000Y-104800000D02*
G75*
G03*
X52500000Y-102600000I0J2200000D01*
G01*
D11*
X51593200Y-92754900D02*
G75*
G03*
X51593200Y-92754900I-381000J0D01*
G01*
X40500000Y-53640000D02*
X40500000Y-57650000D01*
X38500000Y-53640000D02*
X40500000Y-53640000D01*
X38500000Y-53640000D02*
X38500000Y-57650000D01*
X40500000Y-91640000D02*
X40500000Y-95650000D01*
X38500000Y-91640000D02*
X40500000Y-91640000D01*
X38500000Y-91640000D02*
X38500000Y-95650000D01*
X40500000Y-34640000D02*
X40500000Y-38650000D01*
X38500000Y-34640000D02*
X40500000Y-34640000D01*
X38500000Y-34640000D02*
X38500000Y-38650000D01*
G36*
X50673230Y-28632308D02*
G01*
X50665415Y-28640124D01*
X50657600Y-28632308D01*
X50665415Y-28624493D01*
X50673230Y-28632308D01*
G37*
G36*
X50376246Y-31961662D02*
G01*
X50368430Y-31969477D01*
X50360615Y-31961662D01*
X50368430Y-31953847D01*
X50376246Y-31961662D01*
G37*
G36*
X50298092Y-27913293D02*
G01*
X50290276Y-27921108D01*
X50282461Y-27913293D01*
X50290276Y-27905477D01*
X50298092Y-27913293D01*
G37*
G36*
X50173046Y-27991447D02*
G01*
X50165230Y-27999262D01*
X50157415Y-27991447D01*
X50165230Y-27983631D01*
X50173046Y-27991447D01*
G37*
G36*
X50048000Y-32227385D02*
G01*
X50040184Y-32235200D01*
X50032369Y-32227385D01*
X50040184Y-32219570D01*
X50048000Y-32227385D01*
G37*
G36*
X50048000Y-27694462D02*
G01*
X50040184Y-27702277D01*
X50032369Y-27694462D01*
X50040184Y-27686647D01*
X50048000Y-27694462D01*
G37*
G36*
X49829169Y-27647570D02*
G01*
X49821353Y-27655385D01*
X49813538Y-27647570D01*
X49821353Y-27639754D01*
X49829169Y-27647570D01*
G37*
G36*
X49235200Y-27944554D02*
G01*
X49227384Y-27952370D01*
X49219569Y-27944554D01*
X49227384Y-27936739D01*
X49235200Y-27944554D01*
G37*
G36*
X49235200Y-27225539D02*
G01*
X49227384Y-27233354D01*
X49219569Y-27225539D01*
X49227384Y-27217724D01*
X49235200Y-27225539D01*
G37*
G36*
X49141415Y-27772616D02*
G01*
X49133600Y-27780431D01*
X49125784Y-27772616D01*
X49133600Y-27764800D01*
X49141415Y-27772616D01*
G37*
G36*
X49094523Y-32258647D02*
G01*
X49086707Y-32266462D01*
X49078892Y-32258647D01*
X49086707Y-32250831D01*
X49094523Y-32258647D01*
G37*
G36*
X49016369Y-27819508D02*
G01*
X49008553Y-27827324D01*
X49000738Y-27819508D01*
X49008553Y-27811693D01*
X49016369Y-27819508D01*
G37*
G36*
X48547446Y-26881662D02*
G01*
X48539630Y-26889477D01*
X48531815Y-26881662D01*
X48539630Y-26873847D01*
X48547446Y-26881662D01*
G37*
G36*
X45984000Y-33212124D02*
G01*
X45976184Y-33219939D01*
X45968369Y-33212124D01*
X45976184Y-33204308D01*
X45984000Y-33212124D01*
G37*
G36*
X45812061Y-26959816D02*
G01*
X45804246Y-26967631D01*
X45796430Y-26959816D01*
X45804246Y-26952000D01*
X45812061Y-26959816D01*
G37*
G36*
X45733907Y-27006708D02*
G01*
X45726092Y-27014524D01*
X45718276Y-27006708D01*
X45726092Y-26998893D01*
X45733907Y-27006708D01*
G37*
G36*
X45468184Y-33071447D02*
G01*
X45460369Y-33079262D01*
X45452553Y-33071447D01*
X45460369Y-33063631D01*
X45468184Y-33071447D01*
G37*
G36*
X45218092Y-32133600D02*
G01*
X45210276Y-32141416D01*
X45202461Y-32133600D01*
X45210276Y-32125785D01*
X45218092Y-32133600D01*
G37*
G36*
X45124307Y-27819508D02*
G01*
X45116492Y-27827324D01*
X45108676Y-27819508D01*
X45116492Y-27811693D01*
X45124307Y-27819508D01*
G37*
G36*
X45124307Y-27303693D02*
G01*
X45116492Y-27311508D01*
X45108676Y-27303693D01*
X45116492Y-27295877D01*
X45124307Y-27303693D01*
G37*
G36*
X45046153Y-27350585D02*
G01*
X45038338Y-27358400D01*
X45030523Y-27350585D01*
X45038338Y-27342770D01*
X45046153Y-27350585D01*
G37*
G36*
X44655384Y-27819508D02*
G01*
X44647569Y-27827324D01*
X44639753Y-27819508D01*
X44647569Y-27811693D01*
X44655384Y-27819508D01*
G37*
G36*
X44405292Y-27569416D02*
G01*
X44397476Y-27577231D01*
X44389661Y-27569416D01*
X44397476Y-27561600D01*
X44405292Y-27569416D01*
G37*
G36*
X44358400Y-27522524D02*
G01*
X44350584Y-27530339D01*
X44342769Y-27522524D01*
X44350584Y-27514708D01*
X44358400Y-27522524D01*
G37*
G36*
X44061415Y-32305539D02*
G01*
X44053600Y-32313354D01*
X44045784Y-32305539D01*
X44053600Y-32297724D01*
X44061415Y-32305539D01*
G37*
G36*
X44014523Y-32227385D02*
G01*
X44006707Y-32235200D01*
X43998892Y-32227385D01*
X44006707Y-32219570D01*
X44014523Y-32227385D01*
G37*
G36*
X43889476Y-27647570D02*
G01*
X43881661Y-27655385D01*
X43873846Y-27647570D01*
X43881661Y-27639754D01*
X43889476Y-27647570D01*
G37*
G36*
X43670646Y-28210277D02*
G01*
X43662830Y-28218093D01*
X43655015Y-28210277D01*
X43662830Y-28202462D01*
X43670646Y-28210277D01*
G37*
G36*
X43420553Y-31320800D02*
G01*
X43412738Y-31328616D01*
X43404923Y-31320800D01*
X43412738Y-31312985D01*
X43420553Y-31320800D01*
G37*
G36*
X43420553Y-28632308D02*
G01*
X43412738Y-28640124D01*
X43404923Y-28632308D01*
X43412738Y-28624493D01*
X43420553Y-28632308D01*
G37*
G36*
X43373661Y-31195754D02*
G01*
X43365846Y-31203570D01*
X43358030Y-31195754D01*
X43365846Y-31187939D01*
X43373661Y-31195754D01*
G37*
G36*
X50683651Y-31318195D02*
G01*
X50686096Y-31322897D01*
X50673230Y-31328616D01*
X50664955Y-31327488D01*
X50662810Y-31318195D01*
X50665101Y-31316325D01*
X50683651Y-31318195D01*
G37*
G36*
X50511712Y-31662072D02*
G01*
X50514158Y-31666774D01*
X50501292Y-31672493D01*
X50493017Y-31671365D01*
X50490871Y-31662072D01*
X50493162Y-31660202D01*
X50511712Y-31662072D01*
G37*
G36*
X50386666Y-28676595D02*
G01*
X50389112Y-28681297D01*
X50376246Y-28687016D01*
X50367971Y-28685888D01*
X50365825Y-28676595D01*
X50368116Y-28674725D01*
X50386666Y-28676595D01*
G37*
G36*
X50214728Y-27816903D02*
G01*
X50217173Y-27821604D01*
X50204307Y-27827324D01*
X50196032Y-27826195D01*
X50193887Y-27816903D01*
X50196178Y-27815032D01*
X50214728Y-27816903D01*
G37*
G36*
X49438400Y-32563447D02*
G01*
X49437272Y-32571721D01*
X49427979Y-32573867D01*
X49426108Y-32571576D01*
X49427979Y-32553026D01*
X49432681Y-32550581D01*
X49438400Y-32563447D01*
G37*
G36*
X49229989Y-32474872D02*
G01*
X49232435Y-32479574D01*
X49219569Y-32485293D01*
X49211294Y-32484165D01*
X49209148Y-32474872D01*
X49211439Y-32473002D01*
X49229989Y-32474872D01*
G37*
G36*
X49016369Y-32438400D02*
G01*
X49015241Y-32446675D01*
X49005948Y-32448821D01*
X49004078Y-32446530D01*
X49005948Y-32427980D01*
X49010650Y-32425535D01*
X49016369Y-32438400D01*
G37*
G36*
X48933005Y-32052841D02*
G01*
X48935450Y-32057543D01*
X48922584Y-32063262D01*
X48914309Y-32062134D01*
X48912164Y-32052841D01*
X48914455Y-32050971D01*
X48933005Y-32052841D01*
G37*
G36*
X48672492Y-32094524D02*
G01*
X48671364Y-32102798D01*
X48662071Y-32104944D01*
X48660201Y-32102653D01*
X48662071Y-32084103D01*
X48666773Y-32081658D01*
X48672492Y-32094524D01*
G37*
G36*
X45296246Y-32907324D02*
G01*
X45295118Y-32915598D01*
X45285825Y-32917744D01*
X45283955Y-32915453D01*
X45285825Y-32896903D01*
X45290527Y-32894458D01*
X45296246Y-32907324D01*
G37*
G36*
X45259774Y-27004103D02*
G01*
X45262219Y-27008804D01*
X45249353Y-27014524D01*
X45241079Y-27013395D01*
X45238933Y-27004103D01*
X45241224Y-27002232D01*
X45259774Y-27004103D01*
G37*
G36*
X44962789Y-28285826D02*
G01*
X44965235Y-28290528D01*
X44952369Y-28296247D01*
X44944094Y-28295119D01*
X44941948Y-28285826D01*
X44944239Y-28283955D01*
X44962789Y-28285826D01*
G37*
G36*
X44921107Y-28890216D02*
G01*
X44919979Y-28898491D01*
X44910687Y-28900636D01*
X44908816Y-28898345D01*
X44910687Y-28879795D01*
X44915388Y-28877350D01*
X44921107Y-28890216D01*
G37*
G36*
X44618912Y-32568657D02*
G01*
X44621358Y-32573358D01*
X44608492Y-32579077D01*
X44600217Y-32577949D01*
X44598071Y-32568657D01*
X44600362Y-32566786D01*
X44618912Y-32568657D01*
G37*
G36*
X44572020Y-27347980D02*
G01*
X44574465Y-27352681D01*
X44561600Y-27358400D01*
X44553325Y-27357272D01*
X44551179Y-27347980D01*
X44553470Y-27346109D01*
X44572020Y-27347980D01*
G37*
G36*
X44530338Y-27780431D02*
G01*
X44529210Y-27788706D01*
X44519918Y-27790852D01*
X44518047Y-27788561D01*
X44519918Y-27770011D01*
X44524619Y-27767565D01*
X44530338Y-27780431D01*
G37*
G36*
X43759220Y-31880903D02*
G01*
X43761665Y-31885604D01*
X43748800Y-31891324D01*
X43740525Y-31890195D01*
X43738379Y-31880903D01*
X43740670Y-31879032D01*
X43759220Y-31880903D01*
G37*
G36*
X43634174Y-28113888D02*
G01*
X43636619Y-28118589D01*
X43623753Y-28124308D01*
X43615479Y-28123180D01*
X43613333Y-28113888D01*
X43615624Y-28112017D01*
X43634174Y-28113888D01*
G37*
G36*
X43587282Y-28160780D02*
G01*
X43589727Y-28165481D01*
X43576861Y-28171200D01*
X43568586Y-28170072D01*
X43566441Y-28160780D01*
X43568732Y-28158909D01*
X43587282Y-28160780D01*
G37*
G36*
X43556020Y-28332718D02*
G01*
X43558465Y-28337420D01*
X43545600Y-28343139D01*
X43537325Y-28342011D01*
X43535179Y-28332718D01*
X43537470Y-28330848D01*
X43556020Y-28332718D01*
G37*
G36*
X43462235Y-28801641D02*
G01*
X43464681Y-28806343D01*
X43451815Y-28812062D01*
X43443540Y-28810934D01*
X43441394Y-28801641D01*
X43443685Y-28799771D01*
X43462235Y-28801641D01*
G37*
G36*
X43462235Y-28551549D02*
G01*
X43464681Y-28556251D01*
X43451815Y-28561970D01*
X43443540Y-28560842D01*
X43441394Y-28551549D01*
X43443685Y-28549678D01*
X43462235Y-28551549D01*
G37*
G36*
X49539842Y-32391253D02*
G01*
X49541390Y-32399448D01*
X49525291Y-32407139D01*
X49517399Y-32406833D01*
X49501614Y-32399450D01*
X49515473Y-32384360D01*
X49521109Y-32382236D01*
X49539842Y-32391253D01*
G37*
G36*
X49321011Y-32688238D02*
G01*
X49322559Y-32696433D01*
X49306461Y-32704124D01*
X49298569Y-32703818D01*
X49282783Y-32696434D01*
X49296643Y-32681345D01*
X49302279Y-32679221D01*
X49321011Y-32688238D01*
G37*
G36*
X50254936Y-27843408D02*
G01*
X50266830Y-27858585D01*
X50266376Y-27862321D01*
X50251200Y-27874216D01*
X50247463Y-27873762D01*
X50235569Y-27858585D01*
X50236023Y-27854849D01*
X50251200Y-27842954D01*
X50254936Y-27843408D01*
G37*
G36*
X50161030Y-27765401D02*
G01*
X50173046Y-27780431D01*
X50172867Y-27783969D01*
X50166153Y-27796062D01*
X50163645Y-27795343D01*
X50149600Y-27780431D01*
X50147157Y-27774376D01*
X50156492Y-27764800D01*
X50161030Y-27765401D01*
G37*
G36*
X49864166Y-27546424D02*
G01*
X49876061Y-27561600D01*
X49875607Y-27565337D01*
X49860430Y-27577231D01*
X49856694Y-27576777D01*
X49844800Y-27561600D01*
X49845254Y-27557864D01*
X49860430Y-27545970D01*
X49864166Y-27546424D01*
G37*
G36*
X49739120Y-27468270D02*
G01*
X49751015Y-27483447D01*
X49750561Y-27487183D01*
X49735384Y-27499077D01*
X49731648Y-27498623D01*
X49719753Y-27483447D01*
X49720208Y-27479710D01*
X49735384Y-27467816D01*
X49739120Y-27468270D01*
G37*
G36*
X49432169Y-32329704D02*
G01*
X49446215Y-32344616D01*
X49448657Y-32350671D01*
X49439322Y-32360247D01*
X49434785Y-32359646D01*
X49422769Y-32344616D01*
X49422948Y-32341078D01*
X49429662Y-32328985D01*
X49432169Y-32329704D01*
G37*
G36*
X49260231Y-32032720D02*
G01*
X49274276Y-32047631D01*
X49276719Y-32053686D01*
X49267384Y-32063262D01*
X49262847Y-32062661D01*
X49250830Y-32047631D01*
X49251010Y-32044094D01*
X49257723Y-32032000D01*
X49260231Y-32032720D01*
G37*
G36*
X49223305Y-31907408D02*
G01*
X49235200Y-31922585D01*
X49234745Y-31926321D01*
X49219569Y-31938216D01*
X49215833Y-31937762D01*
X49203938Y-31922585D01*
X49204392Y-31918849D01*
X49219569Y-31906954D01*
X49223305Y-31907408D01*
G37*
G36*
X49098259Y-27202547D02*
G01*
X49110153Y-27217724D01*
X49109699Y-27221460D01*
X49094523Y-27233354D01*
X49090787Y-27232900D01*
X49078892Y-27217724D01*
X49079346Y-27213987D01*
X49094523Y-27202093D01*
X49098259Y-27202547D01*
G37*
G36*
X48963246Y-32204658D02*
G01*
X48977292Y-32219570D01*
X48979734Y-32225624D01*
X48970399Y-32235200D01*
X48965862Y-32234600D01*
X48953846Y-32219570D01*
X48954025Y-32216032D01*
X48960739Y-32203939D01*
X48963246Y-32204658D01*
G37*
G36*
X48879306Y-32079493D02*
G01*
X48891323Y-32094524D01*
X48891143Y-32098061D01*
X48884430Y-32110154D01*
X48881922Y-32109435D01*
X48867876Y-32094524D01*
X48865434Y-32088469D01*
X48874769Y-32078893D01*
X48879306Y-32079493D01*
G37*
G36*
X48679068Y-32892920D02*
G01*
X48680307Y-32907324D01*
X48677099Y-32912001D01*
X48663754Y-32922954D01*
X48662194Y-32922548D01*
X48656861Y-32907324D01*
X48657497Y-32903039D01*
X48673414Y-32891693D01*
X48679068Y-32892920D01*
G37*
G36*
X48666261Y-27843674D02*
G01*
X48680307Y-27858585D01*
X48682750Y-27864640D01*
X48673414Y-27874216D01*
X48668877Y-27873615D01*
X48656861Y-27858585D01*
X48657040Y-27855048D01*
X48663754Y-27842954D01*
X48666261Y-27843674D01*
G37*
G36*
X48410505Y-26858670D02*
G01*
X48422400Y-26873847D01*
X48421945Y-26877583D01*
X48406769Y-26889477D01*
X48403033Y-26889023D01*
X48391138Y-26873847D01*
X48391592Y-26870110D01*
X48406769Y-26858216D01*
X48410505Y-26858670D01*
G37*
G36*
X45768905Y-33236024D02*
G01*
X45780800Y-33251200D01*
X45780345Y-33254937D01*
X45765169Y-33266831D01*
X45761433Y-33266377D01*
X45749538Y-33251200D01*
X45749992Y-33247464D01*
X45765169Y-33235570D01*
X45768905Y-33236024D01*
G37*
G36*
X45722013Y-26905562D02*
G01*
X45733907Y-26920739D01*
X45733453Y-26924475D01*
X45718276Y-26936370D01*
X45714540Y-26935915D01*
X45702646Y-26920739D01*
X45703100Y-26917003D01*
X45718276Y-26905108D01*
X45722013Y-26905562D01*
G37*
G36*
X45646699Y-26781289D02*
G01*
X45647938Y-26795693D01*
X45644730Y-26800370D01*
X45631385Y-26811324D01*
X45629825Y-26810917D01*
X45624492Y-26795693D01*
X45625128Y-26791409D01*
X45641045Y-26780062D01*
X45646699Y-26781289D01*
G37*
G36*
X45081151Y-32892147D02*
G01*
X45093046Y-32907324D01*
X45092592Y-32911060D01*
X45077415Y-32922954D01*
X45073679Y-32922500D01*
X45061784Y-32907324D01*
X45062238Y-32903587D01*
X45077415Y-32891693D01*
X45081151Y-32892147D01*
G37*
G36*
X45034259Y-27249439D02*
G01*
X45046153Y-27264616D01*
X45045699Y-27268352D01*
X45030523Y-27280247D01*
X45026787Y-27279792D01*
X45014892Y-27264616D01*
X45015346Y-27260880D01*
X45030523Y-27248985D01*
X45034259Y-27249439D01*
G37*
G36*
X44958945Y-27125166D02*
G01*
X44960184Y-27139570D01*
X44956976Y-27144247D01*
X44943631Y-27155200D01*
X44942071Y-27154794D01*
X44936738Y-27139570D01*
X44937374Y-27135285D01*
X44953291Y-27123939D01*
X44958945Y-27125166D01*
G37*
G36*
X44909091Y-31954447D02*
G01*
X44921107Y-31969477D01*
X44920928Y-31973015D01*
X44914214Y-31985108D01*
X44911707Y-31984389D01*
X44897661Y-31969477D01*
X44895219Y-31963423D01*
X44904554Y-31953847D01*
X44909091Y-31954447D01*
G37*
G36*
X44912667Y-28142584D02*
G01*
X44921107Y-28163385D01*
X44919344Y-28174171D01*
X44905476Y-28186831D01*
X44898286Y-28184186D01*
X44889846Y-28163385D01*
X44891609Y-28152599D01*
X44905476Y-28139939D01*
X44912667Y-28142584D01*
G37*
G36*
X44862199Y-27984232D02*
G01*
X44874215Y-27999262D01*
X44874036Y-28002799D01*
X44867322Y-28014893D01*
X44864815Y-28014173D01*
X44850769Y-27999262D01*
X44848326Y-27993207D01*
X44857662Y-27983631D01*
X44862199Y-27984232D01*
G37*
G36*
X44774200Y-28015612D02*
G01*
X44788246Y-28030524D01*
X44790688Y-28036578D01*
X44781353Y-28046154D01*
X44776816Y-28045554D01*
X44764800Y-28030524D01*
X44764979Y-28026986D01*
X44771692Y-28014893D01*
X44774200Y-28015612D01*
G37*
G36*
X44774200Y-27843674D02*
G01*
X44788246Y-27858585D01*
X44790688Y-27864640D01*
X44781353Y-27874216D01*
X44776816Y-27873615D01*
X44764800Y-27858585D01*
X44764979Y-27855048D01*
X44771692Y-27842954D01*
X44774200Y-27843674D01*
G37*
G36*
X44737274Y-27593316D02*
G01*
X44749169Y-27608493D01*
X44748715Y-27612229D01*
X44733538Y-27624124D01*
X44729802Y-27623669D01*
X44717907Y-27608493D01*
X44718361Y-27604757D01*
X44733538Y-27592862D01*
X44737274Y-27593316D01*
G37*
G36*
X44649154Y-27546689D02*
G01*
X44663200Y-27561600D01*
X44665642Y-27567655D01*
X44656307Y-27577231D01*
X44651770Y-27576631D01*
X44639753Y-27561600D01*
X44639933Y-27558063D01*
X44646646Y-27545970D01*
X44649154Y-27546689D01*
G37*
G36*
X44565214Y-27984232D02*
G01*
X44577230Y-27999262D01*
X44577051Y-28002799D01*
X44570337Y-28014893D01*
X44567830Y-28014173D01*
X44553784Y-27999262D01*
X44551342Y-27993207D01*
X44560677Y-27983631D01*
X44565214Y-27984232D01*
G37*
G36*
X44146145Y-32252058D02*
G01*
X44147384Y-32266462D01*
X44144176Y-32271140D01*
X44130831Y-32282093D01*
X44129271Y-32281686D01*
X44123938Y-32266462D01*
X44124574Y-32262178D01*
X44140491Y-32250831D01*
X44146145Y-32252058D01*
G37*
G36*
X44096413Y-32329439D02*
G01*
X44108307Y-32344616D01*
X44107853Y-32348352D01*
X44092676Y-32360247D01*
X44088940Y-32359792D01*
X44077046Y-32344616D01*
X44077500Y-32340880D01*
X44092676Y-32328985D01*
X44096413Y-32329439D01*
G37*
G36*
X44018259Y-32376332D02*
G01*
X44030153Y-32391508D01*
X44029699Y-32395244D01*
X44014523Y-32407139D01*
X44010787Y-32406685D01*
X43998892Y-32391508D01*
X43999346Y-32387772D01*
X44014523Y-32375877D01*
X44018259Y-32376332D01*
G37*
G36*
X43705522Y-31954447D02*
G01*
X43717538Y-31969477D01*
X43717359Y-31973015D01*
X43710645Y-31985108D01*
X43708138Y-31984389D01*
X43694092Y-31969477D01*
X43691650Y-31963423D01*
X43700985Y-31953847D01*
X43705522Y-31954447D01*
G37*
G36*
X50549519Y-29814795D02*
G01*
X50571630Y-29828062D01*
X50572045Y-29828806D01*
X50564326Y-29839531D01*
X50532553Y-29843693D01*
X50530243Y-29843678D01*
X50499647Y-29839077D01*
X50493476Y-29828062D01*
X50503016Y-29819823D01*
X50532553Y-29812431D01*
X50549519Y-29814795D01*
G37*
G36*
X47338196Y-32766745D02*
G01*
X47354423Y-32780892D01*
X47359507Y-32821354D01*
X47357924Y-32846759D01*
X47349033Y-32872234D01*
X47335853Y-32870996D01*
X47322467Y-32840893D01*
X47314148Y-32801115D01*
X47317374Y-32774428D01*
X47336061Y-32766647D01*
X47338196Y-32766745D01*
G37*
G36*
X46841362Y-33372567D02*
G01*
X46849003Y-33405824D01*
X46846381Y-33450493D01*
X46837678Y-33478601D01*
X46826146Y-33484282D01*
X46816483Y-33464790D01*
X46812430Y-33423139D01*
X46812799Y-33409133D01*
X46817844Y-33374485D01*
X46826915Y-33360616D01*
X46841362Y-33372567D01*
G37*
G36*
X49290918Y-30484565D02*
G01*
X49335191Y-30489565D01*
X49363039Y-30501565D01*
X49367049Y-30517454D01*
X49360256Y-30523808D01*
X49331625Y-30531678D01*
X49295292Y-30530971D01*
X49264084Y-30522731D01*
X49250830Y-30508000D01*
X49258160Y-30492939D01*
X49288629Y-30484554D01*
X49290918Y-30484565D01*
G37*
G36*
X48244957Y-30834971D02*
G01*
X48255156Y-30841671D01*
X48257815Y-30860439D01*
X48247225Y-30867465D01*
X48216227Y-30872330D01*
X48178506Y-30870777D01*
X48146647Y-30863672D01*
X48133230Y-30851877D01*
X48143657Y-30840806D01*
X48174014Y-30832108D01*
X48211977Y-30829528D01*
X48244957Y-30834971D01*
G37*
G36*
X47870070Y-31018440D02*
G01*
X47875323Y-31061590D01*
X47874619Y-31085162D01*
X47867512Y-31116327D01*
X47850933Y-31125416D01*
X47842187Y-31123968D01*
X47831448Y-31107708D01*
X47831394Y-31068009D01*
X47832963Y-31053965D01*
X47843680Y-31015389D01*
X47857785Y-31003294D01*
X47870070Y-31018440D01*
G37*
G36*
X47100190Y-33627292D02*
G01*
X47107004Y-33657187D01*
X47102988Y-33696712D01*
X47092675Y-33722492D01*
X47077856Y-33735754D01*
X47071627Y-33731807D01*
X47064386Y-33707556D01*
X47063108Y-33672087D01*
X47067749Y-33638139D01*
X47078264Y-33618455D01*
X47085382Y-33616006D01*
X47100190Y-33627292D01*
G37*
G36*
X43758926Y-29772078D02*
G01*
X43769125Y-29778779D01*
X43771784Y-29797547D01*
X43761194Y-29804572D01*
X43730196Y-29809438D01*
X43692476Y-29807885D01*
X43660616Y-29800779D01*
X43647200Y-29788985D01*
X43657626Y-29777913D01*
X43687983Y-29769215D01*
X43725946Y-29766635D01*
X43758926Y-29772078D01*
G37*
G36*
X50732644Y-29860378D02*
G01*
X50768588Y-29866038D01*
X50782646Y-29874954D01*
X50777372Y-29880585D01*
X50749074Y-29887773D01*
X50704492Y-29890585D01*
X50676340Y-29889530D01*
X50640396Y-29883871D01*
X50626338Y-29874954D01*
X50631612Y-29869324D01*
X50659910Y-29862135D01*
X50704492Y-29859324D01*
X50732644Y-29860378D01*
G37*
G36*
X50608282Y-30110133D02*
G01*
X50643629Y-30115725D01*
X50657600Y-30125047D01*
X50654372Y-30129718D01*
X50629209Y-30137573D01*
X50587261Y-30140677D01*
X50566240Y-30139960D01*
X50530893Y-30134368D01*
X50516923Y-30125047D01*
X50520150Y-30120375D01*
X50545313Y-30112520D01*
X50587261Y-30109416D01*
X50608282Y-30110133D01*
G37*
G36*
X50437153Y-30156707D02*
G01*
X50471794Y-30162151D01*
X50485661Y-30171939D01*
X50484067Y-30175443D01*
X50462290Y-30184103D01*
X50423138Y-30187570D01*
X50409123Y-30187171D01*
X50374482Y-30181727D01*
X50360615Y-30171939D01*
X50362209Y-30168435D01*
X50383986Y-30159775D01*
X50423138Y-30156308D01*
X50437153Y-30156707D01*
G37*
G36*
X50171430Y-30234861D02*
G01*
X50206071Y-30240305D01*
X50219938Y-30250093D01*
X50218344Y-30253597D01*
X50196567Y-30262257D01*
X50157415Y-30265724D01*
X50143400Y-30265325D01*
X50108759Y-30259881D01*
X50094892Y-30250093D01*
X50096486Y-30246589D01*
X50118263Y-30237929D01*
X50157415Y-30234462D01*
X50171430Y-30234861D01*
G37*
G36*
X49671883Y-29562631D02*
G01*
X49704903Y-29567708D01*
X49711938Y-29577970D01*
X49710877Y-29579349D01*
X49687426Y-29589459D01*
X49648492Y-29593600D01*
X49642106Y-29593490D01*
X49608431Y-29588371D01*
X49594707Y-29577970D01*
X49596470Y-29574315D01*
X49618661Y-29565758D01*
X49658153Y-29562339D01*
X49671883Y-29562631D01*
G37*
G36*
X49530569Y-29515845D02*
G01*
X49565210Y-29521289D01*
X49579076Y-29531077D01*
X49577482Y-29534581D01*
X49555706Y-29543241D01*
X49516553Y-29546708D01*
X49502538Y-29546310D01*
X49467897Y-29540865D01*
X49454030Y-29531077D01*
X49455625Y-29527574D01*
X49477401Y-29518913D01*
X49516553Y-29515447D01*
X49530569Y-29515845D01*
G37*
G36*
X49452415Y-30453691D02*
G01*
X49487056Y-30459135D01*
X49500923Y-30468924D01*
X49499328Y-30472427D01*
X49477552Y-30481088D01*
X49438400Y-30484554D01*
X49424384Y-30484156D01*
X49389743Y-30478712D01*
X49375876Y-30468924D01*
X49377471Y-30465420D01*
X49399247Y-30456759D01*
X49438400Y-30453293D01*
X49452415Y-30453691D01*
G37*
G36*
X49227970Y-30538252D02*
G01*
X49235200Y-30554893D01*
X49233237Y-30565500D01*
X49216472Y-30575551D01*
X49176584Y-30575375D01*
X49166072Y-30574251D01*
X49131795Y-30566092D01*
X49117969Y-30554893D01*
X49118920Y-30552011D01*
X49138878Y-30541218D01*
X49176584Y-30534411D01*
X49201502Y-30533196D01*
X49227970Y-30538252D01*
G37*
G36*
X49059564Y-30579732D02*
G01*
X49096021Y-30585410D01*
X49110153Y-30593970D01*
X49102490Y-30600402D01*
X49071264Y-30607031D01*
X49024184Y-30609600D01*
X48988804Y-30608207D01*
X48952348Y-30602530D01*
X48938215Y-30593970D01*
X48945878Y-30587537D01*
X48977105Y-30580908D01*
X49024184Y-30578339D01*
X49059564Y-30579732D01*
G37*
G36*
X48981410Y-29344901D02*
G01*
X49017867Y-29350579D01*
X49032000Y-29359139D01*
X49024336Y-29365572D01*
X48993110Y-29372200D01*
X48946030Y-29374770D01*
X48910650Y-29373376D01*
X48874194Y-29367699D01*
X48860061Y-29359139D01*
X48867725Y-29352706D01*
X48898951Y-29346078D01*
X48946030Y-29343508D01*
X48981410Y-29344901D01*
G37*
G36*
X48839939Y-29300084D02*
G01*
X48859743Y-29312261D01*
X48849641Y-29333088D01*
X48848935Y-29333703D01*
X48825740Y-29340648D01*
X48787118Y-29343508D01*
X48786732Y-29343508D01*
X48747515Y-29337801D01*
X48735015Y-29320062D01*
X48736150Y-29313321D01*
X48754064Y-29300487D01*
X48797538Y-29296616D01*
X48839939Y-29300084D01*
G37*
G36*
X48544336Y-29219517D02*
G01*
X48580280Y-29225176D01*
X48594338Y-29234093D01*
X48589064Y-29239723D01*
X48560767Y-29246912D01*
X48516184Y-29249724D01*
X48488032Y-29248669D01*
X48452088Y-29243009D01*
X48438030Y-29234093D01*
X48443305Y-29228462D01*
X48471602Y-29221274D01*
X48516184Y-29218462D01*
X48544336Y-29219517D01*
G37*
G36*
X48372398Y-30798224D02*
G01*
X48408342Y-30803884D01*
X48422400Y-30812800D01*
X48417125Y-30818431D01*
X48388828Y-30825620D01*
X48344246Y-30828431D01*
X48316094Y-30827376D01*
X48280150Y-30821717D01*
X48266092Y-30812800D01*
X48271366Y-30807170D01*
X48299663Y-30799981D01*
X48344246Y-30797170D01*
X48372398Y-30798224D01*
G37*
G36*
X48059797Y-30875467D02*
G01*
X48107099Y-30880183D01*
X48125195Y-30892011D01*
X48115237Y-30911553D01*
X48102352Y-30916681D01*
X48067740Y-30918018D01*
X48026007Y-30913367D01*
X47989941Y-30904406D01*
X47972332Y-30892812D01*
X47972885Y-30887566D01*
X47995147Y-30878447D01*
X48045959Y-30875324D01*
X48059797Y-30875467D01*
G37*
G36*
X47818074Y-31141044D02*
G01*
X47825511Y-31173507D01*
X47828430Y-31220123D01*
X47827416Y-31247428D01*
X47821761Y-31283306D01*
X47812800Y-31297354D01*
X47806281Y-31289389D01*
X47799713Y-31257829D01*
X47797169Y-31210463D01*
X47798112Y-31176831D01*
X47803428Y-31141281D01*
X47812800Y-31133231D01*
X47818074Y-31141044D01*
G37*
G36*
X47769411Y-31298949D02*
G01*
X47778071Y-31320725D01*
X47781538Y-31359877D01*
X47781139Y-31373892D01*
X47775695Y-31408534D01*
X47765907Y-31422400D01*
X47762403Y-31420806D01*
X47753743Y-31399029D01*
X47750276Y-31359877D01*
X47750675Y-31345862D01*
X47756119Y-31311221D01*
X47765907Y-31297354D01*
X47769411Y-31298949D01*
G37*
G36*
X47769411Y-28579195D02*
G01*
X47778071Y-28600971D01*
X47781538Y-28640124D01*
X47781139Y-28654139D01*
X47775695Y-28688780D01*
X47765907Y-28702647D01*
X47762403Y-28701052D01*
X47753743Y-28679276D01*
X47750276Y-28640124D01*
X47750675Y-28626108D01*
X47756119Y-28591467D01*
X47765907Y-28577600D01*
X47769411Y-28579195D01*
G37*
G36*
X47739076Y-28410663D02*
G01*
X47747766Y-28434668D01*
X47750276Y-28483816D01*
X47748776Y-28524635D01*
X47741575Y-28553603D01*
X47726830Y-28561970D01*
X47714584Y-28556969D01*
X47705894Y-28532964D01*
X47703384Y-28483816D01*
X47704885Y-28442996D01*
X47712086Y-28414029D01*
X47726830Y-28405662D01*
X47739076Y-28410663D01*
G37*
G36*
X47682820Y-28273751D02*
G01*
X47693612Y-28293710D01*
X47700420Y-28331416D01*
X47701634Y-28356333D01*
X47696579Y-28382802D01*
X47679938Y-28390031D01*
X47669331Y-28388069D01*
X47659279Y-28371304D01*
X47659456Y-28331416D01*
X47660580Y-28320904D01*
X47668739Y-28286627D01*
X47679938Y-28272800D01*
X47682820Y-28273751D01*
G37*
G36*
X47644365Y-31736610D02*
G01*
X47653025Y-31758387D01*
X47656492Y-31797539D01*
X47656093Y-31811554D01*
X47650649Y-31846195D01*
X47640861Y-31860062D01*
X47637357Y-31858468D01*
X47628697Y-31836691D01*
X47625230Y-31797539D01*
X47625629Y-31783524D01*
X47631073Y-31748883D01*
X47640861Y-31735016D01*
X47644365Y-31736610D01*
G37*
G36*
X47644365Y-28141533D02*
G01*
X47653025Y-28163310D01*
X47656492Y-28202462D01*
X47656093Y-28216477D01*
X47650649Y-28251118D01*
X47640861Y-28264985D01*
X47637357Y-28263391D01*
X47628697Y-28241614D01*
X47625230Y-28202462D01*
X47625629Y-28188447D01*
X47631073Y-28153806D01*
X47640861Y-28139939D01*
X47644365Y-28141533D01*
G37*
G36*
X47475355Y-27553633D02*
G01*
X47481984Y-27584859D01*
X47484553Y-27631939D01*
X47483160Y-27667319D01*
X47477483Y-27703775D01*
X47468923Y-27717908D01*
X47462490Y-27710245D01*
X47455861Y-27679019D01*
X47453292Y-27631939D01*
X47454685Y-27596559D01*
X47460363Y-27560102D01*
X47468923Y-27545970D01*
X47475355Y-27553633D01*
G37*
G36*
X47472426Y-32283687D02*
G01*
X47481087Y-32305464D01*
X47484553Y-32344616D01*
X47484155Y-32358631D01*
X47478711Y-32393272D01*
X47468923Y-32407139D01*
X47465419Y-32405545D01*
X47456759Y-32383768D01*
X47453292Y-32344616D01*
X47453690Y-32330601D01*
X47459135Y-32295960D01*
X47468923Y-32282093D01*
X47472426Y-32283687D01*
G37*
G36*
X47427661Y-32428044D02*
G01*
X47434850Y-32456341D01*
X47437661Y-32500924D01*
X47436606Y-32529076D01*
X47430947Y-32565019D01*
X47422030Y-32579077D01*
X47416400Y-32573803D01*
X47409211Y-32545506D01*
X47406400Y-32500924D01*
X47407454Y-32472771D01*
X47413114Y-32436828D01*
X47422030Y-32422770D01*
X47427661Y-32428044D01*
G37*
G36*
X47425534Y-27422518D02*
G01*
X47434194Y-27444294D01*
X47437661Y-27483447D01*
X47437263Y-27497462D01*
X47431818Y-27532103D01*
X47422030Y-27545970D01*
X47418527Y-27544375D01*
X47409866Y-27522599D01*
X47406400Y-27483447D01*
X47406798Y-27469431D01*
X47412242Y-27434790D01*
X47422030Y-27420924D01*
X47425534Y-27422518D01*
G37*
G36*
X47395199Y-32599709D02*
G01*
X47403890Y-32623714D01*
X47406400Y-32672862D01*
X47404899Y-32713682D01*
X47397698Y-32742649D01*
X47382953Y-32751016D01*
X47370708Y-32746015D01*
X47362017Y-32722010D01*
X47359507Y-32672862D01*
X47361008Y-32632042D01*
X47368209Y-32603075D01*
X47382953Y-32594708D01*
X47395199Y-32599709D01*
G37*
G36*
X47395199Y-27253986D02*
G01*
X47403890Y-27277991D01*
X47406400Y-27327139D01*
X47404899Y-27367958D01*
X47397698Y-27396926D01*
X47382953Y-27405293D01*
X47370708Y-27400292D01*
X47362017Y-27376287D01*
X47359507Y-27327139D01*
X47361008Y-27286319D01*
X47368209Y-27257352D01*
X47382953Y-27248985D01*
X47395199Y-27253986D01*
G37*
G36*
X47302615Y-32896967D02*
G01*
X47309803Y-32925264D01*
X47312615Y-32969847D01*
X47311560Y-32997999D01*
X47305901Y-33033943D01*
X47296984Y-33048000D01*
X47291354Y-33042726D01*
X47284165Y-33014429D01*
X47281353Y-32969847D01*
X47282408Y-32941694D01*
X47288068Y-32905751D01*
X47296984Y-32891693D01*
X47302615Y-32896967D01*
G37*
G36*
X47300639Y-26953763D02*
G01*
X47309195Y-26975954D01*
X47312615Y-27015446D01*
X47312323Y-27029176D01*
X47307246Y-27062196D01*
X47296984Y-27069231D01*
X47295605Y-27068170D01*
X47285495Y-27044719D01*
X47281353Y-27005786D01*
X47281464Y-26999399D01*
X47286583Y-26965724D01*
X47296984Y-26952000D01*
X47300639Y-26953763D01*
G37*
G36*
X47178371Y-33321387D02*
G01*
X47184999Y-33352613D01*
X47187569Y-33399693D01*
X47186175Y-33435073D01*
X47180498Y-33471529D01*
X47171938Y-33485662D01*
X47165505Y-33477999D01*
X47158877Y-33446772D01*
X47156307Y-33399693D01*
X47157701Y-33364313D01*
X47163378Y-33327856D01*
X47171938Y-33313724D01*
X47178371Y-33321387D01*
G37*
G36*
X47128550Y-33487256D02*
G01*
X47137210Y-33509033D01*
X47140676Y-33548185D01*
X47140278Y-33562200D01*
X47134834Y-33596841D01*
X47125046Y-33610708D01*
X47121542Y-33609114D01*
X47112882Y-33587337D01*
X47109415Y-33548185D01*
X47109814Y-33534170D01*
X47115258Y-33499529D01*
X47125046Y-33485662D01*
X47128550Y-33487256D01*
G37*
G36*
X47128550Y-26390887D02*
G01*
X47137210Y-26412664D01*
X47140676Y-26451816D01*
X47140278Y-26465831D01*
X47134834Y-26500472D01*
X47125046Y-26514339D01*
X47121542Y-26512745D01*
X47112882Y-26490968D01*
X47109415Y-26451816D01*
X47109814Y-26437801D01*
X47115258Y-26403160D01*
X47125046Y-26389293D01*
X47128550Y-26390887D01*
G37*
G36*
X46920725Y-33627969D02*
G01*
X46929190Y-33656669D01*
X46934441Y-33702178D01*
X46935491Y-33750257D01*
X46930674Y-33775275D01*
X46918810Y-33779030D01*
X46916433Y-33777771D01*
X46905459Y-33755929D01*
X46899373Y-33717732D01*
X46898534Y-33674921D01*
X46903300Y-33639240D01*
X46914030Y-33622431D01*
X46920725Y-33627969D01*
G37*
G36*
X46878457Y-33487256D02*
G01*
X46887117Y-33509033D01*
X46890584Y-33548185D01*
X46890186Y-33562200D01*
X46884741Y-33596841D01*
X46874953Y-33610708D01*
X46871450Y-33609114D01*
X46862789Y-33587337D01*
X46859323Y-33548185D01*
X46859721Y-33534170D01*
X46865165Y-33499529D01*
X46874953Y-33485662D01*
X46878457Y-33487256D01*
G37*
G36*
X46878457Y-26390887D02*
G01*
X46887117Y-26412664D01*
X46890584Y-26451816D01*
X46890186Y-26465831D01*
X46884741Y-26500472D01*
X46874953Y-26514339D01*
X46871450Y-26512745D01*
X46862789Y-26490968D01*
X46859323Y-26451816D01*
X46859721Y-26437801D01*
X46865165Y-26403160D01*
X46874953Y-26389293D01*
X46878457Y-26390887D01*
G37*
G36*
X46834494Y-26522002D02*
G01*
X46841122Y-26553228D01*
X46843692Y-26600308D01*
X46842299Y-26635688D01*
X46836621Y-26672145D01*
X46828061Y-26686277D01*
X46821628Y-26678614D01*
X46815000Y-26647388D01*
X46812430Y-26600308D01*
X46813824Y-26564928D01*
X46819501Y-26528472D01*
X46828061Y-26514339D01*
X46834494Y-26522002D01*
G37*
G36*
X46708645Y-26957275D02*
G01*
X46715834Y-26985572D01*
X46718646Y-27030154D01*
X46717591Y-27058306D01*
X46711931Y-27094250D01*
X46703015Y-27108308D01*
X46697385Y-27103034D01*
X46690196Y-27074737D01*
X46687384Y-27030154D01*
X46688439Y-27002002D01*
X46694098Y-26966058D01*
X46703015Y-26952000D01*
X46708645Y-26957275D01*
G37*
G36*
X46704394Y-32931831D02*
G01*
X46714504Y-32955282D01*
X46718646Y-32994215D01*
X46718535Y-33000602D01*
X46713417Y-33034276D01*
X46703015Y-33048000D01*
X46699360Y-33046238D01*
X46690804Y-33024046D01*
X46687384Y-32984555D01*
X46687677Y-32970825D01*
X46692753Y-32937805D01*
X46703015Y-32930770D01*
X46704394Y-32931831D01*
G37*
G36*
X46676049Y-32772043D02*
G01*
X46684062Y-32802556D01*
X46686006Y-32843907D01*
X46680491Y-32885766D01*
X46670653Y-32909728D01*
X46655008Y-32922954D01*
X46649955Y-32919201D01*
X46644145Y-32894231D01*
X46643249Y-32855112D01*
X46646656Y-32812811D01*
X46653756Y-32778295D01*
X46663938Y-32762534D01*
X46676049Y-32772043D01*
G37*
G36*
X46666073Y-27124038D02*
G01*
X46682300Y-27138184D01*
X46687384Y-27178647D01*
X46687342Y-27183629D01*
X46681279Y-27221491D01*
X46663938Y-27233354D01*
X46661803Y-27233255D01*
X46645576Y-27219109D01*
X46640492Y-27178647D01*
X46640534Y-27173664D01*
X46646597Y-27135802D01*
X46663938Y-27123939D01*
X46666073Y-27124038D01*
G37*
G36*
X46629292Y-32599709D02*
G01*
X46637982Y-32623714D01*
X46640492Y-32672862D01*
X46638992Y-32713682D01*
X46631790Y-32742649D01*
X46617046Y-32751016D01*
X46604800Y-32746015D01*
X46596110Y-32722010D01*
X46593600Y-32672862D01*
X46595100Y-32632042D01*
X46602301Y-32603075D01*
X46617046Y-32594708D01*
X46629292Y-32599709D01*
G37*
G36*
X46629292Y-27253986D02*
G01*
X46637982Y-27277991D01*
X46640492Y-27327139D01*
X46638992Y-27367958D01*
X46631790Y-27396926D01*
X46617046Y-27405293D01*
X46604800Y-27400292D01*
X46596110Y-27376287D01*
X46593600Y-27327139D01*
X46595100Y-27286319D01*
X46602301Y-27257352D01*
X46617046Y-27248985D01*
X46629292Y-27253986D01*
G37*
G36*
X46583599Y-27426198D02*
G01*
X46590788Y-27454495D01*
X46593600Y-27499077D01*
X46592545Y-27527230D01*
X46586885Y-27563173D01*
X46577969Y-27577231D01*
X46572338Y-27571957D01*
X46565150Y-27543660D01*
X46562338Y-27499077D01*
X46563393Y-27470925D01*
X46569052Y-27434981D01*
X46577969Y-27420924D01*
X46583599Y-27426198D01*
G37*
G36*
X46581473Y-32455626D02*
G01*
X46590133Y-32477402D01*
X46593600Y-32516554D01*
X46593201Y-32530569D01*
X46587757Y-32565211D01*
X46577969Y-32579077D01*
X46574465Y-32577483D01*
X46565805Y-32555706D01*
X46562338Y-32516554D01*
X46562737Y-32502539D01*
X46568181Y-32467898D01*
X46577969Y-32454031D01*
X46581473Y-32455626D01*
G37*
G36*
X46362642Y-31736610D02*
G01*
X46371302Y-31758387D01*
X46374769Y-31797539D01*
X46374370Y-31811554D01*
X46368926Y-31846195D01*
X46359138Y-31860062D01*
X46355634Y-31858468D01*
X46346974Y-31836691D01*
X46343507Y-31797539D01*
X46343906Y-31783524D01*
X46349350Y-31748883D01*
X46359138Y-31735016D01*
X46362642Y-31736610D01*
G37*
G36*
X46362642Y-28141533D02*
G01*
X46371302Y-28163310D01*
X46374769Y-28202462D01*
X46374370Y-28216477D01*
X46368926Y-28251118D01*
X46359138Y-28264985D01*
X46355634Y-28263391D01*
X46346974Y-28241614D01*
X46343507Y-28202462D01*
X46343906Y-28188447D01*
X46349350Y-28153806D01*
X46359138Y-28139939D01*
X46362642Y-28141533D01*
G37*
G36*
X46276051Y-28445690D02*
G01*
X46286843Y-28465648D01*
X46293651Y-28503354D01*
X46294865Y-28528272D01*
X46289810Y-28554740D01*
X46273169Y-28561970D01*
X46262562Y-28560007D01*
X46252510Y-28543243D01*
X46252687Y-28503354D01*
X46253810Y-28492842D01*
X46261970Y-28458565D01*
X46273169Y-28444739D01*
X46276051Y-28445690D01*
G37*
G36*
X46285415Y-31443032D02*
G01*
X46294105Y-31467037D01*
X46296615Y-31516185D01*
X46295115Y-31557005D01*
X46287913Y-31585972D01*
X46273169Y-31594339D01*
X46260923Y-31589338D01*
X46252233Y-31565333D01*
X46249723Y-31516185D01*
X46251223Y-31475365D01*
X46258424Y-31446398D01*
X46273169Y-31438031D01*
X46285415Y-31443032D01*
G37*
G36*
X46237596Y-31298949D02*
G01*
X46246256Y-31320725D01*
X46249723Y-31359877D01*
X46249324Y-31373892D01*
X46243880Y-31408534D01*
X46234092Y-31422400D01*
X46230588Y-31420806D01*
X46221928Y-31399029D01*
X46218461Y-31359877D01*
X46218860Y-31345862D01*
X46224304Y-31311221D01*
X46234092Y-31297354D01*
X46237596Y-31298949D01*
G37*
G36*
X46237596Y-28579195D02*
G01*
X46246256Y-28600971D01*
X46249723Y-28640124D01*
X46249324Y-28654139D01*
X46243880Y-28688780D01*
X46234092Y-28702647D01*
X46230588Y-28701052D01*
X46221928Y-28679276D01*
X46218461Y-28640124D01*
X46218860Y-28626108D01*
X46224304Y-28591467D01*
X46234092Y-28577600D01*
X46237596Y-28579195D01*
G37*
G36*
X45683906Y-29172624D02*
G01*
X45719849Y-29178284D01*
X45733907Y-29187200D01*
X45728633Y-29192831D01*
X45700336Y-29200020D01*
X45655753Y-29202831D01*
X45627601Y-29201776D01*
X45591657Y-29196117D01*
X45577600Y-29187200D01*
X45582874Y-29181570D01*
X45611171Y-29174381D01*
X45655753Y-29171570D01*
X45683906Y-29172624D01*
G37*
G36*
X45511967Y-30751332D02*
G01*
X45547911Y-30756992D01*
X45561969Y-30765908D01*
X45556695Y-30771539D01*
X45528397Y-30778727D01*
X45483815Y-30781539D01*
X45455663Y-30780484D01*
X45419719Y-30774825D01*
X45405661Y-30765908D01*
X45410935Y-30760278D01*
X45439233Y-30753089D01*
X45483815Y-30750277D01*
X45511967Y-30751332D01*
G37*
G36*
X45382801Y-30710190D02*
G01*
X45390030Y-30726831D01*
X45388068Y-30737438D01*
X45371303Y-30747490D01*
X45331415Y-30747313D01*
X45320903Y-30746190D01*
X45286626Y-30738030D01*
X45272800Y-30726831D01*
X45273750Y-30723949D01*
X45293709Y-30713157D01*
X45331415Y-30706349D01*
X45356333Y-30705135D01*
X45382801Y-30710190D01*
G37*
G36*
X45011195Y-29391794D02*
G01*
X45047652Y-29397471D01*
X45061784Y-29406031D01*
X45054121Y-29412464D01*
X45022895Y-29419092D01*
X44975815Y-29421662D01*
X44940435Y-29420269D01*
X44903978Y-29414591D01*
X44889846Y-29406031D01*
X44897509Y-29399598D01*
X44928735Y-29392970D01*
X44975815Y-29390400D01*
X45011195Y-29391794D01*
G37*
G36*
X44741939Y-29475359D02*
G01*
X44749169Y-29492000D01*
X44747207Y-29502607D01*
X44730442Y-29512659D01*
X44690553Y-29512482D01*
X44680041Y-29511359D01*
X44645764Y-29503200D01*
X44631938Y-29492000D01*
X44632889Y-29489118D01*
X44652848Y-29478326D01*
X44690553Y-29471518D01*
X44715471Y-29470304D01*
X44741939Y-29475359D01*
G37*
G36*
X44575615Y-29515845D02*
G01*
X44610256Y-29521289D01*
X44624123Y-29531077D01*
X44622528Y-29534581D01*
X44600752Y-29543241D01*
X44561600Y-29546708D01*
X44547584Y-29546310D01*
X44512943Y-29540865D01*
X44499076Y-29531077D01*
X44500671Y-29527574D01*
X44522447Y-29518913D01*
X44561600Y-29515447D01*
X44575615Y-29515845D01*
G37*
G36*
X44070973Y-30314116D02*
G01*
X44099941Y-30321318D01*
X44108307Y-30336062D01*
X44103306Y-30348308D01*
X44079301Y-30356998D01*
X44030153Y-30359508D01*
X43989334Y-30358008D01*
X43960366Y-30350806D01*
X43952000Y-30336062D01*
X43957001Y-30323816D01*
X43981005Y-30315126D01*
X44030153Y-30312616D01*
X44070973Y-30314116D01*
G37*
G36*
X43887861Y-30281753D02*
G01*
X43922502Y-30287197D01*
X43936369Y-30296985D01*
X43934774Y-30300489D01*
X43912998Y-30309149D01*
X43873846Y-30312616D01*
X43859831Y-30312217D01*
X43825189Y-30306773D01*
X43811323Y-30296985D01*
X43812917Y-30293481D01*
X43834694Y-30284821D01*
X43873846Y-30281354D01*
X43887861Y-30281753D01*
G37*
G36*
X43856599Y-29734676D02*
G01*
X43891240Y-29740120D01*
X43905107Y-29749908D01*
X43903513Y-29753412D01*
X43881736Y-29762072D01*
X43842584Y-29765539D01*
X43828569Y-29765140D01*
X43793928Y-29759696D01*
X43780061Y-29749908D01*
X43781655Y-29746404D01*
X43803432Y-29737744D01*
X43842584Y-29734277D01*
X43856599Y-29734676D01*
G37*
G36*
X43590876Y-29812830D02*
G01*
X43625517Y-29818274D01*
X43639384Y-29828062D01*
X43637790Y-29831566D01*
X43616013Y-29840226D01*
X43576861Y-29843693D01*
X43562846Y-29843294D01*
X43528205Y-29837850D01*
X43514338Y-29828062D01*
X43515932Y-29824558D01*
X43537709Y-29815898D01*
X43576861Y-29812431D01*
X43590876Y-29812830D01*
G37*
G36*
X43468029Y-30156309D02*
G01*
X43500755Y-30160964D01*
X43514338Y-30171939D01*
X43514334Y-30172133D01*
X43500370Y-30183042D01*
X43467446Y-30187570D01*
X43466862Y-30187568D01*
X43434136Y-30182914D01*
X43420553Y-30171939D01*
X43420557Y-30171744D01*
X43434521Y-30160836D01*
X43467446Y-30156308D01*
X43468029Y-30156309D01*
G37*
G36*
X43448706Y-29860378D02*
G01*
X43484649Y-29866038D01*
X43498707Y-29874954D01*
X43493433Y-29880585D01*
X43465136Y-29887773D01*
X43420553Y-29890585D01*
X43392401Y-29889530D01*
X43356457Y-29883871D01*
X43342400Y-29874954D01*
X43347674Y-29869324D01*
X43375971Y-29862135D01*
X43420553Y-29859324D01*
X43448706Y-29860378D01*
G37*
G36*
X43323659Y-30110471D02*
G01*
X43359603Y-30116130D01*
X43373661Y-30125047D01*
X43368387Y-30130677D01*
X43340090Y-30137866D01*
X43295507Y-30140677D01*
X43267355Y-30139623D01*
X43231411Y-30133963D01*
X43217353Y-30125047D01*
X43222628Y-30119416D01*
X43250925Y-30112227D01*
X43295507Y-30109416D01*
X43323659Y-30110471D01*
G37*
G36*
X43122614Y-29103125D02*
G01*
X43127265Y-29135651D01*
X43126143Y-29194983D01*
X43125776Y-29201636D01*
X43119469Y-29261554D01*
X43110816Y-29290852D01*
X43101969Y-29289531D01*
X43095081Y-29257586D01*
X43092307Y-29195016D01*
X43093766Y-29144329D01*
X43100080Y-29105701D01*
X43111846Y-29093383D01*
X43122614Y-29103125D01*
G37*
G36*
X50290847Y-30187574D02*
G01*
X50333460Y-30192890D01*
X50354747Y-30206193D01*
X50349770Y-30224466D01*
X50349070Y-30225071D01*
X50326147Y-30231724D01*
X50287671Y-30234462D01*
X50287286Y-30234462D01*
X50248069Y-30228754D01*
X50235569Y-30211016D01*
X50235615Y-30209547D01*
X50249258Y-30192836D01*
X50289354Y-30187570D01*
X50290847Y-30187574D01*
G37*
G36*
X50009156Y-29642684D02*
G01*
X50041081Y-29650842D01*
X50048670Y-29663011D01*
X50028461Y-29677033D01*
X50025589Y-29678020D01*
X49994158Y-29683334D01*
X49950307Y-29686151D01*
X49936400Y-29686163D01*
X49902058Y-29680359D01*
X49891692Y-29663939D01*
X49896693Y-29651693D01*
X49920698Y-29643003D01*
X49969846Y-29640493D01*
X50009156Y-29642684D01*
G37*
G36*
X49814721Y-29593912D02*
G01*
X49863286Y-29599851D01*
X49886216Y-29612436D01*
X49880846Y-29630497D01*
X49873539Y-29633729D01*
X49841500Y-29638582D01*
X49795302Y-29640493D01*
X49758064Y-29639174D01*
X49728375Y-29632014D01*
X49719753Y-29617047D01*
X49724485Y-29605037D01*
X49748161Y-29596167D01*
X49796985Y-29593600D01*
X49814721Y-29593912D01*
G37*
G36*
X48665247Y-29249728D02*
G01*
X48707860Y-29255044D01*
X48729147Y-29268346D01*
X48724170Y-29286620D01*
X48723470Y-29287225D01*
X48700547Y-29293877D01*
X48662071Y-29296616D01*
X48661686Y-29296616D01*
X48622469Y-29290908D01*
X48609969Y-29273170D01*
X48610015Y-29271701D01*
X48623658Y-29254990D01*
X48663754Y-29249724D01*
X48665247Y-29249728D01*
G37*
G36*
X46931852Y-26276930D02*
G01*
X46937476Y-26316349D01*
X46937458Y-26319518D01*
X46934337Y-26357317D01*
X46927481Y-26378447D01*
X46926913Y-26379003D01*
X46908740Y-26383155D01*
X46895626Y-26361186D01*
X46890584Y-26318032D01*
X46890604Y-26314663D01*
X46896552Y-26276327D01*
X46914030Y-26264247D01*
X46914204Y-26264247D01*
X46931852Y-26276930D01*
G37*
G36*
X46333723Y-28302111D02*
G01*
X46340416Y-28354862D01*
X46340957Y-28364951D01*
X46341117Y-28409532D01*
X46334722Y-28431225D01*
X46320061Y-28436924D01*
X46318658Y-28436898D01*
X46304431Y-28430050D01*
X46298717Y-28406261D01*
X46299706Y-28358565D01*
X46302939Y-28324753D01*
X46312155Y-28287313D01*
X46323359Y-28279680D01*
X46333723Y-28302111D01*
G37*
G36*
X46337882Y-31622653D02*
G01*
X46343507Y-31662072D01*
X46343489Y-31665241D01*
X46340368Y-31703040D01*
X46333512Y-31724170D01*
X46332944Y-31724726D01*
X46314771Y-31728878D01*
X46301656Y-31706909D01*
X46296615Y-31663755D01*
X46296635Y-31660386D01*
X46302582Y-31622050D01*
X46320061Y-31609970D01*
X46320235Y-31609970D01*
X46337882Y-31622653D01*
G37*
G36*
X45969551Y-29078097D02*
G01*
X46018117Y-29084035D01*
X46041047Y-29096621D01*
X46035677Y-29114682D01*
X46028370Y-29117913D01*
X45996331Y-29122767D01*
X45950133Y-29124677D01*
X45912894Y-29123358D01*
X45883206Y-29116199D01*
X45874584Y-29101231D01*
X45879316Y-29089221D01*
X45902992Y-29080352D01*
X45951816Y-29077785D01*
X45969551Y-29078097D01*
G37*
G36*
X45804816Y-29124682D02*
G01*
X45847430Y-29129998D01*
X45868716Y-29143300D01*
X45863739Y-29161574D01*
X45863039Y-29162178D01*
X45840116Y-29168831D01*
X45801641Y-29171570D01*
X45801255Y-29171569D01*
X45762038Y-29165862D01*
X45749538Y-29148124D01*
X45749584Y-29146655D01*
X45763227Y-29129944D01*
X45803323Y-29124677D01*
X45804816Y-29124682D01*
G37*
G36*
X44820078Y-29421667D02*
G01*
X44862691Y-29426983D01*
X44883978Y-29440285D01*
X44879000Y-29458559D01*
X44878301Y-29459163D01*
X44855378Y-29465816D01*
X44816902Y-29468554D01*
X44816517Y-29468554D01*
X44777299Y-29462847D01*
X44764800Y-29445108D01*
X44764846Y-29443640D01*
X44778489Y-29426928D01*
X44818585Y-29421662D01*
X44820078Y-29421667D01*
G37*
G36*
X43120972Y-30713916D02*
G01*
X43125411Y-30754185D01*
X43127145Y-30800444D01*
X43129319Y-30855782D01*
X43125719Y-30892506D01*
X43111846Y-30906582D01*
X43102085Y-30898977D01*
X43094669Y-30866149D01*
X43092307Y-30804985D01*
X43092525Y-30790030D01*
X43096660Y-30742450D01*
X43104307Y-30711562D01*
X43113174Y-30700879D01*
X43120972Y-30713916D01*
G37*
G36*
X47348291Y-27078429D02*
G01*
X47355067Y-27099397D01*
X47358726Y-27137025D01*
X47359051Y-27180208D01*
X47355824Y-27217843D01*
X47348826Y-27238825D01*
X47343792Y-27241803D01*
X47324140Y-27235500D01*
X47322257Y-27232862D01*
X47317656Y-27206842D01*
X47319226Y-27166973D01*
X47325436Y-27124533D01*
X47334755Y-27090798D01*
X47345651Y-27077047D01*
X47348291Y-27078429D01*
G37*
G36*
X50899633Y-30715543D02*
G01*
X50905483Y-30751893D01*
X50907692Y-30804985D01*
X50907359Y-30837413D01*
X50904216Y-30880033D01*
X50896472Y-30900995D01*
X50882573Y-30906585D01*
X50868394Y-30902759D01*
X50866943Y-30881860D01*
X50869858Y-30870528D01*
X50874570Y-30830686D01*
X50876430Y-30780260D01*
X50877430Y-30753282D01*
X50883082Y-30717430D01*
X50892061Y-30703385D01*
X50899633Y-30715543D01*
G37*
G36*
X50890591Y-29094762D02*
G01*
X50901128Y-29107477D01*
X50906310Y-29138800D01*
X50907692Y-29195016D01*
X50905821Y-29244233D01*
X50900229Y-29282261D01*
X50892061Y-29296616D01*
X50886576Y-29291701D01*
X50879286Y-29263902D01*
X50876430Y-29219740D01*
X50875969Y-29194917D01*
X50872568Y-29147869D01*
X50866943Y-29118140D01*
X50864920Y-29102738D01*
X50882573Y-29093416D01*
X50890591Y-29094762D01*
G37*
G36*
X43634863Y-30213965D02*
G01*
X43638192Y-30218845D01*
X43668530Y-30230493D01*
X43727026Y-30234462D01*
X43760852Y-30235783D01*
X43797205Y-30241460D01*
X43811323Y-30250093D01*
X43803659Y-30256525D01*
X43772433Y-30263154D01*
X43725353Y-30265724D01*
X43689973Y-30264330D01*
X43653517Y-30258653D01*
X43639384Y-30250093D01*
X43639004Y-30248237D01*
X43621391Y-30238450D01*
X43585599Y-30234462D01*
X43542767Y-30230272D01*
X43524607Y-30220343D01*
X43533348Y-30208865D01*
X43570793Y-30200030D01*
X43613085Y-30199981D01*
X43634863Y-30213965D01*
G37*
G36*
X49701651Y-30359565D02*
G01*
X49739264Y-30365685D01*
X49751015Y-30382954D01*
X49749880Y-30389695D01*
X49731966Y-30402529D01*
X49688492Y-30406400D01*
X49674477Y-30406799D01*
X49639836Y-30412243D01*
X49625969Y-30422031D01*
X49624374Y-30425535D01*
X49602598Y-30434195D01*
X49563446Y-30437662D01*
X49549431Y-30437263D01*
X49514789Y-30431819D01*
X49500923Y-30422031D01*
X49502230Y-30418811D01*
X49523244Y-30409956D01*
X49561773Y-30406400D01*
X49608426Y-30400721D01*
X49631621Y-30382954D01*
X49651491Y-30366223D01*
X49695817Y-30359508D01*
X49701651Y-30359565D01*
G37*
G36*
X47253596Y-33065226D02*
G01*
X47262256Y-33087002D01*
X47265723Y-33126154D01*
X47265324Y-33140169D01*
X47259880Y-33174811D01*
X47250092Y-33188677D01*
X47246376Y-33190511D01*
X47237862Y-33212872D01*
X47234461Y-33252503D01*
X47234074Y-33266261D01*
X47226525Y-33302168D01*
X47213278Y-33310267D01*
X47199543Y-33291319D01*
X47190533Y-33246084D01*
X47189384Y-33225212D01*
X47193883Y-33196699D01*
X47210071Y-33188677D01*
X47218486Y-33187111D01*
X47230841Y-33169047D01*
X47234461Y-33126154D01*
X47234860Y-33112139D01*
X47240304Y-33077498D01*
X47250092Y-33063631D01*
X47253596Y-33065226D01*
G37*
G36*
X46800491Y-26709001D02*
G01*
X46809466Y-26753916D01*
X46810615Y-26774789D01*
X46806116Y-26803301D01*
X46789928Y-26811324D01*
X46781513Y-26812890D01*
X46769158Y-26830954D01*
X46765538Y-26873847D01*
X46765299Y-26887259D01*
X46758971Y-26924692D01*
X46743075Y-26936370D01*
X46734368Y-26934549D01*
X46726507Y-26917704D01*
X46729874Y-26877754D01*
X46731633Y-26867750D01*
X46741582Y-26831310D01*
X46752337Y-26813929D01*
X46755128Y-26811412D01*
X46762557Y-26786832D01*
X46765538Y-26746195D01*
X46765931Y-26732541D01*
X46773502Y-26697395D01*
X46786763Y-26689854D01*
X46800491Y-26709001D01*
G37*
G36*
X46198378Y-28729168D02*
G01*
X46205229Y-28782791D01*
X46206161Y-28800465D01*
X46203574Y-28849742D01*
X46191107Y-28870433D01*
X46190229Y-28870820D01*
X46177020Y-28891410D01*
X46171569Y-28928360D01*
X46171564Y-28929979D01*
X46168397Y-28967678D01*
X46161148Y-28989211D01*
X46142261Y-28999675D01*
X46129092Y-28983271D01*
X46124676Y-28937108D01*
X46125102Y-28919133D01*
X46131820Y-28884909D01*
X46148123Y-28874585D01*
X46162078Y-28867152D01*
X46169464Y-28840460D01*
X46171569Y-28788616D01*
X46173052Y-28748513D01*
X46179598Y-28712494D01*
X46188937Y-28705890D01*
X46198378Y-28729168D01*
G37*
G36*
X47816303Y-28704241D02*
G01*
X47824964Y-28726018D01*
X47828430Y-28765170D01*
X47828856Y-28783145D01*
X47835574Y-28817368D01*
X47851876Y-28827693D01*
X47852136Y-28827694D01*
X47866073Y-28835554D01*
X47873274Y-28862679D01*
X47875323Y-28914965D01*
X47871914Y-28966588D01*
X47862446Y-28994950D01*
X47850289Y-28994393D01*
X47838846Y-28965418D01*
X47831521Y-28908526D01*
X47828626Y-28877939D01*
X47821139Y-28841788D01*
X47811983Y-28827693D01*
X47808664Y-28826100D01*
X47800455Y-28804324D01*
X47797169Y-28765170D01*
X47797567Y-28751155D01*
X47803012Y-28716513D01*
X47812800Y-28702647D01*
X47816303Y-28704241D01*
G37*
G36*
X47729309Y-31438165D02*
G01*
X47745285Y-31452573D01*
X47750276Y-31493229D01*
X47744564Y-31534811D01*
X47726830Y-31557425D01*
X47721412Y-31560473D01*
X47707728Y-31587050D01*
X47703384Y-31640298D01*
X47702891Y-31663664D01*
X47699305Y-31703824D01*
X47693389Y-31724170D01*
X47687874Y-31728664D01*
X47671221Y-31725881D01*
X47660370Y-31695541D01*
X47656492Y-31640309D01*
X47657928Y-31600749D01*
X47665116Y-31571532D01*
X47679938Y-31563077D01*
X47686679Y-31561943D01*
X47699513Y-31544028D01*
X47703384Y-31500554D01*
X47703810Y-31482579D01*
X47710528Y-31448355D01*
X47726830Y-31438031D01*
X47729309Y-31438165D01*
G37*
G36*
X46149710Y-31005607D02*
G01*
X46161153Y-31034582D01*
X46168478Y-31091475D01*
X46171373Y-31122062D01*
X46178860Y-31158213D01*
X46188016Y-31172308D01*
X46191336Y-31173901D01*
X46199544Y-31195677D01*
X46202830Y-31234831D01*
X46202432Y-31248846D01*
X46196988Y-31283487D01*
X46187200Y-31297354D01*
X46183696Y-31295760D01*
X46175036Y-31273983D01*
X46171569Y-31234831D01*
X46171143Y-31216856D01*
X46164425Y-31182632D01*
X46148123Y-31172308D01*
X46147863Y-31172307D01*
X46133926Y-31164447D01*
X46126725Y-31137322D01*
X46124676Y-31085036D01*
X46128086Y-31033413D01*
X46137553Y-31005051D01*
X46149710Y-31005607D01*
G37*
G36*
X45089349Y-30626625D02*
G01*
X45125805Y-30632302D01*
X45139938Y-30640862D01*
X45141532Y-30644366D01*
X45163309Y-30653026D01*
X45202461Y-30656493D01*
X45220436Y-30656918D01*
X45254660Y-30663636D01*
X45264984Y-30679939D01*
X45263849Y-30686679D01*
X45245935Y-30699513D01*
X45202461Y-30703385D01*
X45184486Y-30702960D01*
X45150262Y-30696242D01*
X45139938Y-30679939D01*
X45132505Y-30665984D01*
X45105813Y-30658598D01*
X45053969Y-30656493D01*
X45018589Y-30655099D01*
X44982132Y-30649422D01*
X44968000Y-30640862D01*
X44975663Y-30634429D01*
X45006889Y-30627801D01*
X45053969Y-30625231D01*
X45089349Y-30626625D01*
G37*
G36*
X44450569Y-29562737D02*
G01*
X44485210Y-29568182D01*
X44499076Y-29577970D01*
X44497482Y-29581473D01*
X44475706Y-29590134D01*
X44436553Y-29593600D01*
X44418579Y-29594026D01*
X44384355Y-29600744D01*
X44374030Y-29617047D01*
X44372896Y-29623787D01*
X44354981Y-29636621D01*
X44311507Y-29640493D01*
X44293532Y-29640067D01*
X44259308Y-29633349D01*
X44248984Y-29617047D01*
X44250119Y-29610306D01*
X44268033Y-29597472D01*
X44311507Y-29593600D01*
X44325522Y-29593202D01*
X44360164Y-29587758D01*
X44374030Y-29577970D01*
X44375625Y-29574466D01*
X44397401Y-29565806D01*
X44436553Y-29562339D01*
X44450569Y-29562737D01*
G37*
G36*
X44242911Y-30361008D02*
G01*
X44271879Y-30368210D01*
X44280246Y-30382954D01*
X44281380Y-30389695D01*
X44299295Y-30402529D01*
X44342769Y-30406400D01*
X44356784Y-30406799D01*
X44391425Y-30412243D01*
X44405292Y-30422031D01*
X44403698Y-30425535D01*
X44381921Y-30434195D01*
X44342769Y-30437662D01*
X44328754Y-30437263D01*
X44294113Y-30431819D01*
X44280246Y-30422031D01*
X44274972Y-30416401D01*
X44246674Y-30409212D01*
X44202092Y-30406400D01*
X44161272Y-30404900D01*
X44132305Y-30397699D01*
X44123938Y-30382954D01*
X44128939Y-30370708D01*
X44152944Y-30362018D01*
X44202092Y-30359508D01*
X44242911Y-30361008D01*
G37*
G36*
X50047165Y-30282440D02*
G01*
X50081194Y-30287511D01*
X50094892Y-30296985D01*
X50087228Y-30303418D01*
X50056002Y-30310046D01*
X50008923Y-30312616D01*
X50004833Y-30312623D01*
X49955181Y-30314874D01*
X49929970Y-30322372D01*
X49922953Y-30336879D01*
X49922901Y-30338722D01*
X49915314Y-30352057D01*
X49890206Y-30357425D01*
X49840892Y-30356417D01*
X49812586Y-30353832D01*
X49775695Y-30344788D01*
X49768815Y-30333676D01*
X49791662Y-30323951D01*
X49843953Y-30319064D01*
X49863588Y-30317957D01*
X49901615Y-30310788D01*
X49919502Y-30299525D01*
X49929053Y-30292118D01*
X49960498Y-30284897D01*
X50003401Y-30281620D01*
X50047165Y-30282440D01*
G37*
G36*
X46753411Y-33065226D02*
G01*
X46762071Y-33087002D01*
X46765538Y-33126154D01*
X46765964Y-33144129D01*
X46772681Y-33178353D01*
X46788984Y-33188677D01*
X46800541Y-33192928D01*
X46809755Y-33215997D01*
X46812430Y-33264226D01*
X46811891Y-33289190D01*
X46808294Y-33329472D01*
X46802435Y-33349770D01*
X46797220Y-33354069D01*
X46780460Y-33351733D01*
X46769479Y-33321967D01*
X46765538Y-33267581D01*
X46765353Y-33254704D01*
X46759117Y-33205709D01*
X46744597Y-33183986D01*
X46732329Y-33170739D01*
X46727664Y-33139329D01*
X46730298Y-33113761D01*
X46732974Y-33083170D01*
X46734519Y-33076075D01*
X46749907Y-33063631D01*
X46753411Y-33065226D01*
G37*
G36*
X44155405Y-29643584D02*
G01*
X44185512Y-29646485D01*
X44222517Y-29655671D01*
X44230953Y-29666597D01*
X44210347Y-29675739D01*
X44160227Y-29679570D01*
X44143998Y-29679934D01*
X44100467Y-29686246D01*
X44080966Y-29699108D01*
X44071137Y-29707026D01*
X44039490Y-29714809D01*
X43996517Y-29718533D01*
X43952765Y-29717966D01*
X43918779Y-29712871D01*
X43905107Y-29703016D01*
X43912771Y-29696583D01*
X43943997Y-29689955D01*
X43991076Y-29687385D01*
X43995166Y-29687378D01*
X44044818Y-29685127D01*
X44070030Y-29677629D01*
X44077046Y-29663122D01*
X44077046Y-29662966D01*
X44083563Y-29648574D01*
X44107435Y-29642674D01*
X44155405Y-29643584D01*
G37*
G36*
X47527101Y-27736878D02*
G01*
X47531446Y-27778759D01*
X47537125Y-27825411D01*
X47554892Y-27848607D01*
X47571623Y-27868476D01*
X47578338Y-27912802D01*
X47578487Y-27920405D01*
X47583674Y-27954251D01*
X47593969Y-27968000D01*
X47600402Y-27975664D01*
X47607030Y-28006890D01*
X47609600Y-28053970D01*
X47608206Y-28089350D01*
X47602529Y-28125806D01*
X47593969Y-28139939D01*
X47587536Y-28132275D01*
X47580908Y-28101049D01*
X47578338Y-28053970D01*
X47576311Y-28002801D01*
X47569031Y-27975719D01*
X47554892Y-27968000D01*
X47548998Y-27967159D01*
X47535535Y-27949991D01*
X47531446Y-27907150D01*
X47525766Y-27860498D01*
X47508000Y-27837302D01*
X47493026Y-27824263D01*
X47484799Y-27788764D01*
X47494041Y-27742633D01*
X47501812Y-27726818D01*
X47516171Y-27718548D01*
X47527101Y-27736878D01*
G37*
G36*
X47597473Y-31861656D02*
G01*
X47606133Y-31883433D01*
X47609600Y-31922585D01*
X47609201Y-31936600D01*
X47603757Y-31971241D01*
X47593969Y-31985108D01*
X47588284Y-31990523D01*
X47581133Y-32019010D01*
X47578338Y-32063753D01*
X47577704Y-32089938D01*
X47570662Y-32132816D01*
X47554892Y-32151394D01*
X47537669Y-32173055D01*
X47531446Y-32222545D01*
X47531242Y-32235183D01*
X47525646Y-32270778D01*
X47511907Y-32278284D01*
X47508968Y-32277015D01*
X47493054Y-32254482D01*
X47487021Y-32218565D01*
X47491470Y-32183389D01*
X47507001Y-32163082D01*
X47518713Y-32153839D01*
X47528522Y-32124041D01*
X47531446Y-32069405D01*
X47533363Y-32020407D01*
X47540630Y-31992952D01*
X47554892Y-31985108D01*
X47561632Y-31983973D01*
X47574466Y-31966059D01*
X47578338Y-31922585D01*
X47578737Y-31908570D01*
X47584181Y-31873929D01*
X47593969Y-31860062D01*
X47597473Y-31861656D01*
G37*
G36*
X47175158Y-26515646D02*
G01*
X47184013Y-26536660D01*
X47187569Y-26575190D01*
X47193249Y-26621842D01*
X47211015Y-26645038D01*
X47218749Y-26650132D01*
X47230726Y-26678349D01*
X47234461Y-26732679D01*
X47235537Y-26761282D01*
X47241199Y-26797261D01*
X47250092Y-26811324D01*
X47253596Y-26812918D01*
X47262256Y-26834694D01*
X47265723Y-26873847D01*
X47265324Y-26887862D01*
X47259880Y-26922503D01*
X47250092Y-26936370D01*
X47246588Y-26934775D01*
X47237928Y-26912999D01*
X47234461Y-26873847D01*
X47234036Y-26855872D01*
X47227318Y-26821648D01*
X47211015Y-26811324D01*
X47197313Y-26804313D01*
X47189733Y-26778058D01*
X47187569Y-26726657D01*
X47186400Y-26692680D01*
X47181244Y-26653977D01*
X47173370Y-26636780D01*
X47163119Y-26625929D01*
X47154759Y-26595592D01*
X47153346Y-26558666D01*
X47159025Y-26527474D01*
X47171938Y-26514339D01*
X47175158Y-26515646D01*
G37*
G36*
X50134553Y-29689070D02*
G01*
X50172404Y-29696896D01*
X50198725Y-29710831D01*
X50202624Y-29714156D01*
X50239086Y-29728712D01*
X50291393Y-29734277D01*
X50311404Y-29734947D01*
X50346658Y-29740524D01*
X50360615Y-29749908D01*
X50362209Y-29753412D01*
X50383986Y-29762072D01*
X50423138Y-29765539D01*
X50437153Y-29765937D01*
X50471794Y-29771382D01*
X50485661Y-29781170D01*
X50484067Y-29784673D01*
X50462290Y-29793334D01*
X50423138Y-29796800D01*
X50409123Y-29796402D01*
X50374482Y-29790958D01*
X50360615Y-29781170D01*
X50352952Y-29774737D01*
X50321725Y-29768108D01*
X50274646Y-29765539D01*
X50223477Y-29763512D01*
X50196395Y-29756232D01*
X50188676Y-29742093D01*
X50187542Y-29735352D01*
X50169628Y-29722518D01*
X50126153Y-29718647D01*
X50112138Y-29718248D01*
X50077497Y-29712804D01*
X50063630Y-29703016D01*
X50069697Y-29694375D01*
X50096532Y-29688011D01*
X50134553Y-29689070D01*
G37*
G36*
X49108538Y-29390799D02*
G01*
X49143179Y-29396243D01*
X49157046Y-29406031D01*
X49158640Y-29409535D01*
X49180417Y-29418195D01*
X49219569Y-29421662D01*
X49237544Y-29422087D01*
X49271768Y-29428805D01*
X49282092Y-29445108D01*
X49289525Y-29459063D01*
X49316217Y-29466449D01*
X49368061Y-29468554D01*
X49379635Y-29468699D01*
X49425802Y-29473092D01*
X49451391Y-29482006D01*
X49452862Y-29493259D01*
X49426676Y-29504672D01*
X49403133Y-29509750D01*
X49350505Y-29513785D01*
X49308858Y-29507578D01*
X49287744Y-29492000D01*
X49266428Y-29474865D01*
X49217896Y-29468554D01*
X49202599Y-29468230D01*
X49167658Y-29461615D01*
X49157046Y-29445108D01*
X49155911Y-29438368D01*
X49137997Y-29425534D01*
X49094523Y-29421662D01*
X49080508Y-29421263D01*
X49045866Y-29415819D01*
X49032000Y-29406031D01*
X49033594Y-29402527D01*
X49055371Y-29393867D01*
X49094523Y-29390400D01*
X49108538Y-29390799D01*
G37*
G36*
X48111956Y-29085190D02*
G01*
X48150885Y-29095084D01*
X48169366Y-29108038D01*
X48171650Y-29111307D01*
X48195868Y-29120842D01*
X48236133Y-29124677D01*
X48252027Y-29125023D01*
X48286806Y-29131662D01*
X48297353Y-29148124D01*
X48298488Y-29154864D01*
X48316402Y-29167698D01*
X48359876Y-29171570D01*
X48373892Y-29171968D01*
X48408533Y-29177412D01*
X48422400Y-29187200D01*
X48420805Y-29190704D01*
X48399029Y-29199364D01*
X48359876Y-29202831D01*
X48345861Y-29202433D01*
X48311220Y-29196988D01*
X48297353Y-29187200D01*
X48296828Y-29185048D01*
X48278510Y-29175463D01*
X48242155Y-29171570D01*
X48200574Y-29165857D01*
X48177960Y-29148124D01*
X48163663Y-29134445D01*
X48129493Y-29126916D01*
X48069957Y-29124677D01*
X48029125Y-29123329D01*
X47984327Y-29117138D01*
X47961234Y-29107428D01*
X47963020Y-29095868D01*
X47992858Y-29084127D01*
X48015839Y-29080419D01*
X48063350Y-29079815D01*
X48111956Y-29085190D01*
G37*
G36*
X45654138Y-30797568D02*
G01*
X45688779Y-30803012D01*
X45702646Y-30812800D01*
X45703171Y-30814953D01*
X45721489Y-30824538D01*
X45757844Y-30828431D01*
X45799425Y-30834144D01*
X45822039Y-30851877D01*
X45822056Y-30851920D01*
X45836760Y-30865732D01*
X45871182Y-30873128D01*
X45930964Y-30875324D01*
X45973195Y-30876260D01*
X46015596Y-30881915D01*
X46030627Y-30893463D01*
X46020471Y-30911795D01*
X46010039Y-30915789D01*
X45974985Y-30920414D01*
X45926196Y-30922216D01*
X45890932Y-30921191D01*
X45850680Y-30913969D01*
X45833344Y-30898770D01*
X45812028Y-30881634D01*
X45763496Y-30875324D01*
X45748199Y-30874999D01*
X45713258Y-30868385D01*
X45702646Y-30851877D01*
X45701511Y-30845137D01*
X45683597Y-30832303D01*
X45640123Y-30828431D01*
X45626108Y-30828033D01*
X45591466Y-30822588D01*
X45577600Y-30812800D01*
X45579194Y-30809297D01*
X45600971Y-30800636D01*
X45640123Y-30797170D01*
X45654138Y-30797568D01*
G37*
G36*
X46412463Y-31867725D02*
G01*
X46419092Y-31898952D01*
X46421661Y-31946031D01*
X46423688Y-31997200D01*
X46430968Y-32024282D01*
X46445107Y-32032000D01*
X46451002Y-32032841D01*
X46464464Y-32050009D01*
X46468553Y-32092851D01*
X46474233Y-32139503D01*
X46492000Y-32162699D01*
X46508731Y-32182569D01*
X46515446Y-32226894D01*
X46515595Y-32234497D01*
X46520782Y-32268343D01*
X46531076Y-32282093D01*
X46537509Y-32289756D01*
X46544138Y-32320982D01*
X46546707Y-32368062D01*
X46545314Y-32403442D01*
X46539636Y-32439899D01*
X46531076Y-32454031D01*
X46524644Y-32446368D01*
X46518015Y-32415142D01*
X46515446Y-32368062D01*
X46513419Y-32316893D01*
X46506139Y-32289811D01*
X46492000Y-32282093D01*
X46486105Y-32281252D01*
X46472642Y-32264084D01*
X46468553Y-32221242D01*
X46462874Y-32174590D01*
X46445107Y-32151394D01*
X46428376Y-32131524D01*
X46421661Y-32087199D01*
X46421512Y-32079596D01*
X46416325Y-32045750D01*
X46406030Y-32032000D01*
X46399598Y-32024337D01*
X46392969Y-31993111D01*
X46390400Y-31946031D01*
X46391793Y-31910651D01*
X46397470Y-31874195D01*
X46406030Y-31860062D01*
X46412463Y-31867725D01*
G37*
G36*
X48889707Y-30625630D02*
G01*
X48924348Y-30631074D01*
X48938215Y-30640862D01*
X48936621Y-30644366D01*
X48914844Y-30653026D01*
X48875692Y-30656493D01*
X48857717Y-30656918D01*
X48823493Y-30663636D01*
X48813169Y-30679939D01*
X48812328Y-30685833D01*
X48795160Y-30699296D01*
X48752318Y-30703385D01*
X48705666Y-30709065D01*
X48682470Y-30726831D01*
X48662601Y-30743562D01*
X48618275Y-30750277D01*
X48610672Y-30750426D01*
X48576826Y-30755613D01*
X48563076Y-30765908D01*
X48561482Y-30769412D01*
X48539706Y-30778072D01*
X48500553Y-30781539D01*
X48486538Y-30781140D01*
X48451897Y-30775696D01*
X48438030Y-30765908D01*
X48439625Y-30762404D01*
X48461401Y-30753744D01*
X48500553Y-30750277D01*
X48518528Y-30749852D01*
X48552752Y-30743134D01*
X48563076Y-30726831D01*
X48564211Y-30720091D01*
X48582125Y-30707257D01*
X48625600Y-30703385D01*
X48643574Y-30702960D01*
X48677798Y-30696242D01*
X48688123Y-30679939D01*
X48689257Y-30673198D01*
X48707172Y-30660364D01*
X48750646Y-30656493D01*
X48764661Y-30656094D01*
X48799302Y-30650650D01*
X48813169Y-30640862D01*
X48814763Y-30637358D01*
X48836540Y-30628698D01*
X48875692Y-30625231D01*
X48889707Y-30625630D01*
G37*
G36*
X46534580Y-27594456D02*
G01*
X46543241Y-27616233D01*
X46546707Y-27655385D01*
X46546309Y-27669400D01*
X46540865Y-27704041D01*
X46531076Y-27717908D01*
X46528924Y-27718434D01*
X46519339Y-27736752D01*
X46515446Y-27773106D01*
X46509733Y-27814687D01*
X46492000Y-27837302D01*
X46482099Y-27844908D01*
X46471731Y-27874892D01*
X46468553Y-27930596D01*
X46466637Y-27979594D01*
X46459369Y-28007049D01*
X46445107Y-28014893D01*
X46438367Y-28016027D01*
X46425533Y-28033942D01*
X46421661Y-28077416D01*
X46421263Y-28091431D01*
X46415818Y-28126072D01*
X46406030Y-28139939D01*
X46402527Y-28138345D01*
X46393866Y-28116568D01*
X46390400Y-28077416D01*
X46390798Y-28063401D01*
X46396242Y-28028760D01*
X46406030Y-28014893D01*
X46411715Y-28009478D01*
X46418866Y-27980991D01*
X46421661Y-27936248D01*
X46422295Y-27910063D01*
X46429337Y-27867185D01*
X46445107Y-27848607D01*
X46462243Y-27827290D01*
X46468553Y-27778759D01*
X46468877Y-27763461D01*
X46475492Y-27728521D01*
X46492000Y-27717908D01*
X46498740Y-27716773D01*
X46511574Y-27698859D01*
X46515446Y-27655385D01*
X46515844Y-27641370D01*
X46521288Y-27606729D01*
X46531076Y-27592862D01*
X46534580Y-27594456D01*
G37*
G36*
X45513461Y-29218861D02*
G01*
X45548102Y-29224305D01*
X45561969Y-29234093D01*
X45560374Y-29237597D01*
X45538598Y-29246257D01*
X45499446Y-29249724D01*
X45481471Y-29250149D01*
X45447247Y-29256867D01*
X45436923Y-29273170D01*
X45435788Y-29279910D01*
X45417874Y-29292744D01*
X45374400Y-29296616D01*
X45356425Y-29297041D01*
X45322201Y-29303759D01*
X45311876Y-29320062D01*
X45310742Y-29326803D01*
X45292828Y-29339637D01*
X45249353Y-29343508D01*
X45235338Y-29343907D01*
X45200697Y-29349351D01*
X45186830Y-29359139D01*
X45185236Y-29362643D01*
X45163459Y-29371303D01*
X45124307Y-29374770D01*
X45110292Y-29374371D01*
X45075651Y-29368927D01*
X45061784Y-29359139D01*
X45063379Y-29355635D01*
X45085155Y-29346975D01*
X45124307Y-29343508D01*
X45142282Y-29343083D01*
X45176506Y-29336365D01*
X45186830Y-29320062D01*
X45187671Y-29314168D01*
X45204839Y-29300705D01*
X45247681Y-29296616D01*
X45294333Y-29290936D01*
X45317529Y-29273170D01*
X45337399Y-29256439D01*
X45381724Y-29249724D01*
X45389327Y-29249575D01*
X45423173Y-29244387D01*
X45436923Y-29234093D01*
X45438517Y-29230589D01*
X45460294Y-29221929D01*
X45499446Y-29218462D01*
X45513461Y-29218861D01*
G37*
G36*
X44497461Y-30453691D02*
G01*
X44532102Y-30459135D01*
X44545969Y-30468924D01*
X44551384Y-30474608D01*
X44579870Y-30481759D01*
X44624613Y-30484554D01*
X44650799Y-30485188D01*
X44693676Y-30492230D01*
X44712255Y-30508000D01*
X44733571Y-30525136D01*
X44782103Y-30531447D01*
X44797400Y-30531771D01*
X44832341Y-30538386D01*
X44842953Y-30554893D01*
X44844088Y-30561633D01*
X44862002Y-30574467D01*
X44905476Y-30578339D01*
X44919492Y-30578737D01*
X44954133Y-30584182D01*
X44968000Y-30593970D01*
X44966405Y-30597473D01*
X44944629Y-30606134D01*
X44905476Y-30609600D01*
X44891461Y-30609202D01*
X44856820Y-30603758D01*
X44842953Y-30593970D01*
X44842428Y-30591817D01*
X44824110Y-30582232D01*
X44787755Y-30578339D01*
X44746174Y-30572626D01*
X44723560Y-30554893D01*
X44715954Y-30544992D01*
X44685969Y-30534625D01*
X44630266Y-30531447D01*
X44581267Y-30529530D01*
X44553813Y-30522262D01*
X44545969Y-30508000D01*
X44544834Y-30501260D01*
X44526920Y-30488426D01*
X44483446Y-30484554D01*
X44469431Y-30484156D01*
X44434789Y-30478712D01*
X44420923Y-30468924D01*
X44422517Y-30465420D01*
X44444294Y-30456759D01*
X44483446Y-30453293D01*
X44497461Y-30453691D01*
G37*
G36*
X46929828Y-26084155D02*
G01*
X46898400Y-26092308D01*
X46872699Y-26096189D01*
X46859323Y-26107939D01*
X46849364Y-26118280D01*
X46819755Y-26123570D01*
X46792008Y-26129172D01*
X46771191Y-26147016D01*
X46758191Y-26161346D01*
X46726461Y-26170462D01*
X46702733Y-26175384D01*
X46681732Y-26193908D01*
X46666456Y-26209076D01*
X46633167Y-26217354D01*
X46607214Y-26221959D01*
X46593600Y-26240800D01*
X46585951Y-26256094D01*
X46554523Y-26264247D01*
X46528822Y-26268127D01*
X46515446Y-26279877D01*
X46505487Y-26290218D01*
X46475878Y-26295508D01*
X46448131Y-26301111D01*
X46427314Y-26318954D01*
X46414314Y-26333285D01*
X46382584Y-26342400D01*
X46358856Y-26347322D01*
X46337855Y-26365847D01*
X46322579Y-26381014D01*
X46289290Y-26389293D01*
X46263337Y-26393898D01*
X46249723Y-26412739D01*
X46242074Y-26428032D01*
X46210646Y-26436185D01*
X46184951Y-26439806D01*
X46171569Y-26450778D01*
X46159808Y-26462134D01*
X46128584Y-26470316D01*
X46085600Y-26475262D01*
X46081549Y-27268524D01*
X46077817Y-27999262D01*
X46077498Y-28061785D01*
X45608718Y-28061785D01*
X45565079Y-28061819D01*
X45451096Y-28062242D01*
X45349269Y-28063099D01*
X45263419Y-28064326D01*
X45197366Y-28065859D01*
X45154932Y-28067636D01*
X45139938Y-28069592D01*
X45147768Y-28080779D01*
X45175408Y-28111460D01*
X45220115Y-28158271D01*
X45278884Y-28218266D01*
X45348706Y-28288499D01*
X45426575Y-28366025D01*
X45509485Y-28447898D01*
X45594429Y-28531171D01*
X45678400Y-28612900D01*
X45758392Y-28690136D01*
X45831399Y-28759936D01*
X45894412Y-28819353D01*
X45944426Y-28865441D01*
X45978435Y-28895254D01*
X45993431Y-28905847D01*
X46016490Y-28915921D01*
X46050422Y-28942152D01*
X46085719Y-28975968D01*
X46113448Y-29008781D01*
X46124676Y-29032006D01*
X46125364Y-29036105D01*
X46141510Y-29046524D01*
X46151951Y-29050015D01*
X46180294Y-29070575D01*
X46212451Y-29101296D01*
X46238801Y-29132557D01*
X46249723Y-29154737D01*
X46252378Y-29162494D01*
X46273169Y-29171570D01*
X46284103Y-29174293D01*
X46296615Y-29195016D01*
X46298441Y-29205810D01*
X46312773Y-29218462D01*
X46324851Y-29223286D01*
X46353150Y-29245207D01*
X46384964Y-29276344D01*
X46410925Y-29307234D01*
X46421661Y-29328416D01*
X46424302Y-29335354D01*
X46445107Y-29343508D01*
X46456042Y-29346231D01*
X46468553Y-29366954D01*
X46470450Y-29377758D01*
X46485301Y-29390400D01*
X46508881Y-29400108D01*
X46534867Y-29425291D01*
X46546707Y-29451807D01*
X46549362Y-29459524D01*
X46570153Y-29468554D01*
X46581088Y-29471278D01*
X46593600Y-29492000D01*
X46596323Y-29502935D01*
X46617046Y-29515447D01*
X46627980Y-29518170D01*
X46640492Y-29538893D01*
X46642388Y-29549696D01*
X46657239Y-29562339D01*
X46680819Y-29572046D01*
X46706806Y-29597229D01*
X46718646Y-29623745D01*
X46721300Y-29631462D01*
X46742092Y-29640493D01*
X46753026Y-29643216D01*
X46765538Y-29663939D01*
X46768261Y-29674873D01*
X46788984Y-29687385D01*
X46799918Y-29690108D01*
X46812430Y-29710831D01*
X46814194Y-29721617D01*
X46828061Y-29734277D01*
X46838656Y-29746079D01*
X46843195Y-29777262D01*
X46842295Y-29800081D01*
X46836757Y-29809144D01*
X46821933Y-29792893D01*
X46806264Y-29776783D01*
X46783353Y-29765539D01*
X46776166Y-29763760D01*
X46765538Y-29744734D01*
X46755018Y-29724939D01*
X46726461Y-29703016D01*
X46699855Y-29683176D01*
X46687384Y-29661298D01*
X46684691Y-29651645D01*
X46663938Y-29640493D01*
X46653004Y-29637769D01*
X46640492Y-29617047D01*
X46637769Y-29606112D01*
X46617046Y-29593600D01*
X46606242Y-29591704D01*
X46593600Y-29576853D01*
X46583892Y-29553273D01*
X46558709Y-29527286D01*
X46532193Y-29515447D01*
X46524476Y-29512792D01*
X46515446Y-29492000D01*
X46512722Y-29481066D01*
X46492000Y-29468554D01*
X46481065Y-29465831D01*
X46468553Y-29445108D01*
X46465830Y-29434174D01*
X46445107Y-29421662D01*
X46434304Y-29419766D01*
X46421661Y-29404915D01*
X46411954Y-29381335D01*
X46386771Y-29355348D01*
X46360255Y-29343508D01*
X46352538Y-29340854D01*
X46343507Y-29320062D01*
X46340784Y-29309128D01*
X46320061Y-29296616D01*
X46309127Y-29293892D01*
X46296615Y-29273170D01*
X46294225Y-29262292D01*
X46275810Y-29249724D01*
X46256015Y-29239203D01*
X46234092Y-29210647D01*
X46214252Y-29184041D01*
X46192374Y-29171570D01*
X46182721Y-29168876D01*
X46171569Y-29148124D01*
X46168845Y-29137189D01*
X46148123Y-29124677D01*
X46137188Y-29121954D01*
X46124676Y-29101231D01*
X46117028Y-29085938D01*
X46085600Y-29077785D01*
X46078398Y-29077620D01*
X46052979Y-29068454D01*
X46046523Y-29038708D01*
X46045403Y-29021715D01*
X46033143Y-29003837D01*
X45999630Y-28999631D01*
X45999027Y-28999630D01*
X45966314Y-28994558D01*
X45952738Y-28982606D01*
X45945225Y-28967597D01*
X45920364Y-28937238D01*
X45885396Y-28900566D01*
X45847918Y-28865082D01*
X45815529Y-28838291D01*
X45795830Y-28827693D01*
X45791473Y-28826959D01*
X45780800Y-28810668D01*
X45773286Y-28795658D01*
X45748426Y-28765299D01*
X45713457Y-28728627D01*
X45675979Y-28693144D01*
X45643591Y-28666352D01*
X45623892Y-28655754D01*
X45620304Y-28655301D01*
X45608861Y-28640103D01*
X45600128Y-28628230D01*
X45572577Y-28597582D01*
X45529803Y-28552130D01*
X45475495Y-28495609D01*
X45413342Y-28431754D01*
X45347033Y-28364297D01*
X45280256Y-28296974D01*
X45216699Y-28233517D01*
X45160053Y-28177663D01*
X45114004Y-28133143D01*
X45082242Y-28103693D01*
X45068456Y-28093047D01*
X45068074Y-28093866D01*
X45066321Y-28115484D01*
X45064485Y-28163564D01*
X45063724Y-28192966D01*
X45062657Y-28234201D01*
X45060927Y-28323493D01*
X45059383Y-28427537D01*
X45058116Y-28542431D01*
X45053969Y-28991816D01*
X44112215Y-28995846D01*
X43170461Y-28999875D01*
X43170461Y-29038830D01*
X43166939Y-29068490D01*
X43156850Y-29076518D01*
X43144362Y-29059321D01*
X43133718Y-29019170D01*
X43134886Y-28975325D01*
X43142440Y-28936662D01*
X43186092Y-28936662D01*
X43200594Y-28940004D01*
X43245353Y-28943078D01*
X43319370Y-28945751D01*
X43421624Y-28948006D01*
X43551100Y-28949825D01*
X43706779Y-28951189D01*
X43887644Y-28952082D01*
X44092676Y-28952485D01*
X44999261Y-28953124D01*
X45001125Y-28652039D01*
X45001606Y-28567211D01*
X45002113Y-28457403D01*
X45002484Y-28352590D01*
X45002687Y-28261525D01*
X45002694Y-28192966D01*
X45002397Y-28034978D01*
X44805787Y-27837366D01*
X44748699Y-27780665D01*
X44690462Y-27724358D01*
X44642580Y-27679729D01*
X44608883Y-27650341D01*
X44593203Y-27639754D01*
X44589188Y-27639269D01*
X44577230Y-27624689D01*
X44571660Y-27613281D01*
X44547597Y-27583551D01*
X44509814Y-27542965D01*
X44464119Y-27497147D01*
X44416319Y-27451720D01*
X44372223Y-27412309D01*
X44337639Y-27384538D01*
X44318375Y-27374031D01*
X44307902Y-27376744D01*
X44295876Y-27397477D01*
X44288644Y-27412465D01*
X44258472Y-27420924D01*
X44232990Y-27426151D01*
X44212070Y-27444370D01*
X44197793Y-27459192D01*
X44165178Y-27467816D01*
X44139066Y-27473515D01*
X44117605Y-27493035D01*
X44107081Y-27506990D01*
X44075900Y-27509879D01*
X44055797Y-27508456D01*
X44035340Y-27523737D01*
X44021623Y-27537704D01*
X43989404Y-27545970D01*
X43965494Y-27550503D01*
X43952000Y-27569416D01*
X43945741Y-27583561D01*
X43918676Y-27592862D01*
X43897031Y-27599086D01*
X43859259Y-27624789D01*
X43821217Y-27662044D01*
X43791839Y-27701711D01*
X43780061Y-27734652D01*
X43775841Y-27751854D01*
X43756615Y-27764800D01*
X43745681Y-27767524D01*
X43733169Y-27788247D01*
X43730720Y-27799134D01*
X43711890Y-27811693D01*
X43698749Y-27819086D01*
X43698082Y-27850770D01*
X43698102Y-27850875D01*
X43698172Y-27881074D01*
X43680283Y-27889847D01*
X43667665Y-27893000D01*
X43655015Y-27913293D01*
X43652292Y-27924227D01*
X43631569Y-27936739D01*
X43616581Y-27943971D01*
X43608123Y-27974143D01*
X43602895Y-27999626D01*
X43584676Y-28020545D01*
X43569509Y-28035821D01*
X43561230Y-28069110D01*
X43557296Y-28095286D01*
X43545600Y-28108677D01*
X43535319Y-28118379D01*
X43529969Y-28147754D01*
X43525380Y-28173243D01*
X43506523Y-28186831D01*
X43490067Y-28196495D01*
X43483076Y-28233724D01*
X43478244Y-28266635D01*
X43459630Y-28280616D01*
X43444337Y-28288264D01*
X43436184Y-28319693D01*
X43431595Y-28345182D01*
X43412738Y-28358770D01*
X43396282Y-28368434D01*
X43389292Y-28405662D01*
X43389291Y-28406245D01*
X43384636Y-28438972D01*
X43373661Y-28452554D01*
X43363381Y-28462256D01*
X43358030Y-28491631D01*
X43353441Y-28517120D01*
X43334584Y-28530708D01*
X43328690Y-28531549D01*
X43315227Y-28548717D01*
X43311138Y-28591559D01*
X43311127Y-28593909D01*
X43305047Y-28639125D01*
X43289255Y-28660807D01*
X43288986Y-28660913D01*
X43273338Y-28682407D01*
X43267372Y-28724556D01*
X43267322Y-28728102D01*
X43259493Y-28772670D01*
X43242363Y-28804916D01*
X43225649Y-28833428D01*
X43217353Y-28875702D01*
X43212799Y-28907921D01*
X43201723Y-28921477D01*
X43198000Y-28921915D01*
X43186092Y-28936662D01*
X43142440Y-28936662D01*
X43148288Y-28906733D01*
X43172572Y-28818759D01*
X43206215Y-28715786D01*
X43247694Y-28602195D01*
X43295486Y-28482368D01*
X43348069Y-28360689D01*
X43403920Y-28241539D01*
X43423728Y-28201552D01*
X43579234Y-27918659D01*
X43752478Y-27656638D01*
X43947944Y-27409215D01*
X44006055Y-27346678D01*
X44402185Y-27346678D01*
X44404205Y-27357899D01*
X44418541Y-27378906D01*
X44447229Y-27412084D01*
X44492303Y-27459818D01*
X44555800Y-27524492D01*
X44639753Y-27608493D01*
X44691778Y-27660012D01*
X44762450Y-27729027D01*
X44823997Y-27787992D01*
X44873198Y-27833870D01*
X44906831Y-27863623D01*
X44921672Y-27874216D01*
X44928597Y-27876857D01*
X44936738Y-27897662D01*
X44939461Y-27908596D01*
X44960184Y-27921108D01*
X44971118Y-27923831D01*
X44983630Y-27944554D01*
X44991279Y-27959848D01*
X45022707Y-27968000D01*
X45048408Y-27971881D01*
X45061784Y-27983631D01*
X45070401Y-27987325D01*
X45108518Y-27991538D01*
X45176159Y-27994869D01*
X45272335Y-27997288D01*
X45396058Y-27998763D01*
X45546338Y-27999262D01*
X46030892Y-27999262D01*
X46030395Y-27252893D01*
X46030210Y-27101581D01*
X46029761Y-26951823D01*
X46028997Y-26829078D01*
X46027850Y-26731055D01*
X46026253Y-26655465D01*
X46024136Y-26600019D01*
X46021434Y-26562427D01*
X46018078Y-26540399D01*
X46014000Y-26531646D01*
X46009133Y-26533877D01*
X45991359Y-26549427D01*
X45954923Y-26561231D01*
X45934705Y-26565638D01*
X45921476Y-26584677D01*
X45911812Y-26601133D01*
X45874584Y-26608124D01*
X45841672Y-26612956D01*
X45827692Y-26631570D01*
X45820460Y-26646557D01*
X45790287Y-26655016D01*
X45764736Y-26660473D01*
X45743472Y-26679540D01*
X45733074Y-26693223D01*
X45702646Y-26694093D01*
X45681877Y-26691519D01*
X45661819Y-26708646D01*
X45647595Y-26724025D01*
X45615004Y-26733170D01*
X45591094Y-26737703D01*
X45577600Y-26756616D01*
X45567935Y-26773072D01*
X45530707Y-26780062D01*
X45497796Y-26784894D01*
X45483815Y-26803508D01*
X45476583Y-26818496D01*
X45446410Y-26826954D01*
X45420928Y-26832181D01*
X45400009Y-26850400D01*
X45389316Y-26863661D01*
X45359259Y-26873847D01*
X45340620Y-26876843D01*
X45327507Y-26889477D01*
X45327504Y-26889672D01*
X45313540Y-26900581D01*
X45280615Y-26905108D01*
X45247703Y-26909940D01*
X45233723Y-26928554D01*
X45225951Y-26943933D01*
X45194155Y-26952000D01*
X45166408Y-26957603D01*
X45145591Y-26975447D01*
X45132591Y-26989777D01*
X45100861Y-26998893D01*
X45077203Y-27003571D01*
X45056597Y-27021126D01*
X45046580Y-27032840D01*
X45016038Y-27034983D01*
X44995337Y-27033640D01*
X44974333Y-27051827D01*
X44959954Y-27067634D01*
X44927250Y-27077047D01*
X44903340Y-27081580D01*
X44889846Y-27100493D01*
X44882614Y-27115480D01*
X44852441Y-27123939D01*
X44826959Y-27129166D01*
X44806039Y-27147385D01*
X44790764Y-27162553D01*
X44757475Y-27170831D01*
X44731308Y-27174336D01*
X44717907Y-27184767D01*
X44708091Y-27196443D01*
X44678830Y-27208511D01*
X44653016Y-27218836D01*
X44639753Y-27233652D01*
X44629796Y-27243795D01*
X44600186Y-27248985D01*
X44572439Y-27254588D01*
X44551621Y-27272431D01*
X44538621Y-27286762D01*
X44506892Y-27295877D01*
X44483163Y-27300799D01*
X44462162Y-27319324D01*
X44446547Y-27334602D01*
X44413033Y-27342770D01*
X44410448Y-27342856D01*
X44402185Y-27346678D01*
X44006055Y-27346678D01*
X44170118Y-27170119D01*
X44202022Y-27138516D01*
X44441874Y-26920195D01*
X44690895Y-26727980D01*
X44955359Y-26557383D01*
X45241538Y-26403921D01*
X45270641Y-26389870D01*
X45373333Y-26342886D01*
X45481150Y-26297011D01*
X45590337Y-26253510D01*
X45697142Y-26213650D01*
X45797812Y-26178696D01*
X45888594Y-26149914D01*
X45965735Y-26128571D01*
X46025483Y-26115932D01*
X46064083Y-26113263D01*
X46077784Y-26121830D01*
X46078709Y-26127687D01*
X46094027Y-26138591D01*
X46117386Y-26134110D01*
X46134655Y-26115754D01*
X46134671Y-26115712D01*
X46149376Y-26101900D01*
X46183797Y-26094504D01*
X46243580Y-26092308D01*
X46250645Y-26092291D01*
X46305550Y-26090011D01*
X46334847Y-26083142D01*
X46343507Y-26070602D01*
X46343586Y-26069341D01*
X46344015Y-26068862D01*
X46796800Y-26068862D01*
X46802602Y-26082535D01*
X46828061Y-26092308D01*
X46846291Y-26087956D01*
X46859323Y-26068862D01*
X46853520Y-26055189D01*
X46828061Y-26045416D01*
X46809831Y-26049768D01*
X46796800Y-26068862D01*
X46344015Y-26068862D01*
X46359177Y-26051937D01*
X46394307Y-26039662D01*
X46401094Y-26038448D01*
X46496277Y-26024710D01*
X46605522Y-26014013D01*
X46725056Y-26006264D01*
X46851108Y-26001371D01*
X46979905Y-25999242D01*
X47107676Y-25999784D01*
X47230649Y-26002904D01*
X47345051Y-26008511D01*
X47447111Y-26016512D01*
X47533057Y-26026813D01*
X47599117Y-26039324D01*
X47641520Y-26053951D01*
X47656492Y-26070602D01*
X47656570Y-26072136D01*
X47667065Y-26084063D01*
X47698690Y-26090427D01*
X47756420Y-26092308D01*
X47756600Y-26092308D01*
X47816315Y-26094515D01*
X47850681Y-26101925D01*
X47865344Y-26115754D01*
X47868652Y-26122063D01*
X47888989Y-26136776D01*
X47911553Y-26137202D01*
X47922215Y-26121830D01*
X47923475Y-26118021D01*
X47945001Y-26112940D01*
X47990307Y-26118718D01*
X48055639Y-26134088D01*
X48137245Y-26157784D01*
X48231372Y-26188541D01*
X48334266Y-26225092D01*
X48442175Y-26266171D01*
X48551346Y-26310513D01*
X48658026Y-26356852D01*
X48758461Y-26403921D01*
X48798448Y-26423729D01*
X49081341Y-26579235D01*
X49343362Y-26752478D01*
X49590785Y-26947944D01*
X49603561Y-26959816D01*
X49829881Y-27170119D01*
X50001567Y-27354216D01*
X50038930Y-27394280D01*
X50244789Y-27653083D01*
X50426223Y-27926736D01*
X50586496Y-28219770D01*
X50602829Y-28253301D01*
X50646475Y-28347993D01*
X50690212Y-28449401D01*
X50732641Y-28553596D01*
X50772363Y-28656648D01*
X50807976Y-28754627D01*
X50838083Y-28843603D01*
X50861281Y-28919648D01*
X50876173Y-28978831D01*
X50877926Y-28991816D01*
X50881357Y-29017222D01*
X50875435Y-29030893D01*
X50868711Y-29033530D01*
X50860800Y-29054339D01*
X50857289Y-29069092D01*
X50841650Y-29077265D01*
X50826739Y-29061573D01*
X50814499Y-29058145D01*
X50772563Y-29054576D01*
X50700633Y-29051437D01*
X50598497Y-29048723D01*
X50465944Y-29046431D01*
X50302765Y-29044554D01*
X50108748Y-29043090D01*
X49883683Y-29042034D01*
X48946030Y-29038708D01*
X48943637Y-28765216D01*
X48996912Y-28765216D01*
X48997480Y-28848211D01*
X48998783Y-28914216D01*
X49000882Y-28958588D01*
X49003837Y-28976679D01*
X49015077Y-28977780D01*
X49055016Y-28979180D01*
X49121160Y-28980605D01*
X49210724Y-28982021D01*
X49320924Y-28983393D01*
X49448975Y-28984687D01*
X49592094Y-28985870D01*
X49747495Y-28986908D01*
X49912396Y-28987767D01*
X50813915Y-28991816D01*
X50813911Y-28958319D01*
X50809640Y-28937000D01*
X50791682Y-28916294D01*
X50776810Y-28898107D01*
X50773875Y-28852098D01*
X50774291Y-28846175D01*
X50771692Y-28808363D01*
X50757022Y-28796431D01*
X50741550Y-28783583D01*
X50735753Y-28743637D01*
X50735733Y-28741427D01*
X50728540Y-28699646D01*
X50712307Y-28671385D01*
X50710247Y-28669471D01*
X50694900Y-28637976D01*
X50688861Y-28591317D01*
X50688551Y-28576411D01*
X50681952Y-28541364D01*
X50665415Y-28530708D01*
X50650427Y-28523476D01*
X50641969Y-28493304D01*
X50636364Y-28467708D01*
X50616749Y-28446221D01*
X50602795Y-28435697D01*
X50599905Y-28404516D01*
X50601329Y-28384413D01*
X50586048Y-28363957D01*
X50572080Y-28350239D01*
X50563815Y-28318020D01*
X50559282Y-28294110D01*
X50540369Y-28280616D01*
X50523913Y-28270952D01*
X50516923Y-28233724D01*
X50512091Y-28200812D01*
X50493476Y-28186831D01*
X50478183Y-28179183D01*
X50470030Y-28147754D01*
X50466150Y-28122054D01*
X50454400Y-28108677D01*
X50444059Y-28098719D01*
X50438769Y-28069110D01*
X50433166Y-28041363D01*
X50415323Y-28020545D01*
X50400607Y-28006559D01*
X50391876Y-27974143D01*
X50387343Y-27950233D01*
X50368430Y-27936739D01*
X50357496Y-27934016D01*
X50344984Y-27913293D01*
X50343420Y-27902532D01*
X50331048Y-27889847D01*
X50319372Y-27880031D01*
X50307304Y-27850770D01*
X50296979Y-27824955D01*
X50282163Y-27811693D01*
X50275113Y-27809050D01*
X50266830Y-27788247D01*
X50264107Y-27777312D01*
X50243384Y-27764800D01*
X50229835Y-27759110D01*
X50219938Y-27734060D01*
X50212691Y-27710628D01*
X50186378Y-27672608D01*
X50149281Y-27634306D01*
X50110401Y-27604723D01*
X50078740Y-27592862D01*
X50061071Y-27590057D01*
X50048000Y-27577529D01*
X50038198Y-27564940D01*
X50008923Y-27552388D01*
X49983093Y-27542405D01*
X49969846Y-27528644D01*
X49959896Y-27519428D01*
X49930278Y-27514708D01*
X49902531Y-27509105D01*
X49881714Y-27491262D01*
X49867728Y-27476546D01*
X49835312Y-27467816D01*
X49811402Y-27463283D01*
X49797907Y-27444370D01*
X49788243Y-27427914D01*
X49751015Y-27420924D01*
X49718103Y-27416091D01*
X49704123Y-27397477D01*
X49698320Y-27383805D01*
X49672861Y-27374031D01*
X49654631Y-27378383D01*
X49641600Y-27397477D01*
X49638876Y-27408412D01*
X49618153Y-27420924D01*
X49607219Y-27423647D01*
X49594707Y-27444370D01*
X49592778Y-27455178D01*
X49577682Y-27467816D01*
X49562673Y-27475329D01*
X49532314Y-27500190D01*
X49495642Y-27535158D01*
X49460158Y-27572636D01*
X49433367Y-27605024D01*
X49422769Y-27624723D01*
X49422391Y-27628046D01*
X49407548Y-27639754D01*
X49402900Y-27641940D01*
X49378680Y-27661246D01*
X49338818Y-27697282D01*
X49287571Y-27746132D01*
X49229196Y-27803877D01*
X49202579Y-27830431D01*
X49146607Y-27884730D01*
X49099486Y-27928375D01*
X49065525Y-27957440D01*
X49049032Y-27968000D01*
X49041645Y-27970205D01*
X49032000Y-27990144D01*
X49030640Y-27999580D01*
X49016280Y-28017528D01*
X49014950Y-28020264D01*
X49011611Y-28047113D01*
X49008466Y-28098783D01*
X49005573Y-28170627D01*
X49002994Y-28258000D01*
X49000789Y-28356257D01*
X48999018Y-28460753D01*
X48997741Y-28566842D01*
X48997019Y-28669878D01*
X48996912Y-28765216D01*
X48943637Y-28765216D01*
X48941893Y-28565877D01*
X48941444Y-28518775D01*
X48940024Y-28404545D01*
X48938296Y-28302551D01*
X48936351Y-28216600D01*
X48934286Y-28150496D01*
X48932194Y-28108043D01*
X48930170Y-28093047D01*
X48916633Y-28100301D01*
X48892349Y-28123436D01*
X48869919Y-28151052D01*
X48860061Y-28171200D01*
X48859626Y-28174920D01*
X48844969Y-28186831D01*
X48832772Y-28191609D01*
X48804197Y-28213317D01*
X48772071Y-28244152D01*
X48745856Y-28274743D01*
X48735015Y-28295720D01*
X48732365Y-28303158D01*
X48711569Y-28311877D01*
X48700635Y-28314601D01*
X48688123Y-28335324D01*
X48686408Y-28346103D01*
X48672903Y-28358770D01*
X48656994Y-28367111D01*
X48626293Y-28392442D01*
X48589365Y-28427442D01*
X48553707Y-28464614D01*
X48526814Y-28496462D01*
X48516184Y-28515489D01*
X48515491Y-28519803D01*
X48499351Y-28530708D01*
X48488910Y-28534199D01*
X48460567Y-28554759D01*
X48428409Y-28585480D01*
X48402059Y-28616741D01*
X48391138Y-28638921D01*
X48390521Y-28643687D01*
X48376107Y-28655754D01*
X48360904Y-28663172D01*
X48330155Y-28687717D01*
X48293011Y-28722241D01*
X48257071Y-28759243D01*
X48229934Y-28791219D01*
X48219200Y-28810668D01*
X48218552Y-28815603D01*
X48204169Y-28827693D01*
X48188966Y-28835111D01*
X48158216Y-28859655D01*
X48121072Y-28894179D01*
X48085132Y-28931181D01*
X48057995Y-28963157D01*
X48047261Y-28982606D01*
X48047257Y-28982825D01*
X48033287Y-28994702D01*
X48000369Y-28999631D01*
X47979977Y-29000564D01*
X47958523Y-29010781D01*
X47953476Y-29038708D01*
X47953311Y-29045909D01*
X47944145Y-29071329D01*
X47914400Y-29077785D01*
X47888911Y-29082374D01*
X47875323Y-29101231D01*
X47872599Y-29112165D01*
X47851876Y-29124677D01*
X47840942Y-29127401D01*
X47828430Y-29148124D01*
X47826040Y-29159002D01*
X47807625Y-29171570D01*
X47787830Y-29182090D01*
X47765907Y-29210647D01*
X47746067Y-29237252D01*
X47724189Y-29249723D01*
X47714536Y-29252417D01*
X47703384Y-29273170D01*
X47700661Y-29284104D01*
X47679938Y-29296616D01*
X47669004Y-29299339D01*
X47656492Y-29320062D01*
X47654596Y-29330866D01*
X47639745Y-29343508D01*
X47616165Y-29353215D01*
X47590178Y-29378399D01*
X47578338Y-29404915D01*
X47575683Y-29412632D01*
X47554892Y-29421662D01*
X47543958Y-29424385D01*
X47531446Y-29445108D01*
X47528722Y-29456042D01*
X47508000Y-29468554D01*
X47497065Y-29471278D01*
X47484553Y-29492000D01*
X47482657Y-29502804D01*
X47467806Y-29515447D01*
X47444226Y-29525154D01*
X47418239Y-29550337D01*
X47406400Y-29576853D01*
X47403745Y-29584570D01*
X47382953Y-29593600D01*
X47372019Y-29596324D01*
X47359507Y-29617047D01*
X47356784Y-29627981D01*
X47336061Y-29640493D01*
X47325127Y-29643216D01*
X47312615Y-29663939D01*
X47310719Y-29674743D01*
X47295868Y-29687385D01*
X47272288Y-29697092D01*
X47246301Y-29722275D01*
X47234461Y-29748792D01*
X47233528Y-29754130D01*
X47216646Y-29765539D01*
X47203397Y-29770004D01*
X47179955Y-29791353D01*
X47166649Y-29803961D01*
X47151979Y-29802443D01*
X47150045Y-29796848D01*
X47154636Y-29767583D01*
X47171042Y-29731307D01*
X47192679Y-29700435D01*
X47212967Y-29687385D01*
X47222953Y-29684684D01*
X47234461Y-29663939D01*
X47237184Y-29653005D01*
X47257907Y-29640493D01*
X47268701Y-29638667D01*
X47281353Y-29624335D01*
X47286178Y-29612256D01*
X47308098Y-29583958D01*
X47339235Y-29552143D01*
X47370126Y-29526183D01*
X47391308Y-29515447D01*
X47394564Y-29515090D01*
X47406400Y-29500355D01*
X47411177Y-29488158D01*
X47432885Y-29459582D01*
X47463720Y-29427456D01*
X47494312Y-29401241D01*
X47515288Y-29390400D01*
X47522727Y-29387751D01*
X47531446Y-29366954D01*
X47534169Y-29356020D01*
X47554892Y-29343508D01*
X47565670Y-29341808D01*
X47578338Y-29328416D01*
X47583115Y-29316219D01*
X47604824Y-29287644D01*
X47635659Y-29255518D01*
X47666250Y-29229303D01*
X47687227Y-29218462D01*
X47694665Y-29215812D01*
X47703384Y-29195016D01*
X47706108Y-29184082D01*
X47726830Y-29171570D01*
X47737620Y-29169776D01*
X47750276Y-29155687D01*
X47757970Y-29140766D01*
X47783402Y-29109713D01*
X47821227Y-29069176D01*
X47865851Y-29024569D01*
X47911678Y-28981305D01*
X47953113Y-28944795D01*
X47984560Y-28920455D01*
X48000423Y-28913695D01*
X48004158Y-28911919D01*
X48026839Y-28893169D01*
X48067306Y-28856423D01*
X48122689Y-28804499D01*
X48190121Y-28740214D01*
X48266734Y-28666385D01*
X48349662Y-28585830D01*
X48436035Y-28501366D01*
X48522987Y-28415812D01*
X48607649Y-28331984D01*
X48687155Y-28252699D01*
X48758635Y-28180777D01*
X48819223Y-28119032D01*
X48866050Y-28070285D01*
X48896250Y-28037351D01*
X48906953Y-28023048D01*
X48902812Y-28021991D01*
X48873016Y-28020080D01*
X48817627Y-28018377D01*
X48740376Y-28016945D01*
X48644990Y-28015846D01*
X48535199Y-28015141D01*
X48414731Y-28014893D01*
X47922510Y-28014893D01*
X47918455Y-27245077D01*
X47918358Y-27226655D01*
X47969107Y-27226655D01*
X47969146Y-27325268D01*
X47969442Y-27478287D01*
X47970100Y-27604152D01*
X47971202Y-27705496D01*
X47972832Y-27784952D01*
X47975073Y-27845152D01*
X47978008Y-27888728D01*
X47981719Y-27918313D01*
X47986290Y-27936539D01*
X47991804Y-27946038D01*
X48006764Y-27951496D01*
X48049233Y-27957356D01*
X48113896Y-27962098D01*
X48196301Y-27965731D01*
X48291993Y-27968267D01*
X48396520Y-27969716D01*
X48505428Y-27970090D01*
X48614263Y-27969400D01*
X48718573Y-27967656D01*
X48813904Y-27964870D01*
X48895802Y-27961052D01*
X48959815Y-27956214D01*
X49001488Y-27950366D01*
X49016369Y-27943519D01*
X49019080Y-27933089D01*
X49039815Y-27921108D01*
X49050749Y-27918385D01*
X49063261Y-27897662D01*
X49065984Y-27886728D01*
X49086707Y-27874216D01*
X49097493Y-27872452D01*
X49110153Y-27858585D01*
X49112799Y-27851394D01*
X49133600Y-27842954D01*
X49144412Y-27841000D01*
X49157046Y-27825717D01*
X49159535Y-27819476D01*
X49179069Y-27793330D01*
X49213798Y-27754340D01*
X49258646Y-27708369D01*
X49281104Y-27685855D01*
X49321697Y-27642870D01*
X49349765Y-27609914D01*
X49360246Y-27592745D01*
X49360662Y-27589127D01*
X49375311Y-27577231D01*
X49386113Y-27571178D01*
X49415669Y-27546865D01*
X49457786Y-27508255D01*
X49507228Y-27460000D01*
X49558226Y-27408095D01*
X49589167Y-27374019D01*
X49602389Y-27354216D01*
X49600337Y-27345021D01*
X49585456Y-27342770D01*
X49558698Y-27337328D01*
X49537837Y-27319324D01*
X49523851Y-27304608D01*
X49491435Y-27295877D01*
X49467525Y-27291344D01*
X49454030Y-27272431D01*
X49444366Y-27255975D01*
X49407138Y-27248985D01*
X49374149Y-27243771D01*
X49360246Y-27228865D01*
X49352674Y-27215823D01*
X49325308Y-27206114D01*
X49302971Y-27201140D01*
X49284929Y-27187156D01*
X49272492Y-27176694D01*
X49241222Y-27170831D01*
X49214838Y-27165452D01*
X49193960Y-27147385D01*
X49179974Y-27132669D01*
X49147558Y-27123939D01*
X49123648Y-27119406D01*
X49110153Y-27100493D01*
X49100489Y-27084037D01*
X49063261Y-27077047D01*
X49030458Y-27072114D01*
X49016369Y-27055064D01*
X49011268Y-27042547D01*
X48985297Y-27041206D01*
X48965619Y-27042332D01*
X48944548Y-27024112D01*
X48929875Y-27008190D01*
X48896975Y-26998893D01*
X48870979Y-26993578D01*
X48850083Y-26975447D01*
X48836097Y-26960731D01*
X48832700Y-26959816D01*
X49125784Y-26959816D01*
X49133600Y-26967631D01*
X49141415Y-26959816D01*
X49133600Y-26952000D01*
X49125784Y-26959816D01*
X48832700Y-26959816D01*
X48803681Y-26952000D01*
X48779771Y-26947467D01*
X48766276Y-26928554D01*
X48760918Y-26915221D01*
X48736282Y-26905108D01*
X48729976Y-26904638D01*
X48694694Y-26894817D01*
X48652607Y-26876662D01*
X48615946Y-26856005D01*
X48596943Y-26838677D01*
X48584666Y-26831168D01*
X48553468Y-26826954D01*
X48527085Y-26821575D01*
X48506206Y-26803508D01*
X48492220Y-26788793D01*
X48459804Y-26780062D01*
X48435618Y-26775539D01*
X48422400Y-26754793D01*
X48416326Y-26738390D01*
X48390182Y-26737949D01*
X48369907Y-26739419D01*
X48349433Y-26724141D01*
X48335426Y-26710072D01*
X48303006Y-26701908D01*
X48277010Y-26696594D01*
X48256114Y-26678462D01*
X48243114Y-26664131D01*
X48211384Y-26655016D01*
X48187656Y-26650094D01*
X48166655Y-26631570D01*
X48151379Y-26616402D01*
X48118090Y-26608123D01*
X48092137Y-26603518D01*
X48078523Y-26584677D01*
X48070874Y-26569384D01*
X48039446Y-26561231D01*
X48013745Y-26557350D01*
X48000369Y-26545600D01*
X47999915Y-26541864D01*
X47984738Y-26529970D01*
X47981253Y-26540551D01*
X47977597Y-26581421D01*
X47974576Y-26652470D01*
X47972203Y-26753108D01*
X47970492Y-26882745D01*
X47969456Y-27040791D01*
X47969107Y-27226655D01*
X47918358Y-27226655D01*
X47914400Y-26475262D01*
X47871415Y-26470316D01*
X47841948Y-26462933D01*
X47828430Y-26450778D01*
X47818734Y-26441183D01*
X47789353Y-26436185D01*
X47763864Y-26431596D01*
X47750276Y-26412739D01*
X47742505Y-26397360D01*
X47710709Y-26389293D01*
X47682962Y-26383690D01*
X47662144Y-26365847D01*
X47649144Y-26351516D01*
X47617415Y-26342400D01*
X47593686Y-26337479D01*
X47572686Y-26318954D01*
X47557410Y-26303787D01*
X47524121Y-26295508D01*
X47497945Y-26291574D01*
X47484553Y-26279877D01*
X47474852Y-26269597D01*
X47445476Y-26264247D01*
X47419987Y-26259658D01*
X47406400Y-26240800D01*
X47398628Y-26225421D01*
X47366832Y-26217354D01*
X47339085Y-26211751D01*
X47318267Y-26193908D01*
X47305267Y-26179578D01*
X47273538Y-26170462D01*
X47249809Y-26165540D01*
X47228809Y-26147016D01*
X47213533Y-26131848D01*
X47180244Y-26123570D01*
X47154068Y-26119636D01*
X47140676Y-26107939D01*
X47130975Y-26097659D01*
X47101600Y-26092308D01*
X47076111Y-26087719D01*
X47062523Y-26068862D01*
X47059799Y-26057928D01*
X47039076Y-26045416D01*
X47028142Y-26048139D01*
X47015630Y-26068862D01*
X47018354Y-26079796D01*
X47039076Y-26092308D01*
X47044971Y-26093149D01*
X47058434Y-26110317D01*
X47062523Y-26153159D01*
X47062596Y-26159004D01*
X47068896Y-26201358D01*
X47083401Y-26222021D01*
X47095176Y-26239631D01*
X47101832Y-26275503D01*
X47102657Y-26317293D01*
X47097440Y-26352835D01*
X47085969Y-26369959D01*
X47079889Y-26365954D01*
X47071070Y-26339428D01*
X47065613Y-26295713D01*
X47062792Y-26264283D01*
X47053653Y-26228419D01*
X47038196Y-26217354D01*
X47037262Y-26217546D01*
X47033914Y-26222265D01*
X47030939Y-26234499D01*
X47028320Y-26255830D01*
X47026042Y-26287842D01*
X47024089Y-26332117D01*
X47022444Y-26390239D01*
X47021091Y-26463791D01*
X47020016Y-26554356D01*
X47019202Y-26663518D01*
X47018633Y-26792858D01*
X47018293Y-26943961D01*
X47018166Y-27118410D01*
X47018237Y-27317788D01*
X47018489Y-27543677D01*
X47018907Y-27797661D01*
X47019475Y-28081324D01*
X47023446Y-29945293D01*
X48896332Y-29945293D01*
X49139145Y-29945280D01*
X49395312Y-29945217D01*
X49623286Y-29945082D01*
X49824721Y-29944848D01*
X50001273Y-29944494D01*
X50154594Y-29943994D01*
X50286338Y-29943325D01*
X50398160Y-29942463D01*
X50491714Y-29941383D01*
X50568653Y-29940062D01*
X50630632Y-29938476D01*
X50679304Y-29936601D01*
X50716324Y-29934413D01*
X50743345Y-29931888D01*
X50762021Y-29929002D01*
X50774007Y-29925731D01*
X50780957Y-29922052D01*
X50784524Y-29917939D01*
X50788874Y-29911609D01*
X50820565Y-29893501D01*
X50861308Y-29894154D01*
X50897644Y-29914031D01*
X50908247Y-29924028D01*
X50928101Y-29936145D01*
X50941471Y-29929457D01*
X50949549Y-29900861D01*
X50953524Y-29847256D01*
X50954584Y-29765539D01*
X50954312Y-29711819D01*
X50952544Y-29652666D01*
X50948543Y-29616549D01*
X50941633Y-29598512D01*
X50931138Y-29593600D01*
X50929434Y-29593526D01*
X50918586Y-29586513D01*
X50911940Y-29564303D01*
X50908606Y-29521554D01*
X50907692Y-29452924D01*
X50908468Y-29391917D01*
X50911805Y-29344493D01*
X50918451Y-29319517D01*
X50929127Y-29312247D01*
X50933004Y-29313167D01*
X50947929Y-29335720D01*
X50961092Y-29386919D01*
X50972298Y-29464689D01*
X50981352Y-29566957D01*
X50988061Y-29691647D01*
X50992229Y-29836686D01*
X50993661Y-30000000D01*
X50993575Y-30041325D01*
X50991459Y-30200382D01*
X50986654Y-30340659D01*
X50979357Y-30460082D01*
X50969761Y-30556577D01*
X50958061Y-30628071D01*
X50944451Y-30672488D01*
X50929127Y-30687754D01*
X50919831Y-30682661D01*
X50912605Y-30660758D01*
X50908800Y-30617145D01*
X50907692Y-30547077D01*
X50907704Y-30536854D01*
X50908873Y-30471767D01*
X50912575Y-30431891D01*
X50919700Y-30411883D01*
X50931138Y-30406400D01*
X50933793Y-30406168D01*
X50942626Y-30399213D01*
X50948616Y-30379207D01*
X50952269Y-30341601D01*
X50954090Y-30281843D01*
X50954584Y-30195385D01*
X50954558Y-30171492D01*
X50953786Y-30091995D01*
X50951563Y-30038084D01*
X50947384Y-30005209D01*
X50940745Y-29988821D01*
X50931138Y-29984370D01*
X50915845Y-29992018D01*
X50907692Y-30023447D01*
X50904661Y-30047714D01*
X50888733Y-30059861D01*
X50850800Y-30062524D01*
X50806323Y-30068800D01*
X50775078Y-30088275D01*
X50753494Y-30104855D01*
X50714100Y-30103447D01*
X50691669Y-30095002D01*
X50681649Y-30080342D01*
X50697585Y-30067824D01*
X50736676Y-30062524D01*
X50754225Y-30061813D01*
X50777085Y-30052143D01*
X50782646Y-30025157D01*
X50779867Y-30004269D01*
X50763268Y-29988413D01*
X50724030Y-29979693D01*
X50716387Y-29979172D01*
X50678598Y-29978180D01*
X50612574Y-29977271D01*
X50520337Y-29976451D01*
X50403911Y-29975726D01*
X50265319Y-29975102D01*
X50106583Y-29974585D01*
X49929726Y-29974182D01*
X49736771Y-29973898D01*
X49529741Y-29973739D01*
X49310659Y-29973712D01*
X49081548Y-29973822D01*
X48844430Y-29974075D01*
X47023446Y-29976554D01*
X47019475Y-31863970D01*
X47019058Y-32069724D01*
X47018590Y-32333091D01*
X47018273Y-32567923D01*
X47018125Y-32775814D01*
X47018161Y-32958356D01*
X47018399Y-33117141D01*
X47018854Y-33253762D01*
X47019544Y-33369813D01*
X47020484Y-33466885D01*
X47021692Y-33546572D01*
X47023183Y-33610467D01*
X47024975Y-33660162D01*
X47027083Y-33697250D01*
X47029525Y-33723323D01*
X47032316Y-33739975D01*
X47035474Y-33748798D01*
X47039014Y-33751385D01*
X47051360Y-33756430D01*
X47060025Y-33780430D01*
X47062523Y-33829539D01*
X47061022Y-33870358D01*
X47053821Y-33899326D01*
X47039076Y-33907693D01*
X47028142Y-33910416D01*
X47015630Y-33931139D01*
X47018354Y-33942073D01*
X47039076Y-33954585D01*
X47050011Y-33951862D01*
X47062523Y-33931139D01*
X47140676Y-33931139D01*
X47146479Y-33944812D01*
X47171938Y-33954585D01*
X47190168Y-33950233D01*
X47203200Y-33931139D01*
X47197397Y-33917466D01*
X47171938Y-33907693D01*
X47153708Y-33912044D01*
X47140676Y-33931139D01*
X47062523Y-33931139D01*
X47070171Y-33915845D01*
X47101600Y-33907693D01*
X47127300Y-33903812D01*
X47140676Y-33892062D01*
X47150635Y-33881721D01*
X47180244Y-33876431D01*
X47207991Y-33870828D01*
X47228809Y-33852985D01*
X47241809Y-33838655D01*
X47273538Y-33829539D01*
X47297267Y-33824617D01*
X47318267Y-33806093D01*
X47333543Y-33790925D01*
X47366832Y-33782647D01*
X47392785Y-33778041D01*
X47406400Y-33759200D01*
X47414048Y-33743907D01*
X47445476Y-33735754D01*
X47471177Y-33731874D01*
X47484553Y-33720124D01*
X47494512Y-33709783D01*
X47524121Y-33704493D01*
X47551868Y-33698890D01*
X47572686Y-33681047D01*
X47585686Y-33666716D01*
X47617415Y-33657600D01*
X47641144Y-33652679D01*
X47662144Y-33634154D01*
X47676422Y-33619332D01*
X47709037Y-33610708D01*
X47735033Y-33605394D01*
X47755929Y-33587262D01*
X47766622Y-33574001D01*
X47796678Y-33563816D01*
X47815309Y-33561021D01*
X47828430Y-33549223D01*
X47840191Y-33537867D01*
X47871415Y-33529685D01*
X47914400Y-33524739D01*
X47918430Y-32735510D01*
X47969107Y-32735510D01*
X47969438Y-32927103D01*
X47970423Y-33090720D01*
X47972049Y-33225814D01*
X47974305Y-33331839D01*
X47977180Y-33408248D01*
X47980661Y-33454494D01*
X47984738Y-33470031D01*
X47988474Y-33469577D01*
X48000369Y-33454400D01*
X48010071Y-33444120D01*
X48039446Y-33438770D01*
X48064935Y-33434181D01*
X48078523Y-33415324D01*
X48085755Y-33400336D01*
X48115927Y-33391877D01*
X48141409Y-33386650D01*
X48162329Y-33368431D01*
X48177605Y-33353264D01*
X48210894Y-33344985D01*
X48237060Y-33341480D01*
X48250461Y-33331049D01*
X48260277Y-33319373D01*
X48289538Y-33307305D01*
X48315352Y-33296980D01*
X48328615Y-33282164D01*
X48328619Y-33281975D01*
X48342581Y-33271273D01*
X48375507Y-33266831D01*
X48408419Y-33261999D01*
X48422400Y-33243385D01*
X48429632Y-33228397D01*
X48459804Y-33219939D01*
X48485286Y-33214712D01*
X48506206Y-33196493D01*
X48520483Y-33181670D01*
X48553098Y-33173047D01*
X48579210Y-33167348D01*
X48600671Y-33147827D01*
X48610865Y-33134171D01*
X48641420Y-33130733D01*
X48660997Y-33132244D01*
X48672492Y-33116876D01*
X48683014Y-33101497D01*
X48719384Y-33094893D01*
X48752296Y-33090061D01*
X48766276Y-33071447D01*
X48773509Y-33056459D01*
X48803681Y-33048000D01*
X48829163Y-33042773D01*
X48850083Y-33024554D01*
X48865358Y-33009387D01*
X48898647Y-33001108D01*
X48924814Y-32997604D01*
X48938215Y-32987172D01*
X48948031Y-32975496D01*
X48977292Y-32963428D01*
X49003106Y-32953103D01*
X49016369Y-32938287D01*
X49016372Y-32938098D01*
X49030335Y-32927396D01*
X49063261Y-32922954D01*
X49096173Y-32918122D01*
X49110153Y-32899508D01*
X49117385Y-32884521D01*
X49147558Y-32876062D01*
X49173040Y-32870835D01*
X49193960Y-32852616D01*
X49208237Y-32837793D01*
X49240852Y-32829170D01*
X49266770Y-32824119D01*
X49287279Y-32806937D01*
X49297891Y-32794768D01*
X49330331Y-32793731D01*
X49349543Y-32797256D01*
X49359462Y-32788531D01*
X49357609Y-32774462D01*
X49766646Y-32774462D01*
X49774461Y-32782277D01*
X49782276Y-32774462D01*
X49774461Y-32766647D01*
X49766646Y-32774462D01*
X49357609Y-32774462D01*
X49355354Y-32757349D01*
X49354643Y-32753887D01*
X49351124Y-32730381D01*
X49354353Y-32731477D01*
X49356334Y-32734955D01*
X49379078Y-32748186D01*
X49411830Y-32751016D01*
X49441258Y-32743970D01*
X49454030Y-32727570D01*
X49461679Y-32712276D01*
X49493107Y-32704124D01*
X49518755Y-32699553D01*
X49532184Y-32679559D01*
X49538256Y-32664285D01*
X49567353Y-32657843D01*
X49590728Y-32659194D01*
X49615265Y-32658961D01*
X49615879Y-32658685D01*
X49608917Y-32645880D01*
X49584785Y-32617903D01*
X49548769Y-32579956D01*
X49506152Y-32537242D01*
X49462219Y-32494964D01*
X49422254Y-32458325D01*
X49391541Y-32432525D01*
X49375364Y-32422770D01*
X49371082Y-32422078D01*
X49360246Y-32405937D01*
X49358943Y-32400694D01*
X49342579Y-32375118D01*
X49313467Y-32342324D01*
X49302849Y-32332139D01*
X49265107Y-32306408D01*
X49231405Y-32304305D01*
X49212801Y-32307849D01*
X49215661Y-32304092D01*
X49223142Y-32299558D01*
X49235200Y-32280790D01*
X49227163Y-32266377D01*
X49201537Y-32235788D01*
X49164552Y-32196393D01*
X49122657Y-32154598D01*
X49082300Y-32116811D01*
X49049932Y-32089440D01*
X49032000Y-32078893D01*
X49024809Y-32076248D01*
X49016369Y-32055447D01*
X49008721Y-32040153D01*
X48977292Y-32032000D01*
X48951565Y-32027138D01*
X48938217Y-32012462D01*
X48938175Y-32011935D01*
X48930512Y-32006260D01*
X48907748Y-32001871D01*
X48867192Y-31998670D01*
X48806152Y-31996562D01*
X48721935Y-31995450D01*
X48611849Y-31995239D01*
X48473201Y-31995830D01*
X48436050Y-31996066D01*
X48320496Y-31996833D01*
X48215930Y-31997582D01*
X48126408Y-31998280D01*
X48055984Y-31998894D01*
X48008711Y-31999391D01*
X47988646Y-31999738D01*
X47984074Y-32005778D01*
X47980094Y-32025664D01*
X47976832Y-32061572D01*
X47974231Y-32115679D01*
X47972232Y-32190162D01*
X47970778Y-32287197D01*
X47969811Y-32408961D01*
X47969274Y-32557631D01*
X47969107Y-32735385D01*
X47969107Y-32735510D01*
X47918430Y-32735510D01*
X47918451Y-32731477D01*
X47922501Y-31938216D01*
X48391281Y-31938216D01*
X48434920Y-31938183D01*
X48548903Y-31937773D01*
X48650730Y-31936943D01*
X48736581Y-31935754D01*
X48802633Y-31934269D01*
X48845067Y-31932547D01*
X48860061Y-31930653D01*
X48849793Y-31918234D01*
X48820149Y-31886733D01*
X48774072Y-31839134D01*
X48714512Y-31778382D01*
X48644418Y-31707424D01*
X48566738Y-31629203D01*
X48484421Y-31546666D01*
X48400415Y-31462757D01*
X48317670Y-31380422D01*
X48239133Y-31302605D01*
X48167755Y-31232252D01*
X48106482Y-31172309D01*
X48058265Y-31125720D01*
X48026051Y-31095430D01*
X48012790Y-31084385D01*
X47988222Y-31080477D01*
X47973803Y-31073182D01*
X47944456Y-31049673D01*
X47912155Y-31018661D01*
X47886057Y-30989113D01*
X47875323Y-30969989D01*
X47874783Y-30965521D01*
X47860894Y-30953477D01*
X47847262Y-30947307D01*
X47818714Y-30924393D01*
X47786863Y-30893177D01*
X47760966Y-30862914D01*
X47750276Y-30842860D01*
X47747641Y-30836233D01*
X47726830Y-30828431D01*
X47715896Y-30825708D01*
X47703384Y-30804985D01*
X47701488Y-30794181D01*
X47686637Y-30781539D01*
X47663057Y-30771832D01*
X47637070Y-30746648D01*
X47625230Y-30720132D01*
X47622576Y-30712415D01*
X47601784Y-30703385D01*
X47590850Y-30700662D01*
X47578338Y-30679939D01*
X47575615Y-30669005D01*
X47554892Y-30656493D01*
X47543958Y-30653769D01*
X47531446Y-30633047D01*
X47529620Y-30622252D01*
X47515288Y-30609600D01*
X47503209Y-30604776D01*
X47474911Y-30582855D01*
X47443096Y-30551719D01*
X47417136Y-30520828D01*
X47406400Y-30499646D01*
X47406043Y-30496389D01*
X47391308Y-30484554D01*
X47379111Y-30479777D01*
X47350535Y-30458069D01*
X47318409Y-30427233D01*
X47292194Y-30396642D01*
X47281353Y-30375666D01*
X47278704Y-30368227D01*
X47257907Y-30359508D01*
X47246973Y-30356785D01*
X47234461Y-30336062D01*
X47231738Y-30325128D01*
X47211015Y-30312616D01*
X47200081Y-30309892D01*
X47187569Y-30289170D01*
X47185805Y-30278384D01*
X47171938Y-30265724D01*
X47162853Y-30259861D01*
X47156307Y-30234462D01*
X47159238Y-30216292D01*
X47171938Y-30203200D01*
X47175674Y-30203655D01*
X47187569Y-30218831D01*
X47190214Y-30226022D01*
X47211015Y-30234462D01*
X47221819Y-30236358D01*
X47234461Y-30251209D01*
X47244168Y-30274789D01*
X47269352Y-30300776D01*
X47295868Y-30312616D01*
X47303585Y-30315270D01*
X47312615Y-30336062D01*
X47315338Y-30346996D01*
X47336061Y-30359508D01*
X47346995Y-30362231D01*
X47359507Y-30382954D01*
X47362231Y-30393889D01*
X47382953Y-30406400D01*
X47393757Y-30408297D01*
X47406400Y-30423148D01*
X47416107Y-30446728D01*
X47441290Y-30472714D01*
X47467806Y-30484554D01*
X47475523Y-30487209D01*
X47484553Y-30508000D01*
X47487277Y-30518935D01*
X47508000Y-30531447D01*
X47518934Y-30534170D01*
X47531446Y-30554893D01*
X47534169Y-30565827D01*
X47554892Y-30578339D01*
X47565696Y-30580235D01*
X47578338Y-30595086D01*
X47588045Y-30618666D01*
X47613228Y-30644653D01*
X47639745Y-30656493D01*
X47647462Y-30659147D01*
X47656492Y-30679939D01*
X47659215Y-30690873D01*
X47679938Y-30703385D01*
X47690872Y-30706108D01*
X47703384Y-30726831D01*
X47705774Y-30737709D01*
X47724189Y-30750277D01*
X47743984Y-30760798D01*
X47765907Y-30789354D01*
X47785747Y-30815960D01*
X47807625Y-30828431D01*
X47817278Y-30831125D01*
X47828430Y-30851877D01*
X47831154Y-30862812D01*
X47851876Y-30875324D01*
X47862811Y-30878047D01*
X47875323Y-30898770D01*
X47882971Y-30914063D01*
X47914400Y-30922216D01*
X47921601Y-30922381D01*
X47947021Y-30931547D01*
X47953476Y-30961293D01*
X47953479Y-30962138D01*
X47960833Y-30992008D01*
X47986459Y-31000370D01*
X47995957Y-31003180D01*
X48030417Y-31026453D01*
X48084717Y-31073018D01*
X48158517Y-31142578D01*
X48251481Y-31234831D01*
X48274121Y-31257630D01*
X48342077Y-31325094D01*
X48402098Y-31383267D01*
X48450714Y-31428876D01*
X48484456Y-31458643D01*
X48499853Y-31469293D01*
X48504179Y-31469832D01*
X48516184Y-31484324D01*
X48523602Y-31499526D01*
X48548147Y-31530276D01*
X48582671Y-31567420D01*
X48619672Y-31603360D01*
X48651649Y-31630497D01*
X48671098Y-31641231D01*
X48676035Y-31641883D01*
X48688123Y-31656350D01*
X48694539Y-31667286D01*
X48718444Y-31696200D01*
X48754816Y-31736520D01*
X48798097Y-31782466D01*
X48842729Y-31828262D01*
X48883155Y-31868128D01*
X48913815Y-31896284D01*
X48929153Y-31906954D01*
X48929680Y-31906135D01*
X48932033Y-31884517D01*
X48934405Y-31836438D01*
X48936687Y-31765801D01*
X48938768Y-31676509D01*
X48940537Y-31572464D01*
X48941883Y-31457570D01*
X48945024Y-31117206D01*
X48987764Y-31117206D01*
X48989510Y-31137446D01*
X48992181Y-31161208D01*
X48992859Y-31169541D01*
X48995254Y-31216886D01*
X48997268Y-31284346D01*
X48998883Y-31366785D01*
X49000079Y-31459064D01*
X49000836Y-31556048D01*
X49001137Y-31652598D01*
X49000962Y-31743578D01*
X49000291Y-31823850D01*
X48999105Y-31888277D01*
X48997387Y-31931723D01*
X48995115Y-31949049D01*
X48997463Y-31955895D01*
X49016892Y-31980622D01*
X49050986Y-32018235D01*
X49094732Y-32063747D01*
X49143115Y-32112169D01*
X49191121Y-32158513D01*
X49233738Y-32197792D01*
X49265951Y-32225017D01*
X49282746Y-32235200D01*
X49289629Y-32237840D01*
X49297723Y-32258647D01*
X49299486Y-32269432D01*
X49313353Y-32282093D01*
X49320544Y-32284738D01*
X49328984Y-32305539D01*
X49330920Y-32316348D01*
X49346061Y-32328985D01*
X49360053Y-32337031D01*
X49392022Y-32363477D01*
X49436101Y-32403987D01*
X49487179Y-32454031D01*
X49531940Y-32498590D01*
X49575136Y-32540321D01*
X49605974Y-32568642D01*
X49619711Y-32579077D01*
X49629163Y-32583554D01*
X49651648Y-32602524D01*
X49667793Y-32616010D01*
X49689608Y-32625970D01*
X49696275Y-32623333D01*
X49704123Y-32602524D01*
X49713787Y-32586068D01*
X49751015Y-32579077D01*
X49783927Y-32574245D01*
X49797907Y-32555631D01*
X49805139Y-32540644D01*
X49835312Y-32532185D01*
X49860794Y-32526958D01*
X49881714Y-32508739D01*
X49896989Y-32493571D01*
X49930278Y-32485293D01*
X49956454Y-32481359D01*
X49969846Y-32469662D01*
X49979548Y-32459382D01*
X50008923Y-32454031D01*
X50034412Y-32449442D01*
X50048000Y-32430585D01*
X50053963Y-32416738D01*
X50080007Y-32407139D01*
X50081354Y-32407106D01*
X50114181Y-32395123D01*
X50148231Y-32368062D01*
X50150887Y-32365246D01*
X50180305Y-32339544D01*
X50202192Y-32328985D01*
X50202424Y-32328981D01*
X50214802Y-32315007D01*
X50219938Y-32282093D01*
X50224770Y-32249181D01*
X50243384Y-32235200D01*
X50254318Y-32232477D01*
X50266830Y-32211754D01*
X50269368Y-32200852D01*
X50288813Y-32188308D01*
X50301330Y-32183207D01*
X50302671Y-32157237D01*
X50301545Y-32137558D01*
X50319765Y-32116487D01*
X50332306Y-32108772D01*
X50344984Y-32085036D01*
X50347688Y-32074915D01*
X50368430Y-32063262D01*
X50383418Y-32056030D01*
X50391876Y-32025857D01*
X50397104Y-32000375D01*
X50415323Y-31979456D01*
X50430490Y-31964180D01*
X50438769Y-31930891D01*
X50442703Y-31904715D01*
X50454400Y-31891324D01*
X50464680Y-31881622D01*
X50470030Y-31852247D01*
X50474619Y-31826758D01*
X50493476Y-31813170D01*
X50509932Y-31803505D01*
X50516923Y-31766277D01*
X50521755Y-31733366D01*
X50540369Y-31719385D01*
X50555356Y-31712153D01*
X50563815Y-31681980D01*
X50569042Y-31656498D01*
X50587261Y-31635579D01*
X50602429Y-31620303D01*
X50610707Y-31587014D01*
X50614641Y-31560838D01*
X50626338Y-31547447D01*
X50636618Y-31537745D01*
X50641969Y-31508370D01*
X50646558Y-31482881D01*
X50665415Y-31469293D01*
X50672156Y-31468158D01*
X50684990Y-31450244D01*
X50688861Y-31406770D01*
X50689287Y-31388795D01*
X50696004Y-31354571D01*
X50712307Y-31344247D01*
X50722252Y-31341387D01*
X50732685Y-31320269D01*
X50735753Y-31273908D01*
X50735914Y-31261779D01*
X50741738Y-31218009D01*
X50756073Y-31203570D01*
X50756684Y-31203554D01*
X50771269Y-31188123D01*
X50776393Y-31145996D01*
X50776609Y-31137226D01*
X50782888Y-31100354D01*
X50795150Y-31082171D01*
X50808740Y-31076532D01*
X50812720Y-31070360D01*
X50800679Y-31065097D01*
X50770922Y-31060675D01*
X50721758Y-31057028D01*
X50651492Y-31054089D01*
X50558431Y-31051789D01*
X50440884Y-31050062D01*
X50297155Y-31048841D01*
X50125553Y-31048059D01*
X49924384Y-31047649D01*
X49872123Y-31047583D01*
X49684230Y-31047303D01*
X49524730Y-31047200D01*
X49391335Y-31047551D01*
X49281754Y-31048637D01*
X49193700Y-31050735D01*
X49124882Y-31054125D01*
X49073013Y-31059085D01*
X49035802Y-31065895D01*
X49010961Y-31074834D01*
X48996200Y-31086179D01*
X48989231Y-31100210D01*
X48987764Y-31117206D01*
X48945024Y-31117206D01*
X48946030Y-31008185D01*
X49887784Y-31004155D01*
X50829538Y-31000126D01*
X50829538Y-30961171D01*
X50833060Y-30931511D01*
X50843149Y-30923483D01*
X50855637Y-30940680D01*
X50866281Y-30980831D01*
X50865113Y-31024676D01*
X50856187Y-31070360D01*
X50851711Y-31093268D01*
X50827427Y-31181242D01*
X50793784Y-31284215D01*
X50752305Y-31397806D01*
X50704513Y-31517633D01*
X50651930Y-31639312D01*
X50596079Y-31758462D01*
X50576271Y-31798449D01*
X50420765Y-32081342D01*
X50247522Y-32343363D01*
X50052056Y-32590786D01*
X49988962Y-32658685D01*
X49881379Y-32774462D01*
X49829881Y-32829882D01*
X49799075Y-32860407D01*
X49559333Y-33078785D01*
X49310283Y-33271181D01*
X49045476Y-33442211D01*
X48758461Y-33596490D01*
X48727036Y-33611691D01*
X48624993Y-33658373D01*
X48517692Y-33703988D01*
X48408902Y-33747266D01*
X48302391Y-33786939D01*
X48201927Y-33821736D01*
X48111280Y-33850389D01*
X48034216Y-33871629D01*
X47974506Y-33884185D01*
X47935916Y-33886789D01*
X47922215Y-33878171D01*
X47921883Y-33874382D01*
X47908772Y-33861671D01*
X47886703Y-33865498D01*
X47869670Y-33884247D01*
X47869279Y-33885197D01*
X47853953Y-33898493D01*
X47818945Y-33905592D01*
X47758582Y-33907693D01*
X47744988Y-33907753D01*
X47692349Y-33910244D01*
X47664587Y-33917205D01*
X47656492Y-33929765D01*
X47656357Y-33931139D01*
X47656159Y-33933153D01*
X47647705Y-33944586D01*
X47624731Y-33954484D01*
X47583076Y-33963847D01*
X47518579Y-33973676D01*
X47427079Y-33984973D01*
X47404444Y-33987267D01*
X47323942Y-33992504D01*
X47222350Y-33996185D01*
X47107094Y-33998307D01*
X46985600Y-33998865D01*
X46865296Y-33997858D01*
X46753607Y-33995279D01*
X46657961Y-33991127D01*
X46585784Y-33985397D01*
X46519421Y-33977716D01*
X46444740Y-33967970D01*
X46394065Y-33959249D01*
X46363139Y-33950569D01*
X46347706Y-33940948D01*
X46343507Y-33929399D01*
X46343429Y-33927865D01*
X46332935Y-33915938D01*
X46301309Y-33909574D01*
X46243580Y-33907693D01*
X46243399Y-33907693D01*
X46183685Y-33905486D01*
X46149318Y-33898076D01*
X46134655Y-33884247D01*
X46131347Y-33877938D01*
X46111011Y-33863225D01*
X46088446Y-33862799D01*
X46077784Y-33878171D01*
X46076290Y-33882283D01*
X46054081Y-33887112D01*
X46008209Y-33881132D01*
X45942441Y-33865612D01*
X45860546Y-33841822D01*
X45766292Y-33811032D01*
X45663448Y-33774509D01*
X45555783Y-33733525D01*
X45447064Y-33689347D01*
X45341059Y-33643246D01*
X45241538Y-33596490D01*
X45202759Y-33577226D01*
X44918994Y-33421032D01*
X44792198Y-33337170D01*
X45499446Y-33337170D01*
X45507261Y-33344985D01*
X45515076Y-33337170D01*
X45507261Y-33329354D01*
X45499446Y-33337170D01*
X44792198Y-33337170D01*
X44656599Y-33247486D01*
X44493127Y-33118339D01*
X44639753Y-33118339D01*
X44647569Y-33126154D01*
X44655384Y-33118339D01*
X44647569Y-33110524D01*
X44639753Y-33118339D01*
X44493127Y-33118339D01*
X44409124Y-33051975D01*
X44170118Y-32829882D01*
X44010339Y-32658552D01*
X44382662Y-32658552D01*
X44392537Y-32663634D01*
X44420748Y-32661806D01*
X44440410Y-32660684D01*
X44461482Y-32678904D01*
X44475861Y-32694711D01*
X44508564Y-32704124D01*
X44532475Y-32708657D01*
X44545969Y-32727570D01*
X44555633Y-32744026D01*
X44592861Y-32751016D01*
X44625773Y-32755848D01*
X44639753Y-32774462D01*
X44647402Y-32789755D01*
X44678830Y-32797908D01*
X44704531Y-32801789D01*
X44717907Y-32813539D01*
X44727866Y-32823880D01*
X44757475Y-32829170D01*
X44785222Y-32834772D01*
X44806039Y-32852616D01*
X44820025Y-32867331D01*
X44852441Y-32876062D01*
X44876351Y-32880595D01*
X44889846Y-32899508D01*
X44899510Y-32915964D01*
X44936738Y-32922954D01*
X44969542Y-32927887D01*
X44983630Y-32944937D01*
X44988731Y-32957454D01*
X45014702Y-32958794D01*
X45034380Y-32957669D01*
X45055451Y-32975889D01*
X45070124Y-32991811D01*
X45103024Y-33001108D01*
X45129020Y-33006422D01*
X45149916Y-33024554D01*
X45163902Y-33039270D01*
X45196318Y-33048000D01*
X45220228Y-33052534D01*
X45233723Y-33071447D01*
X45241494Y-33086826D01*
X45273290Y-33094893D01*
X45301037Y-33100496D01*
X45321855Y-33118339D01*
X45335841Y-33133054D01*
X45368257Y-33141785D01*
X45392337Y-33145479D01*
X45405661Y-33157416D01*
X45414501Y-33167479D01*
X45443066Y-33173047D01*
X45468548Y-33178274D01*
X45489467Y-33196493D01*
X45504743Y-33211660D01*
X45538032Y-33219939D01*
X45563985Y-33224544D01*
X45577600Y-33243385D01*
X45585017Y-33258513D01*
X45615754Y-33266831D01*
X45642023Y-33270362D01*
X45663569Y-33282462D01*
X45673932Y-33291024D01*
X45704059Y-33298093D01*
X45722635Y-33302037D01*
X45743886Y-33321539D01*
X45757872Y-33336254D01*
X45761273Y-33337170D01*
X45790287Y-33344985D01*
X45814198Y-33349518D01*
X45827692Y-33368431D01*
X45837356Y-33384887D01*
X45874584Y-33391877D01*
X45907496Y-33396709D01*
X45921476Y-33415324D01*
X45927763Y-33429496D01*
X45954923Y-33438770D01*
X45977489Y-33443616D01*
X46008787Y-33466124D01*
X46011984Y-33468637D01*
X46016322Y-33463539D01*
X46019922Y-33445431D01*
X46022852Y-33412030D01*
X46025185Y-33361056D01*
X46026988Y-33290227D01*
X46028331Y-33197262D01*
X46029286Y-33079880D01*
X46029921Y-32935799D01*
X46030305Y-32762739D01*
X46031404Y-32032000D01*
X45516169Y-32032000D01*
X45000934Y-32032000D01*
X44820344Y-32211256D01*
X44779166Y-32252554D01*
X44723778Y-32309624D01*
X44679588Y-32357023D01*
X44650335Y-32390710D01*
X44639753Y-32406640D01*
X44639238Y-32410796D01*
X44624534Y-32422770D01*
X44608625Y-32431111D01*
X44577924Y-32456442D01*
X44540996Y-32491442D01*
X44505338Y-32528614D01*
X44478445Y-32560462D01*
X44467815Y-32579489D01*
X44467396Y-32583005D01*
X44452363Y-32594708D01*
X44435456Y-32600156D01*
X44408992Y-32618909D01*
X44387778Y-32641687D01*
X44382662Y-32658552D01*
X44010339Y-32658552D01*
X43961070Y-32605721D01*
X43755210Y-32346918D01*
X43573777Y-32073265D01*
X43413503Y-31780231D01*
X43397170Y-31746700D01*
X43353524Y-31652008D01*
X43309787Y-31550600D01*
X43267358Y-31446405D01*
X43227636Y-31343353D01*
X43192023Y-31245374D01*
X43161917Y-31156398D01*
X43138718Y-31080353D01*
X43123826Y-31021170D01*
X43122073Y-31008185D01*
X43186083Y-31008185D01*
X43186087Y-31041682D01*
X43190652Y-31063082D01*
X43209922Y-31084323D01*
X43224347Y-31096969D01*
X43224307Y-31131100D01*
X43222321Y-31141850D01*
X43228809Y-31174244D01*
X43258933Y-31209597D01*
X43268611Y-31219061D01*
X43286032Y-31241494D01*
X43283624Y-31250462D01*
X43269931Y-31263437D01*
X43264246Y-31297354D01*
X43269078Y-31330266D01*
X43287692Y-31344247D01*
X43294432Y-31345381D01*
X43307266Y-31363295D01*
X43311138Y-31406770D01*
X43311564Y-31424745D01*
X43318281Y-31458968D01*
X43334584Y-31469293D01*
X43349572Y-31476525D01*
X43358030Y-31506697D01*
X43363258Y-31532180D01*
X43381476Y-31553099D01*
X43396644Y-31568375D01*
X43404923Y-31601664D01*
X43408857Y-31627840D01*
X43420553Y-31641231D01*
X43430834Y-31650933D01*
X43436184Y-31680308D01*
X43440773Y-31705797D01*
X43459630Y-31719385D01*
X43476086Y-31729049D01*
X43483076Y-31766277D01*
X43487909Y-31799189D01*
X43506523Y-31813170D01*
X43521510Y-31820402D01*
X43529969Y-31850574D01*
X43535426Y-31876125D01*
X43554493Y-31897390D01*
X43568176Y-31907787D01*
X43569046Y-31938216D01*
X43566472Y-31958985D01*
X43583599Y-31979042D01*
X43598978Y-31993267D01*
X43608123Y-32025857D01*
X43612656Y-32049768D01*
X43631569Y-32063262D01*
X43642467Y-32065773D01*
X43655015Y-32085036D01*
X43657246Y-32095371D01*
X43677248Y-32115341D01*
X43688998Y-32125402D01*
X43691056Y-32156090D01*
X43689821Y-32179028D01*
X43707900Y-32188308D01*
X43720519Y-32191462D01*
X43733169Y-32211754D01*
X43735892Y-32222689D01*
X43756615Y-32235200D01*
X43773071Y-32244865D01*
X43780061Y-32282093D01*
X43780063Y-32282706D01*
X43785351Y-32315412D01*
X43797807Y-32328985D01*
X43799180Y-32329086D01*
X43822278Y-32341415D01*
X43851769Y-32368062D01*
X43853285Y-32369669D01*
X43887676Y-32396187D01*
X43919992Y-32407139D01*
X43938895Y-32411507D01*
X43952000Y-32430585D01*
X43959648Y-32445878D01*
X43991076Y-32454031D01*
X44016777Y-32457912D01*
X44030153Y-32469662D01*
X44040112Y-32480003D01*
X44069721Y-32485293D01*
X44097468Y-32490896D01*
X44118286Y-32508739D01*
X44132563Y-32523561D01*
X44165178Y-32532185D01*
X44191174Y-32537499D01*
X44212070Y-32555631D01*
X44226056Y-32570347D01*
X44258472Y-32579077D01*
X44282382Y-32583611D01*
X44295876Y-32602524D01*
X44300177Y-32614900D01*
X44323230Y-32624667D01*
X44332607Y-32622883D01*
X44364718Y-32604500D01*
X44393081Y-32575605D01*
X44405292Y-32547816D01*
X44406031Y-32543270D01*
X44422317Y-32532185D01*
X44437326Y-32524672D01*
X44467685Y-32499811D01*
X44504357Y-32464843D01*
X44539841Y-32427365D01*
X44566633Y-32394976D01*
X44577230Y-32375277D01*
X44577964Y-32370920D01*
X44594255Y-32360247D01*
X44609265Y-32352733D01*
X44639624Y-32327873D01*
X44676296Y-32292904D01*
X44711779Y-32255426D01*
X44738571Y-32223038D01*
X44749169Y-32203339D01*
X44749765Y-32199327D01*
X44765554Y-32188308D01*
X44774121Y-32184145D01*
X44802061Y-32162041D01*
X44842624Y-32125186D01*
X44890291Y-32078441D01*
X44998643Y-31968573D01*
X45001176Y-31499721D01*
X45001376Y-31457215D01*
X45001601Y-31342544D01*
X45001353Y-31239631D01*
X45000671Y-31152377D01*
X44999593Y-31084681D01*
X44998160Y-31040445D01*
X44996409Y-31023569D01*
X44985138Y-31022429D01*
X44945160Y-31020984D01*
X44878977Y-31019518D01*
X44789378Y-31018065D01*
X44679145Y-31016661D01*
X44551065Y-31015341D01*
X44407924Y-31014138D01*
X44252505Y-31013089D01*
X44087596Y-31012227D01*
X43186083Y-31008185D01*
X43122073Y-31008185D01*
X43118642Y-30982779D01*
X43124565Y-30969108D01*
X43131288Y-30966471D01*
X43139200Y-30945662D01*
X43142681Y-30931101D01*
X43158242Y-30922586D01*
X43173066Y-30937545D01*
X43173321Y-30937884D01*
X43192900Y-30941343D01*
X43242614Y-30944543D01*
X43321434Y-30947461D01*
X43428332Y-30950076D01*
X43562279Y-30952367D01*
X43722245Y-30954313D01*
X43907203Y-30955892D01*
X44116123Y-30957083D01*
X45053969Y-30961293D01*
X45057305Y-31342544D01*
X45058106Y-31434124D01*
X45058551Y-31481226D01*
X45059918Y-31595457D01*
X45061542Y-31697450D01*
X45063337Y-31783401D01*
X45065216Y-31849505D01*
X45067093Y-31891958D01*
X45068881Y-31906954D01*
X45080068Y-31899499D01*
X45108279Y-31874023D01*
X45147371Y-31835919D01*
X45191798Y-31790910D01*
X45236010Y-31744720D01*
X45274459Y-31703073D01*
X45301597Y-31671691D01*
X45311876Y-31656297D01*
X45314517Y-31649372D01*
X45335323Y-31641231D01*
X45346257Y-31638508D01*
X45358769Y-31617785D01*
X45360595Y-31606991D01*
X45374926Y-31594339D01*
X45387005Y-31589515D01*
X45415303Y-31567594D01*
X45447118Y-31536457D01*
X45473079Y-31505566D01*
X45483815Y-31484385D01*
X45484507Y-31480110D01*
X45500648Y-31469293D01*
X45505414Y-31468194D01*
X45530681Y-31452326D01*
X45563171Y-31423603D01*
X45573123Y-31413246D01*
X45598637Y-31381886D01*
X45608861Y-31361080D01*
X45611516Y-31353322D01*
X45632307Y-31344247D01*
X45643242Y-31341523D01*
X45655753Y-31320800D01*
X45657579Y-31310006D01*
X45671911Y-31297354D01*
X45683990Y-31292530D01*
X45712288Y-31270609D01*
X45744103Y-31239472D01*
X45770064Y-31208582D01*
X45780800Y-31187400D01*
X45781382Y-31183411D01*
X45797113Y-31172308D01*
X45799065Y-31171912D01*
X45820375Y-31157755D01*
X45855306Y-31127372D01*
X45897359Y-31086339D01*
X45944989Y-31041895D01*
X45986089Y-31011573D01*
X46013907Y-31000370D01*
X46014190Y-31000369D01*
X46039413Y-30991709D01*
X46046523Y-30961293D01*
X46046688Y-30954091D01*
X46055854Y-30928672D01*
X46085600Y-30922216D01*
X46111089Y-30917627D01*
X46124676Y-30898770D01*
X46127400Y-30887835D01*
X46148123Y-30875324D01*
X46159057Y-30872600D01*
X46171569Y-30851877D01*
X46173959Y-30840999D01*
X46192374Y-30828431D01*
X46212169Y-30817911D01*
X46234092Y-30789354D01*
X46253932Y-30762749D01*
X46275810Y-30750277D01*
X46285463Y-30747584D01*
X46296615Y-30726831D01*
X46299338Y-30715897D01*
X46320061Y-30703385D01*
X46330995Y-30700662D01*
X46343507Y-30679939D01*
X46345403Y-30669135D01*
X46360255Y-30656493D01*
X46383834Y-30646785D01*
X46409821Y-30621602D01*
X46421661Y-30595086D01*
X46424316Y-30587369D01*
X46445107Y-30578339D01*
X46456042Y-30575616D01*
X46468553Y-30554893D01*
X46471277Y-30543958D01*
X46492000Y-30531447D01*
X46502934Y-30528723D01*
X46515446Y-30508000D01*
X46517342Y-30497197D01*
X46532193Y-30484554D01*
X46555773Y-30474847D01*
X46581760Y-30449664D01*
X46593600Y-30423148D01*
X46596254Y-30415431D01*
X46617046Y-30406400D01*
X46627980Y-30403677D01*
X46640492Y-30382954D01*
X46643215Y-30372020D01*
X46663938Y-30359508D01*
X46674872Y-30356785D01*
X46687384Y-30336062D01*
X46689280Y-30325258D01*
X46704131Y-30312616D01*
X46727711Y-30302908D01*
X46753698Y-30277725D01*
X46765538Y-30251209D01*
X46767617Y-30244088D01*
X46787312Y-30234462D01*
X46799889Y-30230757D01*
X46819086Y-30208402D01*
X46828875Y-30193160D01*
X46845921Y-30199177D01*
X46849810Y-30206376D01*
X46847035Y-30235329D01*
X46831270Y-30270476D01*
X46808726Y-30300133D01*
X46785614Y-30312616D01*
X46777941Y-30313768D01*
X46765538Y-30327708D01*
X46760761Y-30339905D01*
X46739052Y-30368480D01*
X46708217Y-30400606D01*
X46677626Y-30426821D01*
X46656649Y-30437662D01*
X46649211Y-30440311D01*
X46640492Y-30461108D01*
X46637769Y-30472042D01*
X46617046Y-30484554D01*
X46606111Y-30487278D01*
X46593600Y-30508000D01*
X46590876Y-30518935D01*
X46570153Y-30531447D01*
X46559350Y-30533343D01*
X46546707Y-30548194D01*
X46537000Y-30571774D01*
X46511817Y-30597761D01*
X46485301Y-30609600D01*
X46477584Y-30612255D01*
X46468553Y-30633047D01*
X46465830Y-30643981D01*
X46445107Y-30656493D01*
X46434330Y-30658193D01*
X46421661Y-30671585D01*
X46416884Y-30683782D01*
X46395175Y-30712357D01*
X46364340Y-30744483D01*
X46333749Y-30770698D01*
X46312773Y-30781539D01*
X46305334Y-30784188D01*
X46296615Y-30804985D01*
X46293892Y-30815919D01*
X46273169Y-30828431D01*
X46262375Y-30830257D01*
X46249723Y-30844589D01*
X46244898Y-30856668D01*
X46222978Y-30884966D01*
X46191841Y-30916781D01*
X46160950Y-30942741D01*
X46139768Y-30953477D01*
X46136529Y-30953816D01*
X46124676Y-30967995D01*
X46124494Y-30969992D01*
X46111341Y-30994096D01*
X46083440Y-31026474D01*
X46049320Y-31058924D01*
X46017510Y-31083242D01*
X45996541Y-31091226D01*
X45993832Y-31092356D01*
X45972468Y-31109462D01*
X45933010Y-31144865D01*
X45878358Y-31195723D01*
X45811412Y-31259192D01*
X45735072Y-31332431D01*
X45652239Y-31412597D01*
X45565812Y-31496848D01*
X45478692Y-31582340D01*
X45393778Y-31666231D01*
X45313971Y-31745680D01*
X45242172Y-31817842D01*
X45181279Y-31879876D01*
X45134194Y-31928939D01*
X45103816Y-31962189D01*
X45093046Y-31976783D01*
X45097188Y-31977862D01*
X45126983Y-31979813D01*
X45182372Y-31981551D01*
X45259623Y-31983013D01*
X45355009Y-31984135D01*
X45464800Y-31984854D01*
X45585268Y-31985108D01*
X46077490Y-31985108D01*
X46077737Y-32032000D01*
X46081545Y-32754924D01*
X46085600Y-33524739D01*
X46128584Y-33529685D01*
X46158051Y-33537068D01*
X46171569Y-33549223D01*
X46177650Y-33557785D01*
X46203321Y-33563816D01*
X46222867Y-33567954D01*
X46244070Y-33587262D01*
X46261663Y-33603198D01*
X46298287Y-33610708D01*
X46329608Y-33615491D01*
X46343507Y-33634154D01*
X46350739Y-33649142D01*
X46380912Y-33657600D01*
X46406394Y-33662828D01*
X46427314Y-33681047D01*
X46442589Y-33696214D01*
X46475878Y-33704493D01*
X46502054Y-33708427D01*
X46515446Y-33720124D01*
X46525148Y-33730404D01*
X46554523Y-33735754D01*
X46580012Y-33740343D01*
X46593600Y-33759200D01*
X46601371Y-33774579D01*
X46633167Y-33782647D01*
X46660914Y-33788249D01*
X46681732Y-33806093D01*
X46694732Y-33820423D01*
X46726461Y-33829539D01*
X46750190Y-33834461D01*
X46771191Y-33852985D01*
X46786466Y-33868153D01*
X46819755Y-33876431D01*
X46845931Y-33880365D01*
X46859323Y-33892062D01*
X46869025Y-33902342D01*
X46898400Y-33907693D01*
X46923889Y-33912282D01*
X46937476Y-33931139D01*
X46940200Y-33942073D01*
X46960923Y-33954585D01*
X46971857Y-33951862D01*
X46984369Y-33931139D01*
X46981645Y-33920205D01*
X46960923Y-33907693D01*
X46950692Y-33903583D01*
X46939205Y-33879652D01*
X46937097Y-33844959D01*
X46944359Y-33811833D01*
X46960986Y-33792600D01*
X46963046Y-33791005D01*
X46966388Y-33783694D01*
X46969352Y-33769273D01*
X46971954Y-33746131D01*
X46974212Y-33712658D01*
X46976141Y-33667245D01*
X46977760Y-33608281D01*
X46979084Y-33534157D01*
X46980130Y-33443261D01*
X46980916Y-33333985D01*
X46981458Y-33204718D01*
X46981772Y-33053850D01*
X46981876Y-32879771D01*
X46981787Y-32680871D01*
X46981521Y-32455540D01*
X46981094Y-32202167D01*
X46980525Y-31919144D01*
X46976553Y-30054708D01*
X45103667Y-30054708D01*
X44860853Y-30054721D01*
X44604686Y-30054784D01*
X44376712Y-30054919D01*
X44175277Y-30055152D01*
X43998725Y-30055507D01*
X43845405Y-30056007D01*
X43713660Y-30056676D01*
X43601838Y-30057538D01*
X43508284Y-30058618D01*
X43431345Y-30059939D01*
X43369367Y-30061524D01*
X43320695Y-30063399D01*
X43283675Y-30065587D01*
X43256654Y-30068112D01*
X43237977Y-30070998D01*
X43225991Y-30074269D01*
X43219042Y-30077949D01*
X43215475Y-30082062D01*
X43203922Y-30094233D01*
X43172396Y-30107095D01*
X43135594Y-30110250D01*
X43105052Y-30103330D01*
X43092307Y-30085970D01*
X43089584Y-30075035D01*
X43068861Y-30062524D01*
X43061536Y-30064516D01*
X43053469Y-30077482D01*
X43048544Y-30106825D01*
X43046085Y-30157500D01*
X43045415Y-30234462D01*
X43045687Y-30288182D01*
X43047455Y-30347335D01*
X43051456Y-30383452D01*
X43058366Y-30401489D01*
X43068861Y-30406400D01*
X43070565Y-30406475D01*
X43081413Y-30413488D01*
X43088059Y-30435697D01*
X43091394Y-30478447D01*
X43092307Y-30547077D01*
X43091531Y-30608084D01*
X43088194Y-30655508D01*
X43081549Y-30680484D01*
X43070873Y-30687754D01*
X43066995Y-30686834D01*
X43052070Y-30664281D01*
X43038907Y-30613082D01*
X43027701Y-30535312D01*
X43018647Y-30433044D01*
X43011938Y-30308354D01*
X43007771Y-30163314D01*
X43006338Y-30000000D01*
X43006424Y-29958676D01*
X43008541Y-29799619D01*
X43013345Y-29659342D01*
X43020642Y-29539919D01*
X43030238Y-29443423D01*
X43041939Y-29371930D01*
X43055548Y-29327513D01*
X43070873Y-29312247D01*
X43080168Y-29317339D01*
X43087394Y-29339243D01*
X43091199Y-29382856D01*
X43092307Y-29452924D01*
X43092295Y-29463146D01*
X43091126Y-29528234D01*
X43087424Y-29568110D01*
X43080300Y-29588118D01*
X43068861Y-29593600D01*
X43068654Y-29593602D01*
X43058784Y-29598392D01*
X43052088Y-29615624D01*
X43048005Y-29649999D01*
X43045968Y-29706219D01*
X43045415Y-29788985D01*
X43045415Y-29790710D01*
X43045990Y-29872965D01*
X43048058Y-29928757D01*
X43052183Y-29962787D01*
X43058929Y-29979758D01*
X43068861Y-29984370D01*
X43079795Y-29981646D01*
X43092307Y-29960924D01*
X43093442Y-29954183D01*
X43111356Y-29941349D01*
X43154830Y-29937477D01*
X43168831Y-29937126D01*
X43203482Y-29932317D01*
X43217353Y-29923670D01*
X43219440Y-29917780D01*
X43240797Y-29904573D01*
X43273939Y-29897800D01*
X43304740Y-29901107D01*
X43315291Y-29906705D01*
X43319182Y-29920617D01*
X43300046Y-29932466D01*
X43263323Y-29937477D01*
X43231289Y-29942283D01*
X43217353Y-29960924D01*
X43218425Y-29963262D01*
X43225003Y-29966561D01*
X43238961Y-29969504D01*
X43261891Y-29972110D01*
X43295385Y-29974399D01*
X43341036Y-29976391D01*
X43400436Y-29978106D01*
X43475176Y-29979564D01*
X43566849Y-29980784D01*
X43677047Y-29981786D01*
X43807361Y-29982591D01*
X43959385Y-29983217D01*
X44134710Y-29983685D01*
X44334928Y-29984014D01*
X44561631Y-29984225D01*
X44816411Y-29984337D01*
X45100861Y-29984370D01*
X46984369Y-29984370D01*
X46984369Y-28116493D01*
X46984358Y-27949057D01*
X46984281Y-27683194D01*
X46984113Y-27446069D01*
X46983833Y-27236085D01*
X46983422Y-27051641D01*
X46982859Y-26891140D01*
X46982125Y-26752983D01*
X46981198Y-26635571D01*
X46980060Y-26537306D01*
X46978690Y-26456588D01*
X46977068Y-26391820D01*
X46975174Y-26341402D01*
X46972988Y-26303736D01*
X46970490Y-26277223D01*
X46967660Y-26260264D01*
X46964478Y-26251261D01*
X46960923Y-26248616D01*
X46948677Y-26243615D01*
X46939987Y-26219610D01*
X46937476Y-26170462D01*
X46938977Y-26129642D01*
X46946178Y-26100675D01*
X46960923Y-26092308D01*
X46971857Y-26089585D01*
X46984369Y-26068862D01*
X46981645Y-26057928D01*
X46960923Y-26045416D01*
X46949988Y-26048139D01*
X46937476Y-26068862D01*
X46929828Y-26084155D01*
G37*
X40500000Y-72640000D02*
X40500000Y-76650000D01*
X38500000Y-72640000D02*
X40500000Y-72640000D01*
X38500000Y-72640000D02*
X38500000Y-76650000D01*
%LPC*%
D12*
X41700000Y-60000000D03*
D13*
X41780000Y-56384200D03*
D14*
X42000000Y-63800000D03*
X44460000Y-65080000D03*
D15*
X47000000Y-60000000D03*
D14*
X47000000Y-65900000D03*
X50810000Y-62540000D03*
D13*
X52220000Y-56384200D03*
D12*
X52300000Y-60000000D03*
D16*
X49378000Y-54754900D03*
D17*
X38660000Y-63800000D03*
X50560000Y-65900000D03*
D16*
X44348100Y-54754900D03*
X49378000Y-56253500D03*
X44348100Y-56253500D03*
D18*
X40910000Y-65515000D03*
D19*
X53860000Y-62540000D03*
D12*
X41700000Y-41000000D03*
D13*
X41780000Y-37384200D03*
D14*
X42000000Y-44800000D03*
X44460000Y-46080000D03*
D15*
X47000000Y-41000000D03*
D14*
X47000000Y-46900000D03*
X50810000Y-43540000D03*
D13*
X52220000Y-37384200D03*
D12*
X52300000Y-41000000D03*
D16*
X49378000Y-35754900D03*
D17*
X38660000Y-44800000D03*
X50560000Y-46900000D03*
D16*
X44348100Y-35754900D03*
X49378000Y-37253500D03*
X44348100Y-37253500D03*
D18*
X40910000Y-46515000D03*
D19*
X53860000Y-43540000D03*
D12*
X41700000Y-79000000D03*
D13*
X41780000Y-75384200D03*
D14*
X42000000Y-82800000D03*
X44460000Y-84080000D03*
D15*
X47000000Y-79000000D03*
D14*
X47000000Y-84900000D03*
X50810000Y-81540000D03*
D13*
X52220000Y-75384200D03*
D12*
X52300000Y-79000000D03*
D16*
X49378000Y-73754900D03*
D17*
X38660000Y-82800000D03*
X50560000Y-84900000D03*
D16*
X44348100Y-73754900D03*
X49378000Y-75253500D03*
X44348100Y-75253500D03*
D18*
X40910000Y-84515000D03*
D19*
X53860000Y-81540000D03*
D12*
X41700000Y-98000000D03*
D13*
X41780000Y-94384200D03*
D14*
X42000000Y-101800000D03*
X44460000Y-103080000D03*
D15*
X47000000Y-98000000D03*
D14*
X47000000Y-103900000D03*
X50810000Y-100540000D03*
D13*
X52220000Y-94384200D03*
D12*
X52300000Y-98000000D03*
D16*
X49378000Y-92754900D03*
D17*
X38660000Y-101800000D03*
X50560000Y-103900000D03*
D16*
X44348100Y-92754900D03*
X49378000Y-94253500D03*
X44348100Y-94253500D03*
D18*
X40910000Y-103515000D03*
D19*
X53860000Y-100540000D03*
D20*
X39500000Y-54350000D03*
X39500000Y-57650000D03*
X39500000Y-92350000D03*
X39500000Y-95650000D03*
X39500000Y-35350000D03*
X39500000Y-38650000D03*
X39500000Y-73350000D03*
X39500000Y-76650000D03*
%LPD*%
M02*
