%TF.GenerationSoftware,KiCad,Pcbnew,7.0.5-7.0.5~ubuntu22.04.1*%
%TF.CreationDate,2023-06-01T20:12:10-07:00*%
%TF.ProjectId,KeysOnRails,4b657973-4f6e-4526-9169-6c732e6b6963,rev?*%
%TF.SameCoordinates,Original*%
%TF.FileFunction,Legend,Bot*%
%TF.FilePolarity,Positive*%
%FSLAX46Y46*%
G04 Gerber Fmt 4.6, Leading zero omitted, Abs format (unit mm)*
G04 Created by KiCad (PCBNEW 7.0.5-7.0.5~ubuntu22.04.1) date 2023-06-01 20:12:10*
%MOMM*%
%LPD*%
G01*
G04 APERTURE LIST*
G04 Aperture macros list*
%AMRoundRect*
0 Rectangle with rounded corners*
0 $1 Rounding radius*
0 $2 $3 $4 $5 $6 $7 $8 $9 X,Y pos of 4 corners*
0 Add a 4 corners polygon primitive as box body*
4,1,4,$2,$3,$4,$5,$6,$7,$8,$9,$2,$3,0*
0 Add four circle primitives for the rounded corners*
1,1,$1+$1,$2,$3*
1,1,$1+$1,$4,$5*
1,1,$1+$1,$6,$7*
1,1,$1+$1,$8,$9*
0 Add four rect primitives between the rounded corners*
20,1,$1+$1,$2,$3,$4,$5,0*
20,1,$1+$1,$4,$5,$6,$7,0*
20,1,$1+$1,$6,$7,$8,$9,0*
20,1,$1+$1,$8,$9,$2,$3,0*%
G04 Aperture macros list end*
%ADD10C,0.150000*%
%ADD11C,0.127000*%
%ADD12C,0.200000*%
%ADD13C,0.120000*%
%ADD14R,0.600000X1.550000*%
%ADD15R,1.200000X1.800000*%
%ADD16C,2.300000*%
%ADD17C,1.000000*%
%ADD18C,3.000000*%
%ADD19C,4.000000*%
%ADD20R,1.803400X0.812800*%
%ADD21RoundRect,0.063500X-1.300000X-1.300000X1.300000X-1.300000X1.300000X1.300000X-1.300000X1.300000X0*%
%ADD22RoundRect,0.063500X-1.750000X-1.750000X1.750000X-1.750000X1.750000X1.750000X-1.750000X1.750000X0*%
%ADD23R,0.900000X1.200000*%
G04 APERTURE END LIST*
D10*
%TO.C,J1*%
X44525332Y-38434676D02*
X44525332Y-38891819D01*
X44525332Y-38891819D02*
X44555809Y-38983247D01*
X44555809Y-38983247D02*
X44616761Y-39044200D01*
X44616761Y-39044200D02*
X44708190Y-39074676D01*
X44708190Y-39074676D02*
X44769142Y-39074676D01*
X43885332Y-39074676D02*
X44251047Y-39074676D01*
X44068190Y-39074676D02*
X44068190Y-38434676D01*
X44068190Y-38434676D02*
X44129142Y-38526104D01*
X44129142Y-38526104D02*
X44190094Y-38587057D01*
X44190094Y-38587057D02*
X44251047Y-38617533D01*
%TO.C,SW2*%
X48429999Y-59205519D02*
X48429999Y-59443614D01*
X48668094Y-59348376D02*
X48429999Y-59443614D01*
X48429999Y-59443614D02*
X48191904Y-59348376D01*
X48572856Y-59634090D02*
X48429999Y-59443614D01*
X48429999Y-59443614D02*
X48287142Y-59634090D01*
%TO.C,SW1*%
X48429999Y-41697019D02*
X48429999Y-41935114D01*
X48668094Y-41839876D02*
X48429999Y-41935114D01*
X48429999Y-41935114D02*
X48191904Y-41839876D01*
X48572856Y-42125590D02*
X48429999Y-41935114D01*
X48429999Y-41935114D02*
X48287142Y-42125590D01*
%TO.C,SW3*%
X48498099Y-76704119D02*
X48498099Y-76942214D01*
X48736194Y-76846976D02*
X48498099Y-76942214D01*
X48498099Y-76942214D02*
X48260004Y-76846976D01*
X48640956Y-77132690D02*
X48498099Y-76942214D01*
X48498099Y-76942214D02*
X48355242Y-77132690D01*
%TO.C,SW4*%
X48429999Y-94204119D02*
X48429999Y-94442214D01*
X48668094Y-94346976D02*
X48429999Y-94442214D01*
X48429999Y-94442214D02*
X48191904Y-94346976D01*
X48572856Y-94632690D02*
X48429999Y-94442214D01*
X48429999Y-94442214D02*
X48287142Y-94632690D01*
%TO.C,D2*%
X50121994Y-73907719D02*
X50121994Y-72907719D01*
X50121994Y-72907719D02*
X49883899Y-72907719D01*
X49883899Y-72907719D02*
X49741042Y-72955338D01*
X49741042Y-72955338D02*
X49645804Y-73050576D01*
X49645804Y-73050576D02*
X49598185Y-73145814D01*
X49598185Y-73145814D02*
X49550566Y-73336290D01*
X49550566Y-73336290D02*
X49550566Y-73479147D01*
X49550566Y-73479147D02*
X49598185Y-73669623D01*
X49598185Y-73669623D02*
X49645804Y-73764861D01*
X49645804Y-73764861D02*
X49741042Y-73860100D01*
X49741042Y-73860100D02*
X49883899Y-73907719D01*
X49883899Y-73907719D02*
X50121994Y-73907719D01*
X49169613Y-73002957D02*
X49121994Y-72955338D01*
X49121994Y-72955338D02*
X49026756Y-72907719D01*
X49026756Y-72907719D02*
X48788661Y-72907719D01*
X48788661Y-72907719D02*
X48693423Y-72955338D01*
X48693423Y-72955338D02*
X48645804Y-73002957D01*
X48645804Y-73002957D02*
X48598185Y-73098195D01*
X48598185Y-73098195D02*
X48598185Y-73193433D01*
X48598185Y-73193433D02*
X48645804Y-73336290D01*
X48645804Y-73336290D02*
X49217232Y-73907719D01*
X49217232Y-73907719D02*
X48598185Y-73907719D01*
%TO.C,D4*%
X50051994Y-108847719D02*
X50051994Y-107847719D01*
X50051994Y-107847719D02*
X49813899Y-107847719D01*
X49813899Y-107847719D02*
X49671042Y-107895338D01*
X49671042Y-107895338D02*
X49575804Y-107990576D01*
X49575804Y-107990576D02*
X49528185Y-108085814D01*
X49528185Y-108085814D02*
X49480566Y-108276290D01*
X49480566Y-108276290D02*
X49480566Y-108419147D01*
X49480566Y-108419147D02*
X49528185Y-108609623D01*
X49528185Y-108609623D02*
X49575804Y-108704861D01*
X49575804Y-108704861D02*
X49671042Y-108800100D01*
X49671042Y-108800100D02*
X49813899Y-108847719D01*
X49813899Y-108847719D02*
X50051994Y-108847719D01*
X48623423Y-108181052D02*
X48623423Y-108847719D01*
X48861518Y-107800100D02*
X49099613Y-108514385D01*
X49099613Y-108514385D02*
X48480566Y-108514385D01*
%TO.C,D1*%
X50021994Y-56197719D02*
X50021994Y-55197719D01*
X50021994Y-55197719D02*
X49783899Y-55197719D01*
X49783899Y-55197719D02*
X49641042Y-55245338D01*
X49641042Y-55245338D02*
X49545804Y-55340576D01*
X49545804Y-55340576D02*
X49498185Y-55435814D01*
X49498185Y-55435814D02*
X49450566Y-55626290D01*
X49450566Y-55626290D02*
X49450566Y-55769147D01*
X49450566Y-55769147D02*
X49498185Y-55959623D01*
X49498185Y-55959623D02*
X49545804Y-56054861D01*
X49545804Y-56054861D02*
X49641042Y-56150100D01*
X49641042Y-56150100D02*
X49783899Y-56197719D01*
X49783899Y-56197719D02*
X50021994Y-56197719D01*
X48498185Y-56197719D02*
X49069613Y-56197719D01*
X48783899Y-56197719D02*
X48783899Y-55197719D01*
X48783899Y-55197719D02*
X48879137Y-55340576D01*
X48879137Y-55340576D02*
X48974375Y-55435814D01*
X48974375Y-55435814D02*
X49069613Y-55483433D01*
%TO.C,D3*%
X50021994Y-91527719D02*
X50021994Y-90527719D01*
X50021994Y-90527719D02*
X49783899Y-90527719D01*
X49783899Y-90527719D02*
X49641042Y-90575338D01*
X49641042Y-90575338D02*
X49545804Y-90670576D01*
X49545804Y-90670576D02*
X49498185Y-90765814D01*
X49498185Y-90765814D02*
X49450566Y-90956290D01*
X49450566Y-90956290D02*
X49450566Y-91099147D01*
X49450566Y-91099147D02*
X49498185Y-91289623D01*
X49498185Y-91289623D02*
X49545804Y-91384861D01*
X49545804Y-91384861D02*
X49641042Y-91480100D01*
X49641042Y-91480100D02*
X49783899Y-91527719D01*
X49783899Y-91527719D02*
X50021994Y-91527719D01*
X49117232Y-90527719D02*
X48498185Y-90527719D01*
X48498185Y-90527719D02*
X48831518Y-90908671D01*
X48831518Y-90908671D02*
X48688661Y-90908671D01*
X48688661Y-90908671D02*
X48593423Y-90956290D01*
X48593423Y-90956290D02*
X48545804Y-91003909D01*
X48545804Y-91003909D02*
X48498185Y-91099147D01*
X48498185Y-91099147D02*
X48498185Y-91337242D01*
X48498185Y-91337242D02*
X48545804Y-91432480D01*
X48545804Y-91432480D02*
X48593423Y-91480100D01*
X48593423Y-91480100D02*
X48688661Y-91527719D01*
X48688661Y-91527719D02*
X48974375Y-91527719D01*
X48974375Y-91527719D02*
X49069613Y-91480100D01*
X49069613Y-91480100D02*
X49117232Y-91432480D01*
D11*
%TO.C,J1*%
X43460000Y-36430000D02*
X42580000Y-36430000D01*
X42580000Y-36430000D02*
X42580000Y-34100000D01*
X43690000Y-32180000D02*
X52470000Y-32180000D01*
X52700000Y-36430000D02*
X53580000Y-36430000D01*
X53580000Y-36430000D02*
X53580000Y-34100000D01*
D12*
X44180000Y-38080000D02*
G75*
G03*
X44180000Y-38080000I-100000J0D01*
G01*
D10*
%TO.C,SW2*%
X41180000Y-65696500D02*
X41180000Y-70596500D01*
X41180000Y-70596500D02*
X45890000Y-70596500D01*
X44130000Y-71046500D02*
X44130000Y-68096500D01*
X44730000Y-67546500D02*
X48730000Y-67546500D01*
X45890000Y-65696500D02*
X41180000Y-65696500D01*
X45890000Y-67421500D02*
X45890000Y-65696500D01*
X45890000Y-70596500D02*
X45890000Y-72496500D01*
X45890000Y-72496500D02*
X50680000Y-72496500D01*
D13*
X46702800Y-61274700D02*
X50157200Y-61274700D01*
X50157200Y-58226700D02*
X46702800Y-58226700D01*
D10*
X50680000Y-67421500D02*
X45890000Y-67421500D01*
X50680000Y-72496500D02*
X50680000Y-67421500D01*
X50730000Y-65746500D02*
X50730000Y-65596500D01*
X51080000Y-65046500D02*
X53930000Y-65046500D01*
X51730000Y-71046500D02*
X44130000Y-71046500D01*
X53930000Y-65046500D02*
X53930000Y-68846500D01*
X44730000Y-67546500D02*
G75*
G03*
X44130000Y-68096500I-25000J-575000D01*
G01*
X48730000Y-67546498D02*
G75*
G03*
X50729998Y-65746499I100000J1899998D01*
G01*
X51080000Y-65046500D02*
G75*
G03*
X50730000Y-65596500I100000J-450000D01*
G01*
X51730000Y-71046500D02*
G75*
G03*
X53930000Y-68846500I0J2200000D01*
G01*
%TO.C,SW1*%
X41180000Y-48188000D02*
X41180000Y-53088000D01*
X41180000Y-53088000D02*
X45890000Y-53088000D01*
X44130000Y-53538000D02*
X44130000Y-50588000D01*
X44730000Y-50038000D02*
X48730000Y-50038000D01*
X45890000Y-48188000D02*
X41180000Y-48188000D01*
X45890000Y-49913000D02*
X45890000Y-48188000D01*
X45890000Y-53088000D02*
X45890000Y-54988000D01*
X45890000Y-54988000D02*
X50680000Y-54988000D01*
D13*
X46702800Y-43766200D02*
X50157200Y-43766200D01*
X50157200Y-40718200D02*
X46702800Y-40718200D01*
D10*
X50680000Y-49913000D02*
X45890000Y-49913000D01*
X50680000Y-54988000D02*
X50680000Y-49913000D01*
X50730000Y-48238000D02*
X50730000Y-48088000D01*
X51080000Y-47538000D02*
X53930000Y-47538000D01*
X51730000Y-53538000D02*
X44130000Y-53538000D01*
X53930000Y-47538000D02*
X53930000Y-51338000D01*
X44730000Y-50038000D02*
G75*
G03*
X44130000Y-50588000I-25000J-575000D01*
G01*
X48730000Y-50037998D02*
G75*
G03*
X50729998Y-48237999I100000J1899998D01*
G01*
X51080000Y-47538000D02*
G75*
G03*
X50730000Y-48088000I100000J-450000D01*
G01*
X51730000Y-53538000D02*
G75*
G03*
X53930000Y-51338000I0J2200000D01*
G01*
%TO.C,SW3*%
X41248100Y-83195100D02*
X41248100Y-88095100D01*
X41248100Y-88095100D02*
X45958100Y-88095100D01*
X44198100Y-88545100D02*
X44198100Y-85595100D01*
X44798100Y-85045100D02*
X48798100Y-85045100D01*
X45958100Y-83195100D02*
X41248100Y-83195100D01*
X45958100Y-84920100D02*
X45958100Y-83195100D01*
X45958100Y-88095100D02*
X45958100Y-89995100D01*
X45958100Y-89995100D02*
X50748100Y-89995100D01*
D13*
X46770900Y-78773300D02*
X50225300Y-78773300D01*
X50225300Y-75725300D02*
X46770900Y-75725300D01*
D10*
X50748100Y-84920100D02*
X45958100Y-84920100D01*
X50748100Y-89995100D02*
X50748100Y-84920100D01*
X50798100Y-83245100D02*
X50798100Y-83095100D01*
X51148100Y-82545100D02*
X53998100Y-82545100D01*
X51798100Y-88545100D02*
X44198100Y-88545100D01*
X53998100Y-82545100D02*
X53998100Y-86345100D01*
X44798100Y-85045100D02*
G75*
G03*
X44198100Y-85595100I-25000J-575000D01*
G01*
X48798100Y-85045098D02*
G75*
G03*
X50798098Y-83245099I100000J1899998D01*
G01*
X51148100Y-82545100D02*
G75*
G03*
X50798100Y-83095100I100000J-450000D01*
G01*
X51798100Y-88545100D02*
G75*
G03*
X53998100Y-86345100I0J2200000D01*
G01*
%TO.C,SW4*%
X41180000Y-100695100D02*
X41180000Y-105595100D01*
X41180000Y-105595100D02*
X45890000Y-105595100D01*
X44130000Y-106045100D02*
X44130000Y-103095100D01*
X44730000Y-102545100D02*
X48730000Y-102545100D01*
X45890000Y-100695100D02*
X41180000Y-100695100D01*
X45890000Y-102420100D02*
X45890000Y-100695100D01*
X45890000Y-105595100D02*
X45890000Y-107495100D01*
X45890000Y-107495100D02*
X50680000Y-107495100D01*
D13*
X46702800Y-96273300D02*
X50157200Y-96273300D01*
X50157200Y-93225300D02*
X46702800Y-93225300D01*
D10*
X50680000Y-102420100D02*
X45890000Y-102420100D01*
X50680000Y-107495100D02*
X50680000Y-102420100D01*
X50730000Y-100745100D02*
X50730000Y-100595100D01*
X51080000Y-100045100D02*
X53930000Y-100045100D01*
X51730000Y-106045100D02*
X44130000Y-106045100D01*
X53930000Y-100045100D02*
X53930000Y-103845100D01*
X44730000Y-102545100D02*
G75*
G03*
X44130000Y-103095100I-25000J-575000D01*
G01*
X48730000Y-102545098D02*
G75*
G03*
X50729998Y-100745099I100000J1899998D01*
G01*
X51080000Y-100045100D02*
G75*
G03*
X50730000Y-100595100I100000J-450000D01*
G01*
X51730000Y-106045100D02*
G75*
G03*
X53930000Y-103845100I0J2200000D01*
G01*
D13*
%TO.C,D2*%
X55470000Y-72000000D02*
X51570000Y-72000000D01*
X55470000Y-72000000D02*
X55470000Y-74000000D01*
X55470000Y-74000000D02*
X51570000Y-74000000D01*
%TO.C,D4*%
X55500000Y-107000000D02*
X51600000Y-107000000D01*
X55500000Y-107000000D02*
X55500000Y-109000000D01*
X55500000Y-109000000D02*
X51600000Y-109000000D01*
%TO.C,D1*%
X55470000Y-54410000D02*
X51570000Y-54410000D01*
X55470000Y-54410000D02*
X55470000Y-56410000D01*
X55470000Y-56410000D02*
X51570000Y-56410000D01*
%TO.C,D3*%
X55470000Y-89500000D02*
X51570000Y-89500000D01*
X55470000Y-89500000D02*
X55470000Y-91500000D01*
X55470000Y-91500000D02*
X51570000Y-91500000D01*
%TD*%
%LPC*%
D14*
%TO.C,J1*%
X44080000Y-36755000D03*
D15*
X42780000Y-32880000D03*
X53380000Y-32880000D03*
D14*
X45080000Y-36755000D03*
X46080000Y-36755000D03*
X47080000Y-36755000D03*
X48080000Y-36755000D03*
X49080000Y-36755000D03*
X50080000Y-36755000D03*
X51080000Y-36755000D03*
X52080000Y-36755000D03*
%TD*%
D16*
%TO.C,SW2*%
X43130000Y-64246500D03*
D17*
X43210000Y-60630700D03*
D18*
X43430000Y-68046500D03*
X45890000Y-69326500D03*
D19*
X48430000Y-64246500D03*
D18*
X48430000Y-70146500D03*
X52240000Y-66786500D03*
D17*
X53650000Y-60630700D03*
D16*
X53730000Y-64246500D03*
D20*
X50931900Y-59001400D03*
D21*
X39790000Y-68046500D03*
X51990000Y-70146500D03*
D20*
X45928100Y-59001400D03*
X50931900Y-60500000D03*
X45928100Y-60500000D03*
D22*
X42340000Y-69761500D03*
D21*
X55290000Y-66786500D03*
%TD*%
D16*
%TO.C,SW1*%
X43130000Y-46738000D03*
D17*
X43210000Y-43122200D03*
D18*
X43430000Y-50538000D03*
X45890000Y-51818000D03*
D19*
X48430000Y-46738000D03*
D18*
X48430000Y-52638000D03*
X52240000Y-49278000D03*
D17*
X53650000Y-43122200D03*
D16*
X53730000Y-46738000D03*
D20*
X50931900Y-41492900D03*
D21*
X39790000Y-50538000D03*
X51990000Y-52638000D03*
D20*
X45928100Y-41492900D03*
X50931900Y-42991500D03*
X45928100Y-42991500D03*
D22*
X42340000Y-52253000D03*
D21*
X55290000Y-49278000D03*
%TD*%
D16*
%TO.C,SW3*%
X43198100Y-81745100D03*
D17*
X43278100Y-78129300D03*
D18*
X43498100Y-85545100D03*
X45958100Y-86825100D03*
D19*
X48498100Y-81745100D03*
D18*
X48498100Y-87645100D03*
X52308100Y-84285100D03*
D17*
X53718100Y-78129300D03*
D16*
X53798100Y-81745100D03*
D20*
X51000000Y-76500000D03*
D21*
X39858100Y-85545100D03*
X52058100Y-87645100D03*
D20*
X45996200Y-76500000D03*
X51000000Y-77998600D03*
X45996200Y-77998600D03*
D22*
X42408100Y-87260100D03*
D21*
X55358100Y-84285100D03*
%TD*%
D16*
%TO.C,SW4*%
X43130000Y-99245100D03*
D17*
X43210000Y-95629300D03*
D18*
X43430000Y-103045100D03*
X45890000Y-104325100D03*
D19*
X48430000Y-99245100D03*
D18*
X48430000Y-105145100D03*
X52240000Y-101785100D03*
D17*
X53650000Y-95629300D03*
D16*
X53730000Y-99245100D03*
D20*
X50931900Y-94000000D03*
D21*
X39790000Y-103045100D03*
X51990000Y-105145100D03*
D20*
X45928100Y-94000000D03*
X50931900Y-95498600D03*
X45928100Y-95498600D03*
D22*
X42340000Y-104760100D03*
D21*
X55290000Y-101785100D03*
%TD*%
D23*
%TO.C,D2*%
X54870000Y-73000000D03*
X51570000Y-73000000D03*
%TD*%
%TO.C,D4*%
X54900000Y-108000000D03*
X51600000Y-108000000D03*
%TD*%
%TO.C,D1*%
X54870000Y-55410000D03*
X51570000Y-55410000D03*
%TD*%
%TO.C,D3*%
X54870000Y-90500000D03*
X51570000Y-90500000D03*
%TD*%
%LPD*%
M02*
