G04 #@! TF.GenerationSoftware,KiCad,Pcbnew,7.0.8*
G04 #@! TF.CreationDate,2023-10-17T17:25:18-07:00*
G04 #@! TF.ProjectId,Seismos_CoreL,53656973-6d6f-4735-9f43-6f72654c2e6b,rev?*
G04 #@! TF.SameCoordinates,Original*
G04 #@! TF.FileFunction,Profile,NP*
%FSLAX46Y46*%
G04 Gerber Fmt 4.6, Leading zero omitted, Abs format (unit mm)*
G04 Created by KiCad (PCBNEW 7.0.8) date 2023-10-17 17:25:18*
%MOMM*%
%LPD*%
G01*
G04 APERTURE LIST*
G04 #@! TA.AperFunction,Profile*
%ADD10C,0.100000*%
G04 #@! TD*
G04 #@! TA.AperFunction,Profile*
%ADD11C,0.120000*%
G04 #@! TD*
G04 APERTURE END LIST*
D10*
X151134000Y-98000000D02*
X175500000Y-98000000D01*
X177000000Y-21500000D02*
G75*
G03*
X175500000Y-20000000I-1500000J0D01*
G01*
X149634000Y-42810000D02*
X149634000Y-96500000D01*
X149634000Y-96500000D02*
G75*
G03*
X151134000Y-98000000I1500000J0D01*
G01*
X31500000Y-39000000D02*
X145824000Y-39000000D01*
X30000000Y-37500000D02*
G75*
G03*
X31500000Y-39000000I1500000J0D01*
G01*
X31500000Y-20000000D02*
G75*
G03*
X30000000Y-21500000I0J-1500000D01*
G01*
X177000000Y-21500000D02*
X177000000Y-96500000D01*
X175500000Y-98000000D02*
G75*
G03*
X177000000Y-96500000I0J1500000D01*
G01*
X149634000Y-42810000D02*
G75*
G03*
X145824000Y-39000000I-3810000J0D01*
G01*
X175500000Y-20000000D02*
X31500000Y-20000000D01*
X30000000Y-21500000D02*
X30000000Y-37500000D01*
D11*
X37874400Y-33922400D02*
X41074800Y-33922400D01*
X41074800Y-33922400D02*
X41074800Y-31077600D01*
X41074800Y-31077600D02*
X37874400Y-31077600D01*
X37874400Y-31077600D02*
X37874400Y-33922400D01*
X134374400Y-33922400D02*
X137574800Y-33922400D01*
X137574800Y-33922400D02*
X137574800Y-31077600D01*
X137574800Y-31077600D02*
X134374400Y-31077600D01*
X134374400Y-31077600D02*
X134374400Y-33922400D01*
X95774400Y-33922400D02*
X98974800Y-33922400D01*
X98974800Y-33922400D02*
X98974800Y-31077600D01*
X98974800Y-31077600D02*
X95774400Y-31077600D01*
X95774400Y-31077600D02*
X95774400Y-33922400D01*
X76474400Y-33922400D02*
X79674800Y-33922400D01*
X79674800Y-33922400D02*
X79674800Y-31077600D01*
X79674800Y-31077600D02*
X76474400Y-31077600D01*
X76474400Y-31077600D02*
X76474400Y-33922400D01*
X115074400Y-33922400D02*
X118274800Y-33922400D01*
X118274800Y-33922400D02*
X118274800Y-31077600D01*
X118274800Y-31077600D02*
X115074400Y-31077600D01*
X115074400Y-31077600D02*
X115074400Y-33922400D01*
X57174400Y-33922400D02*
X60374800Y-33922400D01*
X60374800Y-33922400D02*
X60374800Y-31077600D01*
X60374800Y-31077600D02*
X57174400Y-31077600D01*
X57174400Y-31077600D02*
X57174400Y-33922400D01*
M02*
